<?xml version="1.0" encoding="UTF-8" standalone="no"?>
<!-- Created with Inkscape (http://www.inkscape.org/) -->

<svg
   xmlns:dc="http://purl.org/dc/elements/1.1/"
   xmlns:cc="http://creativecommons.org/ns#"
   xmlns:rdf="http://www.w3.org/1999/02/22-rdf-syntax-ns#"
   xmlns:svg="http://www.w3.org/2000/svg"
   xmlns="http://www.w3.org/2000/svg"
   xmlns:sodipodi="http://sodipodi.sourceforge.net/DTD/sodipodi-0.dtd"
   xmlns:inkscape="http://www.inkscape.org/namespaces/inkscape"
   width="64.582596"
   height="101.71633"
   viewBox="0 0 17.087479 26.912445"
   version="1.1"
   id="svg8"
   inkscape:version="0.92+devel unknown"
   sodipodi:docname="pingun_2.svg"
   inkscape:export-filename="/home/anxhelo/Desktop/Design/Linux Foundation/pinguin_1.png"
   inkscape:export-xdpi="96"
   inkscape:export-ydpi="96">
  <defs
     id="defs2">
    <clipPath
       clipPathUnits="userSpaceOnUse"
       id="clipPath206">
      <path
         d="m 204.83,624.764 h 37.018 v -4.828 H 204.83 Z"
         id="path204"
         inkscape:connector-curvature="0" />
    </clipPath>
    <clipPath
       clipPathUnits="userSpaceOnUse"
       id="clipPath230">
      <path
         d="m 212.308,626.711 h 7.154 v -2.855 h -7.154 z"
         id="path228"
         inkscape:connector-curvature="0" />
    </clipPath>
    <clipPath
       clipPathUnits="userSpaceOnUse"
       id="clipPath246">
      <path
         d="m 227.788,626.598 h 7.551 v -2.266 h -7.551 z"
         id="path244"
         inkscape:connector-curvature="0" />
    </clipPath>
    <clipPath
       clipPathUnits="userSpaceOnUse"
       id="clipPath290">
      <path
         d="m 216.244,703.032 h 14.64 v -15.084 h -14.64 z"
         id="path288"
         inkscape:connector-curvature="0" />
    </clipPath>
    <clipPath
       clipPathUnits="userSpaceOnUse"
       id="clipPath338">
      <path
         d="m 190.732,564.067 h 9.912 v -9.909 h -9.912 z"
         id="path336"
         inkscape:connector-curvature="0" />
    </clipPath>
    <clipPath
       clipPathUnits="userSpaceOnUse"
       id="clipPath358">
      <path
         d="m 199.405,566.771 h 20.625 v -6.679 h -20.625 z"
         id="path356"
         inkscape:connector-curvature="0" />
    </clipPath>
    <clipPath
       clipPathUnits="userSpaceOnUse"
       id="clipPath374">
      <path
         d="m 192.654,557.571 h 9.914 v -9.91 h -9.914 z"
         id="path372"
         inkscape:connector-curvature="0" />
    </clipPath>
    <clipPath
       clipPathUnits="userSpaceOnUse"
       id="clipPath394">
      <path
         d="m 194.579,551.075 h 9.912 v -9.91 h -9.912 z"
         id="path392"
         inkscape:connector-curvature="0" />
    </clipPath>
    <clipPath
       clipPathUnits="userSpaceOnUse"
       id="clipPath414">
      <path
         d="m 196.503,544.579 h 9.912 v -9.91 h -9.912 z"
         id="path412"
         inkscape:connector-curvature="0" />
    </clipPath>
    <clipPath
       clipPathUnits="userSpaceOnUse"
       id="clipPath438">
      <path
         d="M 201.279,501.637 H 238.7 v -4.881 h -37.421 z"
         id="path436"
         inkscape:connector-curvature="0" />
    </clipPath>
    <clipPath
       clipPathUnits="userSpaceOnUse"
       id="clipPath974">
      <path
         d="m 201.328,560.275 h 20.626 v -6.679 h -20.626 z"
         id="path972"
         inkscape:connector-curvature="0" />
    </clipPath>
    <clipPath
       clipPathUnits="userSpaceOnUse"
       id="clipPath990">
      <path
         d="m 203.252,553.779 h 20.625 V 547.1 h -20.625 z"
         id="path988"
         inkscape:connector-curvature="0" />
    </clipPath>
    <clipPath
       clipPathUnits="userSpaceOnUse"
       id="clipPath1006">
      <path
         d="m 205.175,547.283 h 20.626 v -6.679 h -20.626 z"
         id="path1004"
         inkscape:connector-curvature="0" />
    </clipPath>
  </defs>
  <sodipodi:namedview
     id="base"
     pagecolor="#ffffff"
     bordercolor="#666666"
     borderopacity="1.0"
     inkscape:pageopacity="0.0"
     inkscape:pageshadow="2"
     inkscape:zoom="1.4"
     inkscape:cx="-104.78414"
     inkscape:cy="71.347725"
     inkscape:document-units="mm"
     inkscape:current-layer="layer1"
     inkscape:document-rotation="0"
     showgrid="true"
     borderlayer="true"
     inkscape:showpageshadow="false"
     units="px"
     inkscape:pagecheckerboard="false"
     showguides="true"
     inkscape:window-width="1366"
     inkscape:window-height="716"
     inkscape:window-x="0"
     inkscape:window-y="0"
     inkscape:window-maximized="1"
     fit-margin-top="0"
     fit-margin-left="0"
     fit-margin-right="0"
     fit-margin-bottom="0">
    <inkscape:grid
       type="xygrid"
       id="grid10"
       originx="-124.45755"
       originy="-79.661347" />
  </sodipodi:namedview>
  <metadata
     id="metadata5">
    <rdf:RDF>
      <cc:Work
         rdf:about="">
        <dc:format>image/svg+xml</dc:format>
        <dc:type
           rdf:resource="http://purl.org/dc/dcmitype/StillImage" />
        <dc:title></dc:title>
      </cc:Work>
    </rdf:RDF>
  </metadata>
  <g
     inkscape:label="Layer 1"
     inkscape:groupmode="layer"
     id="layer1"
     transform="translate(-124.45753,-190.42621)">
    <g
       id="g5589"
       transform="translate(24.271554,32.411738)">
      <g
         transform="matrix(0.35277777,0,0,-0.35277777,104.22079,174.97544)"
         id="g328">
        <path
           inkscape:connector-curvature="0"
           id="path330"
           style="fill:#edeced;fill-opacity:1;fill-rule:nonzero;stroke:none"
           d="m 0,0 -11.323,37.015 c -0.422,1.38 0.362,2.854 1.741,3.276 l 25.087,7.673 c 1.38,0.422 2.854,-0.361 3.276,-1.741 L 30.103,9.208 C 30.525,7.829 29.742,6.355 28.362,5.933 L 3.276,-1.741 C 1.896,-2.163 0.422,-1.38 0,0" />
      </g>
      <g
         id="g332"
         transform="matrix(0.35277777,0,0,-0.35277777,33.065404,360.17139)">
        <g
           id="g334" />
        <g
           id="g346">
          <g
             id="g344"
             opacity="0.350006"
             clip-path="url(#clipPath338)">
            <g
               id="g342"
               transform="translate(194.7734,558.7748)">
              <path
                 inkscape:connector-curvature="0"
                 id="path340"
                 style="fill:#a3a4a4;fill-opacity:1;fill-rule:nonzero;stroke:none"
                 d="m 0,0 c 0.338,-0.305 0.752,-0.526 1.202,-0.634 0.167,0.174 0.311,0.37 0.427,0.584 0.081,0.149 0.147,0.304 0.199,0.463 V 0.674 C 1.489,0.98 1.076,1.201 0.626,1.309 0.34,1.009 0.126,0.647 0,0.254 Z m 0,-4.617 c -1.437,0 -2.727,0.962 -3.136,2.34 l -0.77,2.6 c -0.248,0.841 -0.154,1.723 0.262,2.49 0.418,0.77 1.112,1.331 1.953,1.577 l 3.007,0.891 0.512,0.011 c 1.441,0 2.731,-0.964 3.138,-2.346 L 5.734,0.352 C 5.983,-0.485 5.89,-1.371 5.471,-2.14 5.054,-2.906 4.365,-3.465 3.529,-3.713 L 0.511,-4.606 Z" />
            </g>
          </g>
        </g>
      </g>
      <g
         transform="matrix(0.35277777,0,0,-0.35277777,102.69672,162.4555)"
         id="g348">
        <path
           inkscape:connector-curvature="0"
           id="path350"
           style="fill:#e7627f;fill-opacity:1;fill-rule:nonzero;stroke:none"
           d="M 0,0 C 0.019,-0.065 0.013,-0.126 -0.019,-0.185 L -1.253,-2.456 -1.485,-2.883 C -1.516,-2.942 -1.565,-2.981 -1.629,-3 -1.694,-3.019 -1.755,-3.012 -1.814,-2.981 l -0.426,0.232 -1.136,0.617 c -0.059,0.032 -0.098,0.08 -0.117,0.144 -0.019,0.065 -0.013,0.127 0.019,0.185 l 0.232,0.427 c 0.032,0.058 0.08,0.097 0.144,0.116 0.065,0.02 0.127,0.013 0.185,-0.019 l 0.923,-0.503 1.117,2.061 c 0.032,0.058 0.08,0.097 0.145,0.116 0.065,0.019 0.126,0.013 0.185,-0.019 L -0.116,0.144 C -0.058,0.113 -0.019,0.064 0,0" />
      </g>
      <g
         id="g352"
         transform="matrix(0.35277777,0,0,-0.35277777,33.065404,360.17139)">
        <g
           id="g354" />
        <g
           id="g366">
          <g
             id="g364"
             opacity="0.350006"
             clip-path="url(#clipPath358)">
            <g
               id="g362"
               transform="translate(219.7392,565.9752)">
              <path
                 inkscape:connector-curvature="0"
                 id="path360"
                 style="fill:#a3a4a4;fill-opacity:1;fill-rule:nonzero;stroke:none"
                 d="m 0,0 -19.813,-5.867 c -0.214,-0.063 -0.442,0.06 -0.505,0.275 -0.063,0.214 0.06,0.441 0.274,0.505 L -0.231,0.78 C -0.016,0.843 0.211,0.72 0.274,0.505 0.338,0.291 0.214,0.063 0,0" />
            </g>
          </g>
        </g>
      </g>
      <g
         id="g368"
         transform="matrix(0.35277777,0,0,-0.35277777,33.065404,360.17139)">
        <g
           id="g370" />
        <g
           id="g382">
          <g
             id="g380"
             opacity="0.350006"
             clip-path="url(#clipPath374)">
            <g
               id="g378"
               transform="translate(196.6968,552.2694)">
              <path
                 inkscape:connector-curvature="0"
                 id="path376"
                 style="fill:#a3a4a4;fill-opacity:1;fill-rule:nonzero;stroke:none"
                 d="m 0,0 c 0.337,-0.304 0.748,-0.521 1.199,-0.626 0.287,0.3 0.503,0.662 0.63,1.056 V 0.685 C 1.489,0.99 1.075,1.211 0.625,1.319 0.459,1.146 0.316,0.95 0.199,0.734 0.118,0.584 0.052,0.428 0,0.267 Z m 0,-4.608 c -1.44,0 -2.73,0.965 -3.138,2.346 l -0.768,2.595 c -0.248,0.833 -0.156,1.719 0.261,2.488 0.416,0.767 1.106,1.326 1.942,1.575 l 3.02,0.895 0.512,0.011 c 1.436,0 2.725,-0.961 3.135,-2.338 L 5.734,0.361 C 5.983,-0.472 5.891,-1.358 5.473,-2.127 5.057,-2.894 4.368,-3.454 3.532,-3.703 L 0.511,-4.597 Z" />
            </g>
          </g>
        </g>
      </g>
      <g
         transform="matrix(0.35277777,0,0,-0.35277777,103.37529,164.74718)"
         id="g384">
        <path
           inkscape:connector-curvature="0"
           id="path386"
           style="fill:#e7627f;fill-opacity:1;fill-rule:nonzero;stroke:none"
           d="M 0,0 C 0.019,-0.065 0.013,-0.126 -0.019,-0.185 L -1.253,-2.456 -1.484,-2.883 C -1.516,-2.942 -1.565,-2.98 -1.629,-3 -1.694,-3.019 -1.755,-3.012 -1.814,-2.981 l -0.426,0.232 -1.136,0.617 c -0.059,0.032 -0.098,0.08 -0.117,0.144 -0.019,0.065 -0.013,0.127 0.019,0.185 l 0.232,0.427 c 0.032,0.058 0.08,0.097 0.145,0.116 0.064,0.02 0.126,0.013 0.184,-0.019 l 0.923,-0.503 1.118,2.061 c 0.031,0.058 0.08,0.097 0.144,0.116 0.065,0.019 0.126,0.013 0.185,-0.019 L -0.116,0.145 C -0.058,0.113 -0.019,0.065 0,0" />
      </g>
      <g
         id="g388"
         transform="matrix(0.35277777,0,0,-0.35277777,33.065404,360.17139)">
        <g
           id="g390" />
        <g
           id="g402">
          <g
             id="g400"
             opacity="0.350006"
             clip-path="url(#clipPath394)">
            <g
               id="g398"
               transform="translate(198.6206,545.7836)">
              <path
                 inkscape:connector-curvature="0"
                 id="path396"
                 style="fill:#a3a4a4;fill-opacity:1;fill-rule:nonzero;stroke:none"
                 d="m 0,0 c 0.339,-0.306 0.753,-0.527 1.204,-0.635 0.164,0.172 0.307,0.367 0.423,0.582 0.082,0.151 0.149,0.309 0.201,0.471 V 0.684 C 1.492,0.988 1.081,1.205 0.628,1.31 0.461,1.136 0.316,0.939 0.199,0.725 0.118,0.575 0.052,0.42 0,0.262 Z m 0,-4.618 c -1.436,0 -2.726,0.961 -3.135,2.337 l -0.771,2.603 c -0.513,1.727 0.476,3.552 2.205,4.065 L 1.317,5.28 1.828,5.292 c 1.438,0 2.727,-0.963 3.136,-2.34 L 5.734,0.351 C 5.982,-0.49 5.888,-1.372 5.472,-2.139 5.054,-2.909 4.36,-3.469 3.52,-3.716 L 0.512,-4.607 Z" />
            </g>
          </g>
        </g>
      </g>
      <g
         transform="matrix(0.35277777,0,0,-0.35277777,104.05389,167.03879)"
         id="g404">
        <path
           inkscape:connector-curvature="0"
           id="path406"
           style="fill:#e7627f;fill-opacity:1;fill-rule:nonzero;stroke:none"
           d="M 0,0 C 0.019,-0.065 0.013,-0.126 -0.019,-0.185 L -1.253,-2.456 -1.485,-2.883 C -1.516,-2.942 -1.565,-2.981 -1.629,-3 -1.694,-3.019 -1.755,-3.012 -1.814,-2.981 l -0.427,0.232 -1.135,0.617 c -0.059,0.032 -0.098,0.08 -0.117,0.144 -0.019,0.065 -0.013,0.127 0.019,0.185 l 0.232,0.427 c 0.032,0.058 0.08,0.097 0.144,0.116 0.065,0.02 0.127,0.013 0.185,-0.019 l 0.923,-0.503 1.118,2.061 c 0.031,0.058 0.079,0.097 0.144,0.116 0.065,0.019 0.126,0.013 0.185,-0.019 L -0.117,0.144 C -0.058,0.113 -0.019,0.064 0,0" />
      </g>
      <g
         id="g408"
         transform="matrix(0.35277777,0,0,-0.35277777,33.065404,360.17139)">
        <g
           id="g410" />
        <g
           id="g422">
          <g
             id="g420"
             opacity="0.350006"
             clip-path="url(#clipPath414)">
            <g
               id="g418"
               transform="translate(200.5439,539.286)">
              <path
                 inkscape:connector-curvature="0"
                 id="path416"
                 style="fill:#a3a4a4;fill-opacity:1;fill-rule:nonzero;stroke:none"
                 d="m 0,0 c 0.338,-0.305 0.752,-0.525 1.202,-0.633 0.167,0.175 0.312,0.371 0.428,0.586 0.081,0.149 0.147,0.304 0.198,0.465 V 0.675 C 1.489,0.981 1.076,1.202 0.626,1.309 0.46,1.136 0.316,0.94 0.2,0.727 0.118,0.577 0.052,0.419 0,0.257 Z m 0,-4.617 c -1.437,0 -2.727,0.963 -3.136,2.341 l -0.77,2.6 c -0.512,1.727 0.476,3.551 2.205,4.065 l 3.018,0.893 0.511,0.011 c 1.442,0 2.733,-0.966 3.139,-2.349 L 5.734,0.353 C 5.983,-0.484 5.89,-1.369 5.472,-2.138 5.054,-2.907 4.362,-3.467 3.523,-3.714 L 0.512,-4.605 Z" />
            </g>
          </g>
        </g>
      </g>
      <g
         transform="matrix(0.35277777,0,0,-0.35277777,104.73246,169.3304)"
         id="g424">
        <path
           inkscape:connector-curvature="0"
           id="path426"
           style="fill:#e7627f;fill-opacity:1;fill-rule:nonzero;stroke:none"
           d="M 0,0 C 0.019,-0.065 0.013,-0.126 -0.019,-0.185 L -1.253,-2.457 -1.484,-2.883 C -1.516,-2.942 -1.565,-2.981 -1.629,-3 -1.694,-3.019 -1.755,-3.013 -1.814,-2.981 l -0.426,0.232 -1.136,0.617 c -0.059,0.032 -0.098,0.08 -0.117,0.144 -0.019,0.065 -0.013,0.127 0.019,0.185 l 0.232,0.427 c 0.032,0.058 0.08,0.097 0.145,0.116 0.064,0.02 0.126,0.013 0.184,-0.019 l 0.923,-0.503 1.118,2.061 c 0.031,0.058 0.079,0.097 0.144,0.116 0.065,0.019 0.126,0.013 0.185,-0.019 L -0.116,0.144 C -0.058,0.113 -0.019,0.064 0,0" />
      </g>
      <g
         transform="matrix(0.35277777,0,0,-0.35277777,113.45111,170.48186)"
         id="g428">
        <path
           inkscape:connector-curvature="0"
           id="path430"
           style="fill:#e2e4e4;fill-opacity:1;fill-rule:nonzero;stroke:none"
           d="m 0,0 -0.617,1.641 -1.013,1.406 -1.881,11.011 -0.263,0.696 -2.017,5.339 -5.548,3.154 -6.76,0.491 0.231,-0.267 0.038,-0.007 1.47,-1.503 -3.095,-0.508 -3.155,-6.007 0.148,-13.353 -1.199,-2.199 -2.977,-11.086 0.503,-1.718 c 0,0 0.366,-0.874 1.098,-1.301 0.732,-0.427 1.687,-0.345 1.687,-0.345 l 0.344,0.042 23.777,7.273 z" />
      </g>
      <g
         id="g432"
         transform="matrix(0.35277777,0,0,-0.35277777,33.065404,360.17139)">
        <g
           id="g434" />
        <g
           id="g446">
          <g
             id="g444"
             opacity="0.100006"
             clip-path="url(#clipPath438)">
            <g
               id="g442"
               transform="translate(238.7001,499.1963)">
              <path
                 inkscape:connector-curvature="0"
                 id="path440"
                 style="fill:#3f4d4e;fill-opacity:1;fill-rule:nonzero;stroke:none"
                 d="m 0,0 c 0,-1.348 -8.377,-2.441 -18.711,-2.441 -10.333,0 -18.71,1.093 -18.71,2.441 0,1.348 8.377,2.44 18.71,2.44 C -8.377,2.44 0,1.348 0,0" />
            </g>
          </g>
        </g>
      </g>
      <g
         id="g968"
         transform="matrix(0.35277777,0,0,-0.35277777,33.065404,360.17139)">
        <g
           id="g970" />
        <g
           id="g982">
          <g
             id="g980"
             opacity="0.350006"
             clip-path="url(#clipPath974)">
            <g
               id="g978"
               transform="translate(221.6627,559.4792)">
              <path
                 inkscape:connector-curvature="0"
                 id="path976"
                 style="fill:#a3a4a4;fill-opacity:1;fill-rule:nonzero;stroke:none"
                 d="m 0,0 -19.813,-5.867 c -0.214,-0.063 -0.442,0.06 -0.505,0.275 -0.063,0.214 0.06,0.441 0.274,0.505 L -0.231,0.779 C -0.016,0.843 0.211,0.72 0.274,0.505 0.338,0.291 0.214,0.063 0,0" />
            </g>
          </g>
        </g>
      </g>
      <g
         id="g984"
         transform="matrix(0.35277777,0,0,-0.35277777,33.065404,360.17139)">
        <g
           id="g986" />
        <g
           id="g998">
          <g
             id="g996"
             opacity="0.350006"
             clip-path="url(#clipPath990)">
            <g
               id="g994"
               transform="translate(223.5863,552.9832)">
              <path
                 inkscape:connector-curvature="0"
                 id="path992"
                 style="fill:#a3a4a4;fill-opacity:1;fill-rule:nonzero;stroke:none"
                 d="m 0,0 -19.813,-5.867 c -0.214,-0.063 -0.442,0.06 -0.505,0.275 -0.063,0.214 0.06,0.441 0.274,0.505 L -0.231,0.78 C -0.016,0.843 0.211,0.72 0.274,0.505 0.338,0.291 0.214,0.063 0,0" />
            </g>
          </g>
        </g>
      </g>
      <g
         id="g1000"
         transform="matrix(0.35277777,0,0,-0.35277777,33.065404,360.17139)">
        <g
           id="g1002" />
        <g
           id="g1014">
          <g
             id="g1012"
             opacity="0.350006"
             clip-path="url(#clipPath1006)">
            <g
               id="g1010"
               transform="translate(225.5098,546.4872)">
              <path
                 inkscape:connector-curvature="0"
                 id="path1008"
                 style="fill:#a3a4a4;fill-opacity:1;fill-rule:nonzero;stroke:none"
                 d="m 0,0 -19.813,-5.867 c -0.214,-0.063 -0.442,0.06 -0.505,0.275 -0.063,0.214 0.06,0.441 0.274,0.505 L -0.231,0.779 C -0.016,0.843 0.211,0.719 0.274,0.505 0.338,0.291 0.214,0.063 0,0" />
            </g>
          </g>
        </g>
      </g>
      <g
         transform="matrix(0.35277777,0,0,-0.35277777,107.0355,180.10963)"
         id="g1016">
        <path
           inkscape:connector-curvature="0"
           id="path1018"
           style="fill:#3f4d4e;fill-opacity:1;fill-rule:nonzero;stroke:none"
           d="m 0,0 -0.503,8.692 -5.071,-2.931 4.476,16.672 1.347,2.471 -0.166,14.999 3.544,6.747 3.477,0.571 -1.652,1.687 -0.042,0.009 -0.26,0.3 7.594,-0.552 6.232,-3.543 2.265,-5.996 0.296,-0.783 2.112,-12.369 1.139,-1.578 0.692,-1.844 1.105,-10.372 -0.52,-4.233 -0.774,-7.414 -3.27,-6.971 0.077,0.004 0.52,-1.694 1.132,-2.504 -2.17,-0.693 -4.506,0.097 -0.134,3.613 0.312,-0.096 -0.312,0.097 -0.014,0.025 -0.483,-0.059 -7.313,-0.098 -0.001,-0.002 0.01,0.001 -0.013,-0.008 -1.158,-4.046 -3.233,-0.245 -6.008,0.999 1.656,2.112 3.128,1.572 0.023,0.02 0.009,-0.004 0.004,0.002 z" />
      </g>
      <g
         transform="matrix(0.35277777,0,0,-0.35277777,107.08736,167.32736)"
         id="g1020">
        <path
           inkscape:connector-curvature="0"
           id="path1022"
           style="fill:#b16e5b;fill-opacity:1;fill-rule:nonzero;stroke:none"
           d="M 0,0 C 0,0 -3.104,-1.453 -3.602,-2.161 -4.101,-2.868 0.02,-3.948 0.02,-3.948 Z" />
      </g>
    </g>
  </g>
</svg>
