<?xml version="1.0" encoding="UTF-8" standalone="no"?>
<!-- Created with Inkscape (http://www.inkscape.org/) -->

<svg
   xmlns:dc="http://purl.org/dc/elements/1.1/"
   xmlns:cc="http://creativecommons.org/ns#"
   xmlns:rdf="http://www.w3.org/1999/02/22-rdf-syntax-ns#"
   xmlns:svg="http://www.w3.org/2000/svg"
   xmlns="http://www.w3.org/2000/svg"
   xmlns:sodipodi="http://sodipodi.sourceforge.net/DTD/sodipodi-0.dtd"
   xmlns:inkscape="http://www.inkscape.org/namespaces/inkscape"
   width="54.78307"
   height="118.4436"
   viewBox="0 0 14.494688 31.338202"
   version="1.1"
   id="svg8"
   inkscape:version="0.92+devel unknown"
   sodipodi:docname="pingun_1.svg">
  <defs
     id="defs2">
    <clipPath
       clipPathUnits="userSpaceOnUse"
       id="clipPath206">
      <path
         d="m 204.83,624.764 h 37.018 v -4.828 H 204.83 Z"
         id="path204"
         inkscape:connector-curvature="0" />
    </clipPath>
    <clipPath
       clipPathUnits="userSpaceOnUse"
       id="clipPath230">
      <path
         d="m 212.308,626.711 h 7.154 v -2.855 h -7.154 z"
         id="path228"
         inkscape:connector-curvature="0" />
    </clipPath>
    <clipPath
       clipPathUnits="userSpaceOnUse"
       id="clipPath246">
      <path
         d="m 227.788,626.598 h 7.551 v -2.266 h -7.551 z"
         id="path244"
         inkscape:connector-curvature="0" />
    </clipPath>
    <clipPath
       clipPathUnits="userSpaceOnUse"
       id="clipPath290">
      <path
         d="m 216.244,703.032 h 14.64 v -15.084 h -14.64 z"
         id="path288"
         inkscape:connector-curvature="0" />
    </clipPath>
  </defs>
  <sodipodi:namedview
     id="base"
     pagecolor="#ffffff"
     bordercolor="#666666"
     borderopacity="1.0"
     inkscape:pageopacity="0.0"
     inkscape:pageshadow="2"
     inkscape:zoom="1.979899"
     inkscape:cx="-38.911274"
     inkscape:cy="90.680358"
     inkscape:document-units="mm"
     inkscape:current-layer="layer1"
     inkscape:document-rotation="0"
     showgrid="true"
     borderlayer="true"
     inkscape:showpageshadow="false"
     units="px"
     inkscape:pagecheckerboard="false"
     showguides="true"
     inkscape:window-width="1366"
     inkscape:window-height="716"
     inkscape:window-x="0"
     inkscape:window-y="0"
     inkscape:window-maximized="1"
     fit-margin-top="0"
     fit-margin-left="0"
     fit-margin-right="0"
     fit-margin-bottom="0">
    <inkscape:grid
       type="xygrid"
       id="grid10"
       originx="-125.66958"
       originy="-79.703611" />
  </sodipodi:namedview>
  <metadata
     id="metadata5">
    <rdf:RDF>
      <cc:Work
         rdf:about="">
        <dc:format>image/svg+xml</dc:format>
        <dc:type
           rdf:resource="http://purl.org/dc/dcmitype/StillImage" />
        <dc:title></dc:title>
      </cc:Work>
    </rdf:RDF>
  </metadata>
  <g
     inkscape:label="Layer 1"
     inkscape:groupmode="layer"
     id="layer1"
     transform="translate(-125.66957,-185.95819)">
    <g
       id="g5299"
       transform="translate(154.45211,92.743331)">
      <g
         transform="matrix(0.35277777,0,0,-0.35277777,-17.253305,110.11475)"
         id="g164">
        <path
           inkscape:connector-curvature="0"
           id="path166"
           style="fill:#3f4d4e;fill-opacity:1;fill-rule:nonzero;stroke:none"
           d="m 0,0 -1.423,11.9 -3.252,6.911 -3.659,0.813 2.236,1.83 h -8.13 l -6.911,-3.049 -3.252,-6.505 -0.935,-14.088 -2.466,-3.472 -4.889,-16.764 5.602,2.317 1.164,-7.295 4.113,-7.294 5.7,-0.417 8.095,0.22 5.45,0.197 3.647,7.837 0.341,16.558 6.737,12.221 0.238,10.134 c 0,0 -2.81,-6.218 -4.096,-8.055 C 3.024,2.162 0,0 0,0" />
      </g>
      <g
         transform="matrix(0.35277777,0,0,-0.35277777,-25.081445,122.16317)"
         id="g168">
        <path
           inkscape:connector-curvature="0"
           id="path170"
           style="fill:#3f4d4e;fill-opacity:1;fill-rule:nonzero;stroke:none"
           d="M 0,0 -3.725,-1.552 -5.587,-3.57 0.776,-4.811 4.346,-3.259 6.053,0 Z" />
      </g>
      <g
         transform="matrix(0.35277777,0,0,-0.35277777,-18.182733,122.16317)"
         id="g172">
        <path
           inkscape:connector-curvature="0"
           id="path174"
           style="fill:#3f4d4e;fill-opacity:1;fill-rule:nonzero;stroke:none"
           d="M 0,0 3.725,-1.552 5.587,-3.57 -0.776,-4.811 -4.346,-3.259 -6.053,0 Z" />
      </g>
      <g
         transform="matrix(0.35277777,0,0,-0.35277777,-24.537072,121.73387)"
         id="g176">
        <path
           inkscape:connector-curvature="0"
           id="path178"
           style="fill:#f7f6f8;fill-opacity:1;fill-rule:nonzero;stroke:none"
           d="m 0,0 -3.565,6.651 -0.67,11.139 1.005,12.115 0.143,10.985 c 0,0 1.546,4.849 2.272,5.46 0.727,0.612 1.461,0.896 2.582,0.852 1.121,-0.045 1.633,-0.119 2.966,-1.229 1.333,-1.11 1.189,-5.911 1.189,-5.911 L 9.9,40.009 c 0,0 0.051,4.961 1.343,5.858 1.292,0.898 1.597,1.076 2.965,1.335 1.368,0.258 1.432,-0.152 2.257,-0.801 0.825,-0.65 2.387,-5.579 2.387,-5.579 L 18.93,40.595 19.062,29.905 20.067,17.79 18.958,6.506 17.033,0.076 14.885,-0.984 4.517,-1.21 Z" />
      </g>
      <g
         transform="matrix(0.35277777,0,0,-0.35277777,-21.869331,102.94532)"
         id="g180">
        <path
           inkscape:connector-curvature="0"
           id="path182"
           style="fill:#5e7075;fill-opacity:1;fill-rule:nonzero;stroke:none"
           d="m 0,0 6.687,0.854 0.3,0.277 h -8.13 l -6.911,-3.049 -2.877,-5.754 4.93,4.93 -0.673,0.311 8.045,1.914 z" />
      </g>
      <g
         transform="matrix(0.35277777,0,0,-0.35277777,-23.26499,106.46523)"
         id="g184">
        <path
           inkscape:connector-curvature="0"
           id="path186"
           style="fill:#3f4d4e;fill-opacity:1;fill-rule:nonzero;stroke:none"
           d="m 0,0 c 0,-1.091 -0.488,-1.976 -1.091,-1.976 -0.602,0 -1.091,0.885 -1.091,1.976 0,1.091 0.489,1.976 1.091,1.976 C -0.488,1.976 0,1.091 0,0" />
      </g>
      <g
         transform="matrix(0.35277777,0,0,-0.35277777,-23.054593,106.28496)"
         id="g188">
        <path
           inkscape:connector-curvature="0"
           id="path190"
           style="fill:#f7f6f8;fill-opacity:1;fill-rule:nonzero;stroke:none"
           d="m 0,0 c 0,-0.442 -0.38,-0.8 -0.85,-0.8 -0.469,0 -0.849,0.358 -0.849,0.8 0,0.442 0.38,0.8 0.849,0.8 C -0.38,0.8 0,0.442 0,0" />
      </g>
      <g
         transform="matrix(0.35277777,0,0,-0.35277777,-19.342844,106.46523)"
         id="g192">
        <path
           inkscape:connector-curvature="0"
           id="path194"
           style="fill:#3f4d4e;fill-opacity:1;fill-rule:nonzero;stroke:none"
           d="m 0,0 c 0,-1.091 -0.488,-1.976 -1.091,-1.976 -0.602,0 -1.091,0.885 -1.091,1.976 0,1.091 0.489,1.976 1.091,1.976 C -0.488,1.976 0,1.091 0,0" />
      </g>
      <g
         transform="matrix(0.35277777,0,0,-0.35277777,-19.132447,106.28496)"
         id="g196">
        <path
           inkscape:connector-curvature="0"
           id="path198"
           style="fill:#f7f6f8;fill-opacity:1;fill-rule:nonzero;stroke:none"
           d="m 0,0 c 0,-0.442 -0.38,-0.8 -0.85,-0.8 -0.469,0 -0.849,0.358 -0.849,0.8 0,0.442 0.38,0.8 0.849,0.8 C -0.38,0.8 0,0.442 0,0" />
      </g>
      <g
         id="g200"
         transform="matrix(0.35277777,0,0,-0.35277777,-100.54167,343.2527)">
        <g
           id="g202" />
        <g
           id="g214">
          <g
             id="g212"
             opacity="0.100006"
             clip-path="url(#clipPath206)">
            <g
               id="g210"
               transform="translate(241.848,622.3499)">
              <path
                 inkscape:connector-curvature="0"
                 id="path208"
                 style="fill:#3f4d4e;fill-opacity:1;fill-rule:nonzero;stroke:none"
                 d="m 0,0 c 0,-1.333 -8.287,-2.414 -18.509,-2.414 -10.222,0 -18.509,1.081 -18.509,2.414 0,1.333 8.287,2.414 18.509,2.414 C -8.287,2.414 0,1.333 0,0" />
            </g>
          </g>
        </g>
      </g>
      <g
         transform="matrix(0.35277777,0,0,-0.35277777,-26.590734,111.45418)"
         id="g216">
        <path
           inkscape:connector-curvature="0"
           id="path218"
           style="fill:#5e7075;fill-opacity:1;fill-rule:nonzero;stroke:none"
           d="m 0,0 -1.324,-1.864 -4.889,-16.763 2.36,0.976 2.73,14.41 1.789,0.178 z" />
      </g>
      <g
         transform="matrix(0.35277777,0,0,-0.35277777,-16.411824,110.56613)"
         id="g220">
        <path
           inkscape:connector-curvature="0"
           id="path222"
           style="fill:#5e7075;fill-opacity:1;fill-rule:nonzero;stroke:none"
           d="m 0,0 0.636,-1.59 5.325,14.745 c 0,0 -2.138,-5.305 -3.975,-7.816 -1.837,-2.51 -4.371,-4.06 -4.371,-4.06 l 0.477,-3.266 z" />
      </g>
      <g
         id="g224"
         transform="matrix(0.35277777,0,0,-0.35277777,-100.54167,343.2527)">
        <g
           id="g226" />
        <g
           id="g238">
          <g
             id="g236"
             opacity="0.300003"
             clip-path="url(#clipPath230)">
            <g
               id="g234"
               transform="translate(213.903,626.7105)">
              <path
                 inkscape:connector-curvature="0"
                 id="path232"
                 style="fill:#3f4d4e;fill-opacity:1;fill-rule:nonzero;stroke:none"
                 d="M 0,0 -1.595,-1.424 1.207,-2.855 5.559,-0.947 1.743,-1.186 0.388,-0.543 Z" />
            </g>
          </g>
        </g>
      </g>
      <g
         id="g240"
         transform="matrix(0.35277777,0,0,-0.35277777,-100.54167,343.2527)">
        <g
           id="g242" />
        <g
           id="g254">
          <g
             id="g252"
             opacity="0.300003"
             clip-path="url(#clipPath246)">
            <g
               id="g250"
               transform="translate(233.749,626.5977)">
              <path
                 inkscape:connector-curvature="0"
                 id="path248"
                 style="fill:#3f4d4e;fill-opacity:1;fill-rule:nonzero;stroke:none"
                 d="m 0,0 1.59,-1.192 -1.232,-1.073 -3.657,0.119 -2.662,1.51 2.503,-0.199 2.186,0.279 z" />
            </g>
          </g>
        </g>
      </g>
      <g
         transform="matrix(0.35277777,0,0,-0.35277777,-20.490887,108.0455)"
         id="g256">
        <path
           inkscape:connector-curvature="0"
           id="path258"
           style="fill:#ebeaeb;fill-opacity:1;fill-rule:nonzero;stroke:none"
           d="M 0,0 C -0.458,1.56 -2.909,1.497 -3.221,1.483 -3.533,1.497 -5.985,1.56 -6.443,0 c -0.161,-0.551 1.518,-2.446 3.035,-2.797 0,0 0.035,-0.019 0.054,-0.016 0.018,-0.003 0.056,0.016 0.056,0.016 C -1.769,-2.445 0.162,-0.551 0,0" />
      </g>
      <g
         transform="matrix(0.35277777,0,0,-0.35277777,-21.75849,100.32192)"
         id="g260">
        <path
           inkscape:connector-curvature="0"
           id="path262"
           style="fill:#8c8c8c;fill-opacity:1;fill-rule:nonzero;stroke:none"
           d="m 0,0 c -0.793,0 -1.585,-0.001 -2.378,0 -0.523,0.001 -0.899,0.346 -0.911,0.832 -0.011,0.469 0.374,0.848 0.895,0.85 1.617,0.006 3.234,0.007 4.851,0 C 2.977,1.679 3.359,1.294 3.345,0.824 3.331,0.344 2.949,0.001 2.425,0 1.617,-0.001 0.808,0 0,0" />
      </g>
      <g
         transform="matrix(0.35277777,0,0,-0.35277777,-21.748999,100.51405)"
         id="g264">
        <path
           inkscape:connector-curvature="0"
           id="path266"
           style="fill:#8c8c8c;fill-opacity:1;fill-rule:nonzero;stroke:none"
           d="m 0,0 c 0.65,0 1.301,0.001 1.951,-0.001 0.059,0 0.139,0.03 0.172,-0.042 C 2.156,-0.114 2.084,-0.157 2.044,-0.201 1.552,-0.757 0.925,-1.04 0.192,-1.084 c -0.859,-0.051 -1.605,0.211 -2.202,0.849 -0.051,0.055 -0.149,0.107 -0.11,0.191 0.038,0.086 0.143,0.042 0.217,0.042 C -1.269,0.001 -0.634,0 0,0" />
      </g>
      <g
         transform="matrix(0.35277777,0,0,-0.35277777,-19.703698,96.237501)"
         id="g268">
        <path
           inkscape:connector-curvature="0"
           id="path270"
           style="fill:#f5db4d;fill-opacity:1;fill-rule:nonzero;stroke:none"
           d="m 0,0 c -0.591,1.631 -1.712,2.795 -3.239,3.572 -1.324,0.673 -2.72,0.852 -4.145,0.389 -1.88,-0.61 -3.274,-1.806 -4.08,-3.627 -0.517,-1.169 -0.569,-2.372 -0.121,-3.587 0.322,-0.873 0.844,-1.627 1.377,-2.376 0.459,-0.646 0.931,-1.285 1.131,-2.072 0.51,0.004 1.02,0.009 1.529,0.013 l 0.121,-0.539 2.305,-0.158 c 0,0 1.09,0.458 1.393,0.694 0.404,-0.004 0.809,-0.008 1.213,-0.012 0.162,0.607 0.475,1.135 0.831,1.644 0.504,0.72 1.037,1.422 1.428,2.215 C 0.359,-2.598 0.477,-1.317 0,0" />
      </g>
      <g
         transform="matrix(0.35277777,0,0,-0.35277777,-21.951069,98.948421)"
         id="g272">
        <path
           inkscape:connector-curvature="0"
           id="path274"
           style="fill:#f4d94a;fill-opacity:1;fill-rule:nonzero;stroke:none"
           d="M 0,0 C 0,1.19 0.007,2.38 -0.004,3.57 -0.006,3.805 0.074,3.881 0.299,3.862 0.48,3.847 0.664,3.847 0.845,3.862 1.07,3.881 1.15,3.805 1.148,3.57 1.138,2.38 1.144,1.19 1.145,0 0.763,0 0.382,0 0,0" />
      </g>
      <g
         transform="matrix(0.35277777,0,0,-0.35277777,-21.12123,97.285351)"
         id="g276">
        <path
           inkscape:connector-curvature="0"
           id="path278"
           style="fill:#f4d94a;fill-opacity:1;fill-rule:nonzero;stroke:none"
           d="m 0,0 c -0.459,0.013 -0.4,-0.099 -0.397,0.502 0.002,0.392 0.326,0.637 0.704,0.55 C 0.566,0.992 0.724,0.761 0.696,0.485 0.665,0.186 0.476,0.004 0.19,0 0.127,-0.001 0.063,0 0,0" />
      </g>
      <g
         transform="matrix(0.35277777,0,0,-0.35277777,-22.388833,97.285391)"
         id="g280">
        <path
           inkscape:connector-curvature="0"
           id="path282"
           style="fill:#f4d94a;fill-opacity:1;fill-rule:nonzero;stroke:none"
           d="M 0,0 C -0.49,0 -0.745,0.254 -0.659,0.657 -0.598,0.943 -0.425,1.061 -0.08,1.052 0.187,1.045 0.39,0.86 0.428,0.586 0.435,0.539 0.432,0.491 0.432,0.444 0.424,-0.077 0.502,0.01 0,0" />
      </g>
      <g
         id="g284"
         transform="matrix(0.35277777,0,0,-0.35277777,-100.54167,343.2527)">
        <g
           id="g286" />
        <g
           id="g298">
          <g
             id="g296"
             clip-path="url(#clipPath290)">
            <g
               id="g294"
               transform="translate(227.2651,691.9479)">
              <path
                 inkscape:connector-curvature="0"
                 id="path292"
                 style="fill:#f5db4d;fill-opacity:1;fill-rule:nonzero;stroke:none"
                 d="m 0,0 c 0.355,3.479 -0.346,10.075 -4.693,10.947 -2.216,0.444 -4.889,-0.14 -5.869,-2.455 -1.076,-2.541 -0.251,-5.514 2.388,-6.719 3.557,-1.624 10.363,-1.297 11.626,3.295 0.803,2.92 -1.4,5.72 -4.354,5.874 -2.127,0.111 -3.621,-1.228 -5.215,-2.406 -1.75,-1.293 -2.627,-3.439 -1.435,-5.473 1.013,-1.729 3.715,-2.734 5.472,-1.435 0.376,0.278 0.751,0.555 1.127,0.833 0.25,0.184 0.5,0.369 0.751,0.554 0.597,0.374 0.364,0.35 -0.7,-0.073 -0.673,0.182 -1.346,0.364 -2.019,0.546 0.107,-0.053 0.213,-0.106 0.32,-0.159 C -3.079,3.807 -3.557,4.285 -4.036,4.764 -3.972,4.668 -3.909,4.572 -3.845,4.476 -4.027,5.149 -4.209,5.822 -4.391,6.495 -4.396,6.374 -4.4,6.253 -4.405,6.131 l 0.546,2.019 c 1.348,0.884 1.577,1.155 0.685,0.815 C -4.095,8.679 -3.01,8.891 -3.97,8.862 -4.484,8.891 -4.597,8.892 -4.309,8.865 -4.461,8.903 -4.613,8.94 -4.765,8.978 -4.332,8.797 -3.959,8.523 -3.646,8.157 -3.464,7.484 -3.282,6.811 -3.1,6.138 -3.103,6.25 -3.106,6.361 -3.108,6.473 -3.29,5.8 -3.473,5.127 -3.655,4.454 -4.138,4.074 -4.621,3.694 -5.104,3.315 H -7.23 C -8.085,3.486 -8.583,5.022 -8.241,3.9 -8.095,3.421 -8.007,2.925 -7.919,2.433 -7.831,1.937 -7.925,0.732 -8,0 c -0.222,-2.173 1.987,-4 4,-4 2.348,0 3.779,1.832 4,4" />
            </g>
          </g>
        </g>
      </g>
      <g
         transform="matrix(0.35277777,0,0,-0.35277777,-22.905829,98.954311)"
         id="g300">
        <path
           inkscape:connector-curvature="0"
           id="path302"
           style="fill:#8c8c8c;fill-opacity:1;fill-rule:nonzero;stroke:none"
           d="m 0,0 c 0.633,0.005 1.267,0.011 1.9,0.016 0.269,0 0.538,0.001 0.806,0.001 0.382,0 0.764,0 1.145,0 H 4.657 C 5.291,0.011 5.926,0.005 6.561,-0.001 6.691,-0.112 6.865,-0.156 6.973,-0.311 7.163,-0.585 7.2,-0.868 7.067,-1.164 6.924,-1.482 6.672,-1.645 6.315,-1.645 c -2.024,0.002 -4.047,0 -6.071,0.002 -0.403,0 -0.717,0.243 -0.807,0.61 -0.096,0.394 0.079,0.765 0.446,0.953 C -0.075,-0.058 -0.039,-0.027 0,0" />
      </g>
      <g
         transform="matrix(0.35277777,0,0,-0.35277777,-20.614537,95.540371)"
         id="g304">
        <path
           inkscape:connector-curvature="0"
           id="path306"
           style="fill:#f8e894;fill-opacity:1;fill-rule:nonzero;stroke:none"
           d="m 0,0 c -0.1,-0.537 -1.208,-0.782 -2.475,-0.548 -1.268,0.235 -2.214,0.861 -2.115,1.398 0.1,0.538 1.208,0.783 2.475,0.548 C -0.847,1.163 0.1,0.537 0,0" />
      </g>
      <g
         transform="matrix(0.35277777,0,0,-0.35277777,-24.460131,97.121101)"
         id="g308">
        <path
           inkscape:connector-curvature="0"
           id="path310"
           style="fill:#f5db4d;fill-opacity:1;fill-rule:nonzero;stroke:none"
           d="m 0,0 h -2.699 c -0.207,0 -0.377,0.17 -0.377,0.377 0,0.207 0.17,0.377 0.377,0.377 H 0 c 0.207,0 0.377,-0.17 0.377,-0.377 C 0.377,0.17 0.207,0 0,0" />
      </g>
      <g
         transform="matrix(0.35277777,0,0,-0.35277777,-21.882277,94.300001)"
         id="g312">
        <path
           inkscape:connector-curvature="0"
           id="path314"
           style="fill:#f5db4d;fill-opacity:1;fill-rule:nonzero;stroke:none"
           d="m 0,0 v 2.699 c 0,0.207 0.17,0.377 0.377,0.377 0.207,0 0.377,-0.17 0.377,-0.377 V 0 c 0,-0.207 -0.17,-0.377 -0.377,-0.377 C 0.17,-0.377 0,-0.207 0,0" />
      </g>
      <g
         transform="matrix(0.35277777,0,0,-0.35277777,-18.104027,97.121101)"
         id="g316">
        <path
           inkscape:connector-curvature="0"
           id="path318"
           style="fill:#f5db4d;fill-opacity:1;fill-rule:nonzero;stroke:none"
           d="m 0,0 h -2.699 c -0.207,0 -0.377,0.17 -0.377,0.377 0,0.207 0.17,0.377 0.377,0.377 H 0 c 0.207,0 0.377,-0.17 0.377,-0.377 C 0.377,0.17 0.207,0 0,0" />
      </g>
      <g
         transform="matrix(0.35277777,0,0,-0.35277777,-19.101438,94.449511)"
         id="g320">
        <path
           inkscape:connector-curvature="0"
           id="path322"
           style="fill:#f5db4d;fill-opacity:1;fill-rule:nonzero;stroke:none"
           d="m 0,0 -1.908,-1.908 c -0.147,-0.147 -0.387,-0.147 -0.533,0 v 0 c -0.147,0.146 -0.147,0.386 0,0.533 l 1.908,1.908 C -0.387,0.68 -0.147,0.68 0,0.533 0.147,0.387 0.147,0.147 0,0" />
      </g>
      <g
         transform="matrix(0.35277777,0,0,-0.35277777,-24.316762,94.449511)"
         id="g324">
        <path
           inkscape:connector-curvature="0"
           id="path326"
           style="fill:#f5db4d;fill-opacity:1;fill-rule:nonzero;stroke:none"
           d="m 0,0 1.908,-1.908 c 0.147,-0.147 0.387,-0.147 0.533,0 0.147,0.146 0.147,0.386 0,0.533 L 0.533,0.533 C 0.387,0.68 0.147,0.68 0,0.533 -0.147,0.387 -0.147,0.147 0,0" />
      </g>
      <g
         transform="matrix(0.35277777,0,0,-0.35277777,-20.645546,107.81817)"
         id="g948">
        <path
           inkscape:connector-curvature="0"
           id="path950"
           style="fill:#b16e5b;fill-opacity:1;fill-rule:nonzero;stroke:none"
           d="M 0,0 C -0.429,1.463 -2.729,1.404 -3.021,1.391 -3.314,1.404 -5.614,1.463 -6.043,0 c -0.151,-0.517 1.424,-2.294 2.846,-2.624 0,0 0.034,-0.018 0.051,-0.014 0.017,-0.004 0.053,0.014 0.053,0.014 C -1.659,-2.293 0.152,-0.517 0,0" />
      </g>
    </g>
  </g>
</svg>
