<svg xmlns="http://www.w3.org/2000/svg" xmlns:xlink="http://www.w3.org/1999/xlink" width="528" height="111" fill="none" xmlns:v="https://vecta.io/nano"><path fill="#fff" d="M0 0h528v110.913H0z"/><g fill="#742a2a"><path d="M146.008 81.527c-.52 0-.962-.182-1.326-.546s-.547-.806-.547-1.327V28c0-.572.182-1.014.547-1.327.364-.364.806-.546 1.326-.546h6.478c.52 0 .962.182 1.326.546s.547.806.547 1.327v26.7l12.955-12.4c.156-.104.4-.286.702-.546.364-.312.703-.52 1.015-.624s.702-.156 1.17-.156h7.414c.52 0 .937.156 1.25.468s.468.728.468 1.25c0 .468-.26.937-.78 1.405L162.63 59.13l17.872 19.355c.468.468.702.9.702 1.327 0 .52-.156.937-.468 1.25s-.702.468-1.17.468h-7.57c-.728 0-1.274-.078-1.64-.234-.312-.208-.728-.572-1.248-1.093l-14.75-15.686v15.14c0 .52-.182.963-.547 1.327s-.806.546-1.326.546h-6.478zm39.862 0c-.52 0-.963-.182-1.327-.546s-.546-.806-.546-1.327V42.818c0-.572.182-1.015.546-1.327.364-.364.807-.546 1.327-.546h6.477c.573 0 1.015.182 1.327.546.364.312.547.754.547 1.327v3.2c3.173-3.902 7.518-5.853 13.033-5.853 4.786 0 8.584 1.56 11.394 4.683s4.214 7.414 4.214 12.877v21.93c0 .52-.182.963-.546 1.327-.312.364-.755.546-1.327.546h-7.024c-.52 0-.962-.182-1.326-.546s-.547-.806-.547-1.327V58.192c0-3.018-.754-5.36-2.263-7.024-1.457-1.717-3.564-2.575-6.32-2.575-2.654 0-4.787.858-6.4 2.575s-2.42 4.058-2.42 7.024v21.462c0 .52-.182.963-.547 1.327-.312.364-.754.546-1.326.546h-6.946zm58.843.78c-4.787 0-8.56-1.56-11.316-4.683s-4.136-7.414-4.136-12.877v-21.93c0-.572.182-1.015.546-1.327.364-.364.806-.546 1.327-.546h7.023c.52 0 .963.182 1.327.546s.546.806.546 1.327V64.28c0 6.4 2.784 9.6 8.35 9.6 2.705 0 4.84-.858 6.4-2.575 1.613-1.717 2.42-4.058 2.42-7.024V42.818c0-.572.182-1.015.546-1.327.364-.364.806-.546 1.327-.546h6.945c.573 0 1.015.182 1.327.546.364.312.547.754.547 1.327v36.836c0 .52-.183.963-.547 1.327-.312.364-.754.546-1.327.546h-6.477c-.52 0-.963-.182-1.327-.546s-.546-.806-.546-1.327v-3.2c-2.862 3.902-7.18 5.853-12.955 5.853z"/><use xlink:href="#B"/><path d="M306.602 81.527c-.52 0-.963-.182-1.327-.546s-.546-.806-.546-1.327V28c0-.572.182-1.014.546-1.327.364-.364.806-.546 1.327-.546h6.555c.573 0 1.015.182 1.327.546.364.312.546.754.546 1.327v51.664c0 .52-.182.963-.546 1.327-.312.364-.754.546-1.327.546h-6.555zm17.218-47.215c-.52 0-.963-.182-1.327-.546s-.546-.806-.546-1.327v-5.7c0-.572.182-1.04.546-1.405s.807-.546 1.327-.546H331c.572 0 1.04.182 1.404.546s.547.832.547 1.405v5.697c0 .52-.208.963-.625 1.327-.364.364-.806.546-1.326.546h-7.18zm.312 47.216c-.52 0-.963-.182-1.327-.546s-.546-.806-.546-1.327V42.818c0-.572.182-1.015.546-1.327.364-.364.807-.546 1.327-.546h6.634c.52 0 .962.182 1.326.546s.547.806.547 1.327v36.836c0 .52-.182.963-.547 1.327s-.806.546-1.326.546h-6.634zm17.532-.001a1.81 1.81 0 0 1-1.327-.546 1.8 1.8 0 0 1-.546-1.327V42.818c0-.572.182-1.015.546-1.327a1.81 1.81 0 0 1 1.327-.546h6.478c.572 0 1.014.182 1.326.546.365.312.547.754.547 1.327v3.2c3.173-3.902 7.518-5.853 13.033-5.853 4.786 0 8.584 1.56 11.394 4.683s4.214 7.414 4.214 12.877v21.93c0 .52-.182.963-.546 1.327-.312.364-.755.546-1.327.546h-7.024c-.52 0-.962-.182-1.326-.546s-.547-.806-.547-1.327V58.192c0-3.018-.754-5.36-2.263-7.024-1.457-1.717-3.564-2.575-6.32-2.575-2.654 0-4.787.858-6.4 2.575s-2.42 4.058-2.42 7.024v21.462c0 .52-.182.963-.546 1.327-.313.364-.755.546-1.327.546h-6.946zm62.122 17.17c-4.63 0-8.377-.78-11.238-2.34-2.862-1.5-4.9-3.252-6.088-5.23s-1.795-3.668-1.795-5.073c0-.52.183-.963.547-1.327.364-.312.806-.468 1.326-.468h6.946c.468 0 .86.104 1.17.312.364.26.65.702.858 1.327a8.81 8.81 0 0 0 2.576 3.434c1.144 1 2.913 1.483 5.307 1.483 3.12 0 5.4-.702 6.867-2.107 1.457-1.353 2.186-3.746 2.186-7.18V76.22c-2.8 3.33-6.8 4.995-11.94 4.995-5.4 0-9.495-1.64-12.253-4.917-2.705-3.278-4.162-7.752-4.37-13.423l-.078-2.107.078-2.107c.208-5.567 1.7-10.04 4.448-13.423s6.816-5.073 12.175-5.073c2.758 0 5.177.52 7.258 1.56s3.798 2.445 5.15 4.214v-3.044c0-.572.182-1.04.546-1.405.416-.364.885-.546 1.405-.546h6.4c.52 0 .963.182 1.327.546s.546.832.546 1.405l.078 37.616c0 5.775-1.612 10.25-4.838 13.423s-8.1 4.76-14.594 4.76zm-.312-25.754c2.913 0 5.098-.937 6.555-2.8s2.263-4.162 2.42-6.868c.052-.416.078-1.25.078-2.497s-.026-2.08-.078-2.497c-.157-2.706-.963-4.995-2.42-6.868s-3.642-2.8-6.555-2.8c-5.62 0-8.585 3.434-8.897 10.302l-.078 1.873c0 8.116 3 12.175 8.975 12.175zm28.502-10.302c-.52 0-.963-.182-1.327-.546s-.546-.806-.546-1.327V55.46c0-.52.182-.963.546-1.327s.806-.546 1.327-.546h24.037c.572 0 1.014.182 1.326.546.365.312.547.754.547 1.327v5.307c0 .52-.182.962-.547 1.327a1.8 1.8 0 0 1-1.326.546h-24.037z"/><use xlink:href="#B" x="189.713"/><path d="M509.816 82.308c-3.954 0-7.258-.598-9.91-1.795s-4.63-2.575-5.93-4.136c-1.25-1.613-1.873-2.992-1.873-4.136 0-.52.156-.936.468-1.25.364-.312.78-.468 1.248-.468h6.4c.416 0 .78.208 1.093.624.26.208.832.702 1.716 1.483a11.88 11.88 0 0 0 3.122 1.873c1.197.416 2.497.624 3.902.624 2.08 0 3.772-.4 5.073-1.17 1.3-.832 1.95-2.003 1.95-3.512 0-1.04-.312-1.873-.936-2.497-.573-.676-1.64-1.275-3.2-1.795-1.51-.572-3.798-1.197-6.868-1.873-4.422-.937-7.7-2.367-9.833-4.292-2.08-1.925-3.122-4.474-3.122-7.648 0-2.08.624-4.032 1.873-5.853 1.25-1.873 3.096-3.382 5.54-4.526 2.497-1.197 5.463-1.795 8.897-1.795 3.538 0 6.58.572 9.13 1.717 2.55 1.093 4.474 2.42 5.775 3.98 1.353 1.56 2.03 2.94 2.03 4.136 0 .468-.182.885-.546 1.25-.312.312-.703.468-1.17.468h-5.853c-.572 0-1.015-.208-1.327-.624-.364-.26-.962-.728-1.795-1.405-.78-.728-1.665-1.3-2.653-1.717s-2.185-.624-3.6-.624c-1.925 0-3.408.416-4.448 1.25a3.99 3.99 0 0 0-1.561 3.278c0 .936.234 1.717.702 2.34.52.624 1.535 1.223 3.044 1.795 1.51.52 3.772 1.067 6.79 1.64C523.317 59.467 528 63.55 528 69.9c0 3.694-1.613 6.686-4.84 8.975-3.173 2.29-7.622 3.434-13.345 3.434z"/></g><g fill="#e53e3e"><path d="M43.126 78.614l7.016 11.615A34.75 34.75 0 0 1 38.241 86.7l4.885-8.086zm26.792 7.998l-.175.1-4.885-8.086-7.016 11.615a34.75 34.75 0 0 0 12.076-3.618zM80.986 77.7l-.332.396 2.814-4.66-7.744-12.82-7.744 12.82 6.335 10.487a35.18 35.18 0 0 0 6.671-6.225zm-19.25-4.264l-7.744-12.82-7.744 12.82 7.744 12.82 7.744-12.82zM33.67 83.933l6.335-10.487-7.744-12.82-7.744 12.82 2.814 4.66a35.18 35.18 0 0 0 6.339 5.829zm4.57-59.72l4.885 8.086 7.016-11.615a34.75 34.75 0 0 0-11.901 3.529zm19.602-3.53l7.016 11.615 4.885-8.086a34.75 34.75 0 0 0-11.901-3.529zm16.474 6.297L67.98 37.467l7.744 12.82 7.744-12.82-2.814-4.66c-1.864-2.192-3.993-4.15-6.34-5.828zM46.248 37.467l7.744-12.82 7.744 12.82-7.744 12.82-7.744-12.82zm-18.918-4.66l-2.814 4.66 7.744 12.82 7.744-12.82L33.67 26.98a35.19 35.19 0 0 0-6.339 5.828zm-5.913 35.428l7.72-12.78-7.72-12.78c-1.554 3.96-2.408 8.27-2.408 12.78s.854 8.82 2.408 12.78zm65.15.001c1.554-3.96 2.408-8.27 2.408-12.78 0-4.528-.86-8.855-2.426-12.827l.018.047-7.72 12.78 7.72 12.78zm-29.452-12.78l7.744-12.82 7.744 12.82-7.744 12.82-7.744-12.82zm-6.244 0l-7.744-12.82-7.744 12.82 7.744 12.82 7.744-12.82z"/><path fill-rule="evenodd" d="M91.977 95.868c7.798-7.33 13.474-16.894 16.007-27.668l-7.02-3.918c1.247-5.987 1.247-11.725 0-17.712l7.007-3.91c-2.544-10.77-8.23-20.328-16.035-27.652l-6.938 3.872c-4.5-3.742-9.48-6.736-14.968-8.73V2.352C64.955.822 59.573 0 54 0c-5.527 0-10.864.808-15.902 2.313v7.833c-5.738 1.996-10.727 5-15.218 8.98l-6.92-4.024C8.192 22.428 2.54 31.97.013 42.717l6.9 3.852a52.77 52.77 0 0 0 0 17.712L0 68.14c2.522 10.778 8.187 20.346 15.976 27.686l6.904-3.853c4.49 3.742 9.48 6.736 15.218 8.732v7.895c5.037 1.505 10.375 2.314 15.902 2.314 5.574 0 10.955-.822 16.03-2.352v-7.857c5.488-1.996 10.478-5 14.968-8.732l6.98 3.896zm-37.985.495c22.592 0 40.907-18.315 40.907-40.907S76.584 14.55 53.992 14.55 13.085 32.864 13.085 55.456 31.4 96.363 53.992 96.363z"/></g><defs ><path id="B" d="M276.95 81.527c-.52 0-.963-.182-1.327-.546s-.546-.806-.546-1.327V42.896c0-.572.182-1.04.546-1.405s.807-.546 1.327-.546h6.4c.573 0 1.04.182 1.405.546s.546.832.546 1.405v3.2c2.602-3.434 6.348-5.15 11.24-5.15h3.277c.573 0 1.015.182 1.327.546.364.312.546.754.546 1.327v5.697c0 .52-.182.962-.546 1.327-.312.364-.754.546-1.327.546h-6.165c-2.445 0-4.37.702-5.775 2.107s-2.107 3.33-2.107 5.775v21.384c0 .52-.182.963-.547 1.327s-.806.546-1.326.546h-6.946z"/></defs></svg>