<svg xmlns="http://www.w3.org/2000/svg" width="133" height="137" fill="none" xmlns:v="https://vecta.io/nano"><path fill="#000" d="M0 0h132.533v136.127H0z"/><g fill="#e53e3e"><path d="M52.93 96.486l8.6 14.255a42.67 42.67 0 0 1-14.606-4.33l5.995-9.925zm32.882 9.814l-.215.1-5.995-9.925-8.6 14.255a42.64 42.64 0 0 0 14.821-4.44zm13.585-10.926L99 95.86l3.454-5.718-9.505-15.735-9.504 15.735 7.775 12.872c3.05-2.18 5.804-4.752 8.187-7.64zM75.77 90.142l-9.505-15.735-9.505 15.735 9.505 15.735 9.505-15.735zm-34.447 12.872l7.775-12.872-9.504-15.735-9.505 15.735 3.454 5.718a43.18 43.18 0 0 0 7.78 7.154zm5.612-73.298l5.995 9.925 8.6-14.256a42.67 42.67 0 0 0-14.606 4.33zm24.057-4.33l8.6 14.256 5.995-9.925c-4.476-2.26-9.4-3.76-14.606-4.33zM91.2 33.113l-7.775 12.872L92.94 61.72l9.505-15.735L99 40.265a43.18 43.18 0 0 0-7.78-7.153zM56.762 45.985l9.505-15.735 9.505 15.735-9.505 15.735-9.505-15.735zm-23.22-5.72l-3.454 5.718 9.505 15.735 9.504-15.735-7.775-12.872a43.16 43.16 0 0 0-7.78 7.153zM26.286 83.75l9.475-15.685-9.475-15.685c-1.908 4.86-2.955 10.15-2.955 15.685S24.38 78.9 26.286 83.75zm79.96 0a42.82 42.82 0 0 0 2.955-15.686c0-5.558-1.056-10.87-2.978-15.743l.023.058-9.475 15.686 9.475 15.685zM70.098 68.064l9.505-15.735 9.505 15.735L79.603 83.8l-9.505-15.735zm-7.664 0L52.93 52.33l-9.505 15.735L52.93 83.8l9.505-15.735z"/><path fill-rule="evenodd" d="M112.887 117.662c9.57-8.998 16.536-20.735 19.646-33.958l-8.617-4.81c1.53-7.348 1.53-14.39 0-21.74l8.6-4.8c-3.123-13.22-10.1-24.95-19.682-33.938l-8.515 4.753c-5.51-4.593-11.635-8.267-18.37-10.716V2.887C79.72 1.01 73.116 0 66.275 0 59.492 0 52.94.992 46.758 2.84v9.614c-7.042 2.45-13.166 6.124-18.677 11.023l-8.495-4.94c-9.532 8.99-16.47 20.7-19.57 33.89l8.47 4.727c-1.225 7.348-1.225 14.39 0 21.74L0 83.63c3.095 13.228 10.048 24.97 19.608 33.98l8.473-4.73c5.51 4.593 11.635 8.267 18.677 10.717v9.7c6.182 1.847 12.734 2.84 19.517 2.84 6.84 0 13.446-1 19.675-2.887v-9.643c6.736-2.45 12.86-6.124 18.37-10.717l8.567 4.782zm-46.62.608c27.728 0 50.206-22.478 50.206-50.207S93.994 17.857 66.266 17.857 16.06 40.335 16.06 68.063s22.478 50.207 50.206 50.207z"/></g></svg>