<svg xmlns="http://www.w3.org/2000/svg" width="358" height="233" fill="none" xmlns:v="https://vecta.io/nano"><path fill="#fff" d="M0 0h357.653v232.6H0z"/><g fill="#000"><path d="M6.473 214.127a1.65 1.65 0 0 1-1.21-.498c-.333-.332-.498-.735-.498-1.2v-47.1c0-.522.166-.925.498-1.2.332-.332.735-.497 1.2-.497h5.904a1.65 1.65 0 0 1 1.21.497c.333.332.498.736.498 1.2v24.328l11.8-11.3c.142-.095.356-.26.64-.498.332-.285.64-.475.925-.57s.64-.142 1.067-.142h6.758c.474 0 .854.142 1.138.427s.427.664.427 1.138c0 .427-.237.854-.7 1.28l-14.512 13.73 16.3 17.64c.427.427.64.83.64 1.2 0 .474-.142.853-.427 1.138a1.45 1.45 0 0 1-1.067.427h-6.9c-.664 0-1.162-.072-1.494-.214-.285-.2-.664-.52-1.138-.996L14.085 198.62v13.8c0 .475-.166.878-.498 1.2s-.735.498-1.2.498H6.473zm36.333 0a1.65 1.65 0 0 1-1.21-.498c-.333-.332-.498-.735-.498-1.2v-33.576c0-.52.166-.924.498-1.2.332-.332.735-.498 1.2-.498H48.7c.522 0 .925.166 1.2.498.332.285.498.688.498 1.2v2.917c2.893-3.557 6.853-5.335 11.88-5.335 4.363 0 7.825 1.423 10.386 4.268s3.84 6.758 3.84 11.737v20c0 .475-.166.878-.498 1.2-.284.332-.688.498-1.2.498h-6.402a1.65 1.65 0 0 1-1.21-.498c-.333-.332-.498-.735-.498-1.2v-19.562c0-2.75-.688-4.884-2.063-6.402-1.328-1.565-3.25-2.348-5.762-2.348-2.42 0-4.363.783-5.833 2.348s-2.205 3.7-2.205 6.402v19.562c0 .475-.166.878-.498 1.2-.285.332-.688.498-1.2.498h-6.33zm53.636.7c-4.363 0-7.8-1.423-10.315-4.268s-3.77-6.758-3.77-11.738v-20c0-.52.166-.924.498-1.2.332-.332.735-.498 1.2-.498h6.402a1.65 1.65 0 0 1 1.21.498 1.64 1.64 0 0 1 .498 1.21v19.563c0 5.833 2.537 8.75 7.612 8.75 2.466 0 4.4-.782 5.833-2.347 1.47-1.565 2.205-3.7 2.205-6.402v-19.563c0-.52.166-.924.498-1.2.332-.332.735-.498 1.2-.498h6.33c.522 0 .925.166 1.2.498.332.285.498.688.498 1.2v33.576c0 .475-.166.878-.498 1.2-.284.332-.687.498-1.2.498h-5.904a1.65 1.65 0 0 1-1.21-.498c-.333-.332-.498-.735-.498-1.2v-2.916c-2.6 3.557-6.545 5.335-11.8 5.335zm29.384-.7a1.65 1.65 0 0 1-1.21-.498c-.333-.332-.498-.735-.498-1.2v-33.504c0-.522.166-.95.498-1.28s.735-.498 1.2-.498h5.833c.522 0 .95.166 1.28.498s.498.76.498 1.28v2.916c2.37-3.13 5.785-4.695 10.243-4.695h2.988c.52 0 .925.166 1.2.498.332.285.498.688.498 1.2v5.193c0 .475-.166.878-.498 1.2-.284.332-.688.498-1.2.498h-5.62c-2.23 0-3.983.64-5.264 1.92s-1.92 3.035-1.92 5.264v19.5c0 .475-.166.878-.498 1.2s-.735.498-1.2.498h-6.33zm27.028 0c-.475 0-.878-.166-1.2-.498a1.68 1.68 0 0 1-.498-1.2v-47.1c0-.522.166-.925.498-1.2a1.64 1.64 0 0 1 1.2-.497h5.975c.522 0 .925.165 1.2.497.332.285.498.688.498 1.2v47.1c0 .475-.166.878-.498 1.2-.284.332-.687.498-1.2.498h-5.975zm15.694-43.037a1.65 1.65 0 0 1-1.21-.498c-.333-.332-.498-.735-.498-1.2V164.2c0-.522.166-.95.498-1.28s.735-.498 1.2-.498h6.544c.522 0 .95.166 1.28.498s.498.76.498 1.28v5.192a1.55 1.55 0 0 1-.569 1.21 1.64 1.64 0 0 1-1.2.498h-6.544zm.284 43.037a1.65 1.65 0 0 1-1.21-.498c-.333-.332-.498-.735-.498-1.2v-33.576c0-.52.166-.924.498-1.2.332-.332.735-.498 1.2-.498h6.047a1.65 1.65 0 0 1 1.21.498 1.64 1.64 0 0 1 .498 1.21v33.576c0 .475-.166.878-.498 1.2s-.735.498-1.2.498h-6.047zm15.98 0a1.65 1.65 0 0 1-1.21-.498c-.333-.332-.498-.735-.498-1.2v-33.576c0-.52.166-.924.498-1.2.332-.332.735-.498 1.2-.498h5.904c.522 0 .925.166 1.2.498.332.285.498.688.498 1.2v2.917c2.893-3.557 6.853-5.335 11.88-5.335 4.363 0 7.825 1.423 10.386 4.268s3.84 6.758 3.84 11.737v20c0 .475-.166.878-.498 1.2-.284.332-.688.498-1.2.498h-6.402c-.475 0-.878-.166-1.2-.498a1.68 1.68 0 0 1-.498-1.2v-19.562c0-2.75-.687-4.884-2.063-6.402-1.327-1.565-3.248-2.348-5.762-2.348-2.418 0-4.363.783-5.833 2.348s-2.205 3.7-2.205 6.402v19.562c0 .475-.166.878-.498 1.2-.284.332-.687.498-1.2.498h-6.33zm56.624 15.65c-4.22 0-7.636-.7-10.244-2.134-2.608-1.375-4.458-2.964-5.548-4.766s-1.637-3.343-1.637-4.624a1.65 1.65 0 0 1 .498-1.21 1.79 1.79 0 0 1 1.2-.427h6.33c.427 0 .782.095 1.067.285.332.237.593.64.782 1.2.522 1.233 1.304 2.276 2.348 3.13 1.043.9 2.655 1.352 4.837 1.352 2.845 0 4.932-.64 6.26-1.92 1.328-1.233 1.992-3.414 1.992-6.544v-4.838c-2.56 3.035-6.2 4.553-10.884 4.553-4.932 0-8.655-1.494-11.168-4.48-2.466-2.988-3.794-7.067-3.984-12.236l-.07-1.92.07-1.92c.2-5.074 1.54-9.153 4.055-12.235s6.212-4.624 11.097-4.624c2.513 0 4.72.474 6.615 1.423s3.462 2.228 4.695 3.84v-2.774c0-.522.166-.95.498-1.28.38-.332.807-.498 1.28-.498h5.833a1.65 1.65 0 0 1 1.21.498c.333.332.498.76.498 1.28l.07 34.287c0 5.264-1.47 9.342-4.4 12.235s-7.374 4.34-13.302 4.34zm-.285-23.474c2.656 0 4.648-.854 5.975-2.56s2.063-3.794 2.206-6.26c.047-.38.07-1.138.07-2.276s-.024-1.897-.07-2.277c-.143-2.466-.878-4.552-2.206-6.26s-3.32-2.56-5.975-2.56c-5.122 0-7.825 3.13-8.1 9.4l-.072 1.708c0 7.398 2.727 11.097 8.18 11.097zm25.98-9.4a1.65 1.65 0 0 1-1.21-.498 1.64 1.64 0 0 1-.498-1.21v-4.838a1.65 1.65 0 0 1 .498-1.21 1.64 1.64 0 0 1 1.21-.498h21.9c.522 0 .925.166 1.2.498.332.285.498.688.498 1.2v4.838a1.65 1.65 0 0 1-.498 1.21 1.64 1.64 0 0 1-1.21.498h-21.9zm31.618 17.215c-.474 0-.878-.166-1.2-.498a1.64 1.64 0 0 1-.498-1.2v-33.504c0-.522.166-.95.498-1.28s.735-.498 1.2-.498h5.833c.522 0 .948.166 1.28.498s.498.76.498 1.28v2.916c2.37-3.13 5.786-4.695 10.244-4.695h2.987c.522 0 .925.166 1.2.498.332.285.498.688.498 1.2v5.193c0 .475-.166.878-.498 1.2-.285.332-.688.498-1.2.498h-5.62c-2.23 0-3.984.64-5.264 1.92s-1.92 3.035-1.92 5.264v19.5c0 .475-.166.878-.498 1.2s-.735.498-1.2.498h-6.33zm39.334.7c-3.604 0-6.616-.545-9.034-1.636s-4.22-2.348-5.407-3.77c-1.138-1.47-1.707-2.727-1.707-3.77 0-.474.142-.853.427-1.138a1.7 1.7 0 0 1 1.138-.426h5.833c.38 0 .7.2.996.57.237.2.76.64 1.565 1.35.854.712 1.802 1.28 2.845 1.707 1.1.38 2.277.57 3.557.57 1.897 0 3.438-.355 4.624-1.067 1.186-.758 1.778-1.825 1.778-3.2 0-.948-.284-1.707-.853-2.276-.522-.616-1.494-1.162-2.917-1.636-1.375-.522-3.462-1.1-6.26-1.707-4.03-.854-7.018-2.158-8.963-3.913-1.897-1.754-2.845-4.078-2.845-6.97 0-1.897.57-3.675 1.707-5.335 1.138-1.707 2.822-3.083 5.05-4.126 2.276-1.1 4.98-1.636 8.1-1.636 3.225 0 6 .522 8.323 1.565 2.324.996 4.078 2.205 5.264 3.628 1.233 1.422 1.85 2.68 1.85 3.77 0 .427-.166.806-.498 1.138-.284.285-.64.427-1.067.427h-5.335c-.52 0-.924-.2-1.2-.57-.332-.237-.877-.664-1.636-1.28a8.14 8.14 0 0 0-2.42-1.565c-.902-.38-2-.57-3.272-.57-1.755 0-3.106.38-4.055 1.138a3.64 3.64 0 0 0-1.422 2.988c0 .854.213 1.565.64 2.134.474.57 1.4 1.115 2.774 1.636 1.375.475 3.438.973 6.2 1.494 8.536 1.66 12.804 5.383 12.804 11.168 0 3.367-1.47 6.094-4.4 8.18-2.893 2.087-6.948 3.13-12.164 3.13zM165.397 96.486l8.6 14.255a42.67 42.67 0 0 1-14.606-4.33l5.995-9.925zm32.883 9.814l-.215.1-5.995-9.925-8.6 14.255a42.65 42.65 0 0 0 14.821-4.44zm13.584-10.926l-.407.486 3.454-5.718-9.504-15.735-9.505 15.735 7.775 12.872c3.05-2.18 5.804-4.752 8.187-7.64zm-23.626-5.232l-9.505-15.735-9.504 15.735 9.504 15.735 9.505-15.735zM153.8 103.014l7.775-12.872-9.505-15.735-9.504 15.735L146 95.86c2.288 2.7 4.9 5.096 7.78 7.154zm5.602-73.298l5.995 9.925 8.6-14.256a42.65 42.65 0 0 0-14.606 4.331zm24.058-4.33l8.6 14.256 5.995-9.925a42.65 42.65 0 0 0-14.606-4.331z"/><path d="M203.677 33.113l-7.775 12.872 9.505 15.735 9.504-15.735-3.454-5.72c-2.288-2.7-4.9-5.095-7.78-7.153zM169.23 45.985l9.504-15.735 9.505 15.735-9.505 15.735-9.504-15.735zM146 40.266l-3.454 5.718 9.504 15.735 9.505-15.735-7.775-12.872a43.18 43.18 0 0 0-7.78 7.153zm-7.246 43.484l9.474-15.685-9.474-15.685a42.82 42.82 0 0 0-2.956 15.685 42.82 42.82 0 0 0 2.956 15.685zm79.96 0a42.82 42.82 0 0 0 2.956-15.686c0-5.558-1.056-10.87-2.98-15.743l.023.058-9.475 15.686 9.475 15.685zm-36.148-15.686l9.505-15.735 9.504 15.735L192.07 83.8l-9.505-15.735zm-7.665 0l-9.504-15.735-9.505 15.735 9.505 15.735 9.504-15.735z"/><path fill-rule="evenodd" d="M225.354 117.662c9.57-8.998 16.536-20.735 19.646-33.958l-8.617-4.81c1.53-7.348 1.53-14.39 0-21.74l8.6-4.8c-3.123-13.22-10.1-24.95-19.68-33.938l-8.515 4.753c-5.512-4.593-11.635-8.267-18.37-10.716V2.887C192.188 1.01 185.583 0 178.742 0c-6.783 0-13.334.992-19.516 2.84v9.614c-7.042 2.45-13.166 6.124-18.677 11.023l-8.495-4.94c-9.532 8.99-16.47 20.7-19.57 33.89l8.47 4.727c-1.225 7.348-1.225 14.39 0 21.74l-8.486 4.736c3.095 13.228 10.05 24.97 19.608 33.98l8.474-4.73c5.51 4.593 11.635 8.267 18.677 10.717v9.7c6.182 1.847 12.733 2.84 19.516 2.84a68.09 68.09 0 0 0 19.675-2.887v-9.643c6.736-2.45 12.86-6.124 18.37-10.717l8.566 4.782zm-46.62.608c27.728 0 50.206-22.478 50.206-50.207s-22.478-50.206-50.206-50.206-50.207 22.478-50.207 50.206 22.478 50.207 50.207 50.207z"/></g></svg>