<svg width="2599" height="3283" viewBox="0 0 2599 3283" fill="none" xmlns="http://www.w3.org/2000/svg">
<path fill-rule="evenodd" clip-rule="evenodd" d="M1767.67 1071.29H1918.5V1138.96H1700V297H1918.5V364.666H1767.67V1071.29Z" fill="#1F2937"/>
<path fill-rule="evenodd" clip-rule="evenodd" d="M1767.67 2143.29H1918.5V2210.96H1700V1369L1918.5 1369V1436.67H1767.67V2143.29Z" fill="#1F2937"/>
<path fill-rule="evenodd" clip-rule="evenodd" d="M1767.67 3215.29H1918.5V3282.96H1700V2441H1918.5V2508.67H1767.67V3215.29Z" fill="#1F2937"/>
<path fill-rule="evenodd" clip-rule="evenodd" d="M407.666 1071.29H558.497V1138.96H340L340 297H558.497V364.666H407.666V1071.29Z" fill="#1F2937"/>
<path fill-rule="evenodd" clip-rule="evenodd" d="M407.666 2143.29H558.497V2210.96H340L340 1369L558.497 1369V1436.67H407.666V2143.29Z" fill="#1F2937"/>
<path fill-rule="evenodd" clip-rule="evenodd" d="M407.666 3215.29H558.497V3282.96H340L340 2441H558.497V2508.67H407.666V3215.29Z" fill="#1F2937"/>
<path fill-rule="evenodd" clip-rule="evenodd" d="M2447.67 1071.29H2598.5V1138.96H2380V297H2598.5V364.666H2447.67V1071.29Z" fill="#1F2937"/>
<path fill-rule="evenodd" clip-rule="evenodd" d="M2447.67 2143.29H2598.5V2210.96H2380V1369L2598.5 1369V1436.67H2447.67V2143.29Z" fill="#1F2937"/>
<path fill-rule="evenodd" clip-rule="evenodd" d="M2447.67 3215.29H2598.5V3282.96H2380V2441H2598.5V2508.67H2447.67V3215.29Z" fill="#1F2937"/>
<path fill-rule="evenodd" clip-rule="evenodd" d="M1087.67 1071.29H1238.5V1138.96H1020V297H1238.5V364.666H1087.67V1071.29Z" fill="#1F2937"/>
<path fill-rule="evenodd" clip-rule="evenodd" d="M1087.67 2143.29H1238.5V2210.96H1020V1369L1238.5 1369V1436.67H1087.67V2143.29Z" fill="#1F2937"/>
<path fill-rule="evenodd" clip-rule="evenodd" d="M1087.67 3215.29H1238.5V3282.96H1020V2441H1238.5V2508.67H1087.67V3215.29Z" fill="#1F2937"/>
<path fill-rule="evenodd" clip-rule="evenodd" d="M2190.83 774.29H2040V841.956H2258.5V2.60555e-06L2040 0V67.6658L2190.83 67.6658V774.29Z" fill="#1F2937"/>
<path fill-rule="evenodd" clip-rule="evenodd" d="M2190.83 1846.71H2040V1914.38H2258.5V1072.42L2040 1072.42V1140.09H2190.83V1846.71Z" fill="#1F2937"/>
<path fill-rule="evenodd" clip-rule="evenodd" d="M2190.83 2919.14H2040V2986.8H2258.5V2144.85H2040V2212.51H2190.83V2919.14Z" fill="#1F2937"/>
<path fill-rule="evenodd" clip-rule="evenodd" d="M830.831 774.29H680V841.956H898.497V2.60555e-06L680 0V67.6658L830.831 67.6658V774.29Z" fill="#1F2937"/>
<path fill-rule="evenodd" clip-rule="evenodd" d="M830.831 1846.71H680V1914.38H898.497V1072.42L680 1072.42V1140.09H830.831V1846.71Z" fill="#1F2937"/>
<path fill-rule="evenodd" clip-rule="evenodd" d="M830.831 2919.14H680V2986.8H898.497V2144.85H680V2212.51H830.831V2919.14Z" fill="#1F2937"/>
<path fill-rule="evenodd" clip-rule="evenodd" d="M1510.83 774.29H1360V841.956H1578.5V2.60555e-06L1360 0V67.6658L1510.83 67.6658V774.29Z" fill="#1F2937"/>
<path fill-rule="evenodd" clip-rule="evenodd" d="M1510.83 1846.71H1360V1914.38H1578.5V1072.42L1360 1072.42V1140.09H1510.83V1846.71Z" fill="#1F2937"/>
<path fill-rule="evenodd" clip-rule="evenodd" d="M1510.83 2919.14H1360V2986.8H1578.5V2144.85H1360V2212.51H1510.83V2919.14Z" fill="#1F2937"/>
<path fill-rule="evenodd" clip-rule="evenodd" d="M150.831 774.29H8.06907e-07L0 841.956H218.497L218.497 2.60555e-06L1.00402e-05 0L9.23331e-06 67.6658L150.831 67.6658L150.831 774.29Z" fill="#1F2937"/>
<path fill-rule="evenodd" clip-rule="evenodd" d="M150.831 1846.71H8.06907e-07L0 1914.38H218.497L218.497 1072.42L1.00402e-05 1072.42L9.23331e-06 1140.09H150.831L150.831 1846.71Z" fill="#1F2937"/>
<path fill-rule="evenodd" clip-rule="evenodd" d="M150.831 2919.14H8.06907e-07L0 2986.8H218.497L218.497 2144.85H1.00402e-05L9.23331e-06 2212.51H150.831L150.831 2919.14Z" fill="#1F2937"/>
</svg>
