<?xml version="1.0" encoding="UTF-8" standalone="no"?>
<!-- Created with Inkscape (http://www.inkscape.org/) -->

<svg
   xmlns:dc="http://purl.org/dc/elements/1.1/"
   xmlns:cc="http://creativecommons.org/ns#"
   xmlns:rdf="http://www.w3.org/1999/02/22-rdf-syntax-ns#"
   xmlns:svg="http://www.w3.org/2000/svg"
   xmlns="http://www.w3.org/2000/svg"
   xmlns:sodipodi="http://sodipodi.sourceforge.net/DTD/sodipodi-0.dtd"
   xmlns:inkscape="http://www.inkscape.org/namespaces/inkscape"
   width="142.814mm"
   height="33.794048mm"
   viewBox="0 0 142.814 33.794048"
   version="1.1"
   id="svg5194"
   sodipodi:docname="horizontal black.svg"
   inkscape:export-filename="/home/anxhelo/Documents/ura works folder/OSM UK/horizontal color.png"
   inkscape:export-xdpi="141.06"
   inkscape:export-ydpi="141.06"
   inkscape:version="0.92.1 r">
  <defs
     id="defs5188" />
  <sodipodi:namedview
     id="base"
     pagecolor="#ffffff"
     bordercolor="#666666"
     borderopacity="1.0"
     inkscape:pageopacity="0.0"
     inkscape:pageshadow="2"
     inkscape:zoom="0.98994949"
     inkscape:cx="220.62385"
     inkscape:cy="85.324266"
     inkscape:document-units="mm"
     inkscape:current-layer="layer1"
     showgrid="false"
     fit-margin-top="0"
     fit-margin-left="0"
     fit-margin-right="0"
     fit-margin-bottom="0"
     inkscape:window-width="1366"
     inkscape:window-height="740"
     inkscape:window-x="0"
     inkscape:window-y="0"
     inkscape:window-maximized="1" />
  <metadata
     id="metadata5191">
    <rdf:RDF>
      <cc:Work
         rdf:about="">
        <dc:format>image/svg+xml</dc:format>
        <dc:type
           rdf:resource="http://purl.org/dc/dcmitype/StillImage" />
        <dc:title></dc:title>
      </cc:Work>
    </rdf:RDF>
  </metadata>
  <g
     inkscape:label="Layer 1"
     inkscape:groupmode="layer"
     id="layer1"
     transform="translate(-48.104595,-215.5958)">
    <g
       id="g6274"
       transform="matrix(1.4627389,0,0,1.4627389,-15.921627,-49.185205)">
      <path
         inkscape:connector-curvature="0"
         id="path4839"
         style="fill:#000000;fill-opacity:1;fill-rule:nonzero;stroke:none;stroke-width:0.4614009"
         d="M 129.67168,200.41254 H 70.588821 v -7.86228 h 59.082859 z" />
      <g
         transform="matrix(0.46140092,0,0,-0.46140092,52.923997,201.5181)"
         id="g4841">
        <path
           inkscape:connector-curvature="0"
           id="path4843"
           style="fill:#000000;fill-opacity:1;fill-rule:nonzero;stroke:none"
           d="m 0,0 11.311,-3.614 4.9,0.127 -1.642,5.171 -9.363,-0.979 -6.892,3.046 -5.01,-5.009 z" />
      </g>
      <g
         transform="matrix(0.46140092,0,0,-0.46140092,58.976839,198.01436)"
         id="g4845">
        <path
           inkscape:connector-curvature="0"
           id="path4847"
           style="fill:#000000;fill-opacity:1;fill-rule:nonzero;stroke:none"
           d="m 0,0 c -3.753,0 -7.436,1.086 -10.582,3.092 l -0.095,-0.094 0.026,-1.613 0.016,-1.058 -0.748,-0.748 -0.679,-0.679 4.598,-2.2 12.503,1.588 v 0 l 2.287,-9.305 5.192,0.15 -3.597,8.655 1.016,4.935 C 7.016,1.004 3.627,0 0,0" />
      </g>
      <g
         transform="matrix(0.46140092,0,0,-0.46140092,50.091685,193.88533)"
         id="g4849">
        <path
           inkscape:connector-curvature="0"
           id="path4851"
           style="fill:#000000;fill-opacity:1;fill-rule:nonzero;stroke:none"
           d="m 0,0 1.058,-0.016 1.613,-0.026 0.077,0.077 c -2.051,3.169 -3.161,6.888 -3.161,10.686 0,6.018 2.723,11.406 6.994,15.017 L 6.539,25.754 -2.08,22.475 -4.544,16.457 -1.797,9.994 -6.248,1.45 l -6.705,2.128 4.406,-8.053 -1.856,-5.929 9.655,9.656 z" />
      </g>
      <g
         transform="matrix(0.46140092,0,0,-0.46140092,43.964329,190.82652)"
         id="g4853">
        <path
           inkscape:connector-curvature="0"
           id="path4855"
           style="fill:#000000;fill-opacity:1;fill-rule:nonzero;stroke:none"
           d="M 0,0 5.925,-1.88 8.283,3.708 5.843,9.45 8.352,15.782 -0.418,19.125 3.435,9.014 Z" />
      </g>
      <g
         transform="matrix(0.46140092,0,0,-0.46140092,58.976147,183.33627)"
         id="g4857">
        <path
           inkscape:connector-curvature="0"
           id="path4859"
           style="fill:#000000;fill-opacity:1;fill-rule:nonzero;stroke:none"
           d="m 0,0 c 6.696,0 12.142,-5.447 12.142,-12.143 0,-6.695 -5.447,-12.143 -12.142,-12.143 -6.695,0 -12.143,5.448 -12.143,12.143 C -12.143,-5.448 -6.696,0 0,0 m -13.15,-30.466 -0.041,2.672 2.345,2.345 c 3.056,-2.493 6.899,-3.863 10.848,-3.863 9.466,0 17.168,7.702 17.168,17.169 C 17.169,-2.676 9.467,5.026 0,5.026 c -9.467,0 -17.169,-7.701 -17.169,-17.168 0,-3.993 1.399,-7.867 3.943,-10.94 l -2.339,-2.339 -2.671,0.042 -14.581,-14.582 5.086,-5.085 z" />
      </g>
      <g
         transform="matrix(0.46140092,0,0,-0.46140092,72.877369,193.92294)"
         id="g4861">
        <path
           inkscape:connector-curvature="0"
           id="path4863"
           style="fill:#ffffff;fill-opacity:1;fill-rule:nonzero;stroke:none"
           d="m 0,0 v -6.387 c 0,-2.417 1.073,-3.441 2.514,-3.441 1.6,0 2.625,1.057 2.625,3.441 V 0 h 1.408 v -6.29 c 0,-3.314 -1.744,-4.674 -4.081,-4.674 -2.209,0 -3.874,1.265 -3.874,4.61 V 0 Z" />
      </g>
      <g
         transform="matrix(0.46140092,0,0,-0.46140092,77.011474,198.90057)"
         id="g4865">
        <path
           inkscape:connector-curvature="0"
           id="path4867"
           style="fill:#ffffff;fill-opacity:1;fill-rule:nonzero;stroke:none"
           d="M 0,0 V 10.788 H 1.521 L 4.978,5.33 C 5.778,4.065 6.402,2.929 6.915,1.825 L 6.946,1.841 C 6.818,3.281 6.787,4.594 6.787,6.274 v 4.514 H 8.1 V 0 H 6.69 L 3.266,5.475 c -0.753,1.2 -1.473,2.432 -2.018,3.6 L 1.2,9.06 C 1.28,7.699 1.312,6.402 1.312,4.609 V 0 Z" />
      </g>
      <path
         inkscape:connector-curvature="0"
         id="path4869"
         style="fill:#ffffff;fill-opacity:1;fill-rule:nonzero;stroke:none;stroke-width:0.4614009"
         d="m 82.51142,198.90052 h -0.642731 v -4.97758 h 0.642731 z" />
      <g
         transform="matrix(0.46140092,0,0,-0.46140092,84.578633,194.46951)"
         id="g4871">
        <path
           inkscape:connector-curvature="0"
           id="path4873"
           style="fill:#ffffff;fill-opacity:1;fill-rule:nonzero;stroke:none"
           d="M 0,0 H -3.281 V 1.185 H 4.706 V 0 H 1.408 V -9.604 H 0 Z" />
      </g>
      <g
         transform="matrix(0.46140092,0,0,-0.46140092,89.879808,196.56699)"
         id="g4875">
        <path
           inkscape:connector-curvature="0"
           id="path4877"
           style="fill:#ffffff;fill-opacity:1;fill-rule:nonzero;stroke:none"
           d="M 0,0 H -4.193 V -3.889 H 0.48 V -5.058 H -5.586 V 5.73 H 0.24 V 4.562 H -4.193 V 1.153 H 0 Z" />
      </g>
      <g
         transform="matrix(0.46140092,0,0,-0.46140092,91.577162,198.39096)"
         id="g4879">
        <path
           inkscape:connector-curvature="0"
           id="path4881"
           style="fill:#ffffff;fill-opacity:1;fill-rule:nonzero;stroke:none"
           d="m 0,0 c 0.353,-0.064 0.864,-0.08 1.408,-0.08 2.978,0 4.594,1.665 4.594,4.578 C 6.019,7.043 4.578,8.659 1.633,8.659 0.912,8.659 0.368,8.596 0,8.516 Z M -1.393,9.54 C -0.544,9.668 0.464,9.764 1.568,9.764 3.569,9.764 4.994,9.3 5.938,8.419 6.898,7.539 7.459,6.29 7.459,4.546 7.459,2.785 6.914,1.345 5.906,0.353 4.897,-0.656 3.233,-1.2 1.137,-1.2 c -0.993,0 -1.825,0.048 -2.53,0.128 z" />
      </g>
      <g
         transform="matrix(0.46140092,0,0,-0.46140092,97.415865,193.92294)"
         id="g4883">
        <path
           inkscape:connector-curvature="0"
           id="path4885"
           style="fill:#ffffff;fill-opacity:1;fill-rule:nonzero;stroke:none"
           d="M 0,0 H 1.393 V -5.202 H 1.44 c 0.289,0.416 0.577,0.801 0.849,1.152 L 5.586,0 h 1.728 l -3.905,-4.577 4.21,-6.211 H 5.97 L 2.417,-5.49 1.393,-6.675 v -4.113 H 0 Z" />
      </g>
      <path
         inkscape:connector-curvature="0"
         id="path4887"
         style="fill:#ffffff;fill-opacity:1;fill-rule:nonzero;stroke:none;stroke-width:0.4614009"
         d="m 102.05959,198.90052 h -0.64273 v -4.97758 h 0.64273 z" />
      <g
         transform="matrix(0.46140092,0,0,-0.46140092,103.18158,198.90057)"
         id="g4889">
        <path
           inkscape:connector-curvature="0"
           id="path4891"
           style="fill:#ffffff;fill-opacity:1;fill-rule:nonzero;stroke:none"
           d="M 0,0 V 10.788 H 1.521 L 4.978,5.33 C 5.778,4.065 6.402,2.929 6.914,1.825 l 0.032,0.016 c -0.128,1.44 -0.16,2.753 -0.16,4.433 v 4.514 H 8.099 V 0 H 6.69 L 3.265,5.475 c -0.752,1.2 -1.473,2.432 -2.017,3.6 L 1.2,9.06 C 1.28,7.699 1.312,6.402 1.312,4.609 V 0 Z" />
      </g>
      <g
         transform="matrix(0.46140092,0,0,-0.46140092,111.82787,198.67887)"
         id="g4893">
        <path
           inkscape:connector-curvature="0"
           id="path4895"
           style="fill:#ffffff;fill-opacity:1;fill-rule:nonzero;stroke:none"
           d="m 0,0 c -0.624,-0.225 -1.856,-0.593 -3.313,-0.593 -1.633,0 -2.977,0.416 -4.034,1.425 -0.928,0.897 -1.505,2.337 -1.505,4.018 0.016,3.217 2.225,5.57 5.843,5.57 1.248,0 2.225,-0.273 2.689,-0.496 L -0.656,8.787 c -0.576,0.256 -1.297,0.465 -2.385,0.465 -2.625,0 -4.338,-1.633 -4.338,-4.338 0,-2.737 1.649,-4.354 4.162,-4.354 0.912,0 1.536,0.128 1.857,0.288 V 4.065 H -3.554 V 5.186 H 0 Z" />
      </g>
      <g
         transform="matrix(0.46140092,0,0,-0.46140092,113.45089,198.39096)"
         id="g4897">
        <path
           inkscape:connector-curvature="0"
           id="path4899"
           style="fill:#ffffff;fill-opacity:1;fill-rule:nonzero;stroke:none"
           d="m 0,0 c 0.352,-0.064 0.864,-0.08 1.408,-0.08 2.978,0 4.594,1.665 4.594,4.578 C 6.019,7.043 4.577,8.659 1.633,8.659 0.912,8.659 0.368,8.596 0,8.516 Z M -1.393,9.54 C -0.545,9.668 0.464,9.764 1.568,9.764 3.569,9.764 4.994,9.3 5.938,8.419 6.898,7.539 7.459,6.29 7.459,4.546 7.459,2.785 6.914,1.345 5.906,0.353 4.897,-0.656 3.233,-1.2 1.136,-1.2 c -0.992,0 -1.824,0.048 -2.529,0.128 z" />
      </g>
      <g
         transform="matrix(0.46140092,0,0,-0.46140092,118.11629,196.44126)"
         id="g4901">
        <path
           inkscape:connector-curvature="0"
           id="path4903"
           style="fill:#ffffff;fill-opacity:1;fill-rule:nonzero;stroke:none"
           d="m 0,0 c 0,-2.305 1.249,-4.37 3.441,-4.37 2.209,0 3.458,2.033 3.458,4.482 0,2.145 -1.121,4.386 -3.441,4.386 C 1.153,4.498 0,2.369 0,0 m 8.372,0.176 c 0,-3.713 -2.257,-5.682 -5.011,-5.682 -2.848,0 -4.849,2.209 -4.849,5.474 0,3.426 2.129,5.667 5.009,5.667 2.946,0 4.851,-2.258 4.851,-5.459" />
      </g>
      <g
         transform="matrix(0.46140092,0,0,-0.46140092,127.00634,196.71431)"
         id="g4905">
        <path
           inkscape:connector-curvature="0"
           id="path4907"
           style="fill:#ffffff;fill-opacity:1;fill-rule:nonzero;stroke:none"
           d="M 0,0 C -0.08,1.504 -0.177,3.313 -0.16,4.657 H -0.209 C -0.576,3.393 -1.024,2.049 -1.569,0.56 L -3.474,-4.674 H -4.53 L -6.275,0.464 C -6.787,1.984 -7.22,3.377 -7.523,4.657 H -7.556 C -7.588,3.313 -7.668,1.504 -7.764,-0.112 L -8.052,-4.738 H -9.38 L -8.628,6.05 h 1.776 l 1.841,-5.218 c 0.449,-1.328 0.817,-2.513 1.089,-3.634 h 0.048 c 0.272,1.089 0.656,2.274 1.137,3.634 L -0.816,6.05 H 0.96 L 1.632,-4.738 H 0.271 Z" />
      </g>
      <g
         transform="matrix(0.46140092,0,0,-0.46140092,77.07141,186.54006)"
         id="g4909">
        <path
           inkscape:connector-curvature="0"
           id="path4911"
           style="fill:#000000;fill-opacity:1;fill-rule:nonzero;stroke:none"
           d="m 0,0 c 0,2.53 -1.034,5.435 -4.026,5.435 -2.993,0 -4.027,-3.059 -4.027,-5.435 0,-2.508 1.034,-5.435 4.027,-5.435 C -1.056,-5.435 0,-2.354 0,0 m -10.781,0 c 0,3.807 1.804,7.965 6.755,7.965 4.972,0 6.755,-4.158 6.755,-7.965 0,-3.807 -1.783,-7.965 -6.755,-7.965 -4.951,0 -6.755,4.158 -6.755,7.965" />
      </g>
      <g
         transform="matrix(0.46140092,0,0,-0.46140092,82.76593,187.50457)"
         id="g4913">
        <path
           inkscape:connector-curvature="0"
           id="path4915"
           style="fill:#000000;fill-opacity:1;fill-rule:nonzero;stroke:none"
           d="m 0,0 c 0,2.046 -0.857,3.455 -2.442,3.455 -1.012,0 -1.716,-0.418 -2.178,-1.101 v -4.665 c 0.395,-0.571 1.143,-1.1 2.178,-1.1 C -0.88,-3.411 0,-2.2 0,0 m -4.62,-4.708 v -4.137 l -2.574,-1.189 V 5.633 H -4.62 V 4.775 c 0.55,0.66 1.364,1.122 2.574,1.122 2.794,0 4.62,-2.134 4.62,-5.897 0,-3.697 -1.914,-5.875 -4.642,-5.875 -1.21,0 -2.025,0.506 -2.552,1.167" />
      </g>
      <g
         transform="matrix(0.46140092,0,0,-0.46140092,88.196434,186.96653)"
         id="g4917">
        <path
           inkscape:connector-curvature="0"
           id="path4919"
           style="fill:#000000;fill-opacity:1;fill-rule:nonzero;stroke:none"
           d="M 0,0 C -0.11,1.716 -1.188,2.464 -2.354,2.464 -3.74,2.464 -4.841,1.76 -4.973,0 Z m -7.547,-1.144 c 0,3.674 2.046,5.875 5.193,5.875 2.707,0 4.907,-1.672 4.907,-5.281 0,-0.462 -0.023,-1.078 -0.088,-1.584 h -7.46 c 0.089,-1.651 1.299,-2.64 2.641,-2.64 0.99,0 1.782,0.374 2.376,1.166 L 1.65,-5.281 c -0.879,-1.056 -2.2,-1.76 -4.004,-1.76 -3.191,0 -5.193,2.201 -5.193,5.897" />
      </g>
      <g
         transform="matrix(0.46140092,0,0,-0.46140092,93.545776,187.11883)"
         id="g4921">
        <path
           inkscape:connector-curvature="0"
           id="path4923"
           style="fill:#000000;fill-opacity:1;fill-rule:nonzero;stroke:none"
           d="m 0,0 c 0,1.849 -0.792,2.619 -2.09,2.619 -1.387,0 -2.289,-0.726 -2.289,-2.575 V -6.447 H -6.953 V 4.797 h 2.574 V 3.741 c 0.727,0.88 1.694,1.32 2.971,1.32 2.135,0 3.982,-1.166 3.982,-4.599 V -6.447 H 0 Z" />
      </g>
      <g
         transform="matrix(0.46140092,0,0,-0.46140092,95.646396,188.37754)"
         id="g4925">
        <path
           inkscape:connector-curvature="0"
           id="path4927"
           style="fill:#000000;fill-opacity:1;fill-rule:nonzero;stroke:none"
           d="m 0,0 2.442,0.902 c 0.638,-1.408 1.87,-2.377 3.454,-2.377 1.585,0 2.641,0.726 2.641,2.135 0,1.474 -1.562,2.024 -3.301,2.618 -2.2,0.748 -4.664,1.606 -4.664,4.533 0,2.244 1.826,4.136 5.061,4.136 2.684,0 4.379,-1.408 4.929,-3.3 L 8.186,7.855 C 7.789,8.757 6.909,9.439 5.457,9.439 c -1.387,0 -2.2,-0.594 -2.2,-1.65 0,-1.122 1.342,-1.584 2.948,-2.112 2.244,-0.793 5.017,-1.76 5.017,-5.017 0,-2.971 -2.377,-4.643 -5.413,-4.643 C 2.971,-3.983 0.836,-2.442 0,0" />
      </g>
      <g
         transform="matrix(0.46140092,0,0,-0.46140092,102.20378,188.88536)"
         id="g4929">
        <path
           inkscape:connector-curvature="0"
           id="path4931"
           style="fill:#000000;fill-opacity:1;fill-rule:nonzero;stroke:none"
           d="M 0,0 V 6.381 H -1.672 V 8.625 H 0 v 3.411 l 2.574,1.232 V 8.625 H 5.171 V 6.381 H 2.574 V 0.506 c 0,-0.638 0.265,-1.078 0.947,-1.078 0.572,0 1.166,0.176 1.76,0.506 L 4.973,-2.376 C 4.335,-2.706 3.543,-2.882 2.619,-2.882 0.771,-2.882 0,-1.782 0,0" />
      </g>
      <g
         transform="matrix(0.46140092,0,0,-0.46140092,105.55346,184.90554)"
         id="g4933">
        <path
           inkscape:connector-curvature="0"
           id="path4935"
           style="fill:#000000;fill-opacity:1;fill-rule:nonzero;stroke:none"
           d="m 0,0 h 2.574 v -1.166 c 0.441,0.924 1.189,1.43 2.311,1.43 0.836,0 1.517,-0.286 2.09,-0.77 L 6.601,-2.86 c -0.462,0.33 -1.056,0.594 -1.914,0.594 -0.991,0 -2.113,-0.55 -2.113,-2.685 v -6.293 H 0 Z" />
      </g>
      <g
         transform="matrix(0.46140092,0,0,-0.46140092,112.58849,186.96653)"
         id="g4937">
        <path
           inkscape:connector-curvature="0"
           id="path4939"
           style="fill:#000000;fill-opacity:1;fill-rule:nonzero;stroke:none"
           d="M 0,0 C -0.11,1.716 -1.188,2.464 -2.354,2.464 -3.741,2.464 -4.841,1.76 -4.973,0 Z m -7.547,-1.144 c 0,3.674 2.046,5.875 5.193,5.875 2.706,0 4.906,-1.672 4.906,-5.281 0,-0.462 -0.022,-1.078 -0.088,-1.584 h -7.459 c 0.088,-1.651 1.299,-2.64 2.641,-2.64 0.99,0 1.782,0.374 2.375,1.166 L 1.65,-5.281 c -0.88,-1.056 -2.201,-1.76 -4.004,-1.76 -3.191,0 -5.193,2.201 -5.193,5.897" />
      </g>
      <g
         transform="matrix(0.46140092,0,0,-0.46140092,117.95767,186.96653)"
         id="g4941">
        <path
           inkscape:connector-curvature="0"
           id="path4943"
           style="fill:#000000;fill-opacity:1;fill-rule:nonzero;stroke:none"
           d="M 0,0 C -0.11,1.716 -1.188,2.464 -2.354,2.464 -3.741,2.464 -4.841,1.76 -4.973,0 Z m -7.547,-1.144 c 0,3.674 2.046,5.875 5.193,5.875 2.706,0 4.906,-1.672 4.906,-5.281 0,-0.462 -0.022,-1.078 -0.088,-1.584 h -7.459 c 0.088,-1.651 1.299,-2.64 2.641,-2.64 0.99,0 1.782,0.374 2.375,1.166 L 1.65,-5.281 c -0.88,-1.056 -2.201,-1.76 -4.004,-1.76 -3.191,0 -5.193,2.201 -5.193,5.897" />
      </g>
      <g
         transform="matrix(0.46140092,0,0,-0.46140092,120.33227,188.88536)"
         id="g4945">
        <path
           inkscape:connector-curvature="0"
           id="path4947"
           style="fill:#000000;fill-opacity:1;fill-rule:nonzero;stroke:none"
           d="M 0,0 V 6.381 H -1.672 V 8.625 H 0 v 3.411 l 2.574,1.232 V 8.625 H 5.171 V 6.381 H 2.574 V 0.506 c 0,-0.638 0.265,-1.078 0.947,-1.078 0.572,0 1.166,0.176 1.76,0.506 L 4.973,-2.376 C 4.335,-2.706 3.543,-2.882 2.619,-2.882 0.771,-2.882 0,-1.782 0,0" />
      </g>
      <g
         transform="matrix(0.46140092,0,0,-0.46140092,129.03221,190.09339)"
         id="g4949">
        <path
           inkscape:connector-curvature="0"
           id="path4951"
           style="fill:#000000;fill-opacity:1;fill-rule:nonzero;stroke:none"
           d="m 0,0 v 8.185 c 0,0.55 0.044,1.43 0.088,1.848 C -0.11,9.439 -0.396,8.691 -0.616,8.141 l -3.74,-8.405 -3.742,8.449 C -8.34,8.713 -8.625,9.439 -8.823,10.033 -8.779,9.615 -8.735,8.735 -8.735,8.185 V 0 h -2.641 v 15.402 h 2.662 l 3.961,-9.043 c 0.154,-0.374 0.308,-0.792 0.418,-1.144 0.11,0.352 0.265,0.77 0.418,1.144 l 3.982,9.043 H 2.641 V 0 Z" />
      </g>
      <g
         transform="matrix(0.46140092,0,0,-0.46140092,134.57396,188.672)"
         id="g4953">
        <path
           inkscape:connector-curvature="0"
           id="path4955"
           style="fill:#000000;fill-opacity:1;fill-rule:nonzero;stroke:none"
           d="m 0,0 v 1.452 c -0.594,0.286 -1.408,0.462 -2.244,0.462 -1.277,0 -2.311,-0.44 -2.311,-1.518 0,-0.88 0.704,-1.474 2.047,-1.474 1.1,0 1.937,0.484 2.508,1.078 m 0,-2.178 c -0.55,-0.572 -1.496,-1.167 -2.992,-1.167 -2.311,0 -4.07,1.277 -4.07,3.741 0,2.596 2.178,3.718 4.4,3.718 1.057,0 1.958,-0.197 2.662,-0.593 v 0.593 c 0,1.475 -0.726,2.047 -2.2,2.047 -1.364,0 -2.399,-0.396 -3.344,-1.057 l -0.793,2.091 c 1.013,0.682 2.509,1.232 4.401,1.232 1.98,0 4.445,-0.484 4.445,-4.268 v -7.24 H 0 Z" />
      </g>
      <g
         transform="matrix(0.46140092,0,0,-0.46140092,140.21846,187.50457)"
         id="g4957">
        <path
           inkscape:connector-curvature="0"
           id="path4959"
           style="fill:#000000;fill-opacity:1;fill-rule:nonzero;stroke:none"
           d="m 0,0 c 0,2.046 -0.858,3.455 -2.442,3.455 -1.013,0 -1.717,-0.418 -2.179,-1.101 v -4.665 c 0.396,-0.571 1.144,-1.1 2.179,-1.1 C -0.881,-3.411 0,-2.2 0,0 m -4.621,-4.708 v -4.137 l -2.574,-1.189 V 5.633 h 2.574 V 4.775 c 0.55,0.66 1.364,1.122 2.574,1.122 2.795,0 4.621,-2.134 4.621,-5.897 0,-3.697 -1.914,-5.875 -4.642,-5.875 -1.211,0 -2.025,0.506 -2.553,1.167" />
      </g>
    </g>
  </g>
</svg>
