<?xml version="1.0" encoding="UTF-8" standalone="no"?>
<!-- Created with Inkscape (http://www.inkscape.org/) -->

<svg
   xmlns:dc="http://purl.org/dc/elements/1.1/"
   xmlns:cc="http://creativecommons.org/ns#"
   xmlns:rdf="http://www.w3.org/1999/02/22-rdf-syntax-ns#"
   xmlns:svg="http://www.w3.org/2000/svg"
   xmlns="http://www.w3.org/2000/svg"
   xmlns:sodipodi="http://sodipodi.sourceforge.net/DTD/sodipodi-0.dtd"
   xmlns:inkscape="http://www.inkscape.org/namespaces/inkscape"
   width="142.68515mm"
   height="33.764248mm"
   viewBox="0 0 142.68515 33.764248"
   version="1.1"
   id="svg5194"
   inkscape:version="0.92.1 r"
   sodipodi:docname="horizontal color.svg">
  <defs
     id="defs5188" />
  <sodipodi:namedview
     id="base"
     pagecolor="#ffffff"
     bordercolor="#666666"
     borderopacity="1.0"
     inkscape:pageopacity="0.0"
     inkscape:pageshadow="2"
     inkscape:zoom="0.98994949"
     inkscape:cx="265.44123"
     inkscape:cy="101.5789"
     inkscape:document-units="mm"
     inkscape:current-layer="layer1"
     showgrid="false"
     fit-margin-top="0"
     fit-margin-left="0"
     fit-margin-right="0"
     fit-margin-bottom="0"
     inkscape:window-width="1366"
     inkscape:window-height="740"
     inkscape:window-x="0"
     inkscape:window-y="0"
     inkscape:window-maximized="1" />
  <metadata
     id="metadata5191">
    <rdf:RDF>
      <cc:Work
         rdf:about="">
        <dc:format>image/svg+xml</dc:format>
        <dc:type
           rdf:resource="http://purl.org/dc/dcmitype/StillImage" />
        <dc:title></dc:title>
      </cc:Work>
    </rdf:RDF>
  </metadata>
  <g
     inkscape:label="Layer 1"
     inkscape:groupmode="layer"
     id="layer1"
     transform="translate(-48.097903,-178.55458)">
    <path
       d="M 173.6341,206.89974 H 87.289255 V 195.40967 H 173.6341 Z"
       style="fill:#4074d4;fill-opacity:1;fill-rule:nonzero;stroke:none;stroke-width:0.67430043"
       id="path4533"
       inkscape:connector-curvature="0" />
    <g
       id="g4535"
       transform="matrix(0.67430045,0,0,-0.67430045,71.297342,207.37985)">
      <path
         d="m 0,0 -9.363,-0.979 -10.58,4.676 -6.69,-7.648 12.064,2.267 11.311,-3.614 4.9,0.127 z"
         style="fill:#63b181;fill-opacity:1;fill-rule:nonzero;stroke:none"
         id="path4537"
         inkscape:connector-curvature="0" />
    </g>
    <g
       id="g4547"
       transform="matrix(0.67430045,0,0,-0.67430045,73.717274,204.54941)">
      <path
         d="M 0,0 2.286,-9.305 7.479,-9.155 3.882,-0.5 5.614,7.915 C 2.706,5.663 -0.942,4.32 -4.904,4.32 c -4.115,0 -7.892,1.447 -10.852,3.858 l -2.757,-2.758 -2.151,-3.104 8.161,-3.904 z"
         style="fill:#63b181;fill-opacity:1;fill-rule:nonzero;stroke:none"
         id="path4549"
         inkscape:connector-curvature="0" />
    </g>
    <g
       id="g4551"
       transform="matrix(0.67430045,0,0,-0.67430045,71.297342,207.37985)">
      <path
         d="M 0,0 1.642,-5.171 5.875,-5.107 3.589,4.198 -8.914,2.61 l -8.16,3.904 -2.869,-2.817 10.58,-4.676 z"
         style="fill:#4074d4;fill-opacity:1;fill-rule:nonzero;stroke:none"
         id="path4553"
         inkscape:connector-curvature="0" />
    </g>
    <g
       id="g4555"
       transform="matrix(0.67430045,0,0,-0.67430045,63.556377,180.68673)">
      <path
         d="m 0,0 -2.689,1.026 -8.618,-3.279 -2.464,-6.017 2.747,-6.464 -4.451,-8.544 -6.706,2.128 4.407,-8.053 -3.779,-12.067 13.84,13.784 2.312,-0.354 2.637,2.636 c -2.655,3.027 -4.269,6.991 -4.269,11.334 0,5.694 2.769,10.74 7.033,13.87"
         style="fill:#63b181;fill-opacity:1;fill-rule:nonzero;stroke:none"
         id="path4557"
         inkscape:connector-curvature="0" />
    </g>
    <g
       id="g4559"
       transform="matrix(0.67430045,0,0,-0.67430045,52.374853,194.15816)">
      <path
         d="m 0,0 2.358,5.588 -2.44,5.742 2.509,6.332 -8.769,3.343 L -2.49,10.894 -5.925,1.88 Z"
         style="fill:#63b181;fill-opacity:1;fill-rule:nonzero;stroke:none"
         id="path4561"
         inkscape:connector-curvature="0" />
    </g>
    <g
       id="g4563"
       transform="matrix(0.67430045,0,0,-0.67430045,54.270449,186.26399)">
      <path
         d="m 0,0 2.464,6.018 -1.507,-0.573 -1.341,0.51 -2.509,-6.333 2.44,-5.741 -2.358,-5.588 -5.925,1.88 -0.418,-1.097 0.744,-1.955 6.706,-2.128 4.451,8.544 z"
         style="fill:#fff87f;fill-opacity:1;fill-rule:nonzero;stroke:none"
         id="path4565"
         inkscape:connector-curvature="0" />
    </g>
    <g
       id="g4567"
       transform="matrix(0.67430045,0,0,-0.67430045,78.505887,190.13232)">
      <path
         d="m 0,0 c 0,-6.695 -5.447,-12.142 -12.142,-12.142 -6.696,0 -12.144,5.447 -12.144,12.142 0,6.695 5.448,12.143 12.144,12.143 C -5.446,12.143 0,6.696 0,0 m -12.142,17.17 c -9.468,0 -17.169,-7.702 -17.169,-17.169 0,-3.993 1.398,-7.867 3.942,-10.94 l -2.338,-2.339 -2.671,0.042 -14.581,-14.582 5.085,-5.085 14.582,14.581 -0.042,2.671 2.346,2.345 c 3.056,-2.492 6.898,-3.863 10.847,-3.863 9.467,0 17.169,7.702 17.169,17.169 -0.002,9.467 -7.703,17.17 -17.17,17.17 z"
         style="fill:#454646;fill-opacity:1;fill-rule:nonzero;stroke:none"
         id="path4569"
         inkscape:connector-curvature="0" />
    </g>
    <g
       id="g4571"
       transform="matrix(0.67430045,0,0,-0.67430045,90.633786,197.41571)">
      <path
         d="m 0,0 v -6.387 c 0,-2.417 1.073,-3.441 2.514,-3.441 1.6,0 2.625,1.057 2.625,3.441 V 0 h 1.408 v -6.29 c 0,-3.314 -1.744,-4.674 -4.081,-4.674 -2.209,0 -3.874,1.265 -3.874,4.61 V 0 Z"
         style="fill:#ffffff;fill-opacity:1;fill-rule:nonzero;stroke:none"
         id="path4573"
         inkscape:connector-curvature="0" />
    </g>
    <g
       id="g4575"
       transform="matrix(0.67430045,0,0,-0.67430045,96.67545,204.69012)">
      <path
         d="M 0,0 V 10.788 H 1.521 L 4.978,5.33 C 5.778,4.065 6.402,2.929 6.915,1.825 L 6.946,1.841 C 6.818,3.281 6.787,4.594 6.787,6.274 v 4.514 H 8.1 V 0 H 6.69 L 3.266,5.475 c -0.753,1.2 -1.473,2.432 -2.018,3.6 L 1.2,9.06 C 1.28,7.699 1.312,6.402 1.312,4.609 V 0 Z"
         style="fill:#ffffff;fill-opacity:1;fill-rule:nonzero;stroke:none"
         id="path4577"
         inkscape:connector-curvature="0" />
    </g>
    <path
       d="m 104.71318,204.69007 h -0.9393 v -7.27436 h 0.9393 z"
       style="fill:#ffffff;fill-opacity:1;fill-rule:nonzero;stroke:none;stroke-width:0.67430043"
       id="path4579"
       inkscape:connector-curvature="0" />
    <g
       id="g4581"
       transform="matrix(0.67430045,0,0,-0.67430045,107.73425,198.21442)">
      <path
         d="M 0,0 H -3.281 V 1.185 H 4.706 V 0 H 1.408 V -9.604 H 0 Z"
         style="fill:#ffffff;fill-opacity:1;fill-rule:nonzero;stroke:none"
         id="path4583"
         inkscape:connector-curvature="0" />
    </g>
    <g
       id="g4585"
       transform="matrix(0.67430045,0,0,-0.67430045,115.48149,201.27972)">
      <path
         d="M 0,0 H -4.193 V -3.889 H 0.48 V -5.058 H -5.586 V 5.73 H 0.24 V 4.562 H -4.193 V 1.153 H 0 Z"
         style="fill:#ffffff;fill-opacity:1;fill-rule:nonzero;stroke:none"
         id="path4587"
         inkscape:connector-curvature="0" />
    </g>
    <g
       id="g4589"
       transform="matrix(0.67430045,0,0,-0.67430045,117.96203,203.94536)">
      <path
         d="m 0,0 c 0.353,-0.064 0.864,-0.08 1.408,-0.08 2.978,0 4.594,1.665 4.594,4.578 C 6.019,7.043 4.578,8.659 1.633,8.659 0.912,8.659 0.368,8.596 0,8.516 Z M -1.393,9.54 C -0.544,9.668 0.464,9.764 1.568,9.764 3.569,9.764 4.994,9.3 5.938,8.419 6.898,7.539 7.459,6.29 7.459,4.546 7.459,2.785 6.914,1.345 5.906,0.353 4.897,-0.656 3.233,-1.2 1.137,-1.2 c -0.993,0 -1.825,0.048 -2.53,0.128 z"
         style="fill:#ffffff;fill-opacity:1;fill-rule:nonzero;stroke:none"
         id="path4591"
         inkscape:connector-curvature="0" />
    </g>
    <g
       id="g4593"
       transform="matrix(0.67430045,0,0,-0.67430045,126.49484,197.41571)">
      <path
         d="M 0,0 H 1.393 V -5.202 H 1.44 c 0.289,0.416 0.577,0.801 0.849,1.152 L 5.586,0 h 1.728 l -3.905,-4.577 4.21,-6.211 H 5.97 L 2.417,-5.49 1.393,-6.675 v -4.113 H 0 Z"
         style="fill:#ffffff;fill-opacity:1;fill-rule:nonzero;stroke:none"
         id="path4595"
         inkscape:connector-curvature="0" />
    </g>
    <path
       d="m 133.28127,204.69007 h -0.9393 v -7.27436 h 0.9393 z"
       style="fill:#ffffff;fill-opacity:1;fill-rule:nonzero;stroke:none;stroke-width:0.67430043"
       id="path4597"
       inkscape:connector-curvature="0" />
    <g
       id="g4599"
       transform="matrix(0.67430045,0,0,-0.67430045,134.92096,204.69012)">
      <path
         d="M 0,0 V 10.788 H 1.521 L 4.978,5.33 C 5.778,4.065 6.402,2.929 6.914,1.825 l 0.032,0.016 c -0.128,1.44 -0.16,2.753 -0.16,4.433 v 4.514 H 8.099 V 0 H 6.69 L 3.265,5.475 c -0.752,1.2 -1.473,2.432 -2.017,3.6 L 1.2,9.06 C 1.28,7.699 1.312,6.402 1.312,4.609 V 0 Z"
         style="fill:#ffffff;fill-opacity:1;fill-rule:nonzero;stroke:none"
         id="path4601"
         inkscape:connector-curvature="0" />
    </g>
    <g
       id="g4603"
       transform="matrix(0.67430045,0,0,-0.67430045,147.55689,204.36614)">
      <path
         d="m 0,0 c -0.624,-0.225 -1.856,-0.593 -3.313,-0.593 -1.633,0 -2.977,0.416 -4.034,1.425 -0.928,0.897 -1.505,2.337 -1.505,4.018 0.016,3.217 2.225,5.57 5.843,5.57 1.248,0 2.225,-0.273 2.689,-0.496 L -0.656,8.787 c -0.576,0.256 -1.297,0.465 -2.385,0.465 -2.625,0 -4.338,-1.633 -4.338,-4.338 0,-2.737 1.649,-4.354 4.162,-4.354 0.912,0 1.536,0.128 1.857,0.288 V 4.065 H -3.554 V 5.186 H 0 Z"
         style="fill:#ffffff;fill-opacity:1;fill-rule:nonzero;stroke:none"
         id="path4605"
         inkscape:connector-curvature="0" />
    </g>
    <g
       id="g4607"
       transform="matrix(0.67430045,0,0,-0.67430045,149.92873,203.94536)">
      <path
         d="m 0,0 c 0.352,-0.064 0.864,-0.08 1.408,-0.08 2.978,0 4.594,1.665 4.594,4.578 C 6.019,7.043 4.577,8.659 1.633,8.659 0.912,8.659 0.368,8.596 0,8.516 Z M -1.393,9.54 C -0.545,9.668 0.464,9.764 1.568,9.764 3.569,9.764 4.994,9.3 5.938,8.419 6.898,7.539 7.459,6.29 7.459,4.546 7.459,2.785 6.914,1.345 5.906,0.353 4.897,-0.656 3.233,-1.2 1.136,-1.2 c -0.992,0 -1.824,0.048 -2.529,0.128 z"
         style="fill:#ffffff;fill-opacity:1;fill-rule:nonzero;stroke:none"
         id="path4609"
         inkscape:connector-curvature="0" />
    </g>
    <g
       id="g4611"
       transform="matrix(0.67430045,0,0,-0.67430045,156.74686,201.09604)">
      <path
         d="m 0,0 c 0,-2.305 1.249,-4.37 3.441,-4.37 2.209,0 3.458,2.033 3.458,4.482 0,2.145 -1.121,4.386 -3.441,4.386 C 1.153,4.498 0,2.369 0,0 m 8.372,0.176 c 0,-3.713 -2.257,-5.682 -5.011,-5.682 -2.848,0 -4.849,2.209 -4.849,5.474 0,3.426 2.129,5.667 5.009,5.667 2.946,0 4.851,-2.258 4.851,-5.459"
         style="fill:#ffffff;fill-opacity:1;fill-rule:nonzero;stroke:none"
         id="path4613"
         inkscape:connector-curvature="0" />
    </g>
    <g
       id="g4615"
       transform="matrix(0.67430045,0,0,-0.67430045,169.73893,201.4951)">
      <path
         d="M 0,0 C -0.08,1.504 -0.177,3.313 -0.16,4.657 H -0.209 C -0.576,3.393 -1.024,2.049 -1.569,0.56 L -3.474,-4.674 H -4.53 L -6.275,0.464 C -6.787,1.984 -7.22,3.377 -7.523,4.657 H -7.556 C -7.588,3.313 -7.668,1.504 -7.764,-0.112 L -8.052,-4.738 H -9.38 L -8.628,6.05 h 1.776 l 1.841,-5.218 c 0.449,-1.328 0.817,-2.513 1.089,-3.634 h 0.048 c 0.272,1.089 0.656,2.274 1.137,3.634 L -0.816,6.05 H 0.96 L 1.632,-4.738 H 0.271 Z"
         style="fill:#ffffff;fill-opacity:1;fill-rule:nonzero;stroke:none"
         id="path4617"
         inkscape:connector-curvature="0" />
    </g>
    <g
       id="g4619"
       transform="matrix(0.67430045,0,0,-0.67430045,96.763042,186.62624)">
      <path
         d="m 0,0 c 0,2.53 -1.034,5.435 -4.026,5.435 -2.993,0 -4.027,-3.059 -4.027,-5.435 0,-2.508 1.034,-5.435 4.027,-5.435 C -1.056,-5.435 0,-2.354 0,0 m -10.781,0 c 0,3.807 1.804,7.965 6.755,7.965 4.972,0 6.755,-4.158 6.755,-7.965 0,-3.807 -1.783,-7.965 -6.755,-7.965 -4.951,0 -6.755,4.158 -6.755,7.965"
         style="fill:#454646;fill-opacity:1;fill-rule:nonzero;stroke:none"
         id="path4621"
         inkscape:connector-curvature="0" />
    </g>
    <g
       id="g4623"
       transform="matrix(0.67430045,0,0,-0.67430045,105.08512,188.03573)">
      <path
         d="m 0,0 c 0,2.046 -0.857,3.455 -2.442,3.455 -1.012,0 -1.716,-0.418 -2.178,-1.101 v -4.665 c 0.395,-0.571 1.143,-1.1 2.178,-1.1 C -0.88,-3.411 0,-2.2 0,0 m -4.62,-4.708 v -4.137 l -2.574,-1.189 V 5.633 H -4.62 V 4.775 c 0.55,0.66 1.364,1.122 2.574,1.122 2.794,0 4.62,-2.134 4.62,-5.897 0,-3.697 -1.914,-5.875 -4.642,-5.875 -1.21,0 -2.025,0.506 -2.552,1.167"
         style="fill:#454646;fill-opacity:1;fill-rule:nonzero;stroke:none"
         id="path4625"
         inkscape:connector-curvature="0" />
    </g>
    <g
       id="g4627"
       transform="matrix(0.67430045,0,0,-0.67430045,113.02137,187.24949)">
      <path
         d="M 0,0 C -0.11,1.716 -1.188,2.464 -2.354,2.464 -3.74,2.464 -4.841,1.76 -4.973,0 Z m -7.547,-1.144 c 0,3.674 2.046,5.875 5.193,5.875 2.707,0 4.907,-1.672 4.907,-5.281 0,-0.462 -0.023,-1.078 -0.088,-1.584 h -7.46 c 0.089,-1.651 1.299,-2.64 2.641,-2.64 0.99,0 1.782,0.374 2.376,1.166 L 1.65,-5.281 c -0.879,-1.056 -2.2,-1.76 -4.004,-1.76 -3.191,0 -5.193,2.201 -5.193,5.897"
         style="fill:#454646;fill-opacity:1;fill-rule:nonzero;stroke:none"
         id="path4629"
         inkscape:connector-curvature="0" />
    </g>
    <g
       id="g4631"
       transform="matrix(0.67430045,0,0,-0.67430045,120.83901,187.47207)">
      <path
         d="m 0,0 c 0,1.849 -0.792,2.619 -2.09,2.619 -1.387,0 -2.289,-0.726 -2.289,-2.575 V -6.447 H -6.953 V 4.797 h 2.574 V 3.741 c 0.727,0.88 1.694,1.32 2.971,1.32 2.135,0 3.982,-1.166 3.982,-4.599 V -6.447 H 0 Z"
         style="fill:#454646;fill-opacity:1;fill-rule:nonzero;stroke:none"
         id="path4633"
         inkscape:connector-curvature="0" />
    </g>
    <g
       id="g4635"
       transform="matrix(0.67430045,0,0,-0.67430045,123.90889,189.31157)">
      <path
         d="m 0,0 2.442,0.902 c 0.638,-1.408 1.87,-2.377 3.454,-2.377 1.585,0 2.641,0.726 2.641,2.135 0,1.474 -1.562,2.024 -3.301,2.618 -2.2,0.748 -4.664,1.606 -4.664,4.533 0,2.244 1.826,4.136 5.061,4.136 2.684,0 4.379,-1.408 4.929,-3.3 L 8.186,7.855 C 7.789,8.757 6.909,9.439 5.457,9.439 c -1.387,0 -2.2,-0.594 -2.2,-1.65 0,-1.122 1.342,-1.584 2.948,-2.112 2.244,-0.793 5.017,-1.76 5.017,-5.017 0,-2.971 -2.377,-4.643 -5.413,-4.643 C 2.971,-3.983 0.836,-2.442 0,0"
         style="fill:#454646;fill-opacity:1;fill-rule:nonzero;stroke:none"
         id="path4637"
         inkscape:connector-curvature="0" />
    </g>
    <g
       id="g4639"
       transform="matrix(0.67430045,0,0,-0.67430045,133.49205,190.05371)">
      <path
         d="M 0,0 V 6.381 H -1.672 V 8.625 H 0 v 3.411 l 2.574,1.232 V 8.625 H 5.171 V 6.381 H 2.574 V 0.506 c 0,-0.638 0.265,-1.078 0.947,-1.078 0.572,0 1.166,0.176 1.76,0.506 L 4.973,-2.376 C 4.335,-2.706 3.543,-2.882 2.619,-2.882 0.771,-2.882 0,-1.782 0,0"
         style="fill:#454646;fill-opacity:1;fill-rule:nonzero;stroke:none"
         id="path4641"
         inkscape:connector-curvature="0" />
    </g>
    <g
       id="g4643"
       transform="matrix(0.67430045,0,0,-0.67430045,138.38727,184.23752)">
      <path
         d="m 0,0 h 2.574 v -1.166 c 0.441,0.924 1.189,1.43 2.311,1.43 0.836,0 1.517,-0.286 2.09,-0.77 L 6.601,-2.86 c -0.462,0.33 -1.056,0.594 -1.914,0.594 -0.991,0 -2.113,-0.55 -2.113,-2.685 v -6.293 H 0 Z"
         style="fill:#454646;fill-opacity:1;fill-rule:nonzero;stroke:none"
         id="path4645"
         inkscape:connector-curvature="0" />
    </g>
    <g
       id="g4647"
       transform="matrix(0.67430045,0,0,-0.67430045,148.66841,187.24949)">
      <path
         d="M 0,0 C -0.11,1.716 -1.188,2.464 -2.354,2.464 -3.741,2.464 -4.841,1.76 -4.973,0 Z m -7.547,-1.144 c 0,3.674 2.046,5.875 5.193,5.875 2.706,0 4.906,-1.672 4.906,-5.281 0,-0.462 -0.022,-1.078 -0.088,-1.584 h -7.459 c 0.088,-1.651 1.299,-2.64 2.641,-2.64 0.99,0 1.782,0.374 2.375,1.166 L 1.65,-5.281 c -0.88,-1.056 -2.201,-1.76 -4.004,-1.76 -3.191,0 -5.193,2.201 -5.193,5.897"
         style="fill:#454646;fill-opacity:1;fill-rule:nonzero;stroke:none"
         id="path4649"
         inkscape:connector-curvature="0" />
    </g>
    <g
       id="g4651"
       transform="matrix(0.67430045,0,0,-0.67430045,156.51502,187.24949)">
      <path
         d="M 0,0 C -0.11,1.716 -1.188,2.464 -2.354,2.464 -3.741,2.464 -4.841,1.76 -4.973,0 Z m -7.547,-1.144 c 0,3.674 2.046,5.875 5.193,5.875 2.706,0 4.906,-1.672 4.906,-5.281 0,-0.462 -0.022,-1.078 -0.088,-1.584 h -7.459 c 0.088,-1.651 1.299,-2.64 2.641,-2.64 0.99,0 1.782,0.374 2.375,1.166 L 1.65,-5.281 c -0.88,-1.056 -2.201,-1.76 -4.004,-1.76 -3.191,0 -5.193,2.201 -5.193,5.897"
         style="fill:#454646;fill-opacity:1;fill-rule:nonzero;stroke:none"
         id="path4653"
         inkscape:connector-curvature="0" />
    </g>
    <g
       id="g4655"
       transform="matrix(0.67430045,0,0,-0.67430045,159.98533,190.05371)">
      <path
         d="M 0,0 V 6.381 H -1.672 V 8.625 H 0 v 3.411 l 2.574,1.232 V 8.625 H 5.171 V 6.381 H 2.574 V 0.506 c 0,-0.638 0.265,-1.078 0.947,-1.078 0.572,0 1.166,0.176 1.76,0.506 L 4.973,-2.376 C 4.335,-2.706 3.543,-2.882 2.619,-2.882 0.771,-2.882 0,-1.782 0,0"
         style="fill:#454646;fill-opacity:1;fill-rule:nonzero;stroke:none"
         id="path4657"
         inkscape:connector-curvature="0" />
    </g>
    <g
       id="g4659"
       transform="matrix(0.67430045,0,0,-0.67430045,172.6996,191.81916)">
      <path
         d="m 0,0 v 8.185 c 0,0.55 0.044,1.43 0.088,1.848 C -0.11,9.439 -0.396,8.691 -0.616,8.141 l -3.74,-8.405 -3.742,8.449 C -8.34,8.713 -8.625,9.439 -8.823,10.033 -8.779,9.615 -8.735,8.735 -8.735,8.185 V 0 h -2.641 v 15.402 h 2.662 l 3.961,-9.043 c 0.154,-0.374 0.308,-0.792 0.418,-1.144 0.11,0.352 0.265,0.77 0.418,1.144 l 3.982,9.043 H 2.641 V 0 Z"
         style="fill:#454646;fill-opacity:1;fill-rule:nonzero;stroke:none"
         id="path4661"
         inkscape:connector-curvature="0" />
    </g>
    <g
       id="g4663"
       transform="matrix(0.67430045,0,0,-0.67430045,180.7984,189.7419)">
      <path
         d="m 0,0 v 1.452 c -0.594,0.286 -1.408,0.462 -2.244,0.462 -1.277,0 -2.311,-0.44 -2.311,-1.518 0,-0.88 0.704,-1.474 2.047,-1.474 1.1,0 1.937,0.484 2.508,1.078 m 0,-2.178 c -0.55,-0.572 -1.496,-1.167 -2.992,-1.167 -2.311,0 -4.07,1.277 -4.07,3.741 0,2.596 2.178,3.718 4.4,3.718 1.057,0 1.958,-0.197 2.662,-0.593 v 0.593 c 0,1.475 -0.726,2.047 -2.2,2.047 -1.364,0 -2.399,-0.396 -3.344,-1.057 l -0.793,2.091 c 1.013,0.682 2.509,1.232 4.401,1.232 1.98,0 4.445,-0.484 4.445,-4.268 v -7.24 H 0 Z"
         style="fill:#454646;fill-opacity:1;fill-rule:nonzero;stroke:none"
         id="path4665"
         inkscape:connector-curvature="0" />
    </g>
    <g
       id="g4667"
       transform="matrix(0.67430045,0,0,-0.67430045,189.0474,188.03573)">
      <path
         d="m 0,0 c 0,2.046 -0.858,3.455 -2.442,3.455 -1.013,0 -1.717,-0.418 -2.179,-1.101 v -4.665 c 0.396,-0.571 1.144,-1.1 2.179,-1.1 C -0.881,-3.411 0,-2.2 0,0 m -4.621,-4.708 v -4.137 l -2.574,-1.189 V 5.633 h 2.574 V 4.775 c 0.55,0.66 1.364,1.122 2.574,1.122 2.795,0 4.621,-2.134 4.621,-5.897 0,-3.697 -1.914,-5.875 -4.642,-5.875 -1.211,0 -2.025,0.506 -2.553,1.167"
         style="fill:#454646;fill-opacity:1;fill-rule:nonzero;stroke:none"
         id="path4669"
         inkscape:connector-curvature="0" />
    </g>
  </g>
</svg>
