<?xml version="1.0" encoding="UTF-8" standalone="no"?>
<!-- Created with Inkscape (http://www.inkscape.org/) -->

<svg
   xmlns:dc="http://purl.org/dc/elements/1.1/"
   xmlns:cc="http://creativecommons.org/ns#"
   xmlns:rdf="http://www.w3.org/1999/02/22-rdf-syntax-ns#"
   xmlns:svg="http://www.w3.org/2000/svg"
   xmlns="http://www.w3.org/2000/svg"
   xmlns:sodipodi="http://sodipodi.sourceforge.net/DTD/sodipodi-0.dtd"
   xmlns:inkscape="http://www.inkscape.org/namespaces/inkscape"
   width="142.814mm"
   height="33.794048mm"
   viewBox="0 0 142.814 33.794048"
   version="1.1"
   id="svg5194"
   sodipodi:docname="horizontal white.svg"
   inkscape:export-filename="/home/anxhelo/Documents/ura works folder/OSM UK/horizontal color.png"
   inkscape:export-xdpi="141.06"
   inkscape:export-ydpi="141.06"
   inkscape:version="0.92.1 r">
  <defs
     id="defs5188" />
  <sodipodi:namedview
     id="base"
     pagecolor="#ffffff"
     bordercolor="#666666"
     borderopacity="1.0"
     inkscape:pageopacity="0.0"
     inkscape:pageshadow="2"
     inkscape:zoom="0.98994949"
     inkscape:cx="191.50388"
     inkscape:cy="132.73153"
     inkscape:document-units="mm"
     inkscape:current-layer="layer1"
     showgrid="false"
     fit-margin-top="0"
     fit-margin-left="0"
     fit-margin-right="0"
     fit-margin-bottom="0"
     inkscape:window-width="1366"
     inkscape:window-height="740"
     inkscape:window-x="0"
     inkscape:window-y="0"
     inkscape:window-maximized="1" />
  <metadata
     id="metadata5191">
    <rdf:RDF>
      <cc:Work
         rdf:about="">
        <dc:format>image/svg+xml</dc:format>
        <dc:type
           rdf:resource="http://purl.org/dc/dcmitype/StillImage" />
        <dc:title></dc:title>
      </cc:Work>
    </rdf:RDF>
  </metadata>
  <g
     inkscape:label="Layer 1"
     inkscape:groupmode="layer"
     id="layer1"
     transform="translate(-48.104595,-215.5958)">
    <g
       id="g6274"
       transform="matrix(1.4627389,0,0,1.4627389,-15.921627,-49.185205)"
       style="fill:#ffffff">
      <path
         style="fill:#ffffff;fill-opacity:1;fill-rule:nonzero;stroke:none;stroke-width:2.55083728"
         d="M 148.25781 63.759766 L 148.25781 107.22656 L 474.89648 107.22656 L 474.89648 63.759766 L 148.25781 63.759766 z M 419.99414 70.896484 C 427.50891 70.896484 432.36719 76.657035 432.36719 84.822266 C 432.36719 94.293524 426.61094 99.316406 419.58594 99.316406 C 412.32115 99.316406 407.2168 93.681999 407.2168 85.353516 C 407.2168 76.614347 412.64773 70.896484 419.99414 70.896484 z M 368.57227 71.0625 C 371.75571 71.0625 374.24805 71.757335 375.43164 72.326172 L 374.57422 75.226562 C 373.10494 74.573551 371.26555 74.041016 368.49023 74.041016 C 361.79429 74.041016 357.42383 78.207407 357.42383 85.107422 C 357.42383 92.089064 361.63076 96.212891 368.04102 96.212891 C 370.36738 96.212891 371.95852 95.88665 372.77734 95.478516 L 372.77734 87.271484 L 367.18164 87.271484 L 367.18164 84.412109 L 376.24805 84.412109 L 376.24805 97.640625 C 374.65632 98.214563 371.51342 99.154297 367.79688 99.154297 C 363.63136 99.154297 360.20209 98.093326 357.50586 95.519531 C 355.13868 93.23143 353.66797 89.557489 353.66797 85.269531 C 353.70878 77.063487 359.34334 71.0625 368.57227 71.0625 z M 268.29102 71.142578 C 273.39524 71.142578 277.03146 72.326931 279.43945 74.574219 C 281.88826 76.818956 283.31836 80.004464 283.31836 84.453125 C 283.31836 88.94515 281.92867 92.618007 279.35742 95.148438 C 276.78363 97.722225 272.53796 99.111328 267.19141 99.111328 C 264.65842 99.111328 262.53662 98.989223 260.73828 98.785156 L 260.73828 71.714844 C 262.90394 71.388337 265.47489 71.142578 268.29102 71.142578 z M 389.2207 71.142578 C 394.32493 71.142578 397.9592 72.326931 400.36719 74.574219 C 402.81599 76.818956 404.24609 80.004464 404.24609 84.453125 C 404.24609 88.94515 402.8564 92.618007 400.28516 95.148438 C 397.71136 97.72223 393.46629 99.111328 388.11719 99.111328 C 385.58676 99.111328 383.46436 98.989223 381.66602 98.785156 L 381.66602 71.714844 C 383.82913 71.388337 386.40458 71.142578 389.2207 71.142578 z M 157.31836 71.347656 L 160.91016 71.347656 L 160.91016 87.640625 C 160.91016 93.805999 163.64846 96.417969 167.32422 96.417969 C 171.40556 96.417969 174.01953 93.721821 174.01953 87.640625 L 174.01953 71.347656 L 177.61133 71.347656 L 177.61133 87.392578 C 177.61133 95.846053 173.16248 99.316406 167.20117 99.316406 C 161.56637 99.316406 157.31836 96.08918 157.31836 87.556641 L 157.31836 71.347656 z M 210.61914 71.347656 L 214.17188 71.347656 L 214.17188 98.867188 L 210.61914 98.867188 L 210.61914 71.347656 z M 217.23242 71.347656 L 237.60547 71.347656 L 237.60547 74.371094 L 229.19336 74.371094 L 229.19336 98.869141 L 225.60156 98.869141 L 225.60156 74.371094 L 217.23242 74.371094 L 217.23242 71.347656 z M 296.57031 71.347656 L 300.125 71.347656 L 300.125 84.617188 L 300.24414 84.617188 C 300.98133 83.556039 301.71633 82.575025 302.41016 81.679688 L 310.82031 71.347656 L 315.22852 71.347656 L 305.26758 83.023438 L 316.00586 98.867188 L 311.79883 98.867188 L 302.73633 85.353516 L 300.125 88.375 L 300.125 98.867188 L 296.57031 98.867188 L 296.57031 71.347656 z M 318.68945 71.347656 L 322.24414 71.347656 L 322.24414 98.867188 L 318.68945 98.867188 L 318.68945 71.347656 z M 438.15234 71.347656 L 442.68164 71.347656 L 447.37891 84.658203 C 448.52423 88.045715 449.46242 91.068246 450.15625 93.927734 L 450.2793 93.927734 C 450.97312 91.149872 451.95273 88.127342 453.17969 84.658203 L 458.08008 71.347656 L 462.60938 71.347656 L 464.32422 98.867188 L 460.85156 98.867188 L 460.16016 86.78125 C 459.95609 82.94479 459.70859 78.328716 459.75195 74.900391 L 459.62695 74.900391 C 458.6908 78.124649 457.54841 81.553366 456.1582 85.351562 L 451.29883 98.703125 L 448.60547 98.703125 L 444.1543 85.597656 C 442.84827 81.720383 441.74361 78.165463 440.9707 74.900391 L 440.88672 74.900391 C 440.80509 78.328716 440.60035 82.944253 440.35547 87.066406 L 439.62109 98.867188 L 436.23438 98.867188 L 438.15234 71.347656 z M 183.76562 71.349609 L 187.64648 71.349609 L 196.46484 85.271484 C 198.50551 88.498294 200.09572 91.394813 201.4043 94.210938 L 201.48438 94.171875 C 201.15787 90.498669 201.07813 87.148688 201.07812 82.863281 L 201.07812 71.349609 L 204.42773 71.349609 L 204.42773 98.867188 L 200.83203 98.867188 L 192.09766 84.900391 C 190.17688 81.839386 188.33943 78.698128 186.94922 75.71875 L 186.82617 75.755859 C 187.03024 79.227549 187.11328 82.535723 187.11328 87.109375 L 187.11328 98.867188 L 183.76562 98.867188 L 183.76562 71.349609 z M 240.66016 71.349609 L 255.51953 71.349609 L 255.51953 74.330078 L 244.21289 74.330078 L 244.21289 83.025391 L 254.9082 83.025391 L 254.9082 85.966797 L 244.21289 85.966797 L 244.21289 95.886719 L 256.13281 95.886719 L 256.13281 98.867188 L 240.66016 98.867188 L 240.66016 71.349609 z M 328.44727 71.349609 L 332.32617 71.349609 L 341.14453 85.271484 C 343.1852 88.498294 344.77796 91.394813 346.08398 94.210938 L 346.16406 94.171875 C 345.83756 90.498669 345.75586 87.148688 345.75586 82.863281 L 345.75586 71.349609 L 349.10547 71.349609 L 349.10547 98.867188 L 345.51172 98.867188 L 336.77539 84.900391 C 334.85716 81.839386 333.01851 78.698128 331.63086 75.71875 L 331.50781 75.755859 C 331.71188 79.227549 331.79297 82.535723 331.79297 87.109375 L 331.79297 98.867188 L 328.44727 98.867188 L 328.44727 71.349609 z M 419.83398 73.796875 C 413.9543 73.796875 411.01172 79.22855 411.01172 85.271484 C 411.01172 91.151165 414.19763 96.417969 419.78906 96.417969 C 425.42386 96.417969 428.61133 91.231376 428.61133 84.984375 C 428.61133 79.512829 425.75193 73.796875 419.83398 73.796875 z M 268.45703 73.962891 C 266.61788 73.962891 265.22972 74.122105 264.29102 74.326172 L 264.29102 96.048828 C 265.19146 96.212082 266.49516 96.253906 267.88281 96.253906 C 275.47921 96.253906 279.60156 92.006761 279.60156 84.576172 C 279.64493 78.084291 275.96925 73.962891 268.45703 73.962891 z M 389.38477 73.962891 C 387.54561 73.962891 386.15941 74.122105 385.2207 74.326172 L 385.2207 96.048828 C 386.1186 96.212082 387.42484 96.253906 388.8125 96.253906 C 396.40889 96.253906 400.5293 92.006761 400.5293 84.576172 C 400.57266 78.084291 396.89443 73.962891 389.38477 73.962891 z "
         transform="matrix(0.18088213,0,0,0.18088213,43.771463,181.01727)"
         id="path4839" />
      <g
         transform="matrix(0.46140092,0,0,-0.46140092,52.923997,201.5181)"
         id="g4841"
         style="fill:#ffffff">
        <path
           inkscape:connector-curvature="0"
           id="path4843"
           style="fill:#ffffff;fill-opacity:1;fill-rule:nonzero;stroke:none"
           d="m 0,0 11.311,-3.614 4.9,0.127 -1.642,5.171 -9.363,-0.979 -6.892,3.046 -5.01,-5.009 z" />
      </g>
      <g
         transform="matrix(0.46140092,0,0,-0.46140092,58.976839,198.01436)"
         id="g4845"
         style="fill:#ffffff">
        <path
           inkscape:connector-curvature="0"
           id="path4847"
           style="fill:#ffffff;fill-opacity:1;fill-rule:nonzero;stroke:none"
           d="m 0,0 c -3.753,0 -7.436,1.086 -10.582,3.092 l -0.095,-0.094 0.026,-1.613 0.016,-1.058 -0.748,-0.748 -0.679,-0.679 4.598,-2.2 12.503,1.588 v 0 l 2.287,-9.305 5.192,0.15 -3.597,8.655 1.016,4.935 C 7.016,1.004 3.627,0 0,0" />
      </g>
      <g
         transform="matrix(0.46140092,0,0,-0.46140092,50.091685,193.88533)"
         id="g4849"
         style="fill:#ffffff">
        <path
           inkscape:connector-curvature="0"
           id="path4851"
           style="fill:#ffffff;fill-opacity:1;fill-rule:nonzero;stroke:none"
           d="m 0,0 1.058,-0.016 1.613,-0.026 0.077,0.077 c -2.051,3.169 -3.161,6.888 -3.161,10.686 0,6.018 2.723,11.406 6.994,15.017 L 6.539,25.754 -2.08,22.475 -4.544,16.457 -1.797,9.994 -6.248,1.45 l -6.705,2.128 4.406,-8.053 -1.856,-5.929 9.655,9.656 z" />
      </g>
      <g
         transform="matrix(0.46140092,0,0,-0.46140092,43.964329,190.82652)"
         id="g4853"
         style="fill:#ffffff">
        <path
           inkscape:connector-curvature="0"
           id="path4855"
           style="fill:#ffffff;fill-opacity:1;fill-rule:nonzero;stroke:none"
           d="M 0,0 5.925,-1.88 8.283,3.708 5.843,9.45 8.352,15.782 -0.418,19.125 3.435,9.014 Z" />
      </g>
      <g
         transform="matrix(0.46140092,0,0,-0.46140092,58.976147,183.33627)"
         id="g4857"
         style="fill:#ffffff">
        <path
           inkscape:connector-curvature="0"
           id="path4859"
           style="fill:#ffffff;fill-opacity:1;fill-rule:nonzero;stroke:none"
           d="m 0,0 c 6.696,0 12.142,-5.447 12.142,-12.143 0,-6.695 -5.447,-12.143 -12.142,-12.143 -6.695,0 -12.143,5.448 -12.143,12.143 C -12.143,-5.448 -6.696,0 0,0 m -13.15,-30.466 -0.041,2.672 2.345,2.345 c 3.056,-2.493 6.899,-3.863 10.848,-3.863 9.466,0 17.168,7.702 17.168,17.169 C 17.169,-2.676 9.467,5.026 0,5.026 c -9.467,0 -17.169,-7.701 -17.169,-17.168 0,-3.993 1.399,-7.867 3.943,-10.94 l -2.339,-2.339 -2.671,0.042 -14.581,-14.582 5.086,-5.085 z" />
      </g>
      <g
         transform="matrix(0.46140092,0,0,-0.46140092,72.877369,193.92294)"
         id="g4861"
         style="fill:#ffffff" />
      <g
         transform="matrix(0.46140092,0,0,-0.46140092,77.011474,198.90057)"
         id="g4865"
         style="fill:#ffffff" />
      <g
         transform="matrix(0.46140092,0,0,-0.46140092,84.578633,194.46951)"
         id="g4871"
         style="fill:#ffffff" />
      <g
         transform="matrix(0.46140092,0,0,-0.46140092,89.879808,196.56699)"
         id="g4875"
         style="fill:#ffffff" />
      <g
         transform="matrix(0.46140092,0,0,-0.46140092,91.577162,198.39096)"
         id="g4879"
         style="fill:#ffffff" />
      <g
         transform="matrix(0.46140092,0,0,-0.46140092,97.415865,193.92294)"
         id="g4883"
         style="fill:#ffffff" />
      <g
         transform="matrix(0.46140092,0,0,-0.46140092,103.18158,198.90057)"
         id="g4889"
         style="fill:#ffffff" />
      <g
         transform="matrix(0.46140092,0,0,-0.46140092,111.82787,198.67887)"
         id="g4893"
         style="fill:#ffffff" />
      <g
         transform="matrix(0.46140092,0,0,-0.46140092,113.45089,198.39096)"
         id="g4897"
         style="fill:#ffffff" />
      <g
         transform="matrix(0.46140092,0,0,-0.46140092,118.11629,196.44126)"
         id="g4901"
         style="fill:#ffffff" />
      <g
         transform="matrix(0.46140092,0,0,-0.46140092,127.00634,196.71431)"
         id="g4905"
         style="fill:#ffffff" />
      <g
         transform="matrix(0.46140092,0,0,-0.46140092,77.07141,186.54006)"
         id="g4909"
         style="fill:#ffffff">
        <path
           inkscape:connector-curvature="0"
           id="path4911"
           style="fill:#ffffff;fill-opacity:1;fill-rule:nonzero;stroke:none"
           d="m 0,0 c 0,2.53 -1.034,5.435 -4.026,5.435 -2.993,0 -4.027,-3.059 -4.027,-5.435 0,-2.508 1.034,-5.435 4.027,-5.435 C -1.056,-5.435 0,-2.354 0,0 m -10.781,0 c 0,3.807 1.804,7.965 6.755,7.965 4.972,0 6.755,-4.158 6.755,-7.965 0,-3.807 -1.783,-7.965 -6.755,-7.965 -4.951,0 -6.755,4.158 -6.755,7.965" />
      </g>
      <g
         transform="matrix(0.46140092,0,0,-0.46140092,82.76593,187.50457)"
         id="g4913"
         style="fill:#ffffff">
        <path
           inkscape:connector-curvature="0"
           id="path4915"
           style="fill:#ffffff;fill-opacity:1;fill-rule:nonzero;stroke:none"
           d="m 0,0 c 0,2.046 -0.857,3.455 -2.442,3.455 -1.012,0 -1.716,-0.418 -2.178,-1.101 v -4.665 c 0.395,-0.571 1.143,-1.1 2.178,-1.1 C -0.88,-3.411 0,-2.2 0,0 m -4.62,-4.708 v -4.137 l -2.574,-1.189 V 5.633 H -4.62 V 4.775 c 0.55,0.66 1.364,1.122 2.574,1.122 2.794,0 4.62,-2.134 4.62,-5.897 0,-3.697 -1.914,-5.875 -4.642,-5.875 -1.21,0 -2.025,0.506 -2.552,1.167" />
      </g>
      <g
         transform="matrix(0.46140092,0,0,-0.46140092,88.196434,186.96653)"
         id="g4917"
         style="fill:#ffffff">
        <path
           inkscape:connector-curvature="0"
           id="path4919"
           style="fill:#ffffff;fill-opacity:1;fill-rule:nonzero;stroke:none"
           d="M 0,0 C -0.11,1.716 -1.188,2.464 -2.354,2.464 -3.74,2.464 -4.841,1.76 -4.973,0 Z m -7.547,-1.144 c 0,3.674 2.046,5.875 5.193,5.875 2.707,0 4.907,-1.672 4.907,-5.281 0,-0.462 -0.023,-1.078 -0.088,-1.584 h -7.46 c 0.089,-1.651 1.299,-2.64 2.641,-2.64 0.99,0 1.782,0.374 2.376,1.166 L 1.65,-5.281 c -0.879,-1.056 -2.2,-1.76 -4.004,-1.76 -3.191,0 -5.193,2.201 -5.193,5.897" />
      </g>
      <g
         transform="matrix(0.46140092,0,0,-0.46140092,93.545776,187.11883)"
         id="g4921"
         style="fill:#ffffff">
        <path
           inkscape:connector-curvature="0"
           id="path4923"
           style="fill:#ffffff;fill-opacity:1;fill-rule:nonzero;stroke:none"
           d="m 0,0 c 0,1.849 -0.792,2.619 -2.09,2.619 -1.387,0 -2.289,-0.726 -2.289,-2.575 V -6.447 H -6.953 V 4.797 h 2.574 V 3.741 c 0.727,0.88 1.694,1.32 2.971,1.32 2.135,0 3.982,-1.166 3.982,-4.599 V -6.447 H 0 Z" />
      </g>
      <g
         transform="matrix(0.46140092,0,0,-0.46140092,95.646396,188.37754)"
         id="g4925"
         style="fill:#ffffff">
        <path
           inkscape:connector-curvature="0"
           id="path4927"
           style="fill:#ffffff;fill-opacity:1;fill-rule:nonzero;stroke:none"
           d="m 0,0 2.442,0.902 c 0.638,-1.408 1.87,-2.377 3.454,-2.377 1.585,0 2.641,0.726 2.641,2.135 0,1.474 -1.562,2.024 -3.301,2.618 -2.2,0.748 -4.664,1.606 -4.664,4.533 0,2.244 1.826,4.136 5.061,4.136 2.684,0 4.379,-1.408 4.929,-3.3 L 8.186,7.855 C 7.789,8.757 6.909,9.439 5.457,9.439 c -1.387,0 -2.2,-0.594 -2.2,-1.65 0,-1.122 1.342,-1.584 2.948,-2.112 2.244,-0.793 5.017,-1.76 5.017,-5.017 0,-2.971 -2.377,-4.643 -5.413,-4.643 C 2.971,-3.983 0.836,-2.442 0,0" />
      </g>
      <g
         transform="matrix(0.46140092,0,0,-0.46140092,102.20378,188.88536)"
         id="g4929"
         style="fill:#ffffff">
        <path
           inkscape:connector-curvature="0"
           id="path4931"
           style="fill:#ffffff;fill-opacity:1;fill-rule:nonzero;stroke:none"
           d="M 0,0 V 6.381 H -1.672 V 8.625 H 0 v 3.411 l 2.574,1.232 V 8.625 H 5.171 V 6.381 H 2.574 V 0.506 c 0,-0.638 0.265,-1.078 0.947,-1.078 0.572,0 1.166,0.176 1.76,0.506 L 4.973,-2.376 C 4.335,-2.706 3.543,-2.882 2.619,-2.882 0.771,-2.882 0,-1.782 0,0" />
      </g>
      <g
         transform="matrix(0.46140092,0,0,-0.46140092,105.55346,184.90554)"
         id="g4933"
         style="fill:#ffffff">
        <path
           inkscape:connector-curvature="0"
           id="path4935"
           style="fill:#ffffff;fill-opacity:1;fill-rule:nonzero;stroke:none"
           d="m 0,0 h 2.574 v -1.166 c 0.441,0.924 1.189,1.43 2.311,1.43 0.836,0 1.517,-0.286 2.09,-0.77 L 6.601,-2.86 c -0.462,0.33 -1.056,0.594 -1.914,0.594 -0.991,0 -2.113,-0.55 -2.113,-2.685 v -6.293 H 0 Z" />
      </g>
      <g
         transform="matrix(0.46140092,0,0,-0.46140092,112.58849,186.96653)"
         id="g4937"
         style="fill:#ffffff">
        <path
           inkscape:connector-curvature="0"
           id="path4939"
           style="fill:#ffffff;fill-opacity:1;fill-rule:nonzero;stroke:none"
           d="M 0,0 C -0.11,1.716 -1.188,2.464 -2.354,2.464 -3.741,2.464 -4.841,1.76 -4.973,0 Z m -7.547,-1.144 c 0,3.674 2.046,5.875 5.193,5.875 2.706,0 4.906,-1.672 4.906,-5.281 0,-0.462 -0.022,-1.078 -0.088,-1.584 h -7.459 c 0.088,-1.651 1.299,-2.64 2.641,-2.64 0.99,0 1.782,0.374 2.375,1.166 L 1.65,-5.281 c -0.88,-1.056 -2.201,-1.76 -4.004,-1.76 -3.191,0 -5.193,2.201 -5.193,5.897" />
      </g>
      <g
         transform="matrix(0.46140092,0,0,-0.46140092,117.95767,186.96653)"
         id="g4941"
         style="fill:#ffffff">
        <path
           inkscape:connector-curvature="0"
           id="path4943"
           style="fill:#ffffff;fill-opacity:1;fill-rule:nonzero;stroke:none"
           d="M 0,0 C -0.11,1.716 -1.188,2.464 -2.354,2.464 -3.741,2.464 -4.841,1.76 -4.973,0 Z m -7.547,-1.144 c 0,3.674 2.046,5.875 5.193,5.875 2.706,0 4.906,-1.672 4.906,-5.281 0,-0.462 -0.022,-1.078 -0.088,-1.584 h -7.459 c 0.088,-1.651 1.299,-2.64 2.641,-2.64 0.99,0 1.782,0.374 2.375,1.166 L 1.65,-5.281 c -0.88,-1.056 -2.201,-1.76 -4.004,-1.76 -3.191,0 -5.193,2.201 -5.193,5.897" />
      </g>
      <g
         transform="matrix(0.46140092,0,0,-0.46140092,120.33227,188.88536)"
         id="g4945"
         style="fill:#ffffff">
        <path
           inkscape:connector-curvature="0"
           id="path4947"
           style="fill:#ffffff;fill-opacity:1;fill-rule:nonzero;stroke:none"
           d="M 0,0 V 6.381 H -1.672 V 8.625 H 0 v 3.411 l 2.574,1.232 V 8.625 H 5.171 V 6.381 H 2.574 V 0.506 c 0,-0.638 0.265,-1.078 0.947,-1.078 0.572,0 1.166,0.176 1.76,0.506 L 4.973,-2.376 C 4.335,-2.706 3.543,-2.882 2.619,-2.882 0.771,-2.882 0,-1.782 0,0" />
      </g>
      <g
         transform="matrix(0.46140092,0,0,-0.46140092,129.03221,190.09339)"
         id="g4949"
         style="fill:#ffffff">
        <path
           inkscape:connector-curvature="0"
           id="path4951"
           style="fill:#ffffff;fill-opacity:1;fill-rule:nonzero;stroke:none"
           d="m 0,0 v 8.185 c 0,0.55 0.044,1.43 0.088,1.848 C -0.11,9.439 -0.396,8.691 -0.616,8.141 l -3.74,-8.405 -3.742,8.449 C -8.34,8.713 -8.625,9.439 -8.823,10.033 -8.779,9.615 -8.735,8.735 -8.735,8.185 V 0 h -2.641 v 15.402 h 2.662 l 3.961,-9.043 c 0.154,-0.374 0.308,-0.792 0.418,-1.144 0.11,0.352 0.265,0.77 0.418,1.144 l 3.982,9.043 H 2.641 V 0 Z" />
      </g>
      <g
         transform="matrix(0.46140092,0,0,-0.46140092,134.57396,188.672)"
         id="g4953"
         style="fill:#ffffff">
        <path
           inkscape:connector-curvature="0"
           id="path4955"
           style="fill:#ffffff;fill-opacity:1;fill-rule:nonzero;stroke:none"
           d="m 0,0 v 1.452 c -0.594,0.286 -1.408,0.462 -2.244,0.462 -1.277,0 -2.311,-0.44 -2.311,-1.518 0,-0.88 0.704,-1.474 2.047,-1.474 1.1,0 1.937,0.484 2.508,1.078 m 0,-2.178 c -0.55,-0.572 -1.496,-1.167 -2.992,-1.167 -2.311,0 -4.07,1.277 -4.07,3.741 0,2.596 2.178,3.718 4.4,3.718 1.057,0 1.958,-0.197 2.662,-0.593 v 0.593 c 0,1.475 -0.726,2.047 -2.2,2.047 -1.364,0 -2.399,-0.396 -3.344,-1.057 l -0.793,2.091 c 1.013,0.682 2.509,1.232 4.401,1.232 1.98,0 4.445,-0.484 4.445,-4.268 v -7.24 H 0 Z" />
      </g>
      <g
         transform="matrix(0.46140092,0,0,-0.46140092,140.21846,187.50457)"
         id="g4957"
         style="fill:#ffffff">
        <path
           inkscape:connector-curvature="0"
           id="path4959"
           style="fill:#ffffff;fill-opacity:1;fill-rule:nonzero;stroke:none"
           d="m 0,0 c 0,2.046 -0.858,3.455 -2.442,3.455 -1.013,0 -1.717,-0.418 -2.179,-1.101 v -4.665 c 0.396,-0.571 1.144,-1.1 2.179,-1.1 C -0.881,-3.411 0,-2.2 0,0 m -4.621,-4.708 v -4.137 l -2.574,-1.189 V 5.633 h 2.574 V 4.775 c 0.55,0.66 1.364,1.122 2.574,1.122 2.795,0 4.621,-2.134 4.621,-5.897 0,-3.697 -1.914,-5.875 -4.642,-5.875 -1.211,0 -2.025,0.506 -2.553,1.167" />
      </g>
    </g>
  </g>
</svg>
