<?xml version="1.0" encoding="UTF-8" standalone="no"?>
<!-- Created with Inkscape (http://www.inkscape.org/) -->

<svg
   xmlns:dc="http://purl.org/dc/elements/1.1/"
   xmlns:cc="http://creativecommons.org/ns#"
   xmlns:rdf="http://www.w3.org/1999/02/22-rdf-syntax-ns#"
   xmlns:svg="http://www.w3.org/2000/svg"
   xmlns="http://www.w3.org/2000/svg"
   xmlns:sodipodi="http://sodipodi.sourceforge.net/DTD/sodipodi-0.dtd"
   xmlns:inkscape="http://www.inkscape.org/namespaces/inkscape"
   width="29.992489mm"
   height="31.79871mm"
   viewBox="0 0 29.992489 31.79871"
   version="1.1"
   id="svg5194"
   sodipodi:docname="icon white.svg"
   inkscape:export-filename="/home/anxhelo/Documents/ura works folder/OSM UK/icon black.png"
   inkscape:export-xdpi="141.06"
   inkscape:export-ydpi="141.06"
   inkscape:version="0.92.1 r">
  <defs
     id="defs5188" />
  <sodipodi:namedview
     id="base"
     pagecolor="#ffffff"
     bordercolor="#666666"
     borderopacity="1.0"
     inkscape:pageopacity="0.0"
     inkscape:pageshadow="2"
     inkscape:zoom="3.959798"
     inkscape:cx="72.409339"
     inkscape:cy="52.763876"
     inkscape:document-units="mm"
     inkscape:current-layer="layer1"
     showgrid="false"
     fit-margin-top="0"
     fit-margin-left="0"
     fit-margin-right="0"
     fit-margin-bottom="0"
     inkscape:window-width="1366"
     inkscape:window-height="740"
     inkscape:window-x="0"
     inkscape:window-y="0"
     inkscape:window-maximized="1" />
  <metadata
     id="metadata5191">
    <rdf:RDF>
      <cc:Work
         rdf:about="">
        <dc:format>image/svg+xml</dc:format>
        <dc:type
           rdf:resource="http://purl.org/dc/dcmitype/StillImage" />
        <dc:title></dc:title>
      </cc:Work>
    </rdf:RDF>
  </metadata>
  <g
     inkscape:label="Layer 1"
     inkscape:groupmode="layer"
     id="layer1"
     transform="translate(-131.9275,-292.39952)">
    <g
       id="g7050"
       transform="matrix(1.7879684,0,0,1.7879684,-46.306802,-100.40315)"
       style="fill:#ffffff">
      <g
         transform="matrix(0.35277777,0,0,-0.35277777,105.75941,233.30672)"
         id="g5083"
         style="fill:#ffffff">
        <path
           inkscape:connector-curvature="0"
           id="path5085"
           style="fill:#ffffff;fill-opacity:1;fill-rule:nonzero;stroke:none"
           d="M 0,0 -4.752,-4.752 1.6,-3.558 5.616,-4.842 v 2.36 z" />
      </g>
      <g
         transform="matrix(0.35277777,0,0,-0.35277777,107.74071,231.8006)"
         id="g5087"
         style="fill:#ffffff">
        <path
           inkscape:connector-curvature="0"
           id="path5089"
           style="fill:#ffffff;fill-opacity:1;fill-rule:nonzero;stroke:none"
           d="M 0,0 H 2 3.7 C 1.826,0.493 0.029,1.264 -1.611,2.31 L -1.7,2.22 -1.676,0.69 -1.66,-0.314 -2.37,-1.024 -3.014,-1.668 0,-3.11 V -2 Z" />
      </g>
      <g
         transform="matrix(0.35277777,0,0,-0.35277777,102.1785,228.54041)"
         id="g5091"
         style="fill:#ffffff">
        <path
           inkscape:connector-curvature="0"
           id="path5093"
           style="fill:#ffffff;fill-opacity:1;fill-rule:nonzero;stroke:none"
           d="m 0,0 -6.361,2.019 4.18,-7.64 -1.761,-5.625 9.159,9.16 0.71,0.71 1.004,-0.015 1.53,-0.024 0.073,0.072 C 6.588,1.664 5.535,5.192 5.535,8.795 c 0,5.709 2.583,10.82 6.636,14.246 L 12.13,23.056 3.954,19.946 1.617,14.237 4.223,8.105 Z" />
      </g>
      <g
         transform="matrix(0.35277777,0,0,-0.35277777,99.825078,226.8071)"
         id="g5095"
         style="fill:#ffffff">
        <path
           inkscape:connector-curvature="0"
           id="path5097"
           style="fill:#ffffff;fill-opacity:1;fill-rule:nonzero;stroke:none"
           d="m 0,0 5.621,-1.783 2.237,5.301 -2.315,5.447 2.38,6.007 -8.319,3.171 3.655,-9.591 z" />
      </g>
      <g
         transform="matrix(0.35277777,0,0,-0.35277777,110.7136,221.37422)"
         id="g5099"
         style="fill:#ffffff">
        <path
           inkscape:connector-curvature="0"
           id="path5101"
           style="fill:#ffffff;fill-opacity:1;fill-rule:nonzero;stroke:none"
           d="m 0,0 c 6.352,0 11.519,-5.168 11.519,-11.52 0,-6.351 -5.167,-11.519 -11.519,-11.519 -6.352,0 -11.52,5.168 -11.52,11.519 C -11.52,-5.168 -6.352,0 0,0 m -12.514,-26.368 2.225,2.226 c 2.899,-2.365 6.544,-3.665 10.29,-3.665 8.981,0 16.288,7.306 16.288,16.287 C 16.287,-2.539 8.981,4.768 0,4.768 c -8.981,0 -16.287,-7.306 -16.287,-16.287 0,-3.788 1.326,-7.463 3.74,-10.378 l -2.219,-2.219 -2.534,0.04 -13.832,-13.833 4.824,-4.825 13.833,13.832 z" />
      </g>
      <g
         transform="matrix(0.35277777,0,0,-0.35277777,114.6373,233.37702)"
         id="g5103"
         style="fill:#ffffff">
        <path
           style="fill:#ffffff;fill-opacity:1;fill-rule:nonzero;stroke:none;stroke-width:2.38395786"
           d="M 59.205078 86.59375 L 59.205078 120.18359 L 106.21875 120.18359 L 106.21875 86.59375 L 59.205078 86.59375 z M 66.197266 92.478516 L 66.199219 92.478516 L 68.970703 92.478516 L 68.972656 92.478516 L 68.972656 105.05469 C 68.972656 105.35209 68.979948 105.63984 68.996094 105.91602 C 69.044531 106.74454 69.164085 107.47726 69.345703 108.12109 C 69.466782 108.55032 69.615532 108.94036 69.789062 109.29102 C 70.483186 110.69364 71.574901 111.4783 72.892578 111.73633 C 73.057206 111.76858 73.225178 111.79264 73.396484 111.80859 C 73.568529 111.82467 73.743748 111.83398 73.921875 111.83398 C 74.512045 111.83382 75.063606 111.75906 75.568359 111.60938 C 75.736205 111.55959 75.899094 111.50042 76.056641 111.43359 C 76.214708 111.36647 76.368361 111.29159 76.515625 111.20703 C 76.810153 111.03792 77.083301 110.83416 77.332031 110.59375 C 77.705126 110.23314 78.024797 109.79056 78.285156 109.26367 C 78.632301 108.56115 78.873488 107.70805 78.996094 106.69531 C 79.057397 106.18894 79.087891 105.64174 79.087891 105.05469 L 79.087891 92.478516 L 79.089844 92.478516 L 81.863281 92.478516 L 81.865234 92.478516 L 81.865234 104.86719 C 81.865234 105.27484 81.85052 105.66699 81.824219 106.04492 C 81.797918 106.42286 81.758521 106.78599 81.707031 107.13477 C 81.604051 107.83232 81.452927 108.47231 81.255859 109.05664 C 80.960258 109.93314 80.564317 110.68585 80.082031 111.32031 C 78.635175 113.22369 76.414868 114.07227 73.828125 114.07227 C 73.2836 114.07227 72.756659 114.03236 72.25 113.95117 C 71.996995 113.91068 71.749745 113.86074 71.507812 113.79883 C 69.571997 113.30352 68.008992 112.10947 67.091797 110.01758 C 66.862498 109.49461 66.673351 108.91577 66.529297 108.27734 C 66.45727 107.95813 66.396753 107.62464 66.347656 107.27539 C 66.249462 106.57689 66.197266 105.8175 66.197266 104.99414 L 66.197266 92.478516 z M 86.634766 92.478516 L 86.636719 92.478516 L 89.378906 92.478516 L 89.378906 102.7207 L 89.470703 102.7207 C 90.037769 101.90347 90.608829 101.14654 91.142578 100.45312 L 91.142578 100.45117 L 97.636719 92.478516 L 101.04102 92.478516 L 93.349609 101.49219 L 93.349609 101.49414 L 97.494141 107.60938 L 101.63867 113.72266 L 101.63867 113.72461 L 98.392578 113.72461 L 98.392578 113.72266 L 91.394531 103.28906 L 89.378906 105.62305 L 89.378906 113.72266 L 89.378906 113.72461 L 86.634766 113.72461 L 86.634766 92.478516 z "
           transform="matrix(0.41947051,0,0,-0.41947051,-42.383408,38.791682)"
           id="path5105" />
      </g>
      <g
         transform="matrix(0.35277777,0,0,-0.35277777,111.38907,235.23828)"
         id="g5107"
         style="fill:#ffffff" />
      <g
         transform="matrix(0.35277777,0,0,-0.35277777,113.17264,234.55717)"
         id="g5111"
         style="fill:#ffffff" />
    </g>
  </g>
</svg>
