<?xml version="1.0" encoding="UTF-8" standalone="no"?>
<!-- Created with Inkscape (http://www.inkscape.org/) -->

<svg
   xmlns:dc="http://purl.org/dc/elements/1.1/"
   xmlns:cc="http://creativecommons.org/ns#"
   xmlns:rdf="http://www.w3.org/1999/02/22-rdf-syntax-ns#"
   xmlns:svg="http://www.w3.org/2000/svg"
   xmlns="http://www.w3.org/2000/svg"
   xmlns:sodipodi="http://sodipodi.sourceforge.net/DTD/sodipodi-0.dtd"
   xmlns:inkscape="http://www.inkscape.org/namespaces/inkscape"
   width="29.992489mm"
   height="31.79871mm"
   viewBox="0 0 29.992489 31.79871"
   version="1.1"
   id="svg5194"
   sodipodi:docname="icon black.svg"
   inkscape:export-filename="/home/anxhelo/Documents/ura works folder/OSM UK/icon color.png"
   inkscape:export-xdpi="141.06"
   inkscape:export-ydpi="141.06"
   inkscape:version="0.92.1 r">
  <defs
     id="defs5188" />
  <sodipodi:namedview
     id="base"
     pagecolor="#ffffff"
     bordercolor="#666666"
     borderopacity="1.0"
     inkscape:pageopacity="0.0"
     inkscape:pageshadow="2"
     inkscape:zoom="1.4"
     inkscape:cx="125.57163"
     inkscape:cy="117.66364"
     inkscape:document-units="mm"
     inkscape:current-layer="layer1"
     showgrid="false"
     fit-margin-top="0"
     fit-margin-left="0"
     fit-margin-right="0"
     fit-margin-bottom="0"
     inkscape:window-width="1366"
     inkscape:window-height="740"
     inkscape:window-x="0"
     inkscape:window-y="0"
     inkscape:window-maximized="1" />
  <metadata
     id="metadata5191">
    <rdf:RDF>
      <cc:Work
         rdf:about="">
        <dc:format>image/svg+xml</dc:format>
        <dc:type
           rdf:resource="http://purl.org/dc/dcmitype/StillImage" />
        <dc:title></dc:title>
      </cc:Work>
    </rdf:RDF>
  </metadata>
  <g
     inkscape:label="Layer 1"
     inkscape:groupmode="layer"
     id="layer1"
     transform="translate(-131.9275,-292.39952)">
    <g
       id="g7050"
       transform="matrix(1.7879684,0,0,1.7879684,-46.306802,-100.40315)">
      <g
         transform="matrix(0.35277777,0,0,-0.35277777,105.75941,233.30672)"
         id="g5083">
        <path
           inkscape:connector-curvature="0"
           id="path5085"
           style="fill:#000000;fill-opacity:1;fill-rule:nonzero;stroke:none"
           d="M 0,0 -4.752,-4.752 1.6,-3.558 5.616,-4.842 v 2.36 z" />
      </g>
      <g
         transform="matrix(0.35277777,0,0,-0.35277777,107.74071,231.8006)"
         id="g5087">
        <path
           inkscape:connector-curvature="0"
           id="path5089"
           style="fill:#000000;fill-opacity:1;fill-rule:nonzero;stroke:none"
           d="M 0,0 H 2 3.7 C 1.826,0.493 0.029,1.264 -1.611,2.31 L -1.7,2.22 -1.676,0.69 -1.66,-0.314 -2.37,-1.024 -3.014,-1.668 0,-3.11 V -2 Z" />
      </g>
      <g
         transform="matrix(0.35277777,0,0,-0.35277777,102.1785,228.54041)"
         id="g5091">
        <path
           inkscape:connector-curvature="0"
           id="path5093"
           style="fill:#000000;fill-opacity:1;fill-rule:nonzero;stroke:none"
           d="m 0,0 -6.361,2.019 4.18,-7.64 -1.761,-5.625 9.159,9.16 0.71,0.71 1.004,-0.015 1.53,-0.024 0.073,0.072 C 6.588,1.664 5.535,5.192 5.535,8.795 c 0,5.709 2.583,10.82 6.636,14.246 L 12.13,23.056 3.954,19.946 1.617,14.237 4.223,8.105 Z" />
      </g>
      <g
         transform="matrix(0.35277777,0,0,-0.35277777,99.825078,226.8071)"
         id="g5095">
        <path
           inkscape:connector-curvature="0"
           id="path5097"
           style="fill:#000000;fill-opacity:1;fill-rule:nonzero;stroke:none"
           d="m 0,0 5.621,-1.783 2.237,5.301 -2.315,5.447 2.38,6.007 -8.319,3.171 3.655,-9.591 z" />
      </g>
      <g
         transform="matrix(0.35277777,0,0,-0.35277777,110.7136,221.37422)"
         id="g5099">
        <path
           inkscape:connector-curvature="0"
           id="path5101"
           style="fill:#000000;fill-opacity:1;fill-rule:nonzero;stroke:none"
           d="m 0,0 c 6.352,0 11.519,-5.168 11.519,-11.52 0,-6.351 -5.167,-11.519 -11.519,-11.519 -6.352,0 -11.52,5.168 -11.52,11.519 C -11.52,-5.168 -6.352,0 0,0 m -12.514,-26.368 2.225,2.226 c 2.899,-2.365 6.544,-3.665 10.29,-3.665 8.981,0 16.288,7.306 16.288,16.287 C 16.287,-2.539 8.981,4.768 0,4.768 c -8.981,0 -16.287,-7.306 -16.287,-16.287 0,-3.788 1.326,-7.463 3.74,-10.378 l -2.219,-2.219 -2.534,0.04 -13.832,-13.833 4.824,-4.825 13.833,13.832 z" />
      </g>
      <g
         transform="matrix(0.35277777,0,0,-0.35277777,114.6373,233.37702)"
         id="g5103">
        <path
           inkscape:connector-curvature="0"
           id="path5105"
           style="fill:#000000;fill-opacity:1;fill-rule:nonzero;stroke:none"
           d="m 0,0 -3.226,-3.782 3.477,-5.13 h -1.362 l -2.935,4.377 -0.846,-0.979 v -3.398 h -1.15 V 0 h 1.15 v -4.297 h 0.039 c 0.238,0.343 0.477,0.661 0.701,0.952 L -1.428,0 Z m -8.044,-5.197 c 0,-2.736 -1.441,-3.861 -3.371,-3.861 -1.825,0 -3.2,1.045 -3.2,3.808 V 0 h 1.163 v -5.276 c 0,-1.996 0.886,-2.843 2.076,-2.843 1.322,0 2.168,0.873 2.168,2.843 V 0 h 1.164 z m -9.505,-6.425 H 2.172 v 14.09 h -19.721 z" />
      </g>
      <g
         transform="matrix(0.35277777,0,0,-0.35277777,111.38907,235.23828)"
         id="g5107">
        <path
           inkscape:connector-curvature="0"
           id="path5109"
           style="fill:#ffffff;fill-opacity:1;fill-rule:nonzero;stroke:none"
           d="m 0,0 c 0,-1.97 -0.846,-2.843 -2.168,-2.843 -1.191,0 -2.076,0.847 -2.076,2.843 v 5.276 h -1.164 v -5.25 c 0,-2.763 1.376,-3.808 3.201,-3.808 1.929,0 3.371,1.125 3.371,3.861 V 5.276 H 0 Z" />
      </g>
      <g
         transform="matrix(0.35277777,0,0,-0.35277777,113.17264,234.55717)"
         id="g5111">
        <path
           inkscape:connector-curvature="0"
           id="path5113"
           style="fill:#ffffff;fill-opacity:1;fill-rule:nonzero;stroke:none"
           d="M 0,0 C -0.225,-0.291 -0.463,-0.608 -0.701,-0.952 H -0.74 v 4.297 h -1.151 v -8.912 h 1.151 v 3.398 L 0.106,-1.19 3.041,-5.567 H 4.403 L 0.926,-0.436 4.152,3.345 H 2.724 Z" />
      </g>
    </g>
  </g>
</svg>
