<?xml version="1.0" encoding="UTF-8" standalone="no"?>
<!-- Created with Inkscape (http://www.inkscape.org/) -->

<svg
   xmlns:dc="http://purl.org/dc/elements/1.1/"
   xmlns:cc="http://creativecommons.org/ns#"
   xmlns:rdf="http://www.w3.org/1999/02/22-rdf-syntax-ns#"
   xmlns:svg="http://www.w3.org/2000/svg"
   xmlns="http://www.w3.org/2000/svg"
   xmlns:sodipodi="http://sodipodi.sourceforge.net/DTD/sodipodi-0.dtd"
   xmlns:inkscape="http://www.inkscape.org/namespaces/inkscape"
   width="30.075562mm"
   height="31.877384mm"
   viewBox="0 0 30.075562 31.877384"
   version="1.1"
   id="svg5194"
   sodipodi:docname="icon color.svg"
   inkscape:export-filename="/home/anxhelo/Documents/ura works folder/OSM UK/vertical black.png"
   inkscape:export-xdpi="141.06"
   inkscape:export-ydpi="141.06"
   inkscape:version="0.92.1 r">
  <defs
     id="defs5188" />
  <sodipodi:namedview
     id="base"
     pagecolor="#ffffff"
     bordercolor="#666666"
     borderopacity="1.0"
     inkscape:pageopacity="0.0"
     inkscape:pageshadow="2"
     inkscape:zoom="0.98994949"
     inkscape:cx="-30.847662"
     inkscape:cy="93.552481"
     inkscape:document-units="mm"
     inkscape:current-layer="layer1"
     showgrid="false"
     fit-margin-top="0"
     fit-margin-left="0"
     fit-margin-right="0"
     fit-margin-bottom="0"
     inkscape:window-width="1366"
     inkscape:window-height="740"
     inkscape:window-x="0"
     inkscape:window-y="0"
     inkscape:window-maximized="1" />
  <metadata
     id="metadata5191">
    <rdf:RDF>
      <cc:Work
         rdf:about="">
        <dc:format>image/svg+xml</dc:format>
        <dc:type
           rdf:resource="http://purl.org/dc/dcmitype/StillImage" />
        <dc:title></dc:title>
      </cc:Work>
    </rdf:RDF>
  </metadata>
  <g
     inkscape:label="Layer 1"
     inkscape:groupmode="layer"
     id="layer1"
     transform="translate(-131.85967,-260.58463)">
    <g
       id="g6953">
      <g
         transform="matrix(0.63491254,0,0,-0.63491254,141.27879,284.34421)"
         id="g4801">
        <path
           inkscape:connector-curvature="0"
           id="path4803"
           style="fill:#63b181;fill-opacity:1;fill-rule:nonzero;stroke:none"
           d="M 0,0 -6.532,-6.531 3.911,-4.569 7.897,-5.843 V -3.49 Z" />
      </g>
      <g
         transform="matrix(0.63491254,0,0,-0.63491254,145.13443,278.87773)"
         id="g4805">
        <path
           inkscape:connector-curvature="0"
           id="path4807"
           style="fill:#63b181;fill-opacity:1;fill-rule:nonzero;stroke:none"
           d="m 0,0 -2.231,-2.232 0.038,-2.498 -1.23,-1.231 5.248,-2.51 v 1.109 2 h 2 15.404 l 1.075,5.222 C 20.079,-0.314 19.842,-0.473 19.608,-0.636 16.958,-2.52 13.728,-3.64 10.236,-3.64 6.511,-3.64 2.886,-2.348 0,0" />
      </g>
      <g
         transform="matrix(0.63491254,0,0,-0.63491254,141.27879,284.34421)"
         id="g4809">
        <path
           inkscape:connector-curvature="0"
           id="path4811"
           style="fill:#4074d4;fill-opacity:1;fill-rule:nonzero;stroke:none"
           d="M 0,0 7.897,-3.49 V 0.139 L 2.649,2.649 Z" />
      </g>
      <g
         transform="matrix(0.63491254,0,0,-0.63491254,142.2932,278.85374)"
         id="g4813">
        <path
           inkscape:connector-curvature="0"
           id="path4815"
           style="fill:#63b181;fill-opacity:1;fill-rule:nonzero;stroke:none"
           d="m 0,0 2.21,2.21 c -2.404,2.905 -3.726,6.565 -3.726,10.339 0,3.021 0.845,5.841 2.289,8.266 0.088,0.153 0.181,0.303 0.275,0.453 0.091,0.141 0.175,0.287 0.27,0.425 1.057,1.582 2.383,2.969 3.915,4.094 l -2.541,0.97 -8.145,-3.099 -10e-4,-0.001 h 10e-4 l -2.329,-5.687 2.596,-6.108 v 0 0 l -4.206,-8.075 -6.337,2.011 4.164,-7.61 -3.278,-10.468 12.319,12.319 z" />
      </g>
      <g
         transform="matrix(0.63491254,0,0,-0.63491254,137.08056,271.11625)"
         id="g4817">
        <path
           inkscape:connector-curvature="0"
           id="path4819"
           style="fill:#63b181;fill-opacity:1;fill-rule:nonzero;stroke:none"
           d="m 0,0 -2.306,5.426 2.371,5.985 -8.288,3.159 3.641,-9.555 -3.246,-8.519 5.599,-1.777 z" />
      </g>
      <g
         transform="matrix(0.63491254,0,0,-0.63491254,139.00071,271.32266)"
         id="g4821">
        <path
           inkscape:connector-curvature="0"
           id="path4823"
           style="fill:#fff87f;fill-opacity:1;fill-rule:nonzero;stroke:none"
           d="m 0,0 v 0 l -2.596,6.108 v 0.001 l 2.328,5.686 v 0 l -1.424,-0.541 -1.267,0.482 -2.371,-5.985 2.306,-5.426 -2.229,-5.281 -5.599,1.777 -0.395,-1.037 0.703,-1.847 0.001,-0.001 6.336,-2.011 z" />
      </g>
      <g
         transform="matrix(0.63491254,0,0,-0.63491254,151.63251,263.60046)"
         id="g4825">
        <path
           inkscape:connector-curvature="0"
           id="path4827"
           style="fill:#454646;fill-opacity:1;fill-rule:nonzero;stroke:none"
           d="m 0,0 c 6.328,0 11.475,-5.148 11.475,-11.476 0,-6.327 -5.148,-11.475 -11.475,-11.475 -6.327,0 -11.476,5.148 -11.476,11.475 C -11.476,-5.149 -6.328,0 0,0 m -13.658,-30.023 1.231,1.231 -0.039,2.498 v 0.027 l 2.216,2.216 c 0.005,-0.004 0.01,-0.007 0.015,-0.011 2.886,-2.348 6.511,-3.64 10.237,-3.64 3.492,0 6.721,1.12 9.371,3.004 4.14,2.943 6.854,7.767 6.854,13.222 C 16.226,-2.529 8.947,4.75 0,4.75 c -5.557,0 -10.466,-2.81 -13.392,-7.081 -0.095,-0.138 -0.179,-0.284 -0.27,-0.425 -0.095,-0.149 -0.185,-0.301 -0.275,-0.453 -1.444,-2.425 -2.289,-5.245 -2.289,-8.266 0,-3.774 1.322,-7.435 3.726,-10.339 l -2.21,-2.21 -2.524,0.039 -12.319,-12.319 -1.461,-1.461 4.806,-4.807 3.369,3.369 6.532,6.531 z" />
      </g>
      <path
         inkscape:connector-curvature="0"
         id="path4829"
         style="fill:#4074d4;fill-opacity:1;fill-rule:nonzero;stroke:none;stroke-width:0.63491249"
         d="m 147.56277,292.46201 h 12.47032 v -8.90973 h -12.47032 z" />
      <g
         transform="matrix(0.63491254,0,0,-0.63491254,150.15385,285.11321)"
         id="g4831">
        <path
           inkscape:connector-curvature="0"
           id="path4833"
           style="fill:#ffffff;fill-opacity:1;fill-rule:nonzero;stroke:none"
           d="m 0,0 v -5.254 c 0,-1.989 0.882,-2.831 2.067,-2.831 1.317,0 2.16,0.869 2.16,2.831 V 0 h 1.159 v -5.175 c 0,-2.726 -1.436,-3.846 -3.358,-3.846 -1.817,0 -3.187,1.041 -3.187,3.793 V 0 Z" />
      </g>
      <g
         transform="matrix(0.63491254,0,0,-0.63491254,154.8388,285.11321)"
         id="g4835">
        <path
           inkscape:connector-curvature="0"
           id="path4837"
           style="fill:#ffffff;fill-opacity:1;fill-rule:nonzero;stroke:none"
           d="m 0,0 h 1.146 v -4.28 h 0.039 c 0.237,0.342 0.474,0.659 0.698,0.948 L 4.596,0 H 6.018 L 2.805,-3.766 6.268,-8.875 H 4.911 L 1.988,-4.517 1.146,-5.491 V -8.875 H 0 Z" />
      </g>
    </g>
  </g>
</svg>
