<?xml version="1.0" encoding="UTF-8" standalone="no"?>
<!-- Created with Inkscape (http://www.inkscape.org/) -->

<svg
   xmlns:dc="http://purl.org/dc/elements/1.1/"
   xmlns:cc="http://creativecommons.org/ns#"
   xmlns:rdf="http://www.w3.org/1999/02/22-rdf-syntax-ns#"
   xmlns:svg="http://www.w3.org/2000/svg"
   xmlns="http://www.w3.org/2000/svg"
   xmlns:sodipodi="http://sodipodi.sourceforge.net/DTD/sodipodi-0.dtd"
   xmlns:inkscape="http://www.inkscape.org/namespaces/inkscape"
   width="80.2463mm"
   height="58.51022mm"
   viewBox="0 0 80.246302 58.510219"
   version="1.1"
   id="svg5194"
   sodipodi:docname="vertical color.svg"
   inkscape:export-filename="/home/anxhelo/Documents/ura works folder/OSM UK/horizontal color.png"
   inkscape:export-xdpi="141.06"
   inkscape:export-ydpi="141.06"
   inkscape:version="0.92.1 r">
  <defs
     id="defs5188" />
  <sodipodi:namedview
     id="base"
     pagecolor="#ffffff"
     bordercolor="#666666"
     borderopacity="1.0"
     inkscape:pageopacity="0.0"
     inkscape:pageshadow="2"
     inkscape:zoom="0.98994949"
     inkscape:cx="34.911192"
     inkscape:cy="148.31178"
     inkscape:document-units="mm"
     inkscape:current-layer="layer1"
     showgrid="false"
     fit-margin-top="0"
     fit-margin-left="0"
     fit-margin-right="0"
     fit-margin-bottom="0"
     inkscape:window-width="1366"
     inkscape:window-height="740"
     inkscape:window-x="0"
     inkscape:window-y="0"
     inkscape:window-maximized="1" />
  <metadata
     id="metadata5191">
    <rdf:RDF>
      <cc:Work
         rdf:about="">
        <dc:format>image/svg+xml</dc:format>
        <dc:type
           rdf:resource="http://purl.org/dc/dcmitype/StillImage" />
        <dc:title></dc:title>
      </cc:Work>
    </rdf:RDF>
  </metadata>
  <g
     inkscape:label="Layer 1"
     inkscape:groupmode="layer"
     id="layer1"
     transform="translate(-97.241071,-207.54507)">
    <g
       id="g6567">
      <path
         inkscape:connector-curvature="0"
         id="path4671"
         style="fill:#4074d4;fill-opacity:1;fill-rule:nonzero;stroke:none;stroke-width:0.73462468"
         d="m 171.38418,266.05529 h -68.40824 v -9.10349 h 68.40824 z" />
      <g
         transform="matrix(0.73462473,0,0,-0.73462473,145.01769,237.2233)"
         id="g4673">
        <path
           inkscape:connector-curvature="0"
           id="path4675"
           style="fill:#63b181;fill-opacity:1;fill-rule:nonzero;stroke:none"
           d="m 0,0 -8.849,-0.925 -9.999,4.419 -6.322,-7.228 11.402,2.143 10.689,-3.416 4.631,0.12 z" />
      </g>
      <g
         transform="matrix(0.73462473,0,0,-0.73462473,147.50933,234.30907)"
         id="g4677">
        <path
           inkscape:connector-curvature="0"
           id="path4679"
           style="fill:#63b181;fill-opacity:1;fill-rule:nonzero;stroke:none"
           d="m 0,0 2.161,-8.794 4.907,0.142 -3.4,8.179 1.637,7.953 C 2.557,5.352 -0.89,4.083 -4.635,4.083 c -3.889,0 -7.458,1.367 -10.255,3.645 l -2.606,-2.606 -2.033,-2.933 7.713,-3.69 z" />
      </g>
      <g
         transform="matrix(0.73462473,0,0,-0.73462473,145.01769,237.2233)"
         id="g4681">
        <path
           inkscape:connector-curvature="0"
           id="path4683"
           style="fill:#4074d4;fill-opacity:1;fill-rule:nonzero;stroke:none"
           d="m 0,0 1.552,-4.887 4,0.06 -2.16,8.794 -11.816,-1.501 -7.712,3.69 -2.712,-2.662 9.999,-4.419 z" />
      </g>
      <g
         transform="matrix(0.73462473,0,0,-0.73462473,137.04754,209.73981)"
         id="g4685">
        <path
           inkscape:connector-curvature="0"
           id="path4687"
           style="fill:#63b181;fill-opacity:1;fill-rule:nonzero;stroke:none"
           d="m 0,0 -2.541,0.97 -8.145,-3.099 -2.329,-5.687 2.597,-6.108 -4.207,-8.075 -6.337,2.011 4.164,-7.611 -3.571,-11.403 13.08,13.026 2.185,-0.335 2.492,2.492 c -2.509,2.861 -4.034,6.607 -4.034,10.711 0,5.381 2.616,10.15 6.646,13.108" />
      </g>
      <g
         transform="matrix(0.73462473,0,0,-0.73462473,125.53494,223.61013)"
         id="g4689">
        <path
           inkscape:connector-curvature="0"
           id="path4691"
           style="fill:#63b181;fill-opacity:1;fill-rule:nonzero;stroke:none"
           d="m 0,0 2.229,5.281 -2.306,5.426 2.371,5.985 -8.288,3.159 3.641,-9.555 -3.246,-8.519 z" />
      </g>
      <g
         transform="matrix(0.73462473,0,0,-0.73462473,127.48669,215.48225)"
         id="g4693">
        <path
           inkscape:connector-curvature="0"
           id="path4695"
           style="fill:#fff87f;fill-opacity:1;fill-rule:nonzero;stroke:none"
           d="m 0,0 2.329,5.687 -1.425,-0.541 -1.267,0.482 -2.371,-5.985 2.306,-5.426 -2.229,-5.281 -5.599,1.777 -0.395,-1.037 0.703,-1.848 6.338,-2.011 4.206,8.075 z" />
      </g>
      <g
         transform="matrix(0.73462473,0,0,-0.73462473,152.43969,219.46509)"
         id="g4697">
        <path
           inkscape:connector-curvature="0"
           id="path4699"
           style="fill:#454646;fill-opacity:1;fill-rule:nonzero;stroke:none"
           d="m 0,0 c 0,-6.327 -5.148,-11.475 -11.475,-11.475 -6.328,0 -11.476,5.148 -11.476,11.475 0,6.327 5.148,11.476 11.476,11.476 C -5.147,11.476 0,6.328 0,0 m -11.475,16.226 c -8.947,0 -16.226,-7.278 -16.226,-16.225 0,-3.774 1.322,-7.434 3.726,-10.339 l -2.21,-2.21 -2.524,0.039 -13.78,-13.78 4.806,-4.807 13.78,13.78 -0.039,2.525 2.217,2.216 c 2.888,-2.355 6.519,-3.651 10.251,-3.651 8.947,0 16.226,7.279 16.226,16.226 -0.002,8.947 -7.28,16.226 -16.227,16.226 z" />
      </g>
      <g
         transform="matrix(0.73462473,0,0,-0.73462473,105.6255,258.53955)"
         id="g4701">
        <path
           inkscape:connector-curvature="0"
           id="path4703"
           style="fill:#ffffff;fill-opacity:1;fill-rule:nonzero;stroke:none"
           d="m 0,0 v -4.646 c 0,-1.757 0.78,-2.502 1.828,-2.502 1.164,0 1.909,0.768 1.909,2.502 V 0 h 1.025 v -4.576 c 0,-2.41 -1.269,-3.399 -2.969,-3.399 -1.606,0 -2.817,0.919 -2.817,3.353 V 0 Z" />
      </g>
      <g
         transform="matrix(0.73462473,0,0,-0.73462473,110.41203,264.30424)"
         id="g4705">
        <path
           inkscape:connector-curvature="0"
           id="path4707"
           style="fill:#ffffff;fill-opacity:1;fill-rule:nonzero;stroke:none"
           d="M 0,0 V 7.847 H 1.106 L 3.621,3.877 C 4.203,2.957 4.657,2.13 5.029,1.327 L 5.053,1.339 C 4.96,2.387 4.937,3.341 4.937,4.564 V 7.847 H 5.892 V 0 H 4.866 L 2.375,3.982 C 1.828,4.855 1.304,5.751 0.908,6.601 L 0.873,6.59 C 0.932,5.6 0.955,4.657 0.955,3.353 V 0 Z" />
      </g>
      <path
         inkscape:connector-curvature="0"
         id="path4709"
         style="fill:#ffffff;fill-opacity:1;fill-rule:nonzero;stroke:none;stroke-width:0.73462468"
         d="m 116.78025,264.30392 h -0.74416 v -5.76457 h 0.74416 z" />
      <g
         transform="matrix(0.73462473,0,0,-0.73462473,119.17447,259.17266)"
         id="g4711">
        <path
           inkscape:connector-curvature="0"
           id="path4713"
           style="fill:#ffffff;fill-opacity:1;fill-rule:nonzero;stroke:none"
           d="m 0,0 h -2.387 v 0.862 h 5.81 V 0 H 1.024 V -6.985 H 0 Z" />
      </g>
      <g
         transform="matrix(0.73462473,0,0,-0.73462473,125.31329,261.60139)"
         id="g4715">
        <path
           inkscape:connector-curvature="0"
           id="path4717"
           style="fill:#ffffff;fill-opacity:1;fill-rule:nonzero;stroke:none"
           d="m 0,0 h -3.051 v -2.829 h 3.4 v -0.85 H -4.063 V 4.168 H 0.175 V 3.318 H -3.051 V 0.838 H 0 Z" />
      </g>
      <g
         transform="matrix(0.73462473,0,0,-0.73462473,127.27753,263.71419)"
         id="g4719">
        <path
           inkscape:connector-curvature="0"
           id="path4721"
           style="fill:#ffffff;fill-opacity:1;fill-rule:nonzero;stroke:none"
           d="m 0,0 c 0.257,-0.046 0.629,-0.058 1.024,-0.058 2.166,0 3.342,1.211 3.342,3.329 C 4.378,5.123 3.33,6.299 1.187,6.299 0.664,6.299 0.268,6.252 0,6.194 Z m -1.013,6.939 c 0.617,0.093 1.351,0.163 2.155,0.163 1.455,0 2.491,-0.338 3.177,-0.978 0.7,-0.64 1.107,-1.548 1.107,-2.817 0,-1.281 -0.396,-2.329 -1.13,-3.051 -0.733,-0.733 -1.944,-1.129 -3.469,-1.129 -0.722,0 -1.327,0.035 -1.84,0.093 z" />
      </g>
      <g
         transform="matrix(0.73462473,0,0,-0.73462473,134.03842,258.53955)"
         id="g4723">
        <path
           inkscape:connector-curvature="0"
           id="path4725"
           style="fill:#ffffff;fill-opacity:1;fill-rule:nonzero;stroke:none"
           d="m 0,0 h 1.013 v -3.784 h 0.035 c 0.21,0.303 0.419,0.582 0.617,0.838 L 4.063,0 H 5.32 L 2.479,-3.33 5.542,-7.847 H 4.343 L 1.758,-3.994 1.013,-4.855 V -7.847 H 0 Z" />
      </g>
      <path
         inkscape:connector-curvature="0"
         id="path4727"
         style="fill:#ffffff;fill-opacity:1;fill-rule:nonzero;stroke:none;stroke-width:0.73462468"
         d="m 139.41552,264.30392 h -0.74417 v -5.76457 h 0.74417 z" />
      <g
         transform="matrix(0.73462473,0,0,-0.73462473,140.71456,264.30424)"
         id="g4729">
        <path
           inkscape:connector-curvature="0"
           id="path4731"
           style="fill:#ffffff;fill-opacity:1;fill-rule:nonzero;stroke:none"
           d="M 0,0 V 7.847 H 1.106 L 3.621,3.877 C 4.203,2.957 4.657,2.13 5.029,1.327 L 5.053,1.339 C 4.96,2.387 4.937,3.341 4.937,4.564 V 7.847 H 5.892 V 0 H 4.866 L 2.375,3.982 C 1.828,4.855 1.304,5.751 0.908,6.601 L 0.873,6.59 C 0.932,5.6 0.955,4.657 0.955,3.353 V 0 Z" />
      </g>
      <g
         transform="matrix(0.73462473,0,0,-0.73462473,150.72667,264.04777)"
         id="g4733">
        <path
           inkscape:connector-curvature="0"
           id="path4735"
           style="fill:#ffffff;fill-opacity:1;fill-rule:nonzero;stroke:none"
           d="m 0,0 c -0.454,-0.163 -1.351,-0.431 -2.41,-0.431 -1.188,0 -2.165,0.303 -2.934,1.036 -0.676,0.652 -1.094,1.7 -1.094,2.923 0.011,2.34 1.618,4.052 4.25,4.052 0.908,0 1.618,-0.199 1.956,-0.362 L -0.478,6.392 c -0.418,0.186 -0.942,0.337 -1.734,0.337 -1.909,0 -3.155,-1.187 -3.155,-3.155 0,-1.991 1.199,-3.166 3.027,-3.166 0.663,0 1.117,0.093 1.351,0.209 V 2.958 H -2.585 V 3.772 H 0 Z" />
      </g>
      <g
         transform="matrix(0.73462473,0,0,-0.73462473,152.6049,263.71419)"
         id="g4737">
        <path
           inkscape:connector-curvature="0"
           id="path4739"
           style="fill:#ffffff;fill-opacity:1;fill-rule:nonzero;stroke:none"
           d="m 0,0 c 0.257,-0.046 0.629,-0.058 1.024,-0.058 2.166,0 3.342,1.211 3.342,3.329 C 4.378,5.123 3.33,6.299 1.187,6.299 0.664,6.299 0.268,6.252 0,6.194 Z m -1.013,6.939 c 0.617,0.093 1.351,0.163 2.155,0.163 1.455,0 2.491,-0.338 3.177,-0.978 0.7,-0.64 1.107,-1.548 1.107,-2.817 0,-1.281 -0.396,-2.329 -1.13,-3.051 -0.733,-0.733 -1.944,-1.129 -3.469,-1.129 -0.722,0 -1.327,0.035 -1.84,0.093 z" />
      </g>
      <g
         transform="matrix(0.73462473,0,0,-0.73462473,158.00696,261.45616)"
         id="g4741">
        <path
           inkscape:connector-curvature="0"
           id="path4743"
           style="fill:#ffffff;fill-opacity:1;fill-rule:nonzero;stroke:none"
           d="m 0,0 c 0,-1.677 0.908,-3.178 2.503,-3.178 1.606,0 2.515,1.478 2.515,3.26 0,1.56 -0.815,3.189 -2.503,3.189 C 0.838,3.271 0,1.723 0,0 m 6.089,0.128 c 0,-2.701 -1.642,-4.133 -3.644,-4.133 -2.073,0 -3.528,1.607 -3.528,3.982 0,2.491 1.549,4.121 3.645,4.121 2.141,0 3.527,-1.641 3.527,-3.97" />
      </g>
      <g
         transform="matrix(0.73462473,0,0,-0.73462473,168.30104,261.77256)"
         id="g4745">
        <path
           inkscape:connector-curvature="0"
           id="path4747"
           style="fill:#ffffff;fill-opacity:1;fill-rule:nonzero;stroke:none"
           d="M 0,0 C -0.059,1.094 -0.128,2.41 -0.117,3.388 H -0.151 C -0.419,2.468 -0.745,1.49 -1.142,0.407 L -2.526,-3.4 h -0.769 l -1.269,3.737 c -0.373,1.106 -0.687,2.12 -0.909,3.051 H -5.495 C -5.519,2.41 -5.577,1.094 -5.646,-0.082 l -0.21,-3.364 h -0.967 l 0.548,7.847 h 1.292 l 1.338,-3.796 c 0.327,-0.966 0.594,-1.828 0.792,-2.643 h 0.036 c 0.197,0.792 0.476,1.654 0.826,2.643 l 1.397,3.796 h 1.292 l 0.489,-7.847 h -0.99 z" />
      </g>
      <g
         transform="matrix(0.73462473,0,0,-0.73462473,102.99759,249.99521)"
         id="g4749">
        <path
           inkscape:connector-curvature="0"
           id="path4751"
           style="fill:#454646;fill-opacity:1;fill-rule:nonzero;stroke:none"
           d="m 0,0 c 0,1.839 -0.751,3.95 -2.926,3.95 -2.175,0 -2.927,-2.223 -2.927,-3.95 0,-1.823 0.752,-3.95 2.927,-3.95 C -0.768,-3.95 0,-1.711 0,0 m -7.836,0 c 0,2.766 1.312,5.789 4.91,5.789 3.613,0 4.909,-3.023 4.909,-5.789 0,-2.767 -1.296,-5.789 -4.909,-5.789 -3.598,0 -4.91,3.022 -4.91,5.789" />
      </g>
      <g
         transform="matrix(0.73462473,0,0,-0.73462473,109.59204,251.11146)"
         id="g4753">
        <path
           inkscape:connector-curvature="0"
           id="path4755"
           style="fill:#454646;fill-opacity:1;fill-rule:nonzero;stroke:none"
           d="m 0,0 c 0,1.487 -0.624,2.511 -1.775,2.511 -0.736,0 -1.247,-0.304 -1.583,-0.8 v -3.39 c 0.288,-0.416 0.831,-0.8 1.583,-0.8 C -0.64,-2.479 0,-1.599 0,0 M -3.358,-3.422 V -6.428 L -5.229,-7.292 V 4.094 h 1.871 V 3.47 c 0.399,0.48 0.991,0.816 1.871,0.816 2.03,0 3.358,-1.552 3.358,-4.286 0,-2.687 -1.392,-4.27 -3.375,-4.27 -0.879,0 -1.471,0.368 -1.854,0.848" />
      </g>
      <g
         transform="matrix(0.73462473,0,0,-0.73462473,115.87939,250.4888)"
         id="g4757">
        <path
           inkscape:connector-curvature="0"
           id="path4759"
           style="fill:#454646;fill-opacity:1;fill-rule:nonzero;stroke:none"
           d="M 0,0 C -0.08,1.247 -0.863,1.791 -1.711,1.791 -2.718,1.791 -3.518,1.279 -3.613,0 Z m -5.484,-0.832 c 0,2.671 1.487,4.27 3.773,4.27 1.967,0 3.566,-1.215 3.566,-3.838 0,-0.335 -0.015,-0.784 -0.064,-1.151 H -3.63 c 0.065,-1.199 0.943,-1.919 1.919,-1.919 0.72,0 1.296,0.272 1.728,0.847 l 1.182,-1.215 c -0.638,-0.767 -1.598,-1.279 -2.91,-1.279 -2.318,0 -3.773,1.599 -3.773,4.285" />
      </g>
      <g
         transform="matrix(0.73462473,0,0,-0.73462473,122.07345,250.66489)"
         id="g4761">
        <path
           inkscape:connector-curvature="0"
           id="path4763"
           style="fill:#454646;fill-opacity:1;fill-rule:nonzero;stroke:none"
           d="m 0,0 c 0,1.343 -0.576,1.903 -1.52,1.903 -1.007,0 -1.663,-0.528 -1.663,-1.871 v -4.718 h -1.871 v 8.172 h 1.871 V 2.718 c 0.528,0.64 1.232,0.96 2.16,0.96 1.55,0 2.894,-0.847 2.894,-3.343 V -4.686 H 0 Z" />
      </g>
      <g
         transform="matrix(0.73462473,0,0,-0.73462473,124.50838,252.1216)"
         id="g4765">
        <path
           inkscape:connector-curvature="0"
           id="path4767"
           style="fill:#454646;fill-opacity:1;fill-rule:nonzero;stroke:none"
           d="m 0,0 1.775,0.655 c 0.463,-1.023 1.359,-1.726 2.51,-1.726 1.152,0 1.919,0.527 1.919,1.55 0,1.072 -1.135,1.472 -2.398,1.904 -1.599,0.543 -3.39,1.167 -3.39,3.294 0,1.631 1.327,3.006 3.678,3.006 1.951,0 3.181,-1.023 3.582,-2.399 L 5.948,5.709 C 5.661,6.364 5.021,6.86 3.966,6.86 2.958,6.86 2.366,6.428 2.366,5.661 2.366,4.845 3.342,4.509 4.51,4.125 6.141,3.55 8.155,2.846 8.155,0.479 8.155,-1.679 6.429,-2.895 4.222,-2.895 2.158,-2.895 0.607,-1.775 0,0" />
      </g>
      <g
         transform="matrix(0.73462473,0,0,-0.73462473,132.09998,252.70921)"
         id="g4769">
        <path
           inkscape:connector-curvature="0"
           id="path4771"
           style="fill:#454646;fill-opacity:1;fill-rule:nonzero;stroke:none"
           d="M 0,0 V 4.638 H -1.216 V 6.269 H 0 V 8.747 L 1.871,9.643 V 6.269 H 3.758 V 4.638 H 1.871 v -4.27 c 0,-0.464 0.192,-0.784 0.688,-0.784 0.416,0 0.847,0.128 1.279,0.368 L 3.613,-1.727 C 3.15,-1.967 2.574,-2.095 1.902,-2.095 0.56,-2.095 0,-1.295 0,0" />
      </g>
      <g
         transform="matrix(0.73462473,0,0,-0.73462473,135.97828,248.10413)"
         id="g4773">
        <path
           inkscape:connector-curvature="0"
           id="path4775"
           style="fill:#454646;fill-opacity:1;fill-rule:nonzero;stroke:none"
           d="m 0,0 h 1.871 v -0.848 c 0.32,0.672 0.863,1.04 1.679,1.04 0.608,0 1.103,-0.208 1.519,-0.56 L 4.798,-2.079 c -0.336,0.24 -0.768,0.432 -1.392,0.432 -0.719,0 -1.535,-0.4 -1.535,-1.951 V -8.171 H 0 Z" />
      </g>
      <g
         transform="matrix(0.73462473,0,0,-0.73462473,144.12087,250.4888)"
         id="g4777">
        <path
           inkscape:connector-curvature="0"
           id="path4779"
           style="fill:#454646;fill-opacity:1;fill-rule:nonzero;stroke:none"
           d="M 0,0 C -0.08,1.247 -0.863,1.791 -1.711,1.791 -2.718,1.791 -3.518,1.279 -3.613,0 Z m -5.484,-0.832 c 0,2.671 1.487,4.27 3.773,4.27 1.967,0 3.566,-1.215 3.566,-3.838 0,-0.335 -0.015,-0.784 -0.064,-1.151 H -3.63 c 0.065,-1.199 0.943,-1.919 1.919,-1.919 0.72,0 1.296,0.272 1.728,0.847 l 1.182,-1.215 c -0.638,-0.767 -1.598,-1.279 -2.91,-1.279 -2.318,0 -3.773,1.599 -3.773,4.285" />
      </g>
      <g
         transform="matrix(0.73462473,0,0,-0.73462473,150.33792,250.4888)"
         id="g4781">
        <path
           inkscape:connector-curvature="0"
           id="path4783"
           style="fill:#454646;fill-opacity:1;fill-rule:nonzero;stroke:none"
           d="M 0,0 C -0.08,1.247 -0.863,1.791 -1.711,1.791 -2.718,1.791 -3.518,1.279 -3.613,0 Z m -5.484,-0.832 c 0,2.671 1.487,4.27 3.773,4.27 1.967,0 3.566,-1.215 3.566,-3.838 0,-0.335 -0.015,-0.784 -0.064,-1.151 H -3.63 c 0.065,-1.199 0.943,-1.919 1.919,-1.919 0.72,0 1.296,0.272 1.728,0.847 l 1.182,-1.215 c -0.638,-0.767 -1.598,-1.279 -2.91,-1.279 -2.318,0 -3.773,1.599 -3.773,4.285" />
      </g>
      <g
         transform="matrix(0.73462473,0,0,-0.73462473,153.09056,252.70921)"
         id="g4785">
        <path
           inkscape:connector-curvature="0"
           id="path4787"
           style="fill:#454646;fill-opacity:1;fill-rule:nonzero;stroke:none"
           d="M 0,0 V 4.638 H -1.216 V 6.269 H 0 V 8.747 L 1.871,9.643 V 6.269 H 3.758 V 4.638 H 1.871 v -4.27 c 0,-0.464 0.192,-0.784 0.688,-0.784 0.415,0 0.847,0.128 1.279,0.368 L 3.614,-1.727 C 3.15,-1.967 2.574,-2.095 1.902,-2.095 0.56,-2.095 0,-1.295 0,0" />
      </g>
      <g
         transform="matrix(0.73462473,0,0,-0.73462473,163.15941,254.10706)"
         id="g4789">
        <path
           inkscape:connector-curvature="0"
           id="path4791"
           style="fill:#454646;fill-opacity:1;fill-rule:nonzero;stroke:none"
           d="M 0,0 V 5.949 C 0,6.349 0.031,6.988 0.063,7.292 -0.08,6.86 -0.288,6.316 -0.448,5.917 L -3.166,-0.192 -5.885,5.949 C -6.061,6.333 -6.269,6.86 -6.413,7.292 -6.381,6.988 -6.349,6.349 -6.349,5.949 V 0 h -1.919 v 11.194 h 1.935 L -3.454,4.622 C -3.343,4.35 -3.23,4.046 -3.15,3.79 c 0.08,0.256 0.191,0.56 0.303,0.832 l 2.895,6.572 H 1.919 V 0 Z" />
      </g>
      <g
         transform="matrix(0.73462473,0,0,-0.73462473,169.57803,252.46238)"
         id="g4793">
        <path
           inkscape:connector-curvature="0"
           id="path4795"
           style="fill:#454646;fill-opacity:1;fill-rule:nonzero;stroke:none"
           d="m 0,0 v 1.056 c -0.432,0.207 -1.023,0.335 -1.631,0.335 -0.928,0 -1.679,-0.32 -1.679,-1.103 0,-0.64 0.512,-1.072 1.487,-1.072 0.8,0 1.408,0.352 1.823,0.784 m 0,-1.583 c -0.399,-0.416 -1.087,-0.848 -2.175,-0.848 -1.679,0 -2.958,0.928 -2.958,2.719 0,1.887 1.583,2.702 3.198,2.702 0.768,0 1.423,-0.143 1.935,-0.431 V 2.99 c 0,1.072 -0.527,1.488 -1.599,1.488 -0.992,0 -1.743,-0.289 -2.43,-0.768 l -0.576,1.519 c 0.735,0.496 1.823,0.896 3.198,0.896 1.439,0 3.23,-0.352 3.23,-3.103 V -2.239 H 0 Z" />
      </g>
      <g
         transform="matrix(0.73462473,0,0,-0.73462473,176.11289,251.11146)"
         id="g4797">
        <path
           inkscape:connector-curvature="0"
           id="path4799"
           style="fill:#454646;fill-opacity:1;fill-rule:nonzero;stroke:none"
           d="m 0,0 c 0,1.487 -0.624,2.511 -1.775,2.511 -0.736,0 -1.247,-0.304 -1.583,-0.8 v -3.39 c 0.288,-0.416 0.831,-0.8 1.583,-0.8 C -0.64,-2.479 0,-1.599 0,0 M -3.358,-3.422 V -6.428 L -5.229,-7.292 V 4.094 h 1.871 V 3.47 c 0.399,0.48 0.991,0.816 1.871,0.816 2.03,0 3.358,-1.552 3.358,-4.286 0,-2.687 -1.392,-4.27 -3.375,-4.27 -0.879,0 -1.471,0.368 -1.854,0.848" />
      </g>
    </g>
  </g>
</svg>
