<?xml version="1.0" encoding="UTF-8" standalone="no"?>
<!-- Created with Inkscape (http://www.inkscape.org/) -->

<svg
   xmlns:dc="http://purl.org/dc/elements/1.1/"
   xmlns:cc="http://creativecommons.org/ns#"
   xmlns:rdf="http://www.w3.org/1999/02/22-rdf-syntax-ns#"
   xmlns:svg="http://www.w3.org/2000/svg"
   xmlns="http://www.w3.org/2000/svg"
   xmlns:sodipodi="http://sodipodi.sourceforge.net/DTD/sodipodi-0.dtd"
   xmlns:inkscape="http://www.inkscape.org/namespaces/inkscape"
   width="80.32373mm"
   height="58.632919mm"
   viewBox="0 0 80.323733 58.632919"
   version="1.1"
   id="svg5194"
   sodipodi:docname="vertical black.svg"
   inkscape:export-filename="/home/anxhelo/Documents/ura works folder/OSM UK/vertical color.png"
   inkscape:export-xdpi="141.06"
   inkscape:export-ydpi="141.06"
   inkscape:version="0.92.1 r">
  <defs
     id="defs5188" />
  <sodipodi:namedview
     id="base"
     pagecolor="#ffffff"
     bordercolor="#666666"
     borderopacity="1.0"
     inkscape:pageopacity="0.0"
     inkscape:pageshadow="2"
     inkscape:zoom="0.98994949"
     inkscape:cx="100.20289"
     inkscape:cy="133.82196"
     inkscape:document-units="mm"
     inkscape:current-layer="layer1"
     showgrid="false"
     fit-margin-top="0"
     fit-margin-left="0"
     fit-margin-right="0"
     fit-margin-bottom="0"
     inkscape:window-width="1366"
     inkscape:window-height="740"
     inkscape:window-x="0"
     inkscape:window-y="0"
     inkscape:window-maximized="1" />
  <metadata
     id="metadata5191">
    <rdf:RDF>
      <cc:Work
         rdf:about="">
        <dc:format>image/svg+xml</dc:format>
        <dc:type
           rdf:resource="http://purl.org/dc/dcmitype/StillImage" />
        <dc:title></dc:title>
      </cc:Work>
    </rdf:RDF>
  </metadata>
  <g
     inkscape:label="Layer 1"
     inkscape:groupmode="layer"
     id="layer1"
     transform="translate(-97.185887,-244.48372)">
    <g
       id="g6844"
       transform="matrix(2.0844122,0,0,2.0844122,-139.43701,-127.00916)">
      <path
         inkscape:connector-curvature="0"
         id="path4961"
         style="fill:#000000;fill-opacity:1;fill-rule:nonzero;stroke:none;stroke-width:0.35277775"
         d="m 149.12469,206.35352 h -32.85067 v -4.37163 h 32.85067 z" />
      <g
         transform="matrix(0.35277777,0,0,-0.35277777,117.54649,202.74442)"
         id="g4963">
        <path
           inkscape:connector-curvature="0"
           id="path4965"
           style="fill:#ffffff;fill-opacity:1;fill-rule:nonzero;stroke:none"
           d="m 0,0 v -4.646 c 0,-1.757 0.78,-2.502 1.828,-2.502 1.164,0 1.909,0.768 1.909,2.502 V 0 h 1.025 v -4.576 c 0,-2.41 -1.269,-3.399 -2.969,-3.399 -1.606,0 -2.817,0.919 -2.817,3.353 V 0 Z" />
      </g>
      <g
         transform="matrix(0.35277777,0,0,-0.35277777,119.84505,205.51271)"
         id="g4967">
        <path
           inkscape:connector-curvature="0"
           id="path4969"
           style="fill:#ffffff;fill-opacity:1;fill-rule:nonzero;stroke:none"
           d="M 0,0 V 7.847 H 1.106 L 3.621,3.877 C 4.203,2.957 4.657,2.13 5.029,1.327 L 5.053,1.339 C 4.96,2.387 4.937,3.341 4.937,4.564 V 7.847 H 5.892 V 0 H 4.866 L 2.375,3.982 C 1.828,4.855 1.304,5.751 0.908,6.601 L 0.873,6.59 C 0.932,5.6 0.955,4.657 0.955,3.353 V 0 Z" />
      </g>
      <path
         inkscape:connector-curvature="0"
         id="path4971"
         style="fill:#ffffff;fill-opacity:1;fill-rule:nonzero;stroke:none;stroke-width:0.35277775"
         d="m 122.90342,205.51285 h -0.35736 v -2.76825 h 0.35736 z" />
      <g
         transform="matrix(0.35277777,0,0,-0.35277777,124.05291,203.04845)"
         id="g4973">
        <path
           inkscape:connector-curvature="0"
           id="path4975"
           style="fill:#ffffff;fill-opacity:1;fill-rule:nonzero;stroke:none"
           d="m 0,0 h -2.387 v 0.862 h 5.81 V 0 H 1.024 V -6.985 H 0 Z" />
      </g>
      <g
         transform="matrix(0.35277777,0,0,-0.35277777,127.00086,204.21477)"
         id="g4977">
        <path
           inkscape:connector-curvature="0"
           id="path4979"
           style="fill:#ffffff;fill-opacity:1;fill-rule:nonzero;stroke:none"
           d="m 0,0 h -3.051 v -2.829 h 3.4 v -0.85 H -4.063 V 4.168 H 0.175 V 3.318 H -3.051 V 0.838 H 0 Z" />
      </g>
      <g
         transform="matrix(0.35277777,0,0,-0.35277777,127.94415,205.22935)"
         id="g4981">
        <path
           inkscape:connector-curvature="0"
           id="path4983"
           style="fill:#ffffff;fill-opacity:1;fill-rule:nonzero;stroke:none"
           d="m 0,0 c 0.257,-0.046 0.629,-0.058 1.024,-0.058 2.166,0 3.342,1.211 3.342,3.329 C 4.378,5.123 3.33,6.299 1.187,6.299 0.664,6.299 0.268,6.252 0,6.194 Z m -1.013,6.939 c 0.617,0.093 1.351,0.163 2.155,0.163 1.455,0 2.491,-0.338 3.177,-0.978 0.7,-0.64 1.107,-1.548 1.107,-2.817 0,-1.281 -0.396,-2.329 -1.13,-3.051 -0.733,-0.733 -1.944,-1.129 -3.469,-1.129 -0.722,0 -1.327,0.035 -1.84,0.093 z" />
      </g>
      <g
         transform="matrix(0.35277777,0,0,-0.35277777,131.1908,202.74442)"
         id="g4985">
        <path
           inkscape:connector-curvature="0"
           id="path4987"
           style="fill:#ffffff;fill-opacity:1;fill-rule:nonzero;stroke:none"
           d="m 0,0 h 1.013 v -3.784 h 0.035 c 0.21,0.303 0.419,0.582 0.617,0.838 L 4.063,0 H 5.32 L 2.479,-3.33 5.542,-7.847 H 4.343 L 1.758,-3.994 1.013,-4.855 V -7.847 H 0 Z" />
      </g>
      <path
         inkscape:connector-curvature="0"
         id="path4989"
         style="fill:#ffffff;fill-opacity:1;fill-rule:nonzero;stroke:none;stroke-width:0.35277775"
         d="m 133.77285,205.51285 h -0.35736 v -2.76825 h 0.35736 z" />
      <g
         transform="matrix(0.35277777,0,0,-0.35277777,134.39681,205.51271)"
         id="g4991">
        <path
           inkscape:connector-curvature="0"
           id="path4993"
           style="fill:#ffffff;fill-opacity:1;fill-rule:nonzero;stroke:none"
           d="M 0,0 V 7.847 H 1.106 L 3.621,3.877 C 4.203,2.957 4.657,2.13 5.029,1.327 L 5.053,1.339 C 4.96,2.387 4.937,3.341 4.937,4.564 V 7.847 H 5.892 V 0 H 4.866 L 2.375,3.982 C 1.828,4.855 1.304,5.751 0.908,6.601 L 0.873,6.59 C 0.932,5.6 0.955,4.657 0.955,3.353 V 0 Z" />
      </g>
      <g
         transform="matrix(0.35277777,0,0,-0.35277777,139.20479,205.38955)"
         id="g4995">
        <path
           inkscape:connector-curvature="0"
           id="path4997"
           style="fill:#ffffff;fill-opacity:1;fill-rule:nonzero;stroke:none"
           d="m 0,0 c -0.454,-0.163 -1.351,-0.431 -2.41,-0.431 -1.188,0 -2.165,0.303 -2.934,1.036 -0.676,0.652 -1.094,1.7 -1.094,2.923 0.011,2.34 1.618,4.052 4.25,4.052 0.908,0 1.618,-0.199 1.956,-0.362 L -0.478,6.392 c -0.418,0.186 -0.942,0.337 -1.734,0.337 -1.909,0 -3.155,-1.187 -3.155,-3.155 0,-1.991 1.199,-3.166 3.027,-3.166 0.663,0 1.117,0.093 1.351,0.209 V 2.958 H -2.585 V 3.772 H 0 Z" />
      </g>
      <g
         transform="matrix(0.35277777,0,0,-0.35277777,140.1067,205.22935)"
         id="g4999">
        <path
           inkscape:connector-curvature="0"
           id="path5001"
           style="fill:#ffffff;fill-opacity:1;fill-rule:nonzero;stroke:none"
           d="m 0,0 c 0.257,-0.046 0.629,-0.058 1.024,-0.058 2.166,0 3.342,1.211 3.342,3.329 C 4.378,5.123 3.33,6.299 1.187,6.299 0.664,6.299 0.268,6.252 0,6.194 Z m -1.013,6.939 c 0.617,0.093 1.351,0.163 2.155,0.163 1.455,0 2.491,-0.338 3.177,-0.978 0.7,-0.64 1.107,-1.548 1.107,-2.817 0,-1.281 -0.396,-2.329 -1.13,-3.051 -0.733,-0.733 -1.944,-1.129 -3.469,-1.129 -0.722,0 -1.327,0.035 -1.84,0.093 z" />
      </g>
      <g
         transform="matrix(0.35277777,0,0,-0.35277777,142.70085,204.14502)"
         id="g5003">
        <path
           inkscape:connector-curvature="0"
           id="path5005"
           style="fill:#ffffff;fill-opacity:1;fill-rule:nonzero;stroke:none"
           d="m 0,0 c 0,-1.677 0.908,-3.178 2.503,-3.178 1.606,0 2.515,1.478 2.515,3.26 0,1.56 -0.815,3.189 -2.503,3.189 C 0.838,3.271 0,1.723 0,0 m 6.089,0.128 c 0,-2.701 -1.642,-4.133 -3.644,-4.133 -2.073,0 -3.528,1.607 -3.528,3.982 0,2.491 1.549,4.121 3.645,4.121 2.141,0 3.527,-1.641 3.527,-3.97" />
      </g>
      <g
         transform="matrix(0.35277777,0,0,-0.35277777,147.64422,204.29693)"
         id="g5007">
        <path
           inkscape:connector-curvature="0"
           id="path5009"
           style="fill:#ffffff;fill-opacity:1;fill-rule:nonzero;stroke:none"
           d="M 0,0 C -0.059,1.094 -0.128,2.41 -0.117,3.388 H -0.151 C -0.419,2.468 -0.745,1.49 -1.142,0.407 L -2.526,-3.4 h -0.769 l -1.269,3.737 c -0.373,1.106 -0.687,2.12 -0.909,3.051 H -5.495 C -5.519,2.41 -5.577,1.094 -5.646,-0.082 l -0.21,-3.364 h -0.967 l 0.548,7.847 h 1.292 l 1.338,-3.796 c 0.327,-0.966 0.594,-1.828 0.792,-2.643 h 0.036 c 0.197,0.792 0.476,1.654 0.826,2.643 l 1.397,3.796 h 1.292 l 0.489,-7.847 h -0.99 z" />
      </g>
      <g
         transform="matrix(0.35277777,0,0,-0.35277777,116.28457,198.6413)"
         id="g5011">
        <path
           inkscape:connector-curvature="0"
           id="path5013"
           style="fill:#000000;fill-opacity:1;fill-rule:nonzero;stroke:none"
           d="m 0,0 c 0,1.839 -0.751,3.95 -2.926,3.95 -2.175,0 -2.927,-2.223 -2.927,-3.95 0,-1.823 0.752,-3.95 2.927,-3.95 C -0.768,-3.95 0,-1.711 0,0 m -7.836,0 c 0,2.766 1.312,5.789 4.91,5.789 3.613,0 4.909,-3.023 4.909,-5.789 0,-2.767 -1.296,-5.789 -4.909,-5.789 -3.598,0 -4.91,3.022 -4.91,5.789" />
      </g>
      <g
         transform="matrix(0.35277777,0,0,-0.35277777,119.45128,199.17735)"
         id="g5015">
        <path
           inkscape:connector-curvature="0"
           id="path5017"
           style="fill:#000000;fill-opacity:1;fill-rule:nonzero;stroke:none"
           d="m 0,0 c 0,1.487 -0.624,2.511 -1.775,2.511 -0.736,0 -1.247,-0.304 -1.583,-0.8 v -3.39 c 0.288,-0.416 0.831,-0.8 1.583,-0.8 C -0.64,-2.479 0,-1.599 0,0 M -3.358,-3.422 V -6.428 L -5.229,-7.292 V 4.094 h 1.871 V 3.47 c 0.399,0.48 0.991,0.816 1.871,0.816 2.03,0 3.358,-1.552 3.358,-4.286 0,-2.687 -1.392,-4.27 -3.375,-4.27 -0.879,0 -1.471,0.368 -1.854,0.848" />
      </g>
      <g
         transform="matrix(0.35277777,0,0,-0.35277777,122.47056,198.87833)"
         id="g5019">
        <path
           inkscape:connector-curvature="0"
           id="path5021"
           style="fill:#000000;fill-opacity:1;fill-rule:nonzero;stroke:none"
           d="M 0,0 C -0.08,1.247 -0.863,1.791 -1.711,1.791 -2.718,1.791 -3.518,1.279 -3.613,0 Z m -5.484,-0.832 c 0,2.671 1.487,4.27 3.773,4.27 1.967,0 3.566,-1.215 3.566,-3.838 0,-0.335 -0.015,-0.784 -0.064,-1.151 H -3.63 c 0.065,-1.199 0.943,-1.919 1.919,-1.919 0.72,0 1.296,0.272 1.728,0.847 l 1.182,-1.215 c -0.638,-0.767 -1.598,-1.279 -2.91,-1.279 -2.318,0 -3.773,1.599 -3.773,4.285" />
      </g>
      <g
         transform="matrix(0.35277777,0,0,-0.35277777,125.44508,198.96289)"
         id="g5023">
        <path
           inkscape:connector-curvature="0"
           id="path5025"
           style="fill:#000000;fill-opacity:1;fill-rule:nonzero;stroke:none"
           d="m 0,0 c 0,1.343 -0.576,1.903 -1.52,1.903 -1.007,0 -1.663,-0.528 -1.663,-1.871 v -4.718 h -1.871 v 8.172 h 1.871 V 2.718 c 0.528,0.64 1.232,0.96 2.16,0.96 1.55,0 2.894,-0.847 2.894,-3.343 V -4.686 H 0 Z" />
      </g>
      <g
         transform="matrix(0.35277777,0,0,-0.35277777,126.61432,199.66242)"
         id="g5027">
        <path
           inkscape:connector-curvature="0"
           id="path5029"
           style="fill:#000000;fill-opacity:1;fill-rule:nonzero;stroke:none"
           d="m 0,0 1.775,0.655 c 0.463,-1.023 1.359,-1.726 2.51,-1.726 1.152,0 1.919,0.527 1.919,1.55 0,1.072 -1.135,1.472 -2.398,1.904 -1.599,0.543 -3.39,1.167 -3.39,3.294 0,1.631 1.327,3.006 3.678,3.006 1.951,0 3.181,-1.023 3.582,-2.399 L 5.948,5.709 C 5.661,6.364 5.021,6.86 3.966,6.86 2.958,6.86 2.366,6.428 2.366,5.661 2.366,4.845 3.342,4.509 4.51,4.125 6.141,3.55 8.155,2.846 8.155,0.479 8.155,-1.679 6.429,-2.895 4.222,-2.895 2.158,-2.895 0.607,-1.775 0,0" />
      </g>
      <g
         transform="matrix(0.35277777,0,0,-0.35277777,130.25993,199.94457)"
         id="g5031">
        <path
           inkscape:connector-curvature="0"
           id="path5033"
           style="fill:#000000;fill-opacity:1;fill-rule:nonzero;stroke:none"
           d="M 0,0 V 4.638 H -1.216 V 6.269 H 0 V 8.747 L 1.871,9.643 V 6.269 H 3.758 V 4.638 H 1.871 v -4.27 c 0,-0.464 0.192,-0.784 0.688,-0.784 0.416,0 0.847,0.128 1.279,0.368 L 3.613,-1.727 C 3.15,-1.967 2.574,-2.095 1.902,-2.095 0.56,-2.095 0,-1.295 0,0" />
      </g>
      <g
         transform="matrix(0.35277777,0,0,-0.35277777,132.12235,197.73318)"
         id="g5035">
        <path
           inkscape:connector-curvature="0"
           id="path5037"
           style="fill:#000000;fill-opacity:1;fill-rule:nonzero;stroke:none"
           d="m 0,0 h 1.871 v -0.848 c 0.32,0.672 0.863,1.04 1.679,1.04 0.608,0 1.103,-0.208 1.519,-0.56 L 4.798,-2.079 c -0.336,0.24 -0.768,0.432 -1.392,0.432 -0.719,0 -1.535,-0.4 -1.535,-1.951 V -8.171 H 0 Z" />
      </g>
      <g
         transform="matrix(0.35277777,0,0,-0.35277777,136.03254,198.87833)"
         id="g5039">
        <path
           inkscape:connector-curvature="0"
           id="path5041"
           style="fill:#000000;fill-opacity:1;fill-rule:nonzero;stroke:none"
           d="M 0,0 C -0.08,1.247 -0.863,1.791 -1.711,1.791 -2.718,1.791 -3.518,1.279 -3.613,0 Z m -5.484,-0.832 c 0,2.671 1.487,4.27 3.773,4.27 1.967,0 3.566,-1.215 3.566,-3.838 0,-0.335 -0.015,-0.784 -0.064,-1.151 H -3.63 c 0.065,-1.199 0.943,-1.919 1.919,-1.919 0.72,0 1.296,0.272 1.728,0.847 l 1.182,-1.215 c -0.638,-0.767 -1.598,-1.279 -2.91,-1.279 -2.318,0 -3.773,1.599 -3.773,4.285" />
      </g>
      <g
         transform="matrix(0.35277777,0,0,-0.35277777,139.01806,198.87833)"
         id="g5043">
        <path
           inkscape:connector-curvature="0"
           id="path5045"
           style="fill:#000000;fill-opacity:1;fill-rule:nonzero;stroke:none"
           d="M 0,0 C -0.08,1.247 -0.863,1.791 -1.711,1.791 -2.718,1.791 -3.518,1.279 -3.613,0 Z m -5.484,-0.832 c 0,2.671 1.487,4.27 3.773,4.27 1.967,0 3.566,-1.215 3.566,-3.838 0,-0.335 -0.015,-0.784 -0.064,-1.151 H -3.63 c 0.065,-1.199 0.943,-1.919 1.919,-1.919 0.72,0 1.296,0.272 1.728,0.847 l 1.182,-1.215 c -0.638,-0.767 -1.598,-1.279 -2.91,-1.279 -2.318,0 -3.773,1.599 -3.773,4.285" />
      </g>
      <g
         transform="matrix(0.35277777,0,0,-0.35277777,140.33992,199.94457)"
         id="g5047">
        <path
           inkscape:connector-curvature="0"
           id="path5049"
           style="fill:#000000;fill-opacity:1;fill-rule:nonzero;stroke:none"
           d="M 0,0 V 4.638 H -1.216 V 6.269 H 0 V 8.747 L 1.871,9.643 V 6.269 H 3.758 V 4.638 H 1.871 v -4.27 c 0,-0.464 0.192,-0.784 0.688,-0.784 0.415,0 0.847,0.128 1.279,0.368 L 3.614,-1.727 C 3.15,-1.967 2.574,-2.095 1.902,-2.095 0.56,-2.095 0,-1.295 0,0" />
      </g>
      <g
         transform="matrix(0.35277777,0,0,-0.35277777,145.17513,200.61587)"
         id="g5051">
        <path
           inkscape:connector-curvature="0"
           id="path5053"
           style="fill:#000000;fill-opacity:1;fill-rule:nonzero;stroke:none"
           d="M 0,0 V 5.949 C 0,6.349 0.031,6.988 0.063,7.292 -0.08,6.86 -0.288,6.316 -0.448,5.917 L -3.166,-0.192 -5.885,5.949 C -6.061,6.333 -6.269,6.86 -6.413,7.292 -6.381,6.988 -6.349,6.349 -6.349,5.949 V 0 h -1.919 v 11.194 h 1.935 L -3.454,4.622 C -3.343,4.35 -3.23,4.046 -3.15,3.79 c 0.08,0.256 0.191,0.56 0.303,0.832 l 2.895,6.572 H 1.919 V 0 Z" />
      </g>
      <g
         transform="matrix(0.35277777,0,0,-0.35277777,148.25745,199.82607)"
         id="g5055">
        <path
           inkscape:connector-curvature="0"
           id="path5057"
           style="fill:#000000;fill-opacity:1;fill-rule:nonzero;stroke:none"
           d="m 0,0 v 1.056 c -0.432,0.207 -1.023,0.335 -1.631,0.335 -0.928,0 -1.679,-0.32 -1.679,-1.103 0,-0.64 0.512,-1.072 1.487,-1.072 0.8,0 1.408,0.352 1.823,0.784 m 0,-1.583 c -0.399,-0.416 -1.087,-0.848 -2.175,-0.848 -1.679,0 -2.958,0.928 -2.958,2.719 0,1.887 1.583,2.702 3.198,2.702 0.768,0 1.423,-0.143 1.935,-0.431 V 2.99 c 0,1.072 -0.527,1.488 -1.599,1.488 -0.992,0 -1.743,-0.289 -2.43,-0.768 l -0.576,1.519 c 0.735,0.496 1.823,0.896 3.198,0.896 1.439,0 3.23,-0.352 3.23,-3.103 V -2.239 H 0 Z" />
      </g>
      <g
         transform="matrix(0.35277777,0,0,-0.35277777,151.39559,199.17735)"
         id="g5059">
        <path
           inkscape:connector-curvature="0"
           id="path5061"
           style="fill:#000000;fill-opacity:1;fill-rule:nonzero;stroke:none"
           d="m 0,0 c 0,1.487 -0.624,2.511 -1.775,2.511 -0.736,0 -1.247,-0.304 -1.583,-0.8 v -3.39 c 0.288,-0.416 0.831,-0.8 1.583,-0.8 C -0.64,-2.479 0,-1.599 0,0 M -3.358,-3.422 V -6.428 L -5.229,-7.292 V 4.094 h 1.871 V 3.47 c 0.399,0.48 0.991,0.816 1.871,0.816 2.03,0 3.358,-1.552 3.358,-4.286 0,-2.687 -1.392,-4.27 -3.375,-4.27 -0.879,0 -1.471,0.368 -1.854,0.848" />
      </g>
      <g
         transform="matrix(0.35277777,0,0,-0.35277777,131.62207,193.09415)"
         id="g5063">
        <path
           inkscape:connector-curvature="0"
           id="path5065"
           style="fill:#000000;fill-opacity:1;fill-rule:nonzero;stroke:none"
           d="M 0,0 10.731,-3.429 15.379,-3.308 13.821,1.598 4.938,0.669 -1.6,3.558 -6.352,-1.194 Z" />
      </g>
      <g
         transform="matrix(0.35277777,0,0,-0.35277777,136.0124,190.55281)"
         id="g5067">
        <path
           inkscape:connector-curvature="0"
           id="path5069"
           style="fill:#000000;fill-opacity:1;fill-rule:nonzero;stroke:none"
           d="m 0,0 c -3.561,0 -7.055,1.031 -10.039,2.934 l -0.09,-0.09 0.024,-1.53 0.016,-1.004 -0.71,-0.71 -0.644,-0.644 4.362,-2.087 11.862,1.507 v 0 l 2.169,-8.827 4.926,0.142 -3.413,8.211 0.964,4.682 C 6.656,0.953 3.441,0 0,0" />
      </g>
      <g
         transform="matrix(0.35277777,0,0,-0.35277777,129.56767,187.55787)"
         id="g5071">
        <path
           inkscape:connector-curvature="0"
           id="path5073"
           style="fill:#000000;fill-opacity:1;fill-rule:nonzero;stroke:none"
           d="m 0,0 1.004,-0.016 1.53,-0.023 0.073,0.072 c -1.946,3.006 -2.999,6.535 -2.999,10.137 0,5.709 2.583,10.821 6.636,14.247 l -0.041,0.015 -8.176,-3.111 -2.338,-5.708 2.607,-6.132 -4.223,-8.105 -6.361,2.019 4.18,-7.641 -1.761,-5.624 9.159,9.16 z" />
      </g>
      <g
         transform="matrix(0.35277777,0,0,-0.35277777,125.12334,185.33922)"
         id="g5075">
        <path
           inkscape:connector-curvature="0"
           id="path5077"
           style="fill:#000000;fill-opacity:1;fill-rule:nonzero;stroke:none"
           d="m 0,0 5.621,-1.784 2.237,5.302 -2.315,5.447 2.38,6.007 -8.319,3.171 3.655,-9.591 z" />
      </g>
      <g
         transform="matrix(0.35277777,0,0,-0.35277777,136.01183,179.90633)"
         id="g5079">
        <path
           inkscape:connector-curvature="0"
           id="path5081"
           style="fill:#000000;fill-opacity:1;fill-rule:nonzero;stroke:none"
           d="m 0,0 c 6.352,0 11.519,-5.168 11.519,-11.52 0,-6.351 -5.167,-11.519 -11.519,-11.519 -6.352,0 -11.52,5.168 -11.52,11.519 C -11.52,-5.168 -6.352,0 0,0 m -12.475,-28.902 -0.039,2.534 2.225,2.226 c 2.899,-2.365 6.544,-3.665 10.291,-3.665 8.98,0 16.287,7.306 16.287,16.287 C 16.287,-2.539 8.981,4.768 0,4.768 c -8.981,0 -16.287,-7.306 -16.287,-16.287 0,-3.788 1.326,-7.463 3.74,-10.378 l -2.219,-2.219 -2.534,0.04 -13.832,-13.833 4.824,-4.825 z" />
      </g>
    </g>
  </g>
</svg>
