<?xml version="1.0" encoding="UTF-8" standalone="no"?>
<!-- Created with Inkscape (http://www.inkscape.org/) -->

<svg
   xmlns:dc="http://purl.org/dc/elements/1.1/"
   xmlns:cc="http://creativecommons.org/ns#"
   xmlns:rdf="http://www.w3.org/1999/02/22-rdf-syntax-ns#"
   xmlns:svg="http://www.w3.org/2000/svg"
   xmlns="http://www.w3.org/2000/svg"
   xmlns:sodipodi="http://sodipodi.sourceforge.net/DTD/sodipodi-0.dtd"
   xmlns:inkscape="http://www.inkscape.org/namespaces/inkscape"
   width="80.32373mm"
   height="58.632919mm"
   viewBox="0 0 80.323733 58.632919"
   version="1.1"
   id="svg5194"
   sodipodi:docname="vertical white.svg"
   inkscape:export-filename="/home/anxhelo/Documents/ura works folder/OSM UK/vertical color.png"
   inkscape:export-xdpi="141.06"
   inkscape:export-ydpi="141.06"
   inkscape:version="0.92.1 r">
  <defs
     id="defs5188" />
  <sodipodi:namedview
     id="base"
     pagecolor="#ffffff"
     bordercolor="#666666"
     borderopacity="1.0"
     inkscape:pageopacity="0.0"
     inkscape:pageshadow="2"
     inkscape:zoom="1.4"
     inkscape:cx="158.21832"
     inkscape:cy="112.25704"
     inkscape:document-units="mm"
     inkscape:current-layer="g6844"
     showgrid="false"
     fit-margin-top="0"
     fit-margin-left="0"
     fit-margin-right="0"
     fit-margin-bottom="0"
     inkscape:window-width="1366"
     inkscape:window-height="740"
     inkscape:window-x="0"
     inkscape:window-y="0"
     inkscape:window-maximized="1" />
  <metadata
     id="metadata5191">
    <rdf:RDF>
      <cc:Work
         rdf:about="">
        <dc:format>image/svg+xml</dc:format>
        <dc:type
           rdf:resource="http://purl.org/dc/dcmitype/StillImage" />
        <dc:title></dc:title>
      </cc:Work>
    </rdf:RDF>
  </metadata>
  <g
     inkscape:label="Layer 1"
     inkscape:groupmode="layer"
     id="layer1"
     transform="translate(-97.185887,-244.48372)">
    <g
       id="g6844"
       transform="matrix(2.0844122,0,0,2.0844122,-139.43701,-127.00916)">
      <path
         style="fill:#ffffff;fill-opacity:1;fill-rule:nonzero;stroke:none;stroke-width:2.77921605"
         d="M 21.695312 187.16406 L 21.695312 221.60547 L 280.49609 221.60547 L 280.49609 187.16406 L 21.695312 187.16406 z M 237.00781 192.81641 C 242.95811 192.81641 246.81055 197.37681 246.81055 203.84961 C 246.81055 211.35627 242.24758 215.33594 236.68359 215.33594 C 230.92228 215.33594 226.87891 210.87017 226.87891 204.26953 C 226.87891 197.3465 231.18258 192.81641 237.00781 192.81641 z M 196.26367 192.94336 C 198.7872 192.94336 200.7618 193.49621 201.70117 193.94922 L 201.01758 196.24609 C 199.85587 195.72916 198.3984 195.30859 196.19727 195.30859 C 190.89174 195.30859 187.42969 198.60863 187.42969 204.07812 C 187.42969 209.61156 190.76139 212.87695 195.8418 212.87695 C 197.68442 212.87695 198.94732 212.61731 199.59766 212.29492 L 199.59766 205.78906 L 195.16211 205.78906 L 195.16211 203.52734 L 202.3457 203.52734 L 202.3457 214.00977 C 201.08394 214.46278 198.59163 215.20898 195.64844 215.20898 C 192.34673 215.20898 189.63136 214.36531 187.49414 212.32812 C 185.61539 210.51608 184.45315 207.60406 184.45312 204.20508 C 184.48372 197.70171 188.94877 192.94336 196.26367 192.94336 z M 116.80664 193.00977 C 120.8504 193.00977 123.73018 193.94982 125.63672 195.72852 C 127.58217 197.50721 128.71289 200.02982 128.71289 203.55664 C 128.71289 207.11682 127.61221 210.03052 125.57227 212.03711 C 123.5351 214.07427 120.16995 215.17383 115.93164 215.17383 C 113.92505 215.17383 112.2441 215.07721 110.81836 214.91602 L 110.81836 193.46289 C 112.53314 193.20442 114.57215 193.00977 116.80664 193.00977 z M 212.625 193.00977 C 216.66876 193.00977 219.54854 193.94982 221.45508 195.72852 C 223.40053 197.50721 224.53125 200.02982 224.53125 203.55664 C 224.53125 207.11682 223.43069 210.03052 221.39062 212.03711 C 219.35346 214.07427 215.9883 215.17383 211.75 215.17383 C 209.74341 215.17383 208.0605 215.07721 206.63477 214.91602 L 206.63477 193.46289 C 208.34954 193.20442 210.39051 193.00977 212.625 193.00977 z M 28.873047 193.17188 L 31.71875 193.17188 L 31.71875 206.08398 C 31.71875 210.96707 33.888163 213.03711 36.800781 213.03711 C 40.035789 213.03711 42.105469 210.90315 42.105469 206.08398 L 42.105469 193.17188 L 44.953125 193.17188 L 44.953125 205.88867 C 44.953125 212.58658 41.427793 215.33594 36.703125 215.33594 C 32.239704 215.33594 28.873047 212.78219 28.873047 206.01758 L 28.873047 193.17188 z M 49.828125 193.17188 L 52.902344 193.17188 L 59.890625 204.20508 C 61.508129 206.76196 62.770809 209.06126 63.804688 211.29297 L 63.871094 211.25977 C 63.612627 208.34715 63.548828 205.69586 63.548828 202.29688 L 63.548828 193.17188 L 66.203125 193.17188 L 66.203125 214.98047 L 63.351562 214.98047 L 56.427734 203.91406 C 54.907503 201.48781 53.452142 198.9971 52.351562 196.63477 L 52.253906 196.66602 C 52.41788 199.41744 52.482422 202.03801 52.482422 205.66211 L 52.482422 214.98047 L 49.828125 214.98047 L 49.828125 193.17188 z M 76.34375 193.17188 L 92.490234 193.17188 L 92.490234 195.56641 L 85.824219 195.56641 L 85.824219 214.98047 L 82.978516 214.98047 L 82.978516 195.56641 L 76.34375 195.56641 L 76.34375 193.17188 z M 94.910156 193.17188 L 106.6875 193.17188 L 106.6875 195.5332 L 97.722656 195.5332 L 97.722656 202.42578 L 106.20117 202.42578 L 106.20117 204.75586 L 97.722656 204.75586 L 97.722656 212.61719 L 107.17188 212.61719 L 107.17188 214.98047 L 94.910156 214.98047 L 94.910156 193.17188 z M 139.21094 193.17188 L 142.02539 193.17188 L 142.02539 203.6875 L 142.12305 203.6875 C 142.70668 202.8454 143.28761 202.07085 143.83789 201.35938 L 150.50195 193.17188 L 153.99609 193.17188 L 146.09961 202.42578 L 154.61328 214.98047 L 151.28125 214.98047 L 144.0957 204.27148 L 142.02539 206.66406 L 142.02539 214.98047 L 139.21094 214.98047 L 139.21094 193.17188 z M 164.46875 193.17188 L 167.54102 193.17188 L 174.53125 204.20508 C 176.14875 206.76196 177.41144 209.06126 178.44531 211.29297 L 178.51172 211.25977 C 178.25325 208.34715 178.18945 205.69586 178.18945 202.29688 L 178.18945 193.17188 L 180.84375 193.17188 L 180.84375 214.98047 L 177.99219 214.98047 L 171.06836 203.91406 C 169.54813 201.48781 168.09276 198.9971 166.99219 196.63477 L 166.89453 196.66602 C 167.05851 199.41744 167.12109 202.03801 167.12109 205.66211 L 167.12109 214.98047 L 164.46875 214.98047 L 164.46875 193.17188 z M 251.39258 193.17188 L 254.98242 193.17188 L 258.70117 203.7207 C 259.60998 206.40543 260.35206 208.80135 260.90234 211.06641 L 261.00391 211.06641 C 261.55141 208.86527 262.3261 206.46935 263.29883 203.7207 L 267.18164 193.17188 L 270.77148 193.17188 L 272.13086 214.98047 L 269.37891 214.98047 L 268.83203 205.40234 C 268.66806 202.36188 268.47724 198.7044 268.50781 195.98633 L 268.41211 195.98633 C 267.66728 198.54321 266.76155 201.26159 265.6582 204.27148 L 261.8125 214.85156 L 259.67383 214.85156 L 256.14844 204.4668 C 255.11179 201.39298 254.23808 198.57378 253.62109 195.98633 L 253.56055 195.98633 C 253.49385 198.7044 253.33239 202.3625 253.14062 205.63086 L 252.55664 214.98047 L 249.86914 214.98047 L 251.39258 193.17188 z M 71.107422 193.17383 L 73.921875 193.17383 L 73.921875 214.98242 L 71.107422 214.98242 L 71.107422 193.17383 z M 156.73633 193.17383 L 159.55273 193.17383 L 159.55273 214.98242 L 156.73633 214.98242 L 156.73633 193.17383 z M 236.87695 195.11523 C 232.21621 195.11523 229.88867 199.41649 229.88867 204.20508 C 229.88867 208.86582 232.4109 213.03906 236.84375 213.03906 C 241.30717 213.03906 243.83398 208.93108 243.83398 203.97852 C 243.83398 199.64294 241.56827 195.11523 236.87695 195.11523 z M 116.93164 195.24219 C 115.47811 195.24219 114.37764 195.37201 113.63281 195.5332 L 113.63281 212.74805 C 114.34707 212.87589 115.38073 212.91016 116.47852 212.91016 C 122.4983 212.91016 125.76758 209.54458 125.76758 203.6582 C 125.80093 198.51109 122.8875 195.24219 116.93164 195.24219 z M 212.75 195.24219 C 211.29647 195.24219 210.196 195.37201 209.45117 195.5332 L 209.45117 212.74805 C 210.16543 212.87589 211.19896 212.91016 212.29688 212.91016 C 218.31666 212.91016 221.58398 209.54458 221.58398 203.6582 C 221.61733 198.51109 218.70586 195.24219 212.75 195.24219 z "
         transform="matrix(0.12693427,0,0,0.12693427,113.5202,178.22429)"
         id="path4961" />
      <g
         transform="matrix(0.35277777,0,0,-0.35277777,117.54649,202.74442)"
         id="g4963" />
      <g
         transform="matrix(0.35277777,0,0,-0.35277777,119.84505,205.51271)"
         id="g4967" />
      <g
         transform="matrix(0.35277777,0,0,-0.35277777,124.05291,203.04845)"
         id="g4973" />
      <g
         transform="matrix(0.35277777,0,0,-0.35277777,127.00086,204.21477)"
         id="g4977" />
      <g
         transform="matrix(0.35277777,0,0,-0.35277777,127.94415,205.22935)"
         id="g4981" />
      <g
         transform="matrix(0.35277777,0,0,-0.35277777,131.1908,202.74442)"
         id="g4985" />
      <g
         transform="matrix(0.35277777,0,0,-0.35277777,134.39681,205.51271)"
         id="g4991" />
      <g
         transform="matrix(0.35277777,0,0,-0.35277777,139.20479,205.38955)"
         id="g4995" />
      <g
         transform="matrix(0.35277777,0,0,-0.35277777,140.1067,205.22935)"
         id="g4999" />
      <g
         transform="matrix(0.35277777,0,0,-0.35277777,142.70085,204.14502)"
         id="g5003" />
      <g
         transform="matrix(0.35277777,0,0,-0.35277777,147.64422,204.29693)"
         id="g5007">
        <g
           id="g9344" />
      </g>
      <g
         transform="matrix(0.35277777,0,0,-0.35277777,116.28457,198.6413)"
         id="g5011"
         style="fill:#ffffff">
        <path
           inkscape:connector-curvature="0"
           id="path5013"
           style="fill:#ffffff;fill-opacity:1;fill-rule:nonzero;stroke:none"
           d="m 0,0 c 0,1.839 -0.751,3.95 -2.926,3.95 -2.175,0 -2.927,-2.223 -2.927,-3.95 0,-1.823 0.752,-3.95 2.927,-3.95 C -0.768,-3.95 0,-1.711 0,0 m -7.836,0 c 0,2.766 1.312,5.789 4.91,5.789 3.613,0 4.909,-3.023 4.909,-5.789 0,-2.767 -1.296,-5.789 -4.909,-5.789 -3.598,0 -4.91,3.022 -4.91,5.789" />
      </g>
      <g
         transform="matrix(0.35277777,0,0,-0.35277777,119.45128,199.17735)"
         id="g5015"
         style="fill:#ffffff">
        <path
           inkscape:connector-curvature="0"
           id="path5017"
           style="fill:#ffffff;fill-opacity:1;fill-rule:nonzero;stroke:none"
           d="m 0,0 c 0,1.487 -0.624,2.511 -1.775,2.511 -0.736,0 -1.247,-0.304 -1.583,-0.8 v -3.39 c 0.288,-0.416 0.831,-0.8 1.583,-0.8 C -0.64,-2.479 0,-1.599 0,0 M -3.358,-3.422 V -6.428 L -5.229,-7.292 V 4.094 h 1.871 V 3.47 c 0.399,0.48 0.991,0.816 1.871,0.816 2.03,0 3.358,-1.552 3.358,-4.286 0,-2.687 -1.392,-4.27 -3.375,-4.27 -0.879,0 -1.471,0.368 -1.854,0.848" />
      </g>
      <g
         transform="matrix(0.35277777,0,0,-0.35277777,122.47056,198.87833)"
         id="g5019"
         style="fill:#ffffff">
        <path
           inkscape:connector-curvature="0"
           id="path5021"
           style="fill:#ffffff;fill-opacity:1;fill-rule:nonzero;stroke:none"
           d="M 0,0 C -0.08,1.247 -0.863,1.791 -1.711,1.791 -2.718,1.791 -3.518,1.279 -3.613,0 Z m -5.484,-0.832 c 0,2.671 1.487,4.27 3.773,4.27 1.967,0 3.566,-1.215 3.566,-3.838 0,-0.335 -0.015,-0.784 -0.064,-1.151 H -3.63 c 0.065,-1.199 0.943,-1.919 1.919,-1.919 0.72,0 1.296,0.272 1.728,0.847 l 1.182,-1.215 c -0.638,-0.767 -1.598,-1.279 -2.91,-1.279 -2.318,0 -3.773,1.599 -3.773,4.285" />
      </g>
      <g
         transform="matrix(0.35277777,0,0,-0.35277777,125.44508,198.96289)"
         id="g5023"
         style="fill:#ffffff">
        <path
           inkscape:connector-curvature="0"
           id="path5025"
           style="fill:#ffffff;fill-opacity:1;fill-rule:nonzero;stroke:none"
           d="m 0,0 c 0,1.343 -0.576,1.903 -1.52,1.903 -1.007,0 -1.663,-0.528 -1.663,-1.871 v -4.718 h -1.871 v 8.172 h 1.871 V 2.718 c 0.528,0.64 1.232,0.96 2.16,0.96 1.55,0 2.894,-0.847 2.894,-3.343 V -4.686 H 0 Z" />
      </g>
      <g
         transform="matrix(0.35277777,0,0,-0.35277777,126.61432,199.66242)"
         id="g5027"
         style="fill:#ffffff">
        <path
           inkscape:connector-curvature="0"
           id="path5029"
           style="fill:#ffffff;fill-opacity:1;fill-rule:nonzero;stroke:none"
           d="m 0,0 1.775,0.655 c 0.463,-1.023 1.359,-1.726 2.51,-1.726 1.152,0 1.919,0.527 1.919,1.55 0,1.072 -1.135,1.472 -2.398,1.904 -1.599,0.543 -3.39,1.167 -3.39,3.294 0,1.631 1.327,3.006 3.678,3.006 1.951,0 3.181,-1.023 3.582,-2.399 L 5.948,5.709 C 5.661,6.364 5.021,6.86 3.966,6.86 2.958,6.86 2.366,6.428 2.366,5.661 2.366,4.845 3.342,4.509 4.51,4.125 6.141,3.55 8.155,2.846 8.155,0.479 8.155,-1.679 6.429,-2.895 4.222,-2.895 2.158,-2.895 0.607,-1.775 0,0" />
      </g>
      <g
         transform="matrix(0.35277777,0,0,-0.35277777,130.25993,199.94457)"
         id="g5031"
         style="fill:#ffffff">
        <path
           inkscape:connector-curvature="0"
           id="path5033"
           style="fill:#ffffff;fill-opacity:1;fill-rule:nonzero;stroke:none"
           d="M 0,0 V 4.638 H -1.216 V 6.269 H 0 V 8.747 L 1.871,9.643 V 6.269 H 3.758 V 4.638 H 1.871 v -4.27 c 0,-0.464 0.192,-0.784 0.688,-0.784 0.416,0 0.847,0.128 1.279,0.368 L 3.613,-1.727 C 3.15,-1.967 2.574,-2.095 1.902,-2.095 0.56,-2.095 0,-1.295 0,0" />
      </g>
      <g
         transform="matrix(0.35277777,0,0,-0.35277777,132.12235,197.73318)"
         id="g5035"
         style="fill:#ffffff">
        <path
           inkscape:connector-curvature="0"
           id="path5037"
           style="fill:#ffffff;fill-opacity:1;fill-rule:nonzero;stroke:none"
           d="m 0,0 h 1.871 v -0.848 c 0.32,0.672 0.863,1.04 1.679,1.04 0.608,0 1.103,-0.208 1.519,-0.56 L 4.798,-2.079 c -0.336,0.24 -0.768,0.432 -1.392,0.432 -0.719,0 -1.535,-0.4 -1.535,-1.951 V -8.171 H 0 Z" />
      </g>
      <g
         transform="matrix(0.35277777,0,0,-0.35277777,136.03254,198.87833)"
         id="g5039"
         style="fill:#ffffff">
        <path
           inkscape:connector-curvature="0"
           id="path5041"
           style="fill:#ffffff;fill-opacity:1;fill-rule:nonzero;stroke:none"
           d="M 0,0 C -0.08,1.247 -0.863,1.791 -1.711,1.791 -2.718,1.791 -3.518,1.279 -3.613,0 Z m -5.484,-0.832 c 0,2.671 1.487,4.27 3.773,4.27 1.967,0 3.566,-1.215 3.566,-3.838 0,-0.335 -0.015,-0.784 -0.064,-1.151 H -3.63 c 0.065,-1.199 0.943,-1.919 1.919,-1.919 0.72,0 1.296,0.272 1.728,0.847 l 1.182,-1.215 c -0.638,-0.767 -1.598,-1.279 -2.91,-1.279 -2.318,0 -3.773,1.599 -3.773,4.285" />
      </g>
      <g
         transform="matrix(0.35277777,0,0,-0.35277777,139.01806,198.87833)"
         id="g5043"
         style="fill:#ffffff">
        <path
           inkscape:connector-curvature="0"
           id="path5045"
           style="fill:#ffffff;fill-opacity:1;fill-rule:nonzero;stroke:none"
           d="M 0,0 C -0.08,1.247 -0.863,1.791 -1.711,1.791 -2.718,1.791 -3.518,1.279 -3.613,0 Z m -5.484,-0.832 c 0,2.671 1.487,4.27 3.773,4.27 1.967,0 3.566,-1.215 3.566,-3.838 0,-0.335 -0.015,-0.784 -0.064,-1.151 H -3.63 c 0.065,-1.199 0.943,-1.919 1.919,-1.919 0.72,0 1.296,0.272 1.728,0.847 l 1.182,-1.215 c -0.638,-0.767 -1.598,-1.279 -2.91,-1.279 -2.318,0 -3.773,1.599 -3.773,4.285" />
      </g>
      <g
         transform="matrix(0.35277777,0,0,-0.35277777,140.33992,199.94457)"
         id="g5047"
         style="fill:#ffffff">
        <path
           inkscape:connector-curvature="0"
           id="path5049"
           style="fill:#ffffff;fill-opacity:1;fill-rule:nonzero;stroke:none"
           d="M 0,0 V 4.638 H -1.216 V 6.269 H 0 V 8.747 L 1.871,9.643 V 6.269 H 3.758 V 4.638 H 1.871 v -4.27 c 0,-0.464 0.192,-0.784 0.688,-0.784 0.415,0 0.847,0.128 1.279,0.368 L 3.614,-1.727 C 3.15,-1.967 2.574,-2.095 1.902,-2.095 0.56,-2.095 0,-1.295 0,0" />
      </g>
      <g
         transform="matrix(0.35277777,0,0,-0.35277777,145.17513,200.61587)"
         id="g5051"
         style="fill:#ffffff">
        <path
           inkscape:connector-curvature="0"
           id="path5053"
           style="fill:#ffffff;fill-opacity:1;fill-rule:nonzero;stroke:none"
           d="M 0,0 V 5.949 C 0,6.349 0.031,6.988 0.063,7.292 -0.08,6.86 -0.288,6.316 -0.448,5.917 L -3.166,-0.192 -5.885,5.949 C -6.061,6.333 -6.269,6.86 -6.413,7.292 -6.381,6.988 -6.349,6.349 -6.349,5.949 V 0 h -1.919 v 11.194 h 1.935 L -3.454,4.622 C -3.343,4.35 -3.23,4.046 -3.15,3.79 c 0.08,0.256 0.191,0.56 0.303,0.832 l 2.895,6.572 H 1.919 V 0 Z" />
      </g>
      <g
         transform="matrix(0.35277777,0,0,-0.35277777,148.25745,199.82607)"
         id="g5055"
         style="fill:#ffffff">
        <path
           inkscape:connector-curvature="0"
           id="path5057"
           style="fill:#ffffff;fill-opacity:1;fill-rule:nonzero;stroke:none"
           d="m 0,0 v 1.056 c -0.432,0.207 -1.023,0.335 -1.631,0.335 -0.928,0 -1.679,-0.32 -1.679,-1.103 0,-0.64 0.512,-1.072 1.487,-1.072 0.8,0 1.408,0.352 1.823,0.784 m 0,-1.583 c -0.399,-0.416 -1.087,-0.848 -2.175,-0.848 -1.679,0 -2.958,0.928 -2.958,2.719 0,1.887 1.583,2.702 3.198,2.702 0.768,0 1.423,-0.143 1.935,-0.431 V 2.99 c 0,1.072 -0.527,1.488 -1.599,1.488 -0.992,0 -1.743,-0.289 -2.43,-0.768 l -0.576,1.519 c 0.735,0.496 1.823,0.896 3.198,0.896 1.439,0 3.23,-0.352 3.23,-3.103 V -2.239 H 0 Z" />
      </g>
      <g
         transform="matrix(0.35277777,0,0,-0.35277777,151.39559,199.17735)"
         id="g5059"
         style="fill:#ffffff">
        <path
           inkscape:connector-curvature="0"
           id="path5061"
           style="fill:#ffffff;fill-opacity:1;fill-rule:nonzero;stroke:none"
           d="m 0,0 c 0,1.487 -0.624,2.511 -1.775,2.511 -0.736,0 -1.247,-0.304 -1.583,-0.8 v -3.39 c 0.288,-0.416 0.831,-0.8 1.583,-0.8 C -0.64,-2.479 0,-1.599 0,0 M -3.358,-3.422 V -6.428 L -5.229,-7.292 V 4.094 h 1.871 V 3.47 c 0.399,0.48 0.991,0.816 1.871,0.816 2.03,0 3.358,-1.552 3.358,-4.286 0,-2.687 -1.392,-4.27 -3.375,-4.27 -0.879,0 -1.471,0.368 -1.854,0.848" />
      </g>
      <g
         transform="matrix(0.35277777,0,0,-0.35277777,131.62207,193.09415)"
         id="g5063"
         style="fill:#ffffff">
        <path
           inkscape:connector-curvature="0"
           id="path5065"
           style="fill:#ffffff;fill-opacity:1;fill-rule:nonzero;stroke:none"
           d="M 0,0 10.731,-3.429 15.379,-3.308 13.821,1.598 4.938,0.669 -1.6,3.558 -6.352,-1.194 Z" />
      </g>
      <g
         transform="matrix(0.35277777,0,0,-0.35277777,136.0124,190.55281)"
         id="g5067"
         style="fill:#ffffff">
        <path
           inkscape:connector-curvature="0"
           id="path5069"
           style="fill:#ffffff;fill-opacity:1;fill-rule:nonzero;stroke:none"
           d="m 0,0 c -3.561,0 -7.055,1.031 -10.039,2.934 l -0.09,-0.09 0.024,-1.53 0.016,-1.004 -0.71,-0.71 -0.644,-0.644 4.362,-2.087 11.862,1.507 v 0 l 2.169,-8.827 4.926,0.142 -3.413,8.211 0.964,4.682 C 6.656,0.953 3.441,0 0,0" />
      </g>
      <g
         transform="matrix(0.35277777,0,0,-0.35277777,129.56767,187.55787)"
         id="g5071"
         style="fill:#ffffff">
        <path
           inkscape:connector-curvature="0"
           id="path5073"
           style="fill:#ffffff;fill-opacity:1;fill-rule:nonzero;stroke:none"
           d="m 0,0 1.004,-0.016 1.53,-0.023 0.073,0.072 c -1.946,3.006 -2.999,6.535 -2.999,10.137 0,5.709 2.583,10.821 6.636,14.247 l -0.041,0.015 -8.176,-3.111 -2.338,-5.708 2.607,-6.132 -4.223,-8.105 -6.361,2.019 4.18,-7.641 -1.761,-5.624 9.159,9.16 z" />
      </g>
      <g
         transform="matrix(0.35277777,0,0,-0.35277777,125.12334,185.33922)"
         id="g5075"
         style="fill:#ffffff">
        <path
           inkscape:connector-curvature="0"
           id="path5077"
           style="fill:#ffffff;fill-opacity:1;fill-rule:nonzero;stroke:none"
           d="m 0,0 5.621,-1.784 2.237,5.302 -2.315,5.447 2.38,6.007 -8.319,3.171 3.655,-9.591 z" />
      </g>
      <g
         transform="matrix(0.35277777,0,0,-0.35277777,136.01183,179.90633)"
         id="g5079"
         style="fill:#ffffff">
        <path
           inkscape:connector-curvature="0"
           id="path5081"
           style="fill:#ffffff;fill-opacity:1;fill-rule:nonzero;stroke:none"
           d="m 0,0 c 6.352,0 11.519,-5.168 11.519,-11.52 0,-6.351 -5.167,-11.519 -11.519,-11.519 -6.352,0 -11.52,5.168 -11.52,11.519 C -11.52,-5.168 -6.352,0 0,0 m -12.475,-28.902 -0.039,2.534 2.225,2.226 c 2.899,-2.365 6.544,-3.665 10.291,-3.665 8.98,0 16.287,7.306 16.287,16.287 C 16.287,-2.539 8.981,4.768 0,4.768 c -8.981,0 -16.287,-7.306 -16.287,-16.287 0,-3.788 1.326,-7.463 3.74,-10.378 l -2.219,-2.219 -2.534,0.04 -13.832,-13.833 4.824,-4.825 z" />
      </g>
    </g>
  </g>
</svg>
