<?xml version="1.0" encoding="UTF-8" standalone="no"?>
<!-- Created with Inkscape (http://www.inkscape.org/) -->

<svg
   xmlns:dc="http://purl.org/dc/elements/1.1/"
   xmlns:cc="http://creativecommons.org/ns#"
   xmlns:rdf="http://www.w3.org/1999/02/22-rdf-syntax-ns#"
   xmlns:svg="http://www.w3.org/2000/svg"
   xmlns="http://www.w3.org/2000/svg"
   xmlns:sodipodi="http://sodipodi.sourceforge.net/DTD/sodipodi-0.dtd"
   xmlns:inkscape="http://www.inkscape.org/namespaces/inkscape"
   width="26.522362mm"
   height="26.522627mm"
   viewBox="0 0 26.522362 26.522627"
   version="1.1"
   id="svg911"
   inkscape:version="0.92.1 r"
   sodipodi:docname="icon-lightblue.svg">
  <defs
     id="defs905" />
  <sodipodi:namedview
     id="base"
     pagecolor="#ffffff"
     bordercolor="#666666"
     borderopacity="1.0"
     inkscape:pageopacity="0.0"
     inkscape:pageshadow="2"
     inkscape:zoom="0.35"
     inkscape:cx="-105.37831"
     inkscape:cy="463.19415"
     inkscape:document-units="mm"
     inkscape:current-layer="layer1"
     showgrid="false"
     fit-margin-top="0"
     fit-margin-left="0"
     fit-margin-right="0"
     fit-margin-bottom="0"
     inkscape:window-width="1366"
     inkscape:window-height="744"
     inkscape:window-x="0"
     inkscape:window-y="0"
     inkscape:window-maximized="1" />
  <metadata
     id="metadata908">
    <rdf:RDF>
      <cc:Work
         rdf:about="">
        <dc:format>image/svg+xml</dc:format>
        <dc:type
           rdf:resource="http://purl.org/dc/dcmitype/StillImage" />
        <dc:title></dc:title>
      </cc:Work>
    </rdf:RDF>
  </metadata>
  <g
     inkscape:label="Layer 1"
     inkscape:groupmode="layer"
     id="layer1"
     transform="translate(-7.4706293,-244.86416)">
    <g
       id="g20"
       transform="matrix(0.26458333,0,0,0.26458333,7.4706293,244.86416)">
      <g
         id="g18">
        <g
           id="g4">
          <path
             style="fill:#4f94c1"
             inkscape:connector-curvature="0"
             d="m 52.553,32.792 c 3.826,0.197 7.29,1.759 9.916,4.211 0.225,0.21 0.442,0.429 0.654,0.651 0.691,0.666 1.309,1.406 1.839,2.211 l 10e-4,-0.001 0.041,0.068 c 0.143,0.22 0.279,0.444 0.408,0.672 l 34.829,51.061 V 0 0 Z"
             id="path2" />
        </g>
        <g
           id="g8">
          <path
             style="fill:#4f94c1"
             inkscape:connector-curvature="0"
             d="m 47.689,67.45 c -3.826,-0.197 -7.29,-1.759 -9.916,-4.21 -0.225,-0.21 -0.442,-0.429 -0.655,-0.651 -0.691,-0.666 -1.309,-1.406 -1.839,-2.211 l -0.001,10e-4 -0.041,-0.068 c -0.143,-0.22 -0.279,-0.444 -0.408,-0.672 L 0,8.578 v 91.665 0 z"
             id="path6" />
        </g>
        <g
           id="g12">
          <path
             style="fill:#4f94c1"
             inkscape:connector-curvature="0"
             d="m 32.792,47.689 c 0.197,-3.826 1.759,-7.29 4.21,-9.916 0.21,-0.225 0.429,-0.442 0.651,-0.654 0.666,-0.691 1.406,-1.31 2.211,-1.839 l -10e-4,-10e-4 0.068,-0.041 c 0.22,-0.143 0.444,-0.279 0.672,-0.408 L 91.665,0 H 0 v 0 z"
             id="path10" />
        </g>
        <g
           id="g16">
          <path
             style="fill:#4f94c1"
             inkscape:connector-curvature="0"
             d="m 67.45,52.553 c -0.197,3.826 -1.76,7.29 -4.21,9.916 -0.21,0.225 -0.429,0.442 -0.651,0.654 -0.666,0.691 -1.406,1.309 -2.211,1.839 l 10e-4,10e-4 -0.068,0.041 c -0.22,0.143 -0.444,0.279 -0.672,0.408 l -51.062,34.83 h 91.665 v 0 z"
             id="path14" />
        </g>
      </g>
    </g>
  </g>
</svg>
