<?xml version="1.0" encoding="UTF-8" standalone="no"?>
<!-- Created with Inkscape (http://www.inkscape.org/) -->

<svg
   xmlns:dc="http://purl.org/dc/elements/1.1/"
   xmlns:cc="http://creativecommons.org/ns#"
   xmlns:rdf="http://www.w3.org/1999/02/22-rdf-syntax-ns#"
   xmlns:svg="http://www.w3.org/2000/svg"
   xmlns="http://www.w3.org/2000/svg"
   xmlns:sodipodi="http://sodipodi.sourceforge.net/DTD/sodipodi-0.dtd"
   xmlns:inkscape="http://www.inkscape.org/namespaces/inkscape"
   width="26.444046mm"
   height="26.444046mm"
   viewBox="0 0 26.444046 26.444046"
   version="1.1"
   id="svg911"
   inkscape:version="0.92.1 r"
   sodipodi:docname="icon-color.svg">
  <defs
     id="defs905" />
  <sodipodi:namedview
     id="base"
     pagecolor="#ffffff"
     bordercolor="#666666"
     borderopacity="1.0"
     inkscape:pageopacity="0.0"
     inkscape:pageshadow="2"
     inkscape:zoom="0.35"
     inkscape:cx="-430.027"
     inkscape:cy="281.40159"
     inkscape:document-units="mm"
     inkscape:current-layer="layer1"
     showgrid="false"
     fit-margin-top="0"
     fit-margin-left="0"
     fit-margin-right="0"
     fit-margin-bottom="0"
     inkscape:window-width="1366"
     inkscape:window-height="744"
     inkscape:window-x="0"
     inkscape:window-y="0"
     inkscape:window-maximized="1" />
  <metadata
     id="metadata908">
    <rdf:RDF>
      <cc:Work
         rdf:about="">
        <dc:format>image/svg+xml</dc:format>
        <dc:type
           rdf:resource="http://purl.org/dc/dcmitype/StillImage" />
        <dc:title></dc:title>
      </cc:Work>
    </rdf:RDF>
  </metadata>
  <g
     inkscape:label="Layer 1"
     inkscape:groupmode="layer"
     id="layer1"
     transform="translate(-93.367263,-196.84346)">
    <g
       transform="matrix(0.26458333,0,0,0.26458333,93.367263,196.8043)"
       id="Layer_2_2_">
      <g
         id="g36">
        <g
           id="g34">
          <g
             id="g4">
            <path
               style="fill:#6cb5dd"
               inkscape:connector-curvature="0"
               d="m 50.818,33.93 c 3.942,0.203 7.51,1.813 10.215,4.338 0.232,0.216 0.455,0.442 0.674,0.671 0.712,0.686 1.349,1.449 1.895,2.278 l 0.002,-10e-4 0.043,0.07 c 0.147,0.226 0.287,0.457 0.421,0.692 L 99.946,94.58 v -94.432 0 z"
               id="path2" />
          </g>
          <g
             id="g8">
            <path
               style="fill:#65a6ca"
               inkscape:connector-curvature="0"
               d="M 99.946,94.579 64.067,41.977 c -0.133,-0.235 -0.274,-0.466 -0.421,-0.692 l -0.043,-0.07 -0.002,10e-4 c -0.546,-0.829 -1.183,-1.591 -1.895,-2.278 2.774,2.909 4.482,6.845 4.482,11.182 0,0.261 -0.007,0.519 -0.02,0.777 -0.001,0.022 -0.004,0.045 -0.005,0.068 l 33.782,49.128 v 0 0 z"
               id="path6" />
          </g>
          <g
             id="g12">
            <path
               style="fill:#2f7aa2"
               inkscape:connector-curvature="0"
               d="M 49.128,66.313 C 45.186,66.11 41.618,64.5 38.913,61.975 38.681,61.759 38.458,61.533 38.239,61.304 37.527,60.618 36.89,59.855 36.344,59.026 l -0.002,10e-4 -0.043,-0.07 C 36.152,58.731 36.012,58.5 35.878,58.265 L 0,5.663 v 94.431 0 z"
               id="path10" />
          </g>
          <g
             id="g16">
            <path
               style="fill:#2e7195"
               inkscape:connector-curvature="0"
               d="m 36.3,58.958 0.043,0.07 0.002,-10e-4 c 0.546,0.829 1.183,1.591 1.895,2.278 -2.775,-2.909 -4.482,-6.845 -4.482,-11.183 0,-0.261 0.007,-0.519 0.02,-0.777 v 0 c 0.001,-0.022 0.004,-0.045 0.005,-0.067 L 0,0.148 v 0 0 5.515 0 l 35.879,52.602 c 0.134,0.235 0.274,0.466 0.421,0.693 z"
               id="path14" />
          </g>
          <g
             id="g20">
            <path
               style="fill:#4f94c1"
               inkscape:connector-curvature="0"
               d="m 33.782,49.276 c 0.203,-3.942 1.813,-7.51 4.337,-10.215 0.216,-0.232 0.442,-0.455 0.671,-0.674 0.686,-0.712 1.449,-1.349 2.278,-1.895 l -10e-4,-0.002 0.07,-0.043 C 41.363,36.3 41.594,36.16 41.829,36.026 L 94.431,0.148 H 0 v 0 z"
               id="path18" />
          </g>
          <g
             id="g24">
            <path
               style="fill:#4b88b1"
               inkscape:connector-curvature="0"
               d="m 41.137,36.448 -0.07,0.043 10e-4,0.002 c -0.829,0.546 -1.592,1.183 -2.278,1.895 2.909,-2.775 6.845,-4.482 11.183,-4.482 0.261,0 0.519,0.007 0.777,0.02 0.022,10e-4 0.045,0.004 0.067,0.005 L 99.946,0.148 v 0 h -5.515 l -52.602,35.88 c -0.235,0.133 -0.466,0.273 -0.692,0.42 z"
               id="path22" />
          </g>
          <g
             id="g28">
            <path
               style="fill:#a3c8e9"
               inkscape:connector-curvature="0"
               d="m 66.165,50.966 c -0.203,3.942 -1.813,7.51 -4.338,10.215 -0.216,0.232 -0.441,0.455 -0.671,0.674 -0.686,0.712 -1.449,1.349 -2.278,1.895 l 10e-4,0.002 -0.07,0.043 c -0.226,0.147 -0.457,0.287 -0.692,0.421 L 5.515,100.094 h 94.431 v 0 z"
               id="path26" />
          </g>
          <g
             id="g32">
            <path
               style="fill:#96b7d5"
               inkscape:connector-curvature="0"
               d="m 58.809,63.794 0.07,-0.043 -10e-4,-0.002 c 0.829,-0.546 1.592,-1.183 2.278,-1.895 -2.909,2.775 -6.845,4.482 -11.183,4.482 -0.261,0 -0.519,-0.007 -0.777,-0.02 v 0 C 49.174,66.315 49.151,66.312 49.129,66.311 L 0,100.094 v 0 H 5.515 L 58.117,64.215 c 0.235,-0.134 0.466,-0.274 0.692,-0.421 z"
               id="path30" />
          </g>
        </g>
      </g>
    </g>
  </g>
</svg>
