<?xml version="1.0" encoding="UTF-8" standalone="no"?>
<!-- Created with Inkscape (http://www.inkscape.org/) -->

<svg
   xmlns:dc="http://purl.org/dc/elements/1.1/"
   xmlns:cc="http://creativecommons.org/ns#"
   xmlns:rdf="http://www.w3.org/1999/02/22-rdf-syntax-ns#"
   xmlns:svg="http://www.w3.org/2000/svg"
   xmlns="http://www.w3.org/2000/svg"
   xmlns:sodipodi="http://sodipodi.sourceforge.net/DTD/sodipodi-0.dtd"
   xmlns:inkscape="http://www.inkscape.org/namespaces/inkscape"
   width="21.522795mm"
   height="26.602266mm"
   viewBox="0 0 21.522795 26.602266"
   version="1.1"
   id="svg4619"
   inkscape:version="0.92.1 r"
   sodipodi:docname="Icon.svg">
  <defs
     id="defs4613">
    <radialGradient
       id="SVGID_3_"
       cx="23.6667"
       cy="25.6667"
       r="166.03081"
       gradientUnits="userSpaceOnUse">
      <stop
         offset="0"
         style="stop-color:#FFFFFF;stop-opacity:0.1"
         id="stop52" />
      <stop
         offset="1"
         style="stop-color:#FFFFFF;stop-opacity:0"
         id="stop54" />
    </radialGradient>
    <radialGradient
       id="SVGID_3_-3"
       cx="23.6667"
       cy="25.6667"
       r="166.03081"
       gradientUnits="userSpaceOnUse">
      <stop
         offset="0"
         style="stop-color:#FFFFFF;stop-opacity:0.1"
         id="stop52-6" />
      <stop
         offset="1"
         style="stop-color:#FFFFFF;stop-opacity:0"
         id="stop54-7" />
    </radialGradient>
  </defs>
  <sodipodi:namedview
     id="base"
     pagecolor="#ffffff"
     bordercolor="#666666"
     borderopacity="1.0"
     inkscape:pageopacity="0.0"
     inkscape:pageshadow="2"
     inkscape:zoom="0.98994949"
     inkscape:cx="7.8115369"
     inkscape:cy="214.34545"
     inkscape:document-units="mm"
     inkscape:current-layer="layer1"
     showgrid="false"
     fit-margin-top="0"
     fit-margin-left="0"
     fit-margin-right="0"
     fit-margin-bottom="0"
     inkscape:window-width="1366"
     inkscape:window-height="744"
     inkscape:window-x="0"
     inkscape:window-y="0"
     inkscape:window-maximized="1" />
  <metadata
     id="metadata4616">
    <rdf:RDF>
      <cc:Work
         rdf:about="">
        <dc:format>image/svg+xml</dc:format>
        <dc:type
           rdf:resource="http://purl.org/dc/dcmitype/StillImage" />
        <dc:title></dc:title>
      </cc:Work>
    </rdf:RDF>
  </metadata>
  <g
     inkscape:label="Layer 1"
     inkscape:groupmode="layer"
     id="layer1"
     transform="translate(-143.59877,-212.00829)">
    <g
       id="g8"
       transform="matrix(0.26458333,0,0,0.26458333,143.59877,212.00829)">
      <g
         id="g6">
        <path
           style="fill:#ff047b"
           inkscape:connector-curvature="0"
           d="M 64.781,40.673 H 81.346 L 40.673,0 0,40.673 H 16.565 V 59.871 H 0 L 40.673,100.544 81.346,59.871 H 64.781 Z M 40.673,76.198 c -9.546,0 -17.284,-7.738 -17.284,-17.284 0,-10.803 17.284,-34.568 17.284,-34.568 0,0 17.284,23.766 17.284,34.568 0,9.546 -7.738,17.284 -17.284,17.284 z"
           id="path2" />
        <path
           style="fill:#ff047b"
           inkscape:connector-curvature="0"
           d="m 36.232,67.556 c 0,1.259 1.021,2.28 2.281,2.28 7.214,0 13.083,-5.869 13.083,-13.083 0,-1.259 -1.021,-2.28 -2.281,-2.28 -1.26,0 -2.28,1.021 -2.28,2.28 0,4.699 -3.823,8.522 -8.522,8.522 -1.26,10e-4 -2.281,1.022 -2.281,2.281 z"
           id="path4" />
      </g>
    </g>
  </g>
</svg>
