<?xml version="1.0" encoding="UTF-8" standalone="no"?>
<!-- Created with Inkscape (http://www.inkscape.org/) -->

<svg
   xmlns:dc="http://purl.org/dc/elements/1.1/"
   xmlns:cc="http://creativecommons.org/ns#"
   xmlns:rdf="http://www.w3.org/1999/02/22-rdf-syntax-ns#"
   xmlns:svg="http://www.w3.org/2000/svg"
   xmlns="http://www.w3.org/2000/svg"
   xmlns:sodipodi="http://sodipodi.sourceforge.net/DTD/sodipodi-0.dtd"
   xmlns:inkscape="http://www.inkscape.org/namespaces/inkscape"
   width="73.357841mm"
   height="52.816387mm"
   viewBox="0 0 73.357842 52.816387"
   version="1.1"
   id="svg4619"
   inkscape:version="0.92.1 r"
   sodipodi:docname="Vertical.svg">
  <defs
     id="defs4613">
    <radialGradient
       id="SVGID_3_"
       cx="23.6667"
       cy="25.6667"
       r="166.03081"
       gradientUnits="userSpaceOnUse">
      <stop
         offset="0"
         style="stop-color:#FFFFFF;stop-opacity:0.1"
         id="stop52" />
      <stop
         offset="1"
         style="stop-color:#FFFFFF;stop-opacity:0"
         id="stop54" />
    </radialGradient>
    <radialGradient
       id="SVGID_3_-3"
       cx="23.6667"
       cy="25.6667"
       r="166.03081"
       gradientUnits="userSpaceOnUse">
      <stop
         offset="0"
         style="stop-color:#FFFFFF;stop-opacity:0.1"
         id="stop52-6" />
      <stop
         offset="1"
         style="stop-color:#FFFFFF;stop-opacity:0"
         id="stop54-7" />
    </radialGradient>
  </defs>
  <sodipodi:namedview
     id="base"
     pagecolor="#ffffff"
     bordercolor="#666666"
     borderopacity="1.0"
     inkscape:pageopacity="0.0"
     inkscape:pageshadow="2"
     inkscape:zoom="0.98994949"
     inkscape:cx="65.628331"
     inkscape:cy="251.52648"
     inkscape:document-units="mm"
     inkscape:current-layer="layer1"
     showgrid="false"
     fit-margin-top="0"
     fit-margin-left="0"
     fit-margin-right="0"
     fit-margin-bottom="0"
     inkscape:window-width="1366"
     inkscape:window-height="744"
     inkscape:window-x="0"
     inkscape:window-y="0"
     inkscape:window-maximized="1" />
  <metadata
     id="metadata4616">
    <rdf:RDF>
      <cc:Work
         rdf:about="">
        <dc:format>image/svg+xml</dc:format>
        <dc:type
           rdf:resource="http://purl.org/dc/dcmitype/StillImage" />
        <dc:title></dc:title>
      </cc:Work>
    </rdf:RDF>
  </metadata>
  <g
     inkscape:label="Layer 1"
     inkscape:groupmode="layer"
     id="layer1"
     transform="translate(-128.30141,-227.70399)">
    <g
       id="g18"
       transform="matrix(0.26458333,0,0,0.26458333,128.30141,227.70399)">
      <path
         style="fill:#ff047b"
         inkscape:connector-curvature="0"
         d="m 20.283,172.107 h 18.975 v 24.798 c -3.075,1.003 -5.97,1.707 -8.686,2.11 -2.715,0.403 -5.491,0.605 -8.326,0.605 -7.219,0 -12.732,-2.121 -16.538,-6.363 C 1.902,189.016 0,182.925 0,174.986 c 0,-7.721 2.208,-13.74 6.625,-18.059 4.417,-4.318 10.54,-6.478 18.37,-6.478 4.907,0 9.64,0.981 14.198,2.944 l -3.37,8.113 c -3.49,-1.745 -7.121,-2.617 -10.894,-2.617 -4.384,0 -7.896,1.472 -10.534,4.417 -2.639,2.944 -3.958,6.903 -3.958,11.875 0,5.191 1.063,9.155 3.189,11.892 2.127,2.737 5.218,4.105 9.275,4.105 2.115,0 4.264,-0.218 6.445,-0.654 v -9.978 h -9.062 v -8.439 z"
         id="path2" />
      <path
         style="fill:#ff047b"
         inkscape:connector-curvature="0"
         d="m 59.835,198.966 h -9.978 v -50.904 h 9.978 z"
         id="path4" />
      <path
         style="fill:#ff047b"
         inkscape:connector-curvature="0"
         d="m 96.214,198.966 -1.341,-4.678 H 94.35 c -1.069,1.701 -2.584,3.016 -4.547,3.942 -1.963,0.927 -4.199,1.391 -6.707,1.391 -4.297,0 -7.536,-1.15 -9.716,-3.451 -2.181,-2.301 -3.271,-5.611 -3.271,-9.929 v -23.849 h 9.978 v 21.363 c 0,2.639 0.469,4.619 1.407,5.938 0.938,1.32 2.432,1.979 4.482,1.979 2.792,0 4.809,-0.932 6.052,-2.797 1.243,-1.864 1.865,-4.956 1.865,-9.274 v -17.208 h 9.978 v 36.575 h -7.657 z"
         id="path6" />
      <path
         style="fill:#ff047b"
         inkscape:connector-curvature="0"
         d="m 129.191,199.62 c -11.385,0 -17.077,-6.249 -17.077,-18.746 0,-6.216 1.548,-10.964 4.646,-14.248 3.097,-3.282 7.535,-4.923 13.315,-4.923 4.231,0 8.026,0.829 11.385,2.486 l -2.944,7.721 c -1.57,-0.632 -3.032,-1.15 -4.384,-1.554 -1.353,-0.403 -2.705,-0.605 -4.057,-0.605 -5.191,0 -7.786,3.686 -7.786,11.058 0,7.154 2.595,10.73 7.786,10.73 1.919,0 3.697,-0.256 5.333,-0.769 1.636,-0.512 3.271,-1.313 4.907,-2.404 v 8.539 c -1.614,1.025 -3.245,1.734 -4.891,2.126 -1.648,0.393 -3.725,0.589 -6.233,0.589 z"
         id="path8" />
      <path
         style="fill:#ff047b"
         inkscape:connector-curvature="0"
         d="m 182.025,180.613 c 0,5.954 -1.57,10.611 -4.711,13.969 -3.141,3.359 -7.514,5.038 -13.119,5.038 -3.512,0 -6.608,-0.769 -9.291,-2.307 -2.683,-1.537 -4.744,-3.746 -6.183,-6.625 -1.439,-2.879 -2.159,-6.237 -2.159,-10.076 0,-5.976 1.559,-10.621 4.678,-13.937 3.119,-3.315 7.502,-4.973 13.151,-4.973 3.511,0 6.608,0.764 9.291,2.29 2.683,1.527 4.744,3.719 6.183,6.576 1.441,2.859 2.16,6.207 2.16,10.045 z m -25.288,0 c 0,3.621 0.594,6.358 1.783,8.211 1.188,1.854 3.125,2.781 5.807,2.781 2.661,0 4.574,-0.921 5.742,-2.764 1.166,-1.843 1.75,-4.585 1.75,-8.228 0,-3.62 -0.589,-6.335 -1.767,-8.146 -1.178,-1.81 -3.108,-2.715 -5.791,-2.715 -2.661,0 -4.58,0.9 -5.758,2.699 -1.177,1.799 -1.766,4.52 -1.766,8.162 z"
         id="path10" />
      <path
         style="fill:#ff047b"
         inkscape:connector-curvature="0"
         d="m 215.787,188.105 c 0,3.751 -1.304,6.608 -3.909,8.571 -2.607,1.963 -6.505,2.944 -11.696,2.944 -2.661,0 -4.929,-0.18 -6.805,-0.54 -1.876,-0.359 -3.631,-0.888 -5.267,-1.586 v -8.244 c 1.854,0.873 3.942,1.603 6.265,2.192 2.323,0.589 4.368,0.883 6.134,0.883 3.62,0 5.431,-1.047 5.431,-3.141 0,-0.785 -0.24,-1.423 -0.72,-1.914 -0.48,-0.491 -1.309,-1.047 -2.486,-1.669 -1.178,-0.621 -2.748,-1.346 -4.711,-2.175 -2.813,-1.178 -4.88,-2.268 -6.2,-3.271 -1.32,-1.003 -2.279,-2.153 -2.879,-3.452 -0.6,-1.297 -0.899,-2.895 -0.899,-4.792 0,-3.25 1.26,-5.763 3.778,-7.541 2.52,-1.777 6.09,-2.667 10.714,-2.667 4.405,0 8.691,0.96 12.857,2.879 l -3.01,7.197 c -1.832,-0.785 -3.544,-1.428 -5.136,-1.93 -1.592,-0.501 -3.217,-0.752 -4.875,-0.752 -2.944,0 -4.417,0.796 -4.417,2.388 0,0.895 0.474,1.668 1.423,2.323 0.948,0.654 3.026,1.625 6.232,2.912 2.857,1.156 4.951,2.236 6.282,3.239 1.329,1.003 2.311,2.159 2.943,3.468 0.632,1.309 0.951,2.868 0.951,4.678 z"
         id="path12" />
      <path
         style="fill:#ff047b"
         inkscape:connector-curvature="0"
         d="m 223.147,152.936 c 0,-3.25 1.811,-4.875 5.432,-4.875 3.619,0 5.43,1.625 5.43,4.875 0,1.549 -0.452,2.754 -1.357,3.615 -0.905,0.862 -2.263,1.292 -4.072,1.292 -3.622,0.001 -5.433,-1.635 -5.433,-4.907 z m 10.405,46.03 h -9.979 v -36.575 h 9.979 z"
         id="path14" />
      <path
         style="fill:#ff047b"
         inkscape:connector-curvature="0"
         d="m 277.258,180.613 c 0,5.954 -1.57,10.611 -4.711,13.969 -3.141,3.359 -7.514,5.038 -13.119,5.038 -3.512,0 -6.607,-0.769 -9.291,-2.307 -2.682,-1.537 -4.743,-3.746 -6.183,-6.625 -1.44,-2.879 -2.159,-6.237 -2.159,-10.076 0,-5.976 1.559,-10.621 4.678,-13.937 3.119,-3.315 7.503,-4.973 13.152,-4.973 3.511,0 6.607,0.764 9.291,2.29 2.682,1.527 4.743,3.719 6.183,6.576 1.439,2.859 2.159,6.207 2.159,10.045 z m -25.289,0 c 0,3.621 0.595,6.358 1.783,8.211 1.188,1.854 3.125,2.781 5.807,2.781 2.661,0 4.575,-0.921 5.742,-2.764 1.166,-1.843 1.75,-4.585 1.75,-8.228 0,-3.62 -0.589,-6.335 -1.767,-8.146 -1.178,-1.81 -3.108,-2.715 -5.79,-2.715 -2.662,0 -4.58,0.9 -5.758,2.699 -1.177,1.799 -1.767,4.52 -1.767,8.162 z"
         id="path16" />
    </g>
    <g
       id="g24"
       transform="matrix(0.26458333,0,0,0.26458333,128.30141,227.70399)">
      <path
         style="fill:#ff047b"
         inkscape:connector-curvature="0"
         d="m 169.055,51.333 h 20.907 L 138.629,0 87.296,51.333 h 20.907 V 75.562 H 87.296 l 51.333,51.333 51.333,-51.333 h -20.907 z m -30.426,44.836 c -12.048,0 -21.814,-9.766 -21.814,-21.814 0,-13.634 21.814,-43.628 21.814,-43.628 0,0 21.814,29.994 21.814,43.628 0,12.048 -9.767,21.814 -21.814,21.814 z"
         id="path20" />
      <path
         style="fill:#ff047b"
         inkscape:connector-curvature="0"
         d="m 133.024,85.262 c 0,1.59 1.289,2.878 2.878,2.878 9.105,0 16.512,-7.407 16.512,-16.512 0,-1.59 -1.288,-2.878 -2.878,-2.878 -1.59,0 -2.878,1.289 -2.878,2.878 0,5.931 -4.825,10.756 -10.756,10.756 -1.59,0 -2.878,1.288 -2.878,2.878 z"
         id="path22" />
    </g>
  </g>
</svg>
