<?xml version="1.0" encoding="utf-8"?>
<!-- Generator: Adobe Illustrator 17.0.0, SVG Export Plug-In . SVG Version: 6.00 Build 0)  -->
<!DOCTYPE svg PUBLIC "-//W3C//DTD SVG 1.1//EN" "http://www.w3.org/Graphics/SVG/1.1/DTD/svg11.dtd">
<svg version="1.1" id="Layer_1" xmlns="http://www.w3.org/2000/svg" xmlns:xlink="http://www.w3.org/1999/xlink" x="0px" y="0px"
	 width="346.596px" height="184.541px" viewBox="0 0 346.596 184.541" enable-background="new 0 0 346.596 184.541"
	 xml:space="preserve">
<g>
	<g>
		<path fill="#FFFFFF" d="M18.219,144.221c1.903,0,3.667,0.35,5.292,1.05c1.624,0.701,3.037,1.652,4.242,2.856
			c1.204,1.205,2.155,2.619,2.856,4.242c0.7,1.625,1.05,3.389,1.05,5.292v26.04l-0.84,0.84h-1.68l-3.36-3.36
			c-1.457,1.121-2.969,1.961-4.536,2.52c-1.568,0.56-3.416,0.84-5.544,0.84h-4.2c-1.68,0-3.234-0.294-4.662-0.882
			c-1.428-0.588-2.675-1.414-3.738-2.478c-1.064-1.063-1.89-2.31-2.478-3.738c-0.588-1.428-0.882-2.982-0.882-4.662
			c0-1.624,0.28-3.136,0.84-4.536c0.559-1.399,1.344-2.617,2.352-3.654c1.008-1.035,2.197-1.875,3.57-2.52
			c1.372-0.643,2.869-0.993,4.494-1.05H24.1v-3.36c0-1.68-0.561-3.079-1.68-4.2c-1.121-1.12-2.52-1.68-4.2-1.68h-5.04
			c-1.064,0-1.96,0.126-2.688,0.378c-0.728,0.252-1.358,0.56-1.89,0.924c-0.533,0.365-0.966,0.743-1.302,1.134
			c-0.336,0.393-0.617,0.701-0.84,0.924H5.62l-3.36-4.2v-1.68l1.68-1.68c0.84-0.84,2.169-1.609,3.99-2.31
			c1.819-0.7,3.57-1.05,5.25-1.05H18.219z M11.416,168.581c-1.176,0-2.157,0.393-2.94,1.176c-0.785,0.785-1.176,1.821-1.176,3.108
			c0,1.176,0.378,2.156,1.134,2.94c0.756,0.785,1.75,1.176,2.982,1.176h4.284c2.52,0,4.549-0.769,6.09-2.31
			c1.54-1.54,2.31-3.57,2.31-6.09H11.416z"/>
		<path fill="#FFFFFF" d="M46.526,183.491c-1.625-0.7-3.039-1.651-4.242-2.856c-1.205-1.204-2.156-2.617-2.856-4.242
			c-0.701-1.624-1.05-3.388-1.05-5.292v-37.8l5.04-2.52h1.68l0.84,0.84v39.48c0,1.68,0.56,3.081,1.68,4.2
			c1.12,1.121,2.52,1.68,4.2,1.68h4.2l0.84,0.84v5.88l-0.84,0.84h-4.2C49.914,184.541,48.15,184.192,46.526,183.491z"/>
		<path fill="#FFFFFF" d="M76.178,184.541c-2.129,0-3.99-0.322-5.586-0.966c-1.596-0.643-3.066-1.525-4.41-2.646l-3.444,3.612h-1.68
			l-0.84-0.84v-52.08l0.84-0.84h5.88l0.84,0.84v12.6l-1.596,2.52l0.756,0.84l0.84-0.84c1.288-0.84,2.59-1.47,3.906-1.89
			c1.315-0.42,2.814-0.63,4.494-0.63h1.68c1.903,0,3.667,0.35,5.292,1.05c1.624,0.701,3.037,1.652,4.242,2.856
			c1.204,1.205,2.155,2.619,2.856,4.242c0.7,1.625,1.05,3.389,1.05,5.292v13.44c0,1.904-0.35,3.668-1.05,5.292
			c-0.701,1.625-1.652,3.039-2.856,4.242c-1.205,1.205-2.619,2.156-4.242,2.856c-1.625,0.701-3.389,1.05-5.292,1.05H76.178z
			 M76.178,151.781c-1.064,0-2.1,0.21-3.108,0.63c-1.008,0.42-1.904,1.008-2.688,1.764c-0.785,0.756-1.415,1.653-1.89,2.688
			c-0.477,1.037-0.714,2.142-0.714,3.318v8.4c0,1.289,0.238,2.436,0.714,3.444c0.475,1.008,1.105,1.89,1.89,2.646
			c0.784,0.756,1.68,1.331,2.688,1.722c1.008,0.393,2.044,0.588,3.108,0.588h1.596c1.68,0,3.094-0.559,4.242-1.68
			c1.147-1.119,1.722-2.52,1.722-4.2v-13.44c0-1.68-0.575-3.079-1.722-4.2c-1.148-1.12-2.562-1.68-4.242-1.68H76.178z"/>
		<path fill="#FFFFFF" d="M113.138,144.221c1.903,0,3.667,0.35,5.292,1.05c1.624,0.701,3.037,1.652,4.242,2.856
			c1.204,1.205,2.155,2.619,2.856,4.242c0.7,1.625,1.05,3.389,1.05,5.292v26.04l-0.84,0.84h-1.68l-3.36-3.36
			c-1.457,1.121-2.969,1.961-4.536,2.52c-1.568,0.56-3.416,0.84-5.544,0.84h-4.2c-1.68,0-3.234-0.294-4.662-0.882
			c-1.428-0.588-2.675-1.414-3.738-2.478c-1.064-1.063-1.89-2.31-2.478-3.738c-0.588-1.428-0.882-2.982-0.882-4.662
			c0-1.624,0.28-3.136,0.84-4.536c0.559-1.399,1.344-2.617,2.352-3.654c1.008-1.035,2.197-1.875,3.57-2.52
			c1.372-0.643,2.869-0.993,4.494-1.05h13.104v-3.36c0-1.68-0.561-3.079-1.68-4.2c-1.121-1.12-2.52-1.68-4.2-1.68h-5.04
			c-1.064,0-1.96,0.126-2.688,0.378c-0.728,0.252-1.358,0.56-1.89,0.924c-0.533,0.365-0.966,0.743-1.302,1.134
			c-0.336,0.393-0.617,0.701-0.84,0.924h-0.84l-3.36-4.2v-1.68l1.68-1.68c0.84-0.84,2.169-1.609,3.99-2.31
			c1.819-0.7,3.57-1.05,5.25-1.05H113.138z M106.334,168.581c-1.176,0-2.157,0.393-2.94,1.176c-0.785,0.785-1.176,1.821-1.176,3.108
			c0,1.176,0.378,2.156,1.134,2.94c0.756,0.785,1.75,1.176,2.982,1.176h4.284c2.52,0,4.549-0.769,6.09-2.31
			c1.54-1.54,2.31-3.57,2.31-6.09H106.334z"/>
		<path fill="#FFFFFF" d="M151.777,144.221c1.903,0,3.667,0.35,5.292,1.05c1.624,0.701,3.037,1.652,4.242,2.856
			c1.204,1.205,2.155,2.619,2.856,4.242c0.7,1.625,1.05,3.389,1.05,5.292v26.04l-0.84,0.84h-5.88l-0.84-0.84v-26.04
			c0-1.68-0.575-3.079-1.722-4.2c-1.148-1.12-2.562-1.68-4.242-1.68h-2.436c-1.064,0-2.1,0.197-3.108,0.588
			c-1.008,0.392-1.904,0.966-2.688,1.722c-0.785,0.756-1.415,1.653-1.89,2.688c-0.477,1.037-0.714,2.171-0.714,3.402v23.52
			l-0.84,0.84h-5.88l-0.84-0.84v-38.64l0.84-0.84h1.68l3.444,3.612c1.344-1.12,2.814-2.001,4.41-2.646
			c1.596-0.643,3.457-0.966,5.586-0.966H151.777z"/>
		<path fill="#FFFFFF" d="M172.776,131.621l0.84-0.84h5.88l0.84,0.84v6.72l-0.84,0.84h-5.88l-0.84-0.84V131.621z M172.776,145.061
			l0.84-0.84h5.88l0.84,0.84v38.64l-0.84,0.84h-5.88l-0.84-0.84V145.061z"/>
		<path fill="#FFFFFF" d="M200.496,184.541c-1.905,0-3.668-0.349-5.292-1.05c-1.625-0.7-3.039-1.651-4.242-2.856
			c-1.205-1.204-2.156-2.617-2.856-4.242c-0.701-1.624-1.05-3.388-1.05-5.292v-13.44c0-1.903,0.349-3.667,1.05-5.292
			c0.7-1.624,1.651-3.037,2.856-4.242c1.204-1.204,2.617-2.155,4.242-2.856c1.624-0.7,3.387-1.05,5.292-1.05h5.04
			c1.903,0,3.667,0.35,5.292,1.05c1.624,0.701,3.037,1.652,4.242,2.856c1.204,1.205,2.155,2.619,2.856,4.242
			c0.7,1.625,1.05,3.389,1.05,5.292v10.08h-24.36v3.36c0,1.68,0.56,3.081,1.68,4.2c1.12,1.121,2.52,1.68,4.2,1.68h6.72
			c1.68,0,3.108-0.307,4.284-0.924c1.176-0.616,1.987-1.147,2.436-1.596h0.84l3.36,3.36v1.68l-1.68,1.68
			c-0.84,0.84-2.171,1.61-3.99,2.31c-1.82,0.701-3.57,1.05-5.25,1.05H200.496z M200.496,151.781c-1.68,0-3.081,0.56-4.2,1.68
			c-1.121,1.121-1.68,2.52-1.68,4.2v2.52h16.8v-2.52c0-1.68-0.575-3.079-1.722-4.2c-1.148-1.12-2.562-1.68-4.242-1.68H200.496z"/>
		<path fill="#FFFFFF" d="M244.176,144.221c1.903,0,3.667,0.35,5.292,1.05c1.624,0.701,3.037,1.652,4.242,2.856
			c1.203,1.205,2.155,2.619,2.855,4.242c0.7,1.625,1.051,3.389,1.051,5.292v26.04l-0.841,0.84h-5.88l-0.839-0.84v-26.04
			c0-1.68-0.575-3.079-1.722-4.2c-1.148-1.12-2.562-1.68-4.242-1.68h-2.436c-1.064,0-2.1,0.197-3.108,0.588
			c-1.008,0.392-1.904,0.966-2.688,1.722c-0.785,0.756-1.415,1.653-1.89,2.688c-0.477,1.037-0.714,2.171-0.714,3.402v23.52
			l-0.84,0.84h-5.88l-0.84-0.84v-38.64l0.84-0.84h1.68l3.444,3.612c1.344-1.12,2.814-2.001,4.41-2.646
			c1.596-0.643,3.457-0.966,5.586-0.966H244.176z"/>
		<path fill="#FFFFFF" d="M265.175,175.301l0.84-0.84h8.4l0.84,0.84v8.4l-0.84,0.84h-8.4l-0.84-0.84V175.301z"/>
		<path fill="#FFFFFF" d="M296.775,151.781c-1.289,0-2.493,0.252-3.612,0.756c-1.121,0.504-2.1,1.176-2.939,2.016
			c-0.841,0.84-1.499,1.82-1.975,2.94c-0.477,1.121-0.714,2.297-0.714,3.528v6.72c0,1.289,0.237,2.492,0.714,3.612
			c0.476,1.121,1.134,2.1,1.975,2.94c0.84,0.84,1.818,1.499,2.939,1.974c1.119,0.477,2.323,0.714,3.612,0.714h1.68
			c1.063,0,1.96-0.126,2.688-0.378c0.727-0.252,1.356-0.559,1.89-0.924c0.531-0.364,0.966-0.742,1.302-1.134
			c0.336-0.391,0.616-0.7,0.84-0.924h0.841l3.359,4.2v1.68l-1.68,1.68c-0.84,0.84-2.171,1.61-3.99,2.31
			c-1.82,0.701-3.57,1.05-5.25,1.05h-1.68c-2.297,0-4.467-0.448-6.51-1.344c-2.045-0.895-3.822-2.1-5.335-3.612
			c-1.512-1.512-2.717-3.289-3.611-5.334c-0.896-2.043-1.344-4.213-1.344-6.51v-6.72c0-2.295,0.447-4.465,1.344-6.51
			c0.895-2.044,2.1-3.822,3.611-5.334c1.513-1.512,3.29-2.716,5.335-3.612c2.043-0.895,4.213-1.344,6.51-1.344h1.68
			c1.68,0,3.43,0.35,5.25,1.05c1.819,0.701,3.15,1.47,3.99,2.31l1.68,1.68v1.68l-3.359,4.2h-0.841
			c-0.224-0.223-0.504-0.532-0.84-0.924c-0.336-0.391-0.771-0.769-1.302-1.134c-0.533-0.364-1.163-0.672-1.89-0.924
			c-0.729-0.252-1.625-0.378-2.688-0.378H296.775z"/>
		<path fill="#FFFFFF" d="M332.895,144.221c1.903,0,3.667,0.35,5.292,1.05c1.624,0.701,3.037,1.652,4.242,2.856
			c1.203,1.205,2.155,2.619,2.855,4.242c0.7,1.625,1.051,3.389,1.051,5.292v26.04l-0.841,0.84h-5.88l-0.84-0.84v-26.04
			c0-1.68-0.575-3.079-1.722-4.2c-1.148-1.12-2.563-1.68-4.242-1.68h-2.436c-1.064,0-2.101,0.21-3.108,0.63
			s-1.904,1.008-2.688,1.764c-0.784,0.756-1.414,1.653-1.89,2.688c-0.477,1.037-0.714,2.142-0.714,3.318v23.52l-0.84,0.84h-5.88
			l-0.84-0.84v-52.08l0.84-0.84h5.88l0.84,0.84v12.6l-1.596,2.52l0.756,0.84l0.84-0.84c1.287-0.84,2.59-1.47,3.906-1.89
			c1.314-0.42,2.813-0.63,4.494-0.63H332.895z"/>
	</g>
	<g>
		<g>
			<path fill="#FFFFFF" d="M149.842,70.567c1.556,0.321,2.475,0.511,3.961,0.818c-0.199-1.873-0.101-3.558-0.593-5.048
				c-1.173-3.553-0.033-6.711,1.17-9.929c0.362-0.967,0.599-1.994,0.77-3.014c0.222-1.324,0.39-2.665,0.454-4.005
				c0.061-1.277,0.357-2.754-0.151-3.803c-1.132-2.336-0.725-4.442,0.132-6.637c1.066-2.73,2.13-5.462,3.179-8.198
				c0.686-1.79-0.054-3.156-1.943-3.663c-1.065-0.286-2.124-0.596-3.399-0.956c0.503-1.184,0.907-2.188,1.351-3.173
				c1.156-2.562,1.445-5.101,1.313-8.014c-0.139-3.056,0.791-6.353,3.608-8.651c2.01-1.64,3.688-3.687,5.677-5.719
				c0.28,0.288,0.784,0.746,1.216,1.264c1.515,1.815,3.387,2.919,5.8,2.845c2.037-0.062,3.237,0.878,3.872,2.782
				c0.695,2.083,2.354,3.039,4.204,4.164c1.969,1.197,3.278,3.493,4.841,5.339c1.666,1.967,1.691,3.978,1.165,6.59
				c-1.129,5.612-2.081,11.385-2.012,17.078c0.074,6.097,2.501,11.75,7.521,15.635c3.934,3.045,4.329,6.904,4.243,11.409
				c-0.058,3.043-1.477,4.68-3.469,6.523c-1.945,1.8-3.637,3.962-5.069,6.203c-1.475,2.308-2.945,4.471-5.267,6.053
				c-0.878,0.598-1.593,1.763-1.899,2.811c-1.062,3.633-3.139,6.383-6.414,8.251c-2.428,1.384-7.109-0.948-7.173-3.704
				c-0.102-4.373-1.935-7.403-6.201-8.738C153.755,82.899,152.506,76.535,149.842,70.567z"/>
		</g>
	</g>
	<g>
		<path fill="#FFFFFF" d="M18.219,144.221c1.903,0,3.667,0.35,5.292,1.05c1.624,0.701,3.037,1.652,4.242,2.856
			c1.204,1.205,2.155,2.619,2.856,4.242c0.7,1.625,1.05,3.389,1.05,5.292v26.04l-0.84,0.84h-1.68l-3.36-3.36
			c-1.457,1.121-2.969,1.961-4.536,2.52c-1.568,0.56-3.416,0.84-5.544,0.84h-4.2c-1.68,0-3.234-0.294-4.662-0.882
			c-1.428-0.588-2.675-1.414-3.738-2.478c-1.064-1.063-1.89-2.31-2.478-3.738c-0.588-1.428-0.882-2.982-0.882-4.662
			c0-1.624,0.28-3.136,0.84-4.536c0.559-1.399,1.344-2.617,2.352-3.654c1.008-1.035,2.197-1.875,3.57-2.52
			c1.372-0.643,2.869-0.993,4.494-1.05H24.1v-3.36c0-1.68-0.561-3.079-1.68-4.2c-1.121-1.12-2.52-1.68-4.2-1.68h-5.04
			c-1.064,0-1.96,0.126-2.688,0.378c-0.728,0.252-1.358,0.56-1.89,0.924c-0.533,0.365-0.966,0.743-1.302,1.134
			c-0.336,0.393-0.617,0.701-0.84,0.924H5.62l-3.36-4.2v-1.68l1.68-1.68c0.84-0.84,2.169-1.609,3.99-2.31
			c1.819-0.7,3.57-1.05,5.25-1.05H18.219z M11.416,168.581c-1.176,0-2.157,0.393-2.94,1.176c-0.785,0.785-1.176,1.821-1.176,3.108
			c0,1.176,0.378,2.156,1.134,2.94c0.756,0.785,1.75,1.176,2.982,1.176h4.284c2.52,0,4.549-0.769,6.09-2.31
			c1.54-1.54,2.31-3.57,2.31-6.09H11.416z"/>
		<path fill="#FFFFFF" d="M46.526,183.491c-1.625-0.7-3.039-1.651-4.242-2.856c-1.205-1.204-2.156-2.617-2.856-4.242
			c-0.701-1.624-1.05-3.388-1.05-5.292v-37.8l5.04-2.52h1.68l0.84,0.84v39.48c0,1.68,0.56,3.081,1.68,4.2
			c1.12,1.121,2.52,1.68,4.2,1.68h4.2l0.84,0.84v5.88l-0.84,0.84h-4.2C49.914,184.541,48.15,184.192,46.526,183.491z"/>
		<path fill="#FFFFFF" d="M76.178,184.541c-2.129,0-3.99-0.322-5.586-0.966c-1.596-0.643-3.066-1.525-4.41-2.646l-3.444,3.612h-1.68
			l-0.84-0.84v-52.08l0.84-0.84h5.88l0.84,0.84v12.6l-1.596,2.52l0.756,0.84l0.84-0.84c1.288-0.84,2.59-1.47,3.906-1.89
			c1.315-0.42,2.814-0.63,4.494-0.63h1.68c1.903,0,3.667,0.35,5.292,1.05c1.624,0.701,3.037,1.652,4.242,2.856
			c1.204,1.205,2.155,2.619,2.856,4.242c0.7,1.625,1.05,3.389,1.05,5.292v13.44c0,1.904-0.35,3.668-1.05,5.292
			c-0.701,1.625-1.652,3.039-2.856,4.242c-1.205,1.205-2.619,2.156-4.242,2.856c-1.625,0.701-3.389,1.05-5.292,1.05H76.178z
			 M76.178,151.781c-1.064,0-2.1,0.21-3.108,0.63c-1.008,0.42-1.904,1.008-2.688,1.764c-0.785,0.756-1.415,1.653-1.89,2.688
			c-0.477,1.037-0.714,2.142-0.714,3.318v8.4c0,1.289,0.238,2.436,0.714,3.444c0.475,1.008,1.105,1.89,1.89,2.646
			c0.784,0.756,1.68,1.331,2.688,1.722c1.008,0.393,2.044,0.588,3.108,0.588h1.596c1.68,0,3.094-0.559,4.242-1.68
			c1.147-1.119,1.722-2.52,1.722-4.2v-13.44c0-1.68-0.575-3.079-1.722-4.2c-1.148-1.12-2.562-1.68-4.242-1.68H76.178z"/>
		<path fill="#FFFFFF" d="M113.138,144.221c1.903,0,3.667,0.35,5.292,1.05c1.624,0.701,3.037,1.652,4.242,2.856
			c1.204,1.205,2.155,2.619,2.856,4.242c0.7,1.625,1.05,3.389,1.05,5.292v26.04l-0.84,0.84h-1.68l-3.36-3.36
			c-1.457,1.121-2.969,1.961-4.536,2.52c-1.568,0.56-3.416,0.84-5.544,0.84h-4.2c-1.68,0-3.234-0.294-4.662-0.882
			c-1.428-0.588-2.675-1.414-3.738-2.478c-1.064-1.063-1.89-2.31-2.478-3.738c-0.588-1.428-0.882-2.982-0.882-4.662
			c0-1.624,0.28-3.136,0.84-4.536c0.559-1.399,1.344-2.617,2.352-3.654c1.008-1.035,2.197-1.875,3.57-2.52
			c1.372-0.643,2.869-0.993,4.494-1.05h13.104v-3.36c0-1.68-0.561-3.079-1.68-4.2c-1.121-1.12-2.52-1.68-4.2-1.68h-5.04
			c-1.064,0-1.96,0.126-2.688,0.378c-0.728,0.252-1.358,0.56-1.89,0.924c-0.533,0.365-0.966,0.743-1.302,1.134
			c-0.336,0.393-0.617,0.701-0.84,0.924h-0.84l-3.36-4.2v-1.68l1.68-1.68c0.84-0.84,2.169-1.609,3.99-2.31
			c1.819-0.7,3.57-1.05,5.25-1.05H113.138z M106.334,168.581c-1.176,0-2.157,0.393-2.94,1.176c-0.785,0.785-1.176,1.821-1.176,3.108
			c0,1.176,0.378,2.156,1.134,2.94c0.756,0.785,1.75,1.176,2.982,1.176h4.284c2.52,0,4.549-0.769,6.09-2.31
			c1.54-1.54,2.31-3.57,2.31-6.09H106.334z"/>
		<path fill="#FFFFFF" d="M151.777,144.221c1.903,0,3.667,0.35,5.292,1.05c1.624,0.701,3.037,1.652,4.242,2.856
			c1.204,1.205,2.155,2.619,2.856,4.242c0.7,1.625,1.05,3.389,1.05,5.292v26.04l-0.84,0.84h-5.88l-0.84-0.84v-26.04
			c0-1.68-0.575-3.079-1.722-4.2c-1.148-1.12-2.562-1.68-4.242-1.68h-2.436c-1.064,0-2.1,0.197-3.108,0.588
			c-1.008,0.392-1.904,0.966-2.688,1.722c-0.785,0.756-1.415,1.653-1.89,2.688c-0.477,1.037-0.714,2.171-0.714,3.402v23.52
			l-0.84,0.84h-5.88l-0.84-0.84v-38.64l0.84-0.84h1.68l3.444,3.612c1.344-1.12,2.814-2.001,4.41-2.646
			c1.596-0.643,3.457-0.966,5.586-0.966H151.777z"/>
		<path fill="#FFFFFF" d="M172.776,131.621l0.84-0.84h5.88l0.84,0.84v6.72l-0.84,0.84h-5.88l-0.84-0.84V131.621z M172.776,145.061
			l0.84-0.84h5.88l0.84,0.84v38.64l-0.84,0.84h-5.88l-0.84-0.84V145.061z"/>
		<path fill="#FFFFFF" d="M200.496,184.541c-1.905,0-3.668-0.349-5.292-1.05c-1.625-0.7-3.039-1.651-4.242-2.856
			c-1.205-1.204-2.156-2.617-2.856-4.242c-0.701-1.624-1.05-3.388-1.05-5.292v-13.44c0-1.903,0.349-3.667,1.05-5.292
			c0.7-1.624,1.651-3.037,2.856-4.242c1.204-1.204,2.617-2.155,4.242-2.856c1.624-0.7,3.387-1.05,5.292-1.05h5.04
			c1.903,0,3.667,0.35,5.292,1.05c1.624,0.701,3.037,1.652,4.242,2.856c1.204,1.205,2.155,2.619,2.856,4.242
			c0.7,1.625,1.05,3.389,1.05,5.292v10.08h-24.36v3.36c0,1.68,0.56,3.081,1.68,4.2c1.12,1.121,2.52,1.68,4.2,1.68h6.72
			c1.68,0,3.108-0.307,4.284-0.924c1.176-0.616,1.987-1.147,2.436-1.596h0.84l3.36,3.36v1.68l-1.68,1.68
			c-0.84,0.84-2.171,1.61-3.99,2.31c-1.82,0.701-3.57,1.05-5.25,1.05H200.496z M200.496,151.781c-1.68,0-3.081,0.56-4.2,1.68
			c-1.121,1.121-1.68,2.52-1.68,4.2v2.52h16.8v-2.52c0-1.68-0.575-3.079-1.722-4.2c-1.148-1.12-2.562-1.68-4.242-1.68H200.496z"/>
		<path fill="#FFFFFF" d="M244.176,144.221c1.903,0,3.667,0.35,5.292,1.05c1.624,0.701,3.037,1.652,4.242,2.856
			c1.203,1.205,2.155,2.619,2.855,4.242c0.7,1.625,1.051,3.389,1.051,5.292v26.04l-0.841,0.84h-5.88l-0.839-0.84v-26.04
			c0-1.68-0.575-3.079-1.722-4.2c-1.148-1.12-2.562-1.68-4.242-1.68h-2.436c-1.064,0-2.1,0.197-3.108,0.588
			c-1.008,0.392-1.904,0.966-2.688,1.722c-0.785,0.756-1.415,1.653-1.89,2.688c-0.477,1.037-0.714,2.171-0.714,3.402v23.52
			l-0.84,0.84h-5.88l-0.84-0.84v-38.64l0.84-0.84h1.68l3.444,3.612c1.344-1.12,2.814-2.001,4.41-2.646
			c1.596-0.643,3.457-0.966,5.586-0.966H244.176z"/>
		<path fill="#FFFFFF" d="M265.175,175.301l0.84-0.84h8.4l0.84,0.84v8.4l-0.84,0.84h-8.4l-0.84-0.84V175.301z"/>
		<path fill="#FFFFFF" d="M296.775,151.781c-1.289,0-2.493,0.252-3.612,0.756c-1.121,0.504-2.1,1.176-2.939,2.016
			c-0.841,0.84-1.499,1.82-1.975,2.94c-0.477,1.121-0.714,2.297-0.714,3.528v6.72c0,1.289,0.237,2.492,0.714,3.612
			c0.476,1.121,1.134,2.1,1.975,2.94c0.84,0.84,1.818,1.499,2.939,1.974c1.119,0.477,2.323,0.714,3.612,0.714h1.68
			c1.063,0,1.96-0.126,2.688-0.378c0.727-0.252,1.356-0.559,1.89-0.924c0.531-0.364,0.966-0.742,1.302-1.134
			c0.336-0.391,0.616-0.7,0.84-0.924h0.841l3.359,4.2v1.68l-1.68,1.68c-0.84,0.84-2.171,1.61-3.99,2.31
			c-1.82,0.701-3.57,1.05-5.25,1.05h-1.68c-2.297,0-4.467-0.448-6.51-1.344c-2.045-0.895-3.822-2.1-5.335-3.612
			c-1.512-1.512-2.717-3.289-3.611-5.334c-0.896-2.043-1.344-4.213-1.344-6.51v-6.72c0-2.295,0.447-4.465,1.344-6.51
			c0.895-2.044,2.1-3.822,3.611-5.334c1.513-1.512,3.29-2.716,5.335-3.612c2.043-0.895,4.213-1.344,6.51-1.344h1.68
			c1.68,0,3.43,0.35,5.25,1.05c1.819,0.701,3.15,1.47,3.99,2.31l1.68,1.68v1.68l-3.359,4.2h-0.841
			c-0.224-0.223-0.504-0.532-0.84-0.924c-0.336-0.391-0.771-0.769-1.302-1.134c-0.533-0.364-1.163-0.672-1.89-0.924
			c-0.729-0.252-1.625-0.378-2.688-0.378H296.775z"/>
		<path fill="#FFFFFF" d="M332.895,144.221c1.903,0,3.667,0.35,5.292,1.05c1.624,0.701,3.037,1.652,4.242,2.856
			c1.203,1.205,2.155,2.619,2.855,4.242c0.7,1.625,1.051,3.389,1.051,5.292v26.04l-0.841,0.84h-5.88l-0.84-0.84v-26.04
			c0-1.68-0.575-3.079-1.722-4.2c-1.148-1.12-2.563-1.68-4.242-1.68h-2.436c-1.064,0-2.101,0.21-3.108,0.63
			s-1.904,1.008-2.688,1.764c-0.784,0.756-1.414,1.653-1.89,2.688c-0.477,1.037-0.714,2.142-0.714,3.318v23.52l-0.84,0.84h-5.88
			l-0.84-0.84v-52.08l0.84-0.84h5.88l0.84,0.84v12.6l-1.596,2.52l0.756,0.84l0.84-0.84c1.287-0.84,2.59-1.47,3.906-1.89
			c1.314-0.42,2.813-0.63,4.494-0.63H332.895z"/>
	</g>
	<g>
		<path fill="#FFFFFF" d="M150.244,52.327c-0.019-0.337-0.016-0.667-0.011-0.995h-4.806L150.244,52.327z"/>
		<path fill="#FFFFFF" d="M141.546,63.029h5.481c0.053-3.354,1.137-6.281,2.012-8.619c0.193-0.516,0.352-1.158,0.487-1.961
			c0.209-1.246,0.334-2.337,0.382-3.335c0.017-0.351,0.047-0.714,0.078-1.081c0.015-0.177,0.035-0.408,0.047-0.597
			c-1.801-4.268-0.742-8.047,0.24-10.561c0.167-0.428,0.333-0.857,0.5-1.286h-22.647v27.44h12.107L140.1,62.73L141.546,63.029z"/>
		<path fill="#FFFFFF" d="M217.948,35.421H190.39c-0.157,1.725-0.251,3.453-0.23,5.148c0.04,3.263,0.993,7.854,5.309,11.194
			c4.348,3.365,5.795,7.543,6.259,11.098h16.22V35.421z"/>
	</g>
</g>
</svg>
