<?xml version="1.0" encoding="UTF-8" standalone="no"?>
<!-- Created with Inkscape (http://www.inkscape.org/) -->

<svg
   xmlns:dc="http://purl.org/dc/elements/1.1/"
   xmlns:cc="http://creativecommons.org/ns#"
   xmlns:rdf="http://www.w3.org/1999/02/22-rdf-syntax-ns#"
   xmlns:svg="http://www.w3.org/2000/svg"
   xmlns="http://www.w3.org/2000/svg"
   xmlns:sodipodi="http://sodipodi.sourceforge.net/DTD/sodipodi-0.dtd"
   xmlns:inkscape="http://www.inkscape.org/namespaces/inkscape"
   width="91.703522mm"
   height="48.674335mm"
   viewBox="0 0 91.703522 48.674338"
   version="1.1"
   id="svg971"
   inkscape:version="0.92.1 r"
   sodipodi:docname="albaniench_White.svg">
  <defs
     id="defs965" />
  <sodipodi:namedview
     id="base"
     pagecolor="#ffffff"
     bordercolor="#666666"
     borderopacity="1.0"
     inkscape:pageopacity="0.0"
     inkscape:pageshadow="2"
     inkscape:zoom="0.35"
     inkscape:cx="177.6212"
     inkscape:cy="328.8224"
     inkscape:document-units="mm"
     inkscape:current-layer="layer1"
     showgrid="false"
     fit-margin-top="0"
     fit-margin-left="0"
     fit-margin-right="0"
     fit-margin-bottom="0"
     inkscape:window-width="1366"
     inkscape:window-height="744"
     inkscape:window-x="0"
     inkscape:window-y="0"
     inkscape:window-maximized="1" />
  <metadata
     id="metadata968">
    <rdf:RDF>
      <cc:Work
         rdf:about="">
        <dc:format>image/svg+xml</dc:format>
        <dc:type
           rdf:resource="http://purl.org/dc/dcmitype/StillImage" />
        <dc:title></dc:title>
      </cc:Work>
    </rdf:RDF>
  </metadata>
  <g
     inkscape:label="Layer 1"
     inkscape:groupmode="layer"
     id="layer1"
     transform="translate(67.406322,-187.15993)">
    <g
       transform="matrix(0.26458333,0,0,0.26458333,-67.337266,187.00779)"
       id="g64">
      <g
         id="g24">
        <path
           style="fill:#ffffff"
           inkscape:connector-curvature="0"
           d="m 18.219,144.221 c 1.903,0 3.667,0.35 5.292,1.05 1.624,0.701 3.037,1.652 4.242,2.856 1.204,1.205 2.155,2.619 2.856,4.242 0.7,1.625 1.05,3.389 1.05,5.292 v 26.04 l -0.84,0.84 h -1.68 l -3.36,-3.36 c -1.457,1.121 -2.969,1.961 -4.536,2.52 -1.568,0.56 -3.416,0.84 -5.544,0.84 h -4.2 c -1.68,0 -3.234,-0.294 -4.662,-0.882 -1.428,-0.588 -2.675,-1.414 -3.738,-2.478 -1.064,-1.063 -1.89,-2.31 -2.478,-3.738 -0.588,-1.428 -0.882,-2.982 -0.882,-4.662 0,-1.624 0.28,-3.136 0.84,-4.536 0.559,-1.399 1.344,-2.617 2.352,-3.654 1.008,-1.035 2.197,-1.875 3.57,-2.52 1.372,-0.643 2.869,-0.993 4.494,-1.05 H 24.1 v -3.36 c 0,-1.68 -0.561,-3.079 -1.68,-4.2 -1.121,-1.12 -2.52,-1.68 -4.2,-1.68 h -5.04 c -1.064,0 -1.96,0.126 -2.688,0.378 -0.728,0.252 -1.358,0.56 -1.89,0.924 -0.533,0.365 -0.966,0.743 -1.302,1.134 -0.336,0.393 -0.617,0.701 -0.84,0.924 H 5.62 l -3.36,-4.2 v -1.68 l 1.68,-1.68 c 0.84,-0.84 2.169,-1.609 3.99,-2.31 1.819,-0.7 3.57,-1.05 5.25,-1.05 z m -6.803,24.36 c -1.176,0 -2.157,0.393 -2.94,1.176 -0.785,0.785 -1.176,1.821 -1.176,3.108 0,1.176 0.378,2.156 1.134,2.94 0.756,0.785 1.75,1.176 2.982,1.176 H 15.7 c 2.52,0 4.549,-0.769 6.09,-2.31 1.54,-1.54 2.31,-3.57 2.31,-6.09 z"
           id="path2" />
        <path
           style="fill:#ffffff"
           inkscape:connector-curvature="0"
           d="m 46.526,183.491 c -1.625,-0.7 -3.039,-1.651 -4.242,-2.856 -1.205,-1.204 -2.156,-2.617 -2.856,-4.242 -0.701,-1.624 -1.05,-3.388 -1.05,-5.292 v -37.8 l 5.04,-2.52 h 1.68 l 0.84,0.84 v 39.48 c 0,1.68 0.56,3.081 1.68,4.2 1.12,1.121 2.52,1.68 4.2,1.68 h 4.2 l 0.84,0.84 v 5.88 l -0.84,0.84 h -4.2 c -1.904,0 -3.668,-0.349 -5.292,-1.05 z"
           id="path4" />
        <path
           style="fill:#ffffff"
           inkscape:connector-curvature="0"
           d="m 76.178,184.541 c -2.129,0 -3.99,-0.322 -5.586,-0.966 -1.596,-0.643 -3.066,-1.525 -4.41,-2.646 l -3.444,3.612 h -1.68 l -0.84,-0.84 v -52.08 l 0.84,-0.84 h 5.88 l 0.84,0.84 v 12.6 l -1.596,2.52 0.756,0.84 0.84,-0.84 c 1.288,-0.84 2.59,-1.47 3.906,-1.89 1.315,-0.42 2.814,-0.63 4.494,-0.63 h 1.68 c 1.903,0 3.667,0.35 5.292,1.05 1.624,0.701 3.037,1.652 4.242,2.856 1.204,1.205 2.155,2.619 2.856,4.242 0.7,1.625 1.05,3.389 1.05,5.292 v 13.44 c 0,1.904 -0.35,3.668 -1.05,5.292 -0.701,1.625 -1.652,3.039 -2.856,4.242 -1.205,1.205 -2.619,2.156 -4.242,2.856 -1.625,0.701 -3.389,1.05 -5.292,1.05 z m 0,-32.76 c -1.064,0 -2.1,0.21 -3.108,0.63 -1.008,0.42 -1.904,1.008 -2.688,1.764 -0.785,0.756 -1.415,1.653 -1.89,2.688 -0.477,1.037 -0.714,2.142 -0.714,3.318 v 8.4 c 0,1.289 0.238,2.436 0.714,3.444 0.475,1.008 1.105,1.89 1.89,2.646 0.784,0.756 1.68,1.331 2.688,1.722 1.008,0.393 2.044,0.588 3.108,0.588 h 1.596 c 1.68,0 3.094,-0.559 4.242,-1.68 1.147,-1.119 1.722,-2.52 1.722,-4.2 v -13.44 c 0,-1.68 -0.575,-3.079 -1.722,-4.2 -1.148,-1.12 -2.562,-1.68 -4.242,-1.68 z"
           id="path6" />
        <path
           style="fill:#ffffff"
           inkscape:connector-curvature="0"
           d="m 113.138,144.221 c 1.903,0 3.667,0.35 5.292,1.05 1.624,0.701 3.037,1.652 4.242,2.856 1.204,1.205 2.155,2.619 2.856,4.242 0.7,1.625 1.05,3.389 1.05,5.292 v 26.04 l -0.84,0.84 h -1.68 l -3.36,-3.36 c -1.457,1.121 -2.969,1.961 -4.536,2.52 -1.568,0.56 -3.416,0.84 -5.544,0.84 h -4.2 c -1.68,0 -3.234,-0.294 -4.662,-0.882 -1.428,-0.588 -2.675,-1.414 -3.738,-2.478 -1.064,-1.063 -1.89,-2.31 -2.478,-3.738 -0.588,-1.428 -0.882,-2.982 -0.882,-4.662 0,-1.624 0.28,-3.136 0.84,-4.536 0.559,-1.399 1.344,-2.617 2.352,-3.654 1.008,-1.035 2.197,-1.875 3.57,-2.52 1.372,-0.643 2.869,-0.993 4.494,-1.05 h 13.104 v -3.36 c 0,-1.68 -0.561,-3.079 -1.68,-4.2 -1.121,-1.12 -2.52,-1.68 -4.2,-1.68 h -5.04 c -1.064,0 -1.96,0.126 -2.688,0.378 -0.728,0.252 -1.358,0.56 -1.89,0.924 -0.533,0.365 -0.966,0.743 -1.302,1.134 -0.336,0.393 -0.617,0.701 -0.84,0.924 h -0.84 l -3.36,-4.2 v -1.68 l 1.68,-1.68 c 0.84,-0.84 2.169,-1.609 3.99,-2.31 1.819,-0.7 3.57,-1.05 5.25,-1.05 z m -6.804,24.36 c -1.176,0 -2.157,0.393 -2.94,1.176 -0.785,0.785 -1.176,1.821 -1.176,3.108 0,1.176 0.378,2.156 1.134,2.94 0.756,0.785 1.75,1.176 2.982,1.176 h 4.284 c 2.52,0 4.549,-0.769 6.09,-2.31 1.54,-1.54 2.31,-3.57 2.31,-6.09 z"
           id="path8" />
        <path
           style="fill:#ffffff"
           inkscape:connector-curvature="0"
           d="m 151.777,144.221 c 1.903,0 3.667,0.35 5.292,1.05 1.624,0.701 3.037,1.652 4.242,2.856 1.204,1.205 2.155,2.619 2.856,4.242 0.7,1.625 1.05,3.389 1.05,5.292 v 26.04 l -0.84,0.84 h -5.88 l -0.84,-0.84 v -26.04 c 0,-1.68 -0.575,-3.079 -1.722,-4.2 -1.148,-1.12 -2.562,-1.68 -4.242,-1.68 h -2.436 c -1.064,0 -2.1,0.197 -3.108,0.588 -1.008,0.392 -1.904,0.966 -2.688,1.722 -0.785,0.756 -1.415,1.653 -1.89,2.688 -0.477,1.037 -0.714,2.171 -0.714,3.402 v 23.52 l -0.84,0.84 h -5.88 l -0.84,-0.84 v -38.64 l 0.84,-0.84 h 1.68 l 3.444,3.612 c 1.344,-1.12 2.814,-2.001 4.41,-2.646 1.596,-0.643 3.457,-0.966 5.586,-0.966 z"
           id="path10" />
        <path
           style="fill:#ffffff"
           inkscape:connector-curvature="0"
           d="m 172.776,131.621 0.84,-0.84 h 5.88 l 0.84,0.84 v 6.72 l -0.84,0.84 h -5.88 l -0.84,-0.84 z m 0,13.44 0.84,-0.84 h 5.88 l 0.84,0.84 v 38.64 l -0.84,0.84 h -5.88 l -0.84,-0.84 z"
           id="path12" />
        <path
           style="fill:#ffffff"
           inkscape:connector-curvature="0"
           d="m 200.496,184.541 c -1.905,0 -3.668,-0.349 -5.292,-1.05 -1.625,-0.7 -3.039,-1.651 -4.242,-2.856 -1.205,-1.204 -2.156,-2.617 -2.856,-4.242 -0.701,-1.624 -1.05,-3.388 -1.05,-5.292 v -13.44 c 0,-1.903 0.349,-3.667 1.05,-5.292 0.7,-1.624 1.651,-3.037 2.856,-4.242 1.204,-1.204 2.617,-2.155 4.242,-2.856 1.624,-0.7 3.387,-1.05 5.292,-1.05 h 5.04 c 1.903,0 3.667,0.35 5.292,1.05 1.624,0.701 3.037,1.652 4.242,2.856 1.204,1.205 2.155,2.619 2.856,4.242 0.7,1.625 1.05,3.389 1.05,5.292 v 10.08 h -24.36 v 3.36 c 0,1.68 0.56,3.081 1.68,4.2 1.12,1.121 2.52,1.68 4.2,1.68 h 6.72 c 1.68,0 3.108,-0.307 4.284,-0.924 1.176,-0.616 1.987,-1.147 2.436,-1.596 h 0.84 l 3.36,3.36 v 1.68 l -1.68,1.68 c -0.84,0.84 -2.171,1.61 -3.99,2.31 -1.82,0.701 -3.57,1.05 -5.25,1.05 z m 0,-32.76 c -1.68,0 -3.081,0.56 -4.2,1.68 -1.121,1.121 -1.68,2.52 -1.68,4.2 v 2.52 h 16.8 v -2.52 c 0,-1.68 -0.575,-3.079 -1.722,-4.2 -1.148,-1.12 -2.562,-1.68 -4.242,-1.68 z"
           id="path14" />
        <path
           style="fill:#ffffff"
           inkscape:connector-curvature="0"
           d="m 244.176,144.221 c 1.903,0 3.667,0.35 5.292,1.05 1.624,0.701 3.037,1.652 4.242,2.856 1.203,1.205 2.155,2.619 2.855,4.242 0.7,1.625 1.051,3.389 1.051,5.292 v 26.04 l -0.841,0.84 h -5.88 l -0.839,-0.84 v -26.04 c 0,-1.68 -0.575,-3.079 -1.722,-4.2 -1.148,-1.12 -2.562,-1.68 -4.242,-1.68 h -2.436 c -1.064,0 -2.1,0.197 -3.108,0.588 -1.008,0.392 -1.904,0.966 -2.688,1.722 -0.785,0.756 -1.415,1.653 -1.89,2.688 -0.477,1.037 -0.714,2.171 -0.714,3.402 v 23.52 l -0.84,0.84 h -5.88 l -0.84,-0.84 v -38.64 l 0.84,-0.84 h 1.68 l 3.444,3.612 c 1.344,-1.12 2.814,-2.001 4.41,-2.646 1.596,-0.643 3.457,-0.966 5.586,-0.966 z"
           id="path16" />
        <path
           style="fill:#ffffff"
           inkscape:connector-curvature="0"
           d="m 265.175,175.301 0.84,-0.84 h 8.4 l 0.84,0.84 v 8.4 l -0.84,0.84 h -8.4 l -0.84,-0.84 z"
           id="path18" />
        <path
           style="fill:#ffffff"
           inkscape:connector-curvature="0"
           d="m 296.775,151.781 c -1.289,0 -2.493,0.252 -3.612,0.756 -1.121,0.504 -2.1,1.176 -2.939,2.016 -0.841,0.84 -1.499,1.82 -1.975,2.94 -0.477,1.121 -0.714,2.297 -0.714,3.528 v 6.72 c 0,1.289 0.237,2.492 0.714,3.612 0.476,1.121 1.134,2.1 1.975,2.94 0.84,0.84 1.818,1.499 2.939,1.974 1.119,0.477 2.323,0.714 3.612,0.714 h 1.68 c 1.063,0 1.96,-0.126 2.688,-0.378 0.727,-0.252 1.356,-0.559 1.89,-0.924 0.531,-0.364 0.966,-0.742 1.302,-1.134 0.336,-0.391 0.616,-0.7 0.84,-0.924 h 0.841 l 3.359,4.2 v 1.68 l -1.68,1.68 c -0.84,0.84 -2.171,1.61 -3.99,2.31 -1.82,0.701 -3.57,1.05 -5.25,1.05 h -1.68 c -2.297,0 -4.467,-0.448 -6.51,-1.344 -2.045,-0.895 -3.822,-2.1 -5.335,-3.612 -1.512,-1.512 -2.717,-3.289 -3.611,-5.334 -0.896,-2.043 -1.344,-4.213 -1.344,-6.51 v -6.72 c 0,-2.295 0.447,-4.465 1.344,-6.51 0.895,-2.044 2.1,-3.822 3.611,-5.334 1.513,-1.512 3.29,-2.716 5.335,-3.612 2.043,-0.895 4.213,-1.344 6.51,-1.344 h 1.68 c 1.68,0 3.43,0.35 5.25,1.05 1.819,0.701 3.15,1.47 3.99,2.31 l 1.68,1.68 v 1.68 l -3.359,4.2 h -0.841 c -0.224,-0.223 -0.504,-0.532 -0.84,-0.924 -0.336,-0.391 -0.771,-0.769 -1.302,-1.134 -0.533,-0.364 -1.163,-0.672 -1.89,-0.924 -0.729,-0.252 -1.625,-0.378 -2.688,-0.378 z"
           id="path20" />
        <path
           style="fill:#ffffff"
           inkscape:connector-curvature="0"
           d="m 332.895,144.221 c 1.903,0 3.667,0.35 5.292,1.05 1.624,0.701 3.037,1.652 4.242,2.856 1.203,1.205 2.155,2.619 2.855,4.242 0.7,1.625 1.051,3.389 1.051,5.292 v 26.04 l -0.841,0.84 h -5.88 l -0.84,-0.84 v -26.04 c 0,-1.68 -0.575,-3.079 -1.722,-4.2 -1.148,-1.12 -2.563,-1.68 -4.242,-1.68 h -2.436 c -1.064,0 -2.101,0.21 -3.108,0.63 -1.007,0.42 -1.904,1.008 -2.688,1.764 -0.784,0.756 -1.414,1.653 -1.89,2.688 -0.477,1.037 -0.714,2.142 -0.714,3.318 v 23.52 l -0.84,0.84 h -5.88 l -0.84,-0.84 v -52.08 l 0.84,-0.84 h 5.88 l 0.84,0.84 v 12.6 l -1.596,2.52 0.756,0.84 0.84,-0.84 c 1.287,-0.84 2.59,-1.47 3.906,-1.89 1.314,-0.42 2.813,-0.63 4.494,-0.63 z"
           id="path22" />
      </g>
      <g
         id="g30">
        <g
           id="g28">
          <path
             style="fill:#ffffff"
             inkscape:connector-curvature="0"
             d="m 149.842,70.567 c 1.556,0.321 2.475,0.511 3.961,0.818 -0.199,-1.873 -0.101,-3.558 -0.593,-5.048 -1.173,-3.553 -0.033,-6.711 1.17,-9.929 0.362,-0.967 0.599,-1.994 0.77,-3.014 0.222,-1.324 0.39,-2.665 0.454,-4.005 0.061,-1.277 0.357,-2.754 -0.151,-3.803 -1.132,-2.336 -0.725,-4.442 0.132,-6.637 1.066,-2.73 2.13,-5.462 3.179,-8.198 0.686,-1.79 -0.054,-3.156 -1.943,-3.663 -1.065,-0.286 -2.124,-0.596 -3.399,-0.956 0.503,-1.184 0.907,-2.188 1.351,-3.173 1.156,-2.562 1.445,-5.101 1.313,-8.014 -0.139,-3.056 0.791,-6.353 3.608,-8.651 2.01,-1.64 3.688,-3.687 5.677,-5.719 0.28,0.288 0.784,0.746 1.216,1.264 1.515,1.815 3.387,2.919 5.8,2.845 2.037,-0.062 3.237,0.878 3.872,2.782 0.695,2.083 2.354,3.039 4.204,4.164 1.969,1.197 3.278,3.493 4.841,5.339 1.666,1.967 1.691,3.978 1.165,6.59 -1.129,5.612 -2.081,11.385 -2.012,17.078 0.074,6.097 2.501,11.75 7.521,15.635 3.934,3.045 4.329,6.904 4.243,11.409 -0.058,3.043 -1.477,4.68 -3.469,6.523 -1.945,1.8 -3.637,3.962 -5.069,6.203 -1.475,2.308 -2.945,4.471 -5.267,6.053 -0.878,0.598 -1.593,1.763 -1.899,2.811 -1.062,3.633 -3.139,6.383 -6.414,8.251 -2.428,1.384 -7.109,-0.948 -7.173,-3.704 -0.102,-4.373 -1.935,-7.403 -6.201,-8.738 -6.974,-2.181 -8.223,-8.545 -10.887,-14.513 z"
             id="path26" />
        </g>
      </g>
      <g
         id="g54">
        <path
           style="fill:#ffffff"
           inkscape:connector-curvature="0"
           d="m 18.219,144.221 c 1.903,0 3.667,0.35 5.292,1.05 1.624,0.701 3.037,1.652 4.242,2.856 1.204,1.205 2.155,2.619 2.856,4.242 0.7,1.625 1.05,3.389 1.05,5.292 v 26.04 l -0.84,0.84 h -1.68 l -3.36,-3.36 c -1.457,1.121 -2.969,1.961 -4.536,2.52 -1.568,0.56 -3.416,0.84 -5.544,0.84 h -4.2 c -1.68,0 -3.234,-0.294 -4.662,-0.882 -1.428,-0.588 -2.675,-1.414 -3.738,-2.478 -1.064,-1.063 -1.89,-2.31 -2.478,-3.738 -0.588,-1.428 -0.882,-2.982 -0.882,-4.662 0,-1.624 0.28,-3.136 0.84,-4.536 0.559,-1.399 1.344,-2.617 2.352,-3.654 1.008,-1.035 2.197,-1.875 3.57,-2.52 1.372,-0.643 2.869,-0.993 4.494,-1.05 H 24.1 v -3.36 c 0,-1.68 -0.561,-3.079 -1.68,-4.2 -1.121,-1.12 -2.52,-1.68 -4.2,-1.68 h -5.04 c -1.064,0 -1.96,0.126 -2.688,0.378 -0.728,0.252 -1.358,0.56 -1.89,0.924 -0.533,0.365 -0.966,0.743 -1.302,1.134 -0.336,0.393 -0.617,0.701 -0.84,0.924 H 5.62 l -3.36,-4.2 v -1.68 l 1.68,-1.68 c 0.84,-0.84 2.169,-1.609 3.99,-2.31 1.819,-0.7 3.57,-1.05 5.25,-1.05 z m -6.803,24.36 c -1.176,0 -2.157,0.393 -2.94,1.176 -0.785,0.785 -1.176,1.821 -1.176,3.108 0,1.176 0.378,2.156 1.134,2.94 0.756,0.785 1.75,1.176 2.982,1.176 H 15.7 c 2.52,0 4.549,-0.769 6.09,-2.31 1.54,-1.54 2.31,-3.57 2.31,-6.09 z"
           id="path32" />
        <path
           style="fill:#ffffff"
           inkscape:connector-curvature="0"
           d="m 46.526,183.491 c -1.625,-0.7 -3.039,-1.651 -4.242,-2.856 -1.205,-1.204 -2.156,-2.617 -2.856,-4.242 -0.701,-1.624 -1.05,-3.388 -1.05,-5.292 v -37.8 l 5.04,-2.52 h 1.68 l 0.84,0.84 v 39.48 c 0,1.68 0.56,3.081 1.68,4.2 1.12,1.121 2.52,1.68 4.2,1.68 h 4.2 l 0.84,0.84 v 5.88 l -0.84,0.84 h -4.2 c -1.904,0 -3.668,-0.349 -5.292,-1.05 z"
           id="path34" />
        <path
           style="fill:#ffffff"
           inkscape:connector-curvature="0"
           d="m 76.178,184.541 c -2.129,0 -3.99,-0.322 -5.586,-0.966 -1.596,-0.643 -3.066,-1.525 -4.41,-2.646 l -3.444,3.612 h -1.68 l -0.84,-0.84 v -52.08 l 0.84,-0.84 h 5.88 l 0.84,0.84 v 12.6 l -1.596,2.52 0.756,0.84 0.84,-0.84 c 1.288,-0.84 2.59,-1.47 3.906,-1.89 1.315,-0.42 2.814,-0.63 4.494,-0.63 h 1.68 c 1.903,0 3.667,0.35 5.292,1.05 1.624,0.701 3.037,1.652 4.242,2.856 1.204,1.205 2.155,2.619 2.856,4.242 0.7,1.625 1.05,3.389 1.05,5.292 v 13.44 c 0,1.904 -0.35,3.668 -1.05,5.292 -0.701,1.625 -1.652,3.039 -2.856,4.242 -1.205,1.205 -2.619,2.156 -4.242,2.856 -1.625,0.701 -3.389,1.05 -5.292,1.05 z m 0,-32.76 c -1.064,0 -2.1,0.21 -3.108,0.63 -1.008,0.42 -1.904,1.008 -2.688,1.764 -0.785,0.756 -1.415,1.653 -1.89,2.688 -0.477,1.037 -0.714,2.142 -0.714,3.318 v 8.4 c 0,1.289 0.238,2.436 0.714,3.444 0.475,1.008 1.105,1.89 1.89,2.646 0.784,0.756 1.68,1.331 2.688,1.722 1.008,0.393 2.044,0.588 3.108,0.588 h 1.596 c 1.68,0 3.094,-0.559 4.242,-1.68 1.147,-1.119 1.722,-2.52 1.722,-4.2 v -13.44 c 0,-1.68 -0.575,-3.079 -1.722,-4.2 -1.148,-1.12 -2.562,-1.68 -4.242,-1.68 z"
           id="path36" />
        <path
           style="fill:#ffffff"
           inkscape:connector-curvature="0"
           d="m 113.138,144.221 c 1.903,0 3.667,0.35 5.292,1.05 1.624,0.701 3.037,1.652 4.242,2.856 1.204,1.205 2.155,2.619 2.856,4.242 0.7,1.625 1.05,3.389 1.05,5.292 v 26.04 l -0.84,0.84 h -1.68 l -3.36,-3.36 c -1.457,1.121 -2.969,1.961 -4.536,2.52 -1.568,0.56 -3.416,0.84 -5.544,0.84 h -4.2 c -1.68,0 -3.234,-0.294 -4.662,-0.882 -1.428,-0.588 -2.675,-1.414 -3.738,-2.478 -1.064,-1.063 -1.89,-2.31 -2.478,-3.738 -0.588,-1.428 -0.882,-2.982 -0.882,-4.662 0,-1.624 0.28,-3.136 0.84,-4.536 0.559,-1.399 1.344,-2.617 2.352,-3.654 1.008,-1.035 2.197,-1.875 3.57,-2.52 1.372,-0.643 2.869,-0.993 4.494,-1.05 h 13.104 v -3.36 c 0,-1.68 -0.561,-3.079 -1.68,-4.2 -1.121,-1.12 -2.52,-1.68 -4.2,-1.68 h -5.04 c -1.064,0 -1.96,0.126 -2.688,0.378 -0.728,0.252 -1.358,0.56 -1.89,0.924 -0.533,0.365 -0.966,0.743 -1.302,1.134 -0.336,0.393 -0.617,0.701 -0.84,0.924 h -0.84 l -3.36,-4.2 v -1.68 l 1.68,-1.68 c 0.84,-0.84 2.169,-1.609 3.99,-2.31 1.819,-0.7 3.57,-1.05 5.25,-1.05 z m -6.804,24.36 c -1.176,0 -2.157,0.393 -2.94,1.176 -0.785,0.785 -1.176,1.821 -1.176,3.108 0,1.176 0.378,2.156 1.134,2.94 0.756,0.785 1.75,1.176 2.982,1.176 h 4.284 c 2.52,0 4.549,-0.769 6.09,-2.31 1.54,-1.54 2.31,-3.57 2.31,-6.09 z"
           id="path38" />
        <path
           style="fill:#ffffff"
           inkscape:connector-curvature="0"
           d="m 151.777,144.221 c 1.903,0 3.667,0.35 5.292,1.05 1.624,0.701 3.037,1.652 4.242,2.856 1.204,1.205 2.155,2.619 2.856,4.242 0.7,1.625 1.05,3.389 1.05,5.292 v 26.04 l -0.84,0.84 h -5.88 l -0.84,-0.84 v -26.04 c 0,-1.68 -0.575,-3.079 -1.722,-4.2 -1.148,-1.12 -2.562,-1.68 -4.242,-1.68 h -2.436 c -1.064,0 -2.1,0.197 -3.108,0.588 -1.008,0.392 -1.904,0.966 -2.688,1.722 -0.785,0.756 -1.415,1.653 -1.89,2.688 -0.477,1.037 -0.714,2.171 -0.714,3.402 v 23.52 l -0.84,0.84 h -5.88 l -0.84,-0.84 v -38.64 l 0.84,-0.84 h 1.68 l 3.444,3.612 c 1.344,-1.12 2.814,-2.001 4.41,-2.646 1.596,-0.643 3.457,-0.966 5.586,-0.966 z"
           id="path40" />
        <path
           style="fill:#ffffff"
           inkscape:connector-curvature="0"
           d="m 172.776,131.621 0.84,-0.84 h 5.88 l 0.84,0.84 v 6.72 l -0.84,0.84 h -5.88 l -0.84,-0.84 z m 0,13.44 0.84,-0.84 h 5.88 l 0.84,0.84 v 38.64 l -0.84,0.84 h -5.88 l -0.84,-0.84 z"
           id="path42" />
        <path
           style="fill:#ffffff"
           inkscape:connector-curvature="0"
           d="m 200.496,184.541 c -1.905,0 -3.668,-0.349 -5.292,-1.05 -1.625,-0.7 -3.039,-1.651 -4.242,-2.856 -1.205,-1.204 -2.156,-2.617 -2.856,-4.242 -0.701,-1.624 -1.05,-3.388 -1.05,-5.292 v -13.44 c 0,-1.903 0.349,-3.667 1.05,-5.292 0.7,-1.624 1.651,-3.037 2.856,-4.242 1.204,-1.204 2.617,-2.155 4.242,-2.856 1.624,-0.7 3.387,-1.05 5.292,-1.05 h 5.04 c 1.903,0 3.667,0.35 5.292,1.05 1.624,0.701 3.037,1.652 4.242,2.856 1.204,1.205 2.155,2.619 2.856,4.242 0.7,1.625 1.05,3.389 1.05,5.292 v 10.08 h -24.36 v 3.36 c 0,1.68 0.56,3.081 1.68,4.2 1.12,1.121 2.52,1.68 4.2,1.68 h 6.72 c 1.68,0 3.108,-0.307 4.284,-0.924 1.176,-0.616 1.987,-1.147 2.436,-1.596 h 0.84 l 3.36,3.36 v 1.68 l -1.68,1.68 c -0.84,0.84 -2.171,1.61 -3.99,2.31 -1.82,0.701 -3.57,1.05 -5.25,1.05 z m 0,-32.76 c -1.68,0 -3.081,0.56 -4.2,1.68 -1.121,1.121 -1.68,2.52 -1.68,4.2 v 2.52 h 16.8 v -2.52 c 0,-1.68 -0.575,-3.079 -1.722,-4.2 -1.148,-1.12 -2.562,-1.68 -4.242,-1.68 z"
           id="path44" />
        <path
           style="fill:#ffffff"
           inkscape:connector-curvature="0"
           d="m 244.176,144.221 c 1.903,0 3.667,0.35 5.292,1.05 1.624,0.701 3.037,1.652 4.242,2.856 1.203,1.205 2.155,2.619 2.855,4.242 0.7,1.625 1.051,3.389 1.051,5.292 v 26.04 l -0.841,0.84 h -5.88 l -0.839,-0.84 v -26.04 c 0,-1.68 -0.575,-3.079 -1.722,-4.2 -1.148,-1.12 -2.562,-1.68 -4.242,-1.68 h -2.436 c -1.064,0 -2.1,0.197 -3.108,0.588 -1.008,0.392 -1.904,0.966 -2.688,1.722 -0.785,0.756 -1.415,1.653 -1.89,2.688 -0.477,1.037 -0.714,2.171 -0.714,3.402 v 23.52 l -0.84,0.84 h -5.88 l -0.84,-0.84 v -38.64 l 0.84,-0.84 h 1.68 l 3.444,3.612 c 1.344,-1.12 2.814,-2.001 4.41,-2.646 1.596,-0.643 3.457,-0.966 5.586,-0.966 z"
           id="path46" />
        <path
           style="fill:#ffffff"
           inkscape:connector-curvature="0"
           d="m 265.175,175.301 0.84,-0.84 h 8.4 l 0.84,0.84 v 8.4 l -0.84,0.84 h -8.4 l -0.84,-0.84 z"
           id="path48" />
        <path
           style="fill:#ffffff"
           inkscape:connector-curvature="0"
           d="m 296.775,151.781 c -1.289,0 -2.493,0.252 -3.612,0.756 -1.121,0.504 -2.1,1.176 -2.939,2.016 -0.841,0.84 -1.499,1.82 -1.975,2.94 -0.477,1.121 -0.714,2.297 -0.714,3.528 v 6.72 c 0,1.289 0.237,2.492 0.714,3.612 0.476,1.121 1.134,2.1 1.975,2.94 0.84,0.84 1.818,1.499 2.939,1.974 1.119,0.477 2.323,0.714 3.612,0.714 h 1.68 c 1.063,0 1.96,-0.126 2.688,-0.378 0.727,-0.252 1.356,-0.559 1.89,-0.924 0.531,-0.364 0.966,-0.742 1.302,-1.134 0.336,-0.391 0.616,-0.7 0.84,-0.924 h 0.841 l 3.359,4.2 v 1.68 l -1.68,1.68 c -0.84,0.84 -2.171,1.61 -3.99,2.31 -1.82,0.701 -3.57,1.05 -5.25,1.05 h -1.68 c -2.297,0 -4.467,-0.448 -6.51,-1.344 -2.045,-0.895 -3.822,-2.1 -5.335,-3.612 -1.512,-1.512 -2.717,-3.289 -3.611,-5.334 -0.896,-2.043 -1.344,-4.213 -1.344,-6.51 v -6.72 c 0,-2.295 0.447,-4.465 1.344,-6.51 0.895,-2.044 2.1,-3.822 3.611,-5.334 1.513,-1.512 3.29,-2.716 5.335,-3.612 2.043,-0.895 4.213,-1.344 6.51,-1.344 h 1.68 c 1.68,0 3.43,0.35 5.25,1.05 1.819,0.701 3.15,1.47 3.99,2.31 l 1.68,1.68 v 1.68 l -3.359,4.2 h -0.841 c -0.224,-0.223 -0.504,-0.532 -0.84,-0.924 -0.336,-0.391 -0.771,-0.769 -1.302,-1.134 -0.533,-0.364 -1.163,-0.672 -1.89,-0.924 -0.729,-0.252 -1.625,-0.378 -2.688,-0.378 z"
           id="path50" />
        <path
           style="fill:#ffffff"
           inkscape:connector-curvature="0"
           d="m 332.895,144.221 c 1.903,0 3.667,0.35 5.292,1.05 1.624,0.701 3.037,1.652 4.242,2.856 1.203,1.205 2.155,2.619 2.855,4.242 0.7,1.625 1.051,3.389 1.051,5.292 v 26.04 l -0.841,0.84 h -5.88 l -0.84,-0.84 v -26.04 c 0,-1.68 -0.575,-3.079 -1.722,-4.2 -1.148,-1.12 -2.563,-1.68 -4.242,-1.68 h -2.436 c -1.064,0 -2.101,0.21 -3.108,0.63 -1.007,0.42 -1.904,1.008 -2.688,1.764 -0.784,0.756 -1.414,1.653 -1.89,2.688 -0.477,1.037 -0.714,2.142 -0.714,3.318 v 23.52 l -0.84,0.84 h -5.88 l -0.84,-0.84 v -52.08 l 0.84,-0.84 h 5.88 l 0.84,0.84 v 12.6 l -1.596,2.52 0.756,0.84 0.84,-0.84 c 1.287,-0.84 2.59,-1.47 3.906,-1.89 1.314,-0.42 2.813,-0.63 4.494,-0.63 z"
           id="path52" />
      </g>
      <g
         id="g62">
        <path
           style="fill:#ffffff"
           inkscape:connector-curvature="0"
           d="m 150.244,52.327 c -0.019,-0.337 -0.016,-0.667 -0.011,-0.995 h -4.806 z"
           id="path56" />
        <path
           style="fill:#ffffff"
           inkscape:connector-curvature="0"
           d="m 141.546,63.029 h 5.481 c 0.053,-3.354 1.137,-6.281 2.012,-8.619 0.193,-0.516 0.352,-1.158 0.487,-1.961 0.209,-1.246 0.334,-2.337 0.382,-3.335 0.017,-0.351 0.047,-0.714 0.078,-1.081 0.015,-0.177 0.035,-0.408 0.047,-0.597 -1.801,-4.268 -0.742,-8.047 0.24,-10.561 0.167,-0.428 0.333,-0.857 0.5,-1.286 h -22.647 v 27.44 h 12.107 L 140.1,62.73 Z"
           id="path58" />
        <path
           style="fill:#ffffff"
           inkscape:connector-curvature="0"
           d="M 217.948,35.421 H 190.39 c -0.157,1.725 -0.251,3.453 -0.23,5.148 0.04,3.263 0.993,7.854 5.309,11.194 4.348,3.365 5.795,7.543 6.259,11.098 h 16.22 z"
           id="path60" />
      </g>
    </g>
  </g>
</svg>
