<?xml version="1.0" encoding="UTF-8" standalone="no"?>
<!-- Created with Inkscape (http://www.inkscape.org/) -->

<svg
   xmlns:dc="http://purl.org/dc/elements/1.1/"
   xmlns:cc="http://creativecommons.org/ns#"
   xmlns:rdf="http://www.w3.org/1999/02/22-rdf-syntax-ns#"
   xmlns:svg="http://www.w3.org/2000/svg"
   xmlns="http://www.w3.org/2000/svg"
   xmlns:sodipodi="http://sodipodi.sourceforge.net/DTD/sodipodi-0.dtd"
   xmlns:inkscape="http://www.inkscape.org/namespaces/inkscape"
   width="91.703262mm"
   height="51.627617mm"
   viewBox="0 0 91.703263 51.62762"
   version="1.1"
   id="svg971"
   inkscape:version="0.92.1 r"
   sodipodi:docname="albaniench_Color.svg">
  <defs
     id="defs965" />
  <sodipodi:namedview
     id="base"
     pagecolor="#ffffff"
     bordercolor="#666666"
     borderopacity="1.0"
     inkscape:pageopacity="0.0"
     inkscape:pageshadow="2"
     inkscape:zoom="0.35"
     inkscape:cx="267.18034"
     inkscape:cy="279.69654"
     inkscape:document-units="mm"
     inkscape:current-layer="layer1"
     showgrid="false"
     fit-margin-top="0"
     fit-margin-left="0"
     fit-margin-right="0"
     fit-margin-bottom="0"
     inkscape:window-width="1366"
     inkscape:window-height="744"
     inkscape:window-x="0"
     inkscape:window-y="0"
     inkscape:window-maximized="1" />
  <metadata
     id="metadata968">
    <rdf:RDF>
      <cc:Work
         rdf:about="">
        <dc:format>image/svg+xml</dc:format>
        <dc:type
           rdf:resource="http://purl.org/dc/dcmitype/StillImage" />
        <dc:title></dc:title>
      </cc:Work>
    </rdf:RDF>
  </metadata>
  <g
     inkscape:label="Layer 1"
     inkscape:groupmode="layer"
     id="layer1"
     transform="translate(91.102179,-171.20876)">
    <g
       id="g66"
       transform="matrix(0.26458333,0,0,0.26458333,-91.102179,171.20876)">
      <rect
         style="fill:#e41e20"
         x="123.221"
         y="0"
         width="99.630997"
         height="99.630997"
         id="rect2" />
      <g
         id="g26">
        <path
           inkscape:connector-curvature="0"
           d="m 18.48,154.808 c 1.903,0 3.667,0.35 5.292,1.05 1.624,0.701 3.037,1.652 4.242,2.856 1.204,1.205 2.155,2.619 2.856,4.242 0.7,1.625 1.05,3.389 1.05,5.292 v 26.04 l -0.84,0.84 H 29.4 l -3.36,-3.36 c -1.457,1.121 -2.969,1.961 -4.536,2.52 -1.568,0.56 -3.416,0.84 -5.544,0.84 h -4.2 c -1.68,0 -3.234,-0.294 -4.662,-0.882 C 5.67,193.658 4.423,192.832 3.36,191.768 2.296,190.705 1.47,189.458 0.882,188.03 0.294,186.602 0,185.048 0,183.368 c 0,-1.624 0.28,-3.136 0.84,-4.536 0.559,-1.399 1.344,-2.617 2.352,-3.654 1.008,-1.035 2.197,-1.875 3.57,-2.52 1.372,-0.643 2.869,-0.993 4.494,-1.05 H 24.36 v -3.36 c 0,-1.68 -0.561,-3.079 -1.68,-4.2 -1.121,-1.12 -2.52,-1.68 -4.2,-1.68 h -5.04 c -1.064,0 -1.96,0.126 -2.688,0.378 -0.728,0.252 -1.358,0.56 -1.89,0.924 -0.533,0.365 -0.966,0.743 -1.302,1.134 -0.336,0.393 -0.617,0.701 -0.84,0.924 H 5.88 l -3.36,-4.2 v -1.68 l 1.68,-1.68 c 0.84,-0.84 2.169,-1.609 3.99,-2.31 1.819,-0.7 3.57,-1.05 5.25,-1.05 z m -6.804,24.36 c -1.176,0 -2.157,0.393 -2.94,1.176 -0.785,0.785 -1.176,1.821 -1.176,3.108 0,1.176 0.378,2.156 1.134,2.94 0.756,0.785 1.75,1.176 2.982,1.176 h 4.284 c 2.52,0 4.549,-0.769 6.09,-2.31 1.54,-1.54 2.31,-3.57 2.31,-6.09 z"
           id="path4" />
        <path
           inkscape:connector-curvature="0"
           d="m 46.787,194.078 c -1.625,-0.7 -3.039,-1.651 -4.242,-2.856 -1.205,-1.204 -2.156,-2.617 -2.856,-4.242 -0.701,-1.624 -1.05,-3.388 -1.05,-5.292 v -37.8 l 5.04,-2.52 h 1.68 l 0.84,0.84 v 39.48 c 0,1.68 0.56,3.081 1.68,4.2 1.12,1.121 2.52,1.68 4.2,1.68 h 4.2 l 0.84,0.84 v 5.88 l -0.84,0.84 h -4.2 c -1.905,0 -3.668,-0.349 -5.292,-1.05 z"
           id="path6" />
        <path
           inkscape:connector-curvature="0"
           d="m 76.439,195.128 c -2.129,0 -3.99,-0.322 -5.586,-0.966 -1.596,-0.643 -3.066,-1.525 -4.41,-2.646 l -3.444,3.612 h -1.68 l -0.84,-0.84 v -52.08 l 0.84,-0.84 h 5.88 l 0.84,0.84 v 12.6 l -1.596,2.52 0.756,0.84 0.84,-0.84 c 1.288,-0.84 2.59,-1.47 3.906,-1.89 1.315,-0.42 2.814,-0.63 4.494,-0.63 h 1.68 c 1.903,0 3.667,0.35 5.292,1.05 1.624,0.701 3.037,1.652 4.242,2.856 1.204,1.205 2.155,2.619 2.856,4.242 0.7,1.625 1.05,3.389 1.05,5.292 v 13.44 c 0,1.904 -0.35,3.668 -1.05,5.292 -0.701,1.625 -1.652,3.039 -2.856,4.242 -1.205,1.205 -2.619,2.156 -4.242,2.856 -1.625,0.701 -3.389,1.05 -5.292,1.05 z m 0,-32.76 c -1.064,0 -2.1,0.21 -3.108,0.63 -1.008,0.42 -1.904,1.008 -2.688,1.764 -0.785,0.756 -1.415,1.653 -1.89,2.688 -0.477,1.037 -0.714,2.142 -0.714,3.318 v 8.4 c 0,1.289 0.238,2.436 0.714,3.444 0.475,1.008 1.105,1.89 1.89,2.646 0.784,0.756 1.68,1.331 2.688,1.722 1.008,0.393 2.044,0.588 3.108,0.588 h 1.596 c 1.68,0 3.094,-0.559 4.242,-1.68 1.147,-1.119 1.722,-2.52 1.722,-4.2 v -13.44 c 0,-1.68 -0.575,-3.079 -1.722,-4.2 -1.148,-1.12 -2.562,-1.68 -4.242,-1.68 z"
           id="path8" />
        <path
           inkscape:connector-curvature="0"
           d="m 113.398,154.808 c 1.903,0 3.667,0.35 5.292,1.05 1.624,0.701 3.037,1.652 4.242,2.856 1.204,1.205 2.155,2.619 2.856,4.242 0.7,1.625 1.05,3.389 1.05,5.292 v 26.04 l -0.84,0.84 h -1.68 l -3.36,-3.36 c -1.457,1.121 -2.969,1.961 -4.536,2.52 -1.568,0.56 -3.416,0.84 -5.544,0.84 h -4.2 c -1.68,0 -3.234,-0.294 -4.662,-0.882 -1.428,-0.588 -2.675,-1.414 -3.738,-2.478 -1.064,-1.063 -1.89,-2.31 -2.478,-3.738 -0.588,-1.428 -0.882,-2.982 -0.882,-4.662 0,-1.624 0.28,-3.136 0.84,-4.536 0.559,-1.399 1.344,-2.617 2.352,-3.654 1.008,-1.035 2.197,-1.875 3.57,-2.52 1.372,-0.643 2.869,-0.993 4.494,-1.05 h 13.104 v -3.36 c 0,-1.68 -0.561,-3.079 -1.68,-4.2 -1.121,-1.12 -2.52,-1.68 -4.2,-1.68 h -5.04 c -1.064,0 -1.96,0.126 -2.688,0.378 -0.728,0.252 -1.358,0.56 -1.89,0.924 -0.533,0.365 -0.966,0.743 -1.302,1.134 -0.336,0.393 -0.617,0.701 -0.84,0.924 h -0.84 l -3.36,-4.2 v -1.68 l 1.68,-1.68 c 0.84,-0.84 2.169,-1.609 3.99,-2.31 1.819,-0.7 3.57,-1.05 5.25,-1.05 z m -6.803,24.36 c -1.176,0 -2.157,0.393 -2.94,1.176 -0.785,0.785 -1.176,1.821 -1.176,3.108 0,1.176 0.378,2.156 1.134,2.94 0.756,0.785 1.75,1.176 2.982,1.176 h 4.284 c 2.52,0 4.549,-0.769 6.09,-2.31 1.54,-1.54 2.31,-3.57 2.31,-6.09 z"
           id="path10" />
        <path
           inkscape:connector-curvature="0"
           d="m 152.038,154.808 c 1.903,0 3.667,0.35 5.292,1.05 1.624,0.701 3.037,1.652 4.242,2.856 1.204,1.205 2.155,2.619 2.856,4.242 0.7,1.625 1.05,3.389 1.05,5.292 v 26.04 l -0.84,0.84 h -5.88 l -0.84,-0.84 v -26.04 c 0,-1.68 -0.575,-3.079 -1.722,-4.2 -1.148,-1.12 -2.562,-1.68 -4.242,-1.68 h -2.436 c -1.064,0 -2.1,0.197 -3.108,0.588 -1.008,0.392 -1.904,0.966 -2.688,1.722 -0.785,0.756 -1.415,1.653 -1.89,2.688 -0.477,1.037 -0.714,2.171 -0.714,3.402 v 23.52 l -0.84,0.84 h -5.88 l -0.84,-0.84 v -38.64 l 0.84,-0.84 h 1.68 l 3.444,3.612 c 1.344,-1.12 2.814,-2.001 4.41,-2.646 1.596,-0.643 3.457,-0.966 5.586,-0.966 z"
           id="path12" />
        <path
           inkscape:connector-curvature="0"
           d="m 173.037,142.208 0.84,-0.84 h 5.88 l 0.84,0.84 v 6.72 l -0.84,0.84 h -5.88 l -0.84,-0.84 z m 0,13.44 0.84,-0.84 h 5.88 l 0.84,0.84 v 38.64 l -0.84,0.84 h -5.88 l -0.84,-0.84 z"
           id="path14" />
        <path
           inkscape:connector-curvature="0"
           d="m 200.757,195.128 c -1.905,0 -3.668,-0.349 -5.292,-1.05 -1.625,-0.7 -3.039,-1.651 -4.242,-2.856 -1.205,-1.204 -2.156,-2.617 -2.856,-4.242 -0.701,-1.624 -1.05,-3.388 -1.05,-5.292 v -13.44 c 0,-1.903 0.349,-3.667 1.05,-5.292 0.7,-1.624 1.651,-3.037 2.856,-4.242 1.204,-1.204 2.617,-2.155 4.242,-2.856 1.624,-0.7 3.387,-1.05 5.292,-1.05 h 5.04 c 1.903,0 3.667,0.35 5.292,1.05 1.624,0.701 3.037,1.652 4.242,2.856 1.204,1.205 2.155,2.619 2.856,4.242 0.7,1.625 1.05,3.389 1.05,5.292 v 10.08 h -24.36 v 3.36 c 0,1.68 0.56,3.081 1.68,4.2 1.12,1.121 2.52,1.68 4.2,1.68 h 6.72 c 1.68,0 3.108,-0.307 4.284,-0.924 1.176,-0.616 1.987,-1.147 2.436,-1.596 h 0.84 l 3.36,3.36 v 1.68 l -1.68,1.68 c -0.84,0.84 -2.171,1.61 -3.99,2.31 -1.82,0.701 -3.57,1.05 -5.25,1.05 z m 0,-32.76 c -1.68,0 -3.081,0.56 -4.2,1.68 -1.121,1.121 -1.68,2.52 -1.68,4.2 v 2.52 h 16.8 v -2.52 c 0,-1.68 -0.575,-3.079 -1.722,-4.2 -1.148,-1.12 -2.562,-1.68 -4.242,-1.68 z"
           id="path16" />
        <path
           inkscape:connector-curvature="0"
           d="m 244.437,154.808 c 1.903,0 3.667,0.35 5.292,1.05 1.624,0.701 3.037,1.652 4.242,2.856 1.203,1.205 2.155,2.619 2.855,4.242 0.7,1.625 1.051,3.389 1.051,5.292 v 26.04 l -0.841,0.84 h -5.88 l -0.839,-0.84 v -26.04 c 0,-1.68 -0.575,-3.079 -1.722,-4.2 -1.148,-1.12 -2.562,-1.68 -4.242,-1.68 h -2.436 c -1.064,0 -2.1,0.197 -3.108,0.588 -1.008,0.392 -1.904,0.966 -2.688,1.722 -0.785,0.756 -1.415,1.653 -1.89,2.688 -0.477,1.037 -0.714,2.171 -0.714,3.402 v 23.52 l -0.84,0.84 h -5.88 l -0.84,-0.84 v -38.64 l 0.84,-0.84 h 1.68 l 3.444,3.612 c 1.344,-1.12 2.814,-2.001 4.41,-2.646 1.596,-0.643 3.457,-0.966 5.586,-0.966 z"
           id="path18" />
        <path
           inkscape:connector-curvature="0"
           d="m 265.436,185.888 0.84,-0.84 h 8.4 l 0.84,0.84 v 8.4 l -0.84,0.84 h -8.4 l -0.84,-0.84 z"
           id="path20" />
        <path
           inkscape:connector-curvature="0"
           d="m 297.036,162.368 c -1.289,0 -2.493,0.252 -3.612,0.756 -1.121,0.504 -2.1,1.176 -2.939,2.016 -0.841,0.84 -1.499,1.82 -1.975,2.94 -0.477,1.121 -0.714,2.297 -0.714,3.528 v 6.72 c 0,1.289 0.237,2.492 0.714,3.612 0.476,1.121 1.134,2.1 1.975,2.94 0.84,0.84 1.818,1.499 2.939,1.974 1.119,0.477 2.323,0.714 3.612,0.714 h 1.68 c 1.063,0 1.96,-0.126 2.688,-0.378 0.727,-0.252 1.356,-0.559 1.89,-0.924 0.531,-0.364 0.966,-0.742 1.302,-1.134 0.336,-0.391 0.616,-0.7 0.84,-0.924 h 0.841 l 3.359,4.2 v 1.68 l -1.68,1.68 c -0.84,0.84 -2.171,1.61 -3.99,2.31 -1.82,0.701 -3.57,1.05 -5.25,1.05 h -1.68 c -2.297,0 -4.467,-0.448 -6.51,-1.344 -2.045,-0.895 -3.822,-2.1 -5.335,-3.612 -1.512,-1.512 -2.717,-3.289 -3.611,-5.334 -0.896,-2.043 -1.344,-4.213 -1.344,-6.51 v -6.72 c 0,-2.295 0.447,-4.465 1.344,-6.51 0.895,-2.044 2.1,-3.822 3.611,-5.334 1.513,-1.512 3.29,-2.716 5.335,-3.612 2.043,-0.895 4.213,-1.344 6.51,-1.344 h 1.68 c 1.68,0 3.43,0.35 5.25,1.05 1.819,0.701 3.15,1.47 3.99,2.31 l 1.68,1.68 v 1.68 l -3.359,4.2 h -0.841 c -0.224,-0.223 -0.504,-0.532 -0.84,-0.924 -0.336,-0.391 -0.771,-0.769 -1.302,-1.134 -0.533,-0.364 -1.163,-0.672 -1.89,-0.924 -0.729,-0.252 -1.625,-0.378 -2.688,-0.378 z"
           id="path22" />
        <path
           inkscape:connector-curvature="0"
           d="m 333.155,154.808 c 1.903,0 3.667,0.35 5.292,1.05 1.624,0.701 3.037,1.652 4.242,2.856 1.203,1.205 2.155,2.619 2.855,4.242 0.7,1.625 1.051,3.389 1.051,5.292 v 26.04 l -0.841,0.84 h -5.88 l -0.84,-0.84 v -26.04 c 0,-1.68 -0.575,-3.079 -1.722,-4.2 -1.148,-1.12 -2.563,-1.68 -4.242,-1.68 h -2.436 c -1.064,0 -2.101,0.21 -3.108,0.63 -1.007,0.42 -1.904,1.008 -2.688,1.764 -0.784,0.756 -1.414,1.653 -1.89,2.688 -0.477,1.037 -0.714,2.142 -0.714,3.318 v 23.52 l -0.84,0.84 h -5.88 l -0.84,-0.84 v -52.08 l 0.84,-0.84 h 5.88 l 0.84,0.84 v 12.6 l -1.596,2.52 0.756,0.84 0.84,-0.84 c 1.287,-0.84 2.59,-1.47 3.906,-1.89 1.314,-0.42 2.813,-0.63 4.494,-0.63 z"
           id="path24" />
      </g>
      <g
         id="g32">
        <g
           id="g30">
          <path
             style="fill:#ffffff"
             inkscape:connector-curvature="0"
             d="m 152.962,68.527 c 1.364,0.282 2.17,0.448 3.473,0.717 -0.175,-1.642 -0.088,-3.119 -0.52,-4.426 -1.028,-3.115 -0.029,-5.884 1.026,-8.705 0.317,-0.848 0.525,-1.748 0.675,-2.643 0.195,-1.161 0.342,-2.337 0.398,-3.511 0.054,-1.119 0.313,-2.414 -0.133,-3.334 -0.993,-2.048 -0.636,-3.894 0.116,-5.819 0.935,-2.394 1.867,-4.788 2.787,-7.188 0.602,-1.57 -0.047,-2.767 -1.703,-3.212 -0.934,-0.251 -1.862,-0.523 -2.98,-0.838 0.441,-1.038 0.795,-1.918 1.184,-2.782 1.013,-2.246 1.267,-4.473 1.151,-7.027 -0.122,-2.68 0.694,-5.57 3.163,-7.585 1.762,-1.438 3.234,-3.233 4.977,-5.014 0.245,0.253 0.687,0.654 1.066,1.108 1.329,1.591 2.969,2.559 5.085,2.495 1.786,-0.054 2.838,0.77 3.395,2.439 0.609,1.826 2.064,2.665 3.685,3.65 1.726,1.049 2.874,3.063 4.244,4.681 1.461,1.725 1.482,3.487 1.022,5.778 -0.99,4.92 -1.824,9.981 -1.764,14.973 0.065,5.345 2.193,10.302 6.594,13.708 3.449,2.669 3.796,6.053 3.72,10.003 -0.051,2.668 -1.295,4.103 -3.041,5.719 -1.705,1.578 -3.189,3.474 -4.444,5.438 -1.293,2.024 -2.582,3.92 -4.618,5.307 -0.769,0.524 -1.396,1.546 -1.665,2.465 -0.931,3.185 -2.752,5.597 -5.623,7.234 -2.129,1.214 -6.232,-0.831 -6.289,-3.247 -0.089,-3.834 -1.696,-6.491 -5.437,-7.661 -6.114,-1.911 -7.208,-7.49 -9.544,-12.723 z"
             id="path28" />
        </g>
      </g>
      <g
         id="g56">
        <path
           inkscape:connector-curvature="0"
           d="m 18.48,154.808 c 1.903,0 3.667,0.35 5.292,1.05 1.624,0.701 3.037,1.652 4.242,2.856 1.204,1.205 2.155,2.619 2.856,4.242 0.7,1.625 1.05,3.389 1.05,5.292 v 26.04 l -0.84,0.84 H 29.4 l -3.36,-3.36 c -1.457,1.121 -2.969,1.961 -4.536,2.52 -1.568,0.56 -3.416,0.84 -5.544,0.84 h -4.2 c -1.68,0 -3.234,-0.294 -4.662,-0.882 C 5.67,193.658 4.423,192.832 3.36,191.768 2.296,190.705 1.47,189.458 0.882,188.03 0.294,186.602 0,185.048 0,183.368 c 0,-1.624 0.28,-3.136 0.84,-4.536 0.559,-1.399 1.344,-2.617 2.352,-3.654 1.008,-1.035 2.197,-1.875 3.57,-2.52 1.372,-0.643 2.869,-0.993 4.494,-1.05 H 24.36 v -3.36 c 0,-1.68 -0.561,-3.079 -1.68,-4.2 -1.121,-1.12 -2.52,-1.68 -4.2,-1.68 h -5.04 c -1.064,0 -1.96,0.126 -2.688,0.378 -0.728,0.252 -1.358,0.56 -1.89,0.924 -0.533,0.365 -0.966,0.743 -1.302,1.134 -0.336,0.393 -0.617,0.701 -0.84,0.924 H 5.88 l -3.36,-4.2 v -1.68 l 1.68,-1.68 c 0.84,-0.84 2.169,-1.609 3.99,-2.31 1.819,-0.7 3.57,-1.05 5.25,-1.05 z m -6.804,24.36 c -1.176,0 -2.157,0.393 -2.94,1.176 -0.785,0.785 -1.176,1.821 -1.176,3.108 0,1.176 0.378,2.156 1.134,2.94 0.756,0.785 1.75,1.176 2.982,1.176 h 4.284 c 2.52,0 4.549,-0.769 6.09,-2.31 1.54,-1.54 2.31,-3.57 2.31,-6.09 z"
           id="path34" />
        <path
           inkscape:connector-curvature="0"
           d="m 46.787,194.078 c -1.625,-0.7 -3.039,-1.651 -4.242,-2.856 -1.205,-1.204 -2.156,-2.617 -2.856,-4.242 -0.701,-1.624 -1.05,-3.388 -1.05,-5.292 v -37.8 l 5.04,-2.52 h 1.68 l 0.84,0.84 v 39.48 c 0,1.68 0.56,3.081 1.68,4.2 1.12,1.121 2.52,1.68 4.2,1.68 h 4.2 l 0.84,0.84 v 5.88 l -0.84,0.84 h -4.2 c -1.905,0 -3.668,-0.349 -5.292,-1.05 z"
           id="path36" />
        <path
           inkscape:connector-curvature="0"
           d="m 76.439,195.128 c -2.129,0 -3.99,-0.322 -5.586,-0.966 -1.596,-0.643 -3.066,-1.525 -4.41,-2.646 l -3.444,3.612 h -1.68 l -0.84,-0.84 v -52.08 l 0.84,-0.84 h 5.88 l 0.84,0.84 v 12.6 l -1.596,2.52 0.756,0.84 0.84,-0.84 c 1.288,-0.84 2.59,-1.47 3.906,-1.89 1.315,-0.42 2.814,-0.63 4.494,-0.63 h 1.68 c 1.903,0 3.667,0.35 5.292,1.05 1.624,0.701 3.037,1.652 4.242,2.856 1.204,1.205 2.155,2.619 2.856,4.242 0.7,1.625 1.05,3.389 1.05,5.292 v 13.44 c 0,1.904 -0.35,3.668 -1.05,5.292 -0.701,1.625 -1.652,3.039 -2.856,4.242 -1.205,1.205 -2.619,2.156 -4.242,2.856 -1.625,0.701 -3.389,1.05 -5.292,1.05 z m 0,-32.76 c -1.064,0 -2.1,0.21 -3.108,0.63 -1.008,0.42 -1.904,1.008 -2.688,1.764 -0.785,0.756 -1.415,1.653 -1.89,2.688 -0.477,1.037 -0.714,2.142 -0.714,3.318 v 8.4 c 0,1.289 0.238,2.436 0.714,3.444 0.475,1.008 1.105,1.89 1.89,2.646 0.784,0.756 1.68,1.331 2.688,1.722 1.008,0.393 2.044,0.588 3.108,0.588 h 1.596 c 1.68,0 3.094,-0.559 4.242,-1.68 1.147,-1.119 1.722,-2.52 1.722,-4.2 v -13.44 c 0,-1.68 -0.575,-3.079 -1.722,-4.2 -1.148,-1.12 -2.562,-1.68 -4.242,-1.68 z"
           id="path38" />
        <path
           inkscape:connector-curvature="0"
           d="m 113.398,154.808 c 1.903,0 3.667,0.35 5.292,1.05 1.624,0.701 3.037,1.652 4.242,2.856 1.204,1.205 2.155,2.619 2.856,4.242 0.7,1.625 1.05,3.389 1.05,5.292 v 26.04 l -0.84,0.84 h -1.68 l -3.36,-3.36 c -1.457,1.121 -2.969,1.961 -4.536,2.52 -1.568,0.56 -3.416,0.84 -5.544,0.84 h -4.2 c -1.68,0 -3.234,-0.294 -4.662,-0.882 -1.428,-0.588 -2.675,-1.414 -3.738,-2.478 -1.064,-1.063 -1.89,-2.31 -2.478,-3.738 -0.588,-1.428 -0.882,-2.982 -0.882,-4.662 0,-1.624 0.28,-3.136 0.84,-4.536 0.559,-1.399 1.344,-2.617 2.352,-3.654 1.008,-1.035 2.197,-1.875 3.57,-2.52 1.372,-0.643 2.869,-0.993 4.494,-1.05 h 13.104 v -3.36 c 0,-1.68 -0.561,-3.079 -1.68,-4.2 -1.121,-1.12 -2.52,-1.68 -4.2,-1.68 h -5.04 c -1.064,0 -1.96,0.126 -2.688,0.378 -0.728,0.252 -1.358,0.56 -1.89,0.924 -0.533,0.365 -0.966,0.743 -1.302,1.134 -0.336,0.393 -0.617,0.701 -0.84,0.924 h -0.84 l -3.36,-4.2 v -1.68 l 1.68,-1.68 c 0.84,-0.84 2.169,-1.609 3.99,-2.31 1.819,-0.7 3.57,-1.05 5.25,-1.05 z m -6.803,24.36 c -1.176,0 -2.157,0.393 -2.94,1.176 -0.785,0.785 -1.176,1.821 -1.176,3.108 0,1.176 0.378,2.156 1.134,2.94 0.756,0.785 1.75,1.176 2.982,1.176 h 4.284 c 2.52,0 4.549,-0.769 6.09,-2.31 1.54,-1.54 2.31,-3.57 2.31,-6.09 z"
           id="path40" />
        <path
           inkscape:connector-curvature="0"
           d="m 152.038,154.808 c 1.903,0 3.667,0.35 5.292,1.05 1.624,0.701 3.037,1.652 4.242,2.856 1.204,1.205 2.155,2.619 2.856,4.242 0.7,1.625 1.05,3.389 1.05,5.292 v 26.04 l -0.84,0.84 h -5.88 l -0.84,-0.84 v -26.04 c 0,-1.68 -0.575,-3.079 -1.722,-4.2 -1.148,-1.12 -2.562,-1.68 -4.242,-1.68 h -2.436 c -1.064,0 -2.1,0.197 -3.108,0.588 -1.008,0.392 -1.904,0.966 -2.688,1.722 -0.785,0.756 -1.415,1.653 -1.89,2.688 -0.477,1.037 -0.714,2.171 -0.714,3.402 v 23.52 l -0.84,0.84 h -5.88 l -0.84,-0.84 v -38.64 l 0.84,-0.84 h 1.68 l 3.444,3.612 c 1.344,-1.12 2.814,-2.001 4.41,-2.646 1.596,-0.643 3.457,-0.966 5.586,-0.966 z"
           id="path42" />
        <path
           inkscape:connector-curvature="0"
           d="m 173.037,142.208 0.84,-0.84 h 5.88 l 0.84,0.84 v 6.72 l -0.84,0.84 h -5.88 l -0.84,-0.84 z m 0,13.44 0.84,-0.84 h 5.88 l 0.84,0.84 v 38.64 l -0.84,0.84 h -5.88 l -0.84,-0.84 z"
           id="path44" />
        <path
           inkscape:connector-curvature="0"
           d="m 200.757,195.128 c -1.905,0 -3.668,-0.349 -5.292,-1.05 -1.625,-0.7 -3.039,-1.651 -4.242,-2.856 -1.205,-1.204 -2.156,-2.617 -2.856,-4.242 -0.701,-1.624 -1.05,-3.388 -1.05,-5.292 v -13.44 c 0,-1.903 0.349,-3.667 1.05,-5.292 0.7,-1.624 1.651,-3.037 2.856,-4.242 1.204,-1.204 2.617,-2.155 4.242,-2.856 1.624,-0.7 3.387,-1.05 5.292,-1.05 h 5.04 c 1.903,0 3.667,0.35 5.292,1.05 1.624,0.701 3.037,1.652 4.242,2.856 1.204,1.205 2.155,2.619 2.856,4.242 0.7,1.625 1.05,3.389 1.05,5.292 v 10.08 h -24.36 v 3.36 c 0,1.68 0.56,3.081 1.68,4.2 1.12,1.121 2.52,1.68 4.2,1.68 h 6.72 c 1.68,0 3.108,-0.307 4.284,-0.924 1.176,-0.616 1.987,-1.147 2.436,-1.596 h 0.84 l 3.36,3.36 v 1.68 l -1.68,1.68 c -0.84,0.84 -2.171,1.61 -3.99,2.31 -1.82,0.701 -3.57,1.05 -5.25,1.05 z m 0,-32.76 c -1.68,0 -3.081,0.56 -4.2,1.68 -1.121,1.121 -1.68,2.52 -1.68,4.2 v 2.52 h 16.8 v -2.52 c 0,-1.68 -0.575,-3.079 -1.722,-4.2 -1.148,-1.12 -2.562,-1.68 -4.242,-1.68 z"
           id="path46" />
        <path
           inkscape:connector-curvature="0"
           d="m 244.437,154.808 c 1.903,0 3.667,0.35 5.292,1.05 1.624,0.701 3.037,1.652 4.242,2.856 1.203,1.205 2.155,2.619 2.855,4.242 0.7,1.625 1.051,3.389 1.051,5.292 v 26.04 l -0.841,0.84 h -5.88 l -0.839,-0.84 v -26.04 c 0,-1.68 -0.575,-3.079 -1.722,-4.2 -1.148,-1.12 -2.562,-1.68 -4.242,-1.68 h -2.436 c -1.064,0 -2.1,0.197 -3.108,0.588 -1.008,0.392 -1.904,0.966 -2.688,1.722 -0.785,0.756 -1.415,1.653 -1.89,2.688 -0.477,1.037 -0.714,2.171 -0.714,3.402 v 23.52 l -0.84,0.84 h -5.88 l -0.84,-0.84 v -38.64 l 0.84,-0.84 h 1.68 l 3.444,3.612 c 1.344,-1.12 2.814,-2.001 4.41,-2.646 1.596,-0.643 3.457,-0.966 5.586,-0.966 z"
           id="path48" />
        <path
           inkscape:connector-curvature="0"
           d="m 265.436,185.888 0.84,-0.84 h 8.4 l 0.84,0.84 v 8.4 l -0.84,0.84 h -8.4 l -0.84,-0.84 z"
           id="path50" />
        <path
           inkscape:connector-curvature="0"
           d="m 297.036,162.368 c -1.289,0 -2.493,0.252 -3.612,0.756 -1.121,0.504 -2.1,1.176 -2.939,2.016 -0.841,0.84 -1.499,1.82 -1.975,2.94 -0.477,1.121 -0.714,2.297 -0.714,3.528 v 6.72 c 0,1.289 0.237,2.492 0.714,3.612 0.476,1.121 1.134,2.1 1.975,2.94 0.84,0.84 1.818,1.499 2.939,1.974 1.119,0.477 2.323,0.714 3.612,0.714 h 1.68 c 1.063,0 1.96,-0.126 2.688,-0.378 0.727,-0.252 1.356,-0.559 1.89,-0.924 0.531,-0.364 0.966,-0.742 1.302,-1.134 0.336,-0.391 0.616,-0.7 0.84,-0.924 h 0.841 l 3.359,4.2 v 1.68 l -1.68,1.68 c -0.84,0.84 -2.171,1.61 -3.99,2.31 -1.82,0.701 -3.57,1.05 -5.25,1.05 h -1.68 c -2.297,0 -4.467,-0.448 -6.51,-1.344 -2.045,-0.895 -3.822,-2.1 -5.335,-3.612 -1.512,-1.512 -2.717,-3.289 -3.611,-5.334 -0.896,-2.043 -1.344,-4.213 -1.344,-6.51 v -6.72 c 0,-2.295 0.447,-4.465 1.344,-6.51 0.895,-2.044 2.1,-3.822 3.611,-5.334 1.513,-1.512 3.29,-2.716 5.335,-3.612 2.043,-0.895 4.213,-1.344 6.51,-1.344 h 1.68 c 1.68,0 3.43,0.35 5.25,1.05 1.819,0.701 3.15,1.47 3.99,2.31 l 1.68,1.68 v 1.68 l -3.359,4.2 h -0.841 c -0.224,-0.223 -0.504,-0.532 -0.84,-0.924 -0.336,-0.391 -0.771,-0.769 -1.302,-1.134 -0.533,-0.364 -1.163,-0.672 -1.89,-0.924 -0.729,-0.252 -1.625,-0.378 -2.688,-0.378 z"
           id="path52" />
        <path
           inkscape:connector-curvature="0"
           d="m 333.155,154.808 c 1.903,0 3.667,0.35 5.292,1.05 1.624,0.701 3.037,1.652 4.242,2.856 1.203,1.205 2.155,2.619 2.855,4.242 0.7,1.625 1.051,3.389 1.051,5.292 v 26.04 l -0.841,0.84 h -5.88 l -0.84,-0.84 v -26.04 c 0,-1.68 -0.575,-3.079 -1.722,-4.2 -1.148,-1.12 -2.563,-1.68 -4.242,-1.68 h -2.436 c -1.064,0 -2.101,0.21 -3.108,0.63 -1.007,0.42 -1.904,1.008 -2.688,1.764 -0.784,0.756 -1.414,1.653 -1.89,2.688 -0.477,1.037 -0.714,2.142 -0.714,3.318 v 23.52 l -0.84,0.84 h -5.88 l -0.84,-0.84 v -52.08 l 0.84,-0.84 h 5.88 l 0.84,0.84 v 12.6 l -1.596,2.52 0.756,0.84 0.84,-0.84 c 1.287,-0.84 2.59,-1.47 3.906,-1.89 1.314,-0.42 2.813,-0.63 4.494,-0.63 z"
           id="path54" />
      </g>
      <g
         id="g64">
        <path
           style="fill:none"
           inkscape:connector-curvature="0"
           d="m 150.505,62.914 c -0.019,-0.337 -0.016,-0.667 -0.011,-0.995 h -4.806 z"
           id="path58" />
        <path
           style="fill:#ffffff"
           inkscape:connector-curvature="0"
           d="m 145.688,61.919 h 4.806 c 0.047,-2.94 0.997,-5.507 1.764,-7.557 0.169,-0.453 0.309,-1.015 0.427,-1.719 0.183,-1.092 0.293,-2.049 0.335,-2.924 0.015,-0.308 0.041,-0.626 0.068,-0.948 0.013,-0.155 0.031,-0.357 0.041,-0.524 -1.579,-3.742 -0.65,-7.055 0.21,-9.26 0.147,-0.375 0.292,-0.751 0.439,-1.127 h -19.856 v 24.058 h 10.615 l -0.117,-0.262 z"
           id="path60" />
        <path
           style="fill:#ffffff"
           inkscape:connector-curvature="0"
           d="m 212.673,37.713 h -24.161 c -0.138,1.512 -0.22,3.027 -0.202,4.513 0.035,2.861 0.87,6.886 4.655,9.815 3.813,2.951 5.08,6.613 5.487,9.73 h 14.221 z"
           id="path62" />
      </g>
    </g>
  </g>
</svg>
