<?xml version="1.0" encoding="utf-8"?>
<!-- Generator: Adobe Illustrator 17.1.0, SVG Export Plug-In . SVG Version: 6.00 Build 0)  -->
<!DOCTYPE svg PUBLIC "-//W3C//DTD SVG 1.1//EN" "http://www.w3.org/Graphics/SVG/1.1/DTD/svg11.dtd">
<svg version="1.1" id="Layer_1" xmlns="http://www.w3.org/2000/svg" xmlns:xlink="http://www.w3.org/1999/xlink" x="0px" y="0px"
	 viewBox="0 0 258 182.7" enable-background="new 0 0 258 182.7" xml:space="preserve">
<g>
	<g>
		<path fill="#FFFFFF" d="M11.7,146.7C4.5,146.7,0,151.8,0,160c0,8.4,4.5,13.3,11.7,13.3c7.2,0,11.7-4.9,11.7-13.3
			C23.4,151.8,18.9,146.7,11.7,146.7z M11.7,167.1c-3.2,0-5.2-2.6-5.2-7.1s2-7.1,5.2-7.1c3.3,0,5.2,2.7,5.2,7.1S15,167.1,11.7,167.1
			z"/>
		<path fill="#FFFFFF" d="M33.7,149.5v-2.2h-6.5v25.5h6.5v-14.2c0-4.4,2.1-5.5,4.4-5.5c2,0,3.4,0.6,4.6,1.5l0.9-5.9
			c-1.4-1.2-3-1.9-5.2-1.9C35.9,146.7,34.4,147.9,33.7,149.5z"/>
		<path fill="#FFFFFF" d="M59.6,148.6c-1.3-1.3-3.1-1.9-5.4-1.9c-6.2,0-10.6,5.1-10.6,13.3c0,8.9,4.4,13.4,10.5,13.4
			c2,0,3.9-0.4,5.5-1.9v0.7c0,3.7-2.2,4.7-9.1,5.2l3.6,5.4c9.6-0.7,12-4.6,12-13.4v-22h-6.5V148.6z M59.6,165.1c-1,1.3-2.3,2-4.4,2
			c-3.4,0-5.1-2.9-5.1-7.1c0-4.6,1.8-7.1,5.1-7.1c2.4,0,3.6,1.1,4.4,2.1V165.1z"/>
		<path fill="#FFFFFF" d="M98,146.7c-3.2,0-6,1-7.8,3.6c-1.2-2.3-3.3-3.6-6.5-3.6c-2.7,0-4.6,1.1-6,2.9v-2.3h-6.5v25.5h6.5v-14
			c0-4.1,1.4-5.9,4.4-5.9c2.9,0,4,1.7,4,5.9v13.9h6.5v-14c0-4.1,1.4-5.9,4.4-5.9c2.9,0,4,1.7,4,5.9v13.9h6.5v-16
			C107.5,149.1,103.4,146.7,98,146.7z"/>
		<path fill="#FFFFFF" d="M122.7,146.7c-4.4,0-8,1.3-10.4,3l2,5.2c2.4-1.6,4.9-2.5,7.9-2.5c2.9,0,4.6,1.2,4.6,4v1.3
			c-1.5-0.7-3.4-1.2-5.8-1.2c-5,0-10.1,2.5-10.1,8.4c0,5.6,4.1,8.4,9.4,8.4c3.3,0,5.4-1.2,6.6-2.4v1.8h6.4v-16.3
			C133.1,147.8,127.3,146.7,122.7,146.7z M126.7,165.6c-1.2,1.1-3,2.1-5.3,2.1c-2.8,0-4.3-1.1-4.3-2.7c0-2.1,2.2-2.9,4.9-2.9
			c1.7,0,3.4,0.3,4.7,0.8V165.6z"/>
		<path fill="#FFFFFF" d="M150.9,146.7c-3,0-5.2,1-6.8,3v-2.4h-6.5v25.5h6.5v-14.1c0-4,1.7-5.8,4.8-5.8c3,0,4.4,1.7,4.4,5.9v14h6.5
			v-16.1C159.9,149.1,155.3,146.7,150.9,146.7z"/>
		<path fill="#FFFFFF" d="M175,146.7c-4.4,0-8,1.3-10.4,3l2,5.2c2.4-1.6,4.9-2.5,7.9-2.5c2.9,0,4.6,1.2,4.6,4v1.3
			c-1.5-0.7-3.4-1.2-5.8-1.2c-5,0-10.1,2.5-10.1,8.4c0,5.6,4.1,8.4,9.4,8.4c3.3,0,5.4-1.2,6.6-2.4v1.8h6.4v-16.3
			C185.4,147.8,179.6,146.7,175,146.7z M179.1,165.6c-1.2,1.1-3,2.1-5.3,2.1c-2.8,0-4.3-1.1-4.3-2.7c0-2.1,2.2-2.9,4.9-2.9
			c1.7,0,3.4,0.3,4.7,0.8V165.6z"/>
		<path fill="#FFFFFF" d="M204.7,148.6c-1.3-1.3-3.1-1.9-5.4-1.9c-6.2,0-10.6,5.1-10.6,13.3c0,8.9,4.4,13.4,10.5,13.4
			c2,0,3.9-0.4,5.5-1.9v0.7c0,3.7-2.2,4.7-9.1,5.2l3.6,5.4c9.6-0.7,12-4.6,12-13.4v-22h-6.5V148.6z M204.7,165.1c-1,1.3-2.3,2-4.4,2
			c-3.4,0-5.1-2.9-5.1-7.1c0-4.6,1.8-7.1,5.1-7.1c2.4,0,3.6,1.1,4.4,2.1V165.1z"/>
		<path fill="#FFFFFF" d="M226.9,146.7c-7.3,0-11.9,5.1-11.9,13.3c0,8.4,4.5,13.4,11.9,13.4c4.2,0,7.3-1.7,9.5-4.3l-4-4
			c-1.4,1.8-3.1,2.6-5.5,2.6c-2.8,0-5.3-1.8-5.5-5.1h16.6c0.2-1.4,0.2-2.8,0.2-3.8C238.1,150.5,233.1,146.7,226.9,146.7z M221.4,157
			c0.4-3.2,2.4-4.7,5.5-4.7c2.6,0,4.5,1.7,4.9,4.7H221.4z"/>
		<path fill="#FFFFFF" d="M252.9,146.7c-2.5,0-4,1.2-4.7,2.8v-2.2h-6.5v25.5h6.5v-14.2c0-4.4,2.1-5.5,4.4-5.5c2,0,3.4,0.6,4.6,1.5
			l0.9-5.9C256.6,147.4,255,146.7,252.9,146.7z"/>
	</g>
	<path fill="#FFFFFF" d="M134.3,2.2c-3-3-7.8-3-10.8,0L71.7,54c-3,3-3,7.9,0,10.8l52,52c3,3,7.8,3,10.8,0l51.7-51.7
		c3-3,3-7.9,0-10.8L134.3,2.2z M166.2,71.9l-12.4-12.4l3.1-3.1l-9.3-9.3l-12.4,12.4l9.3,9.3l3.1-3.1L160,78.1l-12.4,12.4l-12.4-12.4
		l3.1-3.1l-9.3-9.3l-12.4,12.4l9.3,9.3l3.1-3.1l12.4,12.4L129,109.2l-12.4-12.4l3.1-3.1l-15.5-15.5l18.6-18.6l-9.3-9.3l-3.1,3.1
		L98,40.9l12.4-12.4l12.4,12.4l-3.1,3.1l9.3,9.3l18.6-18.6l15.5,15.5l3.1-3.1l12.4,12.4L166.2,71.9z"/>
</g>
</svg>
