<?xml version="1.0" encoding="utf-8"?>
<!-- Generator: Adobe Illustrator 17.1.0, SVG Export Plug-In . SVG Version: 6.00 Build 0)  -->
<!DOCTYPE svg PUBLIC "-//W3C//DTD SVG 1.1//EN" "http://www.w3.org/Graphics/SVG/1.1/DTD/svg11.dtd">
<svg version="1.1" id="Layer_1" xmlns="http://www.w3.org/2000/svg" xmlns:xlink="http://www.w3.org/1999/xlink" x="0px" y="0px"
	 viewBox="0 0 344.5 83.2" enable-background="new 0 0 344.5 83.2" xml:space="preserve">
<g>
	<path fill="#FFFFFF" d="M45.3,1.6c-2.1-2.1-5.5-2.1-7.6,0L1.6,37.7c-2.1,2.1-2.1,5.5,0,7.6l36.3,36.3c2.1,2.1,5.5,2.1,7.6,0
		l36.1-36.1c2.1-2.1,2.1-5.5,0-7.6L45.3,1.6z M67.6,50.3l-8.7-8.7l2.2-2.2l-6.5-6.5l-8.7,8.7l6.5,6.5l2.2-2.2l8.7,8.7l-8.7,8.7
		l-8.7-8.7l2.2-2.2l-6.5-6.5l-8.7,8.7l6.5,6.5l2.2-2.2l8.7,8.7l-8.7,8.7l-8.7-8.7l2.2-2.2L24.2,54.6l13-13l-6.5-6.5l-2.2,2.2
		l-8.7-8.7l8.7-8.7l8.7,8.7l-2.2,2.2l6.5,6.5l13-13l10.8,10.8l2.2-2.2l8.7,8.7L67.6,50.3z"/>
	<path fill="#FFFFFF" d="M110.3,29.2c-6.8,0-11.1,4.8-11.1,12.7c0,8,4.3,12.7,11.1,12.7c6.8,0,11.1-4.7,11.1-12.7
		C121.4,34,117.1,29.2,110.3,29.2z M110.3,48.6c-3,0-5-2.5-5-6.7s1.9-6.8,5-6.8c3.1,0,5,2.6,5,6.8S113.4,48.6,110.3,48.6z"/>
	<path fill="#FFFFFF" d="M131.2,31.9v-2.1H125V54h6.2V40.5c0-4.2,2-5.2,4.2-5.2c1.9,0,3.3,0.6,4.4,1.4l0.9-5.6
		c-1.4-1.1-2.9-1.8-4.9-1.8C133.3,29.2,131.9,30.4,131.2,31.9z"/>
	<path fill="#FFFFFF" d="M155.8,31c-1.3-1.2-3-1.8-5.2-1.8c-5.9,0-10.1,4.8-10.1,12.7c0,8.4,4.2,12.7,10,12.7c1.9,0,3.7-0.4,5.2-1.8
		v0.7c0,3.5-2.1,4.5-8.7,5l3.4,5.1c9.2-0.7,11.4-4.4,11.4-12.8v-21h-6.2V31z M155.8,46.7c-0.9,1.3-2.2,1.9-4.2,1.9
		c-3.3,0-4.8-2.8-4.8-6.8c0-4.4,1.8-6.7,4.8-6.7c2.3,0,3.5,1.1,4.2,2V46.7z"/>
	<path fill="#FFFFFF" d="M192.3,29.2c-3,0-5.7,1-7.4,3.4c-1.1-2.2-3.1-3.4-6.2-3.4c-2.6,0-4.4,1.1-5.7,2.8v-2.2h-6.2V54h6.2V40.7
		c0-3.9,1.4-5.6,4.2-5.6c2.8,0,3.8,1.7,3.8,5.6V54h6.2V40.7c0-3.9,1.3-5.6,4.2-5.6c2.8,0,3.8,1.7,3.8,5.6V54h6.2V38.8
		C201.4,31.5,197.5,29.2,192.3,29.2z"/>
	<path fill="#FFFFFF" d="M215.8,29.2c-4.2,0-7.6,1.3-9.9,2.8l1.9,5c2.3-1.6,4.6-2.4,7.5-2.4c2.8,0,4.4,1.2,4.4,3.8v1.2
		c-1.5-0.7-3.2-1.1-5.5-1.1c-4.8,0-9.6,2.4-9.6,8c0,5.3,3.9,8,8.9,8c3.2,0,5.1-1.2,6.3-2.3V54h6.1V38.5
		C225.7,30.3,220.2,29.2,215.8,29.2z M219.6,47.2c-1.2,1.1-2.8,2-5.1,2c-2.7,0-4.1-1-4.1-2.6c0-2,2.1-2.8,4.6-2.8
		c1.7,0,3.2,0.3,4.5,0.8V47.2z"/>
	<path fill="#FFFFFF" d="M242.6,29.2c-2.8,0-5,1-6.5,2.8v-2.3H230V54h6.2V40.6c0-3.8,1.6-5.5,4.6-5.5c2.8,0,4.2,1.7,4.2,5.6V54h6.2
		V38.7C251.1,31.5,246.8,29.2,242.6,29.2z"/>
	<path fill="#FFFFFF" d="M265.6,29.2c-4.2,0-7.6,1.3-9.9,2.8l1.9,5c2.3-1.6,4.6-2.4,7.5-2.4c2.8,0,4.4,1.2,4.4,3.8v1.2
		c-1.5-0.7-3.2-1.1-5.5-1.1c-4.8,0-9.6,2.4-9.6,8c0,5.3,3.9,8,8.9,8c3.2,0,5.1-1.2,6.3-2.3V54h6.1V38.5
		C275.5,30.3,269.9,29.2,265.6,29.2z M269.4,47.2c-1.2,1.1-2.8,2-5.1,2c-2.7,0-4.1-1-4.1-2.6c0-2,2.1-2.8,4.6-2.8
		c1.7,0,3.2,0.3,4.5,0.8V47.2z"/>
	<path fill="#FFFFFF" d="M293.8,31c-1.3-1.2-3-1.8-5.2-1.8c-5.9,0-10.1,4.8-10.1,12.7c0,8.4,4.2,12.7,10,12.7c1.9,0,3.7-0.4,5.2-1.8
		v0.7c0,3.5-2.1,4.5-8.7,5l3.4,5.1c9.2-0.7,11.4-4.4,11.4-12.8v-21h-6.2V31z M293.8,46.7c-0.9,1.3-2.2,1.9-4.2,1.9
		c-3.3,0-4.8-2.8-4.8-6.8c0-4.4,1.8-6.7,4.8-6.7c2.3,0,3.5,1.1,4.2,2V46.7z"/>
	<path fill="#FFFFFF" d="M314.8,29.2c-6.9,0-11.3,4.8-11.3,12.7c0,8,4.3,12.7,11.3,12.7c4,0,7-1.6,9-4.1l-3.8-3.8
		c-1.4,1.8-3,2.5-5.2,2.5c-2.7,0-5-1.8-5.3-4.9h15.8c0.2-1.3,0.2-2.7,0.2-3.7C325.6,32.8,320.8,29.2,314.8,29.2z M309.6,39.1
		c0.4-3,2.3-4.5,5.2-4.5c2.5,0,4.3,1.6,4.7,4.5H309.6z"/>
	<path fill="#FFFFFF" d="M339.6,29.2c-2.4,0-3.8,1.2-4.5,2.7v-2.1h-6.2V54h6.2V40.5c0-4.2,2-5.2,4.2-5.2c1.9,0,3.3,0.6,4.4,1.4
		l0.9-5.6C343.1,29.9,341.6,29.2,339.6,29.2z"/>
</g>
</svg>
