<?xml version="1.0" encoding="UTF-8" standalone="no"?>
<!-- Created with Inkscape (http://www.inkscape.org/) -->

<svg
   xmlns:dc="http://purl.org/dc/elements/1.1/"
   xmlns:cc="http://creativecommons.org/ns#"
   xmlns:rdf="http://www.w3.org/1999/02/22-rdf-syntax-ns#"
   xmlns:svg="http://www.w3.org/2000/svg"
   xmlns="http://www.w3.org/2000/svg"
   xmlns:sodipodi="http://sodipodi.sourceforge.net/DTD/sodipodi-0.dtd"
   xmlns:inkscape="http://www.inkscape.org/namespaces/inkscape"
   width="137.55165mm"
   height="39.08709mm"
   viewBox="0 0 137.55165 39.087089"
   version="1.1"
   id="svg4726"
   inkscape:version="0.92.1 r"
   sodipodi:docname="horizontal_white.svg"
   inkscape:export-filename="/home/anxhelo/Documents/ura works folder/whonix/horizontal_black.png"
   inkscape:export-xdpi="96.059998"
   inkscape:export-ydpi="96.059998">
  <defs
     id="defs4720" />
  <sodipodi:namedview
     id="base"
     pagecolor="#ffffff"
     bordercolor="#666666"
     borderopacity="1.0"
     inkscape:pageopacity="0.0"
     inkscape:pageshadow="2"
     inkscape:zoom="0.49497475"
     inkscape:cx="356.98604"
     inkscape:cy="254.28134"
     inkscape:document-units="mm"
     inkscape:current-layer="layer1"
     showgrid="false"
     fit-margin-top="0"
     fit-margin-left="0"
     fit-margin-right="0"
     fit-margin-bottom="0"
     inkscape:window-width="1366"
     inkscape:window-height="740"
     inkscape:window-x="0"
     inkscape:window-y="0"
     inkscape:window-maximized="1" />
  <metadata
     id="metadata4723">
    <rdf:RDF>
      <cc:Work
         rdf:about="">
        <dc:format>image/svg+xml</dc:format>
        <dc:type
           rdf:resource="http://purl.org/dc/dcmitype/StillImage" />
        <dc:title></dc:title>
      </cc:Work>
    </rdf:RDF>
  </metadata>
  <g
     inkscape:label="Layer 1"
     inkscape:groupmode="layer"
     id="layer1"
     transform="translate(-79.95428,-143.58095)">
    <g
       id="g5408"
       style="fill:#ffffff">
      <path
         inkscape:connector-curvature="0"
         id="path4562"
         style="fill:#ffffff;fill-opacity:1;fill-rule:nonzero;stroke:none;stroke-width:0.35277775"
         d="M 103.5537,177.05242 99.816727,157.65105 H 93.26388 l -3.736623,19.40137 -2.918177,-19.40137 h -6.6548 l 5.477228,24.98196 h 8.293452 l 2.815519,-15.40898 2.81552,15.40898 h 8.293101 l 5.47758,-24.98196 h -6.6548 z" />
      <path
         inkscape:connector-curvature="0"
         id="path4566"
         style="fill:#ffffff;fill-opacity:1;fill-rule:nonzero;stroke:none;stroke-width:0.35277775"
         d="m 189.55563,148.07776 c -1.02341,0 -1.91135,0.36724 -2.66135,1.10066 -0.75142,0.73449 -1.12642,1.62137 -1.12642,2.66242 0,1.0414 0.375,1.92828 1.12642,2.66171 0.75,0.73448 1.63794,1.10066 2.66135,1.10066 1.02412,0 1.90253,-0.35842 2.63666,-1.07491 0.73307,-0.71684 1.10032,-1.60408 1.10032,-2.66206 0,-1.05763 -0.36725,-1.95333 -1.10032,-2.68782 -0.73413,-0.73342 -1.61254,-1.10066 -2.63666,-1.10066" />
      <path
         inkscape:connector-curvature="0"
         id="path4568"
         style="fill:#ffffff;fill-opacity:1;fill-rule:nonzero;stroke:none;stroke-width:0.35277775"
         d="m 186.12596,182.63273 h 6.85977 v -24.98196 h -6.85977 z" />
      <path
         inkscape:connector-curvature="0"
         id="path4572"
         style="fill:#ffffff;fill-opacity:1;fill-rule:nonzero;stroke:none;stroke-width:0.35277775"
         d="m 210.54421,169.32285 6.5017,-11.67201 h -7.47466 l -2.96897,7.4743 -2.96898,-7.4743 h -7.4743 l 6.50099,11.67201 -6.96172,13.30995 h 7.11588 l 3.78813,-8.1908 3.78777,8.1908 h 7.11588 z" />
      <path
         inkscape:connector-curvature="0"
         id="path4576"
         style="fill:#ffffff;fill-opacity:1;fill-rule:nonzero;stroke:none;stroke-width:0.35277775"
         d="m 148.51731,177.12343 c -4.26932,0 -7.74135,-3.47168 -7.74135,-7.74135 0,-1.93887 0.72425,-3.79624 2.04046,-5.2317 l 0.005,-0.004 0.10407,-0.11183 0.0974,-0.10336 c 0.006,-0.006 0.0145,-0.0138 0.0204,-0.0198 l 5.47335,-5.76862 5.47511,5.76862 h 0.003 c 0.03,0.0318 0.0624,0.066 0.0938,0.0988 l 0.1277,0.13617 0.004,0.004 c 1.31727,1.43546 2.04152,3.29283 2.04152,5.2317 0,4.26967 -3.47415,7.74135 -7.74453,7.74135 m -5.6127,-25.04334 c 0,-2.98697 2.38689,-5.35728 5.37421,-5.35728 h 0.24519 c 2.98732,0 5.37668,2.37031 5.37668,5.35728 v 2.87197 c -1.64006,-0.65476 -3.42794,-1.01847 -5.30154,-1.01847 -2.02424,0 -3.949,0.42262 -5.69454,1.18074 z m 14.9232,5.23064 v -5.07894 c 0,-4.85246 -3.90666,-8.65082 -8.75841,-8.65082 h -0.73272 c -4.8514,0 -8.96655,3.79836 -8.96655,8.65082 v 5.07894 c -3.10586,2.62502 -5.08036,6.54685 -5.08036,10.93188 0,7.90328 6.40645,14.30937 14.30938,14.30937 7.90292,0 14.30902,-6.40609 14.30902,-14.30937 0,-4.38503 -1.9745,-8.30722 -5.08036,-10.93188" />
      <path
         inkscape:connector-curvature="0"
         id="path4580"
         style="fill:#ffffff;fill-opacity:1;fill-rule:nonzero;stroke:none;stroke-width:0.35277775"
         d="m 174.37338,157.48938 h -1.07491 c -2.15053,0 -3.32387,0.24729 -4.89762,1.44145 v -0.91687 h -5.02567 c 2.01789,2.90618 3.20499,6.43043 3.20499,10.22879 0,4.53637 -1.69228,8.68256 -4.47393,11.84945 v 2.57563 h 6.8192 v -19.59045 c 0,-0.2727 0.18132,-0.5648 0.36935,-0.76941 0.18697,-0.20497 0.50483,-0.35984 0.77858,-0.35984 h 2.81517 c 0.27305,0 0.39546,0.15487 0.58385,0.35984 0.18697,0.20461 0.17392,0.49671 0.17392,0.76941 v 19.59045 h 7.34377 v -18.77166 c 0,-4.50462 -2.38513,-6.40679 -6.6167,-6.40679" />
      <path
         inkscape:connector-curvature="0"
         id="path4584"
         style="fill:#ffffff;fill-opacity:1;fill-rule:nonzero;stroke:none;stroke-width:0.35277775"
         d="m 133.07958,159.17833 c -1.07844,-1.18815 -2.77283,-1.6891 -4.98404,-1.6891 h -1.07492 c -1.77482,0 -3.20675,0.0593 -4.25591,0.87842 v -9.00889 h -7.08166 v 33.30928 h 7.08166 v -19.69311 c 0,-0.61419 0.45015,-1.02694 1.03082,-1.02694 h 2.81552 c 0.27305,0 0.71614,0.15487 0.90452,0.35983 0.18732,0.20462 0.49459,0.49672 0.49459,0.76977 v 19.59045 h 6.8192 v -2.87867 c -2.62573,-3.12596 -4.21146,-7.15397 -4.21146,-11.54677 0,-3.30411 0.89993,-6.40079 2.46168,-9.06427" />
      <path
         inkscape:connector-curvature="0"
         id="path4588"
         style="fill:#ffffff;fill-opacity:1;fill-rule:nonzero;stroke:none;stroke-width:0.35277775"
         d="m 148.51855,172.88946 c -1.9364,0 -3.50626,-1.5695 -3.50626,-3.50661 0,-1.93675 1.56986,-3.50625 3.50626,-3.50625 1.9371,0 3.50661,1.5695 3.50661,3.50625 0,1.93711 -1.56951,3.50661 -3.50661,3.50661 m 0,-9.21173 c -3.15137,0 -5.70477,2.55341 -5.70477,5.70512 0,3.15101 2.5534,5.70513 5.70477,5.70513 3.15207,0 5.70547,-2.55412 5.70547,-5.70513 0,-3.15171 -2.5534,-5.70512 -5.70547,-5.70512" />
      <path
         inkscape:connector-curvature="0"
         id="path4592"
         style="fill:#ffffff;fill-opacity:1;fill-rule:nonzero;stroke:none;stroke-width:0.35277775"
         d="m 148.51893,167.81243 c -0.86677,0 -1.57021,0.70344 -1.57021,1.57021 0,0.86748 0.70344,1.57022 1.57021,1.57022 0.86748,0 1.57022,-0.70274 1.57022,-1.57022 0,-0.86677 -0.70274,-1.57021 -1.57022,-1.57021" />
    </g>
  </g>
</svg>
