<?xml version="1.0" encoding="UTF-8" standalone="no"?>
<!-- Created with Inkscape (http://www.inkscape.org/) -->

<svg
   xmlns:dc="http://purl.org/dc/elements/1.1/"
   xmlns:cc="http://creativecommons.org/ns#"
   xmlns:rdf="http://www.w3.org/1999/02/22-rdf-syntax-ns#"
   xmlns:svg="http://www.w3.org/2000/svg"
   xmlns="http://www.w3.org/2000/svg"
   xmlns:sodipodi="http://sodipodi.sourceforge.net/DTD/sodipodi-0.dtd"
   xmlns:inkscape="http://www.inkscape.org/namespaces/inkscape"
   width="137.55206mm"
   height="39.086971mm"
   viewBox="0 0 137.55206 39.086971"
   version="1.1"
   id="svg4726"
   inkscape:version="0.92.1 r"
   sodipodi:docname="horizontal_color.svg">
  <defs
     id="defs4720" />
  <sodipodi:namedview
     id="base"
     pagecolor="#ffffff"
     bordercolor="#666666"
     borderopacity="1.0"
     inkscape:pageopacity="0.0"
     inkscape:pageshadow="2"
     inkscape:zoom="0.98994949"
     inkscape:cx="174.35782"
     inkscape:cy="27.234162"
     inkscape:document-units="mm"
     inkscape:current-layer="layer1"
     showgrid="false"
     fit-margin-top="0"
     fit-margin-left="0"
     fit-margin-right="0"
     fit-margin-bottom="0"
     inkscape:window-width="1366"
     inkscape:window-height="740"
     inkscape:window-x="0"
     inkscape:window-y="0"
     inkscape:window-maximized="1" />
  <metadata
     id="metadata4723">
    <rdf:RDF>
      <cc:Work
         rdf:about="">
        <dc:format>image/svg+xml</dc:format>
        <dc:type
           rdf:resource="http://purl.org/dc/dcmitype/StillImage" />
        <dc:title></dc:title>
      </cc:Work>
    </rdf:RDF>
  </metadata>
  <g
     inkscape:label="Layer 1"
     inkscape:groupmode="layer"
     id="layer1"
     transform="translate(-37.813251,-101.31961)">
    <g
       id="g5305">
      <path
         inkscape:connector-curvature="0"
         id="path4516"
         style="fill:#36393d;fill-opacity:1;fill-rule:nonzero;stroke:none;stroke-width:0.35277775"
         d="m 51.123203,115.38956 h 6.552847 l 3.736975,19.40136 2.917826,-19.40136 h 6.6548 l -5.47723,24.98195 h -8.293098 l -2.81552,-15.40898 -2.815872,15.40898 h -8.2931 l -5.47758,-24.98195 h 6.654799 l 2.918178,19.40136 z" />
      <path
         inkscape:connector-curvature="0"
         id="path4526"
         style="fill:#36393d;fill-opacity:1;fill-rule:nonzero;stroke:none;stroke-width:0.35277775"
         d="m 143.98514,115.38952 h 6.85976 v 24.98196 h -6.85976 z m 6.06637,-3.12279 c -0.73413,0.71684 -1.61255,1.07491 -2.63666,1.07491 -1.02376,0 -1.91135,-0.36618 -2.66171,-1.10066 -0.75107,-0.73343 -1.12607,-1.62031 -1.12607,-2.66171 0,-1.04105 0.375,-1.92793 1.12607,-2.66241 0.75036,-0.73308 1.63795,-1.10067 2.66171,-1.10067 1.02411,0 1.90253,0.36759 2.63666,1.10067 0.73307,0.73448 1.10031,1.63053 1.10031,2.68781 0,1.05833 -0.36724,1.94557 -1.10031,2.66206" />
      <path
         inkscape:connector-curvature="0"
         id="path4530"
         style="fill:#36393d;fill-opacity:1;fill-rule:nonzero;stroke:none;stroke-width:0.35277775"
         d="m 164.46131,132.18044 -3.78777,8.19079 h -7.11623 l 6.96207,-13.30995 -6.50134,-11.67165 h 7.47465 l 2.96862,7.47395 2.96898,-7.47395 h 7.47466 l -6.5017,11.67165 6.96207,13.30995 h -7.11623 z" />
      <path
         inkscape:connector-curvature="0"
         id="path4534"
         style="fill:#36393d;fill-opacity:1;fill-rule:nonzero;stroke:none;stroke-width:0.35277775"
         d="m 132.23256,115.22788 h -1.07491 c -2.15053,0 -3.32387,0.24729 -4.89761,1.44145 v -0.91687 h -5.02568 c 2.01789,2.90618 3.20464,6.43043 3.20464,10.22879 0,4.53637 -1.69193,8.68256 -4.47358,11.84945 v 2.57563 h 6.8192 v -19.59045 c 0,-0.2727 0.18132,-0.5648 0.36935,-0.76941 0.18698,-0.20497 0.50483,-0.35984 0.77858,-0.35984 h 2.81517 c 0.27305,0 0.39547,0.15487 0.58385,0.35984 0.18697,0.20461 0.17392,0.49671 0.17392,0.76941 v 19.59045 h 7.34377 v -18.77166 c 0,-4.50462 -2.38513,-6.40679 -6.6167,-6.40679" />
      <path
         inkscape:connector-curvature="0"
         id="path4538"
         style="fill:#36393d;fill-opacity:1;fill-rule:nonzero;stroke:none;stroke-width:0.35277775"
         d="m 90.938724,116.91687 c -1.078441,-1.18816 -2.772833,-1.6891 -4.984043,-1.6891 h -1.074915 c -1.774825,0 -3.20675,0.0593 -4.25591,0.87842 v -9.00889 h -7.081309 v 33.30928 h 7.081309 v -19.69312 c 0,-0.61418 0.450143,-1.02693 1.030816,-1.02693 h 2.815519 c 0.27305,0 0.716492,0.15487 0.904523,0.35983 0.187325,0.20461 0.494594,0.49671 0.494594,0.76976 v 19.59046 h 6.819196 v -2.87867 c -2.625725,-3.12596 -4.211463,-7.15398 -4.211463,-11.54677 0,-3.30411 0.899938,-6.4008 2.461683,-9.06427" />
      <path
         inkscape:connector-curvature="0"
         id="path4542"
         style="fill:#c3c3d1;fill-opacity:1;fill-rule:nonzero;stroke:none;stroke-width:0.35277775"
         d="m 100.76383,109.81873 c 0,-2.98732 2.3869,-5.35728 5.37422,-5.35728 h 0.24518 c 2.98732,0 5.37669,2.36996 5.37669,5.35728 v 2.87197 c -1.64007,-0.65476 -3.42795,-1.01882 -5.30155,-1.01882 -2.02424,0 -3.94899,0.42298 -5.69454,1.18074 z m 14.92285,5.23029 v -5.07859 c 0,-4.85246 -3.9063,-8.65082 -8.75806,-8.65082 h -0.73271 c -4.85176,0 -8.966556,3.79836 -8.966556,8.65082 v 5.07894 c -3.105856,2.62467 -5.080354,6.54685 -5.080354,10.93188 0,7.90328 6.406446,14.30937 14.30937,14.30937 7.90293,0 14.30902,-6.40609 14.30902,-14.30937 0,-4.38503 -1.9745,-8.30721 -5.08071,-10.93223" />
      <path
         inkscape:connector-curvature="0"
         id="path4546"
         style="fill:#20aae6;fill-opacity:1;fill-rule:nonzero;stroke:none;stroke-width:0.35277775"
         d="m 112.07537,121.88486 v 0 l -0.12771,-0.13617 c -0.0314,-0.0328 -0.0642,-0.0667 -0.0938,-0.0988 h -0.003 l -5.4751,-5.76827 -5.47335,5.76827 c -0.006,0.006 -0.0145,0.0138 -0.0204,0.0198 l -0.0974,0.10337 -0.10442,0.11183 -0.005,0.004 c -1.316213,1.43545 -2.040816,3.29318 -2.040816,5.23169 0,4.27002 3.472036,7.74136 7.741706,7.74136 4.27038,0 7.74453,-3.47134 7.74453,-7.74136 0,-1.93851 -0.7246,-3.79624 -2.04152,-5.23169 z" />
      <path
         inkscape:connector-curvature="0"
         id="path4550"
         style="fill:#ffffff;fill-opacity:1;fill-rule:evenodd;stroke:none;stroke-width:0.35277775"
         d="m 112.08317,127.12121 c 0,3.15137 -2.55341,5.70548 -5.70548,5.70548 -3.15136,0 -5.70477,-2.55411 -5.70477,-5.70548 0,-3.15136 2.55341,-5.70476 5.70477,-5.70476 3.15207,0 5.70548,2.5534 5.70548,5.70476" />
      <path
         inkscape:connector-curvature="0"
         id="path4554"
         style="fill:#d8e620;fill-opacity:1;fill-rule:evenodd;stroke:none;stroke-width:0.35277775"
         d="m 109.88451,127.12121 c 0,1.93711 -1.56986,3.50662 -3.50661,3.50662 -1.93675,0 -3.50626,-1.56951 -3.50626,-3.50662 0,-1.93675 1.56951,-3.50625 3.50626,-3.50625 1.93675,0 3.50661,1.5695 3.50661,3.50625" />
      <path
         inkscape:connector-curvature="0"
         id="path4558"
         style="fill:#ffffff;fill-opacity:1;fill-rule:evenodd;stroke:none;stroke-width:0.35277775"
         d="m 107.94815,127.12121 c 0,0.86748 -0.70273,1.57022 -1.57021,1.57022 -0.86678,0 -1.57022,-0.70274 -1.57022,-1.57022 0,-0.86677 0.70344,-1.57021 1.57022,-1.57021 0.86748,0 1.57021,0.70344 1.57021,1.57021" />
    </g>
  </g>
</svg>
