<?xml version="1.0" encoding="UTF-8" standalone="no"?>
<!-- Created with Inkscape (http://www.inkscape.org/) -->

<svg
   xmlns:dc="http://purl.org/dc/elements/1.1/"
   xmlns:cc="http://creativecommons.org/ns#"
   xmlns:rdf="http://www.w3.org/1999/02/22-rdf-syntax-ns#"
   xmlns:svg="http://www.w3.org/2000/svg"
   xmlns="http://www.w3.org/2000/svg"
   xmlns:sodipodi="http://sodipodi.sourceforge.net/DTD/sodipodi-0.dtd"
   xmlns:inkscape="http://www.inkscape.org/namespaces/inkscape"
   width="36.555889mm"
   height="49.779881mm"
   viewBox="0 0 36.555889 49.77988"
   version="1.1"
   id="svg4726"
   inkscape:version="0.92.1 r"
   sodipodi:docname="icon_white.svg"
   inkscape:export-filename="/home/anxhelo/Documents/ura works folder/whonix/icon_black.png"
   inkscape:export-xdpi="96.059998"
   inkscape:export-ydpi="96.059998">
  <defs
     id="defs4720" />
  <sodipodi:namedview
     id="base"
     pagecolor="#ffffff"
     bordercolor="#666666"
     borderopacity="1.0"
     inkscape:pageopacity="0.0"
     inkscape:pageshadow="2"
     inkscape:zoom="0.7"
     inkscape:cx="23.545779"
     inkscape:cy="182.50949"
     inkscape:document-units="mm"
     inkscape:current-layer="layer1"
     showgrid="false"
     fit-margin-top="0"
     fit-margin-left="0"
     fit-margin-right="0"
     fit-margin-bottom="0"
     inkscape:window-width="1366"
     inkscape:window-height="740"
     inkscape:window-x="0"
     inkscape:window-y="0"
     inkscape:window-maximized="1" />
  <metadata
     id="metadata4723">
    <rdf:RDF>
      <cc:Work
         rdf:about="">
        <dc:format>image/svg+xml</dc:format>
        <dc:type
           rdf:resource="http://purl.org/dc/dcmitype/StillImage" />
        <dc:title></dc:title>
      </cc:Work>
    </rdf:RDF>
  </metadata>
  <g
     inkscape:label="Layer 1"
     inkscape:groupmode="layer"
     id="layer1"
     transform="translate(-201.84958,-160.07004)">
    <path
       d="m 220.02345,202.91576 c -5.45345,0 -9.88848,-4.43457 -9.88848,-9.88847 0,-2.47662 0.92512,-4.84915 2.60641,-6.68274 l 0.006,-0.005 0.13294,-0.14285 0.12441,-0.13203 c 0.008,-0.008 0.0185,-0.0176 0.0262,-0.0253 l 6.99142,-7.36858 6.99367,7.36858 h 0.004 c 0.0383,0.0405 0.0797,0.0843 0.11981,0.12621 l 0.16314,0.17393 0.005,0.005 c 1.68264,1.8336 2.60777,4.20612 2.60777,6.68275 0,5.45389 -4.43774,9.88846 -9.89253,9.88846 m -7.16942,-31.98927 c 0,-3.81543 3.04892,-6.84316 6.8648,-6.84316 h 0.31318 c 3.81587,0 6.86795,3.02773 6.86795,6.84316 v 3.66853 c -2.09496,-0.83636 -4.37872,-1.30095 -6.77197,-1.30095 -2.58568,0 -5.04427,0.53983 -7.27396,1.50822 z m 19.06226,6.68139 v -6.48762 c 0,-6.19832 -4.9902,-11.05018 -11.18762,-11.05018 h -0.93594 c -6.19696,0 -11.45349,4.85186 -11.45349,11.05018 v 6.48762 c -3.96728,3.35309 -6.48942,8.36266 -6.48942,13.96391 0,10.09531 8.18331,18.27817 18.27817,18.27817 10.09486,0 18.27772,-8.18286 18.27772,-18.27817 0,-5.60125 -2.52214,-10.61128 -6.48942,-13.96391"
       style="fill:#ffffff;fill-opacity:1;fill-rule:nonzero;stroke:none;stroke-width:0.45062301"
       id="path4576"
       inkscape:connector-curvature="0" />
    <path
       d="m 220.02502,197.50747 c -2.47346,0 -4.47875,-2.00481 -4.47875,-4.47919 0,-2.47392 2.00529,-4.47873 4.47875,-4.47873 2.47438,0 4.47919,2.00481 4.47919,4.47873 0,2.47438 -2.00481,4.47919 -4.47919,4.47919 m 0,-11.76666 c -4.02541,0 -7.28703,3.26161 -7.28703,7.28747 0,4.02496 3.26162,7.28748 7.28703,7.28748 4.02631,0 7.28793,-3.26252 7.28793,-7.28748 0,-4.02586 -3.26162,-7.28747 -7.28793,-7.28747"
       style="fill:#ffffff;fill-opacity:1;fill-rule:nonzero;stroke:none;stroke-width:0.45062301"
       id="path4588"
       inkscape:connector-curvature="0" />
    <path
       d="m 220.02552,191.02229 c -1.10719,0 -2.00572,0.89855 -2.00572,2.00572 0,1.10808 0.89853,2.00573 2.00572,2.00573 1.10808,0 2.00571,-0.89765 2.00571,-2.00573 0,-1.10717 -0.89763,-2.00572 -2.00571,-2.00572"
       style="fill:#ffffff;fill-opacity:1;fill-rule:nonzero;stroke:none;stroke-width:0.45062301"
       id="path4592"
       inkscape:connector-curvature="0" />
  </g>
</svg>
