<?xml version="1.0" encoding="UTF-8" standalone="no"?>
<!-- Created with Inkscape (http://www.inkscape.org/) -->

<svg
   xmlns:dc="http://purl.org/dc/elements/1.1/"
   xmlns:cc="http://creativecommons.org/ns#"
   xmlns:rdf="http://www.w3.org/1999/02/22-rdf-syntax-ns#"
   xmlns:svg="http://www.w3.org/2000/svg"
   xmlns="http://www.w3.org/2000/svg"
   xmlns:sodipodi="http://sodipodi.sourceforge.net/DTD/sodipodi-0.dtd"
   xmlns:inkscape="http://www.inkscape.org/namespaces/inkscape"
   width="36.86171mm"
   height="50.196331mm"
   viewBox="0 0 36.861709 50.196331"
   version="1.1"
   id="svg4726"
   inkscape:version="0.92.1 r"
   sodipodi:docname="icon_color.svg"
   inkscape:export-filename="/home/anxhelo/Documents/ura works folder/whonix/horizontal_white.png"
   inkscape:export-xdpi="96.059998"
   inkscape:export-ydpi="96.059998">
  <defs
     id="defs4720" />
  <sodipodi:namedview
     id="base"
     pagecolor="#ffffff"
     bordercolor="#666666"
     borderopacity="1.0"
     inkscape:pageopacity="0.0"
     inkscape:pageshadow="2"
     inkscape:zoom="0.7"
     inkscape:cx="25.176948"
     inkscape:cy="183.72541"
     inkscape:document-units="mm"
     inkscape:current-layer="layer1"
     showgrid="false"
     fit-margin-top="0"
     fit-margin-left="0"
     fit-margin-right="0"
     fit-margin-bottom="0"
     inkscape:window-width="1366"
     inkscape:window-height="740"
     inkscape:window-x="0"
     inkscape:window-y="0"
     inkscape:window-maximized="1" />
  <metadata
     id="metadata4723">
    <rdf:RDF>
      <cc:Work
         rdf:about="">
        <dc:format>image/svg+xml</dc:format>
        <dc:type
           rdf:resource="http://purl.org/dc/dcmitype/StillImage" />
        <dc:title></dc:title>
      </cc:Work>
    </rdf:RDF>
  </metadata>
  <g
     inkscape:label="Layer 1"
     inkscape:groupmode="layer"
     id="layer1"
     transform="translate(-201.418,-159.9753)">
    <path
       d="m 212.51428,170.92253 c 0,-3.8478 3.07442,-6.90041 6.92222,-6.90041 h 0.3158 c 3.84781,0 6.92495,3.05261 6.92495,6.90041 v 3.69922 c -2.11201,-0.84336 -4.41488,-1.3123 -6.82816,-1.3123 -2.6073,0 -5.08693,0.54482 -7.33481,1.52086 z m 19.22127,6.73684 v -6.54144 c 0,-6.25018 -5.03149,-11.14263 -11.28075,-11.14263 h -0.94378 c -6.24926,0 -11.5493,4.89245 -11.5493,11.14263 v 6.54189 c -4.00048,3.38067 -6.54372,8.43262 -6.54372,14.08073 0,10.17976 8.25178,18.43108 18.43109,18.43108 10.1793,0 18.43062,-8.25132 18.43062,-18.43108 0,-5.64811 -2.54324,-10.70006 -6.54416,-14.08118"
       style="fill:#c3c3d1;fill-opacity:1;fill-rule:nonzero;stroke:none;stroke-width:0.45439285"
       id="path4630"
       inkscape:connector-curvature="0" />
    <path
       d="m 227.08403,186.46422 v 0 l -0.16448,-0.17539 c -0.0404,-0.0422 -0.0827,-0.0859 -0.12082,-0.12726 h -0.004 l -7.05218,-7.42978 -7.04991,7.42978 c -0.008,0.008 -0.0187,0.0178 -0.0264,0.0255 l -0.12546,0.13314 -0.1345,0.14404 -0.006,0.005 c -1.69535,1.84892 -2.62866,4.24176 -2.62866,6.73865 0,5.49997 4.47213,9.97119 9.97165,9.97119 5.50042,0 9.97528,-4.47122 9.97528,-9.97119 0,-2.49689 -0.93333,-4.88973 -2.62957,-6.73865 z"
       style="fill:#20aae6;fill-opacity:1;fill-rule:nonzero;stroke:none;stroke-width:0.45439285"
       id="path4634"
       inkscape:connector-curvature="0" />
    <path
       d="m 227.09409,193.20887 c 0,4.05909 -3.2889,7.3489 -7.3489,7.3489 -4.05909,0 -7.34799,-3.28981 -7.34799,-7.3489 0,-4.05909 3.2889,-7.34799 7.34799,-7.34799 4.06,0 7.3489,3.2889 7.3489,7.34799"
       style="fill:#ffffff;fill-opacity:1;fill-rule:evenodd;stroke:none;stroke-width:0.45439285"
       id="path4638"
       inkscape:connector-curvature="0" />
    <path
       d="m 224.26212,193.20887 c 0,2.49508 -2.02204,4.51666 -4.51666,4.51666 -2.49462,0 -4.51621,-2.02158 -4.51621,-4.51666 0,-2.49462 2.02159,-4.51622 4.51621,-4.51622 2.49462,0 4.51666,2.0216 4.51666,4.51622"
       style="fill:#d8e620;fill-opacity:1;fill-rule:evenodd;stroke:none;stroke-width:0.45439285"
       id="path4642"
       inkscape:connector-curvature="0" />
    <path
       d="m 221.76801,193.20887 c 0,1.11735 -0.90515,2.02251 -2.0225,2.02251 -1.11644,0 -2.0225,-0.90516 -2.0225,-2.02251 0,-1.11644 0.90606,-2.0225 2.0225,-2.0225 1.11735,0 2.0225,0.90606 2.0225,2.0225"
       style="fill:#ffffff;fill-opacity:1;fill-rule:evenodd;stroke:none;stroke-width:0.45439285"
       id="path4646"
       inkscape:connector-curvature="0" />
  </g>
</svg>
