<?xml version="1.0" encoding="utf-8"?>
<!-- Generator: Adobe Illustrator 17.0.0, SVG Export Plug-In . SVG Version: 6.00 Build 0)  -->
<!DOCTYPE svg PUBLIC "-//W3C//DTD SVG 1.1//EN" "http://www.w3.org/Graphics/SVG/1.1/DTD/svg11.dtd">
<svg version="1.1" id="Layer_1" xmlns="http://www.w3.org/2000/svg" xmlns:xlink="http://www.w3.org/1999/xlink" x="0px" y="0px"
	 width="445.195px" height="100.871px" viewBox="0 0 445.195 100.871" enable-background="new 0 0 445.195 100.871"
	 xml:space="preserve">
<g>
	<g>
		<g>
			<rect x="0" y="0" fill="#E41E20" width="79.272" height="79.272"/>
		</g>
		<g>
			<g>
				<path d="M117.079,25.063c1.903,0,3.667,0.35,5.292,1.05c1.624,0.701,3.037,1.652,4.242,2.856
					c1.204,1.205,2.155,2.619,2.856,4.242c0.7,1.625,1.05,3.389,1.05,5.292v26.04l-0.84,0.84h-1.68l-3.36-3.36
					c-1.457,1.121-2.969,1.961-4.536,2.52c-1.568,0.56-3.416,0.84-5.544,0.84h-4.2c-1.68,0-3.234-0.294-4.662-0.882
					c-1.428-0.588-2.675-1.414-3.738-2.478c-1.064-1.063-1.89-2.31-2.478-3.738c-0.588-1.428-0.882-2.982-0.882-4.662
					c0-1.624,0.28-3.136,0.84-4.536c0.559-1.399,1.344-2.617,2.352-3.654c1.008-1.035,2.197-1.875,3.57-2.52
					c1.372-0.643,2.869-0.993,4.494-1.05h13.104v-3.36c0-1.68-0.561-3.079-1.68-4.2c-1.121-1.12-2.52-1.68-4.2-1.68h-5.04
					c-1.064,0-1.96,0.126-2.688,0.378c-0.728,0.252-1.358,0.56-1.89,0.924c-0.533,0.365-0.966,0.743-1.302,1.134
					c-0.336,0.393-0.617,0.701-0.84,0.924h-0.84l-3.36-4.2v-1.68l1.68-1.68c0.84-0.84,2.169-1.609,3.99-2.31
					c1.819-0.7,3.57-1.05,5.25-1.05H117.079z M110.275,49.423c-1.176,0-2.157,0.393-2.94,1.176
					c-0.785,0.785-1.176,1.821-1.176,3.108c0,1.176,0.378,2.156,1.134,2.94c0.756,0.785,1.75,1.176,2.982,1.176h4.284
					c2.52,0,4.549-0.769,6.09-2.31c1.54-1.54,2.31-3.57,2.31-6.09H110.275z"/>
			</g>
			<g>
				<path d="M145.386,64.333c-1.625-0.7-3.039-1.651-4.242-2.856c-1.205-1.204-2.156-2.617-2.856-4.242
					c-0.701-1.624-1.05-3.388-1.05-5.292v-37.8l5.04-2.52h1.68l0.84,0.84v39.48c0,1.68,0.56,3.081,1.68,4.2
					c1.12,1.121,2.52,1.68,4.2,1.68h4.2l0.84,0.84v5.88l-0.84,0.84h-4.2C148.773,65.383,147.01,65.034,145.386,64.333z"/>
			</g>
			<g>
				<path d="M175.038,65.383c-2.129,0-3.99-0.322-5.586-0.966c-1.596-0.643-3.066-1.525-4.41-2.646l-3.444,3.612h-1.68l-0.84-0.84
					v-52.08l0.84-0.84h5.88l0.84,0.84v12.6l-1.596,2.52l0.756,0.84l0.84-0.84c1.288-0.84,2.59-1.47,3.906-1.89
					c1.315-0.42,2.814-0.63,4.494-0.63h1.68c1.903,0,3.667,0.35,5.292,1.05c1.624,0.701,3.037,1.652,4.242,2.856
					c1.204,1.205,2.155,2.619,2.856,4.242c0.7,1.625,1.05,3.389,1.05,5.292v13.44c0,1.904-0.35,3.668-1.05,5.292
					c-0.701,1.625-1.652,3.039-2.856,4.242c-1.205,1.205-2.619,2.156-4.242,2.856c-1.625,0.701-3.389,1.05-5.292,1.05H175.038z
					 M175.038,32.623c-1.064,0-2.1,0.21-3.108,0.63c-1.008,0.42-1.904,1.008-2.688,1.764c-0.785,0.756-1.415,1.653-1.89,2.688
					c-0.477,1.037-0.714,2.142-0.714,3.318v8.4c0,1.289,0.238,2.436,0.714,3.444c0.475,1.008,1.105,1.89,1.89,2.646
					c0.784,0.756,1.68,1.331,2.688,1.722c1.008,0.393,2.044,0.588,3.108,0.588h1.596c1.68,0,3.094-0.559,4.242-1.68
					c1.147-1.119,1.722-2.52,1.722-4.2v-13.44c0-1.68-0.575-3.079-1.722-4.2c-1.148-1.12-2.562-1.68-4.242-1.68H175.038z"/>
			</g>
			<g>
				<path d="M211.997,25.063c1.903,0,3.667,0.35,5.292,1.05c1.624,0.701,3.037,1.652,4.242,2.856
					c1.204,1.205,2.155,2.619,2.856,4.242c0.7,1.625,1.05,3.389,1.05,5.292v26.04l-0.84,0.84h-1.68l-3.36-3.36
					c-1.457,1.121-2.969,1.961-4.536,2.52c-1.568,0.56-3.416,0.84-5.544,0.84h-4.2c-1.68,0-3.234-0.294-4.662-0.882
					c-1.428-0.588-2.675-1.414-3.738-2.478c-1.064-1.063-1.89-2.31-2.478-3.738c-0.588-1.428-0.882-2.982-0.882-4.662
					c0-1.624,0.28-3.136,0.84-4.536c0.559-1.399,1.344-2.617,2.352-3.654c1.008-1.035,2.197-1.875,3.57-2.52
					c1.372-0.643,2.869-0.993,4.494-1.05h13.104v-3.36c0-1.68-0.561-3.079-1.68-4.2c-1.121-1.12-2.52-1.68-4.2-1.68h-5.04
					c-1.064,0-1.96,0.126-2.688,0.378c-0.728,0.252-1.358,0.56-1.89,0.924c-0.533,0.365-0.966,0.743-1.302,1.134
					c-0.336,0.393-0.617,0.701-0.84,0.924h-0.84l-3.36-4.2v-1.68l1.68-1.68c0.84-0.84,2.169-1.609,3.99-2.31
					c1.819-0.7,3.57-1.05,5.25-1.05H211.997z M205.194,49.423c-1.176,0-2.157,0.393-2.94,1.176
					c-0.785,0.785-1.176,1.821-1.176,3.108c0,1.176,0.378,2.156,1.134,2.94c0.756,0.785,1.75,1.176,2.982,1.176h4.284
					c2.52,0,4.549-0.769,6.09-2.31c1.54-1.54,2.31-3.57,2.31-6.09H205.194z"/>
			</g>
			<g>
				<path d="M250.637,25.063c1.903,0,3.667,0.35,5.292,1.05c1.624,0.701,3.037,1.652,4.242,2.856
					c1.204,1.205,2.155,2.619,2.856,4.242c0.7,1.625,1.05,3.389,1.05,5.292v26.04l-0.84,0.84h-5.88l-0.84-0.84v-26.04
					c0-1.68-0.575-3.079-1.722-4.2c-1.148-1.12-2.562-1.68-4.242-1.68h-2.436c-1.064,0-2.1,0.197-3.108,0.588
					c-1.008,0.392-1.904,0.966-2.688,1.722c-0.785,0.756-1.415,1.653-1.89,2.688c-0.477,1.037-0.714,2.171-0.714,3.402v23.52
					l-0.84,0.84h-5.88l-0.84-0.84v-38.64l0.84-0.84h1.68l3.444,3.612c1.344-1.12,2.814-2.001,4.41-2.646
					c1.596-0.643,3.457-0.966,5.586-0.966H250.637z"/>
			</g>
			<g>
				<path d="M271.636,12.463l0.84-0.84h5.88l0.84,0.84v6.72l-0.84,0.84h-5.88l-0.84-0.84V12.463z M271.636,25.903l0.84-0.84h5.88
					l0.84,0.84v38.64l-0.84,0.84h-5.88l-0.84-0.84V25.903z"/>
			</g>
			<g>
				<path d="M299.356,65.383c-1.905,0-3.668-0.349-5.292-1.05c-1.625-0.7-3.039-1.651-4.242-2.856
					c-1.205-1.204-2.156-2.617-2.856-4.242c-0.701-1.624-1.05-3.388-1.05-5.292v-13.44c0-1.903,0.349-3.667,1.05-5.292
					c0.7-1.624,1.651-3.037,2.856-4.242c1.204-1.204,2.617-2.155,4.242-2.856c1.624-0.7,3.387-1.05,5.292-1.05h5.04
					c1.903,0,3.667,0.35,5.292,1.05c1.624,0.701,3.037,1.652,4.242,2.856c1.204,1.205,2.155,2.619,2.856,4.242
					c0.7,1.625,1.05,3.389,1.05,5.292v10.08h-24.36v3.36c0,1.68,0.56,3.081,1.68,4.2c1.12,1.121,2.52,1.68,4.2,1.68h6.72
					c1.68,0,3.108-0.307,4.284-0.924c1.176-0.616,1.987-1.147,2.436-1.596h0.84l3.36,3.36v1.68l-1.68,1.68
					c-0.84,0.84-2.171,1.61-3.99,2.31c-1.82,0.701-3.57,1.05-5.25,1.05H299.356z M299.356,32.623c-1.68,0-3.081,0.56-4.2,1.68
					c-1.121,1.121-1.68,2.52-1.68,4.2v2.52h16.8v-2.52c0-1.68-0.575-3.079-1.722-4.2c-1.148-1.12-2.562-1.68-4.242-1.68H299.356z"/>
			</g>
			<g>
				<path d="M343.036,25.063c1.903,0,3.667,0.35,5.292,1.05c1.624,0.701,3.037,1.652,4.242,2.856
					c1.203,1.205,2.155,2.619,2.855,4.242c0.7,1.625,1.051,3.389,1.051,5.292v26.04l-0.841,0.84h-5.88l-0.839-0.84v-26.04
					c0-1.68-0.575-3.079-1.722-4.2c-1.148-1.12-2.562-1.68-4.242-1.68h-2.436c-1.064,0-2.1,0.197-3.108,0.588
					c-1.008,0.392-1.904,0.966-2.688,1.722c-0.785,0.756-1.415,1.653-1.89,2.688c-0.477,1.037-0.714,2.171-0.714,3.402v23.52
					l-0.84,0.84h-5.88l-0.84-0.84v-38.64l0.84-0.84h1.68l3.444,3.612c1.344-1.12,2.814-2.001,4.41-2.646
					c1.596-0.643,3.457-0.966,5.586-0.966H343.036z"/>
			</g>
			<g>
				<path d="M364.034,56.143l0.84-0.84h8.4l0.84,0.84v8.4l-0.84,0.84h-8.4l-0.84-0.84V56.143z"/>
			</g>
			<g>
				<path d="M395.635,32.623c-1.289,0-2.493,0.252-3.612,0.756c-1.121,0.504-2.1,1.176-2.939,2.016
					c-0.841,0.84-1.499,1.82-1.975,2.94c-0.477,1.121-0.714,2.297-0.714,3.528v6.72c0,1.289,0.237,2.492,0.714,3.612
					c0.476,1.121,1.134,2.1,1.975,2.94c0.84,0.84,1.818,1.499,2.939,1.974c1.119,0.477,2.323,0.714,3.612,0.714h1.68
					c1.063,0,1.96-0.126,2.688-0.378c0.727-0.252,1.356-0.559,1.89-0.924c0.531-0.364,0.966-0.742,1.302-1.134
					c0.336-0.391,0.616-0.7,0.84-0.924h0.841l3.359,4.2v1.68l-1.68,1.68c-0.84,0.84-2.171,1.61-3.99,2.31
					c-1.82,0.701-3.57,1.05-5.25,1.05h-1.68c-2.297,0-4.467-0.448-6.51-1.344c-2.045-0.895-3.822-2.1-5.335-3.612
					c-1.512-1.512-2.717-3.289-3.611-5.334c-0.896-2.043-1.344-4.213-1.344-6.51v-6.72c0-2.295,0.447-4.465,1.344-6.51
					c0.895-2.044,2.1-3.822,3.611-5.334c1.513-1.512,3.29-2.716,5.335-3.612c2.043-0.895,4.213-1.344,6.51-1.344h1.68
					c1.68,0,3.43,0.35,5.25,1.05c1.819,0.701,3.15,1.47,3.99,2.31l1.68,1.68v1.68l-3.359,4.2h-0.841
					c-0.224-0.223-0.504-0.532-0.84-0.924c-0.336-0.391-0.771-0.769-1.302-1.134c-0.533-0.364-1.163-0.672-1.89-0.924
					c-0.729-0.252-1.625-0.378-2.688-0.378H395.635z"/>
			</g>
			<g>
				<path d="M431.754,25.063c1.903,0,3.667,0.35,5.292,1.05c1.624,0.701,3.037,1.652,4.242,2.856
					c1.203,1.205,2.155,2.619,2.855,4.242c0.7,1.625,1.051,3.389,1.051,5.292v26.04l-0.841,0.84h-5.88l-0.84-0.84v-26.04
					c0-1.68-0.575-3.079-1.722-4.2c-1.148-1.12-2.563-1.68-4.242-1.68h-2.436c-1.064,0-2.101,0.21-3.108,0.63
					s-1.904,1.008-2.688,1.764c-0.784,0.756-1.414,1.653-1.89,2.688c-0.477,1.037-0.714,2.142-0.714,3.318v23.52l-0.84,0.84h-5.88
					l-0.84-0.84v-52.08l0.84-0.84h5.88l0.84,0.84v12.6l-1.596,2.52l0.756,0.84l0.84-0.84c1.287-0.84,2.59-1.47,3.906-1.89
					c1.314-0.42,2.813-0.63,4.494-0.63H431.754z"/>
			</g>
		</g>
		<g>
			<g>
				<g>
					<path fill="#FFFFFF" d="M23.663,54.524c1.085,0.224,1.726,0.357,2.763,0.571c-0.139-1.306-0.07-2.482-0.413-3.522
						c-0.818-2.479-0.023-4.681,0.816-6.926c0.252-0.674,0.418-1.391,0.537-2.103c0.155-0.924,0.272-1.859,0.317-2.794
						c0.043-0.89,0.249-1.921-0.105-2.653c-0.79-1.63-0.506-3.098,0.092-4.63c0.744-1.905,1.486-3.81,2.217-5.719
						c0.479-1.249-0.038-2.201-1.355-2.555c-0.743-0.2-1.481-0.416-2.371-0.667c0.351-0.826,0.632-1.526,0.942-2.213
						c0.806-1.787,1.008-3.559,0.916-5.591c-0.097-2.132,0.552-4.432,2.517-6.035c1.402-1.144,2.573-2.572,3.96-3.989
						c0.195,0.201,0.547,0.521,0.848,0.882c1.057,1.266,2.362,2.036,4.046,1.985c1.421-0.043,2.258,0.612,2.701,1.941
						c0.485,1.453,1.642,2.12,2.932,2.905c1.373,0.835,2.286,2.437,3.377,3.724c1.162,1.372,1.179,2.775,0.813,4.597
						c-0.787,3.915-1.452,7.942-1.403,11.914c0.052,4.253,1.745,8.197,5.247,10.907c2.744,2.124,3.02,4.816,2.96,7.959
						c-0.041,2.123-1.031,3.265-2.42,4.551c-1.357,1.256-2.537,2.764-3.536,4.327c-1.029,1.61-2.055,3.119-3.674,4.222
						c-0.612,0.417-1.111,1.23-1.325,1.961c-0.741,2.534-2.19,4.453-4.474,5.756c-1.694,0.966-4.959-0.661-5.004-2.584
						c-0.071-3.05-1.35-5.164-4.326-6.095C26.392,63.126,25.522,58.687,23.663,54.524z"/>
				</g>
			</g>
		</g>
		<g>
			<g>
				<path d="M117.079,25.063c1.903,0,3.667,0.35,5.292,1.05c1.624,0.701,3.037,1.652,4.242,2.856
					c1.204,1.205,2.155,2.619,2.856,4.242c0.7,1.625,1.05,3.389,1.05,5.292v26.04l-0.84,0.84h-1.68l-3.36-3.36
					c-1.457,1.121-2.969,1.961-4.536,2.52c-1.568,0.56-3.416,0.84-5.544,0.84h-4.2c-1.68,0-3.234-0.294-4.662-0.882
					c-1.428-0.588-2.675-1.414-3.738-2.478c-1.064-1.063-1.89-2.31-2.478-3.738c-0.588-1.428-0.882-2.982-0.882-4.662
					c0-1.624,0.28-3.136,0.84-4.536c0.559-1.399,1.344-2.617,2.352-3.654c1.008-1.035,2.197-1.875,3.57-2.52
					c1.372-0.643,2.869-0.993,4.494-1.05h13.104v-3.36c0-1.68-0.561-3.079-1.68-4.2c-1.121-1.12-2.52-1.68-4.2-1.68h-5.04
					c-1.064,0-1.96,0.126-2.688,0.378c-0.728,0.252-1.358,0.56-1.89,0.924c-0.533,0.365-0.966,0.743-1.302,1.134
					c-0.336,0.393-0.617,0.701-0.84,0.924h-0.84l-3.36-4.2v-1.68l1.68-1.68c0.84-0.84,2.169-1.609,3.99-2.31
					c1.819-0.7,3.57-1.05,5.25-1.05H117.079z M110.275,49.423c-1.176,0-2.157,0.393-2.94,1.176
					c-0.785,0.785-1.176,1.821-1.176,3.108c0,1.176,0.378,2.156,1.134,2.94c0.756,0.785,1.75,1.176,2.982,1.176h4.284
					c2.52,0,4.549-0.769,6.09-2.31c1.54-1.54,2.31-3.57,2.31-6.09H110.275z"/>
			</g>
			<g>
				<path d="M145.386,64.333c-1.625-0.7-3.039-1.651-4.242-2.856c-1.205-1.204-2.156-2.617-2.856-4.242
					c-0.701-1.624-1.05-3.388-1.05-5.292v-37.8l5.04-2.52h1.68l0.84,0.84v39.48c0,1.68,0.56,3.081,1.68,4.2
					c1.12,1.121,2.52,1.68,4.2,1.68h4.2l0.84,0.84v5.88l-0.84,0.84h-4.2C148.773,65.383,147.01,65.034,145.386,64.333z"/>
			</g>
			<g>
				<path d="M175.038,65.383c-2.129,0-3.99-0.322-5.586-0.966c-1.596-0.643-3.066-1.525-4.41-2.646l-3.444,3.612h-1.68l-0.84-0.84
					v-52.08l0.84-0.84h5.88l0.84,0.84v12.6l-1.596,2.52l0.756,0.84l0.84-0.84c1.288-0.84,2.59-1.47,3.906-1.89
					c1.315-0.42,2.814-0.63,4.494-0.63h1.68c1.903,0,3.667,0.35,5.292,1.05c1.624,0.701,3.037,1.652,4.242,2.856
					c1.204,1.205,2.155,2.619,2.856,4.242c0.7,1.625,1.05,3.389,1.05,5.292v13.44c0,1.904-0.35,3.668-1.05,5.292
					c-0.701,1.625-1.652,3.039-2.856,4.242c-1.205,1.205-2.619,2.156-4.242,2.856c-1.625,0.701-3.389,1.05-5.292,1.05H175.038z
					 M175.038,32.623c-1.064,0-2.1,0.21-3.108,0.63c-1.008,0.42-1.904,1.008-2.688,1.764c-0.785,0.756-1.415,1.653-1.89,2.688
					c-0.477,1.037-0.714,2.142-0.714,3.318v8.4c0,1.289,0.238,2.436,0.714,3.444c0.475,1.008,1.105,1.89,1.89,2.646
					c0.784,0.756,1.68,1.331,2.688,1.722c1.008,0.393,2.044,0.588,3.108,0.588h1.596c1.68,0,3.094-0.559,4.242-1.68
					c1.147-1.119,1.722-2.52,1.722-4.2v-13.44c0-1.68-0.575-3.079-1.722-4.2c-1.148-1.12-2.562-1.68-4.242-1.68H175.038z"/>
			</g>
			<g>
				<path d="M211.997,25.063c1.903,0,3.667,0.35,5.292,1.05c1.624,0.701,3.037,1.652,4.242,2.856
					c1.204,1.205,2.155,2.619,2.856,4.242c0.7,1.625,1.05,3.389,1.05,5.292v26.04l-0.84,0.84h-1.68l-3.36-3.36
					c-1.457,1.121-2.969,1.961-4.536,2.52c-1.568,0.56-3.416,0.84-5.544,0.84h-4.2c-1.68,0-3.234-0.294-4.662-0.882
					c-1.428-0.588-2.675-1.414-3.738-2.478c-1.064-1.063-1.89-2.31-2.478-3.738c-0.588-1.428-0.882-2.982-0.882-4.662
					c0-1.624,0.28-3.136,0.84-4.536c0.559-1.399,1.344-2.617,2.352-3.654c1.008-1.035,2.197-1.875,3.57-2.52
					c1.372-0.643,2.869-0.993,4.494-1.05h13.104v-3.36c0-1.68-0.561-3.079-1.68-4.2c-1.121-1.12-2.52-1.68-4.2-1.68h-5.04
					c-1.064,0-1.96,0.126-2.688,0.378c-0.728,0.252-1.358,0.56-1.89,0.924c-0.533,0.365-0.966,0.743-1.302,1.134
					c-0.336,0.393-0.617,0.701-0.84,0.924h-0.84l-3.36-4.2v-1.68l1.68-1.68c0.84-0.84,2.169-1.609,3.99-2.31
					c1.819-0.7,3.57-1.05,5.25-1.05H211.997z M205.194,49.423c-1.176,0-2.157,0.393-2.94,1.176
					c-0.785,0.785-1.176,1.821-1.176,3.108c0,1.176,0.378,2.156,1.134,2.94c0.756,0.785,1.75,1.176,2.982,1.176h4.284
					c2.52,0,4.549-0.769,6.09-2.31c1.54-1.54,2.31-3.57,2.31-6.09H205.194z"/>
			</g>
			<g>
				<path d="M250.637,25.063c1.903,0,3.667,0.35,5.292,1.05c1.624,0.701,3.037,1.652,4.242,2.856
					c1.204,1.205,2.155,2.619,2.856,4.242c0.7,1.625,1.05,3.389,1.05,5.292v26.04l-0.84,0.84h-5.88l-0.84-0.84v-26.04
					c0-1.68-0.575-3.079-1.722-4.2c-1.148-1.12-2.562-1.68-4.242-1.68h-2.436c-1.064,0-2.1,0.197-3.108,0.588
					c-1.008,0.392-1.904,0.966-2.688,1.722c-0.785,0.756-1.415,1.653-1.89,2.688c-0.477,1.037-0.714,2.171-0.714,3.402v23.52
					l-0.84,0.84h-5.88l-0.84-0.84v-38.64l0.84-0.84h1.68l3.444,3.612c1.344-1.12,2.814-2.001,4.41-2.646
					c1.596-0.643,3.457-0.966,5.586-0.966H250.637z"/>
			</g>
			<g>
				<path d="M271.636,12.463l0.84-0.84h5.88l0.84,0.84v6.72l-0.84,0.84h-5.88l-0.84-0.84V12.463z M271.636,25.903l0.84-0.84h5.88
					l0.84,0.84v38.64l-0.84,0.84h-5.88l-0.84-0.84V25.903z"/>
			</g>
			<g>
				<path d="M299.356,65.383c-1.905,0-3.668-0.349-5.292-1.05c-1.625-0.7-3.039-1.651-4.242-2.856
					c-1.205-1.204-2.156-2.617-2.856-4.242c-0.701-1.624-1.05-3.388-1.05-5.292v-13.44c0-1.903,0.349-3.667,1.05-5.292
					c0.7-1.624,1.651-3.037,2.856-4.242c1.204-1.204,2.617-2.155,4.242-2.856c1.624-0.7,3.387-1.05,5.292-1.05h5.04
					c1.903,0,3.667,0.35,5.292,1.05c1.624,0.701,3.037,1.652,4.242,2.856c1.204,1.205,2.155,2.619,2.856,4.242
					c0.7,1.625,1.05,3.389,1.05,5.292v10.08h-24.36v3.36c0,1.68,0.56,3.081,1.68,4.2c1.12,1.121,2.52,1.68,4.2,1.68h6.72
					c1.68,0,3.108-0.307,4.284-0.924c1.176-0.616,1.987-1.147,2.436-1.596h0.84l3.36,3.36v1.68l-1.68,1.68
					c-0.84,0.84-2.171,1.61-3.99,2.31c-1.82,0.701-3.57,1.05-5.25,1.05H299.356z M299.356,32.623c-1.68,0-3.081,0.56-4.2,1.68
					c-1.121,1.121-1.68,2.52-1.68,4.2v2.52h16.8v-2.52c0-1.68-0.575-3.079-1.722-4.2c-1.148-1.12-2.562-1.68-4.242-1.68H299.356z"/>
			</g>
			<g>
				<path d="M343.036,25.063c1.903,0,3.667,0.35,5.292,1.05c1.624,0.701,3.037,1.652,4.242,2.856
					c1.203,1.205,2.155,2.619,2.855,4.242c0.7,1.625,1.051,3.389,1.051,5.292v26.04l-0.841,0.84h-5.88l-0.839-0.84v-26.04
					c0-1.68-0.575-3.079-1.722-4.2c-1.148-1.12-2.562-1.68-4.242-1.68h-2.436c-1.064,0-2.1,0.197-3.108,0.588
					c-1.008,0.392-1.904,0.966-2.688,1.722c-0.785,0.756-1.415,1.653-1.89,2.688c-0.477,1.037-0.714,2.171-0.714,3.402v23.52
					l-0.84,0.84h-5.88l-0.84-0.84v-38.64l0.84-0.84h1.68l3.444,3.612c1.344-1.12,2.814-2.001,4.41-2.646
					c1.596-0.643,3.457-0.966,5.586-0.966H343.036z"/>
			</g>
			<g>
				<path d="M364.034,56.143l0.84-0.84h8.4l0.84,0.84v8.4l-0.84,0.84h-8.4l-0.84-0.84V56.143z"/>
			</g>
			<g>
				<path d="M395.635,32.623c-1.289,0-2.493,0.252-3.612,0.756c-1.121,0.504-2.1,1.176-2.939,2.016
					c-0.841,0.84-1.499,1.82-1.975,2.94c-0.477,1.121-0.714,2.297-0.714,3.528v6.72c0,1.289,0.237,2.492,0.714,3.612
					c0.476,1.121,1.134,2.1,1.975,2.94c0.84,0.84,1.818,1.499,2.939,1.974c1.119,0.477,2.323,0.714,3.612,0.714h1.68
					c1.063,0,1.96-0.126,2.688-0.378c0.727-0.252,1.356-0.559,1.89-0.924c0.531-0.364,0.966-0.742,1.302-1.134
					c0.336-0.391,0.616-0.7,0.84-0.924h0.841l3.359,4.2v1.68l-1.68,1.68c-0.84,0.84-2.171,1.61-3.99,2.31
					c-1.82,0.701-3.57,1.05-5.25,1.05h-1.68c-2.297,0-4.467-0.448-6.51-1.344c-2.045-0.895-3.822-2.1-5.335-3.612
					c-1.512-1.512-2.717-3.289-3.611-5.334c-0.896-2.043-1.344-4.213-1.344-6.51v-6.72c0-2.295,0.447-4.465,1.344-6.51
					c0.895-2.044,2.1-3.822,3.611-5.334c1.513-1.512,3.29-2.716,5.335-3.612c2.043-0.895,4.213-1.344,6.51-1.344h1.68
					c1.68,0,3.43,0.35,5.25,1.05c1.819,0.701,3.15,1.47,3.99,2.31l1.68,1.68v1.68l-3.359,4.2h-0.841
					c-0.224-0.223-0.504-0.532-0.84-0.924c-0.336-0.391-0.771-0.769-1.302-1.134c-0.533-0.364-1.163-0.672-1.89-0.924
					c-0.729-0.252-1.625-0.378-2.688-0.378H395.635z"/>
			</g>
			<g>
				<path d="M431.754,25.063c1.903,0,3.667,0.35,5.292,1.05c1.624,0.701,3.037,1.652,4.242,2.856
					c1.203,1.205,2.155,2.619,2.855,4.242c0.7,1.625,1.051,3.389,1.051,5.292v26.04l-0.841,0.84h-5.88l-0.84-0.84v-26.04
					c0-1.68-0.575-3.079-1.722-4.2c-1.148-1.12-2.563-1.68-4.242-1.68h-2.436c-1.064,0-2.101,0.21-3.108,0.63
					s-1.904,1.008-2.688,1.764c-0.784,0.756-1.414,1.653-1.89,2.688c-0.477,1.037-0.714,2.142-0.714,3.318v23.52l-0.84,0.84h-5.88
					l-0.84-0.84v-52.08l0.84-0.84h5.88l0.84,0.84v12.6l-1.596,2.52l0.756,0.84l0.84-0.84c1.287-0.84,2.59-1.47,3.906-1.89
					c1.314-0.42,2.813-0.63,4.494-0.63H431.754z"/>
			</g>
		</g>
		<g>
			<g>
				<path fill="none" d="M21.708,50.057c-0.015-0.269-0.013-0.531-0.009-0.792h-3.824L21.708,50.057z"/>
			</g>
			<g>
				<path fill="#FFFFFF" d="M17.876,49.266h3.824c0.037-2.339,0.793-4.381,1.403-6.013c0.135-0.36,0.246-0.808,0.34-1.368
					c0.146-0.869,0.233-1.63,0.266-2.326c0.012-0.245,0.032-0.498,0.054-0.754c0.011-0.123,0.024-0.284,0.033-0.417
					c-1.256-2.977-0.517-5.613,0.167-7.367c0.117-0.299,0.233-0.598,0.349-0.897H8.514v19.142h8.445l-0.093-0.208L17.876,49.266z"/>
			</g>
			<g>
				<path fill="#FFFFFF" d="M71.172,30.006H51.949c-0.11,1.203-0.175,2.409-0.16,3.591c0.028,2.276,0.693,5.479,3.704,7.809
					c3.033,2.348,4.042,5.262,4.366,7.742h11.315V30.006z"/>
			</g>
		</g>
	</g>
	<g>
		<path fill="#E41E20" d="M372.416,72.52l0.45-0.449h2.25l0.45,0.449v27.9l-0.45,0.45h-2.7l-14.85-22.95h-0.45l0.45,7.65v14.85
			l-0.45,0.45h-2.25l-0.45-0.45v-27.9l0.45-0.449h2.7l14.85,22.949h0.45l-0.45-7.649V72.52z"/>
		<path fill="#E41E20" d="M390.281,97.72c0.479,0,0.915-0.067,1.306-0.202c0.39-0.135,0.734-0.3,1.035-0.495
			c0.299-0.195,0.555-0.397,0.765-0.607c0.209-0.21,0.375-0.375,0.495-0.495h0.45l1.8,1.755v0.495l-0.9,0.9
			c-0.45,0.449-1.163,0.862-2.138,1.237s-1.912,0.563-2.813,0.563h-3.149c-1.021,0-1.966-0.188-2.835-0.563
			c-0.871-0.375-1.628-0.885-2.272-1.53c-0.646-0.645-1.155-1.402-1.53-2.272s-0.563-1.814-0.563-2.835v-7.2
			c0-1.02,0.188-1.965,0.563-2.835s0.885-1.627,1.53-2.272c0.645-0.645,1.401-1.154,2.272-1.53c0.869-0.374,1.814-0.563,2.835-0.563
			h2.25c1.02,0,1.964,0.188,2.835,0.563c0.869,0.376,1.627,0.886,2.272,1.53c0.645,0.646,1.154,1.402,1.53,2.272
			c0.374,0.87,0.563,1.815,0.563,2.835v5.355h-13.5v1.845c0,1.141,0.389,2.101,1.17,2.88c0.779,0.78,1.739,1.17,2.88,1.17H390.281z
			 M383.081,89.126h10.35v-2.682c0-1.132-0.391-2.086-1.17-2.861c-0.78-0.774-1.74-1.162-2.88-1.162h-2.25
			c-1.141,0-2.101,0.388-2.88,1.162c-0.781,0.775-1.17,1.729-1.17,2.861V89.126z"/>
		<path fill="#E41E20" d="M418.046,96.506h0.36l1.215-5.085l3.149-12.15h2.7l0.45,0.45v0.9l-5.4,20.25h-4.05l-3.149-9.45
			l-1.351-5.85h-0.45l-1.35,5.85l-3.15,9.45h-4.05l-5.399-20.25v-0.9l0.449-0.45h2.7l2.7,10.351l1.665,6.885h0.36l4.725-15.885
			l0.45-0.45h2.25l0.45,0.45L418.046,96.506z"/>
		<path fill="#E41E20" d="M436.586,97.72c1.14,0,2.025-0.239,2.655-0.72c0.63-0.479,0.944-1.29,0.944-2.43
			c0-0.9-0.308-1.515-0.922-1.846c-0.615-0.329-1.396-0.555-2.34-0.675c-0.945-0.119-1.958-0.217-3.038-0.292
			s-2.093-0.293-3.037-0.653c-0.945-0.359-1.726-0.959-2.34-1.8c-0.615-0.839-0.923-2.085-0.923-3.734c0-1.801,0.555-3.3,1.665-4.5
			c1.109-1.2,2.79-1.801,5.04-1.801h2.295c0.9,0,1.837,0.188,2.813,0.563c0.975,0.376,1.688,0.788,2.138,1.238l0.899,0.899v0.45
			l-1.8,1.8h-0.45c-0.12-0.119-0.285-0.284-0.494-0.495c-0.211-0.209-0.466-0.412-0.766-0.607c-0.3-0.194-0.646-0.359-1.035-0.495
			c-0.39-0.135-0.825-0.202-1.305-0.202h-2.25c-1.141,0-2.025,0.24-2.655,0.72c-0.63,0.48-0.944,1.29-0.944,2.431
			c0,0.899,0.307,1.529,0.922,1.89s1.396,0.607,2.34,0.742c0.945,0.135,1.958,0.248,3.038,0.338s2.093,0.322,3.037,0.697
			c0.945,0.376,1.725,0.968,2.34,1.777c0.615,0.811,0.923,1.996,0.923,3.556c0,1.8-0.563,3.3-1.688,4.5s-2.813,1.8-5.063,1.8h-2.7
			c-0.899,0-1.838-0.188-2.813-0.563s-1.688-0.788-2.138-1.237l-0.899-0.9v-0.45l1.8-1.8h0.45c0.119,0.12,0.284,0.285,0.495,0.495
			c0.209,0.21,0.465,0.412,0.765,0.607s0.645,0.36,1.035,0.495c0.39,0.135,0.824,0.202,1.305,0.202H436.586z"/>
	</g>
</g>
</svg>
