<?xml version="1.0" encoding="utf-8"?>
<!-- Generator: Adobe Illustrator 17.0.0, SVG Export Plug-In . SVG Version: 6.00 Build 0)  -->
<!DOCTYPE svg PUBLIC "-//W3C//DTD SVG 1.1//EN" "http://www.w3.org/Graphics/SVG/1.1/DTD/svg11.dtd">
<svg version="1.1" id="Layer_1" xmlns="http://www.w3.org/2000/svg" xmlns:xlink="http://www.w3.org/1999/xlink" x="0px" y="0px"
	 width="445.195px" height="108.071px" viewBox="0 0 445.195 108.071" enable-background="new 0 0 445.195 108.071"
	 xml:space="preserve">
<g>
	<g>
		<rect x="0" y="0" fill="#E41E20" width="79.272" height="79.272"/>
	</g>
	<g>
		<g>
			<path d="M117.079,25.063c1.903,0,3.667,0.35,5.292,1.05c1.624,0.701,3.037,1.652,4.242,2.856
				c1.204,1.205,2.155,2.619,2.856,4.242c0.7,1.625,1.05,3.389,1.05,5.292v26.04l-0.84,0.84h-1.68l-3.36-3.36
				c-1.457,1.121-2.969,1.961-4.536,2.52c-1.568,0.56-3.416,0.84-5.544,0.84h-4.2c-1.68,0-3.234-0.294-4.662-0.882
				c-1.428-0.588-2.675-1.414-3.738-2.478c-1.064-1.063-1.89-2.31-2.478-3.738c-0.588-1.428-0.882-2.982-0.882-4.662
				c0-1.624,0.28-3.136,0.84-4.536c0.559-1.399,1.344-2.617,2.352-3.654c1.008-1.035,2.197-1.875,3.57-2.52
				c1.372-0.643,2.869-0.993,4.494-1.05h13.104v-3.36c0-1.68-0.561-3.079-1.68-4.2c-1.121-1.12-2.52-1.68-4.2-1.68h-5.04
				c-1.064,0-1.96,0.126-2.688,0.378c-0.728,0.252-1.358,0.56-1.89,0.924c-0.533,0.365-0.966,0.743-1.302,1.134
				c-0.336,0.393-0.617,0.701-0.84,0.924h-0.84l-3.36-4.2v-1.68l1.68-1.68c0.84-0.84,2.169-1.609,3.99-2.31
				c1.819-0.7,3.57-1.05,5.25-1.05H117.079z M110.275,49.423c-1.176,0-2.157,0.393-2.94,1.176c-0.785,0.785-1.176,1.821-1.176,3.108
				c0,1.176,0.378,2.156,1.134,2.94c0.756,0.785,1.75,1.176,2.982,1.176h4.284c2.52,0,4.549-0.769,6.09-2.31
				c1.54-1.54,2.31-3.57,2.31-6.09H110.275z"/>
		</g>
		<g>
			<path d="M145.386,64.333c-1.625-0.7-3.039-1.651-4.242-2.856c-1.205-1.204-2.156-2.617-2.856-4.242
				c-0.701-1.624-1.05-3.388-1.05-5.292v-37.8l5.04-2.52h1.68l0.84,0.84v39.48c0,1.68,0.56,3.081,1.68,4.2
				c1.12,1.121,2.52,1.68,4.2,1.68h4.2l0.84,0.84v5.88l-0.84,0.84h-4.2C148.773,65.383,147.01,65.034,145.386,64.333z"/>
		</g>
		<g>
			<path d="M175.038,65.383c-2.129,0-3.99-0.322-5.586-0.966c-1.596-0.643-3.066-1.525-4.41-2.646l-3.444,3.612h-1.68l-0.84-0.84
				v-52.08l0.84-0.84h5.88l0.84,0.84v12.6l-1.596,2.52l0.756,0.84l0.84-0.84c1.288-0.84,2.59-1.47,3.906-1.89
				c1.315-0.42,2.814-0.63,4.494-0.63h1.68c1.903,0,3.667,0.35,5.292,1.05c1.624,0.701,3.037,1.652,4.242,2.856
				c1.204,1.205,2.155,2.619,2.856,4.242c0.7,1.625,1.05,3.389,1.05,5.292v13.44c0,1.904-0.35,3.668-1.05,5.292
				c-0.701,1.625-1.652,3.039-2.856,4.242c-1.205,1.205-2.619,2.156-4.242,2.856c-1.625,0.701-3.389,1.05-5.292,1.05H175.038z
				 M175.038,32.623c-1.064,0-2.1,0.21-3.108,0.63c-1.008,0.42-1.904,1.008-2.688,1.764c-0.785,0.756-1.415,1.653-1.89,2.688
				c-0.477,1.037-0.714,2.142-0.714,3.318v8.4c0,1.289,0.238,2.436,0.714,3.444c0.475,1.008,1.105,1.89,1.89,2.646
				c0.784,0.756,1.68,1.331,2.688,1.722c1.008,0.393,2.044,0.588,3.108,0.588h1.596c1.68,0,3.094-0.559,4.242-1.68
				c1.147-1.119,1.722-2.52,1.722-4.2v-13.44c0-1.68-0.575-3.079-1.722-4.2c-1.148-1.12-2.562-1.68-4.242-1.68H175.038z"/>
		</g>
		<g>
			<path d="M211.997,25.063c1.903,0,3.667,0.35,5.292,1.05c1.624,0.701,3.037,1.652,4.242,2.856
				c1.204,1.205,2.155,2.619,2.856,4.242c0.7,1.625,1.05,3.389,1.05,5.292v26.04l-0.84,0.84h-1.68l-3.36-3.36
				c-1.457,1.121-2.969,1.961-4.536,2.52c-1.568,0.56-3.416,0.84-5.544,0.84h-4.2c-1.68,0-3.234-0.294-4.662-0.882
				c-1.428-0.588-2.675-1.414-3.738-2.478c-1.064-1.063-1.89-2.31-2.478-3.738c-0.588-1.428-0.882-2.982-0.882-4.662
				c0-1.624,0.28-3.136,0.84-4.536c0.559-1.399,1.344-2.617,2.352-3.654c1.008-1.035,2.197-1.875,3.57-2.52
				c1.372-0.643,2.869-0.993,4.494-1.05h13.104v-3.36c0-1.68-0.561-3.079-1.68-4.2c-1.121-1.12-2.52-1.68-4.2-1.68h-5.04
				c-1.064,0-1.96,0.126-2.688,0.378c-0.728,0.252-1.358,0.56-1.89,0.924c-0.533,0.365-0.966,0.743-1.302,1.134
				c-0.336,0.393-0.617,0.701-0.84,0.924h-0.84l-3.36-4.2v-1.68l1.68-1.68c0.84-0.84,2.169-1.609,3.99-2.31
				c1.819-0.7,3.57-1.05,5.25-1.05H211.997z M205.194,49.423c-1.176,0-2.157,0.393-2.94,1.176c-0.785,0.785-1.176,1.821-1.176,3.108
				c0,1.176,0.378,2.156,1.134,2.94c0.756,0.785,1.75,1.176,2.982,1.176h4.284c2.52,0,4.549-0.769,6.09-2.31
				c1.54-1.54,2.31-3.57,2.31-6.09H205.194z"/>
		</g>
		<g>
			<path d="M250.637,25.063c1.903,0,3.667,0.35,5.292,1.05c1.624,0.701,3.037,1.652,4.242,2.856
				c1.204,1.205,2.155,2.619,2.856,4.242c0.7,1.625,1.05,3.389,1.05,5.292v26.04l-0.84,0.84h-5.88l-0.84-0.84v-26.04
				c0-1.68-0.575-3.079-1.722-4.2c-1.148-1.12-2.562-1.68-4.242-1.68h-2.436c-1.064,0-2.1,0.197-3.108,0.588
				c-1.008,0.392-1.904,0.966-2.688,1.722c-0.785,0.756-1.415,1.653-1.89,2.688c-0.477,1.037-0.714,2.171-0.714,3.402v23.52
				l-0.84,0.84h-5.88l-0.84-0.84v-38.64l0.84-0.84h1.68l3.444,3.612c1.344-1.12,2.814-2.001,4.41-2.646
				c1.596-0.643,3.457-0.966,5.586-0.966H250.637z"/>
		</g>
		<g>
			<path d="M271.636,12.463l0.84-0.84h5.88l0.84,0.84v6.72l-0.84,0.84h-5.88l-0.84-0.84V12.463z M271.636,25.903l0.84-0.84h5.88
				l0.84,0.84v38.64l-0.84,0.84h-5.88l-0.84-0.84V25.903z"/>
		</g>
		<g>
			<path d="M299.356,65.383c-1.905,0-3.668-0.349-5.292-1.05c-1.625-0.7-3.039-1.651-4.242-2.856
				c-1.205-1.204-2.156-2.617-2.856-4.242c-0.701-1.624-1.05-3.388-1.05-5.292v-13.44c0-1.903,0.349-3.667,1.05-5.292
				c0.7-1.624,1.651-3.037,2.856-4.242c1.204-1.204,2.617-2.155,4.242-2.856c1.624-0.7,3.387-1.05,5.292-1.05h5.04
				c1.903,0,3.667,0.35,5.292,1.05c1.624,0.701,3.037,1.652,4.242,2.856c1.204,1.205,2.155,2.619,2.856,4.242
				c0.7,1.625,1.05,3.389,1.05,5.292v10.08h-24.36v3.36c0,1.68,0.56,3.081,1.68,4.2c1.12,1.121,2.52,1.68,4.2,1.68h6.72
				c1.68,0,3.108-0.307,4.284-0.924c1.176-0.616,1.987-1.147,2.436-1.596h0.84l3.36,3.36v1.68l-1.68,1.68
				c-0.84,0.84-2.171,1.61-3.99,2.31c-1.82,0.701-3.57,1.05-5.25,1.05H299.356z M299.356,32.623c-1.68,0-3.081,0.56-4.2,1.68
				c-1.121,1.121-1.68,2.52-1.68,4.2v2.52h16.8v-2.52c0-1.68-0.575-3.079-1.722-4.2c-1.148-1.12-2.562-1.68-4.242-1.68H299.356z"/>
		</g>
		<g>
			<path d="M343.036,25.063c1.903,0,3.667,0.35,5.292,1.05c1.624,0.701,3.037,1.652,4.242,2.856
				c1.203,1.205,2.155,2.619,2.855,4.242c0.7,1.625,1.051,3.389,1.051,5.292v26.04l-0.841,0.84h-5.88l-0.839-0.84v-26.04
				c0-1.68-0.575-3.079-1.722-4.2c-1.148-1.12-2.562-1.68-4.242-1.68h-2.436c-1.064,0-2.1,0.197-3.108,0.588
				c-1.008,0.392-1.904,0.966-2.688,1.722c-0.785,0.756-1.415,1.653-1.89,2.688c-0.477,1.037-0.714,2.171-0.714,3.402v23.52
				l-0.84,0.84h-5.88l-0.84-0.84v-38.64l0.84-0.84h1.68l3.444,3.612c1.344-1.12,2.814-2.001,4.41-2.646
				c1.596-0.643,3.457-0.966,5.586-0.966H343.036z"/>
		</g>
		<g>
			<path d="M364.034,56.143l0.84-0.84h8.4l0.84,0.84v8.4l-0.84,0.84h-8.4l-0.84-0.84V56.143z"/>
		</g>
		<g>
			<path d="M395.635,32.623c-1.289,0-2.493,0.252-3.612,0.756c-1.121,0.504-2.1,1.176-2.939,2.016
				c-0.841,0.84-1.499,1.82-1.975,2.94c-0.477,1.121-0.714,2.297-0.714,3.528v6.72c0,1.289,0.237,2.492,0.714,3.612
				c0.476,1.121,1.134,2.1,1.975,2.94c0.84,0.84,1.818,1.499,2.939,1.974c1.119,0.477,2.323,0.714,3.612,0.714h1.68
				c1.063,0,1.96-0.126,2.688-0.378c0.727-0.252,1.356-0.559,1.89-0.924c0.531-0.364,0.966-0.742,1.302-1.134
				c0.336-0.391,0.616-0.7,0.84-0.924h0.841l3.359,4.2v1.68l-1.68,1.68c-0.84,0.84-2.171,1.61-3.99,2.31
				c-1.82,0.701-3.57,1.05-5.25,1.05h-1.68c-2.297,0-4.467-0.448-6.51-1.344c-2.045-0.895-3.822-2.1-5.335-3.612
				c-1.512-1.512-2.717-3.289-3.611-5.334c-0.896-2.043-1.344-4.213-1.344-6.51v-6.72c0-2.295,0.447-4.465,1.344-6.51
				c0.895-2.044,2.1-3.822,3.611-5.334c1.513-1.512,3.29-2.716,5.335-3.612c2.043-0.895,4.213-1.344,6.51-1.344h1.68
				c1.68,0,3.43,0.35,5.25,1.05c1.819,0.701,3.15,1.47,3.99,2.31l1.68,1.68v1.68l-3.359,4.2h-0.841
				c-0.224-0.223-0.504-0.532-0.84-0.924c-0.336-0.391-0.771-0.769-1.302-1.134c-0.533-0.364-1.163-0.672-1.89-0.924
				c-0.729-0.252-1.625-0.378-2.688-0.378H395.635z"/>
		</g>
		<g>
			<path d="M431.754,25.063c1.903,0,3.667,0.35,5.292,1.05c1.624,0.701,3.037,1.652,4.242,2.856
				c1.203,1.205,2.155,2.619,2.855,4.242c0.7,1.625,1.051,3.389,1.051,5.292v26.04l-0.841,0.84h-5.88l-0.84-0.84v-26.04
				c0-1.68-0.575-3.079-1.722-4.2c-1.148-1.12-2.563-1.68-4.242-1.68h-2.436c-1.064,0-2.101,0.21-3.108,0.63
				s-1.904,1.008-2.688,1.764c-0.784,0.756-1.414,1.653-1.89,2.688c-0.477,1.037-0.714,2.142-0.714,3.318v23.52l-0.84,0.84h-5.88
				l-0.84-0.84v-52.08l0.84-0.84h5.88l0.84,0.84v12.6l-1.596,2.52l0.756,0.84l0.84-0.84c1.287-0.84,2.59-1.47,3.906-1.89
				c1.314-0.42,2.813-0.63,4.494-0.63H431.754z"/>
		</g>
	</g>
	<g>
		<g>
			<g>
				<path fill="#FFFFFF" d="M23.663,54.524c1.085,0.224,1.726,0.357,2.763,0.571c-0.139-1.306-0.07-2.482-0.413-3.522
					c-0.818-2.479-0.023-4.681,0.816-6.926c0.252-0.674,0.418-1.391,0.537-2.103c0.155-0.924,0.272-1.859,0.317-2.794
					c0.043-0.89,0.249-1.921-0.105-2.653c-0.79-1.63-0.506-3.098,0.092-4.63c0.744-1.905,1.486-3.81,2.217-5.719
					c0.479-1.249-0.038-2.201-1.355-2.555c-0.743-0.2-1.481-0.416-2.371-0.667c0.351-0.826,0.632-1.526,0.942-2.213
					c0.806-1.787,1.008-3.559,0.916-5.591c-0.097-2.132,0.552-4.432,2.517-6.035c1.402-1.144,2.573-2.572,3.96-3.989
					c0.195,0.201,0.547,0.521,0.848,0.882c1.057,1.266,2.362,2.036,4.046,1.985c1.421-0.043,2.258,0.612,2.701,1.941
					c0.485,1.453,1.642,2.12,2.932,2.905c1.373,0.835,2.286,2.437,3.377,3.724c1.162,1.372,1.179,2.775,0.813,4.597
					c-0.787,3.915-1.452,7.942-1.403,11.914c0.052,4.253,1.745,8.197,5.247,10.907c2.744,2.124,3.02,4.816,2.96,7.959
					c-0.041,2.123-1.031,3.265-2.42,4.551c-1.357,1.256-2.537,2.764-3.536,4.327c-1.029,1.61-2.055,3.119-3.674,4.222
					c-0.612,0.417-1.111,1.23-1.325,1.961c-0.741,2.534-2.19,4.453-4.474,5.756c-1.694,0.966-4.959-0.661-5.004-2.584
					c-0.071-3.05-1.35-5.164-4.326-6.095C26.392,63.126,25.522,58.687,23.663,54.524z"/>
			</g>
		</g>
	</g>
	<g>
		<g>
			<path d="M117.079,25.063c1.903,0,3.667,0.35,5.292,1.05c1.624,0.701,3.037,1.652,4.242,2.856
				c1.204,1.205,2.155,2.619,2.856,4.242c0.7,1.625,1.05,3.389,1.05,5.292v26.04l-0.84,0.84h-1.68l-3.36-3.36
				c-1.457,1.121-2.969,1.961-4.536,2.52c-1.568,0.56-3.416,0.84-5.544,0.84h-4.2c-1.68,0-3.234-0.294-4.662-0.882
				c-1.428-0.588-2.675-1.414-3.738-2.478c-1.064-1.063-1.89-2.31-2.478-3.738c-0.588-1.428-0.882-2.982-0.882-4.662
				c0-1.624,0.28-3.136,0.84-4.536c0.559-1.399,1.344-2.617,2.352-3.654c1.008-1.035,2.197-1.875,3.57-2.52
				c1.372-0.643,2.869-0.993,4.494-1.05h13.104v-3.36c0-1.68-0.561-3.079-1.68-4.2c-1.121-1.12-2.52-1.68-4.2-1.68h-5.04
				c-1.064,0-1.96,0.126-2.688,0.378c-0.728,0.252-1.358,0.56-1.89,0.924c-0.533,0.365-0.966,0.743-1.302,1.134
				c-0.336,0.393-0.617,0.701-0.84,0.924h-0.84l-3.36-4.2v-1.68l1.68-1.68c0.84-0.84,2.169-1.609,3.99-2.31
				c1.819-0.7,3.57-1.05,5.25-1.05H117.079z M110.275,49.423c-1.176,0-2.157,0.393-2.94,1.176c-0.785,0.785-1.176,1.821-1.176,3.108
				c0,1.176,0.378,2.156,1.134,2.94c0.756,0.785,1.75,1.176,2.982,1.176h4.284c2.52,0,4.549-0.769,6.09-2.31
				c1.54-1.54,2.31-3.57,2.31-6.09H110.275z"/>
		</g>
		<g>
			<path d="M145.386,64.333c-1.625-0.7-3.039-1.651-4.242-2.856c-1.205-1.204-2.156-2.617-2.856-4.242
				c-0.701-1.624-1.05-3.388-1.05-5.292v-37.8l5.04-2.52h1.68l0.84,0.84v39.48c0,1.68,0.56,3.081,1.68,4.2
				c1.12,1.121,2.52,1.68,4.2,1.68h4.2l0.84,0.84v5.88l-0.84,0.84h-4.2C148.773,65.383,147.01,65.034,145.386,64.333z"/>
		</g>
		<g>
			<path d="M175.038,65.383c-2.129,0-3.99-0.322-5.586-0.966c-1.596-0.643-3.066-1.525-4.41-2.646l-3.444,3.612h-1.68l-0.84-0.84
				v-52.08l0.84-0.84h5.88l0.84,0.84v12.6l-1.596,2.52l0.756,0.84l0.84-0.84c1.288-0.84,2.59-1.47,3.906-1.89
				c1.315-0.42,2.814-0.63,4.494-0.63h1.68c1.903,0,3.667,0.35,5.292,1.05c1.624,0.701,3.037,1.652,4.242,2.856
				c1.204,1.205,2.155,2.619,2.856,4.242c0.7,1.625,1.05,3.389,1.05,5.292v13.44c0,1.904-0.35,3.668-1.05,5.292
				c-0.701,1.625-1.652,3.039-2.856,4.242c-1.205,1.205-2.619,2.156-4.242,2.856c-1.625,0.701-3.389,1.05-5.292,1.05H175.038z
				 M175.038,32.623c-1.064,0-2.1,0.21-3.108,0.63c-1.008,0.42-1.904,1.008-2.688,1.764c-0.785,0.756-1.415,1.653-1.89,2.688
				c-0.477,1.037-0.714,2.142-0.714,3.318v8.4c0,1.289,0.238,2.436,0.714,3.444c0.475,1.008,1.105,1.89,1.89,2.646
				c0.784,0.756,1.68,1.331,2.688,1.722c1.008,0.393,2.044,0.588,3.108,0.588h1.596c1.68,0,3.094-0.559,4.242-1.68
				c1.147-1.119,1.722-2.52,1.722-4.2v-13.44c0-1.68-0.575-3.079-1.722-4.2c-1.148-1.12-2.562-1.68-4.242-1.68H175.038z"/>
		</g>
		<g>
			<path d="M211.997,25.063c1.903,0,3.667,0.35,5.292,1.05c1.624,0.701,3.037,1.652,4.242,2.856
				c1.204,1.205,2.155,2.619,2.856,4.242c0.7,1.625,1.05,3.389,1.05,5.292v26.04l-0.84,0.84h-1.68l-3.36-3.36
				c-1.457,1.121-2.969,1.961-4.536,2.52c-1.568,0.56-3.416,0.84-5.544,0.84h-4.2c-1.68,0-3.234-0.294-4.662-0.882
				c-1.428-0.588-2.675-1.414-3.738-2.478c-1.064-1.063-1.89-2.31-2.478-3.738c-0.588-1.428-0.882-2.982-0.882-4.662
				c0-1.624,0.28-3.136,0.84-4.536c0.559-1.399,1.344-2.617,2.352-3.654c1.008-1.035,2.197-1.875,3.57-2.52
				c1.372-0.643,2.869-0.993,4.494-1.05h13.104v-3.36c0-1.68-0.561-3.079-1.68-4.2c-1.121-1.12-2.52-1.68-4.2-1.68h-5.04
				c-1.064,0-1.96,0.126-2.688,0.378c-0.728,0.252-1.358,0.56-1.89,0.924c-0.533,0.365-0.966,0.743-1.302,1.134
				c-0.336,0.393-0.617,0.701-0.84,0.924h-0.84l-3.36-4.2v-1.68l1.68-1.68c0.84-0.84,2.169-1.609,3.99-2.31
				c1.819-0.7,3.57-1.05,5.25-1.05H211.997z M205.194,49.423c-1.176,0-2.157,0.393-2.94,1.176c-0.785,0.785-1.176,1.821-1.176,3.108
				c0,1.176,0.378,2.156,1.134,2.94c0.756,0.785,1.75,1.176,2.982,1.176h4.284c2.52,0,4.549-0.769,6.09-2.31
				c1.54-1.54,2.31-3.57,2.31-6.09H205.194z"/>
		</g>
		<g>
			<path d="M250.637,25.063c1.903,0,3.667,0.35,5.292,1.05c1.624,0.701,3.037,1.652,4.242,2.856
				c1.204,1.205,2.155,2.619,2.856,4.242c0.7,1.625,1.05,3.389,1.05,5.292v26.04l-0.84,0.84h-5.88l-0.84-0.84v-26.04
				c0-1.68-0.575-3.079-1.722-4.2c-1.148-1.12-2.562-1.68-4.242-1.68h-2.436c-1.064,0-2.1,0.197-3.108,0.588
				c-1.008,0.392-1.904,0.966-2.688,1.722c-0.785,0.756-1.415,1.653-1.89,2.688c-0.477,1.037-0.714,2.171-0.714,3.402v23.52
				l-0.84,0.84h-5.88l-0.84-0.84v-38.64l0.84-0.84h1.68l3.444,3.612c1.344-1.12,2.814-2.001,4.41-2.646
				c1.596-0.643,3.457-0.966,5.586-0.966H250.637z"/>
		</g>
		<g>
			<path d="M271.636,12.463l0.84-0.84h5.88l0.84,0.84v6.72l-0.84,0.84h-5.88l-0.84-0.84V12.463z M271.636,25.903l0.84-0.84h5.88
				l0.84,0.84v38.64l-0.84,0.84h-5.88l-0.84-0.84V25.903z"/>
		</g>
		<g>
			<path d="M299.356,65.383c-1.905,0-3.668-0.349-5.292-1.05c-1.625-0.7-3.039-1.651-4.242-2.856
				c-1.205-1.204-2.156-2.617-2.856-4.242c-0.701-1.624-1.05-3.388-1.05-5.292v-13.44c0-1.903,0.349-3.667,1.05-5.292
				c0.7-1.624,1.651-3.037,2.856-4.242c1.204-1.204,2.617-2.155,4.242-2.856c1.624-0.7,3.387-1.05,5.292-1.05h5.04
				c1.903,0,3.667,0.35,5.292,1.05c1.624,0.701,3.037,1.652,4.242,2.856c1.204,1.205,2.155,2.619,2.856,4.242
				c0.7,1.625,1.05,3.389,1.05,5.292v10.08h-24.36v3.36c0,1.68,0.56,3.081,1.68,4.2c1.12,1.121,2.52,1.68,4.2,1.68h6.72
				c1.68,0,3.108-0.307,4.284-0.924c1.176-0.616,1.987-1.147,2.436-1.596h0.84l3.36,3.36v1.68l-1.68,1.68
				c-0.84,0.84-2.171,1.61-3.99,2.31c-1.82,0.701-3.57,1.05-5.25,1.05H299.356z M299.356,32.623c-1.68,0-3.081,0.56-4.2,1.68
				c-1.121,1.121-1.68,2.52-1.68,4.2v2.52h16.8v-2.52c0-1.68-0.575-3.079-1.722-4.2c-1.148-1.12-2.562-1.68-4.242-1.68H299.356z"/>
		</g>
		<g>
			<path d="M343.036,25.063c1.903,0,3.667,0.35,5.292,1.05c1.624,0.701,3.037,1.652,4.242,2.856
				c1.203,1.205,2.155,2.619,2.855,4.242c0.7,1.625,1.051,3.389,1.051,5.292v26.04l-0.841,0.84h-5.88l-0.839-0.84v-26.04
				c0-1.68-0.575-3.079-1.722-4.2c-1.148-1.12-2.562-1.68-4.242-1.68h-2.436c-1.064,0-2.1,0.197-3.108,0.588
				c-1.008,0.392-1.904,0.966-2.688,1.722c-0.785,0.756-1.415,1.653-1.89,2.688c-0.477,1.037-0.714,2.171-0.714,3.402v23.52
				l-0.84,0.84h-5.88l-0.84-0.84v-38.64l0.84-0.84h1.68l3.444,3.612c1.344-1.12,2.814-2.001,4.41-2.646
				c1.596-0.643,3.457-0.966,5.586-0.966H343.036z"/>
		</g>
		<g>
			<path d="M364.034,56.143l0.84-0.84h8.4l0.84,0.84v8.4l-0.84,0.84h-8.4l-0.84-0.84V56.143z"/>
		</g>
		<g>
			<path d="M395.635,32.623c-1.289,0-2.493,0.252-3.612,0.756c-1.121,0.504-2.1,1.176-2.939,2.016
				c-0.841,0.84-1.499,1.82-1.975,2.94c-0.477,1.121-0.714,2.297-0.714,3.528v6.72c0,1.289,0.237,2.492,0.714,3.612
				c0.476,1.121,1.134,2.1,1.975,2.94c0.84,0.84,1.818,1.499,2.939,1.974c1.119,0.477,2.323,0.714,3.612,0.714h1.68
				c1.063,0,1.96-0.126,2.688-0.378c0.727-0.252,1.356-0.559,1.89-0.924c0.531-0.364,0.966-0.742,1.302-1.134
				c0.336-0.391,0.616-0.7,0.84-0.924h0.841l3.359,4.2v1.68l-1.68,1.68c-0.84,0.84-2.171,1.61-3.99,2.31
				c-1.82,0.701-3.57,1.05-5.25,1.05h-1.68c-2.297,0-4.467-0.448-6.51-1.344c-2.045-0.895-3.822-2.1-5.335-3.612
				c-1.512-1.512-2.717-3.289-3.611-5.334c-0.896-2.043-1.344-4.213-1.344-6.51v-6.72c0-2.295,0.447-4.465,1.344-6.51
				c0.895-2.044,2.1-3.822,3.611-5.334c1.513-1.512,3.29-2.716,5.335-3.612c2.043-0.895,4.213-1.344,6.51-1.344h1.68
				c1.68,0,3.43,0.35,5.25,1.05c1.819,0.701,3.15,1.47,3.99,2.31l1.68,1.68v1.68l-3.359,4.2h-0.841
				c-0.224-0.223-0.504-0.532-0.84-0.924c-0.336-0.391-0.771-0.769-1.302-1.134c-0.533-0.364-1.163-0.672-1.89-0.924
				c-0.729-0.252-1.625-0.378-2.688-0.378H395.635z"/>
		</g>
		<g>
			<path d="M431.754,25.063c1.903,0,3.667,0.35,5.292,1.05c1.624,0.701,3.037,1.652,4.242,2.856
				c1.203,1.205,2.155,2.619,2.855,4.242c0.7,1.625,1.051,3.389,1.051,5.292v26.04l-0.841,0.84h-5.88l-0.84-0.84v-26.04
				c0-1.68-0.575-3.079-1.722-4.2c-1.148-1.12-2.563-1.68-4.242-1.68h-2.436c-1.064,0-2.101,0.21-3.108,0.63
				s-1.904,1.008-2.688,1.764c-0.784,0.756-1.414,1.653-1.89,2.688c-0.477,1.037-0.714,2.142-0.714,3.318v23.52l-0.84,0.84h-5.88
				l-0.84-0.84v-52.08l0.84-0.84h5.88l0.84,0.84v12.6l-1.596,2.52l0.756,0.84l0.84-0.84c1.287-0.84,2.59-1.47,3.906-1.89
				c1.314-0.42,2.813-0.63,4.494-0.63H431.754z"/>
		</g>
	</g>
	<g>
		<g>
			<path fill="none" d="M21.708,50.057c-0.015-0.269-0.013-0.531-0.009-0.792h-3.824L21.708,50.057z"/>
		</g>
		<g>
			<path fill="#FFFFFF" d="M17.876,49.266h3.824c0.037-2.339,0.793-4.381,1.403-6.013c0.135-0.36,0.246-0.808,0.34-1.368
				c0.146-0.869,0.233-1.63,0.266-2.326c0.012-0.245,0.032-0.498,0.054-0.754c0.011-0.123,0.024-0.284,0.033-0.417
				c-1.256-2.977-0.517-5.613,0.167-7.367c0.117-0.299,0.233-0.598,0.349-0.897H8.514v19.142h8.445l-0.093-0.208L17.876,49.266z"/>
		</g>
		<g>
			<path fill="#FFFFFF" d="M71.172,30.006H51.949c-0.11,1.203-0.175,2.409-0.16,3.591c0.028,2.276,0.693,5.479,3.704,7.809
				c3.033,2.348,4.042,5.262,4.366,7.742h11.315V30.006z"/>
		</g>
	</g>
</g>
<g>
	<path fill="#E41E20" d="M242.639,97.721c1.14,0,2.025-0.24,2.655-0.72c0.63-0.479,0.944-1.29,0.944-2.43
		c0-0.9-0.308-1.515-0.922-1.845c-0.615-0.33-1.396-0.555-2.34-0.675c-0.945-0.12-1.958-0.217-3.038-0.292
		c-1.08-0.075-2.093-0.292-3.037-0.653c-0.945-0.36-1.726-0.959-2.34-1.8c-0.615-0.839-0.923-2.085-0.923-3.735
		c0-1.8,0.555-3.3,1.665-4.5c1.109-1.2,2.79-1.8,5.04-1.8h2.295c0.9,0,1.837,0.188,2.813,0.563c0.975,0.375,1.688,0.788,2.138,1.238
		l0.899,0.9v0.45l-1.8,1.8h-0.45c-0.12-0.12-0.285-0.285-0.494-0.495c-0.211-0.209-0.466-0.412-0.766-0.607
		c-0.3-0.195-0.646-0.36-1.035-0.495c-0.39-0.135-0.825-0.203-1.305-0.203h-2.25c-1.141,0-2.025,0.241-2.655,0.72
		c-0.63,0.48-0.944,1.29-0.944,2.43c0,0.9,0.307,1.53,0.922,1.89c0.615,0.36,1.396,0.607,2.34,0.743
		c0.945,0.135,1.958,0.248,3.038,0.337s2.093,0.323,3.037,0.698c0.945,0.375,1.725,0.967,2.34,1.777s0.923,1.996,0.923,3.555
		c0,1.8-0.563,3.3-1.688,4.5c-1.125,1.2-2.813,1.8-5.063,1.8h-2.7c-0.899,0-1.838-0.187-2.813-0.563
		c-0.975-0.375-1.688-0.788-2.138-1.237l-0.899-0.9v-0.45l1.8-1.8h0.45c0.119,0.121,0.284,0.286,0.495,0.495
		c0.209,0.21,0.465,0.413,0.765,0.607c0.3,0.196,0.645,0.36,1.035,0.495c0.39,0.135,0.824,0.203,1.305,0.203H242.639z"/>
	<path fill="#E41E20" d="M251.144,72.475l0.45-0.45h4.05l0.45,0.45v4.5l-2.25,5.4h-0.45l-0.449-0.45l0.81-4.5v-0.45h-2.16
		l-0.45-0.45V72.475z"/>
	<path fill="#E41E20" d="M270.809,90.071v0.45l6.75,9v0.9l-0.449,0.45h-2.25l-6.75-9h-3.15v8.55l-0.45,0.45h-2.25l-0.45-0.45v-27.9
		l0.45-0.45h2.25l0.45,0.45v16.2h3.15l6.75-9.45h2.25l0.449,0.45v0.9L270.809,90.071z"/>
	<path fill="#E41E20" d="M286.423,82.42c-0.45,0-0.87,0.068-1.26,0.203c-0.391,0.135-0.735,0.3-1.035,0.495
		c-0.301,0.195-0.563,0.398-0.787,0.607c-0.226,0.21-0.398,0.375-0.518,0.495h-0.45l-1.8-1.8v-0.45l0.899-0.9
		c0.45-0.45,1.162-0.862,2.138-1.238c0.975-0.375,1.912-0.563,2.813-0.563h2.25c1.02,0,1.965,0.188,2.835,0.563
		c0.87,0.375,1.627,0.885,2.272,1.53c0.645,0.646,1.154,1.402,1.53,2.272c0.375,0.87,0.563,1.815,0.563,2.835v13.95l-0.45,0.45h-0.9
		l-1.35-2.25h-0.45c-0.69,0.69-1.553,1.237-2.587,1.643c-1.035,0.405-2.123,0.607-3.263,0.607h-1.351
		c-0.899,0-1.732-0.158-2.497-0.473s-1.433-0.757-2.003-1.327s-1.012-1.238-1.327-2.003c-0.315-0.765-0.473-1.597-0.473-2.497
		c0-0.9,0.157-1.733,0.473-2.498c0.315-0.765,0.757-1.433,1.327-2.002s1.238-1.013,2.003-1.328s1.598-0.473,2.497-0.473h7.2v-1.8
		c0-1.14-0.39-2.1-1.17-2.88c-0.78-0.78-1.74-1.17-2.88-1.17H286.423z M282.373,94.571c0,0.87,0.307,1.613,0.922,2.228
		c0.615,0.615,1.357,0.922,2.228,0.922h1.351c0.779,0,1.522-0.158,2.228-0.473c0.704-0.315,1.327-0.743,1.867-1.282
		c0.54-0.54,0.968-1.163,1.282-1.868c0.315-0.705,0.473-1.447,0.473-2.228v-0.45h-7.2c-0.87,0-1.612,0.3-2.228,0.9
		S282.373,93.67,282.373,94.571z"/>
	<path fill="#E41E20" d="M310.003,88.27v-0.36v-8.19l0.449-0.45h0.9l1.755,2.205c0.78-0.69,1.672-1.23,2.678-1.62
		c1.005-0.389,2.077-0.585,3.218-0.585h0.449c1.02,0,1.965,0.188,2.835,0.563c0.87,0.375,1.628,0.885,2.272,1.53
		c0.646,0.646,1.155,1.402,1.53,2.272s0.563,1.815,0.563,2.835v7.2c0,1.021-0.188,1.965-0.563,2.835
		c-0.375,0.871-0.885,1.628-1.53,2.273c-0.645,0.645-1.402,1.155-2.272,1.53c-0.87,0.375-1.815,0.563-2.835,0.563h-0.449
		c-1.021,0-1.988-0.158-2.903-0.473s-1.747-0.757-2.497-1.327c-0.061-0.03-0.165-0.12-0.315-0.27c-0.15-0.15-0.3-0.3-0.449-0.45
		c-0.181-0.18-0.376-0.39-0.585-0.63l-0.45,0.45l1.35,2.7v6.75l-0.45,0.45h-2.25l-0.449-0.45V88.27z M313.153,91.87
		c0,0.78,0.157,1.523,0.473,2.228c0.315,0.705,0.742,1.328,1.282,1.868c0.54,0.54,1.162,0.967,1.868,1.282
		c0.704,0.315,1.446,0.473,2.228,0.473h0.449c1.141,0,2.1-0.39,2.881-1.17c0.779-0.78,1.17-1.74,1.17-2.88v-7.2
		c0-1.14-0.391-2.1-1.17-2.88c-0.781-0.78-1.74-1.17-2.881-1.17h-0.449c-0.781,0-1.516,0.151-2.205,0.45
		c-0.69,0.3-1.298,0.713-1.823,1.237c-0.524,0.525-0.952,1.125-1.282,1.8c-0.33,0.675-0.511,1.388-0.54,2.137V91.87z"/>
	<path fill="#E41E20" d="M337.318,82.466c-0.45,0-0.894,0.105-1.328,0.315c-0.435,0.21-0.817,0.48-1.147,0.81
		s-0.601,0.713-0.81,1.147c-0.211,0.435-0.315,0.877-0.315,1.327v14.355l-0.45,0.45h-2.25l-0.449-0.45v-20.7l0.449-0.45h0.9
		l0.81,1.98c0.66-0.6,1.41-1.08,2.25-1.44s1.771-0.54,2.79-0.54h1.351l0.45,0.45v2.295l-0.45,0.45H337.318z"/>
	<path fill="#E41E20" d="M340.152,88.27c0-1.229,0.24-2.392,0.72-3.487c0.479-1.095,1.125-2.047,1.936-2.857
		c0.81-0.81,1.762-1.455,2.857-1.935c1.095-0.479,2.257-0.72,3.487-0.72c1.229,0,2.392,0.241,3.487,0.72
		c1.095,0.48,2.048,1.125,2.857,1.935c0.811,0.81,1.455,1.763,1.936,2.857c0.479,1.095,0.72,2.258,0.72,3.487v3.6
		c0,1.23-0.24,2.393-0.72,3.487c-0.48,1.096-1.125,2.048-1.936,2.858c-0.81,0.81-1.763,1.455-2.857,1.935
		c-1.096,0.48-2.258,0.72-3.487,0.72c-1.23,0-2.393-0.24-3.487-0.72c-1.096-0.479-2.048-1.125-2.857-1.935
		c-0.811-0.81-1.456-1.762-1.936-2.858c-0.479-1.095-0.72-2.257-0.72-3.487V88.27z M343.302,91.87c0,0.78,0.157,1.523,0.472,2.228
		c0.315,0.705,0.743,1.328,1.283,1.868c0.54,0.54,1.162,0.967,1.867,1.282c0.704,0.315,1.447,0.473,2.228,0.473
		c0.779,0,1.522-0.158,2.228-0.473c0.704-0.315,1.327-0.743,1.867-1.282c0.54-0.54,0.968-1.163,1.283-1.868
		c0.314-0.705,0.472-1.447,0.472-2.228v-3.6c0-0.78-0.157-1.522-0.472-2.228c-0.315-0.705-0.743-1.327-1.283-1.867
		s-1.163-0.968-1.867-1.283c-0.705-0.315-1.448-0.473-2.228-0.473c-0.78,0-1.523,0.158-2.228,0.473
		c-0.705,0.315-1.327,0.743-1.867,1.283s-0.968,1.163-1.283,1.867c-0.314,0.706-0.472,1.448-0.472,2.228V91.87z"/>
	<path fill="#E41E20" d="M362.067,72.52l0.449-0.45h2.25l0.45,0.45v6.75l-1.35,2.7l0.45,0.45c0.209-0.24,0.404-0.45,0.585-0.63
		c0.149-0.15,0.299-0.292,0.449-0.427c0.15-0.135,0.255-0.232,0.315-0.292c0.75-0.57,1.582-1.013,2.497-1.328
		s1.883-0.473,2.903-0.473h0.449c1.02,0,1.965,0.188,2.835,0.563c0.87,0.375,1.628,0.885,2.272,1.53
		c0.646,0.646,1.155,1.402,1.53,2.272s0.563,1.815,0.563,2.835v7.2c0,1.021-0.188,1.965-0.563,2.835
		c-0.375,0.871-0.885,1.628-1.53,2.273c-0.645,0.645-1.402,1.155-2.272,1.53c-0.87,0.375-1.815,0.563-2.835,0.563h-0.449
		c-1.141,0-2.213-0.195-3.218-0.585c-1.006-0.39-1.897-0.93-2.678-1.62l-1.755,2.205h-0.9l-0.449-0.45v-8.19v-0.36V72.52z
		 M365.216,92.096c0.029,0.75,0.21,1.462,0.54,2.137c0.33,0.675,0.758,1.276,1.282,1.8c0.525,0.525,1.133,0.938,1.823,1.237
		c0.689,0.3,1.424,0.45,2.205,0.45h0.449c1.141,0,2.1-0.39,2.881-1.17c0.779-0.78,1.17-1.74,1.17-2.88v-7.2
		c0-1.14-0.391-2.1-1.17-2.88c-0.781-0.78-1.74-1.17-2.881-1.17h-0.449c-0.781,0-1.523,0.158-2.228,0.473
		c-0.706,0.315-1.328,0.743-1.868,1.283s-0.967,1.163-1.282,1.867c-0.315,0.706-0.473,1.448-0.473,2.228V92.096z"/>
	<path fill="#E41E20" d="M392.08,97.721l0.45,0.45v2.25l-0.45,0.45h-1.8c-1.021,0-1.965-0.187-2.835-0.563
		c-0.87-0.375-1.628-0.885-2.272-1.53c-0.646-0.645-1.155-1.402-1.53-2.273c-0.375-0.87-0.563-1.814-0.563-2.835V73.42l1.801-1.35
		h0.899l0.45,0.45v21.15c0,1.141,0.39,2.101,1.17,2.88c0.78,0.78,1.739,1.17,2.88,1.17H392.08z"/>
	<path fill="#E41E20" d="M403.421,97.721c0.479,0,0.915-0.067,1.306-0.203c0.39-0.135,0.734-0.299,1.035-0.495
		c0.299-0.195,0.555-0.397,0.765-0.607c0.209-0.209,0.375-0.375,0.495-0.495h0.45l1.8,1.755v0.495l-0.9,0.9
		c-0.45,0.45-1.163,0.862-2.138,1.237c-0.975,0.375-1.912,0.563-2.813,0.563h-3.149c-1.021,0-1.966-0.187-2.835-0.563
		c-0.871-0.375-1.628-0.885-2.272-1.53c-0.646-0.645-1.155-1.402-1.53-2.273c-0.375-0.87-0.563-1.814-0.563-2.835v-7.2
		c0-1.02,0.188-1.965,0.563-2.835s0.885-1.627,1.53-2.272c0.645-0.645,1.401-1.155,2.272-1.53c0.869-0.375,1.814-0.563,2.835-0.563
		h2.25c1.02,0,1.964,0.188,2.835,0.563c0.869,0.375,1.627,0.885,2.272,1.53c0.645,0.646,1.154,1.402,1.53,2.272
		c0.374,0.87,0.563,1.815,0.563,2.835v5.355h-13.5v1.845c0,1.141,0.389,2.101,1.17,2.88c0.779,0.78,1.739,1.17,2.88,1.17H403.421z
		 M396.222,89.125h10.35v-2.682c0-1.132-0.391-2.086-1.17-2.861c-0.78-0.775-1.74-1.163-2.88-1.163h-2.25
		c-1.141,0-2.101,0.388-2.88,1.163c-0.781,0.775-1.17,1.729-1.17,2.861V89.125z"/>
	<path fill="#E41E20" d="M442.436,100.42l-0.45,0.45h-2.25l-0.45-0.45v-13.95c0-1.14-0.391-2.1-1.17-2.88
		c-0.78-0.78-1.74-1.17-2.88-1.17c-0.78,0-1.523,0.158-2.228,0.473c-0.705,0.315-1.328,0.743-1.867,1.283
		c-0.54,0.54-0.968,1.163-1.283,1.867c-0.314,0.706-0.473,1.448-0.473,2.228v12.15l-0.449,0.45h-2.25l-0.45-0.45v-13.95
		c0-1.14-0.391-2.1-1.17-2.88c-0.78-0.78-1.74-1.17-2.88-1.17c-0.781,0-1.523,0.158-2.228,0.473
		c-0.706,0.315-1.328,0.728-1.868,1.237c-0.54,0.511-0.967,1.11-1.282,1.8c-0.315,0.69-0.473,1.395-0.473,2.115v12.375l-0.45,0.45
		h-2.25l-0.449-0.45v-20.7l0.449-0.45h0.9l1.755,2.205c0.78-0.69,1.672-1.23,2.678-1.62c1.005-0.389,2.077-0.585,3.218-0.585
		c1.35,0,2.489,0.3,3.42,0.9c0.93,0.601,1.739,1.35,2.43,2.25h0.45c0.689-0.9,1.649-1.649,2.88-2.25c1.229-0.6,2.52-0.9,3.87-0.9
		c1.02,0,1.964,0.188,2.835,0.563c0.869,0.375,1.627,0.885,2.272,1.53c0.645,0.646,1.154,1.402,1.53,2.272
		c0.374,0.87,0.563,1.815,0.563,2.835V100.42z"/>
</g>
</svg>
