<?xml version="1.0" encoding="utf-8"?>
<!-- Generator: Adobe Illustrator 17.0.0, SVG Export Plug-In . SVG Version: 6.00 Build 0)  -->
<!DOCTYPE svg PUBLIC "-//W3C//DTD SVG 1.1//EN" "http://www.w3.org/Graphics/SVG/1.1/DTD/svg11.dtd">
<svg version="1.1" id="Layer_1" xmlns="http://www.w3.org/2000/svg" xmlns:xlink="http://www.w3.org/1999/xlink" x="0px" y="0px"
	 width="445.195px" height="100.87px" viewBox="0 0 445.195 100.87" enable-background="new 0 0 445.195 100.87"
	 xml:space="preserve">
<g>
	<g>
		<g>
			<rect x="0" y="0" fill="#E41E20" width="79.272" height="79.272"/>
		</g>
		<g>
			<g>
				<path d="M117.079,25.063c1.903,0,3.667,0.35,5.292,1.05c1.624,0.701,3.037,1.652,4.242,2.856
					c1.204,1.205,2.155,2.619,2.856,4.242c0.7,1.625,1.05,3.389,1.05,5.292v26.04l-0.84,0.84h-1.68l-3.36-3.36
					c-1.457,1.121-2.969,1.961-4.536,2.52c-1.568,0.56-3.416,0.84-5.544,0.84h-4.2c-1.68,0-3.234-0.294-4.662-0.882
					c-1.428-0.588-2.675-1.414-3.738-2.478c-1.064-1.063-1.89-2.31-2.478-3.738c-0.588-1.428-0.882-2.982-0.882-4.662
					c0-1.624,0.28-3.136,0.84-4.536c0.559-1.399,1.344-2.617,2.352-3.654c1.008-1.035,2.197-1.875,3.57-2.52
					c1.372-0.643,2.869-0.993,4.494-1.05h13.104v-3.36c0-1.68-0.561-3.079-1.68-4.2c-1.121-1.12-2.52-1.68-4.2-1.68h-5.04
					c-1.064,0-1.96,0.126-2.688,0.378c-0.728,0.252-1.358,0.56-1.89,0.924c-0.533,0.365-0.966,0.743-1.302,1.134
					c-0.336,0.393-0.617,0.701-0.84,0.924h-0.84l-3.36-4.2v-1.68l1.68-1.68c0.84-0.84,2.169-1.609,3.99-2.31
					c1.819-0.7,3.57-1.05,5.25-1.05H117.079z M110.275,49.423c-1.176,0-2.157,0.393-2.94,1.176
					c-0.785,0.785-1.176,1.821-1.176,3.108c0,1.176,0.378,2.156,1.134,2.94c0.756,0.785,1.75,1.176,2.982,1.176h4.284
					c2.52,0,4.549-0.769,6.09-2.31c1.54-1.54,2.31-3.57,2.31-6.09H110.275z"/>
			</g>
			<g>
				<path d="M145.386,64.333c-1.625-0.7-3.039-1.651-4.242-2.856c-1.205-1.204-2.156-2.617-2.856-4.242
					c-0.701-1.624-1.05-3.388-1.05-5.292v-37.8l5.04-2.52h1.68l0.84,0.84v39.48c0,1.68,0.56,3.081,1.68,4.2
					c1.12,1.121,2.52,1.68,4.2,1.68h4.2l0.84,0.84v5.88l-0.84,0.84h-4.2C148.773,65.383,147.01,65.034,145.386,64.333z"/>
			</g>
			<g>
				<path d="M175.038,65.383c-2.129,0-3.99-0.322-5.586-0.966c-1.596-0.643-3.066-1.525-4.41-2.646l-3.444,3.612h-1.68l-0.84-0.84
					v-52.08l0.84-0.84h5.88l0.84,0.84v12.6l-1.596,2.52l0.756,0.84l0.84-0.84c1.288-0.84,2.59-1.47,3.906-1.89
					c1.315-0.42,2.814-0.63,4.494-0.63h1.68c1.903,0,3.667,0.35,5.292,1.05c1.624,0.701,3.037,1.652,4.242,2.856
					c1.204,1.205,2.155,2.619,2.856,4.242c0.7,1.625,1.05,3.389,1.05,5.292v13.44c0,1.904-0.35,3.668-1.05,5.292
					c-0.701,1.625-1.652,3.039-2.856,4.242c-1.205,1.205-2.619,2.156-4.242,2.856c-1.625,0.701-3.389,1.05-5.292,1.05H175.038z
					 M175.038,32.623c-1.064,0-2.1,0.21-3.108,0.63c-1.008,0.42-1.904,1.008-2.688,1.764c-0.785,0.756-1.415,1.653-1.89,2.688
					c-0.477,1.037-0.714,2.142-0.714,3.318v8.4c0,1.289,0.238,2.436,0.714,3.444c0.475,1.008,1.105,1.89,1.89,2.646
					c0.784,0.756,1.68,1.331,2.688,1.722c1.008,0.393,2.044,0.588,3.108,0.588h1.596c1.68,0,3.094-0.559,4.242-1.68
					c1.147-1.119,1.722-2.52,1.722-4.2v-13.44c0-1.68-0.575-3.079-1.722-4.2c-1.148-1.12-2.562-1.68-4.242-1.68H175.038z"/>
			</g>
			<g>
				<path d="M211.997,25.063c1.903,0,3.667,0.35,5.292,1.05c1.624,0.701,3.037,1.652,4.242,2.856
					c1.204,1.205,2.155,2.619,2.856,4.242c0.7,1.625,1.05,3.389,1.05,5.292v26.04l-0.84,0.84h-1.68l-3.36-3.36
					c-1.457,1.121-2.969,1.961-4.536,2.52c-1.568,0.56-3.416,0.84-5.544,0.84h-4.2c-1.68,0-3.234-0.294-4.662-0.882
					c-1.428-0.588-2.675-1.414-3.738-2.478c-1.064-1.063-1.89-2.31-2.478-3.738c-0.588-1.428-0.882-2.982-0.882-4.662
					c0-1.624,0.28-3.136,0.84-4.536c0.559-1.399,1.344-2.617,2.352-3.654c1.008-1.035,2.197-1.875,3.57-2.52
					c1.372-0.643,2.869-0.993,4.494-1.05h13.104v-3.36c0-1.68-0.561-3.079-1.68-4.2c-1.121-1.12-2.52-1.68-4.2-1.68h-5.04
					c-1.064,0-1.96,0.126-2.688,0.378c-0.728,0.252-1.358,0.56-1.89,0.924c-0.533,0.365-0.966,0.743-1.302,1.134
					c-0.336,0.393-0.617,0.701-0.84,0.924h-0.84l-3.36-4.2v-1.68l1.68-1.68c0.84-0.84,2.169-1.609,3.99-2.31
					c1.819-0.7,3.57-1.05,5.25-1.05H211.997z M205.194,49.423c-1.176,0-2.157,0.393-2.94,1.176
					c-0.785,0.785-1.176,1.821-1.176,3.108c0,1.176,0.378,2.156,1.134,2.94c0.756,0.785,1.75,1.176,2.982,1.176h4.284
					c2.52,0,4.549-0.769,6.09-2.31c1.54-1.54,2.31-3.57,2.31-6.09H205.194z"/>
			</g>
			<g>
				<path d="M250.637,25.063c1.903,0,3.667,0.35,5.292,1.05c1.624,0.701,3.037,1.652,4.242,2.856
					c1.204,1.205,2.155,2.619,2.856,4.242c0.7,1.625,1.05,3.389,1.05,5.292v26.04l-0.84,0.84h-5.88l-0.84-0.84v-26.04
					c0-1.68-0.575-3.079-1.722-4.2c-1.148-1.12-2.562-1.68-4.242-1.68h-2.436c-1.064,0-2.1,0.197-3.108,0.588
					c-1.008,0.392-1.904,0.966-2.688,1.722c-0.785,0.756-1.415,1.653-1.89,2.688c-0.477,1.037-0.714,2.171-0.714,3.402v23.52
					l-0.84,0.84h-5.88l-0.84-0.84v-38.64l0.84-0.84h1.68l3.444,3.612c1.344-1.12,2.814-2.001,4.41-2.646
					c1.596-0.643,3.457-0.966,5.586-0.966H250.637z"/>
			</g>
			<g>
				<path d="M271.636,12.463l0.84-0.84h5.88l0.84,0.84v6.72l-0.84,0.84h-5.88l-0.84-0.84V12.463z M271.636,25.903l0.84-0.84h5.88
					l0.84,0.84v38.64l-0.84,0.84h-5.88l-0.84-0.84V25.903z"/>
			</g>
			<g>
				<path d="M299.356,65.383c-1.905,0-3.668-0.349-5.292-1.05c-1.625-0.7-3.039-1.651-4.242-2.856
					c-1.205-1.204-2.156-2.617-2.856-4.242c-0.701-1.624-1.05-3.388-1.05-5.292v-13.44c0-1.903,0.349-3.667,1.05-5.292
					c0.7-1.624,1.651-3.037,2.856-4.242c1.204-1.204,2.617-2.155,4.242-2.856c1.624-0.7,3.387-1.05,5.292-1.05h5.04
					c1.903,0,3.667,0.35,5.292,1.05c1.624,0.701,3.037,1.652,4.242,2.856c1.204,1.205,2.155,2.619,2.856,4.242
					c0.7,1.625,1.05,3.389,1.05,5.292v10.08h-24.36v3.36c0,1.68,0.56,3.081,1.68,4.2c1.12,1.121,2.52,1.68,4.2,1.68h6.72
					c1.68,0,3.108-0.307,4.284-0.924c1.176-0.616,1.987-1.147,2.436-1.596h0.84l3.36,3.36v1.68l-1.68,1.68
					c-0.84,0.84-2.171,1.61-3.99,2.31c-1.82,0.701-3.57,1.05-5.25,1.05H299.356z M299.356,32.623c-1.68,0-3.081,0.56-4.2,1.68
					c-1.121,1.121-1.68,2.52-1.68,4.2v2.52h16.8v-2.52c0-1.68-0.575-3.079-1.722-4.2c-1.148-1.12-2.562-1.68-4.242-1.68H299.356z"/>
			</g>
			<g>
				<path d="M343.036,25.063c1.903,0,3.667,0.35,5.292,1.05c1.624,0.701,3.037,1.652,4.242,2.856
					c1.203,1.205,2.155,2.619,2.855,4.242c0.7,1.625,1.051,3.389,1.051,5.292v26.04l-0.841,0.84h-5.88l-0.839-0.84v-26.04
					c0-1.68-0.575-3.079-1.722-4.2c-1.148-1.12-2.562-1.68-4.242-1.68h-2.436c-1.064,0-2.1,0.197-3.108,0.588
					c-1.008,0.392-1.904,0.966-2.688,1.722c-0.785,0.756-1.415,1.653-1.89,2.688c-0.477,1.037-0.714,2.171-0.714,3.402v23.52
					l-0.84,0.84h-5.88l-0.84-0.84v-38.64l0.84-0.84h1.68l3.444,3.612c1.344-1.12,2.814-2.001,4.41-2.646
					c1.596-0.643,3.457-0.966,5.586-0.966H343.036z"/>
			</g>
			<g>
				<path d="M364.034,56.143l0.84-0.84h8.4l0.84,0.84v8.4l-0.84,0.84h-8.4l-0.84-0.84V56.143z"/>
			</g>
			<g>
				<path d="M395.635,32.623c-1.289,0-2.493,0.252-3.612,0.756c-1.121,0.504-2.1,1.176-2.939,2.016
					c-0.841,0.84-1.499,1.82-1.975,2.94c-0.477,1.121-0.714,2.297-0.714,3.528v6.72c0,1.289,0.237,2.492,0.714,3.612
					c0.476,1.121,1.134,2.1,1.975,2.94c0.84,0.84,1.818,1.499,2.939,1.974c1.119,0.477,2.323,0.714,3.612,0.714h1.68
					c1.063,0,1.96-0.126,2.688-0.378c0.727-0.252,1.356-0.559,1.89-0.924c0.531-0.364,0.966-0.742,1.302-1.134
					c0.336-0.391,0.616-0.7,0.84-0.924h0.841l3.359,4.2v1.68l-1.68,1.68c-0.84,0.84-2.171,1.61-3.99,2.31
					c-1.82,0.701-3.57,1.05-5.25,1.05h-1.68c-2.297,0-4.467-0.448-6.51-1.344c-2.045-0.895-3.822-2.1-5.335-3.612
					c-1.512-1.512-2.717-3.289-3.611-5.334c-0.896-2.043-1.344-4.213-1.344-6.51v-6.72c0-2.295,0.447-4.465,1.344-6.51
					c0.895-2.044,2.1-3.822,3.611-5.334c1.513-1.512,3.29-2.716,5.335-3.612c2.043-0.895,4.213-1.344,6.51-1.344h1.68
					c1.68,0,3.43,0.35,5.25,1.05c1.819,0.701,3.15,1.47,3.99,2.31l1.68,1.68v1.68l-3.359,4.2h-0.841
					c-0.224-0.223-0.504-0.532-0.84-0.924c-0.336-0.391-0.771-0.769-1.302-1.134c-0.533-0.364-1.163-0.672-1.89-0.924
					c-0.729-0.252-1.625-0.378-2.688-0.378H395.635z"/>
			</g>
			<g>
				<path d="M431.754,25.063c1.903,0,3.667,0.35,5.292,1.05c1.624,0.701,3.037,1.652,4.242,2.856
					c1.203,1.205,2.155,2.619,2.855,4.242c0.7,1.625,1.051,3.389,1.051,5.292v26.04l-0.841,0.84h-5.88l-0.84-0.84v-26.04
					c0-1.68-0.575-3.079-1.722-4.2c-1.148-1.12-2.563-1.68-4.242-1.68h-2.436c-1.064,0-2.101,0.21-3.108,0.63
					s-1.904,1.008-2.688,1.764c-0.784,0.756-1.414,1.653-1.89,2.688c-0.477,1.037-0.714,2.142-0.714,3.318v23.52l-0.84,0.84h-5.88
					l-0.84-0.84v-52.08l0.84-0.84h5.88l0.84,0.84v12.6l-1.596,2.52l0.756,0.84l0.84-0.84c1.287-0.84,2.59-1.47,3.906-1.89
					c1.314-0.42,2.813-0.63,4.494-0.63H431.754z"/>
			</g>
		</g>
		<g>
			<g>
				<g>
					<path fill="#FFFFFF" d="M23.663,54.524c1.085,0.224,1.726,0.357,2.763,0.571c-0.139-1.306-0.07-2.482-0.413-3.522
						c-0.818-2.479-0.023-4.681,0.816-6.926c0.252-0.674,0.418-1.391,0.537-2.103c0.155-0.924,0.272-1.859,0.317-2.794
						c0.043-0.89,0.249-1.921-0.105-2.653c-0.79-1.63-0.506-3.098,0.092-4.63c0.744-1.905,1.486-3.81,2.217-5.719
						c0.479-1.249-0.038-2.201-1.355-2.555c-0.743-0.2-1.481-0.416-2.371-0.667c0.351-0.826,0.632-1.526,0.942-2.213
						c0.806-1.787,1.008-3.559,0.916-5.591c-0.097-2.132,0.552-4.432,2.517-6.035c1.402-1.144,2.573-2.572,3.96-3.989
						c0.195,0.201,0.547,0.521,0.848,0.882c1.057,1.266,2.362,2.036,4.046,1.985c1.421-0.043,2.258,0.612,2.701,1.941
						c0.485,1.453,1.642,2.12,2.932,2.905c1.373,0.835,2.286,2.437,3.377,3.724c1.162,1.372,1.179,2.775,0.813,4.597
						c-0.787,3.915-1.452,7.942-1.403,11.914c0.052,4.253,1.745,8.197,5.247,10.907c2.744,2.124,3.02,4.816,2.96,7.959
						c-0.041,2.123-1.031,3.265-2.42,4.551c-1.357,1.256-2.537,2.764-3.536,4.327c-1.029,1.61-2.055,3.119-3.674,4.222
						c-0.612,0.417-1.111,1.23-1.325,1.961c-0.741,2.534-2.19,4.453-4.474,5.756c-1.694,0.966-4.959-0.661-5.004-2.584
						c-0.071-3.05-1.35-5.164-4.326-6.095C26.392,63.126,25.522,58.687,23.663,54.524z"/>
				</g>
			</g>
		</g>
		<g>
			<g>
				<path d="M117.079,25.063c1.903,0,3.667,0.35,5.292,1.05c1.624,0.701,3.037,1.652,4.242,2.856
					c1.204,1.205,2.155,2.619,2.856,4.242c0.7,1.625,1.05,3.389,1.05,5.292v26.04l-0.84,0.84h-1.68l-3.36-3.36
					c-1.457,1.121-2.969,1.961-4.536,2.52c-1.568,0.56-3.416,0.84-5.544,0.84h-4.2c-1.68,0-3.234-0.294-4.662-0.882
					c-1.428-0.588-2.675-1.414-3.738-2.478c-1.064-1.063-1.89-2.31-2.478-3.738c-0.588-1.428-0.882-2.982-0.882-4.662
					c0-1.624,0.28-3.136,0.84-4.536c0.559-1.399,1.344-2.617,2.352-3.654c1.008-1.035,2.197-1.875,3.57-2.52
					c1.372-0.643,2.869-0.993,4.494-1.05h13.104v-3.36c0-1.68-0.561-3.079-1.68-4.2c-1.121-1.12-2.52-1.68-4.2-1.68h-5.04
					c-1.064,0-1.96,0.126-2.688,0.378c-0.728,0.252-1.358,0.56-1.89,0.924c-0.533,0.365-0.966,0.743-1.302,1.134
					c-0.336,0.393-0.617,0.701-0.84,0.924h-0.84l-3.36-4.2v-1.68l1.68-1.68c0.84-0.84,2.169-1.609,3.99-2.31
					c1.819-0.7,3.57-1.05,5.25-1.05H117.079z M110.275,49.423c-1.176,0-2.157,0.393-2.94,1.176
					c-0.785,0.785-1.176,1.821-1.176,3.108c0,1.176,0.378,2.156,1.134,2.94c0.756,0.785,1.75,1.176,2.982,1.176h4.284
					c2.52,0,4.549-0.769,6.09-2.31c1.54-1.54,2.31-3.57,2.31-6.09H110.275z"/>
			</g>
			<g>
				<path d="M145.386,64.333c-1.625-0.7-3.039-1.651-4.242-2.856c-1.205-1.204-2.156-2.617-2.856-4.242
					c-0.701-1.624-1.05-3.388-1.05-5.292v-37.8l5.04-2.52h1.68l0.84,0.84v39.48c0,1.68,0.56,3.081,1.68,4.2
					c1.12,1.121,2.52,1.68,4.2,1.68h4.2l0.84,0.84v5.88l-0.84,0.84h-4.2C148.773,65.383,147.01,65.034,145.386,64.333z"/>
			</g>
			<g>
				<path d="M175.038,65.383c-2.129,0-3.99-0.322-5.586-0.966c-1.596-0.643-3.066-1.525-4.41-2.646l-3.444,3.612h-1.68l-0.84-0.84
					v-52.08l0.84-0.84h5.88l0.84,0.84v12.6l-1.596,2.52l0.756,0.84l0.84-0.84c1.288-0.84,2.59-1.47,3.906-1.89
					c1.315-0.42,2.814-0.63,4.494-0.63h1.68c1.903,0,3.667,0.35,5.292,1.05c1.624,0.701,3.037,1.652,4.242,2.856
					c1.204,1.205,2.155,2.619,2.856,4.242c0.7,1.625,1.05,3.389,1.05,5.292v13.44c0,1.904-0.35,3.668-1.05,5.292
					c-0.701,1.625-1.652,3.039-2.856,4.242c-1.205,1.205-2.619,2.156-4.242,2.856c-1.625,0.701-3.389,1.05-5.292,1.05H175.038z
					 M175.038,32.623c-1.064,0-2.1,0.21-3.108,0.63c-1.008,0.42-1.904,1.008-2.688,1.764c-0.785,0.756-1.415,1.653-1.89,2.688
					c-0.477,1.037-0.714,2.142-0.714,3.318v8.4c0,1.289,0.238,2.436,0.714,3.444c0.475,1.008,1.105,1.89,1.89,2.646
					c0.784,0.756,1.68,1.331,2.688,1.722c1.008,0.393,2.044,0.588,3.108,0.588h1.596c1.68,0,3.094-0.559,4.242-1.68
					c1.147-1.119,1.722-2.52,1.722-4.2v-13.44c0-1.68-0.575-3.079-1.722-4.2c-1.148-1.12-2.562-1.68-4.242-1.68H175.038z"/>
			</g>
			<g>
				<path d="M211.997,25.063c1.903,0,3.667,0.35,5.292,1.05c1.624,0.701,3.037,1.652,4.242,2.856
					c1.204,1.205,2.155,2.619,2.856,4.242c0.7,1.625,1.05,3.389,1.05,5.292v26.04l-0.84,0.84h-1.68l-3.36-3.36
					c-1.457,1.121-2.969,1.961-4.536,2.52c-1.568,0.56-3.416,0.84-5.544,0.84h-4.2c-1.68,0-3.234-0.294-4.662-0.882
					c-1.428-0.588-2.675-1.414-3.738-2.478c-1.064-1.063-1.89-2.31-2.478-3.738c-0.588-1.428-0.882-2.982-0.882-4.662
					c0-1.624,0.28-3.136,0.84-4.536c0.559-1.399,1.344-2.617,2.352-3.654c1.008-1.035,2.197-1.875,3.57-2.52
					c1.372-0.643,2.869-0.993,4.494-1.05h13.104v-3.36c0-1.68-0.561-3.079-1.68-4.2c-1.121-1.12-2.52-1.68-4.2-1.68h-5.04
					c-1.064,0-1.96,0.126-2.688,0.378c-0.728,0.252-1.358,0.56-1.89,0.924c-0.533,0.365-0.966,0.743-1.302,1.134
					c-0.336,0.393-0.617,0.701-0.84,0.924h-0.84l-3.36-4.2v-1.68l1.68-1.68c0.84-0.84,2.169-1.609,3.99-2.31
					c1.819-0.7,3.57-1.05,5.25-1.05H211.997z M205.194,49.423c-1.176,0-2.157,0.393-2.94,1.176
					c-0.785,0.785-1.176,1.821-1.176,3.108c0,1.176,0.378,2.156,1.134,2.94c0.756,0.785,1.75,1.176,2.982,1.176h4.284
					c2.52,0,4.549-0.769,6.09-2.31c1.54-1.54,2.31-3.57,2.31-6.09H205.194z"/>
			</g>
			<g>
				<path d="M250.637,25.063c1.903,0,3.667,0.35,5.292,1.05c1.624,0.701,3.037,1.652,4.242,2.856
					c1.204,1.205,2.155,2.619,2.856,4.242c0.7,1.625,1.05,3.389,1.05,5.292v26.04l-0.84,0.84h-5.88l-0.84-0.84v-26.04
					c0-1.68-0.575-3.079-1.722-4.2c-1.148-1.12-2.562-1.68-4.242-1.68h-2.436c-1.064,0-2.1,0.197-3.108,0.588
					c-1.008,0.392-1.904,0.966-2.688,1.722c-0.785,0.756-1.415,1.653-1.89,2.688c-0.477,1.037-0.714,2.171-0.714,3.402v23.52
					l-0.84,0.84h-5.88l-0.84-0.84v-38.64l0.84-0.84h1.68l3.444,3.612c1.344-1.12,2.814-2.001,4.41-2.646
					c1.596-0.643,3.457-0.966,5.586-0.966H250.637z"/>
			</g>
			<g>
				<path d="M271.636,12.463l0.84-0.84h5.88l0.84,0.84v6.72l-0.84,0.84h-5.88l-0.84-0.84V12.463z M271.636,25.903l0.84-0.84h5.88
					l0.84,0.84v38.64l-0.84,0.84h-5.88l-0.84-0.84V25.903z"/>
			</g>
			<g>
				<path d="M299.356,65.383c-1.905,0-3.668-0.349-5.292-1.05c-1.625-0.7-3.039-1.651-4.242-2.856
					c-1.205-1.204-2.156-2.617-2.856-4.242c-0.701-1.624-1.05-3.388-1.05-5.292v-13.44c0-1.903,0.349-3.667,1.05-5.292
					c0.7-1.624,1.651-3.037,2.856-4.242c1.204-1.204,2.617-2.155,4.242-2.856c1.624-0.7,3.387-1.05,5.292-1.05h5.04
					c1.903,0,3.667,0.35,5.292,1.05c1.624,0.701,3.037,1.652,4.242,2.856c1.204,1.205,2.155,2.619,2.856,4.242
					c0.7,1.625,1.05,3.389,1.05,5.292v10.08h-24.36v3.36c0,1.68,0.56,3.081,1.68,4.2c1.12,1.121,2.52,1.68,4.2,1.68h6.72
					c1.68,0,3.108-0.307,4.284-0.924c1.176-0.616,1.987-1.147,2.436-1.596h0.84l3.36,3.36v1.68l-1.68,1.68
					c-0.84,0.84-2.171,1.61-3.99,2.31c-1.82,0.701-3.57,1.05-5.25,1.05H299.356z M299.356,32.623c-1.68,0-3.081,0.56-4.2,1.68
					c-1.121,1.121-1.68,2.52-1.68,4.2v2.52h16.8v-2.52c0-1.68-0.575-3.079-1.722-4.2c-1.148-1.12-2.562-1.68-4.242-1.68H299.356z"/>
			</g>
			<g>
				<path d="M343.036,25.063c1.903,0,3.667,0.35,5.292,1.05c1.624,0.701,3.037,1.652,4.242,2.856
					c1.203,1.205,2.155,2.619,2.855,4.242c0.7,1.625,1.051,3.389,1.051,5.292v26.04l-0.841,0.84h-5.88l-0.839-0.84v-26.04
					c0-1.68-0.575-3.079-1.722-4.2c-1.148-1.12-2.562-1.68-4.242-1.68h-2.436c-1.064,0-2.1,0.197-3.108,0.588
					c-1.008,0.392-1.904,0.966-2.688,1.722c-0.785,0.756-1.415,1.653-1.89,2.688c-0.477,1.037-0.714,2.171-0.714,3.402v23.52
					l-0.84,0.84h-5.88l-0.84-0.84v-38.64l0.84-0.84h1.68l3.444,3.612c1.344-1.12,2.814-2.001,4.41-2.646
					c1.596-0.643,3.457-0.966,5.586-0.966H343.036z"/>
			</g>
			<g>
				<path d="M364.034,56.143l0.84-0.84h8.4l0.84,0.84v8.4l-0.84,0.84h-8.4l-0.84-0.84V56.143z"/>
			</g>
			<g>
				<path d="M395.635,32.623c-1.289,0-2.493,0.252-3.612,0.756c-1.121,0.504-2.1,1.176-2.939,2.016
					c-0.841,0.84-1.499,1.82-1.975,2.94c-0.477,1.121-0.714,2.297-0.714,3.528v6.72c0,1.289,0.237,2.492,0.714,3.612
					c0.476,1.121,1.134,2.1,1.975,2.94c0.84,0.84,1.818,1.499,2.939,1.974c1.119,0.477,2.323,0.714,3.612,0.714h1.68
					c1.063,0,1.96-0.126,2.688-0.378c0.727-0.252,1.356-0.559,1.89-0.924c0.531-0.364,0.966-0.742,1.302-1.134
					c0.336-0.391,0.616-0.7,0.84-0.924h0.841l3.359,4.2v1.68l-1.68,1.68c-0.84,0.84-2.171,1.61-3.99,2.31
					c-1.82,0.701-3.57,1.05-5.25,1.05h-1.68c-2.297,0-4.467-0.448-6.51-1.344c-2.045-0.895-3.822-2.1-5.335-3.612
					c-1.512-1.512-2.717-3.289-3.611-5.334c-0.896-2.043-1.344-4.213-1.344-6.51v-6.72c0-2.295,0.447-4.465,1.344-6.51
					c0.895-2.044,2.1-3.822,3.611-5.334c1.513-1.512,3.29-2.716,5.335-3.612c2.043-0.895,4.213-1.344,6.51-1.344h1.68
					c1.68,0,3.43,0.35,5.25,1.05c1.819,0.701,3.15,1.47,3.99,2.31l1.68,1.68v1.68l-3.359,4.2h-0.841
					c-0.224-0.223-0.504-0.532-0.84-0.924c-0.336-0.391-0.771-0.769-1.302-1.134c-0.533-0.364-1.163-0.672-1.89-0.924
					c-0.729-0.252-1.625-0.378-2.688-0.378H395.635z"/>
			</g>
			<g>
				<path d="M431.754,25.063c1.903,0,3.667,0.35,5.292,1.05c1.624,0.701,3.037,1.652,4.242,2.856
					c1.203,1.205,2.155,2.619,2.855,4.242c0.7,1.625,1.051,3.389,1.051,5.292v26.04l-0.841,0.84h-5.88l-0.84-0.84v-26.04
					c0-1.68-0.575-3.079-1.722-4.2c-1.148-1.12-2.563-1.68-4.242-1.68h-2.436c-1.064,0-2.101,0.21-3.108,0.63
					s-1.904,1.008-2.688,1.764c-0.784,0.756-1.414,1.653-1.89,2.688c-0.477,1.037-0.714,2.142-0.714,3.318v23.52l-0.84,0.84h-5.88
					l-0.84-0.84v-52.08l0.84-0.84h5.88l0.84,0.84v12.6l-1.596,2.52l0.756,0.84l0.84-0.84c1.287-0.84,2.59-1.47,3.906-1.89
					c1.314-0.42,2.813-0.63,4.494-0.63H431.754z"/>
			</g>
		</g>
		<g>
			<g>
				<path fill="none" d="M21.708,50.057c-0.015-0.269-0.013-0.531-0.009-0.792h-3.824L21.708,50.057z"/>
			</g>
			<g>
				<path fill="#FFFFFF" d="M17.876,49.266h3.824c0.037-2.339,0.793-4.381,1.403-6.013c0.135-0.36,0.246-0.808,0.34-1.368
					c0.146-0.869,0.233-1.63,0.266-2.326c0.012-0.245,0.032-0.498,0.054-0.754c0.011-0.123,0.024-0.284,0.033-0.417
					c-1.256-2.977-0.517-5.613,0.167-7.367c0.117-0.299,0.233-0.598,0.349-0.897H8.514v19.142h8.445l-0.093-0.208L17.876,49.266z"/>
			</g>
			<g>
				<path fill="#FFFFFF" d="M71.172,30.006H51.949c-0.11,1.203-0.175,2.409-0.16,3.591c0.028,2.276,0.693,5.479,3.704,7.809
					c3.033,2.348,4.042,5.262,4.366,7.742h11.315V30.006z"/>
			</g>
		</g>
	</g>
	<g>
		<path fill="#E41E20" d="M341.187,100.42v-27.9l0.45-0.45h16.2l0.45,0.45v2.25l-0.45,0.45h-13.5v9.45h11.7l0.45,0.45v2.25
			l-0.45,0.45h-11.7v12.6l-0.45,0.45h-2.25L341.187,100.42z"/>
		<path fill="#E41E20" d="M358.692,88.27c0-1.229,0.24-2.392,0.72-3.487c0.479-1.095,1.125-2.047,1.936-2.857
			c0.81-0.81,1.762-1.455,2.857-1.935c1.095-0.479,2.257-0.72,3.487-0.72c1.229,0,2.392,0.241,3.487,0.72
			c1.095,0.48,2.048,1.125,2.857,1.935c0.811,0.81,1.455,1.763,1.936,2.857c0.479,1.095,0.72,2.258,0.72,3.487v3.6
			c0,1.23-0.24,2.393-0.72,3.487c-0.48,1.096-1.125,2.048-1.936,2.858c-0.81,0.81-1.763,1.455-2.857,1.935
			c-1.096,0.48-2.258,0.72-3.487,0.72c-1.23,0-2.393-0.24-3.487-0.72c-1.096-0.479-2.048-1.125-2.857-1.935
			c-0.811-0.81-1.456-1.762-1.936-2.858c-0.479-1.095-0.72-2.257-0.72-3.487V88.27z M361.842,91.87c0,0.78,0.157,1.523,0.472,2.228
			c0.315,0.705,0.743,1.328,1.283,1.868c0.54,0.54,1.162,0.967,1.867,1.282c0.704,0.315,1.447,0.473,2.228,0.473
			c0.779,0,1.522-0.158,2.228-0.473c0.704-0.315,1.327-0.743,1.867-1.282c0.54-0.54,0.968-1.163,1.283-1.868
			c0.314-0.705,0.472-1.447,0.472-2.228v-3.6c0-0.78-0.157-1.522-0.472-2.228c-0.315-0.705-0.743-1.327-1.283-1.867
			s-1.163-0.968-1.867-1.283c-0.705-0.315-1.448-0.473-2.228-0.473c-0.78,0-1.523,0.158-2.228,0.473
			c-0.705,0.315-1.327,0.743-1.867,1.283s-0.968,1.163-1.283,1.867c-0.314,0.706-0.472,1.448-0.472,2.228V91.87z"/>
		<path fill="#E41E20" d="M387.358,82.466c-0.45,0-0.894,0.105-1.328,0.315c-0.435,0.21-0.817,0.48-1.147,0.81
			s-0.601,0.713-0.81,1.147c-0.211,0.435-0.315,0.877-0.315,1.327v14.355l-0.45,0.45h-2.25l-0.449-0.45v-20.7l0.449-0.45h0.9
			l0.81,1.98c0.66-0.6,1.41-1.08,2.25-1.44s1.771-0.54,2.79-0.54h1.351l0.45,0.45v2.295l-0.45,0.45H387.358z"/>
		<path fill="#E41E20" d="M405.221,79.721l0.45-0.45h2.25l0.45,0.45v20.7l-0.45,0.45h-0.9l-1.755-2.205
			c-0.78,0.69-1.673,1.23-2.678,1.62c-1.005,0.39-2.077,0.585-3.217,0.585h-0.45c-1.021,0-1.966-0.187-2.835-0.563
			c-0.871-0.375-1.628-0.885-2.272-1.53c-0.646-0.645-1.155-1.402-1.53-2.273c-0.375-0.87-0.563-1.814-0.563-2.835v-13.95l0.45-0.45
			h2.25l0.45,0.45v13.95c0,1.141,0.389,2.101,1.17,2.88c0.779,0.78,1.739,1.17,2.88,1.17h0.45c0.779,0,1.514-0.15,2.205-0.45
			c0.689-0.299,1.297-0.712,1.822-1.237c0.524-0.524,0.952-1.125,1.282-1.8c0.33-0.675,0.51-1.387,0.54-2.137V79.721z"/>
		<path fill="#E41E20" d="M442.436,100.42l-0.45,0.45h-2.25l-0.45-0.45v-13.95c0-1.14-0.391-2.1-1.17-2.88
			c-0.78-0.78-1.74-1.17-2.88-1.17c-0.78,0-1.523,0.158-2.228,0.473c-0.705,0.315-1.328,0.743-1.867,1.283
			c-0.54,0.54-0.968,1.163-1.283,1.867c-0.314,0.706-0.473,1.448-0.473,2.228v12.15l-0.449,0.45h-2.25l-0.45-0.45v-13.95
			c0-1.14-0.391-2.1-1.17-2.88c-0.78-0.78-1.74-1.17-2.88-1.17c-0.781,0-1.523,0.158-2.228,0.473
			c-0.706,0.315-1.328,0.728-1.868,1.237c-0.54,0.511-0.967,1.11-1.282,1.8c-0.315,0.69-0.473,1.395-0.473,2.115v12.375l-0.45,0.45
			h-2.25l-0.449-0.45v-20.7l0.449-0.45h0.9l1.755,2.205c0.78-0.69,1.672-1.23,2.678-1.62c1.005-0.389,2.077-0.585,3.218-0.585
			c1.35,0,2.489,0.3,3.42,0.9c0.93,0.601,1.739,1.35,2.43,2.25h0.45c0.689-0.9,1.649-1.649,2.88-2.25c1.229-0.6,2.52-0.9,3.87-0.9
			c1.02,0,1.964,0.188,2.835,0.563c0.869,0.375,1.627,0.885,2.272,1.53c0.645,0.646,1.154,1.402,1.53,2.272
			c0.374,0.87,0.563,1.815,0.563,2.835V100.42z"/>
	</g>
</g>
</svg>
