<?xml version="1.0" encoding="utf-8"?>
<!-- Generator: Adobe Illustrator 17.0.0, SVG Export Plug-In . SVG Version: 6.00 Build 0)  -->
<!DOCTYPE svg PUBLIC "-//W3C//DTD SVG 1.1//EN" "http://www.w3.org/Graphics/SVG/1.1/DTD/svg11.dtd">
<svg version="1.1" id="Layer_1" xmlns="http://www.w3.org/2000/svg" xmlns:xlink="http://www.w3.org/1999/xlink" x="0px" y="0px"
	 width="445.195px" height="97.031px" viewBox="0 0 445.195 97.031" enable-background="new 0 0 445.195 97.031"
	 xml:space="preserve">
<g>
	<g>
		<g>
			<rect x="0" y="0" fill="#E41E20" width="79.272" height="79.272"/>
		</g>
		<g>
			<g>
				<path d="M117.079,25.063c1.903,0,3.667,0.35,5.292,1.05c1.624,0.701,3.037,1.652,4.242,2.856
					c1.204,1.205,2.155,2.619,2.856,4.242c0.7,1.625,1.05,3.389,1.05,5.292v26.04l-0.84,0.84h-1.68l-3.36-3.36
					c-1.457,1.121-2.969,1.961-4.536,2.52c-1.568,0.56-3.416,0.84-5.544,0.84h-4.2c-1.68,0-3.234-0.294-4.662-0.882
					c-1.428-0.588-2.675-1.414-3.738-2.478c-1.064-1.063-1.89-2.31-2.478-3.738c-0.588-1.428-0.882-2.982-0.882-4.662
					c0-1.624,0.28-3.136,0.84-4.536c0.559-1.399,1.344-2.617,2.352-3.654c1.008-1.035,2.197-1.875,3.57-2.52
					c1.372-0.643,2.869-0.993,4.494-1.05h13.104v-3.36c0-1.68-0.561-3.079-1.68-4.2c-1.121-1.12-2.52-1.68-4.2-1.68h-5.04
					c-1.064,0-1.96,0.126-2.688,0.378c-0.728,0.252-1.358,0.56-1.89,0.924c-0.533,0.365-0.966,0.743-1.302,1.134
					c-0.336,0.393-0.617,0.701-0.84,0.924h-0.84l-3.36-4.2v-1.68l1.68-1.68c0.84-0.84,2.169-1.609,3.99-2.31
					c1.819-0.7,3.57-1.05,5.25-1.05H117.079z M110.275,49.423c-1.176,0-2.157,0.393-2.94,1.176
					c-0.785,0.785-1.176,1.821-1.176,3.108c0,1.176,0.378,2.156,1.134,2.94c0.756,0.785,1.75,1.176,2.982,1.176h4.284
					c2.52,0,4.549-0.769,6.09-2.31c1.54-1.54,2.31-3.57,2.31-6.09H110.275z"/>
			</g>
			<g>
				<path d="M145.386,64.333c-1.625-0.7-3.039-1.651-4.242-2.856c-1.205-1.204-2.156-2.617-2.856-4.242
					c-0.701-1.624-1.05-3.388-1.05-5.292v-37.8l5.04-2.52h1.68l0.84,0.84v39.48c0,1.68,0.56,3.081,1.68,4.2
					c1.12,1.121,2.52,1.68,4.2,1.68h4.2l0.84,0.84v5.88l-0.84,0.84h-4.2C148.773,65.383,147.01,65.034,145.386,64.333z"/>
			</g>
			<g>
				<path d="M175.038,65.383c-2.129,0-3.99-0.322-5.586-0.966c-1.596-0.643-3.066-1.525-4.41-2.646l-3.444,3.612h-1.68l-0.84-0.84
					v-52.08l0.84-0.84h5.88l0.84,0.84v12.6l-1.596,2.52l0.756,0.84l0.84-0.84c1.288-0.84,2.59-1.47,3.906-1.89
					c1.315-0.42,2.814-0.63,4.494-0.63h1.68c1.903,0,3.667,0.35,5.292,1.05c1.624,0.701,3.037,1.652,4.242,2.856
					c1.204,1.205,2.155,2.619,2.856,4.242c0.7,1.625,1.05,3.389,1.05,5.292v13.44c0,1.904-0.35,3.668-1.05,5.292
					c-0.701,1.625-1.652,3.039-2.856,4.242c-1.205,1.205-2.619,2.156-4.242,2.856c-1.625,0.701-3.389,1.05-5.292,1.05H175.038z
					 M175.038,32.623c-1.064,0-2.1,0.21-3.108,0.63c-1.008,0.42-1.904,1.008-2.688,1.764c-0.785,0.756-1.415,1.653-1.89,2.688
					c-0.477,1.037-0.714,2.142-0.714,3.318v8.4c0,1.289,0.238,2.436,0.714,3.444c0.475,1.008,1.105,1.89,1.89,2.646
					c0.784,0.756,1.68,1.331,2.688,1.722c1.008,0.393,2.044,0.588,3.108,0.588h1.596c1.68,0,3.094-0.559,4.242-1.68
					c1.147-1.119,1.722-2.52,1.722-4.2v-13.44c0-1.68-0.575-3.079-1.722-4.2c-1.148-1.12-2.562-1.68-4.242-1.68H175.038z"/>
			</g>
			<g>
				<path d="M211.997,25.063c1.903,0,3.667,0.35,5.292,1.05c1.624,0.701,3.037,1.652,4.242,2.856
					c1.204,1.205,2.155,2.619,2.856,4.242c0.7,1.625,1.05,3.389,1.05,5.292v26.04l-0.84,0.84h-1.68l-3.36-3.36
					c-1.457,1.121-2.969,1.961-4.536,2.52c-1.568,0.56-3.416,0.84-5.544,0.84h-4.2c-1.68,0-3.234-0.294-4.662-0.882
					c-1.428-0.588-2.675-1.414-3.738-2.478c-1.064-1.063-1.89-2.31-2.478-3.738c-0.588-1.428-0.882-2.982-0.882-4.662
					c0-1.624,0.28-3.136,0.84-4.536c0.559-1.399,1.344-2.617,2.352-3.654c1.008-1.035,2.197-1.875,3.57-2.52
					c1.372-0.643,2.869-0.993,4.494-1.05h13.104v-3.36c0-1.68-0.561-3.079-1.68-4.2c-1.121-1.12-2.52-1.68-4.2-1.68h-5.04
					c-1.064,0-1.96,0.126-2.688,0.378c-0.728,0.252-1.358,0.56-1.89,0.924c-0.533,0.365-0.966,0.743-1.302,1.134
					c-0.336,0.393-0.617,0.701-0.84,0.924h-0.84l-3.36-4.2v-1.68l1.68-1.68c0.84-0.84,2.169-1.609,3.99-2.31
					c1.819-0.7,3.57-1.05,5.25-1.05H211.997z M205.194,49.423c-1.176,0-2.157,0.393-2.94,1.176
					c-0.785,0.785-1.176,1.821-1.176,3.108c0,1.176,0.378,2.156,1.134,2.94c0.756,0.785,1.75,1.176,2.982,1.176h4.284
					c2.52,0,4.549-0.769,6.09-2.31c1.54-1.54,2.31-3.57,2.31-6.09H205.194z"/>
			</g>
			<g>
				<path d="M250.637,25.063c1.903,0,3.667,0.35,5.292,1.05c1.624,0.701,3.037,1.652,4.242,2.856
					c1.204,1.205,2.155,2.619,2.856,4.242c0.7,1.625,1.05,3.389,1.05,5.292v26.04l-0.84,0.84h-5.88l-0.84-0.84v-26.04
					c0-1.68-0.575-3.079-1.722-4.2c-1.148-1.12-2.562-1.68-4.242-1.68h-2.436c-1.064,0-2.1,0.197-3.108,0.588
					c-1.008,0.392-1.904,0.966-2.688,1.722c-0.785,0.756-1.415,1.653-1.89,2.688c-0.477,1.037-0.714,2.171-0.714,3.402v23.52
					l-0.84,0.84h-5.88l-0.84-0.84v-38.64l0.84-0.84h1.68l3.444,3.612c1.344-1.12,2.814-2.001,4.41-2.646
					c1.596-0.643,3.457-0.966,5.586-0.966H250.637z"/>
			</g>
			<g>
				<path d="M271.636,12.463l0.84-0.84h5.88l0.84,0.84v6.72l-0.84,0.84h-5.88l-0.84-0.84V12.463z M271.636,25.903l0.84-0.84h5.88
					l0.84,0.84v38.64l-0.84,0.84h-5.88l-0.84-0.84V25.903z"/>
			</g>
			<g>
				<path d="M299.356,65.383c-1.905,0-3.668-0.349-5.292-1.05c-1.625-0.7-3.039-1.651-4.242-2.856
					c-1.205-1.204-2.156-2.617-2.856-4.242c-0.701-1.624-1.05-3.388-1.05-5.292v-13.44c0-1.903,0.349-3.667,1.05-5.292
					c0.7-1.624,1.651-3.037,2.856-4.242c1.204-1.204,2.617-2.155,4.242-2.856c1.624-0.7,3.387-1.05,5.292-1.05h5.04
					c1.903,0,3.667,0.35,5.292,1.05c1.624,0.701,3.037,1.652,4.242,2.856c1.204,1.205,2.155,2.619,2.856,4.242
					c0.7,1.625,1.05,3.389,1.05,5.292v10.08h-24.36v3.36c0,1.68,0.56,3.081,1.68,4.2c1.12,1.121,2.52,1.68,4.2,1.68h6.72
					c1.68,0,3.108-0.307,4.284-0.924c1.176-0.616,1.987-1.147,2.436-1.596h0.84l3.36,3.36v1.68l-1.68,1.68
					c-0.84,0.84-2.171,1.61-3.99,2.31c-1.82,0.701-3.57,1.05-5.25,1.05H299.356z M299.356,32.623c-1.68,0-3.081,0.56-4.2,1.68
					c-1.121,1.121-1.68,2.52-1.68,4.2v2.52h16.8v-2.52c0-1.68-0.575-3.079-1.722-4.2c-1.148-1.12-2.562-1.68-4.242-1.68H299.356z"/>
			</g>
			<g>
				<path d="M343.036,25.063c1.903,0,3.667,0.35,5.292,1.05c1.624,0.701,3.037,1.652,4.242,2.856
					c1.203,1.205,2.155,2.619,2.855,4.242c0.7,1.625,1.051,3.389,1.051,5.292v26.04l-0.841,0.84h-5.88l-0.839-0.84v-26.04
					c0-1.68-0.575-3.079-1.722-4.2c-1.148-1.12-2.562-1.68-4.242-1.68h-2.436c-1.064,0-2.1,0.197-3.108,0.588
					c-1.008,0.392-1.904,0.966-2.688,1.722c-0.785,0.756-1.415,1.653-1.89,2.688c-0.477,1.037-0.714,2.171-0.714,3.402v23.52
					l-0.84,0.84h-5.88l-0.84-0.84v-38.64l0.84-0.84h1.68l3.444,3.612c1.344-1.12,2.814-2.001,4.41-2.646
					c1.596-0.643,3.457-0.966,5.586-0.966H343.036z"/>
			</g>
			<g>
				<path d="M364.034,56.143l0.84-0.84h8.4l0.84,0.84v8.4l-0.84,0.84h-8.4l-0.84-0.84V56.143z"/>
			</g>
			<g>
				<path d="M395.635,32.623c-1.289,0-2.493,0.252-3.612,0.756c-1.121,0.504-2.1,1.176-2.939,2.016
					c-0.841,0.84-1.499,1.82-1.975,2.94c-0.477,1.121-0.714,2.297-0.714,3.528v6.72c0,1.289,0.237,2.492,0.714,3.612
					c0.476,1.121,1.134,2.1,1.975,2.94c0.84,0.84,1.818,1.499,2.939,1.974c1.119,0.477,2.323,0.714,3.612,0.714h1.68
					c1.063,0,1.96-0.126,2.688-0.378c0.727-0.252,1.356-0.559,1.89-0.924c0.531-0.364,0.966-0.742,1.302-1.134
					c0.336-0.391,0.616-0.7,0.84-0.924h0.841l3.359,4.2v1.68l-1.68,1.68c-0.84,0.84-2.171,1.61-3.99,2.31
					c-1.82,0.701-3.57,1.05-5.25,1.05h-1.68c-2.297,0-4.467-0.448-6.51-1.344c-2.045-0.895-3.822-2.1-5.335-3.612
					c-1.512-1.512-2.717-3.289-3.611-5.334c-0.896-2.043-1.344-4.213-1.344-6.51v-6.72c0-2.295,0.447-4.465,1.344-6.51
					c0.895-2.044,2.1-3.822,3.611-5.334c1.513-1.512,3.29-2.716,5.335-3.612c2.043-0.895,4.213-1.344,6.51-1.344h1.68
					c1.68,0,3.43,0.35,5.25,1.05c1.819,0.701,3.15,1.47,3.99,2.31l1.68,1.68v1.68l-3.359,4.2h-0.841
					c-0.224-0.223-0.504-0.532-0.84-0.924c-0.336-0.391-0.771-0.769-1.302-1.134c-0.533-0.364-1.163-0.672-1.89-0.924
					c-0.729-0.252-1.625-0.378-2.688-0.378H395.635z"/>
			</g>
			<g>
				<path d="M431.754,25.063c1.903,0,3.667,0.35,5.292,1.05c1.624,0.701,3.037,1.652,4.242,2.856
					c1.203,1.205,2.155,2.619,2.855,4.242c0.7,1.625,1.051,3.389,1.051,5.292v26.04l-0.841,0.84h-5.88l-0.84-0.84v-26.04
					c0-1.68-0.575-3.079-1.722-4.2c-1.148-1.12-2.563-1.68-4.242-1.68h-2.436c-1.064,0-2.101,0.21-3.108,0.63
					s-1.904,1.008-2.688,1.764c-0.784,0.756-1.414,1.653-1.89,2.688c-0.477,1.037-0.714,2.142-0.714,3.318v23.52l-0.84,0.84h-5.88
					l-0.84-0.84v-52.08l0.84-0.84h5.88l0.84,0.84v12.6l-1.596,2.52l0.756,0.84l0.84-0.84c1.287-0.84,2.59-1.47,3.906-1.89
					c1.314-0.42,2.813-0.63,4.494-0.63H431.754z"/>
			</g>
		</g>
		<g>
			<g>
				<g>
					<path fill="#FFFFFF" d="M23.663,54.524c1.085,0.224,1.726,0.357,2.763,0.571c-0.139-1.306-0.07-2.482-0.413-3.522
						c-0.818-2.479-0.023-4.681,0.816-6.926c0.252-0.674,0.418-1.391,0.537-2.103c0.155-0.924,0.272-1.859,0.317-2.794
						c0.043-0.89,0.249-1.921-0.105-2.653c-0.79-1.63-0.506-3.098,0.092-4.63c0.744-1.905,1.486-3.81,2.217-5.719
						c0.479-1.249-0.038-2.201-1.355-2.555c-0.743-0.2-1.481-0.416-2.371-0.667c0.351-0.826,0.632-1.526,0.942-2.213
						c0.806-1.787,1.008-3.559,0.916-5.591c-0.097-2.132,0.552-4.432,2.517-6.035c1.402-1.144,2.573-2.572,3.96-3.989
						c0.195,0.201,0.547,0.521,0.848,0.882c1.057,1.266,2.362,2.036,4.046,1.985c1.421-0.043,2.258,0.612,2.701,1.941
						c0.485,1.453,1.642,2.12,2.932,2.905c1.373,0.835,2.286,2.437,3.377,3.724c1.162,1.372,1.179,2.775,0.813,4.597
						c-0.787,3.915-1.452,7.942-1.403,11.914c0.052,4.253,1.745,8.197,5.247,10.907c2.744,2.124,3.02,4.816,2.96,7.959
						c-0.041,2.123-1.031,3.265-2.42,4.551c-1.357,1.256-2.537,2.764-3.536,4.327c-1.029,1.61-2.055,3.119-3.674,4.222
						c-0.612,0.417-1.111,1.23-1.325,1.961c-0.741,2.534-2.19,4.453-4.474,5.756c-1.694,0.966-4.959-0.661-5.004-2.584
						c-0.071-3.05-1.35-5.164-4.326-6.095C26.392,63.126,25.522,58.687,23.663,54.524z"/>
				</g>
			</g>
		</g>
		<g>
			<g>
				<path d="M117.079,25.063c1.903,0,3.667,0.35,5.292,1.05c1.624,0.701,3.037,1.652,4.242,2.856
					c1.204,1.205,2.155,2.619,2.856,4.242c0.7,1.625,1.05,3.389,1.05,5.292v26.04l-0.84,0.84h-1.68l-3.36-3.36
					c-1.457,1.121-2.969,1.961-4.536,2.52c-1.568,0.56-3.416,0.84-5.544,0.84h-4.2c-1.68,0-3.234-0.294-4.662-0.882
					c-1.428-0.588-2.675-1.414-3.738-2.478c-1.064-1.063-1.89-2.31-2.478-3.738c-0.588-1.428-0.882-2.982-0.882-4.662
					c0-1.624,0.28-3.136,0.84-4.536c0.559-1.399,1.344-2.617,2.352-3.654c1.008-1.035,2.197-1.875,3.57-2.52
					c1.372-0.643,2.869-0.993,4.494-1.05h13.104v-3.36c0-1.68-0.561-3.079-1.68-4.2c-1.121-1.12-2.52-1.68-4.2-1.68h-5.04
					c-1.064,0-1.96,0.126-2.688,0.378c-0.728,0.252-1.358,0.56-1.89,0.924c-0.533,0.365-0.966,0.743-1.302,1.134
					c-0.336,0.393-0.617,0.701-0.84,0.924h-0.84l-3.36-4.2v-1.68l1.68-1.68c0.84-0.84,2.169-1.609,3.99-2.31
					c1.819-0.7,3.57-1.05,5.25-1.05H117.079z M110.275,49.423c-1.176,0-2.157,0.393-2.94,1.176
					c-0.785,0.785-1.176,1.821-1.176,3.108c0,1.176,0.378,2.156,1.134,2.94c0.756,0.785,1.75,1.176,2.982,1.176h4.284
					c2.52,0,4.549-0.769,6.09-2.31c1.54-1.54,2.31-3.57,2.31-6.09H110.275z"/>
			</g>
			<g>
				<path d="M145.386,64.333c-1.625-0.7-3.039-1.651-4.242-2.856c-1.205-1.204-2.156-2.617-2.856-4.242
					c-0.701-1.624-1.05-3.388-1.05-5.292v-37.8l5.04-2.52h1.68l0.84,0.84v39.48c0,1.68,0.56,3.081,1.68,4.2
					c1.12,1.121,2.52,1.68,4.2,1.68h4.2l0.84,0.84v5.88l-0.84,0.84h-4.2C148.773,65.383,147.01,65.034,145.386,64.333z"/>
			</g>
			<g>
				<path d="M175.038,65.383c-2.129,0-3.99-0.322-5.586-0.966c-1.596-0.643-3.066-1.525-4.41-2.646l-3.444,3.612h-1.68l-0.84-0.84
					v-52.08l0.84-0.84h5.88l0.84,0.84v12.6l-1.596,2.52l0.756,0.84l0.84-0.84c1.288-0.84,2.59-1.47,3.906-1.89
					c1.315-0.42,2.814-0.63,4.494-0.63h1.68c1.903,0,3.667,0.35,5.292,1.05c1.624,0.701,3.037,1.652,4.242,2.856
					c1.204,1.205,2.155,2.619,2.856,4.242c0.7,1.625,1.05,3.389,1.05,5.292v13.44c0,1.904-0.35,3.668-1.05,5.292
					c-0.701,1.625-1.652,3.039-2.856,4.242c-1.205,1.205-2.619,2.156-4.242,2.856c-1.625,0.701-3.389,1.05-5.292,1.05H175.038z
					 M175.038,32.623c-1.064,0-2.1,0.21-3.108,0.63c-1.008,0.42-1.904,1.008-2.688,1.764c-0.785,0.756-1.415,1.653-1.89,2.688
					c-0.477,1.037-0.714,2.142-0.714,3.318v8.4c0,1.289,0.238,2.436,0.714,3.444c0.475,1.008,1.105,1.89,1.89,2.646
					c0.784,0.756,1.68,1.331,2.688,1.722c1.008,0.393,2.044,0.588,3.108,0.588h1.596c1.68,0,3.094-0.559,4.242-1.68
					c1.147-1.119,1.722-2.52,1.722-4.2v-13.44c0-1.68-0.575-3.079-1.722-4.2c-1.148-1.12-2.562-1.68-4.242-1.68H175.038z"/>
			</g>
			<g>
				<path d="M211.997,25.063c1.903,0,3.667,0.35,5.292,1.05c1.624,0.701,3.037,1.652,4.242,2.856
					c1.204,1.205,2.155,2.619,2.856,4.242c0.7,1.625,1.05,3.389,1.05,5.292v26.04l-0.84,0.84h-1.68l-3.36-3.36
					c-1.457,1.121-2.969,1.961-4.536,2.52c-1.568,0.56-3.416,0.84-5.544,0.84h-4.2c-1.68,0-3.234-0.294-4.662-0.882
					c-1.428-0.588-2.675-1.414-3.738-2.478c-1.064-1.063-1.89-2.31-2.478-3.738c-0.588-1.428-0.882-2.982-0.882-4.662
					c0-1.624,0.28-3.136,0.84-4.536c0.559-1.399,1.344-2.617,2.352-3.654c1.008-1.035,2.197-1.875,3.57-2.52
					c1.372-0.643,2.869-0.993,4.494-1.05h13.104v-3.36c0-1.68-0.561-3.079-1.68-4.2c-1.121-1.12-2.52-1.68-4.2-1.68h-5.04
					c-1.064,0-1.96,0.126-2.688,0.378c-0.728,0.252-1.358,0.56-1.89,0.924c-0.533,0.365-0.966,0.743-1.302,1.134
					c-0.336,0.393-0.617,0.701-0.84,0.924h-0.84l-3.36-4.2v-1.68l1.68-1.68c0.84-0.84,2.169-1.609,3.99-2.31
					c1.819-0.7,3.57-1.05,5.25-1.05H211.997z M205.194,49.423c-1.176,0-2.157,0.393-2.94,1.176
					c-0.785,0.785-1.176,1.821-1.176,3.108c0,1.176,0.378,2.156,1.134,2.94c0.756,0.785,1.75,1.176,2.982,1.176h4.284
					c2.52,0,4.549-0.769,6.09-2.31c1.54-1.54,2.31-3.57,2.31-6.09H205.194z"/>
			</g>
			<g>
				<path d="M250.637,25.063c1.903,0,3.667,0.35,5.292,1.05c1.624,0.701,3.037,1.652,4.242,2.856
					c1.204,1.205,2.155,2.619,2.856,4.242c0.7,1.625,1.05,3.389,1.05,5.292v26.04l-0.84,0.84h-5.88l-0.84-0.84v-26.04
					c0-1.68-0.575-3.079-1.722-4.2c-1.148-1.12-2.562-1.68-4.242-1.68h-2.436c-1.064,0-2.1,0.197-3.108,0.588
					c-1.008,0.392-1.904,0.966-2.688,1.722c-0.785,0.756-1.415,1.653-1.89,2.688c-0.477,1.037-0.714,2.171-0.714,3.402v23.52
					l-0.84,0.84h-5.88l-0.84-0.84v-38.64l0.84-0.84h1.68l3.444,3.612c1.344-1.12,2.814-2.001,4.41-2.646
					c1.596-0.643,3.457-0.966,5.586-0.966H250.637z"/>
			</g>
			<g>
				<path d="M271.636,12.463l0.84-0.84h5.88l0.84,0.84v6.72l-0.84,0.84h-5.88l-0.84-0.84V12.463z M271.636,25.903l0.84-0.84h5.88
					l0.84,0.84v38.64l-0.84,0.84h-5.88l-0.84-0.84V25.903z"/>
			</g>
			<g>
				<path d="M299.356,65.383c-1.905,0-3.668-0.349-5.292-1.05c-1.625-0.7-3.039-1.651-4.242-2.856
					c-1.205-1.204-2.156-2.617-2.856-4.242c-0.701-1.624-1.05-3.388-1.05-5.292v-13.44c0-1.903,0.349-3.667,1.05-5.292
					c0.7-1.624,1.651-3.037,2.856-4.242c1.204-1.204,2.617-2.155,4.242-2.856c1.624-0.7,3.387-1.05,5.292-1.05h5.04
					c1.903,0,3.667,0.35,5.292,1.05c1.624,0.701,3.037,1.652,4.242,2.856c1.204,1.205,2.155,2.619,2.856,4.242
					c0.7,1.625,1.05,3.389,1.05,5.292v10.08h-24.36v3.36c0,1.68,0.56,3.081,1.68,4.2c1.12,1.121,2.52,1.68,4.2,1.68h6.72
					c1.68,0,3.108-0.307,4.284-0.924c1.176-0.616,1.987-1.147,2.436-1.596h0.84l3.36,3.36v1.68l-1.68,1.68
					c-0.84,0.84-2.171,1.61-3.99,2.31c-1.82,0.701-3.57,1.05-5.25,1.05H299.356z M299.356,32.623c-1.68,0-3.081,0.56-4.2,1.68
					c-1.121,1.121-1.68,2.52-1.68,4.2v2.52h16.8v-2.52c0-1.68-0.575-3.079-1.722-4.2c-1.148-1.12-2.562-1.68-4.242-1.68H299.356z"/>
			</g>
			<g>
				<path d="M343.036,25.063c1.903,0,3.667,0.35,5.292,1.05c1.624,0.701,3.037,1.652,4.242,2.856
					c1.203,1.205,2.155,2.619,2.855,4.242c0.7,1.625,1.051,3.389,1.051,5.292v26.04l-0.841,0.84h-5.88l-0.839-0.84v-26.04
					c0-1.68-0.575-3.079-1.722-4.2c-1.148-1.12-2.562-1.68-4.242-1.68h-2.436c-1.064,0-2.1,0.197-3.108,0.588
					c-1.008,0.392-1.904,0.966-2.688,1.722c-0.785,0.756-1.415,1.653-1.89,2.688c-0.477,1.037-0.714,2.171-0.714,3.402v23.52
					l-0.84,0.84h-5.88l-0.84-0.84v-38.64l0.84-0.84h1.68l3.444,3.612c1.344-1.12,2.814-2.001,4.41-2.646
					c1.596-0.643,3.457-0.966,5.586-0.966H343.036z"/>
			</g>
			<g>
				<path d="M364.034,56.143l0.84-0.84h8.4l0.84,0.84v8.4l-0.84,0.84h-8.4l-0.84-0.84V56.143z"/>
			</g>
			<g>
				<path d="M395.635,32.623c-1.289,0-2.493,0.252-3.612,0.756c-1.121,0.504-2.1,1.176-2.939,2.016
					c-0.841,0.84-1.499,1.82-1.975,2.94c-0.477,1.121-0.714,2.297-0.714,3.528v6.72c0,1.289,0.237,2.492,0.714,3.612
					c0.476,1.121,1.134,2.1,1.975,2.94c0.84,0.84,1.818,1.499,2.939,1.974c1.119,0.477,2.323,0.714,3.612,0.714h1.68
					c1.063,0,1.96-0.126,2.688-0.378c0.727-0.252,1.356-0.559,1.89-0.924c0.531-0.364,0.966-0.742,1.302-1.134
					c0.336-0.391,0.616-0.7,0.84-0.924h0.841l3.359,4.2v1.68l-1.68,1.68c-0.84,0.84-2.171,1.61-3.99,2.31
					c-1.82,0.701-3.57,1.05-5.25,1.05h-1.68c-2.297,0-4.467-0.448-6.51-1.344c-2.045-0.895-3.822-2.1-5.335-3.612
					c-1.512-1.512-2.717-3.289-3.611-5.334c-0.896-2.043-1.344-4.213-1.344-6.51v-6.72c0-2.295,0.447-4.465,1.344-6.51
					c0.895-2.044,2.1-3.822,3.611-5.334c1.513-1.512,3.29-2.716,5.335-3.612c2.043-0.895,4.213-1.344,6.51-1.344h1.68
					c1.68,0,3.43,0.35,5.25,1.05c1.819,0.701,3.15,1.47,3.99,2.31l1.68,1.68v1.68l-3.359,4.2h-0.841
					c-0.224-0.223-0.504-0.532-0.84-0.924c-0.336-0.391-0.771-0.769-1.302-1.134c-0.533-0.364-1.163-0.672-1.89-0.924
					c-0.729-0.252-1.625-0.378-2.688-0.378H395.635z"/>
			</g>
			<g>
				<path d="M431.754,25.063c1.903,0,3.667,0.35,5.292,1.05c1.624,0.701,3.037,1.652,4.242,2.856
					c1.203,1.205,2.155,2.619,2.855,4.242c0.7,1.625,1.051,3.389,1.051,5.292v26.04l-0.841,0.84h-5.88l-0.84-0.84v-26.04
					c0-1.68-0.575-3.079-1.722-4.2c-1.148-1.12-2.563-1.68-4.242-1.68h-2.436c-1.064,0-2.101,0.21-3.108,0.63
					s-1.904,1.008-2.688,1.764c-0.784,0.756-1.414,1.653-1.89,2.688c-0.477,1.037-0.714,2.142-0.714,3.318v23.52l-0.84,0.84h-5.88
					l-0.84-0.84v-52.08l0.84-0.84h5.88l0.84,0.84v12.6l-1.596,2.52l0.756,0.84l0.84-0.84c1.287-0.84,2.59-1.47,3.906-1.89
					c1.314-0.42,2.813-0.63,4.494-0.63H431.754z"/>
			</g>
		</g>
		<g>
			<g>
				<path fill="none" d="M21.708,50.057c-0.015-0.269-0.013-0.531-0.009-0.792h-3.824L21.708,50.057z"/>
			</g>
			<g>
				<path fill="#FFFFFF" d="M17.876,49.266h3.824c0.037-2.339,0.793-4.381,1.403-6.013c0.135-0.36,0.246-0.808,0.34-1.368
					c0.146-0.869,0.233-1.63,0.266-2.326c0.012-0.245,0.032-0.498,0.054-0.754c0.011-0.123,0.024-0.284,0.033-0.417
					c-1.256-2.977-0.517-5.613,0.167-7.367c0.117-0.299,0.233-0.598,0.349-0.897H8.514v19.142h8.445l-0.093-0.208L17.876,49.266z"/>
			</g>
			<g>
				<path fill="#FFFFFF" d="M71.172,30.006H51.949c-0.11,1.203-0.175,2.409-0.16,3.591c0.028,2.276,0.693,5.479,3.704,7.809
					c3.033,2.348,4.042,5.262,4.366,7.742h11.315V30.006z"/>
			</g>
		</g>
	</g>
	<g>
		<path fill="#E41E20" d="M164.028,96.64l-0.39,0.391h-1.95l-0.39-0.391V78.701l0.39-0.391h0.78l1.521,1.911
			c0.676-0.598,1.449-1.065,2.32-1.403s1.801-0.508,2.789-0.508h0.39c0.884,0,1.703,0.163,2.457,0.488s1.41,0.767,1.97,1.325
			c0.559,0.56,1,1.216,1.326,1.97c0.324,0.755,0.487,1.573,0.487,2.457v12.09l-0.391,0.391h-1.949l-0.391-0.391V84.55
			c0-0.987-0.338-1.819-1.014-2.496c-0.677-0.676-1.508-1.014-2.496-1.014h-0.39c-0.677,0-1.313,0.131-1.911,0.39
			c-0.599,0.261-1.125,0.618-1.58,1.073s-0.825,0.975-1.111,1.56s-0.442,1.203-0.468,1.853V96.64z"/>
		<path fill="#E41E20" d="M187.7,94.3c0.416,0,0.793-0.059,1.131-0.175c0.338-0.117,0.637-0.26,0.897-0.43
			c0.26-0.169,0.48-0.344,0.663-0.526c0.182-0.182,0.324-0.325,0.429-0.429h0.39l1.561,1.521v0.43l-0.78,0.779
			c-0.39,0.391-1.008,0.748-1.853,1.073s-1.657,0.487-2.438,0.487h-2.729c-0.885,0-1.704-0.162-2.457-0.487
			c-0.755-0.325-1.411-0.767-1.97-1.326c-0.56-0.559-1.001-1.216-1.326-1.97s-0.487-1.573-0.487-2.457v-6.24
			c0-0.884,0.162-1.702,0.487-2.457c0.325-0.754,0.767-1.41,1.326-1.97c0.559-0.559,1.215-1,1.97-1.325
			c0.753-0.325,1.572-0.488,2.457-0.488h1.949c0.884,0,1.703,0.163,2.457,0.488s1.41,0.767,1.97,1.325
			c0.559,0.56,1.001,1.216,1.326,1.97c0.325,0.755,0.487,1.573,0.487,2.457v4.642h-11.7v1.599c0,0.988,0.338,1.82,1.015,2.496
			c0.676,0.677,1.507,1.014,2.496,1.014H187.7z M181.46,86.851h8.971v-2.323c0-0.981-0.339-1.809-1.015-2.48
			c-0.676-0.671-1.508-1.007-2.496-1.007h-1.949c-0.989,0-1.82,0.336-2.496,1.007c-0.677,0.672-1.015,1.499-1.015,2.48V86.851z"/>
		<path fill="#E41E20" d="M211.764,93.247h0.312l1.053-4.407l2.73-10.53h2.34l0.39,0.391v0.78l-4.68,17.55h-3.51l-2.73-8.19
			l-1.17-5.069h-0.39l-1.17,5.069l-2.73,8.19h-3.51l-4.68-17.55v-0.78l0.39-0.391h2.34l2.34,8.971l1.443,5.967h0.313l4.095-13.767
			l0.39-0.391h1.95l0.39,0.391L211.764,93.247z"/>
		<path fill="#E41E20" d="M227.831,94.3c0.988,0,1.755-0.208,2.301-0.624c0.546-0.415,0.819-1.117,0.819-2.105
			c0-0.78-0.267-1.313-0.8-1.6c-0.533-0.285-1.209-0.48-2.027-0.585c-0.819-0.104-1.697-0.188-2.633-0.253
			c-0.937-0.064-1.813-0.254-2.633-0.565c-0.818-0.313-1.495-0.832-2.028-1.561c-0.533-0.728-0.799-1.807-0.799-3.236
			c0-1.561,0.48-2.86,1.442-3.9s2.418-1.561,4.368-1.561h1.989c0.78,0,1.593,0.163,2.438,0.488s1.463,0.683,1.853,1.072l0.78,0.78
			v0.39l-1.561,1.56h-0.39c-0.104-0.104-0.247-0.246-0.429-0.429c-0.183-0.182-0.404-0.357-0.663-0.526
			c-0.261-0.169-0.56-0.312-0.897-0.429s-0.715-0.176-1.131-0.176h-1.95c-0.988,0-1.755,0.208-2.301,0.624s-0.819,1.118-0.819,2.106
			c0,0.779,0.267,1.325,0.8,1.638c0.532,0.312,1.209,0.526,2.028,0.644c0.818,0.117,1.696,0.214,2.632,0.292
			c0.937,0.078,1.813,0.28,2.633,0.604c0.819,0.326,1.495,0.839,2.028,1.541c0.532,0.702,0.799,1.729,0.799,3.081
			c0,1.56-0.487,2.86-1.462,3.899c-0.976,1.04-2.438,1.561-4.388,1.561h-2.34c-0.78,0-1.593-0.162-2.438-0.487
			c-0.846-0.325-1.463-0.683-1.853-1.073l-0.78-0.779V94.3l1.561-1.56h0.39c0.104,0.104,0.247,0.247,0.429,0.429
			c0.182,0.183,0.403,0.357,0.663,0.526c0.26,0.17,0.559,0.313,0.897,0.43c0.337,0.116,0.715,0.175,1.131,0.175H227.831z"/>
		<path fill="#E41E20" d="M244.873,94.3l0.39,0.391v1.949l-0.39,0.391h-1.56c-0.885,0-1.703-0.162-2.457-0.487
			c-0.755-0.325-1.411-0.767-1.97-1.326c-0.56-0.559-1.001-1.216-1.326-1.97s-0.487-1.573-0.487-2.457v-17.55l1.56-1.17h0.78
			l0.39,0.39v18.33c0,0.988,0.338,1.82,1.015,2.496c0.676,0.677,1.508,1.014,2.496,1.014H244.873z"/>
		<path fill="#E41E20" d="M254.702,94.3c0.416,0,0.793-0.059,1.131-0.175c0.338-0.117,0.637-0.26,0.897-0.43
			c0.26-0.169,0.48-0.344,0.663-0.526c0.182-0.182,0.324-0.325,0.429-0.429h0.39l1.561,1.521v0.43l-0.78,0.779
			c-0.39,0.391-1.008,0.748-1.853,1.073s-1.657,0.487-2.438,0.487h-2.729c-0.885,0-1.704-0.162-2.457-0.487
			c-0.755-0.325-1.411-0.767-1.97-1.326c-0.56-0.559-1.001-1.216-1.326-1.97s-0.487-1.573-0.487-2.457v-6.24
			c0-0.884,0.162-1.702,0.487-2.457c0.325-0.754,0.767-1.41,1.326-1.97c0.559-0.559,1.215-1,1.97-1.325
			c0.753-0.325,1.572-0.488,2.457-0.488h1.949c0.884,0,1.703,0.163,2.457,0.488c0.754,0.325,1.41,0.767,1.97,1.325
			c0.559,0.56,1.001,1.216,1.326,1.97c0.325,0.755,0.487,1.573,0.487,2.457v4.642h-11.7v1.599c0,0.988,0.338,1.82,1.015,2.496
			c0.676,0.677,1.507,1.014,2.496,1.014H254.702z M248.462,86.851h8.971v-2.323c0-0.981-0.339-1.809-1.015-2.48
			c-0.676-0.671-1.508-1.007-2.496-1.007h-1.949c-0.989,0-1.82,0.336-2.496,1.007c-0.677,0.672-1.015,1.499-1.015,2.48V86.851z"/>
		<path fill="#E41E20" d="M261.994,78.701l0.391-0.391h2.34v-5.069l1.56-1.17h0.78l0.39,0.39v5.85h2.341l0.39,0.391v1.56
			l-0.39,0.391h-2.341V96.64l-0.39,0.391h-1.95l-0.39-0.391V80.651h-2.34l-0.391-0.391V78.701z"/>
		<path fill="#E41E20" d="M272.017,78.701l0.391-0.391h2.34v-5.069l1.56-1.17h0.78l0.39,0.39v5.85h2.341l0.39,0.391v1.56
			l-0.39,0.391h-2.341V96.64l-0.39,0.391h-1.95l-0.39-0.391V80.651h-2.34l-0.391-0.391V78.701z"/>
		<path fill="#E41E20" d="M291.087,94.3c0.416,0,0.793-0.059,1.131-0.175c0.338-0.117,0.637-0.26,0.897-0.43
			c0.26-0.169,0.48-0.344,0.663-0.526c0.182-0.182,0.324-0.325,0.429-0.429h0.39l1.561,1.521v0.43l-0.78,0.779
			c-0.39,0.391-1.008,0.748-1.853,1.073s-1.657,0.487-2.438,0.487h-2.729c-0.885,0-1.704-0.162-2.457-0.487
			c-0.755-0.325-1.411-0.767-1.97-1.326c-0.56-0.559-1.001-1.216-1.326-1.97s-0.487-1.573-0.487-2.457v-6.24
			c0-0.884,0.162-1.702,0.487-2.457c0.325-0.754,0.767-1.41,1.326-1.97c0.559-0.559,1.215-1,1.97-1.325
			c0.753-0.325,1.572-0.488,2.457-0.488h1.949c0.884,0,1.703,0.163,2.457,0.488s1.41,0.767,1.97,1.325
			c0.559,0.56,1.001,1.216,1.326,1.97c0.325,0.755,0.487,1.573,0.487,2.457v4.642h-11.7v1.599c0,0.988,0.338,1.82,1.015,2.496
			c0.676,0.677,1.507,1.014,2.496,1.014H291.087z M284.847,86.851h8.971v-2.323c0-0.981-0.339-1.809-1.015-2.48
			c-0.676-0.671-1.508-1.007-2.496-1.007h-1.949c-0.989,0-1.82,0.336-2.496,1.007c-0.677,0.672-1.015,1.499-1.015,2.48V86.851z"/>
		<path fill="#E41E20" d="M305.4,81.079c-0.39,0-0.774,0.092-1.15,0.272c-0.377,0.183-0.709,0.417-0.995,0.702
			c-0.286,0.287-0.52,0.618-0.701,0.995c-0.183,0.377-0.273,0.76-0.273,1.15v12.44l-0.39,0.391h-1.95l-0.39-0.391V78.701l0.39-0.391
			h0.78l0.701,1.717c0.572-0.521,1.223-0.937,1.95-1.248c0.728-0.313,1.534-0.469,2.418-0.469h1.17l0.391,0.391v1.989l-0.391,0.39
			H305.4z"/>
		<path fill="#E41E20" d="M328.954,72.071l0.391,0.39l8.189,23.4v0.779l-0.39,0.391h-1.95l-0.39-0.391l-1.872-5.46h-11.466
			l-1.872,5.46l-0.391,0.391h-1.95l-0.39-0.391v-0.779l8.19-23.4l0.39-0.39H328.954z M322.403,88.451h9.594l-2.262-6.63
			l-2.418-7.021h-0.313l-2.34,7.021L322.403,88.451z"/>
		<path fill="#E41E20" d="M348.337,94.3l0.39,0.391v1.949l-0.39,0.391h-1.56c-0.885,0-1.703-0.162-2.457-0.487
			c-0.755-0.325-1.411-0.767-1.97-1.326c-0.56-0.559-1.001-1.216-1.326-1.97s-0.487-1.573-0.487-2.457v-17.55l1.56-1.17h0.78
			l0.39,0.39v18.33c0,0.988,0.338,1.82,1.015,2.496c0.676,0.677,1.508,1.014,2.496,1.014H348.337z"/>
		<path fill="#E41E20" d="M350.95,72.46l0.39-0.39h1.95l0.39,0.39v5.85l-1.17,2.341l0.39,0.39c0.182-0.208,0.352-0.39,0.507-0.546
			c0.13-0.13,0.26-0.254,0.391-0.371c0.13-0.116,0.221-0.2,0.272-0.253c0.65-0.494,1.371-0.878,2.165-1.15
			c0.793-0.273,1.631-0.41,2.516-0.41h0.39c0.884,0,1.703,0.163,2.457,0.488s1.41,0.767,1.97,1.325c0.559,0.56,1,1.216,1.326,1.97
			c0.324,0.755,0.487,1.573,0.487,2.457v6.24c0,0.884-0.163,1.703-0.487,2.457c-0.326,0.754-0.768,1.411-1.326,1.97
			c-0.56,0.56-1.216,1.001-1.97,1.326s-1.573,0.487-2.457,0.487h-0.39c-0.988,0-1.918-0.169-2.789-0.507s-1.645-0.806-2.32-1.404
			l-1.521,1.911h-0.78l-0.39-0.391v-7.098v-0.312V72.46z M353.68,89.425c0.025,0.65,0.182,1.268,0.468,1.853
			s0.656,1.105,1.111,1.561s0.981,0.813,1.58,1.072c0.598,0.26,1.234,0.39,1.911,0.39h0.39c0.988,0,1.819-0.337,2.496-1.014
			c0.676-0.676,1.014-1.508,1.014-2.496v-6.24c0-0.987-0.338-1.819-1.014-2.496c-0.677-0.676-1.508-1.014-2.496-1.014h-0.39
			c-0.677,0-1.32,0.137-1.931,0.409c-0.611,0.273-1.15,0.644-1.618,1.111c-0.469,0.469-0.839,1.009-1.112,1.619
			c-0.272,0.611-0.409,1.255-0.409,1.931V89.425z"/>
		<path fill="#E41E20" d="M373.843,81.04c-0.39,0-0.754,0.059-1.092,0.176s-0.638,0.26-0.897,0.429s-0.487,0.345-0.682,0.526
			c-0.195,0.183-0.346,0.325-0.449,0.429h-0.39l-1.56-1.56v-0.39l0.779-0.78c0.391-0.39,1.008-0.747,1.853-1.072
			s1.657-0.488,2.438-0.488h1.95c0.884,0,1.702,0.163,2.457,0.488c0.754,0.325,1.41,0.767,1.97,1.325c0.559,0.56,1,1.216,1.326,1.97
			c0.324,0.755,0.487,1.573,0.487,2.457v12.09l-0.391,0.391h-0.779l-1.17-1.95h-0.391c-0.599,0.599-1.346,1.072-2.242,1.424
			c-0.897,0.351-1.84,0.526-2.827,0.526h-1.171c-0.779,0-1.501-0.137-2.164-0.41c-0.663-0.272-1.242-0.656-1.735-1.15
			c-0.494-0.493-0.878-1.072-1.15-1.735c-0.273-0.663-0.41-1.385-0.41-2.164c0-0.78,0.137-1.502,0.41-2.165
			c0.272-0.663,0.656-1.241,1.15-1.735c0.493-0.493,1.072-0.877,1.735-1.15s1.385-0.409,2.164-0.409h6.24V84.55
			c0-0.987-0.338-1.819-1.014-2.496c-0.677-0.676-1.508-1.014-2.496-1.014H373.843z M370.333,91.571c0,0.754,0.267,1.397,0.8,1.931
			c0.532,0.533,1.176,0.799,1.93,0.799h1.171c0.676,0,1.319-0.137,1.93-0.409c0.611-0.273,1.151-0.644,1.619-1.111
			c0.468-0.469,0.838-1.008,1.111-1.619c0.272-0.61,0.409-1.254,0.409-1.93V88.84h-6.24c-0.754,0-1.397,0.261-1.93,0.78
			C370.6,90.141,370.333,90.79,370.333,91.571z"/>
		<path fill="#E41E20" d="M388.545,96.64l-0.39,0.391h-1.95l-0.39-0.391V78.701l0.39-0.391h0.78l1.521,1.911
			c0.676-0.598,1.449-1.065,2.32-1.403s1.801-0.508,2.789-0.508h0.39c0.884,0,1.703,0.163,2.457,0.488s1.41,0.767,1.97,1.325
			c0.559,0.56,1,1.216,1.326,1.97c0.324,0.755,0.487,1.573,0.487,2.457v12.09l-0.391,0.391h-1.949l-0.391-0.391V84.55
			c0-0.987-0.338-1.819-1.014-2.496c-0.677-0.676-1.508-1.014-2.496-1.014h-0.39c-0.677,0-1.313,0.131-1.911,0.39
			c-0.599,0.261-1.125,0.618-1.58,1.073s-0.825,0.975-1.111,1.56s-0.442,1.203-0.468,1.853V96.64z"/>
		<path fill="#E41E20" d="M404.418,72.46l0.39-0.39h1.95l0.39,0.39v2.34l-0.39,0.391h-1.95l-0.39-0.391V72.46z M404.418,78.701
			l0.39-0.391h1.95l0.39,0.391V96.64l-0.39,0.391h-1.95l-0.39-0.391V78.701z"/>
		<path fill="#E41E20" d="M419.901,94.3c0.416,0,0.793-0.059,1.131-0.175c0.338-0.117,0.637-0.26,0.897-0.43
			c0.26-0.169,0.48-0.344,0.663-0.526c0.182-0.182,0.324-0.325,0.429-0.429h0.39l1.561,1.521v0.43l-0.78,0.779
			c-0.39,0.391-1.008,0.748-1.853,1.073s-1.657,0.487-2.438,0.487h-2.729c-0.885,0-1.704-0.162-2.457-0.487
			c-0.755-0.325-1.411-0.767-1.97-1.326c-0.56-0.559-1.001-1.216-1.326-1.97s-0.487-1.573-0.487-2.457v-6.24
			c0-0.884,0.162-1.702,0.487-2.457c0.325-0.754,0.767-1.41,1.326-1.97c0.559-0.559,1.215-1,1.97-1.325
			c0.753-0.325,1.572-0.488,2.457-0.488h1.949c0.884,0,1.703,0.163,2.457,0.488s1.41,0.767,1.97,1.325
			c0.559,0.56,1.001,1.216,1.326,1.97c0.325,0.755,0.487,1.573,0.487,2.457v4.642h-11.7v1.599c0,0.988,0.338,1.82,1.015,2.496
			c0.676,0.677,1.507,1.014,2.496,1.014H419.901z M413.66,86.851h8.971v-2.323c0-0.981-0.339-1.809-1.015-2.48
			c-0.676-0.671-1.508-1.007-2.496-1.007h-1.949c-0.989,0-1.82,0.336-2.496,1.007c-0.677,0.672-1.015,1.499-1.015,2.48V86.851z"/>
		<path fill="#E41E20" d="M431.093,96.64l-0.39,0.391h-1.95l-0.39-0.391V78.701l0.39-0.391h0.78l1.521,1.911
			c0.676-0.598,1.449-1.065,2.32-1.403s1.801-0.508,2.789-0.508h0.39c0.884,0,1.703,0.163,2.457,0.488s1.41,0.767,1.97,1.325
			c0.559,0.56,1,1.216,1.326,1.97c0.324,0.755,0.487,1.573,0.487,2.457v12.09l-0.391,0.391h-1.949l-0.391-0.391V84.55
			c0-0.987-0.338-1.819-1.014-2.496c-0.677-0.676-1.508-1.014-2.496-1.014h-0.39c-0.677,0-1.313,0.131-1.911,0.39
			c-0.599,0.261-1.125,0.618-1.58,1.073s-0.825,0.975-1.111,1.56s-0.442,1.203-0.468,1.853V96.64z"/>
	</g>
</g>
</svg>
