<?xml version="1.0" encoding="UTF-8" standalone="no"?>
<!-- Created with Inkscape (http://www.inkscape.org/) -->

<svg
   xmlns:dc="http://purl.org/dc/elements/1.1/"
   xmlns:cc="http://creativecommons.org/ns#"
   xmlns:rdf="http://www.w3.org/1999/02/22-rdf-syntax-ns#"
   xmlns:svg="http://www.w3.org/2000/svg"
   xmlns="http://www.w3.org/2000/svg"
   xmlns:sodipodi="http://sodipodi.sourceforge.net/DTD/sodipodi-0.dtd"
   xmlns:inkscape="http://www.inkscape.org/namespaces/inkscape"
   width="922.92346"
   height="177.47151"
   viewBox="0 0 244.19018 46.956002"
   version="1.1"
   id="svg8"
   inkscape:version="0.92.2 (5c3e80d, 2017-08-06)"
   sodipodi:docname="horizontal_black.svg"
   inkscape:export-filename="/home/anxhelo/Files/Design/CuteVariant/horizontal_black.png"
   inkscape:export-xdpi="96"
   inkscape:export-ydpi="96">
  <defs
     id="defs2" />
  <sodipodi:namedview
     id="base"
     pagecolor="#ffffff"
     bordercolor="#666666"
     borderopacity="1.0"
     inkscape:pageopacity="0"
     inkscape:pageshadow="2"
     inkscape:zoom="0.52467208"
     inkscape:cx="406.68611"
     inkscape:cy="45.444584"
     inkscape:document-units="px"
     inkscape:current-layer="layer1"
     inkscape:document-rotation="0"
     showgrid="false"
     borderlayer="true"
     inkscape:showpageshadow="true"
     units="px"
     inkscape:pagecheckerboard="false"
     showguides="true"
     inkscape:window-width="1366"
     inkscape:window-height="713"
     inkscape:window-x="0"
     inkscape:window-y="0"
     inkscape:window-maximized="1"
     objecttolerance="10"
     guidetolerance="10"
     inkscape:snap-tangential="true"
     inkscape:snap-perpendicular="true"
     fit-margin-top="0"
     fit-margin-left="0"
     fit-margin-right="0"
     fit-margin-bottom="0">
    <inkscape:grid
       type="xygrid"
       id="grid10"
       dotted="false"
       originx="-106.34522"
       originy="-96.154316" />
  </sodipodi:namedview>
  <metadata
     id="metadata5">
    <rdf:RDF>
      <cc:Work
         rdf:about="">
        <dc:format>image/svg+xml</dc:format>
        <dc:type
           rdf:resource="http://purl.org/dc/dcmitype/StillImage" />
        <dc:title></dc:title>
        <cc:license
           rdf:resource="" />
      </cc:Work>
    </rdf:RDF>
  </metadata>
  <g
     inkscape:label="Layer 1"
     inkscape:groupmode="layer"
     id="layer1"
     transform="translate(-106.34522,-153.88968)">
    <g
       id="g4162"
       transform="matrix(1.8052725,0,0,1.8052725,-282.27652,-123.92315)"
       style="fill:#000000">
      <g
         id="g1207"
         transform="matrix(0.35277777,0,0,-0.35277777,218.89883,167.02802)"
         style="fill:#000000">
        <path
           d="M 0,0 C -2.147,0 -4.171,0.514 -5.979,1.403 V -36.488 H 5.978 V 1.402 C 4.17,0.514 2.146,0 0,0"
           style="fill:#000000;fill-opacity:1;fill-rule:nonzero;stroke:none"
           id="path1209"
           inkscape:connector-curvature="0" />
      </g>
      <g
         id="g1211"
         transform="matrix(0.35277777,0,0,-0.35277777,221.00759,157.92265)"
         style="fill:#000000">
        <path
           d="M 0,0 V 11.432 H -11.956 V 0 c 1.807,0.889 3.831,1.402 5.978,1.402 C -3.832,1.402 -1.807,0.889 0,0"
           style="fill:#000000;fill-opacity:1;fill-rule:nonzero;stroke:none"
           id="path1213"
           inkscape:connector-curvature="0" />
      </g>
      <g
         id="g1215"
         transform="matrix(0.35277777,0,0,-0.35277777,223.81965,176.74596)"
         style="fill:#000000">
        <path
           d="M 0,0 V -8.941 H 11.956 V 0 C 10.148,-0.889 8.125,-1.402 5.978,-1.402 3.832,-1.402 1.807,-0.889 0,0"
           style="fill:#000000;fill-opacity:1;fill-rule:nonzero;stroke:none"
           id="path1217"
           inkscape:connector-curvature="0" />
      </g>
      <g
         id="g1219"
         transform="matrix(0.35277777,0,0,-0.35277777,228.03746,168.13546)"
         style="fill:#000000">
        <path
           d="M 0,0 V 40.381 H -11.956 V 0 c 1.807,0.889 3.831,1.402 5.978,1.402 C -3.832,1.402 -1.808,0.889 0,0"
           style="fill:#000000;fill-opacity:1;fill-rule:nonzero;stroke:none"
           id="path1221"
           inkscape:connector-curvature="0" />
      </g>
      <g
         id="g1223"
         transform="matrix(0.35277777,0,0,-0.35277777,235.06737,157.92265)"
         style="fill:#000000">
        <path
           d="M 0,0 V 11.432 H -11.957 V 0 c 1.808,0.889 3.832,1.402 5.979,1.402 C -3.832,1.402 -1.808,0.889 0,0"
           style="fill:#000000;fill-opacity:1;fill-rule:nonzero;stroke:none"
           id="path1225"
           inkscape:connector-curvature="0" />
      </g>
      <g
         id="g1227"
         transform="matrix(0.35277777,0,0,-0.35277777,232.95843,167.02802)"
         style="fill:#000000">
        <path
           d="M 0,0 C -2.147,0 -4.171,0.514 -5.979,1.403 V -36.488 H 5.978 V 1.402 C 4.17,0.514 2.146,0 0,0"
           style="fill:#000000;fill-opacity:1;fill-rule:nonzero;stroke:none"
           id="path1229"
           inkscape:connector-curvature="0" />
      </g>
      <g
         id="g1231"
         transform="matrix(0.35277777,0,0,-0.35277777,242.09707,179.90011)"
         style="fill:#000000">
        <path
           d="M 0,0 V 0.195 C -0.134,0.129 -0.268,0.062 -0.404,0 Z"
           style="fill:#000000;fill-opacity:1;fill-rule:nonzero;stroke:none"
           id="path1233"
           inkscape:connector-curvature="0" />
      </g>
      <g
         id="g1235"
         transform="matrix(0.35277777,0,0,-0.35277777,237.87926,179.90011)"
         style="fill:#000000">
        <path
           d="M 0,0 H 0.405 C 0.268,0.062 0.134,0.129 0,0.195 Z"
           style="fill:#000000;fill-opacity:1;fill-rule:nonzero;stroke:none"
           id="path1237"
           inkscape:connector-curvature="0" />
      </g>
      <g
         id="g1239"
         transform="matrix(0.35277777,0,0,-0.35277777,242.09707,171.22072)"
         style="fill:#000000">
        <path
           d="M 0,0 V 49.127 H -11.956 V 0 c 1.807,0.889 3.831,1.402 5.978,1.402 C -3.832,1.402 -1.807,0.889 0,0"
           style="fill:#000000;fill-opacity:1;fill-rule:nonzero;stroke:none"
           id="path1241"
           inkscape:connector-curvature="0" />
      </g>
      <g
         id="g1243"
         transform="matrix(0.35277777,0,0,-0.35277777,222.52704,162.22798)"
         style="fill:#000000">
        <path
           d="M 0,0 C 0,5.68 -4.604,10.285 -10.285,10.285 -15.965,10.285 -20.57,5.68 -20.57,0 c 0,-5.68 4.605,-10.285 10.285,-10.285 C -4.604,-10.285 0,-5.68 0,0"
           style="fill:#000000;fill-opacity:1;fill-rule:nonzero;stroke:none"
           id="path1245"
           inkscape:connector-curvature="0" />
      </g>
      <g
         id="g1247"
         transform="matrix(0.35277777,0,0,-0.35277777,225.92856,168.8124)"
         style="fill:#000000">
        <path
           d="m 0,0 c -5.681,0 -10.285,-4.604 -10.285,-10.285 0,-5.68 4.604,-10.285 10.285,-10.285 5.68,0 10.285,4.605 10.285,10.285 C 10.285,-4.604 5.68,0 0,0"
           style="fill:#000000;fill-opacity:1;fill-rule:nonzero;stroke:none"
           id="path1249"
           inkscape:connector-curvature="0" />
      </g>
      <g
         id="g1251"
         transform="matrix(0.35277777,0,0,-0.35277777,236.58682,162.22798)"
         style="fill:#000000">
        <path
           d="M 0,0 C 0,5.68 -4.605,10.285 -10.285,10.285 -15.966,10.285 -20.57,5.68 -20.57,0 c 0,-5.68 4.604,-10.285 10.285,-10.285 C -4.605,-10.285 0,-5.68 0,0"
           style="fill:#000000;fill-opacity:1;fill-rule:nonzero;stroke:none"
           id="path1253"
           inkscape:connector-curvature="0" />
      </g>
      <g
         id="g1255"
         transform="matrix(0.35277777,0,0,-0.35277777,243.61652,175.52604)"
         style="fill:#000000">
        <path
           d="M 0,0 C 0,5.68 -4.605,10.285 -10.285,10.285 -15.965,10.285 -20.57,5.68 -20.57,0 c 0,-5.68 4.605,-10.285 10.285,-10.285 C -4.605,-10.285 0,-5.68 0,0"
           style="fill:#000000;fill-opacity:1;fill-rule:nonzero;stroke:none"
           id="path1257"
           inkscape:connector-curvature="0" />
      </g>
      <g
         id="g1259"
         transform="matrix(0.35277777,0,0,-0.35277777,250.73565,166.6284)"
         style="fill:#000000">
        <path
           d="m 0,0 c 0,9.66 4.62,21.719 17.579,21.719 7.98,0 12.839,-4.5 14.639,-8.939 L 25.739,9.84 c -2.1,3.18 -4.2,4.979 -8.16,4.979 C 9.839,14.819 7.439,6.6 7.439,0 c 0,-6.959 3.061,-14.759 10.14,-14.759 3.78,0 6.12,2.219 8.04,5.4 l 6.659,-2.52 c -2.579,-5.82 -7.199,-9.84 -14.699,-9.84 C 4.5,-21.719 0,-10.379 0,0"
           style="fill:#000000;fill-opacity:1;fill-rule:nonzero;stroke:none"
           id="path1261"
           inkscape:connector-curvature="0" />
      </g>
      <g
         id="g1263"
         transform="matrix(0.35277777,0,0,-0.35277777,270.22954,172.99924)"
         style="fill:#000000">
        <path
           d="m 0,0 c -1.92,-2.46 -4.62,-3.66 -8.04,-3.66 -5.819,0 -10.919,3.24 -10.919,12.599 v 18.78 h 7.02 V 10.2 c 0,-5.04 2.159,-7.14 5.759,-7.14 3.72,0 6.18,1.92 6.18,7.02 V 27.719 H 7.02 V -2.94 H 0 Z"
           style="fill:#000000;fill-opacity:1;fill-rule:nonzero;stroke:none"
           id="path1265"
           inkscape:connector-curvature="0" />
      </g>
      <g
         id="g1267"
         transform="matrix(0.35277777,0,0,-0.35277777,275.47884,171.51768)"
         style="fill:#000000">
        <path
           d="m 0,0 v 17.399 h -4.56 v 6.12 H 0 v 9.3 l 7.02,3.36 v -12.66 h 7.079 v -6.12 H 7.02 V 1.38 c 0,-1.74 0.72,-2.94 2.58,-2.94 1.56,0 3.179,0.48 4.799,1.38 l -0.84,-6.299 C 11.819,-7.38 9.66,-7.859 7.14,-7.859 2.1,-7.859 0,-4.86 0,0"
           style="fill:#000000;fill-opacity:1;fill-rule:nonzero;stroke:none"
           id="path1269"
           inkscape:connector-curvature="0" />
      </g>
      <g
         id="g1271"
         transform="matrix(0.35277777,0,0,-0.35277777,288.49595,167.51724)"
         style="fill:#000000">
        <path
           d="M 0,0 C -0.3,4.68 -3.24,6.72 -6.42,6.72 -10.2,6.72 -13.2,4.8 -13.56,0 Z m -20.579,-3.12 c 0,10.019 5.579,16.019 14.159,16.019 7.38,0 13.379,-4.56 13.379,-14.399 0,-1.26 -0.06,-2.94 -0.239,-4.32 h -20.34 c 0.241,-4.5 3.54,-7.2 7.2,-7.2 2.7,0 4.86,1.02 6.48,3.18 l 4.44,-4.559 c -2.4,-2.88 -6,-4.8 -10.92,-4.8 -8.7,0 -14.159,5.999 -14.159,16.079"
           style="fill:#000000;fill-opacity:1;fill-rule:nonzero;stroke:none"
           id="path1273"
           inkscape:connector-curvature="0" />
      </g>
      <g
         id="g1275"
         transform="matrix(0.35277777,0,0,-0.35277777,292.00962,159.22041)"
         style="fill:#000000">
        <path
           d="m 0,0 h 4.44 l 10.499,-31.499 c 0.42,-1.199 0.78,-2.459 1.201,-3.719 0.36,1.26 0.779,2.52 1.139,3.719 L 27.299,0 h 4.5 l -14.34,-41.998 h -3.06 z"
           style="fill:#000000;fill-opacity:1;fill-rule:nonzero;stroke:none"
           id="path1277"
           inkscape:connector-curvature="0" />
      </g>
      <g
         id="g1279"
         transform="matrix(0.35277777,0,0,-0.35277777,310.08585,171.32718)"
         style="fill:#000000">
        <path
           d="m 0,0 v 5.94 c -1.98,1.32 -5.22,2.519 -7.86,2.519 -4.14,0 -7.68,-2.039 -7.68,-6.479 0,-4.02 2.52,-6.72 6.96,-6.72 3.72,0 6.72,2.46 8.58,4.74 m 0,-4.68 c -2.46,-2.22 -5.7,-3.719 -9,-3.719 -6.179,0 -10.439,3.479 -10.439,10.379 0,7.08 5.339,10.14 11.159,10.14 2.58,0 5.28,-0.54 8.28,-2.161 v 2.581 c 0,6.179 -3.3,7.499 -6.72,7.499 -3.06,0 -6.84,-1.74 -9.119,-3.3 l -1.201,3.6 c 2.46,1.56 6.54,3.36 10.74,3.36 4.38,0 10.2,-1.92 10.2,-10.619 V -7.68 H 0 Z"
           style="fill:#000000;fill-opacity:1;fill-rule:nonzero;stroke:none"
           id="path1281"
           inkscape:connector-curvature="0" />
      </g>
      <g
         id="g1283"
         transform="matrix(0.35277777,0,0,-0.35277777,313.79019,163.22069)"
         style="fill:#000000">
        <path
           d="m 0,0 h 4.2 v -4.32 c 1.38,2.94 3.96,5.04 7.739,5.04 1.92,0 3.48,-0.66 4.32,-1.26 l -0.66,-4.08 c -0.78,0.48 -1.98,1.14 -3.959,1.14 -3.06,0 -7.44,-2.28 -7.44,-9.839 v -17.34 H 0 Z"
           style="fill:#000000;fill-opacity:1;fill-rule:nonzero;stroke:none"
           id="path1285"
           inkscape:connector-curvature="0" />
      </g>
      <path
         d="m 320.71201,163.2208 h 1.48166 v 10.81582 h -1.48166 z m -0.23284,-3.19616 c 0,-0.5715 0.42299,-1.016 0.97332,-1.016 0.5715,0 0.97402,0.4445 0.97402,1.016 0,0.55033 -0.40252,0.97366 -0.97402,0.97366 -0.55033,0 -0.97332,-0.42333 -0.97332,-0.97366"
         style="fill:#000000;fill-opacity:1;fill-rule:nonzero;stroke:none;stroke-width:0.35277775"
         id="path1287"
         inkscape:connector-curvature="0" />
      <g
         id="g1289"
         transform="matrix(0.35277777,0,0,-0.35277777,331.18912,171.32718)"
         style="fill:#000000">
        <path
           d="m 0,0 v 5.94 c -1.98,1.32 -5.22,2.519 -7.86,2.519 -4.14,0 -7.68,-2.039 -7.68,-6.479 0,-4.02 2.52,-6.72 6.96,-6.72 3.72,0 6.72,2.46 8.58,4.74 m 0,-4.68 c -2.46,-2.22 -5.7,-3.719 -9,-3.719 -6.179,0 -10.439,3.479 -10.439,10.379 0,7.08 5.339,10.14 11.159,10.14 2.58,0 5.28,-0.54 8.28,-2.161 v 2.581 c 0,6.179 -3.3,7.499 -6.72,7.499 -3.06,0 -6.84,-1.74 -9.119,-3.3 l -1.201,3.6 c 2.46,1.56 6.54,3.36 10.74,3.36 4.38,0 10.2,-1.92 10.2,-10.619 V -7.68 H 0 Z"
           style="fill:#000000;fill-opacity:1;fill-rule:nonzero;stroke:none"
           id="path1291"
           inkscape:connector-curvature="0" />
      </g>
      <g
         id="g1293"
         transform="matrix(0.35277777,0,0,-0.35277777,341.56061,167.43265)"
         style="fill:#000000">
        <path
           d="m 0,0 c 0,6.48 -3.06,8.879 -7.14,8.879 -4.319,0 -7.559,-2.099 -7.559,-8.759 v -18.839 h -4.2 v 30.658 h 4.2 V 8.58 c 1.92,2.759 4.679,4.08 7.919,4.08 7.5,0 10.98,-4.26 10.98,-14.4 V -18.719 H 0 Z"
           style="fill:#000000;fill-opacity:1;fill-rule:nonzero;stroke:none"
           id="path1295"
           inkscape:connector-curvature="0" />
      </g>
      <g
         id="g1297"
         transform="matrix(0.35277777,0,0,-0.35277777,346.25972,171.81394)"
         style="fill:#000000">
        <path
           d="m 0,0 v 20.579 h -5.22 v 3.78 H 0 v 10.559 l 4.2,2.101 V 24.359 H 12 v -3.78 H 4.2 V 1.8 c 0,-2.64 0.36,-4.86 3.3,-4.86 2.04,0 3.48,1.02 4.62,1.8 L 11.64,-5.64 C 10.08,-6.48 8.4,-7.02 6.06,-7.02 1.68,-7.02 0,-4.02 0,0"
           style="fill:#000000;fill-opacity:1;fill-rule:nonzero;stroke:none"
           id="path1299"
           inkscape:connector-curvature="0" />
      </g>
    </g>
  </g>
</svg>
