<?xml version="1.0" encoding="UTF-8" standalone="no"?>
<!-- Created with Inkscape (http://www.inkscape.org/) -->

<svg
   xmlns:dc="http://purl.org/dc/elements/1.1/"
   xmlns:cc="http://creativecommons.org/ns#"
   xmlns:rdf="http://www.w3.org/1999/02/22-rdf-syntax-ns#"
   xmlns:svg="http://www.w3.org/2000/svg"
   xmlns="http://www.w3.org/2000/svg"
   xmlns:sodipodi="http://sodipodi.sourceforge.net/DTD/sodipodi-0.dtd"
   xmlns:inkscape="http://www.inkscape.org/namespaces/inkscape"
   width="426.62"
   height="391.46994"
   viewBox="0 0 112.87655 103.57641"
   version="1.1"
   id="svg8"
   inkscape:version="0.92.2 (5c3e80d, 2017-08-06)"
   sodipodi:docname="icon_color.svg"
   inkscape:export-filename="/home/anxhelo/Files/Design/CuteVariant/icon_color.png"
   inkscape:export-xdpi="96"
   inkscape:export-ydpi="96">
  <defs
     id="defs2" />
  <sodipodi:namedview
     id="base"
     pagecolor="#ffffff"
     bordercolor="#666666"
     borderopacity="1.0"
     inkscape:pageopacity="0"
     inkscape:pageshadow="2"
     inkscape:zoom="0.52467208"
     inkscape:cx="175.06651"
     inkscape:cy="248.31981"
     inkscape:document-units="px"
     inkscape:current-layer="layer1"
     inkscape:document-rotation="0"
     showgrid="false"
     borderlayer="true"
     inkscape:showpageshadow="true"
     units="px"
     inkscape:pagecheckerboard="false"
     showguides="true"
     inkscape:window-width="1366"
     inkscape:window-height="713"
     inkscape:window-x="0"
     inkscape:window-y="0"
     inkscape:window-maximized="1"
     objecttolerance="10"
     guidetolerance="10"
     inkscape:snap-tangential="true"
     inkscape:snap-perpendicular="true"
     fit-margin-top="0"
     fit-margin-left="0"
     fit-margin-right="0"
     fit-margin-bottom="0">
    <inkscape:grid
       type="xygrid"
       id="grid10"
       dotted="false"
       originx="-151.54435"
       originy="-56.167169" />
  </sodipodi:namedview>
  <metadata
     id="metadata5">
    <rdf:RDF>
      <cc:Work
         rdf:about="">
        <dc:format>image/svg+xml</dc:format>
        <dc:type
           rdf:resource="http://purl.org/dc/dcmitype/StillImage" />
        <dc:title></dc:title>
        <cc:license
           rdf:resource="" />
      </cc:Work>
    </rdf:RDF>
  </metadata>
  <g
     inkscape:label="Layer 1"
     inkscape:groupmode="layer"
     id="layer1"
     transform="translate(-151.54432,-137.25639)">
    <g
       id="g4651"
       transform="matrix(3.3490478,0,0,3.3490478,-632.95925,-307.22198)">
      <g
         id="g1301"
         transform="matrix(0.35277777,0,0,-0.35277777,238.56087,148.33958)">
        <path
           d="M 0,0 C -2.553,0 -4.959,0.61 -7.108,1.667 V -43.385 H 7.108 V 1.667 C 4.959,0.61 2.552,0 0,0"
           style="fill:#4d4d4d;fill-opacity:1;fill-rule:nonzero;stroke:none"
           id="path1303"
           inkscape:connector-curvature="0" />
      </g>
      <g
         id="g1305"
         transform="matrix(0.35277777,0,0,-0.35277777,241.06838,137.51323)">
        <path
           d="M 0,0 V 13.593 H -14.216 V 0 c 2.149,1.057 4.555,1.667 7.108,1.667 C -4.556,1.667 -2.149,1.057 0,0"
           style="fill:#4d4d4d;fill-opacity:1;fill-rule:nonzero;stroke:none"
           id="path1307"
           inkscape:connector-curvature="0" />
      </g>
      <g
         id="g1309"
         transform="matrix(0.35277777,0,0,-0.35277777,244.41169,159.89444)">
        <path
           d="M 0,0 V -10.631 H 14.216 V 0 C 12.067,-1.057 9.661,-1.667 7.108,-1.667 4.556,-1.667 2.149,-1.057 0,0"
           style="fill:#4d4d4d;fill-opacity:1;fill-rule:nonzero;stroke:none"
           id="path1311"
           inkscape:connector-curvature="0" />
      </g>
      <g
         id="g1313"
         transform="matrix(0.35277777,0,0,-0.35277777,249.42688,149.65646)">
        <path
           d="M 0,0 V 48.015 H -14.216 V 0 c 2.149,1.057 4.556,1.667 7.108,1.667 C -4.556,1.667 -2.149,1.057 0,0"
           style="fill:#4d4d4d;fill-opacity:1;fill-rule:nonzero;stroke:none"
           id="path1315"
           inkscape:connector-curvature="0" />
      </g>
      <g
         id="g1317"
         transform="matrix(0.35277777,0,0,-0.35277777,257.78553,137.51323)">
        <path
           d="M 0,0 V 13.593 H -14.216 V 0 c 2.149,1.057 4.556,1.667 7.108,1.667 C -4.556,1.667 -2.149,1.057 0,0"
           style="fill:#4d4d4d;fill-opacity:1;fill-rule:nonzero;stroke:none"
           id="path1319"
           inkscape:connector-curvature="0" />
      </g>
      <g
         id="g1321"
         transform="matrix(0.35277777,0,0,-0.35277777,255.27802,148.33958)">
        <path
           d="M 0,0 C -2.552,0 -4.959,0.61 -7.108,1.667 V -43.385 H 7.108 V 1.667 C 4.959,0.61 2.552,0 0,0"
           style="fill:#4d4d4d;fill-opacity:1;fill-rule:nonzero;stroke:none"
           id="path1323"
           inkscape:connector-curvature="0" />
      </g>
      <g
         id="g1325"
         transform="matrix(0.35277777,0,0,-0.35277777,266.14421,163.64496)">
        <path
           d="M 0,0 V 0.232 C -0.16,0.154 -0.318,0.074 -0.481,0 Z"
           style="fill:#4d4d4d;fill-opacity:1;fill-rule:nonzero;stroke:none"
           id="path1327"
           inkscape:connector-curvature="0" />
      </g>
      <g
         id="g1329"
         transform="matrix(0.35277777,0,0,-0.35277777,261.12902,163.64496)">
        <path
           d="M 0,0 H 0.481 C 0.318,0.074 0.16,0.154 0,0.232 Z"
           style="fill:#4d4d4d;fill-opacity:1;fill-rule:nonzero;stroke:none"
           id="path1331"
           inkscape:connector-curvature="0" />
      </g>
      <g
         id="g1333"
         transform="matrix(0.35277777,0,0,-0.35277777,266.14421,153.32483)">
        <path
           d="M 0,0 V 58.413 H -14.216 V 0 c 2.149,1.057 4.555,1.667 7.108,1.667 C -4.556,1.667 -2.149,1.057 0,0"
           style="fill:#4d4d4d;fill-opacity:1;fill-rule:nonzero;stroke:none"
           id="path1335"
           inkscape:connector-curvature="0" />
      </g>
      <g
         id="g1337"
         transform="matrix(0.35277777,0,0,-0.35277777,242.87499,142.63228)">
        <path
           d="m 0,0 c 0,6.754 -5.475,12.229 -12.229,12.229 -6.754,0 -12.229,-5.475 -12.229,-12.229 0,-6.754 5.475,-12.229 12.229,-12.229 C -5.475,-12.229 0,-6.754 0,0"
           style="fill:#cc399f;fill-opacity:1;fill-rule:nonzero;stroke:none"
           id="path1339"
           inkscape:connector-curvature="0" />
      </g>
      <g
         id="g1341"
         transform="matrix(0.35277777,0,0,-0.35277777,246.91938,150.46127)">
        <path
           d="m 0,0 c -6.754,0 -12.229,-5.475 -12.229,-12.229 0,-6.754 5.475,-12.229 12.229,-12.229 6.754,0 12.229,5.475 12.229,12.229 C 12.229,-5.475 6.754,0 0,0"
           style="fill:#29abe2;fill-opacity:1;fill-rule:nonzero;stroke:none"
           id="path1343"
           inkscape:connector-curvature="0" />
      </g>
      <g
         id="g1345"
         transform="matrix(0.35277777,0,0,-0.35277777,259.59214,142.63228)">
        <path
           d="m 0,0 c 0,6.754 -5.475,12.229 -12.229,12.229 -6.754,0 -12.229,-5.475 -12.229,-12.229 0,-6.754 5.475,-12.229 12.229,-12.229 C -5.475,-12.229 0,-6.754 0,0"
           style="fill:#00c997;fill-opacity:1;fill-rule:nonzero;stroke:none"
           id="path1347"
           inkscape:connector-curvature="0" />
      </g>
      <g
         id="g1349"
         transform="matrix(0.35277777,0,0,-0.35277777,267.95082,158.44389)">
        <path
           d="m 0,0 c 0,6.754 -5.475,12.229 -12.229,12.229 -6.754,0 -12.229,-5.475 -12.229,-12.229 0,-6.754 5.475,-12.229 12.229,-12.229 C -5.475,-12.229 0,-6.754 0,0"
           style="fill:#000000;fill-opacity:1;fill-rule:nonzero;stroke:none"
           id="path1351"
           inkscape:connector-curvature="0" />
      </g>
    </g>
  </g>
</svg>
