<?xml version="1.0" encoding="UTF-8" standalone="no"?>
<!-- Created with Inkscape (http://www.inkscape.org/) -->

<svg
   xmlns:dc="http://purl.org/dc/elements/1.1/"
   xmlns:cc="http://creativecommons.org/ns#"
   xmlns:rdf="http://www.w3.org/1999/02/22-rdf-syntax-ns#"
   xmlns:svg="http://www.w3.org/2000/svg"
   xmlns="http://www.w3.org/2000/svg"
   xmlns:sodipodi="http://sodipodi.sourceforge.net/DTD/sodipodi-0.dtd"
   xmlns:inkscape="http://www.inkscape.org/namespaces/inkscape"
   width="701.20697"
   height="405.58926"
   viewBox="0 0 185.52769 107.31215"
   version="1.1"
   id="svg8"
   inkscape:version="0.92.2 (5c3e80d, 2017-08-06)"
   sodipodi:docname="vertical_color.svg"
   inkscape:export-filename="/home/anxhelo/Files/Design/CuteVariant/vertical_color.png"
   inkscape:export-xdpi="96"
   inkscape:export-ydpi="96">
  <defs
     id="defs2" />
  <sodipodi:namedview
     id="base"
     pagecolor="#ffffff"
     bordercolor="#666666"
     borderopacity="1.0"
     inkscape:pageopacity="0"
     inkscape:pageshadow="2"
     inkscape:zoom="0.52467208"
     inkscape:cx="240.97859"
     inkscape:cy="203.09364"
     inkscape:document-units="px"
     inkscape:current-layer="layer1"
     inkscape:document-rotation="0"
     showgrid="false"
     borderlayer="true"
     inkscape:showpageshadow="true"
     units="px"
     inkscape:pagecheckerboard="false"
     showguides="true"
     inkscape:window-width="1366"
     inkscape:window-height="713"
     inkscape:window-x="0"
     inkscape:window-y="0"
     inkscape:window-maximized="1"
     objecttolerance="10"
     guidetolerance="10"
     inkscape:snap-tangential="true"
     inkscape:snap-perpendicular="true"
     fit-margin-top="0"
     fit-margin-left="0"
     fit-margin-right="0"
     fit-margin-bottom="0">
    <inkscape:grid
       type="xygrid"
       id="grid10"
       dotted="false"
       originx="-134.10509"
       originy="-68.133274" />
  </sodipodi:namedview>
  <metadata
     id="metadata5">
    <rdf:RDF>
      <cc:Work
         rdf:about="">
        <dc:format>image/svg+xml</dc:format>
        <dc:type
           rdf:resource="http://purl.org/dc/dcmitype/StillImage" />
        <dc:title></dc:title>
        <cc:license
           rdf:resource="" />
      </cc:Work>
    </rdf:RDF>
  </metadata>
  <g
     inkscape:label="Layer 1"
     inkscape:groupmode="layer"
     id="layer1"
     transform="translate(-134.10508,-121.55456)">
    <g
       id="g4476"
       transform="matrix(1.8590036,0,0,1.8590036,-388.93633,-179.41293)">
      <g
         id="g1301"
         transform="matrix(0.35277777,0,0,-0.35277777,318.38693,177.51895)">
        <path
           d="M 0,0 C -2.553,0 -4.959,0.61 -7.108,1.667 V -43.385 H 7.108 V 1.667 C 4.959,0.61 2.552,0 0,0"
           style="fill:#4d4d4d;fill-opacity:1;fill-rule:nonzero;stroke:none"
           id="path1303"
           inkscape:connector-curvature="0" />
      </g>
      <g
         id="g1305"
         transform="matrix(0.35277777,0,0,-0.35277777,320.89444,166.6926)">
        <path
           d="M 0,0 V 13.593 H -14.216 V 0 c 2.149,1.057 4.555,1.667 7.108,1.667 C -4.556,1.667 -2.149,1.057 0,0"
           style="fill:#4d4d4d;fill-opacity:1;fill-rule:nonzero;stroke:none"
           id="path1307"
           inkscape:connector-curvature="0" />
      </g>
      <g
         id="g1309"
         transform="matrix(0.35277777,0,0,-0.35277777,324.23775,189.07381)">
        <path
           d="M 0,0 V -10.631 H 14.216 V 0 C 12.067,-1.057 9.661,-1.667 7.108,-1.667 4.556,-1.667 2.149,-1.057 0,0"
           style="fill:#4d4d4d;fill-opacity:1;fill-rule:nonzero;stroke:none"
           id="path1311"
           inkscape:connector-curvature="0" />
      </g>
      <g
         id="g1313"
         transform="matrix(0.35277777,0,0,-0.35277777,329.25295,178.83583)">
        <path
           d="M 0,0 V 48.015 H -14.216 V 0 c 2.149,1.057 4.556,1.667 7.108,1.667 C -4.556,1.667 -2.149,1.057 0,0"
           style="fill:#4d4d4d;fill-opacity:1;fill-rule:nonzero;stroke:none"
           id="path1315"
           inkscape:connector-curvature="0" />
      </g>
      <g
         id="g1317"
         transform="matrix(0.35277777,0,0,-0.35277777,337.61159,166.6926)">
        <path
           d="M 0,0 V 13.593 H -14.216 V 0 c 2.149,1.057 4.556,1.667 7.108,1.667 C -4.556,1.667 -2.149,1.057 0,0"
           style="fill:#4d4d4d;fill-opacity:1;fill-rule:nonzero;stroke:none"
           id="path1319"
           inkscape:connector-curvature="0" />
      </g>
      <g
         id="g1321"
         transform="matrix(0.35277777,0,0,-0.35277777,335.10408,177.51895)">
        <path
           d="M 0,0 C -2.552,0 -4.959,0.61 -7.108,1.667 V -43.385 H 7.108 V 1.667 C 4.959,0.61 2.552,0 0,0"
           style="fill:#4d4d4d;fill-opacity:1;fill-rule:nonzero;stroke:none"
           id="path1323"
           inkscape:connector-curvature="0" />
      </g>
      <g
         id="g1325"
         transform="matrix(0.35277777,0,0,-0.35277777,345.97027,192.82433)">
        <path
           d="M 0,0 V 0.232 C -0.16,0.154 -0.318,0.074 -0.481,0 Z"
           style="fill:#4d4d4d;fill-opacity:1;fill-rule:nonzero;stroke:none"
           id="path1327"
           inkscape:connector-curvature="0" />
      </g>
      <g
         id="g1329"
         transform="matrix(0.35277777,0,0,-0.35277777,340.95508,192.82433)">
        <path
           d="M 0,0 H 0.481 C 0.318,0.074 0.16,0.154 0,0.232 Z"
           style="fill:#4d4d4d;fill-opacity:1;fill-rule:nonzero;stroke:none"
           id="path1331"
           inkscape:connector-curvature="0" />
      </g>
      <g
         id="g1333"
         transform="matrix(0.35277777,0,0,-0.35277777,345.97027,182.5042)">
        <path
           d="M 0,0 V 58.413 H -14.216 V 0 c 2.149,1.057 4.555,1.667 7.108,1.667 C -4.556,1.667 -2.149,1.057 0,0"
           style="fill:#4d4d4d;fill-opacity:1;fill-rule:nonzero;stroke:none"
           id="path1335"
           inkscape:connector-curvature="0" />
      </g>
      <g
         id="g1337"
         transform="matrix(0.35277777,0,0,-0.35277777,322.70105,171.81165)">
        <path
           d="m 0,0 c 0,6.754 -5.475,12.229 -12.229,12.229 -6.754,0 -12.229,-5.475 -12.229,-12.229 0,-6.754 5.475,-12.229 12.229,-12.229 C -5.475,-12.229 0,-6.754 0,0"
           style="fill:#cc399f;fill-opacity:1;fill-rule:nonzero;stroke:none"
           id="path1339"
           inkscape:connector-curvature="0" />
      </g>
      <g
         id="g1341"
         transform="matrix(0.35277777,0,0,-0.35277777,326.74544,179.64064)">
        <path
           d="m 0,0 c -6.754,0 -12.229,-5.475 -12.229,-12.229 0,-6.754 5.475,-12.229 12.229,-12.229 6.754,0 12.229,5.475 12.229,12.229 C 12.229,-5.475 6.754,0 0,0"
           style="fill:#29abe2;fill-opacity:1;fill-rule:nonzero;stroke:none"
           id="path1343"
           inkscape:connector-curvature="0" />
      </g>
      <g
         id="g1345"
         transform="matrix(0.35277777,0,0,-0.35277777,339.4182,171.81165)">
        <path
           d="m 0,0 c 0,6.754 -5.475,12.229 -12.229,12.229 -6.754,0 -12.229,-5.475 -12.229,-12.229 0,-6.754 5.475,-12.229 12.229,-12.229 C -5.475,-12.229 0,-6.754 0,0"
           style="fill:#00c997;fill-opacity:1;fill-rule:nonzero;stroke:none"
           id="path1347"
           inkscape:connector-curvature="0" />
      </g>
      <g
         id="g1349"
         transform="matrix(0.35277777,0,0,-0.35277777,347.77688,187.62326)">
        <path
           d="m 0,0 c 0,6.754 -5.475,12.229 -12.229,12.229 -6.754,0 -12.229,-5.475 -12.229,-12.229 0,-6.754 5.475,-12.229 12.229,-12.229 C -5.475,-12.229 0,-6.754 0,0"
           style="fill:#000000;fill-opacity:1;fill-rule:nonzero;stroke:none"
           id="path1351"
           inkscape:connector-curvature="0" />
      </g>
      <g
         id="g1353"
         transform="matrix(0.35277777,0,0,-0.35277777,281.35578,211.9608)">
        <path
           d="m 0,0 c 0,9.66 4.62,21.72 17.579,21.72 7.98,0 12.84,-4.5 14.64,-8.94 l -6.48,-2.94 c -2.1,3.18 -4.2,4.979 -8.16,4.979 C 9.84,14.819 7.439,6.6 7.439,0 c 0,-6.959 3.061,-14.759 10.14,-14.759 3.78,0 6.12,2.22 8.04,5.4 l 6.659,-2.52 c -2.579,-5.82 -7.199,-9.84 -14.699,-9.84 C 4.5,-21.719 0,-10.379 0,0"
           style="fill:#4d4d4d;fill-opacity:1;fill-rule:nonzero;stroke:none"
           id="path1355"
           inkscape:connector-curvature="0" />
      </g>
      <g
         id="g1357"
         transform="matrix(0.35277777,0,0,-0.35277777,300.84986,218.33146)">
        <path
           d="m 0,0 c -1.92,-2.46 -4.62,-3.66 -8.04,-3.66 -5.819,0 -10.92,3.24 -10.92,12.599 v 18.78 h 7.021 v -17.52 c 0,-5.04 2.159,-7.139 5.759,-7.139 3.72,0 6.18,1.919 6.18,7.019 v 17.64 H 7.02 V -2.94 H 0 Z"
           style="fill:#4d4d4d;fill-opacity:1;fill-rule:nonzero;stroke:none"
           id="path1359"
           inkscape:connector-curvature="0" />
      </g>
      <g
         id="g1361"
         transform="matrix(0.35277777,0,0,-0.35277777,306.09915,216.85008)">
        <path
           d="M 0,0 V 17.399 H -4.561 V 23.52 H 0 v 9.299 l 7.02,3.36 V 23.52 h 7.079 V 17.399 H 7.02 V 1.38 c 0,-1.739 0.719,-2.94 2.58,-2.94 1.559,0 3.179,0.48 4.799,1.38 l -0.84,-6.299 C 11.819,-7.38 9.659,-7.859 7.14,-7.859 2.1,-7.859 0,-4.859 0,0"
           style="fill:#4d4d4d;fill-opacity:1;fill-rule:nonzero;stroke:none"
           id="path1363"
           inkscape:connector-curvature="0" />
      </g>
      <g
         id="g1365"
         transform="matrix(0.35277777,0,0,-0.35277777,319.11609,212.84961)">
        <path
           d="m 0,0 c -0.3,4.68 -3.239,6.72 -6.42,6.72 -3.779,0 -6.779,-1.92 -7.14,-6.72 z m -20.579,-3.12 c 0,10.019 5.58,16.019 14.159,16.019 7.38,0 13.38,-4.559 13.38,-14.399 0,-1.26 -0.061,-2.939 -0.24,-4.319 h -20.339 c 0.24,-4.5 3.54,-7.201 7.199,-7.201 2.7,0 4.86,1.02 6.481,3.18 L 4.5,-14.399 c -2.4,-2.88 -6,-4.8 -10.92,-4.8 -8.699,0 -14.159,6 -14.159,16.079"
           style="fill:#4d4d4d;fill-opacity:1;fill-rule:nonzero;stroke:none"
           id="path1367"
           inkscape:connector-curvature="0" />
      </g>
      <g
         id="g1369"
         transform="matrix(0.35277777,0,0,-0.35277777,322.62976,204.55281)">
        <path
           d="m 0,0 h 4.44 l 10.499,-31.498 c 0.42,-1.2 0.781,-2.46 1.201,-3.72 0.36,1.26 0.78,2.52 1.139,3.72 L 27.299,0 h 4.5 L 17.46,-41.998 h -3.061 z"
           style="fill:#4d4d4d;fill-opacity:1;fill-rule:nonzero;stroke:none"
           id="path1371"
           inkscape:connector-curvature="0" />
      </g>
      <g
         id="g1373"
         transform="matrix(0.35277777,0,0,-0.35277777,340.70616,216.65956)">
        <path
           d="m 0,0 v 5.94 c -1.98,1.32 -5.22,2.52 -7.86,2.52 -4.14,0 -7.68,-2.04 -7.68,-6.48 0,-4.02 2.52,-6.719 6.96,-6.719 3.72,0 6.72,2.46 8.58,4.739 m 0,-4.68 c -2.46,-2.219 -5.7,-3.719 -9,-3.719 -6.18,0 -10.439,3.479 -10.439,10.379 0,7.08 5.339,10.14 11.159,10.14 2.58,0 5.28,-0.54 8.28,-2.16 v 2.58 c 0,6.18 -3.3,7.499 -6.72,7.499 -3.06,0 -6.84,-1.739 -9.12,-3.3 l -1.2,3.601 c 2.46,1.559 6.54,3.359 10.74,3.359 4.38,0 10.199,-1.92 10.199,-10.619 V -7.68 H 0 Z"
           style="fill:#4d4d4d;fill-opacity:1;fill-rule:nonzero;stroke:none"
           id="path1375"
           inkscape:connector-curvature="0" />
      </g>
      <g
         id="g1377"
         transform="matrix(0.35277777,0,0,-0.35277777,344.41033,208.55288)">
        <path
           d="m 0,0 h 4.2 v -4.32 c 1.38,2.94 3.96,5.04 7.739,5.04 1.92,0 3.481,-0.66 4.321,-1.26 L 15.6,-4.62 c -0.781,0.48 -1.981,1.14 -3.96,1.14 -3.06,0 -7.44,-2.28 -7.44,-9.839 v -17.34 H 0 Z"
           style="fill:#4d4d4d;fill-opacity:1;fill-rule:nonzero;stroke:none"
           id="path1379"
           inkscape:connector-curvature="0" />
      </g>
      <path
         d="m 351.33214,208.55289 h 1.48132 v 10.81582 h -1.48132 z m -0.23283,-3.19617 c 0,-0.5715 0.42298,-1.01564 0.97367,-1.01564 0.5715,0 0.97366,0.44414 0.97366,1.01564 0,0.55069 -0.40216,0.97367 -0.97366,0.97367 -0.55069,0 -0.97367,-0.42298 -0.97367,-0.97367"
         style="fill:#4d4d4d;fill-opacity:1;fill-rule:nonzero;stroke:none;stroke-width:0.35277775"
         id="path1381"
         inkscape:connector-curvature="0" />
      <g
         id="g1383"
         transform="matrix(0.35277777,0,0,-0.35277777,361.80943,216.65956)">
        <path
           d="m 0,0 v 5.94 c -1.98,1.32 -5.22,2.52 -7.86,2.52 -4.14,0 -7.68,-2.04 -7.68,-6.48 0,-4.02 2.52,-6.719 6.96,-6.719 3.72,0 6.72,2.46 8.58,4.739 m 0,-4.68 c -2.46,-2.219 -5.7,-3.719 -9,-3.719 -6.18,0 -10.439,3.479 -10.439,10.379 0,7.08 5.339,10.14 11.159,10.14 2.58,0 5.28,-0.54 8.28,-2.16 v 2.58 c 0,6.18 -3.3,7.499 -6.72,7.499 -3.06,0 -6.84,-1.739 -9.12,-3.3 l -1.2,3.601 c 2.46,1.559 6.54,3.359 10.74,3.359 4.38,0 10.199,-1.92 10.199,-10.619 V -7.68 H 0 Z"
           style="fill:#4d4d4d;fill-opacity:1;fill-rule:nonzero;stroke:none"
           id="path1385"
           inkscape:connector-curvature="0" />
      </g>
      <g
         id="g1387"
         transform="matrix(0.35277777,0,0,-0.35277777,372.18089,212.76489)">
        <path
           d="m 0,0 c 0,6.479 -3.06,8.879 -7.14,8.879 -4.32,0 -7.559,-2.1 -7.559,-8.759 v -18.84 h -4.2 v 30.659 h 4.2 v -3.36 c 1.92,2.76 4.679,4.08 7.919,4.08 7.5,0 10.98,-4.26 10.98,-14.399 V -18.72 H 0 Z"
           style="fill:#4d4d4d;fill-opacity:1;fill-rule:nonzero;stroke:none"
           id="path1389"
           inkscape:connector-curvature="0" />
      </g>
      <g
         id="g1391"
         transform="matrix(0.35277777,0,0,-0.35277777,376.87999,217.14634)">
        <path
           d="m 0,0 v 20.579 h -5.22 v 3.78 H 0 v 10.56 l 4.2,2.1 v -12.66 h 7.799 v -3.78 H 4.2 V 1.8 c 0,-2.64 0.36,-4.86 3.3,-4.86 2.039,0 3.479,1.02 4.619,1.8 L 11.64,-5.64 C 10.079,-6.479 8.399,-7.02 6.06,-7.02 1.68,-7.02 0,-4.02 0,0"
           style="fill:#4d4d4d;fill-opacity:1;fill-rule:nonzero;stroke:none"
           id="path1393"
           inkscape:connector-curvature="0" />
      </g>
    </g>
  </g>
</svg>
