<?xml version="1.0" encoding="UTF-8" standalone="no"?>
<!-- Created with Inkscape (http://www.inkscape.org/) -->

<svg
   xmlns:dc="http://purl.org/dc/elements/1.1/"
   xmlns:cc="http://creativecommons.org/ns#"
   xmlns:rdf="http://www.w3.org/1999/02/22-rdf-syntax-ns#"
   xmlns:svg="http://www.w3.org/2000/svg"
   xmlns="http://www.w3.org/2000/svg"
   xmlns:sodipodi="http://sodipodi.sourceforge.net/DTD/sodipodi-0.dtd"
   xmlns:inkscape="http://www.inkscape.org/namespaces/inkscape"
   width="147.8653mm"
   height="25.45092mm"
   viewBox="0 0 147.8653 25.45092"
   version="1.1"
   id="svg4744"
   inkscape:version="0.92.1 r"
   sodipodi:docname="horizontal black.svg">
  <defs
     id="defs4738" />
  <sodipodi:namedview
     id="base"
     pagecolor="#ffffff"
     bordercolor="#666666"
     borderopacity="1.0"
     inkscape:pageopacity="0.0"
     inkscape:pageshadow="2"
     inkscape:zoom="0.7"
     inkscape:cx="155.27863"
     inkscape:cy="166.36605"
     inkscape:document-units="mm"
     inkscape:current-layer="layer1"
     showgrid="false"
     fit-margin-top="0"
     fit-margin-left="0"
     fit-margin-right="0"
     fit-margin-bottom="0"
     inkscape:window-width="1366"
     inkscape:window-height="740"
     inkscape:window-x="0"
     inkscape:window-y="0"
     inkscape:window-maximized="1" />
  <metadata
     id="metadata4741">
    <rdf:RDF>
      <cc:Work
         rdf:about="">
        <dc:format>image/svg+xml</dc:format>
        <dc:type
           rdf:resource="http://purl.org/dc/dcmitype/StillImage" />
        <dc:title></dc:title>
      </cc:Work>
    </rdf:RDF>
  </metadata>
  <g
     inkscape:label="Layer 1"
     inkscape:groupmode="layer"
     id="layer1"
     transform="translate(-31.900684,-89.20769)">
    <path
       d="M 67.130591,114.65861 52.436512,89.20769 45.618758,101.01618 42.698113,95.957179 31.900684,114.65861 h 5.841746 9.458419 c 0.139759,-0.37637 1.781814,-4.79332 2.009672,-5.13235 0,0 -2.052568,-0.46308 -1.994451,-3.81593 0.05766,-3.35237 2.625442,-5.05761 2.625442,-5.05761 0,0 -0.450642,2.57378 1.58901,3.52626 0,0 1.962625,0.55996 1.930798,2.5355 -0.03874,1.97554 -1.267979,2.56732 -1.898509,2.83762 0.225551,0.3321 1.80626,4.58852 2.000908,5.10651 h 0.03182 z"
       style="fill:#000000;fill-opacity:1;fill-rule:nonzero;stroke:none;stroke-width:0.46125123"
       id="path4524"
       inkscape:connector-curvature="0" />
    <path
       d="m 72.698446,99.855445 c 0,1.362075 1.095933,2.424795 2.391591,2.424795 1.295193,0 2.346846,-1.06272 2.346846,-2.424795 0,-1.361614 -1.051653,-2.402195 -2.346846,-2.402195 -1.306264,0 -2.391591,1.040581 -2.391591,2.402195 m 6.531782,0 c 0,2.236605 -1.793345,3.952455 -4.162331,3.952455 -2.369451,0 -4.162796,-1.70478 -4.162796,-3.952455 0,-2.258286 1.793345,-3.930321 4.162796,-3.930321 2.368986,0 4.162331,1.683106 4.162331,3.930321"
       style="fill:#000000;fill-opacity:1;fill-rule:nonzero;stroke:none;stroke-width:0.46125123"
       id="path4528"
       inkscape:connector-curvature="0" />
    <path
       d="m 84.798221,100.73021 c 0,-0.952027 -0.597781,-1.638368 -1.472313,-1.638368 -0.874993,0 -1.483385,0.675271 -1.483385,1.638368 0,0.98523 0.608392,1.64943 1.483385,1.64943 0.874532,0 1.472313,-0.67527 1.472313,-1.64943 m 1.726925,0.0553 c 0,1.80442 -1.095933,3.01105 -2.767507,3.01105 -0.830712,0 -1.483845,-0.3321 -1.915116,-0.92988 v 3.0115 h -1.704784 v -8.104177 h 1.704784 v 0.874532 c 0.420662,-0.597782 1.073793,-0.929883 1.881906,-0.929883 1.671574,0 2.800717,1.228774 2.800717,3.066858"
       style="fill:#000000;fill-opacity:1;fill-rule:nonzero;stroke:none;stroke-width:0.46125123"
       id="path4532"
       inkscape:connector-curvature="0" />
    <path
       d="m 91.274189,100.26513 c -0.02214,-0.785976 -0.531362,-1.295197 -1.317333,-1.295197 -0.752762,0 -1.262444,0.509221 -1.395284,1.295197 z m 1.594084,1.00737 h -4.273491 c 0.19926,0.75276 0.774902,1.19556 1.538734,1.19556 0.565032,0 1.095933,-0.2214 1.505984,-0.63099 l 0.896672,0.90774 c -0.598242,0.66421 -1.472313,1.05211 -2.546106,1.05211 -1.904506,0 -3.111139,-1.2177 -3.111139,-3.02257 0,-1.837627 1.251374,-3.055791 3.066398,-3.055791 2.092696,0 3.066859,1.384215 2.922948,3.553941"
       style="fill:#000000;fill-opacity:1;fill-rule:nonzero;stroke:none;stroke-width:0.46125123"
       id="path4536"
       inkscape:connector-curvature="0" />
    <path
       d="m 99.676709,99.988331 v 3.742129 h -1.704785 v -3.24398 c 0,-0.75276 -0.442802,-1.217702 -1.173424,-1.217702 -0.852852,0.01111 -1.361613,0.653133 -1.361613,1.527662 v 2.93402 h -1.705244 v -5.956136 h 1.705244 v 1.040584 c 0.420662,-0.741693 1.129143,-1.095933 2.058566,-1.107004 1.328863,0 2.181256,0.885604 2.181256,2.280427"
       style="fill:#000000;fill-opacity:1;fill-rule:nonzero;stroke:none;stroke-width:0.46125123"
       id="path4540"
       inkscape:connector-curvature="0" />
    <path
       d="m 106.66125,97.39785 c -0.58671,0 -0.98523,0.210331 -0.98523,0.630992 0,1.428034 4.12912,0.630992 4.11852,3.421098 0,1.5166 -1.31734,2.33578 -3.03366,2.33578 -1.27305,0 -2.54656,-0.48708 -3.42063,-1.22878 l 0.69741,-1.42849 c 0.79704,0.70894 1.92618,1.16281 2.74537,1.16281 0.71955,0 1.15128,-0.26568 1.15128,-0.74215 0,-1.46078 -4.12912,-0.60839 -4.12912,-3.354218 0,-1.405894 1.20663,-2.291496 2.99997,-2.291496 1.08487,0 2.17019,0.331639 2.94463,0.840861 l -0.67527,1.450635 c -0.81918,-0.487081 -1.79334,-0.797042 -2.41327,-0.797042"
       style="fill:#000000;fill-opacity:1;fill-rule:nonzero;stroke:none;stroke-width:0.46125123"
       id="path4544"
       inkscape:connector-curvature="0" />
    <path
       d="m 111.91924,100.77435 c 0,0.97416 0.60885,1.63836 1.49446,1.63836 0.87499,0 1.48384,-0.6642 1.48384,-1.63836 0,-0.974164 -0.60885,-1.638366 -1.48384,-1.638366 -0.88561,0 -1.49446,0.664202 -1.49446,1.638366 m 4.68309,-0.0221 c 0,1.81595 -1.28413,3.04472 -3.18863,3.04472 -1.91512,0 -3.19924,-1.22877 -3.19924,-3.04472 0,-1.826553 1.28412,-3.033647 3.19924,-3.033647 1.9045,0 3.18863,1.207094 3.18863,3.033647"
       style="fill:#000000;fill-opacity:1;fill-rule:nonzero;stroke:none;stroke-width:0.46125123"
       id="path4548"
       inkscape:connector-curvature="0" />
    <path
       d="m 123.12257,97.774186 v 5.956134 h -1.69371 v -1.05165 c -0.41005,0.75276 -1.09593,1.11807 -1.99261,1.11807 -1.31779,0 -2.14758,-0.87453 -2.14758,-2.28042 v -3.742134 h 1.70478 v 3.255054 c 0,0.7523 0.43127,1.20663 1.11808,1.20663 0.81918,-0.0111 1.31733,-0.65313 1.31733,-1.5166 v -2.945084 z"
       style="fill:#000000;fill-opacity:1;fill-rule:nonzero;stroke:none;stroke-width:0.46125123"
       id="path4552"
       inkscape:connector-curvature="0" />
    <path
       d="m 128.18148,97.707766 v 1.605154 c -1.21816,-0.110704 -1.97046,0.542432 -1.97046,1.55027 v 2.86713 h -1.70525 v -5.956134 h 1.70525 v 1.073793 c 0.40913,-0.730622 1.0844,-1.129143 1.97046,-1.140213"
       style="fill:#000000;fill-opacity:1;fill-rule:nonzero;stroke:none;stroke-width:0.46125123"
       id="path4556"
       inkscape:connector-curvature="0" />
    <path
       d="m 131.45798,99.169194 c -0.83025,0 -1.41696,0.642061 -1.41696,1.594086 0,0.96309 0.58671,1.61622 1.41696,1.61622 0.60886,0 1.08533,-0.23201 1.38376,-0.69741 l 1.17389,0.79704 c -0.49815,0.83072 -1.42851,1.31779 -2.64575,1.31779 -1.80488,0 -3.03411,-1.2177 -3.03411,-3.02257 0,-1.826557 1.22923,-3.055791 3.05579,-3.055791 1.14022,0 2.04842,0.454332 2.57933,1.251374 l -1.1513,0.830253 c -0.32057,-0.398521 -0.77489,-0.642062 -1.36161,-0.630992"
       style="fill:#000000;fill-opacity:1;fill-rule:nonzero;stroke:none;stroke-width:0.46125123"
       id="path4560"
       inkscape:connector-curvature="0" />
    <path
       d="m 138.50963,100.26513 c -0.0221,-0.785976 -0.53136,-1.295197 -1.31733,-1.295197 -0.75275,0 -1.26244,0.509221 -1.39528,1.295197 z m 1.59409,1.00737 h -4.27349 c 0.19926,0.75276 0.7749,1.19556 1.53873,1.19556 0.56504,0 1.09593,-0.2214 1.50598,-0.63099 l 0.89668,0.90774 c -0.59824,0.66421 -1.47231,1.05211 -2.54611,1.05211 -1.9045,0 -3.11114,-1.2177 -3.11114,-3.02257 0,-1.837627 1.25138,-3.055791 3.0664,-3.055791 2.0927,0 3.06686,1.384215 2.92295,3.553941"
       style="fill:#000000;fill-opacity:1;fill-rule:nonzero;stroke:none;stroke-width:0.46125123"
       id="path4564"
       inkscape:connector-curvature="0" />
    <path
       d="m 149.63419,99.866516 c 0,-1.428034 -0.9963,-2.413266 -2.32516,-2.413266 h -1.50553 v 4.80485 h 1.58348 c 1.29519,0 2.24721,-0.97462 2.24721,-2.391584 m 1.78227,-0.01111 c 0,2.280884 -1.69371,3.874964 -4.14019,3.874964 h -3.22183 V 95.9809 h 3.2878 c 2.40265,0 4.07422,1.583014 4.07422,3.87451"
       style="fill:#000000;fill-opacity:1;fill-rule:nonzero;stroke:none;stroke-width:0.46125123"
       id="path4568"
       inkscape:connector-curvature="0" />
    <path
       d="m 156.1543,100.26513 c -0.0221,-0.785976 -0.53136,-1.295197 -1.31733,-1.295197 -0.75277,0 -1.26246,0.509221 -1.3953,1.295197 z m 1.59408,1.00737 h -4.2735 c 0.19926,0.75276 0.77491,1.19556 1.53874,1.19556 0.56503,0 1.09594,-0.2214 1.50599,-0.63099 l 0.89667,0.90774 c -0.59824,0.66421 -1.47232,1.05211 -2.5461,1.05211 -1.90451,0 -3.11115,-1.2177 -3.11115,-3.02257 0,-1.837627 1.25138,-3.055791 3.06641,-3.055791 2.09269,0 3.06686,1.384215 2.92294,3.553941"
       style="fill:#000000;fill-opacity:1;fill-rule:nonzero;stroke:none;stroke-width:0.46125123"
       id="path4572"
       inkscape:connector-curvature="0" />
    <path
       d="m 160.54836,98.947609 c -0.39852,0 -0.68634,0.132841 -0.68634,0.442802 0,0.896669 3.14389,0.4428 3.13327,2.546569 0,1.2177 -1.07379,1.85976 -2.4248,1.85976 -0.96309,0 -1.90403,-0.28782 -2.57977,-0.83025 l 0.5535,-1.15128 c 0.62039,0.47601 1.41743,0.74169 2.07056,0.74169 0.43173,0 0.75276,-0.14391 0.75276,-0.46494 0,-0.95248 -3.089,-0.4428 -3.089,-2.535498 0,-1.228774 1.05165,-1.859766 2.34731,-1.859766 0.81918,0 1.66097,0.24354 2.3247,0.664202 l -0.58624,1.162814 c -0.65314,-0.365772 -1.3178,-0.576103 -1.81595,-0.576103"
       style="fill:#000000;fill-opacity:1;fill-rule:nonzero;stroke:none;stroke-width:0.46125123"
       id="path4576"
       inkscape:connector-curvature="0" />
    <path
       d="m 165.55228,96.080334 c 0,0.487081 -0.34317,0.852392 -0.83071,0.852392 -0.48662,0 -0.83025,-0.365311 -0.83025,-0.852392 0,-0.498151 0.34363,-0.852393 0.83025,-0.852393 0.48754,0 0.83071,0.354242 0.83071,0.852393 m 0.0221,7.649856 h -1.70478 v -5.956141 h 1.70478 z"
       style="fill:#000000;fill-opacity:1;fill-rule:nonzero;stroke:none;stroke-width:0.46125123"
       id="path4580"
       inkscape:connector-curvature="0" />
    <path
       d="m 170.83283,100.5863 c 0,-0.918817 -0.56503,-1.549809 -1.39482,-1.549809 -0.83025,0 -1.39528,0.642062 -1.40636,1.549809 0.0105,0.90774 0.56457,1.53873 1.40636,1.53873 0.82979,0 1.39482,-0.63099 1.39482,-1.53873 m 1.69372,-2.812253 v 5.402633 c 0,1.69418 -1.27306,2.76797 -3.17757,2.76797 -1.00691,0 -1.90404,-0.32103 -2.59039,-0.78597 l 0.631,-1.19602 c 0.54243,0.3879 1.17342,0.59824 1.8487,0.59824 0.97415,0 1.59454,-0.52076 1.59454,-1.32887 v -0.67527 c -0.39852,0.5535 -1.00783,0.86392 -1.7938,0.86392 -1.53874,0 -2.60146,-1.15174 -2.60146,-2.87866 0,-1.68311 1.04104,-2.823324 2.55763,-2.823324 0.80812,-0.01111 1.42758,0.310423 1.83763,0.863463 v -0.808112 z"
       style="fill:#000000;fill-opacity:1;fill-rule:nonzero;stroke:none;stroke-width:0.46125123"
       id="path4584"
       inkscape:connector-curvature="0" />
    <path
       d="m 179.76598,99.988331 v 3.742129 h -1.70479 v -3.24398 c 0,-0.75276 -0.44281,-1.217702 -1.17343,-1.217702 -0.85284,0.01111 -1.36161,0.653133 -1.36161,1.527662 v 2.93402 h -1.70525 v -5.956136 h 1.70525 v 1.040584 c 0.42067,-0.741693 1.12914,-1.095933 2.05857,-1.107004 1.32886,0 2.18126,0.885604 2.18126,2.280427"
       style="fill:#000000;fill-opacity:1;fill-rule:nonzero;stroke:none;stroke-width:0.46125123"
       id="path4588"
       inkscape:connector-curvature="0" />
    <path
       d="m 73.742122,107.53482 c -0.913278,0 -1.511979,0.36531 -1.511979,0.97416 0,1.84731 3.998584,0.88284 3.988438,3.46076 0,1.17757 -1.045193,1.93865 -2.567787,1.93865 -1.035047,0 -2.050259,-0.44649 -2.719995,-1.08579 l 0.365311,-0.70064 c 0.66005,0.62961 1.563178,0.99492 2.364834,0.99492 1.025362,0 1.664656,-0.41604 1.664656,-1.10654 0.0102,-1.89759 -3.988902,-0.89299 -3.988902,-3.44047 0,-1.11623 0.984773,-1.82656 2.456163,-1.82656 0.82241,0 1.664656,0.26384 2.253211,0.65959 l -0.345015,0.72047 c -0.639753,-0.41605 -1.390673,-0.58855 -1.958935,-0.58855"
       style="fill:#000000;fill-opacity:1;fill-rule:nonzero;stroke:none;stroke-width:0.46125123"
       id="path4592"
       inkscape:connector-curvature="0" />
    <path
       d="m 82.408158,108.53952 v 5.33852 H 81.61665 v -1.20756 c -0.355161,0.8321 -1.065491,1.22785 -2.029504,1.238 -1.248609,0 -1.999523,-0.79197 -1.999523,-2.0807 v -3.28826 h 0.791506 v 3.08531 c 0,0.95386 0.558574,1.52259 1.482,1.52259 1.106081,-0.0208 1.755521,-0.83257 1.755521,-1.98938 v -2.61852 z"
       style="fill:#000000;fill-opacity:1;fill-rule:nonzero;stroke:none;stroke-width:0.46125123"
       id="path4596"
       inkscape:connector-curvature="0" />
    <path
       d="m 93.175052,110.58968 v 3.28827 h -0.791508 v -3.08531 c 0,-0.96402 -0.558112,-1.53228 -1.482,-1.53228 -1.106079,0.0305 -1.745373,0.8321 -1.745373,1.98892 v 2.62867 h -0.801654 v -3.08531 c 0,-0.96402 -0.54843,-1.53228 -1.482,-1.53228 -1.095933,0.0305 -1.755984,0.8321 -1.755984,1.98892 v 2.62867 h -0.78136 v -5.33852 h 0.78136 v 1.20801 c 0.355625,-0.83256 1.076097,-1.22832 2.040113,-1.23846 1.005066,0 1.695099,0.50738 1.918343,1.39068 0.334869,-0.93404 1.085787,-1.38054 2.111149,-1.39068 1.248146,0 1.988914,0.78182 1.988914,2.0807"
       style="fill:#000000;fill-opacity:1;fill-rule:nonzero;stroke:none;stroke-width:0.46125123"
       id="path4600"
       inkscape:connector-curvature="0" />
    <path
       d="m 103.76898,110.58968 v 3.28827 h -0.79151 v -3.08531 c 0,-0.96402 -0.55811,-1.53228 -1.482,-1.53228 -1.10608,0.0305 -1.745374,0.8321 -1.745374,1.98892 v 2.62867 h -0.801653 v -3.08531 c 0,-0.96402 -0.54843,-1.53228 -1.482,-1.53228 -1.095933,0.0305 -1.755984,0.8321 -1.755984,1.98892 v 2.62867 h -0.781361 v -5.33852 h 0.781361 v 1.20801 c 0.355624,-0.83256 1.076096,-1.22832 2.040113,-1.23846 1.005066,0 1.695098,0.50738 1.918343,1.39068 0.334865,-0.93404 1.085785,-1.38054 2.111145,-1.39068 1.24815,0 1.98892,0.78182 1.98892,2.0807"
       style="fill:#000000;fill-opacity:1;fill-rule:nonzero;stroke:none;stroke-width:0.46125123"
       id="path4604"
       inkscape:connector-curvature="0" />
    <path
       d="m 106.30457,113.87771 h -0.78136 v -5.33852 h 0.78136 z m 0.12176,-6.8708 c 0,0.30489 -0.22324,0.53782 -0.51752,0.53782 -0.29428,0 -0.51753,-0.23293 -0.51753,-0.53782 0,-0.31456 0.22325,-0.53782 0.51753,-0.53782 0.29428,0 0.51752,0.22326 0.51752,0.53782"
       style="fill:#000000;fill-opacity:1;fill-rule:nonzero;stroke:none;stroke-width:0.46125123"
       id="path4606"
       inkscape:connector-curvature="0" />
    <path
       d="m 110.99314,113.51259 c -0.37546,0.25369 -0.78136,0.39575 -1.20755,0.39575 -0.78136,0.0105 -1.35977,-0.45664 -1.35977,-1.51198 v -3.07516 h -0.77168 v -0.61946 h 0.77168 v -1.40036 h 0.78089 v 1.40036 h 1.6951 v 0.61946 h -1.6951 v 2.94278 c 0,0.6499 0.25415,0.91373 0.71079,0.91373 0.27399,-0.0105 0.55812,-0.10146 0.8524,-0.27398 z"
       style="fill:#000000;fill-opacity:1;fill-rule:nonzero;stroke:none;stroke-width:0.46125123"
       id="path4610"
       inkscape:connector-curvature="0" />
    <path
       d="m 118.64433,108.58006 c 0,-0.70018 -0.56826,-1.11623 -1.50229,-1.11623 -0.66974,0 -1.4308,0.33487 -2.01936,0.87269 l -0.35516,-0.619 c 0.71032,-0.60886 1.6033,-0.98432 2.47645,-0.98432 1.34963,0 2.24261,0.6799 2.24261,1.74538 0,0.66974 -0.52767,1.49215 -1.30904,2.30395 l -2.30395,2.34409 h 4.03918 v 0.75137 h -5.07422 v -0.65959 l 2.78042,-2.88236 c 0.61946,-0.6296 1.02536,-1.28919 1.02536,-1.75598"
       style="fill:#000000;fill-opacity:1;fill-rule:nonzero;stroke:none;stroke-width:0.46125123"
       id="path4614"
       inkscape:connector-curvature="0" />
    <path
       d="m 121.84061,110.31561 c 0,1.93864 0.619,2.92294 1.82656,2.92294 1.18726,0 1.81641,-0.9843 1.81641,-2.92294 0,-1.93864 -0.62915,-2.90266 -1.81641,-2.90266 -1.20756,0 -1.82656,0.96402 -1.82656,2.90266 m 4.45524,0 c 0,2.30395 -0.94419,3.58254 -2.62868,3.58254 -1.69509,0 -2.63882,-1.27859 -2.63882,-3.58254 0,-2.2938 0.94373,-3.57239 2.63882,-3.57239 1.68449,0 2.62868,1.27859 2.62868,3.57239"
       style="fill:#000000;fill-opacity:1;fill-rule:nonzero;stroke:none;stroke-width:0.46125123"
       id="path4618"
       inkscape:connector-curvature="0" />
    <path
       d="m 130.43595,106.76342 v 7.11435 h -0.81227 v -6.36344 h -1.67435 v -0.75091 z"
       style="fill:#000000;fill-opacity:1;fill-rule:nonzero;stroke:none;stroke-width:0.46125123"
       id="path4622"
       inkscape:connector-curvature="0" />
    <path
       d="m 138.85876,106.76342 v 0.65959 l -3.17664,6.45476 h -0.863 l 3.1568,-6.36344 h -3.63373 v 1.04566 h -0.73063 v -1.79657 z"
       style="fill:#000000;fill-opacity:1;fill-rule:nonzero;stroke:none;stroke-width:0.46125123"
       id="path4626"
       inkscape:connector-curvature="0" />
  </g>
</svg>
