<?xml version="1.0" encoding="UTF-8" standalone="no"?>
<!-- Created with Inkscape (http://www.inkscape.org/) -->

<svg
   xmlns:dc="http://purl.org/dc/elements/1.1/"
   xmlns:cc="http://creativecommons.org/ns#"
   xmlns:rdf="http://www.w3.org/1999/02/22-rdf-syntax-ns#"
   xmlns:svg="http://www.w3.org/2000/svg"
   xmlns="http://www.w3.org/2000/svg"
   xmlns:sodipodi="http://sodipodi.sourceforge.net/DTD/sodipodi-0.dtd"
   xmlns:inkscape="http://www.inkscape.org/namespaces/inkscape"
   width="49.322212mm"
   height="35.631615mm"
   viewBox="0 0 49.322214 35.631614"
   version="1.1"
   id="svg4744"
   inkscape:version="0.92.1 r"
   sodipodi:docname="icon black.svg"
   inkscape:export-filename="/home/anxhelo/Documents/ura works folder/OSD Summit/vertical white.png"
   inkscape:export-xdpi="141.06"
   inkscape:export-ydpi="141.06">
  <defs
     id="defs4738" />
  <sodipodi:namedview
     id="base"
     pagecolor="#ffffff"
     bordercolor="#666666"
     borderopacity="1.0"
     inkscape:pageopacity="0.0"
     inkscape:pageshadow="2"
     inkscape:zoom="0.7"
     inkscape:cx="-42.744818"
     inkscape:cy="152.79923"
     inkscape:document-units="mm"
     inkscape:current-layer="layer1"
     showgrid="false"
     fit-margin-top="0"
     fit-margin-left="0"
     fit-margin-right="0"
     fit-margin-bottom="0"
     inkscape:window-width="1366"
     inkscape:window-height="740"
     inkscape:window-x="0"
     inkscape:window-y="0"
     inkscape:window-maximized="1" />
  <metadata
     id="metadata4741">
    <rdf:RDF>
      <cc:Work
         rdf:about="">
        <dc:format>image/svg+xml</dc:format>
        <dc:type
           rdf:resource="http://purl.org/dc/dcmitype/StillImage" />
        <dc:title></dc:title>
      </cc:Work>
    </rdf:RDF>
  </metadata>
  <g
     inkscape:label="Layer 1"
     inkscape:groupmode="layer"
     id="layer1"
     transform="translate(-84.294387,-75.437447)">
    <g
       id="g4628"
       transform="matrix(0.35277777,0,0,-0.35277777,133.6166,111.06906)">
      <path
         d="M 0,0 -58.314,101.003 -85.37,54.141 -96.961,74.218 -139.811,0 h 23.183 37.536 c 0.554,1.495 7.072,19.023 7.976,20.367 0,0 -8.146,1.839 -7.916,15.144 0.23,13.305 10.419,20.072 10.419,20.072 0,0 -1.788,-10.215 6.307,-13.994 0,0 7.789,-2.222 7.662,-10.062 -0.154,-7.84 -5.031,-10.189 -7.534,-11.262 0.896,-1.318 7.167,-18.209 7.941,-20.265 h 0.125 z"
         style="fill:#000000;fill-opacity:1;fill-rule:nonzero;stroke:none"
         id="path4630"
         inkscape:connector-curvature="0" />
    </g>
  </g>
</svg>
