<?xml version="1.0" encoding="UTF-8" standalone="no"?>
<!-- Generator: Gravit.io -->

<svg
   xmlns:dc="http://purl.org/dc/elements/1.1/"
   xmlns:cc="http://creativecommons.org/ns#"
   xmlns:rdf="http://www.w3.org/1999/02/22-rdf-syntax-ns#"
   xmlns:svg="http://www.w3.org/2000/svg"
   xmlns="http://www.w3.org/2000/svg"
   xmlns:sodipodi="http://sodipodi.sourceforge.net/DTD/sodipodi-0.dtd"
   xmlns:inkscape="http://www.inkscape.org/namespaces/inkscape"
   style="isolation:isolate"
   viewBox="0 0 288.24 144"
   width="288.24"
   height="144"
   version="1.1"
   id="svg577"
   sodipodi:docname="Image Box.svg"
   inkscape:version="0.92.3 (2405546, 2018-03-11)"
   inkscape:export-filename="/home/anxhelo/Desktop/RUST LATAM Assets/PNG/Image Box/Image Box.png"
   inkscape:export-xdpi="384"
   inkscape:export-ydpi="384">
  <metadata
     id="metadata581">
    <rdf:RDF>
      <cc:Work
         rdf:about="">
        <dc:format>image/svg+xml</dc:format>
        <dc:type
           rdf:resource="http://purl.org/dc/dcmitype/StillImage" />
        <dc:title></dc:title>
      </cc:Work>
    </rdf:RDF>
  </metadata>
  <sodipodi:namedview
     pagecolor="#ffffff"
     bordercolor="#666666"
     borderopacity="1"
     objecttolerance="10"
     gridtolerance="10"
     guidetolerance="10"
     inkscape:pageopacity="0"
     inkscape:pageshadow="2"
     inkscape:window-width="1366"
     inkscape:window-height="715"
     id="namedview579"
     showgrid="false"
     inkscape:zoom="1.9705801"
     inkscape:cx="80.406765"
     inkscape:cy="82.916667"
     inkscape:window-x="0"
     inkscape:window-y="0"
     inkscape:window-maximized="1"
     inkscape:current-layer="g575" />
  <defs
     id="defs5">
    <clipPath
       id="_clipPath_wDDPbhHT4S3bQLYoVaOLgMWpk07BOGFj">
      <rect
         width="288.24"
         height="144"
         id="rect2" />
    </clipPath>
  </defs>
  <g
     clip-path="url(#_clipPath_wDDPbhHT4S3bQLYoVaOLgMWpk07BOGFj)"
     id="g575">
    <path
       d="m 0.24,126 v 18 h 18 z"
       id="path7"
       inkscape:connector-curvature="0"
       style="fill:#273b91" />
    <path
       d="m 18.24,144 v -18 h -18 z"
       id="path9"
       inkscape:connector-curvature="0"
       style="fill:#0059a8" />
    <path
       d="m 18.24,126 v 18 h 18 z"
       id="path11"
       inkscape:connector-curvature="0"
       style="fill:#0059a8" />
    <path
       d="m 36.24,144 v -18 h -18 z"
       id="path13"
       inkscape:connector-curvature="0"
       style="fill:#273b91" />
    <path
       d="m 0.24,108 v 18 h 18 z"
       id="path15"
       inkscape:connector-curvature="0"
       style="fill:#1ba591" />
    <path
       d="m 18.24,126 v -18 h -18 z"
       id="path17"
       inkscape:connector-curvature="0"
       style="fill:#1eb69f" />
    <path
       d="m 18.24,108 v 18 h 18 z"
       id="path19"
       inkscape:connector-curvature="0"
       style="fill:#273b91" />
    <path
       d="m 36.24,126 v -18 h -18 z"
       id="path21"
       inkscape:connector-curvature="0"
       style="fill:#0059a8" />
    <path
       d="m 0.24,90 v 18 h 18 z"
       id="path23"
       inkscape:connector-curvature="0"
       style="fill:#0059a8" />
    <path
       d="M 18.24,108 V 90 h -18 z"
       id="path25"
       inkscape:connector-curvature="0"
       style="fill:#273b91" />
    <path
       d="m 18.24,90 v 18 h 18 z"
       id="path27"
       inkscape:connector-curvature="0"
       style="fill:#0059a8" />
    <path
       d="M 36.24,108 V 90 h -18 z"
       id="path29"
       inkscape:connector-curvature="0"
       style="fill:#273b91" />
    <path
       d="m 0.24,72 v 18 h 18 z"
       id="path31"
       inkscape:connector-curvature="0"
       style="fill:#d13d5c" />
    <path
       d="M 18.24,90 V 72 h -18 z"
       id="path33"
       inkscape:connector-curvature="0"
       style="fill:#e74365" />
    <path
       d="m 18.24,72 v 18 h 18 z"
       id="path35"
       inkscape:connector-curvature="0"
       style="fill:#fbe372" />
    <path
       d="M 36.24,90 V 72 h -18 z"
       id="path37"
       inkscape:connector-curvature="0"
       style="fill:#ffc84b" />
    <path
       d="m 36.24,126 v 18 h 18 z"
       id="path39"
       inkscape:connector-curvature="0"
       style="fill:#273b91" />
    <path
       d="m 54.24,144 v -18 h -18 z"
       id="path41"
       inkscape:connector-curvature="0"
       style="fill:#0059a8" />
    <path
       d="m 54.24,126 v 18 h 18 z"
       id="path43"
       inkscape:connector-curvature="0"
       style="fill:#1eb69f" />
    <path
       d="m 72.24,144 v -18 h -18 z"
       id="path45"
       inkscape:connector-curvature="0"
       style="fill:#1ba591" />
    <path
       d="m 36.24,108 v 18 h 18 z"
       id="path47"
       inkscape:connector-curvature="0"
       style="fill:#e74365" />
    <path
       d="m 54.24,126 v -18 h -18 z"
       id="path49"
       inkscape:connector-curvature="0"
       style="fill:#d13d5c" />
    <path
       d="m 54.24,108 v 18 h 18 z"
       id="path51"
       inkscape:connector-curvature="0"
       style="fill:#e74365" />
    <path
       d="m 72.24,126 v -18 h -18 z"
       id="path53"
       inkscape:connector-curvature="0"
       style="fill:#e74365" />
    <path
       d="m 36.24,90 v 18 h 18 z"
       id="path55"
       inkscape:connector-curvature="0"
       style="fill:#273b91" />
    <path
       d="M 54.24,108 V 90 h -18 z"
       id="path57"
       inkscape:connector-curvature="0"
       style="fill:#0059a8" />
    <path
       d="m 54.24,90 v 18 h 18 z"
       id="path59"
       inkscape:connector-curvature="0"
       style="fill:#fbe372" />
    <path
       d="M 72.24,108 V 90 h -18 z"
       id="path61"
       inkscape:connector-curvature="0"
       style="fill:#ffc84b" />
    <path
       d="m 36.24,72 v 18 h 18 z"
       id="path63"
       inkscape:connector-curvature="0"
       style="fill:#1eb69f" />
    <path
       d="M 54.24,90 V 72 h -18 z"
       id="path65"
       inkscape:connector-curvature="0"
       style="fill:#1ba591" />
    <path
       d="m 54.24,72 v 18 h 18 z"
       id="path67"
       inkscape:connector-curvature="0"
       style="fill:#fbe372" />
    <path
       d="M 72.24,90 V 72 h -18 z"
       id="path69"
       inkscape:connector-curvature="0"
       style="fill:#ffc84b" />
    <path
       d="m 72.24,126 v 18 h 18 z"
       id="path71"
       inkscape:connector-curvature="0"
       style="fill:#273b91" />
    <path
       d="m 90.24,144 v -18 h -18 z"
       id="path73"
       inkscape:connector-curvature="0"
       style="fill:#0059a8" />
    <path
       d="m 90.24,126 v 18 h 18 z"
       id="path75"
       inkscape:connector-curvature="0"
       style="fill:#fbe372" />
    <path
       d="m 108.24,144 v -18 h -18 z"
       id="path77"
       inkscape:connector-curvature="0"
       style="fill:#ffc84b" />
    <path
       d="m 72.24,108 v 18 h 18 z"
       id="path79"
       inkscape:connector-curvature="0"
       style="fill:#1ba591" />
    <path
       d="m 90.24,126 v -18 h -18 z"
       id="path81"
       inkscape:connector-curvature="0"
       style="fill:#1eb69f" />
    <path
       d="m 90.24,108 v 18 h 18 z"
       id="path83"
       inkscape:connector-curvature="0"
       style="fill:#1eb69f" />
    <path
       d="m 108.24,126 v -18 h -18 z"
       id="path85"
       inkscape:connector-curvature="0"
       style="fill:#1ba591" />
    <path
       d="m 72.24,90 v 18 h 18 z"
       id="path87"
       inkscape:connector-curvature="0"
       style="fill:#ffc84b" />
    <path
       d="M 90.24,108 V 90 h -18 z"
       id="path89"
       inkscape:connector-curvature="0"
       style="fill:#fbe372" />
    <path
       d="m 90.24,90 v 18 h 18 z"
       id="path91"
       inkscape:connector-curvature="0"
       style="fill:#fbe372" />
    <path
       d="M 108.24,108 V 90 h -18 z"
       id="path93"
       inkscape:connector-curvature="0"
       style="fill:#ffc84b" />
    <path
       d="m 72.24,72 v 18 h 18 z"
       id="path95"
       inkscape:connector-curvature="0"
       style="fill:#e74365" />
    <path
       d="M 90.24,90 V 72 h -18 z"
       id="path97"
       inkscape:connector-curvature="0"
       style="fill:#d13d5c" />
    <path
       d="m 90.24,72 v 18 h 18 z"
       id="path99"
       inkscape:connector-curvature="0"
       style="fill:#ffc84b" />
    <path
       d="M 108.24,90 V 72 h -18 z"
       id="path101"
       inkscape:connector-curvature="0"
       style="fill:#fbe372" />
    <path
       d="m 108.24,126 v 18 h 18 z"
       id="path103"
       inkscape:connector-curvature="0"
       style="fill:#ffc84b" />
    <path
       d="m 126.24,144 v -18 h -18 z"
       id="path105"
       inkscape:connector-curvature="0"
       style="fill:#fbe372" />
    <path
       d="m 126.24,126 v 18 h 18 z"
       id="path107"
       inkscape:connector-curvature="0"
       style="fill:#1ba591" />
    <path
       d="m 144.24,144 v -18 h -18 z"
       id="path109"
       inkscape:connector-curvature="0"
       style="fill:#1eb69f" />
    <path
       d="m 108.24,108 v 18 h 18 z"
       id="path111"
       inkscape:connector-curvature="0"
       style="fill:#1ba591" />
    <path
       d="m 126.24,126 v -18 h -18 z"
       id="path113"
       inkscape:connector-curvature="0"
       style="fill:#1eb69f" />
    <path
       d="m 126.24,108 v 18 h 18 z"
       id="path115"
       inkscape:connector-curvature="0"
       style="fill:#e74365" />
    <path
       d="m 144.24,126 v -18 h -18 z"
       id="path117"
       inkscape:connector-curvature="0"
       style="fill:#e74365" />
    <path
       d="m 108.24,90 v 18 h 18 z"
       id="path119"
       inkscape:connector-curvature="0"
       style="fill:#e74365" />
    <path
       d="M 126.24,108 V 90 h -18 z"
       id="path121"
       inkscape:connector-curvature="0"
       style="fill:#e74365" />
    <path
       d="m 126.24,90 v 18 h 18 z"
       id="path123"
       inkscape:connector-curvature="0"
       style="fill:#0059a8" />
    <path
       d="M 144.24,108 V 90 h -18 z"
       id="path125"
       inkscape:connector-curvature="0"
       style="fill:#273b91" />
    <path
       d="m 108.24,72 v 18 h 18 z"
       id="path127"
       inkscape:connector-curvature="0"
       style="fill:#d13d5c" />
    <path
       d="M 126.24,90 V 72 h -18 z"
       id="path129"
       inkscape:connector-curvature="0"
       style="fill:#e74365" />
    <path
       d="m 126.24,72 v 18 h 18 z"
       id="path131"
       inkscape:connector-curvature="0"
       style="fill:#1ba591" />
    <path
       d="M 144.24,90 V 72 h -18 z"
       id="path133"
       inkscape:connector-curvature="0"
       style="fill:#1eb69f" />
    <path
       d="m 0.24,54 v 18 h 18 z"
       id="path135"
       inkscape:connector-curvature="0"
       style="fill:#ffc84b" />
    <path
       d="M 18.24,72 V 54 h -18 z"
       id="path137"
       inkscape:connector-curvature="0"
       style="fill:#fbe372" />
    <path
       d="m 18.24,54 v 18 h 18 z"
       id="path139"
       inkscape:connector-curvature="0"
       style="fill:#d13d5c" />
    <path
       d="M 36.24,72 V 54 h -18 z"
       id="path141"
       inkscape:connector-curvature="0"
       style="fill:#e74365" />
    <path
       d="m 0.24,36 v 18 h 18 z"
       id="path143"
       inkscape:connector-curvature="0"
       style="fill:#1eb69f" />
    <path
       d="M 18.24,54 V 36 h -18 z"
       id="path145"
       inkscape:connector-curvature="0"
       style="fill:#1ba591" />
    <path
       d="m 18.24,36 v 18 h 18 z"
       id="path147"
       inkscape:connector-curvature="0"
       style="fill:#fbe372" />
    <path
       d="M 36.24,54 V 36 h -18 z"
       id="path149"
       inkscape:connector-curvature="0"
       style="fill:#ffc84b" />
    <path
       d="m 0.24,18 v 18 h 18 z"
       id="path151"
       inkscape:connector-curvature="0"
       style="fill:#e74365" />
    <path
       d="M 18.24,36 V 18 h -18 z"
       id="path153"
       inkscape:connector-curvature="0"
       style="fill:#d13d5c" />
    <path
       d="m 18.24,18 v 18 h 18 z"
       id="path155"
       inkscape:connector-curvature="0"
       style="fill:#273b91" />
    <path
       d="M 36.24,36 V 18 h -18 z"
       id="path157"
       inkscape:connector-curvature="0"
       style="fill:#0059a8" />
    <path
       d="m 0.24,0 v 18 h 18 z"
       id="path159"
       inkscape:connector-curvature="0"
       style="fill:#fbe372" />
    <path
       d="M 18.24,18 V 0 h -18 z"
       id="path161"
       inkscape:connector-curvature="0"
       style="fill:#ffc84b" />
    <path
       d="m 18.24,0 v 18 h 18 z"
       id="path163"
       inkscape:connector-curvature="0"
       style="fill:#1eb69f" />
    <path
       d="M 36.24,18 V 0 h -18 z"
       id="path165"
       inkscape:connector-curvature="0"
       style="fill:#1ba591" />
    <path
       d="m 36.24,54 v 18 h 18 z"
       id="path167"
       inkscape:connector-curvature="0"
       style="fill:#ffc84b" />
    <path
       d="M 54.24,72 V 54 h -18 z"
       id="path169"
       inkscape:connector-curvature="0"
       style="fill:#fbe372" />
    <path
       d="m 54.24,54 v 18 h 18 z"
       id="path171"
       inkscape:connector-curvature="0"
       style="fill:#fbe372" />
    <path
       d="M 72.24,72 V 54 h -18 z"
       id="path173"
       inkscape:connector-curvature="0"
       style="fill:#ffc84b" />
    <path
       d="m 36.24,36 v 18 h 18 z"
       id="path175"
       inkscape:connector-curvature="0"
       style="fill:#1eb69f" />
    <path
       d="M 54.24,54 V 36 h -18 z"
       id="path177"
       inkscape:connector-curvature="0"
       style="fill:#1ba591" />
    <path
       d="m 54.24,36 v 18 h 18 z"
       id="path179"
       inkscape:connector-curvature="0"
       style="fill:#e74365" />
    <path
       d="M 72.24,54 V 36 h -18 z"
       id="path181"
       inkscape:connector-curvature="0"
       style="fill:#e74365" />
    <path
       d="m 36.24,18 v 18 h 18 z"
       id="path183"
       inkscape:connector-curvature="0"
       style="fill:#0059a8" />
    <path
       d="M 54.24,36 V 18 h -18 z"
       id="path185"
       inkscape:connector-curvature="0"
       style="fill:#273b91" />
    <path
       d="m 54.24,18 v 18 h 18 z"
       id="path187"
       inkscape:connector-curvature="0"
       style="fill:#273b91" />
    <path
       d="M 72.24,36 V 18 h -18 z"
       id="path189"
       inkscape:connector-curvature="0"
       style="fill:#0059a8" />
    <path
       d="m 36.24,0 v 18 h 18 z"
       id="path191"
       inkscape:connector-curvature="0"
       style="fill:#273b91" />
    <path
       d="M 54.24,18 V 0 h -18 z"
       id="path193"
       inkscape:connector-curvature="0"
       style="fill:#0059a8" />
    <path
       d="m 54.24,0 v 18 h 18 z"
       id="path195"
       inkscape:connector-curvature="0"
       style="fill:#d13d5c" />
    <path
       d="M 72.24,18 V 0 h -18 z"
       id="path197"
       inkscape:connector-curvature="0"
       style="fill:#e74365" />
    <path
       d="m 72.24,54 v 18 h 18 z"
       id="path199"
       inkscape:connector-curvature="0"
       style="fill:#1ba591" />
    <path
       d="M 90.24,72 V 54 h -18 z"
       id="path201"
       inkscape:connector-curvature="0"
       style="fill:#1eb69f" />
    <path
       d="m 90.24,54 v 18 h 18 z"
       id="path203"
       inkscape:connector-curvature="0"
       style="fill:#1eb69f" />
    <path
       d="M 108.24,72 V 54 h -18 z"
       id="path205"
       inkscape:connector-curvature="0"
       style="fill:#1ba591" />
    <path
       d="m 72.24,36 v 18 h 18 z"
       id="path207"
       inkscape:connector-curvature="0"
       style="fill:#0059a8" />
    <path
       d="M 90.24,54 V 36 h -18 z"
       id="path209"
       inkscape:connector-curvature="0"
       style="fill:#273b91" />
    <path
       d="m 90.24,36 v 18 h 18 z"
       id="path211"
       inkscape:connector-curvature="0"
       style="fill:#0059a8" />
    <path
       d="M 108.24,54 V 36 h -18 z"
       id="path213"
       inkscape:connector-curvature="0"
       style="fill:#273b91" />
    <path
       d="m 72.24,18 v 18 h 18 z"
       id="path215"
       inkscape:connector-curvature="0"
       style="fill:#d13d5c" />
    <path
       d="M 90.24,36 V 18 h -18 z"
       id="path217"
       inkscape:connector-curvature="0"
       style="fill:#e74365" />
    <path
       d="m 90.24,18 v 18 h 18 z"
       id="path219"
       inkscape:connector-curvature="0"
       style="fill:#1eb69f" />
    <path
       d="M 108.24,36 V 18 h -18 z"
       id="path221"
       inkscape:connector-curvature="0"
       style="fill:#1ba591" />
    <path
       d="m 72.24,0 v 18 h 18 z"
       id="path223"
       inkscape:connector-curvature="0"
       style="fill:#0059a8" />
    <path
       d="M 90.24,18 V 0 h -18 z"
       id="path225"
       inkscape:connector-curvature="0"
       style="fill:#273b91" />
    <path
       d="m 90.24,0 v 18 h 18 z"
       id="path227"
       inkscape:connector-curvature="0"
       style="fill:#fbe372" />
    <path
       d="M 108.24,18 V 0 h -18 z"
       id="path229"
       inkscape:connector-curvature="0"
       style="fill:#ffc84b" />
    <path
       d="m 108.24,54 v 18 h 18 z"
       id="path231"
       inkscape:connector-curvature="0"
       style="fill:#0059a8" />
    <path
       d="M 126.24,72 V 54 h -18 z"
       id="path233"
       inkscape:connector-curvature="0"
       style="fill:#273b91" />
    <path
       d="m 126.24,54 v 18 h 18 z"
       id="path235"
       inkscape:connector-curvature="0"
       style="fill:#e74365" />
    <path
       d="M 144.24,72 V 54 h -18 z"
       id="path237"
       inkscape:connector-curvature="0"
       style="fill:#e74365" />
    <path
       d="m 108.24,36 v 18 h 18 z"
       id="path239"
       inkscape:connector-curvature="0"
       style="fill:#ffc84b" />
    <path
       d="M 126.24,54 V 36 h -18 z"
       id="path241"
       inkscape:connector-curvature="0"
       style="fill:#fbe372" />
    <path
       d="m 126.24,36 v 18 h 18 z"
       id="path243"
       inkscape:connector-curvature="0"
       style="fill:#1eb69f" />
    <path
       d="M 144.24,54 V 36 h -18 z"
       id="path245"
       inkscape:connector-curvature="0"
       style="fill:#1ba591" />
    <path
       d="m 108.24,18 v 18 h 18 z"
       id="path247"
       inkscape:connector-curvature="0"
       style="fill:#1eb69f" />
    <path
       d="M 126.24,36 V 18 h -18 z"
       id="path249"
       inkscape:connector-curvature="0"
       style="fill:#1ba591" />
    <path
       d="m 126.24,18 v 18 h 18 z"
       id="path251"
       inkscape:connector-curvature="0"
       style="fill:#1ba591" />
    <path
       d="M 144.24,36 V 18 h -18 z"
       id="path253"
       inkscape:connector-curvature="0"
       style="fill:#1eb69f" />
    <path
       d="m 108.24,0 v 18 h 18 z"
       id="path255"
       inkscape:connector-curvature="0"
       style="fill:#ffc84b" />
    <path
       d="M 126.24,18 V 0 h -18 z"
       id="path257"
       inkscape:connector-curvature="0"
       style="fill:#fbe372" />
    <path
       d="m 126.24,0 v 18 h 18 z"
       id="path259"
       inkscape:connector-curvature="0"
       style="fill:#0059a8" />
    <path
       d="M 144.24,18 V 0 h -18 z"
       id="path261"
       inkscape:connector-curvature="0"
       style="fill:#273b91" />
    <path
       d="m 144.24,126 v 18 h 18 z"
       id="path263"
       inkscape:connector-curvature="0"
       style="fill:#1eb69f" />
    <path
       d="m 162.24,144 v -18 h -18 z"
       id="path265"
       inkscape:connector-curvature="0"
       style="fill:#1ba591" />
    <path
       d="m 162.24,126 v 18 h 18 z"
       id="path267"
       inkscape:connector-curvature="0"
       style="fill:#1ba591" />
    <path
       d="m 180.24,144 v -18 h -18 z"
       id="path269"
       inkscape:connector-curvature="0"
       style="fill:#1eb69f" />
    <path
       d="m 144.24,108 v 18 h 18 z"
       id="path271"
       inkscape:connector-curvature="0"
       style="fill:#d13d5c" />
    <path
       d="m 162.24,126 v -18 h -18 z"
       id="path273"
       inkscape:connector-curvature="0"
       style="fill:#e74365" />
    <path
       d="m 162.24,108 v 18 h 18 z"
       id="path275"
       inkscape:connector-curvature="0"
       style="fill:#0059a8" />
    <path
       d="m 180.24,126 v -18 h -18 z"
       id="path277"
       inkscape:connector-curvature="0"
       style="fill:#273b91" />
    <path
       d="m 180.24,126 v 18 h 18 z"
       id="path279"
       inkscape:connector-curvature="0"
       style="fill:#273b91" />
    <path
       d="m 198.24,144 v -18 h -18 z"
       id="path281"
       inkscape:connector-curvature="0"
       style="fill:#0059a8" />
    <path
       d="m 198.24,126 v 18 h 18 z"
       id="path283"
       inkscape:connector-curvature="0"
       style="fill:#0059a8" />
    <path
       d="m 216.24,144 v -18 h -18 z"
       id="path285"
       inkscape:connector-curvature="0"
       style="fill:#273b91" />
    <path
       d="m 180.24,108 v 18 h 18 z"
       id="path287"
       inkscape:connector-curvature="0"
       style="fill:#1ba591" />
    <path
       d="m 198.24,126 v -18 h -18 z"
       id="path289"
       inkscape:connector-curvature="0"
       style="fill:#1eb69f" />
    <path
       d="m 198.24,108 v 18 h 18 z"
       id="path291"
       inkscape:connector-curvature="0"
       style="fill:#273b91" />
    <path
       d="m 216.24,126 v -18 h -18 z"
       id="path293"
       inkscape:connector-curvature="0"
       style="fill:#0059a8" />
    <path
       d="m 144.24,90 v 18 h 18 z"
       id="path295"
       inkscape:connector-curvature="0"
       style="fill:#e74365" />
    <path
       d="M 162.24,108 V 90 h -18 z"
       id="path297"
       inkscape:connector-curvature="0"
       style="fill:#d13d5c" />
    <path
       d="m 162.24,90 v 18 h 18 z"
       id="path299"
       inkscape:connector-curvature="0"
       style="fill:#273b91" />
    <path
       d="M 180.24,108 V 90 h -18 z"
       id="path301"
       inkscape:connector-curvature="0"
       style="fill:#0059a8" />
    <path
       d="m 144.24,72 v 18 h 18 z"
       id="path303"
       inkscape:connector-curvature="0"
       style="fill:#fbe372" />
    <path
       d="M 162.24,90 V 72 h -18 z"
       id="path305"
       inkscape:connector-curvature="0"
       style="fill:#ffc84b" />
    <path
       d="m 162.24,72 v 18 h 18 z"
       id="path307"
       inkscape:connector-curvature="0"
       style="fill:#1eb69f" />
    <path
       d="M 180.24,90 V 72 h -18 z"
       id="path309"
       inkscape:connector-curvature="0"
       style="fill:#1ba591" />
    <path
       d="m 180.24,90 v 18 h 18 z"
       id="path311"
       inkscape:connector-curvature="0"
       style="fill:#ffc84b" />
    <path
       d="M 198.24,108 V 90 h -18 z"
       id="path313"
       inkscape:connector-curvature="0"
       style="fill:#fbe372" />
    <path
       d="m 198.24,90 v 18 h 18 z"
       id="path315"
       inkscape:connector-curvature="0"
       style="fill:#d13d5c" />
    <path
       d="M 216.24,108 V 90 h -18 z"
       id="path317"
       inkscape:connector-curvature="0"
       style="fill:#e74365" />
    <path
       d="m 180.24,72 v 18 h 18 z"
       id="path319"
       inkscape:connector-curvature="0"
       style="fill:#1eb69f" />
    <path
       d="M 198.24,90 V 72 h -18 z"
       id="path321"
       inkscape:connector-curvature="0"
       style="fill:#1ba591" />
    <path
       d="m 198.24,72 v 18 h 18 z"
       id="path323"
       inkscape:connector-curvature="0"
       style="fill:#fbe372" />
    <path
       d="M 216.24,90 V 72 h -18 z"
       id="path325"
       inkscape:connector-curvature="0"
       style="fill:#ffc84b" />
    <path
       d="m 144.24,54 v 18 h 18 z"
       id="path327"
       inkscape:connector-curvature="0"
       style="fill:#1ba591" />
    <path
       d="M 162.24,72 V 54 h -18 z"
       id="path329"
       inkscape:connector-curvature="0"
       style="fill:#1eb69f" />
    <path
       d="m 162.24,54 v 18 h 18 z"
       id="path331"
       inkscape:connector-curvature="0"
       style="fill:#273b91" />
    <path
       d="M 180.24,72 V 54 h -18 z"
       id="path333"
       inkscape:connector-curvature="0"
       style="fill:#e74365" />
    <path
       d="m 144.24,36 v 18 h 18 z"
       id="path335"
       inkscape:connector-curvature="0"
       style="fill:#ffc84b" />
    <path
       d="M 162.24,54 V 36 h -18 z"
       id="path337"
       inkscape:connector-curvature="0"
       style="fill:#fbe372" />
    <path
       d="m 162.24,36 v 18 h 18 z"
       id="path339"
       inkscape:connector-curvature="0"
       style="fill:#fbe372" />
    <path
       d="M 180.24,54 V 36 h -18 z"
       id="path341"
       inkscape:connector-curvature="0"
       style="fill:#ffc84b" />
    <path
       d="m 144.24,18 v 18 h 18 z"
       id="path343"
       inkscape:connector-curvature="0"
       style="fill:#e74365" />
    <path
       d="M 162.24,36 V 18 h -18 z"
       id="path345"
       inkscape:connector-curvature="0"
       style="fill:#d13d5c" />
    <path
       d="m 162.24,18 v 18 h 18 z"
       id="path347"
       inkscape:connector-curvature="0"
       style="fill:#ffc84b" />
    <path
       d="M 180.24,36 V 18 h -18 z"
       id="path349"
       inkscape:connector-curvature="0"
       style="fill:#fbe372" />
    <path
       d="m 180.24,54 v 18 h 18 z"
       id="path351"
       inkscape:connector-curvature="0"
       style="fill:#1ba591" />
    <path
       d="M 198.24,72 V 54 h -18 z"
       id="path353"
       inkscape:connector-curvature="0"
       style="fill:#1eb69f" />
    <path
       d="m 198.24,54 v 18 h 18 z"
       id="path355"
       inkscape:connector-curvature="0"
       style="fill:#e74365" />
    <path
       d="M 216.24,72 V 54 h -18 z"
       id="path357"
       inkscape:connector-curvature="0"
       style="fill:#e74365" />
    <path
       d="m 180.24,36 v 18 h 18 z"
       id="path359"
       inkscape:connector-curvature="0"
       style="fill:#e74365" />
    <path
       d="M 198.24,54 V 36 h -18 z"
       id="path361"
       inkscape:connector-curvature="0"
       style="fill:#e74365" />
    <path
       d="m 198.24,36 v 18 h 18 z"
       id="path363"
       inkscape:connector-curvature="0"
       style="fill:#0059a8" />
    <path
       d="M 216.24,54 V 36 h -18 z"
       id="path365"
       inkscape:connector-curvature="0"
       style="fill:#273b91" />
    <path
       d="m 180.24,18 v 18 h 18 z"
       id="path367"
       inkscape:connector-curvature="0"
       style="fill:#d13d5c" />
    <path
       d="M 198.24,36 V 18 h -18 z"
       id="path369"
       inkscape:connector-curvature="0"
       style="fill:#e74365" />
    <path
       d="m 198.24,18 v 18 h 18 z"
       id="path371"
       inkscape:connector-curvature="0"
       style="fill:#1ba591" />
    <path
       d="M 216.24,36 V 18 h -18 z"
       id="path373"
       inkscape:connector-curvature="0"
       style="fill:#1eb69f" />
    <path
       d="m 144.24,0 v 18 h 18 z"
       id="path375"
       inkscape:connector-curvature="0"
       style="fill:#1ba591" />
    <path
       d="M 162.24,18 V 0 h -18 z"
       id="path377"
       inkscape:connector-curvature="0"
       style="fill:#1eb69f" />
    <path
       d="m 162.24,0 v 18 h 18 z"
       id="path379"
       inkscape:connector-curvature="0"
       style="fill:#1eb69f" />
    <path
       d="M 180.24,18 V 0 h -18 z"
       id="path381"
       inkscape:connector-curvature="0"
       style="fill:#1ba591" />
    <path
       d="m 180.24,0 v 18 h 18 z"
       id="path383"
       inkscape:connector-curvature="0"
       style="fill:#0059a8" />
    <path
       d="M 198.24,18 V 0 h -18 z"
       id="path385"
       inkscape:connector-curvature="0"
       style="fill:#273b91" />
    <path
       d="m 198.24,0 v 18 h 18 z"
       id="path387"
       inkscape:connector-curvature="0"
       style="fill:#fbe372" />
    <path
       d="M 216.24,18 V 0 h -18 z"
       id="path389"
       inkscape:connector-curvature="0"
       style="fill:#ffc84b" />
    <path
       d="m 216.24,126 v 18 h 18 z"
       id="path391"
       inkscape:connector-curvature="0"
       style="fill:#1ba591" />
    <path
       d="m 234.24,144 v -18 h -18 z"
       id="path393"
       inkscape:connector-curvature="0"
       style="fill:#1eb69f" />
    <path
       d="m 234.24,126 v 18 h 18 z"
       id="path395"
       inkscape:connector-curvature="0"
       style="fill:#0059a8" />
    <path
       d="m 252.24,144 v -18 h -18 z"
       id="path397"
       inkscape:connector-curvature="0"
       style="fill:#273b91" />
    <path
       d="m 216.24,108 v 18 h 18 z"
       id="path399"
       inkscape:connector-curvature="0"
       style="fill:#d13d5c" />
    <path
       d="m 234.24,126 v -18 h -18 z"
       id="path401"
       inkscape:connector-curvature="0"
       style="fill:#e74365" />
    <path
       d="m 234.24,108 v 18 h 18 z"
       id="path403"
       inkscape:connector-curvature="0"
       style="fill:#fbe372" />
    <path
       d="m 252.24,126 v -18 h -18 z"
       id="path405"
       inkscape:connector-curvature="0"
       style="fill:#ffc84b" />
    <path
       d="m 252.24,126 v 18 h 18 z"
       id="path407"
       inkscape:connector-curvature="0"
       style="fill:#273b91" />
    <path
       d="m 270.24,144 v -18 h -18 z"
       id="path409"
       inkscape:connector-curvature="0"
       style="fill:#0059a8" />
    <path
       d="m 270.24,126 v 18 h 18 z"
       id="path411"
       inkscape:connector-curvature="0"
       style="fill:#fbe372" />
    <path
       d="m 288.24,144 v -18 h -18 z"
       id="path413"
       inkscape:connector-curvature="0"
       style="fill:#ffc84b" />
    <path
       d="m 252.24,108 v 18 h 18 z"
       id="path415"
       inkscape:connector-curvature="0"
       style="fill:#1eb69f" />
    <path
       d="m 270.24,126 v -18 h -18 z"
       id="path417"
       inkscape:connector-curvature="0"
       style="fill:#1ba591" />
    <path
       d="m 270.24,108 v 18 h 18 z"
       id="path419"
       inkscape:connector-curvature="0"
       style="fill:#fbe372" />
    <path
       d="m 288.24,126 v -18 h -18 z"
       id="path421"
       inkscape:connector-curvature="0"
       style="fill:#ffc84b" />
    <path
       d="m 216.24,90 v 18 h 18 z"
       id="path423"
       inkscape:connector-curvature="0"
       style="fill:#ffc84b" />
    <path
       d="M 234.24,108 V 90 h -18 z"
       id="path425"
       inkscape:connector-curvature="0"
       style="fill:#fbe372" />
    <path
       d="m 234.24,90 v 18 h 18 z"
       id="path427"
       inkscape:connector-curvature="0"
       style="fill:#d13d5c" />
    <path
       d="M 252.24,108 V 90 h -18 z"
       id="path429"
       inkscape:connector-curvature="0"
       style="fill:#e74365" />
    <path
       d="m 216.24,72 v 18 h 18 z"
       id="path431"
       inkscape:connector-curvature="0"
       style="fill:#1eb69f" />
    <path
       d="M 234.24,90 V 72 h -18 z"
       id="path433"
       inkscape:connector-curvature="0"
       style="fill:#1ba591" />
    <path
       d="m 234.24,72 v 18 h 18 z"
       id="path435"
       inkscape:connector-curvature="0"
       style="fill:#fbe372" />
    <path
       d="M 252.24,90 V 72 h -18 z"
       id="path437"
       inkscape:connector-curvature="0"
       style="fill:#ffc84b" />
    <path
       d="m 252.24,90 v 18 h 18 z"
       id="path439"
       inkscape:connector-curvature="0"
       style="fill:#ffc84b" />
    <path
       d="M 270.24,108 V 90 h -18 z"
       id="path441"
       inkscape:connector-curvature="0"
       style="fill:#fbe372" />
    <path
       d="m 270.24,90 v 18 h 18 z"
       id="path443"
       inkscape:connector-curvature="0"
       style="fill:#fbe372" />
    <path
       d="M 288.24,108 V 90 h -18 z"
       id="path445"
       inkscape:connector-curvature="0"
       style="fill:#ffc84b" />
    <path
       d="m 252.24,72 v 18 h 18 z"
       id="path447"
       inkscape:connector-curvature="0"
       style="fill:#1eb69f" />
    <path
       d="M 270.24,90 V 72 h -18 z"
       id="path449"
       inkscape:connector-curvature="0"
       style="fill:#1ba591" />
    <path
       d="m 270.24,72 v 18 h 18 z"
       id="path451"
       inkscape:connector-curvature="0"
       style="fill:#ffc84b" />
    <path
       d="M 288.24,90 V 72 h -18 z"
       id="path453"
       inkscape:connector-curvature="0"
       style="fill:#fbe372" />
    <path
       d="m 216.24,54 v 18 h 18 z"
       id="path455"
       inkscape:connector-curvature="0"
       style="fill:#ffc84b" />
    <path
       d="M 234.24,72 V 54 h -18 z"
       id="path457"
       inkscape:connector-curvature="0"
       style="fill:#fbe372" />
    <path
       d="m 234.24,54 v 18 h 18 z"
       id="path459"
       inkscape:connector-curvature="0"
       style="fill:#fbe372" />
    <path
       d="M 252.24,72 V 54 h -18 z"
       id="path461"
       inkscape:connector-curvature="0"
       style="fill:#ffc84b" />
    <path
       d="m 216.24,36 v 18 h 18 z"
       id="path463"
       inkscape:connector-curvature="0"
       style="fill:#1eb69f" />
    <path
       d="M 234.24,54 V 36 h -18 z"
       id="path465"
       inkscape:connector-curvature="0"
       style="fill:#1ba591" />
    <path
       d="m 234.24,36 v 18 h 18 z"
       id="path467"
       inkscape:connector-curvature="0"
       style="fill:#e74365" />
    <path
       d="M 252.24,54 V 36 h -18 z"
       id="path469"
       inkscape:connector-curvature="0"
       style="fill:#e74365" />
    <path
       d="m 216.24,18 v 18 h 18 z"
       id="path471"
       inkscape:connector-curvature="0"
       style="fill:#0059a8" />
    <path
       d="M 234.24,36 V 18 h -18 z"
       id="path473"
       inkscape:connector-curvature="0"
       style="fill:#273b91" />
    <path
       d="m 234.24,18 v 18 h 18 z"
       id="path475"
       inkscape:connector-curvature="0"
       style="fill:#273b91" />
    <path
       d="M 252.24,36 V 18 h -18 z"
       id="path477"
       inkscape:connector-curvature="0"
       style="fill:#0059a8" />
    <path
       d="m 216.24,0 v 18 h 18 z"
       id="path479"
       inkscape:connector-curvature="0"
       style="fill:#273b91" />
    <path
       d="M 234.24,18 V 0 h -18 z"
       id="path481"
       inkscape:connector-curvature="0"
       style="fill:#0059a8" />
    <path
       d="m 234.24,0 v 18 h 18 z"
       id="path483"
       inkscape:connector-curvature="0"
       style="fill:#ffc84b" />
    <path
       d="M 252.24,18 V 0 h -18 z"
       id="path485"
       inkscape:connector-curvature="0"
       style="fill:#fbe372" />
    <path
       d="m 252.24,54 v 18 h 18 z"
       id="path487"
       inkscape:connector-curvature="0"
       style="fill:#1ba591" />
    <path
       d="M 270.24,72 V 54 h -18 z"
       id="path489"
       inkscape:connector-curvature="0"
       style="fill:#1eb69f" />
    <path
       d="m 270.24,54 v 18 h 18 z"
       id="path491"
       inkscape:connector-curvature="0"
       style="fill:#1eb69f" />
    <path
       d="M 288.24,72 V 54 h -18 z"
       id="path493"
       inkscape:connector-curvature="0"
       style="fill:#1ba591" />
    <path
       d="m 252.24,36 v 18 h 18 z"
       id="path495"
       inkscape:connector-curvature="0"
       style="fill:#0059a8" />
    <path
       d="M 270.24,54 V 36 h -18 z"
       id="path497"
       inkscape:connector-curvature="0"
       style="fill:#273b91" />
    <path
       d="m 270.24,36 v 18 h 18 z"
       id="path499"
       inkscape:connector-curvature="0"
       style="fill:#273b91" />
    <path
       d="M 288.24,54 V 36 h -18 z"
       id="path501"
       inkscape:connector-curvature="0"
       style="fill:#0059a8" />
    <path
       d="m 252.24,18 v 18 h 18 z"
       id="path503"
       inkscape:connector-curvature="0"
       style="fill:#d13d5c" />
    <path
       d="M 270.24,36 V 18 h -18 z"
       id="path505"
       inkscape:connector-curvature="0"
       style="fill:#e74365" />
    <path
       d="m 270.24,18 v 18 h 18 z"
       id="path507"
       inkscape:connector-curvature="0"
       style="fill:#1eb69f" />
    <path
       d="M 288.24,36 V 18 h -18 z"
       id="path509"
       inkscape:connector-curvature="0"
       style="fill:#1ba591" />
    <path
       d="m 252.24,0 v 18 h 18 z"
       id="path511"
       inkscape:connector-curvature="0"
       style="fill:#0059a8" />
    <path
       d="M 270.24,18 V 0 h -18 z"
       id="path513"
       inkscape:connector-curvature="0"
       style="fill:#273b91" />
    <path
       d="m 270.24,0 v 18 h 18 z"
       id="path515"
       inkscape:connector-curvature="0"
       style="fill:#fbe372" />
    <path
       d="M 288.24,18 V 0 h -18 z"
       id="path517"
       inkscape:connector-curvature="0"
       style="fill:#ffc84b" />
    <path
       d="M 0,18 H 24 V 42 H 0 Z"
       style="fill:#f0f0f0;stroke:none;stroke-miterlimit:10"
       id="path519"
       inkscape:connector-curvature="0" />
    <rect
       x="0.14"
       y="18"
       width="90"
       height="126"
       id="rect521"
       style="fill:#1eb69f" />
    <rect
       x="108.24"
       y="18"
       width="162"
       height="108"
       id="rect523"
       style="fill:#e74365" />
    <g
       transform="translate(117.782,27.073)"
       id="g527">
      <text
         transform="translate(0,9.68)"
         style="font-style:normal;font-weight:700;font-size:10px;font-family:'Montserrat Alternates';fill:#ffffff;stroke:none"
         id="text525">Dive into Rust</text>
    </g>
    <rect
       x="117.24"
       y="47.299999"
       width="144"
       height="63.700001"
       id="rect529"
       style="fill:none" />
    <g
       transform="translate(117.217,46.429)"
       id="g533">
      <text
         transform="translate(0,3.872)"
         style="font-style:normal;font-weight:400;font-size:4px;font-family:Montserrat;fill:#ffffff;stroke:none"
         id="text531">
        <tspan
           style="font-style:normal;font-variant:normal;font-weight:normal;font-stretch:normal;font-family:Montserrat;-inkscape-font-specification:Montserrat"
           id="tspan1388">Lorem ipsum dolor sit amet, consectetuer adipiscing elit, sed diam</tspan>
      </text>
    </g>
    <g
       transform="translate(117.217,51.229)"
       id="g537">
      <text
         transform="translate(0,3.872)"
         style="font-style:normal;font-weight:400;font-size:4px;font-family:Montserrat;fill:#ffffff;stroke:none"
         id="text535">nonummy nibh euismod tincidunt ut laoreet dolore magna aliquam</text>
    </g>
    <g
       transform="translate(117.217,56.029)"
       id="g541">
      <text
         transform="translate(0,3.872)"
         style="font-style:normal;font-weight:400;font-size:4px;font-family:Montserrat;fill:#ffffff;stroke:none"
         id="text539">erat volutpat. Ut wisi enim ad minim veniam, quis nostrud exerci</text>
    </g>
    <g
       transform="translate(117.217,60.829)"
       id="g545">
      <text
         transform="translate(0,3.872)"
         style="font-style:normal;font-weight:400;font-size:4px;font-family:Montserrat;fill:#ffffff;stroke:none"
         id="text543">tation ullamcorper suscipit lobortis nisl ut aliquip ex ea commodo</text>
    </g>
    <g
       transform="translate(117.217,65.629)"
       id="g549">
      <text
         transform="translate(0,3.872)"
         style="font-style:normal;font-weight:400;font-size:4px;font-family:Montserrat;fill:#ffffff;stroke:none"
         id="text547">consequat.</text>
    </g>
    <g
       transform="translate(117.217,75.229)"
       id="g553">
      <text
         transform="translate(0,3.872)"
         style="font-style:normal;font-weight:400;font-size:4px;font-family:Montserrat;fill:#ffffff;stroke:none"
         id="text551">Duis autem vel eum iriure dolor in hendrerit in vulputate velit esse</text>
    </g>
    <g
       transform="translate(117.217,80.029)"
       id="g557">
      <text
         transform="translate(0,3.872)"
         style="font-style:normal;font-weight:400;font-size:4px;font-family:Montserrat;fill:#ffffff;stroke:none"
         id="text555">molestie consequat, vel illum dolore eu feugiat nulla facilisis at vero</text>
    </g>
    <g
       transform="translate(117.217,84.829)"
       id="g561">
      <text
         transform="translate(0,3.872)"
         style="font-style:normal;font-weight:400;font-size:4px;font-family:Montserrat;fill:#ffffff;stroke:none"
         id="text559">eros et accumsan et iusto odio dignissim qui blandit praesent .</text>
    </g>
    <g
       transform="translate(117.217,94.429)"
       id="g565">
      <text
         transform="translate(0,3.872)"
         style="font-style:normal;font-weight:400;font-size:4px;font-family:Montserrat;fill:#ffffff;stroke:none"
         id="text563">luptatum zzril delenit augue duis dolore te feugait nulla facilisi.</text>
    </g>
    <g
       transform="translate(117.217,99.229)"
       id="g569">
      <text
         transform="translate(0,3.872)"
         style="font-style:normal;font-weight:400;font-size:4px;font-family:Montserrat;fill:#ffffff;stroke:none"
         id="text567">Lorem ipsum dolor sit amet, cons ectetuer adipiscing elit, sed diam</text>
    </g>
    <g
       transform="translate(117.217,104.029)"
       id="g573">
      <text
         transform="translate(0,3.872)"
         style="font-style:normal;font-weight:400;font-size:4px;font-family:Montserrat;fill:#ffffff;stroke:none"
         id="text571">nonummy nibh euismod tincidunt ut</text>
    </g>
  </g>
</svg>
