<?xml version="1.0" encoding="UTF-8" standalone="no"?>
<!-- Created with Inkscape (http://www.inkscape.org/) -->

<svg
   xmlns:dc="http://purl.org/dc/elements/1.1/"
   xmlns:cc="http://creativecommons.org/ns#"
   xmlns:rdf="http://www.w3.org/1999/02/22-rdf-syntax-ns#"
   xmlns:svg="http://www.w3.org/2000/svg"
   xmlns="http://www.w3.org/2000/svg"
   xmlns:sodipodi="http://sodipodi.sourceforge.net/DTD/sodipodi-0.dtd"
   xmlns:inkscape="http://www.inkscape.org/namespaces/inkscape"
   width="970.14166"
   height="217.83939"
   viewBox="0 0 256.68333 57.636668"
   version="1.1"
   id="svg8"
   inkscape:version="0.92.3 (2405546, 2018-03-11)"
   sodipodi:docname="horizontal_white.svg"
   inkscape:export-filename="/home/anxhelo/works/TurkuSec/PNG/horizontal_white.png"
   inkscape:export-xdpi="96"
   inkscape:export-ydpi="96">
  <defs
     id="defs2" />
  <sodipodi:namedview
     id="base"
     pagecolor="#ffffff"
     bordercolor="#666666"
     borderopacity="1.0"
     inkscape:pageopacity="0"
     inkscape:pageshadow="2"
     inkscape:zoom="0.52467208"
     inkscape:cx="334.95179"
     inkscape:cy="196.46455"
     inkscape:document-units="px"
     inkscape:current-layer="g871"
     inkscape:document-rotation="0"
     showgrid="false"
     borderlayer="true"
     inkscape:showpageshadow="true"
     units="px"
     inkscape:pagecheckerboard="false"
     showguides="true"
     inkscape:window-width="1366"
     inkscape:window-height="715"
     inkscape:window-x="0"
     inkscape:window-y="0"
     inkscape:window-maximized="1"
     objecttolerance="10"
     guidetolerance="10"
     inkscape:snap-tangential="true"
     inkscape:snap-perpendicular="true"
     fit-margin-top="0"
     fit-margin-left="0"
     fit-margin-right="0"
     fit-margin-bottom="0">
    <inkscape:grid
       type="xygrid"
       id="grid10"
       dotted="false"
       originx="-55.352097"
       originy="-62.269974" />
  </sodipodi:namedview>
  <metadata
     id="metadata5">
    <rdf:RDF>
      <cc:Work
         rdf:about="">
        <dc:format>image/svg+xml</dc:format>
        <dc:type
           rdf:resource="http://purl.org/dc/dcmitype/StillImage" />
        <dc:title></dc:title>
        <cc:license
           rdf:resource="" />
      </cc:Work>
    </rdf:RDF>
  </metadata>
  <g
     inkscape:label="Layer 1"
     inkscape:groupmode="layer"
     id="layer1"
     transform="translate(-55.352094,-177.09336)">
    <g
       id="g871"
       transform="matrix(0.40025467,0,0,0.40025467,55.352094,177.09336)">
      <g
         id="g839">
        <rect
           id="rect837"
           height="144"
           width="144"
           class="st0"
           x="0"
           y="0"
           style="fill:#ffffff" />
      </g>
      <path
         id="path841"
         d="M 72,72 V 54 H 45 v 36 h 27 v -9 h 9 v 9 h 9 v -9 h 9 v 9 h 9 V 72 Z M 54,81 V 63 h 9 v 18 z"
         class="st1"
         inkscape:connector-curvature="0"
         style="fill:#0b68ba;fill-opacity:1" />
      <g
         id="g851">
        <rect
           id="rect843"
           height="36"
           width="9"
           class="st2"
           y="54"
           x="117"
           style="fill:#0b68ba;fill-opacity:1" />
        <path
           id="path845"
           d="M 9,54 V 90 H 36 V 54 Z M 27,81 H 18 V 63 h 9 z"
           class="st2"
           inkscape:connector-curvature="0"
           style="fill:#0b68ba;fill-opacity:1" />
        <path
           id="path847"
           d="m 54,99 v 36 H 81 V 99 Z m 18,27 h -9 v -18 h 9 z"
           class="st2"
           inkscape:connector-curvature="0"
           style="fill:#0b68ba;fill-opacity:1" />
        <rect
           id="rect849"
           height="36"
           width="9"
           class="st2"
           y="9"
           x="63"
           style="fill:#0b68ba;fill-opacity:1" />
      </g>
      <g
         id="g869"
         style="fill:#ffffff">
        <path
           id="path853"
           d="m 229.9,55.6 -2.2,-13.9 h -14.1 v 51.1 h 12.1 v 10.5 H 189.6 V 92.8 h 11.7 v -51 h -14.2 l -2.2,13.9 -10.5,-0.9 2.2,-23.5 h 61.8 l 2.2,23.5 z"
           class="st0"
           inkscape:connector-curvature="0"
           style="fill:#ffffff" />
        <path
           id="path855"
           d="M 285.5,103.4 V 95 c -3.1,5.9 -9,9.3 -16.4,9.3 -9.5,0 -17.4,-5.4 -17.4,-17.9 V 62.6 h -7.4 v -9.1 h 19.3 v 28.6 c 0,9.4 3.6,13 9.8,13 7.4,0 12.1,-6 12.2,-13.1 V 62.6 h -8.9 v -9.1 h 20.8 v 40.7 h 7.8 v 9.1 h -19.8 z"
           class="st0"
           inkscape:connector-curvature="0"
           style="fill:#ffffff" />
        <path
           id="path857"
           d="m 349.8,55.5 2.1,15.5 -9.2,1.1 -1.9,-8.5 c -1.3,-0.7 -2.4,-1.1 -3.8,-1.1 -4.2,0 -7.7,3.7 -7.7,9.7 v 22.1 h 9.9 v 9.1 H 310 v -9.1 h 7.4 V 62.7 h -7.8 v -9.2 h 18.8 v 9.3 c 1.8,-5.7 5.7,-10.1 12,-10.1 3.1,0.1 6.3,0.8 9.4,2.8 z"
           class="st0"
           inkscape:connector-curvature="0"
           style="fill:#ffffff" />
        <path
           id="path859"
           d="m 387.9,103.4 v -9.1 h 5.8 L 383.3,81.9 h -8 v 12.4 h 5.5 v 9.1 h -24.9 v -9.1 h 7.4 V 36.1 h -7.9 V 27 h 19.8 v 46.3 h 8.5 l 8.8,-10.5 H 386 v -9.2 h 24.3 v 9.2 h -6.2 l -11.8,13.8 15.1,17.8 h 5.3 v 9.1 h -24.8 z"
           class="st0"
           inkscape:connector-curvature="0"
           style="fill:#ffffff" />
        <path
           id="path861"
           d="M 456.7,103.4 V 95 c -3.1,5.9 -9,9.3 -16.4,9.3 -9.5,0 -17.4,-5.4 -17.4,-17.9 V 62.6 h -7.4 v -9.1 h 19.3 v 28.6 c 0,9.4 3.6,13 9.8,13 7.4,0 12.1,-6 12.2,-13.1 V 62.6 h -8.9 v -9.1 h 20.8 v 40.7 h 7.8 v 9.1 h -19.8 z"
           class="st0"
           inkscape:connector-curvature="0"
           style="fill:#ffffff" />
        <path
           id="path863"
           d="m 507.5,104.5 c -9.8,0 -19.6,-2.4 -25,-6.9 l 2,-16.5 9.9,1 -0.2,8.9 c 4.9,2.6 8.9,2.9 12.4,2.9 8.5,0 15,-2 15,-10.3 0,-9.1 -7.7,-10.9 -16.1,-12.5 -10.3,-2 -22.4,-4.6 -22.4,-19.6 0,-15 12.2,-21.2 25,-21.2 8.9,0 18.1,2.9 22.8,7.2 l 0.7,15.2 -9.9,0.9 -1,-9.3 c -4.1,-2.4 -8.3,-3.1 -12.2,-3.1 -7,0 -12.1,2.7 -12.1,8.9 0,7.2 6.8,8.9 13.9,10.5 9.1,2 24.6,4 24.6,21.8 0,14.2 -10.9,22.1 -27.4,22.1 z"
           class="st0"
           inkscape:connector-curvature="0"
           style="fill:#ffffff" />
        <path
           id="path865"
           d="m 566.7,104.5 c -14.5,0 -24.9,-8.7 -24.9,-25.2 0,-15.3 9,-26.8 24.2,-26.8 13.8,0 22.4,9.2 22.5,21.8 0,2.1 -0.2,4.3 -0.7,6.7 h -33.6 c 0.7,9 5.1,14 13.3,14 7.7,0 10.5,-4.4 11.5,-8.7 l 9.9,1.9 c -0.8,8.7 -8.6,16.3 -22.2,16.3 z m -0.8,-43.2 c -7.1,0 -10.7,5.3 -11.5,12.3 h 22 C 577,67.7 573.8,61.3 565.9,61.3 Z"
           class="st0"
           inkscape:connector-curvature="0"
           style="fill:#ffffff" />
        <path
           id="path867"
           d="m 619,104.5 c -14.2,0 -24.1,-8.8 -24.1,-25.2 0,-16.2 10.2,-26.8 25.1,-26.8 5.9,0 11.9,1.3 17.6,4.8 l 2,14 -9.5,1 -1.7,-8.2 c -2.8,-1.3 -5.7,-2 -8.7,-2 -7.9,0 -12.4,6 -12.4,16.6 0,10.2 4.3,16.2 12.8,16.2 6.5,0 10,-3.8 11.2,-11.3 l 10,1.9 c -1.1,8.9 -7.2,19 -22.3,19 z"
           class="st0"
           inkscape:connector-curvature="0"
           style="fill:#ffffff" />
      </g>
    </g>
  </g>
</svg>
