<?xml version="1.0" encoding="UTF-8" standalone="no"?>
<!-- Created with Inkscape (http://www.inkscape.org/) -->

<svg
   xmlns:dc="http://purl.org/dc/elements/1.1/"
   xmlns:cc="http://creativecommons.org/ns#"
   xmlns:rdf="http://www.w3.org/1999/02/22-rdf-syntax-ns#"
   xmlns:svg="http://www.w3.org/2000/svg"
   xmlns="http://www.w3.org/2000/svg"
   xmlns:sodipodi="http://sodipodi.sourceforge.net/DTD/sodipodi-0.dtd"
   xmlns:inkscape="http://www.inkscape.org/namespaces/inkscape"
   width="839.92352"
   height="527.87488"
   viewBox="0 0 222.22978 139.66689"
   version="1.1"
   id="svg8"
   inkscape:version="0.92.3 (2405546, 2018-03-11)"
   sodipodi:docname="vertical_black.svg"
   inkscape:export-filename="/home/anxhelo/works/TurkuSec/PNG/vertical_black.png"
   inkscape:export-xdpi="96"
   inkscape:export-ydpi="96">
  <defs
     id="defs2" />
  <sodipodi:namedview
     id="base"
     pagecolor="#ffffff"
     bordercolor="#666666"
     borderopacity="1.0"
     inkscape:pageopacity="0"
     inkscape:pageshadow="2"
     inkscape:zoom="0.37099919"
     inkscape:cx="274.64082"
     inkscape:cy="251.74306"
     inkscape:document-units="px"
     inkscape:current-layer="g937"
     inkscape:document-rotation="0"
     showgrid="false"
     borderlayer="true"
     inkscape:showpageshadow="true"
     units="px"
     inkscape:pagecheckerboard="false"
     showguides="true"
     inkscape:window-width="1366"
     inkscape:window-height="715"
     inkscape:window-x="0"
     inkscape:window-y="0"
     inkscape:window-maximized="1"
     objecttolerance="10"
     guidetolerance="10"
     inkscape:snap-tangential="true"
     inkscape:snap-perpendicular="true"
     fit-margin-top="0"
     fit-margin-left="0"
     fit-margin-right="0"
     fit-margin-bottom="0">
    <inkscape:grid
       type="xygrid"
       id="grid10"
       dotted="false"
       originx="-67.740967"
       originy="-69.084884" />
  </sodipodi:namedview>
  <metadata
     id="metadata5">
    <rdf:RDF>
      <cc:Work
         rdf:about="">
        <dc:format>image/svg+xml</dc:format>
        <dc:type
           rdf:resource="http://purl.org/dc/dcmitype/StillImage" />
        <dc:title></dc:title>
        <cc:license
           rdf:resource="" />
      </cc:Work>
    </rdf:RDF>
  </metadata>
  <g
     inkscape:label="Layer 1"
     inkscape:groupmode="layer"
     id="layer1"
     transform="translate(-67.740959,-88.248231)">
    <g
       id="g871"
       transform="matrix(0.40025467,0,0,0.40025467,55.352094,177.09336)">
      <g
         id="g937"
         transform="matrix(1.1889099,0,0,1.1889099,30.952457,-221.9715)">
        <g
           id="g917">
          <g
             id="g903">
            <rect
               id="rect901"
               height="180"
               width="180"
               class="st0"
               x="143.5"
               y="0"
               style="fill:#000000" />
          </g>
          <path
             id="path905"
             d="M 233.5,90 V 67.5 h -33.8 v 45 h 33.8 v -11.3 h 11.3 v 11.3 H 256 v -11.3 h 11.3 v 11.3 h 11.3 V 90 Z M 211,101.3 V 78.8 h 11.3 v 22.5 z"
             class="st1"
             inkscape:connector-curvature="0"
             style="fill:#ffffff" />
          <g
             id="g915">
            <rect
               id="rect907"
               height="45"
               width="11.3"
               class="st2"
               y="67.5"
               x="289.70001"
               style="fill:#ffffff" />
            <path
               id="path909"
               d="m 154.7,67.5 v 45 h 33.8 v -45 z m 22.5,33.8 H 166 V 78.8 h 11.3 v 22.5 z"
               class="st2"
               inkscape:connector-curvature="0"
               style="fill:#ffffff" />
            <path
               id="path911"
               d="m 211,123.8 v 45 h 33.8 v -45 z m 22.5,33.7 H 222.2 V 135 h 11.3 z"
               class="st2"
               inkscape:connector-curvature="0"
               style="fill:#ffffff" />
            <rect
               id="rect913"
               height="45"
               width="11.3"
               class="st2"
               y="11.3"
               x="222.2"
               style="fill:#ffffff" />
          </g>
        </g>
        <g
           id="g935"
           style="fill:#000000">
          <path
             id="path919"
             d="M 55.6,244.6 53.4,230.7 H 39.3 v 51.1 h 12.1 v 10.5 H 15.3 V 281.8 H 27 V 230.7 H 12.8 L 10.6,244.6 0,243.7 2.2,220.2 H 64 l 2.2,23.5 z"
             class="st0"
             inkscape:connector-curvature="0"
             style="fill:#000000" />
          <path
             id="path921"
             d="M 111.2,292.4 V 284 c -3.1,5.9 -9,9.3 -16.4,9.3 -9.5,0 -17.4,-5.4 -17.4,-17.9 V 251.5 H 70 v -9.1 H 89.3 V 271 c 0,9.4 3.6,13 9.8,13 7.4,0 12.1,-6 12.2,-13.1 v -19.4 h -8.9 v -9.1 h 20.8 v 40.7 h 7.8 v 9.1 h -19.8 z"
             class="st0"
             inkscape:connector-curvature="0"
             style="fill:#000000" />
          <path
             id="path923"
             d="m 175.5,244.5 2.1,15.5 -9.2,1.1 -1.9,-8.5 c -1.3,-0.7 -2.4,-1.1 -3.8,-1.1 -4.2,0 -7.7,3.7 -7.7,9.7 v 22.1 h 9.9 v 9.1 h -29.2 v -9.1 h 7.4 v -31.5 h -7.8 v -9.2 h 18.8 v 9.3 c 1.8,-5.7 5.7,-10.1 12,-10.1 3.1,0 6.3,0.7 9.4,2.7 z"
             class="st0"
             inkscape:connector-curvature="0"
             style="fill:#000000" />
          <path
             id="path925"
             d="m 213.6,292.4 v -9.1 h 5.8 L 209,270.9 h -8 v 12.4 h 5.5 v 9.1 h -24.9 v -9.1 h 7.4 v -58.2 h -7.9 V 216 h 19.8 v 46.3 h 8.5 l 8.8,-10.5 h -6.5 v -9.2 H 236 v 9.2 h -6.2 l -11.8,13.7 15.1,17.8 h 5.3 v 9.1 z"
             class="st0"
             inkscape:connector-curvature="0"
             style="fill:#000000" />
          <path
             id="path927"
             d="M 282.4,292.4 V 284 c -3.1,5.9 -9,9.3 -16.4,9.3 -9.5,0 -17.4,-5.4 -17.4,-17.9 v -23.9 h -7.4 v -9.1 h 19.3 V 271 c 0,9.4 3.6,13 9.8,13 7.4,0 12.1,-6 12.2,-13.1 v -19.4 h -8.9 v -9.1 h 20.8 v 40.7 h 7.8 v 9.1 h -19.8 z"
             class="st0"
             inkscape:connector-curvature="0"
             style="fill:#000000" />
          <path
             id="path929"
             d="m 333.2,293.5 c -9.8,0 -19.6,-2.4 -25,-6.9 l 2,-16.5 9.9,1 -0.2,8.9 c 4.9,2.6 8.9,2.9 12.4,2.9 8.5,0 15,-2 15,-10.3 0,-9.1 -7.7,-10.9 -16.1,-12.5 -10.3,-2 -22.4,-4.6 -22.4,-19.6 0,-15 12.2,-21.2 25,-21.2 8.9,0 18.1,2.9 22.8,7.2 l 0.7,15.2 -9.9,0.9 -1,-9.3 c -4.1,-2.4 -8.3,-3.1 -12.2,-3.1 -7,0 -12.1,2.7 -12.1,8.9 0,7.2 6.8,8.9 13.9,10.5 9.1,2 24.6,4 24.6,21.8 -0.1,14.2 -11,22.1 -27.4,22.1 z"
             class="st0"
             inkscape:connector-curvature="0"
             style="fill:#000000" />
          <path
             id="path931"
             d="m 392.4,293.5 c -14.5,0 -24.9,-8.7 -24.9,-25.2 0,-15.3 9,-26.8 24.2,-26.8 13.8,0 22.4,9.2 22.5,21.8 0,2.1 -0.2,4.3 -0.7,6.7 h -33.6 c 0.7,9 5.1,14 13.3,14 7.7,0 10.5,-4.4 11.5,-8.7 l 9.9,1.9 c -0.8,8.7 -8.7,16.3 -22.2,16.3 z m -0.8,-43.2 c -7.1,0 -10.7,5.3 -11.5,12.3 h 22 c 0.6,-5.9 -2.6,-12.3 -10.5,-12.3 z"
             class="st0"
             inkscape:connector-curvature="0"
             style="fill:#000000" />
          <path
             id="path933"
             d="m 444.7,293.5 c -14.2,0 -24.1,-8.8 -24.1,-25.2 0,-16.2 10.2,-26.8 25.1,-26.8 5.9,0 11.9,1.3 17.6,4.8 l 2,14 -9.5,1 -1.7,-8.2 c -2.8,-1.3 -5.7,-2 -8.7,-2 -7.9,0 -12.4,6 -12.4,16.6 0,10.2 4.3,16.2 12.8,16.2 6.5,0 10,-3.8 11.2,-11.3 l 10,1.9 c -1.1,8.9 -7.2,19 -22.3,19 z"
             class="st0"
             inkscape:connector-curvature="0"
             style="fill:#000000" />
        </g>
      </g>
    </g>
  </g>
</svg>
