<svg width="1080" height="1080" viewBox="0 0 1080 1080" fill="none" xmlns="http://www.w3.org/2000/svg">
<rect width="1080" height="1080" fill="white"/>
<path d="M723.456 257.666L722.371 360.689C722.367 361.065 722.568 361.413 722.895 361.597L812.658 412.169C813.341 412.554 814.186 412.066 814.194 411.283L815.279 308.26C815.283 307.884 815.082 307.536 814.754 307.351L724.991 256.779C724.309 256.395 723.464 256.883 723.456 257.666Z" fill="#628026" stroke="#333333" stroke-width="3.94" stroke-linejoin="round"/>
<path d="M391.778 574.315C395.868 572.599 400.506 572.78 404.449 574.81L774.046 765.104C785.374 770.936 784.732 787.342 772.984 792.272L647.835 844.785C643.746 846.501 639.107 846.32 635.165 844.29L265.567 653.996C254.24 648.164 254.881 631.758 266.63 626.829L391.778 574.315Z" fill="#628026" stroke="#333333" stroke-width="3.84"/>
<circle r="47.8965" transform="matrix(1 -8.74228e-08 -8.74228e-08 -1 321.661 389.862)" fill="white" stroke="#333333" stroke-width="3.94"/>
<circle cx="742.877" cy="607.593" r="6.69133" transform="rotate(-140.278 742.877 607.593)" fill="white" stroke="#333333" stroke-width="3.94"/>
<circle cx="736.714" cy="583.725" r="1.97" transform="rotate(-140.278 736.714 583.725)" fill="#333333" stroke="#333333" stroke-width="3.35281"/>
<circle cx="742.878" cy="607.593" r="6.69133" transform="rotate(-140.278 742.878 607.593)" fill="white" stroke="#333333" stroke-width="3.94"/>
<circle cx="736.715" cy="583.726" r="1.97" transform="rotate(-140.278 736.715 583.726)" fill="#333333" stroke="#333333" stroke-width="3.35281"/>
<circle cx="322.058" cy="224.384" r="1.97" transform="rotate(-140.278 322.058 224.384)" fill="#333333" stroke="#333333" stroke-width="3.35281"/>
<path d="M427.618 267.676L406.835 223.911" stroke="#333333" stroke-width="3.94"/>
<path d="M316.452 496.147L305.624 487.688C305.328 487.457 304.929 487.405 304.584 487.553L291.956 492.968C291.236 493.277 291.111 494.244 291.728 494.726L302.556 503.185C302.852 503.416 303.25 503.468 303.596 503.32L316.223 497.905C316.943 497.596 317.069 496.629 316.452 496.147Z" fill="white" stroke="#333333" stroke-width="3.94" stroke-linejoin="round"/>
<path d="M576.008 208.629L560.549 218.463C560.232 218.665 560.05 219.023 560.074 219.398L561.246 237.682C561.296 238.464 562.166 238.906 562.827 238.486L578.286 228.652C578.603 228.45 578.785 228.092 578.761 227.717L577.588 209.432C577.538 208.651 576.668 208.209 576.008 208.629Z" fill="white" stroke="#333333" stroke-width="3.94" stroke-linejoin="round"/>
<path fill-rule="evenodd" clip-rule="evenodd" d="M708.201 373.497C685.411 386.628 666.96 406.138 655.12 429.624L616.065 507.09L649.82 524.108C649.82 524.108 697.5 436.293 707.024 410.642C716.549 384.992 708.201 373.497 708.201 373.497ZM539.563 333.758C539.589 333.707 539.615 333.655 539.641 333.604L539.959 332.975L539.964 332.977C548.366 316.802 561.281 303.399 577.154 294.402C593.382 285.204 611.973 281.025 630.576 282.393C649.179 283.761 666.959 290.614 681.667 302.087C683.777 303.733 685.81 305.463 687.762 307.272C709.387 327.31 710.095 376.439 681.12 381.884C680.32 382.034 680.45 380.018 680.654 376.861C680.952 372.234 681.407 365.158 679.326 358.861C675.823 348.267 667.155 338.832 658.358 331.969C649.56 325.107 638.924 321.007 627.797 320.189C616.669 319.371 605.548 321.87 595.841 327.372C586.134 332.874 578.277 341.131 573.262 351.099L573.177 351.056L516.509 463.459L482.754 446.441L539.408 334.067L539.407 334.067C539.459 333.964 539.511 333.861 539.563 333.758Z" fill="#628026"/>
<path d="M708.201 373.497L709.755 372.368L708.739 370.97L707.242 371.833L708.201 373.497ZM616.065 507.09L614.35 506.226L613.486 507.94L615.2 508.805L616.065 507.09ZM649.82 524.108L648.955 525.823L650.618 526.661L651.507 525.024L649.82 524.108ZM707.024 410.642L708.824 411.31L707.024 410.642ZM539.641 333.604L541.352 334.476L541.356 334.469L539.641 333.604ZM539.563 333.758L537.851 332.888L537.851 332.889L539.563 333.758ZM539.959 332.975L540.823 331.26L539.108 330.396L538.244 332.11L539.959 332.975ZM539.964 332.977L539.099 334.692L540.793 335.546L541.668 333.862L539.964 332.977ZM577.154 294.402L576.207 292.732L577.154 294.402ZM630.576 282.393L630.435 284.308L630.435 284.308L630.576 282.393ZM681.667 302.087L680.486 303.601L680.486 303.601L681.667 302.087ZM687.762 307.272L689.067 305.864L689.067 305.864L687.762 307.272ZM681.12 381.884L681.475 383.771L681.475 383.771L681.12 381.884ZM680.654 376.861L682.57 376.984L682.57 376.984L680.654 376.861ZM679.326 358.861L681.149 358.258L681.149 358.258L679.326 358.861ZM658.358 331.969L659.538 330.456L659.538 330.456L658.358 331.969ZM573.262 351.099L572.399 352.814L574.115 353.677L574.977 351.962L573.262 351.099ZM573.177 351.056L574.04 349.341L572.327 348.479L571.463 350.192L573.177 351.056ZM516.509 463.459L515.645 465.173L517.359 466.037L518.224 464.323L516.509 463.459ZM482.754 446.441L481.04 445.576L480.175 447.291L481.89 448.155L482.754 446.441ZM539.408 334.067L541.122 334.932L541.986 333.217L540.272 332.353L539.408 334.067ZM539.407 334.067L537.692 333.204L536.83 334.918L538.542 335.781L539.407 334.067ZM656.834 430.488C668.506 407.337 686.695 388.104 709.16 375.16L707.242 371.833C684.128 385.151 665.414 404.939 653.405 428.76L656.834 430.488ZM617.779 507.955L656.834 430.488L653.405 428.76L614.35 506.226L617.779 507.955ZM650.684 522.394L616.929 505.376L615.2 508.805L648.955 525.823L650.684 522.394ZM705.224 409.974C700.513 422.66 686.28 450.904 673.147 476.107C666.596 488.679 660.342 500.451 655.725 509.08C653.417 513.395 651.519 516.924 650.197 519.373C649.536 520.598 649.02 521.553 648.669 522.202C648.493 522.526 648.359 522.774 648.269 522.94C648.224 523.024 648.189 523.087 648.167 523.129C648.155 523.15 648.147 523.166 648.141 523.176C648.138 523.181 648.136 523.185 648.134 523.188C648.134 523.189 648.133 523.19 648.133 523.191C648.132 523.192 648.132 523.192 649.82 524.108C651.507 525.024 651.507 525.024 651.508 525.023C651.508 525.023 651.508 525.021 651.509 525.02C651.511 525.017 651.513 525.013 651.516 525.008C651.522 524.997 651.53 524.981 651.542 524.96C651.565 524.918 651.599 524.854 651.645 524.771C651.735 524.603 651.87 524.355 652.046 524.03C652.398 523.379 652.915 522.423 653.577 521.196C654.9 518.743 656.801 515.211 659.111 510.892C663.732 502.254 669.993 490.469 676.553 477.881C689.641 452.764 704.01 424.274 708.824 411.31L705.224 409.974ZM708.201 373.497C706.647 374.625 706.647 374.624 706.646 374.622C706.645 374.622 706.645 374.621 706.644 374.62C706.643 374.619 706.643 374.618 706.642 374.617C706.64 374.615 706.64 374.614 706.639 374.613C706.639 374.612 706.64 374.614 706.643 374.619C706.649 374.628 706.663 374.647 706.683 374.678C706.723 374.74 706.79 374.847 706.877 374.998C707.051 375.3 707.306 375.783 707.592 376.45C708.163 377.783 708.862 379.862 709.285 382.73C710.129 388.456 709.887 397.416 705.224 409.974L708.824 411.31C713.686 398.217 714.032 388.605 713.084 382.17C712.61 378.959 711.817 376.561 711.121 374.937C710.773 374.126 710.451 373.51 710.205 373.083C710.083 372.87 709.979 372.704 709.902 372.585C709.863 372.526 709.831 372.478 709.806 372.442C709.794 372.424 709.783 372.409 709.775 372.396C709.77 372.39 709.766 372.385 709.763 372.38C709.761 372.378 709.76 372.376 709.758 372.374C709.758 372.373 709.757 372.371 709.756 372.371C709.755 372.37 709.755 372.368 708.201 373.497ZM537.931 332.732C537.904 332.784 537.878 332.836 537.851 332.888L541.275 334.627C541.301 334.577 541.326 334.527 541.352 334.476L537.931 332.732ZM538.244 332.11L537.927 332.74L541.356 334.469L541.673 333.839L538.244 332.11ZM540.828 331.263L540.823 331.26L539.094 334.689L539.099 334.692L540.828 331.263ZM576.207 292.732C560.011 301.911 546.833 315.587 538.26 332.092L541.668 333.862C549.899 318.016 562.551 304.886 578.101 296.072L576.207 292.732ZM630.717 280.478C611.735 279.082 592.765 283.346 576.207 292.732L578.101 296.072C593.998 287.062 612.211 282.967 630.435 284.308L630.717 280.478ZM682.848 300.573C667.84 288.867 649.699 281.874 630.717 280.478L630.435 284.308C648.66 285.648 666.077 292.362 680.486 303.601L682.848 300.573ZM689.067 305.864C687.075 304.018 685.001 302.253 682.848 300.573L680.486 303.601C682.553 305.213 684.545 306.909 686.457 308.681L689.067 305.864ZM681.475 383.771C697.252 380.806 704.574 365.991 705.334 350.142C706.096 334.251 700.389 316.355 689.067 305.864L686.457 308.681C696.76 318.227 702.22 334.915 701.498 349.958C700.775 365.045 693.963 377.517 680.766 379.997L681.475 383.771ZM678.738 376.737C678.639 378.264 678.544 379.689 678.593 380.704C678.616 381.174 678.675 381.822 678.929 382.39C679.066 382.696 679.327 383.134 679.82 383.453C680.364 383.805 680.964 383.867 681.475 383.771L680.766 379.997C681.077 379.938 681.506 379.97 681.904 380.228C682.253 380.453 682.394 380.733 682.434 380.822C682.494 380.956 682.448 380.931 682.429 380.521C682.393 379.776 682.465 378.615 682.57 376.984L678.738 376.737ZM677.503 359.464C679.45 365.353 679.039 372.058 678.738 376.737L682.57 376.984C682.864 372.411 683.365 364.964 681.149 358.258L677.503 359.464ZM657.177 333.483C665.841 340.242 674.172 349.389 677.503 359.464L681.149 358.258C677.475 347.146 668.47 337.422 659.538 330.456L657.177 333.483ZM627.656 322.104C638.405 322.894 648.678 326.854 657.177 333.483L659.538 330.456C650.441 323.359 639.444 319.12 627.937 318.274L627.656 322.104ZM596.788 329.043C606.165 323.728 616.907 321.313 627.656 322.104L627.937 318.274C616.431 317.428 604.932 320.013 594.894 325.702L596.788 329.043ZM574.977 351.962C579.821 342.333 587.411 334.357 596.788 329.043L594.894 325.702C584.857 331.391 576.732 339.929 571.547 350.236L574.977 351.962ZM572.315 352.771L572.399 352.814L574.125 349.384L574.04 349.341L572.315 352.771ZM518.224 464.323L574.892 351.92L571.463 350.192L514.795 462.594L518.224 464.323ZM481.89 448.155L515.645 465.173L517.373 461.744L483.618 444.726L481.89 448.155ZM537.693 333.203L481.04 445.576L484.469 447.305L541.122 334.932L537.693 333.203ZM538.542 335.781L538.543 335.782L540.272 332.353L540.271 332.353L538.542 335.781ZM537.851 332.889C537.798 332.994 537.745 333.099 537.692 333.204L541.122 334.93C541.173 334.829 541.224 334.728 541.275 334.627L537.851 332.889Z" fill="#333333"/>
<path d="M453.356 447.328C457.192 441.126 464.933 438.582 471.701 441.299L682.563 525.943C686.06 527.346 688.901 530.015 690.52 533.417L699.52 552.33C701.507 556.505 701.458 561.362 699.387 565.495L611.733 740.444C608.015 747.864 598.98 750.855 591.569 747.119L370.179 635.504C365.327 633.058 362.177 628.178 361.946 622.749L361.039 601.493C360.911 598.49 361.687 595.518 363.269 592.962L453.356 447.328Z" fill="white" stroke="#333333" stroke-width="3.84"/>
<path d="M446.216 420.871C449.946 413.474 458.966 410.5 466.363 414.23L682.25 523.07C689.648 526.8 692.621 535.82 688.892 543.217L603.615 712.365C599.886 719.762 590.866 722.735 583.468 719.006L367.581 610.165C360.184 606.436 357.21 597.416 360.94 590.018L446.216 420.871Z" fill="#FFA462" stroke="#333333" stroke-width="3.84"/>
<mask id="path-16-inside-1_901_584" fill="white">
<path fill-rule="evenodd" clip-rule="evenodd" d="M536.754 595.272C552.754 594.286 567.819 585.066 575.556 569.719C587.146 546.73 577.906 518.698 554.916 507.108C531.927 495.517 503.895 504.758 492.305 527.747C484.569 543.092 486.113 560.684 494.833 574.133L466.737 611.917L523.086 640.326L536.754 595.272Z"/>
</mask>
<path fill-rule="evenodd" clip-rule="evenodd" d="M536.754 595.272C552.754 594.286 567.819 585.066 575.556 569.719C587.146 546.73 577.906 518.698 554.916 507.108C531.927 495.517 503.895 504.758 492.305 527.747C484.569 543.092 486.113 560.684 494.833 574.133L466.737 611.917L523.086 640.326L536.754 595.272Z" fill="#333333"/>
<path d="M536.754 595.272L536.511 591.339L533.778 591.508L532.983 594.128L536.754 595.272ZM494.833 574.133L497.994 576.484L499.628 574.287L498.139 571.99L494.833 574.133ZM466.737 611.917L463.575 609.566L460.779 613.326L464.963 615.435L466.737 611.917ZM523.086 640.326L521.312 643.844L525.496 645.953L526.856 641.47L523.086 640.326ZM572.038 567.945C564.957 581.991 551.171 590.436 536.511 591.339L536.996 599.205C554.337 598.136 570.681 588.142 579.075 571.493L572.038 567.945ZM553.143 510.626C574.189 521.236 582.649 546.899 572.038 567.945L579.075 571.493C591.644 546.561 581.622 516.159 556.69 503.589L553.143 510.626ZM495.823 529.521C506.434 508.475 532.096 500.015 553.143 510.626L556.69 503.589C531.758 491.02 501.356 501.041 488.787 525.974L495.823 529.521ZM498.139 571.99C490.15 559.668 488.743 543.565 495.823 529.521L488.787 525.974C480.394 542.62 482.077 561.701 491.527 576.277L498.139 571.99ZM469.898 614.268L497.994 576.484L491.671 571.782L463.575 609.566L469.898 614.268ZM524.859 636.808L468.51 608.399L464.963 615.435L521.312 643.844L524.859 636.808ZM532.983 594.128L519.315 639.182L526.856 641.47L540.524 596.416L532.983 594.128Z" fill="#333333" mask="url(#path-16-inside-1_901_584)"/>
<mask id="mask0_901_584" style="mask-type:alpha" maskUnits="userSpaceOnUse" x="490" y="511" width="105" height="62">
<path fill-rule="evenodd" clip-rule="evenodd" d="M490.599 538.946C501.892 521.363 522.068 510.199 544.422 511.45C566.775 512.701 585.579 526.047 594.839 544.78C583.547 562.362 563.37 573.527 541.017 572.276C518.664 571.025 499.859 557.679 490.599 538.946Z" fill="#C4C4C4"/>
</mask>
<g mask="url(#mask0_901_584)">
<circle cx="542.723" cy="541.86" r="24.0587" transform="rotate(3.20338 542.723 541.86)" fill="#A4C954" stroke="#333333" stroke-width="3.84"/>
<circle cx="542.721" cy="541.86" r="12.9585" transform="rotate(3.20338 542.721 541.86)" fill="#333333"/>
</g>
<rect x="545.32" y="534.971" width="6.49944" height="7.02518" rx="3.24972" transform="rotate(3.20338 545.32 534.971)" fill="white"/>
<path fill-rule="evenodd" clip-rule="evenodd" d="M587.884 590.009C593.372 595.487 593.382 604.379 587.905 609.869L558.248 580.266C555.504 577.527 555.499 573.081 558.237 570.336C560.976 567.591 565.42 567.586 568.164 570.326L587.884 590.009ZM572.219 594.717C577.708 600.196 577.717 609.088 572.24 614.577L546.782 589.164C544.038 586.425 544.033 581.979 546.772 579.234C549.51 576.489 553.955 576.485 556.699 579.224L572.219 594.717ZM549.749 612.161C555.226 606.671 555.217 597.78 549.729 592.301L542.368 584.953C539.624 582.213 535.179 582.218 532.441 584.963C529.702 587.708 529.707 592.154 532.451 594.893L549.749 612.161ZM589.81 571.647C595.299 577.126 595.308 586.017 589.831 591.507L565.495 567.214C562.75 564.475 562.746 560.029 565.484 557.284C568.223 554.539 572.667 554.534 575.411 557.274L589.81 571.647Z" fill="white"/>
<path d="M587.905 609.869L589.302 611.258L587.908 612.656L586.511 611.261L587.905 609.869ZM587.884 590.009L586.49 591.401L586.49 591.401L587.884 590.009ZM558.248 580.266L556.854 581.658L556.854 581.658L558.248 580.266ZM558.237 570.336L556.84 568.947L556.84 568.947L558.237 570.336ZM568.164 570.326L566.77 571.717L566.77 571.717L568.164 570.326ZM572.24 614.577L573.637 615.966L572.243 617.364L570.846 615.969L572.24 614.577ZM572.219 594.717L570.825 596.109L570.825 596.109L572.219 594.717ZM546.782 589.164L548.176 587.773L548.176 587.773L546.782 589.164ZM546.772 579.234L548.169 580.623L548.169 580.623L546.772 579.234ZM556.699 579.224L555.305 580.616L555.305 580.616L556.699 579.224ZM549.729 592.301L548.335 593.693L549.729 592.301ZM549.749 612.161L551.147 613.55L549.752 614.948L548.355 613.553L549.749 612.161ZM542.368 584.953L543.762 583.561L543.762 583.561L542.368 584.953ZM532.441 584.963L531.044 583.574L531.044 583.574L532.441 584.963ZM532.451 594.893L531.057 596.285L532.451 594.893ZM589.831 591.507L591.228 592.896L589.834 594.294L588.436 592.899L589.831 591.507ZM589.81 571.647L591.205 570.255L591.205 570.255L589.81 571.647ZM565.495 567.214L564.1 568.606L564.1 568.606L565.495 567.214ZM565.484 557.284L566.881 558.673L566.881 558.673L565.484 557.284ZM575.411 557.274L574.017 558.665L574.017 558.665L575.411 557.274ZM586.508 608.48C591.217 603.759 591.209 596.112 586.49 591.401L589.278 588.617C595.535 594.863 595.546 604.999 589.302 611.258L586.508 608.48ZM559.642 578.874L589.299 608.477L586.511 611.261L556.854 581.658L559.642 578.874ZM559.635 571.725C557.663 573.701 557.667 576.903 559.642 578.874L556.854 581.658C553.341 578.151 553.335 572.461 556.84 568.947L559.635 571.725ZM566.77 571.717C564.797 569.748 561.603 569.751 559.635 571.725L556.84 568.947C560.348 565.431 566.043 565.425 569.559 568.934L566.77 571.717ZM586.49 591.401L566.77 571.717L569.559 568.934L589.278 588.617L586.49 591.401ZM570.843 613.189C575.552 608.468 575.545 600.82 570.825 596.109L573.614 593.326C579.871 599.572 579.881 609.707 573.637 615.966L570.843 613.189ZM548.176 587.773L573.634 613.186L570.846 615.969L545.388 590.556L548.176 587.773ZM548.169 580.623C546.198 582.599 546.201 585.801 548.176 587.773L545.388 590.556C541.875 587.049 541.869 581.359 545.375 577.845L548.169 580.623ZM555.305 580.616C553.332 578.646 550.138 578.65 548.169 580.623L545.375 577.845C548.883 574.329 554.578 574.323 558.093 577.832L555.305 580.616ZM570.825 596.109L555.305 580.616L558.093 577.832L573.614 593.326L570.825 596.109ZM551.123 590.909C557.38 597.155 557.391 607.291 551.147 613.55L548.352 610.772C553.062 606.052 553.054 598.404 548.335 593.693L551.123 590.909ZM543.762 583.561L551.123 590.909L548.335 593.693L540.974 586.344L543.762 583.561ZM531.044 583.574C534.552 580.058 540.247 580.052 543.762 583.561L540.974 586.344C539.001 584.375 535.807 584.378 533.838 586.352L531.044 583.574ZM531.057 596.285C527.544 592.778 527.538 587.088 531.044 583.574L533.838 586.352C531.867 588.328 531.87 591.529 533.845 593.501L531.057 596.285ZM548.355 613.553L531.057 596.285L533.845 593.501L551.144 610.769L548.355 613.553ZM588.434 590.118C593.143 585.398 593.135 577.75 588.416 573.039L591.205 570.255C597.462 576.501 597.472 586.637 591.228 592.896L588.434 590.118ZM566.889 565.822L591.225 590.115L588.436 592.899L564.1 568.606L566.889 565.822ZM566.881 558.673C564.91 560.648 564.914 563.85 566.889 565.822L564.1 568.606C560.587 565.099 560.581 559.409 564.087 555.895L566.881 558.673ZM574.017 558.665C572.044 556.696 568.85 556.699 566.881 558.673L564.087 555.895C567.595 552.379 573.29 552.373 576.806 555.882L574.017 558.665ZM588.416 573.039L574.017 558.665L576.806 555.882L591.205 570.255L588.416 573.039Z" fill="#333333"/>
<path d="M656.328 322.426L747.044 270.987L801.667 300.978L746.427 330.965L776.22 347.324L700.305 387.502L741.685 410.222L584.532 453.188L659.865 406.228L621.794 385.324L694.399 343.33L656.328 322.426Z" fill="white" stroke="#333333" stroke-width="3.94"/>
<path d="M720.926 787.576L724.718 786.506C724.298 784.984 722.052 774.189 726.524 760.194C730.973 746.272 742.133 728.979 768.832 714.429C788.06 703.95 797.398 695.541 801.254 688.262C803.216 684.557 803.748 681.166 803.457 678.031C803.171 674.946 802.094 672.209 801.018 669.82C800.131 667.852 797.302 663.858 792.921 660.807C788.469 657.707 782.265 655.485 774.793 657.496C760.651 661.302 743.452 672.031 728.778 699.562C721.615 712.999 707.471 740.938 720.926 787.576Z" fill="#A4C954" stroke="#333333" stroke-width="3.94" stroke-linecap="round"/>
<path d="M724.114 794.636L720.324 793.562C720.467 793.045 721.442 788.494 719.548 782.548C717.678 776.675 712.947 769.236 701.372 762.913C692.837 758.25 688.458 754.396 686.596 750.871C685.63 749.044 685.353 747.329 685.503 745.728C685.649 744.177 686.189 742.831 686.679 741.747C687.157 740.688 688.544 738.77 690.639 737.314C692.805 735.809 695.882 734.701 699.573 735.699C706.157 737.478 713.991 742.454 720.595 754.874C723.824 760.947 730.2 773.622 724.114 794.636Z" fill="#A4C954" stroke="#333333" stroke-width="3.94" stroke-linecap="round"/>
<path d="M310.099 655.735L306.309 654.661C306.6 653.611 308.255 645.748 305.001 635.528C301.769 625.381 293.636 612.707 274.043 602.003C259.839 594.244 252.833 587.968 249.917 582.448C248.424 579.624 248.013 577.019 248.24 574.605C248.462 572.239 249.289 570.156 250.091 568.38C250.787 566.839 252.941 563.821 256.251 561.521C259.632 559.172 264.37 557.476 270.066 559.015C280.659 561.878 293.456 569.916 304.328 590.363C309.638 600.348 320.121 621.13 310.099 655.735Z" fill="#A4C954" stroke="#333333" stroke-width="3.94" stroke-linecap="round"/>
<path d="M479.362 560.677C450.985 571.076 441.794 570.923 426.885 530.24L473.345 513.214C474.344 515.942 476.268 518.284 480.675 517.544C482.566 514.18 485.249 510.975 488.795 508.033L496.658 510.398C498.462 510.941 500.271 512.553 501.129 514.229C503.195 518.267 506.797 526.403 506.295 539.032C506.123 543.379 498.581 553.633 479.362 560.677Z" fill="white"/>
<path d="M479.105 541.431C476.178 533.444 476.432 525.093 480.675 517.544M480.675 517.544C482.566 514.18 485.249 510.975 488.795 508.033L496.658 510.398C498.462 510.941 500.271 512.553 501.129 514.229C503.195 518.267 506.797 526.403 506.295 539.032C506.123 543.379 498.581 553.633 479.362 560.677C450.985 571.076 441.794 570.923 426.885 530.24L473.345 513.214C474.344 515.942 476.268 518.284 480.675 517.544Z" stroke="#333333" stroke-width="3.94"/>
<mask id="path-30-outside-2_901_584" maskUnits="userSpaceOnUse" x="406.91" y="449.599" width="103.42" height="148.919" fill="black">
<rect fill="white" x="406.91" y="449.599" width="103.42" height="148.919"/>
<path fill-rule="evenodd" clip-rule="evenodd" d="M447.266 460.566L469.995 456.585C477.097 455.341 483.862 460.09 485.106 467.192L502.794 568.189C504.038 575.291 499.289 582.056 492.187 583.3L446.592 591.285C439.49 592.529 432.725 587.78 431.481 580.678L413.793 479.681C412.549 472.58 417.298 465.814 424.4 464.57L447.126 460.59C447.149 460.586 447.172 460.581 447.196 460.577C447.219 460.573 447.243 460.569 447.266 460.566Z"/>
</mask>
<path fill-rule="evenodd" clip-rule="evenodd" d="M447.266 460.566L469.995 456.585C477.097 455.341 483.862 460.09 485.106 467.192L502.794 568.189C504.038 575.291 499.289 582.056 492.187 583.3L446.592 591.285C439.49 592.529 432.725 587.78 431.481 580.678L413.793 479.681C412.549 472.58 417.298 465.814 424.4 464.57L447.126 460.59C447.149 460.586 447.172 460.581 447.196 460.577C447.219 460.573 447.243 460.569 447.266 460.566Z" fill="#333333"/>
<path d="M447.266 460.566L447.88 464.458L447.913 464.452L447.946 464.447L447.266 460.566ZM485.106 467.192L481.225 467.872L485.106 467.192ZM492.187 583.3L491.507 579.419L492.187 583.3ZM446.592 591.285L447.272 595.166L446.592 591.285ZM431.481 580.678L427.6 581.358L431.481 580.678ZM424.4 464.57L423.72 460.69L424.4 464.57ZM447.126 460.59L447.805 464.471L447.838 464.465L447.871 464.459L447.126 460.59ZM447.946 464.447L470.674 460.466L469.315 452.704L446.586 456.685L447.946 464.447ZM470.674 460.466C475.633 459.598 480.356 462.913 481.225 467.872L488.987 466.512C487.367 457.267 478.56 451.085 469.315 452.704L470.674 460.466ZM481.225 467.872L498.913 568.869L506.675 567.509L488.987 466.512L481.225 467.872ZM498.913 568.869C499.781 573.827 496.466 578.55 491.507 579.419L492.867 587.181C502.112 585.562 508.294 576.754 506.675 567.509L498.913 568.869ZM491.507 579.419L445.912 587.404L447.272 595.166L492.867 587.181L491.507 579.419ZM445.912 587.404C440.954 588.273 436.23 584.957 435.362 579.999L427.6 581.358C429.219 590.603 438.026 596.785 447.272 595.166L445.912 587.404ZM435.362 579.999L417.674 479.002L409.912 480.361L427.6 581.358L435.362 579.999ZM417.674 479.002C416.805 474.043 420.121 469.32 425.079 468.451L423.72 460.69C414.475 462.309 408.293 471.116 409.912 480.361L417.674 479.002ZM425.079 468.451L447.805 464.471L446.446 456.709L423.72 460.69L425.079 468.451ZM447.871 464.459C447.872 464.459 447.874 464.459 447.875 464.458L446.516 456.696C446.471 456.704 446.425 456.713 446.38 456.721L447.871 464.459ZM447.875 464.458C447.877 464.458 447.878 464.458 447.88 464.458L446.652 456.674C446.607 456.681 446.561 456.689 446.516 456.696L447.875 464.458Z" fill="#333333" mask="url(#path-30-outside-2_901_584)"/>
<mask id="path-32-outside-3_901_584" maskUnits="userSpaceOnUse" x="404.15" y="447.231" width="103.42" height="148.919" fill="black">
<rect fill="white" x="404.15" y="447.231" width="103.42" height="148.919"/>
<path fill-rule="evenodd" clip-rule="evenodd" d="M421.639 462.202C414.537 463.446 409.788 470.211 411.032 477.313L428.72 578.31C429.964 585.412 436.73 590.161 443.831 588.917L489.427 580.931C496.528 579.688 501.277 572.922 500.033 565.821L482.345 464.824C481.101 457.722 474.336 452.973 467.234 454.217L421.639 462.202Z"/>
</mask>
<path fill-rule="evenodd" clip-rule="evenodd" d="M421.639 462.202C414.537 463.446 409.788 470.211 411.032 477.313L428.72 578.31C429.964 585.412 436.73 590.161 443.831 588.917L489.427 580.931C496.528 579.688 501.277 572.922 500.033 565.821L482.345 464.824C481.101 457.722 474.336 452.973 467.234 454.217L421.639 462.202Z" fill="#A4C954"/>
<path d="M443.831 588.917L444.511 592.798L443.831 588.917ZM489.427 580.931L488.747 577.051L489.427 580.931ZM500.033 565.821L496.152 566.5L500.033 565.821ZM414.913 476.633C414.045 471.675 417.36 466.951 422.319 466.083L420.959 458.321C411.714 459.94 405.532 468.748 407.151 477.993L414.913 476.633ZM432.601 577.63L414.913 476.633L407.151 477.993L424.84 578.99L432.601 577.63ZM443.152 585.036C438.193 585.904 433.47 582.589 432.601 577.63L424.84 578.99C426.459 588.235 435.266 594.417 444.511 592.798L443.152 585.036ZM488.747 577.051L443.152 585.036L444.511 592.798L490.106 584.812L488.747 577.051ZM496.152 566.5C497.021 571.459 493.705 576.182 488.747 577.051L490.106 584.812C499.351 583.193 505.533 574.386 503.914 565.141L496.152 566.5ZM478.464 465.503L496.152 566.5L503.914 565.141L486.226 464.144L478.464 465.503ZM467.914 458.098C472.872 457.229 477.596 460.545 478.464 465.503L486.226 464.144C484.607 454.899 475.8 448.717 466.555 450.336L467.914 458.098ZM422.319 466.083L467.914 458.098L466.555 450.336L420.959 458.321L422.319 466.083Z" fill="#333333" mask="url(#path-32-outside-3_901_584)"/>
<circle cx="424.484" cy="474.978" r="4.01266" transform="rotate(-9.93383 424.484 474.978)" fill="#333333"/>
<path d="M437.832 469.637L454.531 466.713" stroke="#333333" stroke-width="3.94" stroke-linejoin="round"/>
<path fill-rule="evenodd" clip-rule="evenodd" d="M446.207 534.71C453.432 533.483 460.284 538.345 461.513 545.569L422.476 552.196C418.864 552.809 415.438 550.378 414.823 546.766C414.209 543.154 416.639 539.729 420.251 539.116L446.207 534.71ZM442.959 549.04C450.183 547.814 457.035 552.676 458.263 559.9L424.753 565.587C421.14 566.2 417.714 563.769 417.1 560.157C416.486 556.545 418.916 553.12 422.529 552.507L442.959 549.04ZM449.801 575.115C448.573 567.891 441.721 563.029 434.496 564.255L424.807 565.9C421.194 566.513 418.764 569.938 419.378 573.55C419.992 577.162 423.418 579.593 427.031 578.98L449.801 575.115ZM436.929 522.504C444.153 521.278 451.006 526.14 452.234 533.364L420.2 538.801C416.587 539.414 413.161 536.983 412.547 533.371C411.933 529.759 414.363 526.334 417.976 525.721L436.929 522.504Z" fill="white"/>
<path d="M461.513 545.569L463.454 545.236L463.785 547.182L461.839 547.512L461.513 545.569ZM446.207 534.71L446.534 536.653L446.534 536.653L446.207 534.71ZM422.476 552.196L422.15 550.253L422.15 550.253L422.476 552.196ZM414.823 546.766L416.765 546.433L416.765 546.433L414.823 546.766ZM420.251 539.116L419.925 537.173L419.925 537.173L420.251 539.116ZM458.263 559.9L460.205 559.566L460.536 561.512L458.59 561.843L458.263 559.9ZM442.959 549.04L443.285 550.983L443.285 550.983L442.959 549.04ZM424.753 565.587L425.079 567.53L425.079 567.53L424.753 565.587ZM422.529 552.507L422.202 550.564L422.202 550.564L422.529 552.507ZM434.496 564.255L434.823 566.198L434.823 566.198L434.496 564.255ZM449.801 575.115L451.743 574.782L452.074 576.728L450.127 577.058L449.801 575.115ZM424.807 565.9L424.48 563.957L424.48 563.957L424.807 565.9ZM419.378 573.55L421.32 573.216L419.378 573.55ZM427.031 578.98L426.704 577.037L427.031 578.98ZM452.234 533.364L454.175 533.031L454.506 534.977L452.56 535.307L452.234 533.364ZM436.929 522.504L437.255 524.447L437.255 524.447L436.929 522.504ZM420.2 538.801L420.526 540.744L420.526 540.744L420.2 538.801ZM417.976 525.721L418.302 527.664L418.302 527.664L417.976 525.721ZM459.571 545.903C458.525 539.75 452.687 535.608 446.534 536.653L445.881 532.767C454.177 531.359 462.043 536.941 463.454 545.236L459.571 545.903ZM422.15 550.253L461.186 543.627L461.839 547.512L422.802 554.139L422.15 550.253ZM416.765 546.433C417.197 548.974 419.609 550.685 422.15 550.253L422.802 554.139C418.119 554.934 413.678 551.783 412.882 547.1L416.765 546.433ZM420.578 541.059C418.04 541.49 416.333 543.895 416.765 546.433L412.882 547.1C412.085 542.414 415.239 537.969 419.925 537.173L420.578 541.059ZM446.534 536.653L420.578 541.059L419.925 537.173L445.881 532.767L446.534 536.653ZM456.322 560.233C455.276 554.08 449.438 549.938 443.285 550.983L442.633 547.097C450.928 545.689 458.795 551.271 460.205 559.566L456.322 560.233ZM424.426 563.645L457.937 557.957L458.59 561.843L425.079 567.53L424.426 563.645ZM419.042 559.824C419.474 562.365 421.885 564.076 424.426 563.645L425.079 567.53C420.396 568.325 415.955 565.174 415.159 560.491L419.042 559.824ZM422.855 554.45C420.317 554.881 418.61 557.286 419.042 559.824L415.159 560.491C414.362 555.805 417.516 551.36 422.202 550.564L422.855 554.45ZM443.285 550.983L422.855 554.45L422.202 550.564L442.633 547.097L443.285 550.983ZM434.17 562.313C442.466 560.905 450.332 566.487 451.743 574.782L447.86 575.449C446.813 569.296 440.976 565.154 434.823 566.198L434.17 562.313ZM424.48 563.957L434.17 562.313L434.823 566.198L425.133 567.843L424.48 563.957ZM417.437 573.884C416.64 569.198 419.794 564.753 424.48 563.957L425.133 567.843C422.595 568.274 420.888 570.679 421.32 573.216L417.437 573.884ZM427.357 580.923C422.674 581.718 418.233 578.567 417.437 573.884L421.32 573.216C421.752 575.757 424.163 577.469 426.704 577.037L427.357 580.923ZM450.127 577.058L427.357 580.923L426.704 577.037L449.475 573.173L450.127 577.058ZM450.292 533.698C449.246 527.545 443.409 523.403 437.255 524.447L436.603 520.562C444.898 519.154 452.765 524.736 454.175 533.031L450.292 533.698ZM419.873 536.859L451.908 531.421L452.56 535.307L420.526 540.744L419.873 536.859ZM414.489 533.038C414.921 535.579 417.332 537.29 419.873 536.859L420.526 540.744C415.843 541.539 411.402 538.388 410.606 533.705L414.489 533.038ZM418.302 527.664C415.764 528.095 414.057 530.5 414.489 533.038L410.606 533.705C409.809 529.019 412.963 524.574 417.649 523.778L418.302 527.664ZM437.255 524.447L418.302 527.664L417.649 523.778L436.603 520.562L437.255 524.447Z" fill="#333333"/>
<path d="M486.647 520.924L493.614 519.704C497.255 519.066 499.689 515.598 499.052 511.958C498.414 508.317 494.946 505.883 491.305 506.52L470.784 510.114C472.264 517.394 479.284 522.213 486.647 520.924Z" fill="white" stroke="#333333" stroke-width="3.94"/>
<path d="M770.239 427.266L769.777 471.09C769.773 471.466 769.974 471.814 770.302 471.998L808.485 493.51C809.167 493.895 810.012 493.407 810.02 492.624L810.482 448.8C810.486 448.425 810.285 448.076 809.957 447.892L771.774 426.38C771.092 425.995 770.247 426.483 770.239 427.266Z" fill="#A4C954" stroke="#333333" stroke-width="3.94" stroke-linejoin="round"/>
<path d="M784.462 518.794L784.205 543.251C784.201 543.627 784.402 543.975 784.729 544.16L806.039 556.165C806.721 556.55 807.566 556.062 807.574 555.279L807.832 530.821C807.836 530.446 807.635 530.098 807.307 529.913L785.998 517.907C785.315 517.523 784.471 518.011 784.462 518.794Z" fill="white" stroke="#333333" stroke-width="3.94" stroke-linejoin="round"/>
<circle cx="423.117" cy="800.124" r="21.2837" transform="rotate(-162.215 423.117 800.124)" stroke="#333333" stroke-width="3.94"/>
<circle cx="374.216" cy="812.618" r="4.1069" transform="rotate(-162.215 374.216 812.618)" fill="#333333" stroke="#333333" stroke-width="3.94"/>
<path d="M250.669 767.875L292.921 742.007" stroke="#333333" stroke-width="3.94"/>
<circle r="13.2266" transform="matrix(1 -8.74228e-08 -8.74228e-08 -1 431.687 361.887)" fill="#A4C954" stroke="#333333" stroke-width="3.94"/>
</svg>
