<svg width="1080" height="1080" viewBox="0 0 1080 1080" fill="none" xmlns="http://www.w3.org/2000/svg">
<rect width="1080" height="1080" fill="white"/>
<rect x="356.971" y="561.117" width="10.9845" height="42.0597" transform="rotate(23.5518 356.971 561.117)" fill="#A4C954" stroke="#333333" stroke-width="3.84"/>
<path d="M435.205 730.904L393.388 757.673C393.072 757.876 392.891 758.235 392.916 758.61L396.234 808.15C396.286 808.931 397.157 809.37 397.817 808.948L439.633 782.179C439.95 781.977 440.131 781.618 440.106 781.243L436.788 731.703C436.736 730.922 435.865 730.482 435.205 730.904Z" fill="white" stroke="#333333" stroke-width="3.94" stroke-linejoin="round"/>
<path d="M399.974 196.856L350.253 338.312C350.129 338.665 349.823 338.923 349.455 338.985L265.017 353.38C264.243 353.512 263.612 352.764 263.872 352.023L313.593 210.567C313.717 210.214 314.023 209.956 314.392 209.894L398.829 195.499C399.603 195.367 400.235 196.115 399.974 196.856Z" fill="#A4C954" stroke="#333333" stroke-width="3.94" stroke-linejoin="round"/>
<path d="M553.306 718.951L553.305 718.951L543.576 728.55L521.66 706.897L521.659 706.896L519.609 704.874L519.608 704.873L477.01 662.797L476.435 662.229H476.426L463.352 649.306L455.287 641.335L455.287 641.334L431.27 617.616L431.269 617.616L428.026 614.409L428.025 614.408L389.752 576.601C389.75 576.6 389.749 576.598 389.748 576.597C382.28 569.132 375.951 560.609 370.963 551.303L370.959 551.294L370.954 551.285C370.505 550.469 370.08 549.637 369.656 548.789L369.655 548.786C360.739 531.012 356.925 511.114 358.635 491.302C360.344 471.49 367.511 452.54 379.34 436.555C391.168 420.571 407.195 408.177 425.642 400.75C444.088 393.323 464.232 391.154 483.836 394.484L484 394.512H484.02C484.31 394.558 484.567 394.602 484.823 394.656L484.855 394.663L484.887 394.668C488.562 395.317 492.2 396.163 495.785 397.203L495.786 397.203C505.17 399.916 514.139 403.898 522.444 409.04C523.315 409.581 524.177 410.131 525.03 410.69C531.118 414.713 536.783 419.342 541.939 424.505L543.331 425.9L543.659 425.572L543.986 425.899L545.378 424.506C548.502 421.383 551.814 418.453 555.296 415.734L555.298 415.732C556.057 415.137 556.825 414.552 557.592 413.986C569.367 405.304 582.789 399.116 597.038 395.801C611.287 392.485 626.062 392.112 640.46 394.704L640.468 394.706C644.146 395.354 647.786 396.203 651.371 397.249L651.379 397.251L651.387 397.253C652.579 397.59 653.762 397.954 654.936 398.345L654.947 398.349C655.907 398.663 656.85 398.98 657.776 399.322L657.786 399.325L657.795 399.329C665.645 402.135 673.138 405.852 680.122 410.405C681.648 411.401 683.154 412.444 684.639 413.533L684.646 413.537C697.227 422.683 707.676 434.447 715.274 448.019C722.872 461.591 727.438 476.649 728.657 492.155C729.876 507.661 727.72 523.248 722.336 537.84C716.953 552.431 708.473 565.682 697.477 576.681C697.476 576.682 697.474 576.684 697.473 576.685L653.867 619.722L555.3 716.984L555.3 716.984L553.306 718.951Z" fill="#FF7676" stroke="#333333" stroke-width="3.94"/>
<circle cx="626.746" cy="484.041" r="117.298" fill="#A4C954" stroke="#333333" stroke-width="3.94"/>
<path d="M395.658 596.07L445.227 533.731C445.98 532.784 447.399 532.733 448.218 533.623L544.264 638.021C544.67 638.463 544.853 639.066 544.76 639.659L529.642 736.335C529.389 737.954 527.385 738.574 526.262 737.38L395.764 598.645C395.094 597.932 395.049 596.836 395.658 596.07Z" fill="#A4C954" stroke="#333333" stroke-width="3.94"/>
<circle cx="481.961" cy="502.216" r="16.3787" transform="rotate(-180 481.961 502.216)" fill="#628026" stroke="#333333" stroke-width="3.94"/>
<circle cx="576.392" cy="484.041" r="13.03" transform="rotate(-180 576.392 484.041)" fill="white" stroke="#333333" stroke-width="3.94"/>
<circle cx="626.745" cy="484.041" r="13.03" transform="rotate(-180 626.745 484.041)" fill="white" stroke="#333333" stroke-width="3.94"/>
<circle cx="677.097" cy="484.041" r="13.03" transform="rotate(-180 677.097 484.041)" fill="white" stroke="#333333" stroke-width="3.94"/>
<circle cx="567.146" cy="612.435" r="8.37801" transform="rotate(-180 567.146 612.435)" stroke="#333333" stroke-width="3.94"/>
<circle cx="815.341" cy="409.055" r="8.37801" transform="rotate(-180 815.341 409.055)" stroke="#333333" stroke-width="3.94"/>
<circle cx="488.097" cy="312.821" r="3.99953" transform="rotate(-180 488.097 312.821)" fill="#333333" stroke="#333333" stroke-width="3.94"/>
<circle cx="385.751" cy="699.351" r="3.99953" transform="rotate(-180 385.751 699.351)" fill="#333333" stroke="#333333" stroke-width="3.94"/>
<mask id="path-15-inside-1_901_457" fill="white">
<path d="M528.859 392.951C530.213 391.205 529.899 388.687 528.109 387.392C516.516 379.01 503.499 372.775 489.678 368.996C474.57 364.866 458.797 363.752 443.258 365.717C427.72 367.683 412.72 372.69 399.117 380.452C385.513 388.215 373.572 398.58 363.974 410.958C354.376 423.335 347.311 437.482 343.18 452.59C339.05 467.698 337.936 483.471 339.901 499.01C341.867 514.549 346.874 529.548 354.636 543.152C361.737 555.596 371.017 566.65 382.023 575.791C383.722 577.202 386.239 576.879 387.593 575.133L458.226 484.042L528.859 392.951Z"/>
</mask>
<path d="M528.859 392.951C530.213 391.205 529.899 388.687 528.109 387.392C516.516 379.01 503.499 372.775 489.678 368.996C474.57 364.866 458.797 363.752 443.258 365.717C427.72 367.683 412.72 372.69 399.117 380.452C385.513 388.215 373.572 398.58 363.974 410.958C354.376 423.335 347.311 437.482 343.18 452.59C339.05 467.698 337.936 483.471 339.901 499.01C341.867 514.549 346.874 529.548 354.636 543.152C361.737 555.596 371.017 566.65 382.023 575.791C383.722 577.202 386.239 576.879 387.593 575.133L458.226 484.042L528.859 392.951Z" fill="#628026" stroke="#333333" stroke-width="7.88" mask="url(#path-15-inside-1_901_457)"/>
<mask id="path-16-inside-2_901_457" fill="white">
<path d="M512.952 391.729C514.306 389.983 513.992 387.465 512.202 386.171C500.608 377.788 487.592 371.553 473.771 367.775C458.663 363.644 442.89 362.53 427.351 364.496C411.812 366.461 396.813 371.468 383.209 379.231C369.606 386.993 357.664 397.359 348.067 409.736C338.469 422.114 331.404 436.26 327.273 451.368C323.143 466.476 322.029 482.25 323.994 497.788C325.96 513.327 330.967 528.326 338.729 541.93C345.83 554.375 355.11 565.428 366.115 574.569C367.815 575.98 370.332 575.657 371.686 573.912L442.319 482.82L512.952 391.729Z"/>
</mask>
<path d="M512.952 391.729C514.306 389.983 513.992 387.465 512.202 386.171C500.608 377.788 487.592 371.553 473.771 367.775C458.663 363.644 442.89 362.53 427.351 364.496C411.812 366.461 396.813 371.468 383.209 379.231C369.606 386.993 357.664 397.359 348.067 409.736C338.469 422.114 331.404 436.26 327.273 451.368C323.143 466.476 322.029 482.25 323.994 497.788C325.96 513.327 330.967 528.326 338.729 541.93C345.83 554.375 355.11 565.428 366.115 574.569C367.815 575.98 370.332 575.657 371.686 573.912L442.319 482.82L512.952 391.729Z" fill="#A4C954" stroke="#333333" stroke-width="7.88" mask="url(#path-16-inside-2_901_457)"/>
<path d="M843.888 517.959L799.549 502.213" stroke="#333333" stroke-width="3.94"/>
<path d="M260.321 744.337L291.028 708.686" stroke="#333333" stroke-width="3.94"/>
<path d="M562.635 290.711L557.103 243.985" stroke="#333333" stroke-width="3.94"/>
<circle cx="250.835" cy="496.686" r="30.245" transform="rotate(-180 250.835 496.686)" fill="white" stroke="#333333" stroke-width="3.94"/>
<circle cx="565.129" cy="639.08" r="1.97" fill="#333333" stroke="#333333" stroke-width="3.14263"/>
<path d="M635.656 775.124L638.409 811.301C638.434 811.623 638.608 811.914 638.879 812.089L675.3 835.538C676.015 835.998 676.949 835.442 676.885 834.594L674.131 798.417C674.107 798.095 673.933 797.803 673.662 797.629L637.241 774.18C636.525 773.719 635.592 774.276 635.656 775.124Z" fill="#628026" stroke="#333333" stroke-width="3.94" stroke-linejoin="round"/>
<path fill-rule="evenodd" clip-rule="evenodd" d="M776.555 628.986C767.794 621.529 754.647 622.585 747.189 631.345L686.778 702.309L686.399 701.986L746.636 631.226C737.875 623.768 724.727 624.824 717.27 633.585L669.689 689.478C667.007 692.071 663.207 693.33 657.388 689.769C655.908 683.758 653.135 677.445 648.913 670.929L634.274 668.838C632.185 668.539 630.203 669.904 629.71 671.956C628.518 676.913 626.004 687.067 621.378 705.184C621.329 705.375 621.277 705.577 621.221 705.789C619.469 712.514 615.025 729.572 640.909 751.606C680.038 784.916 694.395 790.967 734.228 744.51L734.232 744.513L769.263 703.363C760.502 695.906 747.355 696.962 739.897 705.722L719.262 729.962L718.883 729.639L778.598 659.492C769.838 652.034 756.69 653.09 749.232 661.85L703.02 716.135L702.641 715.812L776.555 628.986Z" fill="white"/>
<path d="M776.555 628.986L777.832 627.486L779.332 628.763L778.055 630.263L776.555 628.986ZM686.778 702.309L688.279 703.586L687.002 705.086L685.501 703.809L686.778 702.309ZM686.399 701.986L685.122 703.486L683.622 702.209L684.899 700.709L686.399 701.986ZM746.636 631.226L747.913 629.726L749.413 631.003L748.136 632.503L746.636 631.226ZM669.689 689.478L671.189 690.755L671.127 690.828L671.058 690.894L669.689 689.478ZM657.388 689.769L656.36 691.449L655.669 691.026L655.475 690.24L657.388 689.769ZM648.913 670.929L649.192 668.979L650.079 669.106L650.567 669.858L648.913 670.929ZM634.274 668.838L633.995 670.788L633.995 670.788L634.274 668.838ZM629.71 671.956L627.794 671.495L627.794 671.495L629.71 671.956ZM621.378 705.184L619.469 704.697L619.469 704.697L621.378 705.184ZM621.221 705.789L619.315 705.292L619.315 705.292L621.221 705.789ZM734.228 744.51L732.733 743.228L734.011 741.737L735.505 743.01L734.228 744.51ZM734.232 744.513L735.732 745.79L734.455 747.29L732.955 746.013L734.232 744.513ZM769.263 703.363L770.54 701.863L772.04 703.14L770.763 704.64L769.263 703.363ZM719.262 729.962L720.762 731.239L719.485 732.739L717.985 731.462L719.262 729.962ZM718.883 729.639L717.606 731.139L716.106 729.862L717.383 728.362L718.883 729.639ZM778.598 659.492L779.875 657.991L781.375 659.268L780.098 660.769L778.598 659.492ZM749.232 661.85L750.732 663.127L750.732 663.127L749.232 661.85ZM703.02 716.135L704.52 717.412L703.243 718.912L701.743 717.635L703.02 716.135ZM702.641 715.812L701.364 717.313L699.864 716.036L701.141 714.535L702.641 715.812ZM745.689 630.068C753.852 620.479 768.243 619.323 777.832 627.486L775.278 630.486C767.346 623.734 755.441 624.69 748.689 632.622L745.689 630.068ZM685.278 701.032L745.689 630.068L748.689 632.622L688.279 703.586L685.278 701.032ZM685.501 703.809L685.122 703.486L687.676 700.486L688.055 700.809L685.501 703.809ZM748.136 632.503L687.899 703.263L684.899 700.709L745.135 629.949L748.136 632.503ZM715.77 632.308C723.933 622.719 738.323 621.563 747.913 629.726L745.359 632.726C737.426 625.973 725.522 626.93 718.77 634.862L715.77 632.308ZM668.189 688.201L715.77 632.308L718.77 634.862L671.189 690.755L668.189 688.201ZM671.058 690.894C669.494 692.407 667.479 693.644 664.904 693.892C662.344 694.139 659.514 693.379 656.36 691.449L658.417 688.089C661.082 689.72 663.061 690.111 664.526 689.97C665.977 689.831 667.202 689.143 668.319 688.062L671.058 690.894ZM655.475 690.24C654.055 684.473 651.381 678.361 647.26 672.001L650.567 669.858C654.889 676.53 657.761 683.043 659.301 689.298L655.475 690.24ZM648.635 672.88L633.995 670.788L634.553 666.887L649.192 668.979L648.635 672.88ZM633.995 670.788C632.927 670.635 631.884 671.339 631.625 672.416L627.794 671.495C628.522 668.469 631.444 666.443 634.553 666.887L633.995 670.788ZM631.625 672.416C630.43 677.387 627.914 687.552 623.287 705.671L619.469 704.697C624.095 686.583 626.606 676.439 627.794 671.495L631.625 672.416ZM623.287 705.671C623.236 705.868 623.183 706.075 623.128 706.286L619.315 705.292C619.37 705.079 619.422 704.882 619.469 704.697L623.287 705.671ZM623.128 706.286C622.27 709.579 620.831 715.127 622.616 722.492C624.402 729.858 629.482 739.291 642.186 750.106L639.632 753.106C626.452 741.886 620.812 731.774 618.787 723.421C616.762 715.067 618.421 708.724 619.315 705.292L623.128 706.286ZM642.186 750.106C651.969 758.435 660.096 764.963 667.417 769.398C674.723 773.824 681.064 776.061 687.285 776.001C693.486 775.941 699.849 773.595 707.194 768.304C714.562 762.995 722.808 754.803 732.733 743.228L735.724 745.792C725.732 757.446 717.246 765.918 709.496 771.501C701.723 777.1 694.583 779.87 687.323 779.941C680.085 780.011 673.011 777.393 665.375 772.768C657.754 768.151 649.412 761.432 639.632 753.106L642.186 750.106ZM735.505 743.01L735.509 743.013L732.955 746.013L732.951 746.01L735.505 743.01ZM732.732 743.236L767.763 702.086L770.763 704.64L735.732 745.79L732.732 743.236ZM767.986 704.863C760.054 698.111 748.149 699.067 741.397 706.999L738.397 704.445C746.56 694.856 760.951 693.7 770.54 701.863L767.986 704.863ZM741.397 706.999L720.762 731.239L717.762 728.685L738.397 704.445L741.397 706.999ZM717.985 731.462L717.606 731.139L720.16 728.139L720.539 728.462L717.985 731.462ZM780.098 660.769L720.383 730.916L717.383 728.362L777.098 658.215L780.098 660.769ZM747.732 660.574C755.895 650.984 770.286 649.828 779.875 657.991L777.321 660.992C769.389 654.239 757.485 655.195 750.732 663.127L747.732 660.574ZM701.52 714.858L747.732 660.574L750.732 663.127L704.52 717.412L701.52 714.858ZM701.743 717.635L701.364 717.313L703.918 714.312L704.297 714.635L701.743 717.635ZM778.055 630.263L704.141 717.089L701.141 714.535L775.055 627.709L778.055 630.263Z" fill="#333333"/>
<path d="M651.446 674.655C655.009 681.553 657.152 688.107 658.036 694.234C660.022 707.984 655.674 719.586 646.844 728.106" stroke="#333333" stroke-width="3.94"/>
<line y1="-1.97" x2="54.9713" y2="-1.97" transform="matrix(0.761456 0.648217 0.648217 -0.761456 670.656 688.018)" stroke="#333333" stroke-width="3.94"/>
<circle r="37.0355" transform="matrix(0.761456 0.648217 0.648217 -0.761456 688.776 668.981)" fill="#A4C954" stroke="#333333" stroke-width="3.94"/>
<path d="M644.613 654.881L683.513 651.405C683.377 660.946 676.044 669.031 666.331 669.899L629.696 673.173L631.337 666.341C632.844 660.068 638.187 655.455 644.613 654.881Z" fill="white" stroke="#333333" stroke-width="3.94"/>
<path fill-rule="evenodd" clip-rule="evenodd" d="M448.291 198.952C454.659 206.326 453.843 217.467 446.469 223.835L386.737 275.419L387.012 275.738L446.574 224.301C452.942 231.676 452.126 242.816 444.752 249.184L397.703 289.815C395.524 292.101 394.482 295.326 397.532 300.232C402.631 301.449 407.994 303.76 413.537 307.296L415.311 319.112C415.624 321.199 414.272 323.193 412.225 323.703C407.851 324.793 399.358 326.964 384.694 330.82C384.532 330.862 384.361 330.908 384.182 330.956C378.498 332.48 364.079 336.346 345.264 314.558C316.821 281.622 311.61 269.5 350.714 235.488L350.711 235.485L385.349 205.572C391.717 212.946 390.901 224.087 383.527 230.455L363.123 248.075L363.4 248.395L422.446 197.404C428.814 204.778 427.999 215.919 420.624 222.287L374.93 261.747L375.206 262.067L448.291 198.952Z" fill="white"/>
<path d="M448.291 198.952L449.782 197.664L448.494 196.173L447.003 197.461L448.291 198.952ZM386.737 275.419L385.449 273.928L383.958 275.215L385.246 276.706L386.737 275.419ZM387.012 275.738L385.521 277.025L386.809 278.516L388.3 277.229L387.012 275.738ZM446.574 224.301L448.065 223.014L446.777 221.523L445.286 222.81L446.574 224.301ZM397.703 289.815L396.416 288.324L396.343 288.386L396.277 288.455L397.703 289.815ZM397.532 300.232L395.859 301.272L396.287 301.96L397.074 302.148L397.532 300.232ZM413.537 307.296L415.485 307.003L415.352 306.117L414.596 305.635L413.537 307.296ZM415.311 319.112L413.363 319.405L415.311 319.112ZM412.225 323.703L411.749 321.792L411.749 321.792L412.225 323.703ZM384.694 330.82L385.195 332.725L385.195 332.725L384.694 330.82ZM384.182 330.956L383.672 329.053L383.672 329.053L384.182 330.956ZM350.714 235.488L352.007 236.974L353.488 235.686L352.205 234.2L350.714 235.488ZM350.711 235.485L349.423 233.994L347.932 235.281L349.22 236.772L350.711 235.485ZM385.349 205.572L386.84 204.285L385.552 202.794L384.061 204.081L385.349 205.572ZM363.123 248.075L361.836 246.584L360.345 247.872L361.632 249.363L363.123 248.075ZM363.4 248.395L361.909 249.683L363.196 251.174L364.687 249.886L363.4 248.395ZM422.446 197.404L423.937 196.116L422.649 194.626L421.158 195.913L422.446 197.404ZM374.93 261.747L373.643 260.256L372.152 261.544L373.439 263.035L374.93 261.747ZM375.206 262.067L373.715 263.354L375.003 264.845L376.494 263.558L375.206 262.067ZM447.757 225.326C455.954 218.246 456.861 205.862 449.782 197.664L446.8 200.24C452.457 206.79 451.732 216.687 445.182 222.344L447.757 225.326ZM388.024 276.91L447.757 225.326L445.182 222.344L385.449 273.928L388.024 276.91ZM385.246 276.706L385.521 277.025L388.503 274.45L388.228 274.131L385.246 276.706ZM445.286 222.81L385.725 274.247L388.3 277.229L447.861 225.792L445.286 222.81ZM446.04 250.675C454.238 243.596 455.144 231.211 448.065 223.014L445.083 225.589C450.74 232.14 450.015 242.036 443.465 247.693L446.04 250.675ZM398.991 291.306L446.04 250.675L443.465 247.693L396.416 288.324L398.991 291.306ZM396.277 288.455C394.973 289.823 393.896 291.599 393.694 293.866C393.494 296.119 394.183 298.576 395.859 301.272L399.205 299.192C397.831 296.982 397.516 295.373 397.619 294.215C397.721 293.073 398.254 292.092 399.129 291.174L396.277 288.455ZM397.074 302.148C401.929 303.307 407.09 305.52 412.478 308.957L414.596 305.635C408.897 301.999 403.333 299.591 397.989 298.316L397.074 302.148ZM411.589 307.588L413.363 319.405L417.259 318.82L415.485 307.003L411.589 307.588ZM413.363 319.405C413.523 320.472 412.825 321.523 411.749 321.792L412.701 325.615C415.72 324.863 417.725 321.925 417.259 318.82L413.363 319.405ZM411.749 321.792C407.363 322.884 398.86 325.058 384.193 328.914L385.195 332.725C399.855 328.87 408.339 326.701 412.701 325.615L411.749 321.792ZM384.193 328.914C384.026 328.958 383.85 329.005 383.672 329.053L384.692 332.859C384.873 332.81 385.038 332.766 385.195 332.725L384.193 328.914ZM383.672 329.053C380.899 329.796 376.27 331.031 370.098 329.581C363.925 328.131 355.958 323.928 346.755 313.271L343.773 315.846C353.385 326.976 362.035 331.734 369.197 333.417C376.359 335.099 381.781 333.639 384.693 332.859L383.672 329.053ZM346.755 313.271C339.643 305.035 334.08 298.209 330.295 292.059C326.518 285.923 324.615 280.623 324.629 275.432C324.642 270.262 326.559 264.919 330.972 258.7C335.402 252.457 342.27 245.443 352.007 236.974L349.421 234.001C339.606 242.538 332.461 249.794 327.759 256.42C323.04 263.069 320.705 269.192 320.689 275.421C320.673 281.629 322.961 287.661 326.939 294.124C330.909 300.573 336.664 307.613 343.773 315.846L346.755 313.271ZM352.205 234.2L352.202 234.197L349.22 236.772L349.223 236.775L352.205 234.2ZM351.999 236.976L386.636 207.063L384.061 204.081L349.423 233.994L351.999 236.976ZM383.858 206.86C389.515 213.411 388.79 223.307 382.24 228.964L384.815 231.946C393.012 224.867 393.919 212.482 386.84 204.285L383.858 206.86ZM382.24 228.964L361.836 246.584L364.411 249.566L384.815 231.946L382.24 228.964ZM361.632 249.363L361.909 249.683L364.891 247.108L364.614 246.788L361.632 249.363ZM421.158 195.913L362.112 246.904L364.687 249.886L423.734 198.895L421.158 195.913ZM421.912 223.778C430.11 216.698 431.016 204.314 423.937 196.116L420.955 198.692C426.612 205.242 425.888 215.139 419.337 220.796L421.912 223.778ZM376.218 263.238L421.912 223.778L419.337 220.796L373.643 260.256L376.218 263.238ZM373.439 263.035L373.715 263.354L376.697 260.779L376.421 260.46L373.439 263.035ZM447.003 197.461L373.918 260.576L376.494 263.558L449.578 200.443L447.003 197.461Z" fill="#333333"/>
<path d="M410.366 305.173C404.504 302.197 398.941 300.422 393.747 299.709C382.09 298.11 372.291 301.862 365.129 309.391" stroke="#333333" stroke-width="3.94"/>
<line x1="397.445" y1="290.273" x2="367.018" y2="255.039" stroke="#333333" stroke-width="3.94"/>
<circle cx="414.948" cy="273.527" r="31.0626" transform="rotate(-130.813 414.948 273.527)" fill="#628026" stroke="#333333" stroke-width="3.94"/>
<path d="M427.007 308.953L429.537 278.191C421.758 278.524 415.261 284.604 414.607 292.565L412.088 323.191L415.641 322.311C421.904 320.759 426.478 315.384 427.007 308.953Z" fill="white" stroke="#333333" stroke-width="3.94"/>
<path d="M703.411 288.566L742.071 272.267L762.49 286.812L739.011 296.203L750.149 304.137L717.931 316.63L733.4 327.649L668.591 337.447L700.894 322.216L686.662 312.078L717.643 298.703L703.411 288.566Z" stroke="#333333" stroke-width="3.94"/>
<path d="M293.158 584.522C295.365 579.459 301.258 577.144 306.321 579.35L360.737 603.07C365.8 605.276 368.115 611.17 365.908 616.232L348.297 656.636C346.09 661.699 340.197 664.014 335.134 661.808L280.718 638.088C275.655 635.882 273.34 629.988 275.547 624.926L293.158 584.522Z" fill="#628026" stroke="#333333" stroke-width="3.84"/>
<path fill-rule="evenodd" clip-rule="evenodd" d="M317.641 542.863C317.621 542.91 317.6 542.957 317.58 543.003L317.58 543.004L302.897 576.69L313.016 581.101L327.703 547.406L327.729 547.417C329.028 544.429 331.184 541.893 333.924 540.131C336.665 538.368 339.866 537.458 343.124 537.515C346.382 537.572 349.549 538.594 352.226 540.451C353.376 541.249 354.413 542.185 355.317 543.234C357.312 545.55 360.469 547.041 363.312 545.921C366.155 544.801 367.596 541.545 365.931 538.983C363.993 536 361.486 533.406 358.535 531.358C354.059 528.253 348.764 526.545 343.318 526.45C337.871 526.355 332.519 527.876 327.938 530.823C323.457 533.705 319.911 537.823 317.725 542.676L317.723 542.675L317.641 542.863Z" fill="#A4C954"/>
<path d="M317.58 543.003L315.819 542.238L315.054 543.997L316.813 544.763L317.58 543.003ZM317.641 542.863L319.398 543.638L319.401 543.63L317.641 542.863ZM317.58 543.004L319.34 543.771L320.107 542.011L318.347 541.243L317.58 543.004ZM302.897 576.69L301.136 575.923L300.369 577.683L302.129 578.45L302.897 576.69ZM313.016 581.101L312.249 582.861L314.009 583.628L314.776 581.868L313.016 581.101ZM327.703 547.406L328.469 545.645L326.71 544.88L325.943 546.638L327.703 547.406ZM327.729 547.417L326.963 549.177L328.724 549.943L329.489 548.182L327.729 547.417ZM333.924 540.131L332.886 538.516L332.886 538.516L333.924 540.131ZM343.124 537.515L343.09 539.435L343.09 539.435L343.124 537.515ZM352.226 540.451L353.321 538.873L353.321 538.873L352.226 540.451ZM355.317 543.234L356.772 541.981L356.772 541.981L355.317 543.234ZM363.312 545.921L362.608 544.135L362.608 544.135L363.312 545.921ZM365.931 538.983L364.321 540.029L364.321 540.029L365.931 538.983ZM358.535 531.358L359.629 529.781L359.629 529.781L358.535 531.358ZM343.318 526.45L343.351 524.53L343.351 524.53L343.318 526.45ZM327.938 530.823L326.899 529.208L326.899 529.208L327.938 530.823ZM317.725 542.676L316.958 544.436L318.697 545.194L319.476 543.464L317.725 542.676ZM317.723 542.675L318.491 540.915L316.73 540.148L315.963 541.908L317.723 542.675ZM319.341 543.769C319.36 543.725 319.379 543.682 319.398 543.638L315.885 542.088C315.863 542.138 315.841 542.188 315.819 542.238L319.341 543.769ZM318.347 541.243L318.347 541.243L316.813 544.763L316.813 544.764L318.347 541.243ZM304.657 577.457L319.34 543.771L315.82 542.236L301.136 575.923L304.657 577.457ZM313.783 579.341L303.664 574.93L302.129 578.45L312.249 582.861L313.783 579.341ZM325.943 546.638L311.256 580.334L314.776 581.868L329.463 548.173L325.943 546.638ZM328.494 545.656L328.469 545.645L326.938 549.166L326.963 549.177L328.494 545.656ZM332.886 538.516C329.826 540.484 327.419 543.315 325.968 546.651L329.489 548.182C330.637 545.543 332.542 543.303 334.963 541.746L332.886 538.516ZM343.158 535.595C339.52 535.531 335.946 536.548 332.886 538.516L334.963 541.746C337.384 540.188 340.212 539.384 343.09 539.435L343.158 535.595ZM353.321 538.873C350.332 536.8 346.795 535.659 343.158 535.595L343.09 539.435C345.968 539.485 348.767 540.388 351.132 542.028L353.321 538.873ZM356.772 541.981C355.763 540.81 354.605 539.764 353.321 538.873L351.132 542.028C352.148 542.733 353.064 543.561 353.863 544.487L356.772 541.981ZM362.608 544.135C360.836 544.833 358.491 543.977 356.772 541.981L353.863 544.487C356.133 547.123 360.102 549.249 364.016 547.708L362.608 544.135ZM364.321 540.029C365.176 541.345 364.59 543.355 362.608 544.135L364.016 547.708C367.721 546.248 370.015 541.746 367.541 537.937L364.321 540.029ZM357.44 532.936C360.186 534.84 362.518 537.254 364.321 540.029L367.541 537.937C365.468 534.746 362.786 531.971 359.629 529.781L357.44 532.936ZM343.284 528.37C348.35 528.458 353.277 530.047 357.44 532.936L359.629 529.781C354.842 526.459 349.177 524.632 343.351 524.53L343.284 528.37ZM328.977 532.438C333.238 529.697 338.217 528.281 343.284 528.37L343.351 524.53C337.525 524.428 331.8 526.056 326.899 529.208L328.977 532.438ZM319.476 543.464C321.509 538.95 324.808 535.119 328.977 532.438L326.899 529.208C322.106 532.291 318.312 536.696 315.974 541.887L319.476 543.464ZM316.956 544.435L316.958 544.436L318.492 540.916L318.491 540.915L316.956 544.435ZM319.401 543.63L319.483 543.442L315.963 541.908L315.881 542.096L319.401 543.63Z" fill="#333333"/>
<path d="M289.58 574.983C291.787 569.92 297.68 567.605 302.743 569.812L357.159 593.531C362.222 595.738 364.537 601.631 362.33 606.694L344.719 647.098C342.512 652.161 336.619 654.476 331.556 652.269L277.14 628.55C272.077 626.343 269.762 620.45 271.969 615.387L289.58 574.983Z" fill="white" stroke="#333333" stroke-width="3.84"/>
<mask id="path-40-inside-3_901_457" fill="white">
<path fill-rule="evenodd" clip-rule="evenodd" d="M320.208 617.409C323.835 616.98 327.145 614.691 328.71 611.101C331.054 605.724 328.595 599.464 323.217 597.12C317.839 594.776 311.58 597.235 309.236 602.613C307.671 606.202 308.247 610.185 310.401 613.133L304.491 622.087L317.672 627.832L320.208 617.409Z"/>
</mask>
<path fill-rule="evenodd" clip-rule="evenodd" d="M320.208 617.409C323.835 616.98 327.145 614.691 328.71 611.101C331.054 605.724 328.595 599.464 323.217 597.12C317.839 594.776 311.58 597.235 309.236 602.613C307.671 606.202 308.247 610.185 310.401 613.133L304.491 622.087L317.672 627.832L320.208 617.409Z" fill="#333333"/>
<path d="M320.208 617.409L319.746 613.496L317.027 613.817L316.379 616.477L320.208 617.409ZM310.401 613.133L313.69 615.304L315.198 613.019L313.583 610.809L310.401 613.133ZM304.491 622.087L301.203 619.916L298.621 623.826L302.917 625.698L304.491 622.087ZM317.672 627.832L316.098 631.444L320.393 633.316L321.5 628.763L317.672 627.832ZM325.098 609.527C324.116 611.781 322.04 613.225 319.746 613.496L320.669 621.321C325.631 620.736 330.174 617.602 332.322 612.676L325.098 609.527ZM321.643 600.732C325.026 602.206 326.573 606.144 325.098 609.527L332.322 612.676C335.535 605.303 332.164 596.722 324.791 593.508L321.643 600.732ZM312.848 604.187C314.322 600.804 318.26 599.257 321.643 600.732L324.791 593.508C317.419 590.295 308.837 593.666 305.624 601.038L312.848 604.187ZM313.583 610.809C312.22 608.944 311.865 606.441 312.848 604.187L305.624 601.038C303.477 605.964 304.273 611.425 307.22 615.458L313.583 610.809ZM307.779 624.257L313.69 615.304L307.113 610.963L301.203 619.916L307.779 624.257ZM319.246 624.22L306.065 618.475L302.917 625.698L316.098 631.444L319.246 624.22ZM316.379 616.477L313.844 626.901L321.5 628.763L324.036 618.34L316.379 616.477Z" fill="#333333" mask="url(#path-40-inside-3_901_457)"/>
</svg>
