<svg width="1080" height="1080" viewBox="0 0 1080 1080" fill="none" xmlns="http://www.w3.org/2000/svg">
<rect width="1080" height="1080" fill="#333333"/>
<rect x="356.691" y="561.123" width="10.9845" height="42.0597" transform="rotate(23.5518 356.691 561.123)" fill="#A4C954" stroke="#333333" stroke-width="3.84"/>
<path d="M434.924 730.91L393.107 757.679C392.791 757.882 392.61 758.241 392.635 758.615L395.953 808.155C396.005 808.937 396.876 809.376 397.536 808.954L439.353 782.185C439.669 781.983 439.85 781.624 439.825 781.249L436.507 731.709C436.455 730.927 435.584 730.488 434.924 730.91Z" stroke="white" stroke-width="3.94" stroke-linejoin="round"/>
<path d="M399.694 196.862L349.973 338.317C349.849 338.67 349.543 338.928 349.174 338.991L264.736 353.386C263.962 353.518 263.331 352.77 263.592 352.029L313.313 210.573C313.437 210.22 313.742 209.962 314.111 209.899L398.549 195.505C399.323 195.373 399.954 196.121 399.694 196.862Z" fill="#A4C954" stroke="#333333" stroke-width="3.94" stroke-linejoin="round"/>
<path d="M553.025 718.957L553.024 718.957L543.296 728.556L521.38 706.903L521.378 706.902L519.328 704.88L519.327 704.879L476.729 662.803L476.154 662.234H476.145L463.071 649.312L455.006 641.341L455.006 641.34L430.989 617.622L430.988 617.621L427.745 614.415L427.745 614.414L389.471 576.607C389.469 576.605 389.468 576.604 389.467 576.603C382 569.137 375.671 560.615 370.683 551.309L370.678 551.3L370.673 551.291C370.225 550.475 369.799 549.643 369.375 548.794L369.374 548.792C360.459 531.017 356.644 511.12 358.354 491.308C360.063 471.496 367.23 452.546 379.059 436.561C390.887 420.577 406.915 408.183 425.361 400.756C443.807 393.329 463.951 391.16 483.556 394.49L483.719 394.518H483.739C484.029 394.564 484.286 394.608 484.542 394.662L484.574 394.668L484.606 394.674C488.282 395.323 491.919 396.169 495.504 397.209L495.506 397.209C504.889 399.922 513.858 403.904 522.163 409.045C523.034 409.586 523.896 410.137 524.749 410.696C530.837 414.719 536.502 419.348 541.658 424.511L543.051 425.906L543.378 425.578L543.705 425.905L545.098 424.512C548.222 421.389 551.534 418.459 555.015 415.74L555.017 415.738C555.776 415.143 556.544 414.558 557.311 413.992C569.086 405.31 582.508 399.122 596.757 395.807C611.006 392.491 625.782 392.118 640.18 394.71L640.187 394.711C643.865 395.36 647.505 396.209 651.09 397.254L651.099 397.257L651.107 397.259C652.299 397.596 653.482 397.96 654.655 398.351L654.666 398.355C655.627 398.669 656.569 398.986 657.496 399.328L657.505 399.331L657.515 399.335C665.364 402.141 672.858 405.858 679.841 410.411C681.368 411.407 682.874 412.45 684.359 413.538L684.365 413.543C696.946 422.689 707.396 434.453 714.993 448.025C722.591 461.597 727.157 476.655 728.376 492.161C729.595 507.667 727.439 523.254 722.055 537.846C716.673 552.437 708.192 565.688 697.197 576.687C697.195 576.688 697.194 576.69 697.192 576.691L653.587 619.728L555.02 716.99L555.019 716.99L553.025 718.957Z" fill="#FF7676" stroke="#333333" stroke-width="3.94"/>
<circle cx="626.465" cy="484.047" r="117.298" fill="#A4C954" stroke="#333333" stroke-width="3.94"/>
<path d="M395.377 596.076L444.946 533.736C445.699 532.79 447.118 532.739 447.937 533.629L543.983 638.027C544.389 638.469 544.572 639.072 544.48 639.665L529.361 736.341C529.108 737.96 527.104 738.58 525.981 737.386L395.484 598.651C394.813 597.938 394.768 596.842 395.377 596.076Z" fill="#A4C954" stroke="#333333" stroke-width="3.94"/>
<circle cx="481.681" cy="502.222" r="16.3787" transform="rotate(-180 481.681 502.222)" fill="#628026" stroke="#333333" stroke-width="3.94"/>
<circle cx="576.112" cy="484.047" r="13.03" transform="rotate(-180 576.112 484.047)" fill="white" stroke="#333333" stroke-width="3.94"/>
<circle cx="626.465" cy="484.047" r="13.03" transform="rotate(-180 626.465 484.047)" fill="white" stroke="#333333" stroke-width="3.94"/>
<circle cx="676.817" cy="484.047" r="13.03" transform="rotate(-180 676.817 484.047)" fill="white" stroke="#333333" stroke-width="3.94"/>
<circle cx="566.865" cy="612.441" r="8.37801" transform="rotate(-180 566.865 612.441)" stroke="#333333" stroke-width="3.94"/>
<circle cx="815.061" cy="409.061" r="8.37801" transform="rotate(-180 815.061 409.061)" stroke="white" stroke-width="3.94"/>
<circle cx="550.959" cy="801.575" r="8.37801" transform="rotate(-180 550.959 801.575)" stroke="white" stroke-width="3.94"/>
<circle cx="487.816" cy="312.827" r="3.99953" transform="rotate(-180 487.816 312.827)" fill="white" stroke="white" stroke-width="3.94"/>
<circle cx="385.471" cy="699.357" r="3.99953" transform="rotate(-180 385.471 699.357)" fill="white" stroke="white" stroke-width="3.94"/>
<mask id="path-16-inside-1_901_520" fill="white">
<path d="M528.579 392.957C529.932 391.211 529.618 388.692 527.828 387.398C516.235 379.016 503.219 372.781 489.398 369.002C474.29 364.872 458.516 363.758 442.977 365.723C427.439 367.689 412.439 372.696 398.836 380.458C385.232 388.221 373.291 398.586 363.693 410.964C354.096 423.341 347.03 437.488 342.9 452.596C338.769 467.704 337.655 483.477 339.621 499.016C341.586 514.555 346.593 529.554 354.356 543.157C361.457 555.602 370.736 566.656 381.742 575.796C383.441 577.208 385.959 576.885 387.312 575.139L457.945 484.048L528.579 392.957Z"/>
</mask>
<path d="M528.579 392.957C529.932 391.211 529.618 388.692 527.828 387.398C516.235 379.016 503.219 372.781 489.398 369.002C474.29 364.872 458.516 363.758 442.977 365.723C427.439 367.689 412.439 372.696 398.836 380.458C385.232 388.221 373.291 398.586 363.693 410.964C354.096 423.341 347.03 437.488 342.9 452.596C338.769 467.704 337.655 483.477 339.621 499.016C341.586 514.555 346.593 529.554 354.356 543.157C361.457 555.602 370.736 566.656 381.742 575.796C383.441 577.208 385.959 576.885 387.312 575.139L457.945 484.048L528.579 392.957Z" fill="#628026" stroke="#333333" stroke-width="7.88" mask="url(#path-16-inside-1_901_520)"/>
<mask id="path-17-inside-2_901_520" fill="white">
<path d="M512.671 391.735C514.025 389.989 513.711 387.471 511.921 386.176C500.328 377.794 487.311 371.559 473.49 367.78C458.382 363.65 442.609 362.536 427.07 364.502C411.532 366.467 396.532 371.474 382.929 379.236C369.325 386.999 357.384 397.365 347.786 409.742C338.188 422.119 331.123 436.266 326.992 451.374C322.862 466.482 321.748 482.256 323.713 497.794C325.679 513.333 330.686 528.332 338.448 541.936C345.549 554.38 354.829 565.434 365.835 574.575C367.534 575.986 370.051 575.663 371.405 573.917L442.038 482.826L512.671 391.735Z"/>
</mask>
<path d="M512.671 391.735C514.025 389.989 513.711 387.471 511.921 386.176C500.328 377.794 487.311 371.559 473.49 367.78C458.382 363.65 442.609 362.536 427.07 364.502C411.532 366.467 396.532 371.474 382.929 379.236C369.325 386.999 357.384 397.365 347.786 409.742C338.188 422.119 331.123 436.266 326.992 451.374C322.862 466.482 321.748 482.256 323.713 497.794C325.679 513.333 330.686 528.332 338.448 541.936C345.549 554.38 354.829 565.434 365.835 574.575C367.534 575.986 370.051 575.663 371.405 573.917L442.038 482.826L512.671 391.735Z" fill="#A4C954" stroke="#333333" stroke-width="7.88" mask="url(#path-17-inside-2_901_520)"/>
<path d="M843.607 517.965L799.268 502.219" stroke="white" stroke-width="3.94"/>
<path d="M260.041 744.343L290.747 708.691" stroke="white" stroke-width="3.94"/>
<path d="M562.355 290.717L556.823 243.991" stroke="white" stroke-width="3.94"/>
<circle cx="250.555" cy="496.692" r="30.245" transform="rotate(-180 250.555 496.692)" stroke="white" stroke-width="3.94"/>
<circle cx="564.848" cy="639.086" r="1.97" fill="#333333" stroke="#333333" stroke-width="3.14263"/>
<path d="M635.376 775.13L638.129 811.307C638.153 811.629 638.327 811.92 638.598 812.095L675.02 835.544C675.735 836.004 676.669 835.448 676.604 834.6L673.851 798.422C673.827 798.101 673.653 797.809 673.382 797.635L636.961 774.186C636.245 773.725 635.311 774.282 635.376 775.13Z" fill="#628026" stroke="#333333" stroke-width="3.94" stroke-linejoin="round"/>
<path fill-rule="evenodd" clip-rule="evenodd" d="M776.274 628.992C767.514 621.534 754.366 622.591 746.909 631.351L686.498 702.315L686.118 701.992L746.355 631.232C737.595 623.774 724.447 624.83 716.989 633.591L669.408 689.484C666.727 692.077 662.927 693.336 657.108 689.775C655.628 683.764 652.854 677.451 648.633 670.935L633.994 668.844C631.905 668.545 629.922 669.91 629.429 671.962C628.238 676.919 625.724 687.073 621.098 705.19C621.049 705.381 620.996 705.583 620.941 705.795C619.189 712.52 614.745 729.577 640.628 751.612C679.757 784.922 694.115 790.973 733.948 744.516L733.952 744.519L768.982 703.369C760.222 695.911 747.074 696.968 739.617 705.728L718.982 729.968L718.602 729.645L778.318 659.497C769.557 652.04 756.41 653.096 748.952 661.856L702.74 716.141L702.361 715.818L776.274 628.992Z" fill="white"/>
<path d="M746.909 631.351L748.409 632.628L746.909 631.351ZM776.274 628.992L777.551 627.492L779.052 628.769L777.775 630.269L776.274 628.992ZM686.498 702.315L687.998 703.592L686.721 705.092L685.221 703.815L686.498 702.315ZM686.118 701.992L684.841 703.492L683.341 702.215L684.618 700.715L686.118 701.992ZM746.355 631.232L747.632 629.732L749.132 631.009L747.855 632.509L746.355 631.232ZM716.989 633.591L718.489 634.868L716.989 633.591ZM669.408 689.484L670.908 690.761L670.847 690.833L670.778 690.9L669.408 689.484ZM657.108 689.775L656.08 691.455L655.389 691.032L655.195 690.246L657.108 689.775ZM648.633 670.935L648.912 668.985L649.799 669.112L650.286 669.864L648.633 670.935ZM633.994 668.844L633.715 670.794L633.715 670.794L633.994 668.844ZM629.429 671.962L627.514 671.501L627.514 671.501L629.429 671.962ZM621.098 705.19L619.189 704.703L619.189 704.702L621.098 705.19ZM620.941 705.795L619.035 705.298L619.035 705.298L620.941 705.795ZM733.948 744.516L732.453 743.234L733.73 741.743L735.225 743.016L733.948 744.516ZM733.952 744.519L735.452 745.796L734.175 747.296L732.675 746.019L733.952 744.519ZM768.982 703.369L770.259 701.869L771.759 703.146L770.482 704.646L768.982 703.369ZM718.982 729.968L720.482 731.245L719.205 732.745L717.705 731.468L718.982 729.968ZM718.602 729.645L717.325 731.145L715.825 729.868L717.102 728.368L718.602 729.645ZM778.318 659.497L779.595 657.997L781.095 659.274L779.818 660.774L778.318 659.497ZM748.952 661.856L750.452 663.133L750.452 663.133L748.952 661.856ZM702.74 716.141L704.24 717.418L702.963 718.918L701.463 717.641L702.74 716.141ZM702.361 715.818L701.084 717.318L699.584 716.041L700.86 714.541L702.361 715.818ZM745.409 630.074C753.572 620.485 767.962 619.329 777.551 627.492L774.997 630.492C767.065 623.74 755.161 624.696 748.409 632.628L745.409 630.074ZM684.998 701.038L745.409 630.074L748.409 632.628L687.998 703.592L684.998 701.038ZM685.221 703.815L684.841 703.492L687.395 700.491L687.775 700.815L685.221 703.815ZM747.855 632.509L687.618 703.269L684.618 700.715L744.855 629.955L747.855 632.509ZM715.489 632.314C723.652 622.725 738.043 621.569 747.632 629.732L745.078 632.732C737.146 625.979 725.242 626.936 718.489 634.868L715.489 632.314ZM667.908 688.207L715.489 632.314L718.489 634.868L670.908 690.761L667.908 688.207ZM670.778 690.9C669.214 692.412 667.198 693.65 664.624 693.898C662.064 694.144 659.233 693.385 656.08 691.455L658.136 688.094C660.802 689.726 662.781 690.117 664.246 689.976C665.696 689.837 666.921 689.149 668.039 688.068L670.778 690.9ZM655.195 690.246C653.775 684.479 651.1 678.367 646.98 672.006L650.286 669.864C654.608 676.536 657.481 683.049 659.021 689.304L655.195 690.246ZM648.354 672.885L633.715 670.794L634.272 666.893L648.912 668.985L648.354 672.885ZM633.715 670.794C632.646 670.641 631.604 671.345 631.345 672.422L627.514 671.501C628.241 668.475 631.163 666.449 634.272 666.893L633.715 670.794ZM631.345 672.422C630.15 677.392 627.634 687.557 623.006 705.677L619.189 704.702C623.814 686.589 626.325 676.445 627.514 671.501L631.345 672.422ZM623.006 705.677C622.956 705.874 622.902 706.081 622.847 706.292L619.035 705.298C619.09 705.085 619.141 704.888 619.189 704.703L623.006 705.677ZM622.847 706.291C621.989 709.585 620.55 715.133 622.336 722.498C624.121 729.864 629.201 739.297 641.905 750.112L639.351 753.112C626.172 741.892 620.532 731.78 618.507 723.426C616.481 715.073 618.141 708.73 619.035 705.298L622.847 706.291ZM641.905 750.112C651.689 758.441 659.816 764.969 667.136 769.404C674.443 773.83 680.783 776.067 687.005 776.007C693.205 775.947 699.568 773.601 706.913 768.31C714.282 763.001 722.528 754.809 732.453 743.234L735.444 745.798C725.452 757.452 716.965 765.924 709.216 771.506C701.443 777.106 694.302 779.876 687.043 779.946C679.805 780.017 672.73 777.399 665.095 772.774C657.474 768.157 649.132 761.438 639.351 753.112L641.905 750.112ZM735.225 743.016L735.229 743.019L732.675 746.019L732.671 746.016L735.225 743.016ZM732.452 743.242L767.482 702.092L770.482 704.646L735.452 745.796L732.452 743.242ZM767.705 704.869C759.773 698.117 747.869 699.073 741.117 707.005L738.116 704.451C746.279 694.862 760.67 693.706 770.259 701.869L767.705 704.869ZM741.117 707.005L720.482 731.245L717.482 728.691L738.116 704.451L741.117 707.005ZM717.705 731.468L717.325 731.145L719.879 728.145L720.259 728.468L717.705 731.468ZM779.818 660.774L720.102 730.922L717.102 728.368L776.818 658.22L779.818 660.774ZM747.452 660.579C755.615 650.99 770.006 649.834 779.595 657.997L777.041 660.997C769.109 654.245 757.204 655.201 750.452 663.133L747.452 660.579ZM701.24 714.864L747.452 660.579L750.452 663.133L704.24 717.418L701.24 714.864ZM701.463 717.641L701.084 717.318L703.638 714.318L704.017 714.641L701.463 717.641ZM777.775 630.269L703.861 717.095L700.86 714.541L774.774 627.715L777.775 630.269Z" fill="#333333"/>
<path d="M651.165 674.661C654.729 681.559 656.871 688.112 657.756 694.239C659.742 707.99 655.394 719.592 646.563 728.112" stroke="#333333" stroke-width="3.94"/>
<line y1="-1.97" x2="54.9713" y2="-1.97" transform="matrix(0.761456 0.648217 0.648217 -0.761456 670.376 688.024)" stroke="#333333" stroke-width="3.94"/>
<circle r="37.0355" transform="matrix(0.761456 0.648217 0.648217 -0.761456 688.495 668.987)" fill="#A4C954" stroke="#333333" stroke-width="3.94"/>
<path d="M644.333 654.887L683.233 651.41C683.097 660.952 675.764 669.037 666.051 669.905L629.416 673.179L631.057 666.347C632.563 660.073 637.906 655.461 644.333 654.887Z" fill="white" stroke="#333333" stroke-width="3.94"/>
<path fill-rule="evenodd" clip-rule="evenodd" d="M448.011 198.958C454.379 206.332 453.563 217.472 446.189 223.841L386.456 275.425L386.732 275.744L446.294 224.307C452.662 231.682 451.846 242.822 444.472 249.19L397.423 289.821C395.244 292.107 394.202 295.332 397.252 300.238C402.351 301.455 407.713 303.766 413.257 307.302L415.031 319.118C415.344 321.205 413.992 323.199 411.945 323.709C407.571 324.799 399.077 326.97 384.413 330.825C384.252 330.868 384.081 330.914 383.902 330.962C378.218 332.486 363.799 336.352 344.984 314.564C316.541 281.628 311.33 269.506 350.434 235.494L350.431 235.491L385.068 205.578C391.436 212.952 390.621 224.093 383.247 230.461L362.843 248.081L363.119 248.401L422.166 197.41C428.534 204.784 427.718 215.924 420.344 222.293L374.65 261.753L374.926 262.073L448.011 198.958Z" fill="white"/>
<path d="M448.011 198.958L449.501 197.67L448.214 196.179L446.723 197.467L448.011 198.958ZM386.456 275.425L385.169 273.934L383.678 275.221L384.965 276.712L386.456 275.425ZM386.732 275.744L385.241 277.031L386.529 278.522L388.019 277.235L386.732 275.744ZM446.294 224.307L447.785 223.02L446.497 221.529L445.006 222.816L446.294 224.307ZM397.423 289.821L396.135 288.33L396.063 288.392L395.997 288.461L397.423 289.821ZM397.252 300.238L395.579 301.278L396.006 301.966L396.794 302.154L397.252 300.238ZM413.257 307.302L415.205 307.009L415.072 306.123L414.316 305.641L413.257 307.302ZM415.031 319.118L413.082 319.411L415.031 319.118ZM411.945 323.709L411.469 321.797L411.469 321.797L411.945 323.709ZM384.413 330.825L384.914 332.731L384.914 332.731L384.413 330.825ZM383.902 330.962L383.392 329.059L383.392 329.059L383.902 330.962ZM350.434 235.494L351.726 236.98L353.208 235.692L351.924 234.206L350.434 235.494ZM350.431 235.491L349.143 234L347.652 235.287L348.94 236.778L350.431 235.491ZM385.068 205.578L386.559 204.291L385.272 202.8L383.781 204.087L385.068 205.578ZM383.247 230.461L381.959 228.97L383.247 230.461ZM362.843 248.081L361.555 246.59L360.065 247.878L361.352 249.369L362.843 248.081ZM363.119 248.401L361.628 249.689L362.916 251.18L364.407 249.892L363.119 248.401ZM422.166 197.41L423.657 196.122L422.369 194.631L420.878 195.919L422.166 197.41ZM420.344 222.293L421.632 223.784L420.344 222.293ZM374.65 261.753L373.362 260.262L371.871 261.55L373.159 263.041L374.65 261.753ZM374.926 262.073L373.435 263.36L374.722 264.851L376.213 263.563L374.926 262.073ZM447.477 225.332C455.674 218.252 456.581 205.868 449.501 197.67L446.52 200.246C452.177 206.796 451.452 216.693 444.901 222.35L447.477 225.332ZM387.744 276.916L447.477 225.332L444.901 222.35L385.169 273.934L387.744 276.916ZM384.965 276.712L385.241 277.031L388.223 274.456L387.947 274.137L384.965 276.712ZM445.006 222.816L385.444 274.253L388.019 277.235L447.581 225.798L445.006 222.816ZM445.76 250.681C453.957 243.602 454.864 231.217 447.785 223.02L444.803 225.595C450.46 232.146 449.735 242.042 443.184 247.699L445.76 250.681ZM398.711 291.312L445.76 250.681L443.184 247.699L396.135 288.33L398.711 291.312ZM395.997 288.461C394.693 289.829 393.616 291.605 393.414 293.872C393.214 296.125 393.903 298.582 395.579 301.278L398.925 299.197C397.551 296.987 397.236 295.379 397.339 294.221C397.44 293.079 397.974 292.098 398.849 291.18L395.997 288.461ZM396.794 302.154C401.649 303.313 406.81 305.526 412.197 308.963L414.316 305.641C408.617 302.005 403.053 299.597 397.709 298.321L396.794 302.154ZM411.308 307.594L413.082 319.411L416.979 318.826L415.205 307.009L411.308 307.594ZM413.082 319.411C413.243 320.478 412.545 321.529 411.469 321.797L412.421 325.621C415.439 324.869 417.445 321.931 416.979 318.826L413.082 319.411ZM411.469 321.797C407.082 322.89 398.58 325.064 383.912 328.92L384.914 332.731C399.575 328.876 408.059 326.707 412.421 325.621L411.469 321.797ZM383.912 328.92C383.745 328.964 383.57 329.011 383.392 329.059L384.412 332.865C384.592 332.816 384.758 332.772 384.914 332.731L383.912 328.92ZM383.392 329.059C380.619 329.802 375.99 331.037 369.818 329.587C363.645 328.137 355.678 323.934 346.475 313.277L343.493 315.852C353.105 326.982 361.755 331.74 368.916 333.423C376.079 335.105 381.501 333.645 384.412 332.864L383.392 329.059ZM346.475 313.277C339.363 305.041 333.8 298.215 330.015 292.065C326.238 285.929 324.335 280.629 324.349 275.438C324.362 270.267 326.278 264.925 330.692 258.706C335.122 252.463 341.989 245.449 351.726 236.98L349.141 234.007C339.326 242.544 332.18 249.8 327.479 256.426C322.76 263.075 320.425 269.198 320.409 275.427C320.392 281.635 322.681 287.667 326.659 294.13C330.629 300.579 336.383 307.619 343.493 315.852L346.475 313.277ZM351.924 234.206L351.922 234.203L348.94 236.778L348.943 236.781L351.924 234.206ZM351.718 236.982L386.356 207.069L383.781 204.087L349.143 234L351.718 236.982ZM383.577 206.866C389.234 213.416 388.51 223.313 381.959 228.97L384.534 231.952C392.732 224.873 393.639 212.488 386.559 204.291L383.577 206.866ZM381.959 228.97L361.555 246.59L364.131 249.572L384.534 231.952L381.959 228.97ZM361.352 249.369L361.628 249.689L364.61 247.114L364.334 246.794L361.352 249.369ZM420.878 195.919L361.832 246.91L364.407 249.892L423.453 198.901L420.878 195.919ZM421.632 223.784C429.829 216.704 430.736 204.32 423.657 196.122L420.675 198.698C426.332 205.248 425.607 215.145 419.057 220.802L421.632 223.784ZM375.938 263.244L421.632 223.784L419.057 220.802L373.362 260.262L375.938 263.244ZM373.159 263.041L373.435 263.36L376.417 260.785L376.141 260.466L373.159 263.041ZM446.723 197.467L373.638 260.582L376.213 263.563L449.298 200.449L446.723 197.467Z" fill="#333333"/>
<path d="M410.086 305.179C404.223 302.203 398.661 300.428 393.467 299.715C381.81 298.116 372.011 301.868 364.849 309.397" stroke="#333333" stroke-width="3.94"/>
<line x1="397.164" y1="290.279" x2="366.737" y2="255.045" stroke="#333333" stroke-width="3.94"/>
<circle cx="414.668" cy="273.532" r="31.0626" transform="rotate(-130.813 414.668 273.532)" fill="#628026" stroke="#333333" stroke-width="3.94"/>
<path d="M426.727 308.959L429.256 278.197C421.478 278.529 414.981 284.61 414.326 292.571L411.808 323.196L415.361 322.316C421.624 320.765 426.198 315.39 426.727 308.959Z" fill="white" stroke="#333333" stroke-width="3.94"/>
<path d="M703.131 288.571L741.791 272.273L762.21 286.818L738.731 296.209L749.869 304.143L717.651 316.636L733.12 327.655L668.311 337.453L700.614 322.222L686.382 312.084L717.363 298.709L703.131 288.571Z" stroke="white" stroke-width="3.94"/>
<path d="M292.878 584.527C295.084 579.465 300.978 577.149 306.04 579.356L360.456 603.075C365.519 605.282 367.834 611.175 365.627 616.238L348.016 656.642C345.809 661.705 339.916 664.02 334.853 661.813L280.437 638.094C275.374 635.887 273.059 629.994 275.266 624.931L292.878 584.527Z" fill="#628026" stroke="#333333" stroke-width="3.84"/>
<path fill-rule="evenodd" clip-rule="evenodd" d="M317.361 542.869C317.34 542.916 317.32 542.962 317.299 543.009L317.299 543.009L302.616 576.696L312.735 581.107L327.422 547.411L327.448 547.423C328.747 544.435 330.903 541.899 333.644 540.137C336.384 538.374 339.586 537.464 342.843 537.521C346.101 537.578 349.269 538.599 351.946 540.457C353.096 541.254 354.133 542.191 355.036 543.24C357.031 545.555 360.188 547.047 363.031 545.927C365.875 544.807 367.315 541.551 365.65 538.989C363.712 536.006 361.205 533.412 358.254 531.364C353.779 528.259 348.483 526.551 343.037 526.456C337.591 526.36 332.239 527.882 327.657 530.829C323.176 533.711 319.63 537.829 317.444 542.682L317.443 542.681L317.361 542.869Z" fill="#A4C954"/>
<path d="M317.299 543.009L315.538 542.244L314.773 544.003L316.532 544.769L317.299 543.009ZM317.361 542.869L319.117 543.644L319.121 543.636L317.361 542.869ZM317.299 543.009L319.059 543.777L319.827 542.017L318.067 541.249L317.299 543.009ZM302.616 576.696L300.856 575.929L300.089 577.689L301.849 578.456L302.616 576.696ZM312.735 581.107L311.968 582.867L313.728 583.634L314.495 581.874L312.735 581.107ZM327.422 547.411L328.188 545.651L326.429 544.886L325.662 546.644L327.422 547.411ZM327.448 547.423L326.682 549.183L328.443 549.949L329.209 548.188L327.448 547.423ZM333.644 540.137L332.605 538.522L332.605 538.522L333.644 540.137ZM342.843 537.521L342.81 539.44L342.81 539.44L342.843 537.521ZM351.946 540.457L353.04 538.879L353.04 538.879L351.946 540.457ZM355.036 543.24L356.491 541.987L356.491 541.987L355.036 543.24ZM363.031 545.927L362.328 544.141L362.328 544.141L363.031 545.927ZM365.65 538.989L364.04 540.034L364.04 540.034L365.65 538.989ZM358.254 531.364L359.348 529.787L359.348 529.787L358.254 531.364ZM343.037 526.456L343.07 524.536L343.07 524.536L343.037 526.456ZM327.657 530.829L326.619 529.214L326.619 529.214L327.657 530.829ZM317.444 542.682L316.677 544.442L318.416 545.2L319.195 543.47L317.444 542.682ZM317.443 542.681L318.21 540.921L316.45 540.154L315.683 541.914L317.443 542.681ZM319.06 543.775C319.079 543.731 319.098 543.688 319.117 543.644L315.604 542.093C315.582 542.143 315.56 542.193 315.538 542.244L319.06 543.775ZM318.067 541.249L318.066 541.249L316.532 544.769L316.532 544.769L318.067 541.249ZM304.376 577.463L319.059 543.777L315.539 542.242L300.856 575.929L304.376 577.463ZM313.502 579.347L303.383 574.936L301.849 578.456L311.968 582.867L313.502 579.347ZM325.662 546.644L310.975 580.34L314.495 581.874L329.182 548.179L325.662 546.644ZM328.213 545.662L328.188 545.651L326.657 549.172L326.682 549.183L328.213 545.662ZM332.605 538.522C329.545 540.49 327.138 543.321 325.687 546.657L329.209 548.188C330.356 545.548 332.261 543.308 334.682 541.751L332.605 538.522ZM342.877 535.601C339.239 535.537 335.665 536.554 332.605 538.522L334.682 541.751C337.103 540.194 339.932 539.39 342.81 539.44L342.877 535.601ZM353.04 538.879C350.051 536.805 346.514 535.665 342.877 535.601L342.81 539.44C345.688 539.491 348.486 540.393 350.851 542.034L353.04 538.879ZM356.491 541.987C355.482 540.816 354.324 539.77 353.04 538.879L350.851 542.034C351.867 542.739 352.783 543.566 353.582 544.493L356.491 541.987ZM362.328 544.141C360.555 544.839 358.21 543.982 356.491 541.987L353.582 544.493C355.852 547.129 359.821 549.255 363.735 547.714L362.328 544.141ZM364.04 540.034C364.895 541.351 364.309 543.36 362.328 544.141L363.735 547.714C367.441 546.254 369.735 541.751 367.26 537.943L364.04 540.034ZM357.16 532.942C359.905 534.846 362.237 537.26 364.04 540.034L367.26 537.943C365.187 534.752 362.505 531.977 359.348 529.787L357.16 532.942ZM343.003 528.375C348.07 528.464 352.996 530.053 357.16 532.942L359.348 529.787C354.561 526.465 348.896 524.638 343.07 524.536L343.003 528.375ZM328.696 532.444C332.958 529.703 337.937 528.287 343.003 528.375L343.07 524.536C337.245 524.434 331.519 526.062 326.619 529.214L328.696 532.444ZM319.195 543.47C321.228 538.956 324.527 535.125 328.696 532.444L326.619 529.214C321.825 532.297 318.032 536.702 315.694 541.893L319.195 543.47ZM316.675 544.441L316.677 544.442L318.211 540.922L318.21 540.921L316.675 544.441ZM319.121 543.636L319.203 543.448L315.683 541.914L315.601 542.102L319.121 543.636Z" fill="#333333"/>
<path d="M289.3 574.989C291.506 569.926 297.4 567.611 302.462 569.818L356.878 593.537C361.941 595.744 364.256 601.637 362.049 606.7L344.438 647.104C342.231 652.167 336.338 654.482 331.275 652.275L276.859 628.556C271.796 626.349 269.481 620.456 271.688 615.393L289.3 574.989Z" fill="white" stroke="#333333" stroke-width="3.84"/>
<mask id="path-41-inside-3_901_520" fill="white">
<path fill-rule="evenodd" clip-rule="evenodd" d="M319.927 617.414C323.554 616.986 326.864 614.697 328.429 611.107C330.773 605.729 328.314 599.47 322.936 597.126C317.559 594.782 311.299 597.241 308.955 602.619C307.39 606.208 307.966 610.191 310.121 613.139L304.21 622.092L317.391 627.838L319.927 617.414Z"/>
</mask>
<path fill-rule="evenodd" clip-rule="evenodd" d="M319.927 617.414C323.554 616.986 326.864 614.697 328.429 611.107C330.773 605.729 328.314 599.47 322.936 597.126C317.559 594.782 311.299 597.241 308.955 602.619C307.39 606.208 307.966 610.191 310.121 613.139L304.21 622.092L317.391 627.838L319.927 617.414Z" fill="#333333"/>
<path d="M319.927 617.414L319.465 613.502L316.746 613.822L316.099 616.483L319.927 617.414ZM310.121 613.139L313.409 615.31L314.917 613.025L313.302 610.814L310.121 613.139ZM304.21 622.092L300.922 619.922L298.341 623.832L302.636 625.704L304.21 622.092ZM317.391 627.838L315.817 631.45L320.112 633.322L321.22 628.769L317.391 627.838ZM324.817 609.533C323.835 611.787 321.759 613.231 319.465 613.502L320.389 621.327C325.35 620.742 329.894 617.607 332.041 612.681L324.817 609.533ZM321.362 600.738C324.745 602.212 326.292 606.15 324.817 609.533L332.041 612.681C335.254 605.309 331.883 596.728 324.511 593.514L321.362 600.738ZM312.567 604.193C314.041 600.81 317.979 599.263 321.362 600.738L324.511 593.514C317.138 590.301 308.557 593.672 305.343 601.044L312.567 604.193ZM313.302 610.814C311.939 608.95 311.584 606.446 312.567 604.193L305.343 601.044C303.196 605.97 303.992 611.431 306.94 615.464L313.302 610.814ZM307.498 624.263L313.409 615.31L306.833 610.969L300.922 619.922L307.498 624.263ZM318.966 624.226L305.785 618.481L302.636 625.704L315.817 631.45L318.966 624.226ZM316.099 616.483L313.563 626.907L321.22 628.769L323.755 618.346L316.099 616.483Z" fill="#333333" mask="url(#path-41-inside-3_901_520)"/>
</svg>
