<svg width="1080" height="1080" viewBox="0 0 1080 1080" fill="none" xmlns="http://www.w3.org/2000/svg">
<rect width="1080" height="1080" fill="#333333"/>
<mask id="path-1-inside-1_901_401" fill="white">
<path fill-rule="evenodd" clip-rule="evenodd" d="M618.421 218.556C610.208 197.107 589.427 181.877 565.089 181.877C542.356 181.877 522.727 195.163 513.543 214.394H493.915C471.498 214.394 453.326 232.808 453.326 255.225C453.326 277.642 471.498 296.057 493.915 296.057H577.907C589.339 296.057 599.666 291.268 607.043 283.602C614.467 291.281 624.877 296.056 636.402 296.056C658.952 296.056 677.233 277.776 677.233 255.225C677.233 232.675 658.952 214.394 636.402 214.394C629.95 214.394 623.847 215.891 618.421 218.556Z"/>
</mask>
<path d="M618.421 218.556L614.742 219.965L616.285 223.996L620.159 222.093L618.421 218.556ZM513.543 214.394V218.334H516.028L517.098 216.092L513.543 214.394ZM607.043 283.602L609.876 280.864L607.037 277.927L604.204 280.87L607.043 283.602ZM622.101 217.147C613.323 194.224 591.113 177.937 565.089 177.937V185.817C587.741 185.817 607.093 199.99 614.742 219.965L622.101 217.147ZM565.089 177.937C540.781 177.937 519.801 192.147 509.988 212.696L517.098 216.092C525.653 198.179 543.931 185.817 565.089 185.817V177.937ZM513.543 210.454H493.915V218.334H513.543V210.454ZM493.915 210.454C469.292 210.454 449.386 230.663 449.386 255.225H457.266C457.266 234.954 473.705 218.334 493.915 218.334V210.454ZM449.386 255.225C449.386 279.788 469.292 299.997 493.915 299.997V292.117C473.705 292.117 457.266 275.497 457.266 255.225H449.386ZM493.915 299.997H577.907V292.117H493.915V299.997ZM577.907 299.997C590.464 299.997 601.801 294.732 609.882 286.334L604.204 280.87C597.532 287.804 588.213 292.117 577.907 292.117V299.997ZM636.402 292.116C625.989 292.116 616.589 287.807 609.876 280.864L604.211 286.341C612.346 294.756 623.766 299.996 636.402 299.996V292.116ZM673.293 255.225C673.293 275.6 656.776 292.116 636.402 292.116V299.996C661.129 299.996 681.173 279.952 681.173 255.225H673.293ZM636.402 218.334C656.776 218.334 673.293 234.851 673.293 255.225H681.173C681.173 230.499 661.129 210.454 636.402 210.454V218.334ZM620.159 222.093C625.055 219.687 630.565 218.334 636.402 218.334V210.454C629.334 210.454 622.638 212.095 616.684 215.02L620.159 222.093Z" fill="white" mask="url(#path-1-inside-1_901_401)"/>
<rect x="503.512" y="258.271" width="52.2841" height="43.4111" fill="#333333"/>
<path d="M561.77 318.57L561.74 318.602L561.711 318.635L531.942 353.252C531.47 353.786 530.922 354.191 530.337 354.457C529.75 354.724 529.132 354.849 528.517 354.833L528.491 354.832H528.465H528.366H528.342L528.317 354.833C527.698 354.848 527.077 354.722 526.486 354.454C525.899 354.188 525.347 353.783 524.872 353.249L495.147 318.667C495.061 318.559 494.98 318.469 494.922 318.406C494.879 318.359 494.855 318.334 494.838 318.315C494.827 318.303 494.818 318.294 494.809 318.284C493.958 317.237 493.475 315.812 493.52 314.311C493.565 312.795 494.141 311.406 495.058 310.435L495.06 310.434C496.073 309.359 497.36 308.807 498.646 308.807C499.918 308.807 501.191 309.347 502.199 310.399L519.802 331.166L523.275 335.264V329.893V276.276C523.347 274.661 523.964 273.18 524.942 272.125C525.92 271.069 527.17 270.529 528.416 270.529C529.662 270.529 530.911 271.069 531.89 272.125C532.867 273.18 533.484 274.661 533.556 276.276V329.893V335.267L537.03 331.166L554.618 310.399C555.629 309.347 556.904 308.807 558.178 308.807C559.459 308.807 560.741 309.352 561.754 310.415C561.811 310.48 561.868 310.544 561.929 310.613C561.957 310.645 561.986 310.677 562.017 310.712C562.868 311.761 563.351 313.188 563.306 314.691C563.261 316.207 562.686 317.596 561.77 318.57Z" fill="#A4C954" stroke="#333333" stroke-width="3.94"/>
<circle cx="550.196" cy="588.702" r="161.061" fill="#FFE924" stroke="#333333" stroke-width="3.94" stroke-linecap="round"/>
<path d="M716.578 575.595L385.79 777.265C382.328 779.376 381.971 784.265 385.089 786.856L488.568 872.83C490.51 874.443 493.264 874.645 495.42 873.33L826.209 671.66C829.67 669.549 830.027 664.66 826.909 662.069L723.43 576.095C721.488 574.482 718.734 574.28 716.578 575.595Z" fill="#628026" stroke="#333333" stroke-width="3.94" stroke-linecap="round"/>
<path d="M598.124 714.716C598.14 714.715 598.14 714.716 598.14 714.716L598.14 714.705C598.139 714.681 598.138 714.636 598.139 714.569C598.139 714.434 598.144 714.213 598.162 713.904C598.2 713.287 598.294 712.318 598.525 710.991C598.987 708.337 599.995 704.247 602.193 698.666C606.59 687.501 615.745 670.377 634.785 646.875C650.412 627.586 655.995 612.989 657.421 602.603C658.135 597.409 657.802 593.306 657.195 590.244C656.703 587.763 656.014 585.93 655.645 584.949C655.564 584.732 655.498 584.557 655.453 584.425C654.687 582.172 652.337 578.992 648.518 577.023C644.592 574.999 639.212 574.299 632.534 576.924C619.542 582.032 604.424 594.546 593.293 624.126C587.856 638.574 577.271 668.502 594.321 715.492L598.124 714.716Z" fill="#A4C954" stroke="#333333" stroke-width="3.94" stroke-linecap="round"/>
<path d="M634.387 458.3C604.761 491.239 460.723 600.388 564.804 816.736" stroke="#333333" stroke-width="3.94" stroke-linecap="round"/>
<path d="M493.661 796.363L489.723 796.242C489.775 794.169 489.214 780.126 479.377 764.212C469.581 748.363 450.475 730.475 413.132 720.754C386.343 713.781 372.439 706.347 365.588 698.714C362.113 694.842 360.467 690.937 359.88 687.101C359.301 683.314 359.772 679.695 360.36 676.448C360.828 673.858 363.035 668.176 367.419 663.159C371.861 658.076 378.658 653.547 388.253 653.726C406.614 654.067 430.875 661.897 457.226 691.105C470.085 705.357 495.898 735.194 493.661 796.363Z" fill="#A4C954" stroke="#333333" stroke-width="3.94" stroke-linecap="round"/>
<path d="M492.881 805.761L496.3 803.802C495.928 803.144 493.302 797.756 493.815 789.755C494.322 781.831 497.92 771.13 510.284 759.743C519.32 751.421 523.414 745.439 524.582 740.7C525.184 738.26 525.005 736.174 524.364 734.352C523.74 732.576 522.71 731.145 521.786 729.976C520.936 728.899 518.726 727.024 515.793 725.91C512.779 724.766 508.831 724.368 504.772 726.63C497.377 730.749 489.364 739.125 485.09 756.268C483.001 764.645 479.078 781.996 492.881 805.761Z" fill="#A4C954" stroke="#333333" stroke-width="3.94" stroke-linecap="round"/>
<path d="M532.66 624.952L531.279 630.383L528.958 625.283C527.816 622.772 527.13 620.092 526.419 617.314C526.311 616.895 526.204 616.474 526.094 616.05C525.241 612.77 524.209 609.151 522.248 604.911C518.331 596.439 510.598 585.262 492.802 569.627C478.259 556.85 472.079 548.658 469.7 543.132C468.487 540.316 468.237 538.138 468.416 536.387C468.503 535.525 468.69 534.82 468.863 534.264C468.96 533.954 469.028 533.756 469.078 533.609C469.138 533.436 469.173 533.332 469.204 533.198C470.073 529.43 475.903 522.499 487.513 525.231C498.668 527.856 512.316 535.809 524.384 556.812C530.277 567.068 541.949 588.429 532.66 624.952Z" fill="#A4C954" stroke="#333333" stroke-width="3.94" stroke-linecap="round"/>
<path d="M748.627 685.433L752.504 685.059C753.392 668.823 757.287 659.917 763.337 653.561C768.427 648.212 775.095 644.562 783.418 640.006C785.248 639.004 787.159 637.959 789.15 636.841C802.351 629.434 807.84 620.292 809.852 612.507C811.81 604.929 810.418 598.851 810.07 597.333C810.064 597.305 810.058 597.279 810.053 597.255C809.216 593.587 803.583 586.879 792.364 589.49C781.601 591.994 768.433 599.63 756.761 619.827C751.061 629.69 739.769 650.239 748.627 685.433Z" fill="#A4C954" stroke="#333333" stroke-width="3.94" stroke-linecap="round"/>
<mask id="path-13-outside-2_901_401" maskUnits="userSpaceOnUse" x="506.538" y="303.715" width="277.348" height="278.042" fill="black">
<rect fill="white" x="506.538" y="303.715" width="277.348" height="278.042"/>
<path fill-rule="evenodd" clip-rule="evenodd" d="M685.988 430.962C685.999 430.955 686.01 430.949 686.021 430.942C713.565 414.706 740.964 398.556 711.104 370.871C684.165 345.892 670.111 365.837 655.971 400.921C655.89 401.122 655.809 401.322 655.727 401.521L655.727 401.476C655.438 369.505 655.151 337.702 616.245 349.718C581.143 360.559 591.388 382.702 614.702 412.491C614.836 412.662 614.97 412.833 615.102 413.004L615.061 412.981C587.229 397.245 559.543 381.593 550.496 421.294C542.334 457.114 566.633 459.313 604.088 454.016C604.302 453.986 604.515 453.956 604.728 453.927L604.692 453.949C577.148 470.185 549.75 486.335 579.609 514.02C606.548 538.999 620.602 519.054 634.743 483.97C634.824 483.768 634.905 483.568 634.987 483.368L634.987 483.415C635.276 515.386 635.563 547.189 674.469 535.173C709.571 524.332 699.326 502.189 676.012 472.4C675.878 472.229 675.744 472.057 675.612 471.886C675.625 471.894 675.638 471.901 675.651 471.909C703.484 487.644 731.169 503.297 740.216 463.595C748.379 427.776 724.079 425.577 686.625 430.873C686.412 430.903 686.2 430.933 685.988 430.962Z"/>
</mask>
<path fill-rule="evenodd" clip-rule="evenodd" d="M685.988 430.962C685.999 430.955 686.01 430.949 686.021 430.942C713.565 414.706 740.964 398.556 711.104 370.871C684.165 345.892 670.111 365.837 655.971 400.921C655.89 401.122 655.809 401.322 655.727 401.521L655.727 401.476C655.438 369.505 655.151 337.702 616.245 349.718C581.143 360.559 591.388 382.702 614.702 412.491C614.836 412.662 614.97 412.833 615.102 413.004L615.061 412.981C587.229 397.245 559.543 381.593 550.496 421.294C542.334 457.114 566.633 459.313 604.088 454.016C604.302 453.986 604.515 453.956 604.728 453.927L604.692 453.949C577.148 470.185 549.75 486.335 579.609 514.02C606.548 538.999 620.602 519.054 634.743 483.97C634.824 483.768 634.905 483.568 634.987 483.368L634.987 483.415C635.276 515.386 635.563 547.189 674.469 535.173C709.571 524.332 699.326 502.189 676.012 472.4C675.878 472.229 675.744 472.057 675.612 471.886C675.625 471.894 675.638 471.901 675.651 471.909C703.484 487.644 731.169 503.297 740.216 463.595C748.379 427.776 724.079 425.577 686.625 430.873C686.412 430.903 686.2 430.933 685.988 430.962Z" fill="white"/>
<path d="M685.988 430.962L683.988 427.567L686.52 434.866L685.988 430.962ZM686.021 430.942L688.022 434.337L688.022 434.336L686.021 430.942ZM711.104 370.871L713.783 367.981L711.104 370.871ZM655.971 400.921L659.625 402.394L659.625 402.394L655.971 400.921ZM655.727 401.521L651.787 401.556L659.374 403.012L655.727 401.521ZM655.727 401.476L659.667 401.441L659.667 401.441L655.727 401.476ZM616.245 349.718L617.407 353.483L616.245 349.718ZM614.702 412.491L617.805 410.062L617.805 410.062L614.702 412.491ZM615.102 413.004L613.163 416.434L618.217 410.592L615.102 413.004ZM615.061 412.981L613.122 416.411L613.122 416.411L615.061 412.981ZM550.496 421.294L554.338 422.17L554.338 422.17L550.496 421.294ZM604.088 454.016L603.536 450.115L603.536 450.115L604.088 454.016ZM604.728 453.927L606.729 457.321L604.196 450.024L604.728 453.927ZM604.692 453.949L606.692 457.343L606.693 457.343L604.692 453.949ZM579.609 514.02L582.288 511.131L582.288 511.131L579.609 514.02ZM634.743 483.97L638.397 485.443L638.397 485.443L634.743 483.97ZM634.987 483.368L638.927 483.332L631.34 481.876L634.987 483.368ZM634.987 483.415L631.048 483.45L631.048 483.45L634.987 483.415ZM674.469 535.173L673.307 531.408L673.307 531.408L674.469 535.173ZM676.012 472.4L672.909 474.829L672.909 474.829L676.012 472.4ZM675.612 471.886L677.551 468.456L672.496 474.299L675.612 471.886ZM675.651 471.909L677.591 468.479L677.59 468.479L675.651 471.909ZM740.216 463.595L744.058 464.471L744.058 464.471L740.216 463.595ZM686.625 430.873L687.177 434.775L687.177 434.775L686.625 430.873ZM687.989 434.356C687.994 434.353 688 434.35 688.005 434.346C688.011 434.343 688.016 434.34 688.022 434.337L684.021 427.548C684.015 427.551 684.01 427.554 684.004 427.558C683.999 427.561 683.993 427.564 683.988 427.567L687.989 434.356ZM688.022 434.336C694.875 430.297 701.901 426.158 708.036 421.816C714.145 417.492 719.663 412.767 723.334 407.435C727.082 401.991 728.982 395.782 727.51 388.837C726.074 382.062 721.551 375.183 713.783 367.981L708.426 373.76C715.588 380.401 718.837 385.923 719.801 390.471C720.729 394.847 719.656 398.881 716.844 402.966C713.955 407.161 709.326 411.248 703.483 415.384C697.667 419.501 690.94 423.47 684.021 427.548L688.022 434.336ZM713.783 367.981C706.791 361.498 700.229 357.534 693.906 356.235C687.382 354.894 681.549 356.48 676.43 360.179C671.458 363.772 667.2 369.317 663.356 375.932C659.489 382.586 655.877 390.613 652.316 399.448L659.625 402.394C663.135 393.686 666.582 386.064 670.169 379.891C673.779 373.68 677.37 369.222 681.046 366.566C684.576 364.015 688.19 363.105 692.32 363.954C696.652 364.844 701.949 367.754 708.426 373.76L713.783 367.981ZM652.316 399.448C652.238 399.643 652.159 399.837 652.08 400.029L659.374 403.012C659.458 402.807 659.542 402.601 659.625 402.394L652.316 399.448ZM659.667 401.485L659.667 401.441L651.787 401.512L651.787 401.556L659.667 401.485ZM659.667 401.441C659.595 393.486 659.524 385.332 658.83 377.848C658.14 370.396 656.807 363.255 654.025 357.409C651.185 351.441 646.758 346.692 640.006 344.494C633.421 342.35 625.203 342.828 615.082 345.954L617.407 353.483C626.74 350.6 633.147 350.548 637.567 351.987C641.821 353.372 644.779 356.317 646.91 360.795C649.099 365.395 650.324 371.448 650.984 378.575C651.641 385.67 651.714 393.481 651.787 401.512L659.667 401.441ZM615.082 345.954C605.971 348.768 599.257 352.469 594.971 357.294C590.548 362.274 589.004 368.119 589.648 374.401C590.274 380.504 592.947 386.963 596.754 393.6C600.583 400.276 605.729 407.418 611.6 414.919L617.805 410.062C612.019 402.669 607.141 395.872 603.589 389.68C600.015 383.448 597.95 378.109 597.487 373.597C597.043 369.265 598.063 365.68 600.862 362.527C603.799 359.221 608.968 356.089 617.407 353.483L615.082 345.954ZM611.6 414.919C611.73 415.085 611.859 415.251 611.987 415.417L618.217 410.592C618.081 410.415 617.943 410.239 617.805 410.062L611.6 414.919ZM617.041 409.574L617 409.551L613.122 416.411L613.163 416.434L617.041 409.574ZM617 409.551C610.076 405.636 602.978 401.621 596.15 398.479C589.351 395.351 582.5 392.934 576.047 392.421C569.459 391.897 563.132 393.356 557.853 398.104C552.704 402.735 549.008 410.091 546.655 420.419L554.338 422.17C556.508 412.646 559.666 407.071 563.122 403.963C566.448 400.971 570.478 399.883 575.422 400.276C580.499 400.68 586.354 402.646 592.857 405.638C599.33 408.616 606.131 412.458 613.122 416.411L617 409.551ZM546.655 420.419C544.536 429.717 544.385 437.381 546.421 443.506C548.522 449.826 552.812 454.086 558.574 456.669C564.172 459.179 571.103 460.093 578.754 460.115C586.45 460.137 595.208 459.251 604.639 457.918L603.536 450.115C594.24 451.43 585.915 452.255 578.776 452.235C571.592 452.215 565.936 451.334 561.798 449.479C557.823 447.697 555.228 445.021 553.898 441.021C552.503 436.824 552.375 430.782 554.338 422.17L546.655 420.419ZM604.639 457.918C604.847 457.888 605.054 457.86 605.26 457.831L604.196 450.024C603.977 450.053 603.757 450.084 603.536 450.115L604.639 457.918ZM602.727 450.533L602.691 450.555L606.693 457.343L606.729 457.321L602.727 450.533ZM602.691 450.555C595.838 454.594 588.812 458.733 582.677 463.075C576.569 467.399 571.05 472.124 567.379 477.456C563.631 482.9 561.731 489.109 563.203 496.054C564.639 502.829 569.163 509.708 576.93 516.91L582.288 511.131C575.125 504.49 571.876 498.968 570.912 494.42C569.984 490.044 571.057 486.01 573.869 481.925C576.758 477.73 581.388 473.643 587.23 469.507C593.046 465.39 599.774 461.421 606.692 457.343L602.691 450.555ZM576.93 516.91C583.923 523.393 590.485 527.357 596.807 528.656C603.331 529.997 609.165 528.411 614.283 524.712C619.255 521.119 623.513 515.574 627.357 508.959C631.224 502.305 634.836 494.278 638.397 485.443L631.088 482.497C627.579 491.205 624.131 498.827 620.544 505C616.935 511.211 613.344 515.669 609.668 518.325C606.138 520.876 602.523 521.786 598.393 520.937C594.062 520.047 588.765 517.137 582.288 511.131L576.93 516.91ZM638.397 485.443C638.476 485.247 638.555 485.053 638.634 484.859L631.34 481.876C631.256 482.082 631.172 482.289 631.088 482.497L638.397 485.443ZM631.047 483.403L631.048 483.45L638.927 483.379L638.927 483.332L631.047 483.403ZM631.048 483.45C631.119 491.405 631.191 499.559 631.884 507.043C632.574 514.495 633.907 521.636 636.689 527.482C639.529 533.45 643.957 538.2 650.708 540.397C657.293 542.541 665.512 542.063 675.632 538.937L673.307 531.408C663.974 534.291 657.567 534.343 653.147 532.904C648.893 531.52 645.936 528.574 643.805 524.096C641.616 519.496 640.391 513.443 639.73 506.316C639.073 499.221 639 491.41 638.927 483.379L631.048 483.45ZM675.632 538.937C684.744 536.123 691.457 532.422 695.743 527.597C700.166 522.617 701.71 516.772 701.066 510.49C700.441 504.387 697.767 497.928 693.96 491.291C690.131 484.615 684.985 477.473 679.115 469.972L672.909 474.829C678.695 482.222 683.573 489.019 687.125 495.211C690.699 501.443 692.765 506.782 693.227 511.294C693.671 515.626 692.652 519.211 689.852 522.364C686.915 525.67 681.746 528.802 673.307 531.408L675.632 538.937ZM679.115 469.972C678.984 469.806 678.855 469.639 678.727 469.474L672.496 474.299C672.633 474.475 672.771 474.652 672.909 474.829L679.115 469.972ZM677.59 468.479C677.59 468.479 677.59 468.479 677.59 468.479C677.59 468.479 677.59 468.479 677.59 468.479C677.59 468.479 677.59 468.479 677.59 468.479C677.59 468.479 677.59 468.479 677.59 468.479C677.59 468.479 677.59 468.479 677.59 468.479C677.59 468.479 677.59 468.479 677.59 468.479C677.59 468.479 677.59 468.479 677.59 468.479C677.59 468.479 677.59 468.478 677.59 468.478C677.59 468.478 677.59 468.478 677.59 468.478C677.59 468.478 677.59 468.478 677.59 468.478C677.59 468.478 677.59 468.478 677.59 468.478C677.59 468.478 677.59 468.478 677.59 468.478C677.589 468.478 677.589 468.478 677.589 468.478C677.589 468.478 677.589 468.478 677.589 468.478C677.589 468.478 677.589 468.478 677.589 468.478C677.589 468.478 677.589 468.478 677.589 468.478C677.589 468.478 677.589 468.478 677.589 468.478C677.589 468.478 677.589 468.478 677.589 468.478C677.589 468.478 677.589 468.478 677.589 468.478C677.589 468.478 677.589 468.478 677.589 468.478C677.589 468.478 677.589 468.478 677.589 468.478C677.589 468.478 677.589 468.478 677.589 468.478C677.589 468.478 677.589 468.478 677.589 468.478C677.589 468.478 677.589 468.478 677.589 468.478C677.589 468.478 677.589 468.478 677.588 468.478C677.588 468.478 677.588 468.478 677.588 468.478C677.588 468.478 677.588 468.478 677.588 468.478C677.588 468.478 677.588 468.478 677.588 468.478C677.588 468.478 677.588 468.478 677.588 468.478C677.588 468.478 677.588 468.478 677.588 468.478C677.588 468.477 677.588 468.477 677.588 468.477C677.588 468.477 677.588 468.477 677.588 468.477C677.588 468.477 677.588 468.477 677.588 468.477C677.588 468.477 677.588 468.477 677.588 468.477C677.588 468.477 677.588 468.477 677.588 468.477C677.588 468.477 677.588 468.477 677.588 468.477C677.588 468.477 677.588 468.477 677.588 468.477C677.588 468.477 677.588 468.477 677.587 468.477C677.587 468.477 677.587 468.477 677.587 468.477C677.587 468.477 677.587 468.477 677.587 468.477C677.587 468.477 677.587 468.477 677.587 468.477C677.587 468.477 677.587 468.477 677.587 468.477C677.587 468.477 677.587 468.477 677.587 468.477C677.587 468.477 677.587 468.477 677.587 468.477C677.587 468.477 677.587 468.477 677.587 468.477C677.587 468.477 677.587 468.477 677.587 468.477C677.587 468.477 677.587 468.477 677.587 468.477C677.587 468.477 677.587 468.477 677.587 468.477C677.587 468.477 677.587 468.477 677.587 468.477C677.587 468.477 677.587 468.477 677.587 468.477C677.587 468.477 677.586 468.477 677.586 468.477C677.586 468.477 677.586 468.477 677.586 468.477C677.586 468.477 677.586 468.477 677.586 468.476C677.586 468.476 677.586 468.476 677.586 468.476C677.586 468.476 677.586 468.476 677.586 468.476C677.586 468.476 677.586 468.476 677.586 468.476C677.586 468.476 677.586 468.476 677.586 468.476C677.586 468.476 677.586 468.476 677.586 468.476C677.586 468.476 677.586 468.476 677.586 468.476C677.586 468.476 677.586 468.476 677.586 468.476C677.586 468.476 677.586 468.476 677.586 468.476C677.586 468.476 677.586 468.476 677.586 468.476C677.586 468.476 677.586 468.476 677.586 468.476C677.586 468.476 677.585 468.476 677.585 468.476C677.585 468.476 677.585 468.476 677.585 468.476C677.585 468.476 677.585 468.476 677.585 468.476C677.585 468.476 677.585 468.476 677.585 468.476C677.585 468.476 677.585 468.476 677.585 468.476C677.585 468.476 677.585 468.476 677.585 468.476C677.585 468.476 677.585 468.476 677.585 468.476C677.585 468.476 677.585 468.476 677.585 468.476C677.585 468.476 677.585 468.476 677.585 468.476C677.585 468.476 677.585 468.476 677.585 468.476C677.585 468.476 677.585 468.476 677.585 468.476C677.585 468.476 677.585 468.476 677.585 468.476C677.585 468.476 677.585 468.475 677.585 468.475C677.584 468.475 677.584 468.475 677.584 468.475C677.584 468.475 677.584 468.475 677.584 468.475C677.584 468.475 677.584 468.475 677.584 468.475C677.584 468.475 677.584 468.475 677.584 468.475C677.584 468.475 677.584 468.475 677.584 468.475C677.584 468.475 677.584 468.475 677.584 468.475C677.584 468.475 677.584 468.475 677.584 468.475C677.584 468.475 677.584 468.475 677.584 468.475C677.584 468.475 677.584 468.475 677.584 468.475C677.584 468.475 677.584 468.475 677.584 468.475C677.584 468.475 677.584 468.475 677.584 468.475C677.584 468.475 677.584 468.475 677.584 468.475C677.584 468.475 677.584 468.475 677.584 468.475C677.583 468.475 677.583 468.475 677.583 468.475C677.583 468.475 677.583 468.475 677.583 468.475C677.583 468.475 677.583 468.475 677.583 468.475C677.583 468.475 677.583 468.475 677.583 468.475C677.583 468.475 677.583 468.475 677.583 468.475C677.583 468.475 677.583 468.475 677.583 468.475C677.583 468.475 677.583 468.475 677.583 468.475C677.583 468.475 677.583 468.475 677.583 468.475C677.583 468.475 677.583 468.475 677.583 468.475C677.583 468.474 677.583 468.474 677.583 468.474C677.583 468.474 677.583 468.474 677.583 468.474C677.583 468.474 677.583 468.474 677.583 468.474C677.583 468.474 677.583 468.474 677.582 468.474C677.582 468.474 677.582 468.474 677.582 468.474C677.582 468.474 677.582 468.474 677.582 468.474C677.582 468.474 677.582 468.474 677.582 468.474C677.582 468.474 677.582 468.474 677.582 468.474C677.582 468.474 677.582 468.474 677.582 468.474C677.582 468.474 677.582 468.474 677.582 468.474C677.582 468.474 677.582 468.474 677.582 468.474C677.582 468.474 677.582 468.474 677.582 468.474C677.582 468.474 677.582 468.474 677.582 468.474C677.582 468.474 677.582 468.474 677.582 468.474C677.582 468.474 677.582 468.474 677.582 468.474C677.582 468.474 677.582 468.474 677.582 468.474C677.582 468.474 677.582 468.474 677.581 468.474C677.581 468.474 677.581 468.474 677.581 468.474C677.581 468.474 677.581 468.474 677.581 468.474C677.581 468.474 677.581 468.474 677.581 468.474C677.581 468.474 677.581 468.474 677.581 468.474C677.581 468.474 677.581 468.474 677.581 468.474C677.581 468.474 677.581 468.474 677.581 468.473C677.581 468.473 677.581 468.473 677.581 468.473C677.581 468.473 677.581 468.473 677.581 468.473C677.581 468.473 677.581 468.473 677.581 468.473C677.581 468.473 677.581 468.473 677.581 468.473C677.581 468.473 677.581 468.473 677.581 468.473C677.581 468.473 677.581 468.473 677.581 468.473C677.581 468.473 677.58 468.473 677.58 468.473C677.58 468.473 677.58 468.473 677.58 468.473C677.58 468.473 677.58 468.473 677.58 468.473C677.58 468.473 677.58 468.473 677.58 468.473C677.58 468.473 677.58 468.473 677.58 468.473C677.58 468.473 677.58 468.473 677.58 468.473C677.58 468.473 677.58 468.473 677.58 468.473C677.58 468.473 677.58 468.473 677.58 468.473C677.58 468.473 677.58 468.473 677.58 468.473C677.58 468.473 677.58 468.473 677.58 468.473C677.58 468.473 677.58 468.473 677.58 468.473C677.58 468.473 677.58 468.473 677.58 468.473C677.58 468.473 677.58 468.473 677.58 468.473C677.58 468.473 677.579 468.473 677.579 468.473C677.579 468.473 677.579 468.473 677.579 468.473C677.579 468.473 677.579 468.473 677.579 468.473C677.579 468.473 677.579 468.472 677.579 468.472C677.579 468.472 677.579 468.472 677.579 468.472C677.579 468.472 677.579 468.472 677.579 468.472C677.579 468.472 677.579 468.472 677.579 468.472C677.579 468.472 677.579 468.472 677.579 468.472C677.579 468.472 677.579 468.472 677.579 468.472C677.579 468.472 677.579 468.472 677.579 468.472C677.579 468.472 677.579 468.472 677.579 468.472C677.579 468.472 677.579 468.472 677.579 468.472C677.579 468.472 677.579 468.472 677.579 468.472C677.578 468.472 677.578 468.472 677.578 468.472C677.578 468.472 677.578 468.472 677.578 468.472C677.578 468.472 677.578 468.472 677.578 468.472C677.578 468.472 677.578 468.472 677.578 468.472C677.578 468.472 677.578 468.472 677.578 468.472C677.578 468.472 677.578 468.472 677.578 468.472C677.578 468.472 677.578 468.472 677.578 468.472C677.578 468.472 677.578 468.472 677.578 468.472C677.578 468.472 677.578 468.472 677.578 468.472C677.578 468.472 677.578 468.472 677.578 468.472C677.578 468.472 677.578 468.472 677.578 468.472C677.578 468.472 677.578 468.472 677.578 468.472C677.578 468.472 677.578 468.472 677.577 468.472C677.577 468.471 677.577 468.471 677.577 468.471C677.577 468.471 677.577 468.471 677.577 468.471C677.577 468.471 677.577 468.471 677.577 468.471C677.577 468.471 677.577 468.471 677.577 468.471C677.577 468.471 677.577 468.471 677.577 468.471C677.577 468.471 677.577 468.471 677.577 468.471C677.577 468.471 677.577 468.471 677.577 468.471C677.577 468.471 677.577 468.471 677.577 468.471C677.577 468.471 677.577 468.471 677.577 468.471C677.577 468.471 677.577 468.471 677.577 468.471C677.577 468.471 677.577 468.471 677.577 468.471C677.577 468.471 677.577 468.471 677.577 468.471C677.577 468.471 677.577 468.471 677.576 468.471C677.576 468.471 677.576 468.471 677.576 468.471C677.576 468.471 677.576 468.471 677.576 468.471C677.576 468.471 677.576 468.471 677.576 468.471C677.576 468.471 677.576 468.471 677.576 468.471C677.576 468.471 677.576 468.471 677.576 468.471C677.576 468.471 677.576 468.471 677.576 468.471C677.576 468.471 677.576 468.471 677.576 468.471C677.576 468.471 677.576 468.471 677.576 468.471C677.576 468.471 677.576 468.471 677.576 468.471C677.576 468.471 677.576 468.471 677.576 468.47C677.576 468.47 677.576 468.47 677.576 468.47C677.576 468.47 677.576 468.47 677.576 468.47C677.576 468.47 677.575 468.47 677.575 468.47C677.575 468.47 677.575 468.47 677.575 468.47C677.575 468.47 677.575 468.47 677.575 468.47C677.575 468.47 677.575 468.47 677.575 468.47C677.575 468.47 677.575 468.47 677.575 468.47C677.575 468.47 677.575 468.47 677.575 468.47C677.575 468.47 677.575 468.47 677.575 468.47C677.575 468.47 677.575 468.47 677.575 468.47C677.575 468.47 677.575 468.47 677.575 468.47C677.575 468.47 677.575 468.47 677.575 468.47C677.575 468.47 677.575 468.47 677.575 468.47C677.575 468.47 677.575 468.47 677.575 468.47C677.575 468.47 677.575 468.47 677.575 468.47C677.575 468.47 677.574 468.47 677.574 468.47C677.574 468.47 677.574 468.47 677.574 468.47C677.574 468.47 677.574 468.47 677.574 468.47C677.574 468.47 677.574 468.47 677.574 468.47C677.574 468.47 677.574 468.47 677.574 468.47C677.574 468.47 677.574 468.47 677.574 468.47C677.574 468.47 677.574 468.47 677.574 468.47C677.574 468.47 677.574 468.469 677.574 468.469C677.574 468.469 677.574 468.469 677.574 468.469C677.574 468.469 677.574 468.469 677.574 468.469C677.574 468.469 677.574 468.469 677.574 468.469C677.574 468.469 677.574 468.469 677.574 468.469C677.574 468.469 677.574 468.469 677.574 468.469C677.573 468.469 677.573 468.469 677.573 468.469C677.573 468.469 677.573 468.469 677.573 468.469C677.573 468.469 677.573 468.469 677.573 468.469C677.573 468.469 677.573 468.469 677.573 468.469C677.573 468.469 677.573 468.469 677.573 468.469C677.573 468.469 677.573 468.469 677.573 468.469C677.573 468.469 677.573 468.469 677.573 468.469C677.573 468.469 677.573 468.469 677.573 468.469C677.573 468.469 677.573 468.469 677.573 468.469C677.573 468.469 677.573 468.469 677.573 468.469C677.573 468.469 677.573 468.469 677.573 468.469C677.573 468.469 677.573 468.469 677.573 468.469C677.573 468.469 677.573 468.469 677.573 468.469C677.572 468.469 677.572 468.469 677.572 468.469C677.572 468.469 677.572 468.469 677.572 468.469C677.572 468.469 677.572 468.469 677.572 468.469C677.572 468.469 677.572 468.469 677.572 468.469C677.572 468.468 677.572 468.468 677.572 468.468C677.572 468.468 677.572 468.468 677.572 468.468C677.572 468.468 677.572 468.468 677.572 468.468C677.572 468.468 677.572 468.468 677.572 468.468C677.572 468.468 677.572 468.468 677.572 468.468C677.572 468.468 677.572 468.468 677.572 468.468C677.572 468.468 677.572 468.468 677.572 468.468C677.572 468.468 677.572 468.468 677.572 468.468C677.572 468.468 677.572 468.468 677.571 468.468C677.571 468.468 677.571 468.468 677.571 468.468C677.571 468.468 677.571 468.468 677.571 468.468C677.571 468.468 677.571 468.468 677.571 468.468C677.571 468.468 677.571 468.468 677.571 468.468C677.571 468.468 677.571 468.468 677.571 468.468C677.571 468.468 677.571 468.468 677.571 468.468C677.571 468.468 677.571 468.468 677.571 468.468C677.571 468.468 677.571 468.468 677.571 468.468C677.571 468.468 677.571 468.468 677.571 468.468C677.571 468.468 677.571 468.468 677.571 468.468C677.571 468.468 677.571 468.468 677.571 468.468C677.571 468.468 677.571 468.468 677.571 468.468C677.571 468.468 677.571 468.468 677.57 468.468C677.57 468.468 677.57 468.468 677.57 468.467C677.57 468.467 677.57 468.467 677.57 468.467C677.57 468.467 677.57 468.467 677.57 468.467C677.57 468.467 677.57 468.467 677.57 468.467C677.57 468.467 677.57 468.467 677.57 468.467C677.57 468.467 677.57 468.467 677.57 468.467C677.57 468.467 677.57 468.467 677.57 468.467C677.57 468.467 677.57 468.467 677.57 468.467C677.57 468.467 677.57 468.467 677.57 468.467C677.57 468.467 677.57 468.467 677.57 468.467C677.57 468.467 677.57 468.467 677.57 468.467C677.57 468.467 677.57 468.467 677.57 468.467C677.57 468.467 677.569 468.467 677.569 468.467C677.569 468.467 677.569 468.467 677.569 468.467C677.569 468.467 677.569 468.467 677.569 468.467C677.569 468.467 677.569 468.467 677.569 468.467C677.569 468.467 677.569 468.467 677.569 468.467C677.569 468.467 677.569 468.467 677.569 468.467C677.569 468.467 677.569 468.467 677.569 468.467C677.569 468.467 677.569 468.467 677.569 468.467C677.569 468.467 677.569 468.467 677.569 468.467C677.569 468.467 677.569 468.467 677.569 468.467C677.569 468.467 677.569 468.467 677.569 468.467C677.569 468.467 677.569 468.466 677.569 468.466C677.569 468.466 677.569 468.466 677.569 468.466C677.569 468.466 677.568 468.466 677.568 468.466C677.568 468.466 677.568 468.466 677.568 468.466C677.568 468.466 677.568 468.466 677.568 468.466C677.568 468.466 677.568 468.466 677.568 468.466C677.568 468.466 677.568 468.466 677.568 468.466C677.568 468.466 677.568 468.466 677.568 468.466C677.568 468.466 677.568 468.466 677.568 468.466C677.568 468.466 677.568 468.466 677.568 468.466C677.568 468.466 677.568 468.466 677.568 468.466C677.568 468.466 677.568 468.466 677.568 468.466C677.568 468.466 677.568 468.466 677.568 468.466C677.568 468.466 677.568 468.466 677.568 468.466C677.568 468.466 677.568 468.466 677.568 468.466C677.567 468.466 677.567 468.466 677.567 468.466C677.567 468.466 677.567 468.466 677.567 468.466C677.567 468.466 677.567 468.466 677.567 468.466C677.567 468.466 677.567 468.466 677.567 468.466C677.567 468.466 677.567 468.466 677.567 468.466C677.567 468.466 677.567 468.466 677.567 468.466C677.567 468.466 677.567 468.466 677.567 468.466C677.567 468.466 677.567 468.466 677.567 468.466C677.567 468.465 677.567 468.465 677.567 468.465C677.567 468.465 677.567 468.465 677.567 468.465C677.567 468.465 677.567 468.465 677.567 468.465C677.567 468.465 677.567 468.465 677.567 468.465C677.567 468.465 677.567 468.465 677.567 468.465C677.566 468.465 677.566 468.465 677.566 468.465C677.566 468.465 677.566 468.465 677.566 468.465C677.566 468.465 677.566 468.465 677.566 468.465C677.566 468.465 677.566 468.465 677.566 468.465C677.566 468.465 677.566 468.465 677.566 468.465C677.566 468.465 677.566 468.465 677.566 468.465C677.566 468.465 677.566 468.465 677.566 468.465C677.566 468.465 677.566 468.465 677.566 468.465C677.566 468.465 677.566 468.465 677.566 468.465C677.566 468.465 677.566 468.465 677.566 468.465C677.566 468.465 677.566 468.465 677.566 468.465C677.566 468.465 677.566 468.465 677.566 468.465C677.566 468.465 677.566 468.465 677.565 468.465C677.565 468.465 677.565 468.465 677.565 468.465C677.565 468.465 677.565 468.465 677.565 468.465C677.565 468.465 677.565 468.465 677.565 468.465C677.565 468.465 677.565 468.465 677.565 468.465C677.565 468.465 677.565 468.465 677.565 468.464C677.565 468.464 677.565 468.464 677.565 468.464C677.565 468.464 677.565 468.464 677.565 468.464C677.565 468.464 677.565 468.464 677.565 468.464C677.565 468.464 677.565 468.464 677.565 468.464C677.565 468.464 677.565 468.464 677.565 468.464C677.565 468.464 677.565 468.464 677.565 468.464C677.565 468.464 677.565 468.464 677.565 468.464C677.565 468.464 677.565 468.464 677.564 468.464C677.564 468.464 677.564 468.464 677.564 468.464C677.564 468.464 677.564 468.464 677.564 468.464C677.564 468.464 677.564 468.464 677.564 468.464C677.564 468.464 677.564 468.464 677.564 468.464C677.564 468.464 677.564 468.464 677.564 468.464C677.564 468.464 677.564 468.464 677.564 468.464C677.564 468.464 677.564 468.464 677.564 468.464C677.564 468.464 677.564 468.464 677.564 468.464C677.564 468.464 677.564 468.464 677.564 468.464C677.564 468.464 677.564 468.464 677.564 468.464C677.564 468.464 677.564 468.464 677.564 468.464C677.564 468.464 677.564 468.464 677.564 468.464C677.564 468.464 677.563 468.464 677.563 468.464C677.563 468.464 677.563 468.464 677.563 468.464C677.563 468.464 677.563 468.463 677.563 468.463C677.563 468.463 677.563 468.463 677.563 468.463C677.563 468.463 677.563 468.463 677.563 468.463C677.563 468.463 677.563 468.463 677.563 468.463C677.563 468.463 677.563 468.463 677.563 468.463C677.563 468.463 677.563 468.463 677.563 468.463C677.563 468.463 677.563 468.463 677.563 468.463C677.563 468.463 677.563 468.463 677.563 468.463C677.563 468.463 677.563 468.463 677.563 468.463C677.563 468.463 677.563 468.463 677.563 468.463C677.563 468.463 677.563 468.463 677.563 468.463C677.562 468.463 677.562 468.463 677.562 468.463C677.562 468.463 677.562 468.463 677.562 468.463C677.562 468.463 677.562 468.463 677.562 468.463C677.562 468.463 677.562 468.463 677.562 468.463C677.562 468.463 677.562 468.463 677.562 468.463C677.562 468.463 677.562 468.463 677.562 468.463C677.562 468.463 677.562 468.463 677.562 468.463C677.562 468.463 677.562 468.463 677.562 468.463C677.562 468.463 677.562 468.463 677.562 468.463C677.562 468.463 677.562 468.463 677.562 468.463C677.562 468.463 677.562 468.463 677.562 468.463C677.562 468.463 677.562 468.463 677.562 468.463C677.562 468.462 677.562 468.462 677.562 468.462C677.561 468.462 677.561 468.462 677.561 468.462C677.561 468.462 677.561 468.462 677.561 468.462C677.561 468.462 677.561 468.462 677.561 468.462C677.561 468.462 677.561 468.462 677.561 468.462C677.561 468.462 677.561 468.462 677.561 468.462C677.561 468.462 677.561 468.462 677.561 468.462C677.561 468.462 677.561 468.462 677.561 468.462C677.561 468.462 677.561 468.462 677.561 468.462C677.561 468.462 677.561 468.462 677.561 468.462C677.561 468.462 677.561 468.462 677.561 468.462C677.561 468.462 677.561 468.462 677.561 468.462C677.561 468.462 677.561 468.462 677.561 468.462C677.561 468.462 677.561 468.462 677.56 468.462C677.56 468.462 677.56 468.462 677.56 468.462C677.56 468.462 677.56 468.462 677.56 468.462C677.56 468.462 677.56 468.462 677.56 468.462C677.56 468.462 677.56 468.462 677.56 468.462C677.56 468.462 677.56 468.462 677.56 468.462C677.56 468.462 677.56 468.462 677.56 468.462C677.56 468.462 677.56 468.462 677.56 468.462C677.56 468.462 677.56 468.462 677.56 468.462C677.56 468.462 677.56 468.462 677.56 468.461C677.56 468.461 677.56 468.461 677.56 468.461C677.56 468.461 677.56 468.461 677.56 468.461C677.56 468.461 677.56 468.461 677.56 468.461C677.56 468.461 677.56 468.461 677.559 468.461C677.559 468.461 677.559 468.461 677.559 468.461C677.559 468.461 677.559 468.461 677.559 468.461C677.559 468.461 677.559 468.461 677.559 468.461C677.559 468.461 677.559 468.461 677.559 468.461C677.559 468.461 677.559 468.461 677.559 468.461C677.559 468.461 677.559 468.461 677.559 468.461C677.559 468.461 677.559 468.461 677.559 468.461C677.559 468.461 677.559 468.461 677.559 468.461C677.559 468.461 677.559 468.461 677.559 468.461C677.559 468.461 677.559 468.461 677.559 468.461C677.559 468.461 677.559 468.461 677.559 468.461C677.559 468.461 677.559 468.461 677.559 468.461C677.559 468.461 677.558 468.461 677.558 468.461C677.558 468.461 677.558 468.461 677.558 468.461C677.558 468.461 677.558 468.461 677.558 468.461C677.558 468.461 677.558 468.461 677.558 468.461C677.558 468.461 677.558 468.461 677.558 468.461C677.558 468.461 677.558 468.461 677.558 468.461C677.558 468.461 677.558 468.461 677.558 468.46C677.558 468.46 677.558 468.46 677.558 468.46C677.558 468.46 677.558 468.46 677.558 468.46C677.558 468.46 677.558 468.46 677.558 468.46C677.558 468.46 677.558 468.46 677.558 468.46C677.558 468.46 677.558 468.46 677.558 468.46C677.558 468.46 677.558 468.46 677.558 468.46C677.558 468.46 677.557 468.46 677.557 468.46C677.557 468.46 677.557 468.46 677.557 468.46C677.557 468.46 677.557 468.46 677.557 468.46C677.557 468.46 677.557 468.46 677.557 468.46C677.557 468.46 677.557 468.46 677.557 468.46C677.557 468.46 677.557 468.46 677.557 468.46C677.557 468.46 677.557 468.46 677.557 468.46C677.557 468.46 677.557 468.46 677.557 468.46C677.557 468.46 677.557 468.46 677.557 468.46C677.557 468.46 677.557 468.46 677.557 468.46C677.557 468.46 677.557 468.46 677.557 468.46C677.557 468.46 677.557 468.46 677.557 468.46C677.557 468.46 677.557 468.46 677.557 468.46C677.556 468.46 677.556 468.46 677.556 468.46C677.556 468.46 677.556 468.46 677.556 468.46C677.556 468.46 677.556 468.46 677.556 468.46C677.556 468.46 677.556 468.459 677.556 468.459C677.556 468.459 677.556 468.459 677.556 468.459C677.556 468.459 677.556 468.459 677.556 468.459C677.556 468.459 677.556 468.459 677.556 468.459C677.556 468.459 677.556 468.459 677.556 468.459C677.556 468.459 677.556 468.459 677.556 468.459C677.556 468.459 677.556 468.459 677.556 468.459C677.556 468.459 677.556 468.459 677.556 468.459C677.556 468.459 677.556 468.459 677.556 468.459C677.556 468.459 677.556 468.459 677.556 468.459C677.555 468.459 677.555 468.459 677.555 468.459C677.555 468.459 677.555 468.459 677.555 468.459C677.555 468.459 677.555 468.459 677.555 468.459C677.555 468.459 677.555 468.459 677.555 468.459C677.555 468.459 677.555 468.459 677.555 468.459C677.555 468.459 677.555 468.459 677.555 468.459C677.555 468.459 677.555 468.459 677.555 468.459C677.555 468.459 677.555 468.459 677.555 468.459C677.555 468.459 677.555 468.459 677.555 468.459C677.555 468.459 677.555 468.459 677.555 468.459C677.555 468.459 677.555 468.459 677.555 468.459C677.555 468.459 677.555 468.459 677.555 468.459C677.555 468.459 677.555 468.459 677.554 468.459C677.554 468.458 677.554 468.458 677.554 468.458C677.554 468.458 677.554 468.458 677.554 468.458C677.554 468.458 677.554 468.458 677.554 468.458C677.554 468.458 677.554 468.458 677.554 468.458C677.554 468.458 677.554 468.458 677.554 468.458C677.554 468.458 677.554 468.458 677.554 468.458C677.554 468.458 677.554 468.458 677.554 468.458C677.554 468.458 677.554 468.458 677.554 468.458C677.554 468.458 677.554 468.458 677.554 468.458C677.554 468.458 677.554 468.458 677.554 468.458C677.554 468.458 677.554 468.458 677.554 468.458C677.554 468.458 677.554 468.458 677.554 468.458C677.554 468.458 677.554 468.458 677.553 468.458C677.553 468.458 677.553 468.458 677.553 468.458C677.553 468.458 677.553 468.458 677.553 468.458C677.553 468.458 677.553 468.458 677.553 468.458C677.553 468.458 677.553 468.458 677.553 468.458C677.553 468.458 677.553 468.458 677.553 468.458C677.553 468.458 677.553 468.458 677.553 468.458C677.553 468.458 677.553 468.458 677.553 468.458C677.553 468.458 677.553 468.458 677.553 468.458C677.553 468.458 677.553 468.458 677.553 468.458C677.553 468.458 677.553 468.458 677.553 468.457C677.553 468.457 677.553 468.457 677.553 468.457C677.553 468.457 677.553 468.457 677.553 468.457C677.553 468.457 677.552 468.457 677.552 468.457C677.552 468.457 677.552 468.457 677.552 468.457C677.552 468.457 677.552 468.457 677.552 468.457C677.552 468.457 677.552 468.457 677.552 468.457C677.552 468.457 677.552 468.457 677.552 468.457C677.552 468.457 677.552 468.457 677.552 468.457C677.552 468.457 677.552 468.457 677.552 468.457C677.552 468.457 677.552 468.457 677.552 468.457C677.552 468.457 677.552 468.457 677.552 468.457C677.552 468.457 677.552 468.457 677.552 468.457C677.552 468.457 677.552 468.457 677.552 468.457C677.552 468.457 677.552 468.457 677.552 468.457C677.552 468.457 677.552 468.457 677.552 468.457C677.552 468.457 677.551 468.457 677.551 468.457C677.551 468.457 677.551 468.457 677.551 468.457C677.551 468.457 677.551 468.457 677.551 468.457C677.551 468.457 677.551 468.457 677.551 468.457C677.551 468.457 677.551 468.457 677.551 468.457C677.551 468.457 677.551 468.457 677.551 468.457C677.551 468.457 677.551 468.457 677.551 468.457C677.551 468.457 677.551 468.456 677.551 468.456C677.551 468.456 677.551 468.456 677.551 468.456C677.551 468.456 677.551 468.456 677.551 468.456C677.551 468.456 677.551 468.456 677.551 468.456C677.551 468.456 677.551 468.456 677.551 468.456C677.551 468.456 677.551 468.456 677.551 468.456L673.673 475.316C673.673 475.316 673.673 475.316 673.673 475.316C673.673 475.316 673.673 475.316 673.673 475.316C673.673 475.316 673.673 475.316 673.673 475.316C673.673 475.316 673.673 475.316 673.673 475.316C673.673 475.316 673.673 475.316 673.673 475.316C673.673 475.316 673.673 475.316 673.673 475.316C673.673 475.316 673.673 475.316 673.673 475.316C673.673 475.316 673.673 475.316 673.673 475.316C673.673 475.316 673.673 475.316 673.673 475.316C673.673 475.316 673.673 475.316 673.673 475.316C673.673 475.316 673.673 475.316 673.673 475.316C673.673 475.316 673.673 475.316 673.673 475.317C673.674 475.317 673.674 475.317 673.674 475.317C673.674 475.317 673.674 475.317 673.674 475.317C673.674 475.317 673.674 475.317 673.674 475.317C673.674 475.317 673.674 475.317 673.674 475.317C673.674 475.317 673.674 475.317 673.674 475.317C673.674 475.317 673.674 475.317 673.674 475.317C673.674 475.317 673.674 475.317 673.674 475.317C673.674 475.317 673.674 475.317 673.674 475.317C673.674 475.317 673.674 475.317 673.674 475.317C673.674 475.317 673.674 475.317 673.674 475.317C673.674 475.317 673.674 475.317 673.674 475.317C673.674 475.317 673.674 475.317 673.674 475.317C673.674 475.317 673.674 475.317 673.674 475.317C673.675 475.317 673.675 475.317 673.675 475.317C673.675 475.317 673.675 475.317 673.675 475.317C673.675 475.317 673.675 475.317 673.675 475.317C673.675 475.317 673.675 475.317 673.675 475.317C673.675 475.317 673.675 475.317 673.675 475.317C673.675 475.317 673.675 475.317 673.675 475.317C673.675 475.317 673.675 475.317 673.675 475.317C673.675 475.317 673.675 475.317 673.675 475.317C673.675 475.317 673.675 475.317 673.675 475.317C673.675 475.317 673.675 475.318 673.675 475.318C673.675 475.318 673.675 475.318 673.675 475.318C673.675 475.318 673.675 475.318 673.675 475.318C673.675 475.318 673.675 475.318 673.676 475.318C673.676 475.318 673.676 475.318 673.676 475.318C673.676 475.318 673.676 475.318 673.676 475.318C673.676 475.318 673.676 475.318 673.676 475.318C673.676 475.318 673.676 475.318 673.676 475.318C673.676 475.318 673.676 475.318 673.676 475.318C673.676 475.318 673.676 475.318 673.676 475.318C673.676 475.318 673.676 475.318 673.676 475.318C673.676 475.318 673.676 475.318 673.676 475.318C673.676 475.318 673.676 475.318 673.676 475.318C673.676 475.318 673.676 475.318 673.676 475.318C673.676 475.318 673.676 475.318 673.676 475.318C673.676 475.318 673.676 475.318 673.676 475.318C673.676 475.318 673.677 475.318 673.677 475.318C673.677 475.318 673.677 475.318 673.677 475.318C673.677 475.318 673.677 475.318 673.677 475.318C673.677 475.318 673.677 475.318 673.677 475.318C673.677 475.318 673.677 475.318 673.677 475.318C673.677 475.318 673.677 475.318 673.677 475.318C673.677 475.318 673.677 475.318 673.677 475.318C673.677 475.319 673.677 475.319 673.677 475.319C673.677 475.319 673.677 475.319 673.677 475.319C673.677 475.319 673.677 475.319 673.677 475.319C673.677 475.319 673.677 475.319 673.677 475.319C673.677 475.319 673.677 475.319 673.677 475.319C673.677 475.319 673.677 475.319 673.677 475.319C673.677 475.319 673.678 475.319 673.678 475.319C673.678 475.319 673.678 475.319 673.678 475.319C673.678 475.319 673.678 475.319 673.678 475.319C673.678 475.319 673.678 475.319 673.678 475.319C673.678 475.319 673.678 475.319 673.678 475.319C673.678 475.319 673.678 475.319 673.678 475.319C673.678 475.319 673.678 475.319 673.678 475.319C673.678 475.319 673.678 475.319 673.678 475.319C673.678 475.319 673.678 475.319 673.678 475.319C673.678 475.319 673.678 475.319 673.678 475.319C673.678 475.319 673.678 475.319 673.678 475.319C673.678 475.319 673.678 475.319 673.678 475.319C673.678 475.319 673.678 475.319 673.678 475.319C673.679 475.319 673.679 475.319 673.679 475.319C673.679 475.319 673.679 475.319 673.679 475.319C673.679 475.319 673.679 475.319 673.679 475.319C673.679 475.319 673.679 475.319 673.679 475.32C673.679 475.32 673.679 475.32 673.679 475.32C673.679 475.32 673.679 475.32 673.679 475.32C673.679 475.32 673.679 475.32 673.679 475.32C673.679 475.32 673.679 475.32 673.679 475.32C673.679 475.32 673.679 475.32 673.679 475.32C673.679 475.32 673.679 475.32 673.679 475.32C673.679 475.32 673.679 475.32 673.679 475.32C673.679 475.32 673.679 475.32 673.679 475.32C673.679 475.32 673.679 475.32 673.679 475.32C673.68 475.32 673.68 475.32 673.68 475.32C673.68 475.32 673.68 475.32 673.68 475.32C673.68 475.32 673.68 475.32 673.68 475.32C673.68 475.32 673.68 475.32 673.68 475.32C673.68 475.32 673.68 475.32 673.68 475.32C673.68 475.32 673.68 475.32 673.68 475.32C673.68 475.32 673.68 475.32 673.68 475.32C673.68 475.32 673.68 475.32 673.68 475.32C673.68 475.32 673.68 475.32 673.68 475.32C673.68 475.32 673.68 475.32 673.68 475.32C673.68 475.32 673.68 475.32 673.68 475.32C673.68 475.32 673.68 475.32 673.68 475.32C673.68 475.32 673.68 475.32 673.681 475.32C673.681 475.32 673.681 475.321 673.681 475.321C673.681 475.321 673.681 475.321 673.681 475.321C673.681 475.321 673.681 475.321 673.681 475.321C673.681 475.321 673.681 475.321 673.681 475.321C673.681 475.321 673.681 475.321 673.681 475.321C673.681 475.321 673.681 475.321 673.681 475.321C673.681 475.321 673.681 475.321 673.681 475.321C673.681 475.321 673.681 475.321 673.681 475.321C673.681 475.321 673.681 475.321 673.681 475.321C673.681 475.321 673.681 475.321 673.681 475.321C673.681 475.321 673.681 475.321 673.681 475.321C673.681 475.321 673.681 475.321 673.681 475.321C673.681 475.321 673.681 475.321 673.682 475.321C673.682 475.321 673.682 475.321 673.682 475.321C673.682 475.321 673.682 475.321 673.682 475.321C673.682 475.321 673.682 475.321 673.682 475.321C673.682 475.321 673.682 475.321 673.682 475.321C673.682 475.321 673.682 475.321 673.682 475.321C673.682 475.321 673.682 475.321 673.682 475.321C673.682 475.321 673.682 475.321 673.682 475.321C673.682 475.321 673.682 475.321 673.682 475.321C673.682 475.321 673.682 475.321 673.682 475.321C673.682 475.321 673.682 475.321 673.682 475.321C673.682 475.322 673.682 475.322 673.682 475.322C673.682 475.322 673.682 475.322 673.682 475.322C673.682 475.322 673.683 475.322 673.683 475.322C673.683 475.322 673.683 475.322 673.683 475.322C673.683 475.322 673.683 475.322 673.683 475.322C673.683 475.322 673.683 475.322 673.683 475.322C673.683 475.322 673.683 475.322 673.683 475.322C673.683 475.322 673.683 475.322 673.683 475.322C673.683 475.322 673.683 475.322 673.683 475.322C673.683 475.322 673.683 475.322 673.683 475.322C673.683 475.322 673.683 475.322 673.683 475.322C673.683 475.322 673.683 475.322 673.683 475.322C673.683 475.322 673.683 475.322 673.683 475.322C673.683 475.322 673.683 475.322 673.683 475.322C673.683 475.322 673.683 475.322 673.683 475.322C673.683 475.322 673.684 475.322 673.684 475.322C673.684 475.322 673.684 475.322 673.684 475.322C673.684 475.322 673.684 475.322 673.684 475.322C673.684 475.322 673.684 475.322 673.684 475.322C673.684 475.322 673.684 475.322 673.684 475.322C673.684 475.322 673.684 475.322 673.684 475.322C673.684 475.322 673.684 475.322 673.684 475.322C673.684 475.322 673.684 475.322 673.684 475.323C673.684 475.323 673.684 475.323 673.684 475.323C673.684 475.323 673.684 475.323 673.684 475.323C673.684 475.323 673.684 475.323 673.684 475.323C673.684 475.323 673.684 475.323 673.684 475.323C673.684 475.323 673.684 475.323 673.684 475.323C673.685 475.323 673.685 475.323 673.685 475.323C673.685 475.323 673.685 475.323 673.685 475.323C673.685 475.323 673.685 475.323 673.685 475.323C673.685 475.323 673.685 475.323 673.685 475.323C673.685 475.323 673.685 475.323 673.685 475.323C673.685 475.323 673.685 475.323 673.685 475.323C673.685 475.323 673.685 475.323 673.685 475.323C673.685 475.323 673.685 475.323 673.685 475.323C673.685 475.323 673.685 475.323 673.685 475.323C673.685 475.323 673.685 475.323 673.685 475.323C673.685 475.323 673.685 475.323 673.685 475.323C673.685 475.323 673.685 475.323 673.685 475.323C673.685 475.323 673.685 475.323 673.685 475.323C673.686 475.323 673.686 475.323 673.686 475.323C673.686 475.323 673.686 475.323 673.686 475.323C673.686 475.323 673.686 475.323 673.686 475.323C673.686 475.323 673.686 475.323 673.686 475.323C673.686 475.323 673.686 475.324 673.686 475.324C673.686 475.324 673.686 475.324 673.686 475.324C673.686 475.324 673.686 475.324 673.686 475.324C673.686 475.324 673.686 475.324 673.686 475.324C673.686 475.324 673.686 475.324 673.686 475.324C673.686 475.324 673.686 475.324 673.686 475.324C673.686 475.324 673.686 475.324 673.686 475.324C673.686 475.324 673.686 475.324 673.686 475.324C673.686 475.324 673.686 475.324 673.687 475.324C673.687 475.324 673.687 475.324 673.687 475.324C673.687 475.324 673.687 475.324 673.687 475.324C673.687 475.324 673.687 475.324 673.687 475.324C673.687 475.324 673.687 475.324 673.687 475.324C673.687 475.324 673.687 475.324 673.687 475.324C673.687 475.324 673.687 475.324 673.687 475.324C673.687 475.324 673.687 475.324 673.687 475.324C673.687 475.324 673.687 475.324 673.687 475.324C673.687 475.324 673.687 475.324 673.687 475.324C673.687 475.324 673.687 475.324 673.687 475.324C673.687 475.324 673.687 475.324 673.687 475.324C673.687 475.324 673.687 475.324 673.687 475.324C673.687 475.324 673.687 475.324 673.688 475.324C673.688 475.324 673.688 475.324 673.688 475.324C673.688 475.324 673.688 475.325 673.688 475.325C673.688 475.325 673.688 475.325 673.688 475.325C673.688 475.325 673.688 475.325 673.688 475.325C673.688 475.325 673.688 475.325 673.688 475.325C673.688 475.325 673.688 475.325 673.688 475.325C673.688 475.325 673.688 475.325 673.688 475.325C673.688 475.325 673.688 475.325 673.688 475.325C673.688 475.325 673.688 475.325 673.688 475.325C673.688 475.325 673.688 475.325 673.688 475.325C673.688 475.325 673.688 475.325 673.688 475.325C673.688 475.325 673.688 475.325 673.688 475.325C673.688 475.325 673.689 475.325 673.689 475.325C673.689 475.325 673.689 475.325 673.689 475.325C673.689 475.325 673.689 475.325 673.689 475.325C673.689 475.325 673.689 475.325 673.689 475.325C673.689 475.325 673.689 475.325 673.689 475.325C673.689 475.325 673.689 475.325 673.689 475.325C673.689 475.325 673.689 475.325 673.689 475.325C673.689 475.325 673.689 475.325 673.689 475.325C673.689 475.325 673.689 475.325 673.689 475.325C673.689 475.325 673.689 475.325 673.689 475.325C673.689 475.325 673.689 475.325 673.689 475.325C673.689 475.325 673.689 475.325 673.689 475.325C673.689 475.326 673.689 475.326 673.689 475.326C673.689 475.326 673.69 475.326 673.69 475.326C673.69 475.326 673.69 475.326 673.69 475.326C673.69 475.326 673.69 475.326 673.69 475.326C673.69 475.326 673.69 475.326 673.69 475.326C673.69 475.326 673.69 475.326 673.69 475.326C673.69 475.326 673.69 475.326 673.69 475.326C673.69 475.326 673.69 475.326 673.69 475.326C673.69 475.326 673.69 475.326 673.69 475.326C673.69 475.326 673.69 475.326 673.69 475.326C673.69 475.326 673.69 475.326 673.69 475.326C673.69 475.326 673.69 475.326 673.69 475.326C673.69 475.326 673.69 475.326 673.69 475.326C673.69 475.326 673.69 475.326 673.69 475.326C673.691 475.326 673.691 475.326 673.691 475.326C673.691 475.326 673.691 475.326 673.691 475.326C673.691 475.326 673.691 475.326 673.691 475.326C673.691 475.326 673.691 475.326 673.691 475.326C673.691 475.326 673.691 475.326 673.691 475.326C673.691 475.326 673.691 475.326 673.691 475.326C673.691 475.326 673.691 475.326 673.691 475.326C673.691 475.326 673.691 475.326 673.691 475.326C673.691 475.326 673.691 475.326 673.691 475.327C673.691 475.327 673.691 475.327 673.691 475.327C673.691 475.327 673.691 475.327 673.691 475.327C673.691 475.327 673.691 475.327 673.691 475.327C673.691 475.327 673.691 475.327 673.692 475.327C673.692 475.327 673.692 475.327 673.692 475.327C673.692 475.327 673.692 475.327 673.692 475.327C673.692 475.327 673.692 475.327 673.692 475.327C673.692 475.327 673.692 475.327 673.692 475.327C673.692 475.327 673.692 475.327 673.692 475.327C673.692 475.327 673.692 475.327 673.692 475.327C673.692 475.327 673.692 475.327 673.692 475.327C673.692 475.327 673.692 475.327 673.692 475.327C673.692 475.327 673.692 475.327 673.692 475.327C673.692 475.327 673.692 475.327 673.692 475.327C673.692 475.327 673.692 475.327 673.692 475.327C673.692 475.327 673.692 475.327 673.692 475.327C673.692 475.327 673.692 475.327 673.693 475.327C673.693 475.327 673.693 475.327 673.693 475.327C673.693 475.327 673.693 475.327 673.693 475.327C673.693 475.327 673.693 475.327 673.693 475.327C673.693 475.327 673.693 475.327 673.693 475.327C673.693 475.327 673.693 475.327 673.693 475.327C673.693 475.327 673.693 475.328 673.693 475.328C673.693 475.328 673.693 475.328 673.693 475.328C673.693 475.328 673.693 475.328 673.693 475.328C673.693 475.328 673.693 475.328 673.693 475.328C673.693 475.328 673.693 475.328 673.693 475.328C673.693 475.328 673.693 475.328 673.693 475.328C673.693 475.328 673.693 475.328 673.693 475.328C673.693 475.328 673.694 475.328 673.694 475.328C673.694 475.328 673.694 475.328 673.694 475.328C673.694 475.328 673.694 475.328 673.694 475.328C673.694 475.328 673.694 475.328 673.694 475.328C673.694 475.328 673.694 475.328 673.694 475.328C673.694 475.328 673.694 475.328 673.694 475.328C673.694 475.328 673.694 475.328 673.694 475.328C673.694 475.328 673.694 475.328 673.694 475.328C673.694 475.328 673.694 475.328 673.694 475.328C673.694 475.328 673.694 475.328 673.694 475.328C673.694 475.328 673.694 475.328 673.694 475.328C673.694 475.328 673.694 475.328 673.694 475.328C673.694 475.328 673.694 475.328 673.694 475.328C673.694 475.328 673.695 475.328 673.695 475.328C673.695 475.328 673.695 475.328 673.695 475.328C673.695 475.328 673.695 475.328 673.695 475.328C673.695 475.329 673.695 475.329 673.695 475.329C673.695 475.329 673.695 475.329 673.695 475.329C673.695 475.329 673.695 475.329 673.695 475.329C673.695 475.329 673.695 475.329 673.695 475.329C673.695 475.329 673.695 475.329 673.695 475.329C673.695 475.329 673.695 475.329 673.695 475.329C673.695 475.329 673.695 475.329 673.695 475.329C673.695 475.329 673.695 475.329 673.695 475.329C673.695 475.329 673.695 475.329 673.695 475.329C673.695 475.329 673.695 475.329 673.695 475.329C673.696 475.329 673.696 475.329 673.696 475.329C673.696 475.329 673.696 475.329 673.696 475.329C673.696 475.329 673.696 475.329 673.696 475.329C673.696 475.329 673.696 475.329 673.696 475.329C673.696 475.329 673.696 475.329 673.696 475.329C673.696 475.329 673.696 475.329 673.696 475.329C673.696 475.329 673.696 475.329 673.696 475.329C673.696 475.329 673.696 475.329 673.696 475.329C673.696 475.329 673.696 475.329 673.696 475.329C673.696 475.329 673.696 475.329 673.696 475.329C673.696 475.329 673.696 475.329 673.696 475.329C673.696 475.329 673.696 475.329 673.696 475.329C673.696 475.329 673.696 475.329 673.696 475.33C673.697 475.33 673.697 475.33 673.697 475.33C673.697 475.33 673.697 475.33 673.697 475.33C673.697 475.33 673.697 475.33 673.697 475.33C673.697 475.33 673.697 475.33 673.697 475.33C673.697 475.33 673.697 475.33 673.697 475.33C673.697 475.33 673.697 475.33 673.697 475.33C673.697 475.33 673.697 475.33 673.697 475.33C673.697 475.33 673.697 475.33 673.697 475.33C673.697 475.33 673.697 475.33 673.697 475.33C673.697 475.33 673.697 475.33 673.697 475.33C673.697 475.33 673.697 475.33 673.697 475.33C673.697 475.33 673.697 475.33 673.697 475.33C673.697 475.33 673.697 475.33 673.698 475.33C673.698 475.33 673.698 475.33 673.698 475.33C673.698 475.33 673.698 475.33 673.698 475.33C673.698 475.33 673.698 475.33 673.698 475.33C673.698 475.33 673.698 475.33 673.698 475.33C673.698 475.33 673.698 475.33 673.698 475.33C673.698 475.33 673.698 475.33 673.698 475.33C673.698 475.33 673.698 475.33 673.698 475.33C673.698 475.33 673.698 475.33 673.698 475.33C673.698 475.33 673.698 475.33 673.698 475.33C673.698 475.33 673.698 475.331 673.698 475.331C673.698 475.331 673.698 475.331 673.698 475.331C673.698 475.331 673.698 475.331 673.698 475.331C673.698 475.331 673.698 475.331 673.699 475.331C673.699 475.331 673.699 475.331 673.699 475.331C673.699 475.331 673.699 475.331 673.699 475.331C673.699 475.331 673.699 475.331 673.699 475.331C673.699 475.331 673.699 475.331 673.699 475.331C673.699 475.331 673.699 475.331 673.699 475.331C673.699 475.331 673.699 475.331 673.699 475.331C673.699 475.331 673.699 475.331 673.699 475.331C673.699 475.331 673.699 475.331 673.699 475.331C673.699 475.331 673.699 475.331 673.699 475.331C673.699 475.331 673.699 475.331 673.699 475.331C673.699 475.331 673.699 475.331 673.699 475.331C673.699 475.331 673.699 475.331 673.699 475.331C673.699 475.331 673.7 475.331 673.7 475.331C673.7 475.331 673.7 475.331 673.7 475.331C673.7 475.331 673.7 475.331 673.7 475.331C673.7 475.331 673.7 475.331 673.7 475.331C673.7 475.331 673.7 475.331 673.7 475.331C673.7 475.331 673.7 475.331 673.7 475.331C673.7 475.331 673.7 475.331 673.7 475.331C673.7 475.332 673.7 475.332 673.7 475.332C673.7 475.332 673.7 475.332 673.7 475.332C673.7 475.332 673.7 475.332 673.7 475.332C673.7 475.332 673.7 475.332 673.7 475.332C673.7 475.332 673.7 475.332 673.7 475.332C673.7 475.332 673.7 475.332 673.7 475.332C673.7 475.332 673.701 475.332 673.701 475.332C673.701 475.332 673.701 475.332 673.701 475.332C673.701 475.332 673.701 475.332 673.701 475.332C673.701 475.332 673.701 475.332 673.701 475.332C673.701 475.332 673.701 475.332 673.701 475.332C673.701 475.332 673.701 475.332 673.701 475.332C673.701 475.332 673.701 475.332 673.701 475.332C673.701 475.332 673.701 475.332 673.701 475.332C673.701 475.332 673.701 475.332 673.701 475.332C673.701 475.332 673.701 475.332 673.701 475.332C673.701 475.332 673.701 475.332 673.701 475.332C673.701 475.332 673.701 475.332 673.701 475.332C673.701 475.332 673.701 475.332 673.701 475.332C673.702 475.332 673.702 475.332 673.702 475.332C673.702 475.332 673.702 475.332 673.702 475.332C673.702 475.332 673.702 475.332 673.702 475.332C673.702 475.332 673.702 475.332 673.702 475.333C673.702 475.333 673.702 475.333 673.702 475.333C673.702 475.333 673.702 475.333 673.702 475.333C673.702 475.333 673.702 475.333 673.702 475.333C673.702 475.333 673.702 475.333 673.702 475.333C673.702 475.333 673.702 475.333 673.702 475.333C673.702 475.333 673.702 475.333 673.702 475.333C673.702 475.333 673.702 475.333 673.702 475.333C673.702 475.333 673.702 475.333 673.702 475.333C673.702 475.333 673.702 475.333 673.702 475.333C673.703 475.333 673.703 475.333 673.703 475.333C673.703 475.333 673.703 475.333 673.703 475.333C673.703 475.333 673.703 475.333 673.703 475.333C673.703 475.333 673.703 475.333 673.703 475.333C673.703 475.333 673.703 475.333 673.703 475.333C673.703 475.333 673.703 475.333 673.703 475.333C673.703 475.333 673.703 475.333 673.703 475.333C673.703 475.333 673.703 475.333 673.703 475.333C673.703 475.333 673.703 475.333 673.703 475.333C673.703 475.333 673.703 475.333 673.703 475.333C673.703 475.333 673.703 475.333 673.703 475.333C673.703 475.333 673.703 475.333 673.703 475.333C673.703 475.333 673.703 475.333 673.704 475.333C673.704 475.333 673.704 475.334 673.704 475.334C673.704 475.334 673.704 475.334 673.704 475.334C673.704 475.334 673.704 475.334 673.704 475.334C673.704 475.334 673.704 475.334 673.704 475.334C673.704 475.334 673.704 475.334 673.704 475.334C673.704 475.334 673.704 475.334 673.704 475.334C673.704 475.334 673.704 475.334 673.704 475.334C673.704 475.334 673.704 475.334 673.704 475.334C673.704 475.334 673.704 475.334 673.704 475.334C673.704 475.334 673.704 475.334 673.704 475.334C673.704 475.334 673.704 475.334 673.704 475.334C673.704 475.334 673.704 475.334 673.704 475.334C673.704 475.334 673.705 475.334 673.705 475.334C673.705 475.334 673.705 475.334 673.705 475.334C673.705 475.334 673.705 475.334 673.705 475.334C673.705 475.334 673.705 475.334 673.705 475.334C673.705 475.334 673.705 475.334 673.705 475.334C673.705 475.334 673.705 475.334 673.705 475.334C673.705 475.334 673.705 475.334 673.705 475.334C673.705 475.334 673.705 475.334 673.705 475.334C673.705 475.334 673.705 475.334 673.705 475.334C673.705 475.334 673.705 475.334 673.705 475.334C673.705 475.334 673.705 475.334 673.705 475.334C673.705 475.335 673.705 475.335 673.705 475.335C673.705 475.335 673.705 475.335 673.705 475.335C673.705 475.335 673.706 475.335 673.706 475.335C673.706 475.335 673.706 475.335 673.706 475.335C673.706 475.335 673.706 475.335 673.706 475.335C673.706 475.335 673.706 475.335 673.706 475.335C673.706 475.335 673.706 475.335 673.706 475.335C673.706 475.335 673.706 475.335 673.706 475.335C673.706 475.335 673.706 475.335 673.706 475.335C673.706 475.335 673.706 475.335 673.706 475.335C673.706 475.335 673.706 475.335 673.706 475.335C673.706 475.335 673.706 475.335 673.706 475.335C673.706 475.335 673.706 475.335 673.706 475.335C673.706 475.335 673.706 475.335 673.706 475.335C673.706 475.335 673.706 475.335 673.706 475.335C673.707 475.335 673.707 475.335 673.707 475.335C673.707 475.335 673.707 475.335 673.707 475.335C673.707 475.335 673.707 475.335 673.707 475.335C673.707 475.335 673.707 475.335 673.707 475.335C673.707 475.335 673.707 475.335 673.707 475.335C673.707 475.335 673.707 475.335 673.707 475.335C673.707 475.335 673.707 475.335 673.707 475.335C673.707 475.335 673.707 475.335 673.707 475.336C673.707 475.336 673.707 475.336 673.707 475.336C673.707 475.336 673.707 475.336 673.707 475.336C673.707 475.336 673.707 475.336 673.707 475.336C673.707 475.336 673.707 475.336 673.707 475.336C673.707 475.336 673.707 475.336 673.707 475.336C673.708 475.336 673.708 475.336 673.708 475.336C673.708 475.336 673.708 475.336 673.708 475.336C673.708 475.336 673.708 475.336 673.708 475.336C673.708 475.336 673.708 475.336 673.708 475.336C673.708 475.336 673.708 475.336 673.708 475.336C673.708 475.336 673.708 475.336 673.708 475.336C673.708 475.336 673.708 475.336 673.708 475.336C673.708 475.336 673.708 475.336 673.708 475.336C673.708 475.336 673.708 475.336 673.708 475.336C673.708 475.336 673.708 475.336 673.708 475.336C673.708 475.336 673.708 475.336 673.708 475.336C673.708 475.336 673.708 475.336 673.708 475.336C673.708 475.336 673.708 475.336 673.709 475.336C673.709 475.336 673.709 475.336 673.709 475.336C673.709 475.336 673.709 475.336 673.709 475.336C673.709 475.336 673.709 475.336 673.709 475.336C673.709 475.336 673.709 475.336 673.709 475.336C673.709 475.336 673.709 475.337 673.709 475.337C673.709 475.337 673.709 475.337 673.709 475.337C673.709 475.337 673.709 475.337 673.709 475.337C673.709 475.337 673.709 475.337 673.709 475.337C673.709 475.337 673.709 475.337 673.709 475.337C673.709 475.337 673.709 475.337 673.709 475.337C673.709 475.337 673.709 475.337 673.709 475.337C673.709 475.337 673.709 475.337 673.709 475.337C673.709 475.337 673.709 475.337 673.71 475.337C673.71 475.337 673.71 475.337 673.71 475.337C673.71 475.337 673.71 475.337 673.71 475.337C673.71 475.337 673.71 475.337 673.71 475.337C673.71 475.337 673.71 475.337 673.71 475.337C673.71 475.337 673.71 475.337 673.71 475.337C673.71 475.337 673.71 475.337 673.71 475.337C673.71 475.337 673.71 475.337 673.71 475.337C673.71 475.337 673.71 475.337 673.71 475.337C673.71 475.337 673.71 475.337 673.71 475.337C673.71 475.337 673.71 475.337 673.71 475.337C673.71 475.337 673.71 475.337 673.71 475.337C673.71 475.337 673.71 475.337 673.71 475.337C673.71 475.337 673.711 475.337 673.711 475.337C673.711 475.337 673.711 475.337 673.711 475.337C673.711 475.338 673.711 475.338 673.711 475.338C673.711 475.338 673.711 475.338 673.711 475.338C673.711 475.338 673.711 475.338 673.711 475.338C673.711 475.338 673.711 475.338 673.711 475.338C673.711 475.338 673.711 475.338 673.711 475.338C673.711 475.338 673.711 475.338 673.711 475.338C673.711 475.338 673.711 475.338 673.711 475.338C673.711 475.338 673.711 475.338 673.711 475.338C673.711 475.338 673.711 475.338 673.711 475.338C673.711 475.338 673.711 475.338 673.711 475.338C673.711 475.338 673.711 475.338 673.711 475.338C673.711 475.338 673.712 475.338 673.712 475.338C673.712 475.338 673.712 475.338 673.712 475.338C673.712 475.338 673.712 475.338 673.712 475.338C673.712 475.338 673.712 475.338 673.712 475.338C673.712 475.338 673.712 475.338 673.712 475.338C673.712 475.338 673.712 475.338 673.712 475.338C673.712 475.338 673.712 475.338 673.712 475.338C673.712 475.338 673.712 475.338 673.712 475.338C673.712 475.338 673.712 475.338 673.712 475.338C673.712 475.338 673.712 475.338 673.712 475.338C673.712 475.338 673.712 475.338 673.712 475.338C673.712 475.338 673.712 475.338 673.712 475.339C673.712 475.339 673.712 475.339 673.712 475.339L677.59 468.479ZM736.375 462.72C734.205 472.243 731.047 477.818 727.591 480.927C724.264 483.919 720.234 485.007 715.291 484.614C710.213 484.21 704.359 482.244 697.856 479.252C691.383 476.274 684.582 472.432 677.591 468.479L673.712 475.338C680.637 479.254 687.734 483.269 694.563 486.411C701.362 489.539 708.212 491.955 714.666 492.469C721.254 492.993 727.581 491.534 732.86 486.786C738.009 482.155 741.705 474.798 744.058 464.471L736.375 462.72ZM687.177 434.775C696.473 433.46 704.798 432.634 711.937 432.655C719.121 432.675 724.777 433.556 728.915 435.411C732.889 437.193 735.485 439.868 736.815 443.869C738.209 448.065 738.337 454.108 736.375 462.72L744.058 464.471C746.177 455.173 746.328 447.508 744.292 441.384C742.191 435.063 737.901 430.804 732.139 428.221C726.541 425.711 719.61 424.796 711.959 424.775C704.263 424.753 695.505 425.639 686.074 426.972L687.177 434.775ZM686.52 434.866C686.738 434.836 686.957 434.806 687.177 434.775L686.074 426.972C685.867 427.001 685.661 427.03 685.456 427.058L686.52 434.866Z" fill="#333333" mask="url(#path-13-outside-2_901_401)"/>
<mask id="path-15-inside-3_901_401" fill="white">
<path fill-rule="evenodd" clip-rule="evenodd" d="M654.536 448.206C659.788 445.139 663.317 439.442 663.317 432.921C663.317 423.153 655.399 415.235 645.63 415.235C635.862 415.235 627.944 423.153 627.944 432.921C627.944 439.442 631.472 445.138 636.724 448.205L633.659 465.807H657.601L654.536 448.206Z"/>
</mask>
<path fill-rule="evenodd" clip-rule="evenodd" d="M654.536 448.206C659.788 445.139 663.317 439.442 663.317 432.921C663.317 423.153 655.399 415.235 645.63 415.235C635.862 415.235 627.944 423.153 627.944 432.921C627.944 439.442 631.472 445.138 636.724 448.205L633.659 465.807H657.601L654.536 448.206Z" fill="#A4C954"/>
<path d="M654.536 448.206L652.549 444.803L650.184 446.184L650.654 448.882L654.536 448.206ZM636.724 448.205L640.606 448.881L641.075 446.184L638.711 444.803L636.724 448.205ZM633.659 465.807L629.777 465.131L628.973 469.747H633.659V465.807ZM657.601 465.807V469.747H662.287L661.483 465.131L657.601 465.807ZM659.377 432.921C659.377 437.985 656.642 442.414 652.549 444.803L656.523 451.608C662.935 447.864 667.257 440.9 667.257 432.921H659.377ZM645.63 419.175C653.223 419.175 659.377 425.329 659.377 432.921H667.257C667.257 420.977 657.575 411.295 645.63 411.295V419.175ZM631.884 432.921C631.884 425.329 638.038 419.175 645.63 419.175V411.295C633.686 411.295 624.004 420.977 624.004 432.921H631.884ZM638.711 444.803C634.619 442.413 631.884 437.985 631.884 432.921H624.004C624.004 440.899 628.326 447.863 634.737 451.608L638.711 444.803ZM637.54 466.483L640.606 448.881L632.842 447.529L629.777 465.131L637.54 466.483ZM657.601 461.867H633.659V469.747H657.601V461.867ZM650.654 448.882L653.72 466.483L661.483 465.131L658.417 447.53L650.654 448.882Z" fill="#333333" mask="url(#path-15-inside-3_901_401)"/>
<path d="M677.407 733.317C675.99 726.752 670.433 710.535 659.55 698.181" stroke="#333333" stroke-width="3.94" stroke-linecap="round"/>
<path d="M525.1 792.196C526.812 794.828 529.701 802.874 527.566 814.008" stroke="#333333" stroke-width="3.94" stroke-linecap="round"/>
<path d="M444.648 795.116C443.222 788.553 441.57 771.49 446.367 755.741" stroke="#333333" stroke-width="3.94" stroke-linecap="round"/>
<path d="M689.111 727.234C689.037 708.369 694.489 660.524 716.887 620.063" stroke="#333333" stroke-width="3.94" stroke-linecap="round"/>
<circle cx="402.811" cy="212.316" r="9.73493" transform="rotate(-180 402.811 212.316)" stroke="white" stroke-width="3.94"/>
<circle cx="472.853" cy="396.155" r="9.73493" transform="rotate(-180 472.853 396.155)" fill="#628026" stroke="white" stroke-width="3.94"/>
<circle cx="609.724" cy="758.202" r="15.2844" transform="rotate(-180 609.724 758.202)" fill="#A4C954" stroke="#333333" stroke-width="3.94"/>
<circle cx="291.237" cy="657.335" r="4.36899" fill="white" stroke="white" stroke-width="3.94"/>
<circle cx="381.811" cy="747.793" r="7.32517" stroke="white" stroke-width="3.94"/>
<circle cx="760.315" cy="318.165" r="31.9096" fill="#628026"/>
<circle cx="502.245" cy="837.951" r="1.97" fill="#333333" stroke="#333333" stroke-width="2.98639"/>
<circle cx="565.279" cy="731.946" r="1.97" fill="#333333" stroke="#333333" stroke-width="2.98639"/>
<circle cx="724.942" cy="249.929" r="1.97" fill="white" stroke="white" stroke-width="2.98639"/>
<circle cx="339.531" cy="185.341" r="1.97" fill="white" stroke="white" stroke-width="2.98639"/>
<path d="M278.054 562.99L291.059 514.101C291.481 512.513 293.547 512.111 294.535 513.423L333.771 565.554C334.135 566.037 334.257 566.66 334.101 567.244L321.096 616.133C320.674 617.721 318.608 618.124 317.62 616.811L278.383 564.68C278.02 564.197 277.898 563.574 278.054 562.99Z" stroke="white" stroke-width="3.94"/>
<path d="M813.692 396.158L778.1 425.322" stroke="white" stroke-width="3.94"/>
<circle cx="774.636" cy="747.793" r="1.97" fill="white" stroke="white" stroke-width="2.98639"/>
<circle cx="742.766" cy="765.618" r="12.3911" transform="rotate(-180 742.766 765.618)" stroke="white" stroke-width="3.94"/>
<path d="M449.61 334.915L325.224 256.961C324.263 256.359 322.993 256.691 322.449 257.686L235.796 416.532C235.28 417.477 235.619 418.662 236.558 419.19L358.903 488.132C359.836 488.658 361.019 488.342 361.564 487.42L450.259 337.586C450.803 336.667 450.515 335.482 449.61 334.915Z" fill="#A4C954" stroke="#333333" stroke-width="3.94"/>
<path d="M307.27 433.885C335.501 437.539 355.3 429.057 370.67 415.103C386.2 401.003 397.246 381.293 407.758 362.41C407.755 362.392 407.752 362.372 407.749 362.352C407.687 361.978 407.557 361.421 407.348 360.674C406.933 359.191 406.265 357.155 405.414 354.721C403.717 349.861 401.343 343.56 398.956 337.23L398.782 336.769C396.459 330.608 394.138 324.455 392.457 319.676C391.597 317.231 390.892 315.11 390.438 313.518C390.342 313.183 390.256 312.863 390.18 312.562C387.234 313.128 384.677 313.332 382.676 313.27C381.451 313.232 380.355 313.092 379.478 312.83C379.1 312.718 378.705 312.565 378.339 312.35C362.408 316.119 350.257 311.413 335.903 305.853C335.441 305.675 334.977 305.495 334.51 305.314C329.475 306.773 325.75 306.894 322.481 305.729C321.495 307.378 320.488 309.051 319.459 310.761C308.245 329.395 296.521 348.915 291.993 369.547C287.544 389.825 290.045 411.22 307.27 433.885Z" fill="white" stroke="#333333" stroke-width="3.94"/>
<path d="M335.65 345.326L335.65 345.326L343.369 383.297L343.811 385.475L345.92 384.774L361.612 379.563C361.612 379.563 361.613 379.563 361.613 379.563C363.467 378.948 365.19 379.947 365.579 381.86L335.65 345.326ZM335.65 345.326C335.261 343.412 333.538 342.414 331.684 343.03L331.683 343.03C329.654 343.703 328.311 346.024 328.737 348.12L328.737 348.12L337.585 391.654L335.769 392.023M335.65 345.326L335.769 392.023M335.769 392.023L337.585 391.654C337.789 392.655 338.343 393.359 339.02 393.75C339.696 394.142 340.583 394.272 341.552 393.95L362.632 386.95C364.661 386.277 366.005 383.957 365.579 381.86L335.769 392.023Z" fill="#A4C954" stroke="#333333" stroke-width="3.94"/>
<path d="M320.073 433.885C348.304 437.539 368.103 429.057 383.473 415.103C399.111 400.905 410.202 381.019 420.779 362.017C421.733 360.304 422.666 358.628 423.588 356.982C406.702 345.678 395.916 331.294 390.326 312.551C371.287 317.034 353.44 314.84 335.228 305.822C334.26 307.44 333.272 309.082 332.262 310.761C321.048 329.395 309.324 348.915 304.796 369.547C300.347 389.825 302.848 411.22 320.073 433.885Z" fill="white" stroke="#333333" stroke-width="3.94"/>
<path d="M382.807 365.428L382.806 365.428L345.922 377.3L343.807 377.981L343.385 375.799L340.24 359.566C340.24 359.566 340.24 359.566 340.24 359.566C339.868 357.648 338.154 356.635 336.295 357.233L382.807 365.428ZM382.807 365.428C384.666 364.829 386.38 365.844 386.751 367.761L386.751 367.762C387.158 369.86 385.794 372.169 383.757 372.824L383.757 372.824L341.47 386.436L342.038 388.2M382.807 365.428L342.038 388.2M342.038 388.2L341.47 386.436C340.498 386.749 339.612 386.61 338.94 386.212C338.267 385.815 337.719 385.105 337.525 384.103L333.301 362.296C332.894 360.197 334.259 357.889 336.295 357.233L342.038 388.2Z" fill="#A4C954" stroke="#333333" stroke-width="3.94"/>
<path d="M791.087 483.463L828.019 463.557L849.73 476.092L827.252 487.676L839.094 494.513L808.213 510.017L824.66 519.513L761.079 535.437L791.785 517.2L776.653 508.463L806.219 492.199L791.087 483.463Z" stroke="white" stroke-width="3.94"/>
</svg>
