<svg width="1080" height="1080" viewBox="0 0 1080 1080" fill="none" xmlns="http://www.w3.org/2000/svg">
<rect width="1080" height="1080" fill="white"/>
<path d="M470.55 559.09C429.652 605.484 412.97 614.177 346.456 555.542L413.416 479.584C417.875 483.515 423.622 485.852 430.827 480.219C430.946 472.323 432.645 463.941 436.153 455.187L455.912 451.084C457.756 450.701 459.893 451.475 461.25 452.781C465.222 456.604 474.228 465.614 486.478 490.508C490.409 498.497 498.251 527.666 470.55 559.09Z" fill="white"/>
<path d="M451.311 524.72C438.252 513.208 430.56 497.939 430.827 480.219M430.827 480.219C430.946 472.323 432.645 463.941 436.153 455.187L455.912 451.084C457.756 450.701 459.893 451.475 461.25 452.781C465.222 456.604 474.228 465.614 486.478 490.508C490.409 498.497 498.251 527.666 470.55 559.09C429.652 605.484 412.97 614.177 346.456 555.542L413.416 479.584C417.875 483.515 423.622 485.852 430.827 480.219Z" stroke="#333333" stroke-width="3.94"/>
<mask id="path-3-outside-1_901_736" maskUnits="userSpaceOnUse" x="251.353" y="358.242" width="292.013" height="310.677" fill="black">
<rect fill="white" x="251.353" y="358.242" width="292.013" height="310.677"/>
<path fill-rule="evenodd" clip-rule="evenodd" d="M315.157 410.302L362.838 372.497C368.488 368.017 376.699 368.966 381.178 374.615L528.517 560.442C532.997 566.091 532.048 574.302 526.399 578.782L430.763 654.609C425.114 659.089 416.903 658.14 412.424 652.491L265.084 466.664C260.605 461.015 261.554 452.804 267.203 448.324L314.879 410.522C314.925 410.485 314.971 410.448 315.017 410.411C315.064 410.374 315.11 410.338 315.157 410.302Z"/>
</mask>
<path fill-rule="evenodd" clip-rule="evenodd" d="M315.157 410.302L362.838 372.497C368.488 368.017 376.699 368.966 381.178 374.615L528.517 560.442C532.997 566.091 532.048 574.302 526.399 578.782L430.763 654.609C425.114 659.089 416.903 658.14 412.424 652.491L265.084 466.664C260.605 461.015 261.554 452.804 267.203 448.324L314.879 410.522C314.925 410.485 314.971 410.448 315.017 410.411C315.064 410.374 315.11 410.338 315.157 410.302Z" fill="#333333"/>
<path d="M315.157 410.302L317.541 413.439L317.573 413.415L317.605 413.389L315.157 410.302ZM362.838 372.497L360.39 369.409L362.838 372.497ZM314.879 410.522L317.327 413.61L317.359 413.584L317.39 413.559L314.879 410.522ZM317.605 413.389L365.286 375.584L360.39 369.409L312.709 407.215L317.605 413.389ZM365.286 375.584C369.23 372.456 374.963 373.119 378.091 377.063L384.265 372.167C378.434 364.813 367.745 363.578 360.39 369.409L365.286 375.584ZM378.091 377.063L525.43 562.889L531.605 557.994L384.265 372.167L378.091 377.063ZM525.43 562.889C528.557 566.834 527.895 572.567 523.951 575.694L528.846 581.869C536.201 576.038 537.436 565.348 531.605 557.994L525.43 562.889ZM523.951 575.694L428.316 651.522L433.211 657.697L528.846 581.869L523.951 575.694ZM428.316 651.522C424.371 654.649 418.638 653.987 415.511 650.043L409.336 654.939C415.168 662.293 425.857 663.528 433.211 657.697L428.316 651.522ZM415.511 650.043L268.172 464.216L261.997 469.112L409.336 654.939L415.511 650.043ZM268.172 464.216C265.044 460.272 265.707 454.539 269.651 451.412L264.755 445.237C257.401 451.068 256.166 461.758 261.997 469.112L268.172 464.216ZM269.651 451.412L317.327 413.61L312.432 407.435L264.755 445.237L269.651 451.412ZM317.39 413.559C317.415 413.538 317.44 413.518 317.465 413.498L312.569 407.323C312.502 407.377 312.435 407.431 312.369 407.486L317.39 413.559ZM317.465 413.498C317.49 413.478 317.516 413.458 317.541 413.439L312.773 407.165C312.705 407.217 312.637 407.27 312.569 407.323L317.465 413.498Z" fill="#333333" mask="url(#path-3-outside-1_901_736)"/>
<mask id="path-5-outside-2_901_736" maskUnits="userSpaceOnUse" x="244.077" y="356.677" width="292.013" height="310.677" fill="black">
<rect fill="white" x="244.077" y="356.677" width="292.013" height="310.677"/>
<path fill-rule="evenodd" clip-rule="evenodd" d="M307.848 408.763L355.562 370.932C361.211 366.452 369.422 367.401 373.902 373.05L521.241 558.877C525.72 564.526 524.772 572.737 519.122 577.217L423.487 653.044C417.838 657.524 409.627 656.575 405.147 650.926L257.808 465.099C253.329 459.45 254.277 451.239 259.927 446.759L307.636 408.931C307.671 408.903 307.706 408.874 307.742 408.846C307.777 408.818 307.813 408.79 307.848 408.763Z"/>
</mask>
<path fill-rule="evenodd" clip-rule="evenodd" d="M307.848 408.763L355.562 370.932C361.211 366.452 369.422 367.401 373.902 373.05L521.241 558.877C525.72 564.526 524.772 572.737 519.122 577.217L423.487 653.044C417.838 657.524 409.627 656.575 405.147 650.926L257.808 465.099C253.329 459.45 254.277 451.239 259.927 446.759L307.636 408.931C307.671 408.903 307.706 408.874 307.742 408.846C307.777 408.818 307.813 408.79 307.848 408.763Z" fill="#A4C954"/>
<path d="M307.848 408.763L310.247 411.888L310.272 411.869L310.296 411.85L307.848 408.763ZM519.122 577.217L521.57 580.304L519.122 577.217ZM423.487 653.044L421.039 649.957L423.487 653.044ZM307.636 408.931L310.084 412.018L310.108 411.999L310.132 411.98L307.636 408.931ZM310.296 411.85L358.01 374.019L353.114 367.844L305.4 405.676L310.296 411.85ZM358.01 374.019C361.954 370.891 367.687 371.554 370.814 375.498L376.989 370.602C371.158 363.248 360.468 362.013 353.114 367.844L358.01 374.019ZM370.814 375.498L518.154 561.324L524.328 556.429L376.989 370.602L370.814 375.498ZM518.154 561.324C521.281 565.269 520.619 571.002 516.674 574.129L521.57 580.304C528.925 574.472 530.16 563.783 524.328 556.429L518.154 561.324ZM516.674 574.129L421.039 649.957L425.935 656.132L521.57 580.304L516.674 574.129ZM421.039 649.957C417.095 653.084 411.362 652.422 408.234 648.478L402.06 653.373C407.891 660.728 418.58 661.963 425.935 656.132L421.039 649.957ZM408.234 648.478L260.895 462.651L254.721 467.547L402.06 653.373L408.234 648.478ZM260.895 462.651C257.768 458.707 258.43 452.974 262.375 449.847L257.479 443.672C250.124 449.503 248.889 460.193 254.721 467.547L260.895 462.651ZM262.375 449.847L310.084 412.018L305.188 405.844L257.479 443.672L262.375 449.847ZM310.132 411.98C310.151 411.964 310.17 411.949 310.189 411.933L305.294 405.759C305.242 405.8 305.191 405.841 305.14 405.882L310.132 411.98ZM310.189 411.933C310.209 411.918 310.228 411.903 310.247 411.888L305.449 405.638C305.397 405.678 305.345 405.718 305.294 405.759L310.189 411.933Z" fill="#333333" mask="url(#path-5-outside-2_901_736)"/>
<circle cx="288.211" cy="458.475" r="8.21163" transform="rotate(-38.4104 288.211 458.475)" fill="#333333"/>
<path d="M307.014 435.844L334.198 414.291" stroke="#333333" stroke-width="3.94" stroke-linejoin="round"/>
<path fill-rule="evenodd" clip-rule="evenodd" d="M385.576 544.73C397.375 535.475 414.445 537.535 423.704 549.331L359.949 599.341C354.05 603.968 345.514 602.938 340.885 597.04C336.256 591.142 337.285 582.61 343.185 577.982L385.576 544.73ZM393.716 573.678C405.515 564.424 422.585 566.484 431.843 578.28L377.112 621.209C371.213 625.837 362.678 624.806 358.048 618.908C353.419 613.01 354.449 604.478 360.349 599.85L393.716 573.678ZM431.466 613.908C422.208 602.112 405.138 600.052 393.339 609.306L377.514 621.72C371.614 626.347 370.584 634.879 375.213 640.778C379.842 646.676 388.378 647.706 394.277 643.078L431.466 613.908ZM356.976 531.829C368.775 522.574 385.845 524.635 395.103 536.431L342.784 577.468C336.885 582.096 328.349 581.065 323.72 575.167C319.091 569.269 320.121 560.737 326.021 556.109L356.976 531.829Z" fill="white"/>
<path d="M423.704 549.331L425.251 548.111L426.47 549.664L424.917 550.883L423.704 549.331ZM385.576 544.73L386.789 546.282L385.576 544.73ZM359.949 599.341L358.736 597.788L358.736 597.788L359.949 599.341ZM340.885 597.04L339.338 598.26L339.338 598.26L340.885 597.04ZM343.185 577.982L341.972 576.43L341.972 576.43L343.185 577.982ZM431.843 578.28L433.39 577.061L434.609 578.614L433.056 579.832L431.843 578.28ZM393.716 573.678L392.503 572.126L392.503 572.126L393.716 573.678ZM377.112 621.209L378.325 622.761L378.325 622.761L377.112 621.209ZM358.048 618.908L359.596 617.689L358.048 618.908ZM360.349 599.85L359.136 598.298L359.136 598.298L360.349 599.85ZM393.339 609.306L394.552 610.859L393.339 609.306ZM431.466 613.908L433.014 612.689L434.233 614.242L432.679 615.461L431.466 613.908ZM377.514 621.72L376.301 620.167L376.301 620.167L377.514 621.72ZM375.213 640.778L373.666 641.997L375.213 640.778ZM394.277 643.078L395.49 644.631L394.277 643.078ZM395.103 536.431L396.651 535.212L397.87 536.765L396.316 537.983L395.103 536.431ZM356.976 531.829L355.763 530.277L355.763 530.277L356.976 531.829ZM342.784 577.468L341.571 575.916L341.571 575.916L342.784 577.468ZM323.72 575.167L325.268 573.948L325.268 573.948L323.72 575.167ZM326.021 556.109L324.808 554.557L324.808 554.557L326.021 556.109ZM422.156 550.55C413.568 539.608 397.733 537.698 386.789 546.282L384.363 543.178C397.016 533.252 415.322 535.461 425.251 548.111L422.156 550.55ZM358.736 597.788L422.491 547.778L424.917 550.883L361.162 600.893L358.736 597.788ZM342.433 595.821C346.391 600.865 353.691 601.746 358.736 597.788L361.162 600.893C354.408 606.191 344.638 605.012 339.338 598.26L342.433 595.821ZM344.398 579.535C339.356 583.49 338.476 590.781 342.433 595.821L339.338 598.26C334.036 591.504 335.215 581.73 341.972 576.43L344.398 579.535ZM386.789 546.282L344.398 579.535L341.972 576.43L384.363 543.178L386.789 546.282ZM430.295 579.499C421.708 568.558 405.873 566.646 394.929 575.231L392.503 572.126C405.156 562.201 423.461 564.41 433.39 577.061L430.295 579.499ZM375.899 619.657L430.63 576.728L433.056 579.832L378.325 622.761L375.899 619.657ZM359.596 617.689C363.554 622.733 370.854 623.614 375.899 619.657L378.325 622.761C371.571 628.059 361.801 626.88 356.501 620.127L359.596 617.689ZM361.562 601.403C356.52 605.357 355.64 612.648 359.596 617.689L356.501 620.127C351.199 613.372 352.379 603.598 359.136 598.298L361.562 601.403ZM394.929 575.231L361.562 601.403L359.136 598.298L392.503 572.126L394.929 575.231ZM392.126 607.754C404.78 597.829 423.085 600.038 433.014 612.689L429.919 615.127C421.331 604.186 405.496 602.275 394.552 610.859L392.126 607.754ZM376.301 620.167L392.126 607.754L394.552 610.859L378.727 623.272L376.301 620.167ZM373.666 641.997C368.364 635.241 369.544 625.467 376.301 620.167L378.727 623.272C373.685 627.227 372.805 634.518 376.761 639.558L373.666 641.997ZM395.49 644.631C388.736 649.928 378.966 648.749 373.666 641.997L376.761 639.558C380.719 644.602 388.019 645.483 393.064 641.526L395.49 644.631ZM432.679 615.461L395.49 644.631L393.064 641.526L430.253 612.356L432.679 615.461ZM393.556 537.65C384.968 526.708 369.133 524.797 358.189 533.381L355.763 530.277C368.417 520.352 386.722 522.561 396.651 535.212L393.556 537.65ZM341.571 575.916L393.89 534.879L396.316 537.983L343.997 579.021L341.571 575.916ZM325.268 573.948C329.226 578.992 336.526 579.873 341.571 575.916L343.997 579.021C337.243 584.318 327.473 583.139 322.173 576.386L325.268 573.948ZM327.234 557.662C322.192 561.617 321.312 568.907 325.268 573.948L322.173 576.386C316.871 569.631 318.051 559.857 324.808 554.557L327.234 557.662ZM358.189 533.381L327.234 557.662L324.808 554.557L355.763 530.277L358.189 533.381Z" fill="#333333"/>
<path d="M402.879 476.178L403.674 477.181C414.048 490.265 433.063 492.461 446.146 482.088L457.489 473.094C464.307 467.688 465.452 457.778 460.046 450.959C454.639 444.14 444.729 442.995 437.911 448.402L402.879 476.178Z" fill="white" stroke="#333333" stroke-width="3.94"/>
<circle r="14.9477" transform="matrix(1 -8.74228e-08 -8.74228e-08 -1 607.537 229.149)" fill="#A4C954" stroke="#333333" stroke-width="3.94"/>
<circle cx="737.515" cy="768.35" r="6.25615" transform="rotate(-140.278 737.515 768.35)" fill="white" stroke="#333333" stroke-width="3.94"/>
<circle cx="731.662" cy="745.682" r="1.97" transform="rotate(-140.278 731.662 745.682)" fill="#333333" stroke="#333333" stroke-width="2.98639"/>
<path d="M837.703 296.571L796.972 317.981" stroke="#333333" stroke-width="3.94"/>
<path d="M834.977 757.947L804.287 723.663" stroke="#333333" stroke-width="3.94"/>
<path d="M313.934 290.36L278.647 260.827" stroke="#333333" stroke-width="3.94"/>
<path d="M295.556 357.682L281.716 342.034C281.468 341.752 281.085 341.629 280.719 341.711L260.339 346.303C259.575 346.475 259.275 347.403 259.794 347.99L273.633 363.638C273.882 363.92 274.264 364.043 274.631 363.961L295.011 359.37C295.775 359.197 296.075 358.269 295.556 357.682Z" fill="white" stroke="#333333" stroke-width="3.94" stroke-linejoin="round"/>
<path d="M311.859 725.185L328.155 730.223C328.514 730.334 328.905 730.241 329.176 729.979L341.44 718.125C342.003 717.58 341.776 716.631 341.028 716.4L324.732 711.362C324.373 711.251 323.982 711.345 323.712 711.606L311.448 723.461C310.884 724.005 311.111 724.954 311.859 725.185Z" fill="white" stroke="#333333" stroke-width="3.94" stroke-linejoin="round"/>
<circle cx="517.024" cy="436.195" r="21.4521" transform="rotate(-180 517.024 436.195)" fill="white" stroke="#333333" stroke-width="3.94"/>
<circle cx="548.087" cy="471.909" r="8.37162" transform="rotate(-180 548.087 471.909)" stroke="#333333" stroke-width="3.94"/>
<circle cx="472.603" cy="269.72" r="87.295" transform="rotate(165 472.603 269.72)" fill="white" stroke="#333333" stroke-width="3.94" stroke-linecap="round"/>
<circle cx="467.239" cy="264.358" r="87.295" transform="rotate(165 467.239 264.358)" fill="white" stroke="#333333" stroke-width="3.94" stroke-linecap="round"/>
<mask id="path-24-inside-3_901_736" fill="white">
<path fill-rule="evenodd" clip-rule="evenodd" d="M517.711 263.953C517.775 257.802 512.841 252.763 506.69 252.699L478.146 252.399L478.444 224.052C478.51 217.694 473.411 212.486 467.053 212.42C460.696 212.353 455.488 217.453 455.421 223.81L455.123 252.157L426.581 251.858C420.43 251.793 415.392 256.727 415.327 262.878C415.263 269.029 420.196 274.067 426.347 274.132L454.889 274.432L454.592 302.778C454.525 309.136 459.625 314.344 465.982 314.41C472.34 314.477 477.548 309.377 477.614 303.02L477.912 274.673L506.457 274.973C512.607 275.038 517.646 270.104 517.711 263.953Z"/>
</mask>
<path fill-rule="evenodd" clip-rule="evenodd" d="M517.711 263.953C517.775 257.802 512.841 252.763 506.69 252.699L478.146 252.399L478.444 224.052C478.51 217.694 473.411 212.486 467.053 212.42C460.696 212.353 455.488 217.453 455.421 223.81L455.123 252.157L426.581 251.858C420.43 251.793 415.392 256.727 415.327 262.878C415.263 269.029 420.196 274.067 426.347 274.132L454.889 274.432L454.592 302.778C454.525 309.136 459.625 314.344 465.982 314.41C472.34 314.477 477.548 309.377 477.614 303.02L477.912 274.673L506.457 274.973C512.607 275.038 517.646 270.104 517.711 263.953Z" fill="#A4C954"/>
<path d="M506.69 252.699L506.732 248.759L506.69 252.699ZM478.146 252.399L474.206 252.358L474.165 256.298L478.105 256.339L478.146 252.399ZM455.123 252.157L455.082 256.097L459.022 256.139L459.063 252.199L455.123 252.157ZM426.581 251.858L426.54 255.797L426.581 251.858ZM454.889 274.432L458.829 274.473L458.87 270.533L454.931 270.492L454.889 274.432ZM454.592 302.778L450.652 302.737L454.592 302.778ZM477.912 274.673L477.953 270.734L474.014 270.692L473.972 274.632L477.912 274.673ZM506.457 274.973L506.498 271.033L506.457 274.973ZM506.649 256.639C510.624 256.68 513.813 259.937 513.771 263.912L521.65 263.994C521.738 255.668 515.059 248.847 506.732 248.759L506.649 256.639ZM478.105 256.339L506.649 256.639L506.732 248.759L478.187 248.459L478.105 256.339ZM474.504 224.011L474.206 252.358L482.086 252.441L482.383 224.093L474.504 224.011ZM467.012 216.359C471.193 216.403 474.548 219.829 474.504 224.011L482.383 224.093C482.473 215.56 475.628 208.57 467.094 208.48L467.012 216.359ZM459.361 223.852C459.405 219.67 462.83 216.316 467.012 216.359L467.094 208.48C458.561 208.39 451.571 215.235 451.481 223.769L459.361 223.852ZM459.063 252.199L459.361 223.852L451.481 223.769L451.183 252.116L459.063 252.199ZM426.54 255.797L455.082 256.097L455.165 248.218L426.622 247.918L426.54 255.797ZM419.267 262.919C419.309 258.944 422.565 255.756 426.54 255.797L426.622 247.918C418.296 247.83 411.475 254.51 411.387 262.836L419.267 262.919ZM426.389 270.192C422.414 270.15 419.225 266.894 419.267 262.919L411.387 262.836C411.3 271.163 417.979 277.984 426.306 278.072L426.389 270.192ZM454.931 270.492L426.389 270.192L426.306 278.072L454.848 278.371L454.931 270.492ZM458.531 302.82L458.829 274.473L450.95 274.39L450.652 302.737L458.531 302.82ZM466.023 310.471C461.842 310.427 458.488 307.001 458.531 302.82L450.652 302.737C450.562 311.27 457.407 318.261 465.941 318.35L466.023 310.471ZM473.675 302.979C473.631 307.16 470.205 310.514 466.023 310.471L465.941 318.35C474.474 318.44 481.464 311.595 481.554 303.061L473.675 302.979ZM473.972 274.632L473.675 302.979L481.554 303.061L481.852 274.715L473.972 274.632ZM506.498 271.033L477.953 270.734L477.871 278.613L506.415 278.913L506.498 271.033ZM513.771 263.912C513.729 267.887 510.473 271.075 506.498 271.033L506.415 278.913C514.742 279 521.563 272.321 521.65 263.994L513.771 263.912Z" fill="#333333" mask="url(#path-24-inside-3_901_736)"/>
<path d="M633.605 463.824L632.574 561.687C632.57 562.062 632.771 562.41 633.099 562.595L718.366 610.634C719.048 611.018 719.893 610.531 719.901 609.747L720.932 511.885C720.936 511.509 720.735 511.161 720.407 510.976L635.14 462.937C634.458 462.553 633.613 463.041 633.605 463.824Z" fill="#A4C954" stroke="#333333" stroke-width="3.94" stroke-linejoin="round"/>
<path d="M703.918 386.767L703.363 439.475C703.359 439.851 703.56 440.199 703.888 440.383L749.812 466.257C750.494 466.641 751.339 466.154 751.347 465.37L751.902 412.662C751.906 412.286 751.705 411.938 751.378 411.754L705.454 385.881C704.771 385.496 703.927 385.984 703.918 386.767Z" fill="white" stroke="#333333" stroke-width="3.94" stroke-linejoin="round"/>
<path d="M753.9 510.777L753.149 582.085C753.145 582.461 753.346 582.809 753.674 582.993L815.804 617.997C816.486 618.382 817.331 617.894 817.339 617.111L818.09 545.802C818.094 545.427 817.893 545.079 817.566 544.894L755.436 509.89C754.753 509.506 753.908 509.993 753.9 510.777Z" fill="#628026" stroke="#333333" stroke-width="3.94" stroke-linejoin="round"/>
<path d="M783.036 452.604L782.601 493.882C782.597 494.257 782.798 494.606 783.125 494.79L819.09 515.052C819.773 515.437 820.617 514.949 820.626 514.166L821.06 472.888C821.064 472.513 820.863 472.165 820.536 471.98L784.571 451.718C783.889 451.333 783.044 451.821 783.036 452.604Z" fill="white" stroke="#333333" stroke-width="3.94" stroke-linejoin="round"/>
<path d="M742.768 613.898L817.262 574.342L817.262 603.498L787.59 618.639L802.339 626.947L764.316 646.544L784.8 658.083L706.305 678.628L744.075 655.65L725.229 645.034L761.614 624.514L742.768 613.898Z" fill="#A4C954" stroke="#333333" stroke-width="3.94"/>
<path d="M712.826 403.875L710.486 398.399L621.871 414.436C642.803 456.074 692.589 474.143 735.354 455.624L750.424 449.099L750.708 415.526C737.195 424.194 719.133 418.639 712.826 403.875Z" fill="#A4C954" stroke="#333333" stroke-width="3.94"/>
<path d="M684.669 361.966L682.744 362.388L683.174 364.31L688.289 387.204C689.57 392.934 695.257 396.559 700.991 395.301C706.726 394.042 710.337 388.378 709.057 382.648L706.13 369.55C704.684 363.078 698.261 358.984 691.784 360.405L684.669 361.966Z" fill="white" stroke="#333333" stroke-width="3.94"/>
<path d="M613.567 341.067L625.761 396.983C627.057 402.925 623.297 408.82 617.363 410.151C611.43 411.482 605.569 407.745 604.273 401.803L586.983 322.524C599.227 320.805 610.885 328.769 613.567 341.067Z" fill="white" stroke="#333333" stroke-width="3.94"/>
<path d="M708.118 378.047L707.701 376.122L705.776 376.539L605.443 398.267L603.518 398.684L603.935 400.61L604.682 404.061C610.913 432.831 639.286 451.102 668.055 444.872C696.825 438.641 715.096 410.268 708.866 381.499L708.118 378.047Z" fill="white" stroke="#333333" stroke-width="3.94"/>
<path d="M639.452 358.231L646.89 392.456C648.182 398.399 644.419 404.297 638.486 405.63C632.552 406.963 626.696 403.226 625.404 397.284L617.965 363.058C616.674 357.116 620.436 351.218 626.37 349.885C632.303 348.552 638.16 352.288 639.452 358.231Z" fill="white" stroke="#333333" stroke-width="3.94"/>
<path d="M660.639 354.332L667.959 387.996C669.251 393.939 665.489 399.837 659.555 401.171C653.622 402.505 647.765 398.769 646.473 392.827L639.153 359.162C637.861 353.219 641.623 347.321 647.557 345.987C653.49 344.653 659.347 348.389 660.639 354.332Z" fill="white" stroke="#333333" stroke-width="3.94"/>
<path d="M676.754 327.408L688.995 383.537C690.291 389.478 686.531 395.374 680.597 396.705C674.664 398.036 668.803 394.298 667.507 388.356L650.171 308.865C662.415 307.146 674.072 315.11 676.754 327.408Z" fill="white" stroke="#333333" stroke-width="3.94"/>
<path d="M664.135 318.017L664.312 318.828C664.984 321.909 663.034 324.967 659.957 325.657C656.88 326.347 653.84 324.409 653.169 321.328L650.512 309.149C656.711 307.877 662.781 311.808 664.135 318.017Z" fill="#A4C954" stroke="#333333" stroke-width="3.94"/>
<path d="M601.589 331.704L601.766 332.515C602.438 335.596 600.488 338.653 597.411 339.344C594.333 340.034 591.294 338.096 590.622 335.014L587.966 322.835C594.164 321.564 600.235 325.495 601.589 331.704Z" fill="#A4C954" stroke="#333333" stroke-width="3.94"/>
<path d="M682.691 377.43L704.926 372.614L707.425 384.155C709.53 393.871 703.359 403.453 693.643 405.557L689 406.563L682.691 377.43Z" fill="white"/>
<path d="M604.594 394.344L687.811 376.322L694.121 405.456L627.518 419.88C618.342 421.867 609.292 416.039 607.305 406.863L604.594 394.344Z" fill="white"/>
<path d="M498.492 640.338L720.254 515.739L718.946 610.764L631.898 654.555L675.779 679.319L562.553 737.562L623.498 771.957L389.803 832.926L502.282 764.619L446.211 732.975L554.563 671.982L498.492 640.338Z" fill="#C0A3FF" stroke="#333333" stroke-width="3.94"/>
<circle cx="827.669" cy="249.53" r="1.97" fill="#333333" stroke="#333333" stroke-width="2.98639"/>
</svg>
