<svg width="1080" height="1080" viewBox="0 0 1080 1080" fill="none" xmlns="http://www.w3.org/2000/svg">
<rect width="1080" height="1080" fill="#333333"/>
<circle r="54.8848" transform="matrix(1 -8.74228e-08 -8.74228e-08 -1 317.283 649.302)" fill="#A4C954" stroke="#333333" stroke-width="3.94"/>
<circle r="22.047" transform="matrix(1 -8.74228e-08 -8.74228e-08 -1 781.877 469.973)" fill="#628026" stroke="#333333" stroke-width="3.94"/>
<circle cx="723.755" cy="822.711" r="8.13503" transform="rotate(-140.278 723.755 822.711)" stroke="white" stroke-width="3.94"/>
<circle cx="716.564" cy="794.864" r="2.2842" transform="rotate(-140.278 716.564 794.864)" fill="#333333" stroke="white" stroke-width="3.94"/>
<path d="M862.569 342.144L812.535 368.443" stroke="white" stroke-width="3.94"/>
<path d="M824.744 788.873L787.044 746.758" stroke="white" stroke-width="3.94"/>
<path d="M336.746 347.993L293.4 311.715" stroke="white" stroke-width="3.94"/>
<path d="M277.887 504.402L259.851 484.008C259.602 483.726 259.219 483.603 258.853 483.685L232.293 489.669C231.529 489.841 231.229 490.769 231.748 491.356L249.784 511.75C250.033 512.032 250.415 512.155 250.782 512.073L277.342 506.089C278.106 505.917 278.406 504.989 277.887 504.402Z" stroke="white" stroke-width="3.94" stroke-linejoin="round"/>
<path d="M883.307 602.87L846.955 561.765C846.706 561.484 846.324 561.36 845.957 561.443L792.426 573.503C791.661 573.675 791.362 574.603 791.88 575.19L828.233 616.294C828.482 616.575 828.864 616.699 829.231 616.616L882.762 604.557C883.526 604.385 883.826 603.456 883.307 602.87Z" stroke="white" stroke-width="3.94" stroke-linejoin="round"/>
<path d="M235.662 817.841L257.175 824.491C257.534 824.602 257.925 824.509 258.195 824.248L274.384 808.598C274.948 808.054 274.721 807.105 273.973 806.874L252.46 800.224C252.101 800.113 251.71 800.206 251.44 800.467L235.251 816.116C234.688 816.661 234.914 817.61 235.662 817.841Z" stroke="white" stroke-width="3.94" stroke-linejoin="round"/>
<circle cx="426.798" cy="273.856" r="26.8018" transform="rotate(-180 426.798 273.856)" stroke="white" stroke-width="3.94"/>
<circle cx="464.956" cy="317.73" r="10.7337" transform="rotate(-180 464.956 317.73)" stroke="white" stroke-width="3.94"/>
<circle cx="837.552" cy="287.759" r="2.2842" fill="#333333" stroke="white" stroke-width="3.94"/>
<path d="M410.603 738.204L528.105 652.184L535.318 702.003L488.364 735.215L515.621 745.762L455.498 788.655L493.355 803.303L364.313 857.829L423.166 809.222L388.337 795.745L445.432 751.681L410.603 738.204Z" fill="#66B1E8" stroke="#333333" stroke-width="3.94"/>
<path fill-rule="evenodd" clip-rule="evenodd" d="M716.273 550.22C705.512 541.059 689.361 542.356 680.2 553.117L605.992 640.289L605.525 639.892L679.52 552.971C668.759 543.81 652.608 545.107 643.447 555.869L585.004 624.522C581.71 627.711 577.041 629.261 569.888 624.885C568.07 617.501 564.663 609.746 559.477 601.742L540.646 599.051C538.557 598.753 536.577 600.12 536.087 602.172C534.713 607.92 531.608 620.5 525.653 643.821C525.593 644.056 525.528 644.303 525.461 644.564C523.308 652.825 517.849 673.778 549.645 700.845C597.711 741.763 615.347 749.197 664.278 692.129L664.283 692.134L707.315 641.585C696.553 632.424 680.403 633.721 671.242 644.483L645.894 674.258L645.428 673.861L718.783 587.692C708.021 578.531 691.871 579.829 682.71 590.59L625.943 657.274L625.477 656.877L716.273 550.22Z" fill="white"/>
<path d="M680.2 553.117L681.7 554.394L681.7 554.394L680.2 553.117ZM716.273 550.22L717.55 548.72L719.05 549.997L717.773 551.497L716.273 550.22ZM605.992 640.289L607.492 641.566L606.215 643.066L604.715 641.789L605.992 640.289ZM605.525 639.892L604.248 641.392L602.748 640.115L604.025 638.615L605.525 639.892ZM679.52 552.971L680.797 551.471L682.297 552.748L681.02 554.248L679.52 552.971ZM643.447 555.869L644.947 557.146L644.947 557.146L643.447 555.869ZM585.004 624.522L586.504 625.799L586.442 625.871L586.374 625.937L585.004 624.522ZM569.888 624.885L568.86 626.565L568.169 626.142L567.975 625.356L569.888 624.885ZM559.477 601.742L559.756 599.792L560.643 599.919L561.131 600.671L559.477 601.742ZM540.646 599.051L540.367 601.002L540.367 601.002L540.646 599.051ZM536.087 602.172L538.003 602.63L538.003 602.63L536.087 602.172ZM525.653 643.821L523.744 643.333L523.744 643.333L525.653 643.821ZM525.461 644.564L523.554 644.067L523.554 644.067L525.461 644.564ZM664.278 692.129L662.783 690.847L664.061 689.357L665.555 690.629L664.278 692.129ZM664.283 692.134L665.783 693.411L664.506 694.911L663.006 693.634L664.283 692.134ZM707.315 641.585L708.592 640.085L710.092 641.362L708.815 642.862L707.315 641.585ZM645.894 674.258L647.394 675.535L646.118 677.035L644.617 675.758L645.894 674.258ZM645.428 673.861L644.151 675.361L642.651 674.084L643.928 672.584L645.428 673.861ZM718.783 587.692L720.06 586.192L721.56 587.469L720.283 588.969L718.783 587.692ZM682.71 590.59L684.21 591.867L684.21 591.867L682.71 590.59ZM625.943 657.274L627.443 658.551L626.166 660.051L624.666 658.774L625.943 657.274ZM625.477 656.877L624.2 658.377L622.7 657.1L623.977 655.6L625.477 656.877ZM678.7 551.84C688.566 540.25 705.96 538.853 717.55 548.72L714.996 551.72C705.063 543.264 690.156 544.461 681.7 554.394L678.7 551.84ZM604.492 639.012L678.7 551.84L681.7 554.394L607.492 641.566L604.492 639.012ZM604.715 641.789L604.248 641.392L606.802 638.392L607.269 638.789L604.715 641.789ZM681.02 554.248L607.025 641.169L604.025 638.615L678.02 551.694L681.02 554.248ZM641.947 554.592C651.813 543.002 669.207 541.604 680.797 551.471L678.243 554.471C668.31 546.015 653.403 547.212 644.947 557.146L641.947 554.592ZM583.504 623.245L641.947 554.592L644.947 557.146L586.504 625.799L583.504 623.245ZM586.374 625.937C584.504 627.748 582.118 629.208 579.082 629.501C576.062 629.793 572.68 628.903 568.86 626.565L570.916 623.204C574.249 625.243 576.778 625.766 578.703 625.58C580.614 625.395 582.209 624.485 583.633 623.106L586.374 625.937ZM567.975 625.356C566.217 618.216 562.909 610.662 557.824 602.813L561.131 600.671C566.417 608.831 569.923 616.786 571.801 624.414L567.975 625.356ZM559.199 603.692L540.367 601.002L540.925 597.101L559.756 599.792L559.199 603.692ZM540.367 601.002C539.301 600.849 538.26 601.552 538.003 602.63L534.171 601.714C534.894 598.687 537.814 596.657 540.925 597.101L540.367 601.002ZM538.003 602.63C536.626 608.393 533.518 620.985 527.562 644.308L523.744 643.333C529.699 620.016 532.801 607.447 534.171 601.714L538.003 602.63ZM527.562 644.308C527.5 644.548 527.435 644.801 527.367 645.06L523.554 644.067C523.622 643.806 523.686 643.563 523.744 643.333L527.562 644.308ZM527.367 645.06C526.309 649.122 524.516 656.028 526.737 665.188C528.958 674.349 535.262 686.014 550.922 699.345L548.368 702.345C532.232 688.609 525.368 676.265 522.908 666.116C520.447 655.968 522.46 648.267 523.554 644.067L527.367 645.06ZM550.922 699.345C562.94 709.576 572.947 717.618 581.974 723.086C590.986 728.546 598.859 731.337 606.618 731.262C614.355 731.187 622.261 728.257 631.332 721.722C640.427 715.171 650.584 705.075 662.783 690.847L665.774 693.412C653.507 707.718 643.11 718.093 633.635 724.919C624.135 731.762 615.453 735.117 606.656 735.202C597.881 735.287 589.274 732.115 579.932 726.456C570.605 720.805 560.383 712.574 548.368 702.345L550.922 699.345ZM665.555 690.629L665.56 690.634L663.006 693.634L663.001 693.629L665.555 690.629ZM662.783 690.857L705.815 640.308L708.815 642.862L665.783 693.411L662.783 690.857ZM706.038 643.085C696.105 634.629 681.198 635.827 672.742 645.76L669.742 643.206C679.608 631.616 697.002 630.218 708.592 640.085L706.038 643.085ZM672.742 645.76L647.394 675.535L644.394 672.981L669.742 643.206L672.742 645.76ZM644.617 675.758L644.151 675.361L646.705 672.361L647.171 672.758L644.617 675.758ZM720.283 588.969L646.929 675.138L643.928 672.584L717.283 586.415L720.283 588.969ZM681.21 589.313C691.076 577.723 708.47 576.326 720.06 586.192L717.506 589.192C707.573 580.737 692.666 581.934 684.21 591.867L681.21 589.313ZM624.443 655.997L681.21 589.313L684.21 591.867L627.443 658.551L624.443 655.997ZM624.666 658.774L624.2 658.377L626.754 655.377L627.22 655.774L624.666 658.774ZM717.773 551.497L626.977 658.154L623.977 655.6L714.773 548.943L717.773 551.497Z" fill="#333333"/>
<path d="M562.588 606.32C566.966 614.793 569.597 622.843 570.684 630.37C573.123 647.261 567.782 661.513 556.935 671.979" stroke="#333333" stroke-width="3.94"/>
<line y1="-1.97" x2="67.5269" y2="-1.97" transform="matrix(0.761456 0.648217 0.648217 -0.761456 586.187 622.734)" stroke="#333333" stroke-width="3.94"/>
<path fill-rule="evenodd" clip-rule="evenodd" d="M363.58 446.724C374.342 437.562 390.492 438.86 399.654 449.621L473.862 536.793L474.328 536.396L400.333 449.475C411.095 440.314 427.245 441.611 436.406 452.372L494.85 521.026C498.144 524.215 502.813 525.765 509.965 521.388C511.784 514.005 515.19 506.25 520.376 498.246L539.207 495.555C541.296 495.257 543.276 496.624 543.767 498.676C545.14 504.424 548.245 517.004 554.201 540.325C554.261 540.559 554.325 540.807 554.393 541.068C556.545 549.329 562.005 570.282 530.209 597.349C482.143 638.267 464.506 645.701 415.575 588.633L415.57 588.638L372.539 538.089C383.3 528.928 399.451 530.225 408.612 540.987L433.959 570.762L434.425 570.365L361.071 484.196C371.832 475.035 387.983 476.333 397.144 487.094L453.911 553.777L454.376 553.381L363.58 446.724Z" fill="white"/>
<path d="M399.654 449.621L398.153 450.898L398.153 450.898L399.654 449.621ZM363.58 446.724L362.303 445.224L360.803 446.501L362.08 448.001L363.58 446.724ZM473.862 536.793L472.362 538.07L473.639 539.57L475.139 538.293L473.862 536.793ZM474.328 536.396L475.605 537.896L477.105 536.619L475.828 535.119L474.328 536.396ZM400.333 449.475L399.056 447.975L397.556 449.252L398.833 450.752L400.333 449.475ZM436.406 452.372L434.906 453.649L434.906 453.649L436.406 452.372ZM494.85 521.026L493.35 522.303L493.411 522.375L493.48 522.441L494.85 521.026ZM509.965 521.388L510.993 523.069L511.684 522.646L511.878 521.859L509.965 521.388ZM520.376 498.246L520.097 496.296L519.21 496.423L518.723 497.175L520.376 498.246ZM539.207 495.555L539.486 497.505L539.486 497.505L539.207 495.555ZM543.767 498.676L545.683 498.218L545.683 498.218L543.767 498.676ZM554.201 540.325L556.109 539.837L556.109 539.837L554.201 540.325ZM554.393 541.068L556.299 540.571L556.299 540.571L554.393 541.068ZM415.575 588.633L417.071 587.351L415.793 585.861L414.298 587.133L415.575 588.633ZM415.57 588.638L414.07 589.915L415.347 591.415L416.847 590.138L415.57 588.638ZM372.539 538.089L371.262 536.589L369.762 537.866L371.039 539.366L372.539 538.089ZM433.959 570.762L432.459 572.039L433.736 573.539L435.236 572.262L433.959 570.762ZM434.425 570.365L435.702 571.865L437.202 570.588L435.925 569.088L434.425 570.365ZM361.071 484.196L359.794 482.696L358.294 483.973L359.571 485.473L361.071 484.196ZM397.144 487.094L395.644 488.371L395.644 488.371L397.144 487.094ZM453.911 553.777L452.41 555.054L453.687 556.555L455.188 555.277L453.911 553.777ZM454.376 553.381L455.653 554.881L457.153 553.604L455.876 552.104L454.376 553.381ZM401.154 448.344C391.287 436.754 373.893 435.357 362.303 445.224L364.857 448.224C374.79 439.768 389.698 440.965 398.153 450.898L401.154 448.344ZM475.362 535.516L401.154 448.344L398.153 450.898L472.362 538.07L475.362 535.516ZM475.139 538.293L475.605 537.896L473.051 534.896L472.585 535.293L475.139 538.293ZM398.833 450.752L472.828 537.673L475.828 535.119L401.833 448.198L398.833 450.752ZM437.906 451.095C428.04 439.505 410.646 438.108 399.056 447.975L401.61 450.975C411.543 442.519 426.45 443.716 434.906 453.649L437.906 451.095ZM496.35 519.749L437.906 451.095L434.906 453.649L493.35 522.303L496.35 519.749ZM493.48 522.441C495.349 524.252 497.736 525.712 500.771 526.005C503.792 526.297 507.173 525.406 510.993 523.069L508.937 519.708C505.605 521.747 503.076 522.27 501.15 522.083C499.24 521.899 497.644 520.989 496.22 519.61L493.48 522.441ZM511.878 521.859C513.636 514.72 516.944 507.166 522.029 499.317L518.723 497.175C513.436 505.335 509.931 513.29 508.052 520.917L511.878 521.859ZM520.655 500.196L539.486 497.505L538.929 493.605L520.097 496.296L520.655 500.196ZM539.486 497.505C540.553 497.353 541.593 498.056 541.851 499.133L545.683 498.218C544.959 495.191 542.039 493.161 538.929 493.605L539.486 497.505ZM541.851 499.133C543.228 504.897 546.336 517.489 552.292 540.812L556.109 539.837C550.155 516.52 547.053 503.951 545.683 498.218L541.851 499.133ZM552.292 540.812C552.353 541.052 552.419 541.305 552.487 541.564L556.299 540.571C556.231 540.31 556.168 540.067 556.109 539.837L552.292 540.812ZM552.487 541.564C553.545 545.625 555.338 552.532 553.117 561.692C550.896 570.853 544.592 582.518 528.932 595.849L531.486 598.849C547.622 585.113 554.486 572.768 556.946 562.62C559.406 552.472 557.394 544.771 556.299 540.571L552.487 541.564ZM528.932 595.849C516.914 606.08 506.907 614.122 497.88 619.59C488.867 625.049 480.994 627.841 473.236 627.766C465.498 627.691 457.593 624.761 448.522 618.226C439.426 611.674 429.27 601.579 417.071 587.351L414.08 589.916C426.346 604.222 436.743 614.597 446.219 621.423C455.718 628.266 464.401 631.621 473.197 631.706C481.972 631.791 490.579 628.619 499.921 622.96C509.249 617.309 519.471 609.078 531.486 598.849L528.932 595.849ZM414.298 587.133L414.293 587.138L416.847 590.138L416.852 590.133L414.298 587.133ZM417.07 587.361L374.039 536.812L371.039 539.366L414.07 589.915L417.07 587.361ZM373.816 539.589C383.749 531.133 398.656 532.33 407.112 542.263L410.112 539.71C400.245 528.12 382.852 526.722 371.262 536.589L373.816 539.589ZM407.112 542.263L432.459 572.039L435.459 569.485L410.112 539.71L407.112 542.263ZM435.236 572.262L435.702 571.865L433.148 568.865L432.682 569.262L435.236 572.262ZM359.571 485.473L432.925 571.642L435.925 569.088L362.571 482.919L359.571 485.473ZM398.644 485.817C388.778 474.227 371.384 472.83 359.794 482.696L362.348 485.696C372.281 477.24 387.188 478.438 395.644 488.371L398.644 485.817ZM455.411 552.5L398.644 485.817L395.644 488.371L452.41 555.054L455.411 552.5ZM455.188 555.277L455.653 554.881L453.099 551.881L452.633 552.277L455.188 555.277ZM362.08 448.001L452.876 554.658L455.876 552.104L365.08 445.447L362.08 448.001Z" fill="#333333"/>
<path d="M517.265 502.823C512.888 511.297 510.256 519.347 509.169 526.874C506.73 543.765 512.071 558.017 522.918 568.483" stroke="#333333" stroke-width="3.94"/>
<line x1="494.944" y1="520.738" x2="443.525" y2="564.51" stroke="#333333" stroke-width="3.94"/>
<path d="M712.135 446.453L511.6 629.316L488.282 538.448L568.648 467.527L516.036 453.43L618.868 361.941L545.797 342.362L774.006 215.548L674.669 317.371L741.896 335.385L644.908 428.439L712.135 446.453Z" fill="#66B1E8" stroke="#333333" stroke-width="3.94"/>
<mask id="path-24-outside-1_901_929" maskUnits="userSpaceOnUse" x="450.333" y="423.327" width="190" height="332" fill="black">
<rect fill="white" x="450.333" y="423.327" width="190" height="332"/>
<path fill-rule="evenodd" clip-rule="evenodd" d="M545.495 427.328L623.277 427.328C630.486 427.328 636.331 433.173 636.331 440.383L636.331 737.663C636.331 744.873 630.486 750.717 623.277 750.717L467.388 750.717C460.178 750.717 454.333 744.873 454.333 737.663L454.333 440.383C454.333 433.173 460.178 427.328 467.388 427.328L545.164 427.328C545.219 427.328 545.274 427.327 545.329 427.327C545.385 427.327 545.44 427.328 545.495 427.328Z"/>
</mask>
<path fill-rule="evenodd" clip-rule="evenodd" d="M545.495 427.328L623.277 427.328C630.486 427.328 636.331 433.173 636.331 440.383L636.331 737.663C636.331 744.873 630.486 750.717 623.277 750.717L467.388 750.717C460.178 750.717 454.333 744.873 454.333 737.663L454.333 440.383C454.333 433.173 460.178 427.328 467.388 427.328L545.164 427.328C545.219 427.328 545.274 427.327 545.329 427.327C545.385 427.327 545.44 427.328 545.495 427.328Z" fill="#333333"/>
<path d="M545.495 427.328L545.433 431.268L545.464 431.268L545.495 431.268L545.495 427.328ZM636.331 440.383L640.271 440.383L636.331 440.383ZM636.331 737.663L632.391 737.663L636.331 737.663ZM454.333 440.383L450.393 440.383L454.333 440.383ZM545.164 427.328L545.164 431.268L545.194 431.268L545.225 431.268L545.164 427.328ZM545.495 431.268L623.277 431.268L623.277 423.388L545.495 423.388L545.495 431.268ZM623.277 431.268C628.31 431.268 632.391 435.349 632.391 440.383L640.271 440.383C640.271 430.997 632.662 423.388 623.277 423.388L623.277 431.268ZM632.391 440.383L632.391 737.663L640.271 737.663L640.271 440.383L632.391 440.383ZM632.391 737.663C632.391 742.697 628.31 746.777 623.277 746.777L623.277 754.657C632.662 754.657 640.271 747.049 640.271 737.663L632.391 737.663ZM623.277 746.777L467.388 746.777L467.388 754.657L623.277 754.657L623.277 746.777ZM467.388 746.777C462.354 746.777 458.273 742.697 458.273 737.663L450.393 737.663C450.393 747.049 458.002 754.657 467.388 754.657L467.388 746.777ZM458.273 737.663L458.273 440.383L450.393 440.383L450.393 737.663L458.273 737.663ZM458.273 440.383C458.273 435.349 462.354 431.268 467.388 431.268L467.388 423.388C458.002 423.388 450.393 430.997 450.393 440.383L458.273 440.383ZM467.388 431.268L545.164 431.268L545.164 423.388L467.388 423.388L467.388 431.268ZM545.225 431.268C545.26 431.267 545.294 431.267 545.329 431.267L545.329 423.387C545.253 423.387 545.178 423.388 545.102 423.389L545.225 431.268ZM545.329 431.267C545.364 431.267 545.399 431.267 545.433 431.268L545.557 423.389C545.481 423.388 545.405 423.387 545.329 423.387L545.329 431.267Z" fill="#333333" mask="url(#path-24-outside-1_901_929)"/>
<mask id="path-26-outside-2_901_929" maskUnits="userSpaceOnUse" x="444.523" y="416.267" width="190" height="332" fill="black">
<rect fill="white" x="444.523" y="416.267" width="190" height="332"/>
<path fill-rule="evenodd" clip-rule="evenodd" d="M539.707 420.268L617.467 420.268C624.676 420.268 630.521 426.113 630.521 433.323L630.521 730.603C630.521 737.812 624.676 743.657 617.467 743.657L461.578 743.657C454.368 743.657 448.523 737.812 448.523 730.603L448.523 433.323C448.523 426.113 454.368 420.268 461.578 420.268L539.332 420.268C539.394 420.267 539.457 420.267 539.519 420.267C539.582 420.267 539.644 420.267 539.707 420.268Z"/>
</mask>
<path fill-rule="evenodd" clip-rule="evenodd" d="M539.707 420.268L617.467 420.268C624.676 420.268 630.521 426.113 630.521 433.323L630.521 730.603C630.521 737.812 624.676 743.657 617.467 743.657L461.578 743.657C454.368 743.657 448.523 737.812 448.523 730.603L448.523 433.323C448.523 426.113 454.368 420.268 461.578 420.268L539.332 420.268C539.394 420.267 539.457 420.267 539.519 420.267C539.582 420.267 539.644 420.267 539.707 420.268Z" fill="white"/>
<path d="M539.707 420.268L539.637 424.208L539.672 424.208L539.707 424.208L539.707 420.268ZM630.521 433.323L626.581 433.323L630.521 433.323ZM630.521 730.603L634.461 730.603L630.521 730.603ZM617.467 743.657L617.467 739.717L617.467 743.657ZM461.578 743.657L461.578 747.597L461.578 743.657ZM448.523 730.603L452.463 730.603L448.523 730.603ZM448.523 433.323L444.583 433.323L448.523 433.323ZM461.578 420.268L461.578 416.328L461.578 420.268ZM539.332 420.268L539.332 424.208L539.367 424.208L539.402 424.208L539.332 420.268ZM539.707 424.208L617.467 424.208L617.467 416.328L539.707 416.328L539.707 424.208ZM617.467 424.208C622.5 424.208 626.581 428.289 626.581 433.323L634.461 433.323C634.461 423.937 626.852 416.328 617.467 416.328L617.467 424.208ZM626.581 433.323L626.581 730.603L634.461 730.603L634.461 433.323L626.581 433.323ZM626.581 730.603C626.581 735.636 622.5 739.717 617.467 739.717L617.467 747.597C626.852 747.597 634.461 739.988 634.461 730.603L626.581 730.603ZM617.467 739.717L461.578 739.717L461.578 747.597L617.467 747.597L617.467 739.717ZM461.578 739.717C456.544 739.717 452.463 735.636 452.463 730.603L444.583 730.603C444.583 739.988 452.192 747.597 461.578 747.597L461.578 739.717ZM452.463 730.603L452.463 433.323L444.583 433.323L444.583 730.603L452.463 730.603ZM452.463 433.323C452.463 428.289 456.544 424.208 461.578 424.208L461.578 416.328C452.192 416.328 444.583 423.937 444.583 433.323L452.463 433.323ZM461.578 424.208L539.332 424.208L539.332 416.328L461.578 416.328L461.578 424.208ZM539.402 424.208C539.441 424.207 539.48 424.207 539.519 424.207L539.519 416.327C539.434 416.327 539.348 416.327 539.262 416.329L539.402 424.208ZM539.519 424.207C539.559 424.207 539.598 424.207 539.637 424.208L539.776 416.329C539.691 416.327 539.605 416.327 539.519 416.327L539.519 424.207Z" fill="#333333" mask="url(#path-26-outside-2_901_929)"/>
<circle cx="474.178" cy="445.956" r="10.0872" fill="#333333"/>
<rect x="455.27" y="478.024" width="168.526" height="237.63" rx="9" fill="#333333"/>
<circle cx="540.727" cy="592.447" r="59.8991" fill="white" stroke="#333333" stroke-width="3.94"/>
<mask id="path-31-outside-3_901_929" maskUnits="userSpaceOnUse" x="506.35" y="552.083" width="70.0928" height="69.9091" fill="black">
<rect fill="white" x="506.35" y="552.083" width="70.0928" height="69.9091"/>
<path fill-rule="evenodd" clip-rule="evenodd" d="M528.978 609.353C528.945 609.321 528.912 609.287 528.879 609.254L528.88 609.253L515.346 595.483C513.502 593.607 513.528 590.591 515.405 588.746C517.281 586.902 520.297 586.928 522.142 588.805L535.675 602.575L560.173 578.498C562.049 576.653 565.065 576.68 566.91 578.556C568.754 580.432 568.728 583.449 566.851 585.293L542.353 609.371C542.315 609.408 542.276 609.446 542.237 609.483L537.913 613.732C536.612 615.011 534.521 614.993 533.242 613.692L528.978 609.353Z"/>
</mask>
<path fill-rule="evenodd" clip-rule="evenodd" d="M528.978 609.353C528.945 609.321 528.912 609.287 528.879 609.254L528.88 609.253L515.346 595.483C513.502 593.607 513.528 590.591 515.405 588.746C517.281 586.902 520.297 586.928 522.142 588.805L535.675 602.575L560.173 578.498C562.049 576.653 565.065 576.68 566.91 578.556C568.754 580.432 568.728 583.449 566.851 585.293L542.353 609.371C542.315 609.408 542.276 609.446 542.237 609.483L537.913 613.732C536.612 615.011 534.521 614.993 533.242 613.692L528.978 609.353Z" fill="#A4C954"/>
<path d="M528.879 609.254L526.069 612.016L523.307 609.206L526.117 606.444L528.879 609.254ZM528.978 609.353L531.748 606.551L531.768 606.571L531.788 606.592L528.978 609.353ZM528.88 609.253L531.69 606.491L534.452 609.301L531.642 612.063L528.88 609.253ZM515.346 595.483L512.536 598.245L515.346 595.483ZM522.142 588.805L519.332 591.566L522.142 588.805ZM535.675 602.575L538.437 605.385L535.627 608.146L532.865 605.336L535.675 602.575ZM560.173 578.498L562.935 581.308L562.935 581.308L560.173 578.498ZM566.851 585.293L564.09 582.483L564.09 582.483L566.851 585.293ZM542.353 609.371L545.115 612.181L545.115 612.181L542.353 609.371ZM542.237 609.483L539.475 606.673L539.498 606.65L539.522 606.627L542.237 609.483ZM537.913 613.732L535.151 610.922L537.913 613.732ZM533.242 613.692L536.052 610.93L533.242 613.692ZM531.689 606.492C531.709 606.512 531.728 606.532 531.748 606.551L526.209 612.156C526.162 612.109 526.115 612.063 526.069 612.016L531.689 606.492ZM531.642 612.063L531.641 612.064L526.117 606.444L526.118 606.443L531.642 612.063ZM518.156 592.721L531.69 606.491L526.07 612.015L512.536 598.245L518.156 592.721ZM518.166 591.556C517.842 591.875 517.837 592.397 518.156 592.721L512.536 598.245C509.167 594.817 509.215 589.306 512.643 585.936L518.166 591.556ZM519.332 591.566C519.013 591.242 518.491 591.237 518.166 591.556L512.643 585.936C516.071 582.567 521.582 582.614 524.952 586.043L519.332 591.566ZM532.865 605.336L519.332 591.566L524.952 586.043L538.485 599.813L532.865 605.336ZM562.935 581.308L538.437 605.385L532.913 599.765L557.411 575.688L562.935 581.308ZM564.1 581.318C563.781 580.993 563.259 580.989 562.935 581.308L557.411 575.688C560.839 572.318 566.35 572.366 569.72 575.794L564.1 581.318ZM564.09 582.483C564.414 582.164 564.419 581.642 564.1 581.318L569.72 575.794C573.089 579.223 573.042 584.733 569.613 588.103L564.09 582.483ZM539.591 606.561L564.09 582.483L569.613 588.103L545.115 612.181L539.591 606.561ZM539.522 606.627C539.545 606.605 539.568 606.583 539.591 606.561L545.115 612.181C545.061 612.234 545.006 612.286 544.952 612.338L539.522 606.627ZM535.151 610.922L539.475 606.673L544.999 612.293L540.675 616.542L535.151 610.922ZM536.052 610.93C535.806 610.679 535.402 610.676 535.151 610.922L540.675 616.542C537.822 619.346 533.236 619.307 530.432 616.454L536.052 610.93ZM531.788 606.592L536.052 610.93L530.432 616.454L526.168 612.115L531.788 606.592Z" fill="#333333" mask="url(#path-31-outside-3_901_929)"/>
<line x1="520.172" y1="437.919" x2="561.281" y2="437.919" stroke="#333333" stroke-width="3.94"/>
</svg>
