<svg width="1080" height="1080" viewBox="0 0 1080 1080" fill="none" xmlns="http://www.w3.org/2000/svg">
<rect width="1080" height="1080" fill="white"/>
<circle r="54.8848" transform="matrix(1 -8.74228e-08 -8.74228e-08 -1 317.688 648.884)" fill="#A4C954" stroke="#333333" stroke-width="3.94"/>
<circle r="22.047" transform="matrix(1 -8.74228e-08 -8.74228e-08 -1 782.282 469.556)" fill="#628026" stroke="#333333" stroke-width="3.94"/>
<circle cx="724.16" cy="822.294" r="8.13503" transform="rotate(-140.278 724.16 822.294)" fill="white" stroke="#333333" stroke-width="3.94"/>
<circle cx="716.97" cy="794.447" r="2.2842" transform="rotate(-140.278 716.97 794.447)" fill="#333333" stroke="#333333" stroke-width="3.94"/>
<path d="M862.974 341.726L812.941 368.025" stroke="#333333" stroke-width="3.94"/>
<path d="M825.149 788.456L787.449 746.341" stroke="#333333" stroke-width="3.94"/>
<path d="M337.151 347.575L293.806 311.297" stroke="#333333" stroke-width="3.94"/>
<path d="M278.292 503.984L260.256 483.59C260.007 483.308 259.624 483.185 259.258 483.267L232.697 489.251C231.933 489.423 231.633 490.351 232.152 490.938L250.189 511.332C250.438 511.614 250.82 511.737 251.187 511.655L277.747 505.671C278.511 505.499 278.811 504.571 278.292 503.984Z" fill="white" stroke="#333333" stroke-width="3.94" stroke-linejoin="round"/>
<path d="M883.712 602.452L847.36 561.348C847.111 561.067 846.728 560.943 846.362 561.026L792.83 573.085C792.066 573.257 791.766 574.186 792.285 574.773L828.638 615.877C828.886 616.158 829.269 616.282 829.635 616.199L883.167 604.14C883.931 603.967 884.231 603.039 883.712 602.452Z" fill="white" stroke="#333333" stroke-width="3.94" stroke-linejoin="round"/>
<path d="M236.067 817.424L257.58 824.074C257.939 824.185 258.329 824.092 258.6 823.831L274.789 808.181C275.352 807.637 275.126 806.688 274.378 806.456L252.865 799.806C252.506 799.695 252.115 799.789 251.845 800.05L235.656 815.699C235.092 816.244 235.319 817.192 236.067 817.424Z" fill="white" stroke="#333333" stroke-width="3.94" stroke-linejoin="round"/>
<circle cx="427.203" cy="273.439" r="26.8018" transform="rotate(-180 427.203 273.439)" fill="white" stroke="#333333" stroke-width="3.94"/>
<circle cx="465.36" cy="317.312" r="10.7337" transform="rotate(-180 465.36 317.312)" stroke="#333333" stroke-width="3.94"/>
<circle cx="837.957" cy="287.341" r="2.2842" fill="#333333" stroke="#333333" stroke-width="3.94"/>
<path d="M411.009 737.786L528.51 651.767L535.724 701.585L488.77 734.797L516.026 745.344L455.904 788.237L493.76 802.886L364.719 857.412L423.571 808.804L388.743 795.327L445.837 751.263L411.009 737.786Z" fill="#66B1E8" stroke="#333333" stroke-width="3.94"/>
<path fill-rule="evenodd" clip-rule="evenodd" d="M716.016 541.716C705.254 532.555 689.104 533.852 679.943 544.614L605.734 631.785L605.268 631.388L679.263 544.467C668.501 535.306 652.351 536.603 643.19 547.365L584.746 616.018C581.452 619.207 576.783 620.757 569.631 616.381C567.813 608.997 564.406 601.242 559.22 593.238L540.389 590.547C538.3 590.249 536.32 591.616 535.83 593.668C534.456 599.416 531.351 611.997 525.396 635.317C525.336 635.552 525.271 635.799 525.203 636.06C523.051 644.321 517.592 665.274 549.387 692.342C597.453 733.259 615.09 740.693 664.021 683.625L664.026 683.63L707.058 633.081C696.296 623.92 680.146 625.217 670.984 635.979L645.637 665.754L645.171 665.357L718.526 579.188C707.764 570.027 691.613 571.325 682.452 582.086L625.686 648.77L625.22 648.373L716.016 541.716Z" fill="white"/>
<path d="M679.943 544.614L681.443 545.891L681.443 545.891L679.943 544.614ZM716.016 541.716L717.293 540.216L718.793 541.493L717.516 542.993L716.016 541.716ZM605.734 631.785L607.235 633.062L605.958 634.562L604.457 633.285L605.734 631.785ZM605.268 631.388L603.991 632.888L602.491 631.611L603.768 630.111L605.268 631.388ZM679.263 544.467L680.54 542.967L682.04 544.244L680.763 545.744L679.263 544.467ZM643.19 547.365L644.69 548.642L644.69 548.642L643.19 547.365ZM584.746 616.018L586.246 617.295L586.185 617.367L586.117 617.433L584.746 616.018ZM569.631 616.381L568.603 618.061L567.912 617.638L567.718 616.852L569.631 616.381ZM559.22 593.238L559.499 591.288L560.386 591.415L560.873 592.167L559.22 593.238ZM540.389 590.547L540.11 592.498L540.11 592.498L540.389 590.547ZM535.83 593.668L537.746 594.126L537.746 594.126L535.83 593.668ZM525.396 635.317L523.487 634.829L523.487 634.829L525.396 635.317ZM525.203 636.06L523.297 635.563L523.297 635.563L525.203 636.06ZM664.021 683.625L662.525 682.343L663.803 680.853L665.298 682.125L664.021 683.625ZM664.026 683.63L665.526 684.907L664.249 686.407L662.749 685.13L664.026 683.63ZM707.058 633.081L708.335 631.581L709.835 632.858L708.558 634.358L707.058 633.081ZM645.637 665.754L647.137 667.031L645.86 668.531L644.36 667.254L645.637 665.754ZM645.171 665.357L643.894 666.857L642.394 665.58L643.671 664.08L645.171 665.357ZM718.526 579.188L719.803 577.688L721.303 578.965L720.026 580.465L718.526 579.188ZM682.452 582.086L683.952 583.363L683.952 583.363L682.452 582.086ZM625.686 648.77L627.186 650.047L625.909 651.547L624.409 650.27L625.686 648.77ZM625.22 648.373L623.943 649.873L622.443 648.596L623.72 647.096L625.22 648.373ZM678.443 543.337C688.309 531.747 705.703 530.349 717.293 540.216L714.739 543.216C704.806 534.76 689.899 535.957 681.443 545.891L678.443 543.337ZM604.234 630.508L678.443 543.337L681.443 545.891L607.235 633.062L604.234 630.508ZM604.457 633.285L603.991 632.888L606.545 629.888L607.011 630.285L604.457 633.285ZM680.763 545.744L606.768 632.665L603.768 630.111L677.763 543.19L680.763 545.744ZM641.69 546.088C651.556 534.498 668.95 533.1 680.54 542.967L677.986 545.967C668.053 537.511 653.146 538.709 644.69 548.642L641.69 546.088ZM583.246 614.741L641.69 546.088L644.69 548.642L586.246 617.295L583.246 614.741ZM586.117 617.433C584.247 619.244 581.861 620.704 578.825 620.997C575.804 621.289 572.423 620.399 568.603 618.061L570.659 614.7C573.991 616.739 576.521 617.262 578.446 617.076C580.357 616.891 581.952 615.981 583.376 614.602L586.117 617.433ZM567.718 616.852C565.96 609.712 562.652 602.158 557.567 594.309L560.873 592.167C566.16 600.327 569.665 608.282 571.544 615.91L567.718 616.852ZM558.941 595.188L540.11 592.498L540.667 588.597L559.499 591.288L558.941 595.188ZM540.11 592.498C539.043 592.345 538.003 593.049 537.746 594.126L533.913 593.21C534.637 590.183 537.557 588.153 540.667 588.597L540.11 592.498ZM537.746 594.126C536.369 599.889 533.26 612.481 527.304 635.804L523.487 634.829C529.441 611.512 532.544 598.943 533.913 593.21L537.746 594.126ZM527.304 635.804C527.243 636.045 527.177 636.297 527.11 636.556L523.297 635.563C523.365 635.302 523.428 635.059 523.487 634.829L527.304 635.804ZM527.11 636.556C526.052 640.618 524.259 647.524 526.479 656.684C528.7 665.845 535.004 677.51 550.664 690.841L548.11 693.842C531.975 680.105 525.111 667.761 522.65 657.612C520.19 647.464 522.203 639.763 523.297 635.563L527.11 636.556ZM550.664 690.841C562.682 701.072 572.689 709.114 581.716 714.582C590.729 720.042 598.602 722.833 606.361 722.758C614.098 722.683 622.003 719.753 631.075 713.218C640.17 706.667 650.326 696.571 662.525 682.343L665.517 684.908C653.25 699.214 642.853 709.589 633.377 716.415C623.878 723.258 615.195 726.613 606.399 726.698C597.624 726.783 589.017 723.611 579.675 717.952C570.347 712.302 560.125 704.07 548.11 693.842L550.664 690.841ZM665.298 682.125L665.303 682.13L662.749 685.13L662.744 685.126L665.298 682.125ZM662.526 682.353L705.558 631.804L708.558 634.358L665.526 684.907L662.526 682.353ZM705.781 634.581C695.848 626.125 680.94 627.323 672.484 637.256L669.484 634.702C679.351 623.112 696.745 621.714 708.335 631.581L705.781 634.581ZM672.484 637.256L647.137 667.031L644.137 664.477L669.484 634.702L672.484 637.256ZM644.36 667.254L643.894 666.857L646.448 663.857L646.914 664.254L644.36 667.254ZM720.026 580.465L646.671 666.634L643.671 664.08L717.025 577.911L720.026 580.465ZM680.952 580.809C690.819 569.219 708.213 567.822 719.803 577.688L717.249 580.689C707.315 572.233 692.408 573.43 683.952 583.363L680.952 580.809ZM624.186 647.493L680.952 580.809L683.952 583.363L627.186 650.047L624.186 647.493ZM624.409 650.27L623.943 649.873L626.497 646.873L626.963 647.27L624.409 650.27ZM717.516 542.993L626.72 649.65L623.72 647.096L714.516 540.439L717.516 542.993Z" fill="#333333"/>
<path d="M567.993 605.902C572.371 614.375 575.002 622.426 576.089 629.952C578.528 646.843 573.187 661.095 562.34 671.561" stroke="#333333" stroke-width="3.94"/>
<line y1="-1.97" x2="67.5269" y2="-1.97" transform="matrix(0.761456 0.648217 0.648217 -0.761456 591.592 622.316)" stroke="#333333" stroke-width="3.94"/>
<path fill-rule="evenodd" clip-rule="evenodd" d="M363.985 446.305C374.747 437.144 390.897 438.442 400.059 449.203L474.267 536.375L474.733 535.978L400.738 449.057C411.5 439.895 427.65 441.193 436.811 451.954L495.255 520.607C498.549 523.797 503.218 525.347 510.37 520.97C512.189 513.586 515.595 505.832 520.781 497.828L539.613 495.137C541.701 494.839 543.681 496.205 544.172 498.258C545.545 504.006 548.65 516.586 554.606 539.906C554.666 540.141 554.73 540.389 554.798 540.649C556.95 548.91 562.41 569.864 530.614 596.931C482.548 637.849 464.911 645.283 415.98 588.215L415.975 588.219L372.944 537.671C383.705 528.51 399.856 529.807 409.017 540.568L434.364 570.344L434.83 569.947L361.476 483.778C372.237 474.617 388.388 475.914 397.549 486.676L454.316 553.359L454.781 552.963L363.985 446.305Z" fill="white"/>
<path d="M400.059 449.203L398.558 450.48L398.558 450.48L400.059 449.203ZM363.985 446.305L362.708 444.805L361.208 446.082L362.485 447.582L363.985 446.305ZM474.267 536.375L472.767 537.652L474.044 539.152L475.544 537.875L474.267 536.375ZM474.733 535.978L476.01 537.478L477.51 536.201L476.233 534.701L474.733 535.978ZM400.738 449.057L399.461 447.557L397.961 448.834L399.238 450.334L400.738 449.057ZM436.811 451.954L435.311 453.231L435.311 453.231L436.811 451.954ZM495.255 520.607L493.755 521.884L493.816 521.957L493.885 522.023L495.255 520.607ZM510.37 520.97L511.399 522.651L512.089 522.228L512.283 521.441L510.37 520.97ZM520.781 497.828L520.503 495.878L519.615 496.004L519.128 496.757L520.781 497.828ZM539.613 495.137L539.891 497.087L539.891 497.087L539.613 495.137ZM544.172 498.258L546.088 497.8L546.088 497.8L544.172 498.258ZM554.606 539.906L556.514 539.419L556.514 539.419L554.606 539.906ZM554.798 540.649L556.704 540.153L556.704 540.153L554.798 540.649ZM415.98 588.215L417.476 586.933L416.198 585.443L414.703 586.715L415.98 588.215ZM415.975 588.219L414.475 589.496L415.752 590.997L417.252 589.72L415.975 588.219ZM372.944 537.671L371.667 536.171L370.167 537.448L371.444 538.948L372.944 537.671ZM434.364 570.344L432.864 571.621L434.141 573.121L435.641 571.844L434.364 570.344ZM434.83 569.947L436.107 571.447L437.607 570.17L436.33 568.67L434.83 569.947ZM361.476 483.778L360.199 482.278L358.699 483.555L359.976 485.055L361.476 483.778ZM397.549 486.676L396.049 487.953L396.049 487.953L397.549 486.676ZM454.316 553.359L452.815 554.636L454.092 556.136L455.593 554.859L454.316 553.359ZM454.781 552.963L456.058 554.463L457.558 553.186L456.281 551.686L454.781 552.963ZM401.559 447.926C391.692 436.336 374.298 434.939 362.708 444.805L365.262 447.806C375.195 439.35 390.103 440.547 398.558 450.48L401.559 447.926ZM475.767 535.098L401.559 447.926L398.558 450.48L472.767 537.652L475.767 535.098ZM475.544 537.875L476.01 537.478L473.456 534.478L472.99 534.875L475.544 537.875ZM399.238 450.334L473.233 537.255L476.233 534.701L402.238 447.78L399.238 450.334ZM438.312 450.677C428.445 439.087 411.051 437.69 399.461 447.557L402.015 450.557C411.948 442.101 426.855 443.298 435.311 453.231L438.312 450.677ZM496.755 519.33L438.312 450.677L435.311 453.231L493.755 521.884L496.755 519.33ZM493.885 522.023C495.755 523.833 498.141 525.294 501.176 525.587C504.197 525.879 507.578 524.988 511.399 522.651L509.342 519.29C506.01 521.329 503.481 521.852 501.555 521.665C499.645 521.481 498.049 520.571 496.625 519.192L493.885 522.023ZM512.283 521.441C514.041 514.301 517.349 506.748 522.434 498.899L519.128 496.757C513.841 504.916 510.336 512.871 508.457 520.499L512.283 521.441ZM521.06 499.778L539.891 497.087L539.334 493.187L520.503 495.878L521.06 499.778ZM539.891 497.087C540.958 496.935 541.998 497.638 542.256 498.715L546.088 497.8C545.365 494.773 542.444 492.743 539.334 493.187L539.891 497.087ZM542.256 498.715C543.633 504.479 546.741 517.071 552.697 540.394L556.514 539.419C550.56 516.102 547.458 503.533 546.088 497.8L542.256 498.715ZM552.697 540.394C552.758 540.634 552.824 540.887 552.892 541.146L556.704 540.153C556.636 539.891 556.573 539.648 556.514 539.419L552.697 540.394ZM552.892 541.146C553.95 545.207 555.743 552.114 553.522 561.274C551.301 570.434 544.997 582.1 529.337 595.431L531.891 598.431C548.027 584.695 554.891 572.35 557.351 562.202C559.811 552.053 557.799 544.353 556.704 540.153L552.892 541.146ZM529.337 595.431C517.319 605.662 507.312 613.704 498.285 619.172C489.272 624.631 481.399 627.423 473.641 627.348C465.903 627.273 457.998 624.343 448.927 617.808C439.832 611.256 429.675 601.161 417.476 586.933L414.485 589.497C426.751 603.804 437.148 614.179 446.624 621.005C456.123 627.848 464.806 631.202 473.602 631.288C482.377 631.373 490.984 628.201 500.326 622.542C509.654 616.891 519.876 608.659 531.891 598.431L529.337 595.431ZM414.703 586.715L414.698 586.719L417.252 589.72L417.257 589.715L414.703 586.715ZM417.475 586.942L374.444 536.394L371.444 538.948L414.475 589.496L417.475 586.942ZM374.221 539.171C384.154 530.715 399.061 531.912 407.517 541.845L410.517 539.291C400.65 527.701 383.257 526.304 371.667 536.171L374.221 539.171ZM407.517 541.845L432.864 571.621L435.864 569.067L410.517 539.291L407.517 541.845ZM435.641 571.844L436.107 571.447L433.553 568.447L433.087 568.844L435.641 571.844ZM359.976 485.055L433.33 571.224L436.33 568.67L362.976 482.501L359.976 485.055ZM399.049 485.399C389.183 473.809 371.789 472.412 360.199 482.278L362.753 485.278C372.686 476.822 387.593 478.02 396.049 487.953L399.049 485.399ZM455.816 552.082L399.049 485.399L396.049 487.953L452.815 554.636L455.816 552.082ZM455.593 554.859L456.058 554.463L453.504 551.463L453.039 551.859L455.593 554.859ZM362.485 447.582L453.281 554.24L456.281 551.686L365.485 445.029L362.485 447.582Z" fill="#333333"/>
<path d="M517.67 502.405C513.293 510.879 510.661 518.929 509.574 526.456C507.135 543.347 512.476 557.599 523.323 568.065" stroke="#333333" stroke-width="3.94"/>
<line x1="495.349" y1="520.32" x2="443.93" y2="564.092" stroke="#333333" stroke-width="3.94"/>
<path d="M712.54 446.035L512.005 628.898L488.687 538.03L569.053 467.109L516.441 453.012L619.273 361.523L546.202 341.944L774.411 215.13L675.074 316.954L742.301 334.967L645.313 428.021L712.54 446.035Z" fill="#66B1E8" stroke="#333333" stroke-width="3.94"/>
<mask id="path-24-outside-1_901_868" maskUnits="userSpaceOnUse" x="450.738" y="400.428" width="190" height="332" fill="black">
<rect fill="white" x="450.738" y="400.428" width="190" height="332"/>
<path fill-rule="evenodd" clip-rule="evenodd" d="M545.899 404.429L623.681 404.429C630.891 404.429 636.736 410.274 636.736 417.484L636.736 714.764C636.736 721.973 630.891 727.818 623.681 727.818L467.792 727.818C460.583 727.818 454.738 721.973 454.738 714.764L454.738 417.484C454.738 410.274 460.583 404.429 467.792 404.429L545.568 404.429C545.623 404.428 545.678 404.428 545.734 404.428C545.789 404.428 545.844 404.428 545.899 404.429Z"/>
</mask>
<path fill-rule="evenodd" clip-rule="evenodd" d="M545.899 404.429L623.681 404.429C630.891 404.429 636.736 410.274 636.736 417.484L636.736 714.764C636.736 721.973 630.891 727.818 623.681 727.818L467.792 727.818C460.583 727.818 454.738 721.973 454.738 714.764L454.738 417.484C454.738 410.274 460.583 404.429 467.792 404.429L545.568 404.429C545.623 404.428 545.678 404.428 545.734 404.428C545.789 404.428 545.844 404.428 545.899 404.429Z" fill="#333333"/>
<path d="M545.899 404.429L545.838 408.369L545.869 408.369L545.899 408.369L545.899 404.429ZM623.681 404.429L623.681 408.369L623.681 404.429ZM636.736 417.484L640.676 417.484L636.736 417.484ZM636.736 714.764L632.796 714.764L636.736 714.764ZM454.738 714.764L450.798 714.764L454.738 714.764ZM454.738 417.484L458.678 417.484L454.738 417.484ZM545.568 404.429L545.568 408.369L545.599 408.369L545.63 408.369L545.568 404.429ZM545.899 408.369L623.681 408.369L623.681 400.489L545.899 400.489L545.899 408.369ZM623.681 408.369C628.715 408.369 632.796 412.45 632.796 417.484L640.676 417.484C640.676 408.098 633.067 400.489 623.681 400.489L623.681 408.369ZM632.796 417.484L632.796 714.764L640.676 714.764L640.676 417.484L632.796 417.484ZM632.796 714.764C632.796 719.797 628.715 723.878 623.681 723.878L623.681 731.758C633.067 731.758 640.676 724.149 640.676 714.764L632.796 714.764ZM623.681 723.878L467.792 723.878L467.792 731.758L623.681 731.758L623.681 723.878ZM467.792 723.878C462.759 723.878 458.678 719.797 458.678 714.764L450.798 714.764C450.798 724.149 458.407 731.758 467.792 731.758L467.792 723.878ZM458.678 714.764L458.678 417.484L450.798 417.484L450.798 714.764L458.678 714.764ZM458.678 417.484C458.678 412.45 462.759 408.369 467.792 408.369L467.792 400.489C458.407 400.489 450.798 408.098 450.798 417.484L458.678 417.484ZM467.792 408.369L545.568 408.369L545.568 400.489L467.792 400.489L467.792 408.369ZM545.63 408.369C545.664 408.368 545.699 408.368 545.734 408.368L545.734 400.488C545.658 400.488 545.582 400.489 545.506 400.49L545.63 408.369ZM545.734 408.368C545.769 408.368 545.803 408.368 545.838 408.369L545.961 400.49C545.885 400.489 545.81 400.488 545.734 400.488L545.734 408.368Z" fill="#333333" mask="url(#path-24-outside-1_901_868)"/>
<mask id="path-26-outside-2_901_868" maskUnits="userSpaceOnUse" x="444.928" y="393.367" width="190" height="332" fill="black">
<rect fill="white" x="444.928" y="393.367" width="190" height="332"/>
<path fill-rule="evenodd" clip-rule="evenodd" d="M540.111 397.369L617.871 397.369C625.081 397.369 630.926 403.214 630.926 410.424L630.926 707.703C630.926 714.913 625.081 720.758 617.871 720.758L461.982 720.758C454.772 720.758 448.928 714.913 448.928 707.703L448.928 410.424C448.928 403.214 454.772 397.369 461.982 397.369L539.737 397.369C539.799 397.368 539.861 397.367 539.924 397.367C539.986 397.367 540.049 397.368 540.111 397.369Z"/>
</mask>
<path fill-rule="evenodd" clip-rule="evenodd" d="M540.111 397.369L617.871 397.369C625.081 397.369 630.926 403.214 630.926 410.424L630.926 707.703C630.926 714.913 625.081 720.758 617.871 720.758L461.982 720.758C454.772 720.758 448.928 714.913 448.928 707.703L448.928 410.424C448.928 403.214 454.772 397.369 461.982 397.369L539.737 397.369C539.799 397.368 539.861 397.367 539.924 397.367C539.986 397.367 540.049 397.368 540.111 397.369Z" fill="white"/>
<path d="M540.111 397.369L540.042 401.308L540.076 401.309L540.111 401.309L540.111 397.369ZM461.982 397.369L461.982 393.429L461.982 397.369ZM539.737 397.369L539.737 401.309L539.771 401.309L539.806 401.308L539.737 397.369ZM540.111 401.309L617.871 401.309L617.871 393.429L540.111 393.429L540.111 401.309ZM617.871 401.309C622.905 401.309 626.986 405.39 626.986 410.424L634.866 410.424C634.866 401.038 627.257 393.429 617.871 393.429L617.871 401.309ZM626.986 410.424L626.986 707.703L634.866 707.703L634.866 410.424L626.986 410.424ZM626.986 707.703C626.986 712.737 622.905 716.818 617.871 716.818L617.871 724.698C627.257 724.698 634.866 717.089 634.866 707.703L626.986 707.703ZM617.871 716.818L461.982 716.818L461.982 724.698L617.871 724.698L617.871 716.818ZM461.982 716.818C456.948 716.818 452.868 712.737 452.868 707.703L444.988 707.703C444.988 717.089 452.596 724.698 461.982 724.698L461.982 716.818ZM452.868 707.703L452.868 410.424L444.988 410.424L444.988 707.703L452.868 707.703ZM452.868 410.424C452.868 405.39 456.948 401.309 461.982 401.309L461.982 393.429C452.596 393.429 444.988 401.038 444.988 410.424L452.868 410.424ZM461.982 401.309L539.737 401.309L539.737 393.429L461.982 393.429L461.982 401.309ZM539.806 401.308C539.845 401.308 539.885 401.307 539.924 401.307L539.924 393.427C539.838 393.427 539.752 393.428 539.667 393.43L539.806 401.308ZM539.924 401.307C539.963 401.307 540.002 401.308 540.042 401.308L540.181 393.43C540.095 393.428 540.01 393.427 539.924 393.427L539.924 401.307Z" fill="#333333" mask="url(#path-26-outside-2_901_868)"/>
<circle cx="474.583" cy="423.057" r="10.0872" fill="#333333"/>
<rect x="455.674" y="455.125" width="168.526" height="237.63" rx="9" fill="#333333"/>
<circle cx="541.131" cy="569.548" r="59.8991" fill="white" stroke="#333333" stroke-width="3.94"/>
<mask id="path-31-outside-3_901_868" maskUnits="userSpaceOnUse" x="506.754" y="529.184" width="70.0928" height="69.9091" fill="black">
<rect fill="white" x="506.754" y="529.184" width="70.0928" height="69.9091"/>
<path fill-rule="evenodd" clip-rule="evenodd" d="M529.383 586.454C529.35 586.421 529.317 586.388 529.284 586.355L529.284 586.354L515.751 572.584C513.907 570.708 513.933 567.691 515.809 565.847C517.686 564.003 520.702 564.029 522.546 565.905L536.08 579.675L560.577 555.598C562.454 553.754 565.47 553.78 567.314 555.657C569.158 557.533 569.132 560.55 567.256 562.394L542.758 586.471C542.719 586.509 542.68 586.547 542.641 586.584L538.318 590.833C537.017 592.112 534.926 592.094 533.647 590.793L529.383 586.454Z"/>
</mask>
<path fill-rule="evenodd" clip-rule="evenodd" d="M529.383 586.454C529.35 586.421 529.317 586.388 529.284 586.355L529.284 586.354L515.751 572.584C513.907 570.708 513.933 567.691 515.809 565.847C517.686 564.003 520.702 564.029 522.546 565.905L536.08 579.675L560.577 555.598C562.454 553.754 565.47 553.78 567.314 555.657C569.158 557.533 569.132 560.55 567.256 562.394L542.758 586.471C542.719 586.509 542.68 586.547 542.641 586.584L538.318 590.833C537.017 592.112 534.926 592.094 533.647 590.793L529.383 586.454Z" fill="#A4C954"/>
<path d="M529.284 586.355L526.474 589.117L523.712 586.306L526.522 583.545L529.284 586.355ZM529.383 586.454L532.153 583.652L532.173 583.672L532.193 583.692L529.383 586.454ZM529.284 586.354L532.094 583.592L534.856 586.402L532.046 589.164L529.284 586.354ZM536.08 579.675L538.841 582.485L536.031 585.247L533.27 582.437L536.08 579.675ZM560.577 555.598L563.339 558.409L563.339 558.409L560.577 555.598ZM567.256 562.394L564.494 559.584L564.494 559.584L567.256 562.394ZM542.758 586.471L545.519 589.281L545.519 589.281L542.758 586.471ZM542.641 586.584L539.88 583.774L539.903 583.751L539.927 583.728L542.641 586.584ZM538.318 590.833L535.556 588.023L538.318 590.833ZM532.094 583.593C532.113 583.613 532.133 583.633 532.153 583.652L526.613 589.256C526.566 589.21 526.52 589.164 526.474 589.117L532.094 583.593ZM532.046 589.164L532.045 589.165L526.522 583.545L526.523 583.544L532.046 589.164ZM518.561 569.822L532.094 583.592L526.474 589.116L512.941 575.346L518.561 569.822ZM518.571 568.657C518.246 568.976 518.242 569.498 518.561 569.822L512.941 575.346C509.571 571.917 509.619 566.407 513.047 563.037L518.571 568.657ZM519.736 568.667C519.417 568.343 518.896 568.338 518.571 568.657L513.047 563.037C516.476 559.668 521.987 559.715 525.356 563.144L519.736 568.667ZM533.27 582.437L519.736 568.667L525.356 563.144L538.89 576.914L533.27 582.437ZM563.339 558.409L538.841 582.485L533.318 576.865L557.816 552.788L563.339 558.409ZM564.504 558.419C564.185 558.094 563.664 558.09 563.339 558.409L557.816 552.788C561.244 549.419 566.755 549.467 570.124 552.895L564.504 558.419ZM564.494 559.584C564.819 559.265 564.823 558.743 564.504 558.419L570.124 552.895C573.494 556.323 573.446 561.834 570.018 565.204L564.494 559.584ZM539.996 583.661L564.494 559.584L570.018 565.204L545.519 589.281L539.996 583.661ZM539.927 583.728C539.95 583.706 539.973 583.684 539.996 583.661L545.519 589.281C545.465 589.335 545.411 589.387 545.356 589.439L539.927 583.728ZM535.556 588.023L539.88 583.774L545.403 589.394L541.079 593.643L535.556 588.023ZM536.457 588.031C536.21 587.78 535.807 587.777 535.556 588.023L541.079 593.643C538.227 596.447 533.641 596.407 530.837 593.555L536.457 588.031ZM532.193 583.692L536.457 588.031L530.837 593.555L526.573 589.216L532.193 583.692Z" fill="#333333" mask="url(#path-31-outside-3_901_868)"/>
<line x1="520.576" y1="415.02" x2="561.685" y2="415.02" stroke="#333333" stroke-width="3.94"/>
</svg>
