<svg width="1080" height="1080" viewBox="0 0 1080 1080" fill="none" xmlns="http://www.w3.org/2000/svg">
<rect width="1080" height="1080" fill="#333333"/>
<path d="M470.164 559.077C429.265 605.472 412.583 614.165 346.069 555.53L413.03 479.571C417.489 483.502 423.235 485.839 430.44 480.207C430.559 472.311 432.258 463.928 435.766 455.175L455.526 451.071C457.37 450.688 459.507 451.462 460.864 452.768C464.835 456.591 473.842 465.601 486.091 490.496C490.022 498.485 497.865 527.654 470.164 559.077Z" fill="white"/>
<path d="M450.924 524.707C437.866 513.196 430.174 497.927 430.44 480.207M430.44 480.207C430.559 472.311 432.258 463.928 435.766 455.175L455.526 451.071C457.37 450.688 459.507 451.462 460.864 452.768C464.835 456.591 473.842 465.601 486.091 490.496C490.022 498.485 497.865 527.654 470.164 559.077C429.265 605.472 412.583 614.165 346.069 555.53L413.03 479.571C417.489 483.502 423.235 485.839 430.44 480.207Z" stroke="#333333" stroke-width="3.94"/>
<mask id="path-3-outside-1_901_802" maskUnits="userSpaceOnUse" x="250.967" y="358.229" width="292.013" height="310.677" fill="black">
<rect fill="white" x="250.967" y="358.229" width="292.013" height="310.677"/>
<path fill-rule="evenodd" clip-rule="evenodd" d="M314.771 410.29L362.452 372.484C368.101 368.005 376.312 368.953 380.792 374.603L528.131 560.429C532.61 566.079 531.662 574.29 526.012 578.769L430.377 654.597C424.727 659.076 416.516 658.128 412.037 652.478L264.698 466.652C260.218 461.002 261.167 452.791 266.816 448.312L314.493 410.51C314.538 410.472 314.584 410.435 314.631 410.398C314.677 410.362 314.724 410.325 314.771 410.29Z"/>
</mask>
<path fill-rule="evenodd" clip-rule="evenodd" d="M314.771 410.29L362.452 372.484C368.101 368.005 376.312 368.953 380.792 374.603L528.131 560.429C532.61 566.079 531.662 574.29 526.012 578.769L430.377 654.597C424.727 659.076 416.516 658.128 412.037 652.478L264.698 466.652C260.218 461.002 261.167 452.791 266.816 448.312L314.493 410.51C314.538 410.472 314.584 410.435 314.631 410.398C314.677 410.362 314.724 410.325 314.771 410.29Z" fill="#333333"/>
<path d="M314.771 410.29L317.155 413.427L317.187 413.402L317.219 413.377L314.771 410.29ZM412.037 652.478L408.95 654.926L412.037 652.478ZM266.816 448.312L269.264 451.399L266.816 448.312ZM314.493 410.51L316.941 413.597L316.973 413.572L317.004 413.546L314.493 410.51ZM317.219 413.377L364.899 375.571L360.004 369.397L312.323 407.202L317.219 413.377ZM364.899 375.571C368.844 372.444 374.577 373.106 377.704 377.051L383.879 372.155C378.048 364.8 367.358 363.565 360.004 369.397L364.899 375.571ZM377.704 377.051L525.043 562.877L531.218 557.981L383.879 372.155L377.704 377.051ZM525.043 562.877C528.171 566.821 527.509 572.554 523.564 575.682L528.46 581.856C535.814 576.025 537.049 565.336 531.218 557.981L525.043 562.877ZM523.564 575.682L427.929 651.51L432.825 657.684L528.46 581.856L523.564 575.682ZM427.929 651.51C423.985 654.637 418.252 653.975 415.124 650.03L408.95 654.926C414.781 662.281 425.47 663.516 432.825 657.684L427.929 651.51ZM415.124 650.03L267.785 464.204L261.611 469.1L408.95 654.926L415.124 650.03ZM267.785 464.204C264.658 460.26 265.32 454.527 269.264 451.399L264.369 445.225C257.014 451.056 255.779 461.745 261.611 469.1L267.785 464.204ZM269.264 451.399L316.941 413.597L312.045 407.423L264.369 445.225L269.264 451.399ZM317.004 413.546C317.028 413.526 317.053 413.506 317.079 413.486L312.183 407.311C312.115 407.365 312.048 407.419 311.982 407.474L317.004 413.546ZM317.079 413.486C317.104 413.466 317.129 413.446 317.155 413.427L312.387 407.153C312.318 407.205 312.25 407.257 312.183 407.311L317.079 413.486Z" fill="#333333" mask="url(#path-3-outside-1_901_802)"/>
<mask id="path-5-outside-2_901_802" maskUnits="userSpaceOnUse" x="243.691" y="356.665" width="292.013" height="310.677" fill="black">
<rect fill="white" x="243.691" y="356.665" width="292.013" height="310.677"/>
<path fill-rule="evenodd" clip-rule="evenodd" d="M307.462 408.751L355.175 370.919C360.825 366.44 369.036 367.388 373.515 373.038L520.854 558.864C525.334 564.514 524.385 572.725 518.736 577.204L423.101 653.032C417.451 657.511 409.24 656.563 404.761 650.913L257.421 465.087C252.942 459.437 253.891 451.226 259.54 446.747L307.25 408.919C307.285 408.89 307.32 408.862 307.355 408.834C307.39 408.806 307.426 408.778 307.462 408.751Z"/>
</mask>
<path fill-rule="evenodd" clip-rule="evenodd" d="M307.462 408.751L355.175 370.919C360.825 366.44 369.036 367.388 373.515 373.038L520.854 558.864C525.334 564.514 524.385 572.725 518.736 577.204L423.101 653.032C417.451 657.511 409.24 656.563 404.761 650.913L257.421 465.087C252.942 459.437 253.891 451.226 259.54 446.747L307.25 408.919C307.285 408.89 307.32 408.862 307.355 408.834C307.39 408.806 307.426 408.778 307.462 408.751Z" fill="#A4C954"/>
<path d="M307.462 408.751L309.861 411.876L309.885 411.857L309.91 411.838L307.462 408.751ZM373.515 373.038L370.428 375.486L373.515 373.038ZM518.736 577.204L516.288 574.117L518.736 577.204ZM423.101 653.032L425.548 656.119L423.101 653.032ZM307.25 408.919L309.698 412.006L309.722 411.987L309.746 411.967L307.25 408.919ZM309.91 411.838L357.623 374.006L352.727 367.832L305.014 405.663L309.91 411.838ZM357.623 374.006C361.567 370.879 367.3 371.541 370.428 375.486L376.602 370.59C370.771 363.235 360.082 362 352.727 367.832L357.623 374.006ZM370.428 375.486L517.767 561.312L523.942 556.416L376.602 370.59L370.428 375.486ZM517.767 561.312C520.894 565.256 520.232 570.989 516.288 574.117L521.184 580.291C528.538 574.46 529.773 563.771 523.942 556.416L517.767 561.312ZM516.288 574.117L420.653 649.945L425.548 656.119L521.184 580.291L516.288 574.117ZM420.653 649.945C416.708 653.072 410.975 652.41 407.848 648.465L401.673 653.361C407.505 660.716 418.194 661.95 425.548 656.119L420.653 649.945ZM407.848 648.465L260.509 462.639L254.334 467.535L401.673 653.361L407.848 648.465ZM260.509 462.639C257.381 458.695 258.044 452.962 261.988 449.834L257.092 443.66C249.738 449.491 248.503 460.18 254.334 467.535L260.509 462.639ZM261.988 449.834L309.698 412.006L304.802 405.831L257.092 443.66L261.988 449.834ZM309.746 411.967C309.765 411.952 309.784 411.936 309.803 411.921L304.907 405.746C304.856 405.787 304.804 405.828 304.754 405.87L309.746 411.967ZM309.803 411.921C309.822 411.906 309.841 411.891 309.861 411.876L305.062 405.625C305.01 405.665 304.959 405.706 304.907 405.746L309.803 411.921Z" fill="#333333" mask="url(#path-5-outside-2_901_802)"/>
<circle cx="287.824" cy="458.463" r="8.21163" transform="rotate(-38.4104 287.824 458.463)" fill="#333333"/>
<path d="M306.627 435.832L333.811 414.278" stroke="#333333" stroke-width="3.94" stroke-linejoin="round"/>
<path fill-rule="evenodd" clip-rule="evenodd" d="M385.19 544.718C396.988 535.463 414.058 537.522 423.317 549.318L359.562 599.328C353.663 603.956 345.128 602.926 340.499 597.028C335.869 591.13 336.899 582.597 342.798 577.97L385.19 544.718ZM393.329 573.666C405.128 564.411 422.198 566.472 431.456 578.268L376.725 621.197C370.826 625.824 362.291 624.794 357.662 618.896C353.033 612.998 354.063 604.465 359.962 599.838L393.329 573.666ZM431.08 613.896C421.822 602.1 404.751 600.039 392.953 609.294L377.127 621.707C371.228 626.334 370.198 634.867 374.827 640.765C379.456 646.663 387.991 647.693 393.89 643.066L431.08 613.896ZM356.589 531.817C368.388 522.562 385.459 524.622 394.717 536.418L342.397 577.456C336.498 582.083 327.963 581.053 323.334 575.155C318.705 569.257 319.735 560.724 325.634 556.097L356.589 531.817Z" fill="white"/>
<path d="M423.317 549.318L424.864 548.099L426.083 549.652L424.53 550.87L423.317 549.318ZM385.19 544.718L386.403 546.27L385.19 544.718ZM359.562 599.328L358.349 597.776L358.349 597.776L359.562 599.328ZM340.499 597.028L338.951 598.247L338.951 598.247L340.499 597.028ZM342.798 577.97L341.585 576.418L341.585 576.418L342.798 577.97ZM431.456 578.268L433.004 577.049L434.223 578.602L432.669 579.82L431.456 578.268ZM393.329 573.666L392.116 572.114L392.116 572.114L393.329 573.666ZM376.725 621.197L377.938 622.749L377.938 622.749L376.725 621.197ZM357.662 618.896L359.209 617.677L357.662 618.896ZM359.962 599.838L358.749 598.286L358.749 598.286L359.962 599.838ZM392.953 609.294L394.166 610.846L392.953 609.294ZM431.08 613.896L432.627 612.677L433.846 614.23L432.293 615.448L431.08 613.896ZM377.127 621.707L375.914 620.155L375.914 620.155L377.127 621.707ZM374.827 640.765L373.279 641.984L374.827 640.765ZM393.89 643.066L395.103 644.618L393.89 643.066ZM394.717 536.418L396.264 535.199L397.483 536.752L395.93 537.971L394.717 536.418ZM356.589 531.817L355.376 530.264L355.376 530.264L356.589 531.817ZM342.397 577.456L341.184 575.904L341.184 575.904L342.397 577.456ZM323.334 575.155L324.881 573.936L324.881 573.936L323.334 575.155ZM325.634 556.097L324.421 554.545L324.421 554.545L325.634 556.097ZM421.77 550.537C413.182 539.596 397.346 537.685 386.403 546.27L383.976 543.165C396.63 533.24 414.935 535.449 424.864 548.099L421.77 550.537ZM358.349 597.776L422.104 547.766L424.53 550.87L360.775 600.88L358.349 597.776ZM342.046 595.809C346.005 600.852 353.305 601.733 358.349 597.776L360.775 600.88C354.021 606.178 344.251 605 338.951 598.247L342.046 595.809ZM344.011 579.522C338.969 583.477 338.089 590.768 342.046 595.809L338.951 598.247C333.649 591.492 334.828 581.718 341.585 576.418L344.011 579.522ZM386.403 546.27L344.011 579.522L341.585 576.418L383.976 543.165L386.403 546.27ZM429.909 579.487C421.321 568.545 405.486 566.634 394.542 575.218L392.116 572.114C404.77 562.189 423.075 564.398 433.004 577.049L429.909 579.487ZM375.512 619.645L430.243 576.716L432.669 579.82L377.938 622.749L375.512 619.645ZM359.209 617.677C363.168 622.72 370.468 623.601 375.512 619.645L377.938 622.749C371.184 628.047 361.414 626.868 356.114 620.115L359.209 617.677ZM361.175 601.39C356.133 605.345 355.253 612.636 359.209 617.677L356.114 620.115C350.813 613.36 351.992 603.585 358.749 598.286L361.175 601.39ZM394.542 575.218L361.175 601.39L358.749 598.286L392.116 572.114L394.542 575.218ZM391.74 607.742C404.393 597.817 422.698 600.026 432.627 612.677L429.532 615.115C420.945 604.173 405.11 602.262 394.166 610.846L391.74 607.742ZM375.914 620.155L391.74 607.742L394.166 610.846L378.34 623.259L375.914 620.155ZM373.279 641.984C367.977 635.229 369.157 625.455 375.914 620.155L378.34 623.259C373.298 627.214 372.418 634.505 376.374 639.546L373.279 641.984ZM395.103 644.618C388.349 649.916 378.579 648.737 373.279 641.984L376.374 639.546C380.333 644.589 387.633 645.471 392.677 641.514L395.103 644.618ZM432.293 615.448L395.103 644.618L392.677 641.514L429.867 612.344L432.293 615.448ZM393.169 537.637C384.582 526.696 368.747 524.785 357.802 533.369L355.376 530.264C368.03 520.339 386.335 522.549 396.264 535.199L393.169 537.637ZM341.184 575.904L393.504 534.866L395.93 537.971L343.61 579.008L341.184 575.904ZM324.881 573.936C328.84 578.979 336.14 579.86 341.184 575.904L343.61 579.008C336.856 584.306 327.086 583.127 321.786 576.374L324.881 573.936ZM326.847 557.649C321.805 561.604 320.925 568.895 324.881 573.936L321.786 576.374C316.484 569.619 317.664 559.845 324.421 554.545L326.847 557.649ZM357.802 533.369L326.847 557.649L324.421 554.545L355.376 530.264L357.802 533.369Z" fill="#333333"/>
<path d="M402.492 476.166L403.288 477.169C413.661 490.252 432.676 492.449 445.759 482.075L457.102 473.082C463.921 467.675 465.066 457.765 459.659 450.946C454.253 444.128 444.343 442.983 437.524 448.389L402.492 476.166Z" fill="white" stroke="#333333" stroke-width="3.94"/>
<circle r="16.9177" transform="matrix(1 -8.74228e-08 -8.74228e-08 -1 607.15 229.136)" fill="#A4C954"/>
<circle cx="737.128" cy="768.337" r="6.25615" transform="rotate(-140.278 737.128 768.337)" stroke="white" stroke-width="3.94"/>
<circle cx="731.275" cy="745.669" r="1.97" transform="rotate(-140.278 731.275 745.669)" fill="white" stroke="white" stroke-width="2.98639"/>
<path d="M837.316 296.559L796.586 317.968" stroke="white" stroke-width="3.94"/>
<path d="M834.59 757.934L803.9 723.65" stroke="white" stroke-width="3.94"/>
<path d="M313.547 290.347L278.261 260.814" stroke="white" stroke-width="3.94"/>
<path d="M295.169 357.67L281.329 342.021C281.081 341.74 280.698 341.616 280.332 341.699L259.952 346.29C259.188 346.462 258.888 347.39 259.407 347.977L273.246 363.626C273.495 363.907 273.878 364.031 274.244 363.948L294.624 359.357C295.388 359.185 295.688 358.257 295.169 357.67Z" stroke="white" stroke-width="3.94" stroke-linejoin="round"/>
<path d="M311.473 725.173L327.769 730.21C328.128 730.321 328.519 730.228 328.789 729.967L341.053 718.112C341.616 717.567 341.389 716.619 340.641 716.387L324.345 711.35C323.986 711.239 323.595 711.332 323.325 711.593L311.061 723.448C310.498 723.992 310.724 724.941 311.473 725.173Z" stroke="white" stroke-width="3.94" stroke-linejoin="round"/>
<circle cx="516.637" cy="436.182" r="21.4521" transform="rotate(-180 516.637 436.182)" stroke="white" stroke-width="3.94"/>
<circle cx="547.7" cy="471.897" r="8.37162" transform="rotate(-180 547.7 471.897)" stroke="white" stroke-width="3.94"/>
<circle cx="472.216" cy="269.707" r="87.295" transform="rotate(165 472.216 269.707)" fill="white" stroke="#333333" stroke-width="3.94" stroke-linecap="round"/>
<circle cx="466.852" cy="264.345" r="87.295" transform="rotate(165 466.852 264.345)" fill="white" stroke="#333333" stroke-width="3.94" stroke-linecap="round"/>
<mask id="path-24-inside-3_901_802" fill="white">
<path fill-rule="evenodd" clip-rule="evenodd" d="M517.324 263.94C517.388 257.789 512.455 252.751 506.304 252.686L477.759 252.386L478.057 224.039C478.124 217.682 473.024 212.474 466.666 212.407C460.309 212.34 455.101 217.44 455.034 223.797L454.737 252.145L426.194 251.845C420.044 251.78 415.005 256.714 414.94 262.865C414.876 269.016 419.81 274.055 425.961 274.119L454.503 274.419L454.205 302.765C454.138 309.123 459.238 314.331 465.595 314.398C471.953 314.464 477.161 309.365 477.228 303.007L477.525 274.661L506.07 274.96C512.221 275.025 517.259 270.091 517.324 263.94Z"/>
</mask>
<path fill-rule="evenodd" clip-rule="evenodd" d="M517.324 263.94C517.388 257.789 512.455 252.751 506.304 252.686L477.759 252.386L478.057 224.039C478.124 217.682 473.024 212.474 466.666 212.407C460.309 212.34 455.101 217.44 455.034 223.797L454.737 252.145L426.194 251.845C420.044 251.78 415.005 256.714 414.94 262.865C414.876 269.016 419.81 274.055 425.961 274.119L454.503 274.419L454.205 302.765C454.138 309.123 459.238 314.331 465.595 314.398C471.953 314.464 477.161 309.365 477.228 303.007L477.525 274.661L506.07 274.96C512.221 275.025 517.259 270.091 517.324 263.94Z" fill="#A4C954"/>
<path d="M506.304 252.686L506.345 248.746L506.304 252.686ZM477.759 252.386L473.819 252.345L473.778 256.285L477.718 256.326L477.759 252.386ZM454.737 252.145L454.695 256.084L458.635 256.126L458.676 252.186L454.737 252.145ZM454.503 274.419L458.442 274.46L458.484 270.52L454.544 270.479L454.503 274.419ZM454.205 302.765L450.265 302.724L454.205 302.765ZM477.228 303.007L473.288 302.966L477.228 303.007ZM477.525 274.661L477.567 270.721L473.627 270.679L473.585 274.619L477.525 274.661ZM506.07 274.96L506.111 271.021L506.07 274.96ZM506.262 256.626C510.237 256.668 513.426 259.924 513.384 263.899L521.264 263.982C521.351 255.655 514.672 248.834 506.345 248.746L506.262 256.626ZM477.718 256.326L506.262 256.626L506.345 248.746L477.801 248.447L477.718 256.326ZM474.117 223.998L473.819 252.345L481.699 252.428L481.997 224.081L474.117 223.998ZM466.625 216.347C470.807 216.391 474.161 219.816 474.117 223.998L481.997 224.081C482.086 215.547 475.241 208.557 466.708 208.467L466.625 216.347ZM458.974 223.839C459.018 219.657 462.443 216.303 466.625 216.347L466.708 208.467C458.174 208.378 451.184 215.223 451.094 223.756L458.974 223.839ZM458.676 252.186L458.974 223.839L451.094 223.756L450.797 252.103L458.676 252.186ZM426.153 255.785L454.695 256.084L454.778 248.205L426.236 247.905L426.153 255.785ZM418.88 262.906C418.922 258.932 422.178 255.743 426.153 255.785L426.236 247.905C417.909 247.818 411.088 254.497 411.001 262.824L418.88 262.906ZM426.002 270.179C422.027 270.138 418.838 266.881 418.88 262.906L411.001 262.824C410.913 271.15 417.592 277.971 425.919 278.059L426.002 270.179ZM454.544 270.479L426.002 270.179L425.919 278.059L454.461 278.359L454.544 270.479ZM458.145 302.807L458.442 274.46L450.563 274.377L450.265 302.724L458.145 302.807ZM465.637 310.458C461.455 310.414 458.101 306.988 458.145 302.807L450.265 302.724C450.176 311.258 457.021 318.248 465.554 318.337L465.637 310.458ZM473.288 302.966C473.244 307.148 469.818 310.502 465.637 310.458L465.554 318.337C474.087 318.427 481.078 311.582 481.167 303.049L473.288 302.966ZM473.585 274.619L473.288 302.966L481.167 303.049L481.465 274.702L473.585 274.619ZM506.111 271.021L477.567 270.721L477.484 278.6L506.028 278.9L506.111 271.021ZM513.384 263.899C513.342 267.874 510.086 271.062 506.111 271.021L506.028 278.9C514.355 278.988 521.176 272.308 521.264 263.982L513.384 263.899Z" fill="#333333" mask="url(#path-24-inside-3_901_802)"/>
<path d="M633.218 463.811L632.188 561.674C632.184 562.05 632.385 562.398 632.712 562.582L717.979 610.621C718.661 611.006 719.506 610.518 719.515 609.735L720.545 511.872C720.549 511.496 720.348 511.148 720.021 510.964L634.754 462.925C634.071 462.54 633.226 463.028 633.218 463.811Z" fill="#A4C954" stroke="#333333" stroke-width="3.94" stroke-linejoin="round"/>
<path d="M703.532 386.754L702.977 439.463C702.973 439.838 703.174 440.186 703.501 440.371L749.425 466.244C750.107 466.629 750.952 466.141 750.961 465.358L751.516 412.65C751.519 412.274 751.319 411.926 750.991 411.741L705.067 385.868C704.385 385.483 703.54 385.971 703.532 386.754Z" fill="white" stroke="#333333" stroke-width="3.94" stroke-linejoin="round"/>
<path d="M753.513 510.764L752.762 582.073C752.759 582.448 752.959 582.796 753.287 582.981L815.417 617.985C816.1 618.369 816.945 617.881 816.953 617.098L817.704 545.79C817.708 545.414 817.507 545.066 817.179 544.882L755.049 509.877C754.366 509.493 753.522 509.981 753.513 510.764Z" fill="#628026" stroke="#333333" stroke-width="3.94" stroke-linejoin="round"/>
<path d="M782.649 452.592L782.214 493.869C782.21 494.245 782.411 494.593 782.739 494.777L818.703 515.04C819.386 515.424 820.231 514.936 820.239 514.153L820.674 472.876C820.678 472.5 820.477 472.152 820.149 471.967L784.185 451.705C783.502 451.321 782.657 451.808 782.649 452.592Z" stroke="white" stroke-width="3.94" stroke-linejoin="round"/>
<path d="M742.381 613.885L816.875 574.33L816.875 603.485L787.204 618.626L801.952 626.934L763.929 646.531L784.413 658.07L705.919 678.615L743.688 655.637L724.842 645.021L761.227 624.501L742.381 613.885Z" fill="#A4C954" stroke="#333333" stroke-width="3.94"/>
<path d="M712.439 403.863L710.1 398.386L621.484 414.424C642.416 456.061 692.202 474.13 734.967 455.612L750.038 449.086L750.321 415.513C736.808 424.182 718.746 418.627 712.439 403.863Z" fill="#A4C954" stroke="#333333" stroke-width="3.94"/>
<path d="M684.282 361.953L682.358 362.375L682.787 364.298L687.903 387.191C689.183 392.921 694.87 396.546 700.605 395.288C706.339 394.03 709.951 388.365 708.67 382.635L705.744 369.537C704.298 363.065 697.874 358.971 691.397 360.392L684.282 361.953Z" fill="white" stroke="#333333" stroke-width="3.94"/>
<path d="M613.18 341.054L625.375 396.971C626.67 402.912 622.911 408.808 616.977 410.139C611.043 411.47 605.182 407.732 603.887 401.791L586.597 322.511C598.84 320.792 610.498 328.756 613.18 341.054Z" fill="white" stroke="#333333" stroke-width="3.94"/>
<path d="M707.732 378.034L707.315 376.109L705.389 376.526L605.057 398.255L603.131 398.672L603.548 400.597L604.296 404.049C610.526 432.818 638.899 451.089 667.669 444.859C696.438 438.628 714.71 410.255 708.479 381.486L707.732 378.034Z" fill="white" stroke="#333333" stroke-width="3.94"/>
<path d="M639.065 358.218L646.504 392.444C647.795 398.386 644.032 404.284 638.099 405.617C632.166 406.95 626.309 403.214 625.017 397.271L617.578 363.046C616.287 357.103 620.05 351.205 625.983 349.872C631.916 348.539 637.773 352.276 639.065 358.218Z" fill="white" stroke="#333333" stroke-width="3.94"/>
<path d="M660.252 354.319L667.572 387.984C668.864 393.926 665.102 399.824 659.169 401.158C653.236 402.492 647.378 398.756 646.086 392.814L638.766 359.149C637.474 353.207 641.237 347.308 647.17 345.974C653.103 344.641 658.96 348.377 660.252 354.319Z" fill="white" stroke="#333333" stroke-width="3.94"/>
<path d="M676.368 327.396L688.608 383.524C689.904 389.465 686.144 395.361 680.211 396.692C674.277 398.023 668.416 394.285 667.12 388.344L649.784 308.853C662.028 307.133 673.686 315.098 676.368 327.396Z" fill="white" stroke="#333333" stroke-width="3.94"/>
<path d="M663.748 318.004L663.925 318.816C664.597 321.897 662.647 324.954 659.57 325.644C656.493 326.335 653.454 324.396 652.782 321.315L650.126 309.136C656.324 307.864 662.394 311.796 663.748 318.004Z" fill="#A4C954" stroke="#333333" stroke-width="3.94"/>
<path d="M601.202 331.691L601.379 332.502C602.051 335.583 600.101 338.641 597.024 339.331C593.947 340.021 590.907 338.083 590.236 335.002L587.579 322.823C593.778 321.551 599.848 325.482 601.202 331.691Z" fill="#A4C954" stroke="#333333" stroke-width="3.94"/>
<path d="M682.304 377.417L704.539 372.602L707.039 384.142C709.143 393.858 702.972 403.44 693.256 405.545L688.613 406.55L682.304 377.417Z" fill="white"/>
<path d="M604.207 394.332L687.425 376.309L693.734 405.443L627.131 419.867C617.955 421.854 608.905 416.026 606.918 406.85L604.207 394.332Z" fill="white"/>
<path d="M498.105 640.325L719.867 515.726L718.559 610.752L631.511 654.542L675.392 679.307L562.166 737.549L623.112 771.944L389.416 832.913L501.896 764.607L445.824 732.962L554.176 671.969L498.105 640.325Z" fill="#C0A3FF" stroke="#333333" stroke-width="3.94"/>
<circle cx="827.283" cy="249.517" r="1.97" fill="white" stroke="white" stroke-width="2.98639"/>
</svg>
