<svg width="1080" height="1080" viewBox="0 0 1080 1080" fill="none" xmlns="http://www.w3.org/2000/svg">
<rect width="1080" height="1080" fill="#333333"/>
<path d="M718.608 257.189L717.534 359.141C717.53 359.517 717.731 359.865 718.059 360.049L806.889 410.096C807.571 410.481 808.416 409.993 808.424 409.21L809.498 307.257C809.502 306.881 809.301 306.533 808.974 306.349L720.143 256.302C719.461 255.918 718.616 256.405 718.608 257.189Z" fill="#628026" stroke="#333333" stroke-width="3.94" stroke-linejoin="round"/>
<path d="M390.081 570.728C394.17 569.013 398.808 569.194 402.751 571.224L768.408 759.489C779.735 765.321 779.094 781.727 767.345 786.657L643.768 838.511C639.679 840.227 635.04 840.045 631.098 838.015L265.441 649.751C254.113 643.919 254.755 627.513 266.503 622.583L390.081 570.728Z" fill="#628026" stroke="#333333" stroke-width="3.84"/>
<circle r="47.4106" transform="matrix(1 -8.74228e-08 -8.74228e-08 -1 320.71 388.047)" stroke="white" stroke-width="3.94"/>
<circle cx="737.822" cy="603.657" r="6.60693" transform="rotate(-140.278 737.822 603.657)" fill="white" stroke="white" stroke-width="3.94"/>
<circle cx="731.719" cy="580.021" r="1.97" transform="rotate(-140.278 731.719 580.021)" fill="white" stroke="white" stroke-width="3.28175"/>
<circle cx="737.822" cy="603.656" r="6.60693" transform="rotate(-140.278 737.822 603.656)" fill="white" stroke="white" stroke-width="3.94"/>
<circle cx="731.719" cy="580.021" r="1.97" transform="rotate(-140.278 731.719 580.021)" fill="white" stroke="white" stroke-width="3.28175"/>
<circle cx="321.102" cy="224.181" r="1.97" transform="rotate(-140.278 321.102 224.181)" fill="white" stroke="white" stroke-width="3.28175"/>
<path d="M425.634 267.051L405.053 223.713" stroke="white" stroke-width="3.94"/>
<path d="M315.5 493.28L304.83 484.946C304.534 484.714 304.136 484.662 303.79 484.811L291.347 490.146C290.627 490.455 290.502 491.422 291.119 491.905L301.788 500.24C302.084 500.471 302.483 500.523 302.828 500.375L315.272 495.039C315.992 494.73 316.117 493.763 315.5 493.28Z" stroke="white" stroke-width="3.94" stroke-linejoin="round"/>
<path d="M572.546 208.623L557.294 218.325C556.977 218.527 556.795 218.885 556.819 219.26L557.976 237.3C558.026 238.081 558.896 238.523 559.557 238.103L574.808 228.4C575.125 228.199 575.307 227.84 575.283 227.465L574.127 209.426C574.077 208.644 573.207 208.202 572.546 208.623Z" stroke="white" stroke-width="3.94" stroke-linejoin="round"/>
<path fill-rule="evenodd" clip-rule="evenodd" d="M703.483 371.84C680.916 384.844 662.644 404.163 650.919 427.421L612.244 504.132L645.67 520.984C645.67 520.984 692.886 434.024 702.318 408.624C711.749 383.223 703.483 371.84 703.483 371.84ZM536.333 332.795C536.434 332.594 536.536 332.393 536.639 332.192L536.88 331.713L536.884 331.716C545.205 315.698 557.994 302.425 573.712 293.516C589.782 284.408 608.191 280.27 626.613 281.624C645.035 282.979 662.642 289.766 677.206 301.127C679.296 302.757 681.309 304.47 683.242 306.261C704.656 326.104 705.357 374.754 676.665 380.146C675.873 380.294 676.002 378.298 676.203 375.172C676.498 370.59 676.949 363.583 674.888 357.347C671.42 346.857 662.836 337.514 654.124 330.718C645.412 323.922 634.88 319.862 623.861 319.052C612.842 318.242 601.83 320.717 592.217 326.166C582.605 331.614 574.824 339.79 569.858 349.661L569.775 349.619L513.659 460.926L480.233 444.074L536.334 332.796L536.333 332.795Z" fill="#628026"/>
<path d="M650.919 427.421L649.204 426.556L650.919 427.421ZM703.483 371.84L705.036 370.712L704.021 369.314L702.524 370.177L703.483 371.84ZM612.244 504.132L610.53 503.268L609.666 504.982L611.38 505.847L612.244 504.132ZM645.67 520.984L644.806 522.699L646.469 523.537L647.358 521.9L645.67 520.984ZM536.639 332.192L538.348 333.067L538.353 333.056L536.639 332.192ZM536.333 332.795L534.617 331.932L533.755 333.646L535.468 334.509L536.333 332.795ZM536.88 331.713L537.744 329.999L536.03 329.135L535.166 330.849L536.88 331.713ZM536.884 331.716L536.02 333.43L537.714 334.284L538.588 332.601L536.884 331.716ZM573.712 293.516L572.765 291.846L572.765 291.846L573.712 293.516ZM626.613 281.624L626.473 283.539L626.473 283.539L626.613 281.624ZM677.206 301.127L676.025 302.641L676.025 302.641L677.206 301.127ZM683.242 306.261L681.937 307.67L681.937 307.67L683.242 306.261ZM676.665 380.146L676.311 378.259L676.311 378.259L676.665 380.146ZM676.203 375.172L678.119 375.295L678.119 375.295L676.203 375.172ZM674.888 357.347L673.065 357.95L673.065 357.95L674.888 357.347ZM623.861 319.052L624.002 317.137L624.002 317.137L623.861 319.052ZM592.217 326.166L591.27 324.495L591.27 324.495L592.217 326.166ZM569.858 349.661L568.995 351.376L570.71 352.239L571.573 350.524L569.858 349.661ZM569.775 349.619L570.638 347.904L568.924 347.042L568.06 348.755L569.775 349.619ZM513.659 460.926L512.795 462.64L514.509 463.504L515.373 461.79L513.659 460.926ZM480.233 444.074L478.518 443.209L477.654 444.924L479.369 445.788L480.233 444.074ZM536.334 332.796L538.049 333.66L538.913 331.946L537.199 331.081L536.334 332.796ZM652.633 428.285C664.19 405.362 682.199 386.32 704.441 373.504L702.524 370.177C679.632 383.367 661.098 402.965 649.204 426.556L652.633 428.285ZM613.959 504.997L652.633 428.285L649.204 426.556L610.53 503.268L613.959 504.997ZM646.535 519.27L613.109 502.418L611.38 505.847L644.806 522.699L646.535 519.27ZM700.518 407.956C695.853 420.517 681.759 448.484 668.754 473.442C662.267 485.892 656.074 497.549 651.502 506.094C649.217 510.367 647.336 513.861 646.028 516.286C645.374 517.499 644.862 518.445 644.515 519.087C644.341 519.409 644.208 519.654 644.118 519.819C644.074 519.901 644.04 519.964 644.017 520.005C644.006 520.026 643.997 520.042 643.992 520.052C643.989 520.058 643.987 520.062 643.985 520.064C643.984 520.066 643.984 520.066 643.984 520.067C643.983 520.068 643.983 520.068 645.67 520.984C647.358 521.9 647.358 521.9 647.358 521.899C647.359 521.899 647.359 521.898 647.36 521.896C647.361 521.894 647.364 521.89 647.367 521.884C647.372 521.874 647.381 521.858 647.392 521.837C647.415 521.795 647.449 521.732 647.494 521.649C647.584 521.483 647.717 521.237 647.891 520.915C648.24 520.272 648.752 519.324 649.407 518.11C650.718 515.681 652.6 512.182 654.888 507.906C659.464 499.352 665.664 487.682 672.16 475.217C685.12 450.344 699.35 422.131 704.117 409.292L700.518 407.956ZM703.483 371.84C701.929 372.968 701.928 372.967 701.928 372.966C701.927 372.966 701.927 372.965 701.926 372.964C701.925 372.963 701.924 372.962 701.924 372.961C701.922 372.959 701.922 372.958 701.921 372.957C701.92 372.956 701.922 372.958 701.925 372.962C701.931 372.971 701.944 372.99 701.964 373.021C702.004 373.082 702.069 373.187 702.155 373.336C702.327 373.635 702.58 374.112 702.862 374.772C703.428 376.091 704.119 378.148 704.538 380.987C705.373 386.653 705.134 395.523 700.518 407.956L704.117 409.292C708.933 396.324 709.276 386.802 708.337 380.427C707.868 377.245 707.082 374.868 706.392 373.259C706.047 372.455 705.727 371.844 705.484 371.421C705.362 371.21 705.26 371.046 705.183 370.928C705.145 370.869 705.113 370.821 705.088 370.785C705.076 370.767 705.065 370.752 705.057 370.74C705.052 370.734 705.048 370.729 705.045 370.724C705.043 370.722 705.042 370.719 705.04 370.717C705.04 370.716 705.039 370.715 705.038 370.715C705.037 370.713 705.036 370.712 703.483 371.84ZM534.93 331.317C534.825 331.521 534.721 331.727 534.617 331.932L538.048 333.658C538.147 333.461 538.247 333.264 538.347 333.067L534.93 331.317ZM535.166 330.849L534.924 331.328L538.353 333.056L538.594 332.578L535.166 330.849ZM537.749 330.001L537.744 329.999L536.016 333.428L536.02 333.43L537.749 330.001ZM572.765 291.846C556.724 300.938 543.672 314.483 535.181 330.831L538.588 332.601C546.738 316.912 559.263 303.913 574.658 295.187L572.765 291.846ZM626.754 279.709C607.954 278.327 589.165 282.551 572.765 291.846L574.658 295.187C590.398 286.266 608.429 282.212 626.473 283.539L626.754 279.709ZM678.387 299.613C663.523 288.018 645.555 281.092 626.754 279.709L626.473 283.539C644.516 284.866 661.76 291.513 676.025 302.641L678.387 299.613ZM684.547 304.853C682.574 303.025 680.52 301.276 678.387 299.613L676.025 302.641C678.072 304.237 680.044 305.915 681.937 307.67L684.547 304.853ZM677.02 382.033C692.656 379.095 699.909 364.412 700.661 348.715C701.416 332.974 695.764 315.247 684.547 304.853L681.937 307.67C692.134 317.118 697.54 333.638 696.826 348.531C696.11 363.467 689.367 375.805 676.311 378.259L677.02 382.033ZM674.287 375.048C674.19 376.559 674.096 377.972 674.144 378.979C674.166 379.444 674.225 380.089 674.478 380.655C674.614 380.96 674.875 381.397 675.368 381.716C675.911 382.067 676.51 382.128 677.02 382.033L676.311 378.259C676.622 378.2 677.052 378.232 677.452 378.49C677.801 378.716 677.943 378.997 677.983 379.087C678.044 379.223 677.999 379.201 677.979 378.795C677.944 378.059 678.015 376.911 678.119 375.295L674.287 375.048ZM673.065 357.95C674.992 363.778 674.586 370.414 674.287 375.048L678.119 375.295C678.411 370.767 678.907 363.389 676.711 356.745L673.065 357.95ZM652.943 332.232C661.522 338.923 669.768 347.978 673.065 357.95L676.711 356.745C673.071 345.735 664.151 336.104 655.305 329.204L652.943 332.232ZM623.72 320.967C634.361 321.749 644.531 325.67 652.943 332.232L655.305 329.204C646.294 322.175 635.4 317.975 624.002 317.137L623.72 320.967ZM593.164 327.836C602.446 322.575 613.08 320.184 623.72 320.967L624.002 317.137C612.604 316.299 601.213 318.86 591.27 324.495L593.164 327.836ZM571.573 350.524C576.368 340.992 583.882 333.097 593.164 327.836L591.27 324.495C581.327 330.131 573.279 338.588 568.143 348.798L571.573 350.524ZM568.912 351.334L568.995 351.376L570.721 347.945L570.638 347.904L568.912 351.334ZM515.373 461.79L571.489 350.483L568.06 348.755L511.945 460.061L515.373 461.79ZM479.369 445.788L512.795 462.64L514.523 459.211L481.097 442.359L479.369 445.788ZM534.62 331.931L478.518 443.209L481.947 444.938L538.049 333.66L534.62 331.931ZM535.468 334.509L535.47 334.51L537.199 331.081L537.197 331.081L535.468 334.509Z" fill="#333333"/>
<path d="M451.056 445.056C454.892 438.855 462.633 436.311 469.4 439.027L678.041 522.779C681.538 524.183 684.379 526.851 685.998 530.254L694.856 548.866C696.842 553.041 696.793 557.898 694.722 562.031L608.02 735.08C604.302 742.5 595.266 745.491 587.856 741.755L368.831 631.333C363.979 628.886 360.829 624.007 360.597 618.578L359.705 597.659C359.577 594.657 360.354 591.685 361.935 589.129L451.056 445.056Z" fill="white" stroke="#333333" stroke-width="3.84"/>
<path d="M443.984 418.883C447.714 411.486 456.734 408.512 464.131 412.242L677.654 519.89C685.051 523.62 688.025 532.64 684.295 540.037L599.981 707.275C596.252 714.673 587.232 717.646 579.835 713.917L366.312 606.268C358.915 602.539 355.941 593.519 359.671 586.121L443.984 418.883Z" fill="#FFA462" stroke="#333333" stroke-width="3.84"/>
<mask id="path-16-inside-1_901_660" fill="white">
<path fill-rule="evenodd" clip-rule="evenodd" d="M533.705 591.454C549.55 590.478 564.468 581.348 572.13 566.15C583.607 543.385 574.457 515.626 551.691 504.149C528.926 492.672 501.167 501.822 489.69 524.588C482.029 539.783 483.559 557.203 492.193 570.521L464.371 607.937L520.171 636.069L533.705 591.454Z"/>
</mask>
<path fill-rule="evenodd" clip-rule="evenodd" d="M533.705 591.454C549.55 590.478 564.468 581.348 572.13 566.15C583.607 543.385 574.457 515.626 551.691 504.149C528.926 492.672 501.167 501.822 489.69 524.588C482.029 539.783 483.559 557.203 492.193 570.521L464.371 607.937L520.171 636.069L533.705 591.454Z" fill="#333333"/>
<path d="M533.705 591.454L533.463 587.522L530.73 587.69L529.935 590.31L533.705 591.454ZM492.193 570.521L495.355 572.872L496.988 570.675L495.499 568.378L492.193 570.521ZM464.371 607.937L461.209 605.586L458.413 609.346L462.597 611.455L464.371 607.937ZM520.171 636.069L518.397 639.587L522.581 641.696L523.941 637.212L520.171 636.069ZM568.612 564.377C561.606 578.273 547.967 586.628 533.463 587.522L533.948 595.387C551.133 594.328 567.33 584.423 575.648 567.924L568.612 564.377ZM549.918 507.667C570.74 518.165 579.11 543.554 568.612 564.377L575.648 567.924C588.105 543.216 578.173 513.088 553.465 500.631L549.918 507.667ZM493.208 526.361C503.706 505.539 529.095 497.169 549.918 507.667L553.465 500.631C528.757 488.174 498.629 498.106 486.172 522.814L493.208 526.361ZM495.499 568.378C487.595 556.187 486.203 540.255 493.208 526.361L486.172 522.814C477.855 539.311 479.522 558.22 488.887 572.665L495.499 568.378ZM467.533 610.288L495.355 572.872L489.031 568.17L461.209 605.586L467.533 610.288ZM521.945 632.55L466.145 604.419L462.597 611.455L518.397 639.587L521.945 632.55ZM529.935 590.31L516.401 634.925L523.941 637.212L537.476 592.598L529.935 590.31Z" fill="#333333" mask="url(#path-16-inside-1_901_660)"/>
<mask id="mask0_901_660" style="mask-type:alpha" maskUnits="userSpaceOnUse" x="488" y="508" width="104" height="61">
<path fill-rule="evenodd" clip-rule="evenodd" d="M488.001 535.677C499.183 518.265 519.163 507.21 541.299 508.449C563.434 509.688 582.056 522.903 591.225 541.454C580.043 558.865 560.063 569.921 537.927 568.682C515.792 567.443 497.171 554.227 488.001 535.677Z" fill="#C4C4C4"/>
</mask>
<g mask="url(#mask0_901_660)">
<circle cx="539.616" cy="538.562" r="23.843" transform="rotate(3.20338 539.616 538.562)" fill="#A4C954" stroke="#333333" stroke-width="3.84"/>
<circle cx="539.615" cy="538.562" r="12.8323" transform="rotate(3.20338 539.615 538.562)" fill="#333333"/>
</g>
<rect x="542.189" y="531.741" width="6.43611" height="6.95673" rx="3.21805" transform="rotate(3.20338 542.189 531.741)" fill="white"/>
<path fill-rule="evenodd" clip-rule="evenodd" d="M584.337 586.243C589.771 591.668 589.781 600.473 584.357 605.909L554.989 576.595C552.272 573.882 552.267 569.48 554.979 566.762C557.691 564.043 562.092 564.039 564.809 566.751L584.337 586.243ZM568.825 590.905C574.26 596.33 574.269 605.135 568.846 610.572L543.636 585.406C540.918 582.694 540.914 578.291 543.626 575.573C546.337 572.855 550.739 572.85 553.456 575.563L568.825 590.905ZM546.574 608.179C551.997 602.743 551.988 593.938 546.554 588.512L539.264 581.236C536.547 578.523 532.146 578.528 529.434 581.246C526.722 583.964 526.726 588.367 529.444 591.079L546.574 608.179ZM586.244 568.06C591.679 573.485 591.688 582.29 586.265 587.726L562.165 563.67C559.448 560.957 559.444 556.555 562.155 553.836C564.867 551.118 569.268 551.114 571.986 553.826L586.244 568.06Z" fill="white"/>
<path d="M584.357 605.909L585.755 607.298L584.36 608.696L582.963 607.301L584.357 605.909ZM584.337 586.243L585.731 584.851L585.731 584.851L584.337 586.243ZM554.989 576.595L556.384 575.203L556.384 575.203L554.989 576.595ZM554.979 566.762L556.376 568.15L556.376 568.15L554.979 566.762ZM564.809 566.751L563.415 568.143L563.415 568.143L564.809 566.751ZM568.846 610.572L570.243 611.961L568.848 613.358L567.451 611.964L568.846 610.572ZM568.825 590.905L567.431 592.297L567.431 592.297L568.825 590.905ZM543.636 585.406L545.03 584.015L545.03 584.015L543.636 585.406ZM543.626 575.573L542.229 574.184L542.229 574.184L543.626 575.573ZM553.456 575.563L552.062 576.955L552.062 576.955L553.456 575.563ZM546.554 588.512L547.948 587.121L547.948 587.121L546.554 588.512ZM546.574 608.179L547.971 609.568L546.577 610.965L545.18 609.571L546.574 608.179ZM539.264 581.236L540.658 579.844L540.658 579.844L539.264 581.236ZM529.434 581.246L528.037 579.857L528.037 579.857L529.434 581.246ZM529.444 591.079L528.05 592.471L529.444 591.079ZM586.265 587.726L587.662 589.115L586.267 590.513L584.87 589.118L586.265 587.726ZM586.244 568.06L587.639 566.668L587.639 566.668L586.244 568.06ZM562.165 563.67L563.56 562.278L563.56 562.278L562.165 563.67ZM562.155 553.836L560.758 552.448L560.758 552.448L562.155 553.836ZM571.986 553.826L573.38 552.435L573.38 552.435L571.986 553.826ZM582.96 604.521C587.616 599.853 587.608 592.292 582.942 587.635L585.731 584.851C591.935 591.044 591.945 601.093 585.755 607.298L582.96 604.521ZM556.384 575.203L585.752 604.518L582.963 607.301L553.595 577.987L556.384 575.203ZM556.376 568.15C554.432 570.1 554.435 573.258 556.384 575.203L553.595 577.987C550.109 574.507 550.103 568.86 553.582 565.373L556.376 568.15ZM563.415 568.143C561.469 566.2 558.318 566.204 556.376 568.15L553.582 565.373C557.063 561.883 562.715 561.877 566.204 565.359L563.415 568.143ZM582.942 587.635L563.415 568.143L566.204 565.359L585.731 584.851L582.942 587.635ZM567.448 609.183C572.105 604.516 572.097 596.955 567.431 592.297L570.22 589.514C576.423 595.706 576.434 605.755 570.243 611.961L567.448 609.183ZM545.03 584.015L570.24 609.18L567.451 611.964L542.241 586.798L545.03 584.015ZM545.023 576.962C543.078 578.911 543.082 582.07 545.03 584.015L542.241 586.798C538.755 583.318 538.749 577.671 542.229 574.184L545.023 576.962ZM552.062 576.955C550.116 575.012 546.965 575.015 545.023 576.962L542.229 574.184C545.71 570.695 551.362 570.689 554.85 574.171L552.062 576.955ZM567.431 592.297L552.062 576.955L554.85 574.171L570.22 589.514L567.431 592.297ZM547.948 587.121C554.152 593.313 554.162 603.362 547.971 609.568L545.177 606.79C549.833 602.123 549.825 594.562 545.159 589.904L547.948 587.121ZM540.658 579.844L547.948 587.121L545.159 589.904L537.87 582.628L540.658 579.844ZM528.037 579.857C531.518 576.367 537.17 576.362 540.658 579.844L537.87 582.628C535.924 580.685 532.773 580.688 530.831 582.635L528.037 579.857ZM528.05 592.471C524.563 588.991 524.558 583.344 528.037 579.857L530.831 582.635C528.886 584.584 528.89 587.742 530.838 589.687L528.05 592.471ZM545.18 609.571L528.05 592.471L530.838 589.687L547.968 606.787L545.18 609.571ZM584.867 586.337C589.524 581.67 589.516 574.109 584.85 569.451L587.639 566.668C593.842 572.861 593.853 582.91 587.662 589.115L584.867 586.337ZM563.56 562.278L587.659 586.335L584.87 589.118L560.771 565.061L563.56 562.278ZM563.553 555.225C561.608 557.174 561.611 560.333 563.56 562.278L560.771 565.061C557.285 561.581 557.279 555.935 560.758 552.448L563.553 555.225ZM570.591 555.218C568.645 553.275 565.495 553.278 563.553 555.225L560.758 552.448C564.24 548.958 569.892 548.952 573.38 552.435L570.591 555.218ZM584.85 569.451L570.591 555.218L573.38 552.435L587.639 566.668L584.85 569.451Z" fill="#333333"/>
<path d="M652.116 321.267L741.948 270.329L796.038 300.028L741.336 329.723L770.84 345.922L695.664 385.709L736.641 408.208L581.019 450.755L655.617 404.252L617.918 383.552L689.816 341.967L652.116 321.267Z" fill="white" stroke="#333333" stroke-width="3.94"/>
<path d="M716.065 781.89L719.856 780.82C719.441 779.316 717.217 768.63 721.645 754.776C726.049 740.995 737.097 723.874 763.532 709.467C782.573 699.091 791.824 690.761 795.645 683.547C797.59 679.876 798.118 676.514 797.829 673.406C797.545 670.347 796.478 667.635 795.412 665.269C794.532 663.316 791.728 659.359 787.387 656.336C782.975 653.264 776.826 651.061 769.42 653.054C755.41 656.825 738.375 667.453 723.842 694.719C716.748 708.028 702.739 735.7 716.065 781.89Z" fill="#A4C954" stroke="#333333" stroke-width="3.94" stroke-linecap="round"/>
<path d="M719.258 788.882L715.467 787.808C715.608 787.299 716.574 782.796 714.7 776.912C712.85 771.101 708.168 763.739 696.71 757.479C688.257 752.862 683.917 749.043 682.07 745.547C681.112 743.734 680.836 742.033 680.986 740.444C681.13 738.904 681.666 737.569 682.151 736.495C682.627 735.443 684.002 733.541 686.08 732.097C688.228 730.604 691.28 729.505 694.943 730.495C701.468 732.258 709.23 737.19 715.772 749.493C718.97 755.508 725.286 768.066 719.258 788.882Z" fill="#A4C954" stroke="#333333" stroke-width="3.94" stroke-linecap="round"/>
<path d="M309.278 651.334L305.488 650.26C305.775 649.223 307.414 641.441 304.192 631.325C300.994 621.282 292.943 608.735 273.545 598.138C259.479 590.454 252.538 584.236 249.647 578.765C248.167 575.965 247.759 573.382 247.984 570.987C248.204 568.642 249.024 566.576 249.818 564.817C250.509 563.288 252.645 560.297 255.925 558.017C259.277 555.688 263.974 554.007 269.621 555.533C280.117 558.369 292.794 566.333 303.562 586.585C308.821 596.475 319.204 617.06 309.278 651.334Z" fill="#A4C954" stroke="#333333" stroke-width="3.94" stroke-linecap="round"/>
<path d="M476.873 557.197C448.772 567.495 439.671 567.343 424.907 527.057L470.914 510.197C471.904 512.898 473.809 515.218 478.173 514.484C480.046 511.153 482.702 507.98 486.214 505.066L493.97 507.4C495.774 507.942 497.585 509.553 498.442 511.23C500.49 515.237 504.04 523.286 503.544 535.763C503.373 540.068 495.905 550.222 476.873 557.197Z" fill="white"/>
<path d="M476.619 538.139C473.72 530.23 473.971 521.96 478.173 514.484M478.173 514.484C480.046 511.153 482.702 507.98 486.214 505.066L493.97 507.4C495.774 507.942 497.585 509.553 498.442 511.23C500.49 515.237 504.04 523.286 503.544 535.763C503.373 540.068 495.905 550.222 476.873 557.197C448.772 567.495 439.671 567.343 424.907 527.057L470.914 510.197C471.904 512.898 473.809 515.218 478.173 514.484Z" stroke="#333333" stroke-width="3.94"/>
<mask id="path-30-outside-2_901_660" maskUnits="userSpaceOnUse" x="405.083" y="447.207" width="102.262" height="147.762" fill="black">
<rect fill="white" x="405.083" y="447.207" width="102.262" height="147.762"/>
<path fill-rule="evenodd" clip-rule="evenodd" d="M445.153 458.053L467.472 454.144C474.574 452.9 481.339 457.649 482.583 464.751L500.055 564.513C501.299 571.615 496.55 578.38 489.448 579.624L444.548 587.487C437.446 588.731 430.681 583.982 429.437 576.881L411.965 477.118C410.721 470.017 415.47 463.251 422.572 462.007L444.89 458.099C444.933 458.09 444.977 458.081 445.021 458.074C445.065 458.066 445.109 458.059 445.153 458.053Z"/>
</mask>
<path fill-rule="evenodd" clip-rule="evenodd" d="M445.153 458.053L467.472 454.144C474.574 452.9 481.339 457.649 482.583 464.751L500.055 564.513C501.299 571.615 496.55 578.38 489.448 579.624L444.548 587.487C437.446 588.731 430.681 583.982 429.437 576.881L411.965 477.118C410.721 470.017 415.47 463.251 422.572 462.007L444.89 458.099C444.933 458.09 444.977 458.081 445.021 458.074C445.065 458.066 445.109 458.059 445.153 458.053Z" fill="#333333"/>
<path d="M445.153 458.053L445.708 461.954L445.77 461.945L445.832 461.934L445.153 458.053ZM444.89 458.099L445.569 461.98L445.632 461.969L445.693 461.956L444.89 458.099ZM445.832 461.934L468.152 458.025L466.793 450.263L444.473 454.172L445.832 461.934ZM468.152 458.025C473.11 457.156 477.834 460.472 478.702 465.43L486.464 464.071C484.845 454.826 476.038 448.644 466.793 450.263L468.152 458.025ZM478.702 465.43L496.174 565.193L503.936 563.833L486.464 464.071L478.702 465.43ZM496.174 565.193C497.043 570.151 493.727 574.874 488.769 575.743L490.128 583.505C499.373 581.886 505.555 573.078 503.936 563.833L496.174 565.193ZM488.769 575.743L443.868 583.606L445.228 591.368L490.128 583.505L488.769 575.743ZM443.868 583.606C438.91 584.475 434.187 581.159 433.318 576.201L425.556 577.56C427.175 586.805 435.983 592.988 445.228 591.368L443.868 583.606ZM433.318 576.201L415.846 476.439L408.084 477.798L425.556 577.56L433.318 576.201ZM415.846 476.439C414.978 471.48 418.293 466.757 423.252 465.888L421.892 458.127C412.647 459.746 406.465 468.553 408.084 477.798L415.846 476.439ZM423.252 465.888L445.569 461.98L444.21 454.218L421.892 458.127L423.252 465.888ZM445.693 461.956C445.696 461.956 445.698 461.955 445.7 461.955L444.341 454.193C444.256 454.208 444.17 454.224 444.086 454.242L445.693 461.956ZM445.7 461.955C445.703 461.954 445.705 461.954 445.708 461.954L444.598 454.152C444.512 454.164 444.427 454.178 444.341 454.193L445.7 461.955Z" fill="#333333" mask="url(#path-30-outside-2_901_660)"/>
<mask id="path-32-outside-3_901_660" maskUnits="userSpaceOnUse" x="402.349" y="444.861" width="102.262" height="147.762" fill="black">
<rect fill="white" x="402.349" y="444.861" width="102.262" height="147.762"/>
<path fill-rule="evenodd" clip-rule="evenodd" d="M419.838 459.66C412.736 460.904 407.987 467.669 409.231 474.771L426.703 574.533C427.947 581.635 434.712 586.384 441.814 585.14L486.714 577.276C493.816 576.033 498.565 569.267 497.321 562.166L479.849 462.403C478.605 455.302 471.84 450.553 464.738 451.796L419.838 459.66Z"/>
</mask>
<path fill-rule="evenodd" clip-rule="evenodd" d="M419.838 459.66C412.736 460.904 407.987 467.669 409.231 474.771L426.703 574.533C427.947 581.635 434.712 586.384 441.814 585.14L486.714 577.276C493.816 576.033 498.565 569.267 497.321 562.166L479.849 462.403C478.605 455.302 471.84 450.553 464.738 451.796L419.838 459.66Z" fill="#A4C954"/>
<path d="M419.838 459.66L420.517 463.541L419.838 459.66ZM441.814 585.14L441.134 581.259L441.814 585.14ZM486.714 577.276L487.394 581.157L486.714 577.276ZM479.849 462.403L475.968 463.083L479.849 462.403ZM464.738 451.796L464.058 447.916L464.738 451.796ZM413.112 474.091C412.243 469.133 415.559 464.409 420.517 463.541L419.158 455.779C409.913 457.398 403.731 466.206 405.35 475.451L413.112 474.091ZM430.584 573.854L413.112 474.091L405.35 475.451L422.822 575.213L430.584 573.854ZM441.134 581.259C436.176 582.128 431.452 578.812 430.584 573.854L422.822 575.213C424.441 584.458 433.248 590.64 442.494 589.021L441.134 581.259ZM486.034 573.396L441.134 581.259L442.494 589.021L487.394 581.157L486.034 573.396ZM493.44 562.845C494.308 567.804 490.993 572.527 486.034 573.396L487.394 581.157C496.639 579.538 502.821 570.731 501.202 561.486L493.44 562.845ZM475.968 463.083L493.44 562.845L501.202 561.486L483.73 461.724L475.968 463.083ZM465.418 455.677C470.376 454.809 475.1 458.125 475.968 463.083L483.73 461.724C482.111 452.478 473.303 446.296 464.058 447.916L465.418 455.677ZM420.517 463.541L465.418 455.677L464.058 447.916L419.158 455.779L420.517 463.541Z" fill="#333333" mask="url(#path-32-outside-3_901_660)"/>
<circle cx="422.53" cy="472.334" r="3.97356" transform="rotate(-9.93383 422.53 472.334)" fill="#333333"/>
<path d="M435.749 467.045L452.285 464.149" stroke="#333333" stroke-width="3.94" stroke-linejoin="round"/>
<path fill-rule="evenodd" clip-rule="evenodd" d="M444.042 531.484C451.196 530.269 457.982 535.084 459.198 542.238L420.542 548.8C416.965 549.407 413.572 547 412.964 543.423C412.356 539.846 414.762 536.454 418.339 535.847L444.042 531.484ZM440.825 545.674C447.979 544.46 454.764 549.275 455.98 556.428L422.796 562.061C419.219 562.668 415.826 560.26 415.218 556.684C414.61 553.107 417.017 549.715 420.594 549.108L440.825 545.674ZM447.601 571.496C446.384 564.342 439.599 559.527 432.445 560.742L422.85 562.37C419.273 562.977 416.866 566.369 417.474 569.946C418.082 573.523 421.475 575.93 425.052 575.323L447.601 571.496ZM434.853 519.397C442.007 518.183 448.793 522.998 450.009 530.151L418.287 535.536C414.71 536.143 411.317 533.735 410.709 530.159C410.101 526.582 412.508 523.19 416.085 522.583L434.853 519.397Z" fill="white"/>
<path d="M459.198 542.238L461.14 541.904L461.471 543.85L459.525 544.18L459.198 542.238ZM444.042 531.484L443.716 529.541L443.716 529.541L444.042 531.484ZM420.542 548.8L420.868 550.743L420.868 550.743L420.542 548.8ZM412.964 543.423L414.905 543.089L412.964 543.423ZM418.339 535.847L418.665 537.79L418.665 537.79L418.339 535.847ZM455.98 556.428L457.922 556.095L458.253 558.041L456.306 558.371L455.98 556.428ZM440.825 545.674L441.151 547.617L441.151 547.617L440.825 545.674ZM422.796 562.061L422.47 560.118L422.47 560.118L422.796 562.061ZM415.218 556.684L413.277 557.017L413.277 557.017L415.218 556.684ZM420.594 549.108L420.267 547.165L420.267 547.165L420.594 549.108ZM432.445 560.742L432.119 558.799L432.119 558.799L432.445 560.742ZM447.601 571.496L449.542 571.162L449.873 573.108L447.927 573.439L447.601 571.496ZM422.85 562.37L422.523 560.427L422.85 562.37ZM417.474 569.946L415.532 570.279L415.532 570.279L417.474 569.946ZM425.052 575.323L425.378 577.266L425.052 575.323ZM450.009 530.151L451.951 529.818L452.282 531.764L450.335 532.094L450.009 530.151ZM434.853 519.397L434.527 517.455L434.527 517.455L434.853 519.397ZM418.287 535.536L417.961 533.593L417.961 533.593L418.287 535.536ZM410.709 530.159L408.768 530.492L408.768 530.492L410.709 530.159ZM416.085 522.583L416.411 524.526L416.411 524.526L416.085 522.583ZM457.257 542.571C456.222 536.489 450.451 532.394 444.369 533.427L443.716 529.541C451.941 528.145 459.741 533.679 461.14 541.904L457.257 542.571ZM420.216 546.857L458.872 540.295L459.525 544.18L420.868 550.743L420.216 546.857ZM414.905 543.089C415.332 545.595 417.71 547.282 420.216 546.857L420.868 550.743C416.22 551.532 411.813 548.405 411.022 543.757L414.905 543.089ZM418.665 537.79C416.163 538.215 414.48 540.587 414.905 543.089L411.022 543.757C410.231 539.106 413.362 534.694 418.013 533.904L418.665 537.79ZM444.369 533.427L418.665 537.79L418.013 533.904L443.716 529.541L444.369 533.427ZM454.039 556.762C453.005 550.679 447.234 546.585 441.151 547.617L440.499 543.731C448.724 542.335 456.523 547.87 457.922 556.095L454.039 556.762ZM422.47 560.118L455.654 554.485L456.306 558.371L423.122 564.003L422.47 560.118ZM417.16 556.35C417.586 558.856 419.964 560.543 422.47 560.118L423.122 564.003C418.474 564.792 414.067 561.665 413.277 557.017L417.16 556.35ZM420.92 551.051C418.417 551.476 416.734 553.847 417.16 556.35L413.277 557.017C412.486 552.366 415.616 547.955 420.267 547.165L420.92 551.051ZM441.151 547.617L420.92 551.051L420.267 547.165L440.499 543.731L441.151 547.617ZM432.119 558.799C440.344 557.403 448.144 562.937 449.542 571.162L445.659 571.829C444.625 565.747 438.854 561.652 432.771 562.684L432.119 558.799ZM422.523 560.427L432.119 558.799L432.771 562.684L423.176 564.313L422.523 560.427ZM415.532 570.279C414.742 565.628 417.872 561.217 422.523 560.427L423.176 564.313C420.673 564.738 418.99 567.109 419.416 569.612L415.532 570.279ZM425.378 577.266C420.73 578.055 416.323 574.927 415.532 570.279L419.416 569.612C419.842 572.118 422.22 573.805 424.726 573.38L425.378 577.266ZM447.927 573.439L425.378 577.266L424.726 573.38L447.274 569.553L447.927 573.439ZM448.068 530.485C447.033 524.403 441.262 520.308 435.18 521.34L434.527 517.455C442.752 516.059 450.552 521.593 451.951 529.818L448.068 530.485ZM417.961 533.593L449.683 528.209L450.335 532.094L418.613 537.478L417.961 533.593ZM412.651 529.825C413.077 532.331 415.455 534.018 417.961 533.593L418.613 537.478C413.965 538.267 409.558 535.14 408.768 530.492L412.651 529.825ZM416.411 524.526C413.908 524.951 412.225 527.322 412.651 529.825L408.768 530.492C407.977 525.841 411.107 521.43 415.758 520.64L416.411 524.526ZM435.18 521.34L416.411 524.526L415.758 520.64L434.527 517.455L435.18 521.34Z" fill="#333333"/>
<path d="M484.083 517.813L490.983 516.604C494.578 515.975 496.981 512.551 496.352 508.956C495.722 505.361 492.298 502.958 488.703 503.587L468.401 507.143C469.873 514.331 476.809 519.087 484.083 517.813Z" fill="white" stroke="#333333" stroke-width="3.94"/>
<path d="M764.935 425.136L764.479 468.466C764.475 468.842 764.676 469.19 765.003 469.374L802.756 490.644C803.438 491.029 804.283 490.541 804.291 489.757L804.748 446.428C804.752 446.052 804.551 445.704 804.223 445.52L766.471 424.25C765.788 423.865 764.943 424.353 764.935 425.136Z" fill="#A4C954" stroke="#333333" stroke-width="3.94" stroke-linejoin="round"/>
<path d="M779.02 515.772L778.766 539.924C778.762 540.3 778.963 540.648 779.29 540.833L800.334 552.689C801.016 553.073 801.861 552.585 801.869 551.802L802.124 527.65C802.128 527.274 801.927 526.926 801.599 526.741L780.555 514.885C779.873 514.501 779.028 514.989 779.02 515.772Z" fill="#333333" stroke="white" stroke-width="3.94" stroke-linejoin="round"/>
<circle cx="421.176" cy="794.311" r="21.0571" transform="rotate(-162.215 421.176 794.311)" stroke="white" stroke-width="3.94"/>
<circle cx="372.752" cy="806.683" r="4.08608" transform="rotate(-162.215 372.752 806.683)" fill="white" stroke="white" stroke-width="3.94"/>
<path d="M250.409 762.376L292.249 736.76" stroke="white" stroke-width="3.94"/>
<circle r="13.0785" transform="matrix(1 -8.74228e-08 -8.74228e-08 -1 429.663 360.344)" fill="#A4C954" stroke="#333333" stroke-width="3.94"/>
</svg>
