<svg width="1080" height="1080" viewBox="0 0 1080 1080" fill="none" xmlns="http://www.w3.org/2000/svg">
<rect width="1080" height="1080" fill="white"/>
<mask id="path-1-inside-1_901_343" fill="white">
<path fill-rule="evenodd" clip-rule="evenodd" d="M618.348 219.011C610.135 197.562 589.354 182.332 565.016 182.332C542.283 182.332 522.654 195.618 513.47 214.849H493.842C471.425 214.849 453.253 233.263 453.253 255.68C453.253 278.097 471.425 296.511 493.842 296.511H577.834C589.266 296.511 599.593 291.723 606.97 284.057C614.394 291.736 624.804 296.511 636.329 296.511C658.88 296.511 677.16 278.23 677.16 255.68C677.16 233.13 658.88 214.849 636.329 214.849C629.877 214.849 623.774 216.346 618.348 219.011Z"/>
</mask>
<path fill-rule="evenodd" clip-rule="evenodd" d="M618.348 219.011C610.135 197.562 589.354 182.332 565.016 182.332C542.283 182.332 522.654 195.618 513.47 214.849H493.842C471.425 214.849 453.253 233.263 453.253 255.68C453.253 278.097 471.425 296.511 493.842 296.511H577.834C589.266 296.511 599.593 291.723 606.97 284.057C614.394 291.736 624.804 296.511 636.329 296.511C658.88 296.511 677.16 278.23 677.16 255.68C677.16 233.13 658.88 214.849 636.329 214.849C629.877 214.849 623.774 216.346 618.348 219.011Z" fill="white"/>
<path d="M618.348 219.011L614.669 220.42L616.212 224.45L620.086 222.547L618.348 219.011ZM513.47 214.849V218.789H515.955L517.025 216.547L513.47 214.849ZM606.97 284.057L609.803 281.318L606.964 278.381L604.131 281.325L606.97 284.057ZM622.028 217.602C613.25 194.679 591.04 178.392 565.016 178.392V186.272C587.668 186.272 607.02 200.444 614.669 220.42L622.028 217.602ZM565.016 178.392C540.708 178.392 519.728 192.602 509.915 213.151L517.025 216.547C525.58 198.634 543.858 186.272 565.016 186.272V178.392ZM513.47 210.909H493.842V218.789H513.47V210.909ZM493.842 210.909C469.219 210.909 449.313 231.118 449.313 255.68H457.193C457.193 235.409 473.632 218.789 493.842 218.789V210.909ZM449.313 255.68C449.313 280.243 469.219 300.451 493.842 300.451V292.571C473.632 292.571 457.193 275.952 457.193 255.68H449.313ZM493.842 300.451H577.834V292.571H493.842V300.451ZM577.834 300.451C590.391 300.451 601.728 295.187 609.809 286.789L604.131 281.325C597.459 288.259 588.14 292.571 577.834 292.571V300.451ZM636.329 292.571C625.916 292.571 616.516 288.262 609.803 281.318L604.138 286.795C612.273 295.211 623.693 300.451 636.329 300.451V292.571ZM673.22 255.68C673.22 276.054 656.704 292.571 636.329 292.571V300.451C661.056 300.451 681.1 280.406 681.1 255.68H673.22ZM636.329 218.789C656.703 218.789 673.22 235.306 673.22 255.68H681.1C681.1 230.954 661.056 210.909 636.329 210.909V218.789ZM620.086 222.547C624.982 220.142 630.492 218.789 636.329 218.789V210.909C629.261 210.909 622.565 212.55 616.611 215.475L620.086 222.547Z" fill="#333333" mask="url(#path-1-inside-1_901_343)"/>
<rect x="503.439" y="258.726" width="52.2841" height="43.4111" fill="white"/>
<path d="M561.697 319.024L561.667 319.057L561.638 319.09L531.869 353.707C531.397 354.241 530.849 354.646 530.264 354.912C529.677 355.179 529.059 355.303 528.444 355.287L528.418 355.287H528.392H528.293H528.269L528.244 355.287C527.625 355.303 527.004 355.177 526.413 354.909C525.826 354.643 525.274 354.237 524.799 353.704L495.074 319.122C494.988 319.014 494.907 318.924 494.849 318.861C494.806 318.814 494.782 318.788 494.765 318.77C494.754 318.758 494.745 318.749 494.736 318.738C493.885 317.692 493.402 316.267 493.447 314.766C493.492 313.25 494.068 311.861 494.985 310.89L494.987 310.888C496 309.813 497.287 309.262 498.573 309.262C499.845 309.262 501.118 309.802 502.126 310.853L519.729 331.621L523.202 335.718V330.347V276.731C523.274 275.116 523.891 273.635 524.869 272.58C525.847 271.524 527.097 270.983 528.343 270.983C529.589 270.983 530.838 271.524 531.817 272.58C532.794 273.635 533.411 275.116 533.483 276.731V330.347V335.721L536.957 331.621L554.545 310.854C555.556 309.802 556.831 309.262 558.105 309.262C559.386 309.262 560.668 309.807 561.681 310.87C561.738 310.934 561.795 310.998 561.856 311.067C561.884 311.099 561.913 311.132 561.944 311.167C562.795 312.215 563.278 313.643 563.233 315.146C563.188 316.662 562.613 318.051 561.697 319.024Z" fill="#A4C954" stroke="#333333" stroke-width="3.94"/>
<circle cx="550.123" cy="589.157" r="161.061" fill="#FFE924" stroke="#333333" stroke-width="3.94" stroke-linecap="round"/>
<path d="M716.505 576.05L385.717 777.72C382.255 779.83 381.898 784.72 385.016 787.311L488.495 873.284C490.437 874.898 493.191 875.099 495.347 873.785L826.136 672.114C829.597 670.004 829.954 665.115 826.836 662.524L723.357 576.55C721.415 574.936 718.661 574.735 716.505 576.05Z" fill="#628026" stroke="#333333" stroke-width="3.94" stroke-linecap="round"/>
<path d="M598.051 715.171C598.067 715.17 598.067 715.17 598.067 715.171L598.067 715.16C598.066 715.136 598.065 715.09 598.066 715.023C598.066 714.889 598.071 714.668 598.089 714.359C598.127 713.741 598.221 712.773 598.452 711.446C598.914 708.792 599.922 704.701 602.12 699.121C606.517 687.956 615.672 670.832 634.712 647.329C650.339 628.041 655.922 613.444 657.348 603.058C658.062 597.864 657.729 593.761 657.122 590.699C656.63 588.218 655.941 586.385 655.572 585.403C655.491 585.186 655.425 585.011 655.38 584.88C654.614 582.626 652.264 579.446 648.445 577.478C644.519 575.454 639.139 574.753 632.461 577.379C619.469 582.486 604.351 595 593.22 624.58C587.783 639.029 577.198 668.957 594.248 715.946L598.051 715.171Z" fill="#A4C954" stroke="#333333" stroke-width="3.94" stroke-linecap="round"/>
<path d="M634.314 458.755C604.688 491.694 460.65 600.843 564.731 817.191" stroke="#333333" stroke-width="3.94" stroke-linecap="round"/>
<path d="M493.588 796.818L489.65 796.697C489.702 794.624 489.141 780.581 479.304 764.667C469.508 748.818 450.402 730.93 413.059 721.209C386.27 714.235 372.366 706.802 365.515 699.168C362.04 695.297 360.394 691.391 359.807 687.556C359.228 683.769 359.699 680.15 360.287 676.903C360.755 674.312 362.962 668.63 367.346 663.613C371.788 658.531 378.585 654.002 388.18 654.18C406.541 654.522 430.802 662.352 457.153 691.56C470.012 705.812 495.825 735.648 493.588 796.818Z" fill="#A4C954" stroke="#333333" stroke-width="3.94" stroke-linecap="round"/>
<path d="M492.808 806.215L496.227 804.256C495.855 803.599 493.229 798.211 493.742 790.21C494.249 782.286 497.847 771.585 510.211 760.197C519.247 751.875 523.341 745.894 524.509 741.155C525.111 738.715 524.932 736.629 524.291 734.807C523.667 733.031 522.637 731.6 521.713 730.43C520.863 729.354 518.653 727.479 515.72 726.365C512.706 725.22 508.758 724.823 504.699 727.084C497.304 731.204 489.291 739.58 485.017 756.723C482.928 765.099 479.005 782.45 492.808 806.215Z" fill="#A4C954" stroke="#333333" stroke-width="3.94" stroke-linecap="round"/>
<path d="M532.587 625.407L531.206 630.837L528.885 625.737C527.743 623.227 527.057 620.547 526.346 617.768C526.238 617.35 526.131 616.928 526.021 616.505C525.168 613.224 524.136 609.606 522.175 605.365C518.258 596.894 510.525 585.717 492.729 570.081C478.186 557.305 472.006 549.112 469.627 543.586C468.414 540.771 468.164 538.593 468.343 536.841C468.43 535.98 468.617 535.275 468.79 534.719C468.887 534.409 468.955 534.211 469.005 534.063C469.065 533.891 469.1 533.787 469.131 533.652C470 529.885 475.83 522.954 487.44 525.686C498.595 528.311 512.243 536.264 524.311 557.267C530.204 567.523 541.876 588.884 532.587 625.407Z" fill="#A4C954" stroke="#333333" stroke-width="3.94" stroke-linecap="round"/>
<path d="M748.554 685.887L752.431 685.514C753.319 669.278 757.214 660.372 763.264 654.016C768.354 648.667 775.022 645.017 783.345 640.461C785.175 639.459 787.086 638.413 789.077 637.296C802.278 629.889 807.767 620.747 809.779 612.961C811.737 605.384 810.345 599.306 809.997 597.787C809.991 597.76 809.985 597.734 809.98 597.71C809.143 594.042 803.51 587.334 792.291 589.944C781.528 592.449 768.36 600.084 756.688 620.282C750.988 630.145 739.696 650.693 748.554 685.887Z" fill="#A4C954" stroke="#333333" stroke-width="3.94" stroke-linecap="round"/>
<mask id="path-13-outside-2_901_343" maskUnits="userSpaceOnUse" x="506.465" y="304.17" width="277.348" height="278.042" fill="black">
<rect fill="white" x="506.465" y="304.17" width="277.348" height="278.042"/>
<path fill-rule="evenodd" clip-rule="evenodd" d="M685.915 431.417C685.927 431.41 685.938 431.403 685.949 431.397C713.493 415.161 740.891 399.011 711.032 371.325C684.092 346.347 670.038 366.291 655.898 401.376C655.817 401.577 655.736 401.776 655.654 401.975L655.654 401.931C655.365 369.96 655.078 338.157 616.172 350.173C581.07 361.014 591.316 383.157 614.63 412.945C614.764 413.117 614.897 413.288 615.029 413.459L614.989 413.436C587.156 397.7 559.471 382.047 550.424 421.749C542.261 457.569 566.561 459.767 604.015 454.471C604.229 454.441 604.442 454.411 604.655 454.382L604.619 454.404C577.075 470.639 549.677 486.789 579.536 514.475C606.476 539.454 620.529 519.509 634.67 484.425C634.751 484.223 634.833 484.022 634.914 483.822L634.915 483.869C635.203 515.841 635.49 547.644 674.397 535.628C709.499 524.787 699.253 502.643 675.939 472.855C675.805 472.683 675.671 472.512 675.539 472.341C675.552 472.348 675.565 472.356 675.579 472.363C703.411 488.099 731.097 503.752 740.144 464.05C748.306 428.23 724.007 426.032 686.552 431.328C686.339 431.358 686.127 431.388 685.915 431.417Z"/>
</mask>
<path fill-rule="evenodd" clip-rule="evenodd" d="M685.915 431.417C685.927 431.41 685.938 431.403 685.949 431.397C713.493 415.161 740.891 399.011 711.032 371.325C684.092 346.347 670.038 366.291 655.898 401.376C655.817 401.577 655.736 401.776 655.654 401.975L655.654 401.931C655.365 369.96 655.078 338.157 616.172 350.173C581.07 361.014 591.316 383.157 614.63 412.945C614.764 413.117 614.897 413.288 615.029 413.459L614.989 413.436C587.156 397.7 559.471 382.047 550.424 421.749C542.261 457.569 566.561 459.767 604.015 454.471C604.229 454.441 604.442 454.411 604.655 454.382L604.619 454.404C577.075 470.639 549.677 486.789 579.536 514.475C606.476 539.454 620.529 519.509 634.67 484.425C634.751 484.223 634.833 484.022 634.914 483.822L634.915 483.869C635.203 515.841 635.49 547.644 674.397 535.628C709.499 524.787 699.253 502.643 675.939 472.855C675.805 472.683 675.671 472.512 675.539 472.341C675.552 472.348 675.565 472.356 675.579 472.363C703.411 488.099 731.097 503.752 740.144 464.05C748.306 428.23 724.007 426.032 686.552 431.328C686.339 431.358 686.127 431.388 685.915 431.417Z" fill="white"/>
<path d="M685.915 431.417L683.915 428.022L686.447 435.32L685.915 431.417ZM685.949 431.397L687.949 434.791L687.949 434.791L685.949 431.397ZM711.032 371.325L713.711 368.436L711.032 371.325ZM655.898 401.376L659.552 402.849L659.552 402.849L655.898 401.376ZM655.654 401.975L651.715 402.011L659.301 403.467L655.654 401.975ZM655.654 401.931L659.594 401.896L659.594 401.896L655.654 401.931ZM616.172 350.173L617.335 353.937L616.172 350.173ZM614.63 412.945L617.732 410.517L617.732 410.517L614.63 412.945ZM615.029 413.459L613.09 416.889L618.144 411.046L615.029 413.459ZM614.989 413.436L613.049 416.866L613.049 416.866L614.989 413.436ZM550.424 421.749L554.265 422.624L554.265 422.624L550.424 421.749ZM604.015 454.471L603.463 450.57L603.463 450.57L604.015 454.471ZM604.655 454.382L606.656 457.776L604.123 450.478L604.655 454.382ZM604.619 454.404L606.62 457.798L606.62 457.798L604.619 454.404ZM579.536 514.475L582.215 511.586L582.215 511.586L579.536 514.475ZM634.67 484.425L638.324 485.898L638.324 485.898L634.67 484.425ZM634.914 483.822L638.854 483.787L631.267 482.331L634.914 483.822ZM634.915 483.869L630.975 483.905L630.975 483.905L634.915 483.869ZM674.397 535.628L673.234 531.863L673.234 531.863L674.397 535.628ZM675.939 472.855L672.836 475.283L672.837 475.283L675.939 472.855ZM675.539 472.341L677.478 468.911L672.424 474.753L675.539 472.341ZM675.579 472.363L677.518 468.934L677.518 468.934L675.579 472.363ZM740.144 464.05L743.985 464.926L743.985 464.926L740.144 464.05ZM686.552 431.328L687.104 435.229L687.104 435.229L686.552 431.328ZM687.916 434.811C687.922 434.808 687.927 434.804 687.933 434.801C687.938 434.798 687.944 434.795 687.949 434.791L683.948 428.003C683.943 428.006 683.937 428.009 683.932 428.012C683.926 428.016 683.921 428.019 683.915 428.022L687.916 434.811ZM687.949 434.791C694.803 430.752 701.829 426.613 707.963 422.27C714.072 417.946 719.59 413.222 723.262 407.889C727.009 402.446 728.909 396.237 727.437 389.291C726.001 382.517 721.478 375.638 713.711 368.436L708.353 374.215C715.515 380.856 718.764 386.378 719.728 390.925C720.656 395.302 719.583 399.336 716.771 403.421C713.883 407.616 709.253 411.703 703.411 415.839C697.594 419.956 690.867 423.924 683.948 428.003L687.949 434.791ZM713.711 368.436C706.718 361.952 700.156 357.989 693.834 356.69C687.31 355.349 681.476 356.935 676.358 360.633C671.385 364.226 667.127 369.772 663.283 376.387C659.416 383.041 655.804 391.068 652.244 399.903L659.552 402.849C663.062 394.141 666.509 386.518 670.096 380.346C673.706 374.135 677.297 369.677 680.973 367.02C684.503 364.469 688.118 363.56 692.247 364.408C696.579 365.298 701.876 368.209 708.353 374.215L713.711 368.436ZM652.244 399.903C652.165 400.097 652.086 400.291 652.008 400.484L659.301 403.467C659.385 403.262 659.469 403.056 659.552 402.849L652.244 399.903ZM659.594 401.94L659.594 401.896L651.714 401.967L651.715 402.011L659.594 401.94ZM659.594 401.896C659.522 393.941 659.451 385.787 658.758 378.303C658.067 370.851 656.734 363.709 653.952 357.864C651.112 351.896 646.685 347.146 639.934 344.948C633.349 342.805 625.13 343.283 615.009 346.408L617.335 353.937C626.667 351.055 633.074 351.002 637.494 352.441C641.748 353.826 644.706 356.772 646.837 361.25C649.026 365.849 650.251 371.902 650.911 379.03C651.569 386.125 651.642 393.936 651.714 401.967L659.594 401.896ZM615.009 346.408C605.898 349.222 599.184 352.923 594.898 357.749C590.475 362.729 588.932 368.574 589.575 374.856C590.201 380.958 592.874 387.418 596.681 394.055C600.51 400.731 605.656 407.873 611.527 415.374L617.732 410.517C611.946 403.124 607.068 396.327 603.517 390.134C599.942 383.903 597.877 378.564 597.414 374.052C596.97 369.72 597.99 366.134 600.79 362.982C603.726 359.676 608.895 356.544 617.335 353.937L615.009 346.408ZM611.527 415.374C611.657 415.54 611.786 415.706 611.914 415.871L618.144 411.046C618.008 410.87 617.871 410.694 617.732 410.517L611.527 415.374ZM616.969 410.029L616.928 410.006L613.049 416.866L613.09 416.889L616.969 410.029ZM616.928 410.006C610.003 406.091 602.906 402.075 596.078 398.934C589.279 395.806 582.428 393.389 575.974 392.876C569.386 392.352 563.059 393.811 557.78 398.559C552.631 403.19 548.935 410.546 546.582 420.874L554.265 422.624C556.435 413.101 559.593 407.526 563.049 404.418C566.376 401.426 570.406 400.338 575.349 400.731C580.427 401.135 586.281 403.101 592.784 406.092C599.257 409.071 606.058 412.913 613.049 416.866L616.928 410.006ZM546.582 420.874C544.463 430.171 544.312 437.836 546.348 443.961C548.449 450.281 552.739 454.54 558.501 457.124C564.099 459.634 571.03 460.548 578.681 460.57C586.378 460.592 595.135 459.706 604.566 458.372L603.463 450.57C594.168 451.884 585.842 452.71 578.704 452.69C571.52 452.669 565.863 451.789 561.725 449.933C557.751 448.152 555.155 445.476 553.825 441.475C552.431 437.279 552.303 431.237 554.265 422.624L546.582 420.874ZM604.566 458.372C604.774 458.343 604.981 458.314 605.187 458.286L604.123 450.478C603.904 450.508 603.684 450.539 603.463 450.57L604.566 458.372ZM602.654 450.988L602.618 451.01L606.62 457.798L606.656 457.776L602.654 450.988ZM602.618 451.009C595.765 455.049 588.739 459.187 582.604 463.53C576.496 467.854 570.978 472.579 567.306 477.911C563.558 483.354 561.658 489.563 563.131 496.509C564.567 503.284 569.09 510.162 576.857 517.364L582.215 511.586C575.052 504.945 571.803 499.423 570.839 494.875C569.912 490.499 570.984 486.464 573.797 482.38C576.685 478.185 581.315 474.097 587.157 469.962C592.973 465.845 599.701 461.876 606.62 457.798L602.618 451.009ZM576.857 517.364C583.85 523.848 590.412 527.812 596.734 529.111C603.258 530.451 609.092 528.866 614.21 525.167C619.183 521.574 623.44 516.029 627.285 509.414C631.152 502.759 634.763 494.732 638.324 485.898L631.015 482.952C627.506 491.659 624.058 499.282 620.471 505.454C616.862 511.666 613.271 516.124 609.595 518.78C606.065 521.331 602.45 522.241 598.32 521.392C593.989 520.502 588.692 517.592 582.215 511.586L576.857 517.364ZM638.324 485.898C638.403 485.702 638.482 485.508 638.561 485.314L631.267 482.331C631.183 482.537 631.099 482.744 631.015 482.952L638.324 485.898ZM630.974 483.858L630.975 483.905L638.855 483.834L638.854 483.787L630.974 483.858ZM630.975 483.905C631.047 491.86 631.118 500.014 631.811 507.498C632.502 514.95 633.834 522.091 636.616 527.937C639.457 533.904 643.884 538.654 650.635 540.852C657.22 542.996 665.439 542.518 675.559 539.392L673.234 531.863C663.902 534.745 657.494 534.798 653.074 533.359C648.82 531.974 645.863 529.028 643.732 524.551C641.543 519.951 640.318 513.898 639.658 506.771C639 499.675 638.927 491.865 638.855 483.834L630.975 483.905ZM675.559 539.392C684.671 536.578 691.384 532.877 695.671 528.051C700.094 523.072 701.637 517.227 700.993 510.945C700.368 504.842 697.694 498.382 693.888 491.745C690.058 485.069 684.913 477.928 679.042 470.427L672.837 475.283C678.623 482.677 683.5 489.474 687.052 495.666C690.627 501.898 692.692 507.237 693.154 511.748C693.598 516.081 692.579 519.666 689.779 522.818C686.843 526.124 681.674 529.257 673.234 531.863L675.559 539.392ZM679.042 470.427C678.912 470.26 678.782 470.094 678.654 469.928L672.424 474.753C672.56 474.93 672.698 475.107 672.836 475.283L679.042 470.427ZM677.518 468.934C677.506 468.927 677.509 468.929 677.498 468.922C677.492 468.919 677.484 468.914 677.478 468.911L673.6 475.771C673.611 475.777 673.608 475.775 673.62 475.782C673.626 475.785 673.634 475.79 673.64 475.793L677.518 468.934ZM736.302 463.175C734.132 472.698 730.974 478.273 727.518 481.382C724.192 484.373 720.162 485.462 715.218 485.068C710.141 484.664 704.286 482.699 697.783 479.707C691.31 476.728 684.509 472.886 677.518 468.934L673.64 475.793C680.565 479.708 687.662 483.724 694.49 486.865C701.289 489.994 708.14 492.41 714.593 492.923C721.181 493.448 727.508 491.988 732.787 487.241C737.936 482.61 741.632 475.253 743.985 464.926L736.302 463.175ZM687.104 435.229C696.4 433.915 704.725 433.089 711.864 433.109C719.048 433.13 724.704 434.01 728.843 435.866C732.817 437.648 735.412 440.323 736.742 444.324C738.137 448.52 738.265 454.563 736.302 463.175L743.985 464.926C746.104 455.628 746.255 447.963 744.219 441.838C742.118 435.518 737.828 431.259 732.066 428.675C726.468 426.166 719.537 425.251 711.886 425.229C704.19 425.208 695.432 426.093 686.001 427.427L687.104 435.229ZM686.447 435.32C686.666 435.291 686.885 435.26 687.104 435.229L686.001 427.427C685.794 427.456 685.589 427.485 685.383 427.513L686.447 435.32Z" fill="#333333" mask="url(#path-13-outside-2_901_343)"/>
<mask id="path-15-inside-3_901_343" fill="white">
<path fill-rule="evenodd" clip-rule="evenodd" d="M654.463 448.661C659.715 445.594 663.244 439.897 663.244 433.376C663.244 423.608 655.326 415.69 645.557 415.69C635.789 415.69 627.871 423.608 627.871 433.376C627.871 439.897 631.399 445.593 636.651 448.66L633.586 466.262H657.528L654.463 448.661Z"/>
</mask>
<path fill-rule="evenodd" clip-rule="evenodd" d="M654.463 448.661C659.715 445.594 663.244 439.897 663.244 433.376C663.244 423.608 655.326 415.69 645.557 415.69C635.789 415.69 627.871 423.608 627.871 433.376C627.871 439.897 631.399 445.593 636.651 448.66L633.586 466.262H657.528L654.463 448.661Z" fill="#A4C954"/>
<path d="M654.463 448.661L652.476 445.258L650.111 446.639L650.581 449.337L654.463 448.661ZM636.651 448.66L640.533 449.336L641.002 446.638L638.638 445.258L636.651 448.66ZM633.586 466.262L629.704 465.586L628.9 470.202H633.586V466.262ZM657.528 466.262V470.202H662.214L661.41 465.586L657.528 466.262ZM659.304 433.376C659.304 438.44 656.569 442.868 652.476 445.258L656.45 452.063C662.862 448.319 667.184 441.355 667.184 433.376H659.304ZM645.557 419.63C653.15 419.63 659.304 425.784 659.304 433.376H667.184C667.184 421.432 657.502 411.75 645.557 411.75V419.63ZM631.811 433.376C631.811 425.784 637.965 419.63 645.557 419.63V411.75C633.613 411.75 623.931 421.432 623.931 433.376H631.811ZM638.638 445.258C634.546 442.868 631.811 438.439 631.811 433.376H623.931C623.931 441.354 628.253 448.318 634.664 452.062L638.638 445.258ZM637.467 466.938L640.533 449.336L632.769 447.984L629.704 465.586L637.467 466.938ZM657.528 462.322H633.586V470.202H657.528V462.322ZM650.581 449.337L653.647 466.938L661.41 465.586L658.344 447.985L650.581 449.337Z" fill="#333333" mask="url(#path-15-inside-3_901_343)"/>
<path d="M677.334 733.771C675.917 727.207 670.36 710.99 659.477 698.636" stroke="#333333" stroke-width="3.94" stroke-linecap="round"/>
<path d="M525.027 792.651C526.739 795.283 529.628 803.329 527.493 814.463" stroke="#333333" stroke-width="3.94" stroke-linecap="round"/>
<path d="M444.575 795.57C443.149 789.008 441.497 771.945 446.294 756.195" stroke="#333333" stroke-width="3.94" stroke-linecap="round"/>
<path d="M689.038 727.688C688.964 708.824 694.416 660.979 716.814 620.518" stroke="#333333" stroke-width="3.94" stroke-linecap="round"/>
<circle cx="402.738" cy="212.77" r="9.73493" transform="rotate(-180 402.738 212.77)" fill="white" stroke="#333333" stroke-width="3.94"/>
<circle cx="472.78" cy="396.61" r="9.73493" transform="rotate(-180 472.78 396.61)" fill="#628026" stroke="#333333" stroke-width="3.94"/>
<circle cx="609.651" cy="758.656" r="15.2844" transform="rotate(-180 609.651 758.656)" fill="#A4C954" stroke="#333333" stroke-width="3.94"/>
<circle cx="291.164" cy="657.79" r="4.36899" fill="#333333" stroke="#333333" stroke-width="3.94"/>
<circle cx="381.738" cy="748.248" r="7.32517" fill="white" stroke="#333333" stroke-width="3.94"/>
<circle cx="760.242" cy="318.619" r="29.9396" fill="#628026" stroke="#333333" stroke-width="3.94"/>
<circle cx="502.172" cy="838.405" r="1.97" fill="#333333" stroke="#333333" stroke-width="2.98639"/>
<circle cx="565.206" cy="732.4" r="1.97" fill="#333333" stroke="#333333" stroke-width="2.98639"/>
<circle cx="724.869" cy="250.384" r="1.97" fill="#333333" stroke="#333333" stroke-width="2.98639"/>
<circle cx="339.458" cy="185.795" r="1.97" fill="#333333" stroke="#333333" stroke-width="2.98639"/>
<path d="M277.981 563.443L290.986 514.555C291.408 512.967 293.474 512.564 294.462 513.877L333.698 566.008C334.062 566.491 334.184 567.114 334.028 567.698L321.023 616.587C320.601 618.174 318.535 618.577 317.547 617.265L278.31 565.134C277.947 564.651 277.825 564.028 277.981 563.443Z" stroke="#333333" stroke-width="3.94"/>
<path d="M813.619 396.612L778.027 425.776" stroke="#333333" stroke-width="3.94"/>
<circle cx="774.563" cy="748.248" r="1.97" fill="#333333" stroke="#333333" stroke-width="2.98639"/>
<circle cx="742.693" cy="766.073" r="12.3911" transform="rotate(-180 742.693 766.073)" stroke="#333333" stroke-width="3.94"/>
<path d="M449.536 335.368L325.151 257.415C324.189 256.812 322.919 257.144 322.376 258.14L235.722 416.986C235.207 417.931 235.546 419.116 236.484 419.644L358.83 488.586C359.763 489.112 360.946 488.795 361.491 487.874L450.185 338.04C450.729 337.121 450.442 335.936 449.536 335.368Z" fill="#A4C954" stroke="#333333" stroke-width="3.94"/>
<path d="M307.197 434.339C335.428 437.993 355.226 429.511 370.596 415.557C386.127 401.457 397.173 381.747 407.685 362.864C407.682 362.845 407.679 362.826 407.675 362.806C407.614 362.431 407.483 361.875 407.274 361.127C406.86 359.645 406.192 357.609 405.341 355.174C403.643 350.315 401.27 344.014 398.883 337.684L398.709 337.223C396.386 331.062 394.065 324.909 392.384 320.13C391.524 317.685 390.818 315.564 390.364 313.972C390.269 313.637 390.182 313.317 390.106 313.016C387.16 313.582 384.603 313.786 382.602 313.724C381.378 313.686 380.282 313.546 379.405 313.284C379.027 313.172 378.631 313.019 378.266 312.804C362.334 316.573 350.184 311.867 335.83 306.307C335.368 306.128 334.904 305.949 334.437 305.768C329.402 307.227 325.677 307.348 322.407 306.183C321.422 307.831 320.415 309.504 319.386 311.215C308.172 329.849 296.447 349.369 291.92 370.001C287.47 390.279 289.972 411.674 307.197 434.339Z" fill="white" stroke="#333333" stroke-width="3.94"/>
<path d="M335.577 345.78L335.577 345.78L343.296 383.751L343.738 385.928L345.847 385.228L361.539 380.017C361.539 380.017 361.539 380.017 361.539 380.017C363.393 379.402 365.117 380.4 365.506 382.313L335.577 345.78ZM335.577 345.78C335.188 343.866 333.464 342.868 331.611 343.484L331.61 343.484C329.581 344.157 328.237 346.478 328.664 348.574L328.664 348.574L337.512 392.108L335.695 392.477M335.577 345.78L335.695 392.477M335.695 392.477L337.512 392.108C337.716 393.108 338.27 393.813 338.946 394.204C339.623 394.596 340.509 394.726 341.479 394.404L362.558 387.404C364.588 386.73 365.931 384.411 365.506 382.314L335.695 392.477Z" fill="#A4C954" stroke="#333333" stroke-width="3.94"/>
<path d="M320 434.339C348.231 437.993 368.029 429.511 383.399 415.557C399.038 401.359 410.129 381.473 420.706 362.471C421.66 360.758 422.593 359.082 423.515 357.436C406.629 346.131 395.843 331.748 390.253 313.005C371.213 317.488 353.367 315.293 335.155 306.276C334.187 307.894 333.199 309.536 332.189 311.215C320.975 329.849 309.25 349.369 304.723 370.001C300.273 390.279 302.775 411.673 320 434.339Z" fill="white" stroke="#333333" stroke-width="3.94"/>
<path d="M382.733 365.882L382.733 365.882L345.849 377.754L343.734 378.435L343.311 376.253L340.167 360.02C340.167 360.02 340.167 360.02 340.167 360.02C339.795 358.102 338.081 357.089 336.222 357.687L382.733 365.882ZM382.733 365.882C384.593 365.283 386.307 366.297 386.678 368.215L386.678 368.216C387.085 370.314 385.72 372.622 383.684 373.278L383.684 373.278L341.397 386.889L341.965 388.654M382.733 365.882L341.965 388.654M341.965 388.654L341.397 386.889C340.425 387.202 339.539 387.064 338.866 386.666C338.194 386.268 337.646 385.559 337.452 384.557L333.228 362.75C332.821 360.651 334.185 358.343 336.222 357.687L341.965 388.654Z" fill="#A4C954" stroke="#333333" stroke-width="3.94"/>
<path d="M791.014 483.917L827.946 464.011L849.657 476.546L827.179 488.13L839.021 494.968L808.14 510.472L824.587 519.968L761.006 535.892L791.712 517.654L776.58 508.918L806.146 492.654L791.014 483.917Z" stroke="#333333" stroke-width="3.94"/>
</svg>
