<?xml version="1.0" encoding="UTF-8" standalone="no"?>
<!-- Created with Inkscape (http://www.inkscape.org/) -->

<svg
   xmlns:dc="http://purl.org/dc/elements/1.1/"
   xmlns:cc="http://creativecommons.org/ns#"
   xmlns:rdf="http://www.w3.org/1999/02/22-rdf-syntax-ns#"
   xmlns:svg="http://www.w3.org/2000/svg"
   xmlns="http://www.w3.org/2000/svg"
   xmlns:sodipodi="http://sodipodi.sourceforge.net/DTD/sodipodi-0.dtd"
   xmlns:inkscape="http://www.inkscape.org/namespaces/inkscape"
   width="770.87573"
   height="237.19284"
   viewBox="0 0 203.96088 62.75727"
   version="1.1"
   id="svg8"
   inkscape:version="0.92.2 (5c3e80d, 2017-08-06)"
   sodipodi:docname="horizontal_color.svg"
   inkscape:export-filename="/home/anxhelo/works/Enigmail/Logo/PNG/horizontal_color.png"
   inkscape:export-xdpi="96"
   inkscape:export-ydpi="96">
  <defs
     id="defs2" />
  <sodipodi:namedview
     id="base"
     pagecolor="#ffffff"
     bordercolor="#666666"
     borderopacity="1.0"
     inkscape:pageopacity="0"
     inkscape:pageshadow="2"
     inkscape:zoom="0.74199837"
     inkscape:cx="417.85018"
     inkscape:cy="71.810237"
     inkscape:document-units="px"
     inkscape:current-layer="layer1"
     inkscape:document-rotation="0"
     showgrid="false"
     borderlayer="true"
     inkscape:showpageshadow="true"
     units="px"
     inkscape:pagecheckerboard="false"
     showguides="true"
     inkscape:window-width="1366"
     inkscape:window-height="715"
     inkscape:window-x="0"
     inkscape:window-y="0"
     inkscape:window-maximized="1"
     objecttolerance="10"
     guidetolerance="10"
     inkscape:snap-tangential="true"
     inkscape:snap-perpendicular="true"
     fit-margin-top="0"
     fit-margin-left="0"
     fit-margin-right="0"
     fit-margin-bottom="0">
    <inkscape:grid
       type="xygrid"
       id="grid10"
       dotted="false"
       originx="-117.88706"
       originy="-109.78186" />
  </sodipodi:namedview>
  <metadata
     id="metadata5">
    <rdf:RDF>
      <cc:Work
         rdf:about="">
        <dc:format>image/svg+xml</dc:format>
        <dc:type
           rdf:resource="http://purl.org/dc/dcmitype/StillImage" />
        <dc:title></dc:title>
        <cc:license
           rdf:resource="" />
      </cc:Work>
    </rdf:RDF>
  </metadata>
  <g
     inkscape:label="Layer 1"
     inkscape:groupmode="layer"
     id="layer1"
     transform="translate(-117.88705,-124.46088)">
    <g
       id="g1648"
       transform="matrix(1.5894906,0,0,1.5894906,-69.493308,-73.368516)">
      <g
         transform="matrix(0.35277777,0,0,-0.35277777,117.88705,142.23307)"
         id="g40">
        <path
           inkscape:connector-curvature="0"
           id="path42"
           style="fill:#0077bb;fill-opacity:1;fill-rule:nonzero;stroke:none"
           d="m 0,0 v -20.097 l 15.7,10.049 z" />
      </g>
      <g
         transform="matrix(0.35277777,0,0,-0.35277777,126.57213,135.7353)"
         id="g44">
        <path
           inkscape:connector-curvature="0"
           id="path46"
           style="fill:#0077bb;fill-opacity:1;fill-rule:nonzero;stroke:none"
           d="M 0,0 V 7.577 C 0,14.511 5.567,20.151 12.501,20.151 19.434,20.151 25,14.511 25,7.577 V 0 Z M 43.83,0 H 36 V 8.387 C 36,21.385 25.498,31.959 12.5,31.959 -0.498,31.959 -11,21.385 -11,8.387 V 0 h -7.222 c -3.527,0 -6.397,-2.87 -6.397,-6.397 v -4.427 l 21.634,-13.846 5.933,-3.797 9.856,-6.307 9.855,6.307 5.934,3.797 21.634,13.846 v 4.427 C 50.227,-2.87 47.357,0 43.83,0" />
      </g>
      <g
         transform="matrix(0.35277777,0,0,-0.35277777,144.29096,149.32274)"
         id="g48">
        <path
           inkscape:connector-curvature="0"
           id="path50"
           style="fill:#0077bb;fill-opacity:1;fill-rule:nonzero;stroke:none"
           d="M 0,0 V 20.097 L -15.7,10.049 Z" />
      </g>
      <g
         transform="matrix(0.35277777,0,0,-0.35277777,132.08428,150.04551)"
         id="g52">
        <path
           inkscape:connector-curvature="0"
           id="path54"
           style="fill:#0077bb;fill-opacity:1;fill-rule:nonzero;stroke:none"
           d="m 0,0 c -0.779,-0.499 -1.8,-0.748 -2.821,-0.748 -1.021,0 -2.042,0.249 -2.821,0.748 L -18.61,8.3 -40.244,-5.546 v -3.787 c 0,-3.527 2.87,-6.397 6.397,-6.397 h 5.757 l 0.003,-22.245 c 0,-1.213 1.424,-1.866 2.344,-1.075 l 27.112,23.32 h 26.836 c 3.527,0 6.397,2.87 6.397,6.397 v 3.787 L 12.968,8.3 Z" />
      </g>
      <g
         transform="matrix(0.35277777,0,0,-0.35277777,164.21496,134.27903)"
         id="g56">
        <path
           inkscape:connector-curvature="0"
           id="path58"
           style="fill:#0077bb;fill-opacity:1;fill-rule:nonzero;stroke:none"
           d="m 0,0 -1.008,-7.056 h -18.36 v -13.896 h 15.984 v -7.056 H -19.368 V -42.624 H 0.288 v -7.128 h -29.16 V 0 Z" />
      </g>
      <g
         transform="matrix(0.35277777,0,0,-0.35277777,176.47054,139.09219)"
         id="g60">
        <path
           inkscape:connector-curvature="0"
           id="path62"
           style="fill:#0077bb;fill-opacity:1;fill-rule:nonzero;stroke:none"
           d="m 0,0 c 1.896,-2.041 2.845,-4.885 2.845,-8.532 v -27.576 h -9.217 v 26.136 c 0,2.255 -0.396,3.839 -1.188,4.752 -0.792,0.911 -1.956,1.367 -3.492,1.367 -1.584,0 -3.012,-0.492 -4.284,-1.475 -1.272,-0.984 -2.509,-2.412 -3.708,-4.284 V -36.108 H -28.26 V 1.979 h 7.992 l 0.72,-4.967 c 3.12,4.032 6.985,6.048 11.592,6.048 C -4.548,3.06 -1.896,2.039 0,0" />
      </g>
      <path
         inkscape:connector-curvature="0"
         id="path64"
         style="fill:#0077bb;fill-opacity:1;fill-rule:nonzero;stroke:none;stroke-width:0.35277775"
         d="m 183.8747,151.8305 h -3.2512 v -13.4366 h 3.2512 z m -0.1651,-19.67265 c 0.381,0.381 0.5715,0.8509 0.5715,1.4097 0,0.5588 -0.1905,1.02482 -0.5715,1.397 -0.381,0.37288 -0.8763,0.5588 -1.4859,0.5588 -0.59267,0 -1.0795,-0.18592 -1.46015,-0.5588 -0.381,-0.37218 -0.5715,-0.8382 -0.5715,-1.397 0,-0.5588 0.1905,-1.0287 0.5715,-1.4097 0.38065,-0.381 0.86748,-0.57115 1.46015,-0.57115 0.6096,0 1.1049,0.19015 1.4859,0.57115" />
      <g
         transform="matrix(0.35277777,0,0,-0.35277777,190.08486,140.92116)"
         id="g66">
        <path
           inkscape:connector-curvature="0"
           id="path68"
           style="fill:#0077bb;fill-opacity:1;fill-rule:nonzero;stroke:none"
           d="m 0,0 c -1.177,-1.32 -1.765,-3.084 -1.765,-5.292 0,-2.304 0.6,-4.128 1.801,-5.472 1.199,-1.344 2.855,-2.015 4.968,-2.015 2.207,0 3.888,0.659 5.04,1.979 1.151,1.321 1.727,3.18 1.727,5.58 0,4.8 -2.303,7.2 -6.912,7.2 C 2.795,1.98 1.175,1.32 0,0 M 24.804,5.148 C 22.355,4.284 18.684,3.853 13.788,3.853 c 2.351,-1.057 4.091,-2.366 5.22,-3.924 1.127,-1.561 1.691,-3.517 1.691,-5.868 0,-2.497 -0.611,-4.706 -1.836,-6.624 -1.223,-1.921 -3,-3.433 -5.327,-4.537 -2.329,-1.104 -5.053,-1.656 -8.173,-1.656 -1.727,0 -3.239,0.192 -4.535,0.576 -1.057,-0.719 -1.585,-1.656 -1.585,-2.807 0,-1.777 1.536,-2.664 4.609,-2.664 h 5.832 c 2.783,0 5.219,-0.457 7.307,-1.369 2.089,-0.912 3.708,-2.196 4.861,-3.852 1.152,-1.655 1.728,-3.516 1.728,-5.579 0,-3.84 -1.633,-6.828 -4.896,-8.965 -3.265,-2.135 -7.969,-3.203 -14.113,-3.203 -4.416,0 -7.884,0.456 -10.403,1.367 -2.521,0.913 -4.309,2.232 -5.364,3.96 -1.057,1.729 -1.584,3.937 -1.584,6.624 h 8.28 c 0,-1.343 0.252,-2.399 0.756,-3.168 0.504,-0.767 1.415,-1.343 2.735,-1.727 1.321,-0.384 3.229,-0.577 5.725,-0.577 3.503,0 5.975,0.432 7.416,1.296 1.439,0.865 2.16,2.114 2.16,3.744 0,1.441 -0.553,2.556 -1.656,3.348 -1.105,0.792 -2.713,1.189 -4.824,1.189 h -5.76 c -3.601,0 -6.313,0.695 -8.136,2.087 -1.825,1.392 -2.736,3.144 -2.736,5.256 0,1.344 0.395,2.64 1.187,3.888 0.792,1.248 1.884,2.305 3.277,3.168 -2.304,1.2 -3.997,2.676 -5.077,4.429 -1.08,1.751 -1.62,3.851 -1.62,6.299 0,2.737 0.672,5.136 2.017,7.201 1.343,2.063 3.204,3.659 5.58,4.788 2.376,1.127 5.1,1.691 8.172,1.691 4.032,-0.097 7.283,0.204 9.756,0.901 2.471,0.695 5.148,1.811 8.028,3.347 z" />
      </g>
      <g
         transform="matrix(0.35277777,0,0,-0.35277777,216.99587,139.11766)"
         id="g70">
        <path
           inkscape:connector-curvature="0"
           id="path72"
           style="fill:#0077bb;fill-opacity:1;fill-rule:nonzero;stroke:none"
           d="M 0,0 C 1.823,-2.088 2.735,-4.908 2.735,-8.46 V -36.036 H -6.48 v 26.137 c 0,4.079 -1.393,6.119 -4.176,6.119 -1.489,0 -2.773,-0.468 -3.852,-1.404 -1.08,-0.936 -2.196,-2.388 -3.348,-4.356 v -26.496 h -9.216 v 26.137 c 0,4.079 -1.393,6.119 -4.176,6.119 -1.537,0 -2.844,-0.468 -3.924,-1.404 -1.08,-0.936 -2.196,-2.388 -3.349,-4.356 v -26.496 h -9.215 V 2.052 h 7.992 l 0.72,-4.968 c 2.879,4.032 6.551,6.048 11.016,6.048 2.207,0 4.115,-0.565 5.724,-1.692 1.607,-1.128 2.771,-2.7 3.492,-4.716 1.535,2.063 3.228,3.647 5.076,4.753 1.847,1.103 3.971,1.655 6.371,1.655 C -4.273,3.132 -1.825,2.088 0,0" />
      </g>
      <g
         transform="matrix(0.35277777,0,0,-0.35277777,227.8414,148.19826)"
         id="g74">
        <path
           inkscape:connector-curvature="0"
           id="path76"
           style="fill:#0077bb;fill-opacity:1;fill-rule:nonzero;stroke:none"
           d="m 0,0 v 7.704 h -3.816 c -5.953,0 -8.928,-2.208 -8.928,-6.624 0,-1.824 0.456,-3.239 1.368,-4.248 0.911,-1.008 2.256,-1.512 4.032,-1.512 3.119,0 5.568,1.56 7.344,4.68 m 9.756,-3.491 c 0.456,-0.697 1.188,-1.238 2.196,-1.62 l -1.944,-6.12 c -2.16,0.192 -3.924,0.719 -5.292,1.584 -1.368,0.864 -2.412,2.183 -3.132,3.96 -1.296,-1.921 -2.916,-3.349 -4.86,-4.285 -1.944,-0.935 -4.117,-1.404 -6.516,-1.404 -3.792,0 -6.793,1.08 -9,3.24 -2.208,2.16 -3.312,4.992 -3.312,8.496 0,4.128 1.5,7.284 4.5,9.468 3,2.184 7.284,3.276 12.852,3.276 H 0 v 2.161 c 0,2.447 -0.564,4.163 -1.692,5.147 -1.128,0.984 -2.941,1.477 -5.436,1.477 -2.784,0 -6.144,-0.673 -10.08,-2.017 l -2.16,6.265 c 4.752,1.823 9.36,2.735 13.824,2.735 9.743,0 14.616,-4.368 14.616,-13.103 V -0.216 c 0,-1.488 0.227,-2.581 0.684,-3.275" />
      </g>
      <path
         inkscape:connector-curvature="0"
         id="path78"
         style="fill:#0077bb;fill-opacity:1;fill-rule:nonzero;stroke:none;stroke-width:0.35277775"
         d="m 237.59464,151.8305 h -3.2512 v -13.4366 h 3.2512 z m -0.16475,-19.67265 c 0.381,0.381 0.5715,0.8509 0.5715,1.4097 0,0.5588 -0.1905,1.02482 -0.5715,1.397 -0.381,0.37288 -0.87665,0.5588 -1.4859,0.5588 -0.59302,0 -1.07985,-0.18592 -1.4605,-0.5588 -0.381,-0.37218 -0.5715,-0.8382 -0.5715,-1.397 0,-0.5588 0.1905,-1.0287 0.5715,-1.4097 0.38065,-0.381 0.86748,-0.57115 1.4605,-0.57115 0.60925,0 1.1049,0.19015 1.4859,0.57115" />
      <g
         transform="matrix(0.35277777,0,0,-0.35277777,241.62074,151.30952)"
         id="g80">
        <path
           inkscape:connector-curvature="0"
           id="path82"
           style="fill:#0077bb;fill-opacity:1;fill-rule:nonzero;stroke:none"
           d="m 0,0 c -1.656,1.703 -2.484,4.115 -2.484,7.235 v 44.641 l 9.216,1.008 V 7.523 c 0,-1.776 0.72,-2.664 2.16,-2.664 0.72,0 1.44,0.12 2.16,0.361 l 1.944,-6.481 C 11.075,-2.124 9.036,-2.557 6.876,-2.557 3.947,-2.557 1.656,-1.703 0,0" />
      </g>
    </g>
  </g>
</svg>
