<?xml version="1.0" encoding="UTF-8" standalone="no"?>
<!-- Created with Inkscape (http://www.inkscape.org/) -->

<svg
   xmlns:dc="http://purl.org/dc/elements/1.1/"
   xmlns:cc="http://creativecommons.org/ns#"
   xmlns:rdf="http://www.w3.org/1999/02/22-rdf-syntax-ns#"
   xmlns:svg="http://www.w3.org/2000/svg"
   xmlns="http://www.w3.org/2000/svg"
   xmlns:sodipodi="http://sodipodi.sourceforge.net/DTD/sodipodi-0.dtd"
   xmlns:inkscape="http://www.inkscape.org/namespaces/inkscape"
   width="294.1286"
   height="439.815"
   viewBox="0 0 77.821531 116.36771"
   version="1.1"
   id="svg8"
   inkscape:version="0.92.2 (5c3e80d, 2017-08-06)"
   sodipodi:docname="icon_black.svg"
   inkscape:export-filename="/home/anxhelo/works/Enigmail/Logo/PNG/icon_black.png"
   inkscape:export-xdpi="96"
   inkscape:export-ydpi="96">
  <defs
     id="defs2" />
  <sodipodi:namedview
     id="base"
     pagecolor="#ffffff"
     bordercolor="#666666"
     borderopacity="1.0"
     inkscape:pageopacity="0"
     inkscape:pageshadow="2"
     inkscape:zoom="0.52467208"
     inkscape:cx="331.49597"
     inkscape:cy="200.4623"
     inkscape:document-units="px"
     inkscape:current-layer="layer1"
     inkscape:document-rotation="0"
     showgrid="false"
     borderlayer="true"
     inkscape:showpageshadow="true"
     units="px"
     inkscape:pagecheckerboard="false"
     showguides="false"
     inkscape:window-width="1366"
     inkscape:window-height="715"
     inkscape:window-x="0"
     inkscape:window-y="0"
     inkscape:window-maximized="1"
     objecttolerance="10"
     guidetolerance="10"
     inkscape:snap-tangential="true"
     inkscape:snap-perpendicular="true"
     fit-margin-top="0"
     fit-margin-left="0"
     fit-margin-right="0"
     fit-margin-bottom="0">
    <inkscape:grid
       type="xygrid"
       id="grid10"
       dotted="false"
       originx="-191.68025"
       originy="-97.197391" />
  </sodipodi:namedview>
  <metadata
     id="metadata5">
    <rdf:RDF>
      <cc:Work
         rdf:about="">
        <dc:format>image/svg+xml</dc:format>
        <dc:type
           rdf:resource="http://purl.org/dc/dcmitype/StillImage" />
        <dc:title></dc:title>
        <cc:license
           rdf:resource="" />
      </cc:Work>
    </rdf:RDF>
  </metadata>
  <g
     inkscape:label="Layer 1"
     inkscape:groupmode="layer"
     id="layer1"
     transform="translate(-191.68022,-83.434885)">
    <g
       id="g1929"
       transform="matrix(2.3848891,0,0,2.3848891,-275.07715,-97.508171)"
       style="fill:#000000">
      <g
         transform="matrix(0.35277777,0,0,-0.35277777,195.71457,97.834121)"
         id="g178"
         style="fill:#000000">
        <path
           inkscape:connector-curvature="0"
           id="path180"
           style="fill:#000000;fill-opacity:1;fill-rule:nonzero;stroke:none"
           d="m 0,0 v -24.836 l 19.402,12.418 z" />
      </g>
      <g
         transform="matrix(0.35277777,0,0,-0.35277777,206.44776,89.803948)"
         id="g182"
         style="fill:#000000">
        <path
           inkscape:connector-curvature="0"
           id="path184"
           style="fill:#000000;fill-opacity:1;fill-rule:nonzero;stroke:none"
           d="m 0,0 v 9.364 c 0,8.569 6.88,15.539 15.449,15.539 8.568,0 15.447,-6.97 15.447,-15.539 V 0 Z M 54.166,0 H 44.49 v 10.364 c 0,16.064 -12.978,29.132 -29.042,29.132 -16.063,0 -29.042,-13.068 -29.042,-29.132 V 0 h -8.926 c -4.358,0 -7.905,-3.547 -7.905,-7.905 v -5.472 l 26.736,-17.11 7.333,-4.694 12.179,-7.795 12.18,7.795 7.333,4.694 26.736,17.111 v 5.471 C 62.072,-3.547 58.525,0 54.166,0" />
      </g>
      <g
         transform="matrix(0.35277777,0,0,-0.35277777,228.3455,106.59567)"
         id="g186"
         style="fill:#000000">
        <path
           inkscape:connector-curvature="0"
           id="path188"
           style="fill:#000000;fill-opacity:1;fill-rule:nonzero;stroke:none"
           d="M 0,0 V 24.836 L -19.403,12.418 Z" />
      </g>
      <g
         transform="matrix(0.35277777,0,0,-0.35277777,213.25975,107.48867)"
         id="g190"
         style="fill:#000000">
        <path
           inkscape:connector-curvature="0"
           id="path192"
           style="fill:#000000;fill-opacity:1;fill-rule:nonzero;stroke:none"
           d="m 0,0 c -0.963,-0.617 -2.225,-0.925 -3.486,-0.925 -1.262,0 -2.524,0.308 -3.487,0.925 L -22.999,10.257 -49.734,-6.854 v -4.681 c 0,-4.359 3.546,-7.905 7.905,-7.905 h 7.115 l 0.004,-27.491 c 0,-1.499 1.76,-2.306 2.896,-1.329 l 33.506,28.82 h 33.164 c 4.36,0 7.907,3.546 7.907,7.905 v 4.681 L 16.026,10.257 Z" />
      </g>
    </g>
  </g>
</svg>
