<?xml version="1.0" encoding="UTF-8" standalone="no"?>
<!-- Created with Inkscape (http://www.inkscape.org/) -->

<svg
   xmlns:dc="http://purl.org/dc/elements/1.1/"
   xmlns:cc="http://creativecommons.org/ns#"
   xmlns:rdf="http://www.w3.org/1999/02/22-rdf-syntax-ns#"
   xmlns:svg="http://www.w3.org/2000/svg"
   xmlns="http://www.w3.org/2000/svg"
   xmlns:sodipodi="http://sodipodi.sourceforge.net/DTD/sodipodi-0.dtd"
   xmlns:inkscape="http://www.inkscape.org/namespaces/inkscape"
   width="616.84796"
   height="535.45276"
   viewBox="0 0 163.2077 141.67187"
   version="1.1"
   id="svg8"
   inkscape:version="0.92.2 (5c3e80d, 2017-08-06)"
   sodipodi:docname="vertical_color.svg"
   inkscape:export-filename="/home/anxhelo/works/Enigmail/Logo/PNG/vertical_color.png"
   inkscape:export-xdpi="96"
   inkscape:export-ydpi="96">
  <defs
     id="defs2" />
  <sodipodi:namedview
     id="base"
     pagecolor="#ffffff"
     bordercolor="#666666"
     borderopacity="1.0"
     inkscape:pageopacity="0"
     inkscape:pageshadow="2"
     inkscape:zoom="0.52467208"
     inkscape:cx="420.86641"
     inkscape:cy="275.54268"
     inkscape:document-units="px"
     inkscape:current-layer="layer1"
     inkscape:document-rotation="0"
     showgrid="false"
     borderlayer="true"
     inkscape:showpageshadow="true"
     units="px"
     inkscape:pagecheckerboard="false"
     showguides="true"
     inkscape:window-width="1366"
     inkscape:window-height="715"
     inkscape:window-x="0"
     inkscape:window-y="0"
     inkscape:window-maximized="1"
     objecttolerance="10"
     guidetolerance="10"
     inkscape:snap-tangential="true"
     inkscape:snap-perpendicular="true"
     fit-margin-top="0"
     fit-margin-left="0"
     fit-margin-right="0"
     fit-margin-bottom="0">
    <inkscape:grid
       type="xygrid"
       id="grid10"
       dotted="false"
       originx="-148.49037"
       originy="-83.773038" />
  </sodipodi:namedview>
  <metadata
     id="metadata5">
    <rdf:RDF>
      <cc:Work
         rdf:about="">
        <dc:format>image/svg+xml</dc:format>
        <dc:type
           rdf:resource="http://purl.org/dc/dcmitype/StillImage" />
        <dc:title></dc:title>
        <cc:license
           rdf:resource="" />
      </cc:Work>
    </rdf:RDF>
  </metadata>
  <g
     inkscape:label="Layer 1"
     inkscape:groupmode="layer"
     id="layer1"
     transform="translate(-148.49035,-71.555088)">
    <g
       id="g1826"
       transform="matrix(1.7706114,0,0,1.7706114,40.93445,-53.355381)">
      <g
         transform="matrix(0.35277777,0,0,-0.35277777,70.93046,127.47116)"
         id="g134">
        <path
           inkscape:connector-curvature="0"
           id="path136"
           style="fill:#0077bb;fill-opacity:1;fill-rule:nonzero;stroke:none"
           d="m 0,0 -1.008,-7.056 h -18.36 v -13.896 h 15.984 v -7.056 H -19.368 V -42.624 H 0.288 v -7.128 h -29.16 V 0 Z" />
      </g>
      <g
         transform="matrix(0.35277777,0,0,-0.35277777,83.18607,132.28432)"
         id="g138">
        <path
           inkscape:connector-curvature="0"
           id="path140"
           style="fill:#0077bb;fill-opacity:1;fill-rule:nonzero;stroke:none"
           d="m 0,0 c 1.896,-2.041 2.845,-4.885 2.845,-8.532 v -27.576 h -9.217 v 26.136 c 0,2.255 -0.396,3.839 -1.188,4.752 -0.792,0.911 -1.956,1.367 -3.492,1.367 -1.584,0 -3.012,-0.492 -4.284,-1.475 -1.272,-0.984 -2.509,-2.412 -3.708,-4.284 V -36.108 H -28.26 V 1.979 h 7.992 l 0.72,-4.967 c 3.12,4.032 6.985,6.048 11.592,6.048 C -4.548,3.06 -1.896,2.039 0,0" />
      </g>
      <path
         inkscape:connector-curvature="0"
         id="path142"
         style="fill:#0077bb;fill-opacity:1;fill-rule:nonzero;stroke:none;stroke-width:0.35277775"
         d="m 90.59016,145.02242 h -3.2512 v -13.4366 h 3.2512 z m -0.1651,-19.6723 c 0.38136,0.381 0.57186,0.8509 0.57186,1.4097 0,0.5588 -0.1905,1.02482 -0.57186,1.397 -0.381,0.37254 -0.8763,0.5588 -1.48554,0.5588 -0.59302,0 -1.07986,-0.18626 -1.4605,-0.5588 -0.381,-0.37218 -0.5715,-0.8382 -0.5715,-1.397 0,-0.5588 0.1905,-1.0287 0.5715,-1.4097 0.38064,-0.381 0.86748,-0.57114 1.4605,-0.57114 0.60924,0 1.10454,0.19014 1.48554,0.57114" />
      <g
         transform="matrix(0.35277777,0,0,-0.35277777,96.80039,134.11334)"
         id="g144">
        <path
           inkscape:connector-curvature="0"
           id="path146"
           style="fill:#0077bb;fill-opacity:1;fill-rule:nonzero;stroke:none"
           d="m 0,0 c -1.177,-1.32 -1.765,-3.084 -1.765,-5.292 0,-2.304 0.6,-4.128 1.801,-5.472 1.199,-1.344 2.855,-2.015 4.968,-2.015 2.207,0 3.888,0.659 5.04,1.979 1.151,1.321 1.727,3.18 1.727,5.58 0,4.8 -2.303,7.2 -6.912,7.2 C 2.795,1.98 1.175,1.32 0,0 M 24.804,5.148 C 22.355,4.284 18.684,3.853 13.788,3.853 c 2.351,-1.057 4.091,-2.366 5.22,-3.924 1.127,-1.561 1.691,-3.517 1.691,-5.868 0,-2.497 -0.611,-4.706 -1.836,-6.624 -1.223,-1.921 -3,-3.433 -5.327,-4.537 -2.329,-1.104 -5.053,-1.656 -8.173,-1.656 -1.727,0 -3.239,0.192 -4.535,0.576 -1.057,-0.719 -1.585,-1.656 -1.585,-2.807 0,-1.777 1.536,-2.664 4.609,-2.664 h 5.832 c 2.783,0 5.219,-0.457 7.307,-1.369 2.089,-0.912 3.708,-2.196 4.861,-3.852 1.152,-1.655 1.728,-3.516 1.728,-5.579 0,-3.84 -1.633,-6.828 -4.896,-8.965 -3.265,-2.135 -7.969,-3.203 -14.113,-3.203 -4.416,0 -7.884,0.456 -10.403,1.367 -2.521,0.913 -4.309,2.232 -5.364,3.96 -1.057,1.729 -1.584,3.937 -1.584,6.624 h 8.28 c 0,-1.343 0.252,-2.399 0.756,-3.168 0.504,-0.767 1.415,-1.343 2.735,-1.727 1.321,-0.384 3.229,-0.577 5.725,-0.577 3.503,0 5.975,0.432 7.416,1.296 1.439,0.865 2.16,2.114 2.16,3.744 0,1.441 -0.553,2.556 -1.656,3.348 -1.105,0.792 -2.713,1.189 -4.824,1.189 h -5.76 c -3.601,0 -6.313,0.695 -8.136,2.087 -1.825,1.392 -2.736,3.144 -2.736,5.256 0,1.344 0.395,2.64 1.187,3.888 0.792,1.248 1.884,2.305 3.277,3.168 -2.304,1.2 -3.997,2.676 -5.077,4.429 -1.08,1.751 -1.62,3.851 -1.62,6.299 0,2.737 0.672,5.136 2.017,7.201 1.343,2.063 3.204,3.659 5.58,4.788 2.376,1.127 5.1,1.691 8.172,1.691 4.032,-0.097 7.283,0.204 9.756,0.901 2.471,0.695 5.148,1.811 8.028,3.347 z" />
      </g>
      <g
         transform="matrix(0.35277777,0,0,-0.35277777,123.71142,132.30983)"
         id="g148">
        <path
           inkscape:connector-curvature="0"
           id="path150"
           style="fill:#0077bb;fill-opacity:1;fill-rule:nonzero;stroke:none"
           d="M 0,0 C 1.823,-2.088 2.735,-4.908 2.735,-8.46 V -36.036 H -6.48 v 26.137 c 0,4.079 -1.393,6.119 -4.176,6.119 -1.489,0 -2.773,-0.468 -3.852,-1.404 -1.08,-0.936 -2.196,-2.388 -3.348,-4.356 v -26.496 h -9.216 v 26.137 c 0,4.079 -1.393,6.119 -4.176,6.119 -1.537,0 -2.844,-0.468 -3.924,-1.404 -1.08,-0.936 -2.196,-2.388 -3.349,-4.356 v -26.496 h -9.215 V 2.052 h 7.992 l 0.72,-4.968 c 2.879,4.032 6.551,6.048 11.016,6.048 2.207,0 4.115,-0.565 5.724,-1.692 1.607,-1.128 2.771,-2.7 3.492,-4.716 1.535,2.063 3.228,3.647 5.076,4.753 1.847,1.103 3.971,1.655 6.371,1.655 C -4.273,3.132 -1.825,2.088 0,0" />
      </g>
      <g
         transform="matrix(0.35277777,0,0,-0.35277777,134.5569,141.3904)"
         id="g152">
        <path
           inkscape:connector-curvature="0"
           id="path154"
           style="fill:#0077bb;fill-opacity:1;fill-rule:nonzero;stroke:none"
           d="m 0,0 v 7.704 h -3.816 c -5.953,0 -8.928,-2.208 -8.928,-6.624 0,-1.824 0.456,-3.239 1.368,-4.248 0.911,-1.008 2.256,-1.512 4.032,-1.512 3.119,0 5.568,1.56 7.344,4.68 m 9.756,-3.491 c 0.456,-0.697 1.188,-1.238 2.196,-1.62 l -1.944,-6.12 c -2.16,0.192 -3.924,0.719 -5.292,1.584 -1.368,0.864 -2.412,2.183 -3.132,3.96 -1.296,-1.921 -2.916,-3.349 -4.86,-4.285 -1.944,-0.935 -4.117,-1.404 -6.516,-1.404 -3.792,0 -6.793,1.08 -9,3.24 -2.208,2.16 -3.312,4.992 -3.312,8.496 0,4.128 1.5,7.284 4.5,9.468 3,2.184 7.284,3.276 12.852,3.276 H 0 v 2.161 c 0,2.447 -0.564,4.163 -1.692,5.147 -1.128,0.984 -2.941,1.477 -5.436,1.477 -2.784,0 -6.144,-0.673 -10.08,-2.017 l -2.16,6.265 c 4.752,1.823 9.36,2.735 13.824,2.735 9.743,0 14.616,-4.368 14.616,-13.103 V -0.216 c 0,-1.488 0.227,-2.581 0.684,-3.275" />
      </g>
      <path
         inkscape:connector-curvature="0"
         id="path156"
         style="fill:#0077bb;fill-opacity:1;fill-rule:nonzero;stroke:none;stroke-width:0.35277775"
         d="m 144.31046,145.02242 h -3.2512 v -13.4366 h 3.2512 z m -0.1651,-19.6723 c 0.381,0.381 0.5715,0.8509 0.5715,1.4097 0,0.5588 -0.1905,1.02482 -0.5715,1.397 -0.381,0.37254 -0.87666,0.5588 -1.4859,0.5588 -0.59302,0 -1.07986,-0.18626 -1.4605,-0.5588 -0.381,-0.37218 -0.5715,-0.8382 -0.5715,-1.397 0,-0.5588 0.1905,-1.0287 0.5715,-1.4097 0.38064,-0.381 0.86748,-0.57114 1.4605,-0.57114 0.60924,0 1.1049,0.19014 1.4859,0.57114" />
      <g
         transform="matrix(0.35277777,0,0,-0.35277777,148.33625,144.50165)"
         id="g158">
        <path
           inkscape:connector-curvature="0"
           id="path160"
           style="fill:#0077bb;fill-opacity:1;fill-rule:nonzero;stroke:none"
           d="m 0,0 c -1.656,1.703 -2.484,4.115 -2.484,7.235 v 44.641 l 9.216,1.008 V 7.523 c 0,-1.776 0.72,-2.664 2.16,-2.664 0.72,0 1.44,0.12 2.16,0.361 l 1.944,-6.481 C 11.075,-2.124 9.036,-2.557 6.876,-2.557 3.947,-2.557 1.656,-1.703 0,0" />
      </g>
      <g
         transform="matrix(0.35277777,0,0,-0.35277777,90.51756,92.510009)"
         id="g162">
        <path
           inkscape:connector-curvature="0"
           id="path164"
           style="fill:#0077bb;fill-opacity:1;fill-rule:nonzero;stroke:none"
           d="m 0,0 v -24.836 l 19.402,12.418 z" />
      </g>
      <g
         transform="matrix(0.35277777,0,0,-0.35277777,101.25076,84.479829)"
         id="g166">
        <path
           inkscape:connector-curvature="0"
           id="path168"
           style="fill:#0077bb;fill-opacity:1;fill-rule:nonzero;stroke:none"
           d="m 0,0 v 9.364 c 0,8.569 6.88,15.539 15.448,15.539 8.569,0 15.448,-6.97 15.448,-15.539 V 0 Z M 54.166,0 H 44.49 v 10.364 c 0,16.064 -12.978,29.132 -29.042,29.132 -16.063,0 -29.042,-13.068 -29.042,-29.132 V 0 h -8.926 c -4.359,0 -7.905,-3.547 -7.905,-7.905 v -5.472 l 26.736,-17.11 7.333,-4.694 12.179,-7.795 12.18,7.795 7.333,4.694 26.736,17.111 v 5.471 C 62.072,-3.547 58.525,0 54.166,0" />
      </g>
      <g
         transform="matrix(0.35277777,0,0,-0.35277777,123.14849,101.27156)"
         id="g170">
        <path
           inkscape:connector-curvature="0"
           id="path172"
           style="fill:#0077bb;fill-opacity:1;fill-rule:nonzero;stroke:none"
           d="M 0,0 V 24.836 L -19.403,12.418 Z" />
      </g>
      <g
         transform="matrix(0.35277777,0,0,-0.35277777,108.06275,102.16455)"
         id="g174">
        <path
           inkscape:connector-curvature="0"
           id="path176"
           style="fill:#0077bb;fill-opacity:1;fill-rule:nonzero;stroke:none"
           d="m 0,0 c -0.963,-0.617 -2.225,-0.925 -3.486,-0.925 -1.262,0 -2.524,0.308 -3.487,0.925 L -22.999,10.257 -49.734,-6.854 v -4.681 c 0,-4.359 3.546,-7.905 7.905,-7.905 h 7.115 l 0.004,-27.491 c 0,-1.499 1.76,-2.306 2.896,-1.329 l 33.506,28.82 h 33.164 c 4.36,0 7.907,3.546 7.907,7.905 v 4.681 L 16.026,10.257 Z" />
      </g>
    </g>
  </g>
</svg>
