<?xml version="1.0" encoding="UTF-8" standalone="no"?>
<!-- Created with Inkscape (http://www.inkscape.org/) -->

<svg
   xmlns:dc="http://purl.org/dc/elements/1.1/"
   xmlns:cc="http://creativecommons.org/ns#"
   xmlns:rdf="http://www.w3.org/1999/02/22-rdf-syntax-ns#"
   xmlns:svg="http://www.w3.org/2000/svg"
   xmlns="http://www.w3.org/2000/svg"
   xmlns:sodipodi="http://sodipodi.sourceforge.net/DTD/sodipodi-0.dtd"
   xmlns:inkscape="http://www.inkscape.org/namespaces/inkscape"
   version="1.1"
   id="svg4123"
   xml:space="preserve"
   width="48.310532"
   height="53.490665"
   viewBox="0 0 48.310532 53.490665"
   sodipodi:docname="Icon-06.svg"
   inkscape:version="0.92.3 (2405546, 2018-03-11)"><metadata
     id="metadata4129"><rdf:RDF><cc:Work
         rdf:about=""><dc:format>image/svg+xml</dc:format><dc:type
           rdf:resource="http://purl.org/dc/dcmitype/StillImage" /><dc:title></dc:title></cc:Work></rdf:RDF></metadata><defs
     id="defs4127"><clipPath
       clipPathUnits="userSpaceOnUse"
       id="clipPath4139"><path
         d="M 0,40.118 H 36.233 V 0 H 0 Z"
         id="path4137"
         inkscape:connector-curvature="0" /></clipPath></defs><sodipodi:namedview
     pagecolor="#ffffff"
     bordercolor="#666666"
     borderopacity="1"
     objecttolerance="10"
     gridtolerance="10"
     guidetolerance="10"
     inkscape:pageopacity="0"
     inkscape:pageshadow="2"
     inkscape:window-width="713"
     inkscape:window-height="513"
     id="namedview4125"
     showgrid="false"
     inkscape:zoom="4.4119847"
     inkscape:cx="24.155266"
     inkscape:cy="26.745333"
     inkscape:window-x="0"
     inkscape:window-y="0"
     inkscape:window-maximized="0"
     inkscape:current-layer="g4131" /><g
     id="g4131"
     inkscape:groupmode="layer"
     inkscape:label="Icons"
     transform="matrix(1.3333333,0,0,-1.3333333,0,53.490667)"><g
       id="g4133"><g
         id="g4135"
         clip-path="url(#clipPath4139)"><g
           id="g4141"
           transform="translate(34.0395,22.3412)"><path
             d="m 0,0 -16.816,-16.816 c -3.231,-3.231 -8.468,-3.231 -11.699,0 -3.23,3.23 -3.23,8.468 0,11.698 l 18.279,18.279 c 2.019,2.019 5.292,2.019 7.311,0 2.019,-2.019 2.019,-5.293 0,-7.312 L -18.279,-9.505 c -0.807,-0.808 -2.117,-0.808 -2.924,0 -0.808,0.808 -0.808,2.117 0,2.925 L -7.311,7.311 -9.505,9.505 -23.397,-4.387 c -2.019,-2.019 -2.019,-5.292 0,-7.311 2.019,-2.019 5.293,-2.019 7.312,0 L -0.731,3.656 c 3.23,3.23 3.23,8.468 0,11.698 -3.231,3.23 -8.468,3.23 -11.698,0 L -30.708,-2.925 c -4.442,-4.441 -4.442,-11.643 0,-16.085 4.442,-4.442 11.643,-4.442 16.085,0 L 2.193,-2.193 Z"
             style="fill:#fbab2d;fill-opacity:1;fill-rule:nonzero;stroke:none"
             id="path4143"
             inkscape:connector-curvature="0" /></g></g></g></g></svg>