<?xml version="1.0" encoding="UTF-8" standalone="no"?>
<!-- Created with Inkscape (http://www.inkscape.org/) -->

<svg
   xmlns:dc="http://purl.org/dc/elements/1.1/"
   xmlns:cc="http://creativecommons.org/ns#"
   xmlns:rdf="http://www.w3.org/1999/02/22-rdf-syntax-ns#"
   xmlns:svg="http://www.w3.org/2000/svg"
   xmlns="http://www.w3.org/2000/svg"
   xmlns:sodipodi="http://sodipodi.sourceforge.net/DTD/sodipodi-0.dtd"
   xmlns:inkscape="http://www.inkscape.org/namespaces/inkscape"
   version="1.1"
   id="svg4057"
   xml:space="preserve"
   width="61.526268"
   height="59.542"
   viewBox="0 0 61.526268 59.542"
   sodipodi:docname="Icon-04.svg"
   inkscape:version="0.92.3 (2405546, 2018-03-11)"><metadata
     id="metadata4063"><rdf:RDF><cc:Work
         rdf:about=""><dc:format>image/svg+xml</dc:format><dc:type
           rdf:resource="http://purl.org/dc/dcmitype/StillImage" /><dc:title></dc:title></cc:Work></rdf:RDF></metadata><defs
     id="defs4061"><clipPath
       clipPathUnits="userSpaceOnUse"
       id="clipPath4073"><path
         d="M 0,44.656 H 46.145 V 0 H 0 Z"
         id="path4071"
         inkscape:connector-curvature="0" /></clipPath></defs><sodipodi:namedview
     pagecolor="#ffffff"
     bordercolor="#666666"
     borderopacity="1"
     objecttolerance="10"
     gridtolerance="10"
     guidetolerance="10"
     inkscape:pageopacity="0"
     inkscape:pageshadow="2"
     inkscape:window-width="713"
     inkscape:window-height="513"
     id="namedview4059"
     showgrid="false"
     inkscape:zoom="3.9635887"
     inkscape:cx="30.763134"
     inkscape:cy="29.771"
     inkscape:window-x="0"
     inkscape:window-y="0"
     inkscape:window-maximized="0"
     inkscape:current-layer="g4065" /><g
     id="g4065"
     inkscape:groupmode="layer"
     inkscape:label="Icons"
     transform="matrix(1.3333333,0,0,-1.3333333,0,59.542)"><g
       id="g4067"><g
         id="g4069"
         clip-path="url(#clipPath4073)"><g
           id="g4075"
           transform="translate(34.4413,44.6565)"><path
             d="m 0,0 c -6.473,0 -11.703,-5.266 -11.703,-11.739 v -4.882 H -30.94 v 0 h -0.315 c -1.757,0 -3.186,-1.429 -3.186,-3.186 v -21.664 c 0,-1.756 1.429,-3.185 3.186,-3.185 h 30.902 c 1.757,0 3.186,1.429 3.186,3.185 v 21.664 c 0,1.757 -1.429,3.186 -3.186,3.186 h -2.964 v 0 h -2.908 v 4.478 c 0,3.453 2.772,6.263 6.225,6.263 3.453,0 6.225,-2.81 6.225,-6.263 v -8.224 h 5.478 v 8.628 C 11.703,-5.266 6.473,0 0,0"
             style="fill:#000000;fill-opacity:1;fill-rule:nonzero;stroke:none"
             id="path4077"
             inkscape:connector-curvature="0" /></g></g></g></g></svg>