<?xml version="1.0" encoding="UTF-8" standalone="no"?>
<!-- Created with Inkscape (http://www.inkscape.org/) -->

<svg
   xmlns:dc="http://purl.org/dc/elements/1.1/"
   xmlns:cc="http://creativecommons.org/ns#"
   xmlns:rdf="http://www.w3.org/1999/02/22-rdf-syntax-ns#"
   xmlns:svg="http://www.w3.org/2000/svg"
   xmlns="http://www.w3.org/2000/svg"
   xmlns:sodipodi="http://sodipodi.sourceforge.net/DTD/sodipodi-0.dtd"
   xmlns:inkscape="http://www.inkscape.org/namespaces/inkscape"
   version="1.1"
   id="svg3936"
   xml:space="preserve"
   width="50.666668"
   height="60.076668"
   viewBox="0 0 50.666668 60.076668"
   sodipodi:docname="Icon-01.svg"
   inkscape:version="0.92.3 (2405546, 2018-03-11)"><metadata
     id="metadata3942"><rdf:RDF><cc:Work
         rdf:about=""><dc:format>image/svg+xml</dc:format><dc:type
           rdf:resource="http://purl.org/dc/dcmitype/StillImage" /><dc:title></dc:title></cc:Work></rdf:RDF></metadata><defs
     id="defs3940"><clipPath
       clipPathUnits="userSpaceOnUse"
       id="clipPath3952"><path
         d="M 0,45.057 H 38 V 0 H 0 Z"
         id="path3950"
         inkscape:connector-curvature="0" /></clipPath></defs><sodipodi:namedview
     pagecolor="#ffffff"
     bordercolor="#666666"
     borderopacity="1"
     objecttolerance="10"
     gridtolerance="10"
     guidetolerance="10"
     inkscape:pageopacity="0"
     inkscape:pageshadow="2"
     inkscape:window-width="713"
     inkscape:window-height="513"
     id="namedview3938"
     showgrid="false"
     inkscape:zoom="3.9283137"
     inkscape:cx="25.333334"
     inkscape:cy="30.038334"
     inkscape:window-x="0"
     inkscape:window-y="0"
     inkscape:window-maximized="0"
     inkscape:current-layer="g3944" /><g
     id="g3944"
     inkscape:groupmode="layer"
     inkscape:label="Icons"
     transform="matrix(1.3333333,0,0,-1.3333333,0,60.076667)"><g
       id="g3946"><g
         id="g3948"
         clip-path="url(#clipPath3952)"><g
           id="g3954"
           transform="translate(17.3593,6.3977)"><path
             d="m 0,0 c -0.539,-0.539 -1.27,-0.842 -2.032,-0.842 -0.761,0 -1.493,0.303 -2.031,0.842 l -6.127,6.127 4.063,4.063 4.095,-4.095 11.263,11.264 4.063,-4.063 z m -4.359,26.517 c 0,3.453 2.547,6.262 6,6.262 3.453,0 6,-2.809 6,-6.262 v -4.915 h -12 z m 21.532,-4.915 h -2.964 -0.568 v 5.318 c 0,6.474 -5.527,11.74 -12,11.74 -6.474,0 -12,-5.266 -12,-11.74 v -5.318 h -3.056 -0.315 c -1.757,0 -3.629,-0.992 -3.629,-2.749 V -2.811 c 0,-1.756 1.872,-3.587 3.629,-3.587 h 30.903 c 1.757,0 3.468,1.831 3.468,3.587 v 21.664 c 0,1.757 -1.711,2.749 -3.468,2.749"
             style="fill:#40a84c;fill-opacity:1;fill-rule:nonzero;stroke:none"
             id="path3956"
             inkscape:connector-curvature="0" /></g></g></g></g></svg>