<?xml version="1.0" encoding="UTF-8" standalone="no"?>
<!-- Created with Inkscape (http://www.inkscape.org/) -->

<svg
   xmlns:dc="http://purl.org/dc/elements/1.1/"
   xmlns:cc="http://creativecommons.org/ns#"
   xmlns:rdf="http://www.w3.org/1999/02/22-rdf-syntax-ns#"
   xmlns:svg="http://www.w3.org/2000/svg"
   xmlns="http://www.w3.org/2000/svg"
   xmlns:sodipodi="http://sodipodi.sourceforge.net/DTD/sodipodi-0.dtd"
   xmlns:inkscape="http://www.inkscape.org/namespaces/inkscape"
   version="1.1"
   id="svg3980"
   xml:space="preserve"
   width="49.333332"
   height="60.076668"
   viewBox="0 0 49.333332 60.076668"
   sodipodi:docname="Icon-02.svg"
   inkscape:version="0.92.3 (2405546, 2018-03-11)"><metadata
     id="metadata3986"><rdf:RDF><cc:Work
         rdf:about=""><dc:format>image/svg+xml</dc:format><dc:type
           rdf:resource="http://purl.org/dc/dcmitype/StillImage" /><dc:title></dc:title></cc:Work></rdf:RDF></metadata><defs
     id="defs3984"><clipPath
       clipPathUnits="userSpaceOnUse"
       id="clipPath3996"><path
         d="M 0,45.057 H 37 V 0 H 0 Z"
         id="path3994"
         inkscape:connector-curvature="0" /></clipPath></defs><sodipodi:namedview
     pagecolor="#ffffff"
     bordercolor="#666666"
     borderopacity="1"
     objecttolerance="10"
     gridtolerance="10"
     guidetolerance="10"
     inkscape:pageopacity="0"
     inkscape:pageshadow="2"
     inkscape:window-width="713"
     inkscape:window-height="513"
     id="namedview3982"
     showgrid="false"
     inkscape:zoom="3.9283137"
     inkscape:cx="24.666666"
     inkscape:cy="30.038334"
     inkscape:window-x="0"
     inkscape:window-y="0"
     inkscape:window-maximized="0"
     inkscape:current-layer="g3988" /><g
     id="g3988"
     inkscape:groupmode="layer"
     inkscape:label="Icons"
     transform="matrix(1.3333333,0,0,-1.3333333,0,60.076667)"><g
       id="g3990"><g
         id="g3992"
         clip-path="url(#clipPath3996)"><g
           id="g3998"
           transform="translate(27.6767,7.8452)"><path
             d="m 0,0 -3.832,-3.832 -5.699,5.7 -5.699,-5.7 -3.832,3.832 5.7,5.7 -5.7,5.7 3.832,3.832 5.699,-5.7 5.699,5.7 L 0,11.4 -5.699,5.7 Z m -15.677,25.07 c 0,3.453 3.048,6.262 6.501,6.262 3.452,0 6.499,-2.809 6.499,-6.262 v -4.915 h -13 z M 6.259,20.155 H 3.295 2.323 v 5.318 c 0,6.473 -5.026,11.739 -11.5,11.739 -6.473,0 -11.5,-5.266 -11.5,-11.739 v -5.318 h -3.652 -0.315 c -1.757,0 -3.033,-0.993 -3.033,-2.749 V -4.258 c 0,-1.757 1.276,-3.587 3.033,-3.587 H 6.259 c 1.757,0 3.064,1.83 3.064,3.587 v 21.664 c 0,1.756 -1.307,2.749 -3.064,2.749"
             style="fill:#cf4e53;fill-opacity:1;fill-rule:nonzero;stroke:none"
             id="path4000"
             inkscape:connector-curvature="0" /></g></g></g></g></svg>