<?xml version="1.0" encoding="UTF-8" standalone="no"?>
<!-- Created with Inkscape (http://www.inkscape.org/) -->

<svg
   xmlns:dc="http://purl.org/dc/elements/1.1/"
   xmlns:cc="http://creativecommons.org/ns#"
   xmlns:rdf="http://www.w3.org/1999/02/22-rdf-syntax-ns#"
   xmlns:svg="http://www.w3.org/2000/svg"
   xmlns="http://www.w3.org/2000/svg"
   xmlns:sodipodi="http://sodipodi.sourceforge.net/DTD/sodipodi-0.dtd"
   xmlns:inkscape="http://www.inkscape.org/namespaces/inkscape"
   version="1.1"
   id="svg4002"
   xml:space="preserve"
   width="49.6996"
   height="59.542"
   viewBox="0 0 49.6996 59.542"
   sodipodi:docname="Icon-03.svg"
   inkscape:version="0.92.3 (2405546, 2018-03-11)"><metadata
     id="metadata4008"><rdf:RDF><cc:Work
         rdf:about=""><dc:format>image/svg+xml</dc:format><dc:type
           rdf:resource="http://purl.org/dc/dcmitype/StillImage" /><dc:title></dc:title></cc:Work></rdf:RDF></metadata><defs
     id="defs4006"><clipPath
       clipPathUnits="userSpaceOnUse"
       id="clipPath4018"><path
         d="M 0,44.656 H 37.275 V 0 H 0 Z"
         id="path4016"
         inkscape:connector-curvature="0" /></clipPath></defs><sodipodi:namedview
     pagecolor="#ffffff"
     bordercolor="#666666"
     borderopacity="1"
     objecttolerance="10"
     gridtolerance="10"
     guidetolerance="10"
     inkscape:pageopacity="0"
     inkscape:pageshadow="2"
     inkscape:window-width="713"
     inkscape:window-height="513"
     id="namedview4004"
     showgrid="false"
     inkscape:zoom="3.9635887"
     inkscape:cx="24.8498"
     inkscape:cy="29.771"
     inkscape:window-x="0"
     inkscape:window-y="0"
     inkscape:window-maximized="0"
     inkscape:current-layer="g4010" /><g
     id="g4010"
     inkscape:groupmode="layer"
     inkscape:label="Icons"
     transform="matrix(1.3333333,0,0,-1.3333333,0,59.542)"><g
       id="g4012"><g
         id="g4014"
         clip-path="url(#clipPath4018)"><g
           id="g4020"
           transform="translate(12.4121,28.0354)"><path
             d="m 0,0 v 4.479 c 0,3.453 2.772,6.262 6.225,6.262 3.453,0 6.225,-2.809 6.225,-6.262 V 0 Z m 21.677,0 h -2.964 v 0 h -0.784 v 4.882 c 0,6.473 -5.231,11.739 -11.704,11.739 -6.473,0 -11.703,-5.266 -11.703,-11.739 V 0 h -3.433 v 0 h -0.315 c -1.757,0 -3.186,-1.429 -3.186,-3.186 v -21.663 c 0,-1.757 1.429,-3.186 3.186,-3.186 h 30.903 c 1.756,0 3.186,1.429 3.186,3.186 V -3.186 C 24.863,-1.429 23.433,0 21.677,0"
             style="fill:#b3b3b3;fill-opacity:1;fill-rule:nonzero;stroke:none"
             id="path4022"
             inkscape:connector-curvature="0" /></g></g></g></g></svg>