<?xml version="1.0" encoding="UTF-8" standalone="no"?>
<!-- Created with Inkscape (http://www.inkscape.org/) -->

<svg
   xmlns:dc="http://purl.org/dc/elements/1.1/"
   xmlns:cc="http://creativecommons.org/ns#"
   xmlns:rdf="http://www.w3.org/1999/02/22-rdf-syntax-ns#"
   xmlns:svg="http://www.w3.org/2000/svg"
   xmlns="http://www.w3.org/2000/svg"
   xmlns:sodipodi="http://sodipodi.sourceforge.net/DTD/sodipodi-0.dtd"
   xmlns:inkscape="http://www.inkscape.org/namespaces/inkscape"
   width="949.81952"
   height="289.01392"
   viewBox="0 0 251.30643 76.468259"
   version="1.1"
   id="svg8"
   inkscape:version="0.92.3 (2405546, 2018-03-11)"
   sodipodi:docname="icons.svg"
   inkscape:export-filename="/home/anxhelo/works/Enigmail/Icons/PNG/icons.png"
   inkscape:export-xdpi="96"
   inkscape:export-ydpi="96">
  <defs
     id="defs2">
    <clipPath
       id="clipPath3952"
       clipPathUnits="userSpaceOnUse">
      <path
         inkscape:connector-curvature="0"
         id="path3950"
         d="M 0,45.057 H 38 V 0 H 0 Z" />
    </clipPath>
    <clipPath
       id="clipPath3996"
       clipPathUnits="userSpaceOnUse">
      <path
         inkscape:connector-curvature="0"
         id="path3994"
         d="M 0,45.057 H 37 V 0 H 0 Z" />
    </clipPath>
  </defs>
  <sodipodi:namedview
     id="base"
     pagecolor="#ffffff"
     bordercolor="#666666"
     borderopacity="1.0"
     inkscape:pageopacity="0"
     inkscape:pageshadow="2"
     inkscape:zoom="0.52467208"
     inkscape:cx="48.111004"
     inkscape:cy="216.31561"
     inkscape:document-units="px"
     inkscape:current-layer="g84"
     inkscape:document-rotation="0"
     showgrid="false"
     borderlayer="true"
     inkscape:showpageshadow="true"
     units="px"
     inkscape:pagecheckerboard="false"
     showguides="false"
     inkscape:window-width="1366"
     inkscape:window-height="718"
     inkscape:window-x="0"
     inkscape:window-y="0"
     inkscape:window-maximized="1"
     objecttolerance="10"
     guidetolerance="10"
     inkscape:snap-tangential="true"
     inkscape:snap-perpendicular="true"
     fit-margin-top="0"
     fit-margin-left="0"
     fit-margin-right="0"
     fit-margin-bottom="0">
    <inkscape:grid
       type="xygrid"
       id="grid10"
       dotted="false"
       originx="-145.19953"
       originy="-112.42028" />
  </sodipodi:namedview>
  <metadata
     id="metadata5">
    <rdf:RDF>
      <cc:Work
         rdf:about="">
        <dc:format>image/svg+xml</dc:format>
        <dc:type
           rdf:resource="http://purl.org/dc/dcmitype/StillImage" />
        <dc:title />
        <cc:license
           rdf:resource="" />
      </cc:Work>
    </rdf:RDF>
  </metadata>
  <g
     inkscape:label="Layer 1"
     inkscape:groupmode="layer"
     id="layer1"
     transform="translate(-145.19949,-108.11144)">
    <g
       id="g2159"
       transform="matrix(1.5853464,0,0,1.5853464,-118.56946,-76.074057)">
      <g
         transform="matrix(0.35277777,0,0,-0.35277777,294.21543,116.17997)"
         id="g20">
        <path
           inkscape:connector-curvature="0"
           id="path22"
           style="fill:#b3b3b3;fill-opacity:1;fill-rule:nonzero;stroke:none"
           d="m 0,0 c -6.474,0 -11.704,-5.267 -11.704,-11.739 v -4.882 h -19.236 -0.316 c -1.757,0 -3.185,-1.429 -3.185,-3.186 v -21.664 c 0,-1.757 1.428,-3.185 3.185,-3.185 h 30.903 c 1.756,0 3.186,1.428 3.186,3.185 v 21.664 c 0,1.757 -1.43,3.186 -3.186,3.186 h -2.964 -2.909 v 4.478 c 0,3.454 2.773,6.262 6.226,6.262 3.452,0 6.225,-2.808 6.225,-6.262 v -8.224 h 5.478 v 8.628 C 11.703,-5.267 6.473,0 0,0" />
      </g>
      <g
         transform="matrix(0.35277777,0,0,-0.35277777,229.65709,122.04353)"
         id="g32">
        <path
           inkscape:connector-curvature="0"
           id="path34"
           style="fill:#b3b3b3;fill-opacity:1;fill-rule:nonzero;stroke:none"
           d="m 0,0 v 4.479 c 0,3.453 2.772,6.261 6.226,6.261 3.452,0 6.224,-2.808 6.224,-6.261 V 0 Z m 21.677,0 h -2.964 -0.784 v 4.882 c 0,6.472 -5.231,11.739 -11.703,11.739 -6.474,0 -11.705,-5.267 -11.705,-11.739 V 0 h -3.432 -0.316 c -1.755,0 -3.185,-1.429 -3.185,-3.186 V -24.85 c 0,-1.756 1.43,-3.185 3.185,-3.185 h 30.904 c 1.757,0 3.185,1.429 3.185,3.185 V -3.186 C 24.862,-1.429 23.434,0 21.677,0" />
      </g>
      <g
         transform="matrix(0.35277777,0,0,-0.35277777,265.14537,116.17997)"
         id="g36">
        <path
           inkscape:connector-curvature="0"
           id="path38"
           style="fill:#000000;fill-opacity:1;fill-rule:nonzero;stroke:none"
           d="m 0,0 c -6.474,0 -11.704,-5.267 -11.704,-11.739 v -4.882 h -19.236 -0.316 c -1.757,0 -3.185,-1.429 -3.185,-3.186 v -21.664 c 0,-1.757 1.428,-3.185 3.185,-3.185 h 30.903 c 1.756,0 3.186,1.428 3.186,3.185 v 21.664 c 0,1.757 -1.43,3.186 -3.186,3.186 h -2.964 -2.909 v 4.478 c 0,3.454 2.773,6.262 6.226,6.262 3.452,0 6.225,-2.808 6.225,-6.262 v -8.224 h 5.478 v 8.628 C 11.703,-5.267 6.473,0 0,0" />
      </g>
      <g
         transform="matrix(0.35277777,0,0,-0.35277777,170.36425,127.08437)"
         id="g84">
        <g
           transform="matrix(0.98629048,0,0,0.98629048,-9.2083903,-13.733435)"
           inkscape:label="Icons"
           id="g3944">
          <g
             id="g3946">
            <g
               clip-path="url(#clipPath3952)"
               id="g3948">
              <g
                 transform="translate(17.3593,6.3977)"
                 id="g3954">
                <path
                   inkscape:connector-curvature="0"
                   id="path3956"
                   style="fill:#40a84c;fill-opacity:1;fill-rule:nonzero;stroke:none"
                   d="m 0,0 c -0.539,-0.539 -1.27,-0.842 -2.032,-0.842 -0.761,0 -1.493,0.303 -2.031,0.842 l -6.127,6.127 4.063,4.063 4.095,-4.095 11.263,11.264 4.063,-4.063 z m -4.359,26.517 c 0,3.453 2.547,6.262 6,6.262 3.453,0 6,-2.809 6,-6.262 v -4.915 h -12 z m 21.532,-4.915 h -2.964 -0.568 v 5.318 c 0,6.474 -5.527,11.74 -12,11.74 -6.474,0 -12,-5.266 -12,-11.74 v -5.318 h -3.056 -0.315 c -1.757,0 -3.629,-0.992 -3.629,-2.749 V -2.811 c 0,-1.756 1.872,-3.587 3.629,-3.587 h 30.903 c 1.757,0 3.468,1.831 3.468,3.587 v 21.664 c 0,1.757 -1.711,2.749 -3.468,2.749" />
              </g>
            </g>
          </g>
        </g>
        <g
           transform="matrix(0.99964187,0,0,0.99964187,73.324862,-14.134801)"
           inkscape:label="Icons"
           id="g3988">
          <g
             id="g3990">
            <g
               clip-path="url(#clipPath3996)"
               id="g3992">
              <g
                 transform="translate(27.6767,7.8452)"
                 id="g3998">
                <path
                   inkscape:connector-curvature="0"
                   id="path4000"
                   style="fill:#cf4e53;fill-opacity:1;fill-rule:nonzero;stroke:none"
                   d="m 0,0 -3.832,-3.832 -5.699,5.7 -5.699,-5.7 -3.832,3.832 5.7,5.7 -5.7,5.7 3.832,3.832 5.699,-5.7 5.699,5.7 L 0,11.4 -5.699,5.7 Z m -15.677,25.07 c 0,3.453 3.048,6.262 6.501,6.262 3.452,0 6.499,-2.809 6.499,-6.262 v -4.915 h -13 z M 6.259,20.155 H 3.295 2.323 v 5.318 c 0,6.473 -5.026,11.739 -11.5,11.739 -6.473,0 -11.5,-5.266 -11.5,-11.739 v -5.318 h -3.652 -0.315 c -1.757,0 -3.033,-0.993 -3.033,-2.749 V -4.258 c 0,-1.757 1.276,-3.587 3.033,-3.587 H 6.259 c 1.757,0 3.064,1.83 3.064,3.587 v 21.664 c 0,1.756 -1.307,2.749 -3.064,2.749" />
              </g>
            </g>
          </g>
        </g>
      </g>
      <g
         transform="matrix(0.35277777,0,0,-0.35277777,199.87873,124.51159)"
         id="g88" />
      <g
         transform="matrix(0.35277777,0,0,-0.35277777,205.44909,124.51159)"
         id="g92" />
      <g
         transform="matrix(0.35277777,0,0,-0.35277777,324.12404,123.26826)"
         id="g96">
        <path
           inkscape:connector-curvature="0"
           id="path98"
           style="fill:#fbab2d;fill-opacity:1;fill-rule:nonzero;stroke:none"
           d="m 0,0 -16.816,-16.816 c -3.231,-3.231 -8.468,-3.231 -11.699,0 -3.23,3.23 -3.23,8.467 0,11.698 l 18.279,18.278 c 2.018,2.02 5.292,2.02 7.311,0 2.019,-2.018 2.019,-5.292 0,-7.311 L -18.279,-9.505 c -0.808,-0.808 -2.117,-0.808 -2.924,0 -0.808,0.808 -0.808,2.116 0,2.924 L -7.312,7.312 -9.505,9.505 -23.397,-4.388 c -2.019,-2.018 -2.019,-5.292 0,-7.311 2.019,-2.019 5.293,-2.019 7.311,0 L -0.731,3.655 c 3.23,3.231 3.23,8.468 0,11.699 -3.231,3.23 -8.468,3.23 -11.699,0 L -30.708,-2.925 c -4.442,-4.442 -4.442,-11.643 0,-16.085 4.441,-4.442 11.643,-4.442 16.085,0 L 2.193,-2.193 Z" />
      </g>
      <g
         transform="matrix(0.35277777,0,0,-0.35277777,167.66984,157.63411)"
         id="g100">
        <path
           inkscape:connector-curvature="0"
           id="path102"
           style="fill:#40a84c;fill-opacity:1;fill-rule:nonzero;stroke:none"
           d="m 0,0 -3.658,-13.982 14.003,3.741 -0.501,4.514 -4.828,0.355 -0.376,4.85 M 18.162,18.894 1.233,1.943 6.583,1.358 6.959,-3.428 11.725,-3.783 12.331,-9.134 29.26,7.816 m -2.947,17.912 c -0.815,0 -1.609,-0.314 -2.236,-0.92 l -4.431,-4.431 11.077,-11.098 4.43,4.389 c 1.254,1.275 1.254,3.261 0,4.473 l -6.625,6.667 c -0.627,0.606 -1.421,0.92 -2.215,0.92" />
      </g>
      <g
         transform="matrix(0.35277777,0,0,-0.35277777,176.53148,161.6194)"
         id="g104">
        <path
           inkscape:connector-curvature="0"
           id="path106"
           style="fill:#40a84c;fill-opacity:1;fill-rule:nonzero;stroke:none"
           d="m 0,0 -4.095,4.095 -4.064,-4.064 6.127,-6.127 c 0.539,-0.539 1.271,-0.841 2.032,-0.841 0.762,0 1.493,0.302 2.032,0.841 L 15.326,7.2 11.262,11.264 Z" />
      </g>
      <g
         transform="matrix(0.35277777,0,0,-0.35277777,210.37006,158.87779)"
         id="g108">
        <path
           inkscape:connector-curvature="0"
           id="path110"
           style="fill:#cf4e53;fill-opacity:1;fill-rule:nonzero;stroke:none"
           d="M 0,0 -3.245,3.245 -8.071,-1.582 -12.898,3.245 -16.144,0 l 4.828,-4.827 -4.828,-4.827 3.246,-3.245 4.827,4.827 4.826,-4.827 3.245,3.245 -4.827,4.827 z" />
      </g>
      <g
         transform="matrix(0.35277777,0,0,-0.35277777,196.73989,157.63411)"
         id="g112">
        <path
           inkscape:connector-curvature="0"
           id="path114"
           style="fill:#cf4e53;fill-opacity:1;fill-rule:nonzero;stroke:none"
           d="m 0,0 -3.657,-13.982 14.003,3.741 -0.502,4.514 -4.828,0.355 -0.376,4.85 M 18.162,18.894 1.233,1.943 6.583,1.358 6.96,-3.428 11.725,-3.783 12.331,-9.134 29.26,7.816 m -2.948,17.912 c -0.814,0 -1.608,-0.314 -2.236,-0.92 l -4.43,-4.431 11.077,-11.098 4.43,4.389 c 1.254,1.275 1.254,3.261 0,4.473 l -6.625,6.667 c -0.627,0.606 -1.421,0.92 -2.216,0.92" />
      </g>
      <g
         transform="matrix(0.35277777,0,0,-0.35277777,225.80995,157.63411)"
         id="g116">
        <path
           inkscape:connector-curvature="0"
           id="path118"
           style="fill:#b3b3b3;fill-opacity:1;fill-rule:nonzero;stroke:none"
           d="m 0,0 -3.657,-13.982 14.003,3.741 -0.502,4.514 -4.828,0.355 -0.376,4.85 M 18.162,18.894 1.233,1.943 6.583,1.358 6.96,-3.428 11.725,-3.783 12.331,-9.134 29.26,7.816 m -2.948,17.912 c -0.814,0 -1.608,-0.314 -2.236,-0.92 l -4.43,-4.431 11.077,-11.098 4.43,4.389 c 1.254,1.275 1.254,3.261 0,4.473 l -6.625,6.667 c -0.627,0.606 -1.421,0.92 -2.216,0.92" />
      </g>
      <path
         inkscape:connector-curvature="0"
         id="path120"
         style="fill:#cf4e53;fill-opacity:1;fill-rule:nonzero;stroke:none;stroke-width:0.35277775"
         d="m 256.76097,150.14382 h 9.51371 v 3.17112 h -9.51371 z m 11.09945,9.36519 v -9.36519 c 0,-0.8763 -0.71014,-1.58573 -1.58574,-1.58573 h -9.51371 c -0.87559,0 -1.58573,0.70943 -1.58573,1.58573 V 162.829 c 0,0.87525 0.71014,1.58539 1.58573,1.58539 h 6.19372 v -4.90538 z" />
      <g
         transform="matrix(0.35277777,0,0,-0.35277777,263.7477,164.41439)"
         id="g122">
        <path
           inkscape:connector-curvature="0"
           id="path124"
           style="fill:#cf4e53;fill-opacity:1;fill-rule:nonzero;stroke:none"
           d="M 0,0 11.658,11.657 H 0 Z" />
      </g>
      <g
         transform="matrix(0.35277777,0,0,-0.35277777,284.64185,162.82897)"
         id="g126">
        <path
           inkscape:connector-curvature="0"
           id="path128"
           style="fill:#b3b3b3;fill-opacity:1;fill-rule:nonzero;stroke:none"
           d="M 0,0 C 0,-2.481 2.012,-4.494 4.495,-4.494 H 22.052 V 9.411 h 13.906 v 26.547 c 0,2.483 -2.013,4.495 -4.495,4.495 H 4.495 C 2.012,40.453 0,38.441 0,35.958" />
      </g>
      <g
         transform="matrix(0.35277777,0,0,-0.35277777,293.21392,164.41439)"
         id="g130">
        <path
           inkscape:connector-curvature="0"
           id="path132"
           style="fill:#b3b3b3;fill-opacity:1;fill-rule:nonzero;stroke:none"
           d="M 0,0 11.659,11.657 H 0 Z" />
      </g>
    </g>
  </g>
</svg>
