<?xml version="1.0" encoding="UTF-8" standalone="no"?>
<!-- Created with Inkscape (http://www.inkscape.org/) -->

<svg
   xmlns:dc="http://purl.org/dc/elements/1.1/"
   xmlns:cc="http://creativecommons.org/ns#"
   xmlns:rdf="http://www.w3.org/1999/02/22-rdf-syntax-ns#"
   xmlns:svg="http://www.w3.org/2000/svg"
   xmlns="http://www.w3.org/2000/svg"
   xmlns:sodipodi="http://sodipodi.sourceforge.net/DTD/sodipodi-0.dtd"
   xmlns:inkscape="http://www.inkscape.org/namespaces/inkscape"
   version="1.1"
   id="svg4243"
   xml:space="preserve"
   width="58.804401"
   height="58.615868"
   viewBox="0 0 58.804401 58.615868"
   sodipodi:docname="Icon-11.svg"
   inkscape:version="0.92.3 (2405546, 2018-03-11)"><metadata
     id="metadata4249"><rdf:RDF><cc:Work
         rdf:about=""><dc:format>image/svg+xml</dc:format><dc:type
           rdf:resource="http://purl.org/dc/dcmitype/StillImage" /><dc:title></dc:title></cc:Work></rdf:RDF></metadata><defs
     id="defs4247"><clipPath
       clipPathUnits="userSpaceOnUse"
       id="clipPath4259"><path
         d="M 0,43.962 H 44.103 V 0 H 0 Z"
         id="path4257"
         inkscape:connector-curvature="0" /></clipPath></defs><sodipodi:namedview
     pagecolor="#ffffff"
     bordercolor="#666666"
     borderopacity="1"
     objecttolerance="10"
     gridtolerance="10"
     guidetolerance="10"
     inkscape:pageopacity="0"
     inkscape:pageshadow="2"
     inkscape:window-width="713"
     inkscape:window-height="513"
     id="namedview4245"
     showgrid="false"
     inkscape:zoom="4.0262135"
     inkscape:cx="29.402201"
     inkscape:cy="29.307934"
     inkscape:window-x="0"
     inkscape:window-y="0"
     inkscape:window-maximized="0"
     inkscape:current-layer="g4251" /><g
     id="g4251"
     inkscape:groupmode="layer"
     inkscape:label="Icons"
     transform="matrix(1.3333333,0,0,-1.3333333,0,58.615867)"><g
       id="g4253"><g
         id="g4255"
         clip-path="url(#clipPath4259)"><g
           id="g4261"
           transform="translate(3.6575,18.234)"><path
             d="m 0,0 -3.657,-13.982 14.002,3.741 -0.501,4.514 -4.828,0.356 -0.376,4.848 M 18.162,18.894 1.233,1.944 6.583,1.358 6.96,-3.428 l 4.765,-0.355 0.606,-5.35 16.929,16.95 m -2.947,17.911 c -0.815,0 -1.609,-0.314 -2.236,-0.92 L 19.646,20.377 30.723,9.28 l 4.431,4.389 c 1.254,1.274 1.254,3.26 0,4.472 l -6.626,6.667 c -0.627,0.606 -1.421,0.92 -2.215,0.92"
             style="fill:#40a84c;fill-opacity:1;fill-rule:nonzero;stroke:none"
             id="path4263"
             inkscape:connector-curvature="0" /></g><g
           id="g4265"
           transform="translate(28.7773,6.9371)"><path
             d="m 0,0 -4.095,4.095 -4.064,-4.063 6.127,-6.127 c 0.539,-0.539 1.271,-0.842 2.032,-0.842 0.761,0 1.493,0.303 2.032,0.842 l 13.294,13.296 -4.064,4.063 z"
             style="fill:#40a84c;fill-opacity:1;fill-rule:nonzero;stroke:none"
             id="path4267"
             inkscape:connector-curvature="0" /></g></g></g></g></svg>