<?xml version="1.0" encoding="UTF-8" standalone="no"?>
<!-- Created with Inkscape (http://www.inkscape.org/) -->

<svg
   xmlns:dc="http://purl.org/dc/elements/1.1/"
   xmlns:cc="http://creativecommons.org/ns#"
   xmlns:rdf="http://www.w3.org/1999/02/22-rdf-syntax-ns#"
   xmlns:svg="http://www.w3.org/2000/svg"
   xmlns="http://www.w3.org/2000/svg"
   xmlns:sodipodi="http://sodipodi.sourceforge.net/DTD/sodipodi-0.dtd"
   xmlns:inkscape="http://www.inkscape.org/namespaces/inkscape"
   width="93.225998"
   height="92.926399"
   viewBox="0 0 24.666048 24.586776"
   version="1.1"
   id="svg8"
   inkscape:version="0.92.2 (5c3e80d, 2017-08-06)"
   sodipodi:docname="sign-active-18.svg"
   inkscape:export-filename="/home/anxhelo/works/Enigmail/Icons/PNG/sign-active-18.png"
   inkscape:export-xdpi="96"
   inkscape:export-ydpi="96">
  <defs
     id="defs2" />
  <sodipodi:namedview
     id="base"
     pagecolor="#ffffff"
     bordercolor="#666666"
     borderopacity="1.0"
     inkscape:pageopacity="0"
     inkscape:pageshadow="2"
     inkscape:zoom="2.0986883"
     inkscape:cx="17.922924"
     inkscape:cy="77.269966"
     inkscape:document-units="px"
     inkscape:current-layer="layer1"
     inkscape:document-rotation="0"
     showgrid="false"
     borderlayer="true"
     inkscape:showpageshadow="true"
     units="px"
     inkscape:pagecheckerboard="false"
     showguides="true"
     inkscape:window-width="1366"
     inkscape:window-height="715"
     inkscape:window-x="0"
     inkscape:window-y="0"
     inkscape:window-maximized="1"
     objecttolerance="10"
     guidetolerance="10"
     inkscape:snap-tangential="true"
     inkscape:snap-perpendicular="true"
     fit-margin-top="0"
     fit-margin-left="0"
     fit-margin-right="0"
     fit-margin-bottom="0">
    <inkscape:grid
       type="xygrid"
       id="grid10"
       dotted="false"
       originx="-244.61411"
       originy="-44.334452" />
  </sodipodi:namedview>
  <metadata
     id="metadata5">
    <rdf:RDF>
      <cc:Work
         rdf:about="">
        <dc:format>image/svg+xml</dc:format>
        <dc:type
           rdf:resource="http://purl.org/dc/dcmitype/StillImage" />
        <dc:title></dc:title>
        <cc:license
           rdf:resource="" />
      </cc:Work>
    </rdf:RDF>
  </metadata>
  <g
     inkscape:label="Layer 1"
     inkscape:groupmode="layer"
     id="layer1"
     transform="translate(-244.61403,-228.07875)">
    <g
       id="g1718">
      <g
         id="g100"
         transform="matrix(0.559275,0,0,-0.559275,246.65986,242.46778)">
        <path
           d="m 0,0 -3.658,-13.982 14.003,3.741 -0.501,4.514 -4.828,0.355 -0.376,4.85 M 18.162,18.894 1.233,1.943 6.583,1.358 6.959,-3.428 11.725,-3.783 12.331,-9.134 29.26,7.816 m -2.947,17.912 c -0.815,0 -1.609,-0.314 -2.236,-0.92 l -4.431,-4.431 11.077,-11.098 4.43,4.389 c 1.254,1.275 1.254,3.261 0,4.473 l -6.625,6.667 c -0.627,0.606 -1.421,0.92 -2.215,0.92"
           style="fill:#40a84c;fill-opacity:1;fill-rule:nonzero;stroke:none"
           id="path102"
           inkscape:connector-curvature="0" />
      </g>
      <g
         id="g104"
         transform="matrix(0.559275,0,0,-0.559275,260.70863,248.78584)">
        <path
           d="m 0,0 -4.095,4.095 -4.064,-4.064 6.127,-6.127 c 0.539,-0.539 1.271,-0.841 2.032,-0.841 0.762,0 1.493,0.302 2.032,0.841 L 15.326,7.2 11.262,11.264 Z"
           style="fill:#40a84c;fill-opacity:1;fill-rule:nonzero;stroke:none"
           id="path106"
           inkscape:connector-curvature="0" />
      </g>
    </g>
  </g>
</svg>
