<?xml version="1.0" encoding="UTF-8" standalone="no"?>
<!-- Created with Inkscape (http://www.inkscape.org/) -->

<svg
   xmlns:dc="http://purl.org/dc/elements/1.1/"
   xmlns:cc="http://creativecommons.org/ns#"
   xmlns:rdf="http://www.w3.org/1999/02/22-rdf-syntax-ns#"
   xmlns:svg="http://www.w3.org/2000/svg"
   xmlns="http://www.w3.org/2000/svg"
   xmlns:sodipodi="http://sodipodi.sourceforge.net/DTD/sodipodi-0.dtd"
   xmlns:inkscape="http://www.inkscape.org/namespaces/inkscape"
   version="1.1"
   id="svg4195"
   xml:space="preserve"
   width="53.002266"
   height="52.946533"
   viewBox="0 0 53.002266 52.946533"
   sodipodi:docname="Icon-09.svg"
   inkscape:version="0.92.3 (2405546, 2018-03-11)"><metadata
     id="metadata4201"><rdf:RDF><cc:Work
         rdf:about=""><dc:format>image/svg+xml</dc:format><dc:type
           rdf:resource="http://purl.org/dc/dcmitype/StillImage" /><dc:title></dc:title></cc:Work></rdf:RDF></metadata><defs
     id="defs4199"><clipPath
       clipPathUnits="userSpaceOnUse"
       id="clipPath4211"><path
         d="M 0,39.71 H 39.752 V 0 H 0 Z"
         id="path4209"
         inkscape:connector-curvature="0" /></clipPath></defs><sodipodi:namedview
     pagecolor="#ffffff"
     bordercolor="#666666"
     borderopacity="1"
     objecttolerance="10"
     gridtolerance="10"
     guidetolerance="10"
     inkscape:pageopacity="0"
     inkscape:pageshadow="2"
     inkscape:window-width="713"
     inkscape:window-height="513"
     id="namedview4197"
     showgrid="false"
     inkscape:zoom="4.4573268"
     inkscape:cx="26.501133"
     inkscape:cy="26.473267"
     inkscape:window-x="0"
     inkscape:window-y="0"
     inkscape:window-maximized="0"
     inkscape:current-layer="g4203" /><g
     id="g4203"
     inkscape:groupmode="layer"
     inkscape:label="Icons"
     transform="matrix(1.3333333,0,0,-1.3333333,0,52.946533)"><g
       id="g4205"><g
         id="g4207"
         clip-path="url(#clipPath4211)"><g
           id="g4213"
           transform="translate(3.6575,13.9821)"><path
             d="m 0,0 -3.657,-13.982 14.002,3.741 -0.501,4.514 -4.828,0.356 -0.376,4.849 M 18.162,18.894 1.233,1.944 6.583,1.358 6.96,-3.428 l 4.765,-0.355 0.606,-5.35 16.929,16.95 m -2.947,17.911 c -0.815,0 -1.609,-0.314 -2.236,-0.92 L 19.646,20.377 30.723,9.28 l 4.431,4.389 c 1.254,1.274 1.254,3.26 0,4.472 l -6.626,6.667 c -0.627,0.606 -1.421,0.92 -2.215,0.92"
             style="fill:#b3b3b3;fill-opacity:1;fill-rule:nonzero;stroke:none"
             id="path4215"
             inkscape:connector-curvature="0" /></g></g></g></g></svg>