<svg width="792" height="140" viewBox="0 0 792 140" fill="none" xmlns="http://www.w3.org/2000/svg">
<mask id="path-1-outside-1_615_509" maskUnits="userSpaceOnUse" x="0" y="-0.383667" width="792" height="140" fill="black">
<rect fill="white" y="-0.383667" width="792" height="140"/>
<path d="M237.06 38.1652V44.3815H243.101V97.7768H250.959V38.1652H237.06Z"/>
<path d="M269.284 40.9229H261.836V54.1765H254.33V60.0409H261.836V82.912C261.684 86.099 262.329 89.2737 263.713 92.1484C264.959 94.3265 266.931 95.9974 269.284 96.8692C272.007 97.8596 274.89 98.3368 277.787 98.2767H284.473V91.2394H276.703C274.699 91.3633 272.727 90.6886 271.219 89.3628C270.552 88.6208 270.038 87.7546 269.706 86.8138C269.374 85.8729 269.231 84.8759 269.284 83.8796V60.0409H284.297V54.1765H269.284V40.9229Z"/>
<path d="M181.845 87.3978C180.696 88.8959 179.209 90.1015 177.505 90.9164C175.513 91.8374 173.336 92.2888 171.142 92.2359C168.337 92.3177 165.571 91.5623 163.196 90.0661C161.131 88.5855 159.526 86.553 158.563 84.2017C157.498 81.5769 156.97 78.7653 157.009 75.9329C156.953 73.08 157.482 70.2459 158.563 67.6054C159.509 65.2442 161.118 63.2073 163.196 61.741C165.512 60.266 168.222 59.5298 170.966 59.6299C174.075 59.4712 177.134 60.4628 179.558 62.4155C181.624 64.1144 182.966 66.5362 183.311 69.1888H190.817C190.709 66.0352 189.69 62.9803 187.885 60.3922C186.114 57.8356 183.682 55.8086 180.848 54.5278C177.776 53.1254 174.431 52.4243 171.054 52.4753C167.762 52.412 164.496 53.0831 161.495 54.4399C158.811 55.7319 156.439 57.593 154.546 59.8938C152.758 62.0178 151.376 64.4531 150.47 67.0776C149.565 69.7013 149.09 72.4539 149.063 75.2291V76.6952C149.071 79.417 149.517 82.1197 150.382 84.7001C151.313 87.3673 152.691 89.8563 154.458 92.06C156.313 94.2677 158.624 96.0482 161.232 97.2793C164.319 98.6557 167.675 99.3268 171.054 99.2438C174.479 99.3058 177.875 98.6047 180.995 97.1913C183.864 95.8901 186.348 93.8701 188.208 91.3269C190.027 88.7458 191.046 85.6866 191.14 82.5303H183.78C183.574 84.2946 182.906 85.9733 181.845 87.3978Z"/>
<path d="M425.423 47.1389C426.124 47.1951 426.83 47.1012 427.492 46.8636C428.154 46.626 428.758 46.25 429.264 45.7608C430.13 44.7971 430.592 43.5372 430.554 42.2421C430.592 40.9471 430.13 39.6871 429.264 38.7235C428.763 38.2237 428.162 37.8369 427.499 37.5891C426.837 37.3413 426.129 37.2382 425.423 37.2867C424.708 37.2327 423.99 37.3273 423.314 37.5645C422.638 37.8017 422.018 38.1763 421.494 38.6649C420.659 39.6433 420.22 40.8981 420.262 42.1835C420.22 43.4688 420.659 44.7237 421.494 45.7021C422.013 46.2011 422.631 46.5866 423.307 46.834C423.984 47.0813 424.704 47.1852 425.423 47.1389Z"/>
<path d="M224.919 80.1255C225.015 81.725 224.789 83.3275 224.255 84.8384C223.722 86.3493 222.89 87.7378 221.811 88.9221C220.754 89.9495 219.5 90.7521 218.124 91.2812C216.748 91.8104 215.279 92.0552 213.806 92.0009C212.419 92.0633 211.035 91.8346 209.742 91.3296C208.449 90.8246 207.277 90.0544 206.3 89.0687C204.339 86.8445 203.338 83.9354 203.514 80.9758V54.0876H195.685V79.3924C195.324 84.6151 196.797 89.8 199.849 94.0534C201.313 95.7534 203.147 97.0948 205.211 97.9743C207.275 98.8537 209.513 99.2478 211.753 99.1261H212.076C215.106 99.2542 218.102 98.4564 220.667 96.839C223.029 95.1583 224.82 92.7945 225.799 90.0656C226.095 89.3111 226.34 88.5371 226.532 87.7492V97.836H232.748V54.0876H224.919V80.1255Z"/>
<path d="M294.47 47.1386C295.172 47.1986 295.878 47.1066 296.541 46.8688C297.204 46.6309 297.808 46.2529 298.311 45.7605C299.196 44.8063 299.67 43.5425 299.631 42.2419C299.67 40.9412 299.196 39.6774 298.311 38.7232C297.813 38.2203 297.211 37.8314 296.548 37.5833C295.885 37.3353 295.176 37.234 294.47 37.2864C293.76 37.233 293.046 37.3279 292.375 37.5652C291.704 37.8024 291.089 38.1768 290.57 38.6646C289.736 39.643 289.296 40.8979 289.339 42.1832C289.296 43.4686 289.736 44.7234 290.57 45.7018C291.084 46.2001 291.697 46.5853 292.368 46.8327C293.04 47.0802 293.756 47.1844 294.47 47.1386Z"/>
<path d="M285.556 54.1764V60.3927H292.271V97.7782H300.1V54.1764H285.556Z"/>
<path d="M478.233 59.8056C476.166 57.5925 473.659 55.8349 470.874 54.645C464.546 52.0254 457.438 52.0254 451.111 54.645C448.334 55.8354 445.837 57.5932 443.78 59.8056C441.828 61.9057 440.322 64.3794 439.353 67.0775C438.319 69.6706 437.792 72.4375 437.798 75.229V76.6951C437.79 79.4881 438.287 82.2597 439.265 84.8759C440.302 87.5541 441.823 90.0189 443.751 92.1478C445.835 94.3213 448.326 96.0646 451.081 97.2791C457.52 99.8983 464.728 99.8983 471.167 97.2791C473.857 96.1092 476.283 94.4073 478.298 92.2758C480.314 90.1444 481.878 87.6273 482.896 84.8759C483.915 82.2685 484.442 79.4947 484.45 76.6951V75.229C484.442 72.4389 483.915 69.6747 482.896 67.0775C481.856 64.3596 480.269 61.8845 478.233 59.8056ZM474.539 84.2015C473.36 86.6188 471.52 88.6523 469.232 90.0659C466.712 91.5484 463.826 92.2903 460.904 92.2064C457.956 92.2772 455.045 91.5368 452.489 90.0659C450.228 88.6195 448.396 86.5947 447.181 84.2015C445.958 81.6193 445.346 78.7898 445.393 75.9327C445.339 73.0464 445.983 70.1897 447.269 67.6053C448.484 65.1845 450.353 63.1528 452.665 61.7409C455.195 60.355 458.034 59.6285 460.919 59.6285C463.804 59.6285 466.643 60.355 469.173 61.7409C471.475 63.1546 473.335 65.1866 474.539 67.6053C475.825 70.1897 476.469 73.0464 476.415 75.9327C476.462 78.7995 475.818 81.6355 474.539 84.2015Z"/>
<path d="M524.677 58.017C523.228 56.2629 521.381 54.8798 519.29 53.9822C517.2 53.0847 514.925 52.6987 512.655 52.8563H512.332C509.144 52.736 505.991 53.5624 503.272 55.2314C500.794 56.8524 498.903 59.227 497.877 62.0048C497.584 62.7509 497.339 63.5148 497.144 64.2919V54.1758H490.927V97.7776H498.786V71.7103C498.713 70.1571 498.956 68.6052 499.5 67.1487C500.045 65.6921 500.879 64.3611 501.953 63.2363C503.049 62.163 504.353 61.3257 505.785 60.776C507.218 60.2263 508.747 59.9759 510.28 60.0402C511.737 59.9591 513.194 60.195 514.55 60.7316C515.907 61.2682 517.131 62.0928 518.138 63.1483C520.143 65.3545 521.197 68.2627 521.07 71.2412V97.631H528.929V72.7073C529.177 67.4749 527.681 62.3082 524.677 58.017Z"/>
<path d="M416.508 54.1764V60.3927H423.194V97.7782H431.052V54.1764H416.508Z"/>
<path d="M400.293 40.9229H392.757V54.1765H385.251V60.0409H392.757V82.912C392.619 86.0978 393.264 89.269 394.634 92.1484C395.862 94.3077 397.799 95.9757 400.117 96.8692C402.839 97.8635 405.723 98.3409 408.62 98.2767H415.306V91.2394H407.623C406.635 91.3033 405.645 91.1703 404.708 90.8482C403.772 90.526 402.909 90.0211 402.17 89.3628C400.844 87.855 400.169 85.8836 400.293 83.8796V60.0409H415.306V54.1765H400.293V40.9229Z"/>
<path d="M326.785 91.5619H325.025L312.563 54.1764H304.412L319.278 97.7782H332.414L345.316 54.1764H337.634L326.785 91.5619Z"/>
<path d="M374.227 55.32C370.703 54.1057 366.986 53.5491 363.261 53.6779H359.185C357.777 53.6779 356.253 53.6779 355.021 53.6779C353.79 53.6779 352.47 53.6779 351.268 53.9418V61.0377C352.47 61.0377 353.878 60.8325 355.52 60.7738H365.87C367.099 60.6802 368.335 60.8344 369.504 61.2273C370.672 61.6201 371.75 62.2437 372.673 63.0609C373.503 63.972 374.138 65.0423 374.542 66.2066C374.945 67.371 375.107 68.6053 375.019 69.8343V70.8899H363.994C360.712 70.8119 357.446 71.3695 354.376 72.5319C351.897 73.409 349.754 75.0391 348.248 77.1941C346.801 79.5094 346.085 82.2071 346.195 84.9351C346.126 87.6173 346.774 90.2694 348.072 92.6175C349.386 94.7469 351.291 96.4483 353.555 97.5143C356.24 98.6602 359.139 99.22 362.058 99.1563C364.733 99.2342 367.387 98.6712 369.799 97.5143C371.941 96.4083 373.699 94.681 374.843 92.5588C375.471 91.4698 375.964 90.3078 376.309 89.0988V97.8954H382.525V70.1862C382.678 66.8196 381.972 63.4694 380.473 60.4513C379.091 58.0322 376.868 56.2058 374.227 55.32ZM373.142 88.3072C372.125 89.8384 370.676 91.0326 368.978 91.7378C367.284 92.3859 365.485 92.714 363.671 92.7055C361.061 92.8755 358.478 92.0942 356.399 90.5063C355.566 89.7808 354.906 88.877 354.469 87.8617C354.033 86.8465 353.831 85.746 353.878 84.6419C353.847 83.54 354.057 82.4446 354.492 81.4319C354.928 80.4192 355.578 79.5134 356.399 78.7775C358.454 77.136 361.047 76.3204 363.671 76.4904H375.019V81.5338C375.069 83.9266 374.417 86.2817 373.142 88.3072Z"/>
<path d="M581.563 76.3724C578.217 74.0853 574.318 72.7385 570.274 72.4726L565.436 71.9741C563.438 71.8919 561.505 71.2409 559.865 70.0975C559.326 69.5993 558.903 68.9896 558.624 68.311C558.346 67.6324 558.219 66.9012 558.252 66.1684C558.243 65.248 558.45 64.3385 558.858 63.5133C559.265 62.6881 559.861 61.9704 560.598 61.4182C562.643 60.041 565.087 59.3811 567.547 59.5416C569.981 59.3713 572.4 60.033 574.408 61.4182C575.136 61.9124 575.738 62.5703 576.166 63.3393C576.594 64.1082 576.835 64.9667 576.871 65.8458H584.202C584.272 63.9607 583.878 62.0872 583.055 60.3899C582.232 58.6925 581.004 57.2232 579.481 56.1109C575.943 53.8012 571.768 52.6626 567.547 52.8562C564.581 52.8033 561.637 53.3623 558.897 54.4982C556.544 55.4291 554.508 57.0169 553.033 59.0724C551.581 61.1478 550.841 63.6372 550.921 66.1684C550.819 67.8427 551.123 69.517 551.807 71.0486C552.491 72.5802 553.535 73.9238 554.85 74.9649C557.81 77.1203 561.315 78.4005 564.967 78.6595L569.717 79.1287C572.057 79.2257 574.332 79.9333 576.314 81.1812C576.982 81.6436 577.521 82.2686 577.88 82.9971C578.239 83.7256 578.407 84.5337 578.367 85.3449C578.353 86.3619 578.092 87.3604 577.607 88.2543C577.122 89.1482 576.427 89.9108 575.581 90.4763C573.201 91.998 570.395 92.7173 567.576 92.5288C564.701 92.6732 561.868 91.8012 559.571 90.0658C558.141 88.8485 557.238 87.1254 557.05 85.257H549.69C549.665 87.186 550.085 89.0947 550.92 90.8342C551.754 92.5738 552.979 94.097 554.499 95.2851C558.399 97.9685 563.085 99.2691 567.811 98.9796C571.032 99.0363 574.232 98.4481 577.223 97.2496C579.732 96.1958 581.925 94.5085 583.586 92.3529C585.158 90.2573 585.993 87.7006 585.961 85.081C586 83.3797 585.619 81.695 584.852 80.176C584.085 78.657 582.955 77.3506 581.563 76.3724Z"/>
<path d="M545.615 87.8079H536.144V97.7774H545.615V87.8079Z"/>
<path d="M765.999 73.9382C766.022 70.3851 765.23 66.8741 763.683 63.6755C762.21 60.4524 759.838 57.7235 756.851 55.8172C753.344 53.6228 749.255 52.5394 745.122 52.7091C741.829 52.6457 738.564 53.3168 735.563 54.6736C732.994 55.8606 730.736 57.6271 728.965 59.8343C727.212 61.9579 725.878 64.3959 725.036 67.0182C724.216 69.6876 723.801 72.465 723.805 75.2576V76.7237C723.803 79.497 724.218 82.2548 725.036 84.9046C725.896 87.5457 727.228 90.0094 728.965 92.1764C730.803 94.38 733.12 96.135 735.739 97.3078C738.845 98.6899 742.221 99.3611 745.62 99.2723C748.782 99.3275 751.922 98.7492 754.857 97.5717C757.52 96.495 759.867 94.7601 761.677 92.5293C763.488 90.2985 764.702 87.6448 765.207 84.8166H757.877C757.3 87.0023 755.903 88.8818 753.977 90.0652C751.514 91.6906 748.598 92.4915 745.65 92.3524C742.803 92.4614 739.987 91.727 737.557 90.2412C735.447 88.7863 733.807 86.7485 732.836 84.3768C731.989 82.1532 731.513 79.8054 731.428 77.4275H765.999V73.9382ZM737.41 61.6816C739.711 60.1934 742.413 59.4463 745.151 59.5411C747.761 59.4498 750.344 60.1005 752.599 61.4177C754.568 62.7141 756.101 64.5738 756.997 66.7543C757.641 68.2902 758.065 69.909 758.258 71.5631H731.868C732.075 70.1647 732.449 68.7962 732.983 67.4873C733.87 65.1669 735.407 63.1513 737.41 61.6816Z"/>
<path d="M712.691 87.3976C711.557 88.8993 710.079 90.1061 708.38 90.9163C706.378 91.8377 704.192 92.289 701.988 92.2357C699.196 92.3222 696.44 91.5772 694.071 90.0952C692.006 88.6085 690.392 86.5787 689.409 84.2309C688.367 81.6002 687.849 78.7913 687.884 75.9621C687.833 73.1124 688.352 70.2812 689.409 67.6346C690.377 65.278 691.994 63.2444 694.071 61.7702C696.388 60.2952 699.097 59.559 701.842 59.659C704.942 59.4994 707.991 60.4915 710.404 62.4446C712.479 64.1357 713.823 66.5616 714.157 69.218H721.693C721.584 66.0644 720.566 63.0095 718.76 60.4214C716.983 57.8708 714.552 55.8452 711.723 54.557C708.65 53.1574 705.306 52.4564 701.93 52.5045C698.637 52.4382 695.371 53.1094 692.371 54.4691C689.737 55.7121 687.398 57.5012 685.509 59.7177C683.71 61.8342 682.328 64.2716 681.434 66.9016C680.559 69.5302 680.113 72.2827 680.114 75.0531V76.5192C680.123 79.2409 680.568 81.9436 681.434 84.5241C682.352 87.1966 683.731 89.6875 685.509 91.8839C687.352 94.1048 689.666 95.8877 692.283 97.1032C695.36 98.4791 698.706 99.1503 702.076 99.0678C705.511 99.1322 708.916 98.431 712.046 97.0152C714.906 95.7132 717.381 93.6929 719.23 91.1508C721.061 88.5761 722.082 85.513 722.162 82.3542H714.655C714.468 84.1819 713.789 85.9247 712.691 87.3976Z"/>
<path d="M630.236 59.3955C627.223 56.0969 623.217 53.8712 618.825 53.0563C614.432 52.2413 609.894 52.8816 605.899 54.8799C603.038 56.3602 600.68 58.6563 599.125 61.4773C598.54 62.5529 598.059 63.682 597.688 64.8493V54.1761H591.472V114.11H599.301V91.1805C600.91 93.7599 603.204 95.8411 605.928 97.1915C608.667 98.5327 611.675 99.2345 614.725 99.244C617.647 99.2876 620.543 98.6764 623.199 97.4554C625.758 96.3015 628.053 94.6349 629.943 92.5586C631.853 90.4658 633.346 88.0275 634.341 85.3747C635.394 82.5626 635.921 79.5808 635.895 76.5781V75.112C635.907 72.1659 635.411 69.2397 634.429 66.462C633.503 63.8569 632.079 61.4568 630.236 59.3955ZM626.307 84.5537C625.203 86.9747 623.403 89.0121 621.136 90.4064C618.87 91.8007 616.24 92.4886 613.581 92.3827C611.084 92.4022 608.62 91.8188 606.397 90.682C604.085 89.5142 602.155 87.7094 600.836 85.4805C599.516 83.2516 598.861 80.6916 598.949 78.1029V74.3496C598.876 71.5723 599.555 68.8269 600.914 66.4034C602.208 64.2531 604.077 62.5065 606.309 61.36C608.542 60.1525 611.043 59.5273 613.581 59.5421C616.296 59.4915 618.966 60.2355 621.263 61.6826C623.458 63.0651 625.209 65.05 626.307 67.4003C627.565 70.076 628.187 73.0064 628.125 75.9624C628.174 78.9265 627.552 81.8634 626.307 84.5537Z"/>
<path d="M666.301 55.32C662.777 54.1057 659.06 53.5491 655.335 53.6779H651.259C649.852 53.6779 648.327 53.6779 647.096 53.6779C645.864 53.6779 644.545 53.6779 643.342 53.9418V61.0377C644.545 61.0377 645.952 60.8325 647.594 60.7738H657.974C659.199 60.6825 660.429 60.8379 661.593 61.2308C662.756 61.6236 663.829 62.246 664.747 63.0609C665.583 63.9681 666.222 65.0378 666.626 66.2032C667.03 67.3686 667.189 68.6047 667.093 69.8343V70.8899H656.068C652.786 70.8119 649.52 71.3695 646.451 72.5319C643.972 73.409 641.829 75.0391 640.322 77.1941C638.888 79.5151 638.174 82.2087 638.27 84.9351C638.2 87.6173 638.848 90.2694 640.146 92.6175C641.46 94.7469 643.366 96.4483 645.63 97.5143C648.315 98.6602 651.214 99.22 654.133 99.1563C656.807 99.2342 659.461 98.6712 661.874 97.5143C664.002 96.4875 665.77 94.842 666.946 92.7934C667.575 91.7044 668.067 90.5424 668.413 89.3334V98.13H674.629V70.1862C674.797 66.8184 674.089 63.4646 672.576 60.4513C671.188 58.0267 668.953 56.1995 666.301 55.32ZM665.129 88.3072C664.112 89.8384 662.662 91.0326 660.965 91.7378C659.271 92.3859 657.471 92.714 655.658 92.7055C653.056 92.879 650.481 92.0971 648.415 90.5063C647.573 89.7864 646.905 88.8843 646.463 87.8683C646.021 86.8522 645.816 85.7489 645.864 84.6419C645.833 83.5372 646.046 82.4391 646.487 81.4257C646.927 80.4122 647.586 79.5081 648.415 78.7775C650.455 77.1302 653.042 76.3134 655.658 76.4904H667.005V81.5338C667.056 83.9266 666.403 86.2817 665.129 88.3072Z"/>
<path d="M107.341 39.8495C100.275 38.144 92.7219 39.2404 86.3868 43.2607C84.5594 44.3571 82.8539 45.6972 81.3919 47.281C79.6864 48.9866 78.2244 50.9358 77.0062 52.885C75.6661 48.6211 73.595 44.479 70.793 40.8242C69.8184 39.4841 68.7219 38.2658 67.5037 37.0475C57.5138 27.0577 43.7474 23.6465 31.0774 26.6922C31.0774 26.6922 30.7119 27.6668 30.7119 27.9105V28.0323C29.8591 31.1998 29.4936 34.611 29.4936 38.144C29.4936 60.682 47.7677 78.956 70.3057 78.956C83.0975 78.956 94.4274 73.1083 101.981 63.8495C107.463 56.9053 109.29 48.012 107.341 39.8495Z"/>
<path fill-rule="evenodd" clip-rule="evenodd" d="M32.9859 95.6389V80.0668H26V102.625H112.925V80.0668H105.939V95.6389H32.9859Z"/>
</mask>
<path d="M237.06 38.1652V44.3815H243.101V97.7768H250.959V38.1652H237.06Z" fill="white"/>
<path d="M269.284 40.9229H261.836V54.1765H254.33V60.0409H261.836V82.912C261.684 86.099 262.329 89.2737 263.713 92.1484C264.959 94.3265 266.931 95.9974 269.284 96.8692C272.007 97.8596 274.89 98.3368 277.787 98.2767H284.473V91.2394H276.703C274.699 91.3633 272.727 90.6886 271.219 89.3628C270.552 88.6208 270.038 87.7546 269.706 86.8138C269.374 85.8729 269.231 84.8759 269.284 83.8796V60.0409H284.297V54.1765H269.284V40.9229Z" fill="white"/>
<path d="M181.845 87.3978C180.696 88.8959 179.209 90.1015 177.505 90.9164C175.513 91.8374 173.336 92.2888 171.142 92.2359C168.337 92.3177 165.571 91.5623 163.196 90.0661C161.131 88.5855 159.526 86.553 158.563 84.2017C157.498 81.5769 156.97 78.7653 157.009 75.9329C156.953 73.08 157.482 70.2459 158.563 67.6054C159.509 65.2442 161.118 63.2073 163.196 61.741C165.512 60.266 168.222 59.5298 170.966 59.6299C174.075 59.4712 177.134 60.4628 179.558 62.4155C181.624 64.1144 182.966 66.5362 183.311 69.1888H190.817C190.709 66.0352 189.69 62.9803 187.885 60.3922C186.114 57.8356 183.682 55.8086 180.848 54.5278C177.776 53.1254 174.431 52.4243 171.054 52.4753C167.762 52.412 164.496 53.0831 161.495 54.4399C158.811 55.7319 156.439 57.593 154.546 59.8938C152.758 62.0178 151.376 64.4531 150.47 67.0776C149.565 69.7013 149.09 72.4539 149.063 75.2291V76.6952C149.071 79.417 149.517 82.1197 150.382 84.7001C151.313 87.3673 152.691 89.8563 154.458 92.06C156.313 94.2677 158.624 96.0482 161.232 97.2793C164.319 98.6557 167.675 99.3268 171.054 99.2438C174.479 99.3058 177.875 98.6047 180.995 97.1913C183.864 95.8901 186.348 93.8701 188.208 91.3269C190.027 88.7458 191.046 85.6866 191.14 82.5303H183.78C183.574 84.2946 182.906 85.9733 181.845 87.3978Z" fill="white"/>
<path d="M425.423 47.1389C426.124 47.1951 426.83 47.1012 427.492 46.8636C428.154 46.626 428.758 46.25 429.264 45.7608C430.13 44.7971 430.592 43.5372 430.554 42.2421C430.592 40.9471 430.13 39.6871 429.264 38.7235C428.763 38.2237 428.162 37.8369 427.499 37.5891C426.837 37.3413 426.129 37.2382 425.423 37.2867C424.708 37.2327 423.99 37.3273 423.314 37.5645C422.638 37.8017 422.018 38.1763 421.494 38.6649C420.659 39.6433 420.22 40.8981 420.262 42.1835C420.22 43.4688 420.659 44.7237 421.494 45.7021C422.013 46.2011 422.631 46.5866 423.307 46.834C423.984 47.0813 424.704 47.1852 425.423 47.1389Z" fill="white"/>
<path d="M224.919 80.1255C225.015 81.725 224.789 83.3275 224.255 84.8384C223.722 86.3493 222.89 87.7378 221.811 88.9221C220.754 89.9495 219.5 90.7521 218.124 91.2812C216.748 91.8104 215.279 92.0552 213.806 92.0009C212.419 92.0633 211.035 91.8346 209.742 91.3296C208.449 90.8246 207.277 90.0544 206.3 89.0687C204.339 86.8445 203.338 83.9354 203.514 80.9758V54.0876H195.685V79.3924C195.324 84.6151 196.797 89.8 199.849 94.0534C201.313 95.7534 203.147 97.0948 205.211 97.9743C207.275 98.8537 209.513 99.2478 211.753 99.1261H212.076C215.106 99.2542 218.102 98.4564 220.667 96.839C223.029 95.1583 224.82 92.7945 225.799 90.0656C226.095 89.3111 226.34 88.5371 226.532 87.7492V97.836H232.748V54.0876H224.919V80.1255Z" fill="white"/>
<path d="M294.47 47.1386C295.172 47.1986 295.878 47.1066 296.541 46.8688C297.204 46.6309 297.808 46.2529 298.311 45.7605C299.196 44.8063 299.67 43.5425 299.631 42.2419C299.67 40.9412 299.196 39.6774 298.311 38.7232C297.813 38.2203 297.211 37.8314 296.548 37.5833C295.885 37.3353 295.176 37.234 294.47 37.2864C293.76 37.233 293.046 37.3279 292.375 37.5652C291.704 37.8024 291.089 38.1768 290.57 38.6646C289.736 39.643 289.296 40.8979 289.339 42.1832C289.296 43.4686 289.736 44.7234 290.57 45.7018C291.084 46.2001 291.697 46.5853 292.368 46.8327C293.04 47.0802 293.756 47.1844 294.47 47.1386Z" fill="white"/>
<path d="M285.556 54.1764V60.3927H292.271V97.7782H300.1V54.1764H285.556Z" fill="white"/>
<path d="M478.233 59.8056C476.166 57.5925 473.659 55.8349 470.874 54.645C464.546 52.0254 457.438 52.0254 451.111 54.645C448.334 55.8354 445.837 57.5932 443.78 59.8056C441.828 61.9057 440.322 64.3794 439.353 67.0775C438.319 69.6706 437.792 72.4375 437.798 75.229V76.6951C437.79 79.4881 438.287 82.2597 439.265 84.8759C440.302 87.5541 441.823 90.0189 443.751 92.1478C445.835 94.3213 448.326 96.0646 451.081 97.2791C457.52 99.8983 464.728 99.8983 471.167 97.2791C473.857 96.1092 476.283 94.4073 478.298 92.2758C480.314 90.1444 481.878 87.6273 482.896 84.8759C483.915 82.2685 484.442 79.4947 484.45 76.6951V75.229C484.442 72.4389 483.915 69.6747 482.896 67.0775C481.856 64.3596 480.269 61.8845 478.233 59.8056ZM474.539 84.2015C473.36 86.6188 471.52 88.6523 469.232 90.0659C466.712 91.5484 463.826 92.2903 460.904 92.2064C457.956 92.2772 455.045 91.5368 452.489 90.0659C450.228 88.6195 448.396 86.5947 447.181 84.2015C445.958 81.6193 445.346 78.7898 445.393 75.9327C445.339 73.0464 445.983 70.1897 447.269 67.6053C448.484 65.1845 450.353 63.1528 452.665 61.7409C455.195 60.355 458.034 59.6285 460.919 59.6285C463.804 59.6285 466.643 60.355 469.173 61.7409C471.475 63.1546 473.335 65.1866 474.539 67.6053C475.825 70.1897 476.469 73.0464 476.415 75.9327C476.462 78.7995 475.818 81.6355 474.539 84.2015Z" fill="white"/>
<path d="M524.677 58.017C523.228 56.2629 521.381 54.8798 519.29 53.9822C517.2 53.0847 514.925 52.6987 512.655 52.8563H512.332C509.144 52.736 505.991 53.5624 503.272 55.2314C500.794 56.8524 498.903 59.227 497.877 62.0048C497.584 62.7509 497.339 63.5148 497.144 64.2919V54.1758H490.927V97.7776H498.786V71.7103C498.713 70.1571 498.956 68.6052 499.5 67.1487C500.045 65.6921 500.879 64.3611 501.953 63.2363C503.049 62.163 504.353 61.3257 505.785 60.776C507.218 60.2263 508.747 59.9759 510.28 60.0402C511.737 59.9591 513.194 60.195 514.55 60.7316C515.907 61.2682 517.131 62.0928 518.138 63.1483C520.143 65.3545 521.197 68.2627 521.07 71.2412V97.631H528.929V72.7073C529.177 67.4749 527.681 62.3082 524.677 58.017Z" fill="white"/>
<path d="M416.508 54.1764V60.3927H423.194V97.7782H431.052V54.1764H416.508Z" fill="white"/>
<path d="M400.293 40.9229H392.757V54.1765H385.251V60.0409H392.757V82.912C392.619 86.0978 393.264 89.269 394.634 92.1484C395.862 94.3077 397.799 95.9757 400.117 96.8692C402.839 97.8635 405.723 98.3409 408.62 98.2767H415.306V91.2394H407.623C406.635 91.3033 405.645 91.1703 404.708 90.8482C403.772 90.526 402.909 90.0211 402.17 89.3628C400.844 87.855 400.169 85.8836 400.293 83.8796V60.0409H415.306V54.1765H400.293V40.9229Z" fill="white"/>
<path d="M326.785 91.5619H325.025L312.563 54.1764H304.412L319.278 97.7782H332.414L345.316 54.1764H337.634L326.785 91.5619Z" fill="white"/>
<path d="M374.227 55.32C370.703 54.1057 366.986 53.5491 363.261 53.6779H359.185C357.777 53.6779 356.253 53.6779 355.021 53.6779C353.79 53.6779 352.47 53.6779 351.268 53.9418V61.0377C352.47 61.0377 353.878 60.8325 355.52 60.7738H365.87C367.099 60.6802 368.335 60.8344 369.504 61.2273C370.672 61.6201 371.75 62.2437 372.673 63.0609C373.503 63.972 374.138 65.0423 374.542 66.2066C374.945 67.371 375.107 68.6053 375.019 69.8343V70.8899H363.994C360.712 70.8119 357.446 71.3695 354.376 72.5319C351.897 73.409 349.754 75.0391 348.248 77.1941C346.801 79.5094 346.085 82.2071 346.195 84.9351C346.126 87.6173 346.774 90.2694 348.072 92.6175C349.386 94.7469 351.291 96.4483 353.555 97.5143C356.24 98.6602 359.139 99.22 362.058 99.1563C364.733 99.2342 367.387 98.6712 369.799 97.5143C371.941 96.4083 373.699 94.681 374.843 92.5588C375.471 91.4698 375.964 90.3078 376.309 89.0988V97.8954H382.525V70.1862C382.678 66.8196 381.972 63.4694 380.473 60.4513C379.091 58.0322 376.868 56.2058 374.227 55.32ZM373.142 88.3072C372.125 89.8384 370.676 91.0326 368.978 91.7378C367.284 92.3859 365.485 92.714 363.671 92.7055C361.061 92.8755 358.478 92.0942 356.399 90.5063C355.566 89.7808 354.906 88.877 354.469 87.8617C354.033 86.8465 353.831 85.746 353.878 84.6419C353.847 83.54 354.057 82.4446 354.492 81.4319C354.928 80.4192 355.578 79.5134 356.399 78.7775C358.454 77.136 361.047 76.3204 363.671 76.4904H375.019V81.5338C375.069 83.9266 374.417 86.2817 373.142 88.3072Z" fill="white"/>
<path d="M581.563 76.3724C578.217 74.0853 574.318 72.7385 570.274 72.4726L565.436 71.9741C563.438 71.8919 561.505 71.2409 559.865 70.0975C559.326 69.5993 558.903 68.9896 558.624 68.311C558.346 67.6324 558.219 66.9012 558.252 66.1684C558.243 65.248 558.45 64.3385 558.858 63.5133C559.265 62.6881 559.861 61.9704 560.598 61.4182C562.643 60.041 565.087 59.3811 567.547 59.5416C569.981 59.3713 572.4 60.033 574.408 61.4182C575.136 61.9124 575.738 62.5703 576.166 63.3393C576.594 64.1082 576.835 64.9667 576.871 65.8458H584.202C584.272 63.9607 583.878 62.0872 583.055 60.3899C582.232 58.6925 581.004 57.2232 579.481 56.1109C575.943 53.8012 571.768 52.6626 567.547 52.8562C564.581 52.8033 561.637 53.3623 558.897 54.4982C556.544 55.4291 554.508 57.0169 553.033 59.0724C551.581 61.1478 550.841 63.6372 550.921 66.1684C550.819 67.8427 551.123 69.517 551.807 71.0486C552.491 72.5802 553.535 73.9238 554.85 74.9649C557.81 77.1203 561.315 78.4005 564.967 78.6595L569.717 79.1287C572.057 79.2257 574.332 79.9333 576.314 81.1812C576.982 81.6436 577.521 82.2686 577.88 82.9971C578.239 83.7256 578.407 84.5337 578.367 85.3449C578.353 86.3619 578.092 87.3604 577.607 88.2543C577.122 89.1482 576.427 89.9108 575.581 90.4763C573.201 91.998 570.395 92.7173 567.576 92.5288C564.701 92.6732 561.868 91.8012 559.571 90.0658C558.141 88.8485 557.238 87.1254 557.05 85.257H549.69C549.665 87.186 550.085 89.0947 550.92 90.8342C551.754 92.5738 552.979 94.097 554.499 95.2851C558.399 97.9685 563.085 99.2691 567.811 98.9796C571.032 99.0363 574.232 98.4481 577.223 97.2496C579.732 96.1958 581.925 94.5085 583.586 92.3529C585.158 90.2573 585.993 87.7006 585.961 85.081C586 83.3797 585.619 81.695 584.852 80.176C584.085 78.657 582.955 77.3506 581.563 76.3724Z" fill="white"/>
<path d="M545.615 87.8079H536.144V97.7774H545.615V87.8079Z" fill="white"/>
<path d="M765.999 73.9382C766.022 70.3851 765.23 66.8741 763.683 63.6755C762.21 60.4524 759.838 57.7235 756.851 55.8172C753.344 53.6228 749.255 52.5394 745.122 52.7091C741.829 52.6457 738.564 53.3168 735.563 54.6736C732.994 55.8606 730.736 57.6271 728.965 59.8343C727.212 61.9579 725.878 64.3959 725.036 67.0182C724.216 69.6876 723.801 72.465 723.805 75.2576V76.7237C723.803 79.497 724.218 82.2548 725.036 84.9046C725.896 87.5457 727.228 90.0094 728.965 92.1764C730.803 94.38 733.12 96.135 735.739 97.3078C738.845 98.6899 742.221 99.3611 745.62 99.2723C748.782 99.3275 751.922 98.7492 754.857 97.5717C757.52 96.495 759.867 94.7601 761.677 92.5293C763.488 90.2985 764.702 87.6448 765.207 84.8166H757.877C757.3 87.0023 755.903 88.8818 753.977 90.0652C751.514 91.6906 748.598 92.4915 745.65 92.3524C742.803 92.4614 739.987 91.727 737.557 90.2412C735.447 88.7863 733.807 86.7485 732.836 84.3768C731.989 82.1532 731.513 79.8054 731.428 77.4275H765.999V73.9382ZM737.41 61.6816C739.711 60.1934 742.413 59.4463 745.151 59.5411C747.761 59.4498 750.344 60.1005 752.599 61.4177C754.568 62.7141 756.101 64.5738 756.997 66.7543C757.641 68.2902 758.065 69.909 758.258 71.5631H731.868C732.075 70.1647 732.449 68.7962 732.983 67.4873C733.87 65.1669 735.407 63.1513 737.41 61.6816Z" fill="white"/>
<path d="M712.691 87.3976C711.557 88.8993 710.079 90.1061 708.38 90.9163C706.378 91.8377 704.192 92.289 701.988 92.2357C699.196 92.3222 696.44 91.5772 694.071 90.0952C692.006 88.6085 690.392 86.5787 689.409 84.2309C688.367 81.6002 687.849 78.7913 687.884 75.9621C687.833 73.1124 688.352 70.2812 689.409 67.6346C690.377 65.278 691.994 63.2444 694.071 61.7702C696.388 60.2952 699.097 59.559 701.842 59.659C704.942 59.4994 707.991 60.4915 710.404 62.4446C712.479 64.1357 713.823 66.5616 714.157 69.218H721.693C721.584 66.0644 720.566 63.0095 718.76 60.4214C716.983 57.8708 714.552 55.8452 711.723 54.557C708.65 53.1574 705.306 52.4564 701.93 52.5045C698.637 52.4382 695.371 53.1094 692.371 54.4691C689.737 55.7121 687.398 57.5012 685.509 59.7177C683.71 61.8342 682.328 64.2716 681.434 66.9016C680.559 69.5302 680.113 72.2827 680.114 75.0531V76.5192C680.123 79.2409 680.568 81.9436 681.434 84.5241C682.352 87.1966 683.731 89.6875 685.509 91.8839C687.352 94.1048 689.666 95.8877 692.283 97.1032C695.36 98.4791 698.706 99.1503 702.076 99.0678C705.511 99.1322 708.916 98.431 712.046 97.0152C714.906 95.7132 717.381 93.6929 719.23 91.1508C721.061 88.5761 722.082 85.513 722.162 82.3542H714.655C714.468 84.1819 713.789 85.9247 712.691 87.3976Z" fill="white"/>
<path d="M630.236 59.3955C627.223 56.0969 623.217 53.8712 618.825 53.0563C614.432 52.2413 609.894 52.8816 605.899 54.8799C603.038 56.3602 600.68 58.6563 599.125 61.4773C598.54 62.5529 598.059 63.682 597.688 64.8493V54.1761H591.472V114.11H599.301V91.1805C600.91 93.7599 603.204 95.8411 605.928 97.1915C608.667 98.5327 611.675 99.2345 614.725 99.244C617.647 99.2876 620.543 98.6764 623.199 97.4554C625.758 96.3015 628.053 94.6349 629.943 92.5586C631.853 90.4658 633.346 88.0275 634.341 85.3747C635.394 82.5626 635.921 79.5808 635.895 76.5781V75.112C635.907 72.1659 635.411 69.2397 634.429 66.462C633.503 63.8569 632.079 61.4568 630.236 59.3955ZM626.307 84.5537C625.203 86.9747 623.403 89.0121 621.136 90.4064C618.87 91.8007 616.24 92.4886 613.581 92.3827C611.084 92.4022 608.62 91.8188 606.397 90.682C604.085 89.5142 602.155 87.7094 600.836 85.4805C599.516 83.2516 598.861 80.6916 598.949 78.1029V74.3496C598.876 71.5723 599.555 68.8269 600.914 66.4034C602.208 64.2531 604.077 62.5065 606.309 61.36C608.542 60.1525 611.043 59.5273 613.581 59.5421C616.296 59.4915 618.966 60.2355 621.263 61.6826C623.458 63.0651 625.209 65.05 626.307 67.4003C627.565 70.076 628.187 73.0064 628.125 75.9624C628.174 78.9265 627.552 81.8634 626.307 84.5537Z" fill="white"/>
<path d="M666.301 55.32C662.777 54.1057 659.06 53.5491 655.335 53.6779H651.259C649.852 53.6779 648.327 53.6779 647.096 53.6779C645.864 53.6779 644.545 53.6779 643.342 53.9418V61.0377C644.545 61.0377 645.952 60.8325 647.594 60.7738H657.974C659.199 60.6825 660.429 60.8379 661.593 61.2308C662.756 61.6236 663.829 62.246 664.747 63.0609C665.583 63.9681 666.222 65.0378 666.626 66.2032C667.03 67.3686 667.189 68.6047 667.093 69.8343V70.8899H656.068C652.786 70.8119 649.52 71.3695 646.451 72.5319C643.972 73.409 641.829 75.0391 640.322 77.1941C638.888 79.5151 638.174 82.2087 638.27 84.9351C638.2 87.6173 638.848 90.2694 640.146 92.6175C641.46 94.7469 643.366 96.4483 645.63 97.5143C648.315 98.6602 651.214 99.22 654.133 99.1563C656.807 99.2342 659.461 98.6712 661.874 97.5143C664.002 96.4875 665.77 94.842 666.946 92.7934C667.575 91.7044 668.067 90.5424 668.413 89.3334V98.13H674.629V70.1862C674.797 66.8184 674.089 63.4646 672.576 60.4513C671.188 58.0267 668.953 56.1995 666.301 55.32ZM665.129 88.3072C664.112 89.8384 662.662 91.0326 660.965 91.7378C659.271 92.3859 657.471 92.714 655.658 92.7055C653.056 92.879 650.481 92.0971 648.415 90.5063C647.573 89.7864 646.905 88.8843 646.463 87.8683C646.021 86.8522 645.816 85.7489 645.864 84.6419C645.833 83.5372 646.046 82.4391 646.487 81.4257C646.927 80.4122 647.586 79.5081 648.415 78.7775C650.455 77.1302 653.042 76.3134 655.658 76.4904H667.005V81.5338C667.056 83.9266 666.403 86.2817 665.129 88.3072Z" fill="white"/>
<path d="M107.341 39.8495C100.275 38.144 92.7219 39.2404 86.3868 43.2607C84.5594 44.3571 82.8539 45.6972 81.3919 47.281C79.6864 48.9866 78.2244 50.9358 77.0062 52.885C75.6661 48.6211 73.595 44.479 70.793 40.8242C69.8184 39.4841 68.7219 38.2658 67.5037 37.0475C57.5138 27.0577 43.7474 23.6465 31.0774 26.6922C31.0774 26.6922 30.7119 27.6668 30.7119 27.9105V28.0323C29.8591 31.1998 29.4936 34.611 29.4936 38.144C29.4936 60.682 47.7677 78.956 70.3057 78.956C83.0975 78.956 94.4274 73.1083 101.981 63.8495C107.463 56.9053 109.29 48.012 107.341 39.8495Z" fill="white"/>
<path fill-rule="evenodd" clip-rule="evenodd" d="M32.9859 95.6389V80.0668H26V102.625H112.925V80.0668H105.939V95.6389H32.9859Z" fill="white"/>
<path d="M237.06 38.1652V44.3815H243.101V97.7768H250.959V38.1652H237.06Z" stroke="white" stroke-width="50.9387" stroke-linejoin="round" mask="url(#path-1-outside-1_615_509)"/>
<path d="M269.284 40.9229H261.836V54.1765H254.33V60.0409H261.836V82.912C261.684 86.099 262.329 89.2737 263.713 92.1484C264.959 94.3265 266.931 95.9974 269.284 96.8692C272.007 97.8596 274.89 98.3368 277.787 98.2767H284.473V91.2394H276.703C274.699 91.3633 272.727 90.6886 271.219 89.3628C270.552 88.6208 270.038 87.7546 269.706 86.8138C269.374 85.8729 269.231 84.8759 269.284 83.8796V60.0409H284.297V54.1765H269.284V40.9229Z" stroke="white" stroke-width="50.9387" stroke-linejoin="round" mask="url(#path-1-outside-1_615_509)"/>
<path d="M181.845 87.3978C180.696 88.8959 179.209 90.1015 177.505 90.9164C175.513 91.8374 173.336 92.2888 171.142 92.2359C168.337 92.3177 165.571 91.5623 163.196 90.0661C161.131 88.5855 159.526 86.553 158.563 84.2017C157.498 81.5769 156.97 78.7653 157.009 75.9329C156.953 73.08 157.482 70.2459 158.563 67.6054C159.509 65.2442 161.118 63.2073 163.196 61.741C165.512 60.266 168.222 59.5298 170.966 59.6299C174.075 59.4712 177.134 60.4628 179.558 62.4155C181.624 64.1144 182.966 66.5362 183.311 69.1888H190.817C190.709 66.0352 189.69 62.9803 187.885 60.3922C186.114 57.8356 183.682 55.8086 180.848 54.5278C177.776 53.1254 174.431 52.4243 171.054 52.4753C167.762 52.412 164.496 53.0831 161.495 54.4399C158.811 55.7319 156.439 57.593 154.546 59.8938C152.758 62.0178 151.376 64.4531 150.47 67.0776C149.565 69.7013 149.09 72.4539 149.063 75.2291V76.6952C149.071 79.417 149.517 82.1197 150.382 84.7001C151.313 87.3673 152.691 89.8563 154.458 92.06C156.313 94.2677 158.624 96.0482 161.232 97.2793C164.319 98.6557 167.675 99.3268 171.054 99.2438C174.479 99.3058 177.875 98.6047 180.995 97.1913C183.864 95.8901 186.348 93.8701 188.208 91.3269C190.027 88.7458 191.046 85.6866 191.14 82.5303H183.78C183.574 84.2946 182.906 85.9733 181.845 87.3978Z" stroke="white" stroke-width="50.9387" stroke-linejoin="round" mask="url(#path-1-outside-1_615_509)"/>
<path d="M425.423 47.1389C426.124 47.1951 426.83 47.1012 427.492 46.8636C428.154 46.626 428.758 46.25 429.264 45.7608C430.13 44.7971 430.592 43.5372 430.554 42.2421C430.592 40.9471 430.13 39.6871 429.264 38.7235C428.763 38.2237 428.162 37.8369 427.499 37.5891C426.837 37.3413 426.129 37.2382 425.423 37.2867C424.708 37.2327 423.99 37.3273 423.314 37.5645C422.638 37.8017 422.018 38.1763 421.494 38.6649C420.659 39.6433 420.22 40.8981 420.262 42.1835C420.22 43.4688 420.659 44.7237 421.494 45.7021C422.013 46.2011 422.631 46.5866 423.307 46.834C423.984 47.0813 424.704 47.1852 425.423 47.1389Z" stroke="white" stroke-width="50.9387" stroke-linejoin="round" mask="url(#path-1-outside-1_615_509)"/>
<path d="M224.919 80.1255C225.015 81.725 224.789 83.3275 224.255 84.8384C223.722 86.3493 222.89 87.7378 221.811 88.9221C220.754 89.9495 219.5 90.7521 218.124 91.2812C216.748 91.8104 215.279 92.0552 213.806 92.0009C212.419 92.0633 211.035 91.8346 209.742 91.3296C208.449 90.8246 207.277 90.0544 206.3 89.0687C204.339 86.8445 203.338 83.9354 203.514 80.9758V54.0876H195.685V79.3924C195.324 84.6151 196.797 89.8 199.849 94.0534C201.313 95.7534 203.147 97.0948 205.211 97.9743C207.275 98.8537 209.513 99.2478 211.753 99.1261H212.076C215.106 99.2542 218.102 98.4564 220.667 96.839C223.029 95.1583 224.82 92.7945 225.799 90.0656C226.095 89.3111 226.34 88.5371 226.532 87.7492V97.836H232.748V54.0876H224.919V80.1255Z" stroke="white" stroke-width="50.9387" stroke-linejoin="round" mask="url(#path-1-outside-1_615_509)"/>
<path d="M294.47 47.1386C295.172 47.1986 295.878 47.1066 296.541 46.8688C297.204 46.6309 297.808 46.2529 298.311 45.7605C299.196 44.8063 299.67 43.5425 299.631 42.2419C299.67 40.9412 299.196 39.6774 298.311 38.7232C297.813 38.2203 297.211 37.8314 296.548 37.5833C295.885 37.3353 295.176 37.234 294.47 37.2864C293.76 37.233 293.046 37.3279 292.375 37.5652C291.704 37.8024 291.089 38.1768 290.57 38.6646C289.736 39.643 289.296 40.8979 289.339 42.1832C289.296 43.4686 289.736 44.7234 290.57 45.7018C291.084 46.2001 291.697 46.5853 292.368 46.8327C293.04 47.0802 293.756 47.1844 294.47 47.1386Z" stroke="white" stroke-width="50.9387" stroke-linejoin="round" mask="url(#path-1-outside-1_615_509)"/>
<path d="M285.556 54.1764V60.3927H292.271V97.7782H300.1V54.1764H285.556Z" stroke="white" stroke-width="50.9387" stroke-linejoin="round" mask="url(#path-1-outside-1_615_509)"/>
<path d="M478.233 59.8056C476.166 57.5925 473.659 55.8349 470.874 54.645C464.546 52.0254 457.438 52.0254 451.111 54.645C448.334 55.8354 445.837 57.5932 443.78 59.8056C441.828 61.9057 440.322 64.3794 439.353 67.0775C438.319 69.6706 437.792 72.4375 437.798 75.229V76.6951C437.79 79.4881 438.287 82.2597 439.265 84.8759C440.302 87.5541 441.823 90.0189 443.751 92.1478C445.835 94.3213 448.326 96.0646 451.081 97.2791C457.52 99.8983 464.728 99.8983 471.167 97.2791C473.857 96.1092 476.283 94.4073 478.298 92.2758C480.314 90.1444 481.878 87.6273 482.896 84.8759C483.915 82.2685 484.442 79.4947 484.45 76.6951V75.229C484.442 72.4389 483.915 69.6747 482.896 67.0775C481.856 64.3596 480.269 61.8845 478.233 59.8056ZM474.539 84.2015C473.36 86.6188 471.52 88.6523 469.232 90.0659C466.712 91.5484 463.826 92.2903 460.904 92.2064C457.956 92.2772 455.045 91.5368 452.489 90.0659C450.228 88.6195 448.396 86.5947 447.181 84.2015C445.958 81.6193 445.346 78.7898 445.393 75.9327C445.339 73.0464 445.983 70.1897 447.269 67.6053C448.484 65.1845 450.353 63.1528 452.665 61.7409C455.195 60.355 458.034 59.6285 460.919 59.6285C463.804 59.6285 466.643 60.355 469.173 61.7409C471.475 63.1546 473.335 65.1866 474.539 67.6053C475.825 70.1897 476.469 73.0464 476.415 75.9327C476.462 78.7995 475.818 81.6355 474.539 84.2015Z" stroke="white" stroke-width="50.9387" stroke-linejoin="round" mask="url(#path-1-outside-1_615_509)"/>
<path d="M524.677 58.017C523.228 56.2629 521.381 54.8798 519.29 53.9822C517.2 53.0847 514.925 52.6987 512.655 52.8563H512.332C509.144 52.736 505.991 53.5624 503.272 55.2314C500.794 56.8524 498.903 59.227 497.877 62.0048C497.584 62.7509 497.339 63.5148 497.144 64.2919V54.1758H490.927V97.7776H498.786V71.7103C498.713 70.1571 498.956 68.6052 499.5 67.1487C500.045 65.6921 500.879 64.3611 501.953 63.2363C503.049 62.163 504.353 61.3257 505.785 60.776C507.218 60.2263 508.747 59.9759 510.28 60.0402C511.737 59.9591 513.194 60.195 514.55 60.7316C515.907 61.2682 517.131 62.0928 518.138 63.1483C520.143 65.3545 521.197 68.2627 521.07 71.2412V97.631H528.929V72.7073C529.177 67.4749 527.681 62.3082 524.677 58.017Z" stroke="white" stroke-width="50.9387" stroke-linejoin="round" mask="url(#path-1-outside-1_615_509)"/>
<path d="M416.508 54.1764V60.3927H423.194V97.7782H431.052V54.1764H416.508Z" stroke="white" stroke-width="50.9387" stroke-linejoin="round" mask="url(#path-1-outside-1_615_509)"/>
<path d="M400.293 40.9229H392.757V54.1765H385.251V60.0409H392.757V82.912C392.619 86.0978 393.264 89.269 394.634 92.1484C395.862 94.3077 397.799 95.9757 400.117 96.8692C402.839 97.8635 405.723 98.3409 408.62 98.2767H415.306V91.2394H407.623C406.635 91.3033 405.645 91.1703 404.708 90.8482C403.772 90.526 402.909 90.0211 402.17 89.3628C400.844 87.855 400.169 85.8836 400.293 83.8796V60.0409H415.306V54.1765H400.293V40.9229Z" stroke="white" stroke-width="50.9387" stroke-linejoin="round" mask="url(#path-1-outside-1_615_509)"/>
<path d="M326.785 91.5619H325.025L312.563 54.1764H304.412L319.278 97.7782H332.414L345.316 54.1764H337.634L326.785 91.5619Z" stroke="white" stroke-width="50.9387" stroke-linejoin="round" mask="url(#path-1-outside-1_615_509)"/>
<path d="M374.227 55.32C370.703 54.1057 366.986 53.5491 363.261 53.6779H359.185C357.777 53.6779 356.253 53.6779 355.021 53.6779C353.79 53.6779 352.47 53.6779 351.268 53.9418V61.0377C352.47 61.0377 353.878 60.8325 355.52 60.7738H365.87C367.099 60.6802 368.335 60.8344 369.504 61.2273C370.672 61.6201 371.75 62.2437 372.673 63.0609C373.503 63.972 374.138 65.0423 374.542 66.2066C374.945 67.371 375.107 68.6053 375.019 69.8343V70.8899H363.994C360.712 70.8119 357.446 71.3695 354.376 72.5319C351.897 73.409 349.754 75.0391 348.248 77.1941C346.801 79.5094 346.085 82.2071 346.195 84.9351C346.126 87.6173 346.774 90.2694 348.072 92.6175C349.386 94.7469 351.291 96.4483 353.555 97.5143C356.24 98.6602 359.139 99.22 362.058 99.1563C364.733 99.2342 367.387 98.6712 369.799 97.5143C371.941 96.4083 373.699 94.681 374.843 92.5588C375.471 91.4698 375.964 90.3078 376.309 89.0988V97.8954H382.525V70.1862C382.678 66.8196 381.972 63.4694 380.473 60.4513C379.091 58.0322 376.868 56.2058 374.227 55.32ZM373.142 88.3072C372.125 89.8384 370.676 91.0326 368.978 91.7378C367.284 92.3859 365.485 92.714 363.671 92.7055C361.061 92.8755 358.478 92.0942 356.399 90.5063C355.566 89.7808 354.906 88.877 354.469 87.8617C354.033 86.8465 353.831 85.746 353.878 84.6419C353.847 83.54 354.057 82.4446 354.492 81.4319C354.928 80.4192 355.578 79.5134 356.399 78.7775C358.454 77.136 361.047 76.3204 363.671 76.4904H375.019V81.5338C375.069 83.9266 374.417 86.2817 373.142 88.3072Z" stroke="white" stroke-width="50.9387" stroke-linejoin="round" mask="url(#path-1-outside-1_615_509)"/>
<path d="M581.563 76.3724C578.217 74.0853 574.318 72.7385 570.274 72.4726L565.436 71.9741C563.438 71.8919 561.505 71.2409 559.865 70.0975C559.326 69.5993 558.903 68.9896 558.624 68.311C558.346 67.6324 558.219 66.9012 558.252 66.1684C558.243 65.248 558.45 64.3385 558.858 63.5133C559.265 62.6881 559.861 61.9704 560.598 61.4182C562.643 60.041 565.087 59.3811 567.547 59.5416C569.981 59.3713 572.4 60.033 574.408 61.4182C575.136 61.9124 575.738 62.5703 576.166 63.3393C576.594 64.1082 576.835 64.9667 576.871 65.8458H584.202C584.272 63.9607 583.878 62.0872 583.055 60.3899C582.232 58.6925 581.004 57.2232 579.481 56.1109C575.943 53.8012 571.768 52.6626 567.547 52.8562C564.581 52.8033 561.637 53.3623 558.897 54.4982C556.544 55.4291 554.508 57.0169 553.033 59.0724C551.581 61.1478 550.841 63.6372 550.921 66.1684C550.819 67.8427 551.123 69.517 551.807 71.0486C552.491 72.5802 553.535 73.9238 554.85 74.9649C557.81 77.1203 561.315 78.4005 564.967 78.6595L569.717 79.1287C572.057 79.2257 574.332 79.9333 576.314 81.1812C576.982 81.6436 577.521 82.2686 577.88 82.9971C578.239 83.7256 578.407 84.5337 578.367 85.3449C578.353 86.3619 578.092 87.3604 577.607 88.2543C577.122 89.1482 576.427 89.9108 575.581 90.4763C573.201 91.998 570.395 92.7173 567.576 92.5288C564.701 92.6732 561.868 91.8012 559.571 90.0658C558.141 88.8485 557.238 87.1254 557.05 85.257H549.69C549.665 87.186 550.085 89.0947 550.92 90.8342C551.754 92.5738 552.979 94.097 554.499 95.2851C558.399 97.9685 563.085 99.2691 567.811 98.9796C571.032 99.0363 574.232 98.4481 577.223 97.2496C579.732 96.1958 581.925 94.5085 583.586 92.3529C585.158 90.2573 585.993 87.7006 585.961 85.081C586 83.3797 585.619 81.695 584.852 80.176C584.085 78.657 582.955 77.3506 581.563 76.3724Z" stroke="white" stroke-width="50.9387" stroke-linejoin="round" mask="url(#path-1-outside-1_615_509)"/>
<path d="M545.615 87.8079H536.144V97.7774H545.615V87.8079Z" stroke="white" stroke-width="50.9387" stroke-linejoin="round" mask="url(#path-1-outside-1_615_509)"/>
<path d="M765.999 73.9382C766.022 70.3851 765.23 66.8741 763.683 63.6755C762.21 60.4524 759.838 57.7235 756.851 55.8172C753.344 53.6228 749.255 52.5394 745.122 52.7091C741.829 52.6457 738.564 53.3168 735.563 54.6736C732.994 55.8606 730.736 57.6271 728.965 59.8343C727.212 61.9579 725.878 64.3959 725.036 67.0182C724.216 69.6876 723.801 72.465 723.805 75.2576V76.7237C723.803 79.497 724.218 82.2548 725.036 84.9046C725.896 87.5457 727.228 90.0094 728.965 92.1764C730.803 94.38 733.12 96.135 735.739 97.3078C738.845 98.6899 742.221 99.3611 745.62 99.2723C748.782 99.3275 751.922 98.7492 754.857 97.5717C757.52 96.495 759.867 94.7601 761.677 92.5293C763.488 90.2985 764.702 87.6448 765.207 84.8166H757.877C757.3 87.0023 755.903 88.8818 753.977 90.0652C751.514 91.6906 748.598 92.4915 745.65 92.3524C742.803 92.4614 739.987 91.727 737.557 90.2412C735.447 88.7863 733.807 86.7485 732.836 84.3768C731.989 82.1532 731.513 79.8054 731.428 77.4275H765.999V73.9382ZM737.41 61.6816C739.711 60.1934 742.413 59.4463 745.151 59.5411C747.761 59.4498 750.344 60.1005 752.599 61.4177C754.568 62.7141 756.101 64.5738 756.997 66.7543C757.641 68.2902 758.065 69.909 758.258 71.5631H731.868C732.075 70.1647 732.449 68.7962 732.983 67.4873C733.87 65.1669 735.407 63.1513 737.41 61.6816Z" stroke="white" stroke-width="50.9387" stroke-linejoin="round" mask="url(#path-1-outside-1_615_509)"/>
<path d="M712.691 87.3976C711.557 88.8993 710.079 90.1061 708.38 90.9163C706.378 91.8377 704.192 92.289 701.988 92.2357C699.196 92.3222 696.44 91.5772 694.071 90.0952C692.006 88.6085 690.392 86.5787 689.409 84.2309C688.367 81.6002 687.849 78.7913 687.884 75.9621C687.833 73.1124 688.352 70.2812 689.409 67.6346C690.377 65.278 691.994 63.2444 694.071 61.7702C696.388 60.2952 699.097 59.559 701.842 59.659C704.942 59.4994 707.991 60.4915 710.404 62.4446C712.479 64.1357 713.823 66.5616 714.157 69.218H721.693C721.584 66.0644 720.566 63.0095 718.76 60.4214C716.983 57.8708 714.552 55.8452 711.723 54.557C708.65 53.1574 705.306 52.4564 701.93 52.5045C698.637 52.4382 695.371 53.1094 692.371 54.4691C689.737 55.7121 687.398 57.5012 685.509 59.7177C683.71 61.8342 682.328 64.2716 681.434 66.9016C680.559 69.5302 680.113 72.2827 680.114 75.0531V76.5192C680.123 79.2409 680.568 81.9436 681.434 84.5241C682.352 87.1966 683.731 89.6875 685.509 91.8839C687.352 94.1048 689.666 95.8877 692.283 97.1032C695.36 98.4791 698.706 99.1503 702.076 99.0678C705.511 99.1322 708.916 98.431 712.046 97.0152C714.906 95.7132 717.381 93.6929 719.23 91.1508C721.061 88.5761 722.082 85.513 722.162 82.3542H714.655C714.468 84.1819 713.789 85.9247 712.691 87.3976Z" stroke="white" stroke-width="50.9387" stroke-linejoin="round" mask="url(#path-1-outside-1_615_509)"/>
<path d="M630.236 59.3955C627.223 56.0969 623.217 53.8712 618.825 53.0563C614.432 52.2413 609.894 52.8816 605.899 54.8799C603.038 56.3602 600.68 58.6563 599.125 61.4773C598.54 62.5529 598.059 63.682 597.688 64.8493V54.1761H591.472V114.11H599.301V91.1805C600.91 93.7599 603.204 95.8411 605.928 97.1915C608.667 98.5327 611.675 99.2345 614.725 99.244C617.647 99.2876 620.543 98.6764 623.199 97.4554C625.758 96.3015 628.053 94.6349 629.943 92.5586C631.853 90.4658 633.346 88.0275 634.341 85.3747C635.394 82.5626 635.921 79.5808 635.895 76.5781V75.112C635.907 72.1659 635.411 69.2397 634.429 66.462C633.503 63.8569 632.079 61.4568 630.236 59.3955ZM626.307 84.5537C625.203 86.9747 623.403 89.0121 621.136 90.4064C618.87 91.8007 616.24 92.4886 613.581 92.3827C611.084 92.4022 608.62 91.8188 606.397 90.682C604.085 89.5142 602.155 87.7094 600.836 85.4805C599.516 83.2516 598.861 80.6916 598.949 78.1029V74.3496C598.876 71.5723 599.555 68.8269 600.914 66.4034C602.208 64.2531 604.077 62.5065 606.309 61.36C608.542 60.1525 611.043 59.5273 613.581 59.5421C616.296 59.4915 618.966 60.2355 621.263 61.6826C623.458 63.0651 625.209 65.05 626.307 67.4003C627.565 70.076 628.187 73.0064 628.125 75.9624C628.174 78.9265 627.552 81.8634 626.307 84.5537Z" stroke="white" stroke-width="50.9387" stroke-linejoin="round" mask="url(#path-1-outside-1_615_509)"/>
<path d="M666.301 55.32C662.777 54.1057 659.06 53.5491 655.335 53.6779H651.259C649.852 53.6779 648.327 53.6779 647.096 53.6779C645.864 53.6779 644.545 53.6779 643.342 53.9418V61.0377C644.545 61.0377 645.952 60.8325 647.594 60.7738H657.974C659.199 60.6825 660.429 60.8379 661.593 61.2308C662.756 61.6236 663.829 62.246 664.747 63.0609C665.583 63.9681 666.222 65.0378 666.626 66.2032C667.03 67.3686 667.189 68.6047 667.093 69.8343V70.8899H656.068C652.786 70.8119 649.52 71.3695 646.451 72.5319C643.972 73.409 641.829 75.0391 640.322 77.1941C638.888 79.5151 638.174 82.2087 638.27 84.9351C638.2 87.6173 638.848 90.2694 640.146 92.6175C641.46 94.7469 643.366 96.4483 645.63 97.5143C648.315 98.6602 651.214 99.22 654.133 99.1563C656.807 99.2342 659.461 98.6712 661.874 97.5143C664.002 96.4875 665.77 94.842 666.946 92.7934C667.575 91.7044 668.067 90.5424 668.413 89.3334V98.13H674.629V70.1862C674.797 66.8184 674.089 63.4646 672.576 60.4513C671.188 58.0267 668.953 56.1995 666.301 55.32ZM665.129 88.3072C664.112 89.8384 662.662 91.0326 660.965 91.7378C659.271 92.3859 657.471 92.714 655.658 92.7055C653.056 92.879 650.481 92.0971 648.415 90.5063C647.573 89.7864 646.905 88.8843 646.463 87.8683C646.021 86.8522 645.816 85.7489 645.864 84.6419C645.833 83.5372 646.046 82.4391 646.487 81.4257C646.927 80.4122 647.586 79.5081 648.415 78.7775C650.455 77.1302 653.042 76.3134 655.658 76.4904H667.005V81.5338C667.056 83.9266 666.403 86.2817 665.129 88.3072Z" stroke="white" stroke-width="50.9387" stroke-linejoin="round" mask="url(#path-1-outside-1_615_509)"/>
<path d="M107.341 39.8495C100.275 38.144 92.7219 39.2404 86.3868 43.2607C84.5594 44.3571 82.8539 45.6972 81.3919 47.281C79.6864 48.9866 78.2244 50.9358 77.0062 52.885C75.6661 48.6211 73.595 44.479 70.793 40.8242C69.8184 39.4841 68.7219 38.2658 67.5037 37.0475C57.5138 27.0577 43.7474 23.6465 31.0774 26.6922C31.0774 26.6922 30.7119 27.6668 30.7119 27.9105V28.0323C29.8591 31.1998 29.4936 34.611 29.4936 38.144C29.4936 60.682 47.7677 78.956 70.3057 78.956C83.0975 78.956 94.4274 73.1083 101.981 63.8495C107.463 56.9053 109.29 48.012 107.341 39.8495Z" stroke="white" stroke-width="50.9387" stroke-linejoin="round" mask="url(#path-1-outside-1_615_509)"/>
<path fill-rule="evenodd" clip-rule="evenodd" d="M32.9859 95.6389V80.0668H26V102.625H112.925V80.0668H105.939V95.6389H32.9859Z" stroke="white" stroke-width="50.9387" stroke-linejoin="round" mask="url(#path-1-outside-1_615_509)"/>
<rect x="280.23" y="20.9854" width="31.0263" height="11.577" fill="white"/>
<rect x="409.893" y="20.9855" width="31.0263" height="11.577" fill="white"/>
<path d="M237.062 38.165V44.3813H243.103V97.7766H250.961V44.3813V38.165H243.103H237.062Z" fill="#328378"/>
<path d="M269.286 40.9229H261.838V54.1764H254.332V60.0408H261.838V82.9119C261.686 86.0989 262.331 89.2736 263.715 92.1483C264.961 94.3264 266.933 95.9973 269.286 96.8691C272.009 97.8595 274.893 98.3367 277.79 98.2766H284.475V91.2393H276.705C274.701 91.3632 272.729 90.6885 271.221 89.3627C270.555 88.6207 270.04 87.7545 269.708 86.8137C269.376 85.8728 269.233 84.8758 269.286 83.8795V60.0408H284.299V54.1764H269.286V40.9229Z" fill="#328378"/>
<path d="M181.846 87.3976C180.697 88.8958 179.21 90.1014 177.507 90.9163C175.515 91.8372 173.338 92.2887 171.144 92.2357C168.338 92.3175 165.572 91.5621 163.198 90.0659C161.133 88.5854 159.527 86.5529 158.565 84.2015C157.5 81.5768 156.971 78.7651 157.011 75.9327C156.954 73.0799 157.483 70.2457 158.565 67.6053C159.51 65.244 161.119 63.2071 163.198 61.7409C165.514 60.2659 168.224 59.5296 170.968 59.6297C174.077 59.4711 177.135 60.4627 179.559 62.4153C181.626 64.1142 182.967 66.536 183.313 69.1887H190.819C190.71 66.0351 189.692 62.9802 187.887 60.3921C186.116 57.8355 183.683 55.8084 180.849 54.5277C177.778 53.1253 174.432 52.4242 171.056 52.4752C167.763 52.4118 164.498 53.083 161.497 54.4397C158.812 55.7318 156.441 57.5928 154.548 59.8936C152.759 62.0176 151.378 64.4529 150.472 67.0775C149.567 69.7012 149.092 72.4538 149.064 75.229V76.6951C149.073 79.4168 149.518 82.1195 150.384 84.7C151.314 87.3672 152.692 89.8562 154.46 92.0598C156.315 94.2676 158.625 96.0481 161.233 97.2791C164.321 98.6555 167.676 99.3267 171.056 99.2437C174.481 99.3057 177.876 98.6046 180.996 97.1912C183.865 95.89 186.35 93.87 188.209 91.3268C190.028 88.7456 191.048 85.6865 191.141 82.5302H183.782C183.575 84.2944 182.908 85.9732 181.846 87.3976V87.3976Z" fill="#328378"/>
<path d="M425.425 47.1388C426.127 47.195 426.832 47.1011 427.494 46.8635C428.157 46.6259 428.761 46.2499 429.266 45.7607C430.132 44.797 430.594 43.5371 430.557 42.242C430.594 40.947 430.132 39.687 429.266 38.7234C428.766 38.2236 428.164 37.8368 427.501 37.589C426.839 37.3412 426.131 37.2381 425.425 37.2866C424.711 37.2326 423.993 37.3272 423.316 37.5644C422.64 37.8016 422.02 38.1762 421.496 38.6647C420.661 39.6432 420.222 40.898 420.265 42.1834C420.222 43.4687 420.661 44.7235 421.496 45.702C422.015 46.201 422.633 46.5865 423.309 46.8338C423.986 47.0812 424.706 47.185 425.425 47.1388Z" fill="#328378"/>
<path d="M224.92 80.1254C225.016 81.725 224.791 83.3275 224.257 84.8384C223.723 86.3492 222.892 87.7378 221.812 88.922C220.755 89.9495 219.501 90.752 218.125 91.2812C216.749 91.8103 215.28 92.0552 213.807 92.0008C212.421 92.0632 211.036 91.8346 209.744 91.3295C208.451 90.8245 207.278 90.0544 206.301 89.0686C204.34 86.8445 203.339 83.9353 203.515 80.9758V54.0875H195.686V79.3924C195.326 84.615 196.798 89.7999 199.85 94.0534C201.314 95.7534 203.149 97.0948 205.212 97.9742C207.276 98.8537 209.515 99.2477 211.755 99.1261H212.077C215.107 99.2541 218.104 98.4564 220.669 96.8389C223.031 95.1582 224.821 92.7945 225.8 90.0656C226.097 89.311 226.342 88.537 226.533 87.7491V97.8359H232.749V54.0875H224.92V80.1254Z" fill="#328378"/>
<path d="M294.472 47.1385C295.174 47.1985 295.88 47.1065 296.543 46.8687C297.206 46.6308 297.81 46.2528 298.313 45.7604C299.198 44.8062 299.672 43.5424 299.633 42.2417C299.672 40.9411 299.198 39.6773 298.313 38.7231C297.815 38.2202 297.213 37.8313 296.55 37.5832C295.887 37.3352 295.178 37.2339 294.472 37.2863C293.762 37.2329 293.049 37.3278 292.377 37.5651C291.706 37.8023 291.091 38.1767 290.572 38.6645C289.738 39.6429 289.298 40.8977 289.341 42.1831C289.298 43.4685 289.738 44.7233 290.572 45.7017C291.086 46.2 291.699 46.5852 292.37 46.8326C293.042 47.0801 293.758 47.1843 294.472 47.1385Z" fill="#328378"/>
<path d="M285.557 54.1763V60.3925H292.271V97.778H300.1V60.3925V54.1763H292.271H285.557Z" fill="#328378"/>
<path d="M478.236 59.8055C476.168 57.5924 473.661 55.8347 470.876 54.6448C464.549 52.0253 457.44 52.0253 451.113 54.6448C448.337 55.8352 445.84 57.5931 443.783 59.8055C441.831 61.9056 440.325 64.3793 439.355 67.0773C438.322 69.6704 437.794 72.4374 437.801 75.2288V76.6949C437.792 79.488 438.289 82.2595 439.267 84.8758C440.305 87.5539 441.825 90.0187 443.753 92.1476C445.838 94.3211 448.328 96.0645 451.084 97.2789C457.523 99.8981 464.73 99.8981 471.169 97.2789C473.859 96.109 476.285 94.4072 478.301 92.2757C480.316 90.1442 481.88 87.6271 482.898 84.8758C483.917 82.2684 484.444 79.4945 484.452 76.6949V75.2288C484.444 72.4388 483.917 69.6746 482.898 67.0773C481.859 64.3595 480.272 61.8843 478.236 59.8055V59.8055ZM474.541 84.2014C473.362 86.6187 471.522 88.6521 469.234 90.0657C466.715 91.5482 463.828 92.2901 460.907 92.2062C457.958 92.2771 455.047 91.5366 452.491 90.0657C450.231 88.6194 448.398 86.5946 447.184 84.2014C445.96 81.6192 445.348 78.7897 445.395 75.9326C445.342 73.0462 445.986 70.1896 447.272 67.6051C448.487 65.1844 450.356 63.1527 452.667 61.7407C455.198 60.3548 458.036 59.6283 460.921 59.6283C463.806 59.6283 466.645 60.3548 469.175 61.7407C471.478 63.1545 473.337 65.1864 474.541 67.6051C475.828 70.1896 476.471 73.0462 476.418 75.9326C476.464 78.7994 475.821 81.6353 474.541 84.2014V84.2014Z" fill="#328378"/>
<path d="M524.677 58.0168C523.228 56.2627 521.381 54.8796 519.291 53.9821C517.2 53.0845 514.925 52.6986 512.655 52.8561H512.333C509.144 52.7358 505.992 53.5622 503.272 55.2312C500.794 56.8522 498.903 59.2268 497.877 62.0046C497.585 62.7507 497.34 63.5146 497.144 64.2917V54.1756H490.928V97.7774H498.786V71.7102C498.713 70.1569 498.956 68.605 499.501 67.1485C500.045 65.6919 500.879 64.3609 501.953 63.2361C503.049 62.1628 504.353 61.3255 505.786 60.7758C507.218 60.2262 508.747 59.9757 510.28 60.04C511.737 59.959 513.194 60.1949 514.551 60.7315C515.907 61.2681 517.131 62.0926 518.139 63.1481C520.144 65.3543 521.197 68.2625 521.071 71.241V97.6308H528.929V72.7071C529.177 67.4747 527.681 62.308 524.677 58.0168V58.0168Z" fill="#328378"/>
<path d="M416.51 54.1763V60.3925H423.195V97.778H431.053V60.3925V54.1763H423.195H416.51Z" fill="#328378"/>
<path d="M400.294 40.9229H392.758V54.1764H385.252V60.0408H392.758V82.9119C392.62 86.0977 393.265 89.2689 394.635 92.1483C395.863 94.3076 397.8 95.9756 400.118 96.8691C402.84 97.8635 405.724 98.3408 408.622 98.2766H415.307V91.2393H407.625C406.637 91.3032 405.646 91.1702 404.709 90.8481C403.773 90.5259 402.91 90.021 402.171 89.3627C400.845 87.8549 400.17 85.8835 400.294 83.8795V60.0408H415.307V54.1764H400.294V40.9229Z" fill="#328378"/>
<path d="M326.785 91.5618H325.025L312.564 54.1763H304.412L319.278 97.778H321.214H324.996H327.107H330.685H332.415L345.316 54.1763H337.634L326.785 91.5618Z" fill="#328378"/>
<path d="M374.228 55.3199C370.704 54.1056 366.987 53.5491 363.262 53.6778H359.186C357.779 53.6778 356.254 53.6778 355.022 53.6778C353.791 53.6778 352.471 53.6778 351.269 53.9417V61.0377C352.471 61.0377 353.879 60.8324 355.521 60.7738H360.652H365.872C367.101 60.6801 368.336 60.8343 369.505 61.2272C370.673 61.6201 371.751 62.2436 372.674 63.0609C373.504 63.9719 374.14 65.0422 374.543 66.2066C374.946 67.371 375.109 68.6052 375.02 69.8342V70.8898H363.995C360.713 70.8118 357.447 71.3694 354.377 72.5319C351.898 73.4089 349.756 75.039 348.249 77.194C346.802 79.5093 346.087 82.207 346.197 84.935C346.127 87.6172 346.775 90.2693 348.073 92.6174C349.387 94.7469 351.292 96.4482 353.556 97.5142C356.242 98.6601 359.141 99.2199 362.06 99.1562C364.734 99.2341 367.388 98.6711 369.801 97.5142C371.943 96.4082 373.701 94.681 374.844 92.5588C375.472 91.4698 375.965 90.3077 376.31 89.0988V97.8953H382.526V70.1861C382.68 66.8195 381.973 63.4693 380.474 60.4512C379.092 58.0321 376.869 56.2057 374.228 55.3199V55.3199ZM373.143 88.3071C372.126 89.8383 370.677 91.0325 368.98 91.7377C367.286 92.3858 365.486 92.7139 363.672 92.7054C361.062 92.8754 358.479 92.0941 356.401 90.5062C355.567 89.7808 354.907 88.8769 354.471 87.8616C354.034 86.8464 353.832 85.7459 353.879 84.6418C353.848 83.5399 354.058 82.4445 354.494 81.4318C354.929 80.4191 355.58 79.5133 356.401 78.7774C358.455 77.1359 361.048 76.3203 363.672 76.4903H375.02V81.5337C375.071 83.9265 374.418 86.2816 373.143 88.3071V88.3071Z" fill="#328378"/>
<path d="M581.563 76.3723C578.217 74.0852 574.319 72.7384 570.275 72.4725L565.436 71.974C563.439 71.8919 561.506 71.2408 559.865 70.0974C559.327 69.5992 558.904 68.9895 558.625 68.3109C558.347 67.6323 558.219 66.9011 558.253 66.1683C558.243 65.248 558.451 64.3384 558.858 63.5132C559.266 62.688 559.862 61.9703 560.598 61.4181C562.643 60.041 565.087 59.381 567.548 59.5415C569.981 59.3712 572.401 60.0329 574.409 61.4181C575.137 61.9123 575.739 62.5703 576.167 63.3392C576.594 64.1081 576.836 64.9666 576.872 65.8457H584.202C584.272 63.9606 583.879 62.0872 583.056 60.3898C582.232 58.6925 581.005 57.2232 579.482 56.1109C575.943 53.8012 571.768 52.6626 567.548 52.8561C564.582 52.8032 561.637 53.3622 558.898 54.4981C556.545 55.429 554.509 57.0169 553.033 59.0724C551.582 61.1477 550.841 63.6371 550.922 66.1683C550.82 67.8426 551.124 69.5169 551.808 71.0485C552.492 72.5801 553.536 73.9237 554.851 74.9649C557.81 77.1202 561.316 78.4004 564.967 78.6594L569.717 79.1286C572.058 79.2257 574.332 79.9333 576.315 81.1811C576.983 81.6436 577.521 82.2685 577.881 82.9971C578.24 83.7256 578.407 84.5336 578.367 85.3448C578.354 86.3619 578.093 87.3603 577.608 88.2542C577.123 89.1481 576.427 89.9107 575.582 90.4762C573.201 91.9979 570.396 92.7172 567.577 92.5287C564.702 92.6731 561.868 91.8012 559.572 90.0657C558.142 88.8485 557.238 87.1253 557.05 85.2569H549.691C549.665 87.1859 550.086 89.0946 550.92 90.8342C551.754 92.5737 552.979 94.0969 554.499 95.285C558.4 97.9684 563.086 99.269 567.811 98.9796C571.033 99.0362 574.233 98.448 577.224 97.2496C579.733 96.1957 581.925 94.5084 583.587 92.3528C585.159 90.2572 585.994 87.7005 585.962 85.0809C586.001 83.3797 585.62 81.6949 584.853 80.1759C584.086 78.6569 582.956 77.3505 581.563 76.3723V76.3723Z" fill="#1F2937"/>
<path d="M545.618 87.8077H536.146V97.7772H545.618V87.8077Z" fill="#1F2937"/>
<path d="M765.999 73.938C766.022 70.385 765.23 66.874 763.683 63.6753C762.21 60.4522 759.838 57.7233 756.851 55.817C753.344 53.6227 749.255 52.5393 745.122 52.7089C741.829 52.6456 738.564 53.3167 735.563 54.6735C732.994 55.8604 730.736 57.6269 728.965 59.8342C727.212 61.9577 725.878 64.3957 725.036 67.018C724.216 69.6875 723.801 72.4649 723.805 75.2575V76.7236C723.803 79.4969 724.218 82.2547 725.036 84.9044C725.896 87.5456 727.228 90.0093 728.965 92.1763C730.803 94.3799 733.12 96.1349 735.739 97.3076C738.845 98.6898 742.221 99.361 745.62 99.2722C748.782 99.3273 751.922 98.7491 754.857 97.5715C757.52 96.4949 759.867 94.76 761.677 92.5291C763.488 90.2983 764.702 87.6446 765.207 84.8165H757.877C757.3 87.0021 755.903 88.8816 753.977 90.0651C751.514 91.6905 748.598 92.4914 745.65 92.3522C742.803 92.4613 739.987 91.7268 737.557 90.241C735.447 88.7861 733.807 86.7484 732.836 84.3766C731.989 82.153 731.513 79.8053 731.428 77.4273H765.999V73.938ZM737.41 61.6814C739.711 60.1933 742.413 59.4462 745.151 59.5409C747.761 59.4497 750.344 60.1004 752.599 61.4175C754.568 62.7139 756.101 64.5737 756.997 66.7541C757.641 68.2901 758.065 69.9088 758.258 71.5629H731.868C732.075 70.1645 732.449 68.7961 732.983 67.4872C733.87 65.1668 735.407 63.1512 737.41 61.6814V61.6814Z" fill="#1F2937"/>
<path d="M712.692 87.3975C711.558 88.8991 710.08 90.106 708.382 90.9161C706.379 91.8375 704.193 92.2888 701.989 92.2356C699.197 92.3221 696.441 91.5771 694.072 90.0951C692.007 88.6083 690.393 86.5785 689.41 84.2307C688.368 81.6 687.851 78.7912 687.886 75.9619C687.834 73.1123 688.353 70.2811 689.41 67.6345C690.378 65.2778 691.995 63.2442 694.072 61.7701C696.389 60.2951 699.099 59.5588 701.843 59.6589C704.943 59.4992 707.992 60.4914 710.405 62.4445C712.48 64.1356 713.825 66.5614 714.158 69.2179H721.694C721.585 66.0643 720.567 63.0094 718.762 60.4213C716.984 57.8706 714.554 55.8451 711.724 54.5569C708.652 53.1573 705.307 52.4563 701.931 52.5044C698.638 52.438 695.372 53.1093 692.372 54.4689C689.738 55.7119 687.399 57.5011 685.51 59.7176C683.712 61.8341 682.329 64.2715 681.435 66.9014C680.56 69.53 680.114 72.2825 680.115 75.0529V76.519C680.124 79.2408 680.569 81.9435 681.435 84.5239C682.353 87.1964 683.732 89.6874 685.51 91.8837C687.353 94.1047 689.667 95.8876 692.284 97.1031C695.361 98.479 698.707 99.1502 702.077 99.0676C705.512 99.132 708.917 98.4309 712.047 97.0151C714.907 95.713 717.382 93.6927 719.231 91.1507C721.062 88.576 722.083 85.5129 722.163 82.3541H714.657C714.469 84.1818 713.79 85.9246 712.692 87.3975V87.3975Z" fill="#1F2937"/>
<path d="M630.236 59.3953C627.224 56.0967 623.217 53.8711 618.825 53.0561C614.433 52.2412 609.894 52.8814 605.899 54.8797C603.038 56.36 600.681 58.6561 599.126 61.4772C598.54 62.5527 598.059 63.6819 597.689 64.8492V54.176H591.473V114.11H599.302V91.1803C600.91 93.7597 603.205 95.8409 605.928 97.1913C608.667 98.5326 611.675 99.2344 614.725 99.2439C617.648 99.2874 620.543 98.6763 623.199 97.4552C625.758 96.3013 628.054 94.6347 629.943 92.5585C631.853 90.4656 633.346 88.0273 634.341 85.3746C635.394 82.5625 635.921 79.5807 635.895 76.578V75.1119C635.908 72.1657 635.412 69.2395 634.429 66.4619C633.503 63.8567 632.079 61.4566 630.236 59.3953V59.3953ZM626.307 84.5536C625.203 86.9745 623.403 89.012 621.137 90.4063C618.87 91.8005 616.24 92.4885 613.581 92.3825C611.085 92.402 608.62 91.8186 606.398 90.6818C604.085 89.5141 602.156 87.7092 600.836 85.4803C599.516 83.2514 598.862 80.6915 598.95 78.1027V74.3495C598.877 71.5722 599.556 68.8267 600.914 66.4033C602.209 64.2529 604.077 62.5063 606.31 61.3599C608.542 60.1524 611.043 59.5271 613.581 59.5419C616.296 59.4914 618.966 60.2354 621.264 61.6824C623.459 63.065 625.209 65.0498 626.307 67.4002C627.565 70.0759 628.187 73.0062 628.125 75.9622C628.174 78.9264 627.553 81.8633 626.307 84.5536V84.5536Z" fill="#1F2937"/>
<path d="M666.304 55.3199C662.78 54.1056 659.063 53.5491 655.338 53.6778H651.262C649.854 53.6778 648.33 53.6778 647.098 53.6778C645.867 53.6778 644.547 53.6778 643.345 53.9417V61.0377C644.547 61.0377 645.954 60.8324 647.597 60.7738H652.728H657.976C659.201 60.6824 660.432 60.8378 661.595 61.2307C662.758 61.6235 663.831 62.2459 664.75 63.0609C665.585 63.968 666.225 65.0377 666.629 66.2031C667.032 67.3685 667.191 68.6046 667.096 69.8342V70.8898H656.071C652.789 70.8118 649.523 71.3694 646.453 72.5319C643.974 73.4089 641.831 75.039 640.325 77.194C638.891 79.515 638.177 82.2086 638.272 84.935C638.203 87.6172 638.851 90.2693 640.149 92.6174C641.463 94.7469 643.368 96.4482 645.632 97.5142C648.317 98.6601 651.216 99.2199 654.135 99.1562C656.81 99.2341 659.464 98.6711 661.876 97.5142C664.004 96.4874 665.772 94.8419 666.949 92.7933C667.577 91.7043 668.07 90.5423 668.415 89.3333V98.1299H674.631V70.1861C674.799 66.8184 674.092 63.4646 672.579 60.4512C671.19 58.0266 668.956 56.1995 666.304 55.3199V55.3199ZM665.131 88.3071C664.114 89.8383 662.665 91.0325 660.967 91.7377C659.273 92.3858 657.474 92.7139 655.66 92.7054C653.059 92.879 650.483 92.097 648.418 90.5062C647.575 89.7864 646.908 88.8842 646.466 87.8682C646.024 86.8521 645.819 85.7488 645.866 84.6418C645.836 83.5371 646.048 82.439 646.489 81.4256C646.93 80.4121 647.588 79.5081 648.418 78.7774C650.457 77.1301 653.044 76.3133 655.66 76.4903H667.008V81.5337C667.058 83.9265 666.406 86.2816 665.131 88.3071V88.3071Z" fill="#1F2937"/>
<path d="M107.342 39.8494C100.276 38.1438 92.7224 39.2403 86.3874 43.2606C84.56 44.357 82.8544 45.6971 81.3925 47.2809C79.6869 48.9864 78.225 50.9357 77.0067 52.8849C75.6666 48.621 73.5955 44.4788 70.7935 40.824C69.8189 39.4839 68.7225 38.2657 67.5042 37.0474C57.5144 27.0576 43.7479 23.6464 31.0779 26.6921C31.0779 26.6921 30.7124 27.6667 30.7124 27.9104V28.0322C29.8596 31.1997 29.4941 34.6109 29.4941 38.1438C29.4941 60.6818 47.7682 78.9559 70.3062 78.9559C83.0981 78.9559 94.428 73.1082 101.981 63.8493C107.463 56.9052 109.291 48.0118 107.342 39.8494Z" fill="#48AD9C"/>
<path fill-rule="evenodd" clip-rule="evenodd" d="M32.9859 95.6387V80.0667H26V102.625H112.925V80.0667H105.939V95.6387H32.9859Z" fill="#1F2937"/>
</svg>
