<svg width="764" height="186" viewBox="0 0 764 186" fill="none" xmlns="http://www.w3.org/2000/svg">
<path d="M1.53906 45.04C1.53906 20.7174 21.2565 1 45.5791 1V1V64.7422H1.53906V45.04Z" fill="#48AD9C" stroke="#48AD9C" stroke-width="1.80585"/>
<rect x="1.53906" y="64.7422" width="44.0401" height="55.5263" fill="#48AD9C" stroke="#48AD9C" stroke-width="1.80585"/>
<path d="M1.53906 139.971C1.53906 164.293 21.2565 184.011 45.5791 184.011V184.011V120.268H1.53906V139.971Z" fill="#48AD9C" stroke="#48AD9C" stroke-width="1.80585"/>
<rect x="45.5801" y="1" width="651.834" height="183.011" fill="#48AD9C"/>
<path d="M49.5335 81.5054V53.392H53.7066V57.7847H54.0727C54.6584 56.2838 55.604 55.1185 56.9096 54.2888C58.2153 53.4469 59.7832 53.0259 61.6135 53.0259C63.4682 53.0259 65.0118 53.4469 66.2442 54.2888C67.4888 55.1185 68.4588 56.2838 69.1543 57.7847H69.4472C70.1671 56.3326 71.247 55.1796 72.6868 54.3254C74.1267 53.4591 75.8532 53.0259 77.8666 53.0259C80.3802 53.0259 82.4362 53.8129 84.0347 55.387C85.6331 56.9488 86.4324 59.3831 86.4324 62.6899V81.5054H82.1129V62.6899C82.1129 60.6155 81.5455 59.133 80.4107 58.2423C79.2759 57.3515 77.9398 56.9061 76.4023 56.9061C74.4256 56.9061 72.8943 57.504 71.8083 58.6998C70.7223 59.8834 70.1793 61.3843 70.1793 63.2024V81.5054H65.7866V62.2506C65.7866 60.6522 65.268 59.3648 64.2308 58.3887C63.1937 57.4003 61.8575 56.9061 60.2225 56.9061C59.0999 56.9061 58.0505 57.2051 57.0744 57.803C56.1104 58.4009 55.3295 59.2306 54.7316 60.2922C54.1459 61.3416 53.853 62.5557 53.853 63.9345V81.5054H49.5335ZM95.8478 92.0479C95.1157 92.0479 94.4629 91.9869 93.8894 91.8649C93.3159 91.7551 92.9193 91.6452 92.6997 91.5354L93.7979 87.7284C94.8472 87.9968 95.7746 88.0945 96.5799 88.0212C97.3853 87.948 98.0991 87.5881 98.7214 86.9414C99.3559 86.3069 99.9355 85.2758 100.46 83.8482L101.265 81.6518L90.8694 53.392H95.555L103.315 75.7948H103.608L111.369 53.392H116.054L104.121 85.6052C103.584 87.0573 102.919 88.2592 102.126 89.2109C101.333 90.1749 100.411 90.8887 99.362 91.3524C98.3248 91.8161 97.1534 92.0479 95.8478 92.0479ZM147.963 53.392V57.0526H133.393V53.392H147.963ZM137.64 46.6565H141.959V73.4521C141.959 74.6723 142.136 75.5874 142.49 76.1975C142.856 76.7954 143.32 77.1981 143.881 77.4055C144.455 77.6007 145.059 77.6983 145.693 77.6983C146.169 77.6983 146.559 77.6739 146.864 77.6251C147.17 77.5641 147.414 77.5153 147.597 77.4787L148.475 81.3589C148.182 81.4688 147.774 81.5786 147.249 81.6884C146.724 81.8104 146.059 81.8714 145.254 81.8714C144.034 81.8714 142.838 81.6091 141.666 81.0844C140.507 80.5597 139.543 79.7605 138.775 78.6867C138.018 77.6129 137.64 76.2585 137.64 74.6234V46.6565ZM165.322 82.0911C162.784 82.0911 160.557 81.4871 158.641 80.2791C156.738 79.0711 155.249 77.3811 154.175 75.2091C153.114 73.0372 152.583 70.4992 152.583 67.5951C152.583 64.6666 153.114 62.1103 154.175 59.9261C155.249 57.742 156.738 56.0459 158.641 54.8379C160.557 53.6299 162.784 53.0259 165.322 53.0259C167.86 53.0259 170.08 53.6299 171.984 54.8379C173.9 56.0459 175.388 57.742 176.45 59.9261C177.524 62.1103 178.061 64.6666 178.061 67.5951C178.061 70.4992 177.524 73.0372 176.45 75.2091C175.388 77.3811 173.9 79.0711 171.984 80.2791C170.08 81.4871 167.86 82.0911 165.322 82.0911ZM165.322 78.2108C167.25 78.2108 168.836 77.7166 170.08 76.7283C171.325 75.7399 172.246 74.4404 172.844 72.8297C173.442 71.2191 173.741 69.4742 173.741 67.5951C173.741 65.716 173.442 63.965 172.844 62.3421C172.246 60.7193 171.325 59.4075 170.08 58.407C168.836 57.4064 167.25 56.9061 165.322 56.9061C163.394 56.9061 161.807 57.4064 160.563 58.407C159.318 59.4075 158.397 60.7193 157.799 62.3421C157.201 63.965 156.902 65.716 156.902 67.5951C156.902 69.4742 157.201 71.2191 157.799 72.8297C158.397 74.4404 159.318 75.7399 160.563 76.7283C161.807 77.7166 163.394 78.2108 165.322 78.2108ZM188.423 71.2557L188.35 65.9112H189.228L201.528 53.392H206.873L193.768 66.6433H193.402L188.423 71.2557ZM184.396 81.5054V44.0208H188.716V81.5054H184.396ZM202.26 81.5054L191.278 67.5951L194.353 64.5934L207.751 81.5054H202.26ZM222.804 82.0911C220.095 82.0911 217.758 81.4932 215.794 80.2974C213.841 79.0894 212.335 77.4055 211.273 75.2457C210.224 73.0738 209.699 70.548 209.699 67.6683C209.699 64.7886 210.224 62.2506 211.273 60.0543C212.335 57.8457 213.811 56.1252 215.702 54.8928C217.606 53.6482 219.827 53.0259 222.365 53.0259C223.829 53.0259 225.275 53.2699 226.702 53.758C228.13 54.2461 229.43 55.0392 230.601 56.1374C231.772 57.2234 232.706 58.6632 233.401 60.4569C234.097 62.2506 234.445 64.4592 234.445 67.0826V68.9129H212.774V65.1791H230.052C230.052 63.5928 229.735 62.1774 229.1 60.9328C228.478 59.6882 227.587 58.7059 226.428 57.986C225.281 57.2661 223.926 56.9061 222.365 56.9061C220.644 56.9061 219.155 57.3332 217.899 58.1873C216.654 59.0293 215.696 60.1275 215.025 61.4819C214.354 62.8363 214.018 64.2883 214.018 65.838V68.3272C214.018 70.4504 214.384 72.2502 215.117 73.7266C215.861 75.1908 216.892 76.3073 218.21 77.076C219.528 77.8326 221.059 78.2108 222.804 78.2108C223.939 78.2108 224.964 78.0522 225.879 77.735C226.806 77.4055 227.605 76.9174 228.276 76.2707C228.948 75.6118 229.466 74.7943 229.832 73.8181L234.005 74.9895C233.566 76.4049 232.828 77.6495 231.791 78.7233C230.753 79.7849 229.472 80.6146 227.947 81.2125C226.422 81.7982 224.707 82.0911 222.804 82.0911ZM245.077 64.5934V81.5054H240.758V53.392H244.931V57.7847H245.297C245.956 56.357 246.956 55.2101 248.298 54.3437C249.641 53.4652 251.373 53.0259 253.497 53.0259C255.4 53.0259 257.066 53.4164 258.493 54.1973C259.921 54.966 261.031 56.1374 261.824 57.7115C262.618 59.2733 263.014 61.25 263.014 63.6416V81.5054H258.695V63.9345C258.695 61.7259 258.121 60.0054 256.974 58.773C255.827 57.5284 254.253 56.9061 252.252 56.9061C250.873 56.9061 249.641 57.2051 248.555 57.803C247.481 58.4009 246.633 59.2733 246.011 60.4203C245.388 61.5673 245.077 62.9583 245.077 64.5934ZM284.888 81.5054V53.392H289.207V81.5054H284.888ZM287.084 48.7064C286.242 48.7064 285.516 48.4196 284.906 47.8462C284.308 47.2727 284.009 46.5832 284.009 45.7779C284.009 44.9726 284.308 44.2832 284.906 43.7097C285.516 43.1362 286.242 42.8494 287.084 42.8494C287.926 42.8494 288.646 43.1362 289.244 43.7097C289.854 44.2832 290.159 44.9726 290.159 45.7779C290.159 46.5832 289.854 47.2727 289.244 47.8462C288.646 48.4196 287.926 48.7064 287.084 48.7064ZM316.775 59.6882L312.895 60.7864C312.65 60.1397 312.291 59.5113 311.815 58.9012C311.351 58.2789 310.716 57.7664 309.911 57.3637C309.106 56.961 308.075 56.7597 306.818 56.7597C305.097 56.7597 303.664 57.1563 302.517 57.9494C301.382 58.7303 300.815 59.7248 300.815 60.9328C300.815 62.0066 301.205 62.8546 301.986 63.4769C302.767 64.0992 303.987 64.6178 305.647 65.0327L309.82 66.0576C312.333 66.6677 314.206 67.6012 315.439 68.858C316.671 70.1026 317.287 71.7072 317.287 73.6717C317.287 75.2824 316.824 76.7222 315.896 77.9912C314.981 79.2602 313.7 80.2608 312.053 80.9929C310.405 81.725 308.49 82.0911 306.305 82.0911C303.438 82.0911 301.065 81.4688 299.186 80.2242C297.306 78.9796 296.117 77.1615 295.616 74.7699L299.716 73.7449C300.107 75.2579 300.845 76.3927 301.931 77.1493C303.029 77.9058 304.463 78.284 306.232 78.284C308.246 78.284 309.844 77.857 311.028 77.0028C312.223 76.1365 312.821 75.0993 312.821 73.8913C312.821 72.9152 312.48 72.0976 311.796 71.4387C311.113 70.7676 310.064 70.2673 308.648 69.9379L303.963 68.8397C301.388 68.2296 299.497 67.2839 298.289 66.0027C297.093 64.7093 296.495 63.0926 296.495 61.1524C296.495 59.5662 296.94 58.1629 297.831 56.9427C298.734 55.7225 299.96 54.7647 301.51 54.0692C303.072 53.3737 304.841 53.0259 306.818 53.0259C309.6 53.0259 311.784 53.636 313.37 54.8562C314.969 56.0764 316.104 57.6871 316.775 59.6882ZM342.089 64.5934V81.5054H337.77V53.392H341.943V57.7847H342.309C342.968 56.357 343.969 55.2101 345.311 54.3437C346.653 53.4652 348.386 53.0259 350.509 53.0259C352.412 53.0259 354.078 53.4164 355.506 54.1973C356.933 54.966 358.044 56.1374 358.837 57.7115C359.63 59.2733 360.026 61.25 360.026 63.6416V81.5054H355.707V63.9345C355.707 61.7259 355.133 60.0054 353.986 58.773C352.839 57.5284 351.265 56.9061 349.264 56.9061C347.885 56.9061 346.653 57.2051 345.567 57.803C344.493 58.4009 343.645 59.2733 343.023 60.4203C342.401 61.5673 342.089 62.9583 342.089 64.5934ZM379.083 82.0911C376.545 82.0911 374.318 81.4871 372.402 80.2791C370.499 79.0711 369.01 77.3811 367.936 75.2091C366.875 73.0372 366.344 70.4992 366.344 67.5951C366.344 64.6666 366.875 62.1103 367.936 59.9261C369.01 57.742 370.499 56.0459 372.402 54.8379C374.318 53.6299 376.545 53.0259 379.083 53.0259C381.621 53.0259 383.842 53.6299 385.745 54.8379C387.661 56.0459 389.15 57.742 390.211 59.9261C391.285 62.1103 391.822 64.6666 391.822 67.5951C391.822 70.4992 391.285 73.0372 390.211 75.2091C389.15 77.3811 387.661 79.0711 385.745 80.2791C383.842 81.4871 381.621 82.0911 379.083 82.0911ZM379.083 78.2108C381.011 78.2108 382.597 77.7166 383.842 76.7283C385.086 75.7399 386.008 74.4404 386.605 72.8297C387.203 71.2191 387.502 69.4742 387.502 67.5951C387.502 65.716 387.203 63.965 386.605 62.3421C386.008 60.7193 385.086 59.4075 383.842 58.407C382.597 57.4064 381.011 56.9061 379.083 56.9061C377.155 56.9061 375.569 57.4064 374.324 58.407C373.08 59.4075 372.158 60.7193 371.56 62.3421C370.962 63.965 370.664 65.716 370.664 67.5951C370.664 69.4742 370.962 71.2191 371.56 72.8297C372.158 74.4404 373.08 75.7399 374.324 76.7283C375.569 77.7166 377.155 78.2108 379.083 78.2108ZM410.384 53.392V57.0526H395.815V53.392H410.384ZM400.061 46.6565H404.381V73.4521C404.381 74.6723 404.558 75.5874 404.912 76.1975C405.278 76.7954 405.741 77.1981 406.303 77.4055C406.876 77.6007 407.48 77.6983 408.115 77.6983C408.59 77.6983 408.981 77.6739 409.286 77.6251C409.591 77.5641 409.835 77.5153 410.018 77.4787L410.897 81.3589C410.604 81.4688 410.195 81.5786 409.67 81.6884C409.146 81.8104 408.481 81.8714 407.675 81.8714C406.455 81.8714 405.259 81.6091 404.088 81.0844C402.929 80.5597 401.965 79.7605 401.196 78.6867C400.44 77.6129 400.061 76.2585 400.061 74.6234V46.6565ZM437.232 81.5054L428.666 53.392H433.205L439.282 74.9163H439.575L445.578 53.392H450.19L456.12 74.8431H456.413L462.49 53.392H467.029L458.463 81.5054H454.217L448.067 59.9078H447.628L441.478 81.5054H437.232ZM482.947 82.0911C480.409 82.0911 478.182 81.4871 476.266 80.2791C474.362 79.0711 472.874 77.3811 471.8 75.2091C470.739 73.0372 470.208 70.4992 470.208 67.5951C470.208 64.6666 470.739 62.1103 471.8 59.9261C472.874 57.742 474.362 56.0459 476.266 54.8379C478.182 53.6299 480.409 53.0259 482.947 53.0259C485.485 53.0259 487.705 53.6299 489.609 54.8379C491.525 56.0459 493.013 57.742 494.075 59.9261C495.149 62.1103 495.685 64.6666 495.685 67.5951C495.685 70.4992 495.149 73.0372 494.075 75.2091C493.013 77.3811 491.525 79.0711 489.609 80.2791C487.705 81.4871 485.485 82.0911 482.947 82.0911ZM482.947 78.2108C484.875 78.2108 486.461 77.7166 487.705 76.7283C488.95 75.7399 489.871 74.4404 490.469 72.8297C491.067 71.2191 491.366 69.4742 491.366 67.5951C491.366 65.716 491.067 63.965 490.469 62.3421C489.871 60.7193 488.95 59.4075 487.705 58.407C486.461 57.4064 484.875 56.9061 482.947 56.9061C481.019 56.9061 479.432 57.4064 478.188 58.407C476.943 59.4075 476.022 60.7193 475.424 62.3421C474.826 63.965 474.527 65.716 474.527 67.5951C474.527 69.4742 474.826 71.2191 475.424 72.8297C476.022 74.4404 476.943 75.7399 478.188 76.7283C479.432 77.7166 481.019 78.2108 482.947 78.2108ZM502.021 81.5054V53.392H506.195V57.6383H506.487C507 56.2472 507.927 55.1185 509.269 54.2522C510.612 53.3859 512.125 52.9527 513.809 52.9527C514.126 52.9527 514.522 52.9588 514.998 52.971C515.474 52.9832 515.834 53.0015 516.078 53.0259V57.4186C515.932 57.382 515.596 57.3271 515.071 57.2539C514.559 57.1685 514.016 57.1258 513.443 57.1258C512.076 57.1258 510.856 57.4125 509.782 57.986C508.72 58.5473 507.878 59.3282 507.256 60.3288C506.646 61.3172 506.341 62.4458 506.341 63.7149V81.5054H502.021ZM524.967 71.2557L524.894 65.9112H525.773L538.072 53.392H543.417L530.312 66.6433H529.946L524.967 71.2557ZM520.941 81.5054V44.0208H525.26V81.5054H520.941ZM538.804 81.5054L527.823 67.5951L530.898 64.5934L544.295 81.5054H538.804ZM548.719 81.5054V53.392H553.038V81.5054H548.719ZM550.915 48.7064C550.073 48.7064 549.347 48.4196 548.737 47.8462C548.139 47.2727 547.84 46.5832 547.84 45.7779C547.84 44.9726 548.139 44.2832 548.737 43.7097C549.347 43.1362 550.073 42.8494 550.915 42.8494C551.757 42.8494 552.477 43.1362 553.075 43.7097C553.685 44.2832 553.99 44.9726 553.99 45.7779C553.99 46.5832 553.685 47.2727 553.075 47.8462C552.477 48.4196 551.757 48.7064 550.915 48.7064ZM565.011 64.5934V81.5054H560.692V53.392H564.865V57.7847H565.231C565.89 56.357 566.89 55.2101 568.233 54.3437C569.575 53.4652 571.308 53.0259 573.431 53.0259C575.334 53.0259 577 53.4164 578.427 54.1973C579.855 54.966 580.966 56.1374 581.759 57.7115C582.552 59.2733 582.948 61.25 582.948 63.6416V81.5054H578.629V63.9345C578.629 61.7259 578.055 60.0054 576.908 58.773C575.761 57.5284 574.187 56.9061 572.186 56.9061C570.807 56.9061 569.575 57.2051 568.489 57.803C567.415 58.4009 566.567 59.2733 565.945 60.4203C565.323 61.5673 565.011 62.9583 565.011 64.5934ZM601.932 92.6336C599.845 92.6336 598.051 92.3652 596.551 91.8283C595.05 91.3036 593.799 90.6081 592.798 89.7417C591.81 88.8876 591.023 87.9724 590.437 86.9963L593.878 84.5803C594.269 85.0928 594.763 85.6785 595.361 86.3374C595.959 87.0085 596.776 87.5881 597.814 88.0761C598.863 88.5764 600.236 88.8266 601.932 88.8266C604.201 88.8266 606.074 88.2775 607.551 87.1793C609.027 86.0811 609.765 84.3606 609.765 82.0179V76.3073H609.399C609.082 76.8198 608.631 77.4543 608.045 78.2108C607.471 78.9552 606.642 79.6202 605.556 80.2059C604.482 80.7794 603.03 81.0661 601.2 81.0661C598.93 81.0661 596.892 80.5292 595.086 79.4554C593.293 78.3817 591.871 76.8198 590.822 74.7699C589.785 72.7199 589.266 70.2307 589.266 67.3022C589.266 64.4226 589.772 61.9151 590.785 59.7797C591.798 57.6322 593.207 55.9727 595.013 54.8013C596.819 53.6177 598.906 53.0259 601.273 53.0259C603.103 53.0259 604.555 53.331 605.629 53.9411C606.715 54.5389 607.545 55.2223 608.118 55.991C608.704 56.7475 609.155 57.3698 609.473 57.8579H609.912V53.392H614.085V82.3107C614.085 84.7267 613.536 86.6912 612.438 88.2043C611.352 89.7295 609.887 90.846 608.045 91.5537C606.215 92.2736 604.177 92.6336 601.932 92.6336ZM601.785 77.1859C603.518 77.1859 604.982 76.7893 606.178 75.9962C607.374 75.203 608.283 74.0622 608.905 72.5735C609.527 71.0849 609.839 69.3034 609.839 67.229C609.839 65.2035 609.534 63.4159 608.923 61.8663C608.313 60.3166 607.41 59.1025 606.215 58.224C605.019 57.3454 603.542 56.9061 601.785 56.9061C599.955 56.9061 598.43 57.3698 597.21 58.2972C596.002 59.2245 595.092 60.4691 594.482 62.031C593.884 63.5928 593.586 65.3255 593.586 67.229C593.586 69.1813 593.891 70.9079 594.501 72.4088C595.123 73.8974 596.038 75.0688 597.246 75.923C598.466 76.7649 599.979 77.1859 601.785 77.1859ZM628.177 76.3805L627.884 78.3573C627.676 79.7483 627.359 81.2369 626.932 82.8232C626.517 84.4094 626.084 85.9042 625.633 87.3074C625.181 88.7107 624.809 89.8271 624.516 90.6569H621.222C621.38 89.8759 621.588 88.8449 621.844 87.5637C622.1 86.2825 622.356 84.8487 622.613 83.2625C622.881 81.6884 623.101 80.0777 623.271 78.4305L623.491 76.3805H628.177ZM60.9546 141.091C58.319 141.091 56.0494 140.469 54.1459 139.224C52.2424 137.98 50.7781 136.265 49.7532 134.081C48.7282 131.897 48.2157 129.402 48.2157 126.595C48.2157 123.74 48.7404 121.22 49.7898 119.036C50.8513 116.84 52.3278 115.125 54.2191 113.893C56.1226 112.648 58.3434 112.026 60.8814 112.026C62.8581 112.026 64.6396 112.392 66.2259 113.124C67.8121 113.856 69.1116 114.881 70.1244 116.199C71.1372 117.517 71.7656 119.054 72.0096 120.811H67.6901C67.3607 119.53 66.6285 118.395 65.4937 117.407C64.3712 116.406 62.8581 115.906 60.9546 115.906C59.2707 115.906 57.7943 116.345 56.5253 117.224C55.2685 118.09 54.2862 119.317 53.5785 120.903C52.883 122.477 52.5352 124.326 52.5352 126.449C52.5352 128.621 52.8769 130.512 53.5602 132.123C54.2557 133.733 55.2319 134.984 56.4887 135.875C57.7577 136.765 59.2463 137.211 60.9546 137.211C62.0772 137.211 63.0961 137.016 64.0112 136.625C64.9264 136.235 65.7012 135.673 66.3357 134.941C66.9702 134.209 67.4217 133.331 67.6901 132.306H72.0096C71.7656 133.965 71.1616 135.46 70.1976 136.79C69.2459 138.108 67.983 139.157 66.4089 139.938C64.847 140.707 63.0289 141.091 60.9546 141.091ZM86.3394 141.164C84.5579 141.164 82.9411 140.829 81.4891 140.158C80.0371 139.474 78.884 138.492 78.0298 137.211C77.1757 135.917 76.7486 134.356 76.7486 132.525C76.7486 130.915 77.0659 129.609 77.7004 128.608C78.3349 127.596 79.1829 126.803 80.2445 126.229C81.3061 125.656 82.4775 125.228 83.7587 124.948C85.0521 124.655 86.3516 124.423 87.6572 124.252C89.3655 124.033 90.7504 123.868 91.812 123.758C92.8858 123.636 93.6667 123.435 94.1548 123.154C94.6551 122.873 94.9052 122.385 94.9052 121.69V121.543C94.9052 119.738 94.411 118.334 93.4227 117.334C92.4465 116.333 90.964 115.833 88.975 115.833C86.9129 115.833 85.2961 116.284 84.1247 117.187C82.9533 118.09 82.1297 119.054 81.6538 120.079L77.554 118.615C78.2861 116.907 79.2622 115.577 80.4824 114.625C81.7148 113.661 83.0571 112.99 84.5091 112.612C85.9733 112.221 87.4132 112.026 88.8286 112.026C89.7316 112.026 90.7687 112.136 91.9401 112.355C93.1237 112.563 94.2646 112.996 95.3628 113.655C96.4732 114.314 97.3944 115.308 98.1265 116.638C98.8587 117.968 99.2247 119.75 99.2247 121.983V140.505H94.9052V136.698H94.6856C94.3927 137.308 93.9046 137.961 93.2213 138.657C92.538 139.352 91.629 139.944 90.4942 140.432C89.3594 140.92 87.9745 141.164 86.3394 141.164ZM86.9983 137.284C88.7066 137.284 90.1464 136.948 91.3178 136.277C92.5014 135.606 93.3922 134.74 93.9901 133.678C94.6002 132.617 94.9052 131.5 94.9052 130.329V126.375C94.7222 126.595 94.3195 126.796 93.6972 126.979C93.0871 127.15 92.3794 127.303 91.5741 127.437C90.7809 127.559 90.0061 127.669 89.2496 127.766C88.5053 127.852 87.9013 127.925 87.4376 127.986C86.315 128.133 85.2656 128.37 84.2895 128.7C83.3255 129.017 82.5446 129.499 81.9467 130.146C81.361 130.78 81.0681 131.647 81.0681 132.745C81.0681 134.246 81.6233 135.381 82.7337 136.149C83.8563 136.906 85.2778 137.284 86.9983 137.284ZM111.171 123.593V140.505H106.851V112.392H111.024V116.785H111.39C112.049 115.357 113.05 114.21 114.392 113.344C115.734 112.465 117.467 112.026 119.59 112.026C121.493 112.026 123.159 112.416 124.587 113.197C126.014 113.966 127.125 115.137 127.918 116.711C128.711 118.273 129.107 120.25 129.107 122.642V140.505H124.788V122.934C124.788 120.726 124.214 119.005 123.067 117.773C121.92 116.528 120.346 115.906 118.345 115.906C116.966 115.906 115.734 116.205 114.648 116.803C113.574 117.401 112.726 118.273 112.104 119.42C111.482 120.567 111.171 121.958 111.171 123.593ZM153.763 151.048C153.031 151.048 152.378 150.987 151.805 150.865C151.231 150.755 150.835 150.645 150.615 150.535L151.713 146.728C152.763 146.997 153.69 147.094 154.495 147.021C155.301 146.948 156.015 146.588 156.637 145.941C157.271 145.307 157.851 144.276 158.376 142.848L159.181 140.652L148.785 112.392H153.47L161.231 134.795H161.524L169.284 112.392H173.97L162.036 144.605C161.499 146.057 160.834 147.259 160.041 148.211C159.248 149.175 158.327 149.889 157.277 150.352C156.24 150.816 155.069 151.048 153.763 151.048ZM189.828 141.091C187.29 141.091 185.063 140.487 183.147 139.279C181.244 138.071 179.755 136.381 178.681 134.209C177.62 132.037 177.089 129.499 177.089 126.595C177.089 123.667 177.62 121.11 178.681 118.926C179.755 116.742 181.244 115.046 183.147 113.838C185.063 112.63 187.29 112.026 189.828 112.026C192.366 112.026 194.587 112.63 196.49 113.838C198.406 115.046 199.895 116.742 200.956 118.926C202.03 121.11 202.567 123.667 202.567 126.595C202.567 129.499 202.03 132.037 200.956 134.209C199.895 136.381 198.406 138.071 196.49 139.279C194.587 140.487 192.366 141.091 189.828 141.091ZM189.828 137.211C191.756 137.211 193.342 136.717 194.587 135.728C195.831 134.74 196.752 133.44 197.35 131.83C197.948 130.219 198.247 128.474 198.247 126.595C198.247 124.716 197.948 122.965 197.35 121.342C196.752 119.719 195.831 118.408 194.587 117.407C193.342 116.406 191.756 115.906 189.828 115.906C187.9 115.906 186.314 116.406 185.069 117.407C183.824 118.408 182.903 119.719 182.305 121.342C181.707 122.965 181.408 124.716 181.408 126.595C181.408 128.474 181.707 130.219 182.305 131.83C182.903 133.44 183.824 134.74 185.069 135.728C186.314 136.717 187.9 137.211 189.828 137.211ZM226.62 129.011V112.392H230.94V140.505H226.62V135.747H226.327C225.668 137.174 224.643 138.388 223.252 139.389C221.861 140.377 220.104 140.871 217.981 140.871C216.224 140.871 214.662 140.487 213.295 139.718C211.929 138.937 210.855 137.766 210.074 136.204C209.293 134.63 208.903 132.647 208.903 130.256V112.392H213.222V129.963C213.222 132.013 213.796 133.648 214.943 134.868C216.102 136.088 217.578 136.698 219.372 136.698C220.446 136.698 221.538 136.424 222.648 135.875C223.771 135.326 224.71 134.484 225.467 133.349C226.236 132.214 226.62 130.768 226.62 129.011ZM257.151 103.021V140.505H252.832V103.021H257.151ZM276.592 141.091C273.883 141.091 271.546 140.493 269.582 139.297C267.63 138.089 266.123 136.405 265.061 134.246C264.012 132.074 263.487 129.548 263.487 126.668C263.487 123.789 264.012 121.251 265.061 119.054C266.123 116.846 267.599 115.125 269.49 113.893C271.394 112.648 273.615 112.026 276.153 112.026C277.617 112.026 279.063 112.27 280.491 112.758C281.918 113.246 283.218 114.039 284.389 115.137C285.56 116.223 286.494 117.663 287.189 119.457C287.885 121.251 288.233 123.459 288.233 126.083V127.913H266.562V124.179H283.84C283.84 122.593 283.523 121.177 282.888 119.933C282.266 118.688 281.375 117.706 280.216 116.986C279.069 116.266 277.715 115.906 276.153 115.906C274.432 115.906 272.944 116.333 271.687 117.187C270.442 118.029 269.484 119.127 268.813 120.482C268.142 121.836 267.807 123.288 267.807 124.838V127.327C267.807 129.45 268.173 131.25 268.905 132.727C269.649 134.191 270.68 135.307 271.998 136.076C273.316 136.833 274.847 137.211 276.592 137.211C277.727 137.211 278.752 137.052 279.667 136.735C280.594 136.405 281.393 135.917 282.065 135.271C282.736 134.612 283.254 133.794 283.62 132.818L287.793 133.99C287.354 135.405 286.616 136.65 285.579 137.723C284.542 138.785 283.26 139.615 281.735 140.213C280.21 140.798 278.495 141.091 276.592 141.091ZM306.772 112.392V116.053H292.203V112.392H306.772ZM296.449 105.656H300.769V132.452C300.769 133.672 300.946 134.587 301.3 135.198C301.666 135.795 302.129 136.198 302.691 136.405C303.264 136.601 303.868 136.698 304.503 136.698C304.978 136.698 305.369 136.674 305.674 136.625C305.979 136.564 306.223 136.515 306.406 136.479L307.285 140.359C306.992 140.469 306.583 140.579 306.058 140.688C305.534 140.81 304.869 140.871 304.063 140.871C302.843 140.871 301.647 140.609 300.476 140.084C299.317 139.56 298.353 138.76 297.584 137.687C296.828 136.613 296.449 135.259 296.449 133.623V105.656ZM327.25 140.505V112.392H331.423V116.785H331.789C332.375 115.284 333.321 114.119 334.626 113.289C335.932 112.447 337.5 112.026 339.33 112.026C341.185 112.026 342.729 112.447 343.961 113.289C345.206 114.119 346.176 115.284 346.871 116.785H347.164C347.884 115.333 348.964 114.18 350.404 113.325C351.843 112.459 353.57 112.026 355.583 112.026C358.097 112.026 360.153 112.813 361.751 114.387C363.35 115.949 364.149 118.383 364.149 121.69V140.505H359.83V121.69C359.83 119.616 359.262 118.133 358.127 117.242C356.993 116.352 355.657 115.906 354.119 115.906C352.142 115.906 350.611 116.504 349.525 117.7C348.439 118.883 347.896 120.384 347.896 122.202V140.505H343.503V121.251C343.503 119.652 342.985 118.365 341.948 117.389C340.91 116.4 339.574 115.906 337.939 115.906C336.817 115.906 335.767 116.205 334.791 116.803C333.827 117.401 333.046 118.231 332.448 119.292C331.863 120.342 331.57 121.556 331.57 122.934V140.505H327.25ZM383.576 141.091C380.867 141.091 378.531 140.493 376.566 139.297C374.614 138.089 373.107 136.405 372.045 134.246C370.996 132.074 370.471 129.548 370.471 126.668C370.471 123.789 370.996 121.251 372.045 119.054C373.107 116.846 374.583 115.125 376.475 113.893C378.378 112.648 380.599 112.026 383.137 112.026C384.601 112.026 386.047 112.27 387.475 112.758C388.902 113.246 390.202 114.039 391.373 115.137C392.545 116.223 393.478 117.663 394.174 119.457C394.869 121.251 395.217 123.459 395.217 126.083V127.913H373.546V124.179H390.824C390.824 122.593 390.507 121.177 389.873 119.933C389.25 118.688 388.359 117.706 387.2 116.986C386.053 116.266 384.699 115.906 383.137 115.906C381.417 115.906 379.928 116.333 378.671 117.187C377.426 118.029 376.469 119.127 375.798 120.482C375.126 121.836 374.791 123.288 374.791 124.838V127.327C374.791 129.45 375.157 131.25 375.889 132.727C376.633 134.191 377.664 135.307 378.982 136.076C380.3 136.833 381.831 137.211 383.576 137.211C384.711 137.211 385.736 137.052 386.651 136.735C387.579 136.405 388.378 135.917 389.049 135.271C389.72 134.612 390.239 133.794 390.605 132.818L394.778 133.99C394.338 135.405 393.6 136.65 392.563 137.723C391.526 138.785 390.245 139.615 388.719 140.213C387.194 140.798 385.48 141.091 383.576 141.091ZM415.768 140.505V112.392H420.088V140.505H415.768ZM417.965 107.706C417.123 107.706 416.397 107.42 415.787 106.846C415.189 106.273 414.89 105.583 414.89 104.778C414.89 103.973 415.189 103.283 415.787 102.71C416.397 102.136 417.123 101.849 417.965 101.849C418.807 101.849 419.527 102.136 420.124 102.71C420.735 103.283 421.04 103.973 421.04 104.778C421.04 105.583 420.735 106.273 420.124 106.846C419.527 107.42 418.807 107.706 417.965 107.706ZM432.061 123.593V140.505H427.742V112.392H431.915V116.785H432.281C432.94 115.357 433.94 114.21 435.282 113.344C436.625 112.465 438.357 112.026 440.481 112.026C442.384 112.026 444.05 112.416 445.477 113.197C446.905 113.966 448.015 115.137 448.808 116.711C449.602 118.273 449.998 120.25 449.998 122.642V140.505H445.679V122.934C445.679 120.726 445.105 119.005 443.958 117.773C442.811 116.528 441.237 115.906 439.236 115.906C437.857 115.906 436.625 116.205 435.539 116.803C434.465 117.401 433.617 118.273 432.995 119.42C432.372 120.567 432.061 121.958 432.061 123.593ZM463.271 129.963V129.743C463.295 127.413 463.539 125.558 464.003 124.179C464.467 122.8 465.126 121.684 465.98 120.83C466.834 119.976 467.859 119.188 469.055 118.469C469.775 118.029 470.421 117.511 470.995 116.913C471.568 116.303 472.02 115.601 472.349 114.808C472.691 114.015 472.862 113.136 472.862 112.172C472.862 110.977 472.581 109.939 472.02 109.061C471.458 108.182 470.708 107.505 469.768 107.029C468.829 106.553 467.786 106.315 466.639 106.315C465.638 106.315 464.674 106.523 463.747 106.938C462.819 107.353 462.045 108.005 461.422 108.896C460.8 109.787 460.44 110.952 460.342 112.392H455.73C455.828 110.318 456.365 108.542 457.341 107.066C458.329 105.589 459.629 104.461 461.239 103.68C462.862 102.899 464.662 102.508 466.639 102.508C468.786 102.508 470.653 102.935 472.239 103.79C473.838 104.644 475.07 105.815 475.937 107.304C476.815 108.792 477.254 110.488 477.254 112.392C477.254 113.734 477.047 114.948 476.632 116.034C476.229 117.12 475.644 118.09 474.875 118.944C474.118 119.799 473.203 120.555 472.13 121.214C471.056 121.885 470.195 122.593 469.549 123.337C468.902 124.069 468.432 124.942 468.139 125.954C467.847 126.967 467.688 128.23 467.664 129.743V129.963H463.271ZM465.614 140.798C464.711 140.798 463.936 140.475 463.289 139.828C462.642 139.181 462.319 138.407 462.319 137.504C462.319 136.601 462.642 135.826 463.289 135.179C463.936 134.532 464.711 134.209 465.614 134.209C466.517 134.209 467.291 134.532 467.938 135.179C468.585 135.826 468.908 136.601 468.908 137.504C468.908 138.102 468.756 138.651 468.451 139.151C468.158 139.651 467.761 140.054 467.261 140.359C466.773 140.652 466.224 140.798 465.614 140.798Z" fill="white"/>
<rect x="45.5801" y="1" width="651.834" height="183.011" stroke="#48AD9C" stroke-width="1.80585"/>
<path d="M741.453 45.04C741.453 20.7174 721.736 1 697.413 1V1V64.7422H741.453V45.04Z" fill="#48AD9C" stroke="#48AD9C" stroke-width="1.80585"/>
<rect width="44.0401" height="55.5263" transform="matrix(-1 0 0 1 741.453 64.7422)" fill="#48AD9C" stroke="#48AD9C" stroke-width="1.80585"/>
<path fill-rule="evenodd" clip-rule="evenodd" d="M740.654 148.367C741.178 145.649 741.453 142.842 741.453 139.971V120.268H697.413V184.011C708.078 184.011 717.857 180.22 725.477 173.912C733.079 178.977 745.269 183.791 759.996 181.113C755.94 179.375 740.294 168.944 740.873 148.083C740.803 148.18 740.73 148.274 740.654 148.367Z" fill="#48AD9C"/>
<path d="M740.654 148.367L741.35 148.942L739.767 148.195L740.654 148.367ZM741.453 120.268V119.366H742.356V120.268H741.453ZM697.413 120.268H696.51V119.366H697.413V120.268ZM697.413 184.011V184.914H696.51V184.011H697.413ZM725.477 173.912L724.901 173.217L725.418 172.789L725.977 173.161L725.477 173.912ZM759.996 181.113L760.352 180.283L763.109 181.465L760.158 182.002L759.996 181.113ZM740.873 148.083L740.143 147.552L741.857 145.196L741.776 148.108L740.873 148.083ZM742.356 139.971C742.356 142.899 742.076 145.764 741.54 148.538L739.767 148.195C740.281 145.534 740.55 142.784 740.55 139.971H742.356ZM742.356 120.268V139.971H740.55V120.268H742.356ZM697.413 119.366H741.453V121.171H697.413V119.366ZM696.51 184.011V120.268H698.316V184.011H696.51ZM726.053 174.608C718.277 181.045 708.295 184.914 697.413 184.914V183.108C707.86 183.108 717.437 179.395 724.901 173.217L726.053 174.608ZM760.158 182.002C745.143 184.732 732.718 179.822 724.976 174.664L725.977 173.161C733.44 178.132 745.395 182.85 759.835 180.225L760.158 182.002ZM741.776 148.108C741.493 158.29 745.165 165.909 749.401 171.205C753.656 176.523 758.462 179.473 760.352 180.283L759.64 181.943C757.474 181.015 752.429 177.88 747.991 172.333C743.536 166.764 739.674 158.738 739.971 148.058L741.776 148.108ZM739.958 147.791C740.022 147.713 740.084 147.633 740.143 147.552L741.604 148.614C741.522 148.726 741.438 148.835 741.35 148.942L739.958 147.791Z" fill="#48AD9C"/>
</svg>
