<svg width="764" height="1033" viewBox="0 0 764 1033" fill="none" xmlns="http://www.w3.org/2000/svg">
<rect y="0.985352" width="764" height="1031.03" fill="#111827"/>
<rect y="514.349" width="764" height="127.502" fill="#25524F"/>
<rect y="385.169" width="764" height="129.18" fill="#2D6963"/>
<rect y="257.667" width="764" height="127.502" fill="#328378"/>
<rect y="130.165" width="764" height="127.502" fill="#48AD9C"/>
<rect y="0.985352" width="764" height="129.18" fill="#5ACBB7"/>
<path d="M68.808 827.777V735.726H92.262V827.777H68.808ZM141.691 827.777L119.75 735.726H143.961L160.48 812.015L156.571 809.115H166.784L162.371 812.015L174.855 739.005H193.895L176.62 827.777H141.691ZM196.417 827.777L177.881 739.005H197.93L212.558 812.015L208.144 809.115H217.728L214.449 812.015L228.698 735.726H251.396L232.103 827.777H196.417ZM244.838 827.777L274.344 735.726H311.921L342.437 827.777H318.226L294.52 752.119L301.203 754.641H284.558L291.367 752.119L268.292 827.777H244.838ZM268.922 806.467L275.984 787.3H310.912L317.974 806.467H268.922ZM347.738 827.777V735.726H386.197L416.839 809.115H421.252L418.73 811.385V735.726H440.671V827.777H401.959L371.318 754.389H366.904L369.426 752.119V827.777H347.738ZM472.67 827.777V753.632H496.124V827.777H472.67ZM447.451 756.154V735.726H521.344V756.154H447.451ZM567.253 827.777V753.632H590.707V827.777H567.253ZM542.034 756.154V735.726H615.926V756.154H542.034ZM665.29 830.299C656.883 830.299 649.569 828.87 643.349 826.012C637.128 823.07 631.958 819.245 627.839 814.537C623.72 809.745 620.651 804.575 618.634 799.027C616.616 793.479 615.607 788.099 615.607 782.887V780.113C615.607 774.312 616.658 768.638 618.76 763.09C620.861 757.457 624.014 752.371 628.217 747.832C632.42 743.292 637.59 739.678 643.727 736.987C649.948 734.297 657.135 732.952 665.29 732.952C673.36 732.952 680.463 734.297 686.6 736.987C692.821 739.678 698.033 743.292 702.236 747.832C706.439 752.371 709.592 757.457 711.693 763.09C713.879 768.638 714.972 774.312 714.972 780.113V782.887C714.972 788.099 713.921 793.479 711.819 799.027C709.802 804.575 706.733 809.745 702.614 814.537C698.495 819.245 693.325 823.07 687.104 826.012C680.884 828.87 673.612 830.299 665.29 830.299ZM665.29 808.358C669.325 808.358 672.939 807.686 676.134 806.341C679.328 804.996 682.06 803.104 684.33 800.666C686.6 798.229 688.323 795.412 689.5 792.218C690.677 788.939 691.266 785.409 691.266 781.626C691.266 777.591 690.635 773.934 689.374 770.655C688.197 767.377 686.474 764.561 684.204 762.207C681.934 759.853 679.202 758.046 676.008 756.785C672.813 755.524 669.241 754.893 665.29 754.893C661.254 754.893 657.64 755.524 654.445 756.785C651.251 758.046 648.519 759.853 646.249 762.207C643.979 764.561 642.256 767.377 641.079 770.655C639.902 773.934 639.314 777.591 639.314 781.626C639.314 785.409 639.902 788.939 641.079 792.218C642.256 795.412 643.979 798.229 646.249 800.666C648.519 803.104 651.251 804.996 654.445 806.341C657.64 807.686 661.254 808.358 665.29 808.358ZM171.798 951.534V933.628H192.099C195.546 933.628 198.11 932.745 199.791 930.98C201.473 929.215 202.313 926.651 202.313 923.288C202.313 919.926 201.473 917.404 199.791 915.722C198.11 913.957 195.546 913.074 192.099 913.074H171.798V899.204H191.343C197.816 899.204 203.616 900.002 208.744 901.599C213.872 903.113 217.907 905.635 220.85 909.165C223.792 912.696 225.263 917.404 225.263 923.288V925.054C225.263 930.602 223.96 935.351 221.354 939.303C218.748 943.254 214.923 946.28 209.879 948.381C204.835 950.483 198.656 951.534 191.343 951.534H171.798ZM151.622 951.534V857.97H174.32V951.534H151.622ZM171.798 909.544V895.673H188.695C192.141 895.673 194.621 894.832 196.135 893.151C197.732 891.386 198.53 888.948 198.53 885.837C198.53 882.643 197.732 880.205 196.135 878.524C194.621 876.758 192.141 875.876 188.695 875.876H171.798V857.97H187.686C198.446 857.97 206.769 860.24 212.653 864.779C218.538 869.235 221.48 875.623 221.48 883.946V885.837C221.48 891.638 219.967 896.303 216.941 899.834C213.998 903.281 209.963 905.761 204.835 907.274C199.791 908.787 194.075 909.544 187.686 909.544H171.798ZM234.378 950.777V858.726H257.076V950.777H234.378ZM254.554 950.777V931.611H293.392V950.777H254.554ZM254.554 913.579V894.412H290.744V913.579H254.554ZM254.554 877.893V858.726H292.635V877.893H254.554ZM303.958 950.777V858.726H327.412V950.777H303.958ZM324.89 950.777V930.35H362.215V950.777H324.89ZM369.973 950.777V858.726H393.427V950.777H369.973ZM407.284 950.777V858.726H429.982V950.777H407.284ZM427.46 950.777V931.611H466.298V950.777H427.46ZM427.46 913.579V894.412H463.649V913.579H427.46ZM427.46 877.893V858.726H465.541V877.893H427.46ZM496.787 950.777L470.055 858.726H494.265L514.315 934.259L509.902 932.115H522.007L517.467 934.259L536.13 858.726H559.584L534.617 950.777H496.787ZM566.393 950.777V858.726H589.09V950.777H566.393ZM586.569 950.777V931.611H625.406V950.777H586.569ZM586.569 913.579V894.412H622.758V913.579H586.569ZM586.569 877.893V858.726H624.65V877.893H586.569Z" fill="#CFF9EF"/>
<rect x="8.65372" y="9.63907" width="746.693" height="1013.72" stroke="#CFF9EF" stroke-width="17.3074"/>
<path d="M558.899 348.678C525.899 340.712 490.624 345.833 461.038 364.608C452.503 369.729 444.538 375.988 437.71 383.384C429.745 391.349 422.917 400.453 417.228 409.556C410.969 389.643 401.297 370.298 388.211 353.229C383.659 346.971 378.539 341.281 372.849 335.592C326.194 288.937 261.902 273.006 202.73 287.23C202.73 287.23 201.024 291.782 201.024 292.92V293.489C197.041 308.282 195.334 324.212 195.334 340.712C195.334 445.97 280.678 531.313 385.935 531.313C445.676 531.313 498.589 504.003 533.864 460.762C559.468 428.332 568.002 386.798 558.899 348.678Z" fill="#111827"/>
<path fill-rule="evenodd" clip-rule="evenodd" d="M211.647 609.225V536.5H179.021V641.85H584.98V536.5H552.354V609.225H211.647Z" fill="#111827"/>
</svg>
