<svg width="1105" height="1105" viewBox="0 0 1105 1105" fill="none" xmlns="http://www.w3.org/2000/svg">
<circle cx="552.5" cy="552.5" r="552.5" fill="#111827"/>
<circle cx="552.499" cy="552.5" r="513.298" fill="#48AD9C"/>
<mask id="mask0_615_390" style="mask-type:alpha" maskUnits="userSpaceOnUse" x="47" y="47" width="1011" height="1011">
<circle cx="552.499" cy="552.5" r="505.046" fill="#5ACBB7"/>
</mask>
<g mask="url(#mask0_615_390)">
<rect x="36.125" y="742.246" width="1021.42" height="143.49" fill="#25524F"/>
<rect x="36.125" y="598.756" width="1021.42" height="143.49" fill="#25524F"/>
<rect x="36.125" y="453.379" width="1021.42" height="145.378" fill="#2D6963"/>
<rect x="36.125" y="309.889" width="1021.42" height="143.49" fill="#328378"/>
<rect x="36.125" y="166.4" width="1021.42" height="143.49" fill="#48AD9C"/>
<rect x="36.125" y="21.0214" width="1021.42" height="145.378" fill="#5ACBB7"/>
<path d="M570.435 661.222C296.776 661.222 48.8169 687.575 -16.9492 761.604L36.1244 1131.18H1057.54L1193.13 736.666C1143.09 722.749 808.326 661.222 570.435 661.222Z" fill="#111827"/>
</g>
<path d="M238.729 800.381C231.614 800.381 225.505 799.123 220.402 796.608C215.299 794.092 211.131 790.822 207.897 786.797C204.734 782.773 202.399 778.389 200.889 773.645C199.38 768.902 198.625 764.338 198.625 759.954V757.582C198.625 752.695 199.38 747.88 200.889 743.136C202.47 738.393 204.878 734.081 208.112 730.2C211.346 726.319 215.443 723.228 220.402 720.929C225.433 718.557 231.362 717.371 238.19 717.371C245.305 717.371 251.486 718.665 256.732 721.252C262.051 723.767 266.291 727.361 269.453 732.033C272.616 736.632 274.52 742.022 275.167 748.203H259.751C259.176 744.61 257.882 741.591 255.87 739.148C253.929 736.632 251.45 734.764 248.431 733.542C245.413 732.248 241.999 731.601 238.19 731.601C234.309 731.601 230.859 732.284 227.841 733.65C224.822 734.943 222.307 736.812 220.294 739.255C218.282 741.699 216.737 744.574 215.659 747.88C214.652 751.186 214.149 754.851 214.149 758.876C214.149 762.757 214.652 766.35 215.659 769.656C216.737 772.962 218.318 775.873 220.402 778.389C222.486 780.832 225.038 782.737 228.056 784.102C231.147 785.468 234.704 786.151 238.729 786.151C244.622 786.151 249.581 784.713 253.606 781.838C257.702 778.892 260.182 774.795 261.044 769.549H276.461C275.742 775.154 273.837 780.293 270.747 784.965C267.656 789.636 263.416 793.373 258.026 796.176C252.636 798.979 246.203 800.381 238.729 800.381ZM317.516 800.381C310.185 800.381 304.004 798.979 298.973 796.176C293.942 793.373 290.097 789.457 287.438 784.426C284.851 779.323 283.557 773.358 283.557 766.53V719.635H298.865V767.393C298.865 771.13 299.584 774.436 301.022 777.311C302.459 780.113 304.543 782.306 307.274 783.887C310.077 785.396 313.491 786.151 317.516 786.151C321.469 786.151 324.81 785.396 327.542 783.887C330.344 782.306 332.429 780.113 333.794 777.311C335.232 774.508 335.95 771.202 335.95 767.393V719.635H351.259V766.53C351.259 773.358 349.965 779.323 347.378 784.426C344.862 789.457 341.089 793.373 336.058 796.176C331.027 798.979 324.846 800.381 317.516 800.381ZM364.871 798.333V719.635H380.18V798.333H364.871ZM378.024 798.333V784.857H411.982V798.333H378.024ZM427.354 798.333V730.954H442.662V798.333H427.354ZM404.607 733.111V719.635H465.409V733.111H404.607ZM473.532 798.333V719.635H488.84V798.333H473.532ZM521.847 798.333L496.729 719.635H512.576L533.382 787.768L528.855 785.612H540.497L535.862 787.768L555.051 719.635H570.359L547.074 798.333H521.847ZM565.577 798.333L592.421 719.635H617.431L645.029 798.333H629.29L605.896 730.092L611.394 732.464H597.919L603.525 730.092L580.886 798.333H565.577ZM584.335 777.418L589.187 764.482H621.097L625.84 777.418H584.335ZM661.299 798.333V730.954H676.607V798.333H661.299ZM638.552 733.111V719.635H699.354V733.111H638.552ZM707.477 798.333V719.635H722.785V798.333H707.477ZM775.089 800.381C767.974 800.381 761.793 799.123 756.547 796.608C751.372 794.092 747.06 790.822 743.61 786.797C740.232 782.701 737.681 778.317 735.956 773.645C734.303 768.902 733.477 764.338 733.477 759.954V757.582C733.477 752.767 734.339 747.988 736.064 743.244C737.789 738.429 740.376 734.081 743.826 730.2C747.347 726.319 751.696 723.228 756.87 720.929C762.045 718.557 768.118 717.371 775.089 717.371C781.989 717.371 788.026 718.557 793.2 720.929C798.375 723.228 802.687 726.319 806.137 730.2C809.659 734.081 812.282 738.429 814.007 743.244C815.732 747.988 816.594 752.767 816.594 757.582V759.954C816.594 764.338 815.732 768.902 814.007 773.645C812.354 778.317 809.802 782.701 806.353 786.797C802.975 790.822 798.663 794.092 793.416 796.608C788.241 799.123 782.132 800.381 775.089 800.381ZM775.089 786.151C779.114 786.151 782.707 785.432 785.87 783.994C789.104 782.557 791.835 780.581 794.063 778.065C796.363 775.478 798.088 772.567 799.238 769.333C800.459 766.027 801.07 762.541 801.07 758.876C801.07 754.923 800.459 751.294 799.238 747.988C798.088 744.682 796.363 741.807 794.063 739.363C791.835 736.92 789.104 735.015 785.87 733.65C782.636 732.284 779.042 731.601 775.089 731.601C771.065 731.601 767.435 732.284 764.201 733.65C760.967 735.015 758.2 736.92 755.9 739.363C753.672 741.807 751.947 744.682 750.725 747.988C749.575 751.294 749 754.923 749 758.876C749 762.541 749.575 766.027 750.725 769.333C751.947 772.567 753.672 775.478 755.9 778.065C758.2 780.581 760.967 782.557 764.201 783.994C767.435 785.432 771.065 786.151 775.089 786.151ZM827.076 798.333V719.635H852.195L885.291 785.612H888.849L886.693 787.552V719.635H901.138V798.333H875.912L842.816 732.356H839.151L841.307 730.415V798.333H827.076Z" fill="#A3F2E0"/>
<path d="M476.184 869.086C472.577 869.086 469.539 868.518 467.07 867.381C464.6 866.205 462.718 864.597 461.425 862.559C460.17 860.481 459.543 858.149 459.543 855.561H464.012C464.012 857.208 464.404 858.756 465.188 860.207C466.011 861.618 467.305 862.775 469.069 863.676C470.872 864.539 473.244 864.97 476.184 864.97C478.889 864.97 481.123 864.578 482.888 863.794C484.691 863.01 486.024 861.951 486.886 860.618C487.788 859.286 488.239 857.796 488.239 856.149C488.239 854.072 487.415 852.347 485.769 850.975C484.162 849.564 481.731 848.721 478.477 848.446L473.538 847.976C469.853 847.662 466.913 846.525 464.718 844.565C462.561 842.566 461.483 839.94 461.483 836.686C461.483 834.216 462.071 832.04 463.247 830.159C464.423 828.277 466.09 826.787 468.246 825.69C470.441 824.592 473.067 824.043 476.125 824.043C479.222 824.043 481.868 824.612 484.064 825.749C486.298 826.846 488.003 828.375 489.179 830.335C490.355 832.295 490.943 834.569 490.943 837.156H486.474C486.474 835.588 486.122 834.118 485.416 832.746C484.71 831.374 483.593 830.276 482.064 829.453C480.535 828.591 478.556 828.159 476.125 828.159C473.812 828.159 471.891 828.551 470.363 829.335C468.873 830.12 467.756 831.158 467.011 832.452C466.305 833.746 465.952 835.157 465.952 836.686C465.952 838.607 466.638 840.234 468.01 841.566C469.383 842.899 471.362 843.664 473.95 843.86L478.889 844.33C481.79 844.565 484.26 845.212 486.298 846.271C488.376 847.29 489.963 848.642 491.061 850.328C492.159 851.974 492.708 853.915 492.708 856.149C492.708 858.658 492.022 860.893 490.649 862.853C489.317 864.813 487.415 866.342 484.946 867.44C482.476 868.537 479.555 869.086 476.184 869.086ZM504.366 852.386V848.446H514.363C516.675 848.446 518.557 848.015 520.008 847.153C521.458 846.251 522.536 845.075 523.242 843.625C523.947 842.135 524.3 840.488 524.3 838.685C524.3 836.843 523.947 835.196 523.242 833.746C522.536 832.256 521.458 831.08 520.008 830.218C518.557 829.355 516.675 828.924 514.363 828.924H504.366V824.984H513.598C517.048 824.984 519.89 825.552 522.125 826.689C524.398 827.826 526.084 829.394 527.182 831.394C528.318 833.393 528.887 835.686 528.887 838.273V839.097C528.887 841.645 528.318 843.938 527.182 845.977C526.084 847.976 524.398 849.544 522.125 850.681C519.89 851.818 517.048 852.386 513.598 852.386H504.366ZM501.073 868.086V824.984H505.542V868.086H501.073ZM527.953 868.086L543.771 825.16H551.768L568.116 868.086H563.529L548.299 827.983L550.71 829.218H544.536L547.064 827.983L532.422 868.086H527.953ZM536.421 854.444L537.891 850.387H557.825L559.354 854.444H536.421ZM591.433 869.086C587.591 869.086 584.298 868.42 581.554 867.087C578.849 865.715 576.634 863.931 574.91 861.736C573.224 859.54 571.989 857.169 571.205 854.621C570.421 852.033 570.029 849.524 570.029 847.094V845.977C570.029 843.35 570.421 840.743 571.205 838.156C572.028 835.529 573.283 833.158 574.968 831.041C576.693 828.924 578.889 827.238 581.554 825.984C584.22 824.69 587.376 824.043 591.021 824.043C594.706 824.043 597.882 824.69 600.548 825.984C603.252 827.277 605.409 829.1 607.016 831.452C608.623 833.765 609.603 836.509 609.956 839.685H605.428C605.115 837.137 604.291 835.02 602.958 833.334C601.626 831.609 599.92 830.316 597.843 829.453C595.804 828.591 593.53 828.159 591.021 828.159C588.317 828.159 585.925 828.649 583.848 829.629C581.809 830.57 580.104 831.903 578.732 833.628C577.36 835.314 576.321 837.274 575.615 839.508C574.91 841.704 574.557 844.056 574.557 846.565C574.557 848.956 574.89 851.249 575.556 853.445C576.262 855.64 577.32 857.62 578.732 859.384C580.143 861.109 581.907 862.481 584.024 863.5C586.141 864.48 588.611 864.97 591.433 864.97C595.353 864.97 598.646 863.99 601.312 862.03C603.978 860.03 605.624 857.169 606.251 853.445H610.779C610.348 856.385 609.329 859.05 607.721 861.442C606.114 863.794 603.938 865.656 601.194 867.028C598.489 868.4 595.236 869.086 591.433 869.086ZM617.479 868.086V825.16H621.948V868.086H617.479ZM620.89 868.086V864.029H642.353V868.086H620.89ZM620.89 848.27V844.271H640.354V848.27H620.89ZM620.89 829.218V825.16H641.706V829.218H620.89Z" fill="#5ACBB7"/>
<path d="M440.753 948.205C442.502 949.732 443.377 951.301 443.377 952.912C443.377 953.967 443.016 955.022 442.294 956.077C439.739 959.743 436.74 962.006 433.297 962.867C432.408 963.089 431.409 963.2 430.298 963.2C427.688 963.2 425.189 962.547 422.801 961.242C421.662 960.631 420.871 959.84 420.427 958.868C419.982 957.896 419.76 956.744 419.76 955.411C419.76 954.467 419.871 953.106 420.093 951.329C420.177 950.857 420.565 950.621 421.26 950.621C422.037 950.621 422.828 950.871 423.634 951.371C424.439 951.871 424.8 952.426 424.717 953.037C424.689 953.259 424.62 953.759 424.508 954.536C424.397 955.286 424.342 955.98 424.342 956.619C424.342 958.063 424.689 959.035 425.383 959.534C426.077 960.034 426.98 960.284 428.091 960.284C429.201 960.284 430.354 960.048 431.548 959.576C432.464 959.215 433.477 958.618 434.588 957.785C435.727 956.952 436.685 956.008 437.462 954.953C438.267 953.898 438.67 952.87 438.67 951.871C438.67 951.065 438.392 950.329 437.837 949.663C437.282 949.024 436.49 948.413 435.463 947.83C434.463 947.247 433.13 946.567 431.464 945.789C429.409 944.817 427.757 943.971 426.508 943.249C425.286 942.499 424.231 941.624 423.342 940.625C422.454 939.597 422.009 938.445 422.009 937.167C422.009 936.584 422.079 936.071 422.218 935.626C422.884 933.127 424.522 931.336 427.133 930.253C429.77 929.142 432.617 928.587 435.671 928.587C437.004 928.587 438.17 928.67 439.17 928.837C440.17 929.004 441.003 929.365 441.669 929.92C442.419 930.531 442.794 931.392 442.794 932.502C442.794 933.169 442.683 933.835 442.46 934.502C442.266 935.14 441.961 936.015 441.544 937.126C441.239 937.875 441.058 938.334 441.003 938.5C440.836 938.972 440.378 939.208 439.628 939.208C438.878 939.208 438.143 939 437.421 938.584C436.699 938.167 436.338 937.695 436.338 937.167C436.338 937.029 436.351 936.917 436.379 936.834L437.004 935.043C437.282 934.266 437.476 933.683 437.587 933.294L437.879 931.544C434.38 931.489 431.589 932.197 429.507 933.669C428.674 934.224 428.021 934.877 427.549 935.626C427.105 936.348 426.883 937.084 426.883 937.834C426.883 939.139 427.535 940.264 428.84 941.208C429.784 941.874 430.826 942.499 431.964 943.082C433.13 943.665 433.838 944.026 434.088 944.165C435.699 944.97 436.99 945.65 437.962 946.206C438.962 946.761 439.892 947.428 440.753 948.205ZM450.651 930.045C450.345 929.962 450.04 929.92 449.734 929.92C449.123 929.92 448.582 930.073 448.11 930.378C447.499 930.711 447.152 931.045 447.068 931.378C446.707 932.683 446.471 933.544 446.36 933.96V934.085C446.36 934.224 446.416 934.363 446.527 934.502C446.638 934.613 446.763 934.696 446.902 934.752C447.124 934.863 447.374 934.918 447.652 934.918C448.096 934.918 448.623 934.793 449.234 934.543C449.873 934.266 450.29 933.891 450.484 933.419C450.651 932.947 450.887 932.114 451.192 930.92V930.836C451.192 930.697 451.136 930.559 451.025 930.42C450.914 930.253 450.789 930.128 450.651 930.045ZM449.026 946.747C448.86 947.858 448.54 949.871 448.068 952.787C447.624 955.675 447.249 958.299 446.944 960.659C446.86 961.187 446.485 961.645 445.819 962.034C445.18 962.395 444.528 962.575 443.861 962.575C443.417 962.575 443.07 962.492 442.82 962.325C442.598 962.131 442.515 961.853 442.57 961.492C443.042 958.715 443.542 955.55 444.07 951.995C444.625 948.413 445.014 945.859 445.236 944.332L446.11 938.625C446.194 938.125 446.569 937.695 447.235 937.334C447.929 936.973 448.596 936.793 449.234 936.793C449.623 936.793 449.929 936.876 450.151 937.042C450.373 937.209 450.456 937.445 450.401 937.751L449.026 946.747ZM466.208 937.042C467.319 937.653 467.875 938.945 467.875 940.916C467.875 941.638 467.805 942.443 467.666 943.332C467.527 944.193 467.375 945.012 467.208 945.789L466.917 947.455L465.167 960.409C465.723 960.548 465.959 960.895 465.875 961.45C465.57 962.978 464.487 963.95 462.626 964.366L462.21 964.408C461.738 964.408 461.321 964.311 460.96 964.116C460.599 963.922 460.447 963.616 460.502 963.2C461.668 954.758 462.529 948.427 463.085 944.207C463.112 944.095 463.168 943.776 463.251 943.249C463.362 942.721 463.418 942.221 463.418 941.749C463.418 940.861 463.182 940.402 462.71 940.375C462.349 940.319 461.752 940.819 460.919 941.874C460.113 942.901 459.669 943.471 459.586 943.582C457.92 945.47 456.365 947.58 454.921 949.913C454.254 953.967 453.727 957.244 453.338 959.743L453.13 961.076C453.046 961.603 452.658 962.061 451.964 962.45C451.269 962.839 450.589 963.033 449.923 963.033C449.506 963.033 449.173 962.95 448.923 962.783C448.701 962.589 448.618 962.311 448.673 961.95C449.395 957.702 449.964 954.231 450.381 951.537C450.214 951.371 450.131 951.176 450.131 950.954C450.131 950.815 450.173 950.663 450.256 950.496C450.339 950.357 450.409 950.232 450.464 950.121C450.547 950.01 450.617 949.913 450.672 949.83L452.338 939.75C452.422 939.25 452.797 938.82 453.463 938.459C454.129 938.098 454.796 937.917 455.462 937.917C455.879 937.917 456.198 938 456.42 938.167C456.642 938.334 456.726 938.584 456.67 938.917C456.531 939.833 456.337 941.013 456.087 942.457L457.836 940.583C459.003 939.417 460.113 938.459 461.169 937.709C462.224 936.959 463.293 936.584 464.376 936.584C465.07 936.584 465.681 936.737 466.208 937.042ZM482.772 935.293C482.91 934.904 483.271 934.571 483.855 934.293C484.438 933.988 485.021 933.835 485.604 933.835C486.437 933.835 486.854 934.127 486.854 934.71C486.854 934.793 486.826 934.946 486.77 935.168C485.576 939.222 484.521 942.318 483.605 944.456C483.438 944.873 483.049 945.234 482.438 945.539C481.855 945.817 481.272 945.956 480.689 945.956C479.995 945.956 479.592 945.72 479.481 945.248C478.981 943.026 478.204 941.916 477.149 941.916C476.649 941.916 476.093 942.18 475.483 942.707C474.15 943.929 473.095 945.581 472.317 947.664C471.567 949.746 471.192 951.732 471.192 953.62C471.192 955.008 471.428 956.258 471.9 957.369C472.373 958.452 473.164 959.132 474.275 959.41C474.441 959.465 474.705 959.493 475.066 959.493C475.982 959.493 476.885 959.16 477.773 958.493C478.69 957.799 479.439 957.091 480.023 956.369C480.606 955.619 481.355 954.606 482.272 953.328C482.494 953.023 482.841 952.787 483.313 952.62C483.785 952.426 484.257 952.329 484.729 952.329C485.174 952.329 485.521 952.412 485.771 952.579C486.048 952.717 486.187 952.94 486.187 953.245C486.187 953.523 486.09 953.814 485.896 954.12C484.424 956.424 482.633 958.424 480.522 960.118C478.412 961.784 476.191 962.617 473.858 962.617C473.386 962.617 472.914 962.575 472.442 962.492C470.582 962.186 469.193 961.284 468.277 959.784C467.36 958.257 466.902 956.494 466.902 954.495C466.902 953.773 466.972 952.995 467.111 952.162C467.555 949.496 468.443 947.011 469.776 944.706C471.109 942.374 472.858 940.666 475.024 939.583C476.107 939.056 477.19 938.792 478.273 938.792C479.301 938.792 480.245 939.069 481.106 939.625L482.772 935.293ZM496.541 940.041C495.125 941.124 493.973 942.874 493.084 945.29C495.805 944.262 498.263 943.401 500.456 942.707C499.54 941.43 498.61 940.569 497.666 940.125C497.471 940.041 497.277 939.986 497.083 939.958C496.916 939.93 496.819 939.916 496.791 939.916C496.819 939.944 496.791 939.972 496.708 940C496.652 940.027 496.597 940.041 496.541 940.041ZM496.708 937.084C497.152 936.973 497.624 936.917 498.124 936.917C500.79 936.917 503.205 938.709 505.371 942.291C505.455 942.402 505.496 942.54 505.496 942.707C505.496 943.013 505.302 943.332 504.913 943.665C504.608 943.998 504.219 944.262 503.747 944.456C500.97 945.678 497.11 947.136 492.168 948.83C491.89 950.246 491.751 951.704 491.751 953.203C491.751 953.898 491.765 954.397 491.793 954.703C491.848 955.952 492.098 957.035 492.543 957.952C492.681 958.257 492.876 958.549 493.126 958.826C493.403 959.104 493.612 959.285 493.75 959.368C493.834 959.423 493.973 959.451 494.167 959.451C494.361 959.451 494.584 959.396 494.833 959.285C495.111 959.173 495.417 959.021 495.75 958.826C496.555 958.354 497.305 957.813 497.999 957.202C498.693 956.591 499.526 955.8 500.498 954.828C500.887 954.439 501.539 954.245 502.456 954.245C502.956 954.245 503.372 954.328 503.705 954.495C504.066 954.633 504.247 954.842 504.247 955.119C504.247 955.369 504.108 955.647 503.83 955.952C502.109 957.813 500.345 959.396 498.54 960.701C496.736 962.006 494.931 962.658 493.126 962.658C492.265 962.658 491.46 962.478 490.71 962.117C489.46 961.534 488.558 960.604 488.003 959.326C487.447 958.049 487.169 956.549 487.169 954.828C487.169 953.55 487.336 952.051 487.669 950.329L487.336 950.413L487.003 950.538C486.586 950.676 486.253 950.746 486.003 950.746C485.614 950.746 485.309 950.649 485.087 950.454C484.865 950.26 484.754 950.01 484.754 949.705C484.754 949.344 484.893 948.997 485.17 948.663C485.476 948.302 485.92 948.011 486.503 947.789L488.544 946.997C488.794 946.22 489.169 945.206 489.669 943.957C490.446 942.235 491.418 940.749 492.584 939.5C493.75 938.25 495.125 937.445 496.708 937.084ZM522.64 957.327C521.002 959.049 520.016 960.09 519.683 960.451C521.543 960.312 523.807 960.243 526.472 960.243C529.388 960.243 532.109 960.34 534.636 960.534C534.886 960.256 535.233 960.034 535.677 959.868C536.149 959.673 536.608 959.576 537.052 959.576C537.746 959.576 538.232 959.798 538.51 960.243L539.426 961.575C539.537 961.798 539.593 961.95 539.593 962.034C539.593 962.367 539.412 962.686 539.051 962.992C538.718 963.269 538.315 963.491 537.843 963.658C537.399 963.825 537.052 963.894 536.802 963.866C532.692 963.505 528.791 963.325 525.098 963.325C521.738 963.325 518.697 963.478 515.976 963.783C515.476 963.838 514.99 963.769 514.518 963.575C514.046 963.38 513.81 963.089 513.81 962.7C513.81 962.45 513.907 962.186 514.102 961.909C515.101 960.52 516.587 958.868 518.558 956.952C518.836 956.647 519.155 956.313 519.516 955.952C519.877 955.591 520.266 955.189 520.683 954.744C524.82 950.329 528.041 946.608 530.346 943.582L530.929 942.79C532.012 941.402 532.928 940.097 533.678 938.875C534.428 937.626 534.803 936.487 534.803 935.46C534.803 935.015 534.719 934.613 534.553 934.252C534.331 933.807 533.956 933.488 533.428 933.294C532.928 933.072 532.359 932.961 531.72 932.961C530.915 932.961 530.221 933.072 529.638 933.294C528.444 933.738 527.389 934.502 526.472 935.585C525.584 936.668 524.598 938.098 523.515 939.875C523.293 940.18 523.085 940.5 522.89 940.833C522.696 941.166 522.488 941.485 522.265 941.791C522.071 942.041 521.668 942.263 521.058 942.457C520.474 942.652 519.905 942.749 519.35 942.749C518.489 942.749 518.059 942.54 518.059 942.124C518.059 941.985 518.114 941.819 518.225 941.624C519.669 939.292 521.016 937.32 522.265 935.71C523.543 934.099 525.042 932.752 526.764 931.669C528.513 930.559 530.471 930.003 532.637 930.003C533.192 930.003 533.761 930.045 534.344 930.128C537.288 930.545 538.76 931.905 538.76 934.21C538.76 935.737 538.232 937.431 537.177 939.292C536.149 941.124 534.928 942.985 533.511 944.873C531.123 948.011 528.097 951.551 524.431 955.494L522.64 957.327ZM555.77 931.003C556.325 930.836 556.756 930.753 557.061 930.753C557.533 930.753 557.894 930.878 558.144 931.128C561.087 934.044 562.559 937.792 562.559 942.374C562.559 944.595 562.212 946.872 561.518 949.205C560.824 951.51 559.893 953.703 558.727 955.786C558.116 956.869 557.38 957.966 556.52 959.076C556.52 959.104 556.533 959.146 556.561 959.201C556.589 959.229 556.603 959.257 556.603 959.285C556.631 959.368 556.645 959.479 556.645 959.618C556.645 960.118 556.367 960.576 555.811 960.992C555.284 961.381 554.687 961.617 554.02 961.7C551.771 963.7 549.55 964.699 547.356 964.699C546.301 964.699 545.232 964.449 544.149 963.95C542.511 963.172 541.344 961.95 540.65 960.284C539.984 958.59 539.651 956.674 539.651 954.536C539.651 953.731 539.692 952.953 539.775 952.204C539.97 950.288 540.4 948.219 541.067 945.998C541.733 943.776 542.594 941.68 543.649 939.708C542.788 937.792 542.039 936.209 541.4 934.96C541.344 934.793 541.317 934.668 541.317 934.585C541.317 934.085 541.664 933.627 542.358 933.21C543.08 932.794 543.802 932.586 544.524 932.586C545.19 932.586 545.648 932.808 545.898 933.252L546.815 935.126C548.064 933.766 549.439 932.725 550.938 932.003C552.465 931.253 554.076 930.92 555.77 931.003ZM547.898 961.284C548.036 961.339 548.259 961.367 548.564 961.367C549.48 961.367 550.494 960.84 551.605 959.784C549.716 954.314 547.773 949.219 545.773 944.498C544.663 947.691 544.107 950.593 544.107 953.203C544.107 954.453 544.26 955.73 544.565 957.035C545.287 959.479 546.398 960.895 547.898 961.284ZM554.978 954.661C555.95 952.856 556.714 950.968 557.269 948.997C557.825 947.025 558.102 945.109 558.102 943.249C558.102 939.639 557.033 936.584 554.895 934.085C554.506 934.03 554.243 934.002 554.104 934.002C552.993 934.002 551.952 934.432 550.98 935.293C550.036 936.154 549.189 937.265 548.439 938.625C550.966 944.234 553.146 949.58 554.978 954.661ZM573.637 961.034C574.025 961.006 574.345 961.076 574.595 961.242C574.844 961.409 574.969 961.659 574.969 961.992C574.969 962.159 574.955 962.283 574.928 962.367C574.817 962.783 574.497 963.117 573.97 963.366C573.47 963.589 572.942 963.727 572.387 963.783C570.415 963.977 568.291 964.075 566.014 964.075C564.126 964.075 562.002 964.005 559.641 963.866C559.031 963.838 558.725 963.644 558.725 963.283C558.725 962.894 559.058 962.45 559.725 961.95C560.419 961.423 561.016 961.159 561.516 961.159C562.293 961.187 563.446 961.201 564.973 961.201C565.417 958.34 565.82 955.841 566.181 953.703C566.542 951.565 566.847 949.774 567.097 948.33L568.097 942.416L567.764 942.957C567.458 943.401 567.042 943.776 566.514 944.082C566.014 944.359 565.501 944.484 564.973 944.456C564.612 944.456 564.251 944.373 563.89 944.207C563.557 944.04 563.39 943.818 563.39 943.54C563.39 943.457 563.446 943.304 563.557 943.082C565.584 939.861 567.666 936.043 569.805 931.628C569.971 931.294 570.388 930.975 571.054 930.67C571.748 930.336 572.373 930.17 572.928 930.17C573.734 930.17 574.081 930.517 573.97 931.211C572.97 936.82 571.845 943.887 570.596 952.412L569.263 961.117C570.235 961.117 571.693 961.089 573.637 961.034ZM593.606 933.585C593.606 933.169 593.883 932.794 594.439 932.461C594.994 932.128 595.563 931.961 596.146 931.961C596.48 931.961 596.757 932.044 596.979 932.211C597.202 932.35 597.327 932.572 597.354 932.877C597.41 934.293 596.743 935.362 595.355 936.084C593.967 936.779 592.217 937.126 590.107 937.126C587.802 937.126 585.706 936.751 583.817 936.001C583.234 938.584 582.498 942.11 581.61 946.581C582.748 946.331 583.901 946.206 585.067 946.206C587.261 946.206 589.204 946.636 590.898 947.497C592.092 948.108 593.009 948.927 593.647 949.955C594.286 950.954 594.605 952.051 594.605 953.245C594.605 954.633 594.189 955.952 593.356 957.202C592.773 958.091 591.842 958.937 590.565 959.743C589.288 960.52 587.858 961.145 586.275 961.617C584.72 962.089 583.22 962.325 581.777 962.325C579.833 962.325 578.278 961.853 577.112 960.909C575.945 959.965 575.418 958.479 575.529 956.452C575.557 955.98 575.876 955.578 576.487 955.244C577.098 954.883 577.722 954.703 578.361 954.703C578.722 954.703 579.014 954.786 579.236 954.953C579.486 955.092 579.597 955.328 579.569 955.661C579.513 956.966 579.888 957.952 580.694 958.618C581.499 959.257 582.54 959.576 583.817 959.576C585.095 959.576 586.344 959.271 587.566 958.66C588.788 958.049 589.649 957.271 590.149 956.327C590.593 955.439 590.815 954.606 590.815 953.828C590.815 952.273 590.024 951.079 588.441 950.246C586.886 949.385 585.095 948.955 583.068 948.955C581.679 948.955 580.43 949.177 579.319 949.621C579.014 949.76 578.667 949.83 578.278 949.83C577.917 949.83 577.611 949.746 577.361 949.58C577.139 949.413 577.028 949.219 577.028 948.997C577.028 948.747 577.153 948.497 577.403 948.247C578.514 942.693 579.611 937.695 580.694 933.252C580.805 932.808 581.18 932.433 581.818 932.128C582.457 931.822 583.068 931.669 583.651 931.669C584.401 931.669 584.72 931.933 584.609 932.461C584.914 932.988 585.47 933.377 586.275 933.627C587.08 933.849 588.052 934.03 589.191 934.168C590.079 934.28 590.773 934.335 591.273 934.335C591.829 934.335 592.245 934.307 592.523 934.252C592.662 934.224 592.842 934.21 593.064 934.21C593.314 934.182 593.467 934.127 593.522 934.044C593.578 933.96 593.606 933.807 593.606 933.585ZM614.657 957.327C613.018 959.049 612.033 960.09 611.7 960.451C613.56 960.312 615.823 960.243 618.489 960.243C621.404 960.243 624.126 960.34 626.653 960.534C626.902 960.256 627.25 960.034 627.694 959.868C628.166 959.673 628.624 959.576 629.068 959.576C629.763 959.576 630.248 959.798 630.526 960.243L631.443 961.575C631.554 961.798 631.609 961.95 631.609 962.034C631.609 962.367 631.429 962.686 631.068 962.992C630.734 963.269 630.332 963.491 629.86 963.658C629.415 963.825 629.068 963.894 628.818 963.866C624.709 963.505 620.807 963.325 617.114 963.325C613.754 963.325 610.714 963.478 607.992 963.783C607.493 963.838 607.007 963.769 606.535 963.575C606.063 963.38 605.827 963.089 605.827 962.7C605.827 962.45 605.924 962.186 606.118 961.909C607.118 960.52 608.603 958.868 610.575 956.952C610.853 956.647 611.172 956.313 611.533 955.952C611.894 955.591 612.283 955.189 612.699 954.744C616.837 950.329 620.058 946.608 622.362 943.582L622.946 942.79C624.028 941.402 624.945 940.097 625.695 938.875C626.444 937.626 626.819 936.487 626.819 935.46C626.819 935.015 626.736 934.613 626.569 934.252C626.347 933.807 625.972 933.488 625.445 933.294C624.945 933.072 624.376 932.961 623.737 932.961C622.932 932.961 622.237 933.072 621.654 933.294C620.46 933.738 619.405 934.502 618.489 935.585C617.6 936.668 616.614 938.098 615.531 939.875C615.309 940.18 615.101 940.5 614.907 940.833C614.712 941.166 614.504 941.485 614.282 941.791C614.088 942.041 613.685 942.263 613.074 942.457C612.491 942.652 611.922 942.749 611.366 942.749C610.505 942.749 610.075 942.54 610.075 942.124C610.075 941.985 610.131 941.819 610.242 941.624C611.686 939.292 613.032 937.32 614.282 935.71C615.559 934.099 617.059 932.752 618.78 931.669C620.53 930.559 622.487 930.003 624.653 930.003C625.209 930.003 625.778 930.045 626.361 930.128C629.304 930.545 630.776 931.905 630.776 934.21C630.776 935.737 630.248 937.431 629.193 939.292C628.166 941.124 626.944 942.985 625.528 944.873C623.14 948.011 620.113 951.551 616.448 955.494L614.657 957.327ZM647.786 931.003C648.342 930.836 648.772 930.753 649.078 930.753C649.55 930.753 649.911 930.878 650.16 931.128C653.104 934.044 654.576 937.792 654.576 942.374C654.576 944.595 654.228 946.872 653.534 949.205C652.84 951.51 651.91 953.703 650.744 955.786C650.133 956.869 649.397 957.966 648.536 959.076C648.536 959.104 648.55 959.146 648.578 959.201C648.605 959.229 648.619 959.257 648.619 959.285C648.647 959.368 648.661 959.479 648.661 959.618C648.661 960.118 648.383 960.576 647.828 960.992C647.3 961.381 646.703 961.617 646.037 961.7C643.788 963.7 641.566 964.699 639.373 964.699C638.317 964.699 637.248 964.449 636.165 963.95C634.527 963.172 633.361 961.95 632.667 960.284C632 958.59 631.667 956.674 631.667 954.536C631.667 953.731 631.709 952.953 631.792 952.204C631.986 950.288 632.417 948.219 633.083 945.998C633.75 943.776 634.61 941.68 635.666 939.708C634.805 937.792 634.055 936.209 633.416 934.96C633.361 934.793 633.333 934.668 633.333 934.585C633.333 934.085 633.68 933.627 634.374 933.21C635.096 932.794 635.818 932.586 636.54 932.586C637.207 932.586 637.665 932.808 637.915 933.252L638.831 935.126C640.081 933.766 641.455 932.725 642.955 932.003C644.482 931.253 646.092 930.92 647.786 931.003ZM639.914 961.284C640.053 961.339 640.275 961.367 640.581 961.367C641.497 961.367 642.51 960.84 643.621 959.784C641.733 954.314 639.789 949.219 637.79 944.498C636.679 947.691 636.124 950.593 636.124 953.203C636.124 954.453 636.277 955.73 636.582 957.035C637.304 959.479 638.415 960.895 639.914 961.284ZM646.995 954.661C647.967 952.856 648.73 950.968 649.286 948.997C649.841 947.025 650.119 945.109 650.119 943.249C650.119 939.639 649.05 936.584 646.912 934.085C646.523 934.03 646.259 934.002 646.12 934.002C645.01 934.002 643.968 934.432 642.996 935.293C642.052 936.154 641.205 937.265 640.456 938.625C642.982 944.234 645.162 949.58 646.995 954.661ZM663.064 957.327C661.426 959.049 660.44 960.09 660.107 960.451C661.967 960.312 664.23 960.243 666.896 960.243C669.812 960.243 672.533 960.34 675.06 960.534C675.31 960.256 675.657 960.034 676.101 959.868C676.573 959.673 677.031 959.576 677.476 959.576C678.17 959.576 678.656 959.798 678.933 960.243L679.85 961.575C679.961 961.798 680.016 961.95 680.016 962.034C680.016 962.367 679.836 962.686 679.475 962.992C679.142 963.269 678.739 963.491 678.267 963.658C677.823 963.825 677.476 963.894 677.226 963.866C673.116 963.505 669.215 963.325 665.522 963.325C662.162 963.325 659.121 963.478 656.4 963.783C655.9 963.838 655.414 963.769 654.942 963.575C654.47 963.38 654.234 963.089 654.234 962.7C654.234 962.45 654.331 962.186 654.525 961.909C655.525 960.52 657.011 958.868 658.982 956.952C659.26 956.647 659.579 956.313 659.94 955.952C660.301 955.591 660.69 955.189 661.106 954.744C665.244 950.329 668.465 946.608 670.77 943.582L671.353 942.79C672.436 941.402 673.352 940.097 674.102 938.875C674.852 937.626 675.226 936.487 675.226 935.46C675.226 935.015 675.143 934.613 674.977 934.252C674.754 933.807 674.38 933.488 673.852 933.294C673.352 933.072 672.783 932.961 672.144 932.961C671.339 932.961 670.645 933.072 670.062 933.294C668.868 933.738 667.812 934.502 666.896 935.585C666.007 936.668 665.022 938.098 663.939 939.875C663.717 940.18 663.508 940.5 663.314 940.833C663.12 941.166 662.911 941.485 662.689 941.791C662.495 942.041 662.092 942.263 661.481 942.457C660.898 942.652 660.329 942.749 659.774 942.749C658.913 942.749 658.482 942.54 658.482 942.124C658.482 941.985 658.538 941.819 658.649 941.624C660.093 939.292 661.44 937.32 662.689 935.71C663.967 934.099 665.466 932.752 667.188 931.669C668.937 930.559 670.895 930.003 673.061 930.003C673.616 930.003 674.185 930.045 674.768 930.128C677.712 930.545 679.183 931.905 679.183 934.21C679.183 935.737 678.656 937.431 677.601 939.292C676.573 941.124 675.351 942.985 673.935 944.873C671.547 948.011 668.52 951.551 664.855 955.494L663.064 957.327ZM688.488 957.327C686.85 959.049 685.864 960.09 685.531 960.451C687.391 960.312 689.654 960.243 692.32 960.243C695.236 960.243 697.957 960.34 700.484 960.534C700.734 960.256 701.081 960.034 701.525 959.868C701.997 959.673 702.455 959.576 702.9 959.576C703.594 959.576 704.08 959.798 704.357 960.243L705.274 961.575C705.385 961.798 705.44 961.95 705.44 962.034C705.44 962.367 705.26 962.686 704.899 962.992C704.566 963.269 704.163 963.491 703.691 963.658C703.247 963.825 702.9 963.894 702.65 963.866C698.54 963.505 694.639 963.325 690.945 963.325C687.586 963.325 684.545 963.478 681.824 963.783C681.324 963.838 680.838 963.769 680.366 963.575C679.894 963.38 679.658 963.089 679.658 962.7C679.658 962.45 679.755 962.186 679.949 961.909C680.949 960.52 682.435 958.868 684.406 956.952C684.684 956.647 685.003 956.313 685.364 955.952C685.725 955.591 686.114 955.189 686.53 954.744C690.668 950.329 693.889 946.608 696.194 943.582L696.777 942.79C697.86 941.402 698.776 940.097 699.526 938.875C700.276 937.626 700.65 936.487 700.65 935.46C700.65 935.015 700.567 934.613 700.4 934.252C700.178 933.807 699.803 933.488 699.276 933.294C698.776 933.072 698.207 932.961 697.568 932.961C696.763 932.961 696.069 933.072 695.486 933.294C694.292 933.738 693.236 934.502 692.32 935.585C691.431 936.668 690.446 938.098 689.363 939.875C689.141 940.18 688.932 940.5 688.738 940.833C688.544 941.166 688.335 941.485 688.113 941.791C687.919 942.041 687.516 942.263 686.905 942.457C686.322 942.652 685.753 942.749 685.198 942.749C684.337 942.749 683.906 942.54 683.906 942.124C683.906 941.985 683.962 941.819 684.073 941.624C685.517 939.292 686.864 937.32 688.113 935.71C689.39 934.099 690.89 932.752 692.612 931.669C694.361 930.559 696.319 930.003 698.484 930.003C699.04 930.003 699.609 930.045 700.192 930.128C703.136 930.545 704.607 931.905 704.607 934.21C704.607 935.737 704.08 937.431 703.025 939.292C701.997 941.124 700.775 942.985 699.359 944.873C696.971 948.011 693.944 951.551 690.279 955.494L688.488 957.327Z" fill="#CFF9EF"/>
<path d="M513.102 947.497H595.272V949.58H513.102V947.497Z" fill="#CFF9EF"/>
<path d="M160.89 702.514C159.586 690.43 159.138 679.085 158.721 671.391C158.399 665.217 157.324 662.505 155.022 660.944C154.113 660.301 153.625 660.598 153.485 661.857C152.768 669.863 153.852 688.516 155.802 700.585C156.659 706.042 158.619 708.429 162 709.772C163.267 710.236 163.712 709.788 164.012 708.81C169.055 692.614 176.981 674.483 180.385 665.897C182.732 659.962 182.837 656.516 181.578 654.017C181.059 653.022 180.262 653.079 179.735 654.119C174.95 663.005 164.785 688.343 160.89 702.514ZM188.084 664.015C186.538 662.245 184.096 661.944 183.242 663.562C182.387 665.181 182.636 667.553 184.408 669.259C186.085 670.911 188.263 670.554 188.954 669.224C189.644 667.895 189.609 665.708 188.084 664.015ZM185.658 703.239C189.89 702.07 193.775 697.581 194.748 692.269C195.133 690.13 194.922 688.48 193.983 687.438C193.514 686.917 192.964 686.987 192.774 687.772C191.947 693.612 189.168 699.748 185.809 700.838C183.432 701.658 182.467 698.752 183.07 693.868C183.614 689.651 185.369 683.635 186.038 679.871C186.808 675.592 185.306 672.509 183.838 671.613C183.046 671.1 182.579 671.472 182.15 672.567C180.439 677.269 177.913 687.565 177.548 693.603C177.143 700.385 179.915 704.825 185.658 703.239ZM191.245 687.136C191.003 686.553 190.836 685.948 190.593 685.364C190.184 684.176 189.496 684.041 188.797 685.047C186.812 687.873 187.963 692.923 190.716 695.823C194.58 699.799 199.125 699.764 203.466 698.402C208.77 696.694 213.116 692.403 214.547 686.395C215.185 683.697 214.718 681.712 214.228 681.115C213.759 680.594 212.94 680.576 212.792 681.511C212.03 686.114 210.108 691.525 205.566 694.813C207.786 692.248 207.438 688.928 206.775 685.938C205.562 680.661 202.498 675.163 201.107 668.064C201.263 667.451 201.365 666.935 201.542 666.398C202.044 664.389 202.193 663.453 201.228 662.906C200.36 662.414 198.705 663.196 197.46 665.167C196.27 667.041 195.91 668.686 196.347 671.737C195.219 676.197 193.175 682.049 191.245 687.136ZM197.531 676.616C199.503 682.578 203.913 694.131 200.729 696.149C198.444 697.593 195.397 695.1 193.052 691.03C194.797 686.155 196.446 681.227 197.531 676.616ZM219.457 655.351C217.911 653.582 215.468 653.28 214.614 654.899C213.76 656.517 214.008 658.889 215.781 660.595C217.457 662.247 219.636 661.89 220.326 660.56C221.016 659.231 220.982 657.044 219.457 655.351ZM217.031 694.575C221.263 693.406 225.147 688.917 226.121 683.606C226.506 681.466 226.294 679.816 225.356 678.774C224.886 678.253 224.337 678.323 224.147 679.108C223.319 684.948 220.54 691.084 217.181 692.175C214.804 692.994 213.839 690.088 214.443 685.204C214.986 680.987 216.741 674.971 217.41 671.208C218.18 666.928 216.678 663.845 215.211 662.949C214.418 662.436 213.952 662.809 213.522 663.903C211.811 668.605 209.286 678.901 208.92 684.939C208.515 691.721 211.287 696.161 217.031 694.575ZM225.012 659.51C223.411 666.378 221.99 673.603 221.446 677.82C220.219 687.513 225.769 691.999 230.798 690.773C236.907 689.33 240.058 681.302 240.435 678.839C240.711 676.892 240.713 675.427 240.001 674.323C239.407 673.348 238.617 673.729 238.414 674.761C237.183 681.201 234.357 687.757 230.915 688.545C227.699 689.27 225.574 684.814 226.544 678.608C227.663 671.467 229.946 662.947 231.495 657.069C233.301 656.245 235.581 655.371 237.306 655.139C238.44 654.826 238.596 654.213 237.817 653.452C236.941 652.637 235.432 651.59 232.505 652.479C233.234 648.048 232.545 645.555 231.129 643.668C230.501 642.865 229.724 642.999 229.315 644.169C228.49 646.186 227.355 650.323 226.16 655.126C224.182 655.917 222.107 656.652 219.97 657.161C218.816 657.398 218.509 658.053 219.557 658.902C220.391 659.566 222.442 660.22 225.012 659.51ZM251.734 652.131C250.133 658.998 248.712 666.223 248.169 670.44C246.941 680.133 252.491 684.619 257.521 683.393C263.63 681.95 266.781 673.922 267.158 671.459C267.434 669.512 267.436 668.048 266.724 666.943C266.13 665.968 265.34 666.349 265.137 667.381C263.906 673.821 261.08 680.377 257.638 681.165C254.422 681.89 252.296 677.434 253.267 671.228C254.385 664.087 256.669 655.567 258.218 649.689C260.024 648.865 262.304 647.992 264.029 647.759C265.163 647.446 265.319 646.834 264.54 646.073C263.664 645.257 262.154 644.21 259.228 645.099C259.956 640.669 259.268 638.175 257.852 636.288C257.224 635.486 256.447 635.619 256.038 636.789C255.212 638.807 254.077 642.943 252.882 647.747C250.904 648.537 248.83 649.272 246.693 649.781C245.539 650.019 245.231 650.673 246.279 651.522C247.113 652.187 249.165 652.84 251.734 652.131ZM291.801 665.304C292.309 662.724 291.87 661.137 291.263 660.41C290.794 659.889 290.038 660.098 289.923 660.861C288.916 666.345 286.262 672.934 283.206 673.941C280.451 674.865 279.092 671.417 279.771 666.512C280.424 662.102 282.528 655.583 283.272 651.799C284.173 647.402 280.787 644.27 278.134 644.677C276.03 645.014 272.789 648.593 270.526 652.472C272.377 646.511 274.692 639.283 275.671 635.76C277.228 630.205 276.411 626.364 274.823 624.444C274.195 623.641 273.418 623.774 272.989 624.869C268.975 634.192 260.602 665.136 260.044 673.424C259.709 678.397 260.974 680.325 262.559 681.351C263.158 681.755 263.645 681.458 263.76 680.694C264.301 675.583 265.636 669.521 267.125 664.31C269.526 655.92 276.344 648.506 277.569 648.819C278.966 649.165 274.562 658.841 274.092 666.86C273.641 674.061 276.501 678.233 282.849 676.48C287.308 675.248 290.875 670.197 291.801 665.304ZM292.395 658.633C298.875 661.48 303.396 658.117 305.847 652.56C307.957 647.829 307.288 643.052 305.427 641.614C303.758 640.285 302.085 639.527 299.883 638.915C295.499 637.767 288.875 643.826 286.655 654.931C284.435 666.037 290.369 674.566 299.926 671.764C305.724 670.081 310.583 664.998 312.484 659.511C313.302 657.171 312.944 654.992 312.475 654.471C311.985 653.874 311.38 654.041 311.169 654.75C309.297 660.635 305.45 668.205 299.094 669.635C295.026 670.514 291.897 666.254 292.395 658.633ZM292.616 656.783C292.663 656.363 292.764 655.847 292.866 655.331C294.435 647.171 299.456 640.904 301.398 641.75C302.685 642.289 302.108 646.678 300.566 650.52C299.167 653.998 296.966 658.103 292.616 656.783Z" fill="#5ACBB7"/>
<circle cx="390.792" cy="944.518" r="8.57539" fill="#CFF9EF"/>
<circle cx="728.907" cy="944.518" r="8.57539" fill="#CFF9EF"/>
<path d="M516.973 960.444L597.826 943.293" stroke="#CFF9EF" stroke-width="2.45011"/>
<path d="M508.827 938.428L601.414 956.02" stroke="#CFF9EF" stroke-width="2.45011"/>
<path d="M704.142 400.749C673.962 393.465 641.701 398.148 614.643 415.319C606.838 420.002 599.553 425.726 593.309 432.49C586.024 439.775 579.78 448.101 574.576 456.426C568.853 438.214 560.007 420.522 548.039 404.912C543.876 399.188 539.193 393.985 533.99 388.782C491.322 346.113 432.523 331.544 378.407 344.552C378.407 344.552 376.846 348.715 376.846 349.756V350.276C373.204 363.805 371.643 378.375 371.643 393.465C371.643 489.728 449.694 567.78 545.958 567.78C600.594 567.78 648.986 542.803 681.247 503.257C704.662 473.597 712.467 435.612 704.142 400.749Z" fill="#111827"/>
<path fill-rule="evenodd" clip-rule="evenodd" d="M386.559 639.034V572.523H356.721V668.872H727.992V572.523H698.153V639.034H386.559Z" fill="#111827"/>
</svg>
