<svg width="717" height="308" viewBox="0 0 717 308" fill="none" xmlns="http://www.w3.org/2000/svg">
<rect x="124.843" y="2.0349" width="590.059" height="303.838" fill="white" stroke="#1F2937" stroke-width="4.0698"/>
<path d="M185.704 204.692V226.398H183.075V207.448H182.948L177.649 210.966V208.295L183.075 204.692H185.704ZM196.549 226.567C196.026 226.567 195.577 226.38 195.203 226.005C194.828 225.631 194.641 225.182 194.641 224.659C194.641 224.137 194.828 223.688 195.203 223.313C195.577 222.939 196.026 222.752 196.549 222.752C197.071 222.752 197.52 222.939 197.895 223.313C198.269 223.688 198.456 224.137 198.456 224.659C198.456 225.006 198.368 225.324 198.191 225.613C198.022 225.903 197.792 226.136 197.502 226.313C197.22 226.482 196.902 226.567 196.549 226.567ZM212.045 207.024V204.692H228.324V207.024H221.499V226.398H218.871V207.024H212.045ZM234.543 216.605V226.398H232.042V204.692H234.543V212.662H234.755C235.137 211.821 235.709 211.153 236.472 210.659C237.242 210.157 238.267 209.906 239.545 209.906C240.655 209.906 241.626 210.129 242.46 210.574C243.294 211.012 243.94 211.687 244.4 212.598C244.866 213.503 245.099 214.655 245.099 216.053V226.398H242.598V216.223C242.598 214.93 242.262 213.93 241.591 213.224C240.927 212.51 240.005 212.153 238.825 212.153C238.005 212.153 237.27 212.326 236.62 212.673C235.977 213.019 235.469 213.524 235.094 214.188C234.727 214.852 234.543 215.658 234.543 216.605ZM256.5 226.737C254.932 226.737 253.579 226.391 252.441 225.698C251.311 224.999 250.438 224.024 249.823 222.773C249.216 221.515 248.912 220.053 248.912 218.385C248.912 216.718 249.216 215.248 249.823 213.976C250.438 212.697 251.293 211.701 252.388 210.987C253.49 210.267 254.776 209.906 256.246 209.906C257.094 209.906 257.931 210.048 258.758 210.33C259.585 210.613 260.337 211.072 261.015 211.708C261.694 212.337 262.234 213.171 262.637 214.209C263.04 215.248 263.241 216.527 263.241 218.046V219.106H250.692V216.944H260.697C260.697 216.025 260.514 215.206 260.146 214.485C259.786 213.764 259.27 213.195 258.599 212.779C257.935 212.362 257.15 212.153 256.246 212.153C255.25 212.153 254.388 212.401 253.66 212.895C252.939 213.383 252.385 214.019 251.996 214.803C251.607 215.587 251.413 216.428 251.413 217.325V218.767C251.413 219.996 251.625 221.038 252.049 221.893C252.48 222.741 253.077 223.388 253.84 223.833C254.603 224.271 255.49 224.49 256.5 224.49C257.157 224.49 257.751 224.398 258.281 224.214C258.818 224.024 259.281 223.741 259.669 223.366C260.058 222.985 260.358 222.511 260.57 221.946L262.987 222.625C262.732 223.444 262.305 224.165 261.704 224.787C261.104 225.401 260.362 225.882 259.479 226.228C258.595 226.567 257.603 226.737 256.5 226.737ZM275.44 232.502V210.118H277.856V212.704H278.153C278.337 212.422 278.591 212.061 278.916 211.623C279.248 211.178 279.722 210.783 280.336 210.436C280.958 210.083 281.799 209.906 282.859 209.906C284.229 209.906 285.438 210.249 286.483 210.934C287.529 211.62 288.345 212.591 288.932 213.849C289.518 215.107 289.811 216.59 289.811 218.3C289.811 220.024 289.518 221.519 288.932 222.784C288.345 224.041 287.533 225.016 286.494 225.709C285.455 226.394 284.258 226.737 282.901 226.737C281.855 226.737 281.018 226.564 280.389 226.217C279.76 225.864 279.276 225.465 278.937 225.02C278.598 224.568 278.337 224.193 278.153 223.896H277.941V232.502H275.44ZM277.899 218.258C277.899 219.487 278.079 220.572 278.439 221.512C278.8 222.444 279.326 223.176 280.018 223.706C280.711 224.228 281.559 224.49 282.562 224.49C283.608 224.49 284.48 224.214 285.18 223.663C285.886 223.105 286.416 222.356 286.77 221.416C287.13 220.47 287.31 219.417 287.31 218.258C287.31 217.113 287.133 216.082 286.78 215.163C286.434 214.238 285.908 213.506 285.201 212.969C284.501 212.425 283.622 212.153 282.562 212.153C281.544 212.153 280.69 212.411 279.997 212.927C279.305 213.436 278.782 214.149 278.429 215.068C278.075 215.979 277.899 217.043 277.899 218.258ZM293.627 226.398V210.118H296.043V212.577H296.213C296.51 211.772 297.046 211.118 297.824 210.616C298.601 210.115 299.477 209.864 300.452 209.864C300.636 209.864 300.865 209.868 301.141 209.875C301.417 209.882 301.625 209.892 301.766 209.906V212.45C301.682 212.429 301.487 212.397 301.183 212.355C300.887 212.305 300.572 212.28 300.24 212.28C299.449 212.28 298.742 212.446 298.12 212.779C297.506 213.104 297.018 213.556 296.658 214.135C296.305 214.707 296.128 215.361 296.128 216.096V226.398H293.627ZM310.849 226.737C309.38 226.737 308.09 226.387 306.981 225.687C305.879 224.988 305.017 224.009 304.395 222.752C303.78 221.494 303.473 220.024 303.473 218.343C303.473 216.647 303.78 215.167 304.395 213.902C305.017 212.637 305.879 211.655 306.981 210.956C308.09 210.256 309.38 209.906 310.849 209.906C312.319 209.906 313.605 210.256 314.707 210.956C315.816 211.655 316.678 212.637 317.293 213.902C317.915 215.167 318.226 216.647 318.226 218.343C318.226 220.024 317.915 221.494 317.293 222.752C316.678 224.009 315.816 224.988 314.707 225.687C313.605 226.387 312.319 226.737 310.849 226.737ZM310.849 224.49C311.966 224.49 312.884 224.204 313.605 223.631C314.325 223.059 314.859 222.307 315.205 221.374C315.551 220.441 315.724 219.431 315.724 218.343C315.724 217.255 315.551 216.241 315.205 215.301C314.859 214.361 314.325 213.602 313.605 213.022C312.884 212.443 311.966 212.153 310.849 212.153C309.733 212.153 308.814 212.443 308.094 213.022C307.373 213.602 306.839 214.361 306.493 215.301C306.147 216.241 305.974 217.255 305.974 218.343C305.974 219.431 306.147 220.441 306.493 221.374C306.839 222.307 307.373 223.059 308.094 223.631C308.814 224.204 309.733 224.49 310.849 224.49ZM328.657 226.737C327.131 226.737 325.817 226.376 324.715 225.656C323.612 224.935 322.765 223.942 322.171 222.678C321.577 221.413 321.281 219.968 321.281 218.343C321.281 216.689 321.585 215.23 322.192 213.966C322.807 212.694 323.662 211.701 324.757 210.987C325.859 210.267 327.145 209.906 328.615 209.906C329.759 209.906 330.791 210.118 331.71 210.542C332.628 210.966 333.381 211.56 333.967 212.323C334.554 213.086 334.917 213.976 335.059 214.994H332.557C332.367 214.252 331.943 213.595 331.286 213.022C330.636 212.443 329.759 212.153 328.657 212.153C327.682 212.153 326.827 212.408 326.092 212.916C325.365 213.418 324.796 214.128 324.386 215.047C323.983 215.958 323.782 217.029 323.782 218.258C323.782 219.516 323.98 220.611 324.375 221.543C324.778 222.476 325.343 223.2 326.071 223.716C326.806 224.232 327.668 224.49 328.657 224.49C329.307 224.49 329.897 224.377 330.427 224.151C330.957 223.925 331.406 223.6 331.773 223.176C332.141 222.752 332.402 222.243 332.557 221.649H335.059C334.917 222.61 334.568 223.476 334.009 224.246C333.458 225.009 332.727 225.617 331.816 226.069C330.911 226.514 329.858 226.737 328.657 226.737ZM345.541 226.737C343.972 226.737 342.619 226.391 341.481 225.698C340.351 224.999 339.478 224.024 338.864 222.773C338.256 221.515 337.952 220.053 337.952 218.385C337.952 216.718 338.256 215.248 338.864 213.976C339.478 212.697 340.333 211.701 341.428 210.987C342.531 210.267 343.817 209.906 345.286 209.906C346.134 209.906 346.971 210.048 347.798 210.33C348.625 210.613 349.377 211.072 350.056 211.708C350.734 212.337 351.274 213.171 351.677 214.209C352.08 215.248 352.281 216.527 352.281 218.046V219.106H339.733V216.944H349.738C349.738 216.025 349.554 215.206 349.186 214.485C348.826 213.764 348.31 213.195 347.639 212.779C346.975 212.362 346.191 212.153 345.286 212.153C344.29 212.153 343.428 212.401 342.7 212.895C341.979 213.383 341.425 214.019 341.036 214.803C340.648 215.587 340.453 216.428 340.453 217.325V218.767C340.453 219.996 340.665 221.038 341.089 221.893C341.52 222.741 342.117 223.388 342.88 223.833C343.643 224.271 344.53 224.49 345.541 224.49C346.198 224.49 346.791 224.398 347.321 224.214C347.858 224.024 348.321 223.741 348.71 223.366C349.098 222.985 349.398 222.511 349.61 221.946L352.027 222.625C351.772 223.444 351.345 224.165 350.744 224.787C350.144 225.401 349.402 225.882 348.519 226.228C347.636 226.567 346.643 226.737 345.541 226.737ZM367.617 213.764L365.37 214.4C365.229 214.026 365.021 213.662 364.745 213.308C364.476 212.948 364.109 212.651 363.643 212.418C363.176 212.185 362.579 212.068 361.852 212.068C360.855 212.068 360.025 212.298 359.361 212.757C358.704 213.21 358.375 213.785 358.375 214.485C358.375 215.107 358.601 215.598 359.054 215.958C359.506 216.318 360.212 216.619 361.173 216.859L363.59 217.452C365.045 217.806 366.13 218.346 366.843 219.074C367.557 219.795 367.914 220.724 367.914 221.861C367.914 222.794 367.645 223.628 367.108 224.363C366.578 225.098 365.837 225.677 364.883 226.101C363.929 226.525 362.82 226.737 361.555 226.737C359.894 226.737 358.52 226.376 357.432 225.656C356.344 224.935 355.655 223.882 355.365 222.497L357.739 221.904C357.965 222.78 358.393 223.437 359.022 223.875C359.658 224.313 360.488 224.532 361.512 224.532C362.678 224.532 363.604 224.285 364.289 223.79C364.982 223.289 365.328 222.688 365.328 221.989C365.328 221.423 365.13 220.95 364.734 220.568C364.339 220.18 363.731 219.89 362.911 219.699L360.198 219.063C358.707 218.71 357.612 218.163 356.913 217.421C356.22 216.672 355.874 215.736 355.874 214.612C355.874 213.694 356.132 212.881 356.648 212.174C357.171 211.468 357.881 210.913 358.778 210.511C359.682 210.108 360.707 209.906 361.852 209.906C363.463 209.906 364.727 210.26 365.646 210.966C366.571 211.673 367.229 212.605 367.617 213.764ZM383.21 213.764L380.963 214.4C380.822 214.026 380.613 213.662 380.338 213.308C380.069 212.948 379.702 212.651 379.236 212.418C378.769 212.185 378.172 212.068 377.445 212.068C376.448 212.068 375.618 212.298 374.954 212.757C374.297 213.21 373.968 213.785 373.968 214.485C373.968 215.107 374.194 215.598 374.647 215.958C375.099 216.318 375.805 216.619 376.766 216.859L379.183 217.452C380.638 217.806 381.723 218.346 382.436 219.074C383.15 219.795 383.507 220.724 383.507 221.861C383.507 222.794 383.238 223.628 382.701 224.363C382.171 225.098 381.43 225.677 380.476 226.101C379.522 226.525 378.413 226.737 377.148 226.737C375.487 226.737 374.113 226.376 373.025 225.656C371.937 224.935 371.248 223.882 370.958 222.497L373.332 221.904C373.558 222.78 373.986 223.437 374.615 223.875C375.251 224.313 376.081 224.532 377.105 224.532C378.271 224.532 379.197 224.285 379.882 223.79C380.575 223.289 380.921 222.688 380.921 221.989C380.921 221.423 380.723 220.95 380.327 220.568C379.932 220.18 379.324 219.89 378.504 219.699L375.791 219.063C374.3 218.71 373.205 218.163 372.506 217.421C371.813 216.672 371.467 215.736 371.467 214.612C371.467 213.694 371.725 212.881 372.241 212.174C372.764 211.468 373.474 210.913 374.371 210.511C375.275 210.108 376.3 209.906 377.445 209.906C379.056 209.906 380.32 210.26 381.239 210.966C382.164 211.673 382.822 212.605 383.21 213.764ZM402.279 226.737C400.81 226.737 399.52 226.387 398.411 225.687C397.309 224.988 396.447 224.009 395.825 222.752C395.21 221.494 394.903 220.024 394.903 218.343C394.903 216.647 395.21 215.167 395.825 213.902C396.447 212.637 397.309 211.655 398.411 210.956C399.52 210.256 400.81 209.906 402.279 209.906C403.749 209.906 405.035 210.256 406.137 210.956C407.247 211.655 408.109 212.637 408.723 213.902C409.345 215.167 409.656 216.647 409.656 218.343C409.656 220.024 409.345 221.494 408.723 222.752C408.109 224.009 407.247 224.988 406.137 225.687C405.035 226.387 403.749 226.737 402.279 226.737ZM402.279 224.49C403.396 224.49 404.314 224.204 405.035 223.631C405.756 223.059 406.289 222.307 406.635 221.374C406.982 220.441 407.155 219.431 407.155 218.343C407.155 217.255 406.982 216.241 406.635 215.301C406.289 214.361 405.756 213.602 405.035 213.022C404.314 212.443 403.396 212.153 402.279 212.153C401.163 212.153 400.244 212.443 399.524 213.022C398.803 213.602 398.27 214.361 397.923 215.301C397.577 216.241 397.404 217.255 397.404 218.343C397.404 219.431 397.577 220.441 397.923 221.374C398.27 222.307 398.803 223.059 399.524 223.631C400.244 224.204 401.163 224.49 402.279 224.49ZM420.723 210.118V212.238H411.948V210.118H420.723ZM414.576 226.398V207.871C414.576 206.939 414.795 206.162 415.233 205.54C415.671 204.918 416.24 204.452 416.94 204.141C417.639 203.83 418.378 203.675 419.155 203.675C419.769 203.675 420.271 203.724 420.66 203.823C421.048 203.922 421.338 204.014 421.529 204.098L420.808 206.261C420.681 206.218 420.504 206.165 420.278 206.102C420.059 206.038 419.769 206.006 419.409 206.006C418.582 206.006 417.985 206.215 417.618 206.631C417.258 207.048 417.077 207.66 417.077 208.465V226.398H414.576ZM439.702 210.118V212.238H431.266V210.118H439.702ZM433.725 206.218H436.226V221.734C436.226 222.441 436.329 222.971 436.534 223.324C436.746 223.67 437.014 223.903 437.339 224.024C437.671 224.137 438.021 224.193 438.388 224.193C438.664 224.193 438.89 224.179 439.067 224.151C439.243 224.115 439.385 224.087 439.491 224.066L439.999 226.313C439.83 226.376 439.593 226.44 439.289 226.504C438.985 226.574 438.6 226.61 438.134 226.61C437.427 226.61 436.735 226.458 436.057 226.154C435.385 225.85 434.827 225.387 434.382 224.765C433.944 224.144 433.725 223.359 433.725 222.413V206.218ZM443.465 226.398V210.118H445.881V212.577H446.051C446.348 211.772 446.885 211.118 447.662 210.616C448.439 210.115 449.315 209.864 450.29 209.864C450.474 209.864 450.704 209.868 450.979 209.875C451.255 209.882 451.463 209.892 451.605 209.906V212.45C451.52 212.429 451.325 212.397 451.022 212.355C450.725 212.305 450.41 212.28 450.078 212.28C449.287 212.28 448.58 212.446 447.959 212.779C447.344 213.104 446.856 213.556 446.496 214.135C446.143 214.707 445.966 215.361 445.966 216.096V226.398H443.465ZM456.676 232.502C456.252 232.502 455.874 232.467 455.542 232.396C455.21 232.333 454.98 232.269 454.853 232.206L455.489 230.001C456.097 230.156 456.634 230.213 457.1 230.171C457.566 230.128 457.98 229.92 458.34 229.545C458.707 229.178 459.043 228.581 459.347 227.754L459.813 226.482L453.793 210.118H456.506L461 223.091H461.17L465.663 210.118H468.377L461.466 228.772C461.156 229.612 460.77 230.308 460.311 230.86C459.852 231.418 459.318 231.831 458.711 232.1C458.11 232.368 457.432 232.502 456.676 232.502ZM471.678 226.398V210.118H474.179V226.398H471.678ZM472.95 207.405C472.462 207.405 472.042 207.239 471.689 206.907C471.342 206.575 471.169 206.176 471.169 205.709C471.169 205.243 471.342 204.844 471.689 204.512C472.042 204.18 472.462 204.014 472.95 204.014C473.437 204.014 473.854 204.18 474.2 204.512C474.554 204.844 474.73 205.243 474.73 205.709C474.73 206.176 474.554 206.575 474.2 206.907C473.854 207.239 473.437 207.405 472.95 207.405ZM481.262 216.605V226.398H478.76V210.118H481.177V212.662H481.389C481.77 211.835 482.35 211.171 483.127 210.669C483.904 210.161 484.908 209.906 486.137 209.906C487.239 209.906 488.204 210.132 489.03 210.585C489.857 211.03 490.5 211.708 490.959 212.62C491.419 213.524 491.648 214.669 491.648 216.053V226.398H489.147V216.223C489.147 214.944 488.815 213.948 488.151 213.234C487.486 212.514 486.575 212.153 485.416 212.153C484.618 212.153 483.904 212.326 483.275 212.673C482.654 213.019 482.163 213.524 481.802 214.188C481.442 214.852 481.262 215.658 481.262 216.605ZM502.79 232.841C501.582 232.841 500.543 232.686 499.674 232.375C498.805 232.071 498.081 231.669 497.501 231.167C496.929 230.672 496.473 230.142 496.134 229.577L498.126 228.178C498.353 228.475 498.639 228.814 498.985 229.196C499.331 229.584 499.805 229.92 500.405 230.202C501.013 230.492 501.808 230.637 502.79 230.637C504.104 230.637 505.189 230.319 506.043 229.683C506.898 229.047 507.326 228.051 507.326 226.694V223.388H507.114C506.93 223.684 506.669 224.052 506.33 224.49C505.998 224.921 505.517 225.306 504.888 225.645C504.266 225.977 503.426 226.143 502.366 226.143C501.052 226.143 499.872 225.832 498.826 225.211C497.787 224.589 496.964 223.684 496.356 222.497C495.756 221.31 495.456 219.869 495.456 218.173C495.456 216.506 495.749 215.054 496.335 213.817C496.922 212.574 497.738 211.613 498.784 210.934C499.829 210.249 501.037 209.906 502.408 209.906C503.468 209.906 504.309 210.083 504.931 210.436C505.559 210.783 506.04 211.178 506.372 211.623C506.711 212.061 506.973 212.422 507.156 212.704H507.411V210.118H509.827V226.864C509.827 228.263 509.509 229.4 508.873 230.277C508.244 231.16 507.397 231.806 506.33 232.216C505.27 232.633 504.09 232.841 502.79 232.841ZM502.705 223.896C503.708 223.896 504.556 223.667 505.249 223.207C505.941 222.748 506.467 222.088 506.828 221.226C507.188 220.364 507.368 219.332 507.368 218.131C507.368 216.958 507.192 215.923 506.838 215.025C506.485 214.128 505.962 213.425 505.27 212.916C504.577 212.408 503.722 212.153 502.705 212.153C501.645 212.153 500.762 212.422 500.055 212.959C499.356 213.496 498.829 214.216 498.476 215.121C498.13 216.025 497.957 217.029 497.957 218.131C497.957 219.261 498.133 220.261 498.487 221.13C498.847 221.992 499.377 222.67 500.077 223.165C500.783 223.653 501.659 223.896 502.705 223.896ZM529.879 210.118V212.238H521.443V210.118H529.879ZM523.902 206.218H526.403V221.734C526.403 222.441 526.506 222.971 526.71 223.324C526.922 223.67 527.191 223.903 527.516 224.024C527.848 224.137 528.198 224.193 528.565 224.193C528.841 224.193 529.067 224.179 529.243 224.151C529.42 224.115 529.561 224.087 529.667 224.066L530.176 226.313C530.007 226.376 529.77 226.44 529.466 226.504C529.162 226.574 528.777 226.61 528.311 226.61C527.604 226.61 526.912 226.458 526.234 226.154C525.562 225.85 525.004 225.387 524.559 224.765C524.121 224.144 523.902 223.359 523.902 222.413V206.218ZM540.08 226.737C538.611 226.737 537.321 226.387 536.212 225.687C535.11 224.988 534.248 224.009 533.626 222.752C533.011 221.494 532.704 220.024 532.704 218.343C532.704 216.647 533.011 215.167 533.626 213.902C534.248 212.637 535.11 211.655 536.212 210.956C537.321 210.256 538.611 209.906 540.08 209.906C541.55 209.906 542.836 210.256 543.938 210.956C545.048 211.655 545.91 212.637 546.524 213.902C547.146 215.167 547.457 216.647 547.457 218.343C547.457 220.024 547.146 221.494 546.524 222.752C545.91 224.009 545.048 224.988 543.938 225.687C542.836 226.387 541.55 226.737 540.08 226.737ZM540.08 224.49C541.197 224.49 542.115 224.204 542.836 223.631C543.557 223.059 544.09 222.307 544.436 221.374C544.783 220.441 544.956 219.431 544.956 218.343C544.956 217.255 544.783 216.241 544.436 215.301C544.09 214.361 543.557 213.602 542.836 213.022C542.115 212.443 541.197 212.153 540.08 212.153C538.964 212.153 538.045 212.443 537.325 213.022C536.604 213.602 536.071 214.361 535.724 215.301C535.378 216.241 535.205 217.255 535.205 218.343C535.205 219.431 535.378 220.441 535.724 221.374C536.071 222.307 536.604 223.059 537.325 223.631C538.045 224.204 538.964 224.49 540.08 224.49ZM564.459 226.779C563.428 226.779 562.492 226.585 561.651 226.196C560.81 225.801 560.142 225.232 559.648 224.49C559.153 223.741 558.906 222.837 558.906 221.777C558.906 220.844 559.09 220.088 559.457 219.509C559.824 218.922 560.315 218.463 560.93 218.131C561.545 217.799 562.223 217.551 562.965 217.389C563.714 217.219 564.467 217.085 565.223 216.986C566.212 216.859 567.014 216.764 567.628 216.7C568.25 216.629 568.702 216.513 568.985 216.35C569.275 216.188 569.42 215.905 569.42 215.502V215.418C569.42 214.372 569.133 213.559 568.561 212.98C567.996 212.401 567.137 212.111 565.986 212.111C564.792 212.111 563.855 212.372 563.177 212.895C562.499 213.418 562.022 213.976 561.746 214.57L559.372 213.722C559.796 212.733 560.361 211.962 561.068 211.411C561.782 210.853 562.559 210.465 563.4 210.246C564.247 210.019 565.081 209.906 565.901 209.906C566.424 209.906 567.024 209.97 567.703 210.097C568.388 210.217 569.049 210.468 569.684 210.85C570.327 211.231 570.861 211.807 571.285 212.577C571.709 213.347 571.921 214.379 571.921 215.672V226.398H569.42V224.193H569.292C569.123 224.546 568.84 224.924 568.444 225.327C568.049 225.73 567.522 226.073 566.865 226.355C566.208 226.638 565.406 226.779 564.459 226.779ZM564.841 224.532C565.83 224.532 566.664 224.338 567.342 223.949C568.028 223.561 568.543 223.059 568.89 222.444C569.243 221.83 569.42 221.183 569.42 220.505V218.216C569.314 218.343 569.08 218.459 568.72 218.565C568.367 218.664 567.957 218.753 567.491 218.83C567.031 218.901 566.583 218.965 566.145 219.021C565.714 219.071 565.364 219.113 565.095 219.148C564.445 219.233 563.838 219.371 563.272 219.562C562.714 219.745 562.262 220.024 561.916 220.399C561.577 220.766 561.407 221.268 561.407 221.904C561.407 222.773 561.729 223.43 562.372 223.875C563.022 224.313 563.845 224.532 564.841 224.532ZM583.1 226.737C581.573 226.737 580.259 226.376 579.157 225.656C578.055 224.935 577.207 223.942 576.613 222.678C576.02 221.413 575.723 219.968 575.723 218.343C575.723 216.689 576.027 215.23 576.634 213.966C577.249 212.694 578.104 211.701 579.199 210.987C580.302 210.267 581.587 209.906 583.057 209.906C584.202 209.906 585.233 210.118 586.152 210.542C587.07 210.966 587.823 211.56 588.409 212.323C588.996 213.086 589.36 213.976 589.501 214.994H587C586.809 214.252 586.385 213.595 585.728 213.022C585.078 212.443 584.202 212.153 583.1 212.153C582.124 212.153 581.27 212.408 580.535 212.916C579.807 213.418 579.238 214.128 578.828 215.047C578.426 215.958 578.224 217.029 578.224 218.258C578.224 219.516 578.422 220.611 578.818 221.543C579.22 222.476 579.786 223.2 580.513 223.716C581.248 224.232 582.11 224.49 583.1 224.49C583.75 224.49 584.34 224.377 584.869 224.151C585.399 223.925 585.848 223.6 586.215 223.176C586.583 222.752 586.844 222.243 587 221.649H589.501C589.36 222.61 589.01 223.476 588.452 224.246C587.901 225.009 587.169 225.617 586.258 226.069C585.353 226.514 584.301 226.737 583.1 226.737ZM604.265 232.502V223.896H604.053C603.869 224.193 603.607 224.568 603.268 225.02C602.929 225.465 602.445 225.864 601.816 226.217C601.188 226.564 600.35 226.737 599.305 226.737C597.948 226.737 596.75 226.394 595.712 225.709C594.673 225.016 593.86 224.041 593.274 222.784C592.688 221.519 592.394 220.024 592.394 218.3C592.394 216.59 592.688 215.107 593.274 213.849C593.86 212.591 594.677 211.62 595.722 210.934C596.768 210.249 597.976 209.906 599.347 209.906C600.407 209.906 601.244 210.083 601.859 210.436C602.481 210.783 602.954 211.178 603.279 211.623C603.611 212.061 603.869 212.422 604.053 212.704H604.349V210.118H606.766V232.502H604.265ZM599.644 224.49C600.647 224.49 601.495 224.228 602.187 223.706C602.88 223.176 603.406 222.444 603.766 221.512C604.127 220.572 604.307 219.487 604.307 218.258C604.307 217.043 604.13 215.979 603.777 215.068C603.424 214.149 602.901 213.436 602.209 212.927C601.516 212.411 600.661 212.153 599.644 212.153C598.584 212.153 597.701 212.425 596.994 212.969C596.295 213.506 595.768 214.238 595.415 215.163C595.069 216.082 594.896 217.113 594.896 218.258C594.896 219.417 595.072 220.47 595.425 221.416C595.786 222.356 596.316 223.105 597.015 223.663C597.722 224.214 598.598 224.49 599.644 224.49ZM621.604 219.742V210.118H624.105V226.398H621.604V223.642H621.434C621.053 224.469 620.459 225.172 619.654 225.751C618.848 226.323 617.831 226.61 616.601 226.61C615.584 226.61 614.679 226.387 613.888 225.942C613.097 225.49 612.475 224.811 612.023 223.907C611.57 222.995 611.344 221.847 611.344 220.462V210.118H613.846V220.293C613.846 221.48 614.178 222.427 614.842 223.133C615.513 223.84 616.368 224.193 617.407 224.193C618.028 224.193 618.661 224.034 619.304 223.716C619.954 223.398 620.498 222.911 620.936 222.254C621.381 221.596 621.604 220.759 621.604 219.742ZM628.686 226.398V210.118H631.187V226.398H628.686ZM629.958 207.405C629.47 207.405 629.05 207.239 628.697 206.907C628.35 206.575 628.177 206.176 628.177 205.709C628.177 205.243 628.35 204.844 628.697 204.512C629.05 204.18 629.47 204.014 629.958 204.014C630.445 204.014 630.862 204.18 631.208 204.512C631.562 204.844 631.738 205.243 631.738 205.709C631.738 206.176 631.562 206.575 631.208 206.907C630.862 207.239 630.445 207.405 629.958 207.405ZM635.768 226.398V210.118H638.185V212.577H638.355C638.651 211.772 639.188 211.118 639.965 210.616C640.743 210.115 641.619 209.864 642.594 209.864C642.778 209.864 643.007 209.868 643.283 209.875C643.558 209.882 643.767 209.892 643.908 209.906V212.45C643.823 212.429 643.629 212.397 643.325 212.355C643.028 212.305 642.714 212.28 642.382 212.28C641.591 212.28 640.884 212.446 640.262 212.779C639.648 213.104 639.16 213.556 638.8 214.135C638.446 214.707 638.27 215.361 638.27 216.096V226.398H635.768ZM653.203 226.737C651.634 226.737 650.281 226.391 649.144 225.698C648.013 224.999 647.141 224.024 646.526 222.773C645.918 221.515 645.614 220.053 645.614 218.385C645.614 216.718 645.918 215.248 646.526 213.976C647.141 212.697 647.996 211.701 649.091 210.987C650.193 210.267 651.479 209.906 652.949 209.906C653.796 209.906 654.634 210.048 655.46 210.33C656.287 210.613 657.04 211.072 657.718 211.708C658.396 212.337 658.937 213.171 659.339 214.209C659.742 215.248 659.944 216.527 659.944 218.046V219.106H647.395V216.944H657.4C657.4 216.025 657.216 215.206 656.849 214.485C656.488 213.764 655.973 213.195 655.301 212.779C654.637 212.362 653.853 212.153 652.949 212.153C651.952 212.153 651.09 212.401 650.363 212.895C649.642 213.383 649.087 214.019 648.699 214.803C648.31 215.587 648.116 216.428 648.116 217.325V218.767C648.116 219.996 648.328 221.038 648.752 221.893C649.183 222.741 649.78 223.388 650.543 223.833C651.306 224.271 652.193 224.49 653.203 224.49C653.86 224.49 654.454 224.398 654.983 224.214C655.52 224.024 655.983 223.741 656.372 223.366C656.76 222.985 657.061 222.511 657.273 221.946L659.689 222.625C659.435 223.444 659.007 224.165 658.407 224.787C657.806 225.401 657.064 225.882 656.181 226.228C655.298 226.567 654.305 226.737 653.203 226.737ZM219.506 263.737C218.037 263.737 216.747 263.387 215.638 262.687C214.536 261.988 213.674 261.009 213.052 259.752C212.437 258.494 212.13 257.024 212.13 255.343C212.13 253.647 212.437 252.167 213.052 250.902C213.674 249.637 214.536 248.655 215.638 247.956C216.747 247.256 218.037 246.906 219.506 246.906C220.976 246.906 222.262 247.256 223.364 247.956C224.474 248.655 225.336 249.637 225.95 250.902C226.572 252.167 226.883 253.647 226.883 255.343C226.883 257.024 226.572 258.494 225.95 259.752C225.336 261.009 224.474 261.988 223.364 262.687C222.262 263.387 220.976 263.737 219.506 263.737ZM219.506 261.49C220.623 261.49 221.541 261.204 222.262 260.631C222.983 260.059 223.516 259.307 223.862 258.374C224.209 257.441 224.382 256.431 224.382 255.343C224.382 254.255 224.209 253.241 223.862 252.301C223.516 251.361 222.983 250.602 222.262 250.022C221.541 249.443 220.623 249.153 219.506 249.153C218.39 249.153 217.472 249.443 216.751 250.022C216.03 250.602 215.497 251.361 215.151 252.301C214.804 253.241 214.631 254.255 214.631 255.343C214.631 256.431 214.804 257.441 215.151 258.374C215.497 259.307 216.03 260.059 216.751 260.631C217.472 261.204 218.39 261.49 219.506 261.49ZM230.701 263.398V247.118H233.118V249.577H233.287C233.584 248.772 234.121 248.118 234.898 247.616C235.675 247.115 236.551 246.864 237.526 246.864C237.71 246.864 237.94 246.868 238.215 246.875C238.491 246.882 238.699 246.892 238.841 246.906V249.45C238.756 249.429 238.562 249.397 238.258 249.355C237.961 249.305 237.647 249.28 237.315 249.28C236.523 249.28 235.817 249.446 235.195 249.779C234.58 250.104 234.093 250.556 233.732 251.135C233.379 251.707 233.202 252.361 233.202 253.096V263.398H230.701ZM256.347 263.737C254.99 263.737 253.792 263.394 252.754 262.709C251.715 262.016 250.903 261.041 250.316 259.784C249.73 258.519 249.436 257.024 249.436 255.3C249.436 253.59 249.73 252.107 250.316 250.849C250.903 249.591 251.719 248.62 252.764 247.934C253.81 247.249 255.018 246.906 256.389 246.906C257.449 246.906 258.286 247.083 258.901 247.436C259.523 247.783 259.996 248.178 260.321 248.623C260.653 249.061 260.911 249.422 261.095 249.704H261.307V241.692H263.808V263.398H261.392V260.896H261.095C260.911 261.193 260.65 261.568 260.311 262.02C259.971 262.465 259.487 262.864 258.859 263.217C258.23 263.564 257.392 263.737 256.347 263.737ZM256.686 261.49C257.689 261.49 258.537 261.228 259.229 260.706C259.922 260.176 260.448 259.444 260.809 258.512C261.169 257.572 261.349 256.487 261.349 255.258C261.349 254.043 261.173 252.979 260.819 252.068C260.466 251.149 259.943 250.436 259.251 249.927C258.558 249.411 257.703 249.153 256.686 249.153C255.626 249.153 254.743 249.425 254.036 249.969C253.337 250.506 252.81 251.238 252.457 252.163C252.111 253.082 251.938 254.113 251.938 255.258C251.938 256.417 252.114 257.47 252.468 258.416C252.828 259.356 253.358 260.105 254.057 260.663C254.764 261.214 255.64 261.49 256.686 261.49ZM275.562 263.737C273.993 263.737 272.64 263.391 271.502 262.698C270.372 261.999 269.499 261.024 268.885 259.773C268.277 258.515 267.973 257.053 267.973 255.385C267.973 253.718 268.277 252.248 268.885 250.976C269.499 249.697 270.354 248.701 271.449 247.987C272.552 247.267 273.838 246.906 275.307 246.906C276.155 246.906 276.992 247.048 277.819 247.33C278.646 247.613 279.398 248.072 280.077 248.708C280.755 249.337 281.295 250.171 281.698 251.209C282.101 252.248 282.302 253.527 282.302 255.046V256.106H269.754V253.944H279.759C279.759 253.025 279.575 252.206 279.208 251.485C278.847 250.764 278.331 250.195 277.66 249.779C276.996 249.362 276.212 249.153 275.307 249.153C274.311 249.153 273.449 249.401 272.721 249.895C272.001 250.383 271.446 251.019 271.057 251.803C270.669 252.587 270.474 253.428 270.474 254.325V255.767C270.474 256.996 270.686 258.038 271.11 258.893C271.541 259.741 272.138 260.388 272.901 260.833C273.665 261.271 274.551 261.49 275.562 261.49C276.219 261.49 276.812 261.398 277.342 261.214C277.879 261.024 278.342 260.741 278.731 260.366C279.119 259.985 279.42 259.511 279.631 258.946L282.048 259.625C281.794 260.444 281.366 261.165 280.766 261.787C280.165 262.401 279.423 262.882 278.54 263.228C277.657 263.567 276.664 263.737 275.562 263.737ZM298.923 247.118L292.903 263.398H290.36L284.34 247.118H287.053L291.547 260.091H291.716L296.21 247.118H298.923ZM308.467 263.737C306.899 263.737 305.546 263.391 304.408 262.698C303.277 261.999 302.405 261.024 301.79 259.773C301.183 258.515 300.879 257.053 300.879 255.385C300.879 253.718 301.183 252.248 301.79 250.976C302.405 249.697 303.26 248.701 304.355 247.987C305.457 247.267 306.743 246.906 308.213 246.906C309.061 246.906 309.898 247.048 310.725 247.33C311.551 247.613 312.304 248.072 312.982 248.708C313.66 249.337 314.201 250.171 314.604 251.209C315.006 252.248 315.208 253.527 315.208 255.046V256.106H302.659V253.944H312.664C312.664 253.025 312.48 252.206 312.113 251.485C311.753 250.764 311.237 250.195 310.566 249.779C309.902 249.362 309.117 249.153 308.213 249.153C307.217 249.153 306.355 249.401 305.627 249.895C304.906 250.383 304.351 251.019 303.963 251.803C303.574 252.587 303.38 253.428 303.38 254.325V255.767C303.38 256.996 303.592 258.038 304.016 258.893C304.447 259.741 305.044 260.388 305.807 260.833C306.57 261.271 307.457 261.49 308.467 261.49C309.124 261.49 309.718 261.398 310.248 261.214C310.785 261.024 311.248 260.741 311.636 260.366C312.025 259.985 312.325 259.511 312.537 258.946L314.953 259.625C314.699 260.444 314.272 261.165 313.671 261.787C313.07 262.401 312.329 262.882 311.445 263.228C310.562 263.567 309.569 263.737 308.467 263.737ZM321.514 241.692V263.398H319.013V241.692H321.514ZM332.708 263.737C331.239 263.737 329.949 263.387 328.84 262.687C327.738 261.988 326.876 261.009 326.254 259.752C325.639 258.494 325.332 257.024 325.332 255.343C325.332 253.647 325.639 252.167 326.254 250.902C326.876 249.637 327.738 248.655 328.84 247.956C329.949 247.256 331.239 246.906 332.708 246.906C334.178 246.906 335.464 247.256 336.566 247.956C337.676 248.655 338.538 249.637 339.152 250.902C339.774 252.167 340.085 253.647 340.085 255.343C340.085 257.024 339.774 258.494 339.152 259.752C338.538 261.009 337.676 261.988 336.566 262.687C335.464 263.387 334.178 263.737 332.708 263.737ZM332.708 261.49C333.825 261.49 334.743 261.204 335.464 260.631C336.185 260.059 336.718 259.307 337.064 258.374C337.411 257.441 337.584 256.431 337.584 255.343C337.584 254.255 337.411 253.241 337.064 252.301C336.718 251.361 336.185 250.602 335.464 250.022C334.743 249.443 333.825 249.153 332.708 249.153C331.592 249.153 330.674 249.443 329.953 250.022C329.232 250.602 328.699 251.361 328.353 252.301C328.006 253.241 327.833 254.255 327.833 255.343C327.833 256.431 328.006 257.441 328.353 258.374C328.699 259.307 329.232 260.059 329.953 260.631C330.674 261.204 331.592 261.49 332.708 261.49ZM343.903 269.502V247.118H346.32V249.704H346.616C346.8 249.422 347.054 249.061 347.379 248.623C347.711 248.178 348.185 247.783 348.8 247.436C349.421 247.083 350.262 246.906 351.322 246.906C352.693 246.906 353.901 247.249 354.947 247.934C355.992 248.62 356.808 249.591 357.395 250.849C357.981 252.107 358.275 253.59 358.275 255.3C358.275 257.024 357.981 258.519 357.395 259.784C356.808 261.041 355.996 262.016 354.957 262.709C353.919 263.394 352.721 263.737 351.364 263.737C350.319 263.737 349.481 263.564 348.853 263.217C348.224 262.864 347.74 262.465 347.401 262.02C347.061 261.568 346.8 261.193 346.616 260.896H346.404V269.502H343.903ZM346.362 255.258C346.362 256.487 346.542 257.572 346.902 258.512C347.263 259.444 347.789 260.176 348.482 260.706C349.174 261.228 350.022 261.49 351.025 261.49C352.071 261.49 352.944 261.214 353.643 260.663C354.35 260.105 354.88 259.356 355.233 258.416C355.593 257.47 355.773 256.417 355.773 255.258C355.773 254.113 355.597 253.082 355.243 252.163C354.897 251.238 354.371 250.506 353.664 249.969C352.965 249.425 352.085 249.153 351.025 249.153C350.008 249.153 349.153 249.411 348.46 249.927C347.768 250.436 347.245 251.149 346.892 252.068C346.539 252.979 346.362 254.043 346.362 255.258ZM375.275 263.779C374.243 263.779 373.307 263.585 372.466 263.196C371.625 262.801 370.957 262.232 370.463 261.49C369.968 260.741 369.721 259.837 369.721 258.777C369.721 257.844 369.905 257.088 370.272 256.509C370.639 255.922 371.131 255.463 371.745 255.131C372.36 254.799 373.038 254.551 373.78 254.389C374.529 254.219 375.282 254.085 376.038 253.986C377.027 253.859 377.829 253.764 378.443 253.7C379.065 253.629 379.517 253.513 379.8 253.35C380.09 253.188 380.235 252.905 380.235 252.502V252.418C380.235 251.372 379.948 250.559 379.376 249.98C378.811 249.401 377.952 249.111 376.801 249.111C375.607 249.111 374.67 249.372 373.992 249.895C373.314 250.418 372.837 250.976 372.561 251.57L370.187 250.722C370.611 249.733 371.176 248.962 371.883 248.411C372.597 247.853 373.374 247.465 374.215 247.246C375.063 247.019 375.896 246.906 376.716 246.906C377.239 246.906 377.839 246.97 378.518 247.097C379.203 247.217 379.864 247.468 380.5 247.85C381.143 248.231 381.676 248.807 382.1 249.577C382.524 250.347 382.736 251.379 382.736 252.672V263.398H380.235V261.193H380.107C379.938 261.546 379.655 261.924 379.26 262.327C378.864 262.73 378.337 263.073 377.68 263.355C377.023 263.638 376.221 263.779 375.275 263.779ZM375.656 261.532C376.645 261.532 377.479 261.338 378.157 260.949C378.843 260.561 379.358 260.059 379.705 259.444C380.058 258.83 380.235 258.183 380.235 257.505V255.216C380.129 255.343 379.895 255.459 379.535 255.565C379.182 255.664 378.772 255.753 378.306 255.83C377.846 255.901 377.398 255.965 376.96 256.021C376.529 256.071 376.179 256.113 375.91 256.148C375.26 256.233 374.653 256.371 374.088 256.562C373.529 256.745 373.077 257.024 372.731 257.399C372.392 257.766 372.222 258.268 372.222 258.904C372.222 259.773 372.544 260.43 373.187 260.875C373.837 261.313 374.66 261.532 375.656 261.532ZM406.802 269.502V260.896H406.59C406.407 261.193 406.145 261.568 405.806 262.02C405.467 262.465 404.983 262.864 404.354 263.217C403.725 263.564 402.888 263.737 401.842 263.737C400.486 263.737 399.288 263.394 398.249 262.709C397.211 262.016 396.398 261.041 395.812 259.784C395.225 258.519 394.932 257.024 394.932 255.3C394.932 253.59 395.225 252.107 395.812 250.849C396.398 249.591 397.214 248.62 398.26 247.934C399.306 247.249 400.514 246.906 401.885 246.906C402.944 246.906 403.782 247.083 404.396 247.436C405.018 247.783 405.492 248.178 405.817 248.623C406.149 249.061 406.407 249.422 406.59 249.704H406.887V247.118H409.303V269.502H406.802ZM402.181 261.49C403.185 261.49 404.033 261.228 404.725 260.706C405.417 260.176 405.944 259.444 406.304 258.512C406.664 257.572 406.845 256.487 406.845 255.258C406.845 254.043 406.668 252.979 406.315 252.068C405.961 251.149 405.439 250.436 404.746 249.927C404.054 249.411 403.199 249.153 402.181 249.153C401.121 249.153 400.238 249.425 399.532 249.969C398.832 250.506 398.306 251.238 397.953 252.163C397.606 253.082 397.433 254.113 397.433 255.258C397.433 256.417 397.61 257.47 397.963 258.416C398.324 259.356 398.853 260.105 399.553 260.663C400.259 261.214 401.136 261.49 402.181 261.49ZM424.141 256.742V247.118H426.643V263.398H424.141V260.642H423.972C423.59 261.469 422.997 262.172 422.191 262.751C421.386 263.323 420.368 263.61 419.139 263.61C418.121 263.61 417.217 263.387 416.426 262.942C415.634 262.49 415.013 261.811 414.56 260.907C414.108 259.995 413.882 258.847 413.882 257.462V247.118H416.383V257.293C416.383 258.48 416.715 259.427 417.38 260.133C418.051 260.84 418.906 261.193 419.944 261.193C420.566 261.193 421.198 261.034 421.841 260.716C422.491 260.398 423.036 259.911 423.474 259.254C423.919 258.596 424.141 257.759 424.141 256.742ZM436.014 263.779C434.983 263.779 434.046 263.585 433.206 263.196C432.365 262.801 431.697 262.232 431.203 261.49C430.708 260.741 430.461 259.837 430.461 258.777C430.461 257.844 430.644 257.088 431.012 256.509C431.379 255.922 431.87 255.463 432.485 255.131C433.1 254.799 433.778 254.551 434.52 254.389C435.269 254.219 436.021 254.085 436.777 253.986C437.767 253.859 438.568 253.764 439.183 253.7C439.805 253.629 440.257 253.513 440.54 253.35C440.829 253.188 440.974 252.905 440.974 252.502V252.418C440.974 251.372 440.688 250.559 440.116 249.98C439.551 249.401 438.692 249.111 437.54 249.111C436.346 249.111 435.41 249.372 434.732 249.895C434.054 250.418 433.577 250.976 433.301 251.57L430.927 250.722C431.351 249.733 431.916 248.962 432.623 248.411C433.336 247.853 434.114 247.465 434.954 247.246C435.802 247.019 436.636 246.906 437.456 246.906C437.978 246.906 438.579 246.97 439.257 247.097C439.943 247.217 440.603 247.468 441.239 247.85C441.882 248.231 442.416 248.807 442.84 249.577C443.264 250.347 443.476 251.379 443.476 252.672V263.398H440.974V261.193H440.847C440.678 261.546 440.395 261.924 439.999 262.327C439.604 262.73 439.077 263.073 438.42 263.355C437.763 263.638 436.961 263.779 436.014 263.779ZM436.396 261.532C437.385 261.532 438.219 261.338 438.897 260.949C439.582 260.561 440.098 260.059 440.444 259.444C440.798 258.83 440.974 258.183 440.974 257.505V255.216C440.868 255.343 440.635 255.459 440.275 255.565C439.922 255.664 439.512 255.753 439.045 255.83C438.586 255.901 438.137 255.965 437.699 256.021C437.268 256.071 436.919 256.113 436.65 256.148C436 256.233 435.392 256.371 434.827 256.562C434.269 256.745 433.817 257.024 433.471 257.399C433.131 257.766 432.962 258.268 432.962 258.904C432.962 259.773 433.283 260.43 433.926 260.875C434.576 261.313 435.4 261.532 436.396 261.532ZM450.542 241.692V263.398H448.041V241.692H450.542ZM455.123 263.398V247.118H457.624V263.398H455.123ZM456.395 244.405C455.908 244.405 455.487 244.239 455.134 243.907C454.788 243.575 454.614 243.176 454.614 242.709C454.614 242.243 454.788 241.844 455.134 241.512C455.487 241.18 455.908 241.014 456.395 241.014C456.883 241.014 457.299 241.18 457.646 241.512C457.999 241.844 458.176 242.243 458.176 242.709C458.176 243.176 457.999 243.575 457.646 243.907C457.299 244.239 456.883 244.405 456.395 244.405ZM469.285 247.118V249.238H460.849V247.118H469.285ZM463.308 243.218H465.809V258.734C465.809 259.441 465.912 259.971 466.116 260.324C466.328 260.67 466.597 260.903 466.922 261.024C467.254 261.137 467.604 261.193 467.971 261.193C468.247 261.193 468.473 261.179 468.65 261.151C468.826 261.115 468.967 261.087 469.073 261.066L469.582 263.313C469.413 263.376 469.176 263.44 468.872 263.504C468.568 263.574 468.183 263.61 467.717 263.61C467.01 263.61 466.318 263.458 465.64 263.154C464.968 262.85 464.41 262.387 463.965 261.765C463.527 261.144 463.308 260.359 463.308 259.413V243.218ZM474.659 269.502C474.235 269.502 473.857 269.467 473.525 269.396C473.193 269.333 472.963 269.269 472.836 269.206L473.472 267.001C474.079 267.156 474.616 267.213 475.083 267.171C475.549 267.128 475.962 266.92 476.323 266.545C476.69 266.178 477.026 265.581 477.33 264.754L477.796 263.482L471.776 247.118H474.489L478.983 260.091H479.153L483.646 247.118H486.36L479.449 265.772C479.138 266.612 478.753 267.308 478.294 267.86C477.835 268.418 477.301 268.831 476.694 269.1C476.093 269.368 475.415 269.502 474.659 269.502ZM504.668 263.737C503.199 263.737 501.909 263.387 500.8 262.687C499.698 261.988 498.836 261.009 498.214 259.752C497.599 258.494 497.292 257.024 497.292 255.343C497.292 253.647 497.599 252.167 498.214 250.902C498.836 249.637 499.698 248.655 500.8 247.956C501.909 247.256 503.199 246.906 504.668 246.906C506.138 246.906 507.424 247.256 508.526 247.956C509.635 248.655 510.497 249.637 511.112 250.902C511.734 252.167 512.045 253.647 512.045 255.343C512.045 257.024 511.734 258.494 511.112 259.752C510.497 261.009 509.635 261.988 508.526 262.687C507.424 263.387 506.138 263.737 504.668 263.737ZM504.668 261.49C505.785 261.49 506.703 261.204 507.424 260.631C508.145 260.059 508.678 259.307 509.024 258.374C509.371 257.441 509.544 256.431 509.544 255.343C509.544 254.255 509.371 253.241 509.024 252.301C508.678 251.361 508.145 250.602 507.424 250.022C506.703 249.443 505.785 249.153 504.668 249.153C503.552 249.153 502.633 249.443 501.913 250.022C501.192 250.602 500.659 251.361 500.312 252.301C499.966 253.241 499.793 254.255 499.793 255.343C499.793 256.431 499.966 257.441 500.312 258.374C500.659 259.307 501.192 260.059 501.913 260.631C502.633 261.204 503.552 261.49 504.668 261.49ZM515.863 263.398V247.118H518.279V249.577H518.449C518.746 248.772 519.283 248.118 520.06 247.616C520.837 247.115 521.713 246.864 522.688 246.864C522.872 246.864 523.102 246.868 523.377 246.875C523.653 246.882 523.861 246.892 524.003 246.906V249.45C523.918 249.429 523.723 249.397 523.42 249.355C523.123 249.305 522.808 249.28 522.476 249.28C521.685 249.28 520.978 249.446 520.357 249.779C519.742 250.104 519.254 250.556 518.894 251.135C518.541 251.707 518.364 252.361 518.364 253.096V263.398H515.863ZM546.893 250.764L544.646 251.4C544.504 251.026 544.296 250.662 544.02 250.308C543.752 249.948 543.384 249.651 542.918 249.418C542.452 249.185 541.855 249.068 541.127 249.068C540.131 249.068 539.301 249.298 538.636 249.757C537.979 250.21 537.651 250.785 537.651 251.485C537.651 252.107 537.877 252.598 538.329 252.958C538.781 253.318 539.488 253.619 540.449 253.859L542.865 254.452C544.321 254.806 545.405 255.346 546.119 256.074C546.832 256.795 547.189 257.724 547.189 258.861C547.189 259.794 546.921 260.628 546.384 261.363C545.854 262.098 545.112 262.677 544.158 263.101C543.204 263.525 542.095 263.737 540.83 263.737C539.17 263.737 537.796 263.376 536.707 262.656C535.619 261.935 534.93 260.882 534.641 259.497L537.015 258.904C537.241 259.78 537.668 260.437 538.297 260.875C538.933 261.313 539.763 261.532 540.788 261.532C541.954 261.532 542.879 261.285 543.565 260.79C544.257 260.289 544.603 259.688 544.603 258.989C544.603 258.423 544.405 257.95 544.01 257.568C543.614 257.18 543.006 256.89 542.187 256.699L539.474 256.063C537.983 255.71 536.888 255.163 536.188 254.421C535.496 253.672 535.149 252.736 535.149 251.612C535.149 250.694 535.407 249.881 535.923 249.174C536.446 248.468 537.156 247.913 538.053 247.511C538.958 247.108 539.982 246.906 541.127 246.906C542.738 246.906 544.003 247.26 544.921 247.966C545.847 248.673 546.504 249.605 546.893 250.764ZM553.286 257.462L553.244 254.368H553.752L560.875 247.118H563.969L556.381 254.792H556.169L553.286 257.462ZM550.954 263.398V241.692H553.456V263.398H550.954ZM561.298 263.398L554.939 255.343L556.72 253.605L564.478 263.398H561.298ZM567.189 263.398V247.118H569.69V263.398H567.189ZM568.46 244.405C567.973 244.405 567.552 244.239 567.199 243.907C566.853 243.575 566.68 243.176 566.68 242.709C566.68 242.243 566.853 241.844 567.199 241.512C567.552 241.18 567.973 241.014 568.46 241.014C568.948 241.014 569.365 241.18 569.711 241.512C570.064 241.844 570.241 242.243 570.241 242.709C570.241 243.176 570.064 243.575 569.711 243.907C569.365 244.239 568.948 244.405 568.46 244.405ZM576.772 241.692V263.398H574.271V241.692H576.772ZM583.855 241.692V263.398H581.353V241.692H583.855ZM590.259 263.567C589.736 263.567 589.287 263.38 588.913 263.005C588.538 262.631 588.351 262.182 588.351 261.659C588.351 261.137 588.538 260.688 588.913 260.313C589.287 259.939 589.736 259.752 590.259 259.752C590.782 259.752 591.23 259.939 591.605 260.313C591.979 260.688 592.166 261.137 592.166 261.659C592.166 262.006 592.078 262.324 591.902 262.613C591.732 262.903 591.502 263.136 591.213 263.313C590.93 263.482 590.612 263.567 590.259 263.567Z" fill="#1F2937"/>
<path d="M191.413 103.556C187.624 103.556 184.316 102.943 181.488 101.715C178.713 100.435 176.392 98.7272 174.525 96.5928C172.657 94.4585 171.27 92.0573 170.362 89.3893C169.455 86.6679 169.002 83.8666 169.002 80.9851V79.4644C169.002 76.4762 169.482 73.6215 170.442 70.9002C171.403 68.1255 172.817 65.6709 174.685 63.5365C176.552 61.4021 178.873 59.7213 181.648 58.494C184.476 57.2668 187.704 56.6531 191.333 56.6531C195.281 56.6531 198.776 57.4269 201.818 58.9743C204.859 60.4684 207.287 62.5761 209.102 65.2974C210.916 68.0187 211.93 71.1403 212.143 74.662H199.577C199.363 72.6877 198.563 71.0336 197.176 69.6996C195.842 68.3122 193.894 67.6185 191.333 67.6185C189.198 67.6185 187.411 68.1521 185.97 69.2193C184.583 70.2865 183.542 71.7539 182.849 73.6215C182.155 75.4891 181.808 77.7035 181.808 80.2648C181.808 82.6126 182.128 84.747 182.769 86.6679C183.409 88.5355 184.423 90.0029 185.81 91.0701C187.251 92.0839 189.118 92.5909 191.413 92.5909C193.12 92.5909 194.561 92.2974 195.735 91.7104C196.962 91.0701 197.923 90.2164 198.616 89.1492C199.363 88.0286 199.817 86.748 199.977 85.3073H212.463C212.303 88.9357 211.289 92.1373 209.422 94.912C207.554 97.6334 205.073 99.7677 201.978 101.315C198.883 102.809 195.361 103.556 191.413 103.556ZM235.861 103.396C230.792 103.396 226.897 101.769 224.175 98.5138C221.454 95.2055 220.093 90.243 220.093 83.6264V58.1739H232.9V84.2668C232.9 86.6146 233.567 88.4822 234.901 89.8695C236.235 91.2569 238.022 91.9505 240.263 91.9505C242.558 91.9505 244.425 91.2302 245.866 89.7895C247.307 88.3488 248.027 86.4011 248.027 83.9466V58.1739H260.833V102.036H250.668V83.5464H251.549C251.549 87.9753 250.962 91.6838 249.788 94.6719C248.667 97.6067 246.986 99.7944 244.745 101.235C242.504 102.676 239.73 103.396 236.421 103.396H235.861ZM273.602 102.036V43.6067H286.488V102.036H273.602ZM268.4 53.0514V43.6067H286.488V53.0514H268.4ZM318.619 102.596C314.19 102.596 310.615 102.062 307.893 100.995C305.172 99.8745 303.171 98.0335 301.89 95.4723C300.663 92.8577 300.05 89.3359 300.05 84.9071V46.328H311.975V85.3873C311.975 87.4683 312.509 89.0691 313.576 90.1897C314.697 91.2569 316.271 91.7905 318.299 91.7905H324.782V102.596H318.619ZM293.406 67.5385V58.1739H324.782V67.5385H293.406ZM335.875 102.036V58.1739H348.681V102.036H335.875ZM330.032 67.6185V58.1739H348.681V67.6185H330.032ZM340.837 53.8518C338.436 53.8518 336.648 53.2381 335.475 52.0109C334.354 50.7302 333.794 49.1294 333.794 47.2085C333.794 45.2342 334.354 43.6334 335.475 42.4061C336.648 41.1255 338.436 40.4852 340.837 40.4852C343.238 40.4852 344.999 41.1255 346.12 42.4061C347.294 43.6334 347.881 45.2342 347.881 47.2085C347.881 49.1294 347.294 50.7302 346.12 52.0109C344.999 53.2381 343.238 53.8518 340.837 53.8518ZM369.41 102.036L356.284 58.1739H369.49L381.816 102.036H369.41ZM373.412 102.036V91.3903H386.298V102.036H373.412ZM378.134 102.036L388.78 58.1739H401.106L389.74 102.036H378.134ZM434.874 102.036V89.0691H432.712V74.9822C432.712 72.7411 432.179 71.0602 431.112 69.9397C430.044 68.8191 428.337 68.2589 425.989 68.2589C424.815 68.2589 423.268 68.2855 421.347 68.3389C419.426 68.3923 417.452 68.4723 415.424 68.579C413.396 68.6857 411.555 68.7925 409.901 68.8992V58.0938C411.129 57.9871 412.569 57.8804 414.223 57.7737C415.878 57.667 417.585 57.5869 419.346 57.5336C421.107 57.4802 422.761 57.4535 424.308 57.4535C428.791 57.4535 432.552 58.0938 435.594 59.3745C438.689 60.6551 441.037 62.6027 442.637 65.2174C444.238 67.7786 445.039 71.0869 445.039 75.1423V102.036H434.874ZM420.867 103.156C417.718 103.156 414.944 102.596 412.543 101.475C410.195 100.355 408.354 98.7539 407.02 96.6729C405.686 94.5385 405.019 92.0039 405.019 89.0691C405.019 85.8675 405.846 83.2529 407.5 81.2253C409.154 79.1442 411.475 77.6235 414.463 76.663C417.452 75.6492 420.893 75.1423 424.789 75.1423H434.153V82.2658H424.709C422.467 82.2658 420.733 82.826 419.506 83.9466C418.332 85.0138 417.745 86.4812 417.745 88.3488C417.745 90.1096 418.332 91.5504 419.506 92.6709C420.733 93.7381 422.467 94.2717 424.709 94.2717C426.149 94.2717 427.43 94.0316 428.55 93.5513C429.724 93.0177 430.685 92.1373 431.432 90.91C432.179 89.6828 432.606 87.9753 432.712 85.7875L435.754 88.9891C435.487 92.0306 434.74 94.5919 433.513 96.6729C432.339 98.7539 430.685 100.355 428.55 101.475C426.469 102.596 423.908 103.156 420.867 103.156ZM476.234 102.596C471.805 102.596 468.23 102.062 465.509 100.995C462.787 99.8745 460.786 98.0335 459.506 95.4723C458.278 92.8577 457.665 89.3359 457.665 84.9071V46.328H469.591V85.3873C469.591 87.4683 470.124 89.0691 471.191 90.1897C472.312 91.2569 473.886 91.7905 475.914 91.7905H482.397V102.596H476.234ZM451.021 67.5385V58.1739H482.397V67.5385H451.021ZM493.49 102.036V58.1739H506.296V102.036H493.49ZM487.647 67.6185V58.1739H506.296V67.6185H487.647ZM498.452 53.8518C496.051 53.8518 494.264 53.2381 493.09 52.0109C491.969 50.7302 491.409 49.1294 491.409 47.2085C491.409 45.2342 491.969 43.6334 493.09 42.4061C494.264 41.1255 496.051 40.4852 498.452 40.4852C500.854 40.4852 502.614 41.1255 503.735 42.4061C504.909 43.6334 505.496 45.2342 505.496 47.2085C505.496 49.1294 504.909 50.7302 503.735 52.0109C502.614 53.2381 500.854 53.8518 498.452 53.8518ZM539.912 103.556C536.07 103.556 532.655 102.969 529.667 101.795C526.678 100.568 524.144 98.914 522.063 96.833C520.035 94.7519 518.488 92.3774 517.421 89.7094C516.353 86.9881 515.82 84.1334 515.82 81.1452V79.3043C515.82 76.2628 516.353 73.3814 517.421 70.66C518.541 67.8853 520.142 65.4575 522.223 63.3765C524.357 61.2954 526.919 59.668 529.907 58.494C532.895 57.2668 536.23 56.6531 539.912 56.6531C543.7 56.6531 547.062 57.2668 549.997 58.494C552.985 59.668 555.519 61.2954 557.6 63.3765C559.681 65.4575 561.282 67.8853 562.403 70.66C563.523 73.3814 564.084 76.2628 564.084 79.3043V81.1452C564.084 84.1334 563.55 86.9881 562.483 89.7094C561.416 92.3774 559.841 94.7519 557.76 96.833C555.733 98.914 553.225 100.568 550.237 101.795C547.249 102.969 543.807 103.556 539.912 103.556ZM539.912 92.7509C542.42 92.7509 544.501 92.2173 546.155 91.1502C547.809 90.083 549.063 88.5889 549.917 86.6679C550.824 84.747 551.277 82.6126 551.277 80.2648C551.277 77.7569 550.824 75.5691 549.917 73.7015C549.009 71.7806 547.702 70.2598 545.995 69.1393C544.34 68.0187 542.313 67.4585 539.912 67.4585C537.564 67.4585 535.536 68.0187 533.829 69.1393C532.121 70.2598 530.814 71.7806 529.907 73.7015C529.053 75.5691 528.626 77.7569 528.626 80.2648C528.626 82.6126 529.053 84.747 529.907 86.6679C530.76 88.5889 532.041 90.083 533.749 91.1502C535.456 92.2173 537.51 92.7509 539.912 92.7509ZM573.421 102.036V58.1739H583.586V76.9832H582.866C582.866 72.501 583.426 68.7658 584.547 65.7776C585.721 62.7895 587.482 60.5484 589.829 59.0543C592.177 57.5603 595.032 56.8132 598.394 56.8132H598.954C604.076 56.8132 607.972 58.494 610.64 61.8557C613.361 65.164 614.722 70.2065 614.722 76.9832V102.036H601.915V76.2628C601.915 73.915 601.222 71.994 599.834 70.5C598.447 69.0059 596.579 68.2589 594.232 68.2589C591.83 68.2589 589.883 69.0326 588.389 70.58C586.948 72.0741 586.228 74.0484 586.228 76.5029V102.036H573.421Z" fill="#1F2937"/>
<path d="M236.892 154.562L234.622 168.361H231.098L234.921 145.422H238.326L237.729 149.006H238.027C238.744 147.841 239.715 146.905 240.94 146.199C242.164 145.482 243.643 145.123 245.375 145.123C246.908 145.123 248.203 145.442 249.258 146.079C250.323 146.706 251.075 147.662 251.513 148.946C251.961 150.221 252.026 151.834 251.707 153.785L249.258 168.361H245.734L248.123 154.024C248.422 152.232 248.188 150.828 247.421 149.813C246.664 148.797 245.465 148.289 243.822 148.289C242.687 148.289 241.637 148.533 240.671 149.021C239.715 149.509 238.904 150.221 238.237 151.157C237.579 152.093 237.131 153.228 236.892 154.562ZM265.167 168.839C263.056 168.839 261.289 168.336 259.865 167.33C258.441 166.325 257.436 164.916 256.848 163.104C256.271 161.292 256.176 159.181 256.565 156.772C256.943 154.422 257.695 152.376 258.82 150.634C259.955 148.882 261.363 147.528 263.046 146.572C264.738 145.606 266.6 145.123 268.631 145.123C270.742 145.123 272.504 145.631 273.918 146.647C275.342 147.652 276.347 149.066 276.935 150.888C277.522 152.7 277.622 154.821 277.233 157.25C276.855 159.58 276.093 161.616 274.948 163.358C273.813 165.09 272.405 166.439 270.722 167.405C269.049 168.361 267.198 168.839 265.167 168.839ZM265.226 165.673C266.839 165.673 268.238 165.26 269.423 164.433C270.618 163.607 271.583 162.517 272.32 161.163C273.067 159.809 273.57 158.345 273.828 156.772C274.067 155.279 274.057 153.89 273.799 152.605C273.54 151.311 272.987 150.271 272.141 149.484C271.295 148.688 270.105 148.289 268.572 148.289C266.959 148.289 265.55 148.707 264.345 149.544C263.15 150.38 262.185 151.48 261.448 152.844C260.711 154.208 260.218 155.677 259.97 157.25C259.731 158.743 259.736 160.132 259.984 161.416C260.243 162.691 260.796 163.721 261.642 164.508C262.498 165.284 263.693 165.673 265.226 165.673ZM296.801 158.982L299.071 145.422H302.595L298.772 168.361H295.248L295.905 164.478H295.666C294.949 165.643 293.948 166.633 292.664 167.45C291.38 168.256 289.871 168.66 288.139 168.66C286.705 168.66 285.481 168.346 284.465 167.719C283.46 167.081 282.743 166.126 282.315 164.851C281.897 163.567 281.847 161.949 282.165 159.998L284.615 145.422H288.139L285.75 159.759C285.481 161.431 285.735 162.766 286.511 163.761C287.288 164.757 288.408 165.255 289.871 165.255C290.748 165.255 291.674 165.031 292.649 164.582C293.635 164.134 294.511 163.447 295.278 162.522C296.054 161.596 296.562 160.416 296.801 158.982ZM311.022 154.562L308.752 168.361H305.228L309.051 145.422H312.456L311.858 149.006H312.157C312.874 147.841 313.845 146.905 315.069 146.199C316.294 145.482 317.772 145.123 319.505 145.123C321.038 145.123 322.332 145.442 323.387 146.079C324.453 146.706 325.204 147.662 325.643 148.946C326.091 150.221 326.155 151.834 325.837 153.785L323.387 168.361H319.863L322.252 154.024C322.551 152.232 322.317 150.828 321.551 149.813C320.794 148.797 319.594 148.289 317.951 148.289C316.816 148.289 315.766 148.533 314.8 149.021C313.845 149.509 313.033 150.221 312.366 151.157C311.709 152.093 311.261 153.228 311.022 154.562ZM332.815 168.6C332.058 168.6 331.426 168.341 330.918 167.823C330.41 167.296 330.146 166.658 330.127 165.912C330.117 165.165 330.38 164.543 330.918 164.045C331.456 163.537 332.088 163.283 332.815 163.283C333.551 163.283 334.189 163.542 334.726 164.06C335.264 164.578 335.523 165.195 335.503 165.912C335.493 166.409 335.363 166.862 335.115 167.271C334.876 167.679 334.552 168.002 334.144 168.241C333.746 168.48 333.303 168.6 332.815 168.6Z" fill="#1F2937"/>
<path d="M184.755 139.945L178.05 146.544H170.358C169.358 146.544 168.549 147.34 168.549 148.324V159.007C168.549 159.99 169.358 160.788 170.358 160.788H178.05L184.755 167.387C185.888 168.502 187.843 167.719 187.843 166.128V141.204C187.843 139.611 185.886 138.831 184.755 139.945ZM202.34 136.155C201.498 135.611 200.366 135.84 199.814 136.671C199.261 137.499 199.496 138.613 200.338 139.157C205.332 142.383 208.313 147.807 208.313 153.667C208.313 159.526 205.332 164.95 200.338 168.176C199.496 168.72 199.261 169.834 199.814 170.662C200.345 171.456 201.467 171.742 202.34 171.177C208.363 167.285 211.96 160.738 211.96 153.666C211.96 146.593 208.363 140.047 202.34 136.155ZM204.725 153.666C204.725 148.953 202.309 144.619 198.261 142.075C197.417 141.545 196.299 141.791 195.765 142.628C195.23 143.465 195.48 144.572 196.323 145.103C199.319 146.987 201.107 150.187 201.107 153.666C201.107 157.145 199.319 160.345 196.323 162.229C195.48 162.758 195.23 163.866 195.765 164.704C196.255 165.472 197.356 165.827 198.261 165.257C202.309 162.712 204.725 158.38 204.725 153.666ZM194.04 147.963C193.167 147.493 192.066 147.803 191.582 148.664C191.101 149.525 191.42 150.608 192.295 151.083C193.268 151.609 193.872 152.6 193.872 153.666C193.872 154.733 193.268 155.722 192.295 156.248C191.42 156.724 191.102 157.806 191.583 158.668C192.068 159.533 193.17 159.84 194.041 159.369C196.168 158.215 197.49 156.03 197.49 153.665C197.49 151.3 196.168 149.116 194.04 147.963Z" fill="#1F2937"/>
<path d="M364.948 174.286V136.054H373.789V138.982H368.294V171.359H373.789V174.286H364.948ZM389.265 136.054L379.408 172.673H376.183L386.039 136.054H389.265ZM396.728 159.71L396.669 155.349H397.385L407.421 145.134H411.782L401.089 155.947H400.79L396.728 159.71ZM393.443 168.073V137.488H396.967V168.073H393.443ZM408.019 168.073L399.058 156.723L401.567 154.274L412.499 168.073H408.019ZM414.526 168.073L423.009 145.134H426.593L435.076 168.073H431.252L424.92 149.794H424.681L418.349 168.073H414.526ZM443.252 137.488V168.073H439.728V137.488H443.252ZM459.683 145.134V148.121H447.796V145.134H459.683ZM451.261 139.639H454.785V161.502C454.785 162.498 454.929 163.245 455.218 163.742C455.517 164.23 455.895 164.559 456.353 164.728C456.821 164.887 457.314 164.967 457.832 164.967C458.22 164.967 458.538 164.947 458.787 164.907C459.036 164.858 459.235 164.818 459.385 164.788L460.102 167.954C459.863 168.043 459.529 168.133 459.101 168.223C458.673 168.322 458.13 168.372 457.473 168.372C456.478 168.372 455.502 168.158 454.546 167.73C453.6 167.302 452.814 166.65 452.186 165.774C451.569 164.897 451.261 163.792 451.261 162.458V139.639ZM474.423 145.851V149.137H464.208V145.851H474.423ZM471.317 145.851V168.073H467.195V145.851H471.317ZM474.423 164.788V168.073H464.208V164.788H474.423ZM482.088 136.054V144.418H478.982V136.054H482.088ZM506.207 145.134L497.724 168.073H494.14L485.658 145.134H489.481L495.813 163.414H496.052L502.384 145.134H506.207ZM519.655 168.551C517.445 168.551 515.538 168.063 513.936 167.088C512.343 166.102 511.113 164.728 510.247 162.966C509.391 161.194 508.962 159.133 508.962 156.783C508.962 154.433 509.391 152.363 510.247 150.571C511.113 148.768 512.318 147.365 513.861 146.359C515.414 145.344 517.226 144.836 519.297 144.836C520.492 144.836 521.671 145.035 522.836 145.433C524.001 145.831 525.062 146.479 526.017 147.375C526.973 148.261 527.735 149.436 528.302 150.899C528.87 152.363 529.153 154.165 529.153 156.305V157.799H511.471V154.752H525.569C525.569 153.458 525.31 152.303 524.793 151.287C524.285 150.272 523.558 149.47 522.612 148.883C521.676 148.296 520.571 148.002 519.297 148.002C517.893 148.002 516.678 148.35 515.653 149.047C514.637 149.734 513.856 150.63 513.308 151.735C512.761 152.841 512.487 154.025 512.487 155.29V157.321C512.487 159.053 512.786 160.522 513.383 161.726C513.99 162.921 514.832 163.832 515.907 164.459C516.982 165.077 518.232 165.385 519.655 165.385C520.581 165.385 521.418 165.256 522.164 164.997C522.921 164.728 523.573 164.33 524.121 163.802C524.668 163.265 525.091 162.597 525.39 161.801L528.795 162.757C528.437 163.912 527.834 164.927 526.988 165.803C526.142 166.67 525.096 167.347 523.852 167.834C522.607 168.312 521.208 168.551 519.655 168.551ZM543.953 145.851V149.137H533.738V145.851H543.953ZM540.847 145.851V168.073H536.725V145.851H540.847ZM543.953 164.788V168.073H533.738V164.788H543.953ZM553.769 168.193V143.581C553.769 141.162 554.431 139.315 555.755 138.041C557.079 136.756 558.906 136.114 561.236 136.114C561.654 136.114 562.082 136.144 562.52 136.204C562.968 136.254 563.416 136.323 563.864 136.413L563.625 139.698C563.356 139.639 563.038 139.594 562.669 139.564C562.311 139.534 561.953 139.519 561.594 139.519C560.429 139.519 559.508 139.868 558.831 140.565C558.164 141.262 557.831 142.267 557.831 143.581V168.193H553.769ZM550.364 177.153C549.946 177.153 549.517 177.123 549.079 177.064C548.641 177.014 548.213 176.944 547.795 176.855L547.974 173.569C548.243 173.629 548.557 173.674 548.915 173.704C549.283 173.733 549.647 173.748 550.005 173.748C551.2 173.748 552.126 173.4 552.783 172.703C553.44 172.006 553.769 171 553.769 169.686V145.075H557.831V169.686C557.831 172.106 557.169 173.952 555.845 175.227C554.52 176.511 552.693 177.153 550.364 177.153ZM569.733 155.17C569.733 151.407 570.221 147.947 571.197 144.791C572.183 141.625 573.586 138.713 575.408 136.054H578.515C577.798 137.04 577.126 138.255 576.499 139.698C575.881 141.132 575.339 142.71 574.871 144.433C574.403 146.145 574.034 147.917 573.766 149.749C573.507 151.581 573.377 153.388 573.377 155.17C573.377 157.54 573.606 159.944 574.064 162.383C574.522 164.823 575.14 167.088 575.916 169.178C576.693 171.269 577.559 172.972 578.515 174.286H575.408C573.586 171.628 572.183 168.721 571.197 165.564C570.221 162.398 569.733 158.934 569.733 155.17ZM591.646 144.657C593.856 144.657 595.757 145.149 597.35 146.135C598.953 147.111 600.183 148.485 601.039 150.257C601.905 152.019 602.338 154.075 602.338 156.425C602.338 158.774 601.905 160.85 601.039 162.652C600.183 164.444 598.978 165.848 597.425 166.864C595.882 167.869 594.075 168.372 592.004 168.372C590.809 168.372 589.629 168.173 588.465 167.775C587.3 167.376 586.239 166.734 585.284 165.848C584.328 164.952 583.566 163.772 582.999 162.309C582.431 160.835 582.147 159.033 582.147 156.903V155.409H599.829V158.456H585.732C585.732 159.75 585.985 160.905 586.493 161.92C587.011 162.936 587.738 163.737 588.674 164.325C589.619 164.912 590.73 165.206 592.004 165.206C593.418 165.206 594.632 164.863 595.648 164.176C596.663 163.479 597.445 162.578 597.993 161.472C598.54 160.357 598.814 159.173 598.814 157.918V155.887C598.814 154.145 598.51 152.676 597.903 151.481C597.306 150.287 596.469 149.381 595.394 148.763C594.319 148.136 593.069 147.823 591.646 147.823C590.73 147.823 589.893 147.957 589.137 148.226C588.38 148.485 587.728 148.883 587.18 149.421C586.633 149.948 586.209 150.61 585.911 151.407L582.506 150.451C582.864 149.296 583.467 148.286 584.313 147.419C585.159 146.543 586.205 145.866 587.449 145.388C588.694 144.9 590.092 144.657 591.646 144.657ZM614.734 155.17C614.734 158.934 614.241 162.398 613.255 165.564C612.28 168.721 610.881 171.628 609.059 174.286H605.952C606.669 173.3 607.336 172.086 607.954 170.642C608.581 169.208 609.128 167.635 609.596 165.923C610.064 164.2 610.428 162.423 610.687 160.591C610.955 158.749 611.09 156.942 611.09 155.17C611.09 152.801 610.861 150.396 610.403 147.957C609.945 145.518 609.328 143.253 608.551 141.162C607.774 139.071 606.908 137.369 605.952 136.054H609.059C610.881 138.713 612.28 141.625 613.255 144.791C614.241 147.947 614.734 151.407 614.734 155.17ZM625.968 154.274V168.073H622.444V145.134H625.849V148.719H626.147C626.685 147.554 627.501 146.618 628.596 145.911C629.692 145.194 631.105 144.836 632.838 144.836C634.391 144.836 635.75 145.154 636.915 145.792C638.08 146.419 638.986 147.375 639.633 148.659C640.28 149.933 640.604 151.546 640.604 153.498V168.073H637.079V153.737C637.079 151.934 636.611 150.531 635.675 149.525C634.739 148.51 633.455 148.002 631.822 148.002C630.697 148.002 629.692 148.246 628.806 148.734C627.929 149.221 627.237 149.933 626.73 150.869C626.222 151.805 625.968 152.94 625.968 154.274ZM657.856 136.054L648 172.673H644.774L654.63 136.054H657.856ZM669.083 136.054V174.286H660.242V171.359H665.738V138.982H660.242V136.054H669.083Z" fill="#1F2937"/>
<rect x="0.9375" width="121.871" height="121.871" fill="#111827"/>
<path d="M96.7744 38.5725C90.264 37.001 83.3045 38.0113 77.4675 41.7155C75.7837 42.7258 74.2122 43.9605 72.8652 45.4198C71.2937 46.9913 69.9468 48.7872 68.8243 50.5832C67.5895 46.6545 65.6813 42.838 63.0995 39.4705C62.2015 38.2358 61.1913 37.1133 60.0688 35.9908C50.8643 26.7863 38.1801 23.6433 26.5061 26.4496C26.5061 26.4496 26.1694 27.3476 26.1694 27.5721V27.6843C25.3836 30.6028 25.0469 33.7458 25.0469 37.001C25.0469 57.7672 41.8843 74.6047 62.6505 74.6047C74.4367 74.6047 84.876 69.2167 91.8354 60.6857C96.8867 54.2875 98.5704 46.0933 96.7744 38.5725Z" fill="#5ACBB7"/>
<path fill-rule="evenodd" clip-rule="evenodd" d="M28.2649 89.9758V75.6279H21.8281V96.4126H101.92V75.6279H95.4828V89.9758H28.2649Z" fill="white"/>
</svg>
