<svg width="489" height="490" viewBox="0 0 489 490" fill="none" xmlns="http://www.w3.org/2000/svg">
<circle cx="244.5" cy="245.485" r="238" fill="#1F2937" stroke="#78E4CF" stroke-width="13"/>
<path d="M369.948 167.638C347.106 162.167 322.689 165.684 302.21 178.579C296.303 182.095 290.789 186.394 286.063 191.473C280.55 196.944 275.824 203.196 271.886 209.448C267.553 195.772 260.858 182.486 251.8 170.764C248.65 166.465 245.105 162.558 241.167 158.65C208.873 126.608 164.371 115.667 123.413 125.436C123.413 125.436 122.231 128.562 122.231 129.344V129.734C119.474 139.894 118.293 150.835 118.293 162.167C118.293 234.456 177.367 293.069 250.225 293.069C291.577 293.069 328.203 274.313 352.62 244.616C370.342 222.343 376.25 193.818 369.948 167.638Z" fill="#78E4CF"/>
<path fill-rule="evenodd" clip-rule="evenodd" d="M129.583 346.578V296.632H107V368.985H388V296.632H365.417V346.578H129.583Z" fill="white"/>
</svg>
