<svg width="755" height="266" viewBox="0 0 755 266" fill="none" xmlns="http://www.w3.org/2000/svg">
<rect x="0.457031" y="95.7007" width="754" height="169.514" rx="36.0808" fill="white"/>
<path d="M0.457031 36.0808C0.457031 16.1539 16.611 0 36.5378 0H326.354L560.373 4.41991e-05C571.119 4.62286e-05 579.83 8.71103 579.83 19.4566V19.4566C579.83 30.2021 588.541 38.9131 599.286 38.9131H617.121C636.523 38.9131 652.251 54.6413 652.251 74.043V74.043C652.251 93.4447 636.523 109.173 617.121 109.173H36.5378C16.6109 109.173 0.457031 93.0189 0.457031 73.092V36.0808Z" fill="white"/>
<path d="M49.0453 88.5464C44.6026 88.5464 40.7462 87.8368 37.4759 86.4176C34.2056 84.9368 31.4598 82.9623 29.2385 80.4941C27.0789 78.026 25.4437 75.2185 24.3331 72.0716C23.2841 68.9247 22.7596 65.6545 22.7596 62.2608V60.4097C22.7596 56.8309 23.315 53.4372 24.4256 50.2286C25.598 47.02 27.2948 44.1817 29.5162 41.7135C31.7375 39.2454 34.4833 37.3017 37.7536 35.8826C41.0238 34.4634 44.7877 33.7538 49.0453 33.7538C53.7347 33.7538 57.8689 34.6794 61.4477 36.5305C65.0265 38.3816 67.8648 40.9422 69.9627 44.2125C72.1224 47.4211 73.3256 51.1233 73.5724 55.3191H57.0976C56.9125 53.2829 56.1412 51.5552 54.7837 50.1361C53.4879 48.7169 51.5751 48.0073 49.0453 48.0073C46.8857 48.0073 45.0963 48.5626 43.6771 49.6733C42.3196 50.7839 41.3015 52.3265 40.6228 54.301C39.944 56.2755 39.6047 58.6203 39.6047 61.3352C39.6047 63.8651 39.8823 66.1172 40.4377 68.0917C41.0547 70.0662 42.0419 71.6088 43.3994 72.7195C44.8186 73.7685 46.7006 74.2929 49.0453 74.2929C50.773 74.2929 52.223 73.9844 53.3954 73.3674C54.5677 72.7503 55.4933 71.8865 56.172 70.7758C56.8508 69.6035 57.2827 68.246 57.4678 66.7034H73.9426C73.6958 71.0227 72.4617 74.8174 70.2404 78.0877C68.0808 81.358 65.1807 83.9187 61.5402 85.7698C57.8997 87.6209 53.7347 88.5464 49.0453 88.5464ZM100.069 88.3613C94.269 88.3613 89.7647 86.4794 86.5561 82.7154C83.4092 78.8898 81.8358 73.0589 81.8358 65.2225V35.6049H98.6808V65.6853C98.6808 67.9683 99.3596 69.8194 100.717 71.2386C102.075 72.6578 103.895 73.3674 106.178 73.3674C108.461 73.3674 110.312 72.6578 111.731 71.2386C113.15 69.8194 113.86 67.9066 113.86 65.5002V35.6049H130.705V86.6953H117.377V65.2225H118.303C118.303 70.4673 117.624 74.8174 116.266 78.2728C114.971 81.6665 113.027 84.1963 110.435 85.8623C107.844 87.5283 104.635 88.3613 100.81 88.3613H100.069ZM144.347 86.6953V19.1301H161.192V86.6953H144.347ZM138.608 31.3474V19.1301H161.192V31.3474H138.608ZM198.419 87.4358C192.866 87.4358 188.423 86.757 185.091 85.3995C181.821 84.0421 179.445 81.7899 177.964 78.643C176.484 75.4961 175.743 71.2386 175.743 65.8704L175.836 22.277H191.385L191.292 66.3332C191.292 68.6162 191.879 70.3748 193.051 71.6088C194.285 72.7812 196.043 73.3674 198.327 73.3674H205.361V87.4358H198.419ZM168.339 47.8222V35.6049H205.361V47.8222H168.339ZM217.258 86.6953V35.6049H234.103V86.6953H217.258ZM210.779 47.8222V35.6049H234.103V47.8222H210.779ZM224.2 31.5325C221.115 31.5325 218.832 30.7612 217.351 29.2186C215.932 27.6143 215.222 25.5781 215.222 23.11C215.222 20.6418 215.932 18.6365 217.351 17.0939C218.832 15.4896 221.084 14.6875 224.107 14.6875C227.193 14.6875 229.445 15.4896 230.864 17.0939C232.283 18.6365 232.993 20.6418 232.993 23.11C232.993 25.5781 232.283 27.6143 230.864 29.2186C229.445 30.7612 227.223 31.5325 224.2 31.5325ZM256.575 86.6953L241.952 35.6049H259.167L272.773 86.6953H256.575ZM261.944 86.6953V72.6269H278.326V86.6953H261.944ZM267.867 86.6953L279.437 35.6049H295.541L282.954 86.6953H267.867ZM333.823 86.6953V71.7014H331.046V55.6894C331.046 53.3446 330.491 51.6169 329.38 50.5063C328.331 49.3339 326.573 48.7477 324.105 48.7477C322.932 48.7477 321.204 48.7786 318.921 48.8403C316.638 48.902 314.232 48.9945 311.702 49.1179C309.172 49.2414 306.858 49.3648 304.761 49.4882V35.4198C306.241 35.2964 308 35.173 310.036 35.0496C312.072 34.9262 314.17 34.8336 316.33 34.7719C318.551 34.7102 320.587 34.6794 322.439 34.6794C327.683 34.6794 332.126 35.4506 335.766 36.9932C339.469 38.5358 342.276 40.8497 344.189 43.9349C346.163 47.02 347.151 50.9382 347.151 55.6894V86.6953H333.823ZM317.626 87.9911C314.047 87.9911 310.869 87.3432 308.093 86.0474C305.316 84.7517 303.125 82.9006 301.521 80.4941C299.979 78.026 299.207 75.0951 299.207 71.7014C299.207 67.8758 300.225 64.7906 302.262 62.4459C304.298 60.0394 307.105 58.2809 310.684 57.1702C314.263 56.0596 318.366 55.5042 322.994 55.5042H332.897V64.2044H322.994C320.711 64.2044 318.952 64.7906 317.718 65.963C316.484 67.0736 315.867 68.5854 315.867 70.4982C315.867 72.3493 316.484 73.861 317.718 75.0334C318.952 76.144 320.711 76.6994 322.994 76.6994C324.475 76.6994 325.771 76.4525 326.881 75.9589C328.054 75.4036 329.01 74.478 329.75 73.1823C330.491 71.8865 330.923 70.0971 331.046 67.8141L334.933 71.5163C334.625 75.0334 333.761 78.026 332.342 80.4941C330.984 82.9006 329.072 84.7517 326.604 86.0474C324.197 87.3432 321.204 87.9911 317.626 87.9911ZM383.211 87.4358C377.658 87.4358 373.215 86.757 369.883 85.3995C366.613 84.0421 364.237 81.7899 362.756 78.643C361.276 75.4961 360.535 71.2386 360.535 65.8704L360.628 22.277H376.177L376.084 66.3332C376.084 68.6162 376.671 70.3748 377.843 71.6088C379.077 72.7812 380.835 73.3674 383.119 73.3674H390.153V87.4358H383.211ZM353.131 47.8222V35.6049H390.153V47.8222H353.131ZM402.05 86.6953V35.6049H418.895V86.6953H402.05ZM395.572 47.8222V35.6049H418.895V47.8222H395.572ZM408.992 31.5325C405.907 31.5325 403.624 30.7612 402.143 29.2186C400.724 27.6143 400.014 25.5781 400.014 23.11C400.014 20.6418 400.724 18.6365 402.143 17.0939C403.624 15.4896 405.876 14.6875 408.899 14.6875C411.985 14.6875 414.237 15.4896 415.656 17.0939C417.075 18.6365 417.785 20.6418 417.785 23.11C417.785 25.5781 417.075 27.6143 415.656 29.2186C414.237 30.7612 412.015 31.5325 408.992 31.5325ZM431.742 86.6953V35.6049H445.07V57.5405H444.329C444.329 52.234 445.008 47.853 446.365 44.3976C447.723 40.8805 449.728 38.2582 452.382 36.5305C455.096 34.8028 458.367 33.9389 462.192 33.9389H462.933C468.733 33.9389 473.206 35.8826 476.353 39.7699C479.562 43.5955 481.166 49.4882 481.166 57.4479V86.6953H464.321V56.9851C464.321 54.6404 463.612 52.7276 462.192 51.2467C460.835 49.7041 458.953 48.9328 456.547 48.9328C454.14 48.9328 452.196 49.7041 450.716 51.2467C449.296 52.7276 448.587 54.7021 448.587 57.1702V86.6953H431.742ZM513.398 107.15C510.869 107.15 508.246 107.057 505.531 106.872C502.878 106.687 500.472 106.44 498.312 106.132V92.0635C500.472 92.3103 502.878 92.5263 505.531 92.7114C508.185 92.9582 510.622 93.0816 512.843 93.0816C516.669 93.0816 519.785 92.6805 522.191 91.8784C524.659 91.0763 526.48 89.8422 527.652 88.1762C528.824 86.5102 529.411 84.3814 529.411 81.7899V71.4237L532.002 65.8704C531.879 70.1897 531.046 73.9536 529.503 77.1621C527.96 80.309 525.739 82.7463 522.839 84.474C520.001 86.2017 516.545 87.0655 512.473 87.0655C509.018 87.0655 505.902 86.4485 503.125 85.2144C500.348 83.9804 497.973 82.2527 495.998 80.0313C494.085 77.7483 492.604 75.0642 491.555 71.9791C490.507 68.8939 489.982 65.531 489.982 61.8905V59.6692C489.982 56.0287 490.537 52.6659 491.648 49.5807C492.759 46.4338 494.363 43.7189 496.461 41.4359C498.559 39.0911 501.027 37.3017 503.865 36.0677C506.765 34.7719 509.974 34.124 513.491 34.124C517.563 34.124 521.081 35.0496 524.042 36.9007C527.004 38.6901 529.318 41.3125 530.984 44.7679C532.65 48.2232 533.545 52.4191 533.668 57.3554L531.817 58.0032V35.6049H545.145V80.6792C545.145 86.973 543.973 92.0635 541.628 95.9508C539.283 99.8381 535.735 102.676 530.984 104.466C526.294 106.255 520.433 107.15 513.398 107.15ZM518.119 73.1823C520.155 73.1823 521.975 72.7195 523.58 71.7939C525.246 70.8684 526.572 69.5418 527.559 67.8141C528.547 66.0247 529.04 63.8959 529.04 61.4278V59.2065C529.04 56.8 528.516 54.7638 527.467 53.0978C526.48 51.4318 525.153 50.1669 523.487 49.3031C521.821 48.4392 520.032 48.0073 518.119 48.0073C515.897 48.0073 513.923 48.5318 512.195 49.5807C510.529 50.6297 509.203 52.1106 508.215 54.0234C507.29 55.9362 506.827 58.1883 506.827 60.7799C506.827 63.3714 507.29 65.5928 508.215 67.4439C509.203 69.295 510.529 70.7141 512.195 71.7014C513.923 72.6886 515.897 73.1823 518.119 73.1823ZM554.903 86.6953V68.3694H573.044V86.6953H554.903ZM580.945 86.6953V68.3694H599.086V86.6953H580.945ZM606.987 86.6953V68.3694H625.128V86.6953H606.987Z" fill="#1F2937"/>
<rect x="29.4343" y="125.618" width="699.934" height="113.737" rx="29.0215" stroke="#1F2937" stroke-width="14.1186"/>
<path d="M45.9102 155.7C45.9102 147.903 52.2313 141.582 60.0287 141.582H115.663V223.391H60.0287C52.2313 223.391 45.9102 217.07 45.9102 209.273V155.7Z" fill="#48AD9C"/>
<rect x="124.107" y="141.582" width="69.7531" height="81.8094" fill="#48AD9C"/>
<rect x="202.303" y="141.582" width="69.7531" height="81.8094" fill="#48AD9C"/>
<rect x="280.498" y="141.582" width="69.7531" height="81.8094" fill="#48AD9C"/>
<rect x="358.695" y="141.582" width="69.7531" height="81.8094" fill="#48AD9C"/>
<rect x="436.891" y="141.582" width="69.7531" height="81.8094" fill="#48AD9C"/>
</svg>
