<?xml version="1.0" encoding="UTF-8" standalone="no"?>
<!-- Created with Inkscape (http://www.inkscape.org/) -->

<svg
   xmlns:dc="http://purl.org/dc/elements/1.1/"
   xmlns:cc="http://creativecommons.org/ns#"
   xmlns:rdf="http://www.w3.org/1999/02/22-rdf-syntax-ns#"
   xmlns:svg="http://www.w3.org/2000/svg"
   xmlns="http://www.w3.org/2000/svg"
   xmlns:sodipodi="http://sodipodi.sourceforge.net/DTD/sodipodi-0.dtd"
   xmlns:inkscape="http://www.inkscape.org/namespaces/inkscape"
   width="664.82178"
   height="127.51216"
   viewBox="0 0 175.90077 33.737591"
   version="1.1"
   id="svg8"
   inkscape:version="0.92.3 (2405546, 2018-03-11)"
   sodipodi:docname="horizontal_white.svg"
   inkscape:export-filename="/home/anxhelo/works/camp-firefox.de/PNG/horizontal_white.png"
   inkscape:export-xdpi="96"
   inkscape:export-ydpi="96">
  <defs
     id="defs2" />
  <sodipodi:namedview
     id="base"
     pagecolor="#ffffff"
     bordercolor="#666666"
     borderopacity="1.0"
     inkscape:pageopacity="0"
     inkscape:pageshadow="2"
     inkscape:zoom="0.52467208"
     inkscape:cx="279.99722"
     inkscape:cy="28.026911"
     inkscape:document-units="px"
     inkscape:current-layer="layer1"
     inkscape:document-rotation="0"
     showgrid="false"
     borderlayer="true"
     inkscape:showpageshadow="true"
     units="px"
     inkscape:pagecheckerboard="false"
     showguides="true"
     inkscape:window-width="1366"
     inkscape:window-height="715"
     inkscape:window-x="0"
     inkscape:window-y="0"
     inkscape:window-maximized="1"
     objecttolerance="10"
     guidetolerance="10"
     inkscape:snap-tangential="true"
     inkscape:snap-perpendicular="true"
     fit-margin-top="0"
     fit-margin-left="0"
     fit-margin-right="0"
     fit-margin-bottom="0">
    <inkscape:grid
       type="xygrid"
       id="grid10"
       dotted="false"
       originx="-125.10929"
       originy="-111.64704" />
  </sodipodi:namedview>
  <metadata
     id="metadata5">
    <rdf:RDF>
      <cc:Work
         rdf:about="">
        <dc:format>image/svg+xml</dc:format>
        <dc:type
           rdf:resource="http://purl.org/dc/dcmitype/StillImage" />
        <dc:title></dc:title>
        <cc:license
           rdf:resource="" />
      </cc:Work>
    </rdf:RDF>
  </metadata>
  <g
     inkscape:label="Layer 1"
     inkscape:groupmode="layer"
     id="layer1"
     transform="translate(-125.10928,-151.61537)">
    <g
       id="g926"
       transform="matrix(0.34983139,0,0,0.34983139,125.11482,151.61537)"
       style="fill:#ffffff">
      <g
         id="g914"
         style="fill:#ffffff">
        <path
           id="path884"
           d="m 96.7,79.1 c -1.9,0 -3.8,-0.4 -5.5,-1.1 -1.7,-0.8 -3.2,-1.8 -4.5,-3.1 -1.3,-1.3 -2.3,-2.8 -3,-4.6 -0.8,-1.7 -1.1,-3.6 -1.1,-5.6 V 59 c 0,-2 0.4,-3.8 1.1,-5.6 0.8,-1.7 1.8,-3.3 3,-4.6 1.3,-1.3 2.8,-2.3 4.5,-3.1 1.7,-0.8 3.5,-1.1 5.5,-1.1 h 1.4 c 1.4,0 2.9,0.3 4.4,0.9 1.5,0.6 2.7,1.3 3.4,2 l 2.8,2.9 v 1.4 l -3.5,3.6 h -1.4 c -0.2,-0.2 -0.4,-0.4 -0.7,-0.8 -0.3,-0.3 -0.6,-0.6 -1.1,-0.9 -0.4,-0.3 -1,-0.6 -1.6,-0.8 C 99.8,52.7 99,52.5 98.1,52.5 H 96.7 C 95.3,52.5 94,53 92.8,54 91.6,55 91,56.4 91,58.2 v 7.2 c 0,1.8 0.6,3.2 1.8,4.2 1.2,1 2.5,1.5 3.9,1.5 h 1.4 c 0.9,0 1.7,-0.1 2.3,-0.4 0.6,-0.2 1.2,-0.5 1.6,-0.8 0.4,-0.3 0.8,-0.6 1.1,-0.9 0.3,-0.3 0.5,-0.6 0.7,-0.8 h 1.4 l 3.5,3.6 v 1.4 l -2.8,2.9 c -0.7,0.7 -1.8,1.4 -3.4,2 -1.5,0.6 -3,0.9 -4.4,0.9 h -1.4 z"
           class="st0"
           inkscape:connector-curvature="0"
           style="fill:#ffffff" />
        <path
           id="path886"
           d="m 128.8,44.6 c 1.6,0 3.1,0.3 4.5,0.9 1.4,0.6 2.6,1.4 3.6,2.4 1,1 1.8,2.2 2.4,3.6 0.6,1.4 0.9,2.9 0.9,4.5 V 78.3 L 139.5,79 H 138 l -2.8,-2.9 c -1.2,1 -2.5,1.7 -3.8,2.2 -1.3,0.5 -2.9,0.7 -4.7,0.7 h -4.2 c -1.4,0 -2.8,-0.3 -4,-0.8 -1.3,-0.5 -2.4,-1.3 -3.4,-2.2 -1,-0.9 -1.8,-2.1 -2.3,-3.4 -0.6,-1.3 -0.8,-2.8 -0.8,-4.4 0,-1.6 0.3,-3.1 0.8,-4.3 0.6,-1.2 1.3,-2.3 2.3,-3.2 1,-0.9 2.1,-1.5 3.4,-1.9 1.3,-0.4 2.6,-0.6 4,-0.6 h 9.2 V 56 c 0,-1.1 -0.3,-2 -1,-2.6 -0.6,-0.6 -1.5,-1 -2.6,-1 h -4.2 c -0.9,0 -1.7,0.1 -2.3,0.4 -0.6,0.2 -1.2,0.5 -1.6,0.8 -0.4,0.3 -0.8,0.6 -1.1,0.9 -0.3,0.3 -0.5,0.6 -0.7,0.8 h -1.4 l -3.5,-3.6 v -1.4 l 2.8,-2.9 c 0.7,-0.7 1.8,-1.4 3.4,-2 1.5,-0.6 3,-0.9 4.4,-0.9 h 4.9 z M 123,65.4 c -0.3,0 -0.7,0 -1.1,0.1 -0.4,0.1 -0.8,0.3 -1.1,0.5 -0.4,0.2 -0.6,0.5 -0.9,0.9 -0.2,0.4 -0.4,0.8 -0.4,1.4 0,0.5 0.1,1 0.4,1.4 0.2,0.4 0.5,0.7 0.9,0.9 0.4,0.2 0.7,0.4 1.1,0.5 0.4,0.1 0.8,0.1 1.1,0.1 h 3.6 c 1,0 1.9,-0.2 2.5,-0.7 0.7,-0.5 1.2,-1 1.5,-1.7 0.4,-0.6 0.6,-1.3 0.7,-1.9 0.1,-0.6 0.2,-1.1 0.2,-1.5 z"
           class="st0"
           inkscape:connector-curvature="0"
           style="fill:#ffffff" />
        <path
           id="path888"
           d="m 182.6,44.6 c 1.6,0 3.1,0.3 4.5,0.9 1.4,0.6 2.6,1.4 3.6,2.4 1,1 1.8,2.2 2.4,3.6 0.6,1.4 0.9,2.9 0.9,4.5 v 22.3 l -1.4,0.7 h -7.1 V 78.3 56.1 c 0,-1.1 -0.3,-2 -1,-2.6 -0.7,-0.6 -1.5,-1 -2.6,-1 h -1.3 c -1.4,0 -2.7,0.5 -3.9,1.5 -1.2,1 -1.8,2.3 -1.8,4 v 20.3 l -0.7,0.7 h -7.1 l -0.7,-0.7 V 56.1 c 0,-1.1 -0.3,-2 -1,-2.6 -0.7,-0.6 -1.5,-1 -2.6,-1 h -1.3 c -1.4,0 -2.7,0.5 -3.9,1.5 -1.2,1 -1.8,2.4 -1.8,4.2 V 78.3 L 155.1,79 H 148 l -0.7,-0.7 v -33 l 0.7,-0.7 h 1.4 l 2.9,3.1 c 1.1,-1 2.4,-1.7 3.7,-2.3 1.3,-0.5 2.9,-0.8 4.7,-0.8 h 2.8 c 0.8,0 1.5,0.1 2.3,0.4 0.8,0.2 1.5,0.5 2.2,0.9 0.7,0.4 1.3,0.8 1.9,1.2 0.6,0.4 1,0.8 1.4,1.1 1.1,-1.1 2.3,-2 3.7,-2.6 1.4,-0.6 3,-1 4.8,-1 z"
           class="st0"
           inkscape:connector-curvature="0"
           style="fill:#ffffff" />
        <path
           id="path890"
           d="m 217.8,44.6 c 1.6,0 3.1,0.3 4.5,0.9 1.4,0.6 2.6,1.4 3.6,2.4 1,1 1.8,2.2 2.4,3.6 0.6,1.4 0.9,2.9 0.9,4.5 v 11.5 c 0,1.6 -0.3,3.1 -0.9,4.5 -0.6,1.4 -1.4,2.6 -2.4,3.6 -1,1 -2.2,1.8 -3.6,2.4 -1.4,0.6 -2.9,0.9 -4.5,0.9 h -3.5 c -1.1,0 -2.1,-0.3 -3,-0.8 -0.9,-0.5 -1.6,-1 -1.9,-1.4 l -0.7,-0.7 -0.6,0.7 1.3,2.2 v 10.8 l -0.7,0.7 h -7.1 l -0.7,-0.7 V 45.3 l 0.7,-0.7 h 1.4 l 2.9,3.1 c 1.1,-1 2.4,-1.7 3.7,-2.3 1.3,-0.5 2.9,-0.8 4.7,-0.8 z M 215,71.1 h 2.1 c 1.1,0 1.9,-0.3 2.6,-1 0.6,-0.6 1,-1.5 1,-2.6 V 56.1 c 0,-1.1 -0.3,-2 -1,-2.6 -0.7,-0.6 -1.5,-1 -2.6,-1 H 215 c -1.4,0 -2.7,0.5 -3.9,1.5 -1.2,1 -1.8,2.4 -1.8,4.2 v 7.2 c 0,1.8 0.6,3.2 1.8,4.2 1.2,1 2.5,1.5 3.9,1.5 z"
           class="st0"
           inkscape:connector-curvature="0"
           style="fill:#ffffff" />
        <path
           id="path892"
           d="m 233,53.7 0.7,-0.7 h 20.5 l 0.7,0.7 v 6.5 l -0.7,0.7 H 233.7 L 233,60.2 Z"
           class="st0"
           inkscape:connector-curvature="0"
           style="fill:#ffffff" />
        <path
           id="path894"
           d="m 271.1,42.6 c -0.6,0.6 -0.9,1.3 -0.9,2 v 2.2 h 4.2 l 0.7,0.7 V 54 l -0.7,0.7 h -4.2 v 23.7 l -0.7,0.7 h -7.1 l -0.7,-0.7 V 54.6 h -2.1 l -0.7,-0.7 v -6.5 l 0.7,-0.7 h 2.1 v -2.2 c 0,-1.6 0.3,-3.1 0.9,-4.5 0.6,-1.4 1.4,-2.6 2.4,-3.6 1,-1 2.2,-1.8 3.6,-2.4 1.4,-0.6 2.9,-0.9 4.5,-0.9 h 4.2 l 0.7,0.7 V 41 l -0.7,0.7 H 273 c -0.7,0 -1.4,0.3 -1.9,0.9 z"
           class="st0"
           inkscape:connector-curvature="0"
           style="fill:#ffffff" />
        <path
           id="path896"
           d="m 282.5,33.8 0.7,-0.7 h 7.1 l 0.7,0.7 V 41 l -0.7,0.7 h -7.1 L 282.5,41 Z m 0,11.5 0.7,-0.7 h 7.1 l 0.7,0.7 v 33 l -0.7,0.7 h -7.1 l -0.7,-0.7 z"
           class="st0"
           inkscape:connector-curvature="0"
           style="fill:#ffffff" />
        <path
           id="path898"
           d="m 307.1,54.5 c -0.7,0.9 -1.1,1.9 -1.1,3 v 20.8 l -0.7,0.7 h -7.1 l -0.7,-0.7 v -33 l 0.8,-0.7 h 1.3 l 2.8,2.9 c 0.9,-0.8 2,-1.5 3.3,-2 1.2,-0.5 2.7,-0.8 4.5,-0.8 h 3.5 l 0.7,0.7 v 7.2 l -0.7,0.7 h -3.5 c -1.3,-0.1 -2.4,0.3 -3.1,1.2 z"
           class="st0"
           inkscape:connector-curvature="0"
           style="fill:#ffffff" />
        <path
           id="path900"
           d="m 327.4,79.1 c -1.6,0 -3.1,-0.3 -4.5,-0.9 -1.4,-0.6 -2.6,-1.4 -3.6,-2.4 -1,-1 -1.8,-2.2 -2.4,-3.6 -0.6,-1.4 -0.9,-2.9 -0.9,-4.5 V 56.1 c 0,-1.6 0.3,-3.1 0.9,-4.5 0.6,-1.4 1.4,-2.6 2.4,-3.6 1,-1 2.2,-1.8 3.6,-2.4 1.4,-0.6 2.9,-0.9 4.5,-0.9 h 5.7 c 1.6,0 3.1,0.3 4.5,0.9 1.4,0.6 2.6,1.4 3.6,2.4 1,1 1.8,2.2 2.4,3.6 0.6,1.4 0.9,2.9 0.9,4.5 v 9.3 h -19.8 v 2.2 c 0,1.1 0.3,2 1,2.6 0.6,0.6 1.5,1 2.6,1 h 5.7 c 0.9,0 1.7,-0.1 2.3,-0.4 0.6,-0.2 1.2,-0.5 1.6,-0.8 0.4,-0.3 0.8,-0.6 1.1,-0.9 0.3,-0.3 0.5,-0.6 0.7,-0.8 h 1.4 l 3.5,3.6 v 1.4 l -2.8,2.9 c -0.7,0.7 -1.8,1.4 -3.4,2 -1.5,0.6 -3,0.9 -4.4,0.9 z m 0.7,-26.6 c -1.1,0 -1.9,0.3 -2.6,1 -0.6,0.6 -1,1.5 -1,2.6 v 2.2 h 11.3 v -2.2 c 0,-1.1 -0.3,-2 -1,-2.6 -0.6,-0.6 -1.5,-1 -2.6,-1 z"
           class="st0"
           inkscape:connector-curvature="0"
           style="fill:#ffffff" />
        <path
           id="path902"
           d="m 361.2,42.6 c -0.6,0.6 -0.9,1.3 -0.9,2 v 2.2 h 4.2 l 0.7,0.7 V 54 l -0.7,0.7 h -4.2 v 23.7 l -0.7,0.7 h -7.1 l -0.7,-0.7 V 54.6 h -2.1 L 349,53.9 v -6.5 l 0.7,-0.7 h 2.1 v -2.2 c 0,-1.6 0.3,-3.1 0.9,-4.5 0.6,-1.4 1.4,-2.6 2.4,-3.6 1,-1 2.2,-1.8 3.6,-2.4 1.4,-0.6 2.9,-0.9 4.5,-0.9 h 4.2 l 0.7,0.7 V 41 l -0.7,0.7 h -4.2 c -0.8,0 -1.5,0.3 -2,0.9 z"
           class="st0"
           inkscape:connector-curvature="0"
           style="fill:#ffffff" />
        <path
           id="path904"
           d="m 396.9,64.7 c 0,2 -0.4,3.8 -1.1,5.6 -0.8,1.7 -1.8,3.3 -3,4.6 -1.3,1.3 -2.8,2.3 -4.5,3.1 -1.7,0.8 -3.6,1.1 -5.5,1.1 -1.9,0 -3.8,-0.4 -5.5,-1.1 -1.7,-0.8 -3.2,-1.8 -4.5,-3.1 -1.3,-1.3 -2.3,-2.8 -3,-4.6 -0.8,-1.7 -1.1,-3.6 -1.1,-5.6 V 59 c 0,-2 0.4,-3.8 1.1,-5.6 0.8,-1.7 1.8,-3.3 3,-4.6 1.3,-1.3 2.8,-2.3 4.5,-3.1 1.7,-0.8 3.5,-1.1 5.5,-1.1 1.9,0 3.8,0.4 5.5,1.1 1.7,0.8 3.2,1.8 4.5,3.1 1.3,1.3 2.3,2.8 3,4.6 0.8,1.7 1.1,3.6 1.1,5.6 z m -8.5,-6.5 c 0,-1.8 -0.6,-3.2 -1.8,-4.2 -1.2,-1 -2.5,-1.5 -3.9,-1.5 -1.4,0 -2.7,0.5 -3.9,1.5 -1.2,1 -1.8,2.4 -1.8,4.2 v 7.2 c 0,1.8 0.6,3.2 1.8,4.2 1.2,1 2.5,1.5 3.9,1.5 1.4,0 2.7,-0.5 3.9,-1.5 1.2,-1 1.8,-2.4 1.8,-4.2 z"
           class="st0"
           inkscape:connector-curvature="0"
           style="fill:#ffffff" />
        <path
           id="path906"
           d="m 428.4,48.2 -9.9,13.6 9.9,13.7 v 2.9 l -0.7,0.7 h -7.8 l -6.4,-10.8 -6.4,10.8 h -7.8 l -0.7,-0.7 v -2.9 l 9.9,-13.7 -9.9,-13.6 v -2.9 l 0.7,-0.7 h 7.8 l 6.4,10.8 6.4,-10.8 h 7.8 l 0.7,0.7 z"
           class="st0"
           inkscape:connector-curvature="0"
           style="fill:#ffffff" />
        <path
           id="path908"
           d="m 433.7,74.7 0.7,-0.7 h 3.5 l 0.7,0.7 v 3.6 l -0.7,0.7 h -3.5 l -0.7,-0.7 z"
           class="st0"
           inkscape:connector-curvature="0"
           style="fill:#ffffff" />
        <path
           id="path910"
           d="m 468.8,33.8 0.7,-0.7 h 1.4 l 0.7,0.7 v 44.5 l -0.7,0.7 h -1.4 l -0.7,-0.7 v -5 c -1.3,1.7 -3,3.1 -4.9,4.2 -2,1.1 -4.1,1.6 -6.4,1.6 -1.6,0 -3.1,-0.3 -4.5,-0.9 -1.4,-0.6 -2.6,-1.4 -3.6,-2.4 -1,-1 -1.8,-2.2 -2.4,-3.6 -0.6,-1.4 -0.9,-2.9 -0.9,-4.5 V 56.1 c 0,-1.6 0.3,-3.1 0.9,-4.5 0.6,-1.4 1.4,-2.6 2.4,-3.6 1,-1 2.2,-1.8 3.6,-2.4 1.4,-0.6 2.9,-0.9 4.5,-0.9 2.3,0 4.4,0.5 6.4,1.5 2,1 3.6,2.4 4.9,4.2 z m 0,24.6 c -0.1,-1.5 -0.4,-3 -1,-4.3 -0.6,-1.3 -1.4,-2.5 -2.4,-3.5 -1,-1 -2.2,-1.8 -3.5,-2.3 -1.3,-0.6 -2.8,-0.9 -4.4,-0.9 -1.2,0 -2.4,0.3 -3.4,0.8 -1,0.5 -1.9,1.1 -2.7,1.9 -0.8,0.8 -1.3,1.7 -1.8,2.8 -0.4,1.1 -0.6,2.1 -0.6,3.2 v 11.5 c 0,1.1 0.2,2.2 0.6,3.2 0.4,1 1,1.9 1.8,2.7 0.8,0.8 1.7,1.4 2.7,1.9 1,0.5 2.2,0.8 3.4,0.8 1.6,0 3,-0.3 4.4,-0.9 1.4,-0.6 2.6,-1.4 3.6,-2.5 1,-1.1 1.9,-2.3 2.4,-3.7 0.6,-1.4 0.9,-2.9 0.9,-4.5 z"
           class="st0"
           inkscape:connector-curvature="0"
           style="fill:#ffffff" />
        <path
           id="path912"
           d="m 480.2,67.6 c 0,1.1 0.2,2.2 0.6,3.2 0.4,1 1,1.9 1.8,2.7 0.8,0.8 1.7,1.4 2.7,1.9 1,0.5 2.2,0.8 3.4,0.8 h 2.8 c 1.8,0 3.4,-0.4 4.7,-1.3 1.3,-0.9 2.4,-1.9 3.1,-3 h 1.4 l 0.7,0.7 v 0.7 c -0.4,0.7 -0.9,1.4 -1.5,2.1 -0.6,0.7 -1.4,1.3 -2.3,1.8 -0.9,0.5 -1.8,1 -2.9,1.3 -1,0.3 -2.1,0.5 -3.3,0.5 h -2.8 c -1.6,0 -3.1,-0.3 -4.5,-0.9 -1.4,-0.6 -2.6,-1.4 -3.6,-2.4 -1,-1 -1.8,-2.2 -2.4,-3.6 -0.6,-1.4 -0.9,-2.9 -0.9,-4.5 V 56.1 c 0,-1.6 0.3,-3.1 0.9,-4.5 0.6,-1.4 1.4,-2.6 2.4,-3.6 1,-1 2.2,-1.8 3.6,-2.4 1.4,-0.6 2.9,-0.9 4.5,-0.9 h 2.8 c 1.6,0 3.1,0.3 4.5,0.9 1.4,0.6 2.6,1.4 3.6,2.4 1,1 1.8,2.2 2.4,3.6 0.6,1.4 0.9,2.9 0.9,4.5 v 7.2 h -22.6 z m 0,-7.2 H 500 v -4.3 c 0,-1.2 -0.2,-2.3 -0.7,-3.3 -0.4,-1 -1.1,-1.9 -1.8,-2.7 -0.7,-0.8 -1.7,-1.4 -2.7,-1.9 -1,-0.5 -2.1,-0.7 -3.3,-0.7 h -2.8 c -1.2,0 -2.3,0.2 -3.3,0.7 -1,0.5 -1.9,1.1 -2.7,1.9 -0.8,0.8 -1.4,1.7 -1.8,2.7 -0.4,1 -0.7,2.1 -0.7,3.3 z"
           class="st0"
           inkscape:connector-curvature="0"
           style="fill:#ffffff" />
      </g>
      <g
         id="g922"
         style="fill:#ffffff">
        <path
           id="path916"
           d="m 60.9,80.2 c -0.1,0 -0.1,0 0,0 v 0 L 8.6,60.9 v 0 C 8.2,60.8 7.9,60.7 7.5,60.7 c -2.5,0 -5.3,2.6 -6.7,6.4 -1.6,4.4 -0.6,8.7 2.1,9.8 v 0 L 55,96.2 v 0 c 0,0 0.1,0 0.1,0 0.4,0.1 0.8,0.2 1.2,0.2 2.5,0 5.3,-2.6 6.7,-6.4 1.6,-4.3 0.7,-8.8 -2.1,-9.8 z M 8.3,69.8 c -1.1,3.1 -3.1,4.5 -4.2,4.5 -0.1,0 -0.2,0 -0.3,0 C 3.5,74.2 3,73.6 2.8,72.4 2.6,71.1 2.7,69.5 3.3,67.9 c 1.1,-3.1 3.1,-4.5 4.2,-4.5 0.1,0 0.2,0 0.3,0 0.3,0.1 0.8,0.7 1,1.9 0.2,1.4 0,3 -0.5,4.5 z"
           class="st1"
           inkscape:connector-curvature="0"
           style="fill:#ffffff" />
        <path
           id="path918"
           d="m 36.7,68.7 23.1,8.5 c 0.1,0 0.2,0 0.3,0 l 0.8,-0.3 v 0 C 63.6,75.8 64.5,71.4 63,67.1 61.4,62.7 58,60 55.2,60.9 v 0 l -18.5,6.8 c -0.4,0.2 -0.4,0.8 0,1 z M 55,65.4 c 0.2,-1.2 0.7,-1.7 1,-1.9 0.1,0 0.2,0 0.3,0 1,0 3,1.4 4.2,4.5 1.3,3.5 0.3,6 -0.5,6.3 -0.1,0 -0.2,0 -0.3,0 -1,0 -3,-1.4 -4.2,-4.5 -0.6,-1.5 -0.7,-3.1 -0.5,-4.4 z"
           class="st1"
           inkscape:connector-curvature="0"
           style="fill:#ffffff" />
        <path
           id="path920"
           d="m 3,80.2 v 0 c 0,0 0,0 0,0 -2.9,1.1 -3.8,5.5 -2.3,9.9 1.5,4.4 5.1,7.2 7.9,6.1 0,0 0.1,0 0.1,0 v 0 L 28.3,89 3.8,79.9 Z"
           class="st1"
           inkscape:connector-curvature="0"
           style="fill:#ffffff" />
      </g>
      <path
         id="path924"
         d="m 15,47 c -0.7,1 -1.3,2.2 -1.9,3.3 0.7,-3 1.9,-6 3.5,-8.7 0.5,-0.8 1,-1.6 1.6,-2.3 v 0 c 0,-0.4 0,-0.7 0.1,-1.1 C 18.5,36 19,33.9 19.9,32 v -0.1 c 0,0 0,0.1 0,0.2 0,0.1 0,0.2 0,0.1 0.1,-0.3 0.2,-0.5 0.3,-0.8 0.1,-0.3 0.3,-0.5 0.5,-0.8 0,0 0,0 0,-0.1 0,0 0,0.3 -0.1,0.4 0,0 0,0.1 0,0.1 0.1,-0.2 0.2,-0.3 0.3,-0.6 0.3,-0.8 0.8,-1.4 1.4,-1.9 v 0 c 0,1.2 0.2,2.4 0.6,3.5 v 0 c 0,0.1 0.1,-0.2 0.1,-0.2 0,0 0,0 0,0 0.1,0.2 0.2,0.5 0.4,0.7 0.2,0.3 0.3,0.6 0.5,0.8 v 0 0 c 0.3,0.5 0.8,1 1.3,1.4 v 0 0 c 2.4,-0.5 4.8,-0.3 7.1,0.6 v 0 c 0.3,-0.3 0.6,-0.6 1,-0.9 0,0.1 0,0.2 0,0.4 0.5,-0.7 1.2,-1.2 1.9,-1.5 0,0.1 -0.1,0.2 -0.1,0.3 1,-0.6 2,-1 3.1,-1.2 0.1,0 -0.5,0.2 -0.7,0.4 0.5,-0.2 1,-0.3 1.5,-0.4 0.9,-0.1 1.8,0.3 1.6,0.4 -0.4,0.1 -0.7,0.3 -1.1,0.5 -0.1,0.1 0.4,0 0.3,0.1 -1.8,1.2 -3.2,3 -4,5.1 v 0 c 0.3,1.4 1.5,2.6 2.9,2.8 4.1,0.4 4.9,0.7 5,1.2 v 0 0 0.1 0.1 c 0,0.1 0,0.2 0,0.4 -0.2,0.9 -0.6,1.7 -1.3,2.3 -0.2,0.2 -0.4,0.3 -0.6,0.5 -0.1,0.1 -0.8,0.4 -1.7,0.7 -1,0.4 -2,0.9 -3,1.5 -0.2,0.1 -0.3,0.2 -0.4,0.4 0,0.1 -0.2,0.2 -0.2,0.2 v 0 c 0.1,0.2 0.1,0.3 0.2,0.5 -0.2,-0.2 -0.4,-0.1 -0.2,0.1 0.1,0.3 0.2,0.7 0.1,1 0,0.6 -0.1,1.3 -0.3,1.8 -0.3,-0.2 -0.6,-0.4 -0.9,-0.5 v 0 c 0.3,0.2 0.6,0.5 0.7,0.9 0.1,0.3 0,0.4 0,0.4 -0.2,-0.3 -0.4,-0.5 -0.7,-0.6 -0.4,-0.2 -1.1,-0.6 -1.5,-0.8 0,0 -0.1,0 -0.1,0 0.1,0.2 0.3,0.5 0.3,0.5 0,0 -0.2,-0.1 -0.6,-0.3 -0.5,0.3 -0.9,0.7 -1.2,1.2 -0.5,1 -0.4,2.2 0.1,3.2 0.5,0.8 1.2,1.5 2,2 0,0 -0.4,-0.1 -0.4,-0.1 0.6,0.4 1.2,0.8 1.9,1.1 0.2,0.1 -0.6,-0.2 -0.4,0 0.2,0.1 0.4,0.2 0.6,0.3 3,1.6 5.1,-0.1 7.3,-0.4 1.5,-0.3 3,0.1 4.3,0.9 6.5,-4.9 10.9,-12.6 10.9,-20.6 0,-8.7 -3.9,-18.1 -10.7,-23.9 0,0 -2.2,12.6 -6.4,12.4 C 40.8,27.7 40.3,27 40.3,26.3 40.3,15.9 37.1,10.1 31.4,4.8 28.1,1.4 20.7,0 20.7,0 20.7,0 23,1.8 24,5.8 25.2,9.5 21,13.4 15.8,19.3 11,24.9 5,29 5,39.2 5,46 8.1,52.4 13,57.3 13,53.7 13.7,50.2 15,47 Z"
         class="st2"
         inkscape:connector-curvature="0"
         style="fill:#ffffff" />
    </g>
  </g>
</svg>
