<?xml version="1.0" encoding="UTF-8" standalone="no"?>
<!-- Created with Inkscape (http://www.inkscape.org/) -->

<svg
   xmlns:dc="http://purl.org/dc/elements/1.1/"
   xmlns:cc="http://creativecommons.org/ns#"
   xmlns:rdf="http://www.w3.org/1999/02/22-rdf-syntax-ns#"
   xmlns:svg="http://www.w3.org/2000/svg"
   xmlns="http://www.w3.org/2000/svg"
   xmlns:sodipodi="http://sodipodi.sourceforge.net/DTD/sodipodi-0.dtd"
   xmlns:inkscape="http://www.inkscape.org/namespaces/inkscape"
   width="557.51758"
   height="463.31427"
   viewBox="0 0 147.50987 122.58523"
   version="1.1"
   id="svg8"
   inkscape:version="0.92.3 (2405546, 2018-03-11)"
   sodipodi:docname="vertical_white.svg"
   inkscape:export-filename="/home/anxhelo/works/camp-firefox.de/PNG/vertical_white.png"
   inkscape:export-xdpi="96"
   inkscape:export-ydpi="96">
  <defs
     id="defs2" />
  <sodipodi:namedview
     id="base"
     pagecolor="#ffffff"
     bordercolor="#666666"
     borderopacity="1.0"
     inkscape:pageopacity="0"
     inkscape:pageshadow="2"
     inkscape:zoom="0.52467208"
     inkscape:cx="230.55196"
     inkscape:cy="206.3174"
     inkscape:document-units="px"
     inkscape:current-layer="layer1"
     inkscape:document-rotation="0"
     showgrid="false"
     borderlayer="true"
     inkscape:showpageshadow="true"
     units="px"
     inkscape:pagecheckerboard="false"
     showguides="true"
     inkscape:window-width="1366"
     inkscape:window-height="715"
     inkscape:window-x="0"
     inkscape:window-y="0"
     inkscape:window-maximized="1"
     objecttolerance="10"
     guidetolerance="10"
     inkscape:snap-tangential="true"
     inkscape:snap-perpendicular="true"
     fit-margin-top="0"
     fit-margin-left="0"
     fit-margin-right="0"
     fit-margin-bottom="0">
    <inkscape:grid
       type="xygrid"
       id="grid10"
       dotted="false"
       originx="-138.19169"
       originy="-104.817" />
  </sodipodi:namedview>
  <metadata
     id="metadata5">
    <rdf:RDF>
      <cc:Work
         rdf:about="">
        <dc:format>image/svg+xml</dc:format>
        <dc:type
           rdf:resource="http://purl.org/dc/dcmitype/StillImage" />
        <dc:title></dc:title>
        <cc:license
           rdf:resource="" />
      </cc:Work>
    </rdf:RDF>
  </metadata>
  <g
     inkscape:label="Layer 1"
     inkscape:groupmode="layer"
     id="layer1"
     transform="translate(-138.19167,-69.597758)">
    <g
       id="g1004"
       transform="matrix(0.52252872,0,0,0.52252872,138.19167,69.597758)"
       style="fill:#ffffff">
      <g
         id="g990"
         style="fill:#ffffff">
        <path
           id="path960"
           d="m 9.5,227.1 c -1.3,0 -2.5,-0.3 -3.7,-0.8 -1.2,-0.5 -2.2,-1.2 -3,-2.1 -0.9,-0.9 -1.5,-1.9 -2,-3.1 C 0.3,219.9 0,218.7 0,217.4 v -3.9 c 0,-1.3 0.3,-2.6 0.8,-3.7 0.5,-1.2 1.2,-2.2 2,-3.1 0.9,-0.9 1.9,-1.6 3,-2.1 1.2,-0.5 2.4,-0.8 3.7,-0.8 h 1 c 0.9,0 1.9,0.2 3,0.6 1,0.4 1.8,0.8 2.3,1.3 l 1.9,1.9 v 1 l -2.4,2.4 h -0.9 c -0.1,-0.1 -0.3,-0.3 -0.5,-0.5 -0.2,-0.2 -0.4,-0.4 -0.7,-0.6 -0.3,-0.2 -0.6,-0.4 -1.1,-0.6 -0.4,-0.2 -0.9,-0.2 -1.5,-0.2 h -1 c -1,0 -1.8,0.3 -2.6,1 -0.8,0.7 -1.2,1.6 -1.2,2.8 v 4.8 c 0,1.2 0.4,2.2 1.2,2.8 0.8,0.7 1.7,1 2.6,1 h 1 c 0.6,0 1.1,-0.1 1.5,-0.2 0.4,-0.2 0.8,-0.3 1.1,-0.6 0.3,-0.2 0.5,-0.4 0.7,-0.6 0.2,-0.2 0.3,-0.4 0.5,-0.5 h 0.9 l 2.4,2.4 v 1 l -1.9,1.9 c -0.5,0.5 -1.2,0.9 -2.3,1.3 -1,0.4 -2,0.6 -3,0.6 h -1 z"
           class="st0"
           inkscape:connector-curvature="0"
           style="fill:#ffffff" />
        <path
           id="path962"
           d="m 31,204 c 1.1,0 2.1,0.2 3,0.6 0.9,0.4 1.7,0.9 2.4,1.6 0.7,0.7 1.2,1.5 1.6,2.4 0.4,0.9 0.6,1.9 0.6,3 v 14.9 l -0.5,0.5 h -0.9 l -1.9,-1.9 c -0.8,0.6 -1.7,1.1 -2.6,1.4 -0.9,0.3 -1.9,0.5 -3.1,0.5 h -2.8 c -1,0 -1.9,-0.2 -2.7,-0.5 -0.9,-0.4 -1.6,-0.8 -2.3,-1.5 -0.7,-0.6 -1.2,-1.4 -1.6,-2.3 -0.4,-0.9 -0.6,-1.9 -0.6,-3 0,-1.1 0.2,-2.1 0.6,-2.9 0.4,-0.8 0.9,-1.5 1.6,-2.1 0.7,-0.6 1.4,-1 2.3,-1.3 0.9,-0.3 1.8,-0.4 2.7,-0.4 H 33 v -1.4 c 0,-0.7 -0.2,-1.3 -0.6,-1.8 -0.4,-0.4 -1,-0.7 -1.7,-0.7 h -2.9 c -0.6,0 -1.1,0.1 -1.5,0.2 -0.4,0.2 -0.8,0.3 -1.1,0.6 -0.3,0.2 -0.5,0.4 -0.7,0.6 -0.2,0.2 -0.3,0.4 -0.5,0.5 h -1 l -2.4,-2.4 v -1 l 1.9,-1.9 c 0.5,-0.5 1.2,-0.9 2.3,-1.3 1,-0.4 2,-0.6 3,-0.6 H 31 Z m -3.8,14 c -0.2,0 -0.5,0 -0.7,0.1 -0.3,0.1 -0.5,0.2 -0.8,0.3 -0.2,0.1 -0.4,0.3 -0.6,0.6 -0.2,0.3 -0.2,0.6 -0.2,0.9 0,0.4 0.1,0.7 0.2,0.9 0.2,0.3 0.4,0.5 0.6,0.6 0.2,0.1 0.5,0.2 0.8,0.3 0.3,0.1 0.5,0.1 0.7,0.1 h 2.4 c 0.7,0 1.3,-0.2 1.7,-0.5 0.4,-0.3 0.8,-0.7 1,-1.1 0.2,-0.4 0.4,-0.9 0.5,-1.3 0.1,-0.4 0.1,-0.8 0.1,-1 h -5.7 z"
           class="st0"
           inkscape:connector-curvature="0"
           style="fill:#ffffff" />
        <path
           id="path964"
           d="m 67.2,204 c 1.1,0 2.1,0.2 3,0.6 0.9,0.4 1.7,0.9 2.4,1.6 0.7,0.7 1.2,1.5 1.6,2.4 0.4,0.9 0.6,1.9 0.6,3 v 14.9 l -1,0.5 H 69 v -0.5 -14.9 c 0,-0.7 -0.2,-1.3 -0.7,-1.8 -0.4,-0.4 -1,-0.7 -1.8,-0.7 h -0.9 c -0.9,0 -1.8,0.3 -2.6,1 -0.8,0.7 -1.2,1.6 -1.2,2.7 v 13.6 l -0.5,0.5 H 56.5 L 56,226.4 v -14.9 c 0,-0.7 -0.2,-1.3 -0.7,-1.8 -0.4,-0.4 -1,-0.7 -1.8,-0.7 h -0.9 c -1,0 -1.8,0.3 -2.6,1 -0.8,0.7 -1.2,1.6 -1.2,2.8 v 13.5 l -0.5,0.5 h -4.7 l -0.5,-0.5 v -22.2 l 0.5,-0.5 h 0.9 l 1.9,2.1 c 0.8,-0.6 1.6,-1.1 2.5,-1.5 0.9,-0.4 2,-0.6 3.2,-0.6 H 54 c 0.5,0 1,0.1 1.5,0.2 0.5,0.2 1,0.4 1.5,0.6 0.5,0.2 0.9,0.5 1.3,0.8 0.4,0.3 0.7,0.5 1,0.8 0.7,-0.7 1.6,-1.3 2.5,-1.8 0.9,-0.4 2,-0.7 3.2,-0.7 h 2.2 z"
           class="st0"
           inkscape:connector-curvature="0"
           style="fill:#ffffff" />
        <path
           id="path966"
           d="m 90.8,204 c 1.1,0 2.1,0.2 3,0.6 0.9,0.4 1.7,0.9 2.4,1.6 0.7,0.7 1.2,1.5 1.6,2.4 0.4,0.9 0.6,1.9 0.6,3 v 7.7 c 0,1.1 -0.2,2.1 -0.6,3 -0.4,0.9 -0.9,1.7 -1.6,2.4 -0.7,0.7 -1.5,1.2 -2.4,1.6 -0.9,0.4 -1.9,0.6 -3,0.6 h -2.4 c -0.7,0 -1.4,-0.2 -2,-0.5 -0.6,-0.4 -1.1,-0.7 -1.3,-0.9 l -0.5,-0.5 -0.4,0.5 0.9,1.4 v 7.2 l -0.5,0.5 h -4.7 l -0.5,-0.5 v -29.9 l 0.5,-0.5 h 0.9 l 1.9,2.1 c 0.8,-0.6 1.6,-1.1 2.5,-1.5 0.9,-0.4 2,-0.6 3.2,-0.6 h 2.4 z m -1.9,17.8 h 1.4 c 0.7,0 1.3,-0.2 1.7,-0.7 0.4,-0.4 0.6,-1 0.6,-1.8 v -7.7 c 0,-0.7 -0.2,-1.3 -0.7,-1.8 -0.4,-0.4 -1,-0.7 -1.8,-0.7 h -1.4 c -1,0 -1.8,0.3 -2.6,1 -0.8,0.7 -1.2,1.6 -1.2,2.8 v 4.8 c 0,1.2 0.4,2.2 1.2,2.8 1,1 1.8,1.3 2.8,1.3 z"
           class="st0"
           inkscape:connector-curvature="0"
           style="fill:#ffffff" />
        <path
           id="path968"
           d="m 101,210.2 0.5,-0.5 h 13.8 l 0.5,0.5 v 4.3 l -0.5,0.5 h -13.8 l -0.5,-0.5 z"
           class="st0"
           inkscape:connector-curvature="0"
           style="fill:#ffffff" />
        <path
           id="path970"
           d="m 126.5,202.7 c -0.4,0.4 -0.6,0.8 -0.6,1.3 v 1.4 h 2.8 l 0.5,0.5 v 4.3 l -0.5,0.5 h -2.8 v 15.9 l -0.5,0.5 h -4.7 l -0.5,-0.5 v -15.9 h -1.4 l -0.5,-0.5 v -4.3 l 0.5,-0.5 h 1.4 V 204 c 0,-1.1 0.2,-2.1 0.6,-3 0.4,-0.9 0.9,-1.7 1.6,-2.4 0.7,-0.7 1.5,-1.2 2.4,-1.6 0.9,-0.4 1.9,-0.6 3,-0.6 h 2.8 l 0.5,0.5 v 4.8 l -0.5,0.5 h -2.8 c -0.4,-0.1 -0.9,0.1 -1.3,0.5 z"
           class="st0"
           inkscape:connector-curvature="0"
           style="fill:#ffffff" />
        <path
           id="path972"
           d="m 134.2,196.8 0.5,-0.5 h 4.7 l 0.5,0.5 v 4.8 l -0.5,0.5 h -4.7 l -0.5,-0.5 z m 0,7.7 0.5,-0.5 h 4.7 l 0.5,0.5 v 22.2 l -0.5,0.5 h -4.7 l -0.5,-0.5 z"
           class="st0"
           inkscape:connector-curvature="0"
           style="fill:#ffffff" />
        <path
           id="path974"
           d="m 150.7,210.7 c -0.5,0.6 -0.7,1.3 -0.7,2 v 14 l -0.5,0.5 h -4.7 l -0.5,-0.5 v -22.2 l 0.5,-0.5 h 0.9 l 1.9,1.9 c 0.6,-0.5 1.4,-1 2.2,-1.4 0.8,-0.4 1.8,-0.6 3,-0.6 h 2.4 l 0.5,0.5 v 4.8 l -0.5,0.5 h -2.4 c -0.9,0.1 -1.6,0.4 -2.1,1 z"
           class="st0"
           inkscape:connector-curvature="0"
           style="fill:#ffffff" />
        <path
           id="path976"
           d="m 164.3,227.1 c -1.1,0 -2.1,-0.2 -3,-0.6 -0.9,-0.4 -1.7,-0.9 -2.4,-1.6 -0.7,-0.7 -1.2,-1.5 -1.6,-2.4 -0.4,-0.9 -0.6,-1.9 -0.6,-3 v -7.7 c 0,-1.1 0.2,-2.1 0.6,-3 0.4,-0.9 0.9,-1.7 1.6,-2.4 0.7,-0.7 1.5,-1.2 2.4,-1.6 0.9,-0.4 1.9,-0.6 3,-0.6 h 3.8 c 1.1,0 2.1,0.2 3,0.6 0.9,0.4 1.7,0.9 2.4,1.6 0.7,0.7 1.2,1.5 1.6,2.4 0.4,0.9 0.6,1.9 0.6,3 v 6.3 h -13.3 v 1.4 c 0,0.7 0.2,1.3 0.6,1.8 0.4,0.4 1,0.7 1.7,0.7 h 3.8 c 0.6,0 1.1,-0.1 1.5,-0.2 0.4,-0.2 0.8,-0.3 1.1,-0.6 0.3,-0.2 0.5,-0.4 0.7,-0.6 0.2,-0.2 0.3,-0.4 0.5,-0.5 h 0.9 l 2.4,2.4 v 1 l -1.9,1.9 c -0.5,0.5 -1.2,0.9 -2.3,1.3 -1,0.4 -2,0.6 -3,0.6 h -4.1 z m 0.5,-17.8 c -0.7,0 -1.3,0.2 -1.7,0.7 -0.4,0.4 -0.6,1 -0.6,1.8 v 1.4 h 7.6 v -1.4 c 0,-0.7 -0.2,-1.3 -0.6,-1.8 -0.4,-0.4 -1,-0.7 -1.7,-0.7 z"
           class="st0"
           inkscape:connector-curvature="0"
           style="fill:#ffffff" />
        <path
           id="path978"
           d="m 187,202.7 c -0.4,0.4 -0.6,0.8 -0.6,1.3 v 1.4 h 2.8 l 0.5,0.5 v 4.3 l -0.5,0.5 h -2.8 v 15.9 l -0.5,0.5 h -4.7 l -0.5,-0.5 v -15.9 h -1.4 l -0.5,-0.5 v -4.3 l 0.5,-0.5 h 1.4 V 204 c 0,-1.1 0.2,-2.1 0.6,-3 0.4,-0.9 0.9,-1.7 1.6,-2.4 0.7,-0.7 1.5,-1.2 2.4,-1.6 0.9,-0.4 1.9,-0.6 3,-0.6 h 2.8 l 0.5,0.5 v 4.8 l -0.5,0.5 h -2.8 c -0.5,-0.1 -0.9,0.1 -1.3,0.5 z"
           class="st0"
           inkscape:connector-curvature="0"
           style="fill:#ffffff" />
        <path
           id="path980"
           d="m 211,217.5 c 0,1.3 -0.3,2.6 -0.8,3.7 -0.5,1.2 -1.2,2.2 -2,3.1 -0.9,0.9 -1.9,1.6 -3,2.1 -1.2,0.5 -2.4,0.8 -3.7,0.8 -1.3,0 -2.5,-0.3 -3.7,-0.8 -1.2,-0.5 -2.2,-1.2 -3,-2.1 -0.9,-0.9 -1.5,-1.9 -2,-3.1 -0.5,-1.2 -0.8,-2.4 -0.8,-3.7 v -3.9 c 0,-1.3 0.3,-2.6 0.8,-3.7 0.5,-1.2 1.2,-2.2 2,-3.1 0.9,-0.9 1.9,-1.6 3,-2.1 1.2,-0.5 2.4,-0.8 3.7,-0.8 1.3,0 2.5,0.3 3.7,0.8 1.2,0.5 2.2,1.2 3,2.1 0.9,0.9 1.5,1.9 2,3.1 0.5,1.2 0.8,2.4 0.8,3.7 z m -5.7,-4.3 c 0,-1.2 -0.4,-2.2 -1.2,-2.8 -0.8,-0.7 -1.7,-1 -2.6,-1 -1,0 -1.8,0.3 -2.6,1 -0.8,0.7 -1.2,1.6 -1.2,2.8 v 4.8 c 0,1.2 0.4,2.2 1.2,2.8 0.8,0.7 1.7,1 2.6,1 1,0 1.8,-0.3 2.6,-1 0.8,-0.7 1.2,-1.6 1.2,-2.8 z"
           class="st0"
           inkscape:connector-curvature="0"
           style="fill:#ffffff" />
        <path
           id="path982"
           d="m 232.2,206.4 -6.7,9.2 6.7,9.2 v 1.9 l -0.5,0.5 h -5.2 l -4.3,-7.2 -4.3,7.2 h -5.2 l -0.5,-0.5 v -1.9 l 6.6,-9.2 -6.6,-9.2 v -1.9 l 0.5,-0.5 h 5.2 l 4.3,7.2 4.3,-7.2 h 5.2 l 0.5,0.5 z"
           class="st0"
           inkscape:connector-curvature="0"
           style="fill:#ffffff" />
        <path
           id="path984"
           d="m 235.7,224.2 0.5,-0.5 h 2.4 l 0.5,0.5 v 2.4 l -0.5,0.5 h -2.4 l -0.5,-0.5 z"
           class="st0"
           inkscape:connector-curvature="0"
           style="fill:#ffffff" />
        <path
           id="path986"
           d="m 259.2,196.8 0.5,-0.5 h 0.9 l 0.5,0.5 v 29.9 l -0.5,0.5 h -0.9 l -0.5,-0.5 v -3.4 c -0.9,1.2 -2,2.1 -3.3,2.8 -1.3,0.7 -2.7,1.1 -4.3,1.1 -1.1,0 -2.1,-0.2 -3,-0.6 -0.9,-0.4 -1.7,-0.9 -2.4,-1.6 -0.7,-0.7 -1.2,-1.5 -1.6,-2.4 -0.4,-0.9 -0.6,-1.9 -0.6,-3 v -7.7 c 0,-1.1 0.2,-2.1 0.6,-3 0.4,-0.9 0.9,-1.7 1.6,-2.4 0.7,-0.7 1.5,-1.2 2.4,-1.6 0.9,-0.4 1.9,-0.6 3,-0.6 1.6,0 3,0.3 4.3,1 1.3,0.7 2.4,1.6 3.3,2.8 z m 0,16.5 c -0.1,-1 -0.3,-2 -0.7,-2.9 -0.4,-0.9 -0.9,-1.7 -1.6,-2.3 -0.7,-0.7 -1.5,-1.2 -2.4,-1.6 -0.9,-0.4 -1.9,-0.6 -2.9,-0.6 -0.8,0 -1.6,0.2 -2.3,0.5 -0.7,0.3 -1.3,0.8 -1.8,1.3 -0.5,0.5 -0.9,1.1 -1.2,1.9 -0.3,0.7 -0.4,1.4 -0.4,2.1 v 7.7 c 0,0.7 0.1,1.5 0.4,2.1 0.3,0.7 0.7,1.3 1.2,1.8 0.5,0.5 1.1,1 1.8,1.3 0.7,0.3 1.5,0.5 2.3,0.5 1,0 2,-0.2 2.9,-0.6 0.9,-0.4 1.7,-1 2.4,-1.7 0.7,-0.7 1.2,-1.5 1.6,-2.5 0.4,-0.9 0.6,-1.9 0.6,-3 v -4 z"
           class="st0"
           inkscape:connector-curvature="0"
           style="fill:#ffffff" />
        <path
           id="path988"
           d="m 266.9,219.4 c 0,0.7 0.1,1.5 0.4,2.1 0.3,0.7 0.7,1.3 1.2,1.8 0.5,0.5 1.1,1 1.8,1.3 0.7,0.3 1.5,0.5 2.3,0.5 h 1.9 c 1.2,0 2.3,-0.3 3.2,-0.9 0.9,-0.6 1.6,-1.3 2.1,-2 h 1 l 0.5,0.5 v 0.5 c -0.3,0.5 -0.6,1 -1,1.4 -0.4,0.5 -0.9,0.9 -1.5,1.2 -0.6,0.4 -1.2,0.6 -1.9,0.9 -0.7,0.2 -1.4,0.3 -2.2,0.3 h -1.9 c -1.1,0 -2.1,-0.2 -3,-0.6 -0.9,-0.4 -1.7,-0.9 -2.4,-1.6 -0.7,-0.7 -1.2,-1.5 -1.6,-2.4 -0.4,-0.9 -0.6,-1.9 -0.6,-3 v -7.7 c 0,-1.1 0.2,-2.1 0.6,-3 0.4,-0.9 0.9,-1.7 1.6,-2.4 0.7,-0.7 1.5,-1.2 2.4,-1.6 0.9,-0.4 1.9,-0.6 3,-0.6 h 1.9 c 1.1,0 2.1,0.2 3,0.6 0.9,0.4 1.7,0.9 2.4,1.6 0.7,0.7 1.2,1.5 1.6,2.4 0.4,0.9 0.6,1.9 0.6,3 v 4.8 h -15.2 v 2.9 z m 0,-4.8 h 13.3 v -2.9 c 0,-0.8 -0.2,-1.6 -0.5,-2.2 -0.3,-0.7 -0.7,-1.3 -1.2,-1.8 -0.5,-0.5 -1.1,-0.9 -1.8,-1.3 -0.7,-0.3 -1.4,-0.5 -2.2,-0.5 h -1.9 c -0.8,0 -1.5,0.2 -2.2,0.5 -0.7,0.3 -1.3,0.7 -1.8,1.3 -0.5,0.5 -0.9,1.1 -1.2,1.8 -0.3,0.7 -0.5,1.4 -0.5,2.2 z"
           class="st0"
           inkscape:connector-curvature="0"
           style="fill:#ffffff" />
      </g>
      <g
         id="g1002"
         style="fill:#ffffff">
        <g
           id="g998"
           style="fill:#ffffff">
          <path
             id="path992"
             d="m 193.1,144 c -0.1,0 -0.1,0 -0.2,-0.1 v 0 L 99.2,109.3 v 0 c -0.7,-0.2 -1.3,-0.3 -2,-0.3 -4.5,0 -9.6,4.6 -12,11.4 -2.8,7.8 -1.1,15.7 3.7,17.6 v 0 l 93.7,34.6 v 0 c 0.1,0 0.1,0 0.2,0.1 0.7,0.3 1.4,0.4 2.2,0.4 4.5,0 9.6,-4.6 12,-11.4 2.8,-7.9 1,-15.9 -3.9,-17.7 z M 98.7,125.4 c -2,5.6 -5.6,8.2 -7.5,8.2 -0.2,0 -0.4,0 -0.5,-0.1 -0.6,-0.2 -1.5,-1.3 -1.9,-3.4 -0.4,-2.4 -0.1,-5.2 0.9,-8 2,-5.6 5.6,-8.2 7.5,-8.2 0.2,0 0.4,0 0.5,0.1 0.6,0.2 1.5,1.3 1.9,3.4 0.4,2.3 0.1,5.2 -0.9,8 z"
             class="st1"
             inkscape:connector-curvature="0"
             style="fill:#ffffff" />
          <path
             id="path994"
             d="m 149.7,123.3 41.4,15.3 c 0.2,0.1 0.4,0.1 0.6,0 l 1.5,-0.6 v 0 c 4.9,-2 6.5,-9.8 3.7,-17.6 -2.8,-7.8 -9,-12.7 -14,-11.1 v 0 l -33.2,12.3 c -0.8,0.3 -0.8,1.4 0,1.7 z m 32.8,-6 c 0.4,-2.1 1.3,-3.1 1.9,-3.4 0.1,-0.1 0.3,-0.1 0.5,-0.1 1.8,0 5.5,2.6 7.5,8.2 2.3,6.3 0.5,10.8 -1,11.4 -0.1,0.1 -0.3,0.1 -0.5,0.1 -1.8,0 -5.5,-2.6 -7.5,-8.2 -1,-2.7 -1.3,-5.6 -0.9,-8 z"
             class="st1"
             inkscape:connector-curvature="0"
             style="fill:#ffffff" />
          <path
             id="path996"
             d="m 89.2,143.9 v 0 c -0.1,0 -0.1,0 -0.2,0.1 -5,1.8 -6.7,9.8 -3.9,17.7 2.8,7.9 9.2,12.9 14.2,11 0.1,0 0.1,0 0.2,-0.1 v 0 l 35.2,-13 -44,-16.3 z"
             class="st1"
             inkscape:connector-curvature="0"
             style="fill:#ffffff" />
        </g>
        <path
           id="path1000"
           d="m 110.7,84.3 c -1.3,1.9 -2.4,3.9 -3.4,6 1.3,-5.5 3.4,-10.7 6.3,-15.6 0.8,-1.4 1.8,-2.8 3,-4 v -0.1 c 0,-0.7 0,-1.3 0.1,-2 0.3,-3.9 1.3,-7.6 2.9,-11.2 l 0.1,-0.2 c 0,-0.1 0,0.2 0,0.4 0,0.2 0,0.3 0,0.2 0.1,-0.5 0.3,-1 0.5,-1.4 0.2,-0.5 0.5,-1 0.9,-1.4 0,0 0,-0.1 0.1,-0.1 0,0 -0.1,0.5 -0.1,0.7 0,0.1 0,0.1 0,0.1 0.1,-0.3 0.3,-0.6 0.5,-1.1 0.5,-1.4 1.4,-2.6 2.6,-3.4 h 0.1 c -0.1,2.1 0.3,4.2 1,6.2 v 0 c 0.1,0.1 0.1,-0.3 0.2,-0.3 0,0 0,0 0,0 0.2,0.4 0.4,0.9 0.6,1.2 0.3,0.5 0.6,1 0.9,1.4 l 0.1,0.1 h 0.1 c 0.6,1 1.4,1.8 2.3,2.6 v 0 0 c 4.3,-0.9 8.7,-0.5 12.7,1.1 v 0 c 0.5,-0.6 1.1,-1.2 1.7,-1.6 0,0.2 0,0.4 0,0.6 0.9,-1.2 2.1,-2.1 3.5,-2.7 -0.1,0.2 -0.1,0.3 -0.1,0.5 1.7,-1 3.6,-1.8 5.6,-2.1 0.3,0 -0.8,0.4 -1.2,0.7 0.9,-0.4 1.8,-0.6 2.7,-0.7 1.5,-0.2 3.3,0.5 3,0.7 -0.7,0.2 -1.3,0.5 -1.9,0.8 -0.2,0.2 0.8,0 0.6,0.1 -3.3,2.2 -5.8,5.4 -7.2,9.1 v 0 c 0.6,2.6 2.7,4.6 5.3,5 7.4,0.7 8.8,1.3 9,2.1 v 0 0 0.1 0.2 c 0,0.2 0,0.4 -0.1,0.7 -0.3,1.6 -1.1,3.1 -2.4,4.2 -0.3,0.3 -0.7,0.6 -1.1,0.8 -0.3,0.1 -1.5,0.7 -3,1.3 -1.8,0.8 -3.6,1.7 -5.3,2.7 -0.3,0.2 -0.5,0.4 -0.8,0.6 -0.1,0.1 -0.3,0.3 -0.3,0.3 v 0 c 0.1,0.3 0.2,0.6 0.3,0.9 -0.3,-0.4 -0.6,-0.2 -0.4,0.1 0.2,0.6 0.3,1.2 0.3,1.8 0,1.1 -0.2,2.3 -0.6,3.3 -0.5,-0.4 -1,-0.7 -1.5,-1 H 148 c 0.6,0.4 1,0.9 1.3,1.6 0.2,0.5 -0.1,0.6 -0.1,0.6 -0.3,-0.5 -0.7,-0.8 -1.2,-1.1 -0.7,-0.4 -2,-1.1 -2.7,-1.4 -0.1,0 -0.1,0 -0.2,0 0.2,0.3 0.5,0.9 0.5,0.9 0,0 -0.4,-0.3 -1.1,-0.6 -0.9,0.4 -1.7,1.2 -2.2,2.1 -0.8,1.8 -0.7,4 0.2,5.7 0.9,1.4 2.1,2.6 3.5,3.6 0.1,0.1 -0.8,-0.3 -0.7,-0.2 1.1,0.8 2.2,1.4 3.4,2 0.4,0.2 -1.2,-0.3 -0.8,-0.1 0.3,0.2 0.7,0.4 1,0.6 5.4,2.9 9.1,-0.1 13.2,-0.7 2.7,-0.5 5.5,0.1 7.7,1.6 11.6,-8.9 19.6,-22.6 19.6,-37.1 0,-15.6 -7,-32.5 -19.2,-42.8 0,0 -4,22.6 -11.5,22.3 -1.2,-0.2 -2.1,-1.4 -2.1,-2.7 -0.1,-18.6 -5.7,-29 -16,-38.7 C 134.3,2.5 121,0 121,0 c 0,0 4.2,3.3 6,10.4 2.1,6.7 -5.5,13.6 -14.7,24.3 -8.7,10 -19.6,17.3 -19.6,35.7 0,12.2 5.6,23.8 14.3,32.5 0.2,-6.5 1.5,-12.7 3.7,-18.6 z"
           class="st2"
           inkscape:connector-curvature="0"
           style="fill:#ffffff" />
      </g>
    </g>
  </g>
</svg>
