<?xml version="1.0" encoding="UTF-8" standalone="no"?>
<!-- Created with Inkscape (http://www.inkscape.org/) -->

<svg
   xmlns:dc="http://purl.org/dc/elements/1.1/"
   xmlns:cc="http://creativecommons.org/ns#"
   xmlns:rdf="http://www.w3.org/1999/02/22-rdf-syntax-ns#"
   xmlns:svg="http://www.w3.org/2000/svg"
   xmlns="http://www.w3.org/2000/svg"
   xmlns:sodipodi="http://sodipodi.sourceforge.net/DTD/sodipodi-0.dtd"
   xmlns:inkscape="http://www.inkscape.org/namespaces/inkscape"
   width="393.4071"
   height="277.37064"
   viewBox="0 0 104.08897 73.387645"
   version="1.1"
   id="svg8"
   inkscape:version="0.92+devel unknown"
   sodipodi:docname="vertical_white.svg"
   inkscape:export-filename="/home/anxhelo/Desktop/InventOS/vertical_grey.png"
   inkscape:export-xdpi="96"
   inkscape:export-ydpi="96">
  <defs
     id="defs2" />
  <sodipodi:namedview
     id="base"
     pagecolor="#ffffff"
     bordercolor="#666666"
     borderopacity="1.0"
     inkscape:pageopacity="0.0"
     inkscape:pageshadow="2"
     inkscape:zoom="0.49497475"
     inkscape:cx="-38.949284"
     inkscape:cy="252.79545"
     inkscape:document-units="mm"
     inkscape:current-layer="g512"
     inkscape:document-rotation="0"
     showgrid="false"
     borderlayer="true"
     inkscape:showpageshadow="false"
     units="px"
     inkscape:pagecheckerboard="false"
     showguides="true"
     inkscape:window-width="1366"
     inkscape:window-height="715"
     inkscape:window-x="0"
     inkscape:window-y="25"
     inkscape:window-maximized="1"
     fit-margin-top="0"
     fit-margin-left="0"
     fit-margin-right="0"
     fit-margin-bottom="0"
     inkscape:guide-bbox="true">
    <inkscape:grid
       type="xygrid"
       id="grid10"
       originx="-138.53146"
       originy="-127.03488" />
    <sodipodi:guide
       position="71.130201,31.15281"
       orientation="1,0"
       id="guide5645"
       inkscape:locked="false" />
  </sodipodi:namedview>
  <metadata
     id="metadata5">
    <rdf:RDF>
      <cc:Work
         rdf:about="">
        <dc:format>image/svg+xml</dc:format>
        <dc:type
           rdf:resource="http://purl.org/dc/dcmitype/StillImage" />
        <dc:title></dc:title>
      </cc:Work>
    </rdf:RDF>
  </metadata>
  <g
     inkscape:label="Layer 1"
     inkscape:groupmode="layer"
     id="layer1"
     transform="translate(-138.53141,-96.577459)">
    <g
       transform="matrix(0.49620121,0,0,0.49620121,13.312525,89.204201)"
       id="g512"
       style="fill:#000000;fill-opacity:1">
      <g
         transform="matrix(0.82717543,0,0,0.82717543,-221.74053,-21.949895)"
         id="g538"
         style="fill:#ffffff;fill-opacity:1">
        <circle
           fill="#1C75BC"
           cx="699.90002"
           cy="82.400002"
           r="6.6999998"
           id="circle532"
           style="fill:#ffffff;fill-opacity:1" />
        <path
           inkscape:connector-curvature="0"
           fill="#1C75BC"
           d="m 699.9,97.1 c -0.7,0 -1.4,-0.1 -2.1,-0.2 l -6.1,11.1 h 5.5 v -4.5 h 5.4 v 4.5 h 5.5 l -6,-11 c -0.7,0.1 -1.5,0.1 -2.2,0.1 z"
           id="path534"
           style="fill:#ffffff;fill-opacity:1" />
        <path
           inkscape:connector-curvature="0"
           fill="#1C75BC"
           d="M 648.5,44.5 V 147.4 H 751.4 V 44.5 Z m 84.4,71.2 h -8.2 l 5.8,10.6 -5.5,12.8 -12.8,-23.4 h -9.7 v 4.5 h -5.4 v -4.5 h -9.7 l -12.8,23.4 -5.5,-12.8 5.8,-10.6 h -8.2 V 108 h 12.4 l 9,-16.6 c -2,-2.5 -3.2,-5.7 -3.2,-9.1 0,-6.2 3.9,-11.5 9.3,-13.7 V 52.8 h 10.9 v 15.8 c 5.4,2.2 9.3,7.5 9.3,13.7 0,3.4 -1.2,6.6 -3.2,9.1 l 9,16.6 h 12.4 v 7.7 z"
           id="path536"
           style="fill:#ffffff;fill-opacity:1" />
      </g>
      <g
         transform="matrix(0.82717543,0,0,0.82717543,-225.83505,-21.949895)"
         id="g556"
         style="fill:#ffffff;fill-opacity:1">
        <path
           inkscape:connector-curvature="0"
           fill="#414042"
           d="m 578.1,177 h 9.9 v 45.5 h -9.9 z"
           id="path540"
           style="fill:#ffffff;fill-opacity:1" />
        <path
           inkscape:connector-curvature="0"
           fill="#414042"
           d="m 615.3,205.2 c 0,-5.3 -1.4,-7.6 -5.3,-7.6 -4.2,0 -5.9,2.5 -5.9,7.5 v 17.4 h -9.4 v -33.2 h 9.4 v 3.1 c 2,-2.4 5,-3.8 9,-3.8 5.1,0 11.5,2.7 11.5,12.4 v 21.6 h -9.4 v -17.4 z"
           id="path542"
           style="fill:#ffffff;fill-opacity:1" />
        <path
           inkscape:connector-curvature="0"
           fill="#414042"
           d="m 626.9,189.3 h 9.8 l 6.6,18.5 c 0.3,0.8 0.6,2.1 0.9,3.1 0.3,-1 0.6,-2.3 0.9,-3.1 l 6.5,-18.5 h 9.8 l -12.2,33.2 H 639 Z"
           id="path544"
           style="fill:#ffffff;fill-opacity:1" />
        <path
           inkscape:connector-curvature="0"
           fill="#414042"
           d="m 662,205.9 c 0,-10.7 6.1,-17.4 15.8,-17.4 8.4,0 15,5.1 15,15.7 0,1.2 0,3.2 -0.3,4.9 h -21.3 c 0.2,4.4 3.1,6.2 6.6,6.2 3.3,0 5.4,-1 7.5,-3.5 l 5.5,5.5 c -3.1,3.7 -7.2,6 -12.9,6 -9.9,0 -15.9,-6.5 -15.9,-17.4 z m 21.7,-3.9 c -0.5,-3.5 -2.4,-5.5 -6.3,-5.5 -3.3,0 -5.7,2 -6.1,5.5 z"
           id="path546"
           style="fill:#ffffff;fill-opacity:1" />
        <path
           inkscape:connector-curvature="0"
           fill="#414042"
           d="m 717.9,205.2 c 0,-5.3 -1.4,-7.6 -5.3,-7.6 -4.2,0 -5.9,2.5 -5.9,7.5 v 17.4 h -9.4 v -33.2 h 9.4 v 3.1 c 2,-2.4 5,-3.8 9,-3.8 5.1,0 11.5,2.7 11.5,12.4 v 21.6 h -9.4 v -17.4 z"
           id="path548"
           style="fill:#ffffff;fill-opacity:1" />
        <path
           inkscape:connector-curvature="0"
           fill="#414042"
           d="m 735.1,214.2 v -16.6 h -4.6 v -8.3 h 4.6 v -9.2 l 9.4,-4.5 v 13.7 h 7.2 v 8.3 h -7.2 v 15.7 c 0,1.3 1,1.9 1.9,1.9 1.8,0 3.7,-0.4 5.7,-1.3 l -1,7.9 c -2.1,1 -4.6,1.5 -7.5,1.5 -6,0 -8.5,-3.3 -8.5,-9.1 z"
           id="path550"
           style="fill:#ffffff;fill-opacity:1" />
        <path
           inkscape:connector-curvature="0"
           fill="#1C75BC"
           d="m 755.6,199.8 c 0,-11.2 5.2,-23.5 19.8,-23.5 14.6,0 19.8,12.3 19.8,23.5 0,11.2 -5.2,23.5 -19.8,23.5 -14.6,0 -19.8,-12.3 -19.8,-23.5 z m 32.7,0 c 0,-7.9 -3.3,-17 -12.8,-17 -9.5,0 -12.8,9.6 -12.8,17 0,7.9 3.3,17 12.8,17 9.5,0 12.8,-9.6 12.8,-17 z"
           id="path552"
           style="fill:#ffffff;fill-opacity:1" />
        <path
           inkscape:connector-curvature="0"
           fill="#1C75BC"
           d="m 799.5,212.2 6.4,-2.3 c 1.9,4.1 5.6,6.9 10.5,6.9 4.9,0 8.3,-2.4 8.3,-7 0,-4.9 -4.9,-6.7 -10.3,-8.6 -6.3,-2.3 -13.3,-4.7 -13.3,-13.1 0,-6.4 5.3,-11.9 14.5,-11.9 7.7,0 12.5,3.8 14,9 l -6.2,2.1 c -1.1,-2.6 -3.9,-4.6 -8.3,-4.6 -4.4,0 -7,2 -7,5.5 0,3.7 4.2,5.2 9.2,6.9 6.6,2.4 14.4,5.2 14.4,14.6 0,8.7 -6.8,13.6 -15.5,13.6 -8.3,0 -14.4,-4.3 -16.7,-11.1 z"
           id="path554"
           style="fill:#ffffff;fill-opacity:1" />
      </g>
    </g>
  </g>
</svg>
