<?xml version="1.0" encoding="UTF-8" standalone="no"?>
<!-- Created with Inkscape (http://www.inkscape.org/) -->

<svg
   xmlns:dc="http://purl.org/dc/elements/1.1/"
   xmlns:cc="http://creativecommons.org/ns#"
   xmlns:rdf="http://www.w3.org/1999/02/22-rdf-syntax-ns#"
   xmlns:svg="http://www.w3.org/2000/svg"
   xmlns="http://www.w3.org/2000/svg"
   xmlns:sodipodi="http://sodipodi.sourceforge.net/DTD/sodipodi-0.dtd"
   xmlns:inkscape="http://www.inkscape.org/namespaces/inkscape"
   width="73.951042mm"
   height="17.991667mm"
   viewBox="0 0 73.951043 17.991667"
   version="1.1"
   id="svg4652"
   inkscape:version="0.92.1 r"
   sodipodi:docname="horizontal_white.svg"
   inkscape:export-filename="/home/anxhelo/Documents/ura works folder/Passman/icon_color.png"
   inkscape:export-xdpi="96.059998"
   inkscape:export-ydpi="96.059998">
  <defs
     id="defs4646" />
  <sodipodi:namedview
     id="base"
     pagecolor="#ffffff"
     bordercolor="#666666"
     borderopacity="1.0"
     inkscape:pageopacity="0.0"
     inkscape:pageshadow="2"
     inkscape:zoom="1.4"
     inkscape:cx="107.98398"
     inkscape:cy="48.316607"
     inkscape:document-units="mm"
     inkscape:current-layer="layer1"
     showgrid="false"
     fit-margin-top="0"
     fit-margin-left="0"
     fit-margin-right="0"
     fit-margin-bottom="0"
     inkscape:window-width="1366"
     inkscape:window-height="740"
     inkscape:window-x="0"
     inkscape:window-y="0"
     inkscape:window-maximized="1" />
  <metadata
     id="metadata4649">
    <rdf:RDF>
      <cc:Work
         rdf:about="">
        <dc:format>image/svg+xml</dc:format>
        <dc:type
           rdf:resource="http://purl.org/dc/dcmitype/StillImage" />
        <dc:title></dc:title>
      </cc:Work>
    </rdf:RDF>
  </metadata>
  <g
     inkscape:label="Layer 1"
     inkscape:groupmode="layer"
     id="layer1"
     transform="translate(-160.76084,-239.01846)">
    <g
       id="g5856"
       transform="matrix(0.26458333,0,0,0.26458333,160.76084,239.01846)">
      <path
         id="path5840"
         d="m 107.8,17.1 c -2.1,-1.7 -5.1,-2.6 -9.1,-2.6 H 88.2 v 32.8 h 7 V 35.7 h 3 c 4.1,0 7.2,-0.9 9.4,-2.8 2.2,-1.9 3.3,-4.6 3.3,-8.1 0,-3.4 -1.1,-6 -3.1,-7.7 z m -5.5,11.6 c -1.1,0.8 -2.7,1.3 -4.8,1.3 h -2.3 v -9.7 h 3.2 c 1.9,0 3.3,0.4 4.2,1.2 0.9,0.8 1.3,2 1.3,3.6 -0.1,1.6 -0.6,2.8 -1.6,3.6 z"
         inkscape:connector-curvature="0"
         style="fill:#ffffff" />
      <path
         id="path5842"
         d="m 133.4,24 c -1.8,-1.5 -4.4,-2.2 -7.7,-2.2 -3.5,0 -6.7,0.8 -9.6,2.3 l 2.3,4.6 c 2.7,-1.2 5.1,-1.8 7.1,-1.8 2.6,0 3.9,1.3 3.9,3.8 v 1.1 l -4.4,0.1 c -3.8,0.1 -6.6,0.8 -8.4,2.1 -1.9,1.3 -2.8,3.2 -2.8,5.9 0,2.5 0.7,4.5 2.1,5.9 1.4,1.4 3.3,2.1 5.7,2.1 2,0 3.6,-0.3 4.8,-0.8 1.2,-0.6 2.4,-1.6 3.6,-3 h 0.2 l 1.3,3.4 h 4.8 V 30.7 c -0.2,-3 -1.1,-5.3 -2.9,-6.7 z m -4.1,13.8 c 0,1.5 -0.5,2.7 -1.4,3.6 -1,0.9 -2.2,1.4 -3.8,1.4 -2.2,0 -3.3,-1 -3.3,-2.9 0,-1.3 0.5,-2.4 1.5,-3 1,-0.7 2.5,-1 4.4,-1.1 l 2.7,-0.1 v 2.1 z"
         inkscape:connector-curvature="0"
         style="fill:#ffffff" />
      <path
         id="path5844"
         d="m 156.9,34.3 c -0.9,-0.7 -2.4,-1.4 -4.3,-2.2 -2.2,-0.9 -3.6,-1.5 -4.3,-2 -0.7,-0.4 -1,-1 -1,-1.6 0,-1.1 1,-1.6 3,-1.6 1.1,0 2.3,0.2 3.3,0.5 1.1,0.3 2.3,0.8 3.5,1.3 l 2.1,-4.9 c -2.9,-1.3 -5.8,-2 -8.8,-2 -3.2,0 -5.6,0.6 -7.4,1.8 -1.7,1.2 -2.6,2.9 -2.6,5.2 0,1.3 0.2,2.4 0.6,3.3 0.4,0.9 1.1,1.7 2,2.4 0.9,0.7 2.3,1.4 4.3,2.2 1.3,0.6 2.4,1.1 3.2,1.5 0.8,0.4 1.4,0.8 1.7,1.1 0.3,0.3 0.5,0.8 0.5,1.3 0,1.4 -1.2,2.2 -3.7,2.2 -1.2,0 -2.6,-0.2 -4.2,-0.6 -1.6,-0.4 -3,-0.9 -4.3,-1.5 v 5.7 c 1.1,0.5 2.3,0.8 3.6,1.1 1.3,0.3 2.8,0.4 4.7,0.4 3.6,0 6.2,-0.7 8,-2 1.8,-1.3 2.7,-3.3 2.7,-5.9 0,-1.2 -0.2,-2.3 -0.7,-3.2 -0.5,-0.9 -1,-1.8 -1.9,-2.5 z"
         inkscape:connector-curvature="0"
         style="fill:#ffffff" />
      <path
         id="path5846"
         d="m 178.6,34.3 c -0.9,-0.7 -2.4,-1.4 -4.3,-2.2 -2.2,-0.9 -3.6,-1.5 -4.3,-2 -0.7,-0.4 -1,-1 -1,-1.6 0,-1.1 1,-1.6 3,-1.6 1.1,0 2.3,0.2 3.3,0.5 1.1,0.3 2.3,0.8 3.5,1.3 l 2.1,-4.9 c -2.9,-1.3 -5.8,-2 -8.8,-2 -3.2,0 -5.6,0.6 -7.4,1.8 -1.7,1.2 -2.6,2.9 -2.6,5.2 0,1.3 0.2,2.4 0.6,3.3 0.4,0.9 1.1,1.7 2,2.4 0.9,0.7 2.3,1.4 4.3,2.2 1.3,0.6 2.4,1.1 3.2,1.5 0.8,0.4 1.4,0.8 1.7,1.1 0.3,0.3 0.5,0.8 0.5,1.3 0,1.4 -1.2,2.2 -3.7,2.2 -1.2,0 -2.6,-0.2 -4.2,-0.6 -1.6,-0.4 -3,-0.9 -4.3,-1.5 v 5.7 c 1.1,0.5 2.3,0.8 3.6,1.1 1.3,0.3 2.8,0.4 4.7,0.4 3.6,0 6.2,-0.7 8,-2 1.8,-1.3 2.7,-3.3 2.7,-5.9 0,-1.2 -0.2,-2.3 -0.7,-3.2 -0.5,-0.9 -1,-1.8 -1.9,-2.5 z"
         inkscape:connector-curvature="0"
         style="fill:#ffffff" />
      <path
         id="path5848"
         d="m 214.9,21.8 c -1.6,0 -3.1,0.3 -4.4,1 -1.3,0.6 -2.3,1.5 -3,2.7 h -0.6 c -1.3,-2.5 -3.9,-3.7 -7.6,-3.7 -1.6,0 -3.1,0.3 -4.4,1 -1.3,0.7 -2.2,1.6 -2.9,2.7 h -0.4 l -0.9,-3.2 h -5.2 v 25.1 h 6.9 V 35.6 c 0,-2.9 0.4,-5.1 1.2,-6.4 0.8,-1.3 2.1,-1.9 3.8,-1.9 1.3,0 2.3,0.5 2.9,1.4 0.6,0.9 0.9,2.3 0.9,4.1 v 14.7 h 6.9 V 34.8 c 0,-2.6 0.4,-4.5 1.2,-5.7 0.8,-1.2 2.1,-1.8 3.8,-1.8 1.3,0 2.3,0.5 2.9,1.4 0.6,0.9 0.9,2.3 0.9,4.1 v 14.7 h 6.9 V 31 c 0,-3.2 -0.7,-5.6 -2.2,-7 -1.7,-1.5 -3.8,-2.2 -6.7,-2.2 z"
         inkscape:connector-curvature="0"
         style="fill:#ffffff" />
      <path
         id="path5850"
         d="m 247.5,24 c -1.8,-1.5 -4.4,-2.2 -7.7,-2.2 -3.5,0 -6.7,0.8 -9.6,2.3 l 2.3,4.6 c 2.7,-1.2 5.1,-1.8 7.1,-1.8 2.6,0 3.9,1.3 3.9,3.8 v 1.1 l -4.4,0.1 c -3.8,0.1 -6.6,0.8 -8.4,2.1 -1.9,1.3 -2.8,3.2 -2.8,5.9 0,2.5 0.7,4.5 2.1,5.9 1.4,1.4 3.3,2.1 5.7,2.1 2,0 3.6,-0.3 4.8,-0.8 1.2,-0.6 2.4,-1.6 3.6,-3 h 0.2 l 1.3,3.4 h 4.8 V 30.7 c -0.2,-3 -1.1,-5.3 -2.9,-6.7 z m -4.1,13.8 c 0,1.5 -0.5,2.7 -1.4,3.6 -1,0.9 -2.2,1.4 -3.8,1.4 -2.2,0 -3.3,-1 -3.3,-2.9 0,-1.3 0.5,-2.4 1.5,-3 1,-0.7 2.5,-1 4.4,-1.1 l 2.7,-0.1 v 2.1 z"
         inkscape:connector-curvature="0"
         style="fill:#ffffff" />
      <path
         id="path5852"
         d="m 277,24.2 c -1.5,-1.6 -3.7,-2.4 -6.6,-2.4 -1.7,0 -3.2,0.3 -4.6,0.9 -1.3,0.6 -2.4,1.5 -3.2,2.8 h -0.4 l -0.9,-3.2 h -5.2 V 47.4 H 263 V 35.6 c 0,-3 0.4,-5.1 1.3,-6.4 0.9,-1.3 2.2,-1.9 4.2,-1.9 1.4,0 2.4,0.5 3.1,1.4 0.6,0.9 1,2.3 1,4.1 v 14.7 h 6.9 V 31 c -0.2,-3 -1,-5.2 -2.5,-6.8 z"
         inkscape:connector-curvature="0"
         style="fill:#ffffff" />
      <path
         id="path5854"
         d="M 0,34 C 0,55.9 30,68 34,68 38,68 68,55.9 68,34 V 0 H 0 Z M 45.4,50.3 H 22.6 V 43.8 H 45.4 Z M 21.6,16.2 c 0,0 6.5,2.4 9.2,4.1 -0.6,-2.6 -1.2,-10 -1.2,-10 h 8.6 c 0,0 -0.6,7.8 -1.2,10 1.2,-0.6 9.4,-4.1 9.4,-4.1 l 2.7,8.3 c 0,0 -7.5,1.8 -10.1,1.9 1.8,1.4 6.7,7.4 6.7,7.4 l -7,5.3 c 0,0 -3.8,-6.3 -5,-8.9 -1.2,2.9 -5,8.9 -5,8.9 l -7.2,-5.3 c 0,0 5.7,-6.3 7.1,-7.4 -1.4,-0.1 -9.9,-1.9 -9.9,-1.9 z"
         inkscape:connector-curvature="0"
         style="fill:#ffffff" />
    </g>
  </g>
</svg>
