<?xml version="1.0" encoding="UTF-8" standalone="no"?>
<!-- Created with Inkscape (http://www.inkscape.org/) -->

<svg
   xmlns:dc="http://purl.org/dc/elements/1.1/"
   xmlns:cc="http://creativecommons.org/ns#"
   xmlns:rdf="http://www.w3.org/1999/02/22-rdf-syntax-ns#"
   xmlns:svg="http://www.w3.org/2000/svg"
   xmlns="http://www.w3.org/2000/svg"
   xmlns:sodipodi="http://sodipodi.sourceforge.net/DTD/sodipodi-0.dtd"
   xmlns:inkscape="http://www.inkscape.org/namespaces/inkscape"
   width="73.898125mm"
   height="17.991667mm"
   viewBox="0 0 73.898124 17.991667"
   version="1.1"
   id="svg4652"
   inkscape:version="0.92.1 r"
   sodipodi:docname="horizontal_color.svg"
   inkscape:export-filename="/home/anxhelo/Documents/ura works folder/Passman/icon_android.png"
   inkscape:export-xdpi="96.059998"
   inkscape:export-ydpi="96.059998">
  <defs
     id="defs4646" />
  <sodipodi:namedview
     id="base"
     pagecolor="#ffffff"
     bordercolor="#666666"
     borderopacity="1.0"
     inkscape:pageopacity="0.0"
     inkscape:pageshadow="2"
     inkscape:zoom="1.4"
     inkscape:cx="87.805421"
     inkscape:cy="51.03088"
     inkscape:document-units="mm"
     inkscape:current-layer="layer1"
     showgrid="false"
     fit-margin-top="0"
     fit-margin-left="0"
     fit-margin-right="0"
     fit-margin-bottom="0"
     inkscape:window-width="1366"
     inkscape:window-height="740"
     inkscape:window-x="0"
     inkscape:window-y="0"
     inkscape:window-maximized="1" />
  <metadata
     id="metadata4649">
    <rdf:RDF>
      <cc:Work
         rdf:about="">
        <dc:format>image/svg+xml</dc:format>
        <dc:type
           rdf:resource="http://purl.org/dc/dcmitype/StillImage" />
        <dc:title></dc:title>
      </cc:Work>
    </rdf:RDF>
  </metadata>
  <g
     inkscape:label="Layer 1"
     inkscape:groupmode="layer"
     id="layer1"
     transform="translate(-166.09975,-239.73661)">
    <g
       id="g5441"
       transform="matrix(0.26458333,0,0,0.26458333,166.09975,239.73661)">
      <g
         id="g5431">
        <path
           id="path5417"
           d="m 110.9,24.8 c 0,3.5 -1.1,6.2 -3.3,8.1 -2.2,1.9 -5.3,2.8 -9.4,2.8 h -3 v 11.7 h -7 V 14.5 h 10.5 c 4,0 7,0.9 9.1,2.6 2,1.7 3.1,4.3 3.1,7.7 z M 95.2,30 h 2.3 c 2.1,0 3.7,-0.4 4.8,-1.3 1.1,-0.8 1.6,-2.1 1.6,-3.7 0,-1.6 -0.4,-2.8 -1.3,-3.6 -0.9,-0.8 -2.3,-1.2 -4.2,-1.2 h -3.2 z"
           inkscape:connector-curvature="0"
           style="fill:#6d6e71" />
        <path
           id="path5419"
           d="M 131.3,47.4 130,44 h -0.2 c -1.2,1.5 -2.3,2.5 -3.6,3 -1.2,0.6 -2.8,0.8 -4.8,0.8 -2.4,0 -4.3,-0.7 -5.7,-2.1 -1.4,-1.4 -2.1,-3.3 -2.1,-5.9 0,-2.7 0.9,-4.6 2.8,-5.9 1.9,-1.3 4.7,-2 8.4,-2.1 l 4.4,-0.1 v -1.1 c 0,-2.5 -1.3,-3.8 -3.9,-3.8 -2,0 -4.4,0.6 -7.1,1.8 L 115.9,24 c 2.9,-1.5 6.1,-2.3 9.6,-2.3 3.4,0 6,0.7 7.7,2.2 1.8,1.5 2.7,3.7 2.7,6.7 v 16.7 h -4.6 z m -2,-11.7 -2.7,0.1 c -2,0.1 -3.5,0.4 -4.4,1.1 -1,0.7 -1.5,1.7 -1.5,3 0,1.9 1.1,2.9 3.3,2.9 1.6,0 2.9,-0.5 3.8,-1.4 1,-0.9 1.4,-2.1 1.4,-3.6 v -2.1 z"
           inkscape:connector-curvature="0"
           style="fill:#6d6e71" />
        <path
           id="path5421"
           d="m 159.5,39.9 c 0,2.6 -0.9,4.5 -2.7,5.9 -1.8,1.3 -4.5,2 -8,2 -1.8,0 -3.4,-0.1 -4.7,-0.4 -1.3,-0.3 -2.5,-0.6 -3.6,-1.1 v -5.7 c 1.3,0.6 2.7,1.1 4.3,1.5 1.6,0.4 3,0.6 4.2,0.6 2.5,0 3.7,-0.7 3.7,-2.2 0,-0.5 -0.2,-1 -0.5,-1.3 -0.3,-0.3 -0.9,-0.7 -1.7,-1.1 -0.8,-0.4 -1.9,-0.9 -3.2,-1.5 -1.9,-0.8 -3.4,-1.6 -4.3,-2.2 -0.9,-0.7 -1.6,-1.5 -2,-2.4 -0.4,-0.9 -0.6,-2 -0.6,-3.3 0,-2.2 0.9,-4 2.6,-5.2 1.7,-1.2 4.2,-1.8 7.4,-1.8 3,0 6,0.7 8.8,2 l -2.1,4.9 c -1.3,-0.5 -2.4,-1 -3.5,-1.3 -1.1,-0.3 -2.2,-0.5 -3.3,-0.5 -2,0 -3,0.5 -3,1.6 0,0.6 0.3,1.1 1,1.6 0.7,0.4 2.1,1.1 4.3,2 2,0.8 3.4,1.5 4.3,2.2 0.9,0.7 1.6,1.5 2,2.4 0.4,0.9 0.6,2.1 0.6,3.3 z"
           inkscape:connector-curvature="0"
           style="fill:#6d6e71" />
        <path
           id="path5423"
           d="m 181.3,39.9 c 0,2.6 -0.9,4.5 -2.7,5.9 -1.8,1.3 -4.5,2 -8,2 -1.8,0 -3.4,-0.1 -4.7,-0.4 -1.3,-0.3 -2.5,-0.6 -3.6,-1.1 v -5.7 c 1.3,0.6 2.7,1.1 4.3,1.5 1.6,0.4 3,0.6 4.2,0.6 2.5,0 3.7,-0.7 3.7,-2.2 0,-0.5 -0.2,-1 -0.5,-1.3 -0.3,-0.3 -0.9,-0.7 -1.7,-1.1 -0.8,-0.4 -1.9,-0.9 -3.2,-1.5 -1.9,-0.8 -3.4,-1.6 -4.3,-2.2 -0.9,-0.7 -1.6,-1.5 -2,-2.4 -0.4,-0.9 -0.6,-2 -0.6,-3.3 0,-2.2 0.9,-4 2.6,-5.2 1.7,-1.2 4.2,-1.8 7.4,-1.8 3,0 6,0.7 8.8,2 l -2.1,4.9 c -1.3,-0.5 -2.4,-1 -3.5,-1.3 -1.1,-0.3 -2.2,-0.5 -3.3,-0.5 -2,0 -3,0.5 -3,1.6 0,0.6 0.3,1.1 1,1.6 0.7,0.4 2.1,1.1 4.3,2 2,0.8 3.4,1.5 4.3,2.2 0.9,0.7 1.6,1.5 2,2.4 0.4,0.9 0.6,2.1 0.6,3.3 z"
           inkscape:connector-curvature="0"
           style="fill:#6d6e71" />
        <path
           id="path5425"
           d="M 207.9,47.4 H 201 V 32.7 c 0,-1.8 -0.3,-3.2 -0.9,-4.1 -0.6,-0.9 -1.6,-1.4 -2.9,-1.4 -1.8,0 -3,0.6 -3.8,1.9 -0.8,1.3 -1.2,3.4 -1.2,6.4 v 11.8 h -6.9 v -25 h 5.2 l 0.9,3.2 h 0.4 c 0.7,-1.2 1.6,-2.1 2.9,-2.7 1.3,-0.6 2.7,-1 4.4,-1 3.8,0 6.3,1.2 7.6,3.7 h 0.6 c 0.7,-1.2 1.7,-2.1 3,-2.7 1.3,-0.6 2.8,-1 4.4,-1 2.8,0 5,0.7 6.5,2.2 1.5,1.5 2.2,3.8 2.2,7 v 16.4 h -6.9 V 32.7 c 0,-1.8 -0.3,-3.2 -0.9,-4.1 -0.6,-0.9 -1.6,-1.4 -2.9,-1.4 -1.7,0 -2.9,0.6 -3.8,1.8 -0.8,1.2 -1.2,3.1 -1.2,5.7 v 12.7 z"
           inkscape:connector-curvature="0"
           style="fill:#6d6e71" />
        <path
           id="path5427"
           d="M 245.4,47.4 244.1,44 h -0.2 c -1.2,1.5 -2.3,2.5 -3.6,3 -1.2,0.6 -2.8,0.8 -4.8,0.8 -2.4,0 -4.3,-0.7 -5.7,-2.1 -1.4,-1.4 -2.1,-3.3 -2.1,-5.9 0,-2.7 0.9,-4.6 2.8,-5.9 1.9,-1.3 4.7,-2 8.4,-2.1 l 4.4,-0.1 v -1.1 c 0,-2.5 -1.3,-3.8 -3.9,-3.8 -2,0 -4.4,0.6 -7.1,1.8 L 230,24 c 2.9,-1.5 6.1,-2.3 9.6,-2.3 3.4,0 6,0.7 7.7,2.2 1.8,1.5 2.7,3.7 2.7,6.7 v 16.7 h -4.6 z m -2,-11.7 -2.7,0.1 c -2,0.1 -3.5,0.4 -4.4,1.1 -1,0.7 -1.5,1.7 -1.5,3 0,1.9 1.1,2.9 3.3,2.9 1.6,0 2.9,-0.5 3.8,-1.4 1,-0.9 1.4,-2.1 1.4,-3.6 v -2.1 z"
           inkscape:connector-curvature="0"
           style="fill:#6d6e71" />
        <path
           id="path5429"
           d="m 279.3,47.4 h -6.9 V 32.7 c 0,-1.8 -0.3,-3.2 -1,-4.1 -0.6,-0.9 -1.7,-1.4 -3.1,-1.4 -1.9,0 -3.3,0.6 -4.2,1.9 -0.9,1.3 -1.3,3.4 -1.3,6.4 v 11.8 h -6.9 v -25 h 5.2 l 0.9,3.2 h 0.4 c 0.8,-1.2 1.8,-2.1 3.2,-2.8 1.3,-0.6 2.9,-0.9 4.6,-0.9 2.9,0 5.1,0.8 6.6,2.4 1.5,1.6 2.3,3.9 2.3,6.8 v 16.4 z"
           inkscape:connector-curvature="0"
           style="fill:#6d6e71" />
      </g>
      <path
         id="path5433"
         d="M 0,0 V 34 C 0,55.9 30,68 34,68 38,68 68,55.9 68,34 V 0 Z"
         inkscape:connector-curvature="0"
         style="fill:#0082c9" />
      <g
         id="g5437">
        <path
           id="path5435"
           d="m 29.6,10.3 h 8.6 c 0,0 -0.6,7.8 -1.2,10 1.2,-0.6 9.4,-4.1 9.4,-4.1 l 2.7,8.3 c 0,0 -7.5,1.8 -10.1,1.9 1.8,1.4 6.7,7.4 6.7,7.4 l -7,5.3 c 0,0 -3.8,-6.3 -5,-8.9 -1.2,2.9 -5,8.9 -5,8.9 l -7.2,-5.3 c 0,0 5.7,-6.3 7.1,-7.4 -1.4,-0.1 -9.9,-1.9 -9.9,-1.9 l 2.8,-8.3 c 0,0 6.5,2.4 9.2,4.1 -0.5,-2.6 -1.1,-10 -1.1,-10 z"
           inkscape:connector-curvature="0"
           style="fill:#ffffff" />
      </g>
      <rect
         id="rect5439"
         height="6.5"
         width="22.799999"
         y="43.799999"
         x="22.6"
         style="fill:#ffffff" />
    </g>
  </g>
</svg>
