<?xml version="1.0" encoding="UTF-8" standalone="no"?>
<!-- Created with Inkscape (http://www.inkscape.org/) -->

<svg
   xmlns:dc="http://purl.org/dc/elements/1.1/"
   xmlns:cc="http://creativecommons.org/ns#"
   xmlns:rdf="http://www.w3.org/1999/02/22-rdf-syntax-ns#"
   xmlns:svg="http://www.w3.org/2000/svg"
   xmlns="http://www.w3.org/2000/svg"
   xmlns:sodipodi="http://sodipodi.sourceforge.net/DTD/sodipodi-0.dtd"
   xmlns:inkscape="http://www.inkscape.org/namespaces/inkscape"
   width="17.991667mm"
   height="17.991667mm"
   viewBox="0 0 17.991667 17.991667"
   version="1.1"
   id="svg4652"
   inkscape:version="0.92.1 r"
   sodipodi:docname="icon_white.svg"
   inkscape:export-filename="/home/anxhelo/Documents/ura works folder/Passman/horizontal_white.png"
   inkscape:export-xdpi="96.059998"
   inkscape:export-ydpi="96.059998">
  <defs
     id="defs4646" />
  <sodipodi:namedview
     id="base"
     pagecolor="#ffffff"
     bordercolor="#666666"
     borderopacity="1.0"
     inkscape:pageopacity="0.0"
     inkscape:pageshadow="2"
     inkscape:zoom="1.4"
     inkscape:cx="-105.87318"
     inkscape:cy="61.602325"
     inkscape:document-units="mm"
     inkscape:current-layer="layer1"
     showgrid="false"
     fit-margin-top="0"
     fit-margin-left="0"
     fit-margin-right="0"
     fit-margin-bottom="0"
     inkscape:window-width="1366"
     inkscape:window-height="740"
     inkscape:window-x="0"
     inkscape:window-y="0"
     inkscape:window-maximized="1" />
  <metadata
     id="metadata4649">
    <rdf:RDF>
      <cc:Work
         rdf:about="">
        <dc:format>image/svg+xml</dc:format>
        <dc:type
           rdf:resource="http://purl.org/dc/dcmitype/StillImage" />
        <dc:title></dc:title>
      </cc:Work>
    </rdf:RDF>
  </metadata>
  <g
     inkscape:label="Layer 1"
     inkscape:groupmode="layer"
     id="layer1"
     transform="translate(-217.34388,-242.53364)">
    <g
       id="g5996"
       transform="matrix(0.26458333,0,0,0.26458333,217.34388,242.53364)">
      <path
         id="path5994"
         d="M 0,34 C 0,55.9 30,68 34,68 38,68 68,55.9 68,34 V 0 H 0 Z M 45.4,50.3 H 22.6 V 43.8 H 45.4 Z M 21.6,16.2 c 0,0 6.5,2.4 9.2,4.1 -0.6,-2.6 -1.2,-10 -1.2,-10 h 8.6 c 0,0 -0.6,7.8 -1.2,10 1.2,-0.6 9.4,-4.1 9.4,-4.1 l 2.7,8.3 c 0,0 -7.5,1.8 -10.1,1.9 1.8,1.4 6.7,7.4 6.7,7.4 l -7,5.3 c 0,0 -3.8,-6.3 -5,-8.9 -1.2,2.9 -5,8.9 -5,8.9 l -7.2,-5.3 c 0,0 5.7,-6.3 7.1,-7.4 -1.4,-0.1 -9.9,-1.9 -9.9,-1.9 z"
         inkscape:connector-curvature="0"
         style="fill:#ffffff" />
    </g>
  </g>
</svg>
