<?xml version="1.0" encoding="UTF-8" standalone="no"?>
<!-- Created with Inkscape (http://www.inkscape.org/) -->

<svg
   xmlns:dc="http://purl.org/dc/elements/1.1/"
   xmlns:cc="http://creativecommons.org/ns#"
   xmlns:rdf="http://www.w3.org/1999/02/22-rdf-syntax-ns#"
   xmlns:svg="http://www.w3.org/2000/svg"
   xmlns="http://www.w3.org/2000/svg"
   xmlns:sodipodi="http://sodipodi.sourceforge.net/DTD/sodipodi-0.dtd"
   xmlns:inkscape="http://www.inkscape.org/namespaces/inkscape"
   width="117.79091mm"
   height="25.672785mm"
   viewBox="0 0 117.79091 25.672786"
   version="1.1"
   id="svg971"
   inkscape:version="0.92.1 r"
   sodipodi:docname="albaniench_newsletter Albanien.svg">
  <defs
     id="defs965" />
  <sodipodi:namedview
     id="base"
     pagecolor="#ffffff"
     bordercolor="#666666"
     borderopacity="1.0"
     inkscape:pageopacity="0.0"
     inkscape:pageshadow="2"
     inkscape:zoom="0.35"
     inkscape:cx="171.28586"
     inkscape:cy="639.52563"
     inkscape:document-units="mm"
     inkscape:current-layer="layer1"
     showgrid="false"
     fit-margin-top="0"
     fit-margin-left="0"
     fit-margin-right="0"
     fit-margin-bottom="0"
     inkscape:window-width="1366"
     inkscape:window-height="744"
     inkscape:window-x="0"
     inkscape:window-y="0"
     inkscape:window-maximized="1" />
  <metadata
     id="metadata968">
    <rdf:RDF>
      <cc:Work
         rdf:about="">
        <dc:format>image/svg+xml</dc:format>
        <dc:type
           rdf:resource="http://purl.org/dc/dcmitype/StillImage" />
        <dc:title></dc:title>
      </cc:Work>
    </rdf:RDF>
  </metadata>
  <g
     inkscape:label="Layer 1"
     inkscape:groupmode="layer"
     id="layer1"
     transform="translate(65.730097,-292.36837)">
    <g
       id="g160"
       transform="matrix(0.26458333,0,0,0.26458333,-65.730097,292.36837)">
      <g
         id="g120">
        <g
           id="g4">
          <rect
             style="fill:#e41e20"
             x="0"
             y="0"
             width="79.272003"
             height="79.272003"
             id="rect2" />
        </g>
        <g
           id="g50">
          <g
             id="g8">
            <path
               inkscape:connector-curvature="0"
               d="m 117.079,25.063 c 1.903,0 3.667,0.35 5.292,1.05 1.624,0.701 3.037,1.652 4.242,2.856 1.204,1.205 2.155,2.619 2.856,4.242 0.7,1.625 1.05,3.389 1.05,5.292 v 26.04 l -0.84,0.84 h -1.68 l -3.36,-3.36 c -1.457,1.121 -2.969,1.961 -4.536,2.52 -1.568,0.56 -3.416,0.84 -5.544,0.84 h -4.2 c -1.68,0 -3.234,-0.294 -4.662,-0.882 -1.428,-0.588 -2.675,-1.414 -3.738,-2.478 -1.064,-1.063 -1.89,-2.31 -2.478,-3.738 -0.588,-1.428 -0.882,-2.982 -0.882,-4.662 0,-1.624 0.28,-3.136 0.84,-4.536 0.559,-1.399 1.344,-2.617 2.352,-3.654 1.008,-1.035 2.197,-1.875 3.57,-2.52 1.372,-0.643 2.869,-0.993 4.494,-1.05 h 13.104 v -3.36 c 0,-1.68 -0.561,-3.079 -1.68,-4.2 -1.121,-1.12 -2.52,-1.68 -4.2,-1.68 h -5.04 c -1.064,0 -1.96,0.126 -2.688,0.378 -0.728,0.252 -1.358,0.56 -1.89,0.924 -0.533,0.365 -0.966,0.743 -1.302,1.134 -0.336,0.393 -0.617,0.701 -0.84,0.924 h -0.84 l -3.36,-4.2 v -1.68 l 1.68,-1.68 c 0.84,-0.84 2.169,-1.609 3.99,-2.31 1.819,-0.7 3.57,-1.05 5.25,-1.05 z m -6.804,24.36 c -1.176,0 -2.157,0.393 -2.94,1.176 -0.785,0.785 -1.176,1.821 -1.176,3.108 0,1.176 0.378,2.156 1.134,2.94 0.756,0.785 1.75,1.176 2.982,1.176 h 4.284 c 2.52,0 4.549,-0.769 6.09,-2.31 1.54,-1.54 2.31,-3.57 2.31,-6.09 z"
               id="path6" />
          </g>
          <g
             id="g12">
            <path
               inkscape:connector-curvature="0"
               d="m 145.386,64.333 c -1.625,-0.7 -3.039,-1.651 -4.242,-2.856 -1.205,-1.204 -2.156,-2.617 -2.856,-4.242 -0.701,-1.624 -1.05,-3.388 -1.05,-5.292 v -37.8 l 5.04,-2.52 h 1.68 l 0.84,0.84 v 39.48 c 0,1.68 0.56,3.081 1.68,4.2 1.12,1.121 2.52,1.68 4.2,1.68 h 4.2 l 0.84,0.84 v 5.88 l -0.84,0.84 h -4.2 c -1.905,0 -3.668,-0.349 -5.292,-1.05 z"
               id="path10" />
          </g>
          <g
             id="g16">
            <path
               inkscape:connector-curvature="0"
               d="m 175.038,65.383 c -2.129,0 -3.99,-0.322 -5.586,-0.966 -1.596,-0.643 -3.066,-1.525 -4.41,-2.646 l -3.444,3.612 h -1.68 l -0.84,-0.84 v -52.08 l 0.84,-0.84 h 5.88 l 0.84,0.84 v 12.6 l -1.596,2.52 0.756,0.84 0.84,-0.84 c 1.288,-0.84 2.59,-1.47 3.906,-1.89 1.315,-0.42 2.814,-0.63 4.494,-0.63 h 1.68 c 1.903,0 3.667,0.35 5.292,1.05 1.624,0.701 3.037,1.652 4.242,2.856 1.204,1.205 2.155,2.619 2.856,4.242 0.7,1.625 1.05,3.389 1.05,5.292 v 13.44 c 0,1.904 -0.35,3.668 -1.05,5.292 -0.701,1.625 -1.652,3.039 -2.856,4.242 -1.205,1.205 -2.619,2.156 -4.242,2.856 -1.625,0.701 -3.389,1.05 -5.292,1.05 z m 0,-32.76 c -1.064,0 -2.1,0.21 -3.108,0.63 -1.008,0.42 -1.904,1.008 -2.688,1.764 -0.785,0.756 -1.415,1.653 -1.89,2.688 -0.477,1.037 -0.714,2.142 -0.714,3.318 v 8.4 c 0,1.289 0.238,2.436 0.714,3.444 0.475,1.008 1.105,1.89 1.89,2.646 0.784,0.756 1.68,1.331 2.688,1.722 1.008,0.393 2.044,0.588 3.108,0.588 h 1.596 c 1.68,0 3.094,-0.559 4.242,-1.68 1.147,-1.119 1.722,-2.52 1.722,-4.2 v -13.44 c 0,-1.68 -0.575,-3.079 -1.722,-4.2 -1.148,-1.12 -2.562,-1.68 -4.242,-1.68 z"
               id="path14" />
          </g>
          <g
             id="g20">
            <path
               inkscape:connector-curvature="0"
               d="m 211.997,25.063 c 1.903,0 3.667,0.35 5.292,1.05 1.624,0.701 3.037,1.652 4.242,2.856 1.204,1.205 2.155,2.619 2.856,4.242 0.7,1.625 1.05,3.389 1.05,5.292 v 26.04 l -0.84,0.84 h -1.68 l -3.36,-3.36 c -1.457,1.121 -2.969,1.961 -4.536,2.52 -1.568,0.56 -3.416,0.84 -5.544,0.84 h -4.2 c -1.68,0 -3.234,-0.294 -4.662,-0.882 -1.428,-0.588 -2.675,-1.414 -3.738,-2.478 -1.064,-1.063 -1.89,-2.31 -2.478,-3.738 -0.588,-1.428 -0.882,-2.982 -0.882,-4.662 0,-1.624 0.28,-3.136 0.84,-4.536 0.559,-1.399 1.344,-2.617 2.352,-3.654 1.008,-1.035 2.197,-1.875 3.57,-2.52 1.372,-0.643 2.869,-0.993 4.494,-1.05 h 13.104 v -3.36 c 0,-1.68 -0.561,-3.079 -1.68,-4.2 -1.121,-1.12 -2.52,-1.68 -4.2,-1.68 h -5.04 c -1.064,0 -1.96,0.126 -2.688,0.378 -0.728,0.252 -1.358,0.56 -1.89,0.924 -0.533,0.365 -0.966,0.743 -1.302,1.134 -0.336,0.393 -0.617,0.701 -0.84,0.924 h -0.84 l -3.36,-4.2 v -1.68 l 1.68,-1.68 c 0.84,-0.84 2.169,-1.609 3.99,-2.31 1.819,-0.7 3.57,-1.05 5.25,-1.05 z m -6.803,24.36 c -1.176,0 -2.157,0.393 -2.94,1.176 -0.785,0.785 -1.176,1.821 -1.176,3.108 0,1.176 0.378,2.156 1.134,2.94 0.756,0.785 1.75,1.176 2.982,1.176 h 4.284 c 2.52,0 4.549,-0.769 6.09,-2.31 1.54,-1.54 2.31,-3.57 2.31,-6.09 z"
               id="path18" />
          </g>
          <g
             id="g24">
            <path
               inkscape:connector-curvature="0"
               d="m 250.637,25.063 c 1.903,0 3.667,0.35 5.292,1.05 1.624,0.701 3.037,1.652 4.242,2.856 1.204,1.205 2.155,2.619 2.856,4.242 0.7,1.625 1.05,3.389 1.05,5.292 v 26.04 l -0.84,0.84 h -5.88 l -0.84,-0.84 v -26.04 c 0,-1.68 -0.575,-3.079 -1.722,-4.2 -1.148,-1.12 -2.562,-1.68 -4.242,-1.68 h -2.436 c -1.064,0 -2.1,0.197 -3.108,0.588 -1.008,0.392 -1.904,0.966 -2.688,1.722 -0.785,0.756 -1.415,1.653 -1.89,2.688 -0.477,1.037 -0.714,2.171 -0.714,3.402 v 23.52 l -0.84,0.84 h -5.88 l -0.84,-0.84 v -38.64 l 0.84,-0.84 h 1.68 l 3.444,3.612 c 1.344,-1.12 2.814,-2.001 4.41,-2.646 1.596,-0.643 3.457,-0.966 5.586,-0.966 z"
               id="path22" />
          </g>
          <g
             id="g28">
            <path
               inkscape:connector-curvature="0"
               d="m 271.636,12.463 0.84,-0.84 h 5.88 l 0.84,0.84 v 6.72 l -0.84,0.84 h -5.88 l -0.84,-0.84 z m 0,13.44 0.84,-0.84 h 5.88 l 0.84,0.84 v 38.64 l -0.84,0.84 h -5.88 l -0.84,-0.84 z"
               id="path26" />
          </g>
          <g
             id="g32">
            <path
               inkscape:connector-curvature="0"
               d="m 299.356,65.383 c -1.905,0 -3.668,-0.349 -5.292,-1.05 -1.625,-0.7 -3.039,-1.651 -4.242,-2.856 -1.205,-1.204 -2.156,-2.617 -2.856,-4.242 -0.701,-1.624 -1.05,-3.388 -1.05,-5.292 v -13.44 c 0,-1.903 0.349,-3.667 1.05,-5.292 0.7,-1.624 1.651,-3.037 2.856,-4.242 1.204,-1.204 2.617,-2.155 4.242,-2.856 1.624,-0.7 3.387,-1.05 5.292,-1.05 h 5.04 c 1.903,0 3.667,0.35 5.292,1.05 1.624,0.701 3.037,1.652 4.242,2.856 1.204,1.205 2.155,2.619 2.856,4.242 0.7,1.625 1.05,3.389 1.05,5.292 v 10.08 h -24.36 v 3.36 c 0,1.68 0.56,3.081 1.68,4.2 1.12,1.121 2.52,1.68 4.2,1.68 h 6.72 c 1.68,0 3.108,-0.307 4.284,-0.924 1.176,-0.616 1.987,-1.147 2.436,-1.596 h 0.84 l 3.36,3.36 v 1.68 l -1.68,1.68 c -0.84,0.84 -2.171,1.61 -3.99,2.31 -1.82,0.701 -3.57,1.05 -5.25,1.05 z m 0,-32.76 c -1.68,0 -3.081,0.56 -4.2,1.68 -1.121,1.121 -1.68,2.52 -1.68,4.2 v 2.52 h 16.8 v -2.52 c 0,-1.68 -0.575,-3.079 -1.722,-4.2 -1.148,-1.12 -2.562,-1.68 -4.242,-1.68 z"
               id="path30" />
          </g>
          <g
             id="g36">
            <path
               inkscape:connector-curvature="0"
               d="m 343.036,25.063 c 1.903,0 3.667,0.35 5.292,1.05 1.624,0.701 3.037,1.652 4.242,2.856 1.203,1.205 2.155,2.619 2.855,4.242 0.7,1.625 1.051,3.389 1.051,5.292 v 26.04 l -0.841,0.84 h -5.88 l -0.839,-0.84 v -26.04 c 0,-1.68 -0.575,-3.079 -1.722,-4.2 -1.148,-1.12 -2.562,-1.68 -4.242,-1.68 h -2.436 c -1.064,0 -2.1,0.197 -3.108,0.588 -1.008,0.392 -1.904,0.966 -2.688,1.722 -0.785,0.756 -1.415,1.653 -1.89,2.688 -0.477,1.037 -0.714,2.171 -0.714,3.402 v 23.52 l -0.84,0.84 h -5.88 l -0.84,-0.84 v -38.64 l 0.84,-0.84 h 1.68 l 3.444,3.612 c 1.344,-1.12 2.814,-2.001 4.41,-2.646 1.596,-0.643 3.457,-0.966 5.586,-0.966 z"
               id="path34" />
          </g>
          <g
             id="g40">
            <path
               inkscape:connector-curvature="0"
               d="m 364.034,56.143 0.84,-0.84 h 8.4 l 0.84,0.84 v 8.4 l -0.84,0.84 h -8.4 l -0.84,-0.84 z"
               id="path38" />
          </g>
          <g
             id="g44">
            <path
               inkscape:connector-curvature="0"
               d="m 395.635,32.623 c -1.289,0 -2.493,0.252 -3.612,0.756 -1.121,0.504 -2.1,1.176 -2.939,2.016 -0.841,0.84 -1.499,1.82 -1.975,2.94 -0.477,1.121 -0.714,2.297 -0.714,3.528 v 6.72 c 0,1.289 0.237,2.492 0.714,3.612 0.476,1.121 1.134,2.1 1.975,2.94 0.84,0.84 1.818,1.499 2.939,1.974 1.119,0.477 2.323,0.714 3.612,0.714 h 1.68 c 1.063,0 1.96,-0.126 2.688,-0.378 0.727,-0.252 1.356,-0.559 1.89,-0.924 0.531,-0.364 0.966,-0.742 1.302,-1.134 0.336,-0.391 0.616,-0.7 0.84,-0.924 h 0.841 l 3.359,4.2 v 1.68 l -1.68,1.68 c -0.84,0.84 -2.171,1.61 -3.99,2.31 -1.82,0.701 -3.57,1.05 -5.25,1.05 h -1.68 c -2.297,0 -4.467,-0.448 -6.51,-1.344 -2.045,-0.895 -3.822,-2.1 -5.335,-3.612 -1.512,-1.512 -2.717,-3.289 -3.611,-5.334 -0.896,-2.043 -1.344,-4.213 -1.344,-6.51 v -6.72 c 0,-2.295 0.447,-4.465 1.344,-6.51 0.895,-2.044 2.1,-3.822 3.611,-5.334 1.513,-1.512 3.29,-2.716 5.335,-3.612 2.043,-0.895 4.213,-1.344 6.51,-1.344 h 1.68 c 1.68,0 3.43,0.35 5.25,1.05 1.819,0.701 3.15,1.47 3.99,2.31 l 1.68,1.68 v 1.68 l -3.359,4.2 h -0.841 c -0.224,-0.223 -0.504,-0.532 -0.84,-0.924 -0.336,-0.391 -0.771,-0.769 -1.302,-1.134 -0.533,-0.364 -1.163,-0.672 -1.89,-0.924 -0.729,-0.252 -1.625,-0.378 -2.688,-0.378 z"
               id="path42" />
          </g>
          <g
             id="g48">
            <path
               inkscape:connector-curvature="0"
               d="m 431.754,25.063 c 1.903,0 3.667,0.35 5.292,1.05 1.624,0.701 3.037,1.652 4.242,2.856 1.203,1.205 2.155,2.619 2.855,4.242 0.7,1.625 1.051,3.389 1.051,5.292 v 26.04 l -0.841,0.84 h -5.88 l -0.84,-0.84 v -26.04 c 0,-1.68 -0.575,-3.079 -1.722,-4.2 -1.148,-1.12 -2.563,-1.68 -4.242,-1.68 h -2.436 c -1.064,0 -2.101,0.21 -3.108,0.63 -1.007,0.42 -1.904,1.008 -2.688,1.764 -0.784,0.756 -1.414,1.653 -1.89,2.688 -0.477,1.037 -0.714,2.142 -0.714,3.318 v 23.52 l -0.84,0.84 h -5.88 l -0.84,-0.84 v -52.08 l 0.84,-0.84 h 5.88 l 0.84,0.84 v 12.6 l -1.596,2.52 0.756,0.84 0.84,-0.84 c 1.287,-0.84 2.59,-1.47 3.906,-1.89 1.314,-0.42 2.813,-0.63 4.494,-0.63 z"
               id="path46" />
          </g>
        </g>
        <g
           id="g58">
          <g
             id="g56">
            <g
               id="g54">
              <path
                 style="fill:#ffffff"
                 inkscape:connector-curvature="0"
                 d="m 23.663,54.524 c 1.085,0.224 1.726,0.357 2.763,0.571 -0.139,-1.306 -0.07,-2.482 -0.413,-3.522 -0.818,-2.479 -0.023,-4.681 0.816,-6.926 0.252,-0.674 0.418,-1.391 0.537,-2.103 0.155,-0.924 0.272,-1.859 0.317,-2.794 0.043,-0.89 0.249,-1.921 -0.105,-2.653 -0.79,-1.63 -0.506,-3.098 0.092,-4.63 0.744,-1.905 1.486,-3.81 2.217,-5.719 0.479,-1.249 -0.038,-2.201 -1.355,-2.555 -0.743,-0.2 -1.481,-0.416 -2.371,-0.667 0.351,-0.826 0.632,-1.526 0.942,-2.213 0.806,-1.787 1.008,-3.559 0.916,-5.591 -0.097,-2.132 0.552,-4.432 2.517,-6.035 1.402,-1.144 2.573,-2.572 3.96,-3.989 0.195,0.201 0.547,0.521 0.848,0.882 1.057,1.266 2.362,2.036 4.046,1.985 1.421,-0.043 2.258,0.612 2.701,1.941 0.485,1.453 1.642,2.12 2.932,2.905 1.373,0.835 2.286,2.437 3.377,3.724 1.162,1.372 1.179,2.775 0.813,4.597 -0.787,3.915 -1.452,7.942 -1.403,11.914 0.052,4.253 1.745,8.197 5.247,10.907 2.744,2.124 3.02,4.816 2.96,7.959 -0.041,2.123 -1.031,3.265 -2.42,4.551 -1.357,1.256 -2.537,2.764 -3.536,4.327 -1.029,1.61 -2.055,3.119 -3.674,4.222 -0.612,0.417 -1.111,1.23 -1.325,1.961 -0.741,2.534 -2.19,4.453 -4.474,5.756 -1.694,0.966 -4.959,-0.661 -5.004,-2.584 -0.071,-3.05 -1.35,-5.164 -4.326,-6.095 -4.866,-1.524 -5.736,-5.963 -7.595,-10.126 z"
                 id="path52" />
            </g>
          </g>
        </g>
        <g
           id="g104">
          <g
             id="g62">
            <path
               inkscape:connector-curvature="0"
               d="m 117.079,25.063 c 1.903,0 3.667,0.35 5.292,1.05 1.624,0.701 3.037,1.652 4.242,2.856 1.204,1.205 2.155,2.619 2.856,4.242 0.7,1.625 1.05,3.389 1.05,5.292 v 26.04 l -0.84,0.84 h -1.68 l -3.36,-3.36 c -1.457,1.121 -2.969,1.961 -4.536,2.52 -1.568,0.56 -3.416,0.84 -5.544,0.84 h -4.2 c -1.68,0 -3.234,-0.294 -4.662,-0.882 -1.428,-0.588 -2.675,-1.414 -3.738,-2.478 -1.064,-1.063 -1.89,-2.31 -2.478,-3.738 -0.588,-1.428 -0.882,-2.982 -0.882,-4.662 0,-1.624 0.28,-3.136 0.84,-4.536 0.559,-1.399 1.344,-2.617 2.352,-3.654 1.008,-1.035 2.197,-1.875 3.57,-2.52 1.372,-0.643 2.869,-0.993 4.494,-1.05 h 13.104 v -3.36 c 0,-1.68 -0.561,-3.079 -1.68,-4.2 -1.121,-1.12 -2.52,-1.68 -4.2,-1.68 h -5.04 c -1.064,0 -1.96,0.126 -2.688,0.378 -0.728,0.252 -1.358,0.56 -1.89,0.924 -0.533,0.365 -0.966,0.743 -1.302,1.134 -0.336,0.393 -0.617,0.701 -0.84,0.924 h -0.84 l -3.36,-4.2 v -1.68 l 1.68,-1.68 c 0.84,-0.84 2.169,-1.609 3.99,-2.31 1.819,-0.7 3.57,-1.05 5.25,-1.05 z m -6.804,24.36 c -1.176,0 -2.157,0.393 -2.94,1.176 -0.785,0.785 -1.176,1.821 -1.176,3.108 0,1.176 0.378,2.156 1.134,2.94 0.756,0.785 1.75,1.176 2.982,1.176 h 4.284 c 2.52,0 4.549,-0.769 6.09,-2.31 1.54,-1.54 2.31,-3.57 2.31,-6.09 z"
               id="path60" />
          </g>
          <g
             id="g66">
            <path
               inkscape:connector-curvature="0"
               d="m 145.386,64.333 c -1.625,-0.7 -3.039,-1.651 -4.242,-2.856 -1.205,-1.204 -2.156,-2.617 -2.856,-4.242 -0.701,-1.624 -1.05,-3.388 -1.05,-5.292 v -37.8 l 5.04,-2.52 h 1.68 l 0.84,0.84 v 39.48 c 0,1.68 0.56,3.081 1.68,4.2 1.12,1.121 2.52,1.68 4.2,1.68 h 4.2 l 0.84,0.84 v 5.88 l -0.84,0.84 h -4.2 c -1.905,0 -3.668,-0.349 -5.292,-1.05 z"
               id="path64" />
          </g>
          <g
             id="g70">
            <path
               inkscape:connector-curvature="0"
               d="m 175.038,65.383 c -2.129,0 -3.99,-0.322 -5.586,-0.966 -1.596,-0.643 -3.066,-1.525 -4.41,-2.646 l -3.444,3.612 h -1.68 l -0.84,-0.84 v -52.08 l 0.84,-0.84 h 5.88 l 0.84,0.84 v 12.6 l -1.596,2.52 0.756,0.84 0.84,-0.84 c 1.288,-0.84 2.59,-1.47 3.906,-1.89 1.315,-0.42 2.814,-0.63 4.494,-0.63 h 1.68 c 1.903,0 3.667,0.35 5.292,1.05 1.624,0.701 3.037,1.652 4.242,2.856 1.204,1.205 2.155,2.619 2.856,4.242 0.7,1.625 1.05,3.389 1.05,5.292 v 13.44 c 0,1.904 -0.35,3.668 -1.05,5.292 -0.701,1.625 -1.652,3.039 -2.856,4.242 -1.205,1.205 -2.619,2.156 -4.242,2.856 -1.625,0.701 -3.389,1.05 -5.292,1.05 z m 0,-32.76 c -1.064,0 -2.1,0.21 -3.108,0.63 -1.008,0.42 -1.904,1.008 -2.688,1.764 -0.785,0.756 -1.415,1.653 -1.89,2.688 -0.477,1.037 -0.714,2.142 -0.714,3.318 v 8.4 c 0,1.289 0.238,2.436 0.714,3.444 0.475,1.008 1.105,1.89 1.89,2.646 0.784,0.756 1.68,1.331 2.688,1.722 1.008,0.393 2.044,0.588 3.108,0.588 h 1.596 c 1.68,0 3.094,-0.559 4.242,-1.68 1.147,-1.119 1.722,-2.52 1.722,-4.2 v -13.44 c 0,-1.68 -0.575,-3.079 -1.722,-4.2 -1.148,-1.12 -2.562,-1.68 -4.242,-1.68 z"
               id="path68" />
          </g>
          <g
             id="g74">
            <path
               inkscape:connector-curvature="0"
               d="m 211.997,25.063 c 1.903,0 3.667,0.35 5.292,1.05 1.624,0.701 3.037,1.652 4.242,2.856 1.204,1.205 2.155,2.619 2.856,4.242 0.7,1.625 1.05,3.389 1.05,5.292 v 26.04 l -0.84,0.84 h -1.68 l -3.36,-3.36 c -1.457,1.121 -2.969,1.961 -4.536,2.52 -1.568,0.56 -3.416,0.84 -5.544,0.84 h -4.2 c -1.68,0 -3.234,-0.294 -4.662,-0.882 -1.428,-0.588 -2.675,-1.414 -3.738,-2.478 -1.064,-1.063 -1.89,-2.31 -2.478,-3.738 -0.588,-1.428 -0.882,-2.982 -0.882,-4.662 0,-1.624 0.28,-3.136 0.84,-4.536 0.559,-1.399 1.344,-2.617 2.352,-3.654 1.008,-1.035 2.197,-1.875 3.57,-2.52 1.372,-0.643 2.869,-0.993 4.494,-1.05 h 13.104 v -3.36 c 0,-1.68 -0.561,-3.079 -1.68,-4.2 -1.121,-1.12 -2.52,-1.68 -4.2,-1.68 h -5.04 c -1.064,0 -1.96,0.126 -2.688,0.378 -0.728,0.252 -1.358,0.56 -1.89,0.924 -0.533,0.365 -0.966,0.743 -1.302,1.134 -0.336,0.393 -0.617,0.701 -0.84,0.924 h -0.84 l -3.36,-4.2 v -1.68 l 1.68,-1.68 c 0.84,-0.84 2.169,-1.609 3.99,-2.31 1.819,-0.7 3.57,-1.05 5.25,-1.05 z m -6.803,24.36 c -1.176,0 -2.157,0.393 -2.94,1.176 -0.785,0.785 -1.176,1.821 -1.176,3.108 0,1.176 0.378,2.156 1.134,2.94 0.756,0.785 1.75,1.176 2.982,1.176 h 4.284 c 2.52,0 4.549,-0.769 6.09,-2.31 1.54,-1.54 2.31,-3.57 2.31,-6.09 z"
               id="path72" />
          </g>
          <g
             id="g78">
            <path
               inkscape:connector-curvature="0"
               d="m 250.637,25.063 c 1.903,0 3.667,0.35 5.292,1.05 1.624,0.701 3.037,1.652 4.242,2.856 1.204,1.205 2.155,2.619 2.856,4.242 0.7,1.625 1.05,3.389 1.05,5.292 v 26.04 l -0.84,0.84 h -5.88 l -0.84,-0.84 v -26.04 c 0,-1.68 -0.575,-3.079 -1.722,-4.2 -1.148,-1.12 -2.562,-1.68 -4.242,-1.68 h -2.436 c -1.064,0 -2.1,0.197 -3.108,0.588 -1.008,0.392 -1.904,0.966 -2.688,1.722 -0.785,0.756 -1.415,1.653 -1.89,2.688 -0.477,1.037 -0.714,2.171 -0.714,3.402 v 23.52 l -0.84,0.84 h -5.88 l -0.84,-0.84 v -38.64 l 0.84,-0.84 h 1.68 l 3.444,3.612 c 1.344,-1.12 2.814,-2.001 4.41,-2.646 1.596,-0.643 3.457,-0.966 5.586,-0.966 z"
               id="path76" />
          </g>
          <g
             id="g82">
            <path
               inkscape:connector-curvature="0"
               d="m 271.636,12.463 0.84,-0.84 h 5.88 l 0.84,0.84 v 6.72 l -0.84,0.84 h -5.88 l -0.84,-0.84 z m 0,13.44 0.84,-0.84 h 5.88 l 0.84,0.84 v 38.64 l -0.84,0.84 h -5.88 l -0.84,-0.84 z"
               id="path80" />
          </g>
          <g
             id="g86">
            <path
               inkscape:connector-curvature="0"
               d="m 299.356,65.383 c -1.905,0 -3.668,-0.349 -5.292,-1.05 -1.625,-0.7 -3.039,-1.651 -4.242,-2.856 -1.205,-1.204 -2.156,-2.617 -2.856,-4.242 -0.701,-1.624 -1.05,-3.388 -1.05,-5.292 v -13.44 c 0,-1.903 0.349,-3.667 1.05,-5.292 0.7,-1.624 1.651,-3.037 2.856,-4.242 1.204,-1.204 2.617,-2.155 4.242,-2.856 1.624,-0.7 3.387,-1.05 5.292,-1.05 h 5.04 c 1.903,0 3.667,0.35 5.292,1.05 1.624,0.701 3.037,1.652 4.242,2.856 1.204,1.205 2.155,2.619 2.856,4.242 0.7,1.625 1.05,3.389 1.05,5.292 v 10.08 h -24.36 v 3.36 c 0,1.68 0.56,3.081 1.68,4.2 1.12,1.121 2.52,1.68 4.2,1.68 h 6.72 c 1.68,0 3.108,-0.307 4.284,-0.924 1.176,-0.616 1.987,-1.147 2.436,-1.596 h 0.84 l 3.36,3.36 v 1.68 l -1.68,1.68 c -0.84,0.84 -2.171,1.61 -3.99,2.31 -1.82,0.701 -3.57,1.05 -5.25,1.05 z m 0,-32.76 c -1.68,0 -3.081,0.56 -4.2,1.68 -1.121,1.121 -1.68,2.52 -1.68,4.2 v 2.52 h 16.8 v -2.52 c 0,-1.68 -0.575,-3.079 -1.722,-4.2 -1.148,-1.12 -2.562,-1.68 -4.242,-1.68 z"
               id="path84" />
          </g>
          <g
             id="g90">
            <path
               inkscape:connector-curvature="0"
               d="m 343.036,25.063 c 1.903,0 3.667,0.35 5.292,1.05 1.624,0.701 3.037,1.652 4.242,2.856 1.203,1.205 2.155,2.619 2.855,4.242 0.7,1.625 1.051,3.389 1.051,5.292 v 26.04 l -0.841,0.84 h -5.88 l -0.839,-0.84 v -26.04 c 0,-1.68 -0.575,-3.079 -1.722,-4.2 -1.148,-1.12 -2.562,-1.68 -4.242,-1.68 h -2.436 c -1.064,0 -2.1,0.197 -3.108,0.588 -1.008,0.392 -1.904,0.966 -2.688,1.722 -0.785,0.756 -1.415,1.653 -1.89,2.688 -0.477,1.037 -0.714,2.171 -0.714,3.402 v 23.52 l -0.84,0.84 h -5.88 l -0.84,-0.84 v -38.64 l 0.84,-0.84 h 1.68 l 3.444,3.612 c 1.344,-1.12 2.814,-2.001 4.41,-2.646 1.596,-0.643 3.457,-0.966 5.586,-0.966 z"
               id="path88" />
          </g>
          <g
             id="g94">
            <path
               inkscape:connector-curvature="0"
               d="m 364.034,56.143 0.84,-0.84 h 8.4 l 0.84,0.84 v 8.4 l -0.84,0.84 h -8.4 l -0.84,-0.84 z"
               id="path92" />
          </g>
          <g
             id="g98">
            <path
               inkscape:connector-curvature="0"
               d="m 395.635,32.623 c -1.289,0 -2.493,0.252 -3.612,0.756 -1.121,0.504 -2.1,1.176 -2.939,2.016 -0.841,0.84 -1.499,1.82 -1.975,2.94 -0.477,1.121 -0.714,2.297 -0.714,3.528 v 6.72 c 0,1.289 0.237,2.492 0.714,3.612 0.476,1.121 1.134,2.1 1.975,2.94 0.84,0.84 1.818,1.499 2.939,1.974 1.119,0.477 2.323,0.714 3.612,0.714 h 1.68 c 1.063,0 1.96,-0.126 2.688,-0.378 0.727,-0.252 1.356,-0.559 1.89,-0.924 0.531,-0.364 0.966,-0.742 1.302,-1.134 0.336,-0.391 0.616,-0.7 0.84,-0.924 h 0.841 l 3.359,4.2 v 1.68 l -1.68,1.68 c -0.84,0.84 -2.171,1.61 -3.99,2.31 -1.82,0.701 -3.57,1.05 -5.25,1.05 h -1.68 c -2.297,0 -4.467,-0.448 -6.51,-1.344 -2.045,-0.895 -3.822,-2.1 -5.335,-3.612 -1.512,-1.512 -2.717,-3.289 -3.611,-5.334 -0.896,-2.043 -1.344,-4.213 -1.344,-6.51 v -6.72 c 0,-2.295 0.447,-4.465 1.344,-6.51 0.895,-2.044 2.1,-3.822 3.611,-5.334 1.513,-1.512 3.29,-2.716 5.335,-3.612 2.043,-0.895 4.213,-1.344 6.51,-1.344 h 1.68 c 1.68,0 3.43,0.35 5.25,1.05 1.819,0.701 3.15,1.47 3.99,2.31 l 1.68,1.68 v 1.68 l -3.359,4.2 h -0.841 c -0.224,-0.223 -0.504,-0.532 -0.84,-0.924 -0.336,-0.391 -0.771,-0.769 -1.302,-1.134 -0.533,-0.364 -1.163,-0.672 -1.89,-0.924 -0.729,-0.252 -1.625,-0.378 -2.688,-0.378 z"
               id="path96" />
          </g>
          <g
             id="g102">
            <path
               inkscape:connector-curvature="0"
               d="m 431.754,25.063 c 1.903,0 3.667,0.35 5.292,1.05 1.624,0.701 3.037,1.652 4.242,2.856 1.203,1.205 2.155,2.619 2.855,4.242 0.7,1.625 1.051,3.389 1.051,5.292 v 26.04 l -0.841,0.84 h -5.88 l -0.84,-0.84 v -26.04 c 0,-1.68 -0.575,-3.079 -1.722,-4.2 -1.148,-1.12 -2.563,-1.68 -4.242,-1.68 h -2.436 c -1.064,0 -2.101,0.21 -3.108,0.63 -1.007,0.42 -1.904,1.008 -2.688,1.764 -0.784,0.756 -1.414,1.653 -1.89,2.688 -0.477,1.037 -0.714,2.142 -0.714,3.318 v 23.52 l -0.84,0.84 h -5.88 l -0.84,-0.84 v -52.08 l 0.84,-0.84 h 5.88 l 0.84,0.84 v 12.6 l -1.596,2.52 0.756,0.84 0.84,-0.84 c 1.287,-0.84 2.59,-1.47 3.906,-1.89 1.314,-0.42 2.813,-0.63 4.494,-0.63 z"
               id="path100" />
          </g>
        </g>
        <g
           id="g118">
          <g
             id="g108">
            <path
               style="fill:none"
               inkscape:connector-curvature="0"
               d="M 21.708,50.057 C 21.693,49.788 21.695,49.526 21.699,49.265 H 17.875 Z"
               id="path106" />
          </g>
          <g
             id="g112">
            <path
               style="fill:#ffffff"
               inkscape:connector-curvature="0"
               d="M 17.876,49.266 H 21.7 c 0.037,-2.339 0.793,-4.381 1.403,-6.013 0.135,-0.36 0.246,-0.808 0.34,-1.368 0.146,-0.869 0.233,-1.63 0.266,-2.326 0.012,-0.245 0.032,-0.498 0.054,-0.754 0.011,-0.123 0.024,-0.284 0.033,-0.417 -1.256,-2.977 -0.517,-5.613 0.167,-7.367 0.117,-0.299 0.233,-0.598 0.349,-0.897 H 8.514 v 19.142 h 8.445 l -0.093,-0.208 z"
               id="path110" />
          </g>
          <g
             id="g116">
            <path
               style="fill:#ffffff"
               inkscape:connector-curvature="0"
               d="M 71.172,30.006 H 51.949 c -0.11,1.203 -0.175,2.409 -0.16,3.591 0.028,2.276 0.693,5.479 3.704,7.809 3.033,2.348 4.042,5.262 4.366,7.742 H 71.174 V 30.006 Z"
               id="path114" />
          </g>
        </g>
      </g>
      <g
         id="g158">
        <path
           style="fill:#e41e20"
           inkscape:connector-curvature="0"
           d="m 164.028,96.64 -0.39,0.391 h -1.95 l -0.39,-0.391 V 78.701 l 0.39,-0.391 h 0.78 l 1.521,1.911 c 0.676,-0.598 1.449,-1.065 2.32,-1.403 0.871,-0.338 1.801,-0.508 2.789,-0.508 h 0.39 c 0.884,0 1.703,0.163 2.457,0.488 0.754,0.325 1.41,0.767 1.97,1.325 0.559,0.56 1,1.216 1.326,1.97 0.324,0.755 0.487,1.573 0.487,2.457 v 12.09 l -0.391,0.391 h -1.949 L 172.997,96.64 V 84.55 c 0,-0.987 -0.338,-1.819 -1.014,-2.496 -0.677,-0.676 -1.508,-1.014 -2.496,-1.014 h -0.39 c -0.677,0 -1.313,0.131 -1.911,0.39 -0.599,0.261 -1.125,0.618 -1.58,1.073 -0.455,0.455 -0.825,0.975 -1.111,1.56 -0.286,0.585 -0.442,1.203 -0.468,1.853 V 96.64 Z"
           id="path122" />
        <path
           style="fill:#e41e20"
           inkscape:connector-curvature="0"
           d="m 187.7,94.3 c 0.416,0 0.793,-0.059 1.131,-0.175 0.338,-0.117 0.637,-0.26 0.897,-0.43 0.26,-0.169 0.48,-0.344 0.663,-0.526 0.182,-0.182 0.324,-0.325 0.429,-0.429 h 0.39 l 1.561,1.521 v 0.43 l -0.78,0.779 c -0.39,0.391 -1.008,0.748 -1.853,1.073 -0.845,0.325 -1.657,0.487 -2.438,0.487 h -2.729 c -0.885,0 -1.704,-0.162 -2.457,-0.487 -0.755,-0.325 -1.411,-0.767 -1.97,-1.326 -0.56,-0.559 -1.001,-1.216 -1.326,-1.97 -0.325,-0.754 -0.487,-1.573 -0.487,-2.457 v -6.24 c 0,-0.884 0.162,-1.702 0.487,-2.457 0.325,-0.754 0.767,-1.41 1.326,-1.97 0.559,-0.559 1.215,-1 1.97,-1.325 0.753,-0.325 1.572,-0.488 2.457,-0.488 h 1.949 c 0.884,0 1.703,0.163 2.457,0.488 0.754,0.325 1.41,0.767 1.97,1.325 0.559,0.56 1.001,1.216 1.326,1.97 0.325,0.755 0.487,1.573 0.487,2.457 v 4.642 h -11.7 v 1.599 c 0,0.988 0.338,1.82 1.015,2.496 0.676,0.677 1.507,1.014 2.496,1.014 h 2.729 z m -6.24,-7.449 h 8.971 v -2.323 c 0,-0.981 -0.339,-1.809 -1.015,-2.48 -0.676,-0.671 -1.508,-1.007 -2.496,-1.007 h -1.949 c -0.989,0 -1.82,0.336 -2.496,1.007 -0.677,0.672 -1.015,1.499 -1.015,2.48 z"
           id="path124" />
        <path
           style="fill:#e41e20"
           inkscape:connector-curvature="0"
           d="m 211.764,93.247 h 0.312 l 1.053,-4.407 2.73,-10.53 h 2.34 l 0.39,0.391 v 0.78 l -4.68,17.55 h -3.51 l -2.73,-8.19 -1.17,-5.069 h -0.39 l -1.17,5.069 -2.73,8.19 h -3.51 l -4.68,-17.55 v -0.78 l 0.39,-0.391 h 2.34 l 2.34,8.971 1.443,5.967 h 0.313 l 4.095,-13.767 0.39,-0.391 h 1.95 l 0.39,0.391 z"
           id="path126" />
        <path
           style="fill:#e41e20"
           inkscape:connector-curvature="0"
           d="m 227.831,94.3 c 0.988,0 1.755,-0.208 2.301,-0.624 0.546,-0.415 0.819,-1.117 0.819,-2.105 0,-0.78 -0.267,-1.313 -0.8,-1.6 -0.533,-0.285 -1.209,-0.48 -2.027,-0.585 -0.819,-0.104 -1.697,-0.188 -2.633,-0.253 -0.937,-0.064 -1.813,-0.254 -2.633,-0.565 -0.818,-0.313 -1.495,-0.832 -2.028,-1.561 -0.533,-0.728 -0.799,-1.807 -0.799,-3.236 0,-1.561 0.48,-2.86 1.442,-3.9 0.962,-1.04 2.418,-1.561 4.368,-1.561 h 1.989 c 0.78,0 1.593,0.163 2.438,0.488 0.845,0.325 1.463,0.683 1.853,1.072 l 0.78,0.78 v 0.39 l -1.561,1.56 h -0.39 c -0.104,-0.104 -0.247,-0.246 -0.429,-0.429 -0.183,-0.182 -0.404,-0.357 -0.663,-0.526 -0.261,-0.169 -0.56,-0.312 -0.897,-0.429 -0.337,-0.117 -0.715,-0.176 -1.131,-0.176 h -1.95 c -0.988,0 -1.755,0.208 -2.301,0.624 -0.546,0.416 -0.819,1.118 -0.819,2.106 0,0.779 0.267,1.325 0.8,1.638 0.532,0.312 1.209,0.526 2.028,0.644 0.818,0.117 1.696,0.214 2.632,0.292 0.937,0.078 1.813,0.28 2.633,0.604 0.819,0.326 1.495,0.839 2.028,1.541 0.532,0.702 0.799,1.729 0.799,3.081 0,1.56 -0.487,2.86 -1.462,3.899 -0.976,1.04 -2.438,1.561 -4.388,1.561 h -2.34 c -0.78,0 -1.593,-0.162 -2.438,-0.487 -0.846,-0.325 -1.463,-0.683 -1.853,-1.073 l -0.78,-0.779 V 94.3 l 1.561,-1.56 h 0.39 c 0.104,0.104 0.247,0.247 0.429,0.429 0.182,0.183 0.403,0.357 0.663,0.526 0.26,0.17 0.559,0.313 0.897,0.43 0.337,0.116 0.715,0.175 1.131,0.175 z"
           id="path128" />
        <path
           style="fill:#e41e20"
           inkscape:connector-curvature="0"
           d="m 244.873,94.3 0.39,0.391 v 1.949 l -0.39,0.391 h -1.56 c -0.885,0 -1.703,-0.162 -2.457,-0.487 -0.755,-0.325 -1.411,-0.767 -1.97,-1.326 -0.56,-0.559 -1.001,-1.216 -1.326,-1.97 -0.325,-0.754 -0.487,-1.573 -0.487,-2.457 v -17.55 l 1.56,-1.17 h 0.78 l 0.39,0.39 v 18.33 c 0,0.988 0.338,1.82 1.015,2.496 0.676,0.677 1.508,1.014 2.496,1.014 h 1.559 z"
           id="path130" />
        <path
           style="fill:#e41e20"
           inkscape:connector-curvature="0"
           d="m 254.702,94.3 c 0.416,0 0.793,-0.059 1.131,-0.175 0.338,-0.117 0.637,-0.26 0.897,-0.43 0.26,-0.169 0.48,-0.344 0.663,-0.526 0.182,-0.182 0.324,-0.325 0.429,-0.429 h 0.39 l 1.561,1.521 v 0.43 l -0.78,0.779 c -0.39,0.391 -1.008,0.748 -1.853,1.073 -0.845,0.325 -1.657,0.487 -2.438,0.487 h -2.729 c -0.885,0 -1.704,-0.162 -2.457,-0.487 -0.755,-0.325 -1.411,-0.767 -1.97,-1.326 -0.56,-0.559 -1.001,-1.216 -1.326,-1.97 -0.325,-0.754 -0.487,-1.573 -0.487,-2.457 v -6.24 c 0,-0.884 0.162,-1.702 0.487,-2.457 0.325,-0.754 0.767,-1.41 1.326,-1.97 0.559,-0.559 1.215,-1 1.97,-1.325 0.753,-0.325 1.572,-0.488 2.457,-0.488 h 1.949 c 0.884,0 1.703,0.163 2.457,0.488 0.754,0.325 1.41,0.767 1.97,1.325 0.559,0.56 1.001,1.216 1.326,1.97 0.325,0.755 0.487,1.573 0.487,2.457 v 4.642 h -11.7 v 1.599 c 0,0.988 0.338,1.82 1.015,2.496 0.676,0.677 1.507,1.014 2.496,1.014 h 2.729 z m -6.24,-7.449 h 8.971 v -2.323 c 0,-0.981 -0.339,-1.809 -1.015,-2.48 -0.676,-0.671 -1.508,-1.007 -2.496,-1.007 h -1.949 c -0.989,0 -1.82,0.336 -2.496,1.007 -0.677,0.672 -1.015,1.499 -1.015,2.48 z"
           id="path132" />
        <path
           style="fill:#e41e20"
           inkscape:connector-curvature="0"
           d="m 261.994,78.701 0.391,-0.391 h 2.34 v -5.069 l 1.56,-1.17 h 0.78 l 0.39,0.39 v 5.85 h 2.341 l 0.39,0.391 v 1.56 l -0.39,0.391 h -2.341 V 96.64 l -0.39,0.391 h -1.95 l -0.39,-0.391 V 80.651 h -2.34 l -0.391,-0.391 z"
           id="path134" />
        <path
           style="fill:#e41e20"
           inkscape:connector-curvature="0"
           d="m 272.017,78.701 0.391,-0.391 h 2.34 v -5.069 l 1.56,-1.17 h 0.78 l 0.39,0.39 v 5.85 h 2.341 l 0.39,0.391 v 1.56 l -0.39,0.391 h -2.341 V 96.64 l -0.39,0.391 h -1.95 l -0.39,-0.391 V 80.651 h -2.34 l -0.391,-0.391 z"
           id="path136" />
        <path
           style="fill:#e41e20"
           inkscape:connector-curvature="0"
           d="m 291.087,94.3 c 0.416,0 0.793,-0.059 1.131,-0.175 0.338,-0.117 0.637,-0.26 0.897,-0.43 0.26,-0.169 0.48,-0.344 0.663,-0.526 0.182,-0.182 0.324,-0.325 0.429,-0.429 h 0.39 l 1.561,1.521 v 0.43 l -0.78,0.779 c -0.39,0.391 -1.008,0.748 -1.853,1.073 -0.845,0.325 -1.657,0.487 -2.438,0.487 h -2.729 c -0.885,0 -1.704,-0.162 -2.457,-0.487 -0.755,-0.325 -1.411,-0.767 -1.97,-1.326 -0.56,-0.559 -1.001,-1.216 -1.326,-1.97 -0.325,-0.754 -0.487,-1.573 -0.487,-2.457 v -6.24 c 0,-0.884 0.162,-1.702 0.487,-2.457 0.325,-0.754 0.767,-1.41 1.326,-1.97 0.559,-0.559 1.215,-1 1.97,-1.325 0.753,-0.325 1.572,-0.488 2.457,-0.488 h 1.949 c 0.884,0 1.703,0.163 2.457,0.488 0.754,0.325 1.41,0.767 1.97,1.325 0.559,0.56 1.001,1.216 1.326,1.97 0.325,0.755 0.487,1.573 0.487,2.457 v 4.642 h -11.7 v 1.599 c 0,0.988 0.338,1.82 1.015,2.496 0.676,0.677 1.507,1.014 2.496,1.014 h 2.729 z m -6.24,-7.449 h 8.971 v -2.323 c 0,-0.981 -0.339,-1.809 -1.015,-2.48 -0.676,-0.671 -1.508,-1.007 -2.496,-1.007 h -1.949 c -0.989,0 -1.82,0.336 -2.496,1.007 -0.677,0.672 -1.015,1.499 -1.015,2.48 z"
           id="path138" />
        <path
           style="fill:#e41e20"
           inkscape:connector-curvature="0"
           d="m 305.4,81.079 c -0.39,0 -0.774,0.092 -1.15,0.272 -0.377,0.183 -0.709,0.417 -0.995,0.702 -0.286,0.287 -0.52,0.618 -0.701,0.995 -0.183,0.377 -0.273,0.76 -0.273,1.15 v 12.44 l -0.39,0.391 h -1.95 l -0.39,-0.391 V 78.701 l 0.39,-0.391 h 0.78 l 0.701,1.717 c 0.572,-0.521 1.223,-0.937 1.95,-1.248 0.728,-0.313 1.534,-0.469 2.418,-0.469 h 1.17 l 0.391,0.391 v 1.989 l -0.391,0.39 h -1.56 z"
           id="path140" />
        <path
           style="fill:#e41e20"
           inkscape:connector-curvature="0"
           d="m 328.954,72.071 0.391,0.39 8.189,23.4 v 0.779 l -0.39,0.391 h -1.95 l -0.39,-0.391 -1.872,-5.46 h -11.466 l -1.872,5.46 -0.391,0.391 h -1.95 l -0.39,-0.391 v -0.779 l 8.19,-23.4 0.39,-0.39 z m -6.551,16.38 h 9.594 l -2.262,-6.63 -2.418,-7.021 h -0.313 l -2.34,7.021 z"
           id="path142" />
        <path
           style="fill:#e41e20"
           inkscape:connector-curvature="0"
           d="m 348.337,94.3 0.39,0.391 v 1.949 l -0.39,0.391 h -1.56 c -0.885,0 -1.703,-0.162 -2.457,-0.487 -0.755,-0.325 -1.411,-0.767 -1.97,-1.326 -0.56,-0.559 -1.001,-1.216 -1.326,-1.97 -0.325,-0.754 -0.487,-1.573 -0.487,-2.457 v -17.55 l 1.56,-1.17 h 0.78 l 0.39,0.39 v 18.33 c 0,0.988 0.338,1.82 1.015,2.496 0.676,0.677 1.508,1.014 2.496,1.014 h 1.559 z"
           id="path144" />
        <path
           style="fill:#e41e20"
           inkscape:connector-curvature="0"
           d="m 350.95,72.46 0.39,-0.39 h 1.95 l 0.39,0.39 v 5.85 l -1.17,2.341 0.39,0.39 c 0.182,-0.208 0.352,-0.39 0.507,-0.546 0.13,-0.13 0.26,-0.254 0.391,-0.371 0.13,-0.116 0.221,-0.2 0.272,-0.253 0.65,-0.494 1.371,-0.878 2.165,-1.15 0.793,-0.273 1.631,-0.41 2.516,-0.41 h 0.39 c 0.884,0 1.703,0.163 2.457,0.488 0.754,0.325 1.41,0.767 1.97,1.325 0.559,0.56 1,1.216 1.326,1.97 0.324,0.755 0.487,1.573 0.487,2.457 v 6.24 c 0,0.884 -0.163,1.703 -0.487,2.457 -0.326,0.754 -0.768,1.411 -1.326,1.97 -0.56,0.56 -1.216,1.001 -1.97,1.326 -0.754,0.325 -1.573,0.487 -2.457,0.487 h -0.39 c -0.988,0 -1.918,-0.169 -2.789,-0.507 -0.871,-0.338 -1.645,-0.806 -2.32,-1.404 l -1.521,1.911 h -0.78 l -0.39,-0.391 V 89.542 89.23 72.46 Z m 2.73,16.965 c 0.025,0.65 0.182,1.268 0.468,1.853 0.286,0.585 0.656,1.105 1.111,1.561 0.455,0.456 0.981,0.813 1.58,1.072 0.598,0.26 1.234,0.39 1.911,0.39 h 0.39 c 0.988,0 1.819,-0.337 2.496,-1.014 0.676,-0.676 1.014,-1.508 1.014,-2.496 v -6.24 c 0,-0.987 -0.338,-1.819 -1.014,-2.496 -0.677,-0.676 -1.508,-1.014 -2.496,-1.014 h -0.39 c -0.677,0 -1.32,0.137 -1.931,0.409 -0.611,0.273 -1.15,0.644 -1.618,1.111 -0.469,0.469 -0.839,1.009 -1.112,1.619 -0.272,0.611 -0.409,1.255 -0.409,1.931 z"
           id="path146" />
        <path
           style="fill:#e41e20"
           inkscape:connector-curvature="0"
           d="m 373.843,81.04 c -0.39,0 -0.754,0.059 -1.092,0.176 -0.338,0.117 -0.638,0.26 -0.897,0.429 -0.259,0.169 -0.487,0.345 -0.682,0.526 -0.195,0.183 -0.346,0.325 -0.449,0.429 h -0.39 l -1.56,-1.56 v -0.39 l 0.779,-0.78 c 0.391,-0.39 1.008,-0.747 1.853,-1.072 0.845,-0.325 1.657,-0.488 2.438,-0.488 h 1.95 c 0.884,0 1.702,0.163 2.457,0.488 0.754,0.325 1.41,0.767 1.97,1.325 0.559,0.56 1,1.216 1.326,1.97 0.324,0.755 0.487,1.573 0.487,2.457 v 12.09 l -0.391,0.391 h -0.779 l -1.17,-1.95 h -0.391 c -0.599,0.599 -1.346,1.072 -2.242,1.424 -0.897,0.351 -1.84,0.526 -2.827,0.526 h -1.171 c -0.779,0 -1.501,-0.137 -2.164,-0.41 -0.663,-0.272 -1.242,-0.656 -1.735,-1.15 -0.494,-0.493 -0.878,-1.072 -1.15,-1.735 -0.273,-0.663 -0.41,-1.385 -0.41,-2.164 0,-0.78 0.137,-1.502 0.41,-2.165 0.272,-0.663 0.656,-1.241 1.15,-1.735 0.493,-0.493 1.072,-0.877 1.735,-1.15 0.663,-0.273 1.385,-0.409 2.164,-0.409 h 6.24 V 84.55 c 0,-0.987 -0.338,-1.819 -1.014,-2.496 -0.677,-0.676 -1.508,-1.014 -2.496,-1.014 z m -3.51,10.531 c 0,0.754 0.267,1.397 0.8,1.931 0.532,0.533 1.176,0.799 1.93,0.799 h 1.171 c 0.676,0 1.319,-0.137 1.93,-0.409 0.611,-0.273 1.151,-0.644 1.619,-1.111 0.468,-0.469 0.838,-1.008 1.111,-1.619 0.272,-0.61 0.409,-1.254 0.409,-1.93 V 88.84 h -6.24 c -0.754,0 -1.397,0.261 -1.93,0.78 -0.533,0.521 -0.8,1.17 -0.8,1.951 z"
           id="path148" />
        <path
           style="fill:#e41e20"
           inkscape:connector-curvature="0"
           d="m 388.545,96.64 -0.39,0.391 h -1.95 l -0.39,-0.391 V 78.701 l 0.39,-0.391 h 0.78 l 1.521,1.911 c 0.676,-0.598 1.449,-1.065 2.32,-1.403 0.871,-0.338 1.801,-0.508 2.789,-0.508 h 0.39 c 0.884,0 1.703,0.163 2.457,0.488 0.754,0.325 1.41,0.767 1.97,1.325 0.559,0.56 1,1.216 1.326,1.97 0.324,0.755 0.487,1.573 0.487,2.457 v 12.09 l -0.391,0.391 h -1.949 L 397.514,96.64 V 84.55 c 0,-0.987 -0.338,-1.819 -1.014,-2.496 -0.677,-0.676 -1.508,-1.014 -2.496,-1.014 h -0.39 c -0.677,0 -1.313,0.131 -1.911,0.39 -0.599,0.261 -1.125,0.618 -1.58,1.073 -0.455,0.455 -0.825,0.975 -1.111,1.56 -0.286,0.585 -0.442,1.203 -0.468,1.853 V 96.64 Z"
           id="path150" />
        <path
           style="fill:#e41e20"
           inkscape:connector-curvature="0"
           d="m 404.418,72.46 0.39,-0.39 h 1.95 l 0.39,0.39 v 2.34 l -0.39,0.391 h -1.95 l -0.39,-0.391 z m 0,6.241 0.39,-0.391 h 1.95 l 0.39,0.391 V 96.64 l -0.39,0.391 h -1.95 l -0.39,-0.391 z"
           id="path152" />
        <path
           style="fill:#e41e20"
           inkscape:connector-curvature="0"
           d="m 419.901,94.3 c 0.416,0 0.793,-0.059 1.131,-0.175 0.338,-0.117 0.637,-0.26 0.897,-0.43 0.26,-0.169 0.48,-0.344 0.663,-0.526 0.182,-0.182 0.324,-0.325 0.429,-0.429 h 0.39 l 1.561,1.521 v 0.43 l -0.78,0.779 c -0.39,0.391 -1.008,0.748 -1.853,1.073 -0.845,0.325 -1.657,0.487 -2.438,0.487 h -2.729 c -0.885,0 -1.704,-0.162 -2.457,-0.487 -0.755,-0.325 -1.411,-0.767 -1.97,-1.326 -0.56,-0.559 -1.001,-1.216 -1.326,-1.97 -0.325,-0.754 -0.487,-1.573 -0.487,-2.457 v -6.24 c 0,-0.884 0.162,-1.702 0.487,-2.457 0.325,-0.754 0.767,-1.41 1.326,-1.97 0.559,-0.559 1.215,-1 1.97,-1.325 0.753,-0.325 1.572,-0.488 2.457,-0.488 h 1.949 c 0.884,0 1.703,0.163 2.457,0.488 0.754,0.325 1.41,0.767 1.97,1.325 0.559,0.56 1.001,1.216 1.326,1.97 0.325,0.755 0.487,1.573 0.487,2.457 v 4.642 h -11.7 v 1.599 c 0,0.988 0.338,1.82 1.015,2.496 0.676,0.677 1.507,1.014 2.496,1.014 h 2.729 z m -6.241,-7.449 h 8.971 v -2.323 c 0,-0.981 -0.339,-1.809 -1.015,-2.48 -0.676,-0.671 -1.508,-1.007 -2.496,-1.007 h -1.949 c -0.989,0 -1.82,0.336 -2.496,1.007 -0.677,0.672 -1.015,1.499 -1.015,2.48 z"
           id="path154" />
        <path
           style="fill:#e41e20"
           inkscape:connector-curvature="0"
           d="m 431.093,96.64 -0.39,0.391 h -1.95 l -0.39,-0.391 V 78.701 l 0.39,-0.391 h 0.78 l 1.521,1.911 c 0.676,-0.598 1.449,-1.065 2.32,-1.403 0.871,-0.338 1.801,-0.508 2.789,-0.508 h 0.39 c 0.884,0 1.703,0.163 2.457,0.488 0.754,0.325 1.41,0.767 1.97,1.325 0.559,0.56 1,1.216 1.326,1.97 0.324,0.755 0.487,1.573 0.487,2.457 v 12.09 l -0.391,0.391 h -1.949 L 440.062,96.64 V 84.55 c 0,-0.987 -0.338,-1.819 -1.014,-2.496 -0.677,-0.676 -1.508,-1.014 -2.496,-1.014 h -0.39 c -0.677,0 -1.313,0.131 -1.911,0.39 -0.599,0.261 -1.125,0.618 -1.58,1.073 -0.455,0.455 -0.825,0.975 -1.111,1.56 -0.286,0.585 -0.442,1.203 -0.468,1.853 V 96.64 Z"
           id="path156" />
      </g>
    </g>
  </g>
</svg>
