<?xml version="1.0" encoding="UTF-8" standalone="no"?>
<!-- Created with Inkscape (http://www.inkscape.org/) -->

<svg
   xmlns:dc="http://purl.org/dc/elements/1.1/"
   xmlns:cc="http://creativecommons.org/ns#"
   xmlns:rdf="http://www.w3.org/1999/02/22-rdf-syntax-ns#"
   xmlns:svg="http://www.w3.org/2000/svg"
   xmlns="http://www.w3.org/2000/svg"
   xmlns:sodipodi="http://sodipodi.sourceforge.net/DTD/sodipodi-0.dtd"
   xmlns:inkscape="http://www.inkscape.org/namespaces/inkscape"
   width="472.50134"
   height="103.45467"
   viewBox="0 0 125.01598 27.372383"
   version="1.1"
   id="svg4613"
   inkscape:version="0.92.1 r"
   sodipodi:docname="horizontal version 1-color.svg">
  <defs
     id="defs4607" />
  <sodipodi:namedview
     id="base"
     pagecolor="#ffffff"
     bordercolor="#666666"
     borderopacity="1.0"
     inkscape:pageopacity="0.0"
     inkscape:pageshadow="2"
     inkscape:zoom="0.98994949"
     inkscape:cx="201.29676"
     inkscape:cy="53.25291"
     inkscape:document-units="mm"
     inkscape:current-layer="layer1"
     showgrid="false"
     fit-margin-top="0"
     fit-margin-left="0"
     fit-margin-right="0"
     fit-margin-bottom="0"
     units="px"
     inkscape:window-width="1366"
     inkscape:window-height="744"
     inkscape:window-x="0"
     inkscape:window-y="0"
     inkscape:window-maximized="1" />
  <metadata
     id="metadata4610">
    <rdf:RDF>
      <cc:Work
         rdf:about="">
        <dc:format>image/svg+xml</dc:format>
        <dc:type
           rdf:resource="http://purl.org/dc/dcmitype/StillImage" />
        <dc:title></dc:title>
      </cc:Work>
    </rdf:RDF>
  </metadata>
  <g
     inkscape:label="Layer 1"
     inkscape:groupmode="layer"
     id="layer1"
     transform="translate(43.609183,-144.21857)">
    <g
       id="g12"
       transform="matrix(0.03527778,0,0,-0.03527778,-43.609183,171.59095)">
      <path
         d="M 1422.9,775.91 V 0"
         style="fill:#65686d;fill-opacity:1;fill-rule:nonzero;stroke:none"
         id="path14"
         inkscape:connector-curvature="0" />
      <path
         d="m 1439.02,0 h -32.24 v 775.91 h 32.24 V 0"
         style="fill:#65686d;fill-opacity:1;fill-rule:nonzero;stroke:none"
         id="path16"
         inkscape:connector-curvature="0" />
      <path
         d="m 1583.42,699.379 h 54.17 V 486.195 c 0,-20.504 12.76,-20.121 23.99,-20.121 h 97.11 v -49.906 h -116.27 c -30.85,0 -59,11.41 -59,55.133 v 228.078"
         style="fill:#3b393d;fill-opacity:1;fill-rule:nonzero;stroke:none"
         id="path18"
         inkscape:connector-curvature="0" />
      <path
         d="m 1785.06,621.613 h 54.17 V 416.168 h -54.17 z m -1.95,64.809 c 0,5.801 3.08,9.672 9.27,9.672 h 40.63 c 5.81,0 8.69,-4.258 8.69,-9.672 v -34.301 c 0,-5.801 -3.28,-8.902 -8.69,-8.902 h -40.63 c -5.42,0 -9.27,3.488 -9.27,8.902 v 34.301"
         style="fill:#3b393d;fill-opacity:1;fill-rule:nonzero;stroke:none"
         id="path20"
         inkscape:connector-curvature="0" />
      <path
         d="m 1976.1,460.141 c 17.49,0 26.95,14.082 26.95,59.906 0,52.43 -9.85,62.195 -26.95,62.195 -18.73,0 -33.81,-2.242 -47.95,-7.715 V 472.828 c 11.52,-7.445 27.6,-12.687 47.95,-12.687 z m -102.16,259.75 h 53.82 V 611.355 c 18.81,8.575 44.97,13.352 62.38,13.352 56.94,0 67.08,-42.891 67.08,-106.785 0,-62.313 -16.5,-104.078 -67.08,-104.078 -24.38,0 -49.18,12.687 -61.99,23.023 l -9.66,-20.699 h -44.55 v 303.723"
         style="fill:#3b393d;fill-opacity:1;fill-rule:nonzero;stroke:none"
         id="path22"
         inkscape:connector-curvature="0" />
      <path
         d="m 2089.03,621.613 h 45.65 l 8.52,-25.925 c 14.25,13.757 33.39,28.035 58.95,28.035 8.88,0 17.38,-0.348 22.88,-2.457 v -52.293 c -5.5,0.527 -18.04,1.047 -29.69,1.047 -22.44,0 -38.73,-3.661 -52.14,-22.868 V 416.168 h -54.17 v 205.445"
         style="fill:#3b393d;fill-opacity:1;fill-rule:nonzero;stroke:none"
         id="path24"
         inkscape:connector-curvature="0" />
      <path
         d="m 2345.12,535.719 c 11.27,0 17.14,5.554 17.14,15.34 0,25.941 -3.7,30.703 -29.73,30.703 -28.62,0 -39.19,-1.66 -38.76,-46.043 z m -15.74,87.445 c 59.42,0 87.05,-6.777 87.05,-74.867 0,-36.602 -20.12,-51.461 -57.27,-51.461 h -65.39 c 0,-37.09 14.01,-39.293 43.34,-39.293 31.34,0 46.44,-0.172 75.45,4.086 V 425.07 c -29,-10.816 -73.12,-10.84 -105.24,-10.84 -52.23,0 -67.7,30.254 -67.7,105.629 0,88.286 24.6,103.305 89.76,103.305"
         style="fill:#3b393d;fill-opacity:1;fill-rule:nonzero;stroke:none"
         id="path26"
         inkscape:connector-curvature="0" />
      <path
         d="m 2543.95,628.578 c 0,56.098 33.28,72.485 76.62,73.121 40.71,0.852 87.13,-4.582 109.48,-11.199 v -42.574 c -24.76,2.179 -80.55,3.863 -94.59,3.863 -23.67,0.527 -37.34,-1.117 -37.34,-27.469 v -13.828 c 0,-22.441 8.6,-27.281 30.53,-27.281 h 44.72 c 55.5,0 66.96,-43.754 66.96,-75.059 v -18.855 c 0,-64.309 -40.06,-76.223 -78.38,-76.223 -48.31,0 -79.98,2.957 -109.27,11.586 v 42.582 c 15.47,-1.551 62.66,-4.258 98.65,-4.258 16.28,0 34.84,2.692 34.84,24.391 v 15.246 c 0,16.098 -4.88,26.422 -25.57,26.422 h -43.52 c -68.29,0 -73.13,50.437 -73.13,75.066 v 24.469"
         style="fill:#3b393d;fill-opacity:1;fill-rule:nonzero;stroke:none"
         id="path28"
         inkscape:connector-curvature="0" />
      <path
         d="m 2872.86,455.535 c 17.1,0 26.95,9.77 26.95,62.199 0,45.825 -9.46,59.903 -26.95,59.903 -20.35,0 -36.6,-5.242 -48.12,-12.688 V 463.25 c 14.14,-5.469 29.41,-7.715 48.12,-7.715 z M 2770.7,621.613 h 44.55 l 9.49,-20.699 c 12.81,10.332 37.78,23.02 62.17,23.02 50.57,0 67.07,-42.407 67.07,-104.075 0,-59.433 -10.14,-106.785 -67.07,-106.785 -17.42,0 -43.58,4.778 -62.39,13.348 V 311.703 h -53.82 v 309.91"
         style="fill:#3b393d;fill-opacity:1;fill-rule:nonzero;stroke:none"
         id="path30"
         inkscape:connector-curvature="0" />
      <path
         d="m 3053.14,457.371 c 22.65,0 47.16,15.899 47.16,15.899 v 37.671 l -49.71,-3.851 c -14.29,-1.336 -16.66,-11.914 -16.66,-20.895 v -9.98 c 0,-17.082 9.24,-18.844 19.21,-18.844 z m -73.37,30.508 c 0,29.887 16.15,56.355 60.18,56.355 0,0 60.35,-0.386 60.35,0 0,0 0.4,12.766 0,13.153 0,21.894 -10.25,25.343 -27.47,25.343 -17.85,0 -69.39,-3.21 -86.28,-4.429 v 33.441 c 27.05,10.508 55.32,13.563 93.62,13.742 44.23,0.176 74.3,-15.113 74.3,-65.972 V 416.168 h -42.77 l -11.4,22.637 c -2.27,-4.473 -31.1,-25.598 -62.48,-24.961 -39.53,1.062 -58.05,27.972 -58.05,54.687 v 19.348"
         style="fill:#3b393d;fill-opacity:1;fill-rule:nonzero;stroke:none"
         id="path32"
         inkscape:connector-curvature="0" />
      <path
         d="m 3251.28,623.551 c 20.12,0 60.7,-1.207 94.59,-12.196 v -33.656 c 0,0 -36.96,2.324 -71.4,2.324 -24.92,0 -36.74,-1.496 -36.74,-62.062 0,-52.602 8.89,-60.203 36.74,-60.203 35.59,0 74.11,3.621 74.11,3.621 v -34.012 c -30.07,-15.285 -65.19,-12.75 -97.3,-13.137 -38.31,0 -67.7,20.024 -67.7,104.856 0,84.652 28.24,104.465 67.7,104.465"
         style="fill:#3b393d;fill-opacity:1;fill-rule:nonzero;stroke:none"
         id="path34"
         inkscape:connector-curvature="0" />
      <path
         d="m 3472.45,535.719 c 11.27,0 17.15,5.554 17.15,15.34 0,25.941 -3.7,30.703 -29.74,30.703 -28.62,0 -39.18,-1.66 -38.76,-46.043 z m -15.74,87.445 c 59.43,0 87.05,-6.777 87.05,-74.867 0,-36.602 -20.11,-51.461 -57.26,-51.461 h -65.4 c 0,-37.09 14.01,-39.293 43.34,-39.293 31.34,0 46.44,-0.172 75.45,4.086 V 425.07 c -28.99,-10.816 -73.12,-10.84 -105.23,-10.84 -52.23,0 -67.71,30.254 -67.71,105.629 0,88.286 24.61,103.305 89.76,103.305"
         style="fill:#3b393d;fill-opacity:1;fill-rule:nonzero;stroke:none"
         id="path36"
         inkscape:connector-curvature="0" />
      <path
         d="m 1588.55,275.781 c 0,40.172 25.28,53.891 52.23,52.848 0,0 116.12,-5.262 122.9,-6.188 v -28.535 h -119.42 c -20.12,0 -20.12,-11.222 -20.12,-21.668 V 203.91 l 123.48,-3.926 v -28.746 l -123.48,-3.816 V 45.418 h -35.59 v 230.363"
         style="fill:#65686d;fill-opacity:1;fill-rule:nonzero;stroke:none"
         id="path38"
         inkscape:connector-curvature="0" />
      <path
         d="m 1877.13,76.1758 c 38.71,0 55.82,5.0664 55.82,69.0582 0,69.161 -14.09,74.868 -55.82,74.868 -40.25,0 -55.8,-5.438 -55.8,-74.868 0,-64.2965 18.98,-69.0582 55.8,-69.0582 z m 0,176.6212 c 69.67,0 91.41,-25.926 91.41,-107.563 0,-76.2145 -21.45,-101.7535 -91.41,-101.7535 -69.72,0 -91.4,28.2461 -91.4,101.7535 0,83.957 23.51,107.563 91.4,107.563"
         style="fill:#65686d;fill-opacity:1;fill-rule:nonzero;stroke:none"
         id="path40"
         inkscape:connector-curvature="0" />
      <path
         d="m 2004.31,250.863 h 35.59 V 109.219 c 0,-24.1409 13.46,-34.594 31.52,-34.594 28.46,0 42.67,7.1602 68.69,20.8984 V 250.863 h 35.6 V 45.418 h -26.51 l -9.09,23.4062 c -22.73,-13.1914 -41.59,-26.8867 -72.93,-26.8867 -42.88,0 -62.87,32.0742 -62.87,67.5075 v 141.418"
         style="fill:#65686d;fill-opacity:1;fill-rule:nonzero;stroke:none"
         id="path42"
         inkscape:connector-curvature="0" />
      <path
         d="m 2218.79,250.863 h 26.5 l 9.09,-23.41 c 21.98,13.313 41.59,26.887 72.94,26.887 42.86,0 62.87,-32.074 62.87,-67.508 V 45.418 h -35.59 v 141.641 c 0,24.14 -13.48,34.593 -31.52,34.593 -28.46,0 -42.68,-7.16 -68.7,-20.894 V 45.418 h -35.59 v 205.445"
         style="fill:#65686d;fill-opacity:1;fill-rule:nonzero;stroke:none"
         id="path44"
         inkscape:connector-curvature="0" />
      <path
         d="m 2493.49,76.5469 c 27.78,0 49.9,8.1758 68.24,16.4023 V 212.129 c -23.29,6.566 -41.47,9.422 -68.24,9.422 -22.67,0 -35.77,-13.633 -35.77,-73.797 0,-49.0821 12.7,-71.2071 35.77,-71.2071 z m -3.83,177.4061 c 17.41,0 48.99,-5.238 72.11,-14.89 v 110.074 h 35.28 V 45.418 h -27.07 l -8.25,22.2422 c -10.82,-8.1641 -46.28,-24.5664 -72.07,-24.5664 -54.59,0 -67.53,52.2929 -67.53,104.0782 0,56.156 9.51,106.781 67.53,106.781"
         style="fill:#65686d;fill-opacity:1;fill-rule:nonzero;stroke:none"
         id="path46"
         inkscape:connector-curvature="0" />
      <path
         d="m 2690.24,75.7891 c 28.7,0 75.34,18.6875 75.34,18.6875 v 50.5074 l -76.03,-5.55 c -15.99,-1.489 -21.14,-12.539 -21.14,-23.993 V 98.6523 c 0,-18.164 9.55,-22.8632 21.83,-22.8632 z m -57.42,41.8049 c 0,30.664 18.46,52.789 53.83,52.789 0,0 78.93,-0.387 78.93,0 0,0 0.38,22.055 0,22.445 0,23.133 -11.8,29.981 -30.57,29.981 -25.12,0 -63.66,-2.282 -95.57,-4.579 v 24.313 c 27.36,8.492 60.11,11.859 98.42,12.191 35.42,0.325 63.32,-16.504 63.32,-61.332 V 45.418 h -27.14 l -8.46,24.1758 c -1.18,-1.2188 -45.35,-26.6719 -79.51,-26.5 -31.32,0.2929 -53.25,20.8593 -53.25,52.0585 v 22.4417"
         style="fill:#65686d;fill-opacity:1;fill-rule:nonzero;stroke:none"
         id="path48"
         inkscape:connector-curvature="0" />
      <path
         d="m 2826.38,243.125 36.91,8.121 7.54,57.262 h 28.05 v -57.262 h 56.16 v -32.113 h -56.16 v -97.879 c 0,-32.7384 8.38,-40.129 20.85,-43.4571 0,0 29.4,-8.1211 32.11,-8.1211 V 45.6836 h -37.65 c -29.96,0 -50.9,18.6953 -50.9,73.2464 v 100.203 h -36.91 v 23.992"
         style="fill:#65686d;fill-opacity:1;fill-rule:nonzero;stroke:none"
         id="path50"
         inkscape:connector-curvature="0" />
      <path
         d="m 2987.2,250.863 h 35.6 V 45.418 h -35.6 z m -3.34,57.071 c 0,5.8 3.08,9.664 9.29,9.664 h 25.14 c 5.81,0 8.84,-4.25 8.84,-9.664 v -24.547 c 0,-5.813 -3.43,-8.903 -8.84,-8.903 h -25.14 c -5.42,0 -9.29,3.477 -9.29,8.903 v 24.547"
         style="fill:#65686d;fill-opacity:1;fill-rule:nonzero;stroke:none"
         id="path52"
         inkscape:connector-curvature="0" />
      <path
         d="m 3154.56,76.1758 c 38.71,0 55.82,5.0664 55.82,69.0582 0,69.161 -14.08,74.868 -55.82,74.868 -40.25,0 -55.8,-5.438 -55.8,-74.868 0,-64.2965 18.98,-69.0582 55.8,-69.0582 z m 0,176.6212 c 69.68,0 91.42,-25.926 91.42,-107.563 0,-76.2145 -21.46,-101.7535 -91.42,-101.7535 -69.72,0 -91.39,28.2461 -91.39,101.7535 0,83.957 23.5,107.563 91.39,107.563"
         style="fill:#65686d;fill-opacity:1;fill-rule:nonzero;stroke:none"
         id="path54"
         inkscape:connector-curvature="0" />
      <path
         d="m 3285.38,250.863 h 26.49 l 9.1,-23.41 c 21.98,13.313 41.59,26.887 72.93,26.887 42.87,0 62.87,-32.074 62.87,-67.508 V 45.418 h -35.59 v 141.641 c 0,24.14 -13.47,34.593 -31.51,34.593 -28.46,0 -42.68,-7.16 -68.7,-20.894 V 45.418 h -35.59 v 205.445"
         style="fill:#65686d;fill-opacity:1;fill-rule:nonzero;stroke:none"
         id="path56"
         inkscape:connector-curvature="0" />
      <path
         d="m 962.129,470.098 c -4.902,19.211 -11.367,38.16 -19.598,56.636 -7.324,16.454 -15.82,32.153 -25.351,47.043 -40.059,62.602 -98.766,110.676 -169.45,137.805 -40.437,15.52 -82.714,23.391 -125.66,23.391 -70.199,0 -138.187,-20.844 -196.613,-60.278 -39.914,-26.941 -73.332,-61.351 -98.883,-101.336 -12.719,-19.902 -23.523,-41.164 -32.14,-63.617 -5.079,-13.226 -9.227,-26.64 -12.657,-40.164 -15.48,-61.058 -14.199,-124.504 3.719,-184.808 4.371,-14.704 9.633,-29.235 15.977,-43.481 9.687,-21.762 21.406,-42.215 34.898,-61.199 39.598,-55.699 94.645,-98.5978 159.902,-123.6447 l 12.055,-4.6289 40.844,106.4176 18.441,48.055 c -4.371,-1.074 -7.371,-1.922 -7.941,-2.336 l -50.766,-36.98 c -5.394,-3.93 -9.812,-1.68 -9.812,4.988 v 121.324 c 0.004,6.668 4.656,14.992 10.336,18.488 l 20.468,12.594 c 4.477,2.93 4.711,6.828 4.793,8.844 4.254,101.871 66.438,155.269 86.692,155.266 20.363,0.003 85.777,-54.664 89.691,-156.899 0.074,-1.851 -0.496,-5.515 3.727,-7.719 l 19.64,-12.086 c 5.688,-3.496 10.332,-11.82 10.332,-18.492 l 0.004,-121.32 c 0,-6.668 -4.41,-8.918 -9.808,-4.988 l -50.77,36.98 c -0.535,0.391 -3.48,1.215 -7.785,2.274 l 18.441,-48.055 40.821,-106.3556 12.054,4.6289 c 64.536,24.7695 119.758,67.9927 159.387,123.2267 17.289,24.098 31.649,50.457 42.453,78.613 3.289,8.57 6.129,17.231 8.727,25.934 18.199,60.98 19.426,124.808 3.832,185.879"
         style="fill:#6366ba;fill-opacity:1;fill-rule:nonzero;stroke:none"
         id="path58"
         inkscape:connector-curvature="0" />
      <path
         d="m 241.535,270.574 c -1.469,4.942 -2.808,9.903 -4.078,14.879 -89.906,23.442 -145.789,56.07 -145.789,92.192 0,35.785 54.797,68.152 143.223,91.543 0.777,3.453 1.57,6.906 2.441,10.343 3.875,15.289 8.566,30.457 14.305,45.41 6.215,16.192 13.445,31.829 21.59,46.872 -22.008,-4.278 -43.079,-9 -62.801,-14.243 C 156.879,543.336 113.359,525.828 81.0703,505.535 14.0664,463.418 0,412.742 0,377.645 0,342.547 14.0664,291.867 81.0703,249.754 113.359,229.461 156.879,211.953 210.426,197.719 c 21.703,-5.77 44.91,-10.969 69.344,-15.578 -7.379,12.632 -14.137,25.718 -20.172,39.277 -7.172,16.105 -13.125,32.535 -18.063,49.156"
         style="fill:#6366ba;fill-opacity:1;fill-rule:nonzero;stroke:none"
         id="path60"
         inkscape:connector-curvature="0" />
      <path
         d="m 1164.89,505.535 c -32.29,20.293 -75.81,37.801 -129.35,52.035 -20.38,5.418 -42.188,10.282 -64.997,14.672 4.953,-9.133 9.594,-18.488 13.867,-28.086 9.301,-20.894 16.61,-42.316 22.16,-64.035 0.88,-3.461 1.68,-6.937 2.47,-10.414 89.6,-23.43 145.25,-56.008 145.25,-92.062 0,-36.411 -56.78,-69.266 -147.94,-92.747 -1.28,-4.996 -2.64,-9.98 -4.12,-14.945 -2.933,-9.84 -6.144,-19.633 -9.863,-29.32 -7.883,-20.531 -17.457,-40.203 -28.488,-58.906 25.281,4.711 49.271,10.043 71.661,15.992 53.54,14.234 97.06,31.742 129.35,52.035 67.01,42.113 81.07,92.793 81.07,127.891 0,35.097 -14.06,85.773 -81.07,127.89"
         style="fill:#6366ba;fill-opacity:1;fill-rule:nonzero;stroke:none"
         id="path62"
         inkscape:connector-curvature="0" />
    </g>
  </g>
</svg>
