<?xml version="1.0" encoding="UTF-8" standalone="no"?>
<!-- Created with Inkscape (http://www.inkscape.org/) -->

<svg
   xmlns:dc="http://purl.org/dc/elements/1.1/"
   xmlns:cc="http://creativecommons.org/ns#"
   xmlns:rdf="http://www.w3.org/1999/02/22-rdf-syntax-ns#"
   xmlns:svg="http://www.w3.org/2000/svg"
   xmlns="http://www.w3.org/2000/svg"
   xmlns:sodipodi="http://sodipodi.sourceforge.net/DTD/sodipodi-0.dtd"
   xmlns:inkscape="http://www.inkscape.org/namespaces/inkscape"
   width="795.68536"
   height="87.065071"
   viewBox="0 0 210.52509 23.035967"
   version="1.1"
   id="svg4613"
   inkscape:version="0.92.1 r"
   sodipodi:docname="horizontal version 2 wide-color.svg"
   inkscape:export-filename="/home/anxhelo/Libre Space Foundation/horizontal version 1-color.png"
   inkscape:export-xdpi="177.61"
   inkscape:export-ydpi="177.61">
  <defs
     id="defs4607" />
  <sodipodi:namedview
     id="base"
     pagecolor="#ffffff"
     bordercolor="#666666"
     borderopacity="1.0"
     inkscape:pageopacity="0.0"
     inkscape:pageshadow="2"
     inkscape:zoom="0.98994949"
     inkscape:cx="338.5201"
     inkscape:cy="147.29309"
     inkscape:document-units="mm"
     inkscape:current-layer="layer1"
     showgrid="false"
     fit-margin-top="0"
     fit-margin-left="0"
     fit-margin-right="0"
     fit-margin-bottom="0"
     units="px"
     inkscape:window-width="1366"
     inkscape:window-height="744"
     inkscape:window-x="0"
     inkscape:window-y="0"
     inkscape:window-maximized="1" />
  <metadata
     id="metadata4610">
    <rdf:RDF>
      <cc:Work
         rdf:about="">
        <dc:format>image/svg+xml</dc:format>
        <dc:type
           rdf:resource="http://purl.org/dc/dcmitype/StillImage" />
        <dc:title></dc:title>
      </cc:Work>
    </rdf:RDF>
  </metadata>
  <g
     inkscape:label="Layer 1"
     inkscape:groupmode="layer"
     id="layer1"
     transform="translate(79.91619,-173.43644)">
    <g
       id="g12"
       transform="matrix(0.03527778,0,0,-0.03527778,-79.91619,196.47241)">
      <path
         d="m 1416.92,523.48 h 62.16 V 278.816 c 0,-23.531 14.66,-23.086 27.53,-23.086 h 111.44 v -57.277 h -133.41 c -35.42,0 -67.72,13.094 -67.72,63.27 V 523.48"
         style="fill:#3b393d;fill-opacity:1;fill-rule:nonzero;stroke:none"
         id="path14"
         inkscape:connector-curvature="0" />
      <path
         d="m 1648.3,434.227 h 62.16 V 198.453 h -62.16 z m -2.24,74.375 c 0,6.66 3.54,11.105 10.66,11.105 h 46.6 c 6.67,0 9.98,-4.887 9.98,-11.105 v -39.364 c 0,-6.664 -3.75,-10.211 -9.98,-10.211 h -46.6 c -6.23,0 -10.66,3.993 -10.66,10.211 v 39.364"
         style="fill:#3b393d;fill-opacity:1;fill-rule:nonzero;stroke:none"
         id="path16"
         inkscape:connector-curvature="0" />
      <path
         d="m 1867.54,248.91 c 20.07,0 30.92,16.172 30.92,68.762 0,60.164 -11.29,71.379 -30.92,71.379 -21.48,0 -38.8,-2.574 -55.04,-8.86 V 263.477 c 13.24,-8.543 31.69,-14.567 55.04,-14.567 z m -117.23,298.102 h 61.76 V 422.461 c 21.58,9.836 51.61,15.324 71.59,15.324 65.33,0 76.98,-49.219 76.98,-122.558 0,-71.508 -18.94,-119.434 -76.98,-119.434 -28,0 -56.44,14.562 -71.16,26.414 l -11.07,-23.754 h -51.12 v 348.559"
         style="fill:#3b393d;fill-opacity:1;fill-rule:nonzero;stroke:none"
         id="path18"
         inkscape:connector-curvature="0" />
      <path
         d="m 1997.14,434.227 h 52.38 l 9.77,-29.747 c 16.34,15.786 38.33,32.172 67.66,32.172 10.19,0 19.94,-0.406 26.25,-2.82 v -60.016 c -6.31,0.598 -20.72,1.2 -34.08,1.2 -25.75,0 -44.44,-4.196 -59.83,-26.239 V 198.453 h -62.15 v 235.774"
         style="fill:#3b393d;fill-opacity:1;fill-rule:nonzero;stroke:none"
         id="path20"
         inkscape:connector-curvature="0" />
      <path
         d="m 2291.01,335.652 c 12.95,0 19.67,6.375 19.67,17.61 0,29.765 -4.24,35.234 -34.12,35.234 -32.83,0 -44.95,-1.91 -44.48,-52.844 z M 2272.94,436 c 68.2,0 99.91,-7.766 99.91,-85.91 0,-42.008 -23.1,-59.055 -65.72,-59.055 h -75.05 c 0,-42.566 16.08,-45.097 49.74,-45.097 35.97,0 53.29,-0.2 86.58,4.691 V 208.66 c -33.27,-12.406 -83.91,-12.426 -120.77,-12.426 -59.95,0 -77.7,34.723 -77.7,121.219 0,101.324 28.24,118.547 103.01,118.547"
         style="fill:#3b393d;fill-opacity:1;fill-rule:nonzero;stroke:none"
         id="path22"
         inkscape:connector-curvature="0" />
      <path
         d="m 2519.2,442.219 c 0,64.383 38.17,83.191 87.91,83.922 46.72,0.976 99.99,-5.262 125.65,-12.848 v -48.875 c -28.42,2.512 -92.44,4.445 -108.57,4.445 -27.17,0.602 -42.84,-1.293 -42.84,-31.523 v -15.871 c 0,-25.758 9.86,-31.309 35.04,-31.309 h 51.32 c 63.69,0 76.84,-50.222 76.84,-86.137 v -21.648 c 0,-73.805 -45.98,-87.469 -89.93,-87.469 -55.47,0 -91.81,3.391 -125.41,13.293 v 48.864 c 17.75,-1.778 71.91,-4.879 113.19,-4.879 18.71,0 39.99,3.086 39.99,27.992 v 17.492 c 0,18.477 -5.6,30.328 -29.32,30.328 h -49.96 c -78.38,0 -83.91,57.879 -83.91,86.141 v 28.082"
         style="fill:#3b393d;fill-opacity:1;fill-rule:nonzero;stroke:none"
         id="path24"
         inkscape:connector-curvature="0" />
      <path
         d="m 2896.64,243.633 c 19.63,0 30.92,11.211 30.92,71.375 0,52.601 -10.85,68.758 -30.92,68.758 -23.35,0 -41.99,-6.02 -55.23,-14.563 V 252.488 c 16.23,-6.285 33.75,-8.855 55.23,-8.855 z m -117.23,190.594 h 51.12 l 10.88,-23.758 c 14.72,11.855 43.35,26.429 71.35,26.429 58.04,0 76.99,-48.668 76.99,-119.445 0,-68.207 -11.65,-122.547 -76.99,-122.547 -19.98,0 -50.01,5.477 -71.59,15.313 V 78.5664 h -61.76 V 434.227"
         style="fill:#3b393d;fill-opacity:1;fill-rule:nonzero;stroke:none"
         id="path26"
         inkscape:connector-curvature="0" />
      <path
         d="m 3103.52,245.738 c 25.99,0 54.13,18.25 54.13,18.25 v 43.227 l -57.05,-4.414 c -16.41,-1.535 -19.11,-13.676 -19.11,-23.985 v -11.449 c 0,-19.609 10.6,-21.629 22.03,-21.629 z m -84.21,35.012 c 0,34.301 18.54,64.676 69.07,64.676 0,0 69.27,-0.442 69.27,0 0,0 0.44,14.652 0,15.097 0,25.125 -11.76,29.079 -31.53,29.079 -20.49,0 -79.63,-3.688 -99.01,-5.086 v 38.39 c 31.04,12.059 63.46,15.567 107.43,15.766 50.76,0.195 85.27,-17.344 85.27,-75.707 V 198.453 h -49.09 l -13.07,25.973 c -2.6,-5.125 -35.71,-29.371 -71.71,-28.633 -45.37,1.223 -66.63,32.102 -66.63,62.758 v 22.199"
         style="fill:#3b393d;fill-opacity:1;fill-rule:nonzero;stroke:none"
         id="path28"
         inkscape:connector-curvature="0" />
      <path
         d="m 3330.9,436.453 c 23.1,0 69.66,-1.379 108.56,-13.992 v -38.625 c 0,0 -42.42,2.66 -81.94,2.66 -28.59,0 -42.17,-1.715 -42.17,-71.219 0,-60.363 10.19,-69.093 42.17,-69.093 40.86,0 85.06,4.156 85.06,4.156 v -39.027 c -34.51,-17.54 -74.83,-14.633 -111.68,-15.079 -43.97,0 -77.71,22.981 -77.71,120.332 0,97.145 32.42,119.887 77.71,119.887"
         style="fill:#3b393d;fill-opacity:1;fill-rule:nonzero;stroke:none"
         id="path30"
         inkscape:connector-curvature="0" />
      <path
         d="m 3584.71,335.652 c 12.94,0 19.66,6.375 19.66,17.61 0,29.765 -4.23,35.234 -34.11,35.234 -32.83,0 -44.95,-1.91 -44.48,-52.844 z M 3566.63,436 c 68.21,0 99.92,-7.766 99.92,-85.91 0,-42.008 -23.1,-59.055 -65.72,-59.055 h -75.05 c 0,-42.566 16.08,-45.097 49.74,-45.097 35.97,0 53.29,-0.2 86.57,4.691 V 208.66 c -33.26,-12.406 -83.91,-12.426 -120.76,-12.426 -59.95,0 -77.7,34.723 -77.7,121.219 0,101.324 28.24,118.547 103,118.547"
         style="fill:#3b393d;fill-opacity:1;fill-rule:nonzero;stroke:none"
         id="path32"
         inkscape:connector-curvature="0" />
      <path
         d="m 3823.71,462.82 c 0,46.118 29.03,61.852 59.95,60.66 0,0 133.26,-6.039 141.04,-7.105 v -32.754 h -137.04 c -23.1,0 -23.1,-12.867 -23.1,-24.859 v -78.414 l 141.72,-4.512 v -32.988 l -141.72,-4.375 v -140.02 h -40.85 V 462.82"
         style="fill:#65686d;fill-opacity:1;fill-rule:nonzero;stroke:none"
         id="path34"
         inkscape:connector-curvature="0" />
      <path
         d="m 4154.91,233.746 c 44.42,0 64.05,5.824 64.05,79.262 0,79.371 -16.16,85.926 -64.05,85.926 -46.2,0 -64.05,-6.239 -64.05,-85.926 0,-73.793 21.78,-79.262 64.05,-79.262 z m 0,202.707 c 79.95,0 104.9,-29.758 104.9,-123.445 0,-87.469 -24.62,-116.774 -104.9,-116.774 -80.01,0 -104.9,32.411 -104.9,116.774 0,96.359 26.98,123.445 104.9,123.445"
         style="fill:#65686d;fill-opacity:1;fill-rule:nonzero;stroke:none"
         id="path36"
         inkscape:connector-curvature="0" />
      <path
         d="m 4300.84,434.227 h 40.85 V 271.676 c 0,-27.711 15.45,-39.703 36.16,-39.703 32.66,0 48.98,8.218 78.85,23.984 v 178.27 h 40.85 V 198.453 h -30.42 l -10.43,26.86 c -26.09,-15.133 -47.73,-30.86 -83.69,-30.86 -49.21,0 -72.17,36.813 -72.17,77.488 v 162.286"
         style="fill:#65686d;fill-opacity:1;fill-rule:nonzero;stroke:none"
         id="path38"
         inkscape:connector-curvature="0" />
      <path
         d="m 4546.98,434.227 h 30.41 l 10.44,-26.86 c 25.23,15.274 47.73,30.86 83.7,30.86 49.19,0 72.15,-36.813 72.15,-77.489 V 198.453 h -40.86 v 162.555 c 0,27.707 -15.45,39.695 -36.16,39.695 -32.65,0 -48.97,-8.215 -78.83,-23.973 V 198.453 h -40.85 v 235.774"
         style="fill:#65686d;fill-opacity:1;fill-rule:nonzero;stroke:none"
         id="path40"
         inkscape:connector-curvature="0" />
      <path
         d="m 4862.21,234.172 c 31.89,0 57.27,9.391 78.3,18.828 v 136.777 c -26.7,7.528 -47.57,10.821 -78.3,10.821 -26.01,0 -41.05,-15.657 -41.05,-84.703 0,-56.321 14.59,-81.723 41.05,-81.723 z m -4.39,203.613 c 19.98,0 56.22,-6.019 82.77,-17.097 v 126.324 h 40.48 V 198.453 h -31.06 l -9.5,25.531 c -12.4,-9.371 -53.09,-28.191 -82.69,-28.191 -62.65,0 -77.51,60.008 -77.51,119.434 0,64.453 10.92,122.558 77.51,122.558"
         style="fill:#65686d;fill-opacity:1;fill-rule:nonzero;stroke:none"
         id="path42"
         inkscape:connector-curvature="0" />
      <path
         d="m 5088,233.305 c 32.93,0 86.45,21.449 86.45,21.449 v 57.969 l -87.24,-6.375 c -18.37,-1.703 -24.28,-14.387 -24.28,-27.532 v -19.261 c 0,-20.852 10.98,-26.25 25.07,-26.25 z m -65.92,47.976 c 0,35.196 21.2,60.59 61.8,60.59 0,0 90.57,-0.445 90.57,0 0,0 0.45,25.313 0,25.758 0,26.555 -13.54,34.406 -35.08,34.406 -28.83,0 -73.05,-2.621 -109.67,-5.262 v 27.907 c 31.4,9.746 68.98,13.605 112.94,13.992 40.64,0.375 72.66,-18.938 72.66,-70.387 V 198.453 h -31.15 l -9.7,27.746 c -1.36,-1.398 -52.05,-30.613 -91.24,-30.406 -35.95,0.324 -61.13,23.922 -61.13,59.742 v 25.746"
         style="fill:#65686d;fill-opacity:1;fill-rule:nonzero;stroke:none"
         id="path44"
         inkscape:connector-curvature="0" />
      <path
         d="m 5244.21,425.348 42.37,9.324 8.66,65.711 h 32.2 v -65.711 h 64.42 v -36.856 h -64.42 V 285.48 c 0,-37.562 9.59,-46.046 23.9,-49.859 0,0 33.74,-9.332 36.85,-9.332 V 198.77 H 5345 c -34.39,0 -58.42,21.437 -58.42,84.046 v 115 h -42.37 v 27.532"
         style="fill:#65686d;fill-opacity:1;fill-rule:nonzero;stroke:none"
         id="path46"
         inkscape:connector-curvature="0" />
      <path
         d="m 5428.77,434.227 h 40.85 V 198.453 h -40.85 z m -3.84,65.496 c 0,6.66 3.54,11.097 10.66,11.097 h 28.85 c 6.66,0 10.15,-4.879 10.15,-11.097 v -28.172 c 0,-6.66 -3.92,-10.219 -10.15,-10.219 h -28.85 c -6.21,0 -10.66,4.004 -10.66,10.219 v 28.172"
         style="fill:#65686d;fill-opacity:1;fill-rule:nonzero;stroke:none"
         id="path48"
         inkscape:connector-curvature="0" />
      <path
         d="m 5620.83,233.746 c 44.42,0 64.05,5.824 64.05,79.262 0,79.371 -16.16,85.926 -64.05,85.926 -46.19,0 -64.04,-6.239 -64.04,-85.926 0,-73.793 21.77,-79.262 64.04,-79.262 z m 0,202.707 c 79.96,0 104.91,-29.758 104.91,-123.445 0,-87.469 -24.62,-116.774 -104.91,-116.774 -80.01,0 -104.9,32.411 -104.9,116.774 0,96.359 26.98,123.445 104.9,123.445"
         style="fill:#65686d;fill-opacity:1;fill-rule:nonzero;stroke:none"
         id="path50"
         inkscape:connector-curvature="0" />
      <path
         d="m 5770.94,434.227 h 30.41 l 10.45,-26.86 c 25.22,15.274 47.73,30.86 83.69,30.86 49.19,0 72.15,-36.813 72.15,-77.489 V 198.453 h -40.85 v 162.555 c 0,27.707 -15.45,39.695 -36.17,39.695 -32.65,0 -48.97,-8.215 -78.82,-23.973 V 198.453 h -40.86 v 235.774"
         style="fill:#65686d;fill-opacity:1;fill-rule:nonzero;stroke:none"
         id="path52"
         inkscape:connector-curvature="0" />
      <path
         d="m 919.645,399.813 c -4.692,18.359 -10.872,36.472 -18.735,54.132 -7.004,15.727 -15.125,30.731 -24.23,44.965 -38.293,59.84 -94.407,105.789 -161.969,131.719 -38.652,14.836 -79.063,22.359 -120.109,22.359 -67.102,0 -132.086,-19.922 -187.934,-57.617 -38.152,-25.75 -70.094,-58.641 -94.516,-96.855 -12.156,-19.028 -22.484,-39.348 -30.722,-60.813 -4.852,-12.64 -8.817,-25.465 -12.094,-38.39 -14.801,-58.364 -13.574,-119.004 3.555,-176.649 4.175,-14.051 9.207,-27.941 15.269,-41.559 9.262,-20.8 20.461,-40.351 33.36,-58.496 C 359.363,69.3672 411.984,28.3633 474.359,4.42188 L 485.883,0 l 39.039,101.719 17.625,45.929 c -4.176,-1.027 -7.047,-1.832 -7.59,-2.23 L 486.434,110.07 c -5.157,-3.754 -9.379,-1.605 -9.379,4.77 v 115.965 c 0,6.375 4.449,14.332 9.879,17.672 l 19.562,12.039 c 4.281,2.8 4.508,6.527 4.586,8.453 4.063,97.371 63.5,148.41 82.859,148.41 19.465,0 81.993,-52.254 85.731,-149.973 0.07,-1.769 -0.473,-5.273 3.566,-7.379 l 18.774,-11.55 c 5.433,-3.34 9.875,-11.297 9.875,-17.672 V 114.84 c 0,-6.375 -4.215,-8.524 -9.375,-4.77 l -48.528,35.348 c -0.511,0.371 -3.324,1.16 -7.437,2.172 L 664.172,101.66 703.188,0 714.711,4.42188 C 776.398,28.1016 829.18,69.4141 867.059,122.211 c 16.527,23.031 30.25,48.227 40.582,75.141 3.14,8.191 5.855,16.468 8.339,24.789 17.395,58.289 18.567,119.297 3.665,177.672"
         style="fill:#6366ba;fill-opacity:1;fill-rule:nonzero;stroke:none"
         id="path54"
         inkscape:connector-curvature="0" />
      <path
         d="m 230.867,209.098 c -1.402,4.722 -2.679,9.465 -3.894,14.218 -85.938,22.407 -139.3519,53.598 -139.3519,88.125 0,34.204 52.3749,65.141 136.8989,87.5 0.742,3.301 1.496,6.598 2.332,9.887 3.703,14.613 8.187,29.113 13.671,43.402 5.942,15.477 12.852,30.422 20.637,44.805 -21.035,-4.09 -41.176,-8.601 -60.027,-13.613 C 149.953,469.816 108.352,453.078 77.4883,433.684 13.4453,393.426 0,344.984 0,311.441 0,277.891 13.4453,229.453 77.4883,189.199 108.352,169.801 149.953,153.063 201.133,139.457 c 20.746,-5.512 42.926,-10.48 66.281,-14.887 -7.055,12.071 -13.512,24.582 -19.281,37.543 -6.856,15.395 -12.543,31.098 -17.266,46.985"
         style="fill:#6366ba;fill-opacity:1;fill-rule:nonzero;stroke:none"
         id="path56"
         inkscape:connector-curvature="0" />
      <path
         d="m 1113.45,433.684 c -30.86,19.394 -72.46,36.132 -123.645,49.738 -19.477,5.18 -40.321,9.824 -62.121,14.019 4.738,-8.726 9.171,-17.671 13.254,-26.843 8.89,-19.969 15.878,-40.45 21.179,-61.207 0.844,-3.309 1.61,-6.629 2.363,-9.953 85.65,-22.399 138.84,-53.536 138.84,-87.997 0,-34.8 -54.27,-66.211 -141.41,-88.652 -1.226,-4.773 -2.519,-9.539 -3.937,-14.281 -2.805,-9.406 -5.875,-18.77 -9.426,-28.028 -7.535,-19.628 -16.688,-38.429 -27.234,-56.308 24.167,4.504 47.101,9.598 68.492,15.285 51.185,13.606 92.785,30.344 123.645,49.742 64.05,40.254 77.49,88.692 77.49,122.242 0,33.543 -13.44,81.985 -77.49,122.243"
         style="fill:#6366ba;fill-opacity:1;fill-rule:nonzero;stroke:none"
         id="path58"
         inkscape:connector-curvature="0" />
    </g>
  </g>
</svg>
