<?xml version="1.0" encoding="UTF-8" standalone="no"?>
<!-- Created with Inkscape (http://www.inkscape.org/) -->

<svg
   xmlns:dc="http://purl.org/dc/elements/1.1/"
   xmlns:cc="http://creativecommons.org/ns#"
   xmlns:rdf="http://www.w3.org/1999/02/22-rdf-syntax-ns#"
   xmlns:svg="http://www.w3.org/2000/svg"
   xmlns="http://www.w3.org/2000/svg"
   xmlns:sodipodi="http://sodipodi.sourceforge.net/DTD/sodipodi-0.dtd"
   xmlns:inkscape="http://www.inkscape.org/namespaces/inkscape"
   width="68.3507mm"
   height="37.47625mm"
   viewBox="0 0 68.3507 37.47625"
   version="1.1"
   id="svg5392"
   inkscape:version="0.92.1 r"
   sodipodi:docname="icon-white.svg"
   inkscape:export-filename="/home/anxhelo/Libre Space Foundation/icon-color.png"
   inkscape:export-xdpi="177.61"
   inkscape:export-ydpi="177.61">
  <defs
     id="defs5386" />
  <sodipodi:namedview
     id="base"
     pagecolor="#ffffff"
     bordercolor="#666666"
     borderopacity="1.0"
     inkscape:pageopacity="0.0"
     inkscape:pageshadow="2"
     inkscape:zoom="0.98994949"
     inkscape:cx="-69.109476"
     inkscape:cy="81.560485"
     inkscape:document-units="mm"
     inkscape:current-layer="layer1"
     showgrid="false"
     fit-margin-top="0"
     fit-margin-left="0"
     fit-margin-right="0"
     fit-margin-bottom="0"
     inkscape:window-width="1366"
     inkscape:window-height="744"
     inkscape:window-x="0"
     inkscape:window-y="0"
     inkscape:window-maximized="1" />
  <metadata
     id="metadata5389">
    <rdf:RDF>
      <cc:Work
         rdf:about="">
        <dc:format>image/svg+xml</dc:format>
        <dc:type
           rdf:resource="http://purl.org/dc/dcmitype/StillImage" />
        <dc:title></dc:title>
      </cc:Work>
    </rdf:RDF>
  </metadata>
  <g
     inkscape:label="Layer 1"
     inkscape:groupmode="layer"
     id="layer1"
     transform="translate(-132.13417,-155.79759)">
    <path
       d="m 184.91432,170.3278 c -0.26882,-1.0534 -0.62371,-2.09303 -1.07492,-3.10692 -0.40181,-0.9024 -0.86818,-1.76353 -1.39065,-2.58057 -2.1978,-3.43429 -5.41831,-6.0713 -9.29569,-7.55967 -2.21862,-0.85125 -4.53778,-1.28305 -6.89342,-1.28305 -3.85106,0 -7.58074,1.14335 -10.7859,3.30694 -2.18958,1.47778 -4.02276,3.36514 -5.42438,5.55872 -0.69783,1.09184 -1.29053,2.25813 -1.76332,3.49003 -0.27838,0.72531 -0.50603,1.46155 -0.69413,2.20309 -0.84942,3.34963 -0.779,6.83013 0.20394,10.13848 0.23964,0.80645 0.5285,1.60373 0.87644,2.38513 0.5315,1.1938 1.17422,2.31564 1.91449,3.35704 2.17209,3.0558 5.1919,5.40907 8.77179,6.78325 l 0.66145,0.25357 2.24043,-5.83773 1.01159,-2.63595 c -0.23965,0.0589 -0.40429,0.10512 -0.43558,0.12805 l -2.7849,2.02847 c -0.29584,0.21555 -0.53812,0.0924 -0.53812,-0.27375 v -6.65515 c 0,-0.36619 0.25523,-0.82268 0.5668,-1.01424 l 1.12297,-0.69109 c 0.24556,-0.16087 0.25851,-0.37465 0.26306,-0.48507 0.23315,-5.58835 3.64452,-8.51782 4.75548,-8.51747 1.11718,-3.4e-4 4.70564,2.99861 4.92012,8.60707 0.004,0.1016 -0.0268,0.30269 0.20462,0.42334 l 1.07773,0.66322 c 0.31186,0.19156 0.56656,0.64805 0.56656,1.01424 v 6.65515 c 0,0.36618 -0.24165,0.4893 -0.53798,0.27375 l -2.78483,-2.02847 c -0.0296,-0.0215 -0.19086,-0.0667 -0.42722,-0.12488 l 1.01177,2.63631 2.23908,5.8342 0.66146,-0.25357 c 3.54013,-1.35887 6.56943,-3.72992 8.7436,-6.75997 0.94827,-1.32221 1.73602,-2.76789 2.32868,-4.31271 0.18063,-0.4699 0.3362,-0.94509 0.47872,-1.4224 0.99837,-3.34539 1.06574,-6.84706 0.21026,-10.19739"
       style="fill:#ffffff;fill-opacity:1;fill-rule:nonzero;stroke:none;stroke-width:0.03527778"
       id="path14"
       inkscape:connector-curvature="0" />
    <path
       d="m 145.3843,181.27343 c -0.0806,-0.27093 -0.15406,-0.54327 -0.22381,-0.81597 -4.93201,-1.28623 -7.99757,-3.07622 -7.99757,-5.05778 0,-1.96285 3.00591,-3.73838 7.85689,-5.02179 0.0427,-0.18944 0.086,-0.37888 0.13381,-0.56762 0.21261,-0.83855 0.47004,-1.67075 0.78478,-2.49096 0.34093,-0.88794 0.73752,-1.7459 1.18428,-2.57105 -1.20731,0.2346 -2.36305,0.49354 -3.44509,0.78105 -2.9373,0.78105 -5.3249,1.74132 -7.09609,2.85468 -3.67576,2.3107 -4.44733,5.09059 -4.44733,7.01569 0,1.92547 0.77157,4.70571 4.44733,7.01605 1.77119,1.11301 4.15879,2.07363 7.09609,2.85433 1.19077,0.31679 2.46366,0.60183 3.80408,0.85477 -0.40489,-0.69285 -0.77555,-1.41111 -1.1067,-2.15476 -0.39346,-0.88336 -0.71978,-1.7847 -0.99067,-2.69664"
       style="fill:#ffffff;fill-opacity:1;fill-rule:nonzero;stroke:none;stroke-width:0.03527778"
       id="path16"
       inkscape:connector-curvature="0" />
    <path
       d="m 196.0374,168.38399 c -1.77129,-1.11336 -4.1589,-2.07363 -7.09612,-2.85468 -1.11795,-0.29703 -2.31423,-0.56373 -3.56518,-0.80468 0.27164,0.50094 0.526,1.01423 0.76059,1.54058 0.51012,1.14617 0.91123,2.32163 1.21532,3.51296 0.0487,0.19015 0.0924,0.38065 0.13582,0.57115 4.91526,1.28552 7.9682,3.07269 7.9682,5.05036 0,1.99743 -3.11468,3.80013 -8.11566,5.08812 -0.0705,0.27375 -0.14464,0.54716 -0.22613,0.8195 -0.16086,0.5401 -0.3369,1.07703 -0.54116,1.60867 -0.43215,1.12642 -0.95744,2.20556 -1.5628,3.23144 1.38712,-0.25823 2.70333,-0.55068 3.931,-0.87735 2.93722,-0.7807 5.32483,-1.74132 7.09612,-2.85433 3.67595,-2.31034 4.44747,-5.09058 4.44747,-7.01605 0,-1.9251 -0.77152,-4.70499 -4.44747,-7.01569"
       style="fill:#ffffff;fill-opacity:1;fill-rule:nonzero;stroke:none;stroke-width:0.03527778"
       id="path18"
       inkscape:connector-curvature="0" />
  </g>
</svg>
