<?xml version="1.0" encoding="UTF-8" standalone="no"?>
<!-- Created with Inkscape (http://www.inkscape.org/) -->

<svg
   xmlns:dc="http://purl.org/dc/elements/1.1/"
   xmlns:cc="http://creativecommons.org/ns#"
   xmlns:rdf="http://www.w3.org/1999/02/22-rdf-syntax-ns#"
   xmlns:svg="http://www.w3.org/2000/svg"
   xmlns="http://www.w3.org/2000/svg"
   xmlns:sodipodi="http://sodipodi.sourceforge.net/DTD/sodipodi-0.dtd"
   xmlns:inkscape="http://www.inkscape.org/namespaces/inkscape"
   width="258.33334"
   height="253.03468"
   viewBox="0 0 68.350698 66.948761"
   version="1.1"
   id="svg4613"
   inkscape:version="0.92.1 r"
   sodipodi:docname="vertical white.svg"
   inkscape:export-filename="/home/anxhelo/Libre Space Foundation/vertical-color.png"
   inkscape:export-xdpi="177.61"
   inkscape:export-ydpi="177.61">
  <defs
     id="defs4607" />
  <sodipodi:namedview
     id="base"
     pagecolor="#ffffff"
     bordercolor="#666666"
     borderopacity="1.0"
     inkscape:pageopacity="0.0"
     inkscape:pageshadow="2"
     inkscape:zoom="0.98994949"
     inkscape:cx="173.16441"
     inkscape:cy="153.0981"
     inkscape:document-units="mm"
     inkscape:current-layer="g12"
     showgrid="false"
     fit-margin-top="0"
     fit-margin-left="0"
     fit-margin-right="0"
     fit-margin-bottom="0"
     units="px"
     inkscape:window-width="1366"
     inkscape:window-height="744"
     inkscape:window-x="0"
     inkscape:window-y="0"
     inkscape:window-maximized="1" />
  <metadata
     id="metadata4610">
    <rdf:RDF>
      <cc:Work
         rdf:about="">
        <dc:format>image/svg+xml</dc:format>
        <dc:type
           rdf:resource="http://purl.org/dc/dcmitype/StillImage" />
        <dc:title></dc:title>
      </cc:Work>
    </rdf:RDF>
  </metadata>
  <g
     inkscape:label="Layer 1"
     inkscape:groupmode="layer"
     id="layer1"
     transform="translate(20.012666,-183.04324)">
    <g
       id="g12"
       transform="matrix(0.03527778,0,0,-0.03527778,-20.012666,249.992)">
      <path
         d="m 1496.13,1485.88 c -7.62,29.86 -17.68,59.33 -30.47,88.07 -11.39,25.58 -24.61,49.99 -39.42,73.15 -62.3,97.35 -153.59,172.1 -263.5,214.29 -62.89,24.13 -128.63,36.37 -195.404,36.37 -109.164,0 -214.887,-32.41 -305.742,-93.74 -62.067,-41.89 -114.031,-95.39 -153.762,-157.57 -19.781,-30.95 -36.582,-64.01 -49.984,-98.93 -7.891,-20.56 -14.344,-41.43 -19.676,-62.45 -24.078,-94.95 -22.082,-193.61 5.781,-287.39 6.793,-22.86 14.981,-45.46 24.844,-67.61 15.066,-33.84 33.285,-65.64 54.269,-95.16 61.571,-86.621 147.172,-153.328 248.649,-192.281 l 18.75,-7.188 63.508,165.479 28.675,74.72 c -6.793,-1.67 -11.46,-2.98 -12.347,-3.63 l -78.942,-57.5 c -8.386,-6.11 -15.254,-2.62 -15.254,7.76 v 188.65 c 0,10.38 7.235,23.32 16.067,28.75 l 31.832,19.59 c 6.961,4.56 7.328,10.62 7.457,13.75 6.609,158.41 103.309,241.45 134.801,241.44 31.668,0.01 133.388,-85 139.468,-243.98 0.12,-2.88 -0.76,-8.58 5.8,-12 l 30.55,-18.8 c 8.84,-5.43 16.06,-18.37 16.06,-28.75 v -188.65 c 0,-10.38 -6.85,-13.87 -15.25,-7.76 l -78.94,57.5 c -0.84,0.61 -5.41,1.89 -12.11,3.54 l 28.68,-74.73 63.47,-165.379 18.75,7.188 c 100.35,38.519 186.22,105.73 247.85,191.621 26.88,37.48 49.21,78.46 66.01,122.25 5.12,13.32 9.53,26.79 13.57,40.32 28.3,94.83 30.21,194.09 5.96,289.06"
         style="fill:#ffffff;fill-opacity:1;fill-rule:nonzero;stroke:none"
         id="path14"
         inkscape:connector-curvature="0" />
      <path
         d="m 375.594,1175.61 c -2.285,7.68 -4.367,15.4 -6.344,23.13 -139.805,36.46 -226.703,87.2 -226.703,143.37 0,55.64 85.207,105.97 222.715,142.35 1.211,5.37 2.437,10.74 3.793,16.09 6.027,23.77 13.324,47.36 22.246,70.61 9.664,25.17 20.906,49.49 33.57,72.88 -34.223,-6.65 -66.984,-13.99 -97.656,-22.14 -83.262,-22.14 -150.942,-49.36 -201.149,-80.92 C 21.8711,1475.48 0,1396.68 0,1342.11 c 0,-54.58 21.8711,-133.39 126.066,-198.88 50.207,-31.55 117.887,-58.78 201.149,-80.91 33.754,-8.98 69.836,-17.06 107.832,-24.23 -11.477,19.64 -21.984,40 -31.371,61.08 -11.153,25.04 -20.403,50.59 -28.082,76.44"
         style="fill:#ffffff;fill-opacity:1;fill-rule:nonzero;stroke:none"
         id="path16"
         inkscape:connector-curvature="0" />
      <path
         d="m 1811.43,1540.98 c -50.21,31.56 -117.89,58.78 -201.15,80.92 -31.69,8.42 -65.6,15.98 -101.06,22.81 7.7,-14.2 14.91,-28.75 21.56,-43.67 14.46,-32.49 25.83,-65.81 34.45,-99.58 1.38,-5.39 2.62,-10.79 3.85,-16.19 139.33,-36.44 225.87,-87.1 225.87,-143.16 0,-56.62 -88.29,-107.72 -230.05,-144.23 -2,-7.76 -4.1,-15.51 -6.41,-23.23 -4.56,-15.31 -9.55,-30.53 -15.34,-45.6 -12.25,-31.93 -27.14,-62.52 -44.3,-91.6 39.32,7.32 76.63,15.61 111.43,24.87 83.26,22.13 150.94,49.36 201.15,80.91 104.2,65.49 126.07,144.3 126.07,198.88 0,54.57 -21.87,133.37 -126.07,198.87"
         style="fill:#ffffff;fill-opacity:1;fill-rule:nonzero;stroke:none"
         id="path18"
         inkscape:connector-curvature="0" />
      <path
         d="M 9.58594,645.211 H 62.75 V 435.969 c 0,-20.11 12.5352,-19.739 23.5273,-19.739 H 181.59 V 367.262 H 67.4844 c -30.2696,0 -57.89846,11.187 -57.89846,54.109 v 223.84"
         style="fill:#ffffff;fill-opacity:1;fill-rule:nonzero;stroke:none"
         id="path20"
         inkscape:connector-curvature="0" />
      <path
         d="m 207.453,568.871 h 53.164 V 367.262 h -53.164 z m -1.914,63.609 c 0,5.7 3.039,9.489 9.121,9.489 h 39.856 c 5.707,0 8.527,-4.18 8.527,-9.489 v -33.671 c 0,-5.68 -3.195,-8.719 -8.527,-8.719 H 214.66 c -5.308,0 -9.121,3.41 -9.121,8.719 v 33.671"
         style="fill:#ffffff;fill-opacity:1;fill-rule:nonzero;stroke:none"
         id="path22"
         inkscape:connector-curvature="0" />
      <path
         d="m 394.926,410.422 c 17.164,0 26.461,13.808 26.461,58.777 0,51.461 -9.672,61.051 -26.461,61.051 -18.375,0 -33.18,-2.199 -47.063,-7.578 v -99.813 c 11.325,-7.308 27.102,-12.437 47.063,-12.437 z M 294.68,665.332 h 52.808 V 558.82 c 18.442,8.399 44.133,13.09 61.231,13.09 55.871,0 65.832,-42.078 65.832,-104.781 0,-61.16 -16.219,-102.141 -65.832,-102.141 -23.949,0 -48.274,12.442 -60.856,22.582 l -9.472,-20.308 H 294.68 v 298.07"
         style="fill:#ffffff;fill-opacity:1;fill-rule:nonzero;stroke:none"
         id="path24"
         inkscape:connector-curvature="0" />
      <path
         d="m 505.77,568.871 h 44.789 l 8.351,-25.422 c 13.988,13.481 32.781,27.492 57.856,27.492 8.722,0 17.074,-0.332 22.449,-2.402 V 517.23 c -5.375,0.5 -17.692,1.008 -29.125,1.008 -22.031,0 -38.004,-3.59 -51.18,-22.429 V 367.262 h -53.14 v 201.609"
         style="fill:#ffffff;fill-opacity:1;fill-rule:nonzero;stroke:none"
         id="path26"
         inkscape:connector-curvature="0" />
      <path
         d="m 757.066,484.582 c 11.059,0 16.809,5.457 16.809,15.066 0,25.442 -3.613,30.114 -29.172,30.114 -28.066,0 -38.445,-1.633 -38.023,-45.18 z m -15.445,85.809 c 58.317,0 85.418,-6.629 85.418,-73.45 0,-35.941 -19.742,-50.519 -56.184,-50.519 H 706.68 c 0,-36.402 13.746,-38.563 42.519,-38.563 30.758,0 45.563,-0.179 74.051,4.012 V 375.98 c -28.465,-10.601 -71.758,-10.621 -103.285,-10.621 -51.246,0 -66.449,29.7 -66.449,103.661 0,86.652 24.144,101.371 88.105,101.371"
         style="fill:#ffffff;fill-opacity:1;fill-rule:nonzero;stroke:none"
         id="path28"
         inkscape:connector-curvature="0" />
      <path
         d="m 952.18,575.719 c 0,55.062 32.652,71.14 75.17,71.761 39.97,0.84 85.51,-4.492 107.48,-10.992 v -41.797 c -24.31,2.161 -79.08,3.809 -92.85,3.809 -23.24,0.512 -36.64,-1.102 -36.64,-26.961 v -13.57 c 0,-22.039 8.42,-26.77 29.95,-26.77 h 43.9 c 54.47,0 65.7,-42.937 65.7,-73.679 v -18.508 c 0,-63.102 -39.3,-74.793 -76.91,-74.793 -47.41,0 -78.5,2.902 -107.25,11.359 v 41.801 c 15.2,-1.52 61.51,-4.188 96.81,-4.188 15.99,0 34.19,2.649 34.19,23.95 v 14.961 c 0,15.796 -4.78,25.929 -25.07,25.929 h -42.72 c -67.022,0 -71.76,49.508 -71.76,73.68 v 24.008"
         style="fill:#ffffff;fill-opacity:1;fill-rule:nonzero;stroke:none"
         id="path30"
         inkscape:connector-curvature="0" />
      <path
         d="m 1274.95,405.898 c 16.79,0 26.46,9.582 26.46,61.032 0,44.968 -9.3,58.8 -26.46,58.8 -19.96,0 -35.91,-5.152 -47.24,-12.468 v -99.801 c 13.88,-5.359 28.86,-7.563 47.24,-7.563 z M 1174.7,568.871 h 43.71 l 9.3,-20.312 c 12.6,10.152 37.08,22.601 61.03,22.601 49.62,0 65.83,-41.621 65.83,-102.14 0,-58.321 -9.96,-104.801 -65.83,-104.801 -17.1,0 -42.76,4.691 -61.23,13.101 V 264.738 h -52.81 v 304.133"
         style="fill:#ffffff;fill-opacity:1;fill-rule:nonzero;stroke:none"
         id="path32"
         inkscape:connector-curvature="0" />
      <path
         d="m 1451.87,407.68 c 22.23,0 46.29,15.629 46.29,15.629 v 36.972 l -48.78,-3.793 c -14.04,-1.297 -16.35,-11.699 -16.35,-20.519 v -9.778 c 0,-16.761 9.05,-18.511 18.84,-18.511 z m -72,29.949 c 0,29.34 15.84,55.32 59.06,55.32 0,0 59.23,-0.398 59.23,0 0,0 0.37,12.512 0,12.91 0,21.481 -10.07,24.852 -26.97,24.852 -17.52,0 -68.08,-3.152 -84.67,-4.34 v 32.828 c 26.55,10.313 54.29,13.313 91.87,13.481 43.43,0.179 72.93,-14.828 72.93,-64.75 V 367.262 h -41.97 l -11.19,22.199 c -2.23,-4.383 -30.54,-25.109 -61.32,-24.473 -38.8,1.032 -56.97,27.453 -56.97,53.672 v 18.969"
         style="fill:#ffffff;fill-opacity:1;fill-rule:nonzero;stroke:none"
         id="path34"
         inkscape:connector-curvature="0" />
      <path
         d="m 1646.3,570.789 c 19.74,0 59.57,-1.187 92.84,-11.969 v -33.039 c 0,0 -36.29,2.289 -70.08,2.289 -24.44,0 -36.05,-1.48 -36.05,-60.922 0,-51.617 8.73,-59.07 36.05,-59.07 34.94,0 72.75,3.551 72.75,3.551 V 378.25 c -29.5,-15 -63.98,-12.512 -95.51,-12.891 -37.59,0 -66.45,19.653 -66.45,102.891 0,83.078 27.72,102.539 66.45,102.539"
         style="fill:#ffffff;fill-opacity:1;fill-rule:nonzero;stroke:none"
         id="path36"
         inkscape:connector-curvature="0" />
      <path
         d="m 1863.36,484.582 c 11.06,0 16.81,5.457 16.81,15.066 0,25.442 -3.62,30.114 -29.17,30.114 -28.07,0 -38.45,-1.633 -38.03,-45.18 z m -15.45,85.809 c 58.32,0 85.42,-6.629 85.42,-73.45 0,-35.941 -19.74,-50.519 -56.18,-50.519 h -64.18 c 0,-36.402 13.75,-38.563 42.52,-38.563 30.76,0 45.56,-0.179 74.05,4.012 V 375.98 c -28.46,-10.601 -71.76,-10.621 -103.28,-10.621 -51.25,0 -66.45,29.7 -66.45,103.661 0,86.652 24.14,101.371 88.1,101.371"
         style="fill:#ffffff;fill-opacity:1;fill-rule:nonzero;stroke:none"
         id="path38"
         inkscape:connector-curvature="0" />
      <path
         d="m 16.7031,229.488 c 0,39.442 24.8282,52.903 51.2657,51.891 0,0 113.9532,-5.18 120.6052,-6.09 v -28 H 71.3867 c -19.7422,0 -19.7422,-11.008 -19.7422,-21.258 V 158.969 L 172.82,155.109 V 126.91 L 51.6445,123.16 V 3.42188 H 16.7031 V 229.488"
         style="fill:#ffffff;fill-opacity:1;fill-rule:nonzero;stroke:none"
         id="path40"
         inkscape:connector-curvature="0" />
      <path
         d="m 308.25,33.6016 c 38.008,0 54.797,4.9804 54.797,67.7694 0,67.879 -13.836,73.481 -54.797,73.481 -39.504,0 -54.77,-5.332 -54.77,-73.481 0,-63.1015 18.637,-67.7694 54.77,-67.7694 z m 0,173.3474 c 68.391,0 89.715,-25.449 89.715,-105.578 0,-74.789 -21.063,-99.85147 -89.715,-99.85147 -68.406,0 -89.691,27.71877 -89.691,99.85147 0,82.399 23.066,105.578 89.691,105.578"
         style="fill:#ffffff;fill-opacity:1;fill-rule:nonzero;stroke:none"
         id="path42"
         inkscape:connector-curvature="0" />
      <path
         d="m 441.414,205.031 h 34.918 V 66.0313 c 0,-23.6797 13.223,-33.9493 30.934,-33.9493 27.937,0 41.882,7.0274 67.418,20.5196 V 205.031 h 34.945 V 3.42188 H 583.605 L 574.684,26.3984 C 552.387,13.4414 533.859,0 503.102,0 461.043,0 441.414,31.4883 441.414,66.25 v 138.781"
         style="fill:#ffffff;fill-opacity:1;fill-rule:nonzero;stroke:none"
         id="path44"
         inkscape:connector-curvature="0" />
      <path
         d="m 660.234,205.031 h 25.996 l 8.926,-22.949 c 21.567,13.059 40.824,26.387 71.582,26.387 42.078,0 61.711,-31.481 61.711,-66.27 V 3.42188 H 793.508 V 142.422 c 0,23.707 -13.223,33.949 -30.934,33.949 -27.918,0 -41.883,-7.031 -67.418,-20.492 V 3.42188 H 660.234 V 205.031"
         style="fill:#ffffff;fill-opacity:1;fill-rule:nonzero;stroke:none"
         id="path46"
         inkscape:connector-curvature="0" />
      <path
         d="m 903.07,103.84 c 0,-48.1603 12.493,-69.8595 35.121,-69.8595 27.254,0 48.954,8.0195 66.959,16.0781 V 167.031 c -22.853,6.43 -40.697,9.25 -66.959,9.25 -22.253,0 -35.121,-13.39 -35.121,-72.422 z m 31.352,104.23 c 17.098,0 48.074,-5.129 70.788,-14.601 v 108.019 h 34.59 V 3.42188 h -26.55 L 1005.15,25.25 C 994.527,17.2305 959.738,1.14844 934.422,1.14844 c -53.582,0 -66.274,51.31246 -66.274,102.14056 0,55.102 9.344,104.781 66.274,104.781"
         style="fill:#ffffff;fill-opacity:1;fill-rule:nonzero;stroke:none"
         id="path48"
         inkscape:connector-curvature="0" />
      <path
         d="m 1139.61,33.2305 c 28.15,0 73.94,18.3281 73.94,18.3281 v 49.5704 l -74.63,-5.4376 c -15.68,-1.4531 -20.75,-12.293 -20.75,-23.5508 V 55.6602 c 0,-17.8282 9.39,-22.4297 21.44,-22.4297 z M 1083.25,74.25 c 0,30.102 18.13,51.82 52.83,51.82 0,0 77.47,-0.39 77.47,0 0,0 0.37,21.641 0,22.008 0,22.723 -11.59,29.442 -30.01,29.442 -24.66,0 -62.48,-2.25 -93.79,-4.5 v 23.859 c 26.86,8.332 59,11.641 96.59,11.973 34.76,0.296 62.13,-16.204 62.13,-60.204 V 3.42188 h -26.64 l -8.28,23.72652 c -1.17,-1.1875 -44.51,-26.17965 -78.04,-25.99996 -30.74,0.29297 -52.26,20.47266 -52.26,51.07036 V 74.25"
         style="fill:#ffffff;fill-opacity:1;fill-rule:nonzero;stroke:none"
         id="path50"
         inkscape:connector-curvature="0" />
      <path
         d="m 1281.54,197.461 36.24,7.969 7.4,56.179 h 27.52 V 205.43 h 55.1 v -31.532 h -55.1 V 77.8398 c 0,-32.121 8.22,-39.371 20.45,-42.6289 0,0 28.86,-7.9726 31.52,-7.9726 V 3.67969 h -36.94 c -29.42,0 -49.95,18.33201 -49.95,71.89061 v 98.3277 h -36.24 v 23.563"
         style="fill:#ffffff;fill-opacity:1;fill-rule:nonzero;stroke:none"
         id="path52"
         inkscape:connector-curvature="0" />
      <path
         d="m 1447.72,205.031 h 34.92 V 3.42188 h -34.92 z m -3.28,56.028 c 0,5.691 3.04,9.48 9.1,9.48 h 24.7 c 5.68,0 8.68,-4.168 8.68,-9.48 v -24.098 c 0,-5.711 -3.37,-8.731 -8.68,-8.731 h -24.7 c -5.31,0 -9.1,3.418 -9.1,8.731 v 24.098"
         style="fill:#ffffff;fill-opacity:1;fill-rule:nonzero;stroke:none"
         id="path54"
         inkscape:connector-curvature="0" />
      <path
         d="m 1620.3,33.6016 c 38.01,0 54.79,4.9804 54.79,67.7694 0,67.879 -13.83,73.481 -54.79,73.481 -39.5,0 -54.77,-5.332 -54.77,-73.481 0,-63.1015 18.64,-67.7694 54.77,-67.7694 z m 0,173.3474 c 68.39,0 89.71,-25.449 89.71,-105.578 0,-74.789 -21.06,-99.85147 -89.71,-99.85147 -68.41,0 -89.69,27.71877 -89.69,99.85147 0,82.399 23.07,105.578 89.69,105.578"
         style="fill:#ffffff;fill-opacity:1;fill-rule:nonzero;stroke:none"
         id="path56"
         inkscape:connector-curvature="0" />
      <path
         d="m 1757.03,205.031 h 26 l 8.92,-22.949 c 21.57,13.059 40.83,26.387 71.58,26.387 42.08,0 61.72,-31.481 61.72,-66.27 V 3.42188 H 1890.3 V 142.422 c 0,23.707 -13.22,33.949 -30.93,33.949 -27.91,0 -41.88,-7.031 -67.42,-20.492 V 3.42188 h -34.92 V 205.031"
         style="fill:#ffffff;fill-opacity:1;fill-rule:nonzero;stroke:none"
         id="path58"
         inkscape:connector-curvature="0" />
    </g>
  </g>
</svg>
