<?xml version="1.0" encoding="UTF-8" standalone="no"?>
<!-- Created with Inkscape (http://www.inkscape.org/) -->

<svg
   xmlns:dc="http://purl.org/dc/elements/1.1/"
   xmlns:cc="http://creativecommons.org/ns#"
   xmlns:rdf="http://www.w3.org/1999/02/22-rdf-syntax-ns#"
   xmlns:svg="http://www.w3.org/2000/svg"
   xmlns="http://www.w3.org/2000/svg"
   xmlns:sodipodi="http://sodipodi.sourceforge.net/DTD/sodipodi-0.dtd"
   xmlns:inkscape="http://www.inkscape.org/namespaces/inkscape"
   width="599.06921"
   height="138.22345"
   viewBox="0 0 158.50374 36.57162"
   version="1.1"
   id="svg8"
   inkscape:version="0.92.2 (5c3e80d, 2017-08-06)"
   sodipodi:docname="horizontal_black.svg"
   inkscape:export-filename="/home/anxhelo/Files/Design/CutePeaks/horizontal_black.png"
   inkscape:export-xdpi="96"
   inkscape:export-ydpi="96">
  <defs
     id="defs2" />
  <sodipodi:namedview
     id="base"
     pagecolor="#ffffff"
     bordercolor="#666666"
     borderopacity="1.0"
     inkscape:pageopacity="0"
     inkscape:pageshadow="2"
     inkscape:zoom="0.74199837"
     inkscape:cx="100.76445"
     inkscape:cy="43.330312"
     inkscape:document-units="px"
     inkscape:current-layer="layer1"
     inkscape:document-rotation="0"
     showgrid="false"
     borderlayer="true"
     inkscape:showpageshadow="true"
     units="px"
     inkscape:pagecheckerboard="false"
     showguides="true"
     inkscape:window-width="1366"
     inkscape:window-height="713"
     inkscape:window-x="0"
     inkscape:window-y="0"
     inkscape:window-maximized="1"
     objecttolerance="10"
     guidetolerance="10"
     inkscape:snap-tangential="true"
     inkscape:snap-perpendicular="true"
     fit-margin-top="0"
     fit-margin-left="0"
     fit-margin-right="0"
     fit-margin-bottom="0">
    <inkscape:grid
       type="xygrid"
       id="grid10"
       dotted="false"
       originx="-135.5728"
       originy="-102.89789" />
  </sodipodi:namedview>
  <metadata
     id="metadata5">
    <rdf:RDF>
      <cc:Work
         rdf:about="">
        <dc:format>image/svg+xml</dc:format>
        <dc:type
           rdf:resource="http://purl.org/dc/dcmitype/StillImage" />
        <dc:title></dc:title>
        <cc:license
           rdf:resource="" />
      </cc:Work>
    </rdf:RDF>
  </metadata>
  <g
     inkscape:label="Layer 1"
     inkscape:groupmode="layer"
     id="layer1"
     transform="translate(-135.5728,-157.5305)">
    <g
       id="g2444"
       transform="matrix(1.2262842,0,0,1.2262842,2.7153296,-28.225921)"
       style="fill:#000000">
      <g
         id="g853"
         transform="matrix(0.35277777,0,0,-0.35277777,125.9667,161.84194)"
         style="fill:#000000">
        <path
           d="m 0,0 c 4.601,-5.037 9.799,-10.716 13.741,-10.966 l 26.747,0.293 C 31.084,-0.076 21.778,29.375 11.273,29.375 4.772,29.375 -0.938,18.09 -6.587,6.876 -4.334,4.743 -2.155,2.359 0,0"
           style="fill:#000000;fill-opacity:1;fill-rule:nonzero;stroke:none"
           id="path855"
           inkscape:connector-curvature="0" />
      </g>
      <g
         id="g857"
         transform="matrix(0.35277777,0,0,-0.35277777,123.00739,160.67318)"
         style="fill:#000000">
        <path
           d="m 0,0 c -0.479,0.47 -0.96,0.929 -1.442,1.372 -0.492,0.451 -0.985,0.884 -1.48,1.298 -3.269,2.74 -6.623,4.624 -10.108,4.624 -9.83,0 -17.853,-14.969 -26.586,-22.277 l 24.254,0.266 0.196,0.002 v 0.027 l 3.601,0.039 2.656,0.029 22.954,0.252 C 9.415,-10.6 4.785,-4.695 0,0"
           style="fill:#000000;fill-opacity:1;fill-rule:nonzero;stroke:none"
           id="path859"
           inkscape:connector-curvature="0" />
      </g>
      <g
         id="g861"
         transform="matrix(0.35277777,0,0,-0.35277777,130.99414,167.05352)"
         style="fill:#000000">
        <path
           d="m 0,0 c -0.646,-0.041 -2.499,-0.643 -5.729,-5.342 -2.638,-3.839 -5.346,-9.171 -7.965,-14.326 -0.046,-0.091 -0.092,-0.182 -0.139,-0.273 3.708,-4.041 7.518,-6.974 11.5,-6.974 10.097,0 18.287,18.852 27.299,27.21 L -0.001,0.021 Z"
           style="fill:#000000;fill-opacity:1;fill-rule:nonzero;stroke:none"
           id="path863"
           inkscape:connector-curvature="0" />
      </g>
      <g
         id="g865"
         transform="matrix(0.35277777,0,0,-0.35277777,120.34088,167.16288)"
         style="fill:#000000">
        <path
           d="m 0,0 -2.955,-0.032 c 0.011,-0.009 0.023,-0.018 0.034,-0.027 l -4.276,-0.046 -26.817,-0.294 c 9.395,-10.535 18.693,-39.681 29.187,-39.681 6.025,0 11.372,9.613 16.619,19.873 0.314,0.614 0.627,1.23 0.941,1.847 0.314,0.617 0.628,1.235 0.941,1.852 3.311,6.509 6.61,12.845 10.044,16.742 0.008,0.009 0.015,0.018 0.023,0.026 z"
           style="fill:#000000;fill-opacity:1;fill-rule:nonzero;stroke:none"
           id="path867"
           inkscape:connector-curvature="0" />
      </g>
      <g
         id="g869"
         transform="matrix(0.35277777,0,0,-0.35277777,147.49218,166.64853)"
         style="fill:#000000">
        <path
           d="m 0,0 c 0,9.66 4.62,21.719 17.579,21.719 7.98,0 12.839,-4.5 14.639,-8.939 L 25.739,9.84 c -2.1,3.18 -4.2,4.979 -8.16,4.979 C 9.839,14.819 7.439,6.6 7.439,0 c 0,-6.959 3.061,-14.759 10.14,-14.759 3.78,0 6.12,2.219 8.04,5.4 l 6.659,-2.52 c -2.579,-5.82 -7.199,-9.84 -14.699,-9.84 C 4.5,-21.719 0,-10.379 0,0"
           style="fill:#000000;fill-opacity:1;fill-rule:nonzero;stroke:none"
           id="path871"
           inkscape:connector-curvature="0" />
      </g>
      <g
         id="g873"
         transform="matrix(0.35277777,0,0,-0.35277777,166.98607,173.01938)"
         style="fill:#000000">
        <path
           d="m 0,0 c -1.92,-2.46 -4.62,-3.66 -8.04,-3.66 -5.819,0 -10.919,3.24 -10.919,12.599 v 18.78 h 7.02 V 10.2 c 0,-5.04 2.159,-7.14 5.759,-7.14 3.72,0 6.18,1.92 6.18,7.02 V 27.719 H 7.02 V -2.94 H 0 Z"
           style="fill:#000000;fill-opacity:1;fill-rule:nonzero;stroke:none"
           id="path875"
           inkscape:connector-curvature="0" />
      </g>
      <g
         id="g877"
         transform="matrix(0.35277777,0,0,-0.35277777,172.23538,171.53782)"
         style="fill:#000000">
        <path
           d="m 0,0 v 17.399 h -4.56 v 6.12 H 0 v 9.3 l 7.02,3.36 v -12.66 h 7.079 v -6.12 H 7.02 V 1.38 c 0,-1.74 0.72,-2.94 2.58,-2.94 1.56,0 3.179,0.48 4.799,1.38 l -0.84,-6.299 C 11.819,-7.38 9.66,-7.859 7.14,-7.859 2.1,-7.859 0,-4.86 0,0"
           style="fill:#000000;fill-opacity:1;fill-rule:nonzero;stroke:none"
           id="path879"
           inkscape:connector-curvature="0" />
      </g>
      <g
         id="g881"
         transform="matrix(0.35277777,0,0,-0.35277777,185.25248,167.53736)"
         style="fill:#000000">
        <path
           d="M 0,0 C -0.3,4.68 -3.24,6.72 -6.42,6.72 -10.2,6.72 -13.2,4.8 -13.56,0 Z m -20.579,-3.12 c 0,10.019 5.579,16.019 14.159,16.019 7.38,0 13.379,-4.56 13.379,-14.399 0,-1.26 -0.06,-2.94 -0.239,-4.32 h -20.34 c 0.241,-4.5 3.54,-7.2 7.2,-7.2 2.7,0 4.86,1.02 6.48,3.18 l 4.44,-4.559 c -2.4,-2.88 -6,-4.8 -10.92,-4.8 -8.7,0 -14.159,5.999 -14.159,16.079"
           style="fill:#000000;fill-opacity:1;fill-rule:nonzero;stroke:none"
           id="path883"
           inkscape:connector-curvature="0" />
      </g>
      <g
         id="g885"
         transform="matrix(0.35277777,0,0,-0.35277777,198.5025,163.60067)"
         style="fill:#000000">
        <path
           d="M 0,0 C 0,3.66 -1.86,8.58 -8.88,8.58 H -20.399 V -8.52 H -8.88 C -2.28,-8.52 0,-4.02 0,0 M -24.599,12.359 H -9.24 C 0.78,12.359 4.02,6.12 4.02,0 c 0,-5.64 -3.6,-12.299 -13.26,-12.299 h -11.159 v -17.34 h -4.2 z"
           style="fill:#000000;fill-opacity:1;fill-rule:nonzero;stroke:none"
           id="path887"
           inkscape:connector-curvature="0" />
      </g>
      <g
         id="g889"
         transform="matrix(0.35277777,0,0,-0.35277777,207.81596,167.91839)"
         style="fill:#000000">
        <path
           d="m 0,0 c -0.06,8.279 -4.62,10.199 -7.86,10.199 -4.919,0 -8.64,-3.24 -8.999,-10.199 z m -21.179,-2.04 c 0,10.2 5.46,16.019 13.319,16.019 6.54,0 12.12,-4.5 12.12,-14.819 0,-0.66 0,-1.62 -0.12,-2.94 h -20.879 c 0.719,-6.24 3.84,-10.44 9.059,-10.44 2.22,0 4.56,0.66 6.9,2.4 l 2.28,-2.82 c -2.4,-1.98 -5.82,-3.479 -9.36,-3.479 -8.279,0 -13.319,7.439 -13.319,16.079"
           style="fill:#000000;fill-opacity:1;fill-rule:nonzero;stroke:none"
           id="path891"
           inkscape:connector-curvature="0" />
      </g>
      <g
         id="g893"
         transform="matrix(0.35277777,0,0,-0.35277777,217.44656,171.34732)"
         style="fill:#000000">
        <path
           d="m 0,0 v 5.94 c -1.98,1.32 -5.22,2.519 -7.86,2.519 -4.14,0 -7.68,-2.039 -7.68,-6.479 0,-4.02 2.52,-6.72 6.96,-6.72 3.72,0 6.72,2.46 8.58,4.74 m 0,-4.68 c -2.46,-2.22 -5.7,-3.719 -9,-3.719 -6.179,0 -10.439,3.479 -10.439,10.379 0,7.08 5.339,10.14 11.159,10.14 2.58,0 5.28,-0.54 8.28,-2.161 v 2.581 c 0,6.179 -3.3,7.499 -6.72,7.499 -3.06,0 -6.84,-1.74 -9.119,-3.3 l -1.2,3.6 c 2.459,1.56 6.539,3.36 10.739,3.36 4.38,0 10.2,-1.92 10.2,-10.619 V -7.68 H 0 Z"
           style="fill:#000000;fill-opacity:1;fill-rule:nonzero;stroke:none"
           id="path895"
           inkscape:connector-curvature="0" />
      </g>
      <g
         id="g897"
         transform="matrix(0.35277777,0,0,-0.35277777,227.90279,174.05652)"
         style="fill:#000000">
        <path
           d="m 0,0 -9.84,19.439 -5.099,-5.46 V 0 h -4.2 v 41.278 l 4.2,2.04 V 18.959 l 10.859,11.7 H 0.78 L -6.9,22.499 4.62,0 Z"
           style="fill:#000000;fill-opacity:1;fill-rule:nonzero;stroke:none"
           id="path899"
           inkscape:connector-curvature="0" />
      </g>
      <g
         id="g901"
         transform="matrix(0.35277777,0,0,-0.35277777,230.23115,172.42682)"
         style="fill:#000000">
        <path
           d="m 0,0 2.94,2.58 c 1.86,-2.22 4.8,-4.2 7.979,-4.2 3.36,0 6,1.56 6,4.44 0,3.72 -3.899,5.34 -7.62,6.84 -4.859,1.98 -9.179,4.14 -9.179,9.299 0,4.68 4.14,7.8 9.9,7.8 4.139,0 7.499,-1.74 9.959,-4.68 l -2.76,-2.34 c -1.56,1.56 -3.96,3.3 -7.32,3.3 -3.539,0 -5.819,-1.56 -5.819,-4.019 0,-3.121 3.42,-4.44 7.02,-5.88 4.559,-1.8 9.779,-3.9 9.779,-10.08 0,-5.1 -3.96,-8.399 -10.319,-8.399 C 6.419,-5.339 2.58,-3.06 0,0"
           style="fill:#000000;fill-opacity:1;fill-rule:nonzero;stroke:none"
           id="path903"
           inkscape:connector-curvature="0" />
      </g>
    </g>
  </g>
</svg>
