<?xml version="1.0" encoding="UTF-8" standalone="no"?>
<!-- Created with Inkscape (http://www.inkscape.org/) -->

<svg
   xmlns:dc="http://purl.org/dc/elements/1.1/"
   xmlns:cc="http://creativecommons.org/ns#"
   xmlns:rdf="http://www.w3.org/1999/02/22-rdf-syntax-ns#"
   xmlns:svg="http://www.w3.org/2000/svg"
   xmlns="http://www.w3.org/2000/svg"
   xmlns:sodipodi="http://sodipodi.sourceforge.net/DTD/sodipodi-0.dtd"
   xmlns:inkscape="http://www.inkscape.org/namespaces/inkscape"
   width="451.09805"
   height="295.01358"
   viewBox="0 0 119.35303 78.055673"
   version="1.1"
   id="svg8"
   inkscape:version="0.92.2 (5c3e80d, 2017-08-06)"
   sodipodi:docname="vertical_white.svg"
   inkscape:export-filename="/home/anxhelo/Files/Design/CutePeaks/vertical_white.png"
   inkscape:export-xdpi="96"
   inkscape:export-ydpi="96">
  <defs
     id="defs2" />
  <sodipodi:namedview
     id="base"
     pagecolor="#ffffff"
     bordercolor="#666666"
     borderopacity="1.0"
     inkscape:pageopacity="0"
     inkscape:pageshadow="2"
     inkscape:zoom="0.74199837"
     inkscape:cx="150.78067"
     inkscape:cy="93.072733"
     inkscape:document-units="px"
     inkscape:current-layer="layer1"
     inkscape:document-rotation="0"
     showgrid="false"
     borderlayer="true"
     inkscape:showpageshadow="true"
     units="px"
     inkscape:pagecheckerboard="false"
     showguides="true"
     inkscape:window-width="1366"
     inkscape:window-height="713"
     inkscape:window-x="0"
     inkscape:window-y="0"
     inkscape:window-maximized="1"
     objecttolerance="10"
     guidetolerance="10"
     inkscape:snap-tangential="true"
     inkscape:snap-perpendicular="true"
     fit-margin-top="0"
     fit-margin-left="0"
     fit-margin-right="0"
     fit-margin-bottom="0">
    <inkscape:grid
       type="xygrid"
       id="grid10"
       dotted="false"
       originx="-154.64387"
       originy="-82.521706" />
  </sodipodi:namedview>
  <metadata
     id="metadata5">
    <rdf:RDF>
      <cc:Work
         rdf:about="">
        <dc:format>image/svg+xml</dc:format>
        <dc:type
           rdf:resource="http://purl.org/dc/dcmitype/StillImage" />
        <dc:title></dc:title>
        <cc:license
           rdf:resource="" />
      </cc:Work>
    </rdf:RDF>
  </metadata>
  <g
     inkscape:label="Layer 1"
     inkscape:groupmode="layer"
     id="layer1"
     transform="translate(-154.64386,-136.42262)">
    <g
       id="g3152"
       transform="matrix(1.3246053,0,0,1.3246053,-64.893689,-37.60374)"
       style="fill:#ffffff">
      <g
         id="g905"
         transform="matrix(0.35277777,0,0,-0.35277777,212.99753,143.78804)"
         style="fill:#ffffff">
        <path
           d="m 0,0 c 5.51,-6.032 11.734,-12.832 16.454,-13.132 l 32.028,0.351 C 37.221,-0.092 26.078,35.173 13.5,35.173 5.714,35.173 -1.124,21.661 -7.887,8.233 -5.19,5.679 -2.58,2.824 0,0"
           style="fill:#ffffff;fill-opacity:1;fill-rule:nonzero;stroke:none"
           id="path907"
           inkscape:connector-curvature="0" />
      </g>
      <g
         id="g909"
         transform="matrix(0.35277777,0,0,-0.35277777,209.4541,142.38864)"
         style="fill:#ffffff">
        <path
           d="m 0,0 c -0.574,0.563 -1.149,1.113 -1.727,1.643 -0.589,0.54 -1.18,1.058 -1.773,1.555 -3.914,3.28 -7.929,5.536 -12.103,5.536 -11.771,0 -21.377,-17.924 -31.834,-26.675 l 29.041,0.318 0.236,0.003 v 0.032 l 4.311,0.047 3.182,0.035 27.485,0.301 C 11.274,-12.693 5.729,-5.622 0,0"
           style="fill:#ffffff;fill-opacity:1;fill-rule:nonzero;stroke:none"
           id="path911"
           inkscape:connector-curvature="0" />
      </g>
      <g
         id="g913"
         transform="matrix(0.35277777,0,0,-0.35277777,219.0177,150.02868)"
         style="fill:#ffffff">
        <path
           d="m 0,0 c -0.774,-0.049 -2.992,-0.77 -6.859,-6.396 -3.16,-4.598 -6.403,-10.981 -9.538,-17.155 -0.056,-0.109 -0.111,-0.218 -0.166,-0.327 4.439,-4.838 9.001,-8.35 13.769,-8.35 12.091,0 21.898,22.574 32.689,32.581 L -0.001,0.025 Z"
           style="fill:#ffffff;fill-opacity:1;fill-rule:nonzero;stroke:none"
           id="path915"
           inkscape:connector-curvature="0" />
      </g>
      <g
         id="g917"
         transform="matrix(0.35277777,0,0,-0.35277777,206.261,150.15959)"
         style="fill:#ffffff">
        <path
           d="m 0,0 -3.539,-0.039 c 0.015,-0.01 0.028,-0.021 0.042,-0.031 l -5.12,-0.056 -32.112,-0.353 c 11.25,-12.614 22.383,-47.514 34.949,-47.514 7.216,0 13.617,11.511 19.901,23.796 0.376,0.736 0.751,1.473 1.126,2.211 0.376,0.74 0.752,1.48 1.128,2.218 3.963,7.795 7.914,15.382 12.025,20.048 0.01,0.01 0.019,0.021 0.028,0.032 z"
           style="fill:#ffffff;fill-opacity:1;fill-rule:nonzero;stroke:none"
           id="path919"
           inkscape:connector-curvature="0" />
      </g>
      <g
         id="g921"
         transform="matrix(0.35277777,0,0,-0.35277777,165.73809,182.64527)"
         style="fill:#ffffff">
        <path
           d="m 0,0 c 0,9.66 4.62,21.719 17.579,21.719 7.98,0 12.839,-4.5 14.639,-8.939 L 25.739,9.84 c -2.1,3.18 -4.2,4.979 -8.16,4.979 C 9.839,14.819 7.439,6.6 7.439,0 c 0,-6.959 3.061,-14.759 10.14,-14.759 3.78,0 6.12,2.219 8.04,5.4 l 6.659,-2.52 c -2.579,-5.82 -7.199,-9.84 -14.699,-9.84 C 4.5,-21.719 0,-10.379 0,0"
           style="fill:#ffffff;fill-opacity:1;fill-rule:nonzero;stroke:none"
           id="path923"
           inkscape:connector-curvature="0" />
      </g>
      <g
         id="g925"
         transform="matrix(0.35277777,0,0,-0.35277777,185.23199,189.01612)"
         style="fill:#ffffff">
        <path
           d="m 0,0 c -1.92,-2.46 -4.62,-3.66 -8.04,-3.66 -5.819,0 -10.919,3.24 -10.919,12.599 v 18.78 h 7.02 V 10.2 c 0,-5.04 2.159,-7.14 5.759,-7.14 3.72,0 6.18,1.92 6.18,7.02 V 27.719 H 7.02 V -2.94 H 0 Z"
           style="fill:#ffffff;fill-opacity:1;fill-rule:nonzero;stroke:none"
           id="path927"
           inkscape:connector-curvature="0" />
      </g>
      <g
         id="g929"
         transform="matrix(0.35277777,0,0,-0.35277777,190.48129,187.53456)"
         style="fill:#ffffff">
        <path
           d="m 0,0 v 17.399 h -4.56 v 6.12 H 0 v 9.3 l 7.02,3.36 v -12.66 h 7.079 v -6.12 H 7.02 V 1.38 c 0,-1.74 0.72,-2.94 2.58,-2.94 1.56,0 3.179,0.48 4.799,1.38 l -0.84,-6.299 C 11.819,-7.38 9.66,-7.859 7.14,-7.859 2.1,-7.859 0,-4.86 0,0"
           style="fill:#ffffff;fill-opacity:1;fill-rule:nonzero;stroke:none"
           id="path931"
           inkscape:connector-curvature="0" />
      </g>
      <g
         id="g933"
         transform="matrix(0.35277777,0,0,-0.35277777,203.49841,183.53413)"
         style="fill:#ffffff">
        <path
           d="M 0,0 C -0.3,4.68 -3.24,6.72 -6.42,6.72 -10.2,6.72 -13.2,4.8 -13.56,0 Z m -20.579,-3.12 c 0,10.019 5.579,16.019 14.159,16.019 7.38,0 13.379,-4.56 13.379,-14.399 0,-1.26 -0.06,-2.94 -0.239,-4.32 h -20.34 c 0.241,-4.5 3.54,-7.2 7.2,-7.2 2.7,0 4.86,1.02 6.48,3.18 l 4.44,-4.559 c -2.4,-2.88 -6,-4.8 -10.92,-4.8 -8.7,0 -14.159,5.999 -14.159,16.079"
           style="fill:#ffffff;fill-opacity:1;fill-rule:nonzero;stroke:none"
           id="path935"
           inkscape:connector-curvature="0" />
      </g>
      <g
         id="g937"
         transform="matrix(0.35277777,0,0,-0.35277777,216.74842,179.59741)"
         style="fill:#ffffff">
        <path
           d="M 0,0 C 0,3.66 -1.86,8.58 -8.88,8.58 H -20.399 V -8.52 H -8.88 C -2.28,-8.52 0,-4.02 0,0 M -24.599,12.359 H -9.24 C 0.78,12.359 4.02,6.12 4.02,0 c 0,-5.64 -3.6,-12.299 -13.26,-12.299 h -11.159 v -17.34 h -4.2 z"
           style="fill:#ffffff;fill-opacity:1;fill-rule:nonzero;stroke:none"
           id="path939"
           inkscape:connector-curvature="0" />
      </g>
      <g
         id="g941"
         transform="matrix(0.35277777,0,0,-0.35277777,226.06189,183.91513)"
         style="fill:#ffffff">
        <path
           d="m 0,0 c -0.06,8.279 -4.62,10.199 -7.86,10.199 -4.919,0 -8.64,-3.24 -8.999,-10.199 z m -21.179,-2.04 c 0,10.2 5.46,16.019 13.319,16.019 6.54,0 12.12,-4.5 12.12,-14.819 0,-0.66 0,-1.62 -0.12,-2.94 h -20.879 c 0.719,-6.24 3.84,-10.44 9.059,-10.44 2.22,0 4.56,0.66 6.9,2.4 l 2.28,-2.82 c -2.4,-1.98 -5.82,-3.479 -9.36,-3.479 -8.279,0 -13.319,7.439 -13.319,16.079"
           style="fill:#ffffff;fill-opacity:1;fill-rule:nonzero;stroke:none"
           id="path943"
           inkscape:connector-curvature="0" />
      </g>
      <g
         id="g945"
         transform="matrix(0.35277777,0,0,-0.35277777,235.69248,187.34406)"
         style="fill:#ffffff">
        <path
           d="m 0,0 v 5.94 c -1.98,1.32 -5.22,2.519 -7.86,2.519 -4.14,0 -7.68,-2.039 -7.68,-6.479 0,-4.02 2.52,-6.72 6.96,-6.72 3.72,0 6.72,2.46 8.58,4.74 m 0,-4.68 c -2.46,-2.22 -5.7,-3.719 -9,-3.719 -6.179,0 -10.439,3.479 -10.439,10.379 0,7.08 5.339,10.14 11.159,10.14 2.58,0 5.28,-0.54 8.28,-2.161 v 2.581 c 0,6.179 -3.3,7.499 -6.72,7.499 -3.06,0 -6.84,-1.74 -9.119,-3.3 l -1.2,3.6 c 2.459,1.56 6.539,3.36 10.739,3.36 4.38,0 10.2,-1.92 10.2,-10.619 V -7.68 H 0 Z"
           style="fill:#ffffff;fill-opacity:1;fill-rule:nonzero;stroke:none"
           id="path947"
           inkscape:connector-curvature="0" />
      </g>
      <g
         id="g949"
         transform="matrix(0.35277777,0,0,-0.35277777,246.14866,190.05325)"
         style="fill:#ffffff">
        <path
           d="m 0,0 -9.84,19.439 -5.099,-5.46 V 0 h -4.2 v 41.278 l 4.2,2.04 V 18.959 l 10.859,11.7 H 0.78 L -6.9,22.499 4.62,0 Z"
           style="fill:#ffffff;fill-opacity:1;fill-rule:nonzero;stroke:none"
           id="path951"
           inkscape:connector-curvature="0" />
      </g>
      <g
         id="g953"
         transform="matrix(0.35277777,0,0,-0.35277777,248.47704,188.42356)"
         style="fill:#ffffff">
        <path
           d="m 0,0 2.94,2.58 c 1.86,-2.22 4.8,-4.2 7.979,-4.2 3.36,0 6,1.56 6,4.44 0,3.72 -3.899,5.34 -7.62,6.84 -4.859,1.98 -9.179,4.14 -9.179,9.299 0,4.68 4.14,7.8 9.9,7.8 4.139,0 7.499,-1.74 9.959,-4.68 l -2.76,-2.34 c -1.56,1.56 -3.96,3.3 -7.32,3.3 -3.539,0 -5.819,-1.56 -5.819,-4.019 0,-3.121 3.42,-4.44 7.02,-5.88 4.559,-1.8 9.779,-3.9 9.779,-10.08 0,-5.1 -3.96,-8.399 -10.319,-8.399 C 6.419,-5.339 2.58,-3.06 0,0"
           style="fill:#ffffff;fill-opacity:1;fill-rule:nonzero;stroke:none"
           id="path955"
           inkscape:connector-curvature="0" />
      </g>
    </g>
  </g>
</svg>
