<?xml version="1.0" encoding="UTF-8" standalone="no"?>
<!-- Created with Inkscape (http://www.inkscape.org/) -->

<svg
   xmlns:dc="http://purl.org/dc/elements/1.1/"
   xmlns:cc="http://creativecommons.org/ns#"
   xmlns:rdf="http://www.w3.org/1999/02/22-rdf-syntax-ns#"
   xmlns:svg="http://www.w3.org/2000/svg"
   xmlns="http://www.w3.org/2000/svg"
   xmlns:sodipodi="http://sodipodi.sourceforge.net/DTD/sodipodi-0.dtd"
   xmlns:inkscape="http://www.inkscape.org/namespaces/inkscape"
   width="998.89996"
   height="151.39999"
   viewBox="0 0 264.29229 40.057913"
   version="1.1"
   id="svg8"
   inkscape:version="0.92.3 (2405546, 2018-03-11)"
   sodipodi:docname="horizontal_white.svg"
   inkscape:export-filename="/home/anxhelo/works/Equinox/PNG/horizontal_white.png"
   inkscape:export-xdpi="96"
   inkscape:export-ydpi="96">
  <defs
     id="defs2" />
  <sodipodi:namedview
     id="base"
     pagecolor="#ffffff"
     bordercolor="#666666"
     borderopacity="1.0"
     inkscape:pageopacity="0"
     inkscape:pageshadow="2"
     inkscape:zoom="0.37099919"
     inkscape:cx="347.41301"
     inkscape:cy="292.04871"
     inkscape:document-units="px"
     inkscape:current-layer="layer1"
     inkscape:document-rotation="0"
     showgrid="false"
     borderlayer="true"
     inkscape:showpageshadow="true"
     units="px"
     inkscape:pagecheckerboard="false"
     showguides="true"
     inkscape:window-width="1366"
     inkscape:window-height="715"
     inkscape:window-x="0"
     inkscape:window-y="0"
     inkscape:window-maximized="1"
     objecttolerance="10"
     guidetolerance="10"
     inkscape:snap-tangential="true"
     inkscape:snap-perpendicular="true"
     fit-margin-top="0"
     fit-margin-left="0"
     fit-margin-right="0"
     fit-margin-bottom="0">
    <inkscape:grid
       type="xygrid"
       id="grid10"
       dotted="false"
       originx="-7.5403117"
       originy="-105.03328" />
  </sodipodi:namedview>
  <metadata
     id="metadata5">
    <rdf:RDF>
      <cc:Work
         rdf:about="">
        <dc:format>image/svg+xml</dc:format>
        <dc:type
           rdf:resource="http://purl.org/dc/dcmitype/StillImage" />
        <dc:title></dc:title>
        <cc:license
           rdf:resource="" />
      </cc:Work>
    </rdf:RDF>
  </metadata>
  <g
     inkscape:label="Layer 1"
     inkscape:groupmode="layer"
     id="layer1"
     transform="translate(-7.5403115,-151.90881)">
    <g
       id="g857"
       transform="matrix(0.26458333,0,0,0.26458333,7.5403115,151.90881)"
       style="fill:#ffffff;fill-opacity:1">
      <polygon
         id="polygon837"
         points="23.5,20 79.1,20 79.1,1.4 0,1.4 0,126.9 79.1,126.9 79.1,108.2 23.5,108.2 23.5,72.7 67.3,72.7 67.3,54.8 23.5,54.8 "
         style="fill:#ffffff;fill-opacity:1" />
      <path
         id="path839"
         d="m 386.8,76.5 c 0,4.8 -0.6,9.1 -2,13 -1.3,3.9 -3.2,7.2 -5.6,9.9 -2.5,2.7 -5.5,4.8 -9,6.3 -3.6,1.5 -7.6,2.3 -12.1,2.3 -4.5,0 -8.5,-0.8 -12.1,-2.3 -3.6,-1.5 -6.6,-3.6 -9,-6.4 -2.4,-2.7 -4.3,-6.1 -5.6,-9.9 -1.3,-3.9 -2,-8.2 -2,-13 v -75 h -23.3 v 75.2 c 0,7.5 1.2,14.4 3.6,20.7 2.4,6.3 5.8,11.8 10.3,16.4 4.5,4.6 9.9,8.2 16.4,10.8 6.4,2.6 13.7,3.9 21.7,3.9 8,0 15.3,-1.3 21.7,-3.9 6.4,-2.6 11.9,-6.2 16.4,-10.8 4.5,-4.6 8,-10.1 10.4,-16.4 2.4,-6.3 3.6,-13.2 3.6,-20.7 V 1.4 h -23.3 v 75.1 z"
         inkscape:connector-curvature="0"
         style="fill:#ffffff;fill-opacity:1" />
      <rect
         id="rect841"
         height="125.5"
         width="23.4"
         y="1.4"
         x="471.5"
         style="fill:#ffffff;fill-opacity:1" />
      <path
         id="path843"
         d="m 643.2,77.7 c 0,1.7 0,3.5 0.1,5.4 0.1,1.9 0.2,3.9 0.5,5.9 L 577.9,5.1 C 577.3,4.3 576.7,3.6 576.2,3.1 575.7,2.6 575.1,2.2 574.6,2 574,1.7 573.4,1.6 572.7,1.5 572,1.4 571.1,1.4 570.1,1.4 h -12.2 v 125.5 h 20.6 V 49.8 c 0,-1.5 0,-3.2 -0.1,-5 -0.1,-1.8 -0.2,-3.7 -0.4,-5.5 l 65.6,83.6 c 1.2,1.5 2.3,2.5 3.6,3.1 1.2,0.6 2.7,0.9 4.6,0.9 h 12.1 V 1.4 h -20.6 v 76.3 z"
         inkscape:connector-curvature="0"
         style="fill:#ffffff;fill-opacity:1" />
      <path
         id="path845"
         d="m 957.2,61.4 40.4,-60 h -22.4 c -2,0 -3.7,1.1 -4.9,3.2 l -26.1,41.2 c -0.5,0.8 -0.9,1.5 -1.2,2.2 -0.3,0.7 -0.7,1.5 -1,2.2 l -28.5,-46 c -0.6,-1 -1.2,-1.7 -2,-2.1 -0.7,-0.4 -1.9,-0.7 -3.5,-0.7 h -23.3 l 40,60.9 -41.7,64.6 h 21.9 c 1.4,0 2.5,-0.4 3.5,-1.3 0.9,-0.8 1.7,-1.7 2.3,-2.7 l 27.9,-44.4 c 0.3,-0.5 0.6,-1.1 0.9,-1.7 0.3,-0.6 0.5,-1.3 0.8,-2 l 29.1,48.1 c 0.6,1 1.4,2 2.4,2.8 1,0.8 2.2,1.2 3.8,1.2 h 23.3 z"
         class="st0"
         inkscape:connector-curvature="0"
         style="fill:#ffffff;fill-opacity:1" />
      <path
         id="path847"
         d="M 254.9,64.1 C 254.9,28.7 226.2,0 190.8,0 c -35.4,0 -64.1,28.7 -64.1,64.1 0,35.4 28.7,64.1 64.1,64.1 0,0 0.1,0 0.1,0 0,0 0,0 0,0 0,0 0,0 0.1,0 6.4,0 12.6,-1 18.4,-2.7 l 18.7,20.6 c 1.9,2 3.9,3.4 6.1,4.2 2.2,0.8 4.7,1.1 7.5,1.1 H 261 L 228.4,116 c 16.1,-11.7 26.5,-30.5 26.5,-51.9 z m -105.7,0 c 0,-23 18.7,-41.6 41.6,-41.6 22.9,0 41.6,18.7 41.6,41.6 0,23 -18.7,41.6 -41.6,41.6 -22.9,0 -41.6,-18.6 -41.6,-41.6 z"
         inkscape:connector-curvature="0"
         style="fill:#ffffff;fill-opacity:1" />
      <g
         id="g855"
         style="fill:#ffffff;fill-opacity:1">
        <path
           id="path849"
           d="m 780.5,22.5 c 23,0 41.6,18.7 41.6,41.6 0,5.2 -1,10.1 -2.7,14.7 l 19.2,12.4 c 3.8,-8.2 6,-17.4 6,-27.1 C 844.7,28.7 816,0 780.5,0 761.1,0 743.8,8.6 732,22.3 l 19.2,12.4 c 7.5,-7.5 17.9,-12.2 29.3,-12.2 z"
           class="st0"
           inkscape:connector-curvature="0"
           style="fill:#ffffff;fill-opacity:1" />
        <path
           id="path851"
           d="m 726.7,29.3 v 0 0 c -6.5,10 -10.3,22 -10.3,34.8 0,35.4 28.7,64.1 64.1,64.1 22.6,0 42.4,-11.7 53.8,-29.3 z"
           inkscape:connector-curvature="0"
           style="fill:#ffffff;fill-opacity:1" />
        <polygon
           id="polygon853"
           points="834.4,98.9 829.5,95.8 "
           style="fill:#ffffff;fill-opacity:1" />
      </g>
    </g>
  </g>
</svg>
