<?xml version="1.0" encoding="UTF-8" standalone="no"?>
<!-- Created with Inkscape (http://www.inkscape.org/) -->

<svg
   xmlns:dc="http://purl.org/dc/elements/1.1/"
   xmlns:cc="http://creativecommons.org/ns#"
   xmlns:rdf="http://www.w3.org/1999/02/22-rdf-syntax-ns#"
   xmlns:svg="http://www.w3.org/2000/svg"
   xmlns="http://www.w3.org/2000/svg"
   xmlns:sodipodi="http://sodipodi.sourceforge.net/DTD/sodipodi-0.dtd"
   xmlns:inkscape="http://www.inkscape.org/namespaces/inkscape"
   width="155.44853mm"
   height="36.554176mm"
   viewBox="0 0 155.44853 36.554176"
   version="1.1"
   id="svg85111"
   inkscape:version="0.92.1 r"
   sodipodi:docname="horizontal_color.svg">
  <defs
     id="defs85105" />
  <sodipodi:namedview
     id="base"
     pagecolor="#ffffff"
     bordercolor="#666666"
     borderopacity="1.0"
     inkscape:pageopacity="0.0"
     inkscape:pageshadow="2"
     inkscape:zoom="0.35"
     inkscape:cx="-101.95328"
     inkscape:cy="231.9359"
     inkscape:document-units="mm"
     inkscape:current-layer="layer1"
     showgrid="false"
     fit-margin-top="0"
     fit-margin-left="0"
     fit-margin-right="0"
     fit-margin-bottom="0"
     inkscape:window-width="1366"
     inkscape:window-height="740"
     inkscape:window-x="0"
     inkscape:window-y="0"
     inkscape:window-maximized="1" />
  <metadata
     id="metadata85108">
    <rdf:RDF>
      <cc:Work
         rdf:about="">
        <dc:format>image/svg+xml</dc:format>
        <dc:type
           rdf:resource="http://purl.org/dc/dcmitype/StillImage" />
        <dc:title></dc:title>
      </cc:Work>
    </rdf:RDF>
  </metadata>
  <g
     inkscape:label="Layer 1"
     inkscape:groupmode="layer"
     id="layer1"
     transform="translate(1.3730745,-173.64553)">
    <g
       id="g85693">
      <path
         inkscape:connector-curvature="0"
         id="path84408"
         style="fill:#f05133;fill-opacity:1;fill-rule:nonzero;stroke:none;stroke-width:0.35277775"
         d="m 27.61485,196.03497 c -0.962729,0.96273 -2.522009,0.96273 -3.485091,0 -0.7239,-0.72425 -0.902758,-1.78752 -0.536222,-2.67935 l -3.323519,-3.32387 -3.44e-4,8.74642 c 0.23495,0.11606 0.456141,0.27129 0.65158,0.46602 0.962378,0.96202 0.962378,2.5213 0,3.48474 -0.96273,0.96202 -2.522361,0.96202 -3.484033,0 -0.962378,-0.96379 -0.962378,-2.52272 0,-3.48474 0.237772,-0.23742 0.512939,-0.41734 0.806803,-0.53763 V 189.879 c -0.293864,-0.11995 -0.568325,-0.29845 -0.806803,-0.53763 -0.728839,-0.72849 -0.904522,-1.79847 -0.530578,-2.69346 l -3.645261,-3.64596 -6.7073636,6.70736 -2.7181527,-2.71815 c -2.243314,-2.24331 -2.243314,-5.89386 0,-8.13682 2.2433137,-2.24331 5.8938578,-2.24331 8.1368183,0 l 6.418792,6.4135 c 0.859719,-0.29034 1.844675,-0.0956 2.529769,0.58949 0.688622,0.68933 0.881945,1.6831 0.5842,2.54529 l 3.563761,3.56376 c 0.86219,-0.29703 1.857023,-0.10512 2.545644,0.58456 0.962731,0.96202 0.962731,2.5213 0,3.48403 m 6.960306,-3.34292 -14.038086,-14.03738 c -0.807861,-0.80857 -2.119136,-0.80857 -2.928055,0 l -0.423333,0.42333 -2.718506,-2.7185 c -3.619147,-3.6188 -9.5070076,-3.61845 -13.1261547,0 -3.6187944,3.61879 -3.6187944,9.50736 0,13.12615 l 2.7177998,2.7178 -0.4233331,0.42333 c -0.8089196,0.80928 -0.8089196,2.12055 0,2.92912 l 14.038085,14.03738 c 0.808214,0.80857 2.119136,0.80857 2.928408,0 l 13.973175,-13.97212 c 0.808567,-0.80892 0.808567,-2.12055 0,-2.92911" />
      <path
         inkscape:connector-curvature="0"
         id="path84412"
         style="fill:#f05133;fill-opacity:1;fill-rule:nonzero;stroke:none;stroke-width:0.35277775"
         d="m 46.162848,193.72639 c 0.759531,0 1.320448,-0.19226 1.68275,-0.57644 0.361598,-0.38417 0.542925,-0.88018 0.542925,-1.48801 0,-0.63465 -0.181327,-1.13277 -0.542925,-1.49472 -0.36195,-0.36195 -0.922867,-0.54293 -1.68275,-0.54293 -0.759884,0 -1.318329,0.18098 -1.675694,0.54293 -0.357365,0.36195 -0.536223,0.86007 -0.536223,1.49472 0,0.59866 0.180975,1.09255 0.542925,1.48131 0.36195,0.38876 0.918281,0.58314 1.668992,0.58314 m 3.49885,7.98971 c 0,-0.2413 -0.07585,-0.43815 -0.227894,-0.58984 -0.1524,-0.1517 -0.355248,-0.27235 -0.609952,-0.36195 -0.254706,-0.0892 -0.556331,-0.15416 -0.904523,-0.19438 -0.348543,-0.0402 -0.719667,-0.0716 -1.11266,-0.0938 -0.393348,-0.0222 -0.802217,-0.0423 -1.226608,-0.0603 -0.424747,-0.018 -0.837849,-0.049 -1.240015,-0.0938 -0.312915,0.18768 -0.567619,0.40887 -0.764117,0.66357 -0.19685,0.25471 -0.294923,0.54293 -0.294923,0.86466 0,0.22331 0.05151,0.42898 0.154165,0.61666 0.102658,0.18768 0.274815,0.34854 0.516115,0.4826 0.2413,0.13405 0.558445,0.23918 0.951793,0.31503 0.392994,0.0759 0.884767,0.11395 1.47461,0.11395 0.607484,0 1.121482,-0.0402 1.54164,-0.12065 0.419807,-0.0804 0.759177,-0.19439 1.018823,-0.34185 0.258937,-0.14746 0.4445,-0.32385 0.556329,-0.52952 0.11148,-0.20567 0.167217,-0.42933 0.167217,-0.67027 m -3.49885,-14.62546 c 0.589846,0 1.146175,0.0603 1.668991,0.18097 0.522465,0.12065 1.002948,0.29281 1.441098,0.51611 h 4.061884 v 1.35397 c 0,0.21448 -0.06032,0.38417 -0.180975,0.50941 -0.12065,0.12523 -0.319617,0.21907 -0.596548,0.28151 l -1.125712,0.2279 c 0.151693,0.43815 0.227893,0.90734 0.227893,1.40758 0,0.68827 -0.140406,1.30704 -0.422275,1.85667 -0.281516,0.54963 -0.66816,1.01882 -1.159581,1.40758 -0.491419,0.38876 -1.072092,0.68827 -1.742369,0.89818 -0.670277,0.21025 -1.394177,0.31503 -2.1717,0.31503 -0.2413,0 -0.478015,-0.009 -0.710493,-0.0268 -0.232482,-0.0176 -0.460375,-0.0445 -0.683684,-0.0804 -0.366538,0.22366 -0.549629,0.47378 -0.549629,0.75071 0,0.25929 0.127354,0.44697 0.382058,0.56303 0.254707,0.11642 0.589846,0.19897 1.005417,0.248 0.415573,0.0494 0.889354,0.0804 1.42099,0.0938 0.531635,0.0134 1.072443,0.0427 1.622073,0.0871 0.549978,0.0448 1.090435,0.12277 1.622425,0.2346 0.531635,0.11183 1.005416,0.29492 1.420635,0.54963 0.415925,0.2547 0.75071,0.59231 1.005768,1.01212 0.254707,0.42016 0.382059,0.96097 0.382059,1.62207 0,0.61666 -0.1524,1.21532 -0.455787,1.79635 -0.303742,0.58067 -0.744009,1.09925 -1.320448,1.55504 -0.57644,0.45579 -1.285169,0.82232 -2.124782,1.09926 -0.83961,0.27692 -1.796343,0.41557 -2.868787,0.41557 -1.063625,0 -1.98614,-0.10055 -2.768248,-0.30163 -0.782108,-0.20108 -1.43016,-0.46919 -1.943807,-0.80433 -0.513995,-0.33514 -0.896053,-0.72179 -1.146175,-1.15958 -0.250118,-0.43815 -0.375353,-0.89394 -0.375353,-1.36737 0,-0.61665 0.187677,-1.13947 0.563033,-1.56845 0.375354,-0.42898 0.889352,-0.77294 1.541637,-1.03223 -0.348543,-0.19649 -0.625827,-0.45367 -0.831143,-0.77082 -0.205669,-0.31714 -0.308327,-0.7306 -0.308327,-1.24001 0,-0.41099 0.149577,-0.84208 0.449085,-1.29364 0.299156,-0.4512 0.757415,-0.82902 1.374068,-1.13277 -0.705908,-0.38417 -1.262591,-0.89147 -1.668991,-1.52153 -0.406752,-0.63006 -0.609952,-1.36525 -0.609952,-2.20521 0,-0.68827 0.140758,-1.30916 0.422275,-1.86337 0.281517,-0.55386 0.672393,-1.02553 1.172985,-1.41429 0.50024,-0.38876 1.090083,-0.6858 1.769533,-0.89147 0.67804,-0.20567 1.415347,-0.30833 2.210859,-0.30833" />
      <path
         inkscape:connector-curvature="0"
         id="path84414"
         style="fill:#f05133;fill-opacity:1;fill-rule:nonzero;stroke:none;stroke-width:0.35277775"
         d="m 59.072398,201.15272 h -3.699934 v -13.82113 h 3.699934 z m 0.442383,-17.7486 c 0,0.31291 -0.06279,0.60325 -0.187677,0.87136 -0.124883,0.26811 -0.292806,0.50482 -0.502708,0.71049 -0.210257,0.20567 -0.45579,0.36654 -0.737307,0.4826 -0.281516,0.11642 -0.583141,0.17427 -0.904875,0.17427 -0.303741,0 -0.59196,-0.0582 -0.864306,-0.17427 -0.272696,-0.11606 -0.511879,-0.27693 -0.717196,-0.4826 -0.205668,-0.20567 -0.368651,-0.44238 -0.489656,-0.71049 -0.12065,-0.26811 -0.180975,-0.55845 -0.180975,-0.87136 0,-0.31256 0.06032,-0.60537 0.180975,-0.87807 0.121005,-0.27234 0.283988,-0.51153 0.489656,-0.71719 0.205317,-0.20567 0.4445,-0.36654 0.717196,-0.4826 0.272346,-0.11607 0.560565,-0.17428 0.864306,-0.17428 0.321734,0 0.623711,0.0582 0.904875,0.17428 0.281517,0.11641 0.52705,0.27728 0.737307,0.4826 0.209902,0.20566 0.37747,0.44485 0.502708,0.71719 0.124883,0.2727 0.187677,0.56515 0.187677,0.87807" />
      <path
         inkscape:connector-curvature="0"
         id="path84418"
         style="fill:#f05133;fill-opacity:1;fill-rule:nonzero;stroke:none;stroke-width:0.35277775"
         d="m 67.008485,201.36756 c -0.625475,0 -1.180042,-0.0917 -1.662287,-0.27481 -0.4826,-0.1831 -0.889355,-0.4445 -1.219907,-0.78423 -0.330906,-0.33937 -0.581025,-0.75071 -0.751064,-1.23331 -0.169686,-0.4826 -0.254704,-1.02764 -0.254704,-1.63548 v -7.45349 h -1.30034 c -0.19685,0 -0.364419,-0.0624 -0.50306,-0.18767 -0.138642,-0.12489 -0.207788,-0.31257 -0.207788,-0.56304 v -1.4478 l 2.212271,-0.40216 0.75071,-3.57929 c 0.09807,-0.40216 0.370769,-0.60325 0.81774,-0.60325 h 1.9304 v 4.20935 h 3.565525 v 2.57386 h -3.565525 v 7.21219 c 0,0.38418 0.09172,0.68827 0.274812,0.91158 0.183092,0.22331 0.4445,0.33514 0.784225,0.33514 0.178859,0 0.330555,-0.0201 0.45579,-0.0603 0.124883,-0.0402 0.232127,-0.0847 0.321733,-0.13406 0.08925,-0.049 0.171802,-0.0938 0.248002,-0.13405 0.07585,-0.0402 0.154165,-0.0603 0.234598,-0.0603 0.107244,0 0.196498,0.0247 0.268111,0.0737 0.07126,0.049 0.142875,0.13194 0.214137,0.248 l 1.112661,1.76953 c -0.509059,0.40217 -1.08585,0.70591 -1.728965,0.91158 -0.643112,0.20532 -1.309158,0.30833 -1.997075,0.30833" />
      <path
         inkscape:connector-curvature="0"
         id="path84420"
         style="fill:#f05133;fill-opacity:1;fill-rule:nonzero;stroke:none;stroke-width:0.35277775"
         d="m 72.289571,191.51448 h 7.078133 v 3.02965 h -7.078133 z" />
      <path
         inkscape:connector-curvature="0"
         id="path84424"
         style="fill:#f05133;fill-opacity:1;fill-rule:nonzero;stroke:none;stroke-width:0.35277775"
         d="m 90.963508,190.17392 c -0.09843,0.15205 -0.198967,0.26141 -0.301625,0.32844 -0.102658,0.067 -0.243417,0.10054 -0.422275,0.10054 -0.178858,0 -0.361596,-0.0445 -0.549627,-0.13406 -0.187677,-0.0892 -0.397933,-0.18521 -0.63006,-0.28822 -0.232482,-0.10266 -0.498123,-0.19861 -0.797632,-0.28822 -0.29986,-0.0893 -0.645935,-0.13405 -1.038931,-0.13405 -0.598662,0 -1.063625,0.12276 -1.394177,0.36865 -0.330552,0.24589 -0.495652,0.56974 -0.495652,0.9719 0,0.27729 0.09384,0.50941 0.281517,0.69709 0.187325,0.18768 0.435327,0.35102 0.743654,0.48931 0.308329,0.13864 0.658989,0.26811 1.052337,0.38876 0.392994,0.12065 0.797629,0.25259 1.21285,0.39546 0.415925,0.14323 0.819854,0.30833 1.213202,0.49601 0.392994,0.18767 0.744009,0.42227 1.052336,0.70379 0.308329,0.28151 0.555979,0.62124 0.743656,1.01882 0.187677,0.39758 0.281517,0.87806 0.281517,1.4411 0,0.67027 -0.123119,1.2894 -0.368652,1.85667 -0.245888,0.56762 -0.605367,1.05692 -1.079148,1.4679 -0.473782,0.41134 -1.063977,0.73308 -1.769886,0.9652 -0.705908,0.23213 -1.519414,0.34855 -2.439812,0.34855 -0.473779,0 -0.942975,-0.0427 -1.407229,-0.12735 -0.464609,-0.085 -0.907346,-0.20567 -1.327505,-0.36195 -0.420158,-0.15629 -0.813152,-0.33726 -1.179687,-0.54293 -0.366538,-0.20567 -0.683683,-0.42898 -0.951796,-0.67028 l 0.858308,-1.38077 c 0.09807,-0.16087 0.221192,-0.2861 0.368655,-0.37535 0.14746,-0.0892 0.337254,-0.13406 0.569735,-0.13406 0.223308,0 0.428977,0.0561 0.616656,0.16757 0.187325,0.11183 0.397579,0.23248 0.629709,0.36195 0.232479,0.12982 0.507293,0.25047 0.824793,0.36195 0.316794,0.11183 0.712611,0.16757 1.18604,0.16757 0.357362,0 0.665692,-0.0402 0.924983,-0.12065 0.258938,-0.0804 0.469194,-0.1898 0.630061,-0.32844 0.160866,-0.13829 0.279048,-0.29492 0.355248,-0.46919 0.07585,-0.17427 0.113945,-0.35525 0.113945,-0.54293 0,-0.30374 -0.09595,-0.55174 -0.288218,-0.744 -0.192265,-0.19192 -0.442384,-0.35949 -0.750711,-0.50271 -0.308329,-0.14288 -0.663575,-0.27235 -1.065741,-0.38876 -0.402521,-0.11607 -0.811038,-0.24554 -1.226963,-0.38877 -0.415571,-0.14287 -0.822325,-0.31256 -1.219904,-0.50941 -0.397581,-0.19649 -0.750713,-0.4445 -1.05904,-0.744 -0.308327,-0.29951 -0.558448,-0.66817 -0.75071,-1.10596 -0.192265,-0.4378 -0.287867,-0.96979 -0.287867,-1.59526 0,-0.57186 0.111477,-1.11478 0.334786,-1.62878 0.22366,-0.514 0.558448,-0.96732 1.005768,-1.36066 0.446971,-0.393 1.002948,-0.70591 1.66864,-0.93839 0.665692,-0.23248 1.43651,-0.34855 2.31281,-0.34855 0.98284,0 1.876425,0.16087 2.681113,0.4826 0.804685,0.32174 1.465437,0.7419 1.984021,1.26013 z" />
      <path
         inkscape:connector-curvature="0"
         id="path84428"
         style="fill:#f05133;fill-opacity:1;fill-rule:nonzero;stroke:none;stroke-width:0.35277775"
         d="m 100.29307,189.71813 c -0.884765,0 -1.577625,0.25259 -2.077862,0.75742 -0.500592,0.50518 -0.82691,1.21779 -0.978606,2.13818 H 103.001 c 0,-0.38417 -0.0515,-0.75071 -0.15417,-1.09925 -0.10301,-0.34855 -0.26599,-0.65687 -0.4893,-0.92499 -0.22366,-0.26811 -0.50518,-0.48048 -0.8449,-0.63676 -0.33938,-0.15628 -0.74578,-0.2346 -1.21956,-0.2346 m -0.0667,-2.60067 c 0.88476,0 1.70004,0.14075 2.44651,0.42227 0.74613,0.28152 1.38959,0.69039 1.9304,1.22661 0.54081,0.53622 0.96097,1.19521 1.26013,1.97732 0.29915,0.78211 0.44908,1.67358 0.44908,2.67441 0,0.27693 -0.0134,0.50482 -0.0402,0.68368 -0.0268,0.17886 -0.0716,0.32173 -0.13405,0.42898 -0.0628,0.10724 -0.14746,0.18097 -0.25506,0.22119 -0.10724,0.0402 -0.24553,0.0603 -0.41557,0.0603 h -8.297693 c 0.116064,1.2961 0.484716,2.24331 1.105958,2.84198 0.62124,0.59866 1.43651,0.89817 2.446515,0.89817 0.50941,0 0.94933,-0.0603 1.32045,-0.18098 0.37077,-0.12065 0.69744,-0.2547 0.97861,-0.40216 0.28116,-0.14746 0.53622,-0.28152 0.76411,-0.40217 0.2279,-0.12065 0.45332,-0.18097 0.67698,-0.18097 0.28611,0 0.50906,0.10724 0.66993,0.32173 l 1.07244,1.34055 c -0.39299,0.45579 -0.82656,0.83327 -1.30033,1.13277 -0.47379,0.29951 -0.9652,0.53623 -1.47462,0.7105 -0.50941,0.17427 -1.02341,0.29492 -1.54163,0.36195 -0.51859,0.067 -1.01918,0.10054 -1.50143,0.10054 -0.965205,0 -1.865844,-0.15875 -2.701221,-0.4759 -0.835731,-0.31714 -1.564216,-0.78634 -2.185106,-1.40758 -0.621242,-0.62089 -1.110192,-1.39171 -1.467908,-2.31246 -0.357717,-0.9204 -0.536223,-1.98825 -0.536223,-3.20393 0,-0.93838 0.154164,-1.82315 0.462491,-2.6543 0.30833,-0.83114 0.75283,-1.55504 1.333855,-2.1717 0.58067,-0.61665 1.286933,-1.10595 2.118077,-1.4679 0.831498,-0.36195 1.76953,-0.54293 2.815525,-0.54293" />
      <path
         inkscape:connector-curvature="0"
         id="path84432"
         style="fill:#f05133;fill-opacity:1;fill-rule:nonzero;stroke:none;stroke-width:0.35277775"
         d="m 118.63187,190.41522 c -0.10724,0.14323 -0.21413,0.25259 -0.32173,0.32844 -0.10724,0.0759 -0.25894,0.11394 -0.45579,0.11394 -0.17886,0 -0.35066,-0.0515 -0.51611,-0.15416 -0.16545,-0.10266 -0.35525,-0.21449 -0.56974,-0.33514 -0.21414,-0.12065 -0.46919,-0.23248 -0.76411,-0.33514 -0.29493,-0.10266 -0.66146,-0.15416 -1.09891,-0.15416 -0.55421,0 -1.03469,0.10054 -1.44109,0.30162 -0.40676,0.20109 -0.74401,0.48931 -1.01213,0.86466 -0.26846,0.37536 -0.46707,0.83115 -0.59654,1.36737 -0.12947,0.53622 -0.19438,1.13947 -0.19438,1.80975 0,1.41217 0.28363,2.49343 0.85125,3.24414 0.56727,0.75071 1.34267,1.12607 2.32586,1.12607 0.33973,0 0.63218,-0.0289 0.87807,-0.0871 0.24553,-0.0582 0.46037,-0.13194 0.64347,-0.22119 0.18309,-0.0892 0.34184,-0.18768 0.47589,-0.29492 0.13406,-0.10725 0.26141,-0.20567 0.38206,-0.29493 0.12065,-0.0893 0.2413,-0.16298 0.36195,-0.22119 0.12065,-0.0582 0.25682,-0.0871 0.40852,-0.0871 0.2861,0 0.50941,0.10725 0.67028,0.32174 l 1.05903,1.34055 c -0.39334,0.45579 -0.8135,0.83326 -1.26012,1.13277 -0.44697,0.29951 -0.90946,0.53622 -1.38747,0.7105 -0.47802,0.17427 -0.96309,0.29492 -1.45451,0.36195 -0.49177,0.067 -0.9786,0.10054 -1.4612,0.10054 -0.84914,0 -1.65382,-0.15875 -2.41336,-0.4759 -0.75952,-0.31715 -1.42557,-0.77964 -1.99742,-1.38748 -0.57185,-0.60783 -1.02518,-1.35396 -1.36031,-2.23872 -0.33514,-0.88477 -0.50271,-1.89477 -0.50271,-3.02966 0,-1.00965 0.14746,-1.94804 0.44238,-2.81517 0.29492,-0.86677 0.72814,-1.61748 1.30034,-2.25213 0.57221,-0.63465 1.28023,-1.13277 2.12478,-1.49472 0.84455,-0.36195 1.82069,-0.54292 2.92912,-0.54292 1.05445,0 1.97943,0.16968 2.77495,0.50941 0.79516,0.33972 1.51024,0.83114 2.14488,1.47461 z" />
      <path
         inkscape:connector-curvature="0"
         id="path84436"
         style="fill:#f05133;fill-opacity:1;fill-rule:nonzero;stroke:none;stroke-width:0.35277775"
         d="m 121.58074,201.15307 v -13.82148 h 2.18511 c 0.375,0 0.63429,0.067 0.77752,0.20108 0.14252,0.13406 0.24553,0.36654 0.30798,0.69709 l 0.18767,1.38077 c 0.4378,-0.78634 0.94545,-1.40758 1.52153,-1.86337 0.57609,-0.45579 1.24884,-0.68368 2.01754,-0.68368 0.62547,0 1.13489,0.14746 1.52823,0.44238 l -0.2413,2.73474 c -0.0452,0.17885 -0.11394,0.30162 -0.20814,0.36865 -0.0938,0.067 -0.22119,0.10054 -0.38205,0.10054 -0.14288,0 -0.3482,-0.0201 -0.61631,-0.0603 -0.26846,-0.0402 -0.51858,-0.0603 -0.75106,-0.0603 -0.6791,0 -1.21744,0.18556 -1.61502,0.55633 -0.39793,0.37112 -0.73554,0.88724 -1.01212,1.54834 v 8.45891 h -3.69958 z" />
      <path
         inkscape:connector-curvature="0"
         id="path84440"
         style="fill:#f05133;fill-opacity:1;fill-rule:nonzero;stroke:none;stroke-width:0.35277775"
         d="m 137.42646,189.71813 c -0.88477,0 -1.57762,0.25259 -2.07786,0.75742 -0.50059,0.50518 -0.82691,1.21779 -0.97861,2.13818 h 5.76439 c 0,-0.38417 -0.0515,-0.75071 -0.15416,-1.09925 -0.10301,-0.34855 -0.26599,-0.65687 -0.4893,-0.92499 -0.22366,-0.26811 -0.50518,-0.48048 -0.84491,-0.63676 -0.33937,-0.15628 -0.74577,-0.2346 -1.21955,-0.2346 m -0.0667,-2.60067 c 0.88476,0 1.70003,0.14075 2.44651,0.42227 0.74613,0.28152 1.38959,0.69039 1.9304,1.22661 0.54081,0.53622 0.96097,1.19521 1.26012,1.97732 0.29916,0.78211 0.44909,1.67358 0.44909,2.67441 0,0.27693 -0.0134,0.50482 -0.0402,0.68368 -0.0268,0.17886 -0.0716,0.32173 -0.13405,0.42898 -0.0628,0.10724 -0.14746,0.18097 -0.25506,0.22119 -0.10725,0.0402 -0.24554,0.0603 -0.41557,0.0603 h -8.29769 c 0.11606,1.2961 0.48472,2.24331 1.10596,2.84198 0.62124,0.59866 1.43651,0.89817 2.44651,0.89817 0.50941,0 0.94933,-0.0603 1.32045,-0.18098 0.37077,-0.12065 0.69744,-0.2547 0.9786,-0.40216 0.28117,-0.14746 0.53623,-0.28152 0.76412,-0.40217 0.2279,-0.12065 0.45332,-0.18097 0.67698,-0.18097 0.2861,0 0.50906,0.10724 0.66993,0.32173 l 1.07244,1.34055 c -0.39299,0.45579 -0.82656,0.83327 -1.30034,1.13277 -0.47378,0.29951 -0.9652,0.53623 -1.47461,0.7105 -0.50941,0.17427 -1.02341,0.29492 -1.54164,0.36195 -0.51858,0.067 -1.01917,0.10054 -1.50142,0.10054 -0.9652,0 -1.86584,-0.15875 -2.70122,-0.4759 -0.83573,-0.31714 -1.56422,-0.78634 -2.1851,-1.40758 -0.62125,-0.62089 -1.1102,-1.39171 -1.46791,-2.31246 -0.35772,-0.9204 -0.53623,-1.98825 -0.53623,-3.20393 0,-0.93838 0.15417,-1.82315 0.4625,-2.6543 0.30832,-0.83114 0.75282,-1.55504 1.33385,-2.1717 0.58067,-0.61665 1.28693,-1.10595 2.11808,-1.4679 0.83149,-0.36195 1.76953,-0.54293 2.81552,-0.54293" />
      <path
         inkscape:connector-curvature="0"
         id="path84444"
         style="fill:#f05133;fill-opacity:1;fill-rule:nonzero;stroke:none;stroke-width:0.35277775"
         d="m 150.34942,201.36756 c -0.62548,0 -1.18004,-0.0917 -1.66229,-0.27481 -0.4826,-0.1831 -0.88935,-0.4445 -1.21991,-0.78423 -0.3309,-0.33937 -0.58102,-0.75071 -0.75106,-1.23331 -0.16969,-0.4826 -0.25471,-1.02764 -0.25471,-1.63548 v -7.45349 h -1.30034 c -0.19685,0 -0.36441,-0.0624 -0.50306,-0.18767 -0.13864,-0.12489 -0.20778,-0.31257 -0.20778,-0.56304 v -1.4478 l 2.21227,-0.40216 0.75071,-3.57929 c 0.0981,-0.40216 0.37077,-0.60325 0.81774,-0.60325 h 1.9304 v 4.20935 h 3.56552 v 2.57386 h -3.56552 v 7.21219 c 0,0.38418 0.0917,0.68827 0.27481,0.91158 0.18309,0.22331 0.4445,0.33514 0.78423,0.33514 0.17885,0 0.33055,-0.0201 0.45578,-0.0603 0.12489,-0.0402 0.23213,-0.0847 0.32174,-0.13406 0.0893,-0.049 0.1718,-0.0938 0.248,-0.13405 0.0759,-0.0402 0.15416,-0.0603 0.2346,-0.0603 0.10724,0 0.1965,0.0247 0.26811,0.0737 0.0713,0.049 0.14287,0.13194 0.21414,0.248 l 1.11266,1.76953 c -0.50906,0.40217 -1.08585,0.70591 -1.72897,0.91158 -0.64311,0.20532 -1.30916,0.30833 -1.99707,0.30833" />
    </g>
  </g>
</svg>
