<?xml version="1.0" encoding="UTF-8" standalone="no"?>
<!-- Created with Inkscape (http://www.inkscape.org/) -->

<svg
   xmlns:dc="http://purl.org/dc/elements/1.1/"
   xmlns:cc="http://creativecommons.org/ns#"
   xmlns:rdf="http://www.w3.org/1999/02/22-rdf-syntax-ns#"
   xmlns:svg="http://www.w3.org/2000/svg"
   xmlns="http://www.w3.org/2000/svg"
   xmlns:sodipodi="http://sodipodi.sourceforge.net/DTD/sodipodi-0.dtd"
   xmlns:inkscape="http://www.inkscape.org/namespaces/inkscape"
   width="113.99767mm"
   height="80.163315mm"
   viewBox="0 0 113.99766 80.163314"
   version="1.1"
   id="svg85111"
   inkscape:version="0.92.1 r"
   sodipodi:docname="vertical_color.svg"
   inkscape:export-filename="/home/anxhelo/Documents/ura works folder/git-secret/horizontal_white.png"
   inkscape:export-xdpi="141.06"
   inkscape:export-ydpi="141.06">
  <defs
     id="defs85105" />
  <sodipodi:namedview
     id="base"
     pagecolor="#ffffff"
     bordercolor="#666666"
     borderopacity="1.0"
     inkscape:pageopacity="0.0"
     inkscape:pageshadow="2"
     inkscape:zoom="0.35"
     inkscape:cx="-186.52463"
     inkscape:cy="174.8542"
     inkscape:document-units="mm"
     inkscape:current-layer="layer1"
     showgrid="false"
     fit-margin-top="0"
     fit-margin-left="0"
     fit-margin-right="0"
     fit-margin-bottom="0"
     inkscape:window-width="1366"
     inkscape:window-height="740"
     inkscape:window-x="0"
     inkscape:window-y="0"
     inkscape:window-maximized="1" />
  <metadata
     id="metadata85108">
    <rdf:RDF>
      <cc:Work
         rdf:about="">
        <dc:format>image/svg+xml</dc:format>
        <dc:type
           rdf:resource="http://purl.org/dc/dcmitype/StillImage" />
        <dc:title></dc:title>
      </cc:Work>
    </rdf:RDF>
  </metadata>
  <g
     inkscape:label="Layer 1"
     inkscape:groupmode="layer"
     id="layer1"
     transform="translate(-21.003093,-114.93353)">
    <g
       id="g85827">
      <path
         inkscape:connector-curvature="0"
         id="path84448"
         style="fill:#f05133;fill-opacity:1;fill-rule:nonzero;stroke:none;stroke-width:0.35277775"
         d="m 89.112664,145.53392 c -1.315863,1.31586 -3.446991,1.31586 -4.763206,0 -0.98919,-0.9899 -1.233665,-2.44299 -0.732719,-3.66184 l -4.542366,-4.54307 -7.94e-4,11.95423 c 0.321381,0.15839 0.623358,0.37077 0.890765,0.63676 1.315153,1.3148 1.315153,3.44593 0,4.76285 -1.315863,1.31481 -3.447347,1.31481 -4.761797,0 -1.315508,-1.31727 -1.315508,-3.44805 0,-4.76285 0.324909,-0.32456 0.700972,-0.57044 1.102784,-0.73483 v -12.06465 c -0.401812,-0.16404 -0.776817,-0.40817 -1.102784,-0.73484 -0.996243,-0.99589 -1.236133,-2.45815 -0.72531,-3.68123 l -4.981839,-4.98334 -9.167284,9.16728 -3.715102,-3.7151 c -3.065991,-3.06599 -3.065991,-8.05498 0,-11.12062 3.066344,-3.06599 8.055327,-3.06599 11.120964,0 l 8.77288,8.76547 c 1.175102,-0.39687 2.52095,-0.13052 3.457575,0.80575 0.94121,0.94191 1.205087,2.30011 0.798335,3.47874 l 4.870802,4.87045 c 1.17828,-0.4057 2.537883,-0.14358 3.479096,0.79904 1.315861,1.3148 1.315861,3.44593 0,4.7618 m 9.513004,-4.56883 -19.186525,-19.18547 c -1.104193,-1.1049 -2.896304,-1.1049 -4.00191,0 l -0.578557,0.57856 -3.715453,-3.71546 c -4.946298,-4.94594 -12.993511,-4.94524 -17.939809,0 -4.945943,4.94595 -4.945943,12.99422 0,17.94016 l 3.714398,3.7144 -0.578556,0.57856 c -1.105606,1.10595 -1.105606,2.89807 0,4.00332 l 19.186525,19.18547 c 1.104545,1.1049 2.895952,1.1049 4.002262,0 l 19.097625,-19.09622 c 1.1049,-1.1056 1.1049,-2.89842 0,-4.00332" />
      <path
         inkscape:connector-curvature="0"
         id="path84452"
         style="fill:#f05133;fill-opacity:1;fill-rule:nonzero;stroke:none;stroke-width:0.35277775"
         d="m 27.088157,182.85749 c 0.759531,0 1.320447,-0.19227 1.68275,-0.57644 0.361597,-0.38418 0.542925,-0.88019 0.542925,-1.48802 0,-0.63465 -0.181328,-1.13277 -0.542925,-1.49472 -0.36195,-0.36195 -0.922867,-0.54292 -1.68275,-0.54292 -0.759883,0 -1.31833,0.18097 -1.675694,0.54292 -0.357364,0.36195 -0.536223,0.86007 -0.536223,1.49472 0,0.59866 0.180975,1.09255 0.542925,1.48131 0.36195,0.38876 0.918281,0.58315 1.668992,0.58315 m 3.49885,7.98971 c 0,-0.2413 -0.07585,-0.43815 -0.227895,-0.58985 -0.1524,-0.15169 -0.355247,-0.27234 -0.609952,-0.36195 -0.254706,-0.0893 -0.556331,-0.15416 -0.904522,-0.19438 -0.348545,-0.0402 -0.719667,-0.0716 -1.112662,-0.0938 -0.393347,-0.0222 -0.802216,-0.0423 -1.226608,-0.0603 -0.424744,-0.018 -0.837847,-0.049 -1.240014,-0.0938 -0.312914,0.18768 -0.567619,0.40887 -0.764116,0.66357 -0.19685,0.25471 -0.294923,0.54293 -0.294923,0.86466 0,0.22331 0.05151,0.42898 0.154164,0.61666 0.102659,0.18768 0.274814,0.34854 0.516114,0.4826 0.2413,0.13405 0.558447,0.23918 0.951795,0.31503 0.392994,0.0759 0.884766,0.11395 1.474611,0.11395 0.607483,0 1.12148,-0.0402 1.541639,-0.12065 0.419805,-0.0804 0.759177,-0.19439 1.018822,-0.34185 0.258939,-0.14746 0.4445,-0.32385 0.55633,-0.52952 0.111478,-0.20567 0.167217,-0.42933 0.167217,-0.67027 m -3.49885,-14.62546 c 0.589844,0 1.146175,0.0603 1.668992,0.18097 0.522464,0.12065 1.002947,0.2928 1.441097,0.51611 h 4.061883 v 1.35397 c 0,0.21448 -0.06032,0.38417 -0.180975,0.50941 -0.12065,0.12523 -0.319616,0.21907 -0.596547,0.28151 l -1.125714,0.2279 c 0.151695,0.43815 0.227895,0.90734 0.227895,1.40758 0,0.68827 -0.140406,1.30704 -0.422276,1.85667 -0.281516,0.54963 -0.668161,1.01882 -1.15958,1.40758 -0.49142,0.38876 -1.072092,0.68827 -1.742369,0.89817 -0.670278,0.21026 -1.394178,0.31504 -2.1717,0.31504 -0.2413,0 -0.478014,-0.009 -0.710495,-0.0268 -0.23248,-0.0177 -0.460375,-0.0445 -0.683683,-0.0804 -0.366536,0.22366 -0.549628,0.47378 -0.549628,0.75071 0,0.25929 0.127353,0.44697 0.382058,0.56304 0.254706,0.11641 0.589845,0.19896 1.005417,0.248 0.415572,0.0494 0.889353,0.0804 1.420989,0.0938 0.531636,0.0134 1.072444,0.0427 1.622072,0.0871 0.549981,0.0448 1.090436,0.12277 1.622425,0.2346 0.531636,0.11183 1.005417,0.29492 1.420636,0.54963 0.415925,0.2547 0.750711,0.59231 1.00577,1.01212 0.254705,0.42016 0.382058,0.96097 0.382058,1.62207 0,0.61666 -0.1524,1.21532 -0.455789,1.79635 -0.303741,0.58067 -0.744008,1.09925 -1.320447,1.55504 -0.576439,0.45579 -1.28517,0.82232 -2.124781,1.09926 -0.839611,0.27692 -1.796344,0.41557 -2.868789,0.41557 -1.063624,0 -1.986138,-0.10055 -2.768247,-0.30163 -0.782108,-0.20108 -1.430161,-0.46919 -1.943805,-0.80433 -0.513997,-0.33514 -0.896056,-0.72179 -1.146175,-1.15958 -0.25012,-0.43815 -0.375356,-0.89394 -0.375356,-1.36737 0,-0.61665 0.187678,-1.13947 0.563034,-1.56845 0.375355,-0.42898 0.889352,-0.77294 1.541638,-1.03223 -0.348544,-0.19649 -0.625827,-0.45367 -0.831144,-0.77082 -0.205669,-0.31714 -0.308328,-0.7306 -0.308328,-1.24001 0,-0.41099 0.149578,-0.84208 0.449086,-1.29364 0.299156,-0.4512 0.757414,-0.82902 1.37407,-1.13276 -0.705909,-0.38418 -1.262592,-0.89148 -1.668992,-1.52154 -0.406753,-0.63006 -0.609953,-1.36525 -0.609953,-2.20521 0,-0.68827 0.140759,-1.30916 0.422275,-1.86337 0.281517,-0.55386 0.672395,-1.02553 1.172986,-1.41429 0.500239,-0.38876 1.090084,-0.6858 1.769534,-0.89147 0.678039,-0.20567 1.415344,-0.30832 2.210858,-0.30832" />
      <path
         inkscape:connector-curvature="0"
         id="path84454"
         style="fill:#f05133;fill-opacity:1;fill-rule:nonzero;stroke:none;stroke-width:0.35277775"
         d="m 39.997707,190.28378 h -3.699933 v -13.82113 h 3.699933 z m 0.442383,-17.74861 c 0,0.31292 -0.06279,0.60325 -0.187677,0.87136 -0.124884,0.26811 -0.292806,0.50483 -0.502709,0.7105 -0.210255,0.20567 -0.455789,0.36653 -0.737305,0.4826 -0.281517,0.11641 -0.583142,0.17427 -0.904875,0.17427 -0.303742,0 -0.591961,-0.0582 -0.864306,-0.17427 -0.272697,-0.11607 -0.51188,-0.27693 -0.717197,-0.4826 -0.205669,-0.20567 -0.368653,-0.44239 -0.489655,-0.7105 -0.12065,-0.26811 -0.180975,-0.55844 -0.180975,-0.87136 0,-0.31256 0.06033,-0.60537 0.180975,-0.87806 0.121002,-0.27235 0.283986,-0.51153 0.489655,-0.7172 0.205317,-0.20567 0.4445,-0.36653 0.717197,-0.4826 0.272345,-0.11606 0.560564,-0.17427 0.864306,-0.17427 0.321733,0 0.623711,0.0582 0.904875,0.17427 0.281516,0.11642 0.52705,0.27728 0.737305,0.4826 0.209903,0.20567 0.377473,0.44485 0.502709,0.7172 0.124883,0.27269 0.187677,0.56515 0.187677,0.87806" />
      <path
         inkscape:connector-curvature="0"
         id="path84458"
         style="fill:#f05133;fill-opacity:1;fill-rule:nonzero;stroke:none;stroke-width:0.35277775"
         d="m 47.933798,190.49865 c -0.625476,0 -1.180043,-0.0917 -1.66229,-0.27481 -0.4826,-0.18309 -0.889353,-0.4445 -1.219905,-0.78423 -0.330906,-0.33937 -0.581025,-0.75071 -0.751064,-1.23331 -0.169686,-0.4826 -0.254706,-1.02764 -0.254706,-1.63548 v -7.45348 h -1.300339 c -0.19685,0 -0.364419,-0.0625 -0.503061,-0.18768 -0.138641,-0.12489 -0.207786,-0.31256 -0.207786,-0.56304 v -1.4478 l 2.21227,-0.40216 0.750711,-3.57929 c 0.09807,-0.40216 0.370769,-0.60325 0.817739,-0.60325 h 1.9304 v 4.20935 h 3.565525 v 2.57387 h -3.565525 v 7.21218 c 0,0.38418 0.09172,0.68827 0.274814,0.91158 0.183092,0.22331 0.4445,0.33514 0.784225,0.33514 0.178859,0 0.330552,-0.0201 0.455787,-0.0603 0.124884,-0.0402 0.23213,-0.0847 0.321734,-0.13405 0.08925,-0.049 0.171804,-0.0938 0.248004,-0.13406 0.07585,-0.0402 0.154162,-0.0603 0.234596,-0.0603 0.107246,0 0.196498,0.0247 0.268113,0.0737 0.07126,0.049 0.142875,0.13194 0.214135,0.248 l 1.11266,1.76954 c -0.509058,0.40216 -1.08585,0.7059 -1.728962,0.91157 -0.643115,0.20532 -1.309158,0.30833 -1.997075,0.30833" />
      <path
         inkscape:connector-curvature="0"
         id="path84460"
         style="fill:#f05133;fill-opacity:1;fill-rule:nonzero;stroke:none;stroke-width:0.35277775"
         d="m 53.214879,180.64553 h 7.078133 v 3.02966 h -7.078133 z" />
      <path
         inkscape:connector-curvature="0"
         id="path84464"
         style="fill:#f05133;fill-opacity:1;fill-rule:nonzero;stroke:none;stroke-width:0.35277775"
         d="m 71.888818,179.30501 c -0.09842,0.15205 -0.198966,0.26141 -0.301625,0.32844 -0.102658,0.067 -0.243416,0.10054 -0.422275,0.10054 -0.178858,0 -0.361598,-0.0444 -0.549629,-0.13405 -0.187677,-0.0893 -0.397933,-0.18521 -0.63006,-0.28822 -0.232482,-0.10266 -0.498123,-0.19862 -0.797632,-0.28822 -0.29986,-0.0893 -0.645935,-0.13406 -1.038929,-0.13406 -0.598664,0 -1.063625,0.12277 -1.394179,0.36865 -0.330552,0.24589 -0.495652,0.56974 -0.495652,0.97191 0,0.27728 0.09384,0.50941 0.281517,0.69709 0.187325,0.18767 0.435327,0.35101 0.743656,0.4893 0.308327,0.13864 0.658987,0.26811 1.052335,0.38876 0.392994,0.12065 0.797632,0.25259 1.21285,0.39546 0.415925,0.14323 0.819857,0.30833 1.213202,0.49601 0.392996,0.18768 0.744009,0.42227 1.052338,0.70379 0.308327,0.28152 0.555977,0.62124 0.743654,1.01882 0.187679,0.39758 0.281517,0.87807 0.281517,1.4411 0,0.67028 -0.123119,1.2894 -0.368652,1.85667 -0.245886,0.56762 -0.605367,1.05692 -1.079148,1.46791 -0.473779,0.41134 -1.063977,0.73307 -1.769886,0.9652 -0.705908,0.23213 -1.519414,0.34854 -2.43981,0.34854 -0.473781,0 -0.942975,-0.0427 -1.407231,-0.12735 -0.464609,-0.085 -0.907344,-0.20567 -1.327502,-0.36195 -0.420158,-0.15628 -0.813155,-0.33726 -1.17969,-0.54293 -0.366535,-0.20566 -0.683683,-0.42897 -0.951794,-0.67027 l 0.858309,-1.38078 c 0.09807,-0.16086 0.221191,-0.2861 0.368652,-0.37535 0.14746,-0.0892 0.337256,-0.13406 0.569735,-0.13406 0.223308,0 0.428979,0.0561 0.616656,0.16757 0.187325,0.11183 0.397582,0.23248 0.629709,0.36195 0.232481,0.12983 0.507293,0.25048 0.824793,0.36195 0.316797,0.11183 0.712613,0.16757 1.18604,0.16757 0.357365,0 0.665692,-0.0402 0.924983,-0.12065 0.25894,-0.0804 0.469194,-0.18979 0.630061,-0.32843 0.160866,-0.13829 0.279048,-0.29493 0.355248,-0.4692 0.07585,-0.17427 0.113948,-0.35525 0.113948,-0.54292 0,-0.30374 -0.09596,-0.55175 -0.288221,-0.74401 -0.192263,-0.19191 -0.442384,-0.35948 -0.750711,-0.50271 -0.308327,-0.14287 -0.663575,-0.27234 -1.065741,-0.38876 -0.402519,-0.11606 -0.811035,-0.24553 -1.22696,-0.38876 -0.415574,-0.14288 -0.822325,-0.31256 -1.219907,-0.50941 -0.397581,-0.1965 -0.75071,-0.4445 -1.05904,-0.74401 -0.308327,-0.29951 -0.558445,-0.66816 -0.75071,-1.10596 -0.192265,-0.4378 -0.287867,-0.96979 -0.287867,-1.59526 0,-0.57185 0.111477,-1.11478 0.334786,-1.62878 0.223663,-0.51399 0.558448,-0.96731 1.005771,-1.36066 0.446968,-0.39299 1.002945,-0.70591 1.668637,-0.93839 0.665692,-0.23248 1.436513,-0.34854 2.312813,-0.34854 0.982837,0 1.876425,0.16086 2.68111,0.4826 0.804685,0.32173 1.46544,0.74189 1.984023,1.26012 z" />
      <path
         inkscape:connector-curvature="0"
         id="path84468"
         style="fill:#f05133;fill-opacity:1;fill-rule:nonzero;stroke:none;stroke-width:0.35277775"
         d="m 81.218379,178.84922 c -0.884767,0 -1.577623,0.25259 -2.077863,0.75742 -0.500592,0.50518 -0.82691,1.21779 -0.978604,2.13818 h 5.764387 c 0,-0.38417 -0.0515,-0.75071 -0.154162,-1.09925 -0.103013,-0.34855 -0.265996,-0.65687 -0.489304,-0.92498 -0.223661,-0.26812 -0.505177,-0.48049 -0.844902,-0.63677 -0.339373,-0.15628 -0.745773,-0.2346 -1.219552,-0.2346 m -0.06667,-2.60067 c 0.884766,0 1.700035,0.14075 2.446512,0.42227 0.746125,0.28152 1.389592,0.69039 1.9304,1.22661 0.540808,0.53622 0.960967,1.19521 1.260123,1.97732 0.299156,0.78211 0.449085,1.67358 0.449085,2.67441 0,0.27693 -0.01341,0.50482 -0.04022,0.68368 -0.02681,0.17886 -0.07161,0.32173 -0.134054,0.42898 -0.0628,0.10724 -0.147463,0.18097 -0.255059,0.22119 -0.107246,0.0402 -0.245533,0.0603 -0.415573,0.0603 h -8.297685 c 0.116062,1.2961 0.484717,2.24331 1.105958,2.84197 0.621242,0.59867 1.436511,0.89818 2.446513,0.89818 0.509412,0 0.949325,-0.0603 1.320448,-0.18098 0.370768,-0.12065 0.697441,-0.25471 0.978606,-0.40217 0.281162,-0.14746 0.536221,-0.28151 0.764117,-0.40216 0.227893,-0.12065 0.453318,-0.18098 0.676979,-0.18098 0.286104,0 0.509058,0.10725 0.669925,0.32174 l 1.072446,1.34055 c -0.392996,0.45579 -0.826559,0.83326 -1.30034,1.13277 -0.473781,0.29951 -0.9652,0.53622 -1.47461,0.71049 -0.509413,0.17428 -1.023409,0.29493 -1.54164,0.36195 -0.518583,0.067 -1.019175,0.10055 -1.501423,0.10055 -0.9652,0 -1.865842,-0.15875 -2.701219,-0.4759 -0.835731,-0.31715 -1.564216,-0.78634 -2.185106,-1.40758 -0.621242,-0.62089 -1.110192,-1.39171 -1.467908,-2.31246 -0.357717,-0.9204 -0.536221,-1.98826 -0.536221,-3.20393 0,-0.93839 0.154162,-1.82316 0.462492,-2.6543 0.308327,-0.83114 0.752827,-1.55504 1.333852,-2.1717 0.580673,-0.61666 1.286933,-1.10596 2.118077,-1.46791 0.831498,-0.36195 1.769533,-0.54292 2.815521,-0.54292" />
      <path
         inkscape:connector-curvature="0"
         id="path84472"
         style="fill:#f05133;fill-opacity:1;fill-rule:nonzero;stroke:none;stroke-width:0.35277775"
         d="m 99.557179,179.54631 c -0.107246,0.14323 -0.214138,0.25259 -0.321734,0.32844 -0.107246,0.0759 -0.258939,0.11395 -0.455789,0.11395 -0.178859,0 -0.350661,-0.0515 -0.516115,-0.15417 -0.165452,-0.10266 -0.355246,-0.21449 -0.569735,-0.33514 -0.214136,-0.12065 -0.469194,-0.23248 -0.764117,-0.33513 -0.294923,-0.10266 -0.661458,-0.15417 -1.098902,-0.15417 -0.554215,0 -1.034698,0.10054 -1.441098,0.30163 -0.406752,0.20108 -0.744008,0.4893 -1.012119,0.86465 -0.268464,0.37536 -0.467079,0.83115 -0.596548,1.36737 -0.129468,0.53622 -0.194381,1.13947 -0.194381,1.80975 0,1.41217 0.283633,2.49343 0.851254,3.24415 0.567267,0.75071 1.342671,1.12606 2.325863,1.12606 0.339725,0 0.632179,-0.0289 0.878064,-0.0871 0.245534,-0.0582 0.460375,-0.13194 0.643467,-0.2212 0.183092,-0.0893 0.341842,-0.18767 0.475898,-0.29492 0.134054,-0.10724 0.261408,-0.20567 0.382058,-0.29492 0.12065,-0.0892 0.2413,-0.16298 0.36195,-0.22119 0.12065,-0.0582 0.256821,-0.0871 0.408517,-0.0871 0.286102,0 0.50941,0.10725 0.670277,0.32174 l 1.059041,1.34055 c -0.39335,0.45579 -0.813508,0.83326 -1.260124,1.13277 -0.446969,0.29951 -0.909461,0.53622 -1.387475,0.7105 -0.478015,0.17427 -0.963084,0.29492 -1.454502,0.36195 -0.491773,0.067 -0.978607,0.10054 -1.461207,0.10054 -0.849135,0 -1.653823,-0.15875 -2.413352,-0.4759 -0.759531,-0.31715 -1.425575,-0.77964 -1.997429,-1.38748 -0.571852,-0.60783 -1.025171,-1.35396 -1.36031,-2.23872 -0.33514,-0.88477 -0.502709,-1.89477 -0.502709,-3.02966 0,-1.00965 0.147461,-1.94804 0.442384,-2.81517 0.294923,-0.86677 0.728133,-1.61748 1.300339,-2.25213 0.572204,-0.63465 1.280229,-1.13277 2.124779,-1.49472 0.84455,-0.36195 1.820688,-0.54292 2.929115,-0.54292 1.054452,0 1.979435,0.16968 2.77495,0.50941 0.79516,0.33972 1.510242,0.83114 2.144891,1.47461 z" />
      <path
         inkscape:connector-curvature="0"
         id="path84476"
         style="fill:#f05133;fill-opacity:1;fill-rule:nonzero;stroke:none;stroke-width:0.35277775"
         d="m 102.50605,190.28416 v -13.82148 h 2.1851 c 0.37501,0 0.6343,0.067 0.77752,0.20109 0.14253,0.13405 0.24554,0.36653 0.30798,0.69709 l 0.18768,1.38077 c 0.43779,-0.78634 0.94544,-1.40758 1.52153,-1.86337 0.57608,-0.45579 1.24883,-0.68369 2.01753,-0.68369 0.62548,0 1.13489,0.14746 1.52824,0.44239 l -0.2413,2.73473 c -0.0451,0.17886 -0.11395,0.30162 -0.20814,0.36865 -0.0938,0.067 -0.22119,0.10054 -0.38206,0.10054 -0.14287,0 -0.34819,-0.0201 -0.6163,-0.0603 -0.26847,-0.0402 -0.51859,-0.0603 -0.75107,-0.0603 -0.67909,0 -1.21743,0.18556 -1.61501,0.55633 -0.39794,0.37113 -0.73554,0.88724 -1.01212,1.54835 v 8.4589 h -3.69958 z" />
      <path
         inkscape:connector-curvature="0"
         id="path84480"
         style="fill:#f05133;fill-opacity:1;fill-rule:nonzero;stroke:none;stroke-width:0.35277775"
         d="m 118.35177,178.84922 c -0.88477,0 -1.57763,0.25259 -2.07786,0.75742 -0.5006,0.50518 -0.82692,1.21779 -0.97861,2.13818 h 5.76439 c 0,-0.38417 -0.0515,-0.75071 -0.15416,-1.09925 -0.10302,-0.34855 -0.266,-0.65687 -0.48931,-0.92498 -0.22366,-0.26812 -0.50518,-0.48049 -0.8449,-0.63677 -0.33937,-0.15628 -0.74577,-0.2346 -1.21955,-0.2346 m -0.0667,-2.60067 c 0.88476,0 1.70003,0.14075 2.44651,0.42227 0.74613,0.28152 1.38959,0.69039 1.9304,1.22661 0.54081,0.53622 0.96096,1.19521 1.26012,1.97732 0.29916,0.78211 0.44909,1.67358 0.44909,2.67441 0,0.27693 -0.0134,0.50482 -0.0402,0.68368 -0.0268,0.17886 -0.0716,0.32173 -0.13405,0.42898 -0.0628,0.10724 -0.14747,0.18097 -0.25506,0.22119 -0.10725,0.0402 -0.24554,0.0603 -0.41558,0.0603 h -8.29768 c 0.11606,1.2961 0.48472,2.24331 1.10596,2.84197 0.62124,0.59867 1.43651,0.89818 2.44651,0.89818 0.50941,0 0.94933,-0.0603 1.32045,-0.18098 0.37077,-0.12065 0.69744,-0.25471 0.97861,-0.40217 0.28116,-0.14746 0.53622,-0.28151 0.76411,-0.40216 0.2279,-0.12065 0.45332,-0.18098 0.67698,-0.18098 0.2861,0 0.50906,0.10725 0.66992,0.32174 l 1.07245,1.34055 c -0.393,0.45579 -0.82656,0.83326 -1.30034,1.13277 -0.47378,0.29951 -0.9652,0.53622 -1.47461,0.71049 -0.50941,0.17428 -1.02341,0.29493 -1.54164,0.36195 -0.51858,0.067 -1.01917,0.10055 -1.50142,0.10055 -0.9652,0 -1.86584,-0.15875 -2.70122,-0.4759 -0.83573,-0.31715 -1.56422,-0.78634 -2.1851,-1.40758 -0.62125,-0.62089 -1.1102,-1.39171 -1.46791,-2.31246 -0.35772,-0.9204 -0.53622,-1.98826 -0.53622,-3.20393 0,-0.93839 0.15416,-1.82316 0.46249,-2.6543 0.30832,-0.83114 0.75282,-1.55504 1.33385,-2.1717 0.58067,-0.61666 1.28693,-1.10596 2.11808,-1.46791 0.83149,-0.36195 1.76953,-0.54292 2.81552,-0.54292" />
      <path
         inkscape:connector-curvature="0"
         id="path84484"
         style="fill:#f05133;fill-opacity:1;fill-rule:nonzero;stroke:none;stroke-width:0.35277775"
         d="m 131.27472,190.49865 c -0.62547,0 -1.18004,-0.0917 -1.66229,-0.27481 -0.4826,-0.18309 -0.88935,-0.4445 -1.2199,-0.78423 -0.33091,-0.33937 -0.58103,-0.75071 -0.75106,-1.23331 -0.16969,-0.4826 -0.25471,-1.02764 -0.25471,-1.63548 v -7.45348 h -1.30034 c -0.19685,0 -0.36442,-0.0625 -0.50306,-0.18768 -0.13864,-0.12489 -0.20779,-0.31256 -0.20779,-0.56304 v -1.4478 l 2.21227,-0.40216 0.75071,-3.57929 c 0.0981,-0.40216 0.37077,-0.60325 0.81774,-0.60325 h 1.9304 v 4.20935 h 3.56553 v 2.57387 h -3.56553 v 7.21218 c 0,0.38418 0.0917,0.68827 0.27482,0.91158 0.18309,0.22331 0.4445,0.33514 0.78422,0.33514 0.17886,0 0.33055,-0.0201 0.45579,-0.0603 0.12488,-0.0402 0.23213,-0.0847 0.32173,-0.13405 0.0893,-0.049 0.17181,-0.0938 0.24801,-0.13406 0.0758,-0.0402 0.15416,-0.0603 0.23459,-0.0603 0.10725,0 0.1965,0.0247 0.26812,0.0737 0.0713,0.049 0.14287,0.13194 0.21413,0.248 l 1.11266,1.76954 c -0.50906,0.40216 -1.08585,0.7059 -1.72896,0.91157 -0.64312,0.20532 -1.30916,0.30833 -1.99708,0.30833" />
    </g>
  </g>
</svg>
