<?xml version="1.0" encoding="UTF-8" standalone="no"?>
<!-- Created with Inkscape (http://www.inkscape.org/) -->

<svg
   xmlns:dc="http://purl.org/dc/elements/1.1/"
   xmlns:cc="http://creativecommons.org/ns#"
   xmlns:rdf="http://www.w3.org/1999/02/22-rdf-syntax-ns#"
   xmlns:svg="http://www.w3.org/2000/svg"
   xmlns="http://www.w3.org/2000/svg"
   xmlns:sodipodi="http://sodipodi.sourceforge.net/DTD/sodipodi-0.dtd"
   xmlns:inkscape="http://www.inkscape.org/namespaces/inkscape"
   width="210mm"
   height="297mm"
   viewBox="0 0 210 297"
   version="1.1"
   id="svg5558"
   inkscape:version="0.92.3 (2405546, 2018-03-11)"
   sodipodi:docname="Horizontal - Page 2.svg"
   inkscape:export-filename="/home/anxhelo/Desktop/FSFE Infographic/PNG/Horizontal - Page 2.png"
   inkscape:export-xdpi="192"
   inkscape:export-ydpi="192">
  <defs
     id="defs5552">
    <clipPath
       clipPathUnits="userSpaceOnUse"
       id="clipPath4262">
      <path
         d="M 0,0.015 H 595.276 V 841.889 H 0 Z"
         id="path4260"
         inkscape:connector-curvature="0" />
    </clipPath>
    <clipPath
       clipPathUnits="userSpaceOnUse"
       id="clipPath4172">
      <path
         d="M 0,0.015 H 595.276 V 841.889 H 0 Z"
         id="path4170"
         inkscape:connector-curvature="0" />
    </clipPath>
    <clipPath
       clipPathUnits="userSpaceOnUse"
       id="clipPath4090">
      <path
         d="M 0,0.015 H 595.276 V 841.889 H 0 Z"
         id="path4088"
         inkscape:connector-curvature="0" />
    </clipPath>
    <clipPath
       clipPathUnits="userSpaceOnUse"
       id="clipPath4050">
      <path
         d="M 0,0.015 H 595.276 V 841.889 H 0 Z"
         id="path4048"
         inkscape:connector-curvature="0" />
    </clipPath>
  </defs>
  <sodipodi:namedview
     id="base"
     pagecolor="#ffffff"
     bordercolor="#666666"
     borderopacity="1.0"
     inkscape:pageopacity="0.0"
     inkscape:pageshadow="2"
     inkscape:zoom="0.35"
     inkscape:cx="333.30212"
     inkscape:cy="334.30064"
     inkscape:document-units="mm"
     inkscape:current-layer="layer1"
     showgrid="false"
     inkscape:snap-page="true"
     inkscape:window-width="1366"
     inkscape:window-height="712"
     inkscape:window-x="0"
     inkscape:window-y="0"
     inkscape:window-maximized="1" />
  <metadata
     id="metadata5555">
    <rdf:RDF>
      <cc:Work
         rdf:about="">
        <dc:format>image/svg+xml</dc:format>
        <dc:type
           rdf:resource="http://purl.org/dc/dcmitype/StillImage" />
        <dc:title></dc:title>
      </cc:Work>
    </rdf:RDF>
  </metadata>
  <g
     inkscape:label="Background"
     inkscape:groupmode="layer"
     id="layer1">
    <path
       d="M 0,297.00008 H 209.99979 V 0 H 0 Z"
       style="fill:#2e3575;fill-opacity:1;fill-rule:nonzero;stroke:none;stroke-width:0.35277775"
       id="path4038"
       inkscape:connector-curvature="0" />
    <g
       id="g4040"
       transform="matrix(0.35277777,0,0,-0.35277777,0,1.058e-4)">
      <path
         d="M 0,0 V -841.89 Z"
         style="fill:#2e3575;fill-opacity:1;fill-rule:nonzero;stroke:none"
         id="path4042"
         inkscape:connector-curvature="0" />
    </g>
    <g
       transform="matrix(0.35277777,0,0,-0.35277777,0,297.00008)"
       id="g4044">
      <g
         id="g4046"
         clip-path="url(#clipPath4050)">
        <g
           id="g4052"
           transform="translate(685.3129,716.1097)">
          <path
             d="m 0,0 c 0,135.594 -109.921,245.514 -245.514,245.514 -135.593,0 -245.513,-109.92 -245.513,-245.514 0,-135.593 109.92,-245.514 245.513,-245.514 C -109.921,-245.514 0,-135.593 0,0"
             style="fill:#3594ce;fill-opacity:1;fill-rule:nonzero;stroke:none"
             id="path4054"
             inkscape:connector-curvature="0" />
        </g>
        <g
           id="g4056"
           transform="translate(312.6234,727.1766)">
          <path
             d="m 0,0 c 0,-71.768 58.18,-129.946 129.946,-129.946 71.768,0 129.947,58.178 129.947,129.946 0,71.767 -58.179,129.946 -129.947,129.946 C 58.18,129.946 0,71.767 0,0"
             style="fill:#ffffff;fill-opacity:1;fill-rule:nonzero;stroke:none"
             id="path4058"
             inkscape:connector-curvature="0" />
        </g>
        <g
           id="g4060"
           transform="translate(365.6459,586.3412)" />
        <g
           id="g4064"
           transform="translate(461.0677,590.5936)" />
      </g>
    </g>
    <g
       transform="matrix(0.35277777,0,0,-0.35277777,0,297.00008)"
       id="g4084">
      <g
         id="g4086"
         clip-path="url(#clipPath4090)">
        <g
           id="g4092"
           transform="translate(334.0873,38.3587)">
          <path
             d="m 0,0 c 0.001,0.329 0.134,0.628 0.349,0.844 0.214,0.216 0.51,0.35 0.838,0.35 L 5.328,0.013 9.475,1.21 C 9.802,1.211 10.098,1.078 10.312,0.862 10.525,0.646 10.657,0.35 10.657,0.02 l -1.19,-4.172 1.175,-4.168 c 0,-0.329 -0.134,-0.628 -0.349,-0.844 C 10.078,-9.38 9.782,-9.515 9.455,-9.515 L 5.313,-8.333 1.167,-9.53 C 0.84,-9.531 0.544,-9.397 0.33,-9.183 0.116,-8.967 -0.016,-8.67 -0.016,-8.34 l 1.191,4.172 z"
             style="fill:#5ac8e7;fill-opacity:1;fill-rule:nonzero;stroke:none"
             id="path4094"
             inkscape:connector-curvature="0" />
        </g>
        <g
           id="g4096"
           transform="translate(342.351,48.4925)">
          <path
             d="m 0,0 c 0.152,0.394 0.448,0.689 0.805,0.85 0.356,0.16 0.772,0.183 1.164,0.034 l 4.411,-3.316 5.51,-0.471 c 0.391,-0.15 0.684,-0.445 0.841,-0.801 0.158,-0.356 0.178,-0.773 0.027,-1.166 L 9.419,-9.314 8.909,-14.84 c -0.151,-0.393 -0.448,-0.689 -0.804,-0.849 -0.356,-0.16 -0.772,-0.184 -1.164,-0.035 l -4.412,3.316 -5.508,0.471 c -0.392,0.15 -0.685,0.445 -0.842,0.801 -0.158,0.356 -0.178,0.773 -0.027,1.166 l 3.339,4.445 z"
             style="fill:#cddb2c;fill-opacity:1;fill-rule:nonzero;stroke:none"
             id="path4098"
             inkscape:connector-curvature="0" />
        </g>
        <g
           id="g4100"
           transform="translate(342.6332,26.2201)">
          <path
             d="M 0,0 C -0.068,0.18 -0.058,0.37 0.014,0.532 0.085,0.694 0.219,0.829 0.396,0.898 L 2.898,1.12 4.905,2.639 C 5.083,2.707 5.272,2.696 5.434,2.624 5.595,2.552 5.729,2.417 5.798,2.237 L 6.021,-0.282 7.532,-2.306 C 7.601,-2.485 7.591,-2.675 7.519,-2.838 7.447,-3.001 7.313,-3.136 7.136,-3.204 L 4.635,-3.426 2.627,-4.944 C 2.449,-5.013 2.261,-5.002 2.099,-4.93 1.937,-4.857 1.804,-4.723 1.735,-4.544 l -0.224,2.521 z"
             style="fill:#3494ce;fill-opacity:1;fill-rule:nonzero;stroke:none"
             id="path4102"
             inkscape:connector-curvature="0" />
        </g>
        <g
           id="g4104"
           transform="translate(338.5707,38.6127)">
          <path
             d="M 0,0 0.845,-0.241 4.991,0.956 C 5.318,0.957 5.614,0.824 5.828,0.608 6.042,0.393 6.174,0.096 6.174,-0.234 L 5.538,-2.462 0.801,-2.056 c -0.392,0.15 -0.685,0.445 -0.842,0.8 -0.157,0.356 -0.178,0.773 -0.026,1.166 z"
             style="fill:#6bb346;fill-opacity:1;fill-rule:nonzero;stroke:none"
             id="path4106"
             inkscape:connector-curvature="0" />
        </g>
        <g
           id="g4108"
           transform="translate(358.267,33.472)">
          <path
             d="m 0,0 -0.012,-2.422 h 3.137 c 0.546,0 0.988,-0.442 0.988,-0.987 0,-0.546 -0.442,-0.988 -0.988,-0.988 h -3.137 v -12.352 c 0,-0.606 -0.491,-1.098 -1.097,-1.098 -0.607,0 -1.098,0.492 -1.098,1.098 v 12.352 h -1.902 c -0.546,0 -0.989,0.442 -0.989,0.988 0,0.545 0.443,0.987 0.989,0.987 h 1.875 v 2.164 c 0,2.662 1.673,4.006 4.199,4.006 h 1.16 c 0.546,0 0.988,-0.442 0.988,-0.987 0,-0.546 -0.442,-0.989 -0.988,-0.989 H 1.965 C 0.473,1.772 0,1.237 0,0"
             style="fill:#ffffff;fill-opacity:1;fill-rule:nonzero;stroke:none"
             id="path4110"
             inkscape:connector-curvature="0" />
        </g>
        <g
           id="g4112"
           transform="translate(381.4789,33.472)">
          <path
             d="m 0,0 -0.011,-2.422 h 3.137 c 0.545,0 0.987,-0.442 0.987,-0.987 0,-0.546 -0.442,-0.988 -0.987,-0.988 h -3.137 v -12.352 c 0,-0.606 -0.492,-1.098 -1.097,-1.098 -0.607,0 -1.099,0.492 -1.099,1.098 v 12.352 h -1.901 c -0.546,0 -0.989,0.442 -0.989,0.988 0,0.545 0.443,0.987 0.989,0.987 h 1.875 v 2.164 c 0,2.662 1.672,4.006 4.198,4.006 h 1.161 c 0.545,0 0.987,-0.442 0.987,-0.987 0,-0.546 -0.442,-0.989 -0.987,-0.989 H 1.965 C 0.474,1.772 0,1.237 0,0"
             style="fill:#ffffff;fill-opacity:1;fill-rule:nonzero;stroke:none"
             id="path4114"
             inkscape:connector-curvature="0" />
        </g>
        <g
           id="g4116"
           transform="translate(392.7015,17.7064)">
          <path
             d="m 0,0 c 2.381,0 3.403,1.266 3.791,1.765 0,0 0.475,0.622 0.738,0.699 0.242,0.07 0.508,0.05 0.747,-0.077 C 5.709,2.156 5.903,1.651 5.759,1.2 5.695,0.96 5.57,0.655 5.362,0.324 c -0.714,-1.079 -2.299,-2.39 -5.401,-2.39 -4.241,0 -6.958,2.728 -6.958,7.427 0,4.074 2.142,7.928 6.958,7.928 3.651,0 6.003,-2.573 6.29,-6.731 0,-1.564 -0.65,-1.624 -2.407,-1.624 H -4.93 C -4.729,0.486 -1.648,0 0,0 m -4.834,6.909 h 8.986 c -0.372,3.019 -2.076,4.326 -4.191,4.326 -2.639,0 -4.357,-1.641 -4.795,-4.326"
             style="fill:#ffffff;fill-opacity:1;fill-rule:nonzero;stroke:none"
             id="path4118"
             inkscape:connector-curvature="0" />
        </g>
        <g
           id="g4120"
           transform="translate(363.6058,26.599)">
          <path
             d="m 0,0 c 0,2.409 2.141,4.309 5.582,4.309 h 0.083 c 2.96,10e-4 4.464,-1.295 5.141,-2.36 0.197,-0.326 0.316,-0.627 0.376,-0.865 0.137,-0.445 -0.046,-0.943 -0.458,-1.171 -0.227,-0.125 -0.48,-0.145 -0.708,-0.076 -0.251,0.077 -0.702,0.69 -0.702,0.69 -0.265,0.356 -0.846,1.109 -2.002,1.497 -0.5,0.16 -1.063,0.245 -1.73,0.245 -2.141,0 -3.414,-0.876 -3.414,-2.214 0,-0.96 0.678,-1.735 1.843,-1.979 l 3.684,-0.785 c 2.006,-0.434 3.767,-1.471 3.767,-3.849 0,-2.521 -2.194,-4.4 -5.772,-4.4 l -0.156,-10e-4 c -3.102,0 -4.687,1.312 -5.401,2.391 -0.208,0.331 -0.334,0.635 -0.397,0.876 -0.144,0.452 0.049,0.956 0.483,1.186 0.239,0.127 0.507,0.148 0.747,0.077 0.263,-0.077 0.738,-0.698 0.738,-0.698 0.282,-0.363 0.9,-1.133 2.134,-1.525 0.544,-0.173 1.164,-0.263 1.852,-0.263 2.385,0 3.578,0.951 3.578,2.276 0,0.909 -0.678,1.681 -1.789,1.924 L 3.686,-3.929 C 1.68,-3.522 0,-2.319 0,0"
             style="fill:#ffffff;fill-opacity:1;fill-rule:nonzero;stroke:none"
             id="path4122"
             inkscape:connector-curvature="0" />
        </g>
        <g
           id="g4124"
           transform="translate(361.1527,302.8422)">
          <path
             d="m 0,0 c 0,-75.325 61.063,-136.388 136.388,-136.388 75.324,0 136.386,61.063 136.386,136.388 0,75.324 -61.062,136.387 -136.386,136.387 C 61.063,136.387 0,75.324 0,0"
             style="fill:#ffffff;fill-opacity:1;fill-rule:nonzero;stroke:none"
             id="path4126"
             inkscape:connector-curvature="0" />
        </g>
        <g
           id="g4128"
           transform="translate(467.892,207.2435)" />
        <g
           id="g4132"
           transform="translate(451.3138,176.3246)" />
      </g>
    </g>
    <text
       y="284.26425"
       x="147.72723"
       style="font-variant:normal;font-weight:normal;font-stretch:normal;font-size:2.82222199px;font-family:Roboto;-inkscape-font-specification:Roboto-Regular;writing-mode:lr-tb;fill:#ffffff;fill-opacity:1;fill-rule:nonzero;stroke:none;stroke-width:0.35277775"
       id="text4164">
      <tspan
         style="stroke-width:0.35277775"
         x="147.72723 149.56451 151.17317 152.73103 153.65392 155.14969 156.70755 157.63042 158.33034 159.84023 161.18642 162.72171 163.40752 164.09331 165.6286 167.21187 167.89766 169.39343 170.09335 171.64841 173.20627 174.798 176.29378 177.2477 177.9476 179.48289 180.1828 182.02007 183.85733 185.44344 186.14334 186.82913 187.51492 188.99095 190.48672 192.04459 193.50087 194.99664 195.73889"
         y="284.26425"
         sodipodi:role="line"
         id="tspan4160">Content available under a CC0 license.</tspan>
      <tspan
         style="stroke-width:0.35277775"
         x="147.72723 148.49489 150.05276 150.75267 152.2287 153.83734 154.52316 155.20895 156.74425 158.32751 159.93619 160.83505 162.37033 163.29321 163.979 165.58768 167.14555 167.84546 169.96495 170.65074 171.57361 173.12866 173.82857 175.38927 177.06284 178.62354 180.22655 180.92645 182.46175 184.01961 185.61134 186.31125 188.14005 189.03244 190.56773 191.26764 193.11902 194.61481 196.07106 196.75687 198.34013 199.89801"
         y="287.65088"
         sodipodi:role="line"
         id="tspan4162">In collaboration with FSFE and Ura Design.</tspan>
    </text>
    <g
       transform="matrix(0.35277777,0,0,-0.35277777,0,297.00008)"
       id="g4166">
      <g
         id="g4168"
         clip-path="url(#clipPath4172)">
        <g
           id="g4174"
           transform="translate(334.0717,63.599)">
          <path
             d="M 0,0 H 234.417"
             style="fill:none;stroke:#ffffff;stroke-width:0.5;stroke-linecap:butt;stroke-linejoin:miter;stroke-miterlimit:10;stroke-dasharray:none;stroke-opacity:1"
             id="path4176"
             inkscape:connector-curvature="0" />
        </g>
        <g
           id="g4178"
           transform="translate(515.9359,332.1957)" />
        <g
           id="g4182"
           transform="translate(457.2328,273.4916)" />
        <g
           id="g4186"
           transform="translate(461.2474,705.2928)" />
        <g
           id="g4190"
           transform="translate(512.7367,788.8744)" />
        <g
           id="g4194"
           transform="translate(512.7367,728.1893)" />
        <g
           id="g4198"
           transform="translate(464.2719,728.1893)" />
        <g
           id="g4202"
           transform="translate(440.6732,702.0844)" />
        <g
           id="g4206"
           transform="translate(512.7367,694.0546)" />
        <g
           id="g4212"
           transform="translate(-416.4943,717.8339)">
          <path
             d="m 0,0 c 0,-190.493 154.425,-344.917 344.917,-344.917 190.493,0 344.916,154.424 344.916,344.917 0,190.492 -154.423,344.917 -344.916,344.917 C 154.425,344.917 0,190.492 0,0"
             style="fill:#3594ce;fill-opacity:1;fill-rule:nonzero;stroke:none"
             id="path4214"
             inkscape:connector-curvature="0" />
        </g>
        <g
           id="g4216"
           transform="translate(46.8793,617.912)">
          <path
             d="m 0,0 c 0,-73.442 -59.537,-132.978 -132.978,-132.978 -73.442,0 -132.979,59.536 -132.979,132.978 0,73.442 59.537,132.978 132.979,132.978 C -59.537,132.978 0,73.442 0,0"
             style="fill:#ffffff;fill-opacity:1;fill-rule:nonzero;stroke:none"
             id="path4218"
             inkscape:connector-curvature="0" />
        </g>
        <g
           id="g4220"
           transform="translate(1.0052,333.8812)">
          <path
             d="m 0,0 c 0,-68.196 55.284,-123.481 123.481,-123.481 68.198,0 123.482,55.285 123.482,123.481 0,68.197 -55.284,123.482 -123.482,123.482 C 55.284,123.482 0,68.197 0,0"
             style="fill:#ffffff;fill-opacity:1;fill-rule:nonzero;stroke:none"
             id="path4222"
             inkscape:connector-curvature="0" />
        </g>
        <g
           id="g4224"
           transform="translate(256.1801,693.5087)">
          <path
             d="m 0,0 c 0,-74.53 -60.41,-134.94 -134.939,-134.94 -74.531,0 -134.941,60.41 -134.941,134.94 0,74.53 60.41,134.94 134.941,134.94 C -60.41,134.94 0,74.53 0,0"
             style="fill:#ffffff;fill-opacity:1;fill-rule:nonzero;stroke:none"
             id="path4226"
             inkscape:connector-curvature="0" />
        </g>
        <g
           id="g4228"
           transform="translate(197.4847,590.0951)" />
        <g
           id="g4232"
           transform="translate(180.9066,559.1761)" />
      </g>
    </g>
    <g
       transform="matrix(0.35277777,0,0,-0.35277777,0,297.00008)"
       id="g4256">
      <g
         id="g4258"
         clip-path="url(#clipPath4262)">
        <g
           id="g4264"
           transform="translate(137.0726,654.347)" />
        <g
           id="g4268"
           transform="translate(159.3676,742.1444)" />
        <g
           id="g4272"
           transform="translate(178.8402,708.7074)" />
        <g
           id="g4276"
           transform="translate(74.0472,708.3876)" />
        <g
           id="g4280"
           transform="translate(165.5795,727.4706)" />
        <g
           id="g4284"
           transform="translate(115.9623,654.3246)" />
        <g
           id="g4288"
           transform="translate(87.1986,727.2416)" />
        <g
           id="g4292"
           transform="translate(130.0658,653.2938)" />
        <g
           id="g4296"
           transform="translate(87.5385,736.5526)" />
        <g
           id="g4300"
           transform="translate(137.0189,760.8685)" />
        <g
           id="g4304"
           transform="translate(68.8685,679.4633)" />
        <g
           id="g4308"
           transform="translate(173.4427,661.1464)" />
        <g
           id="g4312"
           transform="translate(0.2137,725.9833)">
          <path
             d="M 0,0 -595.49,-50.887 V 115.907 H -0.427 Z"
             style="fill:#53b749;fill-opacity:1;fill-rule:nonzero;stroke:none"
             id="path4314"
             inkscape:connector-curvature="0" />
        </g>
        <g
           id="g4318"
           transform="translate(139.392,382.7113)" />
        <g
           id="g4328"
           transform="translate(73.3109,228.473)" />
        <g
           id="g4332"
           transform="translate(213.6127,232.725)" />
      </g>
    </g>
  </g>
  <g
     inkscape:groupmode="layer"
     id="layer14"
     inkscape:label="Collaboration"
     style="display:inline">
    <path
       d="m 69.668213,88.827642 -1.353609,-4.673246 c -0.195439,-0.313266 -0.497768,-0.517525 -0.829381,-0.594783 -0.09913,-0.02328 -0.200025,-0.03493 -0.301625,-0.03493 -0.240242,0 -0.482952,0.06562 -0.700969,0.202845 l -3.227564,3.606097 -4.639379,1.34267 c -0.310446,0.19544 -0.512234,0.499533 -0.58773,0.832557 -0.07549,0.333023 -0.024,0.696031 0.171098,1.009298 l 3.597982,3.26178 1.352902,4.673251 c 0.195791,0.31326 0.498827,0.51752 0.830085,0.59478 0.09842,0.0233 0.199673,0.0349 0.301273,0.0349 0.240242,0 0.482952,-0.0656 0.701323,-0.20285 l 3.226858,-3.60644 4.640086,-1.342676 c 0.310091,-0.195085 0.512233,-0.498827 0.587727,-0.832556 0.07479,-0.333021 0.024,-0.695677 -0.17145,-1.008944 z"
       style="fill:#2e3575;fill-opacity:1;fill-rule:nonzero;stroke:none;stroke-width:0.35277775"
       id="path4230"
       inkscape:connector-curvature="0" />
    <path
       d="m 63.819826,99.735181 c -0.529519,-0.12347 -0.979665,-0.44626 -1.268236,-0.90876 l -0.05186,-0.0829 -0.02717,-0.0942 -1.297868,-4.480979 -3.15948,-2.864554 H 17.873696 v 10.313462 h 47.004463 v -1.921589 c -0.192617,0.0596 -0.392994,0.0928 -0.596548,0.0928 -0.155221,0 -0.310444,-0.018 -0.461785,-0.0533"
       style="fill:#53b749;fill-opacity:1;fill-rule:nonzero;stroke:none;stroke-width:0.35277775"
       id="path4234"
       inkscape:connector-curvature="0" />
    <text
       y="93.69915"
       x="63.821587"
       style="font-variant:normal;font-weight:bold;font-stretch:normal;font-size:6.3499999px;font-family:'Roboto Slab';-inkscape-font-specification:RobotoSlab-Bold;writing-mode:lr-tb;fill:#ffffff;fill-opacity:1;fill-rule:nonzero;stroke:none;stroke-width:0.35277775"
       id="text4238">
      <tspan
         style="stroke-width:0.35277775"
         x="63.821587"
         y="93.69915"
         id="tspan4236">5</tspan>
    </text>
    <text
       y="108.01749"
       x="20.299009"
       style="font-variant:normal;font-weight:normal;font-stretch:normal;font-size:4.23333311px;font-family:Roboto;-inkscape-font-specification:Roboto-Regular;writing-mode:lr-tb;fill:#ffffff;fill-opacity:1;fill-rule:nonzero;stroke:none;stroke-width:0.35277775"
       id="text4250">
      <tspan
         style="stroke-width:0.35277775"
         x="20.299009 22.585009 23.978201 26.221865 28.465536 29.515402 32.025768 34.438766 35.907734 37.29203 40.471268 42.774193 44.167389 46.411057 47.460922 49.674957 51.977882 54.31469 55.364555 57.739456 59.983124"
         y="108.01749"
         sodipodi:role="line"
         id="tspan4240">Free Software can be</tspan>
      <tspan
         style="stroke-width:0.35277775"
         x="20.299009 22.483408 24.815977 27.118914 28.509138 30.752802 33.140404 34.190269 36.493202 38.830002 41.217598 42.267471 44.600037 46.784431 49.028099 51.415703 52.465569 53.494263 55.83107 56.880936 59.183868"
         y="112.25081"
         sodipodi:role="line"
         id="tspan4242">shared and used in a</tspan>
      <tspan
         style="stroke-width:0.35277775"
         x="20.299009 22.635809 25.048811 27.385611 28.55401 30.797678 32.852112 35.066147 36.094845 38.427406 40.611809 41.640511 43.662773 45.906441 46.956306 50.135544 52.406723 54.409096 55.458954 57.809723 59.812096"
         y="116.48415"
         sodipodi:role="line"
         id="tspan4244">non-exclusive way by</tspan>
      <tspan
         style="stroke-width:0.35277775"
         x="20.299009 22.514734 24.538694 26.782358 28.250902 30.222792 32.635792 34.972588 37.216255 38.266121 41.043182 42.093056 44.277451 46.521118 47.985008 50.033943 51.062637 53.399437 55.774338 56.824203 58.208504 60.541077 62.784737"
         y="120.71748"
         sodipodi:role="line"
         id="tspan4246">everyone – serving the</tspan>
      <tspan
         style="stroke-width:0.35277775"
         x="20.299009 22.67391 25.006475 27.381376 28.410078 29.438776 31.652807 32.702675 35.077576 37.490574 39.903572 42.291176"
         y="124.95082"
         sodipodi:role="line"
         id="tspan4248">public good.</tspan>
    </text>
    <text
       y="98.341255"
       x="20.298834"
       style="font-variant:normal;font-weight:bold;font-stretch:normal;font-size:6.3499999px;font-family:'Roboto Slab';-inkscape-font-specification:RobotoSlab-Bold;writing-mode:lr-tb;fill:#ffffff;fill-opacity:1;fill-rule:nonzero;stroke:none;stroke-width:0.35277775"
       id="text4254">
      <tspan
         style="stroke-width:0.35277775"
         x="20.298834 24.413633 27.910578 29.936228 31.961878 35.348969 39.012917 42.575264 45.181305 48.421074 50.789627 52.834328 56.396675"
         y="98.341255"
         sodipodi:role="line"
         id="tspan4252">Collaboration</tspan>
    </text>
    <path
       d="m 48.356165,66.161002 0.434624,1.906765 c 0.906285,-0.206727 1.80481,-0.484365 2.66982,-0.825148 l -0.717195,-1.819627 c -0.77329,0.304448 -1.576917,0.552802 -2.387249,0.73801"
       style="fill:#5ac8e7;fill-opacity:1;fill-rule:nonzero;stroke:none;stroke-width:0.35277775"
       id="path4266"
       inkscape:connector-curvature="0" />
    <path
       d="m 56.221347,35.18803 -1.214615,1.532467 c 0.651933,0.517173 1.270355,1.087263 1.83868,1.69545 l 1.428395,-1.33491 c -0.633587,-0.67945 -1.323975,-1.316215 -2.05246,-1.893007"
       style="fill:#5ac8e7;fill-opacity:1;fill-rule:nonzero;stroke:none;stroke-width:0.35277775"
       id="path4270"
       inkscape:connector-curvature="0" />
    <path
       d="m 63.090846,46.983859 c -0.141465,-0.919692 -0.353484,-1.83515 -0.630415,-2.720975 l -1.866194,0.583496 c 0.24765,0.791985 0.437092,1.611487 0.56374,2.434871 z"
       style="fill:#5ac8e7;fill-opacity:1;fill-rule:nonzero;stroke:none;stroke-width:0.35277775"
       id="path4274"
       inkscape:connector-curvature="0" />
    <path
       d="m 26.122206,47.096677 1.934986,0.285398 c 0.121708,-0.823031 0.306565,-1.643239 0.548923,-2.438751 l -1.87043,-0.570797 c -0.271637,0.88759 -0.47766,1.804459 -0.613479,2.72415"
       style="fill:#5ac8e7;fill-opacity:1;fill-rule:nonzero;stroke:none;stroke-width:0.35277775"
       id="path4278"
       inkscape:connector-curvature="0" />
    <path
       d="m 58.412766,40.364619 c 0.472723,0.686506 0.896409,1.412523 1.259417,2.158296 l 1.758244,-0.85584 C 61.024733,40.834167 60.551306,40.022425 60.02355,39.25584 Z"
       style="fill:#5ac8e7;fill-opacity:1;fill-rule:nonzero;stroke:none;stroke-width:0.35277775"
       id="path4282"
       inkscape:connector-curvature="0" />
    <path
       d="m 40.908922,66.168902 c -0.811389,-0.183795 -1.615723,-0.430387 -2.391481,-0.733425 l -0.71261,1.821392 c 0.866423,0.339021 1.7653,0.61454 2.672643,0.819505 z"
       style="fill:#5ac8e7;fill-opacity:1;fill-rule:nonzero;stroke:none;stroke-width:0.35277775"
       id="path4286"
       inkscape:connector-curvature="0" />
    <path
       d="m 30.761728,40.445407 -1.617133,-1.099608 c -0.523523,0.770466 -0.991658,1.585383 -1.393119,2.421821 l 1.763536,0.845254 c 0.358068,-0.748242 0.778227,-1.477786 1.246716,-2.167467"
       style="fill:#5ac8e7;fill-opacity:1;fill-rule:nonzero;stroke:none;stroke-width:0.35277775"
       id="path4290"
       inkscape:connector-curvature="0" />
    <path
       d="m 45.884322,66.532546 c -0.824793,0.06138 -1.673225,0.06315 -2.502606,0.0024 l -0.141462,1.951212 c 0.454376,0.03246 0.916868,0.04974 1.374775,0.04974 0.47272,0 0.947912,-0.01834 1.414637,-0.05362 z"
       style="fill:#5ac8e7;fill-opacity:1;fill-rule:nonzero;stroke:none;stroke-width:0.35277775"
       id="path4294"
       inkscape:connector-curvature="0" />
    <path
       d="m 30.881637,37.160692 1.436159,1.32715 c 0.565502,-0.611362 1.180748,-1.185685 1.8288,-1.706033 l -1.223785,-1.52541 c -0.723549,0.581025 -1.410759,1.221668 -2.041174,1.904293"
       style="fill:#5ac8e7;fill-opacity:1;fill-rule:nonzero;stroke:none;stroke-width:0.35277775"
       id="path4298"
       inkscape:connector-curvature="0" />
    <path
       d="m 48.337221,28.582583 c 1.448152,-1.102429 2.383719,-2.844094 2.383719,-4.804833 0,-3.33375 -2.702277,-6.036027 -6.036379,-6.036027 -3.333398,0 -6.035675,2.702277 -6.035675,6.036027 0,1.938161 0.9144,3.661481 2.333977,4.766029 -3.663598,1.324327 -7.364942,4.268962 -5.626452,7.513812 2.057046,3.839986 3.832577,0.06914 9.250185,0.06914 5.416902,0 7.192786,3.770842 9.250186,-0.06914 1.721204,-3.2131 -1.891594,-6.132335 -5.519561,-7.475008"
       style="fill:#3594ce;fill-opacity:1;fill-rule:nonzero;stroke:none;stroke-width:0.35277775"
       id="path4302"
       inkscape:connector-curvature="0" />
    <path
       d="m 24.295276,57.300529 c -1.67887,-0.703085 -3.654778,-0.642408 -5.35305,0.337963 -2.886781,1.666875 -3.875969,5.358339 -2.209447,8.245473 1.666875,2.887133 5.358694,3.876323 8.245827,2.209448 1.678165,-0.969082 2.713567,-2.62255 2.960158,-4.404432 2.978857,2.510721 7.379759,4.243917 9.320742,1.115838 2.296935,-3.701346 -1.856669,-3.353858 -4.565298,-8.04545 -2.708627,-4.691592 -0.330904,-8.114593 -4.684887,-7.976306 -3.64349,0.116064 -4.365273,4.703939 -3.714045,8.517466"
       style="fill:#53b749;fill-opacity:1;fill-rule:nonzero;stroke:none;stroke-width:0.35277775"
       id="path4306"
       inkscape:connector-curvature="0" />
    <path
       d="m 61.186729,63.762324 c 0.230717,1.805516 1.271411,3.486502 2.969332,4.466873 2.887133,1.666875 6.5786,0.677685 8.245475,-2.209448 1.666875,-2.886779 0.677685,-6.5786 -2.209448,-8.245475 -1.678165,-0.969079 -3.627967,-1.038577 -5.294136,-0.361596 0.684742,-3.835048 -0.01482,-8.512529 -3.694289,-8.62965 -4.353984,-0.138289 -1.976261,3.285067 -4.68489,7.976304 -2.708627,4.691592 -6.862233,4.344107 -4.565296,8.04545 1.921934,3.09739 6.256513,1.428046 9.233252,-1.042458"
       style="fill:#2e3575;fill-opacity:1;fill-rule:nonzero;stroke:none;stroke-width:0.35277775"
       id="path4310"
       inkscape:connector-curvature="0" />
  </g>
  <g
     inkscape:groupmode="layer"
     id="layer15"
     inkscape:label="Security"
     style="display:inline">
    <path
       transform="matrix(0.35277777,0,0,-0.35277777,128.99175,90.15194)"
       d="m 0,0 -3.837,13.247 c -0.554,0.888 -1.412,1.467 -2.352,1.686 -0.28,0.066 -0.567,0.099 -0.855,0.099 -0.681,0 -1.368,-0.186 -1.987,-0.575 L -18.179,4.235 -31.33,0.429 c -0.88,-0.554 -1.453,-1.415 -1.666,-2.36 -0.214,-0.944 -0.069,-1.972 0.484,-2.861 l 10.199,-9.246 3.836,-13.247 c 0.554,-0.888 1.413,-1.467 2.353,-1.686 0.279,-0.065 0.565,-0.098 0.853,-0.098 0.681,0 1.37,0.185 1.988,0.574 l 9.148,10.223 13.152,3.806 c 0.879,0.554 1.452,1.415 1.666,2.36 0.213,0.944 0.069,1.973 -0.486,2.86 z"
       style="fill:#2e3575;fill-opacity:1;fill-rule:nonzero;stroke:none"
       id="path4062"
       inkscape:connector-curvature="0" />
    <path
       transform="matrix(0.35277777,0,0,-0.35277777,162.65444,88.651786)"
       d="m 0,0 h -94.571 l 0.912,-3.151 9.778,-8.866 0.206,-0.186 0.148,-0.236 c 0.816,-1.309 1.079,-2.857 0.739,-4.361 -0.341,-1.508 -1.247,-2.79 -2.552,-3.611 l -0.238,-0.151 -0.272,-0.078 -12.599,-3.646 -4.429,-4.949 H 0 Z"
       style="fill:#53b749;fill-opacity:1;fill-rule:nonzero;stroke:none"
       id="path4066"
       inkscape:connector-curvature="0" />
    <text
       y="104.48141"
       x="134.78143"
       style="font-variant:normal;font-weight:normal;font-stretch:normal;font-size:4.23333311px;font-family:Roboto;-inkscape-font-specification:Roboto-Regular;writing-mode:lr-tb;fill:#ffffff;fill-opacity:1;fill-rule:nonzero;stroke:none;stroke-width:0.35277775"
       id="text4076">
      <tspan
         style="stroke-width:0.35277775"
         x="134.78143 137.06743 138.46062 140.70428 142.94794 143.99782 146.50818 148.92119 150.39015 151.77446 154.95369 157.25662 158.64981 160.89348 161.94334 164.24628 165.27498 166.30368 168.71667 171.8959 174.08031 175.13017 176.59914 179.01213 180.44301"
         y="104.48141"
         sodipodi:role="line"
         id="tspan4068">Free Software allows for</tspan>
      <tspan
         style="stroke-width:0.35277775"
         x="134.78143 135.81012 138.14693 140.53453 142.77818 145.15309 147.39676 149.73357 152.12115 154.36484 156.70163 158.08592 159.1358 161.32019 163.56386 165.77789 168.11046 169.54134 170.57004 171.95433 173.9567"
         y="108.71474"
         sodipodi:role="line"
         id="tspan4070">independent security</tspan>
      <tspan
         style="stroke-width:0.35277775"
         x="134.78143 136.99547 139.32803 141.57169 143.78574 145.93204 148.11642 149.16631 150.5506 152.88316 155.18608 156.5704 157.62025 159.95284 162.19649 163.22519 165.6001 166.64995 168.864 169.8927 172.30569 174.4901 176.73375"
         y="112.94808"
         sodipodi:role="line"
         id="tspan4072">checks that help close</tspan>
      <tspan
         style="stroke-width:0.35277775"
         x="134.78143 136.96584 139.20949 141.42352 143.7561 145.18695 146.21565 147.59996 149.60234 150.65219 152.98477 155.39777 156.42647 158.67012 160.85452 161.90439 163.37337 165.67628 167.8607 169.245 171.48866 172.6562"
         y="117.18141"
         sodipodi:role="line"
         id="tspan4074">security holes faster.</tspan>
    </text>
    <text
       y="95.251511"
       x="122.99509"
       style="font-variant:normal;font-weight:bold;font-stretch:normal;font-size:6.3499999px;font-family:'Roboto Slab';-inkscape-font-specification:RobotoSlab-Bold;writing-mode:lr-tb;fill:#ffffff;fill-opacity:1;fill-rule:nonzero;stroke:none;stroke-width:0.35277775"
       id="text4082">
      <tspan
         style="stroke-width:0.35277775"
         x="122.99509"
         y="95.251511"
         id="tspan4078">6</tspan>
      <tspan
         style="stroke-width:0.35277775"
         x="134.78069 138.62878 142.01335 145.35979 149.32219 151.99553 154.04024 156.40878"
         y="95.689659"
         sodipodi:role="line"
         id="tspan4080">Security</tspan>
    </text>
    <path
       transform="matrix(0.35277777,0,0,-0.35277777,162.71783,48.188459)"
       d="m 0,0 c -5.521,-5.52 -12.755,-8.28 -19.99,-8.28 -7.235,0 -14.47,2.76 -19.989,8.28 -11.042,11.041 -11.042,28.94 0,39.98 5.519,5.52 12.754,8.28 19.989,8.28 7.235,0 14.469,-2.76 19.99,-8.28 C 11.04,28.94 11.04,11.041 0,0 m 8.885,48.864 c -7.974,7.974 -18.424,11.961 -28.875,11.961 -10.45,0 -20.901,-3.987 -28.874,-11.961 -13.654,-13.653 -15.615,-34.568 -5.89,-50.311 l -34.091,-34.091 15.548,-15.547 34.712,34.711 c 5.822,-2.979 12.211,-4.468 18.599,-4.468 10.449,0 20.897,3.985 28.871,11.958 15.946,15.946 15.946,41.801 0,57.748"
       style="fill:#2e3575;fill-opacity:1;fill-rule:nonzero;stroke:none"
       id="path4188"
       inkscape:connector-curvature="0" />
    <path
       transform="matrix(0.35277777,0,0,-0.35277777,180.88211,18.702728)"
       d="m 0,0 h -132.748 v -26.55 h 34.164 c 7.816,5.745 17.222,8.85 27.105,8.85 9.882,0 19.288,-3.105 27.104,-8.85 H 0 Z"
       style="fill:#3494ce;fill-opacity:1;fill-rule:nonzero;stroke:none"
       id="path4192"
       inkscape:connector-curvature="0" />
    <path
       transform="matrix(0.35277777,0,0,-0.35277777,180.88211,40.111082)"
       d="M 0,0 V 26.55 H -36.288 C -29.981,19.041 -26.291,9.817 -25.682,0 Z"
       style="fill:#3494ce;fill-opacity:1;fill-rule:nonzero;stroke:none"
       id="path4196"
       inkscape:connector-curvature="0" />
    <path
       transform="matrix(0.35277777,0,0,-0.35277777,163.78481,40.111082)"
       d="m 0,0 c -0.618,4.942 -2.814,9.722 -6.601,13.508 -4.383,4.384 -10.213,6.799 -16.414,6.799 -5.895,0 -11.453,-2.187 -15.755,-6.172 V 0 Z"
       style="fill:#5ac8e7;fill-opacity:1;fill-rule:nonzero;stroke:none"
       id="path4200"
       inkscape:connector-curvature="0" />
    <path
       transform="matrix(0.35277777,0,0,-0.35277777,155.45971,49.32031)"
       d="m 0,0 c 0.195,-0.005 0.389,-0.015 0.584,-0.015 6.2,0 12.03,2.415 16.414,6.8 3.331,3.331 5.432,7.432 6.311,11.735 H 0 Z"
       style="fill:#5ac8e7;fill-opacity:1;fill-rule:nonzero;stroke:none"
       id="path4204"
       inkscape:connector-curvature="0" />
    <path
       transform="matrix(0.35277777,0,0,-0.35277777,180.88211,52.153045)"
       d="M 0,0 V 26.549 H -25.823 C -26.822,16.615 -30.999,7.369 -37.855,0 Z"
       style="fill:#3494ce;fill-opacity:1;fill-rule:nonzero;stroke:none"
       id="path4208"
       inkscape:connector-curvature="0" />
    <path
       transform="matrix(0.35277777,0,0,-0.35277777,0,297.00008)"
       d="m 471.016,659.919 h 41.721 v 26.549 h -41.721 z"
       style="fill:#3494ce;fill-opacity:1;fill-rule:nonzero;stroke:none"
       id="path4210"
       inkscape:connector-curvature="0" />
  </g>
  <g
     inkscape:groupmode="layer"
     id="layer16"
     inkscape:label="Share &amp; Copy"
     style="display:inline">
    <text
       y="231.15982"
       x="31.691614"
       style="font-variant:normal;font-weight:normal;font-stretch:normal;font-size:4.23333311px;font-family:Roboto;-inkscape-font-specification:Roboto-Regular;writing-mode:lr-tb;fill:#ffffff;fill-opacity:1;fill-rule:nonzero;stroke:none;stroke-width:0.35277775"
       id="text4158">
      <tspan
         style="stroke-width:0.35277775"
         x="31.691614 34.451748 35.501617 37.787193 39.180382 41.424042 43.667717 44.717575 47.227943 49.640945 51.109909 52.494209 55.673447 57.976379 59.369568 61.613235 62.663101 63.691803 64.720505 66.93454 69.178207 71.515007 73.729034 75.97271 77.022568 79.325493 80.35421 81.382904 83.795906 86.975136 89.159538 90.209396 92.512337"
         y="231.15982"
         sodipodi:role="line"
         id="tspan4152">A Free Software licence allows a</tspan>
      <tspan
         style="stroke-width:0.35277775"
         x="31.691614 32.720314 33.749016 37.457417 38.486115 39.870415 40.899109 43.142776 45.327179 47.511581 48.561447 50.898247 53.230812 56.939209 59.314117 61.557777 62.988647 64.038513 66.451515 67.920486 68.970345 69.999046 72.335846 74.520248 75.904549 78.207474 79.236183 80.264885 82.56781 83.952103 84.98082 87.393806 89.730614 91.915016 92.96489 94.282295 96.69529"
         y="235.90538"
         sodipodi:role="line"
         id="tspan4154">limitless number of installations to</tspan>
      <tspan
         style="stroke-width:0.35277775"
         x="31.691614 34.066513 36.310184 37.360046 38.790909 41.123474 43.460274 44.290009 45.339882 48.519112 49.547813 50.932114 53.264679 55.677673 58.010246 59.394547 60.444412 62.819313 65.087105 67.089478 68.118179 70.454979 72.829872 73.879745 76.123413 78.22316 79.607445 80.949409 83.25235"
         y="240.65096"
         sodipodi:role="line"
         id="tspan4156">be run, without paying extra.</tspan>
    </text>
    <path
       transform="matrix(0.35277777,0,0,-0.35277777,0,297.00008)"
       d="M 96.23,315.984 H 55.961 v 19.283 H 96.23 Z m 4.5,28.283 H 51.461 c -2.485,0 -4.5,-2.015 -4.5,-4.5 v -28.283 c 0,-2.486 2.015,-4.5 4.5,-4.5 h 49.269 c 2.485,0 4.5,2.014 4.5,4.5 v 28.283 c 0,2.485 -2.015,4.5 -4.5,4.5"
       style="fill:#3594ce;fill-opacity:1;fill-rule:nonzero;stroke:none"
       id="path4316"
       inkscape:connector-curvature="0" />
    <path
       transform="matrix(0.35277777,0,0,-0.35277777,49.1744,161.98804)"
       d="M 0,0 C 2.485,0 4.5,2.015 4.5,4.5 4.5,6.985 2.485,9 0,9 h -12.659 c -2.486,0 -4.5,-2.015 -4.5,-4.5 v -57.086 h -7.818 c -2.485,0 -4.5,-2.015 -4.5,-4.5 0,-2.485 2.015,-4.5 4.5,-4.5 h 7.818 v -57.086 c 0,-2.485 2.014,-4.5 4.5,-4.5 H 0 c 2.485,0 4.5,2.015 4.5,4.5 0,2.485 -2.015,4.5 -4.5,4.5 h -8.159 v 52.586 h 7.817 c 2.486,0 4.5,2.015 4.5,4.5 0,2.485 -2.014,4.5 -4.5,4.5 H -8.159 V 0 Z"
       style="fill:#5ac8e7;fill-opacity:1;fill-rule:nonzero;stroke:none"
       id="path4320"
       inkscape:connector-curvature="0" />
    <path
       transform="matrix(0.35277777,0,0,-0.35277777,0,297.00008)"
       d="m 178.344,369.586 h -18.371 v 18.371 h 18.371 z m 4.5,27.371 h -27.371 c -2.485,0 -4.5,-2.014 -4.5,-4.5 v -27.371 c 0,-2.485 2.015,-4.5 4.5,-4.5 h 27.371 c 2.485,0 4.5,2.015 4.5,4.5 v 27.371 c 0,2.486 -2.015,4.5 -4.5,4.5"
       style="fill:#53b749;fill-opacity:1;fill-rule:nonzero;stroke:none"
       id="path4322"
       inkscape:connector-curvature="0" />
    <path
       transform="matrix(0.35277777,0,0,-0.35277777,0,297.00008)"
       d="m 178.344,316.44 h -18.371 v 18.371 h 18.371 z m 4.5,27.371 h -27.371 c -2.485,0 -4.5,-2.015 -4.5,-4.5 V 311.94 c 0,-2.486 2.015,-4.5 4.5,-4.5 h 27.371 c 2.485,0 4.5,2.014 4.5,4.5 v 27.371 c 0,2.485 -2.015,4.5 -4.5,4.5"
       style="fill:#53b749;fill-opacity:1;fill-rule:nonzero;stroke:none"
       id="path4324"
       inkscape:connector-curvature="0" />
    <path
       transform="matrix(0.35277777,0,0,-0.35277777,0,297.00008)"
       d="m 178.344,263.293 h -18.371 v 18.371 h 18.371 z m 4.5,27.371 h -27.371 c -2.485,0 -4.5,-2.014 -4.5,-4.5 v -27.371 c 0,-2.485 2.015,-4.5 4.5,-4.5 h 27.371 c 2.485,0 4.5,2.015 4.5,4.5 v 27.371 c 0,2.486 -2.015,4.5 -4.5,4.5"
       style="fill:#53b749;fill-opacity:1;fill-rule:nonzero;stroke:none"
       id="path4326"
       inkscape:connector-curvature="0" />
    <path
       transform="matrix(0.35277777,0,0,-0.35277777,25.862456,216.39989)"
       d="m 0,0 -3.837,13.247 c -0.554,0.888 -1.412,1.467 -2.351,1.686 -0.281,0.065 -0.567,0.098 -0.855,0.098 -0.681,0 -1.369,-0.185 -1.987,-0.574 L -18.179,4.234 -31.33,0.429 c -0.88,-0.554 -1.452,-1.415 -1.666,-2.361 -0.214,-0.944 -0.069,-1.971 0.485,-2.86 l 10.198,-9.246 3.836,-13.247 c 0.555,-0.888 1.414,-1.467 2.353,-1.687 0.279,-0.064 0.566,-0.097 0.854,-0.097 0.68,0 1.369,0.185 1.988,0.574 l 9.147,10.223 13.153,3.805 c 0.879,0.555 1.452,1.415 1.666,2.361 0.212,0.944 0.068,1.972 -0.486,2.86 z"
       style="fill:#3594ce;fill-opacity:1;fill-rule:nonzero;stroke:none"
       id="path4330"
       inkscape:connector-curvature="0" />
    <path
       transform="matrix(0.35277777,0,0,-0.35277777,75.357813,214.89987)"
       d="m 0,0 h -139.451 l 0.913,-3.151 9.778,-8.866 0.205,-0.186 0.148,-0.235 c 0.817,-1.309 1.079,-2.858 0.739,-4.362 -0.341,-1.508 -1.247,-2.79 -2.552,-3.611 l -0.238,-0.151 -0.271,-0.078 -12.6,-3.646 -4.428,-4.948 H 0 Z"
       style="fill:#53b749;fill-opacity:1;fill-rule:nonzero;stroke:none"
       id="path4334"
       inkscape:connector-curvature="0" />
    <text
       y="221.10602"
       x="20.211699"
       style="font-variant:normal;font-weight:bold;font-stretch:normal;font-size:6.3499999px;font-family:'Roboto Slab';-inkscape-font-specification:RobotoSlab-Bold;writing-mode:lr-tb;fill:#ffffff;fill-opacity:1;fill-rule:nonzero;stroke:none;stroke-width:0.35277775"
       id="text4340">
      <tspan
         style="stroke-width:0.35277775"
         x="20.211699"
         y="221.10602"
         id="tspan4336">7</tspan>
      <tspan
         style="stroke-width:0.35277775"
         x="31.654394 35.502495 39.5411 43.027245 45.644081 49.028625 50.584381 54.546776 56.102531 60.217331 63.779678 67.587143"
         y="221.93785"
         sodipodi:role="line"
         id="tspan4338">Share &amp; Copy</tspan>
    </text>
  </g>
  <g
     inkscape:groupmode="layer"
     id="layer17"
     inkscape:label="Reuse Code"
     style="display:inline">
    <path
       transform="matrix(0.35277777,0,0,-0.35277777,165.0619,223.88918)"
       d="m 0,0 -3.837,13.247 c -0.554,0.888 -1.412,1.468 -2.352,1.687 -0.28,0.064 -0.567,0.097 -0.855,0.097 -0.68,0 -1.368,-0.185 -1.986,-0.574 L -18.179,4.235 -31.33,0.429 c -0.88,-0.554 -1.452,-1.415 -1.666,-2.36 -0.214,-0.944 -0.069,-1.972 0.484,-2.861 l 10.199,-9.245 3.836,-13.248 c 0.554,-0.888 1.413,-1.467 2.353,-1.686 0.279,-0.065 0.565,-0.098 0.853,-0.098 0.681,0 1.37,0.185 1.988,0.574 l 9.148,10.223 13.152,3.806 c 0.879,0.554 1.453,1.414 1.666,2.36 0.213,0.944 0.069,1.972 -0.485,2.86 z"
       style="fill:#3594ce;fill-opacity:1;fill-rule:nonzero;stroke:none"
       id="path4130"
       inkscape:connector-curvature="0" />
    <path
       transform="matrix(0.35277777,0,0,-0.35277777,159.21348,234.79668)"
       d="M 0,0 C -1.501,0.35 -2.777,1.265 -3.596,2.576 L -3.742,2.812 -3.819,3.078 -7.498,15.78 -16.454,23.9 H -117.242 V -5.335 H 3 V 0.112 C 2.454,-0.057 1.886,-0.15 1.308,-0.15 0.869,-0.15 0.429,-0.1 0,0"
       style="fill:#53b749;fill-opacity:1;fill-rule:nonzero;stroke:none"
       id="path4134"
       inkscape:connector-curvature="0" />
    <text
       y="228.76065"
       x="159.21524"
       style="font-variant:normal;font-weight:bold;font-stretch:normal;font-size:6.3499999px;font-family:'Roboto Slab';-inkscape-font-specification:RobotoSlab-Bold;writing-mode:lr-tb;fill:#ffffff;fill-opacity:1;fill-rule:nonzero;stroke:none;stroke-width:0.35277775"
       id="text4138">
      <tspan
         style="stroke-width:0.35277775"
         x="159.21524"
         y="228.76065"
         id="tspan4136">8</tspan>
    </text>
    <a
       id="a5946">
      <text
         id="text4146"
         style="font-variant:normal;font-weight:normal;font-stretch:normal;font-size:4.23333311px;font-family:Roboto;-inkscape-font-specification:Roboto-Regular;writing-mode:lr-tb;fill:#ffffff;fill-opacity:1;fill-rule:nonzero;stroke:none;stroke-width:0.35277775"
         x="117.8531"
         y="242.44232">
        <tspan
           id="tspan4140"
           sodipodi:role="line"
           y="242.44232"
           x="117.8531 120.1391 121.5323 123.77596 126.01962 127.0695 129.57986 131.99286 133.46184 134.84613 138.02536 140.32829 141.72148 143.96515 145.01501 147.38992 148.77846 151.16182 153.21075 154.23946 156.62704 158.87071 161.05513"
           style="stroke-width:0.35277775">Free Software provides</tspan>
        <tspan
           id="tspan4142"
           sodipodi:role="line"
           y="246.67566"
           x="117.8531 119.23741 121.56996 123.81363 124.86349 126.33247 127.72101 129.96468 132.20834 134.59593 137.00893 140.71733 141.7672 143.10832 145.52133 146.57118 147.96396 150.20763 152.54019 154.72458 156.96826 158.01811 159.40244 161.73499 163.97865"
           style="stroke-width:0.35277775">the freedom to reuse the</tspan>
        <tspan
           id="tspan4144"
           sodipodi:role="line"
           y="250.909"
           x="117.8531 120.06714 122.48013 124.86774 127.11139 128.16127 129.63025 132.04324 133.47411 134.52397 136.93698 138.32127 140.65384 142.89751 144.32837 145.37823 147.75314 149.14421 151.55721 152.56898 154.81264 157.02667 158.41096 160.59538"
           style="stroke-width:0.35277775">code for other projects.</tspan>
      </text>
    </a>
    <text
       y="233.40274"
       x="120.56938"
       style="font-variant:normal;font-weight:bold;font-stretch:normal;font-size:6.3499999px;font-family:'Roboto Slab';-inkscape-font-specification:RobotoSlab-Bold;writing-mode:lr-tb;fill:#ffffff;fill-opacity:1;fill-rule:nonzero;stroke:none;stroke-width:0.35277775"
       id="text4150">
      <tspan
         style="stroke-width:0.35277775"
         x="120.56938 124.93819 128.32274 132.28514 135.55539 138.93994 140.49568 144.61049 148.17284 151.93204"
         y="233.40274"
         sodipodi:role="line"
         id="tspan4148">Reuse Code</tspan>
    </text>
    <path
       transform="matrix(0.35277777,0,0,-0.35277777,182.01072,179.80882)"
       d="M 0,0 C 12.086,-12.086 15.146,-29.769 9.21,-44.703 L -1.862,-33.65 1.254,-68.742 37.21,-72.655 25.252,-60.718 c 13.845,24.069 10.491,55.322 -10.08,75.892 h 10e-4 C -5.96,36.307 -38.372,39.273 -62.679,24.085 L -46.876,8.282 C -31.513,15.434 -12.677,12.677 0,0"
       style="fill:#3594ce;fill-opacity:1;fill-rule:nonzero;stroke:none"
       id="path4180"
       inkscape:connector-curvature="0" />
    <path
       transform="matrix(0.35277777,0,0,-0.35277777,161.30157,200.51832)"
       d="M 0,0 C -11.787,11.788 -14.983,28.896 -9.628,43.59 L 1.618,32.323 -2.294,68.279 -37.386,71.396 -25.792,59.781 c -13.22,-23.935 -9.684,-54.652 10.618,-74.954 20.85,-20.848 52.681,-24.024 76.873,-9.52 L 45.783,-8.777 C 30.629,-15.305 12.378,-12.378 0,0"
       style="fill:#53b749;fill-opacity:1;fill-rule:nonzero;stroke:none"
       id="path4184"
       inkscape:connector-curvature="0" />
  </g>
</svg>
