<?xml version="1.0" encoding="UTF-8" standalone="no"?>
<!-- Created with Inkscape (http://www.inkscape.org/) -->

<svg
   xmlns:dc="http://purl.org/dc/elements/1.1/"
   xmlns:cc="http://creativecommons.org/ns#"
   xmlns:rdf="http://www.w3.org/1999/02/22-rdf-syntax-ns#"
   xmlns:svg="http://www.w3.org/2000/svg"
   xmlns="http://www.w3.org/2000/svg"
   xmlns:sodipodi="http://sodipodi.sourceforge.net/DTD/sodipodi-0.dtd"
   xmlns:inkscape="http://www.inkscape.org/namespaces/inkscape"
   width="210.00049mm"
   height="594.00024mm"
   viewBox="0 0 210.00049 594.00024"
   version="1.1"
   id="svg1477"
   inkscape:version="0.92.3 (2405546, 2018-03-11)"
   sodipodi:docname="Horizontal Version - Vertically Collated.svg">
  <defs
     id="defs1471">
    <clipPath
       clipPathUnits="userSpaceOnUse"
       id="clipPath236">
      <path
         d="M 0,0.015 H 595.276 V 841.889 H 0 Z"
         id="path234"
         inkscape:connector-curvature="0" />
    </clipPath>
    <clipPath
       clipPathUnits="userSpaceOnUse"
       id="clipPath200">
      <path
         d="M 0,0.015 H 595.276 V 841.889 H 0 Z"
         id="path198"
         inkscape:connector-curvature="0" />
    </clipPath>
    <clipPath
       clipPathUnits="userSpaceOnUse"
       id="clipPath114">
      <path
         d="M 0,0.015 H 595.276 V 841.889 H 0 Z"
         id="path112"
         inkscape:connector-curvature="0" />
    </clipPath>
    <clipPath
       clipPathUnits="userSpaceOnUse"
       id="clipPath30">
      <path
         d="M 0,0.015 H 595.276 V 841.889 H 0 Z"
         id="path28"
         inkscape:connector-curvature="0" />
    </clipPath>
    <clipPath
       clipPathUnits="userSpaceOnUse"
       id="clipPath4262">
      <path
         d="M 0,0.015 H 595.276 V 841.889 H 0 Z"
         id="path4260"
         inkscape:connector-curvature="0" />
    </clipPath>
    <clipPath
       clipPathUnits="userSpaceOnUse"
       id="clipPath4172">
      <path
         d="M 0,0.015 H 595.276 V 841.889 H 0 Z"
         id="path4170"
         inkscape:connector-curvature="0" />
    </clipPath>
    <clipPath
       clipPathUnits="userSpaceOnUse"
       id="clipPath4090">
      <path
         d="M 0,0.015 H 595.276 V 841.889 H 0 Z"
         id="path4088"
         inkscape:connector-curvature="0" />
    </clipPath>
    <clipPath
       clipPathUnits="userSpaceOnUse"
       id="clipPath4050">
      <path
         d="M 0,0.015 H 595.276 V 841.889 H 0 Z"
         id="path4048"
         inkscape:connector-curvature="0" />
    </clipPath>
    <clipPath
       clipPathUnits="userSpaceOnUse"
       id="clipPath4262-3">
      <path
         d="M 0,0.015 H 595.276 V 841.889 H 0 Z"
         id="path4260-6"
         inkscape:connector-curvature="0" />
    </clipPath>
    <clipPath
       clipPathUnits="userSpaceOnUse"
       id="clipPath4172-7">
      <path
         d="M 0,0.015 H 595.276 V 841.889 H 0 Z"
         id="path4170-5"
         inkscape:connector-curvature="0" />
    </clipPath>
    <clipPath
       clipPathUnits="userSpaceOnUse"
       id="clipPath4090-3">
      <path
         d="M 0,0.015 H 595.276 V 841.889 H 0 Z"
         id="path4088-5"
         inkscape:connector-curvature="0" />
    </clipPath>
    <clipPath
       clipPathUnits="userSpaceOnUse"
       id="clipPath4050-6">
      <path
         d="M 0,0.015 H 595.276 V 841.889 H 0 Z"
         id="path4048-2"
         inkscape:connector-curvature="0" />
    </clipPath>
  </defs>
  <sodipodi:namedview
     id="base"
     pagecolor="#ffffff"
     bordercolor="#666666"
     borderopacity="1.0"
     inkscape:pageopacity="0.0"
     inkscape:pageshadow="2"
     inkscape:zoom="0.25"
     inkscape:cx="382.51914"
     inkscape:cy="1151.092"
     inkscape:document-units="mm"
     inkscape:current-layer="layer1"
     showgrid="false"
     inkscape:snap-page="true"
     inkscape:window-width="1366"
     inkscape:window-height="717"
     inkscape:window-x="0"
     inkscape:window-y="0"
     inkscape:window-maximized="1"
     fit-margin-top="0"
     fit-margin-left="0"
     fit-margin-right="0"
     fit-margin-bottom="0" />
  <metadata
     id="metadata1474">
    <rdf:RDF>
      <cc:Work
         rdf:about="">
        <dc:format>image/svg+xml</dc:format>
        <dc:type
           rdf:resource="http://purl.org/dc/dcmitype/StillImage" />
        <dc:title></dc:title>
      </cc:Work>
    </rdf:RDF>
  </metadata>
  <g
     inkscape:label="Layer 1"
     inkscape:groupmode="layer"
     id="layer1"
     transform="translate(1.4e-4,7.99e-5)">
    <path
       d="M -1.4e-4,297 H 210 V -7.99e-5 H -1.4e-4 Z"
       style="fill:#2e3575;fill-opacity:1;fill-rule:nonzero;stroke:none;stroke-width:0.35277775"
       id="path22"
       inkscape:connector-curvature="0" />
    <g
       transform="matrix(0.35277777,0,0,-0.35277777,-1.4e-4,297)"
       id="g24">
      <g
         id="g26"
         clip-path="url(#clipPath30)">
        <g
           id="g32"
           transform="translate(334.4932,142.4076)">
          <path
             d="m 0,0 c 0,123.879 -100.424,224.304 -224.304,224.304 -123.88,0 -224.304,-100.425 -224.304,-224.304 0,-123.88 100.424,-224.305 224.304,-224.305 C -100.424,-224.305 0,-123.88 0,0"
             style="fill:#3594ce;fill-opacity:1;fill-rule:nonzero;stroke:none"
             id="path34"
             inkscape:connector-curvature="0" />
        </g>
        <g
           id="g36"
           transform="translate(339.8076,235.847)">
          <path
             d="m 0,0 c 0,-68.137 55.235,-123.372 123.372,-123.372 68.136,0 123.372,55.235 123.372,123.372 0,68.136 -55.236,123.372 -123.372,123.372 C 55.235,123.372 0,68.136 0,0"
             style="fill:#ffffff;fill-opacity:1;fill-rule:nonzero;stroke:none"
             id="path38"
             inkscape:connector-curvature="0" />
        </g>
        <g
           id="g40"
           transform="translate(178.7817,717.8339)">
          <path
             d="m 0,0 c 0,-190.493 154.425,-344.917 344.917,-344.917 190.493,0 344.916,154.424 344.916,344.917 0,190.492 -154.423,344.917 -344.916,344.917 C 154.425,344.917 0,190.492 0,0"
             style="fill:#3594ce;fill-opacity:1;fill-rule:nonzero;stroke:none"
             id="path42"
             inkscape:connector-curvature="0" />
        </g>
        <g
           id="g44"
           transform="translate(642.1553,617.912)">
          <path
             d="m 0,0 c 0,-73.442 -59.537,-132.978 -132.978,-132.978 -73.442,0 -132.979,59.536 -132.979,132.978 0,73.442 59.537,132.978 132.979,132.978 C -59.537,132.978 0,73.442 0,0"
             style="fill:#ffffff;fill-opacity:1;fill-rule:nonzero;stroke:none"
             id="path46"
             inkscape:connector-curvature="0" />
        </g>
        <g
           id="g48"
           transform="translate(238.3428,601.4315)">
          <path
             d="m 0,0 c 0,-81.559 -66.116,-147.676 -147.675,-147.676 -81.559,0 -147.676,66.117 -147.676,147.676 0,81.559 66.117,147.675 147.676,147.675 C -66.116,147.675 0,81.559 0,0"
             style="fill:#ffffff;fill-opacity:1;fill-rule:nonzero;stroke:none"
             id="path50"
             inkscape:connector-curvature="0" />
        </g>
        <g
           id="g52"
           transform="translate(556.7891,497.8934)" />
        <g
           id="g56"
           transform="translate(540.2109,466.9745)" />
      </g>
    </g>
    <g
       transform="matrix(0.35277777,0,0,-0.35277777,-1.4e-4,297)"
       id="g108">
      <g
         id="g110"
         clip-path="url(#clipPath114)">
        <g
           id="g116"
           transform="translate(-63.8477,221.9701)">
          <path
             d="m 0,0 c 0,-75.618 61.301,-136.92 136.92,-136.92 75.619,0 136.92,61.302 136.92,136.92 0,75.619 -61.301,136.92 -136.92,136.92 C 61.301,136.92 0,75.619 0,0"
             style="fill:#ffffff;fill-opacity:1;fill-rule:nonzero;stroke:none"
             id="path118"
             inkscape:connector-curvature="0" />
        </g>
        <g
           id="g120"
           transform="translate(50.5278,162.0843)" />
        <g
           id="g124"
           transform="translate(138.5366,205.0062)" />
        <g
           id="g128"
           transform="translate(113.9517,186.723)" />
        <g
           id="g132"
           transform="translate(130.6064,227.2523)" />
        <g
           id="g136"
           transform="translate(105.0151,122.1254)" />
        <g
           id="g140"
           transform="translate(219.437,126.3773)" />
      </g>
    </g>
    <g
       transform="matrix(0.35277777,0,0,-0.35277777,-1.4e-4,297)"
       id="g194">
      <g
         id="g196"
         clip-path="url(#clipPath200)">
        <g
           id="g202"
           transform="translate(80.1963,255.18)" />
        <g
           id="g206"
           transform="translate(476.8442,201.2816)" />
        <g
           id="g210"
           transform="translate(851.4561,693.5087)">
          <path
             d="m 0,0 c 0,-74.53 -60.41,-134.94 -134.939,-134.94 -74.531,0 -134.941,60.41 -134.941,134.94 0,74.53 60.41,134.94 134.941,134.94 C -60.41,134.94 0,74.53 0,0"
             style="fill:#ffffff;fill-opacity:1;fill-rule:nonzero;stroke:none"
             id="path212"
             inkscape:connector-curvature="0" />
        </g>
        <g
           id="g214"
           transform="translate(595.4897,725.9833)">
          <path
             d="M 0,0 -595.49,-50.887 V 115.907 H -0.427 Z"
             style="fill:#53b749;fill-opacity:1;fill-rule:nonzero;stroke:none"
             id="path216"
             inkscape:connector-curvature="0" />
        </g>
      </g>
    </g>
    <text
       y="23.36898"
       x="14.211399"
       style="font-variant:normal;font-weight:bold;font-stretch:normal;font-size:12.69999981px;font-family:'Roboto Slab';-inkscape-font-specification:RobotoSlab-Bold;writing-mode:lr-tb;fill:#ffffff;fill-opacity:1;fill-rule:nonzero;stroke:none;stroke-width:0.35277775"
       id="text220">
      <tspan
         style="stroke-width:0.35277775"
         x="14.211399 26.047802 33.039158 40.430561 47.072659 52.292355 60.229847 64.192253 70.605751 77.247864 80.232353 87.528526 94.519836 102.31765 107.53735 110.52187 114.81445"
         y="23.36898"
         sodipodi:role="line"
         id="tspan218">Modernise your IT</tspan>
    </text>
    <text
       y="31.012793"
       x="13.701849"
       style="font-variant:normal;font-weight:normal;font-stretch:normal;font-size:4.93888855px;font-family:Roboto;-inkscape-font-specification:Roboto-Regular;writing-mode:lr-tb;fill:#ffffff;fill-opacity:1;fill-rule:nonzero;stroke:none;stroke-width:0.35277775"
       id="text228">
      <tspan
         style="stroke-width:0.35277775"
         x="13.701849 16.360455 19.126232 20.299213 21.864841 24.502209 25.652973 28.107601 29.28059 31.917957 34.639286 37.405071 40.077 41.642628 42.818089 45.435692 47.0117 49.579922 52.148144 53.321133 56.200489 58.966267 60.630688 62.196308 65.856026 68.493385 70.069389 72.637611 73.8106 74.961357 77.460442 78.635887 80.151634 82.917412 84.092873 85.658501 88.29586 89.446632 91.901253 93.076714 95.714073 98.435402 101.20119 103.87312 105.43874 106.61173 108.27615 109.85211 112.42035 114.98859 117.72472 120.49051 124.76759 126.01712 127.19011 131.45239 134.21817 135.79367 138.36189 139.53735 142.25867 143.83467 146.40289 148.93655 150.08731 152.58638 155.15462 156.30537 158.33427 159.2529 160.42836 161.99397 164.66592 167.23415 168.40959 170.07401 171.64999 174.21822 176.78645 179.5226 182.28838 186.56544"
         y="31.012793"
         sodipodi:role="line"
         id="tspan222">To talk about Free Software is to talk about freedom. More precisely, the freedom</tspan>
      <tspan
         style="stroke-width:0.35277775"
         x="13.701849 15.217594 17.983372 19.156361 20.820774 22.396763 24.964977 27.533207 28.683971 30.970669 32.143665 34.815609 37.314678 39.8829 40.80154 41.974518 44.473595 46.039227 48.711163 51.447308 53.476696 54.395336 55.568317 58.067387 60.739323 63.376705 64.952705 67.520927 68.693901 71.331284 74.008163 76.744301 77.91729 79.068047 83.345131 86.066467 87.639977 90.37117 92.682587 95.250816 96.42379 98.922867 101.68865 103.35307 104.91869 108.57839 111.21576 112.79176 115.35999 116.60951 117.785 120.95575 123.63263 126.36877 127.54422 129.10988 131.78181 134.35004 135.92603 138.49425 139.66724 142.30461 143.8806 146.44882 147.62428 150.15991 152.47133 155.03955 157.71642 158.8894 163.16647 165.93225 167.50826 170.07648 171.24947 172.82545 175.39369 178.03105 180.53014 183.29591 185.97279 188.47188"
         y="35.744255"
         sodipodi:role="line"
         id="tspan224">to freely use, study, share and improve software. And there are even more reasons</tspan>
      <tspan
         style="stroke-width:0.35277775"
         x="13.701849 15.217594 17.983372 19.156361 21.655437 24.327374 27.048702 29.770039 32.535816 34.278255 35.843891 37.019337 39.636951 41.212948 43.781166 46.349392 47.522381 50.401745 53.167522 54.831936 56.397556 60.057278 62.69463 64.270638 66.83886 68.011856 69.162605 70.313377 72.847023 75.415245 78.092125 80.625771 83.193993 85.693085"
         y="40.475708"
         sodipodi:role="line"
         id="tspan226">to support Free Software licences.</tspan>
    </text>
    <g
       transform="matrix(0.35277777,0,0,-0.35277777,-1.4e-4,297)"
       id="g230">
      <g
         id="g232"
         clip-path="url(#clipPath236)">
        <g
           id="g238"
           transform="translate(96.5054,624.1312)" />
        <g
           id="g242"
           transform="translate(107.1885,538.224)" />
        <g
           id="g246"
           transform="translate(107.0405,527.2992)" />
        <g
           id="g250"
           transform="translate(101.7485,516.3749)" />
        <g
           id="g254"
           transform="translate(58.4829,590.6815)" />
        <g
           id="g258"
           transform="translate(159.8765,590.6815)" />
        <g
           id="g262"
           transform="translate(96.5054,628.704)" />
        <g
           id="g266"
           transform="translate(69.6196,617.5673)" />
        <g
           id="g270"
           transform="translate(141.3154,545.8715)" />
        <g
           id="g274"
           transform="translate(123.3916,617.5673)" />
        <g
           id="g278"
           transform="translate(51.6958,545.8715)" />
        <g
           id="g282"
           transform="translate(547.1211,561.8065)" />
        <g
           id="g286"
           transform="translate(507.1797,547.0096)" />
        <g
           id="g290"
           transform="translate(486.334,626.4183)" />
        <g
           id="g294"
           transform="translate(422.2393,587.4686)" />
        <g
           id="g298"
           transform="translate(549.1157,626.5004)">
          <path
             d="m 0,0 c 3.413,0 6.18,2.767 6.18,6.18 v 25.145 c 0,3.413 -2.767,6.18 -6.18,6.18 h -25.472 c -3.413,0 -6.18,-2.767 -6.18,-6.18 0,-3.413 2.767,-6.18 6.18,-6.18 H -6.18 V 6.18 C -6.18,2.767 -3.414,0 0,0"
             style="fill:#5ac8e7;fill-opacity:1;fill-rule:nonzero;stroke:none"
             id="path300"
             inkscape:connector-curvature="0" />
        </g>
        <g
           id="g302"
           transform="translate(445.8047,548.3344)" />
      </g>
    </g>
    <path
       d="m 35.894466,114.83442 h -3.699227 c -0.796573,0 -1.442156,-0.64558 -1.442156,-1.44215 0,-0.79657 0.645583,-1.44216 1.442156,-1.44216 h 3.699227 c 0.796573,0 1.442156,0.64559 1.442156,1.44216 0,0.79657 -0.645583,1.44215 -1.442156,1.44215"
       style="fill:#3594ce;fill-opacity:1;fill-rule:nonzero;stroke:none;stroke-width:0.35277775"
       id="path252"
       inkscape:connector-curvature="0" />
    <path
       d="m 39.292036,128.87542 -1.353611,-4.67325 c -0.19544,-0.31327 -0.49812,-0.51753 -0.829731,-0.59478 -0.0988,-0.0229 -0.199678,-0.0349 -0.301278,-0.0349 -0.240242,2.7e-4 -0.482952,0.0656 -0.70132,0.20286 l -3.227211,3.60608 -4.639378,1.34268 c -0.310452,0.19544 -0.512591,0.49954 -0.588082,0.83256 -0.0751,0.33302 -0.024,0.69603 0.17145,1.0093 l 3.59763,3.26178 1.353251,4.67325 c 0.195789,0.31326 0.49848,0.51752 0.829738,0.59478 0.0988,0.0233 0.199671,0.0349 0.301271,0.0349 0.240242,0 0.483301,-0.0656 0.70132,-0.20284 l 3.227211,-3.60645 4.639738,-1.34267 c 0.310441,-0.19509 0.512231,-0.49883 0.587722,-0.8322 0.0751,-0.33338 0.02429,-0.69604 -0.171101,-1.0093 z"
       style="fill:#3594ce;fill-opacity:1;fill-rule:nonzero;stroke:none;stroke-width:0.35277775"
       id="path86"
       inkscape:connector-curvature="0" />
    <path
       d="M 83.5381,127.3754 H 39.591857 l 0.322088,1.11162 3.44946,3.12737 0.0727,0.066 0.0522,0.0833 c 0.287869,0.46143 0.380648,1.00788 0.260699,1.53811 -0.12029,0.53199 -0.43991,0.9846 -0.900279,1.27423 l -0.084,0.0529 -0.0956,0.0279 -4.445,1.28622 -1.56246,1.7459 H 83.53808 Z"
       style="fill:#53b749;fill-opacity:1;fill-rule:nonzero;stroke:none;stroke-width:0.35277775"
       id="path90"
       inkscape:connector-curvature="0" />
    <text
       y="134.41269"
       x="45.08186"
       style="font-variant:normal;font-weight:bold;font-stretch:normal;font-size:6.3499999px;font-family:'Roboto Slab';-inkscape-font-specification:RobotoSlab-Bold;writing-mode:lr-tb;fill:#ffffff;fill-opacity:1;fill-rule:nonzero;stroke:none;stroke-width:0.35277775"
       id="text94">
      <tspan
         style="stroke-width:0.35277775"
         x="45.08186 47.291668 51.32391 55.323147 58.835957 62.407825 65.648232 68.016792 70.061485 73.623833"
         y="134.41269"
         sodipodi:role="line"
         id="tspan92">Innovation</tspan>
    </text>
    <text
       y="143.20543"
       x="45.08186"
       style="font-variant:normal;font-weight:normal;font-stretch:normal;font-size:4.23333311px;font-family:Roboto;-inkscape-font-specification:Roboto-Regular;writing-mode:lr-tb;fill:#ffffff;fill-opacity:1;fill-rule:nonzero;stroke:none;stroke-width:0.35277775"
       id="text102">
      <tspan
         style="stroke-width:0.35277775"
         x="45.08186 47.841991 48.891857 51.177441 52.570629 54.814297 57.057957 58.107822 60.618183 63.031178 64.50016 65.884453 69.063698 71.366631 72.759819 75.003487 76.053352 77.082054 78.110764 80.324791 82.568443 84.905251 87.119286 89.36293"
         y="143.20543"
         sodipodi:role="line"
         id="tspan96">A Free Software licence</tspan>
      <tspan
         style="stroke-width:0.35277775"
         x="45.08186 47.325527 49.662319 51.876354 54.289364 56.621929 57.974049 60.276981 62.651882 64.895546 67.079948 68.129814 69.158516 71.495323 73.832115 76.207436 78.227173 80.530098 81.914406 82.943092 85.356102 87.692894 88.742767 90.211723 92.624733 94.055603"
         y="147.43877"
         sodipodi:role="line"
         id="tspan98">encourages innovation for</tspan>
      <tspan
         style="stroke-width:0.35277775"
         x="45.08186 47.053753 49.466747 51.799313 53.230175 54.280041 56.464436 58.87743 60.346409 61.730701 64.90995 67.212883 68.609032 70.852699"
         y="151.67209"
         sodipodi:role="line"
         id="tspan100">your software.</tspan>
    </text>
    <text
       y="133.97496"
       x="34.044994"
       style="font-variant:normal;font-weight:bold;font-stretch:normal;font-size:6.3499999px;font-family:'Roboto Slab';-inkscape-font-specification:RobotoSlab-Bold;writing-mode:lr-tb;fill:#ffffff;fill-opacity:1;fill-rule:nonzero;stroke:none;stroke-width:0.35277775"
       id="text106">
      <tspan
         style="stroke-width:0.35277775"
         x="34.044994"
         y="133.97496"
         id="tspan104">1</tspan>
    </text>
    <path
       d="m 34.044814,76.820386 c -5.792607,0 -10.488079,4.695825 -10.488079,10.488081 0,3.881618 3.622671,7.808383 4.641851,10.488433 0.469188,1.23367 0.602189,5.24439 0.602189,5.24439 h 10.488081 c 0,0 0.13335,-4.01072 0.602189,-5.24439 1.01918,-2.68005 4.64221,-6.606815 4.64221,-10.488433 0,-5.792256 -4.695831,-10.488081 -10.488441,-10.488081 m 0,2.884308 c 4.19277,0 7.60413,3.411008 7.60413,7.603773 0,1.754368 -1.343379,3.94688 -2.52871,5.881158 -0.763058,1.246015 -1.484138,2.422875 -1.925108,3.582115 -0.30798,0.80962 -0.49883,2.12689 -0.617011,3.38488 h -5.066599 c -0.118181,-1.25799 -0.309031,-2.57526 -0.617011,-3.38488 -0.44097,-1.15924 -1.16169,-2.3361 -1.9251,-3.582115 -1.185339,-1.934278 -2.52871,-4.12679 -2.52871,-5.881158 0,-4.192765 3.41136,-7.603773 7.604119,-7.603773"
       style="fill:#3594ce;fill-opacity:1;fill-rule:nonzero;stroke:none;stroke-width:0.35277775"
       id="path240"
       inkscape:connector-curvature="0" />
    <path
       d="m 37.813576,107.12652 h -7.53745 c -0.79657,0 -1.442151,-0.64558 -1.442151,-1.44215 0,-0.79657 0.645581,-1.44216 1.442151,-1.44216 h 7.53745 c 0.796579,0 1.442159,0.64559 1.442159,1.44216 0,0.79657 -0.64558,1.44215 -1.442159,1.44215"
       style="fill:#3594ce;fill-opacity:1;fill-rule:nonzero;stroke:none;stroke-width:0.35277775"
       id="path244"
       inkscape:connector-curvature="0" />
    <path
       d="m 37.761366,110.98055 h -7.43303 c -0.79657,0 -1.442151,-0.64558 -1.442151,-1.44215 0,-0.79658 0.645581,-1.44216 1.442151,-1.44216 h 7.43303 c 0.79657,0 1.442159,0.64558 1.442159,1.44216 0,0.79657 -0.645589,1.44215 -1.442159,1.44215"
       style="fill:#3594ce;fill-opacity:1;fill-rule:nonzero;stroke:none;stroke-width:0.35277775"
       id="path248"
       inkscape:connector-curvature="0" />
    <path
       d="m 20.631325,88.620697 h -8.942211 c -0.796572,0 -1.442155,-0.645586 -1.442155,-1.442154 0,-0.796573 0.645583,-1.442159 1.442155,-1.442159 h 8.942211 c 0.79657,0 1.44216,0.645586 1.44216,1.442159 0,0.796568 -0.64559,1.442154 -1.44216,1.442154"
       style="fill:#5ac8e7;fill-opacity:1;fill-rule:nonzero;stroke:none;stroke-width:0.35277775"
       id="path256"
       inkscape:connector-curvature="0" />
    <path
       d="m 56.400735,88.620697 h -8.94257 c -0.796218,0 -1.442148,-0.645586 -1.442148,-1.442154 0,-0.796573 0.64593,-1.442159 1.442148,-1.442159 h 8.94257 c 0.796571,0 1.442151,0.645586 1.442151,1.442159 0,0.796568 -0.64558,1.442154 -1.442151,1.442154"
       style="fill:#5ac8e7;fill-opacity:1;fill-rule:nonzero;stroke:none;stroke-width:0.35277775"
       id="path260"
       inkscape:connector-curvature="0" />
    <path
       d="m 34.044814,75.207203 c -0.796568,0 -1.442159,-0.645586 -1.442159,-1.442156 v -8.942213 c 0,-0.796568 0.645591,-1.442154 1.442159,-1.442154 0.796571,0 1.442162,0.645586 1.442162,1.442154 v 8.942213 c 0,0.79657 -0.645591,1.442156 -1.442162,1.442156"
       style="fill:#5ac8e7;fill-opacity:1;fill-rule:nonzero;stroke:none;stroke-width:0.35277775"
       id="path264"
       inkscape:connector-curvature="0" />
    <path
       d="m 24.560105,79.13598 c -0.36901,0 -0.73801,-0.140756 -1.01988,-0.422275 l -6.32319,-6.323187 c -0.563033,-0.563388 -0.563033,-1.476375 0,-2.039763 0.56339,-0.563031 1.47638,-0.563031 2.03976,0 l 6.32319,6.323192 c 0.56303,0.563383 0.56303,1.476375 0,2.039758 -0.28187,0.281519 -0.65087,0.422275 -1.01988,0.422275"
       style="fill:#5ac8e7;fill-opacity:1;fill-rule:nonzero;stroke:none;stroke-width:0.35277775"
       id="path268"
       inkscape:connector-curvature="0" />
    <path
       d="m 49.852785,104.42866 c -0.368999,0 -0.73836,-0.14076 -1.019879,-0.42228 l -6.323179,-6.32317 c -0.563042,-0.56339 -0.563042,-1.47638 0,-2.03977 0.56338,-0.56303 1.476369,-0.56303 2.039757,0 l 6.323193,6.32318 c 0.563028,0.56339 0.563028,1.47637 0,2.03976 -0.281882,0.28152 -0.650881,0.42228 -1.019892,0.42228"
       style="fill:#5ac8e7;fill-opacity:1;fill-rule:nonzero;stroke:none;stroke-width:0.35277775"
       id="path272"
       inkscape:connector-curvature="0" />
    <path
       d="m 43.529674,79.13598 c -0.369009,0 -0.73837,-0.140756 -1.019889,-0.422275 -0.563031,-0.563383 -0.563031,-1.476375 0,-2.039758 l 6.32319,-6.323192 c 0.56339,-0.563031 1.47638,-0.563031 2.039411,0 0.56339,0.563388 0.56339,1.476375 0,2.039763 l -6.32283,6.323187 c -0.281872,0.281519 -0.650881,0.422275 -1.019882,0.422275"
       style="fill:#5ac8e7;fill-opacity:1;fill-rule:nonzero;stroke:none;stroke-width:0.35277775"
       id="path276"
       inkscape:connector-curvature="0" />
    <path
       d="m 18.236985,104.42866 c -0.369,0 -0.73836,-0.14076 -1.01988,-0.42228 -0.563032,-0.56339 -0.563032,-1.47637 0,-2.03976 l 6.32319,-6.32318 c 0.56339,-0.56303 1.47637,-0.56303 2.03976,0 0.56303,0.56339 0.56303,1.47638 0,2.03977 l -6.32319,6.32317 c -0.28187,0.28152 -0.65087,0.42228 -1.01988,0.42228"
       style="fill:#5ac8e7;fill-opacity:1;fill-rule:nonzero;stroke:none;stroke-width:0.35277775"
       id="path280"
       inkscape:connector-curvature="0" />
    <path
       d="m 196.42268,121.35428 -1.35361,-4.6736 c -0.19544,-0.31291 -0.49812,-0.51717 -0.82973,-0.59478 -0.0984,-0.0229 -0.19968,-0.0346 -0.30128,-0.0346 -0.24024,0 -0.48295,0.0656 -0.70096,0.20284 l -3.22721,3.6061 -4.63974,1.34267 c -0.31044,0.19544 -0.51223,0.49918 -0.58773,0.83256 -0.0755,0.33302 -0.0243,0.69567 0.1711,1.00929 l 3.59763,3.26179 1.35361,4.67324 c 0.19544,0.31327 0.49812,0.51753 0.82973,0.59479 0.0984,0.0229 0.19967,0.0346 0.30127,0.0346 0.24024,0 0.48295,-0.0653 0.70097,-0.20249 l 3.22721,-3.60645 4.63974,-1.34267 c 0.31044,-0.19544 0.51258,-0.49918 0.58772,-0.83256 0.0752,-0.33302 0.0243,-0.69603 -0.17109,-1.00894 z"
       style="fill:#2e3575;fill-opacity:1;fill-rule:nonzero;stroke:none;stroke-width:0.35277775"
       id="path54"
       inkscape:connector-curvature="0" />
    <path
       d="m 190.57426,132.26178 c -0.52917,-0.12347 -0.97966,-0.44626 -1.26823,-0.90876 l -0.0519,-0.0829 -0.0272,-0.0942 -1.29787,-4.48133 -3.15948,-2.86421 h -39.78902 v 10.31346 h 46.65203 v -1.92158 c -0.19261,0.0596 -0.39299,0.0924 -0.5969,0.0924 -0.15486,0 -0.31009,-0.0177 -0.46143,-0.0529"
       style="fill:#53b749;fill-opacity:1;fill-rule:nonzero;stroke:none;stroke-width:0.35277775"
       id="path58"
       inkscape:connector-curvature="0" />
    <text
       y="126.57853"
       x="190.92879"
       style="font-variant:normal;font-weight:bold;font-stretch:normal;font-size:6.3499999px;font-family:'Roboto Slab';-inkscape-font-specification:RobotoSlab-Bold;writing-mode:lr-tb;fill:#ffffff;fill-opacity:1;fill-rule:nonzero;stroke:none;stroke-width:0.35277775"
       id="text62">
      <tspan
         style="stroke-width:0.35277775"
         x="190.92879"
         y="126.57853"
         id="tspan60">2</tspan>
    </text>
    <text
       y="140.54442"
       x="145.28249"
       style="font-variant:normal;font-weight:normal;font-stretch:normal;font-size:4.23333311px;font-family:Roboto;-inkscape-font-specification:Roboto-Regular;writing-mode:lr-tb;fill:#ffffff;fill-opacity:1;fill-rule:nonzero;stroke:none;stroke-width:0.35277775"
       id="text70">
      <tspan
         style="stroke-width:0.35277775"
         x="145.28249 147.56847 148.96167 151.20532 153.44901 154.49886 157.00923 159.42224 160.8912 162.2755 165.45473 167.75766 169.15086 171.39452 172.4444 174.81929 176.20995 178.42567 180.4492 182.69286 185.02969 186.41399 188.59837"
         y="140.54442"
         sodipodi:role="line"
         id="tspan64">Free Software prevents</tspan>
      <tspan
         style="stroke-width:0.35277775"
         x="145.28249 148.99088 151.40388 153.74068 156.15367 158.52858 160.94157 161.97028 162.99898 165.24265 167.42705 168.47691 170.77985 173.11665 175.50427 176.55412 178.79779 181.13458 183.46715 185.7701 188.10689 190.32094 192.56459 194.74898"
         y="144.77773"
         sodipodi:role="line"
         id="tspan66">monopolies and enhances</tspan>
      <tspan
         style="stroke-width:0.35277775"
         x="145.28249 147.49651 149.90952 153.6179 155.99281 158.23648 159.62077 160.64948 162.03377 163.06247 165.47548 167.81227"
         y="149.01108"
         sodipodi:role="line"
         id="tspan68">competition.</tspan>
    </text>
    <text
       y="130.86766"
       x="148.8764"
       style="font-variant:normal;font-weight:bold;font-stretch:normal;font-size:6.3499999px;font-family:'Roboto Slab';-inkscape-font-specification:RobotoSlab-Bold;writing-mode:lr-tb;fill:#ffffff;fill-opacity:1;fill-rule:nonzero;stroke:none;stroke-width:0.35277775"
       id="text74">
      <tspan
         style="stroke-width:0.35277775"
         x="148.8764 152.9912 156.55354 162.45905 166.30081 169.68535 172.05389 174.09862 176.46715 178.51186 182.0742"
         y="130.86766"
         sodipodi:role="line"
         id="tspan72">Competition</tspan>
    </text>
    <path
       d="m 193.01202,98.80716 c 1.20438,0 2.18017,-0.97614 2.18017,-2.18017 v -8.870597 c 0,-1.204028 -0.97579,-2.180166 -2.18017,-2.180166 h -8.98596 c -1.20402,0 -2.18016,0.976138 -2.18016,2.180166 0,1.204032 0.97614,2.180167 2.18016,2.180167 h 6.80579 v 6.69043 c 0,1.20403 0.97614,2.18017 2.18017,2.18017"
       style="fill:#3594ce;fill-opacity:1;fill-rule:nonzero;stroke:none;stroke-width:0.35277775"
       id="path284"
       inkscape:connector-curvature="0" />
    <path
       d="m 178.92158,104.02717 c 0.55809,0 1.11583,-0.21307 1.54164,-0.63852 l 14.09065,-14.090654 c 0.85125,-0.851254 0.85125,-2.232025 0,-3.083279 -0.85161,-0.851252 -2.23203,-0.851252 -3.08328,0 l -14.09065,14.090653 c -0.8516,0.85125 -0.8516,2.23167 0,3.08328 0.42545,0.42545 0.98355,0.63852 1.54164,0.63852"
       style="fill:#3594ce;fill-opacity:1;fill-rule:nonzero;stroke:none;stroke-width:0.35277775"
       id="path288"
       inkscape:connector-curvature="0" />
    <path
       d="m 171.56768,76.013553 c 1.20403,0 2.18017,-0.976135 2.18017,-2.180167 v -8.87095 c 0,-1.204031 -0.97614,-2.180167 -2.18017,-2.180167 h -8.98596 c -1.20403,0 -2.18016,0.976136 -2.18016,2.180167 0,1.204383 0.97613,2.180167 2.18016,2.180167 h 6.80579 v 6.690783 c 0,1.204032 0.97579,2.180167 2.18017,2.180167"
       style="fill:#53b749;fill-opacity:1;fill-rule:nonzero;stroke:none;stroke-width:0.35277775"
       id="path292"
       inkscape:connector-curvature="0" />
    <path
       d="m 148.9565,89.754141 c 0.55809,0 1.11584,-0.212725 1.54164,-0.638527 l 22.61094,-22.611292 c 0.8516,-0.851606 0.8516,-2.232025 0,-3.083277 -0.85161,-0.851606 -2.23203,-0.851606 -3.08293,0 l -22.61129,22.611289 c -0.8516,0.851607 -0.8516,2.232025 0,3.08328 0.42545,0.42545 0.98355,0.638527 1.54164,0.638527"
       style="fill:#53b749;fill-opacity:1;fill-rule:nonzero;stroke:none;stroke-width:0.35277775"
       id="path296"
       inkscape:connector-curvature="0" />
    <path
       d="m 157.26985,103.55981 c 0.55809,0 1.11583,-0.21307 1.54164,-0.63852 l 36.44582,-36.445829 c 0.85126,-0.851252 0.85126,-2.232025 0,-3.083277 -0.85125,-0.851254 -2.23202,-0.851254 -3.08328,0 L 155.72821,99.83801 c -0.8516,0.85125 -0.8516,2.23167 0,3.08328 0.42545,0.42545 0.98355,0.63852 1.54164,0.63852"
       style="fill:#5ac8e7;fill-opacity:1;fill-rule:nonzero;stroke:none;stroke-width:0.35277775"
       id="path304"
       inkscape:connector-curvature="0" />
    <path
       d="m 17.824943,239.82026 c 2.452158,2.17735 6.173611,1.91382 8.351308,-0.53798 l 7.011811,-8.13824 c 1.778354,-2.04963 1.943454,-5.00062 0.395464,-7.24182 l -2.64795,1.84362 c 0.713317,1.01847 0.6477,2.35902 -0.19191,3.32705 l -7.065082,8.14175 c -0.98813,1.13877 -2.689224,1.25942 -3.827991,0.27129 l -1.651,-1.43298 c -0.569736,-0.49389 -0.880533,-1.11337 -0.93345,-1.85738 -0.05256,-0.74471 0.167922,-1.40158 0.662164,-1.97061 l 7.114116,-8.19891 c 0.790575,-0.91123 2.157943,-1.22132 3.26637,-0.65899 l 1.452385,-2.88149 c -0.994479,-0.4639 -2.023533,-0.65828 -3.033887,-0.58667 -1.541993,0.10936 -2.98944,0.79975 -4.026959,1.99531 l -7.114117,8.19891 c -1.037519,1.19521 -1.516944,2.72556 -1.407583,4.2672 0.112889,1.59561 0.852664,2.98556 2.048228,4.02343 z"
       style="fill:#3594ce;fill-opacity:1;fill-rule:nonzero;stroke:none;stroke-width:0.35277775"
       id="path122"
       inkscape:connector-curvature="0" />
    <path
       d="m 48.87249,224.67837 -0.226835,0.59267 c -0.252942,0.6611 -0.99413,0.99201 -1.655233,0.73871 l -7.114117,-2.72203 c -0.661107,-0.25329 -0.992013,-0.99448 -0.739071,-1.65558 l 0.226838,-0.59232 c 0.253293,-0.66146 0.994126,-0.99236 1.655233,-0.73907 l 7.114117,2.72239 c 0.661103,0.25294 0.99201,0.99413 0.739068,1.65523"
       style="fill:#5ac8e7;fill-opacity:1;fill-rule:nonzero;stroke:none;stroke-width:0.35277775"
       id="path126"
       inkscape:connector-curvature="0" />
    <path
       d="m 40.199485,231.12828 -0.579614,0.25859 c -0.646287,0.28857 -1.404409,-10e-4 -1.692979,-0.64805 l -1.779765,-3.98639 c -0.288573,-0.64629 0.0019,-1.40441 0.648052,-1.69298 l 0.579263,-0.25894 c 0.646642,-0.28822 1.40476,0.002 1.693333,0.64805 l 1.77941,3.98674 c 0.288574,0.64629 -0.0013,1.40441 -0.6477,1.69298"
       style="fill:#5ac8e7;fill-opacity:1;fill-rule:nonzero;stroke:none;stroke-width:0.35277775"
       id="path130"
       inkscape:connector-curvature="0" />
    <path
       d="m 46.074892,216.83044 -3.986742,1.77977 c -0.64629,0.28857 -1.404408,-0.001 -1.692981,-0.64806 l -0.258586,-0.57961 c -0.288573,-0.64629 0.0013,-1.40405 0.6477,-1.69263 l 3.986742,-1.77976 c 0.64629,-0.28857 1.404408,0.002 1.692982,0.64805 l 0.258585,0.57926 c 0.288573,0.64629 -0.0013,1.40441 -0.6477,1.69298"
       style="fill:#5ac8e7;fill-opacity:1;fill-rule:nonzero;stroke:none;stroke-width:0.35277775"
       id="path134"
       inkscape:connector-curvature="0" />
    <path
       d="m 37.046851,253.91687 -1.353609,-4.67325 c -0.195439,-0.31326 -0.498123,-0.51787 -0.829733,-0.59513 -0.09878,-0.0226 -0.199673,-0.0346 -0.301273,-0.0346 -0.240242,2.6e-4 -0.482952,0.0656 -0.700969,0.20284 l -3.22721,3.6061 -4.639734,1.34267 c -0.310444,0.19544 -0.512233,0.49918 -0.587728,0.83256 -0.07549,0.33302 -0.02434,0.69567 0.171098,1.00929 l 3.597626,3.26143 1.353609,4.6736 c 0.195439,0.31327 0.498123,0.51753 0.829733,0.59479 0.09842,0.0229 0.199673,0.0346 0.301273,0.0346 0.240242,0 0.482952,-0.0653 0.700969,-0.2025 l 3.227212,-3.60644 4.639734,-1.34267 c 0.310443,-0.19544 0.512585,-0.49883 0.587727,-0.83256 0.07514,-0.33302 0.02434,-0.69568 -0.171098,-1.00894 z"
       style="fill:#2e3575;fill-opacity:1;fill-rule:nonzero;stroke:none;stroke-width:0.35277775"
       id="path138"
       inkscape:connector-curvature="0" />
    <path
       d="M 77.412353,252.4169 H 37.347028 l 0.321734,1.1116 3.449815,3.12738 0.07267,0.066 0.05186,0.0829 c 0.288219,0.46179 0.380645,1.00824 0.260702,1.53847 -0.120298,0.53198 -0.439915,0.9846 -0.899935,1.27423 l -0.08431,0.0529 -0.0956,0.0279 -4.445,1.28622 -1.5621,1.74555 h 42.995495 z"
       style="fill:#53b749;fill-opacity:1;fill-rule:nonzero;stroke:none;stroke-width:0.35277775"
       id="path142"
       inkscape:connector-curvature="0" />
    <text
       y="268.24673"
       x="42.836678"
       style="font-variant:normal;font-weight:normal;font-stretch:normal;font-size:4.23333311px;font-family:Roboto;-inkscape-font-specification:Roboto-Regular;writing-mode:lr-tb;fill:#ffffff;fill-opacity:1;fill-rule:nonzero;stroke:none;stroke-width:0.35277775"
       id="text152">
      <tspan
         style="stroke-width:0.35277775"
         x="42.836678 45.122673 46.515865 48.759533 51.003201 52.053066 54.563442 56.976429 58.445393 59.829685 63.00893 65.311867 66.705055 68.948723 69.998589 72.331154 74.574821 75.603523 77.978439 80.162827 81.212685 82.544914 84.957916 86.007797 88.39537 90.610703 92.634216 94.877892 95.90657 98.31958 100.69451"
         y="268.24673"
         sodipodi:role="line"
         id="tspan144">Free Software helps to develop</tspan>
      <tspan
         style="stroke-width:0.35277775"
         x="42.836678 45.13961 47.476406 49.86401 50.913876 54.62228 56.925205 57.953907 60.290699 61.675007 63.97794 65.006645 67.343437 68.393303 69.777611 72.080544 73.10923 74.137932 76.550941 77.931007 80.174675 82.562286 83.612144 85.796547 88.209557 89.678505 91.062813 94.242043 96.544991 97.936043 100.17971"
         y="272.48004"
         sodipodi:role="line"
         id="tspan146">and maintain tailored software</tspan>
      <tspan
         style="stroke-width:0.35277775"
         x="42.836678 44.220978 46.553539 48.856472 50.24078 51.290646 53.475048 55.807613 56.836308 58.2206 60.405003 61.454868 63.414051 65.827065 68.15963 69.590492 70.640358 72.977165 75.220818 77.4645 79.852089 82.036491 82.866211 83.916107 86.252892 88.665916 90.050194 91.100067 92.111816 94.444397 96.628792 98.013107 99.062981 100.44727 102.77982 105.02351"
         y="276.71338"
         sodipodi:role="line"
         id="tspan148">that suits your needs, not just the</tspan>
      <tspan
         style="stroke-width:0.35277775"
         x="42.836678 44.860207 47.103878 49.440685 51.828274 54.241283 55.705997 56.320255 58.504658 59.554523 61.929432 64.262001 66.446404 67.475105 69.811897 72.055565 74.239967 76.424355 77.474236 81.182625 83.595634 85.983231 88.226906 89.2556 90.368965"
         y="280.94672"
         sodipodi:role="line"
         id="tspan150">vendor’s business model.</tspan>
    </text>
    <text
       y="259.01645"
       x="31.050152"
       style="font-variant:normal;font-weight:bold;font-stretch:normal;font-size:6.3499999px;font-family:'Roboto Slab';-inkscape-font-specification:RobotoSlab-Bold;writing-mode:lr-tb;fill:#ffffff;fill-opacity:1;fill-rule:nonzero;stroke:none;stroke-width:0.35277775"
       id="text158">
      <tspan
         style="stroke-width:0.35277775"
         x="31.050152"
         y="259.01645"
         id="tspan154">3</tspan>
      <tspan
         style="stroke-width:0.35277775"
         x="42.835754 47.052792 51.015194 53.291027 56.853382 60.850079 64.412422 70.317924"
         y="259.45462"
         sodipodi:role="line"
         id="tspan156">Autonomy</tspan>
    </text>
    <path
       d="m 28.29133,206.97817 -0.693914,-4.70006 c -0.420511,-2.84903 1.555046,-5.50897 4.404079,-5.92984 2.848679,-0.42016 5.508625,1.5554 5.929135,4.40443 l 0.693915,4.70006 c 0.3302,2.23591 -0.81915,4.3501 -2.704396,5.36187 l 0.534813,3.62338 c 3.820229,-1.39135 6.275917,-5.32447 5.659612,-9.5003 l -0.693912,-4.70041 c -0.70485,-4.77344 -5.16114,-8.0832 -9.934575,-7.3787 -4.773438,0.70485 -8.083198,5.16078 -7.378348,9.93457 l 0.693561,4.70006 c 0.616655,4.17618 4.104216,7.23194 8.16363,7.45948 l -0.53481,-3.62267 c -2.097616,-0.42404 -3.80859,-2.11596 -4.13879,-4.35187"
       style="fill:#3594ce;fill-opacity:1;fill-rule:nonzero;stroke:none;stroke-width:0.35277775"
       id="path204"
       inkscape:connector-curvature="0" />
    <path
       d="m 199.10897,249.1065 -1.35361,-4.67325 c -0.19544,-0.31362 -0.49812,-0.51787 -0.82973,-0.59513 -0.0984,-0.0229 -0.19967,-0.0346 -0.30127,-0.0346 -0.24025,0 -0.48296,0.0653 -0.70097,0.20284 l -3.22721,3.6061 -4.63974,1.34267 c -0.31044,0.19544 -0.51223,0.49918 -0.58773,0.83256 -0.0755,0.33302 -0.0243,0.69567 0.1711,1.00894 l 3.59763,3.26178 1.35361,4.67325 c 0.19544,0.31362 0.49812,0.51788 0.82973,0.59514 0.0984,0.0229 0.19967,0.0346 0.30127,0.0346 0.24025,0 0.48296,-0.0653 0.70097,-0.20285 l 3.22722,-3.60609 4.63973,-1.34268 c 0.31044,-0.19543 0.51258,-0.49918 0.58773,-0.83255 0.0751,-0.33338 0.0243,-0.69603 -0.1711,-1.00895 z"
       style="fill:#3594ce;fill-opacity:1;fill-rule:nonzero;stroke:none;stroke-width:0.35277775"
       id="path170"
       inkscape:connector-curvature="0" />
    <path
       d="m 193.26059,260.01404 c -0.52952,-0.12382 -0.97966,-0.44626 -1.26823,-0.90875 l -0.0519,-0.0833 -0.0272,-0.0938 -1.29787,-4.48098 -3.15948,-2.86456 h -39.78909 v 10.31346 h 46.65203 v -1.92158 c -0.19261,0.0596 -0.39299,0.0924 -0.5969,0.0924 -0.15486,0 -0.31009,-0.0177 -0.46143,-0.0529"
       style="fill:#53b749;fill-opacity:1;fill-rule:nonzero;stroke:none;stroke-width:0.35277775"
       id="path174"
       inkscape:connector-curvature="0" />
    <text
       y="253.44933"
       x="193.26234"
       style="font-variant:normal;font-weight:bold;font-stretch:normal;font-size:6.3499999px;font-family:'Roboto Slab';-inkscape-font-specification:RobotoSlab-Bold;writing-mode:lr-tb;fill:#ffffff;fill-opacity:1;fill-rule:nonzero;stroke:none;stroke-width:0.35277775"
       id="text178">
      <tspan
         style="stroke-width:0.35277775"
         x="193.26234"
         y="253.44933"
         id="tspan176">4</tspan>
    </text>
    <text
       y="268.29651"
       x="147.66719"
       style="font-variant:normal;font-weight:normal;font-stretch:normal;font-size:4.23333311px;font-family:Roboto;-inkscape-font-specification:Roboto-Regular;writing-mode:lr-tb;fill:#ffffff;fill-opacity:1;fill-rule:nonzero;stroke:none;stroke-width:0.35277775"
       id="text188">
      <tspan
         style="stroke-width:0.35277775"
         x="147.66719 149.95317 151.34637 153.59006 155.83371 156.88358 159.39397 161.80695 163.27591 164.6602 167.83945 170.14236 171.53557 173.77922 174.82912 175.8578 176.88651 179.10054 181.34422 183.68102 185.89503 188.13872 190.32312"
         y="268.29651"
         sodipodi:role="line"
         id="tspan180">Free Software licences</tspan>
      <tspan
         style="stroke-width:0.35277775"
         x="147.66719 149.06036 151.30405 152.33275 154.66954 156.1385 158.5515 159.94342 162.15746 164.40114 165.45099 166.47969 168.8165 171.20409 173.44777 175.82268 178.06633 180.40312 182.79073 185.03438 187.37122 189.58522 191.8289 192.87877 194.34773 195.73036 198.14336 201.85173"
         y="272.52985"
         sodipodi:role="line"
         id="tspan182">reinforce independence from</tspan>
      <tspan
         style="stroke-width:0.35277775"
         x="147.66719 149.6907 151.93439 154.27118 156.6588 159.07179 160.50264 162.68706 163.73691 166.03986 168.37665 170.76425 171.81412 174.18904 175.5746 177.95796 180.00688 181.0356 183.42317 185.66685 186.71672 190.42513 192.83812 194.23174 196.47542"
         y="276.76318"
         sodipodi:role="line"
         id="tspan184">vendors and provide more</tspan>
      <tspan
         style="stroke-width:0.35277775"
         x="147.66719 149.88121 152.21378 154.62679 155.65547 157.86952 160.11319 161.16306 162.19176 164.52855 165.57841 167.76282 170.00648 171.46951 173.51845 174.54716 176.76118 179.00488 180.05473 182.42961 183.81984 186.20322 188.25215 189.28087 191.66844 193.91212 195.34297 197.52739"
         y="280.99652"
         sodipodi:role="line"
         id="tspan186">choice in service providers.</tspan>
    </text>
    <text
       y="258.61993"
       x="151.56288"
       style="font-variant:normal;font-weight:bold;font-stretch:normal;font-size:6.3499999px;font-family:'Roboto Slab';-inkscape-font-specification:RobotoSlab-Bold;writing-mode:lr-tb;fill:#ffffff;fill-opacity:1;fill-rule:nonzero;stroke:none;stroke-width:0.35277775"
       id="text192">
      <tspan
         style="stroke-width:0.35277775"
         x="151.56288 156.46507 160.02742 161.58318 165.30428 168.86662 172.21307 176.08659 178.61388 180.65858"
         y="258.61993"
         sodipodi:role="line"
         id="tspan190">No Lock-in</tspan>
    </text>
    <path
       d="m 168.21989,225.99233 h -4.22804 c -0.38912,0 -0.67275,-0.369 -0.57221,-0.74506 l 1.15888,-4.34658 c -0.70379,-0.48577 -1.16523,-1.29716 -1.16523,-2.21721 0,-1.48731 1.20544,-2.69275 2.6924,-2.69275 1.48731,0 2.69276,1.20544 2.69276,2.69275 0,0.92005 -0.46144,1.73144 -1.16523,2.21721 l 1.15923,4.34658 c 0.10019,0.37606 -0.18345,0.74506 -0.57256,0.74506 m 8.94362,-16.7065 1.97062,-2.91888 c 3.35104,-4.96288 2.03976,-11.72668 -2.92347,-15.07772 -4.96288,-3.35139 -11.72669,-2.03976 -15.07772,2.92312 l -4.49827,6.6615 3.61209,2.43911 4.49827,-6.66186 c 2.00589,-2.97109 6.05543,-3.75603 9.02688,-1.75013 2.97109,2.0066 3.75637,6.05578 1.75013,9.02723 l -3.59128,5.31848 h -16.40981 c -1.60161,0 -2.90019,1.29822 -2.90019,2.89983 v 17.69004 c 0,1.60197 1.29858,2.89983 2.90019,2.89983 h 21.16984 c 1.60161,0 2.90019,-1.29786 2.90019,-2.89983 v -17.69004 c 0,-1.44039 -1.05093,-2.63525 -2.42747,-2.86068"
       style="fill:#3594ce;fill-opacity:1;fill-rule:nonzero;stroke:none;stroke-width:0.35277775"
       id="path208"
       inkscape:connector-curvature="0" />
    <path
       d="M 2.14e-4,594.00008 H 210 V 297 H 2.14e-4 Z"
       style="fill:#2e3575;fill-opacity:1;fill-rule:nonzero;stroke:none;stroke-width:0.35277775"
       id="path4038"
       inkscape:connector-curvature="0" />
    <g
       id="g4040"
       transform="matrix(0.35277777,0,0,-0.35277777,2.12e-4,297.00011)">
      <path
         d="M 0,0 V -841.89 Z"
         style="fill:#2e3575;fill-opacity:1;fill-rule:nonzero;stroke:none"
         id="path4042"
         inkscape:connector-curvature="0" />
    </g>
    <g
       transform="matrix(0.35277777,0,0,-0.35277777,2.12e-4,594.00008)"
       id="g4044">
      <g
         id="g4046"
         clip-path="url(#clipPath4050-6)">
        <g
           id="g4052"
           transform="translate(685.3129,716.1097)">
          <path
             d="m 0,0 c 0,135.594 -109.921,245.514 -245.514,245.514 -135.593,0 -245.513,-109.92 -245.513,-245.514 0,-135.593 109.92,-245.514 245.513,-245.514 C -109.921,-245.514 0,-135.593 0,0"
             style="fill:#3594ce;fill-opacity:1;fill-rule:nonzero;stroke:none"
             id="path4054"
             inkscape:connector-curvature="0" />
        </g>
        <g
           id="g4056"
           transform="translate(312.6234,727.1766)">
          <path
             d="m 0,0 c 0,-71.768 58.18,-129.946 129.946,-129.946 71.768,0 129.947,58.178 129.947,129.946 0,71.767 -58.179,129.946 -129.947,129.946 C 58.18,129.946 0,71.767 0,0"
             style="fill:#ffffff;fill-opacity:1;fill-rule:nonzero;stroke:none"
             id="path4058"
             inkscape:connector-curvature="0" />
        </g>
        <g
           id="g4060"
           transform="translate(365.6459,586.3412)" />
        <g
           id="g4064"
           transform="translate(461.0677,590.5936)" />
      </g>
    </g>
    <g
       transform="matrix(0.35277777,0,0,-0.35277777,2.12e-4,594.00008)"
       id="g4084">
      <g
         id="g4086"
         clip-path="url(#clipPath4090-3)">
        <g
           id="g4092"
           transform="translate(334.0873,38.3587)">
          <path
             d="m 0,0 c 0.001,0.329 0.134,0.628 0.349,0.844 0.214,0.216 0.51,0.35 0.838,0.35 L 5.328,0.013 9.475,1.21 C 9.802,1.211 10.098,1.078 10.312,0.862 10.525,0.646 10.657,0.35 10.657,0.02 l -1.19,-4.172 1.175,-4.168 c 0,-0.329 -0.134,-0.628 -0.349,-0.844 C 10.078,-9.38 9.782,-9.515 9.455,-9.515 L 5.313,-8.333 1.167,-9.53 C 0.84,-9.531 0.544,-9.397 0.33,-9.183 0.116,-8.967 -0.016,-8.67 -0.016,-8.34 l 1.191,4.172 z"
             style="fill:#5ac8e7;fill-opacity:1;fill-rule:nonzero;stroke:none"
             id="path4094"
             inkscape:connector-curvature="0" />
        </g>
        <g
           id="g4096"
           transform="translate(342.351,48.4925)">
          <path
             d="m 0,0 c 0.152,0.394 0.448,0.689 0.805,0.85 0.356,0.16 0.772,0.183 1.164,0.034 l 4.411,-3.316 5.51,-0.471 c 0.391,-0.15 0.684,-0.445 0.841,-0.801 0.158,-0.356 0.178,-0.773 0.027,-1.166 L 9.419,-9.314 8.909,-14.84 c -0.151,-0.393 -0.448,-0.689 -0.804,-0.849 -0.356,-0.16 -0.772,-0.184 -1.164,-0.035 l -4.412,3.316 -5.508,0.471 c -0.392,0.15 -0.685,0.445 -0.842,0.801 -0.158,0.356 -0.178,0.773 -0.027,1.166 l 3.339,4.445 z"
             style="fill:#cddb2c;fill-opacity:1;fill-rule:nonzero;stroke:none"
             id="path4098"
             inkscape:connector-curvature="0" />
        </g>
        <g
           id="g4100"
           transform="translate(342.6332,26.2201)">
          <path
             d="M 0,0 C -0.068,0.18 -0.058,0.37 0.014,0.532 0.085,0.694 0.219,0.829 0.396,0.898 L 2.898,1.12 4.905,2.639 C 5.083,2.707 5.272,2.696 5.434,2.624 5.595,2.552 5.729,2.417 5.798,2.237 L 6.021,-0.282 7.532,-2.306 C 7.601,-2.485 7.591,-2.675 7.519,-2.838 7.447,-3.001 7.313,-3.136 7.136,-3.204 L 4.635,-3.426 2.627,-4.944 C 2.449,-5.013 2.261,-5.002 2.099,-4.93 1.937,-4.857 1.804,-4.723 1.735,-4.544 l -0.224,2.521 z"
             style="fill:#3494ce;fill-opacity:1;fill-rule:nonzero;stroke:none"
             id="path4102"
             inkscape:connector-curvature="0" />
        </g>
        <g
           id="g4104"
           transform="translate(338.5707,38.6127)">
          <path
             d="M 0,0 0.845,-0.241 4.991,0.956 C 5.318,0.957 5.614,0.824 5.828,0.608 6.042,0.393 6.174,0.096 6.174,-0.234 L 5.538,-2.462 0.801,-2.056 c -0.392,0.15 -0.685,0.445 -0.842,0.8 -0.157,0.356 -0.178,0.773 -0.026,1.166 z"
             style="fill:#6bb346;fill-opacity:1;fill-rule:nonzero;stroke:none"
             id="path4106"
             inkscape:connector-curvature="0" />
        </g>
        <g
           id="g4108"
           transform="translate(358.267,33.472)">
          <path
             d="m 0,0 -0.012,-2.422 h 3.137 c 0.546,0 0.988,-0.442 0.988,-0.987 0,-0.546 -0.442,-0.988 -0.988,-0.988 h -3.137 v -12.352 c 0,-0.606 -0.491,-1.098 -1.097,-1.098 -0.607,0 -1.098,0.492 -1.098,1.098 v 12.352 h -1.902 c -0.546,0 -0.989,0.442 -0.989,0.988 0,0.545 0.443,0.987 0.989,0.987 h 1.875 v 2.164 c 0,2.662 1.673,4.006 4.199,4.006 h 1.16 c 0.546,0 0.988,-0.442 0.988,-0.987 0,-0.546 -0.442,-0.989 -0.988,-0.989 H 1.965 C 0.473,1.772 0,1.237 0,0"
             style="fill:#ffffff;fill-opacity:1;fill-rule:nonzero;stroke:none"
             id="path4110"
             inkscape:connector-curvature="0" />
        </g>
        <g
           id="g4112"
           transform="translate(381.4789,33.472)">
          <path
             d="m 0,0 -0.011,-2.422 h 3.137 c 0.545,0 0.987,-0.442 0.987,-0.987 0,-0.546 -0.442,-0.988 -0.987,-0.988 h -3.137 v -12.352 c 0,-0.606 -0.492,-1.098 -1.097,-1.098 -0.607,0 -1.099,0.492 -1.099,1.098 v 12.352 h -1.901 c -0.546,0 -0.989,0.442 -0.989,0.988 0,0.545 0.443,0.987 0.989,0.987 h 1.875 v 2.164 c 0,2.662 1.672,4.006 4.198,4.006 h 1.161 c 0.545,0 0.987,-0.442 0.987,-0.987 0,-0.546 -0.442,-0.989 -0.987,-0.989 H 1.965 C 0.474,1.772 0,1.237 0,0"
             style="fill:#ffffff;fill-opacity:1;fill-rule:nonzero;stroke:none"
             id="path4114"
             inkscape:connector-curvature="0" />
        </g>
        <g
           id="g4116"
           transform="translate(392.7015,17.7064)">
          <path
             d="m 0,0 c 2.381,0 3.403,1.266 3.791,1.765 0,0 0.475,0.622 0.738,0.699 0.242,0.07 0.508,0.05 0.747,-0.077 C 5.709,2.156 5.903,1.651 5.759,1.2 5.695,0.96 5.57,0.655 5.362,0.324 c -0.714,-1.079 -2.299,-2.39 -5.401,-2.39 -4.241,0 -6.958,2.728 -6.958,7.427 0,4.074 2.142,7.928 6.958,7.928 3.651,0 6.003,-2.573 6.29,-6.731 0,-1.564 -0.65,-1.624 -2.407,-1.624 H -4.93 C -4.729,0.486 -1.648,0 0,0 m -4.834,6.909 h 8.986 c -0.372,3.019 -2.076,4.326 -4.191,4.326 -2.639,0 -4.357,-1.641 -4.795,-4.326"
             style="fill:#ffffff;fill-opacity:1;fill-rule:nonzero;stroke:none"
             id="path4118"
             inkscape:connector-curvature="0" />
        </g>
        <g
           id="g4120"
           transform="translate(363.6058,26.599)">
          <path
             d="m 0,0 c 0,2.409 2.141,4.309 5.582,4.309 h 0.083 c 2.96,10e-4 4.464,-1.295 5.141,-2.36 0.197,-0.326 0.316,-0.627 0.376,-0.865 0.137,-0.445 -0.046,-0.943 -0.458,-1.171 -0.227,-0.125 -0.48,-0.145 -0.708,-0.076 -0.251,0.077 -0.702,0.69 -0.702,0.69 -0.265,0.356 -0.846,1.109 -2.002,1.497 -0.5,0.16 -1.063,0.245 -1.73,0.245 -2.141,0 -3.414,-0.876 -3.414,-2.214 0,-0.96 0.678,-1.735 1.843,-1.979 l 3.684,-0.785 c 2.006,-0.434 3.767,-1.471 3.767,-3.849 0,-2.521 -2.194,-4.4 -5.772,-4.4 l -0.156,-10e-4 c -3.102,0 -4.687,1.312 -5.401,2.391 -0.208,0.331 -0.334,0.635 -0.397,0.876 -0.144,0.452 0.049,0.956 0.483,1.186 0.239,0.127 0.507,0.148 0.747,0.077 0.263,-0.077 0.738,-0.698 0.738,-0.698 0.282,-0.363 0.9,-1.133 2.134,-1.525 0.544,-0.173 1.164,-0.263 1.852,-0.263 2.385,0 3.578,0.951 3.578,2.276 0,0.909 -0.678,1.681 -1.789,1.924 L 3.686,-3.929 C 1.68,-3.522 0,-2.319 0,0"
             style="fill:#ffffff;fill-opacity:1;fill-rule:nonzero;stroke:none"
             id="path4122"
             inkscape:connector-curvature="0" />
        </g>
        <g
           id="g4124"
           transform="translate(361.1527,302.8422)">
          <path
             d="m 0,0 c 0,-75.325 61.063,-136.388 136.388,-136.388 75.324,0 136.386,61.063 136.386,136.388 0,75.324 -61.062,136.387 -136.386,136.387 C 61.063,136.387 0,75.324 0,0"
             style="fill:#ffffff;fill-opacity:1;fill-rule:nonzero;stroke:none"
             id="path4126"
             inkscape:connector-curvature="0" />
        </g>
        <g
           id="g4128"
           transform="translate(467.892,207.2435)" />
        <g
           id="g4132"
           transform="translate(451.3138,176.3246)" />
      </g>
    </g>
    <text
       y="581.26434"
       x="147.72745"
       style="font-variant:normal;font-weight:normal;font-stretch:normal;font-size:2.82222199px;font-family:Roboto;-inkscape-font-specification:Roboto-Regular;writing-mode:lr-tb;fill:#ffffff;fill-opacity:1;fill-rule:nonzero;stroke:none;stroke-width:0.35277775"
       id="text4164">
      <tspan
         style="stroke-width:0.35277775"
         x="147.72745 149.56473 151.17337 152.73123 153.6541 155.14987 156.70773 157.6306 158.33054 159.84042 161.18661 162.72191 163.40768 164.09348 165.62881 167.21207 167.89786 169.39365 170.09355 171.64859 173.20645 174.79819 176.29398 177.24791 177.94778 179.48308 180.18301 182.02031 183.85751 185.44365 186.14354 186.82932 187.51511 188.99112 190.48691 192.04477 193.50107 194.99686 195.73911"
         y="581.26434"
         sodipodi:role="line"
         id="tspan4160">Content available under a CC0 license.</tspan>
      <tspan
         style="stroke-width:0.35277775"
         x="147.72745 148.49509 150.05296 150.75284 152.22893 153.83755 154.52336 155.20914 156.74443 158.32773 159.93639 160.83525 162.37051 163.29343 163.97922 165.58786 167.1458 167.84567 169.96513 170.65091 171.57384 173.12888 173.82877 175.38945 177.06302 178.62376 180.22672 180.92667 182.46194 184.01981 185.61154 186.31143 188.14023 189.03262 190.56792 191.26785 193.11923 194.61504 196.07126 196.75705 198.3403 199.89824"
         y="584.65094"
         sodipodi:role="line"
         id="tspan4162">In collaboration with FSFE and Ura Design.</tspan>
    </text>
    <g
       transform="matrix(0.35277777,0,0,-0.35277777,2.12e-4,594.00008)"
       id="g4166">
      <g
         id="g4168"
         clip-path="url(#clipPath4172-7)">
        <g
           id="g4174"
           transform="translate(334.0717,63.599)">
          <path
             d="M 0,0 H 234.417"
             style="fill:none;stroke:#ffffff;stroke-width:0.5;stroke-linecap:butt;stroke-linejoin:miter;stroke-miterlimit:10;stroke-dasharray:none;stroke-opacity:1"
             id="path4176"
             inkscape:connector-curvature="0" />
        </g>
        <g
           id="g4178"
           transform="translate(515.9359,332.1957)" />
        <g
           id="g4182"
           transform="translate(457.2328,273.4916)" />
        <g
           id="g4186"
           transform="translate(461.2474,705.2928)" />
        <g
           id="g4190"
           transform="translate(512.7367,788.8744)" />
        <g
           id="g4194"
           transform="translate(512.7367,728.1893)" />
        <g
           id="g4198"
           transform="translate(464.2719,728.1893)" />
        <g
           id="g4202"
           transform="translate(440.6732,702.0844)" />
        <g
           id="g4206"
           transform="translate(512.7367,694.0546)" />
        <g
           id="g4212"
           transform="translate(-416.4943,717.8339)">
          <path
             d="m 0,0 c 0,-190.493 154.425,-344.917 344.917,-344.917 190.493,0 344.916,154.424 344.916,344.917 0,190.492 -154.423,344.917 -344.916,344.917 C 154.425,344.917 0,190.492 0,0"
             style="fill:#3594ce;fill-opacity:1;fill-rule:nonzero;stroke:none"
             id="path4214"
             inkscape:connector-curvature="0" />
        </g>
        <g
           id="g4216"
           transform="translate(46.8793,617.912)">
          <path
             d="m 0,0 c 0,-73.442 -59.537,-132.978 -132.978,-132.978 -73.442,0 -132.979,59.536 -132.979,132.978 0,73.442 59.537,132.978 132.979,132.978 C -59.537,132.978 0,73.442 0,0"
             style="fill:#ffffff;fill-opacity:1;fill-rule:nonzero;stroke:none"
             id="path4218"
             inkscape:connector-curvature="0" />
        </g>
        <g
           id="g4220"
           transform="translate(1.0052,333.8812)">
          <path
             d="m 0,0 c 0,-68.196 55.284,-123.481 123.481,-123.481 68.198,0 123.482,55.285 123.482,123.481 0,68.197 -55.284,123.482 -123.482,123.482 C 55.284,123.482 0,68.197 0,0"
             style="fill:#ffffff;fill-opacity:1;fill-rule:nonzero;stroke:none"
             id="path4222"
             inkscape:connector-curvature="0" />
        </g>
        <g
           id="g4224"
           transform="translate(256.1801,693.5087)">
          <path
             d="m 0,0 c 0,-74.53 -60.41,-134.94 -134.939,-134.94 -74.531,0 -134.941,60.41 -134.941,134.94 0,74.53 60.41,134.94 134.941,134.94 C -60.41,134.94 0,74.53 0,0"
             style="fill:#ffffff;fill-opacity:1;fill-rule:nonzero;stroke:none"
             id="path4226"
             inkscape:connector-curvature="0" />
        </g>
        <g
           id="g4228"
           transform="translate(197.4847,590.0951)" />
        <g
           id="g4232"
           transform="translate(180.9066,559.1761)" />
      </g>
    </g>
    <g
       transform="matrix(0.35277777,0,0,-0.35277777,2.12e-4,594.00008)"
       id="g4256">
      <g
         id="g4258"
         clip-path="url(#clipPath4262-3)">
        <g
           id="g4264"
           transform="translate(137.0726,654.347)" />
        <g
           id="g4268"
           transform="translate(159.3676,742.1444)" />
        <g
           id="g4272"
           transform="translate(178.8402,708.7074)" />
        <g
           id="g4276"
           transform="translate(74.0472,708.3876)" />
        <g
           id="g4280"
           transform="translate(165.5795,727.4706)" />
        <g
           id="g4284"
           transform="translate(115.9623,654.3246)" />
        <g
           id="g4288"
           transform="translate(87.1986,727.2416)" />
        <g
           id="g4292"
           transform="translate(130.0658,653.2938)" />
        <g
           id="g4296"
           transform="translate(87.5385,736.5526)" />
        <g
           id="g4300"
           transform="translate(137.0189,760.8685)" />
        <g
           id="g4304"
           transform="translate(68.8685,679.4633)" />
        <g
           id="g4308"
           transform="translate(173.4427,661.1464)" />
        <g
           id="g4312"
           transform="translate(0.2137,725.9833)">
          <path
             d="M 0,0 -595.49,-50.887 V 115.907 H -0.427 Z"
             style="fill:#53b749;fill-opacity:1;fill-rule:nonzero;stroke:none"
             id="path4314"
             inkscape:connector-curvature="0" />
        </g>
        <g
           id="g4318"
           transform="translate(139.392,382.7113)" />
        <g
           id="g4328"
           transform="translate(73.3109,228.473)" />
        <g
           id="g4332"
           transform="translate(213.6127,232.725)" />
      </g>
    </g>
    <path
       d="m 69.668425,385.82765 -1.353611,-4.67325 c -0.19544,-0.31326 -0.497769,-0.51752 -0.829379,-0.59478 -0.0991,-0.0233 -0.20003,-0.0349 -0.30163,-0.0349 -0.240242,0 -0.48295,0.0656 -0.700972,0.20285 l -3.227559,3.6061 -4.639379,1.34266 c -0.310441,0.19545 -0.512231,0.49954 -0.587732,0.83256 -0.0755,0.33303 -0.024,0.69603 0.171101,1.0093 l 3.597981,3.26178 1.352899,4.67325 c 0.195789,0.31326 0.49883,0.51752 0.830091,0.59478 0.0984,0.0233 0.19967,0.0349 0.30127,0.0349 0.240239,0 0.48295,-0.0656 0.701318,-0.20285 l 3.226861,-3.60644 4.640091,-1.34268 c 0.310089,-0.19508 0.51223,-0.49882 0.587729,-0.83255 0.0748,-0.33302 0.024,-0.69568 -0.17145,-1.00895 z"
       style="display:inline;fill:#2e3575;fill-opacity:1;fill-rule:nonzero;stroke:none;stroke-width:0.35277775"
       id="path4230"
       inkscape:connector-curvature="0" />
    <path
       d="m 63.820035,396.73519 c -0.529521,-0.12347 -0.979659,-0.44626 -1.26823,-0.90876 l -0.0519,-0.0829 -0.0272,-0.0942 -1.297871,-4.48098 -3.159479,-2.86455 H 17.873834 v 10.31345 h 47.00446 v -1.92158 c -0.192608,0.0596 -0.392991,0.0928 -0.59654,0.0928 -0.15522,0 -0.310449,-0.018 -0.46179,-0.0533"
       style="display:inline;fill:#53b749;fill-opacity:1;fill-rule:nonzero;stroke:none;stroke-width:0.35277775"
       id="path4234"
       inkscape:connector-curvature="0" />
    <text
       y="390.69916"
       x="63.821812"
       style="font-variant:normal;font-weight:bold;font-stretch:normal;font-size:6.3499999px;font-family:'Roboto Slab';-inkscape-font-specification:RobotoSlab-Bold;writing-mode:lr-tb;display:inline;fill:#ffffff;fill-opacity:1;fill-rule:nonzero;stroke:none;stroke-width:0.35277775"
       id="text4238">
      <tspan
         style="stroke-width:0.35277775"
         x="63.821812"
         y="390.69916"
         id="tspan4236">5</tspan>
    </text>
    <text
       y="405.01749"
       x="20.299238"
       style="font-variant:normal;font-weight:normal;font-stretch:normal;font-size:4.23333311px;font-family:Roboto;-inkscape-font-specification:Roboto-Regular;writing-mode:lr-tb;display:inline;fill:#ffffff;fill-opacity:1;fill-rule:nonzero;stroke:none;stroke-width:0.35277775"
       id="text4250">
      <tspan
         style="stroke-width:0.35277775"
         x="20.299238 22.585192 23.978441 26.222094 28.465746 29.515612 32.025986 34.438946 35.907944 37.292221 40.471481 42.774395 44.167583 46.411221 47.46109 49.675137 51.978062 54.314915 55.36478 57.739651 59.983311"
         y="405.01749"
         sodipodi:role="line"
         id="tspan4240">Free Software can be</tspan>
      <tspan
         style="stroke-width:0.35277775"
         x="20.299238 22.483629 24.81621 27.119127 28.509325 30.753038 33.14061 34.190472 36.493393 38.830185 41.217815 42.267685 44.600266 46.784637 49.028294 51.415928 52.465794 53.494473 55.831264 56.881138 59.184048"
         y="409.25079"
         sodipodi:role="line"
         id="tspan4242">shared and used in a</tspan>
      <tspan
         style="stroke-width:0.35277775"
         x="20.299238 22.636034 25.048998 27.385851 28.554247 30.797899 32.852341 35.066326 36.095074 38.427597 40.612045 41.640732 43.66301 45.906662 46.956512 50.135777 52.406956 54.409267 55.459133 57.809902 59.81229"
         y="413.48416"
         sodipodi:role="line"
         id="tspan4244">non-exclusive way by</tspan>
      <tspan
         style="stroke-width:0.35277775"
         x="20.299238 22.51494 24.538927 26.782579 28.251085 30.223009 32.636028 34.97282 37.216473 38.266342 41.043381 42.093243 44.27763 46.521328 47.985195 50.034145 51.06284 53.399632 55.774502 56.824375 58.208714 60.541294 62.784939"
         y="417.7175"
         sodipodi:role="line"
         id="tspan4246">everyone – serving the</tspan>
      <tspan
         style="stroke-width:0.35277775"
         x="20.299238 22.67412 25.006701 27.381575 28.410265 29.439016 31.653002 32.702862 35.077805 37.490768 39.90379 42.291367"
         y="421.95081"
         sodipodi:role="line"
         id="tspan4248">public good.</tspan>
    </text>
    <text
       y="395.34125"
       x="20.299059"
       style="font-variant:normal;font-weight:bold;font-stretch:normal;font-size:6.3499999px;font-family:'Roboto Slab';-inkscape-font-specification:RobotoSlab-Bold;writing-mode:lr-tb;display:inline;fill:#ffffff;fill-opacity:1;fill-rule:nonzero;stroke:none;stroke-width:0.35277775"
       id="text4254">
      <tspan
         style="stroke-width:0.35277775"
         x="20.299059 24.413866 27.91081 29.936449 31.962084 35.349167 39.013107 42.575481 45.181499 48.421295 50.789822 52.834499 56.396885"
         y="395.34125"
         sodipodi:role="line"
         id="tspan4252">Collaboration</tspan>
    </text>
    <path
       d="m 48.356375,363.16101 0.43462,1.90677 c 0.906288,-0.20673 1.804808,-0.48437 2.669818,-0.82515 l -0.71719,-1.81963 c -0.77329,0.30445 -1.576919,0.5528 -2.387248,0.73801"
       style="display:inline;fill:#5ac8e7;fill-opacity:1;fill-rule:nonzero;stroke:none;stroke-width:0.35277775"
       id="path4266"
       inkscape:connector-curvature="0" />
    <path
       d="m 56.221554,332.18804 -1.21461,1.53247 c 0.651931,0.51717 1.270349,1.08726 1.83868,1.69545 l 1.42839,-1.33491 c -0.633579,-0.67945 -1.32397,-1.31622 -2.05246,-1.89301"
       style="display:inline;fill:#5ac8e7;fill-opacity:1;fill-rule:nonzero;stroke:none;stroke-width:0.35277775"
       id="path4270"
       inkscape:connector-curvature="0" />
    <path
       d="m 63.091055,343.98387 c -0.141459,-0.91969 -0.353481,-1.83515 -0.630409,-2.72098 l -1.866202,0.5835 c 0.24765,0.79198 0.437089,1.61149 0.56374,2.43487 z"
       style="display:inline;fill:#5ac8e7;fill-opacity:1;fill-rule:nonzero;stroke:none;stroke-width:0.35277775"
       id="path4274"
       inkscape:connector-curvature="0" />
    <path
       d="m 26.122414,344.09669 1.93499,0.28539 c 0.121711,-0.82303 0.306559,-1.64324 0.54892,-2.43875 l -1.870429,-0.57079 c -0.27164,0.88759 -0.477661,1.80445 -0.613481,2.72415"
       style="display:inline;fill:#5ac8e7;fill-opacity:1;fill-rule:nonzero;stroke:none;stroke-width:0.35277775"
       id="path4278"
       inkscape:connector-curvature="0" />
    <path
       d="m 58.412973,337.36463 c 0.47272,0.6865 0.896411,1.41252 1.259422,2.15829 l 1.758238,-0.85584 c -0.405688,-0.8329 -0.879118,-1.64465 -1.406869,-2.41123 z"
       style="display:inline;fill:#5ac8e7;fill-opacity:1;fill-rule:nonzero;stroke:none;stroke-width:0.35277775"
       id="path4282"
       inkscape:connector-curvature="0" />
    <path
       d="m 40.909134,363.16891 c -0.811389,-0.18379 -1.615731,-0.43039 -2.391481,-0.73342 l -0.71261,1.82139 c 0.86642,0.33902 1.7653,0.61454 2.672641,0.8195 z"
       style="display:inline;fill:#5ac8e7;fill-opacity:1;fill-rule:nonzero;stroke:none;stroke-width:0.35277775"
       id="path4286"
       inkscape:connector-curvature="0" />
    <path
       d="m 30.761935,337.44542 -1.617131,-1.09961 c -0.52352,0.77046 -0.991661,1.58538 -1.393121,2.42182 l 1.763541,0.84525 c 0.358071,-0.74824 0.778219,-1.47778 1.246711,-2.16746"
       style="display:inline;fill:#5ac8e7;fill-opacity:1;fill-rule:nonzero;stroke:none;stroke-width:0.35277775"
       id="path4290"
       inkscape:connector-curvature="0" />
    <path
       d="m 45.884534,363.53255 c -0.824799,0.0614 -1.67323,0.0631 -2.502609,0.002 l -0.141462,1.95122 c 0.454382,0.0325 0.916871,0.0497 1.374772,0.0497 0.472718,0 0.94792,-0.0183 1.41464,-0.0536 z"
       style="display:inline;fill:#5ac8e7;fill-opacity:1;fill-rule:nonzero;stroke:none;stroke-width:0.35277775"
       id="path4294"
       inkscape:connector-curvature="0" />
    <path
       d="m 30.881844,334.1607 1.436161,1.32715 c 0.565499,-0.61136 1.180748,-1.18568 1.8288,-1.70603 l -1.22378,-1.52541 c -0.723551,0.58102 -1.410761,1.22167 -2.041181,1.90429"
       style="display:inline;fill:#5ac8e7;fill-opacity:1;fill-rule:nonzero;stroke:none;stroke-width:0.35277775"
       id="path4298"
       inkscape:connector-curvature="0" />
    <path
       d="m 48.337433,325.58259 c 1.448152,-1.10243 2.383721,-2.84409 2.383721,-4.80483 0,-3.33375 -2.702279,-6.03603 -6.036381,-6.03603 -3.333398,0 -6.03568,2.70228 -6.03568,6.03603 0,1.93816 0.9144,3.66148 2.333982,4.76603 -3.663601,1.32432 -7.364942,4.26896 -5.626452,7.51381 2.05704,3.83999 3.832572,0.0691 9.25018,0.0691 5.416902,0 7.192791,3.77083 9.250191,-0.0691 1.721201,-3.2131 -1.891599,-6.13234 -5.519561,-7.47501"
       style="display:inline;fill:#3594ce;fill-opacity:1;fill-rule:nonzero;stroke:none;stroke-width:0.35277775"
       id="path4302"
       inkscape:connector-curvature="0" />
    <path
       d="m 24.295484,354.30054 c -1.67887,-0.70309 -3.65478,-0.64241 -5.35305,0.33796 -2.88678,1.66688 -3.87597,5.35834 -2.20945,8.24547 1.66688,2.88714 5.3587,3.87633 8.24583,2.20945 1.678169,-0.96908 2.713571,-2.62255 2.96016,-4.40443 2.978859,2.51072 7.379761,4.24392 9.320739,1.11584 2.29694,-3.70135 -1.856669,-3.35386 -4.565298,-8.04545 -2.708622,-4.69159 -0.330901,-8.1146 -4.684882,-7.97631 -3.643489,0.11607 -4.365279,4.70394 -3.714049,8.51747"
       style="display:inline;fill:#53b749;fill-opacity:1;fill-rule:nonzero;stroke:none;stroke-width:0.35277775"
       id="path4306"
       inkscape:connector-curvature="0" />
    <path
       d="m 61.186933,360.76233 c 0.230722,1.80552 1.271421,3.4865 2.969342,4.46688 2.887129,1.66687 6.5786,0.67768 8.24547,-2.20945 1.66688,-2.88678 0.677688,-6.5786 -2.209451,-8.24548 -1.678159,-0.96908 -3.627961,-1.03857 -5.29413,-0.36159 0.68474,-3.83505 -0.01479,-8.51253 -3.694289,-8.62965 -4.353992,-0.13829 -1.976261,3.28506 -4.68489,7.9763 -2.70863,4.69159 -6.862231,4.34411 -4.565301,8.04545 1.921941,3.09739 6.25652,1.42805 9.233249,-1.04246"
       style="display:inline;fill:#2e3575;fill-opacity:1;fill-rule:nonzero;stroke:none;stroke-width:0.35277775"
       id="path4310"
       inkscape:connector-curvature="0" />
    <path
       d="m 128.99196,387.15195 -1.35361,-4.67325 c -0.19544,-0.31327 -0.49812,-0.51753 -0.82973,-0.59478 -0.0988,-0.0233 -0.20003,-0.0349 -0.30163,-0.0349 -0.24024,0 -0.4826,0.0656 -0.70097,0.20284 l -3.22721,3.6061 -4.63938,1.34267 c -0.31044,0.19544 -0.51259,0.49918 -0.58773,0.83256 -0.0755,0.33302 -0.0243,0.69567 0.17075,1.00929 l 3.59798,3.26179 1.35325,4.67324 c 0.19544,0.31326 0.49848,0.51752 0.83009,0.59477 0.0984,0.0229 0.19932,0.0346 0.30092,0.0346 0.24024,0 0.4833,-0.0653 0.70132,-0.2025 l 3.22721,-3.60643 4.63974,-1.34267 c 0.31009,-0.19544 0.51223,-0.49919 0.58772,-0.83256 0.0752,-0.33302 0.0243,-0.69603 -0.17145,-1.00894 z"
       style="display:inline;fill:#2e3575;fill-opacity:1;fill-rule:nonzero;stroke:none;stroke-width:0.35277775"
       id="path4062"
       inkscape:connector-curvature="0" />
    <path
       d="M 162.65465,385.65179 H 129.2921 l 0.32174,1.11161 3.44946,3.12773 0.0727,0.0656 0.0522,0.0832 c 0.28787,0.46178 0.38065,1.00788 0.2607,1.53846 -0.12029,0.53199 -0.43991,0.98425 -0.90028,1.27388 l -0.084,0.0533 -0.0959,0.0275 -4.44465,1.28623 -1.56245,1.7459 h 36.29307 z"
       style="display:inline;fill:#53b749;fill-opacity:1;fill-rule:nonzero;stroke:none;stroke-width:0.35277775"
       id="path4066"
       inkscape:connector-curvature="0" />
    <text
       y="401.48141"
       x="134.78165"
       style="font-variant:normal;font-weight:normal;font-stretch:normal;font-size:4.23333311px;font-family:Roboto;-inkscape-font-specification:Roboto-Regular;writing-mode:lr-tb;display:inline;fill:#ffffff;fill-opacity:1;fill-rule:nonzero;stroke:none;stroke-width:0.35277775"
       id="text4076">
      <tspan
         style="stroke-width:0.35277775"
         x="134.78165 137.06761 138.46078 140.7045 142.94815 143.99802 146.50839 148.92136 150.39035 151.77464 154.95389 157.25682 158.64999 160.89366 161.94351 164.24649 165.27519 166.30386 168.71689 171.89609 174.08047 175.13036 176.59933 179.0123 180.44321"
         y="401.48141"
         sodipodi:role="line"
         id="tspan4068">Free Software allows for</tspan>
      <tspan
         style="stroke-width:0.35277775"
         x="134.78165 135.81033 138.14713 140.53471 142.77835 145.15329 147.39696 149.73375 152.12137 154.36502 156.70181 158.08609 159.13603 161.3204 163.56407 165.77811 168.11063 169.54155 170.57022 171.9545 173.95688"
         y="405.71475"
         sodipodi:role="line"
         id="tspan4070">independent security</tspan>
      <tspan
         style="stroke-width:0.35277775"
         x="134.78165 136.99565 139.32822 141.57187 143.78593 145.93224 148.11661 149.16655 150.55081 152.88335 155.18625 156.57059 157.62045 159.95303 162.19669 163.22537 165.60031 166.65012 168.86417 169.89291 172.30588 174.49028 176.73392"
         y="409.94809"
         sodipodi:role="line"
         id="tspan4072">checks that help close</tspan>
      <tspan
         style="stroke-width:0.35277775"
         x="134.78165 136.96603 139.20969 141.42374 143.75632 145.18716 146.21585 147.6002 149.60251 150.65237 152.98497 155.39798 156.42667 158.67032 160.85471 161.90457 163.37358 165.67648 167.86089 169.24521 171.48886 172.6564"
         y="414.1814"
         sodipodi:role="line"
         id="tspan4074">security holes faster.</tspan>
    </text>
    <text
       y="392.2515"
       x="122.99529"
       style="font-variant:normal;font-weight:bold;font-stretch:normal;font-size:6.3499999px;font-family:'Roboto Slab';-inkscape-font-specification:RobotoSlab-Bold;writing-mode:lr-tb;display:inline;fill:#ffffff;fill-opacity:1;fill-rule:nonzero;stroke:none;stroke-width:0.35277775"
       id="text4082">
      <tspan
         style="stroke-width:0.35277775"
         x="122.99529"
         y="392.2515"
         id="tspan4078">6</tspan>
      <tspan
         style="stroke-width:0.35277775"
         x="134.78085 138.629 142.0136 145.35995 149.32237 151.9957 154.04044 156.40897"
         y="392.68967"
         sodipodi:role="line"
         id="tspan4080">Security</tspan>
    </text>
    <path
       d="m 162.71804,345.18847 c -1.94769,1.94733 -4.49968,2.921 -7.05203,2.921 -2.55235,0 -5.10469,-0.97367 -7.05167,-2.921 -3.89538,-3.89502 -3.89538,-10.20939 0,-14.10406 1.94698,-1.94733 4.49932,-2.921 7.05167,-2.921 2.55235,0 5.10434,0.97367 7.05203,2.921 3.89467,3.89467 3.89467,10.20904 0,14.10406 m 3.13443,-17.23814 c -2.81305,-2.81305 -6.49958,-4.21957 -10.18646,-4.21957 -3.68653,0 -7.37341,1.40652 -10.1861,4.21957 -4.81683,4.81648 -5.50863,12.19483 -2.07786,17.74861 l -12.02655,12.02654 5.48499,5.48464 12.24562,-12.24527 c 2.05387,1.05093 4.30777,1.57621 6.56131,1.57621 3.68618,0 7.372,-1.40582 10.18505,-4.21852 5.62539,-5.62539 5.62539,-14.74646 0,-20.37221"
       style="display:inline;fill:#2e3575;fill-opacity:1;fill-rule:nonzero;stroke:none;stroke-width:0.35277775"
       id="path4188"
       inkscape:connector-curvature="0" />
    <path
       d="m 180.88232,315.70274 h -46.83054 v 9.36625 h 12.0523 c 2.75731,-2.02671 6.07554,-3.12209 9.56204,-3.12209 3.48615,0 6.80438,1.09538 9.56169,3.12209 h 15.65451 z"
       style="display:inline;fill:#3494ce;fill-opacity:1;fill-rule:nonzero;stroke:none;stroke-width:0.35277775"
       id="path4192"
       inkscape:connector-curvature="0" />
    <path
       d="m 180.88232,337.11109 v -9.36625 h -12.8016 c 2.22497,2.64901 3.52672,5.90303 3.74156,9.36625 z"
       style="display:inline;fill:#3494ce;fill-opacity:1;fill-rule:nonzero;stroke:none;stroke-width:0.35277775"
       id="path4196"
       inkscape:connector-curvature="0" />
    <path
       d="m 163.78502,337.11109 c -0.21802,-1.74343 -0.99272,-3.42971 -2.32869,-4.76532 -1.54622,-1.54658 -3.60292,-2.39854 -5.79049,-2.39854 -2.07963,0 -4.04036,0.77153 -5.55801,2.17735 v 4.98651 z"
       style="display:inline;fill:#5ac8e7;fill-opacity:1;fill-rule:nonzero;stroke:none;stroke-width:0.35277775"
       id="path4200"
       inkscape:connector-curvature="0" />
    <path
       d="m 155.45992,346.32032 c 0.0688,0.002 0.13723,0.005 0.20602,0.005 2.18722,0 4.24392,-0.85196 5.7905,-2.39889 1.1751,-1.17511 1.91629,-2.62184 2.22638,-4.13985 h -8.2229 z"
       style="display:inline;fill:#5ac8e7;fill-opacity:1;fill-rule:nonzero;stroke:none;stroke-width:0.35277775"
       id="path4204"
       inkscape:connector-curvature="0" />
    <path
       d="m 180.88232,349.15305 v -9.36589 h -9.10978 c -0.35243,3.50449 -1.82598,6.76627 -4.24462,9.36589 z"
       style="display:inline;fill:#3494ce;fill-opacity:1;fill-rule:nonzero;stroke:none;stroke-width:0.35277775"
       id="path4208"
       inkscape:connector-curvature="0" />
    <path
       d="m 166.16418,361.19534 h 14.71825 v -9.3659 h -14.71825 z"
       style="display:inline;fill:#3494ce;fill-opacity:1;fill-rule:nonzero;stroke:none;stroke-width:0.35277775"
       id="path4210"
       inkscape:connector-curvature="0" />
    <text
       y="528.15985"
       x="31.69182"
       style="font-variant:normal;font-weight:normal;font-stretch:normal;font-size:4.23333311px;font-family:Roboto;-inkscape-font-specification:Roboto-Regular;writing-mode:lr-tb;display:inline;fill:#ffffff;fill-opacity:1;fill-rule:nonzero;stroke:none;stroke-width:0.35277775"
       id="text4158">
      <tspan
         style="stroke-width:0.35277775"
         x="31.69182 34.451946 35.501812 37.787399 39.180588 41.42424 43.66795 44.717758 47.228115 49.641148 51.110073 52.494419 55.673611 57.976597 59.369785 61.61343 62.663303 63.69199 64.720673 66.934723 69.178383 71.515228 73.729218 75.972931 77.022743 79.325714 80.354401 81.383095 83.79612 86.975311 89.15976 90.209564 92.512543"
         y="528.15985"
         sodipodi:role="line"
         id="tspan4152">A Free Software licence allows a</tspan>
      <tspan
         style="stroke-width:0.35277775"
         x="31.69182 32.720505 33.749249 37.457626 38.486309 39.870647 40.899338 43.14299 45.327377 47.511749 48.56168 50.898472 53.230984 56.939426 59.314297 61.557957 62.988865 64.038727 66.451691 67.920685 68.970551 69.999237 72.336029 74.520416 75.904755 78.207672 79.236359 80.265106 82.568024 83.952301 84.980995 87.394012 89.730804 91.915192 92.96505 94.282509 96.695465"
         y="532.9054"
         sodipodi:role="line"
         id="tspan4154">limitless number of installations to</tspan>
      <tspan
         style="stroke-width:0.35277775"
         x="31.69182 34.066696 36.31041 37.360271 38.791119 41.123699 43.460491 44.290207 45.340069 48.519321 49.548 50.932278 53.264866 55.677883 58.010464 59.394749 60.444614 62.819485 65.087311 67.089691 68.118385 70.455177 72.830048 73.879921 76.123627 78.223366 79.607635 80.949615 83.252533"
         y="537.651"
         sodipodi:role="line"
         id="tspan4156">be run, without paying extra.</tspan>
    </text>
    <path
       d="M 33.948013,482.52796 H 19.742004 v -6.80262 h 14.206009 z m 1.5875,-9.97762 H 18.154504 c -0.87665,0 -1.5875,0.71085 -1.5875,1.5875 v 9.97762 c 0,0.877 0.71085,1.5875 1.5875,1.5875 h 17.381009 c 0.876652,0 1.5875,-0.7105 1.5875,-1.5875 v -9.97762 c 0,-0.87665 -0.710848,-1.5875 -1.5875,-1.5875"
       style="display:inline;fill:#3594ce;fill-opacity:1;fill-rule:nonzero;stroke:none;stroke-width:0.35277775"
       id="path4316"
       inkscape:connector-curvature="0" />
    <path
       d="m 49.174615,458.98804 c 0.876649,0 1.5875,-0.71085 1.5875,-1.5875 0,-0.87665 -0.710851,-1.5875 -1.5875,-1.5875 h -4.46582 c -0.877002,0 -1.5875,0.71085 -1.5875,1.5875 v 20.13867 h -2.75802 c -0.876652,0 -1.5875,0.71085 -1.5875,1.5875 0,0.87665 0.710848,1.5875 1.5875,1.5875 h 2.75802 v 20.13867 c 0,0.87666 0.710498,1.5875 1.5875,1.5875 h 4.46582 c 0.876649,0 1.5875,-0.71084 1.5875,-1.5875 0,-0.87665 -0.710851,-1.5875 -1.5875,-1.5875 h -2.87832 v -18.55117 h 2.75767 c 0.876998,0 1.5875,-0.71085 1.5875,-1.5875 0,-0.87665 -0.710502,-1.5875 -1.5875,-1.5875 h -2.75767 v -18.55117 z"
       style="display:inline;fill:#5ac8e7;fill-opacity:1;fill-rule:nonzero;stroke:none;stroke-width:0.35277775"
       id="path4320"
       inkscape:connector-curvature="0" />
    <path
       d="m 62.916004,463.61836 h -6.480879 v -6.48088 h 6.480879 z m 1.5875,-9.65588 h -9.655879 c -0.876652,0 -1.5875,0.71049 -1.5875,1.5875 v 9.65588 c 0,0.87665 0.710848,1.5875 1.5875,1.5875 h 9.655879 c 0.87666,0 1.5875,-0.71085 1.5875,-1.5875 v -9.65588 c 0,-0.87701 -0.71084,-1.5875 -1.5875,-1.5875"
       style="display:inline;fill:#53b749;fill-opacity:1;fill-rule:nonzero;stroke:none;stroke-width:0.35277775"
       id="path4322"
       inkscape:connector-curvature="0" />
    <path
       d="m 62.916004,482.36709 h -6.480879 v -6.48089 h 6.480879 z m 1.5875,-9.65589 h -9.655879 c -0.876652,0 -1.5875,0.71085 -1.5875,1.5875 v 9.65589 c 0,0.87701 0.710848,1.5875 1.5875,1.5875 h 9.655879 c 0.87666,0 1.5875,-0.71049 1.5875,-1.5875 v -9.65589 c 0,-0.87665 -0.71084,-1.5875 -1.5875,-1.5875"
       style="display:inline;fill:#53b749;fill-opacity:1;fill-rule:nonzero;stroke:none;stroke-width:0.35277775"
       id="path4324"
       inkscape:connector-curvature="0" />
    <path
       d="m 62.916004,501.11618 h -6.480879 v -6.48089 h 6.480879 z m 1.5875,-9.65589 h -9.655879 c -0.876652,0 -1.5875,0.71049 -1.5875,1.5875 v 9.65589 c 0,0.87664 0.710848,1.5875 1.5875,1.5875 h 9.655879 c 0.87666,0 1.5875,-0.71086 1.5875,-1.5875 v -9.65589 c 0,-0.87701 -0.71084,-1.5875 -1.5875,-1.5875"
       style="display:inline;fill:#53b749;fill-opacity:1;fill-rule:nonzero;stroke:none;stroke-width:0.35277775"
       id="path4326"
       inkscape:connector-curvature="0" />
    <path
       d="m 25.862664,513.39989 -1.35361,-4.67324 c -0.19544,-0.31327 -0.49812,-0.51752 -0.82938,-0.59479 -0.0991,-0.0229 -0.20002,-0.0346 -0.30162,-0.0346 -0.24024,0 -0.48296,0.0653 -0.70097,0.20249 l -3.22757,3.60645 -4.63938,1.34233 c -0.31044,0.19543 -0.51223,0.49917 -0.58772,0.8329 -0.0755,0.33302 -0.0243,0.69532 0.17109,1.00894 l 3.59763,3.26178 1.35326,4.67326 c 0.19579,0.31327 0.49882,0.51752 0.83008,0.59513 0.0984,0.0226 0.19968,0.0342 0.30128,0.0342 0.23988,0 0.48295,-0.0653 0.70132,-0.2025 l 3.22686,-3.60644 4.64008,-1.34232 c 0.310089,-0.1958 0.512231,-0.49918 0.58773,-0.8329 0.0748,-0.33303 0.024,-0.69568 -0.17145,-1.00896 z"
       style="display:inline;fill:#3594ce;fill-opacity:1;fill-rule:nonzero;stroke:none;stroke-width:0.35277775"
       id="path4330"
       inkscape:connector-curvature="0" />
    <path
       d="M 75.358025,511.89987 H 26.162814 l 0.322081,1.1116 3.449458,3.12773 0.0723,0.0656 0.0522,0.0829 c 0.288219,0.46178 0.380648,1.00824 0.260699,1.53882 -0.12029,0.532 -0.439909,0.98425 -0.900279,1.27388 l -0.084,0.0533 -0.0956,0.0275 -4.444999,1.28623 -1.5621,1.74554 h 52.125379 z"
       style="display:inline;fill:#53b749;fill-opacity:1;fill-rule:nonzero;stroke:none;stroke-width:0.35277775"
       id="path4334"
       inkscape:connector-curvature="0" />
    <text
       y="518.10602"
       x="20.211901"
       style="font-variant:normal;font-weight:bold;font-stretch:normal;font-size:6.3499999px;font-family:'Roboto Slab';-inkscape-font-specification:RobotoSlab-Bold;writing-mode:lr-tb;display:inline;fill:#ffffff;fill-opacity:1;fill-rule:nonzero;stroke:none;stroke-width:0.35277775"
       id="text4340">
      <tspan
         style="stroke-width:0.35277775"
         x="20.211901"
         y="518.10602"
         id="tspan4336">7</tspan>
      <tspan
         style="stroke-width:0.35277775"
         x="31.654589 35.502731 39.541306 43.027447 45.644272 49.028843 50.58456 54.54697 56.102757 60.217495 63.779881 67.587318"
         y="518.93787"
         sodipodi:role="line"
         id="tspan4338">Share &amp; Copy</tspan>
    </text>
    <path
       d="m 165.06211,520.88918 -1.35361,-4.67324 c -0.19544,-0.31327 -0.49812,-0.51788 -0.82973,-0.59513 -0.0988,-0.0226 -0.20003,-0.0342 -0.30163,-0.0342 -0.23989,0 -0.4826,0.0653 -0.70061,0.20248 l -3.22757,3.60611 -4.63938,1.34266 c -0.31044,0.19545 -0.51223,0.49918 -0.58773,0.83256 -0.0755,0.33303 -0.0243,0.69567 0.17075,1.0093 l 3.59798,3.26142 1.35325,4.6736 c 0.19544,0.31328 0.49848,0.51753 0.83009,0.5948 0.0984,0.0229 0.19932,0.0346 0.30092,0.0346 0.24024,0 0.48331,-0.0653 0.70132,-0.2025 l 3.22721,-3.60643 4.63974,-1.34269 c 0.31009,-0.19544 0.51258,-0.49881 0.58772,-0.83255 0.0751,-0.33301 0.0243,-0.69568 -0.17109,-1.00895 z"
       style="display:inline;fill:#3594ce;fill-opacity:1;fill-rule:nonzero;stroke:none;stroke-width:0.35277775"
       id="path4130"
       inkscape:connector-curvature="0" />
    <path
       d="m 159.21369,531.79668 c -0.52952,-0.12347 -0.97966,-0.44627 -1.26859,-0.90875 l -0.0515,-0.0833 -0.0272,-0.0938 -1.29787,-4.48098 -3.15948,-2.86456 h -35.55576 v 10.31347 h 42.4187 v -1.92159 c -0.19261,0.0596 -0.39299,0.0924 -0.5969,0.0924 -0.15486,0 -0.31009,-0.0177 -0.46143,-0.0529"
       style="display:inline;fill:#53b749;fill-opacity:1;fill-rule:nonzero;stroke:none;stroke-width:0.35277775"
       id="path4134"
       inkscape:connector-curvature="0" />
    <text
       y="525.76068"
       x="159.21542"
       style="font-variant:normal;font-weight:bold;font-stretch:normal;font-size:6.3499999px;font-family:'Roboto Slab';-inkscape-font-specification:RobotoSlab-Bold;writing-mode:lr-tb;display:inline;fill:#ffffff;fill-opacity:1;fill-rule:nonzero;stroke:none;stroke-width:0.35277775"
       id="text4138">
      <tspan
         style="stroke-width:0.35277775"
         x="159.21542"
         y="525.76068"
         id="tspan4136">8</tspan>
    </text>
    <a
       style="display:inline"
       id="a5946"
       transform="translate(2.12e-4,297)">
      <text
         id="text4146"
         style="font-variant:normal;font-weight:normal;font-stretch:normal;font-size:4.23333311px;font-family:Roboto;-inkscape-font-specification:Roboto-Regular;writing-mode:lr-tb;fill:#ffffff;fill-opacity:1;fill-rule:nonzero;stroke:none;stroke-width:0.35277775"
         x="117.8531"
         y="242.44232">
        <tspan
           id="tspan4140"
           sodipodi:role="line"
           y="242.44232"
           x="117.8531 120.1391 121.5323 123.77596 126.01962 127.0695 129.57986 131.99286 133.46184 134.84613 138.02536 140.32829 141.72148 143.96515 145.01501 147.38992 148.77846 151.16182 153.21075 154.23946 156.62704 158.87071 161.05513"
           style="stroke-width:0.35277775">Free Software provides</tspan>
        <tspan
           id="tspan4142"
           sodipodi:role="line"
           y="246.67566"
           x="117.8531 119.23741 121.56996 123.81363 124.86349 126.33247 127.72101 129.96468 132.20834 134.59593 137.00893 140.71733 141.7672 143.10832 145.52133 146.57118 147.96396 150.20763 152.54019 154.72458 156.96826 158.01811 159.40244 161.73499 163.97865"
           style="stroke-width:0.35277775">the freedom to reuse the</tspan>
        <tspan
           id="tspan4144"
           sodipodi:role="line"
           y="250.909"
           x="117.8531 120.06714 122.48013 124.86774 127.11139 128.16127 129.63025 132.04324 133.47411 134.52397 136.93698 138.32127 140.65384 142.89751 144.32837 145.37823 147.75314 149.14421 151.55721 152.56898 154.81264 157.02667 158.41096 160.59538"
           style="stroke-width:0.35277775">code for other projects.</tspan>
      </text>
    </a>
    <text
       y="530.40277"
       x="120.56956"
       style="font-variant:normal;font-weight:bold;font-stretch:normal;font-size:6.3499999px;font-family:'Roboto Slab';-inkscape-font-specification:RobotoSlab-Bold;writing-mode:lr-tb;display:inline;fill:#ffffff;fill-opacity:1;fill-rule:nonzero;stroke:none;stroke-width:0.35277775"
       id="text4150">
      <tspan
         style="stroke-width:0.35277775"
         x="120.56956 124.93839 128.32291 132.28531 135.55557 138.94016 140.49588 144.61069 148.173 151.93222"
         y="530.40277"
         sodipodi:role="line"
         id="tspan4148">Reuse Code</tspan>
    </text>
    <path
       d="m 182.01093,476.80883 c 4.26367,4.26366 5.34317,10.50183 3.24908,15.77021 l -3.90595,-3.89925 1.09925,12.37969 12.68448,1.38041 -4.21852,-4.2111 c 4.88421,-8.49102 3.70099,-19.51638 -3.556,-26.77301 h 2.7e-4 c -7.45526,-7.45526 -18.88949,-8.5016 -27.46446,-3.14361 l 5.57495,5.57494 c 5.41972,-2.52306 12.06464,-1.55045 16.53681,2.92172"
       style="display:inline;fill:#3594ce;fill-opacity:1;fill-rule:nonzero;stroke:none;stroke-width:0.35277775"
       id="path4180"
       inkscape:connector-curvature="0" />
    <path
       d="m 161.30178,497.51832 c -4.15819,-4.15853 -5.28567,-10.19387 -3.39654,-15.37758 l 3.96733,3.97475 -1.38006,-12.68448 -12.37968,-1.09961 4.09011,4.09752 c -4.66373,8.44373 -3.4163,19.28001 3.74579,26.4421 7.35542,7.35471 18.58469,8.47513 27.11909,3.35845 l -5.61481,-5.61482 c -5.346,2.30294 -11.78455,1.27035 -16.15123,-3.09633"
       style="display:inline;fill:#53b749;fill-opacity:1;fill-rule:nonzero;stroke:none;stroke-width:0.35277775"
       id="path4184"
       inkscape:connector-curvature="0" />
  </g>
</svg>
