<?xml version="1.0" encoding="utf-8"?>
<!-- Generator: Adobe Illustrator 17.0.0, SVG Export Plug-In . SVG Version: 6.00 Build 0)  -->
<!DOCTYPE svg PUBLIC "-//W3C//DTD SVG 1.1//EN" "http://www.w3.org/Graphics/SVG/1.1/DTD/svg11.dtd">
<svg version="1.1" id="Layer_1" xmlns="http://www.w3.org/2000/svg" xmlns:xlink="http://www.w3.org/1999/xlink" x="0px" y="0px"
	 width="442.316px" height="80.134px" viewBox="0 0 442.316 80.134" enable-background="new 0 0 442.316 80.134"
	 xml:space="preserve">
<g>
	<g>
		<path fill="#FFFFFF" d="M114.2,25.474c1.903,0,3.667,0.35,5.292,1.05c1.624,0.701,3.037,1.652,4.242,2.856
			c1.204,1.205,2.155,2.619,2.856,4.242c0.7,1.625,1.05,3.389,1.05,5.292v26.04l-0.84,0.84h-1.68l-3.36-3.36
			c-1.457,1.121-2.969,1.961-4.536,2.52c-1.568,0.56-3.416,0.84-5.544,0.84h-4.2c-1.68,0-3.234-0.294-4.662-0.882
			c-1.428-0.588-2.675-1.414-3.738-2.478c-1.064-1.063-1.89-2.31-2.478-3.738c-0.588-1.428-0.882-2.982-0.882-4.662
			c0-1.624,0.28-3.136,0.84-4.536c0.559-1.399,1.344-2.617,2.352-3.654c1.008-1.035,2.197-1.875,3.57-2.52
			c1.372-0.643,2.869-0.993,4.494-1.05h13.104v-3.36c0-1.68-0.561-3.079-1.68-4.2c-1.121-1.12-2.52-1.68-4.2-1.68h-5.04
			c-1.064,0-1.96,0.126-2.688,0.378c-0.728,0.252-1.358,0.56-1.89,0.924c-0.533,0.365-0.966,0.743-1.302,1.134
			c-0.336,0.393-0.617,0.701-0.84,0.924h-0.84l-3.36-4.2v-1.68l1.68-1.68c0.84-0.84,2.169-1.609,3.99-2.31
			c1.819-0.7,3.57-1.05,5.25-1.05H114.2z M107.397,49.833c-1.176,0-2.157,0.393-2.94,1.176c-0.785,0.785-1.176,1.821-1.176,3.108
			c0,1.176,0.378,2.156,1.134,2.94c0.756,0.785,1.75,1.176,2.982,1.176h4.284c2.52,0,4.549-0.769,6.09-2.31
			c1.54-1.54,2.31-3.57,2.31-6.09H107.397z"/>
		<path fill="#FFFFFF" d="M142.508,64.744c-1.625-0.7-3.039-1.651-4.242-2.856c-1.205-1.204-2.156-2.617-2.856-4.242
			c-0.701-1.624-1.05-3.388-1.05-5.292v-37.8l5.04-2.52h1.68l0.84,0.84v39.48c0,1.68,0.56,3.081,1.68,4.2
			c1.12,1.121,2.52,1.68,4.2,1.68h4.2l0.84,0.84v5.88l-0.84,0.84h-4.2C145.895,65.793,144.131,65.444,142.508,64.744z"/>
		<path fill="#FFFFFF" d="M172.159,65.793c-2.129,0-3.99-0.322-5.586-0.966c-1.596-0.643-3.066-1.525-4.41-2.646l-3.444,3.612h-1.68
			l-0.84-0.84v-52.08l0.84-0.84h5.88l0.84,0.84v12.6l-1.596,2.52l0.756,0.84l0.84-0.84c1.288-0.84,2.59-1.47,3.906-1.89
			c1.315-0.42,2.814-0.63,4.494-0.63h1.68c1.903,0,3.667,0.35,5.292,1.05c1.624,0.701,3.037,1.652,4.242,2.856
			c1.204,1.205,2.155,2.619,2.856,4.242c0.7,1.625,1.05,3.389,1.05,5.292v13.44c0,1.904-0.35,3.668-1.05,5.292
			c-0.701,1.625-1.652,3.039-2.856,4.242c-1.205,1.205-2.619,2.156-4.242,2.856c-1.625,0.701-3.389,1.05-5.292,1.05H172.159z
			 M172.159,33.034c-1.064,0-2.1,0.21-3.108,0.63c-1.008,0.42-1.904,1.008-2.688,1.764c-0.785,0.756-1.415,1.653-1.89,2.688
			c-0.477,1.037-0.714,2.142-0.714,3.318v8.4c0,1.289,0.238,2.436,0.714,3.444c0.475,1.008,1.105,1.89,1.89,2.646
			c0.784,0.756,1.68,1.331,2.688,1.722c1.008,0.393,2.044,0.588,3.108,0.588h1.596c1.68,0,3.094-0.559,4.242-1.68
			c1.147-1.119,1.722-2.52,1.722-4.2v-13.44c0-1.68-0.575-3.079-1.722-4.2c-1.148-1.12-2.562-1.68-4.242-1.68H172.159z"/>
		<path fill="#FFFFFF" d="M209.119,25.474c1.903,0,3.667,0.35,5.292,1.05c1.624,0.701,3.037,1.652,4.242,2.856
			c1.204,1.205,2.155,2.619,2.856,4.242c0.7,1.625,1.05,3.389,1.05,5.292v26.04l-0.84,0.84h-1.68l-3.36-3.36
			c-1.457,1.121-2.969,1.961-4.536,2.52c-1.568,0.56-3.416,0.84-5.544,0.84h-4.2c-1.68,0-3.234-0.294-4.662-0.882
			c-1.428-0.588-2.675-1.414-3.738-2.478c-1.064-1.063-1.89-2.31-2.478-3.738c-0.588-1.428-0.882-2.982-0.882-4.662
			c0-1.624,0.28-3.136,0.84-4.536c0.559-1.399,1.344-2.617,2.352-3.654c1.008-1.035,2.197-1.875,3.57-2.52
			c1.372-0.643,2.869-0.993,4.494-1.05h13.104v-3.36c0-1.68-0.561-3.079-1.68-4.2c-1.121-1.12-2.52-1.68-4.2-1.68h-5.04
			c-1.064,0-1.96,0.126-2.688,0.378c-0.728,0.252-1.358,0.56-1.89,0.924c-0.533,0.365-0.966,0.743-1.302,1.134
			c-0.336,0.393-0.617,0.701-0.84,0.924h-0.84l-3.36-4.2v-1.68l1.68-1.68c0.84-0.84,2.169-1.609,3.99-2.31
			c1.819-0.7,3.57-1.05,5.25-1.05H209.119z M202.315,49.833c-1.176,0-2.157,0.393-2.94,1.176c-0.785,0.785-1.176,1.821-1.176,3.108
			c0,1.176,0.378,2.156,1.134,2.94c0.756,0.785,1.75,1.176,2.982,1.176h4.284c2.52,0,4.549-0.769,6.09-2.31
			c1.54-1.54,2.31-3.57,2.31-6.09H202.315z"/>
		<path fill="#FFFFFF" d="M247.758,25.474c1.903,0,3.667,0.35,5.292,1.05c1.624,0.701,3.037,1.652,4.242,2.856
			c1.204,1.205,2.155,2.619,2.856,4.242c0.7,1.625,1.05,3.389,1.05,5.292v26.04l-0.84,0.84h-5.88l-0.84-0.84v-26.04
			c0-1.68-0.575-3.079-1.722-4.2c-1.148-1.12-2.562-1.68-4.242-1.68h-2.436c-1.064,0-2.1,0.197-3.108,0.588
			c-1.008,0.392-1.904,0.966-2.688,1.722c-0.785,0.756-1.415,1.653-1.89,2.688c-0.477,1.037-0.714,2.171-0.714,3.402v23.52
			l-0.84,0.84h-5.88l-0.84-0.84v-38.64l0.84-0.84h1.68l3.444,3.612c1.344-1.12,2.814-2.001,4.41-2.646
			c1.596-0.643,3.457-0.966,5.586-0.966H247.758z"/>
		<path fill="#FFFFFF" d="M268.758,12.874l0.84-0.84h5.88l0.84,0.84v6.72l-0.84,0.84h-5.88l-0.84-0.84V12.874z M268.758,26.313
			l0.84-0.84h5.88l0.84,0.84v38.64l-0.84,0.84h-5.88l-0.84-0.84V26.313z"/>
		<path fill="#FFFFFF" d="M296.477,65.793c-1.905,0-3.668-0.349-5.292-1.05c-1.625-0.7-3.039-1.651-4.242-2.856
			c-1.205-1.204-2.156-2.617-2.856-4.242c-0.701-1.624-1.05-3.388-1.05-5.292v-13.44c0-1.903,0.349-3.667,1.05-5.292
			c0.7-1.624,1.651-3.037,2.856-4.242c1.204-1.204,2.617-2.155,4.242-2.856c1.624-0.7,3.387-1.05,5.292-1.05h5.04
			c1.903,0,3.667,0.35,5.292,1.05c1.624,0.701,3.037,1.652,4.242,2.856c1.204,1.205,2.155,2.619,2.856,4.242
			c0.7,1.625,1.05,3.389,1.05,5.292v10.08h-24.36v3.36c0,1.68,0.56,3.081,1.68,4.2c1.12,1.121,2.52,1.68,4.2,1.68h6.72
			c1.68,0,3.108-0.307,4.284-0.924c1.176-0.616,1.987-1.147,2.436-1.596h0.84l3.36,3.36v1.68l-1.68,1.68
			c-0.84,0.84-2.171,1.61-3.99,2.31c-1.82,0.701-3.57,1.05-5.25,1.05H296.477z M296.477,33.034c-1.68,0-3.081,0.56-4.2,1.68
			c-1.121,1.121-1.68,2.52-1.68,4.2v2.52h16.8v-2.52c0-1.68-0.575-3.079-1.722-4.2c-1.148-1.12-2.562-1.68-4.242-1.68H296.477z"/>
		<path fill="#FFFFFF" d="M340.157,25.474c1.903,0,3.667,0.35,5.292,1.05c1.624,0.701,3.037,1.652,4.242,2.856
			c1.203,1.205,2.155,2.619,2.855,4.242c0.7,1.625,1.051,3.389,1.051,5.292v26.04l-0.841,0.84h-5.88l-0.839-0.84v-26.04
			c0-1.68-0.575-3.079-1.722-4.2c-1.148-1.12-2.562-1.68-4.242-1.68h-2.436c-1.064,0-2.1,0.197-3.108,0.588
			c-1.008,0.392-1.904,0.966-2.688,1.722c-0.785,0.756-1.415,1.653-1.89,2.688c-0.477,1.037-0.714,2.171-0.714,3.402v23.52
			l-0.84,0.84h-5.88l-0.84-0.84v-38.64l0.84-0.84h1.68l3.444,3.612c1.344-1.12,2.814-2.001,4.41-2.646
			c1.596-0.643,3.457-0.966,5.586-0.966H340.157z"/>
		<path fill="#FFFFFF" d="M361.156,56.553l0.84-0.84h8.4l0.84,0.84v8.4l-0.84,0.84h-8.4l-0.84-0.84V56.553z"/>
		<path fill="#FFFFFF" d="M392.757,33.034c-1.289,0-2.493,0.252-3.612,0.756c-1.121,0.504-2.1,1.176-2.939,2.016
			c-0.841,0.84-1.499,1.82-1.975,2.94c-0.477,1.121-0.714,2.297-0.714,3.528v6.72c0,1.289,0.237,2.492,0.714,3.612
			c0.476,1.121,1.134,2.1,1.975,2.94c0.84,0.84,1.818,1.499,2.939,1.974c1.119,0.477,2.323,0.714,3.612,0.714h1.68
			c1.063,0,1.96-0.126,2.688-0.378c0.727-0.252,1.356-0.559,1.89-0.924c0.531-0.364,0.966-0.742,1.302-1.134
			c0.336-0.391,0.616-0.7,0.84-0.924h0.841l3.359,4.2v1.68l-1.68,1.68c-0.84,0.84-2.171,1.61-3.99,2.31
			c-1.82,0.701-3.57,1.05-5.25,1.05h-1.68c-2.297,0-4.467-0.448-6.51-1.344c-2.045-0.895-3.822-2.1-5.335-3.612
			c-1.512-1.512-2.717-3.289-3.611-5.334c-0.896-2.043-1.344-4.213-1.344-6.51v-6.72c0-2.295,0.447-4.465,1.344-6.51
			c0.895-2.044,2.1-3.822,3.611-5.334c1.513-1.512,3.29-2.716,5.335-3.612c2.043-0.895,4.213-1.344,6.51-1.344h1.68
			c1.68,0,3.43,0.35,5.25,1.05c1.819,0.701,3.15,1.47,3.99,2.31l1.68,1.68v1.68l-3.359,4.2h-0.841
			c-0.224-0.223-0.504-0.532-0.84-0.924c-0.336-0.391-0.771-0.769-1.302-1.134c-0.533-0.364-1.163-0.672-1.89-0.924
			c-0.729-0.252-1.625-0.378-2.688-0.378H392.757z"/>
		<path fill="#FFFFFF" d="M428.876,25.474c1.903,0,3.667,0.35,5.292,1.05c1.624,0.701,3.037,1.652,4.242,2.856
			c1.203,1.205,2.155,2.619,2.855,4.242c0.7,1.625,1.051,3.389,1.051,5.292v26.04l-0.841,0.84h-5.88l-0.84-0.84v-26.04
			c0-1.68-0.575-3.079-1.722-4.2c-1.148-1.12-2.563-1.68-4.242-1.68h-2.436c-1.064,0-2.101,0.21-3.108,0.63
			s-1.904,1.008-2.688,1.764c-0.784,0.756-1.414,1.653-1.89,2.688c-0.477,1.037-0.714,2.142-0.714,3.318v23.52l-0.84,0.84h-5.88
			l-0.84-0.84v-52.08l0.84-0.84h5.88l0.84,0.84v12.6l-1.596,2.52l0.756,0.84l0.84-0.84c1.287-0.84,2.59-1.47,3.906-1.89
			c1.314-0.42,2.813-0.63,4.494-0.63H428.876z"/>
	</g>
	<g>
		<g>
			<path fill="#FFFFFF" d="M17.874,57.608c1.28,0.265,2.037,0.421,3.26,0.673c-0.164-1.541-0.083-2.928-0.488-4.155
				c-0.965-2.924-0.028-5.523,0.963-8.172c0.298-0.796,0.493-1.641,0.634-2.481c0.183-1.09,0.321-2.194,0.374-3.297
				c0.05-1.051,0.294-2.266-0.124-3.13c-0.932-1.923-0.597-3.656,0.109-5.462c0.877-2.247,1.753-4.495,2.616-6.748
				c0.565-1.473-0.045-2.597-1.599-3.015c-0.877-0.236-1.748-0.491-2.798-0.787c0.414-0.975,0.746-1.801,1.112-2.611
				c0.951-2.109,1.19-4.199,1.081-6.596c-0.114-2.515,0.651-5.229,2.969-7.12c1.655-1.35,3.036-3.035,4.673-4.707
				c0.23,0.237,0.645,0.614,1.001,1.041c1.247,1.494,2.787,2.402,4.774,2.342c1.677-0.051,2.664,0.723,3.187,2.29
				c0.572,1.715,1.937,2.501,3.46,3.427c1.62,0.985,2.698,2.875,3.984,4.394c1.372,1.619,1.392,3.274,0.959,5.424
				c-0.929,4.619-1.713,9.37-1.656,14.057c0.061,5.018,2.059,9.671,6.191,12.869c3.238,2.506,3.563,5.683,3.492,9.391
				c-0.048,2.504-1.216,3.852-2.855,5.369c-1.601,1.481-2.994,3.261-4.172,5.105c-1.214,1.9-2.424,3.68-4.335,4.982
				c-0.722,0.492-1.311,1.451-1.563,2.314c-0.874,2.99-2.584,5.254-5.279,6.791c-1.998,1.139-5.851-0.78-5.904-3.048
				c-0.084-3.599-1.592-6.093-5.104-7.192C21.094,67.759,20.067,62.521,17.874,57.608z"/>
		</g>
	</g>
	<g>
		<path fill="#FFFFFF" d="M114.2,25.474c1.903,0,3.667,0.35,5.292,1.05c1.624,0.701,3.037,1.652,4.242,2.856
			c1.204,1.205,2.155,2.619,2.856,4.242c0.7,1.625,1.05,3.389,1.05,5.292v26.04l-0.84,0.84h-1.68l-3.36-3.36
			c-1.457,1.121-2.969,1.961-4.536,2.52c-1.568,0.56-3.416,0.84-5.544,0.84h-4.2c-1.68,0-3.234-0.294-4.662-0.882
			c-1.428-0.588-2.675-1.414-3.738-2.478c-1.064-1.063-1.89-2.31-2.478-3.738c-0.588-1.428-0.882-2.982-0.882-4.662
			c0-1.624,0.28-3.136,0.84-4.536c0.559-1.399,1.344-2.617,2.352-3.654c1.008-1.035,2.197-1.875,3.57-2.52
			c1.372-0.643,2.869-0.993,4.494-1.05h13.104v-3.36c0-1.68-0.561-3.079-1.68-4.2c-1.121-1.12-2.52-1.68-4.2-1.68h-5.04
			c-1.064,0-1.96,0.126-2.688,0.378c-0.728,0.252-1.358,0.56-1.89,0.924c-0.533,0.365-0.966,0.743-1.302,1.134
			c-0.336,0.393-0.617,0.701-0.84,0.924h-0.84l-3.36-4.2v-1.68l1.68-1.68c0.84-0.84,2.169-1.609,3.99-2.31
			c1.819-0.7,3.57-1.05,5.25-1.05H114.2z M107.397,49.833c-1.176,0-2.157,0.393-2.94,1.176c-0.785,0.785-1.176,1.821-1.176,3.108
			c0,1.176,0.378,2.156,1.134,2.94c0.756,0.785,1.75,1.176,2.982,1.176h4.284c2.52,0,4.549-0.769,6.09-2.31
			c1.54-1.54,2.31-3.57,2.31-6.09H107.397z"/>
		<path fill="#FFFFFF" d="M142.508,64.744c-1.625-0.7-3.039-1.651-4.242-2.856c-1.205-1.204-2.156-2.617-2.856-4.242
			c-0.701-1.624-1.05-3.388-1.05-5.292v-37.8l5.04-2.52h1.68l0.84,0.84v39.48c0,1.68,0.56,3.081,1.68,4.2
			c1.12,1.121,2.52,1.68,4.2,1.68h4.2l0.84,0.84v5.88l-0.84,0.84h-4.2C145.895,65.793,144.131,65.444,142.508,64.744z"/>
		<path fill="#FFFFFF" d="M172.159,65.793c-2.129,0-3.99-0.322-5.586-0.966c-1.596-0.643-3.066-1.525-4.41-2.646l-3.444,3.612h-1.68
			l-0.84-0.84v-52.08l0.84-0.84h5.88l0.84,0.84v12.6l-1.596,2.52l0.756,0.84l0.84-0.84c1.288-0.84,2.59-1.47,3.906-1.89
			c1.315-0.42,2.814-0.63,4.494-0.63h1.68c1.903,0,3.667,0.35,5.292,1.05c1.624,0.701,3.037,1.652,4.242,2.856
			c1.204,1.205,2.155,2.619,2.856,4.242c0.7,1.625,1.05,3.389,1.05,5.292v13.44c0,1.904-0.35,3.668-1.05,5.292
			c-0.701,1.625-1.652,3.039-2.856,4.242c-1.205,1.205-2.619,2.156-4.242,2.856c-1.625,0.701-3.389,1.05-5.292,1.05H172.159z
			 M172.159,33.034c-1.064,0-2.1,0.21-3.108,0.63c-1.008,0.42-1.904,1.008-2.688,1.764c-0.785,0.756-1.415,1.653-1.89,2.688
			c-0.477,1.037-0.714,2.142-0.714,3.318v8.4c0,1.289,0.238,2.436,0.714,3.444c0.475,1.008,1.105,1.89,1.89,2.646
			c0.784,0.756,1.68,1.331,2.688,1.722c1.008,0.393,2.044,0.588,3.108,0.588h1.596c1.68,0,3.094-0.559,4.242-1.68
			c1.147-1.119,1.722-2.52,1.722-4.2v-13.44c0-1.68-0.575-3.079-1.722-4.2c-1.148-1.12-2.562-1.68-4.242-1.68H172.159z"/>
		<path fill="#FFFFFF" d="M209.119,25.474c1.903,0,3.667,0.35,5.292,1.05c1.624,0.701,3.037,1.652,4.242,2.856
			c1.204,1.205,2.155,2.619,2.856,4.242c0.7,1.625,1.05,3.389,1.05,5.292v26.04l-0.84,0.84h-1.68l-3.36-3.36
			c-1.457,1.121-2.969,1.961-4.536,2.52c-1.568,0.56-3.416,0.84-5.544,0.84h-4.2c-1.68,0-3.234-0.294-4.662-0.882
			c-1.428-0.588-2.675-1.414-3.738-2.478c-1.064-1.063-1.89-2.31-2.478-3.738c-0.588-1.428-0.882-2.982-0.882-4.662
			c0-1.624,0.28-3.136,0.84-4.536c0.559-1.399,1.344-2.617,2.352-3.654c1.008-1.035,2.197-1.875,3.57-2.52
			c1.372-0.643,2.869-0.993,4.494-1.05h13.104v-3.36c0-1.68-0.561-3.079-1.68-4.2c-1.121-1.12-2.52-1.68-4.2-1.68h-5.04
			c-1.064,0-1.96,0.126-2.688,0.378c-0.728,0.252-1.358,0.56-1.89,0.924c-0.533,0.365-0.966,0.743-1.302,1.134
			c-0.336,0.393-0.617,0.701-0.84,0.924h-0.84l-3.36-4.2v-1.68l1.68-1.68c0.84-0.84,2.169-1.609,3.99-2.31
			c1.819-0.7,3.57-1.05,5.25-1.05H209.119z M202.315,49.833c-1.176,0-2.157,0.393-2.94,1.176c-0.785,0.785-1.176,1.821-1.176,3.108
			c0,1.176,0.378,2.156,1.134,2.94c0.756,0.785,1.75,1.176,2.982,1.176h4.284c2.52,0,4.549-0.769,6.09-2.31
			c1.54-1.54,2.31-3.57,2.31-6.09H202.315z"/>
		<path fill="#FFFFFF" d="M247.758,25.474c1.903,0,3.667,0.35,5.292,1.05c1.624,0.701,3.037,1.652,4.242,2.856
			c1.204,1.205,2.155,2.619,2.856,4.242c0.7,1.625,1.05,3.389,1.05,5.292v26.04l-0.84,0.84h-5.88l-0.84-0.84v-26.04
			c0-1.68-0.575-3.079-1.722-4.2c-1.148-1.12-2.562-1.68-4.242-1.68h-2.436c-1.064,0-2.1,0.197-3.108,0.588
			c-1.008,0.392-1.904,0.966-2.688,1.722c-0.785,0.756-1.415,1.653-1.89,2.688c-0.477,1.037-0.714,2.171-0.714,3.402v23.52
			l-0.84,0.84h-5.88l-0.84-0.84v-38.64l0.84-0.84h1.68l3.444,3.612c1.344-1.12,2.814-2.001,4.41-2.646
			c1.596-0.643,3.457-0.966,5.586-0.966H247.758z"/>
		<path fill="#FFFFFF" d="M268.758,12.874l0.84-0.84h5.88l0.84,0.84v6.72l-0.84,0.84h-5.88l-0.84-0.84V12.874z M268.758,26.313
			l0.84-0.84h5.88l0.84,0.84v38.64l-0.84,0.84h-5.88l-0.84-0.84V26.313z"/>
		<path fill="#FFFFFF" d="M296.477,65.793c-1.905,0-3.668-0.349-5.292-1.05c-1.625-0.7-3.039-1.651-4.242-2.856
			c-1.205-1.204-2.156-2.617-2.856-4.242c-0.701-1.624-1.05-3.388-1.05-5.292v-13.44c0-1.903,0.349-3.667,1.05-5.292
			c0.7-1.624,1.651-3.037,2.856-4.242c1.204-1.204,2.617-2.155,4.242-2.856c1.624-0.7,3.387-1.05,5.292-1.05h5.04
			c1.903,0,3.667,0.35,5.292,1.05c1.624,0.701,3.037,1.652,4.242,2.856c1.204,1.205,2.155,2.619,2.856,4.242
			c0.7,1.625,1.05,3.389,1.05,5.292v10.08h-24.36v3.36c0,1.68,0.56,3.081,1.68,4.2c1.12,1.121,2.52,1.68,4.2,1.68h6.72
			c1.68,0,3.108-0.307,4.284-0.924c1.176-0.616,1.987-1.147,2.436-1.596h0.84l3.36,3.36v1.68l-1.68,1.68
			c-0.84,0.84-2.171,1.61-3.99,2.31c-1.82,0.701-3.57,1.05-5.25,1.05H296.477z M296.477,33.034c-1.68,0-3.081,0.56-4.2,1.68
			c-1.121,1.121-1.68,2.52-1.68,4.2v2.52h16.8v-2.52c0-1.68-0.575-3.079-1.722-4.2c-1.148-1.12-2.562-1.68-4.242-1.68H296.477z"/>
		<path fill="#FFFFFF" d="M340.157,25.474c1.903,0,3.667,0.35,5.292,1.05c1.624,0.701,3.037,1.652,4.242,2.856
			c1.203,1.205,2.155,2.619,2.855,4.242c0.7,1.625,1.051,3.389,1.051,5.292v26.04l-0.841,0.84h-5.88l-0.839-0.84v-26.04
			c0-1.68-0.575-3.079-1.722-4.2c-1.148-1.12-2.562-1.68-4.242-1.68h-2.436c-1.064,0-2.1,0.197-3.108,0.588
			c-1.008,0.392-1.904,0.966-2.688,1.722c-0.785,0.756-1.415,1.653-1.89,2.688c-0.477,1.037-0.714,2.171-0.714,3.402v23.52
			l-0.84,0.84h-5.88l-0.84-0.84v-38.64l0.84-0.84h1.68l3.444,3.612c1.344-1.12,2.814-2.001,4.41-2.646
			c1.596-0.643,3.457-0.966,5.586-0.966H340.157z"/>
		<path fill="#FFFFFF" d="M361.156,56.553l0.84-0.84h8.4l0.84,0.84v8.4l-0.84,0.84h-8.4l-0.84-0.84V56.553z"/>
		<path fill="#FFFFFF" d="M392.757,33.034c-1.289,0-2.493,0.252-3.612,0.756c-1.121,0.504-2.1,1.176-2.939,2.016
			c-0.841,0.84-1.499,1.82-1.975,2.94c-0.477,1.121-0.714,2.297-0.714,3.528v6.72c0,1.289,0.237,2.492,0.714,3.612
			c0.476,1.121,1.134,2.1,1.975,2.94c0.84,0.84,1.818,1.499,2.939,1.974c1.119,0.477,2.323,0.714,3.612,0.714h1.68
			c1.063,0,1.96-0.126,2.688-0.378c0.727-0.252,1.356-0.559,1.89-0.924c0.531-0.364,0.966-0.742,1.302-1.134
			c0.336-0.391,0.616-0.7,0.84-0.924h0.841l3.359,4.2v1.68l-1.68,1.68c-0.84,0.84-2.171,1.61-3.99,2.31
			c-1.82,0.701-3.57,1.05-5.25,1.05h-1.68c-2.297,0-4.467-0.448-6.51-1.344c-2.045-0.895-3.822-2.1-5.335-3.612
			c-1.512-1.512-2.717-3.289-3.611-5.334c-0.896-2.043-1.344-4.213-1.344-6.51v-6.72c0-2.295,0.447-4.465,1.344-6.51
			c0.895-2.044,2.1-3.822,3.611-5.334c1.513-1.512,3.29-2.716,5.335-3.612c2.043-0.895,4.213-1.344,6.51-1.344h1.68
			c1.68,0,3.43,0.35,5.25,1.05c1.819,0.701,3.15,1.47,3.99,2.31l1.68,1.68v1.68l-3.359,4.2h-0.841
			c-0.224-0.223-0.504-0.532-0.84-0.924c-0.336-0.391-0.771-0.769-1.302-1.134c-0.533-0.364-1.163-0.672-1.89-0.924
			c-0.729-0.252-1.625-0.378-2.688-0.378H392.757z"/>
		<path fill="#FFFFFF" d="M428.876,25.474c1.903,0,3.667,0.35,5.292,1.05c1.624,0.701,3.037,1.652,4.242,2.856
			c1.203,1.205,2.155,2.619,2.855,4.242c0.7,1.625,1.051,3.389,1.051,5.292v26.04l-0.841,0.84h-5.88l-0.84-0.84v-26.04
			c0-1.68-0.575-3.079-1.722-4.2c-1.148-1.12-2.563-1.68-4.242-1.68h-2.436c-1.064,0-2.101,0.21-3.108,0.63
			s-1.904,1.008-2.688,1.764c-0.784,0.756-1.414,1.653-1.89,2.688c-0.477,1.037-0.714,2.142-0.714,3.318v23.52l-0.84,0.84h-5.88
			l-0.84-0.84v-52.08l0.84-0.84h5.88l0.84,0.84v12.6l-1.596,2.52l0.756,0.84l0.84-0.84c1.287-0.84,2.59-1.47,3.906-1.89
			c1.314-0.42,2.813-0.63,4.494-0.63H428.876z"/>
	</g>
	<g>
		<path fill="#FFFFFF" d="M15.567,52.339c-0.018-0.317-0.015-0.626-0.011-0.934h-4.511L15.567,52.339z"/>
		<path fill="#FFFFFF" d="M11.046,51.405h4.511c0.044-2.76,0.936-5.169,1.656-7.094c0.159-0.425,0.29-0.953,0.401-1.614
			c0.172-1.025,0.275-1.923,0.314-2.745c0.014-0.289,0.038-0.588,0.064-0.89c0.012-0.145,0.029-0.335,0.039-0.492
			c-1.482-3.513-0.61-6.623,0.198-8.693c0.138-0.353,0.274-0.705,0.412-1.058H0v22.585h9.965l-0.11-0.246L11.046,51.405z"/>
		<path fill="#FFFFFF" d="M73.93,28.681H51.248c-0.129,1.42-0.206,2.842-0.189,4.237c0.033,2.686,0.817,6.464,4.37,9.214
			c3.579,2.77,4.769,6.208,5.152,9.135h13.35V28.681z"/>
	</g>
</g>
</svg>
