<?xml version="1.0" encoding="utf-8"?>
<!-- Generator: Adobe Illustrator 17.0.0, SVG Export Plug-In . SVG Version: 6.00 Build 0)  -->
<!DOCTYPE svg PUBLIC "-//W3C//DTD SVG 1.1//EN" "http://www.w3.org/Graphics/SVG/1.1/DTD/svg11.dtd">
<svg version="1.1" id="Layer_1" xmlns="http://www.w3.org/2000/svg" xmlns:xlink="http://www.w3.org/1999/xlink" x="0px" y="0px"
	 width="445.195px" height="79.272px" viewBox="0 0 445.195 79.272" enable-background="new 0 0 445.195 79.272"
	 xml:space="preserve">
<g>
	<rect x="0" y="0" fill="#E41E20" width="79.272" height="79.272"/>
	<g>
		<path d="M117.079,25.063c1.903,0,3.667,0.35,5.292,1.05c1.624,0.701,3.037,1.652,4.242,2.856c1.204,1.205,2.155,2.619,2.856,4.242
			c0.7,1.625,1.05,3.389,1.05,5.292v26.04l-0.84,0.84h-1.68l-3.36-3.36c-1.457,1.121-2.969,1.961-4.536,2.52
			c-1.568,0.56-3.416,0.84-5.544,0.84h-4.2c-1.68,0-3.234-0.294-4.662-0.882c-1.428-0.588-2.675-1.414-3.738-2.478
			c-1.064-1.063-1.89-2.31-2.478-3.738c-0.588-1.428-0.882-2.982-0.882-4.662c0-1.624,0.28-3.136,0.84-4.536
			c0.559-1.399,1.344-2.617,2.352-3.654c1.008-1.035,2.197-1.875,3.57-2.52c1.372-0.643,2.869-0.993,4.494-1.05h13.104v-3.36
			c0-1.68-0.561-3.079-1.68-4.2c-1.121-1.12-2.52-1.68-4.2-1.68h-5.04c-1.064,0-1.96,0.126-2.688,0.378
			c-0.728,0.252-1.358,0.56-1.89,0.924c-0.533,0.365-0.966,0.743-1.302,1.134c-0.336,0.393-0.617,0.701-0.84,0.924h-0.84l-3.36-4.2
			v-1.68l1.68-1.68c0.84-0.84,2.169-1.609,3.99-2.31c1.819-0.7,3.57-1.05,5.25-1.05H117.079z M110.275,49.423
			c-1.176,0-2.157,0.393-2.94,1.176c-0.785,0.785-1.176,1.821-1.176,3.108c0,1.176,0.378,2.156,1.134,2.94
			c0.756,0.785,1.75,1.176,2.982,1.176h4.284c2.52,0,4.549-0.769,6.09-2.31c1.54-1.54,2.31-3.57,2.31-6.09H110.275z"/>
		<path d="M145.386,64.333c-1.625-0.7-3.039-1.651-4.242-2.856c-1.205-1.204-2.156-2.617-2.856-4.242
			c-0.701-1.624-1.05-3.388-1.05-5.292v-37.8l5.04-2.52h1.68l0.84,0.84v39.48c0,1.68,0.56,3.081,1.68,4.2
			c1.12,1.121,2.52,1.68,4.2,1.68h4.2l0.84,0.84v5.88l-0.84,0.84h-4.2C148.773,65.383,147.01,65.034,145.386,64.333z"/>
		<path d="M175.038,65.383c-2.129,0-3.99-0.322-5.586-0.966c-1.596-0.643-3.066-1.525-4.41-2.646l-3.444,3.612h-1.68l-0.84-0.84
			v-52.08l0.84-0.84h5.88l0.84,0.84v12.6l-1.596,2.52l0.756,0.84l0.84-0.84c1.288-0.84,2.59-1.47,3.906-1.89
			c1.315-0.42,2.814-0.63,4.494-0.63h1.68c1.903,0,3.667,0.35,5.292,1.05c1.624,0.701,3.037,1.652,4.242,2.856
			c1.204,1.205,2.155,2.619,2.856,4.242c0.7,1.625,1.05,3.389,1.05,5.292v13.44c0,1.904-0.35,3.668-1.05,5.292
			c-0.701,1.625-1.652,3.039-2.856,4.242c-1.205,1.205-2.619,2.156-4.242,2.856c-1.625,0.701-3.389,1.05-5.292,1.05H175.038z
			 M175.038,32.623c-1.064,0-2.1,0.21-3.108,0.63c-1.008,0.42-1.904,1.008-2.688,1.764c-0.785,0.756-1.415,1.653-1.89,2.688
			c-0.477,1.037-0.714,2.142-0.714,3.318v8.4c0,1.289,0.238,2.436,0.714,3.444c0.475,1.008,1.105,1.89,1.89,2.646
			c0.784,0.756,1.68,1.331,2.688,1.722c1.008,0.393,2.044,0.588,3.108,0.588h1.596c1.68,0,3.094-0.559,4.242-1.68
			c1.147-1.119,1.722-2.52,1.722-4.2v-13.44c0-1.68-0.575-3.079-1.722-4.2c-1.148-1.12-2.562-1.68-4.242-1.68H175.038z"/>
		<path d="M211.997,25.063c1.903,0,3.667,0.35,5.292,1.05c1.624,0.701,3.037,1.652,4.242,2.856c1.204,1.205,2.155,2.619,2.856,4.242
			c0.7,1.625,1.05,3.389,1.05,5.292v26.04l-0.84,0.84h-1.68l-3.36-3.36c-1.457,1.121-2.969,1.961-4.536,2.52
			c-1.568,0.56-3.416,0.84-5.544,0.84h-4.2c-1.68,0-3.234-0.294-4.662-0.882c-1.428-0.588-2.675-1.414-3.738-2.478
			c-1.064-1.063-1.89-2.31-2.478-3.738c-0.588-1.428-0.882-2.982-0.882-4.662c0-1.624,0.28-3.136,0.84-4.536
			c0.559-1.399,1.344-2.617,2.352-3.654c1.008-1.035,2.197-1.875,3.57-2.52c1.372-0.643,2.869-0.993,4.494-1.05h13.104v-3.36
			c0-1.68-0.561-3.079-1.68-4.2c-1.121-1.12-2.52-1.68-4.2-1.68h-5.04c-1.064,0-1.96,0.126-2.688,0.378
			c-0.728,0.252-1.358,0.56-1.89,0.924c-0.533,0.365-0.966,0.743-1.302,1.134c-0.336,0.393-0.617,0.701-0.84,0.924h-0.84l-3.36-4.2
			v-1.68l1.68-1.68c0.84-0.84,2.169-1.609,3.99-2.31c1.819-0.7,3.57-1.05,5.25-1.05H211.997z M205.194,49.423
			c-1.176,0-2.157,0.393-2.94,1.176c-0.785,0.785-1.176,1.821-1.176,3.108c0,1.176,0.378,2.156,1.134,2.94
			c0.756,0.785,1.75,1.176,2.982,1.176h4.284c2.52,0,4.549-0.769,6.09-2.31c1.54-1.54,2.31-3.57,2.31-6.09H205.194z"/>
		<path d="M250.637,25.063c1.903,0,3.667,0.35,5.292,1.05c1.624,0.701,3.037,1.652,4.242,2.856c1.204,1.205,2.155,2.619,2.856,4.242
			c0.7,1.625,1.05,3.389,1.05,5.292v26.04l-0.84,0.84h-5.88l-0.84-0.84v-26.04c0-1.68-0.575-3.079-1.722-4.2
			c-1.148-1.12-2.562-1.68-4.242-1.68h-2.436c-1.064,0-2.1,0.197-3.108,0.588c-1.008,0.392-1.904,0.966-2.688,1.722
			c-0.785,0.756-1.415,1.653-1.89,2.688c-0.477,1.037-0.714,2.171-0.714,3.402v23.52l-0.84,0.84h-5.88l-0.84-0.84v-38.64l0.84-0.84
			h1.68l3.444,3.612c1.344-1.12,2.814-2.001,4.41-2.646c1.596-0.643,3.457-0.966,5.586-0.966H250.637z"/>
		<path d="M271.636,12.463l0.84-0.84h5.88l0.84,0.84v6.72l-0.84,0.84h-5.88l-0.84-0.84V12.463z M271.636,25.903l0.84-0.84h5.88
			l0.84,0.84v38.64l-0.84,0.84h-5.88l-0.84-0.84V25.903z"/>
		<path d="M299.356,65.383c-1.905,0-3.668-0.349-5.292-1.05c-1.625-0.7-3.039-1.651-4.242-2.856
			c-1.205-1.204-2.156-2.617-2.856-4.242c-0.701-1.624-1.05-3.388-1.05-5.292v-13.44c0-1.903,0.349-3.667,1.05-5.292
			c0.7-1.624,1.651-3.037,2.856-4.242c1.204-1.204,2.617-2.155,4.242-2.856c1.624-0.7,3.387-1.05,5.292-1.05h5.04
			c1.903,0,3.667,0.35,5.292,1.05c1.624,0.701,3.037,1.652,4.242,2.856c1.204,1.205,2.155,2.619,2.856,4.242
			c0.7,1.625,1.05,3.389,1.05,5.292v10.08h-24.36v3.36c0,1.68,0.56,3.081,1.68,4.2c1.12,1.121,2.52,1.68,4.2,1.68h6.72
			c1.68,0,3.108-0.307,4.284-0.924c1.176-0.616,1.987-1.147,2.436-1.596h0.84l3.36,3.36v1.68l-1.68,1.68
			c-0.84,0.84-2.171,1.61-3.99,2.31c-1.82,0.701-3.57,1.05-5.25,1.05H299.356z M299.356,32.623c-1.68,0-3.081,0.56-4.2,1.68
			c-1.121,1.121-1.68,2.52-1.68,4.2v2.52h16.8v-2.52c0-1.68-0.575-3.079-1.722-4.2c-1.148-1.12-2.562-1.68-4.242-1.68H299.356z"/>
		<path d="M343.036,25.063c1.903,0,3.667,0.35,5.292,1.05c1.624,0.701,3.037,1.652,4.242,2.856c1.203,1.205,2.155,2.619,2.855,4.242
			c0.7,1.625,1.051,3.389,1.051,5.292v26.04l-0.841,0.84h-5.88l-0.839-0.84v-26.04c0-1.68-0.575-3.079-1.722-4.2
			c-1.148-1.12-2.562-1.68-4.242-1.68h-2.436c-1.064,0-2.1,0.197-3.108,0.588c-1.008,0.392-1.904,0.966-2.688,1.722
			c-0.785,0.756-1.415,1.653-1.89,2.688c-0.477,1.037-0.714,2.171-0.714,3.402v23.52l-0.84,0.84h-5.88l-0.84-0.84v-38.64l0.84-0.84
			h1.68l3.444,3.612c1.344-1.12,2.814-2.001,4.41-2.646c1.596-0.643,3.457-0.966,5.586-0.966H343.036z"/>
		<path d="M364.034,56.143l0.84-0.84h8.4l0.84,0.84v8.4l-0.84,0.84h-8.4l-0.84-0.84V56.143z"/>
		<path d="M395.635,32.623c-1.289,0-2.493,0.252-3.612,0.756c-1.121,0.504-2.1,1.176-2.939,2.016c-0.841,0.84-1.499,1.82-1.975,2.94
			c-0.477,1.121-0.714,2.297-0.714,3.528v6.72c0,1.289,0.237,2.492,0.714,3.612c0.476,1.121,1.134,2.1,1.975,2.94
			c0.84,0.84,1.818,1.499,2.939,1.974c1.119,0.477,2.323,0.714,3.612,0.714h1.68c1.063,0,1.96-0.126,2.688-0.378
			c0.727-0.252,1.356-0.559,1.89-0.924c0.531-0.364,0.966-0.742,1.302-1.134c0.336-0.391,0.616-0.7,0.84-0.924h0.841l3.359,4.2v1.68
			l-1.68,1.68c-0.84,0.84-2.171,1.61-3.99,2.31c-1.82,0.701-3.57,1.05-5.25,1.05h-1.68c-2.297,0-4.467-0.448-6.51-1.344
			c-2.045-0.895-3.822-2.1-5.335-3.612c-1.512-1.512-2.717-3.289-3.611-5.334c-0.896-2.043-1.344-4.213-1.344-6.51v-6.72
			c0-2.295,0.447-4.465,1.344-6.51c0.895-2.044,2.1-3.822,3.611-5.334c1.513-1.512,3.29-2.716,5.335-3.612
			c2.043-0.895,4.213-1.344,6.51-1.344h1.68c1.68,0,3.43,0.35,5.25,1.05c1.819,0.701,3.15,1.47,3.99,2.31l1.68,1.68v1.68l-3.359,4.2
			h-0.841c-0.224-0.223-0.504-0.532-0.84-0.924c-0.336-0.391-0.771-0.769-1.302-1.134c-0.533-0.364-1.163-0.672-1.89-0.924
			c-0.729-0.252-1.625-0.378-2.688-0.378H395.635z"/>
		<path d="M431.754,25.063c1.903,0,3.667,0.35,5.292,1.05c1.624,0.701,3.037,1.652,4.242,2.856c1.203,1.205,2.155,2.619,2.855,4.242
			c0.7,1.625,1.051,3.389,1.051,5.292v26.04l-0.841,0.84h-5.88l-0.84-0.84v-26.04c0-1.68-0.575-3.079-1.722-4.2
			c-1.148-1.12-2.563-1.68-4.242-1.68h-2.436c-1.064,0-2.101,0.21-3.108,0.63s-1.904,1.008-2.688,1.764
			c-0.784,0.756-1.414,1.653-1.89,2.688c-0.477,1.037-0.714,2.142-0.714,3.318v23.52l-0.84,0.84h-5.88l-0.84-0.84v-52.08l0.84-0.84
			h5.88l0.84,0.84v12.6l-1.596,2.52l0.756,0.84l0.84-0.84c1.287-0.84,2.59-1.47,3.906-1.89c1.314-0.42,2.813-0.63,4.494-0.63
			H431.754z"/>
	</g>
	<g>
		<g>
			<path fill="#FFFFFF" d="M23.663,54.524c1.085,0.224,1.726,0.357,2.763,0.571c-0.139-1.306-0.07-2.482-0.413-3.522
				c-0.818-2.479-0.023-4.681,0.816-6.926c0.252-0.674,0.418-1.391,0.537-2.103c0.155-0.924,0.272-1.859,0.317-2.794
				c0.043-0.89,0.249-1.921-0.105-2.653c-0.79-1.63-0.506-3.098,0.092-4.63c0.744-1.905,1.486-3.81,2.217-5.719
				c0.479-1.249-0.038-2.201-1.355-2.555c-0.743-0.2-1.481-0.416-2.371-0.667c0.351-0.826,0.632-1.526,0.942-2.213
				c0.806-1.787,1.008-3.559,0.916-5.591c-0.097-2.132,0.552-4.432,2.517-6.035c1.402-1.144,2.573-2.572,3.96-3.989
				c0.195,0.201,0.547,0.521,0.848,0.882c1.057,1.266,2.362,2.036,4.046,1.985c1.421-0.043,2.258,0.612,2.701,1.941
				c0.485,1.453,1.642,2.12,2.932,2.905c1.373,0.835,2.286,2.437,3.377,3.724c1.162,1.372,1.179,2.775,0.813,4.597
				c-0.787,3.915-1.452,7.942-1.403,11.914c0.052,4.253,1.745,8.197,5.247,10.907c2.744,2.124,3.02,4.816,2.96,7.959
				c-0.041,2.123-1.031,3.265-2.42,4.551c-1.357,1.256-2.537,2.764-3.536,4.327c-1.029,1.61-2.055,3.119-3.674,4.222
				c-0.612,0.417-1.111,1.23-1.325,1.961c-0.741,2.534-2.19,4.453-4.474,5.756c-1.694,0.966-4.959-0.661-5.004-2.584
				c-0.071-3.05-1.35-5.164-4.326-6.095C26.392,63.126,25.522,58.687,23.663,54.524z"/>
		</g>
	</g>
	<g>
		<path d="M117.079,25.063c1.903,0,3.667,0.35,5.292,1.05c1.624,0.701,3.037,1.652,4.242,2.856c1.204,1.205,2.155,2.619,2.856,4.242
			c0.7,1.625,1.05,3.389,1.05,5.292v26.04l-0.84,0.84h-1.68l-3.36-3.36c-1.457,1.121-2.969,1.961-4.536,2.52
			c-1.568,0.56-3.416,0.84-5.544,0.84h-4.2c-1.68,0-3.234-0.294-4.662-0.882c-1.428-0.588-2.675-1.414-3.738-2.478
			c-1.064-1.063-1.89-2.31-2.478-3.738c-0.588-1.428-0.882-2.982-0.882-4.662c0-1.624,0.28-3.136,0.84-4.536
			c0.559-1.399,1.344-2.617,2.352-3.654c1.008-1.035,2.197-1.875,3.57-2.52c1.372-0.643,2.869-0.993,4.494-1.05h13.104v-3.36
			c0-1.68-0.561-3.079-1.68-4.2c-1.121-1.12-2.52-1.68-4.2-1.68h-5.04c-1.064,0-1.96,0.126-2.688,0.378
			c-0.728,0.252-1.358,0.56-1.89,0.924c-0.533,0.365-0.966,0.743-1.302,1.134c-0.336,0.393-0.617,0.701-0.84,0.924h-0.84l-3.36-4.2
			v-1.68l1.68-1.68c0.84-0.84,2.169-1.609,3.99-2.31c1.819-0.7,3.57-1.05,5.25-1.05H117.079z M110.275,49.423
			c-1.176,0-2.157,0.393-2.94,1.176c-0.785,0.785-1.176,1.821-1.176,3.108c0,1.176,0.378,2.156,1.134,2.94
			c0.756,0.785,1.75,1.176,2.982,1.176h4.284c2.52,0,4.549-0.769,6.09-2.31c1.54-1.54,2.31-3.57,2.31-6.09H110.275z"/>
		<path d="M145.386,64.333c-1.625-0.7-3.039-1.651-4.242-2.856c-1.205-1.204-2.156-2.617-2.856-4.242
			c-0.701-1.624-1.05-3.388-1.05-5.292v-37.8l5.04-2.52h1.68l0.84,0.84v39.48c0,1.68,0.56,3.081,1.68,4.2
			c1.12,1.121,2.52,1.68,4.2,1.68h4.2l0.84,0.84v5.88l-0.84,0.84h-4.2C148.773,65.383,147.01,65.034,145.386,64.333z"/>
		<path d="M175.038,65.383c-2.129,0-3.99-0.322-5.586-0.966c-1.596-0.643-3.066-1.525-4.41-2.646l-3.444,3.612h-1.68l-0.84-0.84
			v-52.08l0.84-0.84h5.88l0.84,0.84v12.6l-1.596,2.52l0.756,0.84l0.84-0.84c1.288-0.84,2.59-1.47,3.906-1.89
			c1.315-0.42,2.814-0.63,4.494-0.63h1.68c1.903,0,3.667,0.35,5.292,1.05c1.624,0.701,3.037,1.652,4.242,2.856
			c1.204,1.205,2.155,2.619,2.856,4.242c0.7,1.625,1.05,3.389,1.05,5.292v13.44c0,1.904-0.35,3.668-1.05,5.292
			c-0.701,1.625-1.652,3.039-2.856,4.242c-1.205,1.205-2.619,2.156-4.242,2.856c-1.625,0.701-3.389,1.05-5.292,1.05H175.038z
			 M175.038,32.623c-1.064,0-2.1,0.21-3.108,0.63c-1.008,0.42-1.904,1.008-2.688,1.764c-0.785,0.756-1.415,1.653-1.89,2.688
			c-0.477,1.037-0.714,2.142-0.714,3.318v8.4c0,1.289,0.238,2.436,0.714,3.444c0.475,1.008,1.105,1.89,1.89,2.646
			c0.784,0.756,1.68,1.331,2.688,1.722c1.008,0.393,2.044,0.588,3.108,0.588h1.596c1.68,0,3.094-0.559,4.242-1.68
			c1.147-1.119,1.722-2.52,1.722-4.2v-13.44c0-1.68-0.575-3.079-1.722-4.2c-1.148-1.12-2.562-1.68-4.242-1.68H175.038z"/>
		<path d="M211.997,25.063c1.903,0,3.667,0.35,5.292,1.05c1.624,0.701,3.037,1.652,4.242,2.856c1.204,1.205,2.155,2.619,2.856,4.242
			c0.7,1.625,1.05,3.389,1.05,5.292v26.04l-0.84,0.84h-1.68l-3.36-3.36c-1.457,1.121-2.969,1.961-4.536,2.52
			c-1.568,0.56-3.416,0.84-5.544,0.84h-4.2c-1.68,0-3.234-0.294-4.662-0.882c-1.428-0.588-2.675-1.414-3.738-2.478
			c-1.064-1.063-1.89-2.31-2.478-3.738c-0.588-1.428-0.882-2.982-0.882-4.662c0-1.624,0.28-3.136,0.84-4.536
			c0.559-1.399,1.344-2.617,2.352-3.654c1.008-1.035,2.197-1.875,3.57-2.52c1.372-0.643,2.869-0.993,4.494-1.05h13.104v-3.36
			c0-1.68-0.561-3.079-1.68-4.2c-1.121-1.12-2.52-1.68-4.2-1.68h-5.04c-1.064,0-1.96,0.126-2.688,0.378
			c-0.728,0.252-1.358,0.56-1.89,0.924c-0.533,0.365-0.966,0.743-1.302,1.134c-0.336,0.393-0.617,0.701-0.84,0.924h-0.84l-3.36-4.2
			v-1.68l1.68-1.68c0.84-0.84,2.169-1.609,3.99-2.31c1.819-0.7,3.57-1.05,5.25-1.05H211.997z M205.194,49.423
			c-1.176,0-2.157,0.393-2.94,1.176c-0.785,0.785-1.176,1.821-1.176,3.108c0,1.176,0.378,2.156,1.134,2.94
			c0.756,0.785,1.75,1.176,2.982,1.176h4.284c2.52,0,4.549-0.769,6.09-2.31c1.54-1.54,2.31-3.57,2.31-6.09H205.194z"/>
		<path d="M250.637,25.063c1.903,0,3.667,0.35,5.292,1.05c1.624,0.701,3.037,1.652,4.242,2.856c1.204,1.205,2.155,2.619,2.856,4.242
			c0.7,1.625,1.05,3.389,1.05,5.292v26.04l-0.84,0.84h-5.88l-0.84-0.84v-26.04c0-1.68-0.575-3.079-1.722-4.2
			c-1.148-1.12-2.562-1.68-4.242-1.68h-2.436c-1.064,0-2.1,0.197-3.108,0.588c-1.008,0.392-1.904,0.966-2.688,1.722
			c-0.785,0.756-1.415,1.653-1.89,2.688c-0.477,1.037-0.714,2.171-0.714,3.402v23.52l-0.84,0.84h-5.88l-0.84-0.84v-38.64l0.84-0.84
			h1.68l3.444,3.612c1.344-1.12,2.814-2.001,4.41-2.646c1.596-0.643,3.457-0.966,5.586-0.966H250.637z"/>
		<path d="M271.636,12.463l0.84-0.84h5.88l0.84,0.84v6.72l-0.84,0.84h-5.88l-0.84-0.84V12.463z M271.636,25.903l0.84-0.84h5.88
			l0.84,0.84v38.64l-0.84,0.84h-5.88l-0.84-0.84V25.903z"/>
		<path d="M299.356,65.383c-1.905,0-3.668-0.349-5.292-1.05c-1.625-0.7-3.039-1.651-4.242-2.856
			c-1.205-1.204-2.156-2.617-2.856-4.242c-0.701-1.624-1.05-3.388-1.05-5.292v-13.44c0-1.903,0.349-3.667,1.05-5.292
			c0.7-1.624,1.651-3.037,2.856-4.242c1.204-1.204,2.617-2.155,4.242-2.856c1.624-0.7,3.387-1.05,5.292-1.05h5.04
			c1.903,0,3.667,0.35,5.292,1.05c1.624,0.701,3.037,1.652,4.242,2.856c1.204,1.205,2.155,2.619,2.856,4.242
			c0.7,1.625,1.05,3.389,1.05,5.292v10.08h-24.36v3.36c0,1.68,0.56,3.081,1.68,4.2c1.12,1.121,2.52,1.68,4.2,1.68h6.72
			c1.68,0,3.108-0.307,4.284-0.924c1.176-0.616,1.987-1.147,2.436-1.596h0.84l3.36,3.36v1.68l-1.68,1.68
			c-0.84,0.84-2.171,1.61-3.99,2.31c-1.82,0.701-3.57,1.05-5.25,1.05H299.356z M299.356,32.623c-1.68,0-3.081,0.56-4.2,1.68
			c-1.121,1.121-1.68,2.52-1.68,4.2v2.52h16.8v-2.52c0-1.68-0.575-3.079-1.722-4.2c-1.148-1.12-2.562-1.68-4.242-1.68H299.356z"/>
		<path d="M343.036,25.063c1.903,0,3.667,0.35,5.292,1.05c1.624,0.701,3.037,1.652,4.242,2.856c1.203,1.205,2.155,2.619,2.855,4.242
			c0.7,1.625,1.051,3.389,1.051,5.292v26.04l-0.841,0.84h-5.88l-0.839-0.84v-26.04c0-1.68-0.575-3.079-1.722-4.2
			c-1.148-1.12-2.562-1.68-4.242-1.68h-2.436c-1.064,0-2.1,0.197-3.108,0.588c-1.008,0.392-1.904,0.966-2.688,1.722
			c-0.785,0.756-1.415,1.653-1.89,2.688c-0.477,1.037-0.714,2.171-0.714,3.402v23.52l-0.84,0.84h-5.88l-0.84-0.84v-38.64l0.84-0.84
			h1.68l3.444,3.612c1.344-1.12,2.814-2.001,4.41-2.646c1.596-0.643,3.457-0.966,5.586-0.966H343.036z"/>
		<path d="M364.034,56.143l0.84-0.84h8.4l0.84,0.84v8.4l-0.84,0.84h-8.4l-0.84-0.84V56.143z"/>
		<path d="M395.635,32.623c-1.289,0-2.493,0.252-3.612,0.756c-1.121,0.504-2.1,1.176-2.939,2.016c-0.841,0.84-1.499,1.82-1.975,2.94
			c-0.477,1.121-0.714,2.297-0.714,3.528v6.72c0,1.289,0.237,2.492,0.714,3.612c0.476,1.121,1.134,2.1,1.975,2.94
			c0.84,0.84,1.818,1.499,2.939,1.974c1.119,0.477,2.323,0.714,3.612,0.714h1.68c1.063,0,1.96-0.126,2.688-0.378
			c0.727-0.252,1.356-0.559,1.89-0.924c0.531-0.364,0.966-0.742,1.302-1.134c0.336-0.391,0.616-0.7,0.84-0.924h0.841l3.359,4.2v1.68
			l-1.68,1.68c-0.84,0.84-2.171,1.61-3.99,2.31c-1.82,0.701-3.57,1.05-5.25,1.05h-1.68c-2.297,0-4.467-0.448-6.51-1.344
			c-2.045-0.895-3.822-2.1-5.335-3.612c-1.512-1.512-2.717-3.289-3.611-5.334c-0.896-2.043-1.344-4.213-1.344-6.51v-6.72
			c0-2.295,0.447-4.465,1.344-6.51c0.895-2.044,2.1-3.822,3.611-5.334c1.513-1.512,3.29-2.716,5.335-3.612
			c2.043-0.895,4.213-1.344,6.51-1.344h1.68c1.68,0,3.43,0.35,5.25,1.05c1.819,0.701,3.15,1.47,3.99,2.31l1.68,1.68v1.68l-3.359,4.2
			h-0.841c-0.224-0.223-0.504-0.532-0.84-0.924c-0.336-0.391-0.771-0.769-1.302-1.134c-0.533-0.364-1.163-0.672-1.89-0.924
			c-0.729-0.252-1.625-0.378-2.688-0.378H395.635z"/>
		<path d="M431.754,25.063c1.903,0,3.667,0.35,5.292,1.05c1.624,0.701,3.037,1.652,4.242,2.856c1.203,1.205,2.155,2.619,2.855,4.242
			c0.7,1.625,1.051,3.389,1.051,5.292v26.04l-0.841,0.84h-5.88l-0.84-0.84v-26.04c0-1.68-0.575-3.079-1.722-4.2
			c-1.148-1.12-2.563-1.68-4.242-1.68h-2.436c-1.064,0-2.101,0.21-3.108,0.63s-1.904,1.008-2.688,1.764
			c-0.784,0.756-1.414,1.653-1.89,2.688c-0.477,1.037-0.714,2.142-0.714,3.318v23.52l-0.84,0.84h-5.88l-0.84-0.84v-52.08l0.84-0.84
			h5.88l0.84,0.84v12.6l-1.596,2.52l0.756,0.84l0.84-0.84c1.287-0.84,2.59-1.47,3.906-1.89c1.314-0.42,2.813-0.63,4.494-0.63
			H431.754z"/>
	</g>
	<g>
		<path fill="none" d="M21.708,50.057c-0.015-0.269-0.013-0.531-0.009-0.792h-3.824L21.708,50.057z"/>
		<path fill="#FFFFFF" d="M17.876,49.266h3.824c0.037-2.339,0.793-4.381,1.403-6.013c0.135-0.36,0.246-0.808,0.34-1.368
			c0.146-0.869,0.233-1.63,0.266-2.326c0.012-0.245,0.032-0.498,0.054-0.754c0.011-0.123,0.024-0.284,0.033-0.417
			c-1.256-2.977-0.517-5.613,0.167-7.367c0.117-0.299,0.233-0.598,0.349-0.897H8.514v19.142h8.445l-0.093-0.208L17.876,49.266z"/>
		<path fill="#FFFFFF" d="M71.172,30.006H51.949c-0.11,1.203-0.175,2.409-0.16,3.591c0.028,2.276,0.693,5.479,3.704,7.809
			c3.033,2.348,4.042,5.262,4.366,7.742h11.315V30.006z"/>
	</g>
</g>
</svg>
