<?xml version="1.0" encoding="UTF-8" standalone="no"?>
<!-- Created with Inkscape (http://www.inkscape.org/) -->

<svg
   xmlns:dc="http://purl.org/dc/elements/1.1/"
   xmlns:cc="http://creativecommons.org/ns#"
   xmlns:rdf="http://www.w3.org/1999/02/22-rdf-syntax-ns#"
   xmlns:svg="http://www.w3.org/2000/svg"
   xmlns="http://www.w3.org/2000/svg"
   xmlns:sodipodi="http://sodipodi.sourceforge.net/DTD/sodipodi-0.dtd"
   xmlns:inkscape="http://www.inkscape.org/namespaces/inkscape"
   width="287.41556"
   height="295.29977"
   viewBox="0 0 76.045369 78.131395"
   version="1.1"
   id="svg8"
   inkscape:version="0.92+devel unknown"
   sodipodi:docname="icon_color.svg">
  <defs
     id="defs2" />
  <sodipodi:namedview
     id="base"
     pagecolor="#ffffff"
     bordercolor="#666666"
     borderopacity="1.0"
     inkscape:pageopacity="0.0"
     inkscape:pageshadow="2"
     inkscape:zoom="0.98994949"
     inkscape:cx="22.729069"
     inkscape:cy="66.040255"
     inkscape:document-units="mm"
     inkscape:current-layer="layer1"
     inkscape:document-rotation="0"
     showgrid="true"
     borderlayer="true"
     inkscape:showpageshadow="false"
     units="px"
     inkscape:pagecheckerboard="false"
     showguides="true"
     inkscape:window-width="1366"
     inkscape:window-height="715"
     inkscape:window-x="0"
     inkscape:window-y="25"
     inkscape:window-maximized="1"
     fit-margin-top="0"
     fit-margin-left="0"
     fit-margin-right="0"
     fit-margin-bottom="0">
    <inkscape:grid
       type="xygrid"
       id="grid10"
       originx="-148.16669"
       originy="105.83333" />
  </sodipodi:namedview>
  <metadata
     id="metadata5">
    <rdf:RDF>
      <cc:Work
         rdf:about="">
        <dc:format>image/svg+xml</dc:format>
        <dc:type
           rdf:resource="http://purl.org/dc/dcmitype/StillImage" />
        <dc:title></dc:title>
      </cc:Work>
    </rdf:RDF>
  </metadata>
  <g
     inkscape:label="Layer 1"
     inkscape:groupmode="layer"
     id="layer1"
     transform="translate(-148.16667,-324.70194)">
    <g
       transform="matrix(0.47409831,0,0,0.47409831,-446.02074,221.11146)"
       id="g4874">
      <polyline
         id="polyline4872"
         points="1348.3,227.2 1333.3,218.5 1318.3,227.2 1333.4,235.9 1348.3,227.2  "
         fill="#424143" />
    </g>
    <g
       transform="matrix(0.47409831,0,0,0.47409831,-446.02074,221.11146)"
       id="g4878">
      <polygon
         id="polygon4876"
         points="1283.6,264.8 1268.5,256.1 1253.6,264.8 1253.6,282.1 1268.6,290.8 1268.6,273.5 "
         fill="#424143" />
    </g>
    <g
       transform="matrix(0.47409831,0,0,0.47409831,-446.02074,221.11146)"
       id="g4892">
      <path
         id="path4880"
         d="m 1331.6,287.9 c 7.6,-0.6 14.5,2.4 19.2,7.5 l 37.7,-21.9 -15,-8.7 14.9,-8.7 -40.1,-23.1 -14.9,8.7 -15,-8.7 -39.8,23.1 15,8.7 -14.9,8.7 37.8,21.8 c 3.8,-4.1 9.1,-6.9 15.1,-7.4 z"
         fill="#1E75BB"
         inkscape:connector-curvature="0" />
      <polygon
         id="polygon4882"
         points="1268.4,365.6 1268.4,348.3 1253.4,339.6 1253.3,356.9 "
         fill="#424143" />
      <path
         id="path4884"
         d="m 1310.1,309.5 c 0.2,-1.9 0.6,-3.8 1.2,-5.6 l -37.6,-21.7 v 17.3 l -15,-8.7 -0.1,46 15,8.7 v 17.3 l 35.5,20.5 12.8,-51.5 c -7.7,-4.5 -12.6,-12.9 -11.8,-22.3 z"
         fill="#1E75BB"
         inkscape:connector-curvature="0" />
      <polygon
         id="polygon4886"
         points="1383.5,264.8 1398.4,273.5 1398.5,290.8 1413.5,282.1 1413.4,264.8 1398.4,256.1 "
         fill="#424143" />
      <polygon
         id="polygon4888"
         points="1398.6,348.3 1398.7,365.6 1413.7,356.9 1413.7,339.6 "
         fill="#424143" />
      <path
         id="path4890"
         d="m 1393.6,345.4 15,-8.7 -0.1,-46 -15,8.7 v -17.3 l -37.6,21.7 c 1,2.9 1.4,6.1 1.2,9.4 -0.6,8 -5.3,14.9 -12,18.6 l 12.8,51.5 35.8,-20.7 z"
         fill="#1E75BB"
         inkscape:connector-curvature="0" />
    </g>
  </g>
</svg>
