<?xml version="1.0" encoding="UTF-8" standalone="no"?>
<!-- Created with Inkscape (http://www.inkscape.org/) -->

<svg
   xmlns:dc="http://purl.org/dc/elements/1.1/"
   xmlns:cc="http://creativecommons.org/ns#"
   xmlns:rdf="http://www.w3.org/1999/02/22-rdf-syntax-ns#"
   xmlns:svg="http://www.w3.org/2000/svg"
   xmlns="http://www.w3.org/2000/svg"
   xmlns:sodipodi="http://sodipodi.sourceforge.net/DTD/sodipodi-0.dtd"
   xmlns:inkscape="http://www.inkscape.org/namespaces/inkscape"
   width="468.3269"
   height="402.08606"
   viewBox="0 0 123.9115 106.38527"
   version="1.1"
   id="svg8"
   inkscape:version="0.92+devel unknown"
   sodipodi:docname="vertical_color.svg">
  <defs
     id="defs2" />
  <sodipodi:namedview
     id="base"
     pagecolor="#ffffff"
     bordercolor="#666666"
     borderopacity="1.0"
     inkscape:pageopacity="0.0"
     inkscape:pageshadow="2"
     inkscape:zoom="0.7"
     inkscape:cx="179.43335"
     inkscape:cy="143.23955"
     inkscape:document-units="mm"
     inkscape:current-layer="g5043"
     inkscape:document-rotation="0"
     showgrid="true"
     borderlayer="true"
     inkscape:showpageshadow="false"
     units="px"
     inkscape:pagecheckerboard="false"
     showguides="true"
     inkscape:window-width="1366"
     inkscape:window-height="715"
     inkscape:window-x="0"
     inkscape:window-y="25"
     inkscape:window-maximized="1"
     fit-margin-top="0"
     fit-margin-left="0"
     fit-margin-right="0"
     fit-margin-bottom="0">
    <inkscape:grid
       type="xygrid"
       id="grid10"
       originx="-376.07983"
       originy="-430.88504" />
  </sodipodi:namedview>
  <metadata
     id="metadata5">
    <rdf:RDF>
      <cc:Work
         rdf:about="">
        <dc:format>image/svg+xml</dc:format>
        <dc:type
           rdf:resource="http://purl.org/dc/dcmitype/StillImage" />
        <dc:title></dc:title>
      </cc:Work>
    </rdf:RDF>
  </metadata>
  <g
     inkscape:label="Layer 1"
     inkscape:groupmode="layer"
     id="layer1"
     transform="translate(-376.07971,240.27033)">
    <g
       id="g5043"
       transform="matrix(0.34324513,0,0,0.34324513,-117.06057,-260.92008)">
      <g
         id="g4870">
        <path
           id="path4810"
           d="m 1466.1,326.2 c 18.7,0 25.5,-7 25.5,-30.8 0,-23.8 -6.7,-30.8 -25.5,-30.8 -18.8,0 -25.4,7 -25.4,30.8 0,23.8 6.7,30.8 25.4,30.8 z m 0,-51 c 8.9,0 11.6,4.5 11.6,20.2 0,15.7 -2.7,20.2 -11.6,20.2 -8.9,0 -11.6,-4.5 -11.6,-20.2 0,-15.8 2.7,-20.2 11.6,-20.2 z"
           fill="#424143"
           inkscape:connector-curvature="0" />
        <path
           id="path4812"
           d="m 1511.5,298.4 12,4.2 c 4,1.3 5.6,2.3 5.6,6.5 0,4.8 -1.9,5.8 -8.8,5.8 -3.8,0 -8.6,-0.2 -19.6,-0.4 l -0.8,9.5 c 9.1,2 16.6,2.2 20.4,2.2 16.2,0 22,-3.6 22,-17.1 0,-8.7 -3.1,-14.1 -12.6,-17.5 l -11.3,-3.9 c -4.5,-1.5 -6.2,-2.6 -6.2,-6.7 0,-5.1 2.2,-5.4 8.6,-5.4 6.3,0 13.6,0.1 18.6,0.3 l 0.9,-8.9 c -6.6,-1.9 -13.7,-2.3 -19.5,-2.3 -15.3,0 -21.6,2.8 -21.6,16.4 0,8.7 3.3,14 12.3,17.3 z"
           fill="#424143"
           inkscape:connector-curvature="0" />
        <path
           id="path4814"
           d="m 1574.6,326.1 c 8.5,0 13.5,-0.7 19,-2.4 l -1.1,-9.7 c -5.2,0.7 -10,0.8 -17.9,0.8 -8.6,0 -11.2,-4.4 -11.2,-19.3 0,-15 2.6,-19.3 11.2,-19.3 7.5,0 11.1,0.1 16.7,0.4 l 1.1,-9.8 c -5.4,-1.4 -9.5,-2 -17.8,-2 -18.3,0 -24.9,8.1 -24.9,30.7 -0.1,22.5 6.5,30.6 24.9,30.6 z"
           fill="#424143"
           inkscape:connector-curvature="0" />
        <path
           id="path4816"
           d="m 1612.3,325.1 h 12.6 c 2.4,0 4.4,-1.5 4.7,-3.7 l 6.4,-38.7 c 0.4,-2.5 0.7,-5.1 1,-7.6 h 1.6 c 0.3,2.5 0.6,5 1,7.5 l 6.5,38.8 c 0.3,2.2 2.3,3.7 4.6,3.7 h 12.6 c 2.4,0 4.3,-1.5 4.7,-3.6 l 9.4,-55.7 h -13.3 l -5.8,41.4 c -0.3,2.6 -0.6,5.7 -0.8,8.4 h -1.8 c -0.3,-2.7 -0.8,-5.8 -1.2,-8.5 l -6.4,-37.2 c -0.3,-2.4 -2.1,-4 -4.6,-4 h -11.4 c -2.5,0 -4.3,1.6 -4.6,4 l -6.4,37.2 c -0.4,2.7 -0.9,5.8 -1.3,8.6 h -1.7 c -0.2,-3.2 -0.4,-6 -0.8,-8.6 l -5.8,-41.2 h -13.4 l 9.4,55.7 c 0.5,2 2.5,3.5 4.8,3.5 z"
           fill="#424143"
           inkscape:connector-curvature="0" />
        <path
           id="path4818"
           d="m 1445,347.5 c -5,0 -6.8,2.2 -6.8,8.9 0,6.7 1.8,8.9 6.8,8.9 5,0 6.8,-2.2 6.8,-8.9 0,-6.7 -1.7,-8.9 -6.8,-8.9 z m 0,15.9 c -3.4,0 -4.5,-1.7 -4.5,-7 0,-5.3 1.1,-7 4.5,-7 3.4,0 4.5,1.7 4.5,7 0,5.3 -1.1,7 -4.5,7 z"
           fill="#424143"
           inkscape:connector-curvature="0" />
        <path
           id="path4820"
           d="m 1462.3,352.6 c -1.8,0 -3.7,0.8 -5,2.2 l -0.2,-1.9 h -1.8 v 17.2 h 2.1 v -3.5 c 0,-0.9 0,-1.6 -0.1,-2.5 1.4,0.9 2.9,1.3 4.5,1.3 3.1,0 4.6,-1.6 4.6,-6.3 0.1,-4.3 -1.1,-6.5 -4.1,-6.5 z m -0.9,10.9 c -1.3,0 -2.4,-0.3 -3.9,-0.7 v -6.5 c 1.7,-1.3 2.8,-1.8 4.1,-1.8 1.9,0 2.7,1.1 2.7,4.6 0,3.5 -0.8,4.4 -2.9,4.4 z"
           fill="#424143"
           inkscape:connector-curvature="0" />
        <path
           id="path4822"
           d="m 1480.1,356.6 c 0,-2.6 -1.5,-4 -5.2,-4 -3.9,0 -5.6,1.6 -5.6,6.3 0,4.7 1.6,6.4 5.8,6.4 1.4,0 3.6,-0.2 4.7,-0.7 l -0.2,-1.4 c -1.3,0.2 -2.9,0.3 -4.2,0.3 -2.5,0 -3.6,-0.6 -3.8,-3.5 h 5.6 c 2,0 2.9,-1.3 2.9,-3.4 z m -8.6,1.8 c 0.1,-3.1 1,-4 3.5,-4 2.2,0 3,0.6 3,2.2 0,0.9 -0.2,1.8 -1.3,1.8 z"
           fill="#424143"
           inkscape:connector-curvature="0" />
        <path
           id="path4824"
           d="m 1490.7,352.6 c -1.8,0 -3.6,0.8 -5.4,2.2 l -0.2,-1.9 h -1.8 v 12.2 h 2.1 v -8.8 c 1.9,-1.2 3.2,-1.9 4.7,-1.9 1.2,0 1.7,0.5 1.7,2.2 v 8.5 h 2.1 V 356 c 0.1,-2.3 -1.1,-3.4 -3.2,-3.4 z"
           fill="#424143"
           inkscape:connector-curvature="0" />
        <path
           id="path4826"
           d="m 1510.7,355.8 -3.5,-0.9 c -1.5,-0.4 -2.2,-0.9 -2.2,-2.8 0,-2.5 1,-2.6 3.5,-2.6 1.6,0 3.4,0 4.9,0.1 l 0.2,-1.6 c -1.7,-0.4 -3.5,-0.5 -5.1,-0.5 -3.8,0 -5.6,0.5 -5.6,4.5 0,2.6 0.9,4.2 3.4,4.8 l 3.6,0.9 c 1.5,0.4 2.2,0.8 2.2,2.8 0,2.4 -0.8,2.8 -3.5,2.8 -1.4,0 -2.3,0 -5.3,-0.1 l -0.1,1.6 c 2.3,0.4 4.2,0.5 5.3,0.5 4,0 5.8,-0.7 5.8,-4.7 -0.1,-2.6 -1,-4.1 -3.6,-4.8 z"
           fill="#424143"
           inkscape:connector-curvature="0" />
        <path
           id="path4828"
           d="m 1522.5,352.6 c -4.2,0 -5.7,1.7 -5.7,6.4 0,4.7 1.5,6.4 5.7,6.4 4.2,0 5.7,-1.7 5.7,-6.4 0.1,-4.7 -1.5,-6.4 -5.7,-6.4 z m 0,11 c -2.6,0 -3.5,-1 -3.5,-4.6 0,-3.5 0.8,-4.6 3.5,-4.6 2.7,0 3.5,1 3.5,4.6 0.1,3.5 -0.8,4.6 -3.5,4.6 z"
           fill="#424143"
           inkscape:connector-curvature="0" />
        <path
           id="path4830"
           d="m 1539.8,361.8 c -1.8,1.2 -2.9,1.8 -4.2,1.8 -1.4,0 -1.9,-0.5 -1.9,-2.1 V 353 h -2.1 v 9.1 c 0,2.2 1.1,3.3 3.3,3.3 1.7,0 3.4,-0.7 5.2,-2.1 l 0.2,1.8 h 1.7 v -12.2 h -2.1 v 8.9 z"
           fill="#424143"
           inkscape:connector-curvature="0" />
        <path
           id="path4832"
           d="m 1547.7,354.8 -0.2,-1.9 h -1.6 v 12.2 h 2.1 v -8.9 c 1.9,-1 3.2,-1.5 4.5,-1.5 h 0.7 l 0.3,-2 h -0.5 c -1.7,-0.1 -3.5,0.7 -5.3,2.1 z"
           fill="#424143"
           inkscape:connector-curvature="0" />
        <path
           id="path4834"
           d="m 1561.1,363.6 c -2.9,0 -3.9,-1 -3.9,-4.6 0,-3.5 1,-4.6 3.9,-4.6 0.8,0 2.2,0.1 3.3,0.2 l 0.3,-1.4 c -1.2,-0.4 -2.8,-0.6 -3.9,-0.6 -4.2,0 -5.8,1.7 -5.8,6.4 0,4.7 1.6,6.4 5.8,6.4 1.4,0 2.9,-0.2 4.2,-0.6 l -0.2,-1.4 c -1.4,0.1 -3,0.2 -3.7,0.2 z"
           fill="#424143"
           inkscape:connector-curvature="0" />
        <path
           id="path4836"
           d="m 1577.8,356.6 c 0,-2.6 -1.5,-4 -5.2,-4 -3.9,0 -5.6,1.6 -5.6,6.3 0,4.7 1.6,6.4 5.8,6.4 1.4,0 3.6,-0.2 4.7,-0.7 l -0.2,-1.4 c -1.3,0.2 -2.9,0.3 -4.2,0.3 -2.5,0 -3.6,-0.6 -3.8,-3.5 h 5.6 c 2,0 2.9,-1.3 2.9,-3.4 z m -8.6,1.8 c 0.1,-3.1 0.9,-4 3.5,-4 2.2,0 3,0.6 3,2.2 0,0.9 -0.2,1.8 -1.3,1.8 z"
           fill="#424143"
           inkscape:connector-curvature="0" />
        <path
           id="path4838"
           d="m 1592.9,363.4 c -3.4,0 -4.4,-1.7 -4.4,-7 0,-5.3 1.1,-7 4.4,-7 2,0 3,0.1 4.5,0.2 l 0.2,-1.7 c -1.4,-0.3 -2.5,-0.5 -4.7,-0.5 -5,0 -6.8,2.3 -6.8,8.9 0,6.6 1.8,8.9 6.8,8.9 2.3,0 3.6,-0.2 5,-0.6 l -0.2,-1.6 c -1.4,0.3 -2.7,0.4 -4.8,0.4 z"
           fill="#424143"
           inkscape:connector-curvature="0" />
        <path
           id="path4840"
           d="m 1609,361.8 c -1.8,1.2 -2.9,1.8 -4.2,1.8 -1.4,0 -1.9,-0.5 -1.9,-2.1 V 353 h -2.1 v 9.1 c 0,2.2 1.1,3.3 3.3,3.3 1.7,0 3.4,-0.7 5.2,-2.1 l 0.2,1.8 h 1.7 v -12.2 h -2.1 v 8.9 z"
           fill="#424143"
           inkscape:connector-curvature="0" />
        <path
           id="path4842"
           d="m 1621.6,352.6 c -1.6,0 -3.2,0.8 -4.7,2.2 0.2,-0.9 0.2,-1.7 0.2,-2.7 v -4.5 h -2.1 v 16.9 c 1.6,0.6 3.9,0.9 5.6,0.9 4.2,0 5.4,-2.2 5.4,-6.4 0,-4.6 -1.4,-6.4 -4.4,-6.4 z m -1,11 c -1,0 -2.2,-0.1 -3.4,-0.4 v -6.9 c 1.4,-1.1 2.5,-1.8 3.7,-1.8 2.3,0 2.9,1.1 2.9,4.5 0,3.4 -0.9,4.5 -3.2,4.6 z"
           fill="#424143"
           inkscape:connector-curvature="0" />
        <path
           id="path4844"
           d="m 1639.5,356.6 c 0,-2.6 -1.5,-4 -5.2,-4 -3.9,0 -5.6,1.6 -5.6,6.3 0,4.7 1.6,6.4 5.8,6.4 1.4,0 3.6,-0.2 4.7,-0.7 l -0.2,-1.4 c -1.3,0.2 -2.9,0.3 -4.2,0.3 -2.5,0 -3.6,-0.6 -3.8,-3.5 h 5.6 c 2.1,0 3,-1.3 2.9,-3.4 z m -8.6,1.8 c 0.1,-3.1 1,-4 3.5,-4 2.2,0 3,0.6 3,2.2 0,0.9 -0.2,1.8 -1.3,1.8 z"
           fill="#424143"
           inkscape:connector-curvature="0" />
        <path
           id="path4846"
           d="m 1649.4,358.5 -3.5,-0.8 c -1.2,-0.3 -1.8,-0.5 -1.8,-1.8 0,-1.5 0.8,-1.6 3,-1.5 1.5,0 3.1,0.1 4.6,0.1 l 0.2,-1.5 c -1.5,-0.2 -3.5,-0.4 -5.1,-0.4 -3.3,0 -4.7,0.5 -4.7,3.3 0,2 0.8,2.9 2.7,3.4 l 3.5,0.8 c 1.2,0.3 1.9,0.5 1.9,1.7 0,1.5 -0.8,1.7 -3.6,1.7 -1.6,0 -3,0 -4.2,-0.1 l -0.1,1.5 c 2.1,0.3 3.9,0.4 4.8,0.4 3.5,0 5.2,-0.5 5.2,-3.5 0,-2 -0.9,-2.8 -2.9,-3.3 z"
           fill="#424143"
           inkscape:connector-curvature="0" />
        <path
           id="path4848"
           d="m 1661.2,352.6 c -1.8,0 -4.2,0.3 -5.9,0.5 l 0.2,1.6 c 1.8,-0.2 3.9,-0.3 5.2,-0.3 1.9,0 2.5,0.6 2.5,2.1 v 1.1 h -5.1 c -2.1,0 -3.4,1.1 -3.4,3 v 1.3 c 0,2.2 1.5,3.4 3.6,3.4 2.2,0 4.1,-1.3 5,-2.2 l 0.3,2 h 1.7 v -8.6 c 0.1,-3 -1.4,-3.9 -4.1,-3.9 z m 2,9 c -1.4,1.2 -3.2,1.8 -4.4,1.8 -1.3,0 -1.9,-0.5 -1.9,-1.8 v -0.8 c 0,-1 0.4,-1.6 1.6,-1.7 h 4.7 z"
           fill="#424143"
           inkscape:connector-curvature="0" />
        <path
           id="path4850"
           d="m 1672.2,349.3 h -2.1 v 3.6 l -2.2,0.1 v 1.5 h 2.2 v 7.4 c 0,2.1 1.1,3.3 3.1,3.3 0.6,0 1.9,-0.1 2.7,-0.3 l -0.3,-1.6 h -1.8 c -1.2,0 -1.6,-0.5 -1.6,-1.6 v -7.1 h 3.9 v -1.7 h -3.9 z"
           fill="#424143"
           inkscape:connector-curvature="0" />
        <path
           id="path4852"
           d="m 1699.9,361.3 c -0.1,0.7 -0.2,1.4 -0.3,2.1 h -0.6 c -0.1,-0.7 -0.2,-1.4 -0.4,-2.1 l -2.7,-12.7 c -0.1,-0.4 -0.4,-0.7 -0.8,-0.7 h -2.4 c -0.5,0 -0.8,0.3 -0.9,0.7 l -2.7,12.7 c -0.2,0.7 -0.3,1.3 -0.4,2.1 h -0.6 c -0.1,-0.8 -0.2,-1.5 -0.4,-2.1 l -2.7,-13.4 h -2.3 l 3.5,16.6 c 0.1,0.4 0.4,0.6 0.8,0.6 h 2.5 c 0.4,0 0.8,-0.3 0.9,-0.7 l 2.7,-13 0.4,-1.9 h 0.5 c 0.1,0.6 0.3,1.3 0.4,1.9 l 2.7,13 c 0.1,0.4 0.4,0.7 0.8,0.7 h 2.5 c 0.5,0 0.8,-0.3 0.9,-0.6 l 3.5,-16.6 h -2.3 z"
           fill="#424143"
           inkscape:connector-curvature="0" />
        <path
           id="path4854"
           d="m 1712.3,352.6 c -4.2,0 -5.7,1.7 -5.7,6.4 0,4.7 1.5,6.4 5.7,6.4 4.2,0 5.7,-1.7 5.7,-6.4 0.1,-4.7 -1.5,-6.4 -5.7,-6.4 z m 0,11 c -2.6,0 -3.5,-1 -3.5,-4.6 0,-3.5 0.8,-4.6 3.5,-4.6 2.7,0 3.5,1 3.5,4.6 0.1,3.5 -0.8,4.6 -3.5,4.6 z"
           fill="#424143"
           inkscape:connector-curvature="0" />
        <path
           id="path4856"
           d="m 1723.3,354.8 -0.2,-1.9 h -1.6 v 12.2 h 2.1 v -8.9 c 1.9,-1 3.2,-1.5 4.5,-1.5 h 0.7 l 0.3,-2 h -0.5 c -1.8,-0.1 -3.6,0.7 -5.3,2.1 z"
           fill="#424143"
           inkscape:connector-curvature="0" />
        <path
           id="path4858"
           d="m 1736.7,358.2 v 0 c 0.2,-0.2 0.6,-0.6 0.9,-0.9 l 3.8,-4.5 h -2.5 l -3.8,4.5 h -1.6 c 0.1,-0.7 0.1,-1.3 0.1,-2.1 v -7.8 h -2.1 v 17.5 h 2.1 v -4.1 c 0,-0.6 -0.1,-1.3 -0.1,-1.9 h 1.6 l 4.2,6.1 h 2.5 l -4.2,-5.8 c -0.3,-0.4 -0.7,-0.8 -0.9,-1 z"
           fill="#424143"
           inkscape:connector-curvature="0" />
        <path
           id="path4860"
           d="m 1750.8,358.5 -3.5,-0.8 c -1.2,-0.3 -1.8,-0.5 -1.8,-1.8 0,-1.5 0.8,-1.6 3,-1.5 1.5,0 3.1,0.1 4.6,0.1 l 0.2,-1.5 c -1.5,-0.2 -3.5,-0.4 -5.1,-0.4 -3.3,0 -4.7,0.5 -4.7,3.3 0,2 0.8,2.9 2.8,3.4 l 3.5,0.8 c 1.2,0.3 1.9,0.5 1.9,1.7 0,1.5 -0.9,1.7 -3.6,1.7 -1.6,0 -3,0 -4.2,-0.1 l -0.2,1.5 c 2.1,0.3 3.9,0.4 4.8,0.4 3.5,0 5.2,-0.5 5.2,-3.5 0,-2 -0.9,-2.8 -2.9,-3.3 z"
           fill="#424143"
           inkscape:connector-curvature="0" />
        <path
           id="path4862"
           d="m 1764.2,352.6 c -1.8,0 -3.6,0.8 -5.4,2.2 0.1,-0.6 0.2,-1.5 0.2,-2.4 v -4.8 h -2.1 v 17.5 h 2.1 v -8.8 c 1.9,-1.2 3.2,-1.9 4.7,-1.9 1.2,0 1.7,0.5 1.7,2.2 v 8.5 h 2.1 V 356 c 0,-2.3 -1.1,-3.4 -3.3,-3.4 z"
           fill="#424143"
           inkscape:connector-curvature="0" />
        <path
           id="path4864"
           d="m 1776.5,352.6 c -4.2,0 -5.7,1.7 -5.7,6.4 0,4.7 1.5,6.4 5.7,6.4 4.2,0 5.7,-1.7 5.7,-6.4 0,-4.7 -1.5,-6.4 -5.7,-6.4 z m 0,11 c -2.6,0 -3.5,-1 -3.5,-4.6 0,-3.5 0.8,-4.6 3.5,-4.6 2.7,0 3.5,1 3.5,4.6 0,3.5 -0.8,4.6 -3.5,4.6 z"
           fill="#424143"
           inkscape:connector-curvature="0" />
        <path
           id="path4866"
           d="m 1792.5,352.6 c -1.8,0 -3.7,0.8 -5,2.2 l -0.2,-1.9 h -1.8 v 17.2 h 2.1 v -3.5 c 0,-0.9 0,-1.6 -0.1,-2.5 1.4,0.9 2.9,1.3 4.5,1.3 3.1,0 4.6,-1.6 4.6,-6.3 0.1,-4.3 -1.1,-6.5 -4.1,-6.5 z m -0.9,10.9 c -1.3,0 -2.4,-0.3 -3.9,-0.7 v -6.5 c 1.7,-1.3 2.8,-1.8 4.1,-1.8 1.9,0 2.7,1.1 2.7,4.6 0,3.5 -0.8,4.4 -2.9,4.4 z"
           fill="#424143"
           inkscape:connector-curvature="0" />
        <path
           id="path4868"
           d="m 1797.7,331 v -73.9 h -100 V 331 h -261 v 4 h 361 z m -9.1,-65.3 c 3.5,0 5,2 4,5.2 l -18.5,54.1 h -7.6 l 16.7,-48.5 c 0.5,-1.5 1.1,-3 1.8,-4.4 h -29.6 l -0.3,-6.5 h 33.5 z m -54.1,0 h 7.6 V 325 h -7.6 v -47 c 0,-1.7 0.1,-3.4 0.4,-5.2 l -14.5,4.6 -1,-5.6 z m -27.1,-3.4 3.4,0.9 c -0.6,3.3 -0.9,5.8 -0.9,9.6 1.3,0 2.1,0.9 2.1,2.2 l -0.1,4.7 c -0.1,1.9 -0.9,2.6 -2.8,2.6 h -2.2 c -2,0 -2.7,-0.7 -2.6,-2.6 l -0.1,-5.2 c 0.3,-4.4 1.4,-8.6 3.2,-12.2 z"
           fill="#424143"
           inkscape:connector-curvature="0" />
      </g>
      <g
         id="g5797"
         transform="translate(283.7,-158.33964)">
        <g
           id="g4874">
          <polyline
             fill="#424143"
             points="1348.3,227.2 1333.3,218.5 1318.3,227.2 1333.4,235.9 1348.3,227.2  "
             id="polyline4872" />
        </g>
        <g
           id="g4878">
          <polygon
             fill="#424143"
             points="1283.6,264.8 1268.5,256.1 1253.6,264.8 1253.6,282.1 1268.6,290.8 1268.6,273.5 "
             id="polygon4876" />
        </g>
        <g
           id="g4892">
          <path
             inkscape:connector-curvature="0"
             fill="#1E75BB"
             d="m 1331.6,287.9 c 7.6,-0.6 14.5,2.4 19.2,7.5 l 37.7,-21.9 -15,-8.7 14.9,-8.7 -40.1,-23.1 -14.9,8.7 -15,-8.7 -39.8,23.1 15,8.7 -14.9,8.7 37.8,21.8 c 3.8,-4.1 9.1,-6.9 15.1,-7.4 z"
             id="path4880" />
          <polygon
             fill="#424143"
             points="1253.4,339.6 1253.3,356.9 1268.4,365.6 1268.4,348.3 "
             id="polygon4882" />
          <path
             inkscape:connector-curvature="0"
             fill="#1E75BB"
             d="m 1310.1,309.5 c 0.2,-1.9 0.6,-3.8 1.2,-5.6 l -37.6,-21.7 v 17.3 l -15,-8.7 -0.1,46 15,8.7 v 17.3 l 35.5,20.5 12.8,-51.5 c -7.7,-4.5 -12.6,-12.9 -11.8,-22.3 z"
             id="path4884" />
          <polygon
             fill="#424143"
             points="1383.5,264.8 1398.4,273.5 1398.5,290.8 1413.5,282.1 1413.4,264.8 1398.4,256.1 "
             id="polygon4886" />
          <polygon
             fill="#424143"
             points="1413.7,356.9 1413.7,339.6 1398.6,348.3 1398.7,365.6 "
             id="polygon4888" />
          <path
             inkscape:connector-curvature="0"
             fill="#1E75BB"
             d="m 1393.6,345.4 15,-8.7 -0.1,-46 -15,8.7 v -17.3 l -37.6,21.7 c 1,2.9 1.4,6.1 1.2,9.4 -0.6,8 -5.3,14.9 -12,18.6 l 12.8,51.5 35.8,-20.7 z"
             id="path4890" />
        </g>
      </g>
    </g>
  </g>
</svg>
