<?xml version="1.0" encoding="UTF-8" standalone="no"?>
<!-- Created with Inkscape (http://www.inkscape.org/) -->

<svg
   xmlns:dc="http://purl.org/dc/elements/1.1/"
   xmlns:cc="http://creativecommons.org/ns#"
   xmlns:rdf="http://www.w3.org/1999/02/22-rdf-syntax-ns#"
   xmlns:svg="http://www.w3.org/2000/svg"
   xmlns="http://www.w3.org/2000/svg"
   xmlns:sodipodi="http://sodipodi.sourceforge.net/DTD/sodipodi-0.dtd"
   xmlns:inkscape="http://www.inkscape.org/namespaces/inkscape"
   width="151.39458mm"
   height="21.034374mm"
   viewBox="0 0 151.39457 21.034374"
   version="1.1"
   id="svg193"
   inkscape:version="0.92+devel unknown"
   sodipodi:docname="horizontal_color.svg"
   inkscape:export-filename="/home/anxhelo/Desktop/DependCLI/vertical_white.png"
   inkscape:export-xdpi="96"
   inkscape:export-ydpi="96">
  <defs
     id="defs187" />
  <sodipodi:namedview
     id="base"
     pagecolor="#ffffff"
     bordercolor="#666666"
     borderopacity="1.0"
     inkscape:pageopacity="0.0"
     inkscape:pageshadow="2"
     inkscape:zoom="0.7"
     inkscape:cx="174.59125"
     inkscape:cy="83.625366"
     inkscape:document-units="mm"
     inkscape:current-layer="layer1"
     inkscape:document-rotation="0"
     showgrid="false"
     borderlayer="true"
     inkscape:showpageshadow="false"
     fit-margin-top="0"
     fit-margin-left="0"
     fit-margin-right="0"
     fit-margin-bottom="0"
     inkscape:window-width="1366"
     inkscape:window-height="717"
     inkscape:window-x="0"
     inkscape:window-y="0"
     inkscape:window-maximized="1" />
  <metadata
     id="metadata190">
    <rdf:RDF>
      <cc:Work
         rdf:about="">
        <dc:format>image/svg+xml</dc:format>
        <dc:type
           rdf:resource="http://purl.org/dc/dcmitype/StillImage" />
        <dc:title></dc:title>
      </cc:Work>
    </rdf:RDF>
  </metadata>
  <g
     inkscape:label="Layer 1"
     inkscape:groupmode="layer"
     id="layer1"
     transform="translate(-164.86376,-149.48724)">
    <g
       transform="matrix(0.26458333,0,0,0.26458333,135.81251,1.9820286)"
       id="g40">
      <path
         inkscape:connector-curvature="0"
         fill="#009EC2"
         d="m 120.1,578.1 c -3.4,3.2 -6,6.9 -7.7,11.1 -1.7,4 -2.6,8.3 -2.6,12.6 0,4.4 0.9,8.6 2.6,12.6 1.8,4.2 4.4,7.9 7.7,11.1 6.6,6.3 15.4,9.7 24.8,9.7 2.7,0 5.4,-0.3 8,-0.9 v -11.8 c -2.5,0.9 -5.3,1.3 -8,1.3 -6.3,0 -12.2,-2.3 -16.6,-6.5 -4.4,-4.2 -6.8,-9.7 -6.8,-15.6 0,-5.9 2.4,-11.4 6.8,-15.5 4.4,-4.2 10.3,-6.5 16.6,-6.5 2.8,0 5.5,0.5 8,1.3 v -11.8 c -2.6,-0.6 -5.3,-0.9 -8,-0.9 -9.4,0 -18.2,3.5 -24.8,9.8 z"
         id="path34" />
      <path
         inkscape:connector-curvature="0"
         fill="#55BF9E"
         d="m 260.4,589.2 c -1.8,-4.2 -4.4,-7.9 -7.7,-11.1 -6.6,-6.3 -15.4,-9.7 -24.8,-9.7 -9.4,0 -18.2,3.5 -24.8,9.7 l -16.6,15.8 -16.6,-15.8 c -1.6,-1.5 -3.3,-2.8 -5.1,-4 v 15.1 l 13.3,12.6 -13.3,12.6 v 15.1 c 1.8,-1.2 3.5,-2.5 5.1,-4 l 16.6,-15.7 16.6,15.7 c 6.7,6.3 15.5,9.7 24.8,9.7 9.4,0 18.2,-3.5 24.8,-9.7 3.4,-3.2 6,-6.9 7.8,-11 1.7,-4 2.6,-8.3 2.6,-12.6 -0.2,-4.5 -1,-8.7 -2.7,-12.7 z m -16,28.1 c -4.4,4.2 -10.3,6.5 -16.6,6.5 -6.3,0 -12.2,-2.3 -16.6,-6.5 l -16.4,-15.5 16.4,-15.6 c 4.4,-4.2 10.3,-6.5 16.6,-6.5 6.3,0 12.2,2.3 16.6,6.5 4.4,4.2 6.8,9.7 6.8,15.6 -0.1,5.9 -2.5,11.4 -6.8,15.5 z"
         id="path36" />
      <rect
         x="153"
         y="557.5"
         fill="#009EC2"
         width="11.7"
         height="11.7"
         id="rect38" />
    </g>
    <g
       transform="matrix(0.26458333,0,0,0.26458333,135.81251,1.9820286)"
       id="g72">
      <path
         inkscape:connector-curvature="0"
         fill="#A6A8AB"
         d="m 316.7,621.7 h -22 v -8.2 h 5 v -30.4 h -5 v -8.2 h 21.5 c 16.1,0 24.2,9.4 24.2,23.2 -0.1,14.2 -8.9,23.6 -23.7,23.6 z m -0.8,-38.6 h -6.6 v 30.4 h 6.6 c 9,0 14,-4.5 14,-15.3 0,-10.3 -4.9,-15.1 -14,-15.1 z"
         id="path52" />
      <path
         inkscape:connector-curvature="0"
         fill="#A6A8AB"
         d="m 360.3,622.4 c -9.6,0 -16.7,-5.5 -16.7,-16.3 0,-10 6,-17.5 16.3,-17.5 9,0 15.1,5.7 15.3,14.1 0,1.4 -0.1,3 -0.5,4.7 h -21.3 c 0.5,5 3,7.7 7.6,7.7 5,0 6.3,-3.1 6.7,-5 l 7.8,1.4 c -0.5,5.7 -5.8,10.9 -15.2,10.9 z m -0.4,-27.2 c -3.8,0 -5.9,2.7 -6.5,6.8 h 12.2 c 0.4,-3.3 -1.3,-6.8 -5.7,-6.8 z"
         id="path54" />
      <path
         inkscape:connector-curvature="0"
         fill="#A6A8AB"
         d="m 401.5,622.4 c -4.7,0 -8,-1.8 -9.9,-4.8 v 12.2 h 5.8 V 637 H 378 v -7.2 h 4.3 v -33.6 h -4.7 v -7 h 14 v 6.2 c 1.7,-3.7 5,-6.8 10.9,-6.8 8.2,0 13.9,6 13.9,16.1 0,9.6 -5.1,17.7 -14.9,17.7 z m -2.3,-26.5 c -4.8,0 -7.3,4 -7.6,9.4 l -0.1,1.2 c 0,5.3 3,8.6 7.6,8.6 4.4,0 7.6,-3 7.6,-9.4 0.1,-6.4 -3,-9.8 -7.5,-9.8 z"
         id="path56" />
      <path
         inkscape:connector-curvature="0"
         fill="#A6A8AB"
         d="m 436.2,622.4 c -9.6,0 -16.7,-5.5 -16.7,-16.3 0,-10 6,-17.5 16.3,-17.5 9,0 15.1,5.7 15.3,14.1 0,1.4 -0.1,3 -0.5,4.7 h -21.3 c 0.5,5 3,7.7 7.6,7.7 5,0 6.3,-3.1 6.7,-5 l 7.8,1.4 c -0.5,5.7 -5.8,10.9 -15.2,10.9 z m -0.4,-27.2 c -3.8,0 -5.9,2.7 -6.5,6.8 h 12.2 c 0.4,-3.3 -1.3,-6.8 -5.7,-6.8 z"
         id="path58" />
      <path
         inkscape:connector-curvature="0"
         fill="#A6A8AB"
         d="m 476.7,621.7 v -7 h 4.3 v -11.3 c 0,-5.6 -1.9,-7.8 -5.5,-7.8 -4.4,0 -6.9,3 -7,7.4 v 11.7 h 4.3 v 7 h -17.9 v -7 h 4.3 v -18.4 h -4.7 v -7.1 h 14 v 5 c 2,-3.5 5.7,-5.6 10.4,-5.6 6.1,0 11.4,3.5 11.4,11.2 v 14.9 h 4.3 v 7 z"
         id="path60" />
      <path
         inkscape:connector-curvature="0"
         fill="#A6A8AB"
         d="m 521.9,621.7 v -6 c -1.9,3.7 -5.2,6.8 -11.1,6.8 -8.5,0 -13.8,-6.3 -13.8,-16.3 0,-9.6 4.8,-17.5 14.5,-17.5 5.3,0 8.6,2.3 10.4,5.6 v -15 h -6.5 v -7.1 h 15.8 v 42.6 h 4.3 v 7 h -13.6 z m 0,-17.2 c 0,-5.4 -3.2,-8.6 -7.4,-8.6 -4.1,0 -7.8,3 -7.8,9.6 0,6.2 3.3,9.6 7.3,9.6 4.9,0 7.9,-5 7.9,-9.8 z"
         id="path62" />
      <path
         inkscape:connector-curvature="0"
         fill="#A6A8AB"
         d="m 554.7,622.4 c -9.6,0 -16.7,-5.5 -16.7,-16.3 0,-10 6,-17.5 16.3,-17.5 9,0 15.1,5.7 15.3,14.1 0,1.4 -0.1,3 -0.5,4.7 h -21.3 c 0.5,5 3,7.7 7.6,7.7 5,0 6.3,-3.1 6.7,-5 l 7.8,1.4 c -0.5,5.7 -5.8,10.9 -15.2,10.9 z m -0.4,-27.2 c -3.8,0 -5.9,2.7 -6.5,6.8 H 560 c 0.4,-3.3 -1.3,-6.8 -5.7,-6.8 z"
         id="path64" />
      <path
         inkscape:connector-curvature="0"
         fill="#A6A8AB"
         d="m 595.2,621.7 v -7 h 4.3 v -11.3 c 0,-5.6 -1.9,-7.8 -5.5,-7.8 -4.4,0 -6.9,3 -7,7.4 v 11.7 h 4.3 v 7 h -17.9 v -7 h 4.3 V 596.3 H 573 v -7.1 h 14 v 5 c 2,-3.5 5.7,-5.6 10.4,-5.6 6.1,0 11.4,3.5 11.4,11.2 v 14.9 h 4.3 v 7 z"
         id="path66" />
      <path
         inkscape:connector-curvature="0"
         fill="#808184"
         d="m 638.4,622.4 c -13.4,0 -23.5,-9.4 -23.5,-23.3 0,-10.9 6.2,-24.9 24,-24.9 8,0 13.8,2.8 16.8,5.6 l 1.2,10.9 -7.8,0.7 -1,-6.2 c -2.4,-1.7 -6.4,-2.5 -9.6,-2.5 -8.1,0 -13.2,5.5 -13.2,15.8 0,10.9 5.8,15.5 13.8,15.5 3.5,0 7.1,-0.9 8.9,-1.9 l 1,-7 7.8,0.7 -0.9,11 c -3.1,3.3 -10.8,5.6 -17.5,5.6 z"
         id="path68" />
      <path
         inkscape:connector-curvature="0"
         fill="#808184"
         d="m 662.3,621.7 v -8.2 h 5 v -30.4 h -5 v -8.2 H 682 v 8.2 h -5 v 30.4 h 5 v 8.2 z"
         id="path70" />
    </g>
  </g>
</svg>
