<?xml version="1.0" encoding="UTF-8" standalone="no"?>
<!-- Created with Inkscape (http://www.inkscape.org/) -->

<svg
   xmlns:dc="http://purl.org/dc/elements/1.1/"
   xmlns:cc="http://creativecommons.org/ns#"
   xmlns:rdf="http://www.w3.org/1999/02/22-rdf-syntax-ns#"
   xmlns:svg="http://www.w3.org/2000/svg"
   xmlns="http://www.w3.org/2000/svg"
   xmlns:sodipodi="http://sodipodi.sourceforge.net/DTD/sodipodi-0.dtd"
   xmlns:inkscape="http://www.inkscape.org/namespaces/inkscape"
   width="102.47312mm"
   height="60.13979mm"
   viewBox="0 0 102.47312 60.13979"
   version="1.1"
   id="svg193"
   inkscape:version="0.92+devel unknown"
   sodipodi:docname="vertical_white.svg"
   inkscape:export-filename="/home/anxhelo/Desktop/DependCLI/vertical_color.png"
   inkscape:export-xdpi="96"
   inkscape:export-ydpi="96">
  <defs
     id="defs187" />
  <sodipodi:namedview
     id="base"
     pagecolor="#ffffff"
     bordercolor="#666666"
     borderopacity="1.0"
     inkscape:pageopacity="0.0"
     inkscape:pageshadow="2"
     inkscape:zoom="0.7"
     inkscape:cx="131.89967"
     inkscape:cy="204.89689"
     inkscape:document-units="mm"
     inkscape:current-layer="layer1"
     inkscape:document-rotation="0"
     showgrid="false"
     borderlayer="true"
     inkscape:showpageshadow="false"
     fit-margin-top="0"
     fit-margin-left="0"
     fit-margin-right="0"
     fit-margin-bottom="0"
     inkscape:window-width="1366"
     inkscape:window-height="717"
     inkscape:window-x="0"
     inkscape:window-y="0"
     inkscape:window-maximized="1" />
  <metadata
     id="metadata190">
    <rdf:RDF>
      <cc:Work
         rdf:about="">
        <dc:format>image/svg+xml</dc:format>
        <dc:type
           rdf:resource="http://purl.org/dc/dcmitype/StillImage" />
        <dc:title></dc:title>
      </cc:Work>
    </rdf:RDF>
  </metadata>
  <g
     inkscape:label="Layer 1"
     inkscape:groupmode="layer"
     id="layer1"
     transform="translate(-115.07296,-118.00749)">
    <g
       transform="matrix(0.26458333,0,0,0.26458333,57.102754,78.584569)"
       id="g10"
       style="fill:#ffffff">
      <path
         inkscape:connector-curvature="0"
         fill="#009EC2"
         d="m 317.3,178.7 c -4.9,4.6 -8.6,10 -11.2,16 -2.5,5.8 -3.7,12 -3.7,18.3 0,6.3 1.3,12.5 3.7,18.3 2.6,6 6.3,11.4 11.2,16 9.6,9.1 22.3,14.1 35.9,14.1 4,0 7.9,-0.4 11.6,-1.3 V 243 c -3.7,1.3 -7.6,1.9 -11.6,1.9 -9.1,0 -17.6,-3.3 -24,-9.4 -6.4,-6 -9.8,-14.1 -9.8,-22.6 0,-8.5 3.5,-16.5 9.8,-22.5 6.4,-6.1 15,-9.4 24,-9.4 4,0 8,0.7 11.6,1.9 v -17.1 c -3.8,-0.8 -7.7,-1.3 -11.6,-1.3 -13.5,0.1 -26.3,5.1 -35.9,14.2 z"
         id="path4"
         style="fill:#ffffff" />
      <path
         inkscape:connector-curvature="0"
         fill="#55BF9E"
         d="m 520.5,194.8 c -2.6,-6 -6.3,-11.4 -11.2,-16.1 -9.6,-9.1 -22.3,-14.1 -35.9,-14.1 -13.6,0 -26.4,5 -35.9,14.1 l -24.1,22.8 -24.1,-22.8 c -2.3,-2.2 -4.8,-4.1 -7.4,-5.8 v 21.9 l 19.3,18.3 -19.3,18.3 v 21.9 c 2.6,-1.7 5.1,-3.6 7.4,-5.8 l 24.1,-22.8 24,22.8 c 9.6,9.1 22.4,14.1 35.9,14.1 13.6,0 26.4,-5 35.9,-14.1 4.9,-4.6 8.7,-10 11.2,-16 2.5,-5.8 3.8,-12 3.8,-18.3 0,-6.4 -1.3,-12.6 -3.7,-18.4 z m -23.2,40.8 c -6.4,6.1 -15,9.4 -24,9.4 -9.1,0 -17.6,-3.3 -24,-9.4 l -23.7,-22.5 23.7,-22.5 c 6.4,-6.1 15,-9.4 24,-9.4 9.1,0 17.6,3.3 24,9.4 6.4,6 9.8,14.1 9.8,22.6 0,8.4 -3.5,16.4 -9.8,22.4 z"
         id="path6"
         style="fill:#ffffff" />
      <rect
         x="364.89999"
         y="149"
         fill="#009EC2"
         width="16.9"
         height="16.9"
         id="rect8"
         style="fill:#ffffff" />
    </g>
    <g
       transform="matrix(0.26458333,0,0,0.26458333,57.102754,78.584569)"
       id="g32"
       style="fill:#ffffff">
      <path
         inkscape:connector-curvature="0"
         fill="#A6A8AB"
         d="m 241.1,360.9 h -22 v -8.2 h 5 v -30.4 h -5 v -8.2 h 21.5 c 16.1,0 24.2,9.4 24.2,23.2 -0.1,14.3 -9,23.6 -23.7,23.6 z m -0.8,-38.6 h -6.6 v 30.4 h 6.6 c 9,0 14,-4.5 14,-15.3 0,-10.2 -4.9,-15.1 -14,-15.1 z"
         id="path12"
         style="fill:#ffffff" />
      <path
         inkscape:connector-curvature="0"
         fill="#A6A8AB"
         d="m 284.7,361.7 c -9.6,0 -16.7,-5.5 -16.7,-16.3 0,-10 6,-17.5 16.3,-17.5 9,0 15.1,5.7 15.3,14.1 0,1.4 -0.1,3 -0.5,4.7 h -21.3 c 0.5,5 3,7.7 7.6,7.7 5,0 6.3,-3.1 6.7,-5 l 7.8,1.4 c -0.5,5.7 -5.8,10.9 -15.2,10.9 z m -0.4,-27.3 c -3.8,0 -5.9,2.7 -6.5,6.8 H 290 c 0.4,-3.2 -1.3,-6.8 -5.7,-6.8 z"
         id="path14"
         style="fill:#ffffff" />
      <path
         inkscape:connector-curvature="0"
         fill="#A6A8AB"
         d="m 325.9,361.7 c -4.7,0 -8,-1.8 -9.9,-4.8 v 12.2 h 5.8 v 7.2 h -19.4 v -7.2 h 4.3 V 335.5 H 302 v -7 h 14 v 6.2 c 1.7,-3.7 5,-6.8 10.9,-6.8 8.2,0 13.9,6 13.9,16.1 0,9.5 -5.1,17.7 -14.9,17.7 z m -2.3,-26.5 c -4.8,0 -7.3,4 -7.6,9.4 l -0.1,1.2 c 0,5.3 3,8.6 7.6,8.6 4.4,0 7.6,-3 7.6,-9.4 0.1,-6.5 -3,-9.8 -7.5,-9.8 z"
         id="path16"
         style="fill:#ffffff" />
      <path
         inkscape:connector-curvature="0"
         fill="#A6A8AB"
         d="m 360.6,361.7 c -9.6,0 -16.7,-5.5 -16.7,-16.3 0,-10 6,-17.5 16.3,-17.5 9,0 15.1,5.7 15.3,14.1 0,1.4 -0.1,3 -0.5,4.7 h -21.3 c 0.5,5 3,7.7 7.6,7.7 5,0 6.3,-3.1 6.7,-5 l 7.8,1.4 c -0.5,5.7 -5.8,10.9 -15.2,10.9 z m -0.4,-27.3 c -3.8,0 -5.9,2.7 -6.5,6.8 h 12.2 c 0.4,-3.2 -1.3,-6.8 -5.7,-6.8 z"
         id="path18"
         style="fill:#ffffff" />
      <path
         inkscape:connector-curvature="0"
         fill="#A6A8AB"
         d="m 401.1,360.9 v -7 h 4.3 v -11.3 c 0,-5.6 -1.9,-7.8 -5.5,-7.8 -4.4,0 -6.9,3 -7,7.4 V 354 h 4.3 v 7 h -17.9 v -7 h 4.3 v -18.4 h -4.7 v -7.1 h 14 v 5 c 2,-3.5 5.7,-5.6 10.4,-5.6 6.1,0 11.4,3.5 11.4,11.2 V 354 h 4.3 v 7 h -17.9 z"
         id="path20"
         style="fill:#ffffff" />
      <path
         inkscape:connector-curvature="0"
         fill="#A6A8AB"
         d="m 446.3,360.9 v -6 c -1.9,3.7 -5.2,6.8 -11.1,6.8 -8.5,0 -13.8,-6.3 -13.8,-16.3 0,-9.6 4.8,-17.5 14.5,-17.5 5.3,0 8.6,2.3 10.4,5.6 v -15 h -6.5 v -7.1 h 15.8 V 354 h 4.3 v 7 h -13.6 z m 0,-17.2 c 0,-5.4 -3.2,-8.6 -7.4,-8.6 -4.1,0 -7.8,3 -7.8,9.6 0,6.2 3.3,9.6 7.3,9.6 4.9,0 7.9,-5 7.9,-9.8 z"
         id="path22"
         style="fill:#ffffff" />
      <path
         inkscape:connector-curvature="0"
         fill="#A6A8AB"
         d="m 479.1,361.7 c -9.6,0 -16.7,-5.5 -16.7,-16.3 0,-10 6,-17.5 16.3,-17.5 9,0 15.1,5.7 15.3,14.1 0,1.4 -0.1,3 -0.5,4.7 h -21.3 c 0.5,5 3,7.7 7.6,7.7 5,0 6.3,-3.1 6.7,-5 l 7.8,1.4 c -0.5,5.7 -5.8,10.9 -15.2,10.9 z m -0.4,-27.3 c -3.8,0 -5.9,2.7 -6.5,6.8 h 12.2 c 0.4,-3.2 -1.3,-6.8 -5.7,-6.8 z"
         id="path24"
         style="fill:#ffffff" />
      <path
         inkscape:connector-curvature="0"
         fill="#A6A8AB"
         d="m 519.6,360.9 v -7 h 4.3 v -11.3 c 0,-5.6 -1.9,-7.8 -5.5,-7.8 -4.4,0 -6.9,3 -7,7.4 V 354 h 4.3 v 7 h -17.9 v -7 h 4.3 v -18.4 h -4.7 v -7.1 h 14 v 5 c 2,-3.5 5.7,-5.6 10.4,-5.6 6.1,0 11.4,3.5 11.4,11.2 V 354 h 4.3 v 7 h -17.9 z"
         id="path26"
         style="fill:#ffffff" />
      <path
         inkscape:connector-curvature="0"
         fill="#808184"
         d="m 562.8,361.7 c -13.4,0 -23.5,-9.4 -23.5,-23.3 0,-10.9 6.2,-24.9 24,-24.9 8,0 13.8,2.8 16.8,5.6 l 1.2,10.9 -7.8,0.7 -1,-6.2 c -2.4,-1.7 -6.4,-2.5 -9.6,-2.5 -8.1,0 -13.2,5.5 -13.2,15.8 0,10.9 5.8,15.5 13.8,15.5 3.5,0 7.1,-0.9 8.9,-1.9 l 1,-7 7.8,0.7 -0.9,11 c -3.1,3.2 -10.8,5.6 -17.5,5.6 z"
         id="path28"
         style="fill:#ffffff" />
      <path
         inkscape:connector-curvature="0"
         fill="#808184"
         d="m 586.7,360.9 v -8.2 h 5 v -30.4 h -5 v -8.2 h 19.7 v 8.2 h -5 v 30.4 h 5 v 8.2 z"
         id="path30"
         style="fill:#ffffff" />
    </g>
  </g>
</svg>
