<?xml version="1.0" encoding="UTF-8" standalone="no"?>
<!-- Created with Inkscape (http://www.inkscape.org/) -->

<svg
   xmlns:dc="http://purl.org/dc/elements/1.1/"
   xmlns:cc="http://creativecommons.org/ns#"
   xmlns:rdf="http://www.w3.org/1999/02/22-rdf-syntax-ns#"
   xmlns:svg="http://www.w3.org/2000/svg"
   xmlns="http://www.w3.org/2000/svg"
   xmlns:sodipodi="http://sodipodi.sourceforge.net/DTD/sodipodi-0.dtd"
   xmlns:inkscape="http://www.inkscape.org/namespaces/inkscape"
   width="455.29523"
   height="507.25284"
   viewBox="0 0 120.46353 134.21064"
   version="1.1"
   id="svg8"
   inkscape:version="0.92.2 (5c3e80d, 2017-08-06)"
   sodipodi:docname="vertical_white_with_wordmark.svg"
   inkscape:export-filename="/home/anxhelo/Desktop/Design/RitLUG/vertical_black_with_wordmark.png"
   inkscape:export-xdpi="295.19"
   inkscape:export-ydpi="295.19">
  <defs
     id="defs2">
    <clipPath
       id="clipPath861"
       clipPathUnits="userSpaceOnUse">
      <path
         inkscape:connector-curvature="0"
         id="path859"
         d="M 0,751.212 H 1019.949 V 0 H 0 Z" />
    </clipPath>
  </defs>
  <sodipodi:namedview
     id="base"
     pagecolor="#ffffff"
     bordercolor="#666666"
     borderopacity="1.0"
     inkscape:pageopacity="0.0"
     inkscape:pageshadow="2"
     inkscape:zoom="0.2528125"
     inkscape:cx="-329.89924"
     inkscape:cy="196.94232"
     inkscape:document-units="mm"
     inkscape:current-layer="layer1"
     inkscape:document-rotation="0"
     showgrid="false"
     borderlayer="true"
     inkscape:showpageshadow="false"
     units="px"
     inkscape:pagecheckerboard="false"
     showguides="true"
     inkscape:window-width="1366"
     inkscape:window-height="710"
     inkscape:window-x="0"
     inkscape:window-y="0"
     inkscape:window-maximized="1"
     fit-margin-top="0"
     fit-margin-left="0"
     fit-margin-right="0"
     fit-margin-bottom="0">
    <inkscape:grid
       type="xygrid"
       id="grid10"
       originx="-154.37735"
       originy="-39.806393" />
  </sodipodi:namedview>
  <metadata
     id="metadata5">
    <rdf:RDF>
      <cc:Work
         rdf:about="">
        <dc:format>image/svg+xml</dc:format>
        <dc:type
           rdf:resource="http://purl.org/dc/dcmitype/StillImage" />
        <dc:title></dc:title>
      </cc:Work>
    </rdf:RDF>
  </metadata>
  <g
     inkscape:label="Layer 1"
     inkscape:groupmode="layer"
     id="layer1"
     transform="translate(-154.37732,-122.98297)">
    <g
       id="g2378"
       transform="matrix(1.2542329,0,0,1.2542329,-47.558901,-38.485785)"
       style="fill:#ffffff">
      <path
         d="m 167.29008,160.66692 c 2.84339,-6.13834 9.38672,-10.85392 15.10242,-14.36123 2.74179,-1.68275 6.04238,-3.10092 10.58898,-3.12067 -0.65864,6.34576 -3.06247,11.79759 -8.6861,16.51423 -0.95779,0.80327 -1.86443,1.98861 -1.86584,3.2385 -0.002,1.24989 0.90206,2.43664 1.85773,3.24203 5.61199,4.73004 8.01582,10.18434 8.68398,16.52023 -4.54237,-0.0222 -7.83908,-1.43969 -10.57875,-3.12103 -5.7157,-3.50732 -12.25903,-8.22289 -15.10242,-14.36123 -0.35313,-0.76235 -0.52881,-1.52365 -0.53481,-2.27541 0.006,-0.75142 0.18168,-1.51307 0.53481,-2.27542"
         style="fill:#ffffff;fill-opacity:1;fill-rule:nonzero;stroke:none;stroke-width:0.35277775"
         id="path1953"
         inkscape:connector-curvature="0" />
      <path
         style="fill:#ffffff;fill-opacity:1;fill-rule:nonzero;stroke:none;stroke-width:1.67231035"
         d="m 67.669922,355.53125 v 93.29297 H 387.625 v -93.29297 z m 274.646488,20.95508 c 7.35649,0 14.71414,2.79635 19.79297,7.21289 l -4.92969,6.40039 c -3.97512,-3.67908 -9.49183,-5.88867 -14.86328,-5.88867 -10.52219,0 -18.76758,8.02214 -18.76758,18.25 0,10.30143 8.31765,18.32226 18.83984,18.32226 3.82622,0 8.16687,-1.32378 11.84766,-3.53125 v -14.34961 h 7.58008 v 18.98438 c -5.22597,3.97341 -12.95205,6.69531 -20.01758,6.69531 -15.23141,0 -27.07813,-11.40478 -27.07813,-26.12109 0,-14.71636 11.99469,-25.97461 27.59571,-25.97461 z m -244.806644,0.14844 h 24.058594 c 13.83502,0 21.7832,6.62279 21.7832,18.32226 0,7.65249 -3.09138,13.24417 -8.68359,16.4082 l 10.44726,16.84961 h -17.36328 l -6.8457,-13.90625 h -8.09375 v 13.90625 H 97.509766 Z m 53.345704,0 h 15.30469 v 51.58007 h -15.30469 z m 20.08789,0 h 45.32812 v 12.21289 h -15.01171 v 39.36718 h -15.37891 v -39.36718 h -14.9375 z m 52.53516,0.0723 h 8.68359 v 43.63477 h 22.29687 v 7.87304 h -30.98046 z m 38.26367,0 h 8.68359 v 30.16992 c 0,8.68263 5.37207,13.90625 13.83399,13.90625 8.38995,0 13.61132,-5.15 13.61132,-13.90625 v -30.16992 h 8.68555 v 30.16992 c 0,13.46546 -8.46416,21.70508 -22.37109,21.70508 -13.9086,0 -22.44336,-8.23962 -22.44336,-21.70508 z M 112.8125,388.4082 v 14.12696 h 8.75586 c 4.56373,0 7.21094,-2.50108 7.21094,-7.13672 0,-4.48846 -2.64721,-6.99024 -7.21094,-6.99024 z"
         id="path1955"
         transform="matrix(0.21095231,0,0,0.21095231,161.00377,128.73905)"
         inkscape:connector-curvature="0" />
      <path
         d="m 161.00377,220.6475 h 11.50338 v -19.68041 h -11.50338 l 5.75169,9.84038 z"
         style="fill:#ffffff;fill-opacity:1;fill-rule:nonzero;stroke:none;stroke-width:0.35277775"
         id="path1981"
         inkscape:connector-curvature="0" />
      <path
         d="m 257.04935,201.06583 h -11.50338 v 19.68041 h 11.50338 l -5.75169,-9.84038 z"
         style="fill:#ffffff;fill-opacity:1;fill-rule:nonzero;stroke:none;stroke-width:0.35277775"
         id="path1985"
         inkscape:connector-curvature="0" />
      <path
         d="m 184.38672,162.16545 c 8.56827,-7.62318 11.72951,-17.09526 9.41246,-28.53796 5.24016,-3.16512 11.51291,-4.7177 17.05116,-4.88844 18.92653,0 34.91407,15.32784 34.91407,34.25437 0,14.6685 -9.56451,27.17482 -22.67832,32.06079 -3.40078,-9.06532 -8.69703,-23.18102 -8.97149,-23.89822 3.91548,-1.13242 6.77933,-4.74133 6.77933,-9.02159 0,-5.39467 -4.54802,-9.72749 -10.01924,-9.3726 -4.6983,0.3048 -8.4956,4.14444 -8.75207,8.84555 -0.24624,4.50427 2.68393,8.3626 6.75287,9.54547 -0.27834,0.72284 -5.60775,14.93273 -9.00535,23.99382 -2.08739,-0.73695 -4.13703,-1.66052 -6.09106,-2.77142 2.3696,-11.59968 -0.87772,-21.07071 -9.44457,-28.69918 -0.012,-0.0109 -0.32562,-0.31185 -0.32562,-0.73377 0,-0.41099 0.34255,-0.7486 0.37783,-0.77682"
         style="fill:#ffffff;fill-opacity:1;fill-rule:nonzero;stroke:none;stroke-width:0.35277775"
         id="path1989"
         inkscape:connector-curvature="0" />
    </g>
    <text
       style="font-variant:normal;font-weight:normal;font-stretch:normal;font-size:11.28888798px;font-family:Overpass;-inkscape-font-specification:Overpass-Regular;writing-mode:lr-tb;fill:#ffffff;fill-opacity:1;fill-rule:nonzero;stroke:none;stroke-width:0.35277775;"
       id="text1905"
       x="189.1131"
       y="254.85681">
      <tspan
         x="189.1131 193.44803 196.3154 200.53745 203.49513 209.85078 216.20642 218.54323 224.18767 230.48686"
         y="254.85681"
         sodipodi:role="line"
         id="tspan1903"
         style="fill:#ffffff;stroke-width:0.35277775;">ritlug.com</tspan>
    </text>
  </g>
</svg>
