<?xml version="1.0" encoding="UTF-8" standalone="no"?>
<!-- Created with Inkscape (http://www.inkscape.org/) -->

<svg
   xmlns:dc="http://purl.org/dc/elements/1.1/"
   xmlns:cc="http://creativecommons.org/ns#"
   xmlns:rdf="http://www.w3.org/1999/02/22-rdf-syntax-ns#"
   xmlns:svg="http://www.w3.org/2000/svg"
   xmlns="http://www.w3.org/2000/svg"
   xmlns:sodipodi="http://sodipodi.sourceforge.net/DTD/sodipodi-0.dtd"
   xmlns:inkscape="http://www.inkscape.org/namespaces/inkscape"
   width="363.00681"
   height="421.09772"
   viewBox="0 0 96.045554 111.41543"
   version="1.1"
   id="svg8"
   inkscape:version="0.92.2 (5c3e80d, 2017-08-06)"
   sodipodi:docname="vertical_white_with_wordmark.svg"
   inkscape:export-filename="/home/anxhelo/Desktop/Design/RitLUG/vertical_black_with_wordmark.png"
   inkscape:export-xdpi="96"
   inkscape:export-ydpi="96">
  <defs
     id="defs2">
    <clipPath
       id="clipPath861"
       clipPathUnits="userSpaceOnUse">
      <path
         inkscape:connector-curvature="0"
         id="path859"
         d="M 0,751.212 H 1019.949 V 0 H 0 Z" />
    </clipPath>
  </defs>
  <sodipodi:namedview
     id="base"
     pagecolor="#ffffff"
     bordercolor="#666666"
     borderopacity="1.0"
     inkscape:pageopacity="0.0"
     inkscape:pageshadow="2"
     inkscape:zoom="0.505625"
     inkscape:cx="36.865837"
     inkscape:cy="238.26362"
     inkscape:document-units="mm"
     inkscape:current-layer="layer1"
     inkscape:document-rotation="0"
     showgrid="false"
     borderlayer="true"
     inkscape:showpageshadow="false"
     units="px"
     inkscape:pagecheckerboard="false"
     showguides="true"
     inkscape:window-width="1366"
     inkscape:window-height="710"
     inkscape:window-x="0"
     inkscape:window-y="0"
     inkscape:window-maximized="1"
     fit-margin-top="0"
     fit-margin-left="0"
     fit-margin-right="0"
     fit-margin-bottom="0">
    <inkscape:grid
       type="xygrid"
       id="grid10"
       originx="-176.05994"
       originy="-69.639356" />
  </sodipodi:namedview>
  <metadata
     id="metadata5">
    <rdf:RDF>
      <cc:Work
         rdf:about="">
        <dc:format>image/svg+xml</dc:format>
        <dc:type
           rdf:resource="http://purl.org/dc/dcmitype/StillImage" />
        <dc:title></dc:title>
      </cc:Work>
    </rdf:RDF>
  </metadata>
  <g
     inkscape:label="Layer 1"
     inkscape:groupmode="layer"
     id="layer1"
     transform="translate(-176.05993,-115.94521)">
    <g
       id="g2238"
       transform="translate(-11.512155,-41.862382)"
       style="fill:#ffffff">
      <path
         d="m 281.05137,189.73546 c -2.84339,-6.13834 -9.38671,-10.85392 -15.10242,-14.36123 -2.74179,-1.68275 -6.04238,-3.10092 -10.58898,-3.12067 0.65864,6.34576 3.06247,11.79759 8.6861,16.51423 0.95779,0.80327 1.86443,1.98861 1.86584,3.2385 0.002,1.24989 -0.90205,2.43664 -1.85773,3.24203 -5.61199,4.73004 -8.01582,10.18434 -8.68398,16.52023 4.54237,-0.0222 7.83908,-1.43969 10.57875,-3.12103 5.71571,-3.50732 12.25903,-8.22289 15.10242,-14.36123 0.35313,-0.76235 0.52881,-1.52365 0.53481,-2.27541 -0.006,-0.75142 -0.18168,-1.51307 -0.53481,-2.27542"
         style="fill:#ffffff;fill-opacity:1;fill-rule:nonzero;stroke:none;stroke-width:0.35277775"
         id="path1865"
         inkscape:connector-curvature="0" />
      <path
         style="fill:#ffffff;fill-opacity:1;fill-rule:nonzero;stroke:none;stroke-width:1.33333325"
         d="M 53.953125 283.46484 L 53.953125 357.84766 L 309.05469 357.84766 L 309.05469 283.46484 L 53.953125 283.46484 z M 272.92969 300.17188 C 278.79502 300.17188 284.66159 302.40056 288.71094 305.92188 L 284.7793 311.02734 C 281.60997 308.09401 277.21235 306.33203 272.92969 306.33203 C 264.54035 306.33203 257.9668 312.72814 257.9668 320.88281 C 257.9668 329.09614 264.59699 335.49023 272.98633 335.49023 C 276.03701 335.49023 279.49894 334.43384 282.43359 332.67383 L 282.43359 321.23438 L 288.47461 321.23438 L 288.47461 336.37109 C 284.30794 339.53909 278.15093 341.70898 272.51758 341.70898 C 260.37358 341.70898 250.92773 332.61613 250.92773 320.88281 C 250.92773 309.14946 260.49104 300.17188 272.92969 300.17188 z M 77.744141 300.29102 L 96.927734 300.29102 C 107.95844 300.29102 114.29297 305.57045 114.29297 314.89844 C 114.29297 320.99977 111.82976 325.45779 107.37109 327.98047 L 115.70117 341.41602 L 101.85547 341.41602 L 96.398438 330.32812 L 89.945312 330.32812 L 89.945312 341.41602 L 77.744141 341.41602 L 77.744141 300.29102 z M 120.27734 300.29102 L 132.47852 300.29102 L 132.47852 341.41602 L 120.27734 341.41602 L 120.27734 300.29102 z M 136.29297 300.29102 L 172.43359 300.29102 L 172.43359 310.0293 L 160.46484 310.0293 L 160.46484 341.41602 L 148.20117 341.41602 L 148.20117 310.0293 L 136.29297 310.0293 L 136.29297 300.29102 z M 178.17969 300.34766 L 185.10352 300.34766 L 185.10352 335.13867 L 202.88086 335.13867 L 202.88086 341.41602 L 178.17969 341.41602 L 178.17969 300.34766 z M 208.6875 300.34961 L 215.61133 300.34961 L 215.61133 324.40234 C 215.61133 331.325 219.89395 335.49023 226.64062 335.49023 C 233.32997 335.49023 237.49414 331.3837 237.49414 324.40234 L 237.49414 300.34961 L 244.41797 300.34961 L 244.41797 324.40234 C 244.41797 335.13836 237.67003 341.70898 226.58203 341.70898 C 215.49271 341.70898 208.6875 335.13836 208.6875 324.40234 L 208.6875 300.34961 z M 89.945312 309.67773 L 89.945312 320.94141 L 96.927734 320.94141 C 100.56644 320.94141 102.67578 318.946 102.67578 315.25 C 102.67578 311.67135 100.56644 309.67773 96.927734 309.67773 L 89.945312 309.67773 z "
         transform="matrix(0.26458333,0,0,0.26458333,187.57209,157.80759)"
         id="path1867" />
      <path
         d="m 187.57209,249.71604 h 11.50338 v -19.68041 h -11.50338 l 5.75169,9.84038 z"
         style="fill:#ffffff;fill-opacity:1;fill-rule:nonzero;stroke:none;stroke-width:0.35277775"
         id="path1893"
         inkscape:connector-curvature="0" />
      <path
         d="m 283.61764,230.13437 h -11.50338 v 19.68041 h 11.50338 l -5.75169,-9.84038 z"
         style="fill:#ffffff;fill-opacity:1;fill-rule:nonzero;stroke:none;stroke-width:0.35277775"
         id="path1897"
         inkscape:connector-curvature="0" />
      <path
         d="m 263.95476,191.23399 c -8.56827,-7.62318 -11.72951,-17.09526 -9.41247,-28.53796 -5.24016,-3.16512 -11.5129,-4.7177 -17.05116,-4.88844 -18.92652,0 -34.91406,15.32784 -34.91406,34.25437 0,14.6685 9.56451,27.17482 22.67832,32.06079 3.40078,-9.06532 8.69703,-23.18102 8.97149,-23.89822 -3.91548,-1.13242 -6.77933,-4.74133 -6.77933,-9.02159 0,-5.39467 4.54801,-9.72749 10.01924,-9.3726 4.6983,0.3048 8.4956,4.14444 8.75207,8.84555 0.24623,4.50427 -2.68394,8.3626 -6.75288,9.54547 0.27835,0.72284 5.60776,14.93273 9.00536,23.99382 2.08739,-0.73695 4.13703,-1.66052 6.09106,-2.77142 -2.36961,-11.59968 0.87771,-21.07071 9.44457,-28.69918 0.012,-0.0109 0.32561,-0.31185 0.32561,-0.73377 0,-0.41099 -0.34254,-0.7486 -0.37782,-0.77682"
         style="fill:#ffffff;fill-opacity:1;fill-rule:nonzero;stroke:none;stroke-width:0.35277775"
         id="path1901"
         inkscape:connector-curvature="0" />
      <text
         style="font-variant:normal;font-weight:normal;font-stretch:normal;font-size:11.28888798px;font-family:Overpass;-inkscape-font-specification:Overpass-Regular;writing-mode:lr-tb;fill:#ffffff;fill-opacity:1;fill-rule:nonzero;stroke:none;stroke-width:0.35277775"
         id="text1905"
         x="210.88335"
         y="266.88623">
        <tspan
           x="210.88335 215.21828 218.08565 222.30769 225.26538 231.62103 237.97667 240.31348 245.95792 252.25711"
           y="266.88623"
           sodipodi:role="line"
           id="tspan1903"
           style="stroke-width:0.35277775;fill:#ffffff">ritlug.com</tspan>
      </text>
    </g>
  </g>
</svg>
