<?xml version="1.0" encoding="UTF-8" standalone="no"?>
<!-- Created with Inkscape (http://www.inkscape.org/) -->

<svg
   xmlns:dc="http://purl.org/dc/elements/1.1/"
   xmlns:cc="http://creativecommons.org/ns#"
   xmlns:rdf="http://www.w3.org/1999/02/22-rdf-syntax-ns#"
   xmlns:svg="http://www.w3.org/2000/svg"
   xmlns="http://www.w3.org/2000/svg"
   xmlns:sodipodi="http://sodipodi.sourceforge.net/DTD/sodipodi-0.dtd"
   xmlns:inkscape="http://www.inkscape.org/namespaces/inkscape"
   width="363.00681"
   height="421.09772"
   viewBox="0 0 96.045554 111.41543"
   version="1.1"
   id="svg8"
   inkscape:version="0.92.2 (5c3e80d, 2017-08-06)"
   sodipodi:docname="vertical_color_with_wordmark.svg">
  <defs
     id="defs2">
    <clipPath
       id="clipPath861"
       clipPathUnits="userSpaceOnUse">
      <path
         inkscape:connector-curvature="0"
         id="path859"
         d="M 0,751.212 H 1019.949 V 0 H 0 Z" />
    </clipPath>
  </defs>
  <sodipodi:namedview
     id="base"
     pagecolor="#ffffff"
     bordercolor="#666666"
     borderopacity="1.0"
     inkscape:pageopacity="0.0"
     inkscape:pageshadow="2"
     inkscape:zoom="0.505625"
     inkscape:cx="322.46291"
     inkscape:cy="186.7961"
     inkscape:document-units="mm"
     inkscape:current-layer="layer1"
     inkscape:document-rotation="0"
     showgrid="false"
     borderlayer="true"
     inkscape:showpageshadow="false"
     units="px"
     inkscape:pagecheckerboard="false"
     showguides="true"
     inkscape:window-width="1366"
     inkscape:window-height="710"
     inkscape:window-x="0"
     inkscape:window-y="0"
     inkscape:window-maximized="1"
     fit-margin-top="0"
     fit-margin-left="0"
     fit-margin-right="0"
     fit-margin-bottom="0">
    <inkscape:grid
       type="xygrid"
       id="grid10"
       originx="-176.05994"
       originy="-69.639356" />
  </sodipodi:namedview>
  <metadata
     id="metadata5">
    <rdf:RDF>
      <cc:Work
         rdf:about="">
        <dc:format>image/svg+xml</dc:format>
        <dc:type
           rdf:resource="http://purl.org/dc/dcmitype/StillImage" />
        <dc:title></dc:title>
      </cc:Work>
    </rdf:RDF>
  </metadata>
  <g
     inkscape:label="Layer 1"
     inkscape:groupmode="layer"
     id="layer1"
     transform="translate(-176.05993,-115.94521)">
    <g
       id="g2238"
       transform="translate(-11.512155,-41.862382)">
      <path
         d="m 281.05137,189.73546 c -2.84339,-6.13834 -9.38671,-10.85392 -15.10242,-14.36123 -2.74179,-1.68275 -6.04238,-3.10092 -10.58898,-3.12067 0.65864,6.34576 3.06247,11.79759 8.6861,16.51423 0.95779,0.80327 1.86443,1.98861 1.86584,3.2385 0.002,1.24989 -0.90205,2.43664 -1.85773,3.24203 -5.61199,4.73004 -8.01582,10.18434 -8.68398,16.52023 4.54237,-0.0222 7.83908,-1.43969 10.57875,-3.12103 5.71571,-3.50732 12.25903,-8.22289 15.10242,-14.36123 0.35313,-0.76235 0.52881,-1.52365 0.53481,-2.27541 -0.006,-0.75142 -0.18168,-1.51307 -0.53481,-2.27542"
         style="fill:#f36e21;fill-opacity:1;fill-rule:nonzero;stroke:none;stroke-width:0.35277775"
         id="path1865"
         inkscape:connector-curvature="0" />
      <path
         d="m 269.34257,252.48796 h -67.49521 v -19.68041 h 67.49521 z"
         style="fill:#f36e21;fill-opacity:1;fill-rule:nonzero;stroke:none;stroke-width:0.35277775"
         id="path1867"
         inkscape:connector-curvature="0" />
      <path
         d="m 211.37017,242.72328 h 1.84714 c 0.96274,0 1.52118,-0.52776 1.52118,-1.50566 0,-0.94685 -0.55844,-1.47461 -1.52118,-1.47461 h -1.84714 z m 3.15136,5.41726 -1.44392,-2.9337 h -1.70744 v 2.9337 h -3.22827 v -10.88108 h 5.07541 c 2.91854,0 4.59494,1.397 4.59494,3.86503 0,1.61431 -0.65194,2.794 -1.83163,3.46146 l 2.20381,3.55459 z"
         style="fill:#ffffff;fill-opacity:1;fill-rule:nonzero;stroke:none;stroke-width:0.35277775"
         id="path1871"
         inkscape:connector-curvature="0" />
      <path
         d="m 222.62385,248.14068 h -3.22827 V 237.2596 h 3.22827 z"
         style="fill:#ffffff;fill-opacity:1;fill-rule:nonzero;stroke:none;stroke-width:0.35277775"
         id="path1873"
         inkscape:connector-curvature="0" />
      <path
         d="m 233.19491,237.25939 v 2.57669 h -3.16653 v 8.30438 h -3.2445 v -8.30438 h -3.15101 v -2.57669 z"
         style="fill:#ffffff;fill-opacity:1;fill-rule:nonzero;stroke:none;stroke-width:0.35277775"
         id="path1877"
         inkscape:connector-curvature="0" />
      <path
         d="m 236.54718,237.2748 v 9.20468 h 4.70358 v 1.66123 h -6.5352 V 237.2748 Z"
         style="fill:#ffffff;fill-opacity:1;fill-rule:nonzero;stroke:none;stroke-width:0.35277775"
         id="path1881"
         inkscape:connector-curvature="0" />
      <path
         d="m 247.53723,246.57279 c 1.76989,0 2.87161,-1.08655 2.87161,-2.9337 v -6.36411 h 1.83198 v 6.36411 c 0,2.84057 -1.78541,4.57906 -4.71911,4.57906 -2.93405,0 -4.73463,-1.73849 -4.73463,-4.57906 v -6.36411 h 1.83197 v 6.36411 c 0,1.83162 1.13312,2.9337 2.91818,2.9337"
         style="fill:#ffffff;fill-opacity:1;fill-rule:nonzero;stroke:none;stroke-width:0.35277775"
         id="path1885"
         inkscape:connector-curvature="0" />
      <path
         d="m 262.2991,242.80096 h 1.59879 v 4.00473 c -1.10243,0.8382 -2.73191,1.41217 -4.2224,1.41217 -3.2131,0 -5.71217,-2.40559 -5.71217,-5.51003 0,-3.10445 2.53012,-5.4797 5.82118,-5.4797 1.55187,0 3.10409,0.58985 4.17548,1.52153 l -1.03999,1.35043 c -0.83855,-0.77611 -2.00237,-1.24213 -3.13549,-1.24213 -2.21968,0 -3.95887,1.69228 -3.95887,3.84987 0,2.17311 1.75436,3.86503 3.97404,3.86503 0.80716,0 1.72297,-0.2794 2.49943,-0.74507 z"
         style="fill:#ffffff;fill-opacity:1;fill-rule:nonzero;stroke:none;stroke-width:0.35277775"
         id="path1889"
         inkscape:connector-curvature="0" />
      <path
         d="m 187.57209,249.71604 h 11.50338 v -19.68041 h -11.50338 l 5.75169,9.84038 z"
         style="fill:#f36e21;fill-opacity:1;fill-rule:nonzero;stroke:none;stroke-width:0.35277775"
         id="path1893"
         inkscape:connector-curvature="0" />
      <path
         d="m 283.61764,230.13437 h -11.50338 v 19.68041 h 11.50338 l -5.75169,-9.84038 z"
         style="fill:#f36e21;fill-opacity:1;fill-rule:nonzero;stroke:none;stroke-width:0.35277775"
         id="path1897"
         inkscape:connector-curvature="0" />
      <path
         d="m 263.95476,191.23399 c -8.56827,-7.62318 -11.72951,-17.09526 -9.41247,-28.53796 -5.24016,-3.16512 -11.5129,-4.7177 -17.05116,-4.88844 -18.92652,0 -34.91406,15.32784 -34.91406,34.25437 0,14.6685 9.56451,27.17482 22.67832,32.06079 3.40078,-9.06532 8.69703,-23.18102 8.97149,-23.89822 -3.91548,-1.13242 -6.77933,-4.74133 -6.77933,-9.02159 0,-5.39467 4.54801,-9.72749 10.01924,-9.3726 4.6983,0.3048 8.4956,4.14444 8.75207,8.84555 0.24623,4.50427 -2.68394,8.3626 -6.75288,9.54547 0.27835,0.72284 5.60776,14.93273 9.00536,23.99382 2.08739,-0.73695 4.13703,-1.66052 6.09106,-2.77142 -2.36961,-11.59968 0.87771,-21.07071 9.44457,-28.69918 0.012,-0.0109 0.32561,-0.31185 0.32561,-0.73377 0,-0.41099 -0.34254,-0.7486 -0.37782,-0.77682"
         style="fill:#020202;fill-opacity:1;fill-rule:nonzero;stroke:none;stroke-width:0.35277775"
         id="path1901"
         inkscape:connector-curvature="0" />
      <text
         style="font-variant:normal;font-weight:normal;font-stretch:normal;font-size:11.28888798px;font-family:Overpass;-inkscape-font-specification:Overpass-Regular;writing-mode:lr-tb;fill:#000000;fill-opacity:1;fill-rule:nonzero;stroke:none;stroke-width:0.35277775"
         id="text1905"
         x="210.88335"
         y="266.88623">
        <tspan
           x="210.88335 215.21828 218.08565 222.30769 225.26538 231.62103 237.97667 240.31348 245.95792 252.25711"
           y="266.88623"
           sodipodi:role="line"
           id="tspan1903"
           style="stroke-width:0.35277775">ritlug.com</tspan>
      </text>
    </g>
  </g>
</svg>
