<?xml version="1.0" encoding="UTF-8" standalone="no"?>
<!-- Created with Inkscape (http://www.inkscape.org/) -->

<svg
   xmlns:dc="http://purl.org/dc/elements/1.1/"
   xmlns:cc="http://creativecommons.org/ns#"
   xmlns:rdf="http://www.w3.org/1999/02/22-rdf-syntax-ns#"
   xmlns:svg="http://www.w3.org/2000/svg"
   xmlns="http://www.w3.org/2000/svg"
   xmlns:sodipodi="http://sodipodi.sourceforge.net/DTD/sodipodi-0.dtd"
   xmlns:inkscape="http://www.inkscape.org/namespaces/inkscape"
   width="455.29523"
   height="448.82358"
   viewBox="0 0 120.46353 118.75123"
   version="1.1"
   id="svg8"
   inkscape:version="0.92.2 (5c3e80d, 2017-08-06)"
   sodipodi:docname="vertical_black_no_wordmark.svg"
   inkscape:export-filename="/home/anxhelo/Desktop/Design/RitLUG/vertical_black_no_wordmark.png"
   inkscape:export-xdpi="96"
   inkscape:export-ydpi="96">
  <defs
     id="defs2">
    <clipPath
       id="clipPath861"
       clipPathUnits="userSpaceOnUse">
      <path
         inkscape:connector-curvature="0"
         id="path859"
         d="M 0,751.212 H 1019.949 V 0 H 0 Z" />
    </clipPath>
  </defs>
  <sodipodi:namedview
     id="base"
     pagecolor="#ffffff"
     bordercolor="#666666"
     borderopacity="1.0"
     inkscape:pageopacity="0.0"
     inkscape:pageshadow="2"
     inkscape:zoom="0.505625"
     inkscape:cx="522.80502"
     inkscape:cy="284.97845"
     inkscape:document-units="mm"
     inkscape:current-layer="layer1"
     inkscape:document-rotation="0"
     showgrid="false"
     borderlayer="true"
     inkscape:showpageshadow="false"
     units="px"
     inkscape:pagecheckerboard="false"
     showguides="true"
     inkscape:window-width="1366"
     inkscape:window-height="710"
     inkscape:window-x="0"
     inkscape:window-y="0"
     inkscape:window-maximized="1"
     fit-margin-top="0"
     fit-margin-left="0"
     fit-margin-right="0"
     fit-margin-bottom="0">
    <inkscape:grid
       type="xygrid"
       id="grid10"
       originx="-154.37734"
       originy="-55.265798" />
  </sodipodi:namedview>
  <metadata
     id="metadata5">
    <rdf:RDF>
      <cc:Work
         rdf:about="">
        <dc:format>image/svg+xml</dc:format>
        <dc:type
           rdf:resource="http://purl.org/dc/dcmitype/StillImage" />
        <dc:title></dc:title>
      </cc:Work>
    </rdf:RDF>
  </metadata>
  <g
     inkscape:label="Layer 1"
     inkscape:groupmode="layer"
     id="layer1"
     transform="translate(-154.37732,-122.98297)">
    <g
       id="g2378"
       transform="matrix(1.2542329,0,0,1.2542329,-47.558901,-38.485785)">
      <path
         d="m 167.29008,160.66692 c 2.84339,-6.13834 9.38672,-10.85392 15.10242,-14.36123 2.74179,-1.68275 6.04238,-3.10092 10.58898,-3.12067 -0.65864,6.34576 -3.06247,11.79759 -8.6861,16.51423 -0.95779,0.80327 -1.86443,1.98861 -1.86584,3.2385 -0.002,1.24989 0.90206,2.43664 1.85773,3.24203 5.61199,4.73004 8.01582,10.18434 8.68398,16.52023 -4.54237,-0.0222 -7.83908,-1.43969 -10.57875,-3.12103 -5.7157,-3.50732 -12.25903,-8.22289 -15.10242,-14.36123 -0.35313,-0.76235 -0.52881,-1.52365 -0.53481,-2.27541 0.006,-0.75142 0.18168,-1.51307 0.53481,-2.27542"
         style="fill:#000000;fill-opacity:1;fill-rule:nonzero;stroke:none;stroke-width:0.35277775"
         id="path1953"
         inkscape:connector-curvature="0" />
      <path
         style="fill:#000000;fill-opacity:1;fill-rule:nonzero;stroke:none;stroke-width:1.67231035"
         d="M 67.669922 355.53125 L 67.669922 448.82422 L 387.625 448.82422 L 387.625 355.53125 L 67.669922 355.53125 z M 342.31641 376.48633 C 349.6729 376.48633 357.03055 379.28268 362.10938 383.69922 L 357.17969 390.09961 C 353.20457 386.42053 347.68786 384.21094 342.31641 384.21094 C 331.79422 384.21094 323.54883 392.23308 323.54883 402.46094 C 323.54883 412.76237 331.86648 420.7832 342.38867 420.7832 C 346.21489 420.7832 350.55554 419.45942 354.23633 417.25195 L 354.23633 402.90234 L 361.81641 402.90234 L 361.81641 421.88672 C 356.59044 425.86013 348.86436 428.58203 341.79883 428.58203 C 326.56742 428.58203 314.7207 417.17725 314.7207 402.46094 C 314.7207 387.74458 326.71539 376.48633 342.31641 376.48633 z M 97.509766 376.63477 L 121.56836 376.63477 C 135.40338 376.63477 143.35156 383.25756 143.35156 394.95703 C 143.35156 402.60952 140.26018 408.2012 134.66797 411.36523 L 145.11523 428.21484 L 127.75195 428.21484 L 120.90625 414.30859 L 112.8125 414.30859 L 112.8125 428.21484 L 97.509766 428.21484 L 97.509766 376.63477 z M 150.85547 376.63477 L 166.16016 376.63477 L 166.16016 428.21484 L 150.85547 428.21484 L 150.85547 376.63477 z M 170.94336 376.63477 L 216.27148 376.63477 L 216.27148 388.84766 L 201.25977 388.84766 L 201.25977 428.21484 L 185.88086 428.21484 L 185.88086 388.84766 L 170.94336 388.84766 L 170.94336 376.63477 z M 223.47852 376.70703 L 232.16211 376.70703 L 232.16211 420.3418 L 254.45898 420.3418 L 254.45898 428.21484 L 223.47852 428.21484 L 223.47852 376.70703 z M 261.74219 376.70703 L 270.42578 376.70703 L 270.42578 406.87695 C 270.42578 415.55958 275.79785 420.7832 284.25977 420.7832 C 292.64972 420.7832 297.87109 415.6332 297.87109 406.87695 L 297.87109 376.70703 L 306.55664 376.70703 L 306.55664 406.87695 C 306.55664 420.34241 298.09248 428.58203 284.18555 428.58203 C 270.27695 428.58203 261.74219 420.34241 261.74219 406.87695 L 261.74219 376.70703 z M 112.8125 388.4082 L 112.8125 402.53516 L 121.56836 402.53516 C 126.13209 402.53516 128.7793 400.03408 128.7793 395.39844 C 128.7793 390.90998 126.13209 388.4082 121.56836 388.4082 L 112.8125 388.4082 z "
         transform="matrix(0.21095231,0,0,0.21095231,161.00377,128.73905)"
         id="path1955" />
      <path
         d="m 161.00377,220.6475 h 11.50338 v -19.68041 h -11.50338 l 5.75169,9.84038 z"
         style="fill:#000000;fill-opacity:1;fill-rule:nonzero;stroke:none;stroke-width:0.35277775"
         id="path1981"
         inkscape:connector-curvature="0" />
      <path
         d="m 257.04935,201.06583 h -11.50338 v 19.68041 h 11.50338 l -5.75169,-9.84038 z"
         style="fill:#000000;fill-opacity:1;fill-rule:nonzero;stroke:none;stroke-width:0.35277775"
         id="path1985"
         inkscape:connector-curvature="0" />
      <path
         d="m 184.38672,162.16545 c 8.56827,-7.62318 11.72951,-17.09526 9.41246,-28.53796 5.24016,-3.16512 11.51291,-4.7177 17.05116,-4.88844 18.92653,0 34.91407,15.32784 34.91407,34.25437 0,14.6685 -9.56451,27.17482 -22.67832,32.06079 -3.40078,-9.06532 -8.69703,-23.18102 -8.97149,-23.89822 3.91548,-1.13242 6.77933,-4.74133 6.77933,-9.02159 0,-5.39467 -4.54802,-9.72749 -10.01924,-9.3726 -4.6983,0.3048 -8.4956,4.14444 -8.75207,8.84555 -0.24624,4.50427 2.68393,8.3626 6.75287,9.54547 -0.27834,0.72284 -5.60775,14.93273 -9.00535,23.99382 -2.08739,-0.73695 -4.13703,-1.66052 -6.09106,-2.77142 2.3696,-11.59968 -0.87772,-21.07071 -9.44457,-28.69918 -0.012,-0.0109 -0.32562,-0.31185 -0.32562,-0.73377 0,-0.41099 0.34255,-0.7486 0.37783,-0.77682"
         style="fill:#000000;fill-opacity:1;fill-rule:nonzero;stroke:none;stroke-width:0.35277775"
         id="path1989"
         inkscape:connector-curvature="0" />
    </g>
  </g>
</svg>
