<svg width="256" height="256" viewBox="0 0 256 256" fill="none" xmlns="http://www.w3.org/2000/svg">
<g clip-path="url(#clip0_722_1421)">
<path d="M128 0C57.8193 0 0.00114276 56.8927 0.00114276 127.073V197.484C0.000381413 197.575 0 197.666 0 197.758C0 197.849 0.000381413 197.94 0.00114276 198.031V199.837H0.0662772C1.15497 216.861 15.5201 230.336 33.0812 230.336C36.8252 230.336 40.424 229.724 43.7798 228.595C50.7478 238.93 62.6734 245.743 76.2148 245.743C82.932 245.743 89.2516 244.067 94.7657 241.116C102.851 250.232 114.742 255.992 127.999 255.992C141.256 255.992 153.147 250.232 161.233 241.115C166.747 244.067 173.067 245.743 179.785 245.743C193.326 245.743 205.252 238.93 212.22 228.595C215.576 229.724 219.175 230.336 222.919 230.336C240.48 230.336 254.845 216.861 255.934 199.837H255.999V198.045C256 197.95 256 197.854 256 197.758L256 197.657C256 197.617 256 197.576 255.999 197.536L255.999 197.47V127.073C255.999 56.8927 198.181 0 128 0Z" fill="#AE77F5"/>
<path d="M60.7691 79.9663C47.9058 79.9663 37.478 90.3941 37.478 103.257V127.185C37.478 127.309 37.479 127.432 37.4809 127.555C37.479 127.678 37.478 127.801 37.478 127.924V151.852C37.478 164.715 47.9058 175.143 60.7691 175.143C73.6324 175.143 84.0602 164.715 84.0602 151.852V127.924C84.0602 127.801 84.0592 127.678 84.0573 127.555C84.0592 127.432 84.0602 127.309 84.0602 127.186V103.257C84.0602 90.3941 73.6324 79.9663 60.7691 79.9663Z" fill="#CCA4FF"/>
<path d="M195.398 79.9663C182.535 79.9663 172.107 90.3941 172.107 103.257V127.185C172.107 127.309 172.108 127.432 172.11 127.555C172.108 127.678 172.107 127.801 172.107 127.924V151.852C172.107 164.715 182.535 175.143 195.398 175.143C208.262 175.143 218.69 164.715 218.69 151.852V127.924C218.69 127.801 218.689 127.678 218.687 127.555C218.689 127.432 218.69 127.309 218.69 127.186V103.257C218.69 90.3941 208.262 79.9663 195.398 79.9663Z" fill="#CCA4FF"/>
<path d="M37.4783 112.943C37.4783 100.08 47.906 89.6523 60.7693 89.6523C73.6326 89.6523 84.0604 100.08 84.0604 112.943V136.872C84.0604 149.735 73.6326 160.163 60.7693 160.163C47.906 160.163 37.4783 149.735 37.4783 136.872V112.943Z" fill="#282828"/>
<path d="M60.7693 110.821C60.7693 106.637 64.1614 103.245 68.3458 103.245C72.5301 103.245 75.9222 106.637 75.9222 110.821V117.331C75.9222 121.515 72.5301 124.907 68.3458 124.907C64.1614 124.907 60.7693 121.515 60.7693 117.331V110.821Z" fill="white"/>
<path d="M171.935 112.943C171.935 100.08 182.363 89.6523 195.226 89.6523C208.089 89.6523 218.517 100.08 218.517 112.943V136.872C218.517 149.735 208.089 160.163 195.226 160.163C182.363 160.163 171.935 149.735 171.935 136.872V112.943Z" fill="#282828"/>
<path d="M195.226 110.821C195.226 106.637 198.618 103.245 202.802 103.245C206.986 103.245 210.379 106.637 210.379 110.821V117.331C210.379 121.515 206.986 124.907 202.802 124.907C198.618 124.907 195.226 121.515 195.226 117.331V110.821Z" fill="white"/>
<path d="M155.38 135.348C148.087 129.211 137.348 130.386 130.586 137.176L128.067 139.787L125.415 137.176C118.785 130.386 107.913 129.211 100.621 135.348C92.2675 142.399 91.8697 154.934 99.2947 162.507L125.017 188.622C126.608 190.319 129.392 190.319 130.983 188.622L156.706 162.507C164.131 154.934 163.733 142.399 155.38 135.348Z" fill="#F1DC6D"/>
<path d="M120.525 143.341C121.322 145.236 119.591 146.966 117.536 146.966L105.746 146.966C103.691 146.966 101.96 145.236 102.757 143.341C103.24 142.193 103.948 141.149 104.841 140.269C105.734 139.39 106.794 138.692 107.961 138.216C109.128 137.74 110.378 137.495 111.641 137.495C112.904 137.495 114.154 137.74 115.321 138.216C116.488 138.692 117.548 139.39 118.441 140.269C119.334 141.149 120.042 142.193 120.525 143.341Z" fill="white"/>
<path d="M153.244 143.341C154.04 145.236 152.309 146.966 150.254 146.966L138.465 146.966C136.409 146.966 134.678 145.236 135.475 143.341C135.958 142.193 136.666 141.149 137.559 140.269C138.452 139.39 139.512 138.692 140.679 138.216C141.846 137.74 143.096 137.495 144.359 137.495C145.622 137.495 146.872 137.74 148.039 138.216C149.206 138.692 150.266 139.39 151.159 140.269C152.052 141.149 152.76 142.193 153.244 143.341Z" fill="white"/>
</g>
<defs>
<clipPath id="clip0_722_1421">
<rect width="256" height="255.992" fill="white"/>
</clipPath>
</defs>
</svg>
