<svg width="384" height="111" viewBox="0 0 384 111" fill="none" xmlns="http://www.w3.org/2000/svg">
<path d="M39.9736 70.3275C41.1849 70.3275 42.2664 70.9331 43.2182 72.1445C44.2564 73.2692 44.7756 74.7834 44.7756 76.6869C44.7756 79.023 43.4777 81.013 40.8821 82.657C38.3729 84.2144 35.5176 84.9931 32.3163 84.9931C26.9519 84.9931 22.4094 83.8683 18.6889 81.6187C15.055 79.2826 13.238 74.394 13.238 66.9531V31.1326H7.26792C5.19137 31.1326 3.46091 30.4404 2.07655 29.0561C0.692183 27.6717 0 25.9412 0 23.8647C0 21.8747 0.692183 20.2307 2.07655 18.9329C3.46091 17.5485 5.19137 16.8563 7.26792 16.8563H13.238V8.55014C13.238 6.30055 13.9734 4.44031 15.4443 2.96942C17.0017 1.41201 18.9052 0.633301 21.1548 0.633301C23.3179 0.633301 25.1349 1.41201 26.6058 2.96942C28.0767 4.44031 28.8121 6.30055 28.8121 8.55014V16.8563H38.0268C40.1034 16.8563 41.8338 17.5485 43.2182 18.9329C44.6025 20.3173 45.2947 22.0477 45.2947 24.1243C45.2947 26.1143 44.6025 27.8015 43.2182 29.1858C41.8338 30.4837 40.1034 31.1326 38.0268 31.1326H28.8121V66.3042C28.8121 68.1211 29.288 69.4622 30.2397 70.3275C31.1915 71.1062 32.4893 71.4955 34.1333 71.4955C34.8255 71.4955 35.7772 71.3225 36.9885 70.9764C38.0268 70.5438 39.0218 70.3275 39.9736 70.3275Z" fill="black"/>
<path d="M107.225 15.5585C109.475 15.5585 111.335 16.3372 112.806 17.8946C114.277 19.3655 115.012 21.2257 115.012 23.4753V56.4406C115.012 65.785 112.417 73.0962 107.225 78.3741C102.12 83.652 94.8091 86.2909 85.2916 86.2909C75.7741 86.2909 68.4629 83.652 63.3581 78.3741C58.2532 73.0962 55.7008 65.785 55.7008 56.4406V23.4753C55.7008 21.2257 56.4362 19.3655 57.9071 17.8946C59.378 16.3372 61.2382 15.5585 63.4878 15.5585C65.7374 15.5585 67.5977 16.3372 69.0686 17.8946C70.5395 19.3655 71.2749 21.2257 71.2749 23.4753V56.4406C71.2749 61.7184 72.443 65.6552 74.7791 68.2509C77.1152 70.7601 80.6194 72.0147 85.2916 72.0147C90.0504 72.0147 93.5978 70.7601 95.9339 68.2509C98.27 65.6552 99.4381 61.7184 99.4381 56.4406V23.4753C99.4381 21.2257 100.174 19.3655 101.644 17.8946C103.115 16.3372 104.976 15.5585 107.225 15.5585Z" fill="black"/>
<path d="M208.056 14.2607C216.622 14.2607 222.549 16.8996 225.837 22.1775C229.125 27.3689 230.769 34.5935 230.769 43.8515V77.0763C230.769 79.3258 230.033 81.2293 228.562 82.7868C227.091 84.2576 225.231 84.9931 222.982 84.9931C220.732 84.9931 218.872 84.2576 217.401 82.7868C215.93 81.2293 215.195 79.3258 215.195 77.0763V43.8515C215.195 39.0927 214.243 35.3722 212.339 32.69C210.522 29.9213 207.278 28.5369 202.605 28.5369C197.76 28.5369 193.953 30.0078 191.184 32.9496C188.502 35.8048 187.161 39.4388 187.161 43.8515V77.0763C187.161 79.3258 186.426 81.2293 184.955 82.7868C183.484 84.2576 181.624 84.9931 179.374 84.9931C177.124 84.9931 175.264 84.2576 173.793 82.7868C172.322 81.2293 171.587 79.3258 171.587 77.0763V43.8515C171.587 39.0927 170.635 35.3722 168.732 32.69C166.915 29.9213 163.67 28.5369 158.998 28.5369C154.153 28.5369 150.346 30.0078 147.577 32.9496C144.895 35.8048 143.554 39.4388 143.554 43.8515V77.0763C143.554 79.3258 142.818 81.2293 141.347 82.7868C139.876 84.2576 138.016 84.9931 135.767 84.9931C133.517 84.9931 131.657 84.2576 130.186 82.7868C128.715 81.2293 127.979 79.3258 127.979 77.0763V23.4753C127.979 21.2257 128.715 19.3655 130.186 17.8946C131.657 16.3372 133.517 15.5585 135.767 15.5585C138.016 15.5585 139.876 16.3372 141.347 17.8946C142.818 19.3655 143.554 21.2257 143.554 23.4753V25.5519C145.89 22.4371 148.831 19.7981 152.379 17.635C156.013 15.3854 160.036 14.2607 164.449 14.2607C175.351 14.2607 182.316 19.0194 185.344 28.5369C187.334 24.903 190.319 21.6151 194.299 18.6733C198.366 15.7315 202.952 14.2607 208.056 14.2607Z" fill="black"/>
<path d="M278.383 14.2607C284.353 14.2607 289.761 15.8181 294.606 18.9329C299.452 21.9612 303.259 26.2008 306.027 31.6517C308.883 37.1027 310.31 43.2891 310.31 50.2109C310.31 57.1327 308.926 63.3624 306.157 68.8998C303.388 74.3508 299.581 78.6337 294.736 81.7485C289.977 84.7768 284.699 86.2909 278.902 86.2909C274.749 86.2909 270.813 85.469 267.092 83.825C263.458 82.0946 260.43 80.018 258.007 77.5954V103.033C258.007 105.283 257.272 107.143 255.801 108.614C254.33 110.171 252.47 110.95 250.22 110.95C247.97 110.95 246.11 110.215 244.639 108.744C243.168 107.273 242.433 105.369 242.433 103.033V23.4753C242.433 21.2257 243.168 19.3655 244.639 17.8946C246.11 16.3372 247.97 15.5585 250.22 15.5585C252.47 15.5585 254.33 16.3372 255.801 17.8946C257.272 19.3655 258.007 21.2257 258.007 23.4753V23.9945C260.084 21.3988 262.982 19.1492 266.703 17.2457C270.423 15.2557 274.317 14.2607 278.383 14.2607ZM276.437 72.0147C281.974 72.0147 286.516 69.9381 290.064 65.785C293.611 61.6319 295.385 56.4405 295.385 50.2109C295.385 43.9813 293.611 38.8331 290.064 34.7666C286.603 30.6135 282.06 28.5369 276.437 28.5369C270.813 28.5369 266.227 30.6135 262.679 34.7666C259.132 38.8331 257.358 43.9813 257.358 50.2109C257.358 56.4405 259.132 61.6319 262.679 65.785C266.227 69.9381 270.813 72.0147 276.437 72.0147Z" fill="black"/>
<path d="M375.598 14.2607C377.847 14.2607 379.708 14.9961 381.178 16.467C382.649 17.9379 383.385 19.8414 383.385 22.1775V77.0763C383.385 79.3258 382.649 81.2293 381.178 82.7868C379.708 84.2576 377.847 84.9931 375.598 84.9931C373.348 84.9931 371.488 84.2576 370.017 82.7868C368.633 81.3159 367.897 79.4556 367.811 77.206C365.648 79.7152 362.706 81.8783 358.985 83.6953C355.351 85.4257 351.501 86.2909 347.435 86.2909C341.465 86.2909 336.057 84.7768 331.212 81.7485C326.366 78.6337 322.516 74.3508 319.661 68.8998C316.892 63.4489 315.508 57.2625 315.508 50.3407C315.508 43.4189 316.892 37.2325 319.661 31.7815C322.429 26.2441 326.193 21.9612 330.952 18.9329C335.797 15.8181 341.118 14.2607 346.915 14.2607C351.069 14.2607 354.962 15.0394 358.596 16.5968C362.23 18.0677 365.302 19.9712 367.811 22.3073V22.1775C367.811 19.9279 368.546 18.0677 370.017 16.5968C371.488 15.0394 373.348 14.2607 375.598 14.2607ZM349.381 72.0147C355.005 72.0147 359.591 69.9814 363.138 65.9148C366.686 61.7617 368.46 56.5703 368.46 50.3407C368.46 44.111 366.686 38.9197 363.138 34.7666C359.591 30.6135 355.005 28.5369 349.381 28.5369C343.844 28.5369 339.301 30.6135 335.754 34.7666C332.207 38.9197 330.433 44.111 330.433 50.3407C330.433 56.5703 332.163 61.7617 335.624 65.9148C339.172 69.9814 343.757 72.0147 349.381 72.0147Z" fill="black"/>
</svg>
