<svg width="256" height="257" viewBox="0 0 256 257" fill="none" xmlns="http://www.w3.org/2000/svg">
<g clip-path="url(#clip0_722_1423)">
<path fill-rule="evenodd" clip-rule="evenodd" d="M15.0011 198.531L15.0006 198.593C15.0002 198.643 15 198.692 15 198.742C15 198.791 15.0002 198.841 15.0006 198.89L15.0011 198.953V199.323L15.0357 199.863C15.6101 208.845 23.2863 216.32 33.0812 216.32C35.1805 216.32 37.1649 215.978 38.9973 215.362L49.8288 211.718L56.2172 221.193C60.4792 227.515 67.8064 231.727 76.2148 231.727C80.4104 231.727 84.3043 230.685 87.6875 228.875L98.1294 223.286L105.988 232.146C111.319 238.157 119.169 241.976 127.999 241.976C136.829 241.976 144.68 238.157 150.011 232.146L157.869 223.285L168.311 228.874C171.695 230.685 175.589 231.727 179.785 231.727C188.193 231.727 195.52 227.515 199.782 221.193L206.171 211.718L217.002 215.361C218.835 215.978 220.82 216.32 222.919 216.32C232.714 216.32 240.39 208.845 240.964 199.863L240.999 199.325V198.964L240.999 198.899C241 198.848 241 198.798 241 198.75C241 198.747 241 198.744 241 198.742L241 198.662L241 198.642L240.999 198.515V128.057C240.999 66.3021 190.038 15.9839 128 15.9839C65.9616 15.9839 15.0011 66.3021 15.0011 128.057V198.531ZM255.934 200.821C254.845 217.844 240.48 231.32 222.919 231.32C219.175 231.32 215.576 230.707 212.22 229.578C205.252 239.914 193.326 246.727 179.785 246.727C173.067 246.727 166.747 245.051 161.233 242.099C153.147 251.216 141.256 256.976 127.999 256.976C114.742 256.976 102.851 251.216 94.7657 242.099C89.2516 245.051 82.932 246.727 76.2148 246.727C62.6734 246.727 50.7478 239.914 43.7798 229.579C40.424 230.708 36.8252 231.32 33.0812 231.32C15.5201 231.32 1.15497 217.844 0.0662772 200.821H0.00114276V199.015C0.000381413 198.924 0 198.833 0 198.742C0 198.65 0.000381413 198.559 0.00114276 198.468V128.057C0.00114276 57.8766 57.8193 0.983887 128 0.983887C198.181 0.983887 255.999 57.8766 255.999 128.057V198.454L255.999 198.52L256 198.641L256 198.742C256 198.838 256 198.933 255.999 199.029V200.821H255.934Z" fill="black"/>
<path fill-rule="evenodd" clip-rule="evenodd" d="M60.7693 90.6362C47.906 90.6362 37.4783 101.064 37.4783 113.927V137.855C37.4783 150.719 47.906 161.146 60.7693 161.146C73.6326 161.146 84.0604 150.719 84.0604 137.855V113.927C84.0604 101.064 73.6326 90.6362 60.7693 90.6362ZM68.3458 104.229C64.1614 104.229 60.7693 107.621 60.7693 111.805V118.315C60.7693 122.499 64.1614 125.891 68.3458 125.891C72.5301 125.891 75.9222 122.499 75.9222 118.315V111.805C75.9222 107.621 72.5301 104.229 68.3458 104.229Z" fill="black"/>
<path fill-rule="evenodd" clip-rule="evenodd" d="M195.226 90.6362C182.363 90.6362 171.935 101.064 171.935 113.927V137.855C171.935 150.719 182.363 161.146 195.226 161.146C208.089 161.146 218.517 150.719 218.517 137.855V113.927C218.517 101.064 208.089 90.6362 195.226 90.6362ZM202.802 104.229C198.618 104.229 195.226 107.621 195.226 111.805V118.315C195.226 122.499 198.618 125.891 202.802 125.891C206.986 125.891 210.379 122.499 210.379 118.315V111.805C210.379 107.621 206.986 104.229 202.802 104.229Z" fill="black"/>
<path fill-rule="evenodd" clip-rule="evenodd" d="M130.586 138.16C137.348 131.37 148.087 130.195 155.38 136.332C163.733 143.383 164.131 155.918 156.706 163.491L130.983 189.606C129.392 191.303 126.608 191.303 125.017 189.606L99.2947 163.491C91.8697 155.918 92.2675 143.383 100.621 136.332C107.913 130.195 118.785 131.37 125.415 138.16L128.067 140.771L130.586 138.16ZM117.536 147.949C119.591 147.949 121.322 146.22 120.525 144.325C120.042 143.176 119.334 142.132 118.441 141.253C117.548 140.374 116.488 139.676 115.321 139.2C114.154 138.724 112.904 138.479 111.641 138.479C110.378 138.479 109.128 138.724 107.961 139.2C106.794 139.676 105.734 140.374 104.841 141.253C103.948 142.132 103.24 143.176 102.757 144.325C101.96 146.22 103.691 147.949 105.746 147.949L117.536 147.949ZM150.254 147.949C152.309 147.949 154.04 146.22 153.244 144.325C152.76 143.176 152.052 142.132 151.159 141.253C150.266 140.374 149.206 139.676 148.039 139.2C146.872 138.724 145.622 138.479 144.359 138.479C143.096 138.479 141.846 138.724 140.679 139.2C139.512 139.676 138.452 140.374 137.559 141.253C136.666 142.132 135.958 143.176 135.475 144.325C134.678 146.22 136.409 147.949 138.465 147.949L150.254 147.949Z" fill="black"/>
</g>
<defs>
<clipPath id="clip0_722_1423">
<rect width="256" height="255.992" fill="white" transform="translate(0 0.983887)"/>
</clipPath>
</defs>
</svg>
