<svg width="384" height="111" viewBox="0 0 384 111" fill="none" xmlns="http://www.w3.org/2000/svg">
<path d="M39.9736 70.0108C41.1849 70.0108 42.2664 70.6165 43.2182 71.8278C44.2564 72.9526 44.7756 74.4667 44.7756 76.3702C44.7756 78.7064 43.4777 80.6964 40.8821 82.3403C38.3729 83.8977 35.5176 84.6764 32.3163 84.6764C26.9519 84.6764 22.4094 83.5516 18.6889 81.3021C15.055 78.9659 13.238 74.0774 13.238 66.6364V30.816H7.26792C5.19137 30.816 3.46091 30.1238 2.07655 28.7394C0.692183 27.355 0 25.6246 0 23.548C0 21.558 0.692183 19.9141 2.07655 18.6162C3.46091 17.2319 5.19137 16.5397 7.26792 16.5397H13.238V8.23349C13.238 5.9839 13.9734 4.12366 15.4443 2.65277C17.0017 1.09536 18.9052 0.31665 21.1548 0.31665C23.3179 0.31665 25.1349 1.09536 26.6058 2.65277C28.0767 4.12366 28.8121 5.9839 28.8121 8.23349V16.5397H38.0268C40.1034 16.5397 41.8338 17.2319 43.2182 18.6162C44.6025 20.0006 45.2947 21.7311 45.2947 23.8076C45.2947 25.7976 44.6025 27.4848 43.2182 28.8692C41.8338 30.167 40.1034 30.816 38.0268 30.816H28.8121V65.9875C28.8121 67.8045 29.288 69.1456 30.2397 70.0108C31.1915 70.7895 32.4893 71.1789 34.1333 71.1789C34.8255 71.1789 35.7772 71.0058 36.9885 70.6597C38.0268 70.2271 39.0218 70.0108 39.9736 70.0108Z" fill="white"/>
<path d="M107.225 15.2418C109.475 15.2418 111.335 16.0206 112.806 17.578C114.277 19.0489 115.012 20.9091 115.012 23.1587V56.1239C115.012 65.4684 112.417 72.7795 107.225 78.0574C102.12 83.3353 94.8091 85.9743 85.2916 85.9743C75.7741 85.9743 68.4629 83.3353 63.3581 78.0574C58.2532 72.7795 55.7008 65.4684 55.7008 56.1239V23.1587C55.7008 20.9091 56.4362 19.0489 57.9071 17.578C59.378 16.0206 61.2382 15.2418 63.4878 15.2418C65.7374 15.2418 67.5977 16.0206 69.0686 17.578C70.5395 19.0489 71.2749 20.9091 71.2749 23.1587V56.1239C71.2749 61.4018 72.443 65.3386 74.7791 67.9343C77.1152 70.4434 80.6194 71.698 85.2916 71.698C90.0504 71.698 93.5978 70.4434 95.9339 67.9343C98.27 65.3386 99.4381 61.4018 99.4381 56.1239V23.1587C99.4381 20.9091 100.174 19.0489 101.644 17.578C103.115 16.0206 104.976 15.2418 107.225 15.2418Z" fill="white"/>
<path d="M208.056 13.944C216.622 13.944 222.549 16.583 225.837 21.8608C229.125 27.0522 230.769 34.2769 230.769 43.5348V76.7596C230.769 79.0092 230.033 80.9127 228.562 82.4701C227.091 83.941 225.231 84.6764 222.982 84.6764C220.732 84.6764 218.872 83.941 217.401 82.4701C215.93 80.9127 215.195 79.0092 215.195 76.7596V43.5348C215.195 38.7761 214.243 35.0556 212.339 32.3734C210.522 29.6046 207.278 28.2203 202.605 28.2203C197.76 28.2203 193.953 29.6912 191.184 32.6329C188.502 35.4882 187.161 39.1222 187.161 43.5348V76.7596C187.161 79.0092 186.426 80.9127 184.955 82.4701C183.484 83.941 181.624 84.6764 179.374 84.6764C177.124 84.6764 175.264 83.941 173.793 82.4701C172.322 80.9127 171.587 79.0092 171.587 76.7596V43.5348C171.587 38.7761 170.635 35.0556 168.732 32.3734C166.915 29.6046 163.67 28.2203 158.998 28.2203C154.153 28.2203 150.346 29.6912 147.577 32.6329C144.895 35.4882 143.554 39.1222 143.554 43.5348V76.7596C143.554 79.0092 142.818 80.9127 141.347 82.4701C139.876 83.941 138.016 84.6764 135.767 84.6764C133.517 84.6764 131.657 83.941 130.186 82.4701C128.715 80.9127 127.979 79.0092 127.979 76.7596V23.1587C127.979 20.9091 128.715 19.0489 130.186 17.578C131.657 16.0206 133.517 15.2418 135.767 15.2418C138.016 15.2418 139.876 16.0206 141.347 17.578C142.818 19.0489 143.554 20.9091 143.554 23.1587V25.2352C145.89 22.1204 148.831 19.4815 152.379 17.3184C156.013 15.0688 160.036 13.944 164.449 13.944C175.351 13.944 182.316 18.7028 185.344 28.2203C187.334 24.5863 190.319 21.2984 194.299 18.3567C198.366 15.4149 202.952 13.944 208.056 13.944Z" fill="white"/>
<path d="M278.383 13.944C284.353 13.944 289.761 15.5014 294.606 18.6162C299.452 21.6445 303.259 25.8842 306.027 31.3351C308.883 36.786 310.31 42.9724 310.31 49.8943C310.31 56.8161 308.926 63.0457 306.157 68.5832C303.388 74.0341 299.581 78.317 294.736 81.4318C289.977 84.4601 284.699 85.9743 278.902 85.9743C274.749 85.9743 270.813 85.1523 267.092 83.5084C263.458 81.7779 260.43 79.7014 258.007 77.2787V102.716C258.007 104.966 257.272 106.826 255.801 108.297C254.33 109.855 252.47 110.633 250.22 110.633C247.97 110.633 246.11 109.898 244.639 108.427C243.168 106.956 242.433 105.053 242.433 102.716V23.1587C242.433 20.9091 243.168 19.0489 244.639 17.578C246.11 16.0206 247.97 15.2418 250.22 15.2418C252.47 15.2418 254.33 16.0206 255.801 17.578C257.272 19.0489 258.007 20.9091 258.007 23.1587V23.6778C260.084 21.0821 262.982 18.8325 266.703 16.929C270.423 14.939 274.317 13.944 278.383 13.944ZM276.437 71.698C281.974 71.698 286.516 69.6215 290.064 65.4684C293.611 61.3153 295.385 56.1239 295.385 49.8943C295.385 43.6646 293.611 38.5165 290.064 34.4499C286.603 30.2968 282.06 28.2203 276.437 28.2203C270.813 28.2203 266.227 30.2968 262.679 34.4499C259.132 38.5165 257.358 43.6646 257.358 49.8943C257.358 56.1239 259.132 61.3153 262.679 65.4684C266.227 69.6215 270.813 71.698 276.437 71.698Z" fill="white"/>
<path d="M375.598 13.944C377.847 13.944 379.708 14.6794 381.178 16.1503C382.649 17.6212 383.385 19.5247 383.385 21.8608V76.7596C383.385 79.0092 382.649 80.9127 381.178 82.4701C379.708 83.941 377.847 84.6764 375.598 84.6764C373.348 84.6764 371.488 83.941 370.017 82.4701C368.633 80.9992 367.897 79.139 367.811 76.8894C365.648 79.3985 362.706 81.5616 358.985 83.3786C355.351 85.1091 351.501 85.9743 347.435 85.9743C341.465 85.9743 336.057 84.4601 331.212 81.4318C326.366 78.317 322.516 74.0341 319.661 68.5832C316.892 63.1323 315.508 56.9459 315.508 50.024C315.508 43.1022 316.892 36.9158 319.661 31.4649C322.429 25.9274 326.193 21.6445 330.952 18.6162C335.797 15.5014 341.118 13.944 346.915 13.944C351.069 13.944 354.962 14.7227 358.596 16.2801C362.23 17.751 365.302 19.6545 367.811 21.9906V21.8608C367.811 19.6112 368.546 17.751 370.017 16.2801C371.488 14.7227 373.348 13.944 375.598 13.944ZM349.381 71.698C355.005 71.698 359.591 69.6647 363.138 65.5982C366.686 61.4451 368.46 56.2537 368.46 50.024C368.46 43.7944 366.686 38.603 363.138 34.4499C359.591 30.2968 355.005 28.2203 349.381 28.2203C343.844 28.2203 339.301 30.2968 335.754 34.4499C332.207 38.603 330.433 43.7944 330.433 50.024C330.433 56.2537 332.163 61.4451 335.624 65.5982C339.172 69.6647 343.757 71.698 349.381 71.698Z" fill="white"/>
</svg>
