<svg width="509" height="135" viewBox="0 0 509 135" fill="none" xmlns="http://www.w3.org/2000/svg">
<path d="M208.521 93.9312C209.58 93.9312 210.525 94.4582 211.356 95.5123C212.263 96.4912 212.717 97.8088 212.717 99.4653C212.717 101.498 211.583 103.23 209.315 104.661C207.122 106.016 204.628 106.694 201.83 106.694C197.143 106.694 193.174 105.715 189.923 103.757C186.747 101.724 185.16 97.47 185.16 90.9947V59.8229H179.943C178.129 59.8229 176.617 59.2206 175.407 58.0159C174.197 56.8112 173.592 55.3053 173.592 53.4982C173.592 51.7664 174.197 50.3359 175.407 49.2064C176.617 48.0017 178.129 47.3994 179.943 47.3994H185.16V40.1711C185.16 38.2135 185.802 36.5947 187.088 35.3147C188.448 33.9594 190.112 33.2817 192.077 33.2817C193.967 33.2817 195.555 33.9594 196.84 35.3147C198.126 36.5947 198.768 38.2135 198.768 40.1711V47.3994H206.82C208.635 47.3994 210.147 48.0017 211.356 49.2064C212.566 50.4112 213.171 51.917 213.171 53.7241C213.171 55.4559 212.566 56.9241 211.356 58.1288C210.147 59.2582 208.635 59.8229 206.82 59.8229H198.768V90.43C198.768 92.0112 199.184 93.1782 200.016 93.9312C200.847 94.6088 201.981 94.9476 203.418 94.9476C204.023 94.9476 204.854 94.797 205.913 94.4959C206.82 94.1194 207.689 93.9312 208.521 93.9312Z" fill="#54298B"/>
<path d="M267.285 46.27C269.251 46.27 270.876 46.9476 272.162 48.3029C273.447 49.5829 274.09 51.2017 274.09 53.1594V81.8464C274.09 89.9782 271.821 96.3406 267.285 100.934C262.825 105.526 256.436 107.823 248.12 107.823C239.803 107.823 233.415 105.526 228.954 100.934C224.494 96.3406 222.264 89.9782 222.264 81.8464V53.1594C222.264 51.2017 222.906 49.5829 224.191 48.3029C225.477 46.9476 227.102 46.27 229.068 46.27C231.033 46.27 232.659 46.9476 233.944 48.3029C235.229 49.5829 235.872 51.2017 235.872 53.1594V81.8464C235.872 86.4394 236.893 89.8653 238.934 92.1241C240.975 94.3076 244.037 95.3994 248.12 95.3994C252.278 95.3994 255.378 94.3076 257.419 92.1241C259.46 89.8653 260.481 86.4394 260.481 81.8464V53.1594C260.481 51.2017 261.124 49.5829 262.409 48.3029C263.694 46.9476 265.32 46.27 267.285 46.27Z" fill="#54298B"/>
<path d="M355.391 45.1406C362.876 45.1406 368.055 47.437 370.928 52.03C373.801 56.5476 375.237 62.8347 375.237 70.8912V99.8041C375.237 101.762 374.594 103.418 373.309 104.774C372.024 106.054 370.398 106.694 368.433 106.694C366.467 106.694 364.842 106.054 363.556 104.774C362.271 103.418 361.628 101.762 361.628 99.8041V70.8912C361.628 66.75 360.797 63.5123 359.134 61.1782C357.546 58.7688 354.711 57.5641 350.628 57.5641C346.394 57.5641 343.068 58.8441 340.649 61.4041C338.305 63.8888 337.133 67.0512 337.133 70.8912V99.8041C337.133 101.762 336.49 103.418 335.205 104.774C333.92 106.054 332.294 106.694 330.329 106.694C328.363 106.694 326.738 106.054 325.452 104.774C324.167 103.418 323.524 101.762 323.524 99.8041V70.8912C323.524 66.75 322.693 63.5123 321.029 61.1782C319.442 58.7688 316.607 57.5641 312.524 57.5641C308.29 57.5641 304.964 58.8441 302.544 61.4041C300.201 63.8888 299.029 67.0512 299.029 70.8912V99.8041C299.029 101.762 298.386 103.418 297.101 104.774C295.816 106.054 294.19 106.694 292.225 106.694C290.259 106.694 288.633 106.054 287.348 104.774C286.063 103.418 285.42 101.762 285.42 99.8041V53.1594C285.42 51.2017 286.063 49.5829 287.348 48.3029C288.633 46.9476 290.259 46.27 292.225 46.27C294.19 46.27 295.816 46.9476 297.101 48.3029C298.386 49.5829 299.029 51.2017 299.029 53.1594V54.9664C301.07 52.2559 303.641 49.9594 306.74 48.077C309.916 46.1194 313.431 45.1406 317.287 45.1406C326.813 45.1406 332.899 49.2817 335.545 57.5641C337.284 54.4017 339.892 51.5406 343.37 48.9806C346.924 46.4206 350.931 45.1406 355.391 45.1406Z" fill="#54298B"/>
<path d="M416.842 45.1406C422.059 45.1406 426.784 46.4959 431.018 49.2064C435.252 51.8417 438.578 55.5312 440.998 60.2747C443.493 65.0182 444.74 70.4017 444.74 76.4253C444.74 82.4488 443.53 87.87 441.111 92.6888C438.692 97.4323 435.365 101.159 431.132 103.87C426.973 106.505 422.362 107.823 417.296 107.823C413.667 107.823 410.227 107.108 406.976 105.677C403.801 104.171 401.155 102.364 399.038 100.256V122.392C399.038 124.35 398.395 125.969 397.11 127.249C395.825 128.604 394.199 129.282 392.234 129.282C390.268 129.282 388.642 128.642 387.357 127.362C386.072 126.082 385.429 124.425 385.429 122.392V53.1594C385.429 51.2017 386.072 49.5829 387.357 48.3029C388.642 46.9476 390.268 46.27 392.234 46.27C394.199 46.27 395.825 46.9476 397.11 48.3029C398.395 49.5829 399.038 51.2017 399.038 53.1594V53.6112C400.852 51.3523 403.385 49.3947 406.636 47.7382C409.887 46.0064 413.289 45.1406 416.842 45.1406ZM415.141 95.3994C419.98 95.3994 423.949 93.5923 427.049 89.9782C430.149 86.3641 431.699 81.8464 431.699 76.4253C431.699 71.0041 430.149 66.5241 427.049 62.9853C424.025 59.3712 420.056 57.5641 415.141 57.5641C410.227 57.5641 406.22 59.3712 403.12 62.9853C400.021 66.5241 398.471 71.0041 398.471 76.4253C398.471 81.8464 400.021 86.3641 403.12 89.9782C406.22 93.5923 410.227 95.3994 415.141 95.3994Z" fill="#54298B"/>
<path d="M501.788 45.1406C503.754 45.1406 505.379 45.7806 506.665 47.0606C507.95 48.3406 508.592 49.997 508.592 52.03V99.8041C508.592 101.762 507.95 103.418 506.665 104.774C505.379 106.054 503.754 106.694 501.788 106.694C499.822 106.694 498.197 106.054 496.912 104.774C495.702 103.494 495.059 101.875 494.984 99.917C493.094 102.101 490.523 103.983 487.272 105.564C484.097 107.07 480.733 107.823 477.179 107.823C471.963 107.823 467.237 106.505 463.004 103.87C458.77 101.159 455.405 97.4323 452.911 92.6888C450.491 87.9453 449.282 82.5617 449.282 76.5382C449.282 70.5147 450.491 65.1312 452.911 60.3876C455.33 55.5688 458.619 51.8417 462.777 49.2064C467.011 46.4959 471.66 45.1406 476.726 45.1406C480.355 45.1406 483.757 45.8182 486.932 47.1735C490.107 48.4535 492.791 50.11 494.984 52.1429V52.03C494.984 50.0723 495.626 48.4535 496.912 47.1735C498.197 45.8182 499.822 45.1406 501.788 45.1406ZM478.88 95.3994C483.795 95.3994 487.801 93.63 490.901 90.0912C494.001 86.477 495.551 81.9594 495.551 76.5382C495.551 71.117 494.001 66.5994 490.901 62.9853C487.801 59.3712 483.795 57.5641 478.88 57.5641C474.042 57.5641 470.072 59.3712 466.973 62.9853C463.873 66.5994 462.323 71.117 462.323 76.5382C462.323 81.9594 463.835 86.477 466.859 90.0912C469.959 93.63 473.966 95.3994 478.88 95.3994Z" fill="#54298B"/>
<g clip-path="url(#clip0_722_1424)">
<path d="M68.0924 0C31.083 0 0.59301 30.003 0.59301 67.0135V104.145C0.592608 104.193 0.592407 104.241 0.592407 104.29C0.592407 104.338 0.592608 104.386 0.59301 104.434V105.386H0.627358C1.20147 114.364 8.77683 121.47 18.0376 121.47C20.012 121.47 21.9097 121.147 23.6794 120.552C27.3539 126.002 33.6428 129.595 40.7838 129.595C44.3261 129.595 47.6587 128.711 50.5665 127.155C54.8304 131.963 61.101 135 68.0919 135C75.083 135 81.3536 131.963 85.6176 127.155C88.5255 128.711 91.8582 129.595 95.4007 129.595C102.542 129.595 108.831 126.002 112.505 120.552C114.275 121.147 116.173 121.47 118.147 121.47C127.408 121.47 134.983 114.364 135.558 105.386H135.592V104.441C135.592 104.391 135.592 104.34 135.592 104.29L135.592 104.237C135.592 104.215 135.592 104.194 135.592 104.173L135.592 104.138V67.0135C135.592 30.003 105.102 0 68.0924 0Z" fill="#AE77F5"/>
<path d="M32.6386 42.1711C25.8552 42.1711 20.3562 47.6703 20.3562 54.4539V67.0727C20.3562 67.1377 20.3567 67.2026 20.3577 67.2674C20.3567 67.3322 20.3562 67.3971 20.3562 67.4621V80.0808C20.3562 86.8644 25.8552 92.3636 32.6386 92.3636C39.422 92.3636 44.921 86.8644 44.921 80.0808V67.4621C44.921 67.3971 44.9205 67.3322 44.9195 67.2674C44.9205 67.2026 44.921 67.1377 44.921 67.0727V54.4539C44.921 47.6703 39.422 42.1711 32.6386 42.1711Z" fill="#CCA4FF"/>
<path d="M103.635 42.1711C96.8512 42.1711 91.3522 47.6703 91.3522 54.4539V67.0727C91.3522 67.1377 91.3527 67.2026 91.3537 67.2674C91.3527 67.3322 91.3522 67.3971 91.3522 67.4622V80.0809C91.3522 86.8645 96.8512 92.3637 103.635 92.3637C110.418 92.3637 115.917 86.8645 115.917 80.0809V67.4622C115.917 67.3971 115.916 67.3322 115.915 67.2674C115.916 67.2026 115.917 67.1377 115.917 67.0727V54.4539C115.917 47.6703 110.418 42.1711 103.635 42.1711Z" fill="#CCA4FF"/>
<path d="M20.3563 59.5618C20.3563 52.7782 25.8553 47.2791 32.6387 47.2791C39.4221 47.2791 44.9211 52.7782 44.9211 59.5618V72.1806C44.9211 78.9642 39.4221 84.4634 32.6387 84.4634C25.8553 84.4634 20.3563 78.9642 20.3563 72.1806V59.5618Z" fill="#282828"/>
<path d="M32.6387 58.4426C32.6387 56.2359 34.4275 54.447 36.6341 54.447C38.8407 54.447 40.6295 56.2359 40.6295 58.4426V61.8755C40.6295 64.0821 38.8407 65.871 36.6341 65.871C34.4275 65.871 32.6387 64.0821 32.6387 61.8755V58.4426Z" fill="white"/>
<path d="M91.2611 59.5618C91.2611 52.7782 96.7601 47.2791 103.544 47.2791C110.327 47.2791 115.826 52.7782 115.826 59.5618V72.1806C115.826 78.9642 110.327 84.4634 103.544 84.4634C96.7601 84.4634 91.2611 78.9642 91.2611 72.1806V59.5618Z" fill="#282828"/>
<path d="M103.543 58.4428C103.543 56.2361 105.332 54.4473 107.539 54.4473C109.745 54.4473 111.534 56.2361 111.534 58.4428V61.8757C111.534 64.0824 109.745 65.8713 107.539 65.8713C105.332 65.8713 103.543 64.0824 103.543 61.8757V58.4428Z" fill="white"/>
<path d="M82.531 71.377C78.6854 68.1406 73.0219 68.7604 69.4559 72.3411L68.1275 73.7183L66.7291 72.3411C63.2331 68.7604 57.4996 68.1406 53.654 71.377C49.2491 75.0954 49.0393 81.706 52.9548 85.6998L66.5193 99.4717C67.3583 100.367 68.8267 100.367 69.6657 99.4717L83.2302 85.6998C87.1457 81.706 86.936 75.0954 82.531 71.377Z" fill="#F1DC6D"/>
<path d="M64.1507 75.5925C64.571 76.5917 63.658 77.5037 62.5741 77.5037L56.3571 77.5037C55.2732 77.5037 54.3602 76.5917 54.7805 75.5925C55.0353 74.9866 55.4089 74.436 55.8798 73.9723C56.3507 73.5085 56.9097 73.1407 57.525 72.8897C58.1402 72.6387 58.7996 72.5095 59.4656 72.5095C60.1315 72.5095 60.791 72.6387 61.4062 72.8897C62.0215 73.1407 62.5805 73.5085 63.0514 73.9723C63.5223 74.436 63.8959 74.9866 64.1507 75.5925Z" fill="white"/>
<path d="M81.4044 75.5925C81.8247 76.5917 80.9117 77.5037 79.8278 77.5037L73.6108 77.5037C72.5269 77.5037 71.6139 76.5917 72.0342 75.5925C72.289 74.9866 72.6626 74.436 73.1335 73.9723C73.6044 73.5085 74.1634 73.1407 74.7787 72.8897C75.3939 72.6387 76.0534 72.5095 76.7193 72.5095C77.3853 72.5095 78.0447 72.6387 78.6599 72.8897C79.2752 73.1407 79.8342 73.5085 80.3051 73.9723C80.776 74.436 81.1496 74.9866 81.4044 75.5925Z" fill="white"/>
</g>
<defs>
<clipPath id="clip0_722_1424">
<rect width="135" height="135" fill="white" transform="translate(0.592407)"/>
</clipPath>
</defs>
</svg>
