<svg width="256" height="257" viewBox="0 0 256 257" fill="none" xmlns="http://www.w3.org/2000/svg">
<g clip-path="url(#clip0_722_1422)">
<path fill-rule="evenodd" clip-rule="evenodd" d="M0.00114276 128.065C0.00114276 57.8847 57.8193 0.991943 128 0.991943C198.181 0.991943 255.999 57.8847 255.999 128.065V198.462L255.999 198.528L256 198.649L256 198.75C256 198.846 256 198.941 255.999 199.037V200.829H255.934C254.845 217.853 240.48 231.328 222.919 231.328C219.175 231.328 215.576 230.715 212.22 229.587C205.252 239.922 193.326 246.735 179.785 246.735C173.067 246.735 166.747 245.059 161.233 242.107C153.147 251.224 141.256 256.984 127.999 256.984C114.742 256.984 102.851 251.224 94.7657 242.108C89.2516 245.059 82.932 246.735 76.2148 246.735C62.6734 246.735 50.7478 239.922 43.7798 229.587C40.424 230.716 36.8252 231.328 33.0812 231.328C15.5201 231.328 1.15497 217.853 0.0662772 200.829H0.00114276V199.023C0.000381413 198.932 0 198.841 0 198.75C0 198.658 0.000381413 198.567 0.00114276 198.476V128.065ZM37.4783 113.935C37.4783 101.072 47.906 90.6443 60.7693 90.6443C73.6326 90.6443 84.0604 101.072 84.0604 113.935V137.863C84.0604 150.727 73.6326 161.155 60.7693 161.155C47.906 161.155 37.4783 150.727 37.4783 137.863V113.935ZM60.7693 111.813C60.7693 107.629 64.1614 104.237 68.3458 104.237C72.5301 104.237 75.9222 107.629 75.9222 111.813V118.323C75.9222 122.507 72.5301 125.899 68.3458 125.899C64.1614 125.899 60.7693 122.507 60.7693 118.323V111.813ZM195.226 90.6443C182.363 90.6443 171.935 101.072 171.935 113.935V137.863C171.935 150.727 182.363 161.155 195.226 161.155C208.089 161.155 218.517 150.727 218.517 137.863V113.935C218.517 101.072 208.089 90.6443 195.226 90.6443ZM202.802 104.237C198.618 104.237 195.226 107.629 195.226 111.813V118.323C195.226 122.507 198.618 125.899 202.802 125.899C206.986 125.899 210.379 122.507 210.379 118.323V111.813C210.379 107.629 206.986 104.237 202.802 104.237ZM155.38 136.34C148.087 130.203 137.348 131.378 130.586 138.168L128.067 140.779L125.415 138.168C118.785 131.378 107.913 130.203 100.621 136.34C92.2675 143.391 91.8697 155.926 99.2947 163.499L125.017 189.614C126.608 191.311 129.392 191.311 130.983 189.614L156.706 163.499C164.131 155.926 163.733 143.391 155.38 136.34ZM120.525 144.333C121.322 146.228 119.591 147.958 117.536 147.958H105.746C103.691 147.958 101.96 146.228 102.757 144.333C103.24 143.184 103.948 142.14 104.841 141.261C105.734 140.382 106.794 139.684 107.961 139.208C109.128 138.732 110.378 138.487 111.641 138.487C112.904 138.487 114.154 138.732 115.321 139.208C116.488 139.684 117.548 140.382 118.441 141.261C119.334 142.14 120.042 143.184 120.525 144.333ZM153.244 144.333C154.04 146.228 152.309 147.958 150.254 147.958H138.465C136.409 147.958 134.678 146.228 135.475 144.333C135.958 143.184 136.666 142.14 137.559 141.261C138.452 140.382 139.512 139.684 140.679 139.208C141.846 138.732 143.096 138.487 144.359 138.487C145.622 138.487 146.872 138.732 148.039 139.208C149.206 139.684 150.266 140.382 151.159 141.261C152.052 142.14 152.76 143.184 153.244 144.333Z" fill="white"/>
</g>
<defs>
<clipPath id="clip0_722_1422">
<rect width="256" height="255.992" fill="white" transform="translate(0 0.991943)"/>
</clipPath>
</defs>
</svg>
