<svg width="384" height="111" viewBox="0 0 384 111" fill="none" xmlns="http://www.w3.org/2000/svg">
<path d="M39.9736 69.6942C41.1849 69.6942 42.2664 70.2998 43.2182 71.5111C44.2564 72.6359 44.7756 74.1501 44.7756 76.0536C44.7756 78.3897 43.4777 80.3797 40.8821 82.0237C38.3729 83.5811 35.5176 84.3598 32.3163 84.3598C26.9519 84.3598 22.4094 83.235 18.6889 80.9854C15.055 78.6493 13.238 73.7607 13.238 66.3198V30.4993H7.26792C5.19137 30.4993 3.46091 29.8071 2.07655 28.4228C0.692183 27.0384 0 25.3079 0 23.2314C0 21.2414 0.692183 19.5974 2.07655 18.2996C3.46091 16.9152 5.19137 16.223 7.26792 16.223H13.238V7.91684C13.238 5.66725 13.9734 3.80701 15.4443 2.33612C17.0017 0.778706 18.9052 0 21.1548 0C23.3179 0 25.1349 0.778706 26.6058 2.33612C28.0767 3.80701 28.8121 5.66725 28.8121 7.91684V16.223H38.0268C40.1034 16.223 41.8338 16.9152 43.2182 18.2996C44.6025 19.684 45.2947 21.4144 45.2947 23.491C45.2947 25.481 44.6025 27.1682 43.2182 28.5525C41.8338 29.8504 40.1034 30.4993 38.0268 30.4993H28.8121V65.6709C28.8121 67.4878 29.288 68.8289 30.2397 69.6942C31.1915 70.4729 32.4893 70.8622 34.1333 70.8622C34.8255 70.8622 35.7772 70.6892 36.9885 70.3431C38.0268 69.9105 39.0218 69.6942 39.9736 69.6942Z" fill="#54298B"/>
<path d="M107.225 14.9252C109.475 14.9252 111.335 15.7039 112.806 17.2613C114.277 18.7322 115.012 20.5924 115.012 22.842V55.8072C115.012 65.1517 112.417 72.4629 107.225 77.7408C102.12 83.0187 94.8091 85.6576 85.2916 85.6576C75.7741 85.6576 68.4629 83.0187 63.3581 77.7408C58.2532 72.4629 55.7008 65.1517 55.7008 55.8072V22.842C55.7008 20.5924 56.4362 18.7322 57.9071 17.2613C59.378 15.7039 61.2382 14.9252 63.4878 14.9252C65.7374 14.9252 67.5977 15.7039 69.0686 17.2613C70.5395 18.7322 71.2749 20.5924 71.2749 22.842V55.8072C71.2749 61.0851 72.443 65.0219 74.7791 67.6176C77.1152 70.1268 80.6194 71.3814 85.2916 71.3814C90.0504 71.3814 93.5978 70.1268 95.9339 67.6176C98.27 65.0219 99.4381 61.0851 99.4381 55.8072V22.842C99.4381 20.5924 100.174 18.7322 101.644 17.2613C103.115 15.7039 104.976 14.9252 107.225 14.9252Z" fill="#54298B"/>
<path d="M208.056 13.6274C216.622 13.6274 222.549 16.2663 225.837 21.5442C229.125 26.7356 230.769 33.9602 230.769 43.2182V76.443C230.769 78.6925 230.033 80.596 228.562 82.1535C227.091 83.6243 225.231 84.3598 222.982 84.3598C220.732 84.3598 218.872 83.6243 217.401 82.1535C215.93 80.596 215.195 78.6925 215.195 76.443V43.2182C215.195 38.4594 214.243 34.7389 212.339 32.0567C210.522 29.288 207.278 27.9036 202.605 27.9036C197.76 27.9036 193.953 29.3745 191.184 32.3163C188.502 35.1715 187.161 38.8055 187.161 43.2182V76.443C187.161 78.6925 186.426 80.596 184.955 82.1535C183.484 83.6243 181.624 84.3598 179.374 84.3598C177.124 84.3598 175.264 83.6243 173.793 82.1535C172.322 80.596 171.587 78.6925 171.587 76.443V43.2182C171.587 38.4594 170.635 34.7389 168.732 32.0567C166.915 29.288 163.67 27.9036 158.998 27.9036C154.153 27.9036 150.346 29.3745 147.577 32.3163C144.895 35.1715 143.554 38.8055 143.554 43.2182V76.443C143.554 78.6925 142.818 80.596 141.347 82.1535C139.876 83.6243 138.016 84.3598 135.767 84.3598C133.517 84.3598 131.657 83.6243 130.186 82.1535C128.715 80.596 127.979 78.6925 127.979 76.443V22.842C127.979 20.5924 128.715 18.7322 130.186 17.2613C131.657 15.7039 133.517 14.9252 135.767 14.9252C138.016 14.9252 139.876 15.7039 141.347 17.2613C142.818 18.7322 143.554 20.5924 143.554 22.842V24.9186C145.89 21.8038 148.831 19.1648 152.379 17.0017C156.013 14.7521 160.036 13.6274 164.449 13.6274C175.351 13.6274 182.316 18.3861 185.344 27.9036C187.334 24.2697 190.319 20.9818 194.299 18.04C198.366 15.0982 202.952 13.6274 208.056 13.6274Z" fill="#54298B"/>
<path d="M278.383 13.6274C284.353 13.6274 289.761 15.1848 294.606 18.2996C299.452 21.3279 303.259 25.5675 306.027 31.0184C308.883 36.4694 310.31 42.6558 310.31 49.5776C310.31 56.4994 308.926 62.7291 306.157 68.2665C303.388 73.7175 299.581 78.0004 294.736 81.1152C289.977 84.1435 284.699 85.6576 278.902 85.6576C274.749 85.6576 270.813 84.8357 267.092 83.1917C263.458 81.4613 260.43 79.3847 258.007 76.9621V102.4C258.007 104.649 257.272 106.51 255.801 107.981C254.33 109.538 252.47 110.317 250.22 110.317C247.97 110.317 246.11 109.581 244.639 108.11C243.168 106.639 242.433 104.736 242.433 102.4V22.842C242.433 20.5924 243.168 18.7322 244.639 17.2613C246.11 15.7039 247.97 14.9252 250.22 14.9252C252.47 14.9252 254.33 15.7039 255.801 17.2613C257.272 18.7322 258.007 20.5924 258.007 22.842V23.3612C260.084 20.7655 262.982 18.5159 266.703 16.6124C270.423 14.6224 274.317 13.6274 278.383 13.6274ZM276.437 71.3814C281.974 71.3814 286.516 69.3048 290.064 65.1517C293.611 60.9986 295.385 55.8072 295.385 49.5776C295.385 43.348 293.611 38.1998 290.064 34.1333C286.603 29.9802 282.06 27.9036 276.437 27.9036C270.813 27.9036 266.227 29.9802 262.679 34.1333C259.132 38.1998 257.358 43.348 257.358 49.5776C257.358 55.8072 259.132 60.9986 262.679 65.1517C266.227 69.3048 270.813 71.3814 276.437 71.3814Z" fill="#54298B"/>
<path d="M375.598 13.6274C377.847 13.6274 379.708 14.3628 381.178 15.8337C382.649 17.3046 383.385 19.2081 383.385 21.5442V76.443C383.385 78.6925 382.649 80.596 381.178 82.1535C379.708 83.6243 377.847 84.3598 375.598 84.3598C373.348 84.3598 371.488 83.6243 370.017 82.1535C368.633 80.6826 367.897 78.8223 367.811 76.5727C365.648 79.0819 362.706 81.245 358.985 83.062C355.351 84.7924 351.501 85.6576 347.435 85.6576C341.465 85.6576 336.057 84.1435 331.212 81.1152C326.366 78.0004 322.516 73.7175 319.661 68.2665C316.892 62.8156 315.508 56.6292 315.508 49.7074C315.508 42.7856 316.892 36.5992 319.661 31.1482C322.429 25.6108 326.193 21.3279 330.952 18.2996C335.797 15.1848 341.118 13.6274 346.915 13.6274C351.069 13.6274 354.962 14.4061 358.596 15.9635C362.23 17.4344 365.302 19.3379 367.811 21.674V21.5442C367.811 19.2946 368.546 17.4344 370.017 15.9635C371.488 14.4061 373.348 13.6274 375.598 13.6274ZM349.381 71.3814C355.005 71.3814 359.591 69.3481 363.138 65.2815C366.686 61.1284 368.46 55.937 368.46 49.7074C368.46 43.4777 366.686 38.2864 363.138 34.1333C359.591 29.9802 355.005 27.9036 349.381 27.9036C343.844 27.9036 339.301 29.9802 335.754 34.1333C332.207 38.2864 330.433 43.4777 330.433 49.7074C330.433 55.937 332.163 61.1284 335.624 65.2815C339.172 69.3481 343.757 71.3814 349.381 71.3814Z" fill="#54298B"/>
</svg>
