<?xml version="1.0" encoding="UTF-8" standalone="no"?>
<!-- Created with Inkscape (http://www.inkscape.org/) -->

<svg
   xmlns:dc="http://purl.org/dc/elements/1.1/"
   xmlns:cc="http://creativecommons.org/ns#"
   xmlns:rdf="http://www.w3.org/1999/02/22-rdf-syntax-ns#"
   xmlns:svg="http://www.w3.org/2000/svg"
   xmlns="http://www.w3.org/2000/svg"
   xmlns:sodipodi="http://sodipodi.sourceforge.net/DTD/sodipodi-0.dtd"
   xmlns:inkscape="http://www.inkscape.org/namespaces/inkscape"
   width="69.833458"
   height="40.194851"
   viewBox="0 0 18.47677 10.634887"
   version="1.1"
   id="svg8"
   inkscape:version="0.92.3 (2405546, 2018-03-11)"
   sodipodi:docname="black.svg"
   inkscape:export-filename="/home/anxhelo/works/phpList/Buttons/Export/PNG/black.png"
   inkscape:export-xdpi="96"
   inkscape:export-ydpi="96">
  <defs
     id="defs2" />
  <sodipodi:namedview
     id="base"
     pagecolor="#ffffff"
     bordercolor="#666666"
     borderopacity="1.0"
     inkscape:pageopacity="0"
     inkscape:pageshadow="2"
     inkscape:zoom="5.935987"
     inkscape:cx="25.648932"
     inkscape:cy="31.065178"
     inkscape:document-units="px"
     inkscape:current-layer="g894_19_"
     inkscape:document-rotation="0"
     showgrid="false"
     borderlayer="true"
     inkscape:showpageshadow="true"
     units="px"
     inkscape:pagecheckerboard="false"
     showguides="true"
     inkscape:window-width="1366"
     inkscape:window-height="715"
     inkscape:window-x="0"
     inkscape:window-y="0"
     inkscape:window-maximized="1"
     objecttolerance="10"
     guidetolerance="10"
     inkscape:snap-tangential="true"
     inkscape:snap-perpendicular="true"
     fit-margin-top="0"
     fit-margin-left="0"
     fit-margin-right="0"
     fit-margin-bottom="0">
    <inkscape:grid
       type="xygrid"
       id="grid10"
       dotted="false"
       originx="-171.70232"
       originy="-123.80556" />
  </sodipodi:namedview>
  <metadata
     id="metadata5">
    <rdf:RDF>
      <cc:Work
         rdf:about="">
        <dc:format>image/svg+xml</dc:format>
        <dc:type
           rdf:resource="http://purl.org/dc/dcmitype/StillImage" />
        <dc:title></dc:title>
        <cc:license
           rdf:resource="" />
      </cc:Work>
    </rdf:RDF>
  </metadata>
  <g
     inkscape:label="Layer 1"
     inkscape:groupmode="layer"
     id="layer1"
     transform="translate(-171.7023,-162.55955)">
    <path
       inkscape:connector-curvature="0"
       d="m 188.88996,173.08701 h -15.89858 c -0.64455,0 -1.28908,-0.53715 -1.28908,-1.28907 v -7.94931 c 0,-0.64455 0.53711,-1.28908 1.28908,-1.28908 h 15.89858 c 0.64455,0 1.28908,0.53711 1.28908,1.28908 v 7.94931 c 0,0.75192 -0.53711,1.28907 -1.28908,1.28907 z"
       id="path30"
       style="stroke-width:1.07422984" />
    <g
       transform="matrix(1.0742299,0,0,1.0742299,158.91898,140.21558)"
       id="g36">
      <g
         id="g34">
        <path
           class="st3"
           d="m 27.9,21.1 c 0.5,0 1,0.4 1,1 v 7.4 c 0,0.5 -0.4,1 -1,1 H 13.1 c -0.5,0 -1,-0.4 -1,-1 v -7.4 c 0,-0.5 0.4,-1 1,-1 h 14.8 m 0,-0.2 H 13.1 c -0.6,0 -1.2,0.5 -1.2,1.2 v 7.4 c 0,0.6 0.5,1.2 1.2,1.2 h 14.8 c 0.6,0 1.2,-0.5 1.2,-1.2 v -7.4 c 0,-0.7 -0.5,-1.2 -1.2,-1.2 z"
           id="path32"
           inkscape:connector-curvature="0"
           style="fill:#a6a6a6" />
      </g>
    </g>
    <g
       id="g881_19_"
       transform="matrix(1.0742299,0,0,1.0742299,158.84888,139.67551)">
      <g
         id="g894_19_">
        <g
           aria-label="POWERED BY"
           style="font-size:2.09789991px;font-family:OpenSans-Semibold;fill:#ffffff"
           id="text38">
          <path
             d="m 14.83495,22.959608 q 0,0.250969 -0.148533,0.388234 -0.147509,0.136241 -0.41999,0.136241 H 14.152722 V 23.9809 h -0.404624 v -1.497622 h 0.518329 q 0.283749,0 0.426136,0.123948 0.142387,0.123948 0.142387,0.352382 z m -0.682228,0.194629 h 0.07375 q 0.09117,0 0.144435,-0.05122 0.05429,-0.05122 0.05429,-0.141363 0,-0.151606 -0.167995,-0.151606 h -0.104486 z"
             style="font-style:normal;font-variant:normal;font-weight:800;font-stretch:normal;font-family:'Open Sans';-inkscape-font-specification:'Open Sans Ultra-Bold'"
             id="path830"
             inkscape:connector-curvature="0" />
          <path
             d="m 16.477007,23.23004 q 0,0.377991 -0.18541,0.574669 -0.18541,0.196678 -0.542914,0.196678 -0.352381,0 -0.540865,-0.197702 -0.187458,-0.197703 -0.187458,-0.575694 0,-0.373893 0.186434,-0.570571 0.187459,-0.197702 0.543938,-0.197702 0.357503,0 0.541889,0.195653 0.184386,0.195654 0.184386,0.574669 z m -1.030511,0 q 0,0.434331 0.302187,0.434331 0.153655,0 0.227409,-0.10551 0.07478,-0.105509 0.07478,-0.328821 0,-0.224336 -0.0758,-0.33087 -0.07478,-0.107558 -0.224336,-0.107558 -0.304236,0 -0.304236,0.438428 z"
             style="font-style:normal;font-variant:normal;font-weight:800;font-stretch:normal;font-family:'Open Sans';-inkscape-font-specification:'Open Sans Ultra-Bold'"
             id="path832"
             inkscape:connector-curvature="0" />
          <path
             d="m 18.364912,23.9809 h -0.478379 l -0.143411,-0.652521 q -0.01024,-0.04097 -0.03278,-0.162874 -0.02151,-0.121899 -0.03176,-0.203849 -0.0082,0.06658 -0.02663,0.165948 -0.01844,0.09834 -0.03688,0.181312 -0.01741,0.08297 -0.148533,0.671984 H 16.98816 l -0.37082,-1.497622 h 0.390283 l 0.162874,0.75086 q 0.05532,0.24892 0.0758,0.396429 0.01332,-0.104485 0.04712,-0.283749 0.03483,-0.179264 0.06453,-0.297066 l 0.132143,-0.566474 h 0.374918 l 0.128045,0.566474 q 0.03278,0.13624 0.06658,0.31448 0.0338,0.17824 0.04507,0.266335 0.01332,-0.113705 0.07273,-0.394381 L 18.3434,22.483278 h 0.390283 z"
             style="font-style:normal;font-variant:normal;font-weight:800;font-stretch:normal;font-family:'Open Sans';-inkscape-font-specification:'Open Sans Ultra-Bold'"
             id="path834"
             inkscape:connector-curvature="0" />
          <path
             d="m 19.816438,23.9809 h -0.889149 v -1.497622 h 0.889149 v 0.324724 h -0.484525 v 0.235604 h 0.448672 v 0.324723 h -0.448672 v 0.282725 h 0.484525 z"
             style="font-style:normal;font-variant:normal;font-weight:800;font-stretch:normal;font-family:'Open Sans';-inkscape-font-specification:'Open Sans Ultra-Bold'"
             id="path836"
             inkscape:connector-curvature="0" />
          <path
             d="M 20.483299,23.435938 V 23.9809 h -0.404624 v -1.497622 h 0.490671 q 0.610522,0 0.610522,0.442526 0,0.260188 -0.254043,0.402575 l 0.43638,0.652521 h -0.458916 l -0.317553,-0.544962 z m 0,-0.304237 h 0.0758 q 0.212044,0 0.212044,-0.187459 0,-0.154679 -0.207946,-0.154679 h -0.0799 z"
             style="font-style:normal;font-variant:normal;font-weight:800;font-stretch:normal;font-family:'Open Sans';-inkscape-font-specification:'Open Sans Ultra-Bold'"
             id="path838"
             inkscape:connector-curvature="0" />
          <path
             d="m 22.389643,23.9809 h -0.889149 v -1.497622 h 0.889149 v 0.324724 h -0.484525 v 0.235604 h 0.448672 v 0.324723 h -0.448672 v 0.282725 h 0.484525 z"
             style="font-style:normal;font-variant:normal;font-weight:800;font-stretch:normal;font-family:'Open Sans';-inkscape-font-specification:'Open Sans Ultra-Bold'"
             id="path840"
             inkscape:connector-curvature="0" />
          <path
             d="m 23.923117,23.200334 q 0,0.374917 -0.206922,0.577742 -0.205897,0.202824 -0.57979,0.202824 H 22.65188 v -1.497622 h 0.518329 q 0.360576,0 0.55623,0.184386 0.196678,0.184385 0.196678,0.53267 z m -0.41999,0.01434 q 0,-0.205898 -0.08195,-0.305261 -0.08093,-0.09936 -0.246872,-0.09936 h -0.117802 v 0.838955 h 0.09014 q 0.184386,0 0.270433,-0.106533 0.08605,-0.107559 0.08605,-0.327797 z"
             style="font-style:normal;font-variant:normal;font-weight:800;font-stretch:normal;font-family:'Open Sans';-inkscape-font-specification:'Open Sans Ultra-Bold'"
             id="path842"
             inkscape:connector-curvature="0" />
          <path
             d="m 24.737488,22.483278 h 0.522426 q 0.305261,0 0.452769,0.09117 0.148533,0.09015 0.148533,0.281701 0,0.125997 -0.06453,0.215117 -0.06453,0.08912 -0.170044,0.114728 v 0.01024 q 0.139313,0.03688 0.201799,0.122924 0.06249,0.08605 0.06249,0.223312 0,0.203848 -0.153655,0.32165 -0.15263,0.116778 -0.416917,0.116778 h -0.582863 z m 0.404624,0.574669 h 0.121899 q 0.08707,0 0.134192,-0.03585 0.04815,-0.03585 0.04815,-0.106534 0,-0.125997 -0.190532,-0.125997 h -0.113704 z m 0,0.296041 v 0.31448 h 0.142387 q 0.189507,0 0.189507,-0.159801 0,-0.07478 -0.05122,-0.114728 -0.05019,-0.03995 -0.146484,-0.03995 z"
             style="font-style:normal;font-variant:normal;font-weight:800;font-stretch:normal;font-family:'Open Sans';-inkscape-font-specification:'Open Sans Ultra-Bold'"
             id="path844"
             inkscape:connector-curvature="0" />
          <path
             d="m 26.68583,23.038484 0.25814,-0.555206 h 0.438428 l -0.492719,0.912709 V 23.9809 h -0.407698 v -0.57262 l -0.492719,-0.925002 h 0.440477 z"
             style="font-style:normal;font-variant:normal;font-weight:800;font-stretch:normal;font-family:'Open Sans';-inkscape-font-specification:'Open Sans Ultra-Bold'"
             id="path846"
             inkscape:connector-curvature="0" />
        </g>
        <g
           id="g862_19_"
           transform="matrix(0.16925259,0,0,0.16925259,164.359,336.76934)">
          <path
             id="path833_23_"
             inkscape:connector-curvature="0"
             class="st0"
             d="m -857.6,-1827 c 1.5,0 2.4,1.5 2.4,3.2 0,1.7 -0.9,3.3 -2.4,3.3 -3.5,0 -3.5,-6.5 0,-6.5 z m -2.5,-1.1 h -1.6 v 12 h 1.6 v -4 c 0.7,0.7 1.4,1.1 2.5,1.1 2.6,0 4,-2.4 4,-4.7 0,-2.3 -1.4,-4.6 -4,-4.6 -1,0 -1.8,0.4 -2.5,1.2 z"
             style="fill:#ffffff" />
          <path
             id="path835_23_"
             inkscape:connector-curvature="0"
             class="st0"
             d="m -850.3,-1831.9 h -1.6 v 12.4 h 1.6 v -5.3 c 0,-1.5 1,-2.4 2.5,-2.4 1.3,0 1.8,1.1 1.8,2.4 v 5.3 h 1.6 v -5.3 c 0,-2 -0.8,-3.8 -3.3,-3.8 -1,0 -1.9,0.3 -2.5,1.4 -0.1,0.1 -0.1,-4.7 -0.1,-4.7 z"
             style="fill:#ffffff" />
          <path
             id="path837_23_"
             inkscape:connector-curvature="0"
             class="st0"
             d="m -838.5,-1827 c 1.5,0 2.4,1.5 2.4,3.2 0,1.7 -0.9,3.3 -2.4,3.3 -3.5,0 -3.5,-6.5 0,-6.5 z m -2.5,-1.1 h -1.6 v 12 h 1.6 v -4 c 0.7,0.7 1.4,1.1 2.5,1.1 2.6,0 4,-2.4 4,-4.7 0,-2.3 -1.4,-4.6 -4,-4.6 -1,0 -1.8,0.4 -2.5,1.2 z"
             style="fill:#ffffff" />
          <path
             id="path839_23_"
             inkscape:connector-curvature="0"
             class="st0"
             d="m -824.6,-1819.5 v -1.5 h -6.3 v -11 h -1.6 v 12.4 z"
             style="fill:#ffffff" />
          <path
             id="path841_23_"
             inkscape:connector-curvature="0"
             class="st0"
             d="m -821.6,-1819.5 v -8.8 h -1.6 v 8.8 z m 0.1,-10.7 v -1.7 h -1.7 v 1.7 z"
             style="fill:#ffffff" />
          <path
             id="path843_23_"
             inkscape:connector-curvature="0"
             class="st0"
             d="m -816.4,-1819.2 c 1.7,0 3.6,-0.8 3.6,-2.8 0,-1.8 -1.6,-2.3 -2.9,-2.7 -0.3,-0.1 -0.7,-0.2 -1,-0.2 -0.3,0 -0.6,-0.2 -0.8,-0.3 -0.5,-0.2 -0.7,-0.4 -0.7,-0.8 0,-0.8 0.8,-1.1 1.7,-1.1 0.9,0 1.9,0.4 1.9,1.9 h 1.6 c 0,-2.5 -1.8,-3.2 -3.5,-3.2 -1.6,0 -3.3,0.5 -3.3,2.5 0,2.2 2.3,2.3 3.9,2.7 0.3,0.1 0.6,0.2 0.8,0.3 0.4,0.2 0.7,0.5 0.7,0.9 0,0.9 -1,1.4 -2,1.4 -1,0 -1.8,-0.6 -1.9,-1.9 h -1.6 c 0,2.2 1.7,3.3 3.5,3.3 z"
             style="fill:#ffffff" />
          <path
             id="path845_23_"
             inkscape:connector-curvature="0"
             class="st0"
             d="m -808,-1819.2 c 0.4,0 0.8,-0.1 1.3,-0.2 v -1.3 c -0.5,0 -0.6,0.1 -0.8,0.1 -0.2,0 -0.3,0 -0.5,0 -0.8,0 -0.8,-0.8 -0.8,-1.4 v -4.9 h 2.1 v -1.3 h -2.1 v -2.3 h -1.6 v 2.3 h -1.7 v 1.3 h 1.7 v 4.9 c 0.1,1.7 0.3,2.8 2.4,2.8 z"
             style="fill:#ffffff" />
          <path
             id="path831_23_"
             inkscape:connector-curvature="0"
             class="st0"
             d="m -879.8,-1837.4 c -4.3,0 -8.4,2.1 -10.9,5.5 l 8.8,8.7 3.2,-3.2 -1.8,-1.8 v 0 c -0.4,-0.6 -0.6,-1.2 -0.6,-1.9 0,-1.9 1.5,-3.3 3.4,-3.3 1.9,0 3.4,1.5 3.4,3.3 0,0.8 -0.3,1.5 -0.8,2.1 v 0 l -1.6,1.6 8.7,8.6 c 1.1,-2 1.7,-4.2 1.7,-6.5 -0.1,-7.2 -6.1,-13.1 -13.5,-13.1 z m 2,5.3 c -1.2,0 -2.1,0.9 -2.1,2.1 0,0.4 0.1,0.8 0.3,1.1 l 1.8,1.7 1.6,-1.6 c 0.3,-0.4 0.5,-0.8 0.5,-1.3 0,-1.1 -0.9,-2 -2.1,-2 z m -13.7,1.4 c -1.2,2 -1.8,4.2 -1.8,6.5 0,7.3 6,13.2 13.4,13.2 v 0 c 4.4,0 8.5,-2.1 11,-5.6 l -9,-8.7 -3.2,3.2 1.7,1.7 c 0.5,0.6 0.7,1.3 0.7,2 0,1.9 -1.5,3.3 -3.4,3.3 -1.9,0 -3.4,-1.5 -3.4,-3.3 0,-0.6 0.2,-1.2 0.5,-1.7 v -0.1 l 2,-1.9 z m 9.6,9.4 -1.9,1.8 c -0.2,0.3 -0.3,0.6 -0.3,1 0,1.1 1,2.1 2.1,2.1 1.2,0 2.1,-0.9 2.1,-2.1 0,-0.4 -0.1,-0.8 -0.4,-1.2 z"
             style="fill:#ffffff" />
        </g>
      </g>
    </g>
  </g>
</svg>
