<?xml version="1.0" encoding="UTF-8" standalone="no"?>
<!-- Created with Inkscape (http://www.inkscape.org/) -->

<svg
   xmlns:dc="http://purl.org/dc/elements/1.1/"
   xmlns:cc="http://creativecommons.org/ns#"
   xmlns:rdf="http://www.w3.org/1999/02/22-rdf-syntax-ns#"
   xmlns:svg="http://www.w3.org/2000/svg"
   xmlns="http://www.w3.org/2000/svg"
   xmlns:sodipodi="http://sodipodi.sourceforge.net/DTD/sodipodi-0.dtd"
   xmlns:inkscape="http://www.inkscape.org/namespaces/inkscape"
   width="69.833458"
   height="40.194851"
   viewBox="0 0 18.47677 10.634887"
   version="1.1"
   id="svg8"
   inkscape:version="0.92.3 (2405546, 2018-03-11)"
   sodipodi:docname="white.svg"
   inkscape:export-filename="/home/anxhelo/works/phpList/Buttons/Export/PNG/white.png"
   inkscape:export-xdpi="96"
   inkscape:export-ydpi="96">
  <defs
     id="defs2" />
  <sodipodi:namedview
     id="base"
     pagecolor="#ffffff"
     bordercolor="#666666"
     borderopacity="1.0"
     inkscape:pageopacity="0"
     inkscape:pageshadow="2"
     inkscape:zoom="8.3947532"
     inkscape:cx="22.742253"
     inkscape:cy="19.359251"
     inkscape:document-units="px"
     inkscape:current-layer="g2206"
     inkscape:document-rotation="0"
     showgrid="false"
     borderlayer="true"
     inkscape:showpageshadow="true"
     units="px"
     inkscape:pagecheckerboard="false"
     showguides="true"
     inkscape:window-width="1366"
     inkscape:window-height="715"
     inkscape:window-x="0"
     inkscape:window-y="0"
     inkscape:window-maximized="1"
     objecttolerance="10"
     guidetolerance="10"
     inkscape:snap-tangential="true"
     inkscape:snap-perpendicular="true"
     fit-margin-top="0"
     fit-margin-left="0"
     fit-margin-right="0"
     fit-margin-bottom="0">
    <inkscape:grid
       type="xygrid"
       id="grid10"
       dotted="false"
       originx="-171.70232"
       originy="-123.80556" />
  </sodipodi:namedview>
  <metadata
     id="metadata5">
    <rdf:RDF>
      <cc:Work
         rdf:about="">
        <dc:format>image/svg+xml</dc:format>
        <dc:type
           rdf:resource="http://purl.org/dc/dcmitype/StillImage" />
        <dc:title></dc:title>
        <cc:license
           rdf:resource="" />
      </cc:Work>
    </rdf:RDF>
  </metadata>
  <g
     inkscape:label="Layer 1"
     inkscape:groupmode="layer"
     id="layer1"
     transform="translate(-171.7023,-162.55955)">
    <g
       transform="matrix(0.26458333,0,0,0.26458333,160.70251,164.42022)"
       id="g15">
      <g
         id="g13">
        <g
           id="g2206"
           transform="matrix(4.0562621,0,0,4.0562621,-222.69403,-18.931365)">
          <path
             style="fill:#ffffff"
             inkscape:connector-curvature="0"
             class="st0"
             d="m 81.150631,12.7428 h -14.8 c -0.6,0 -1.2,-0.5 -1.2,-1.2 V 4.1428001 c 0,-0.6 0.5,-1.2 1.2,-1.2 h 14.8 c 0.6,0 1.2,0.5 1.2,1.2 V 11.5428 c 0,0.7 -0.6,1.2 -1.2,1.2 z"
             id="path2122" />
          <path
             d="m 81.150631,3.2428001 c 0.5,0 1,0.4 1,1 V 11.6428 c 0,0.5 -0.4,1 -1,1 h -14.8 c -0.5,0 -1,-0.4 -1,-1 V 4.2428001 c 0,-0.5 0.4,-1 1,-1 h 14.8 m 0,-0.2 h -14.8 c -0.6,0 -1.2,0.5 -1.2,1.2 V 11.6428 c 0,0.6 0.5,1.2 1.2,1.2 h 14.8 c 0.6,0 1.2,-0.5 1.2,-1.2 V 4.2428001 c 0,-0.7 -0.6,-1.2 -1.2,-1.2 z"
             id="path2124"
             inkscape:connector-curvature="0" />
          <path
             id="path2130"
             inkscape:connector-curvature="0"
             d="m 72.375088,9.1849279 c 0.253879,0 0.406207,0.2538789 0.406207,0.5416083 0,0.2877298 -0.152328,0.5585338 -0.406207,0.5585338 -0.592384,0 -0.592384,-1.1001421 0,-1.1001421 z M 71.951957,8.9987501 h -0.270804 v 2.0310309 h 0.270804 v -0.67701 c 0.118477,0.118477 0.236954,0.186178 0.423131,0.186178 0.440057,0 0.677011,-0.406207 0.677011,-0.7954875 0,-0.389281 -0.236954,-0.7785619 -0.677011,-0.7785619 -0.169252,0 -0.304654,0.067701 -0.423131,0.2031031 z"
             style="stroke-width:0.16925259" />
          <path
             id="path2132"
             inkscape:connector-curvature="0"
             d="m 73.610632,8.3555902 h -0.270804 v 2.0987318 h 0.270804 V 9.5572836 c 0,-0.2538789 0.169253,-0.4062062 0.423132,-0.4062062 0.220028,0 0.304655,0.1861779 0.304655,0.4062062 v 0.8970384 h 0.270804 V 9.5572836 c 0,-0.3385051 -0.135402,-0.6431598 -0.558534,-0.6431598 -0.169252,0 -0.32158,0.050776 -0.423131,0.2369536 -0.01693,0.016925 -0.01693,-0.7954872 -0.01693,-0.7954872 z"
             style="stroke-width:0.16925259" />
          <path
             id="path2134"
             inkscape:connector-curvature="0"
             d="m 75.607813,9.1849279 c 0.253879,0 0.406206,0.2538789 0.406206,0.5416083 0,0.2877298 -0.152327,0.5585338 -0.406206,0.5585338 -0.592384,0 -0.592384,-1.1001421 0,-1.1001421 z M 75.184681,8.9987501 h -0.270804 v 2.0310309 h 0.270804 v -0.67701 c 0.118477,0.118477 0.236954,0.186178 0.423132,0.186178 0.440057,0 0.67701,-0.406207 0.67701,-0.7954875 0,-0.389281 -0.236953,-0.7785619 -0.67701,-0.7785619 -0.169253,0 -0.304655,0.067701 -0.423132,0.2031031 z"
             style="stroke-width:0.16925259" />
          <path
             id="path2136"
             inkscape:connector-curvature="0"
             d="M 77.960424,10.454322 V 10.200444 H 76.894133 V 8.338665 h -0.270805 v 2.098732 z"
             style="stroke-width:0.16925259" />
          <path
             id="path2138"
             inkscape:connector-curvature="0"
             d="M 78.468182,10.454322 V 8.9648996 h -0.270804 v 1.4894224 z m 0,-1.8110024 V 8.3555902 h -0.28773 v 0.2877294 z"
             style="stroke-width:0.16925259" />
          <path
             id="path2140"
             inkscape:connector-curvature="0"
             d="m 79.348295,10.505098 c 0.28773,0 0.609309,-0.135402 0.609309,-0.473907 0,-0.3046548 -0.270804,-0.3892811 -0.490832,-0.4569821 -0.05078,-0.016925 -0.118477,-0.03385 -0.169253,-0.03385 -0.05077,-0.016925 -0.101551,-0.03385 -0.135402,-0.050776 -0.08463,-0.03385 -0.118477,-0.067701 -0.118477,-0.1354021 0,-0.135402 0.135403,-0.1861778 0.28773,-0.1861778 0.152327,0 0.32158,0.067701 0.32158,0.3215799 h 0.270804 c 0,-0.4231315 -0.304655,-0.5416083 -0.592384,-0.5416083 -0.270804,0 -0.558534,0.084626 -0.558534,0.4231315 0,0.3723557 0.389281,0.3892809 0.660085,0.456982 0.05078,0.016925 0.101552,0.03385 0.135403,0.050776 0.0677,0.03385 0.118476,0.084626 0.118476,0.1523269 0,0.152328 -0.169252,0.236954 -0.338505,0.236954 -0.169252,0 -0.304655,-0.101551 -0.32158,-0.3215799 h -0.270804 c -0.01693,0.3723559 0.287729,0.5585339 0.592384,0.5585329 z"
             style="stroke-width:0.16925259" />
          <path
             id="path2142"
             inkscape:connector-curvature="0"
             d="m 80.770017,10.505098 c 0.0677,0 0.135402,-0.01693 0.220028,-0.03385 v -0.220029 c -0.08463,0 -0.101551,0.01692 -0.135402,0.01692 -0.03385,0 -0.05078,0 -0.08463,0 -0.135402,0 -0.135402,-0.135402 -0.135402,-0.236953 V 9.2018532 h 0.35543 V 8.9818248 h -0.35543 V 8.5925439 h -0.2708 v 0.3892809 h -0.28773 v 0.2200284 h 0.28773 v 0.8293378 c 0.01693,0.287729 0.03385,0.473907 0.406206,0.473907 z"
             style="stroke-width:0.16925259" />
          <path
             id="path2144"
             inkscape:connector-curvature="0"
             d="m 68.617681,7.424701 c -0.727786,0 -1.421722,0.3554304 -1.844853,0.9308892 L 68.26225,9.8280878 68.803859,9.2864795 68.499204,8.9818248 v 0 c -0.0677,-0.1015515 -0.101551,-0.2031031 -0.101551,-0.3215799 0,-0.3215799 0.253878,-0.5585335 0.575458,-0.5585335 0.32158,0 0.575459,0.2538788 0.575459,0.5585335 0,0.1354021 -0.05078,0.2538789 -0.135402,0.3554304 v 0 l -0.270804,0.2708042 1.472498,1.4555725 C 70.801039,10.403547 70.902591,10.031191 70.902591,9.6419099 70.885666,8.4232913 69.87015,7.424701 68.617681,7.424701 Z m 0.338505,0.8970387 c -0.203103,0 -0.35543,0.1523274 -0.35543,0.3554305 0,0.067701 0.01693,0.135402 0.05078,0.1861778 l 0.304654,0.2877294 0.270804,-0.2708041 c 0.05078,-0.067701 0.08463,-0.1354021 0.08463,-0.2200284 0,-0.1861778 -0.169252,-0.3385052 -0.35543,-0.3385052 z m -2.31876,0.2369537 c -0.203104,0.3385051 -0.304655,0.7108608 -0.304655,1.1001418 0,1.2355438 1.015515,2.2341338 2.267985,2.2341338 v 0 c 0.744711,0 1.438647,-0.35543 1.861778,-0.947814 l -1.523273,-1.4724977 -0.541608,0.5416087 0.287729,0.287729 c 0.08463,0.101552 0.118477,0.220028 0.118477,0.338505 0,0.32158 -0.253879,0.558534 -0.575459,0.558534 -0.32158,0 -0.575459,-0.253879 -0.575459,-0.558534 0,-0.101551 0.03385,-0.203103 0.08463,-0.287729 v -0.01693 l 0.338506,-0.32158 z m 1.607899,1.5909746 -0.32158,0.304654 c -0.03385,0.05078 -0.05078,0.101552 -0.05078,0.169253 0,0.186178 0.169253,0.35543 0.355431,0.35543 0.203103,0 0.35543,-0.152327 0.35543,-0.35543 0,-0.0677 -0.01693,-0.135402 -0.0677,-0.203103 z"
             style="stroke-width:0.16925259" />
          <g
             aria-label="POWERED BY"
             style="font-size:2.09789991px;font-family:OpenSans-Semibold"
             id="text2128"
             transform="translate(-2.0575826e-6)">
            <path
               d="m 68.028441,4.599682 q 0,0.2509694 -0.148533,0.3882344 -0.147509,0.1362405 -0.41999,0.1362405 H 67.346213 V 5.6209741 H 66.941589 V 4.1233522 h 0.518329 q 0.283749,0 0.426136,0.1239481 0.142387,0.1239482 0.142387,0.3523817 z m -0.682228,0.1946294 h 0.07375 q 0.09117,0 0.144435,-0.051218 0.05429,-0.051218 0.05429,-0.1413624 0,-0.1516061 -0.167995,-0.1516061 h -0.104486 z"
               style="font-style:normal;font-variant:normal;font-weight:800;font-stretch:normal;font-family:'Open Sans';-inkscape-font-specification:'Open Sans Ultra-Bold'"
               id="path850"
               inkscape:connector-curvature="0" />
            <path
               d="m 69.670498,4.8701144 q 0,0.3779907 -0.18541,0.5746689 -0.18541,0.1966781 -0.542914,0.1966781 -0.352381,0 -0.540865,-0.1977025 -0.187458,-0.1977025 -0.187458,-0.5756933 0,-0.3738932 0.186434,-0.5705714 0.187459,-0.1977024 0.543938,-0.1977024 0.357503,0 0.541889,0.1956537 0.184386,0.1956538 0.184386,0.5746689 z m -1.030511,0 q 0,0.4343308 0.302187,0.4343308 0.153655,0 0.227409,-0.1055096 0.07478,-0.1055096 0.07478,-0.3288212 0,-0.224336 -0.0758,-0.33087 -0.07478,-0.1075583 -0.224336,-0.1075583 -0.304236,0 -0.304236,0.4384283 z"
               style="font-style:normal;font-variant:normal;font-weight:800;font-stretch:normal;font-family:'Open Sans';-inkscape-font-specification:'Open Sans Ultra-Bold'"
               id="path852"
               inkscape:connector-curvature="0" />
            <path
               d="M 71.558403,5.6209741 H 71.080024 L 70.936613,4.9684534 q -0.01024,-0.040975 -0.03278,-0.162874 -0.02151,-0.1218995 -0.03176,-0.2038487 -0.0082,0.066584 -0.02663,0.1659472 -0.01844,0.098339 -0.03688,0.1813126 -0.01741,0.082974 -0.148533,0.6719836 h -0.478379 l -0.37082,-1.4976219 h 0.390283 l 0.162874,0.7508596 q 0.05532,0.2489208 0.0758,0.3964294 0.01332,-0.1044853 0.04712,-0.2837492 0.03483,-0.1792639 0.06453,-0.2970659 l 0.132143,-0.5664739 h 0.374918 l 0.128045,0.5664739 q 0.03278,0.1362406 0.06658,0.3144801 0.0338,0.1782396 0.04507,0.266335 0.01332,-0.1137046 0.07273,-0.3943806 l 0.165947,-0.7529084 h 0.390283 z"
               style="font-style:normal;font-variant:normal;font-weight:800;font-stretch:normal;font-family:'Open Sans';-inkscape-font-specification:'Open Sans Ultra-Bold'"
               id="path854"
               inkscape:connector-curvature="0" />
            <path
               d="M 73.009929,5.6209741 H 72.12078 V 4.1233522 h 0.889149 v 0.3247237 h -0.484525 v 0.235604 h 0.448672 v 0.3247238 h -0.448672 v 0.2827248 h 0.484525 z"
               style="font-style:normal;font-variant:normal;font-weight:800;font-stretch:normal;font-family:'Open Sans';-inkscape-font-specification:'Open Sans Ultra-Bold'"
               id="path856"
               inkscape:connector-curvature="0" />
            <path
               d="M 73.67679,5.0760118 V 5.6209741 H 73.272166 V 4.1233522 h 0.490671 q 0.610522,0 0.610522,0.4425257 0,0.2601888 -0.254043,0.4025755 l 0.43638,0.6525207 H 74.09678 L 73.779227,5.0760118 Z m 0,-0.3042365 h 0.0758 q 0.212044,0 0.212044,-0.1874588 0,-0.1546792 -0.207946,-0.1546792 h -0.0799 z"
               style="font-style:normal;font-variant:normal;font-weight:800;font-stretch:normal;font-family:'Open Sans';-inkscape-font-specification:'Open Sans Ultra-Bold'"
               id="path858"
               inkscape:connector-curvature="0" />
            <path
               d="M 75.583134,5.6209741 H 74.693985 V 4.1233522 h 0.889149 v 0.3247237 h -0.484525 v 0.235604 h 0.448672 v 0.3247238 h -0.448672 v 0.2827248 h 0.484525 z"
               style="font-style:normal;font-variant:normal;font-weight:800;font-stretch:normal;font-family:'Open Sans';-inkscape-font-specification:'Open Sans Ultra-Bold'"
               id="path860"
               inkscape:connector-curvature="0" />
            <path
               d="m 77.116608,4.8404078 q 0,0.3749176 -0.206922,0.577742 -0.205897,0.2028243 -0.57979,0.2028243 H 75.845371 V 4.1233522 H 76.3637 q 0.360576,0 0.55623,0.1843857 0.196678,0.1843857 0.196678,0.5326699 z m -0.41999,0.014341 q 0,-0.2058974 -0.08195,-0.3052608 -0.08093,-0.099363 -0.246872,-0.099363 h -0.117802 v 0.8389551 h 0.09014 q 0.184386,0 0.270433,-0.1065339 0.08605,-0.1075584 0.08605,-0.3277969 z"
               style="font-style:normal;font-variant:normal;font-weight:800;font-stretch:normal;font-family:'Open Sans';-inkscape-font-specification:'Open Sans Ultra-Bold'"
               id="path862"
               inkscape:connector-curvature="0" />
            <path
               d="m 77.930978,4.1233522 h 0.522427 q 0.305261,0 0.452769,0.091168 0.148533,0.090144 0.148533,0.2817004 0,0.1259969 -0.06453,0.2151167 -0.06454,0.08912 -0.170045,0.1147289 v 0.010244 q 0.139314,0.036877 0.2018,0.1229238 0.06249,0.086047 0.06249,0.2233117 0,0.2038486 -0.153655,0.3216506 -0.15263,0.1167777 -0.416917,0.1167777 h -0.582864 z m 0.404625,0.5746688 h 0.121899 q 0.08707,0 0.134192,-0.035853 0.04814,-0.035853 0.04814,-0.1065339 0,-0.125997 -0.190532,-0.125997 h -0.113704 z m 0,0.2960416 v 0.3144801 h 0.142387 q 0.189507,0 0.189507,-0.159801 0,-0.074779 -0.05122,-0.1147289 -0.05019,-0.03995 -0.146484,-0.03995 z"
               style="font-style:normal;font-variant:normal;font-weight:800;font-stretch:normal;font-family:'Open Sans';-inkscape-font-specification:'Open Sans Ultra-Bold'"
               id="path864"
               inkscape:connector-curvature="0" />
            <path
               d="m 79.879321,4.6785581 0.25814,-0.5552059 h 0.438428 L 80.08317,5.0360615 V 5.6209741 H 79.675472 V 5.0483539 L 79.182753,4.1233522 h 0.440477 z"
               style="font-style:normal;font-variant:normal;font-weight:800;font-stretch:normal;font-family:'Open Sans';-inkscape-font-specification:'Open Sans Ultra-Bold'"
               id="path866"
               inkscape:connector-curvature="0" />
          </g>
        </g>
      </g>
    </g>
  </g>
</svg>
