<?xml version="1.0" encoding="UTF-8" standalone="no"?>
<!-- Created with Inkscape (http://www.inkscape.org/) -->

<svg
   xmlns:dc="http://purl.org/dc/elements/1.1/"
   xmlns:cc="http://creativecommons.org/ns#"
   xmlns:rdf="http://www.w3.org/1999/02/22-rdf-syntax-ns#"
   xmlns:svg="http://www.w3.org/2000/svg"
   xmlns="http://www.w3.org/2000/svg"
   xmlns:sodipodi="http://sodipodi.sourceforge.net/DTD/sodipodi-0.dtd"
   xmlns:inkscape="http://www.inkscape.org/namespaces/inkscape"
   width="70.181778"
   height="40.395214"
   viewBox="0 0 18.568929 10.6879"
   version="1.1"
   id="svg8"
   inkscape:version="0.92.3 (2405546, 2018-03-11)"
   sodipodi:docname="white.svg"
   inkscape:export-filename="/home/anxhelo/works/phpList/Buttons/Export/PNG/white.png"
   inkscape:export-xdpi="96"
   inkscape:export-ydpi="96">
  <defs
     id="defs2" />
  <sodipodi:namedview
     id="base"
     pagecolor="#ffffff"
     bordercolor="#666666"
     borderopacity="1.0"
     inkscape:pageopacity="0"
     inkscape:pageshadow="2"
     inkscape:zoom="4"
     inkscape:cx="-19.239306"
     inkscape:cy="43.972566"
     inkscape:document-units="px"
     inkscape:current-layer="layer1"
     inkscape:document-rotation="0"
     showgrid="false"
     borderlayer="true"
     inkscape:showpageshadow="true"
     units="px"
     inkscape:pagecheckerboard="false"
     showguides="true"
     inkscape:window-width="1366"
     inkscape:window-height="715"
     inkscape:window-x="0"
     inkscape:window-y="0"
     inkscape:window-maximized="1"
     objecttolerance="10"
     guidetolerance="10"
     inkscape:snap-tangential="true"
     inkscape:snap-perpendicular="true"
     fit-margin-top="0"
     fit-margin-left="0"
     fit-margin-right="0"
     fit-margin-bottom="0">
    <inkscape:grid
       type="xygrid"
       id="grid10"
       dotted="false"
       originx="-120.26541"
       originy="-74.332797" />
  </sodipodi:namedview>
  <metadata
     id="metadata5">
    <rdf:RDF>
      <cc:Work
         rdf:about="">
        <dc:format>image/svg+xml</dc:format>
        <dc:type
           rdf:resource="http://purl.org/dc/dcmitype/StillImage" />
        <dc:title></dc:title>
        <cc:license
           rdf:resource="" />
      </cc:Work>
    </rdf:RDF>
  </metadata>
  <g
     inkscape:label="Layer 1"
     inkscape:groupmode="layer"
     id="layer1"
     transform="translate(-120.26541,-211.97931)">
    <g
       id="g3013"
       transform="matrix(4.0776325,0,0,4.0776325,-327.43984,-631.25313)">
      <path
         style="fill:#ffffff;stroke-width:0.26458332"
         inkscape:connector-curvature="0"
         class="st0"
         d="m 114.02872,209.38926 h -3.91583 c -0.15875,0 -0.3175,-0.1323 -0.3175,-0.3175 v -1.95792 c 0,-0.15875 0.13229,-0.3175 0.3175,-0.3175 h 3.91583 c 0.15875,0 0.3175,0.13229 0.3175,0.3175 v 1.95792 c 0,0.1852 -0.15875,0.3175 -0.3175,0.3175 z"
         id="path1069" />
      <g
         transform="matrix(0.26458333,0,0,0.26458333,90.507269,201.29301)"
         id="g1075">
        <g
           id="g1073">
          <path
             d="m 88.9,21.1 c 0.5,0 1,0.4 1,1 v 7.4 c 0,0.5 -0.4,1 -1,1 H 74.1 c -0.5,0 -1,-0.4 -1,-1 v -7.4 c 0,-0.5 0.4,-1 1,-1 h 14.8 m 0,-0.2 H 74.1 c -0.6,0 -1.2,0.5 -1.2,1.2 v 7.4 c 0,0.6 0.5,1.2 1.2,1.2 h 14.8 c 0.6,0 1.2,-0.5 1.2,-1.2 v -7.4 c 0,-0.7 -0.6,-1.2 -1.2,-1.2 z"
             id="path1071"
             inkscape:connector-curvature="0" />
        </g>
      </g>
      <g
         id="g1099"
         transform="matrix(0.26458333,0,0,0.26458333,90.490009,201.15999)">
        <g
           id="g1097">
          <g
             id="text1077"
             style="font-size:2.09789991px;font-family:OpenSans-Semibold"
             transform="translate(74.3342,23.9809)"
             aria-label="POWERED BY">
            <path
               inkscape:connector-curvature="0"
               id="path1124"
               style="font-style:normal;font-variant:normal;font-weight:600;font-stretch:normal;font-family:'Open Sans';-inkscape-font-specification:'Open Sans Semi-Bold'"
               d="m 1.189288,-1.0448525 q 0,0.23457963 -0.1536548,0.35955219 -0.15365477,0.12497255 -0.43740393,0.12497255 H 0.44252576 V 0 H 0.19770248 v -1.4976219 h 0.43125775 q 0.28067606,0 0.41998977,0.1147289 0.140338,0.1147289 0.140338,0.3380405 z m -0.74676224,0.27862734 h 0.13009438 q 0.1884832,0 0.2765786,-0.0655594 0.0880954,-0.0655594 0.0880954,-0.20487304 0,-0.12907 -0.0788761,-0.1925806 -0.0788761,-0.063511 -0.24584765,-0.063511 H 0.44252576 Z" />
            <path
               inkscape:connector-curvature="0"
               id="path1126"
               style="font-style:normal;font-variant:normal;font-weight:600;font-stretch:normal;font-family:'Open Sans';-inkscape-font-specification:'Open Sans Semi-Bold'"
               d="m 2.8180287,-0.75085969 q 0,0.36569838 -0.1833614,0.56852269 -0.182337,0.2028243 -0.5173044,0.2028243 -0.3390649,0 -0.5214019,-0.20077557 -0.1813126,-0.20179995 -0.1813126,-0.57262015 0,-0.37082018 0.182337,-0.56954708 0.1833614,-0.1987268 0.5224262,-0.1987268 0.3339431,0 0.5162801,0.2017999 0.182337,0.2018 0.182337,0.56852271 z m -1.1431916,0 q 0,0.27657861 0.1116559,0.41998973 0.1116558,0.14238676 0.3308699,0.14238676 0.2181898,0 0.3288212,-0.14136239 0.1116558,-0.1413624 0.1116558,-0.4210141 0,-0.27555421 -0.1106314,-0.41794101 -0.1096071,-0.1423867 -0.3277969,-0.1423867 -0.2202385,0 -0.3329186,0.1423867 -0.1116559,0.1423868 -0.1116559,0.41794101 z" />
            <path
               inkscape:connector-curvature="0"
               id="path1128"
               style="font-style:normal;font-variant:normal;font-weight:600;font-stretch:normal;font-family:'Open Sans';-inkscape-font-specification:'Open Sans Semi-Bold'"
               d="M 4.5215482,0 H 4.2552132 L 4.0011706,-0.89324645 q -0.01639,-0.0583888 -0.040975,-0.16799585 -0.024585,-0.1106315 -0.029707,-0.1536548 -0.010244,0.065559 -0.033804,0.1700446 -0.022536,0.10448525 -0.037901,0.15570351 L 3.6108875,0 H 3.3445525 L 3.1509475,-0.74983532 2.9542694,-1.4976219 h 0.2499451 l 0.2140923,0.87275913 q 0.050194,0.20999487 0.071706,0.3708202 0.011268,-0.087071 0.033804,-0.19462938 0.022536,-0.10755835 0.040975,-0.17414209 L 3.80859,-1.4976219 h 0.2427745 l 0.2499451,0.87890532 q 0.035853,0.12189946 0.075803,0.36467401 0.015365,-0.14648422 0.073754,-0.37286893 l 0.2130679,-0.8707104 h 0.2478964 z" />
            <path
               inkscape:connector-curvature="0"
               id="path1130"
               style="font-style:normal;font-variant:normal;font-weight:600;font-stretch:normal;font-family:'Open Sans';-inkscape-font-specification:'Open Sans Semi-Bold'"
               d="m 5.9700005,0 h -0.84715 v -1.4976219 h 0.84715 v 0.2069218 H 5.3676738 v 0.4076973 H 5.932099 v 0.20487304 H 5.3676738 v 0.47018363 h 0.6023267 z" />
            <path
               inkscape:connector-curvature="0"
               id="path1132"
               style="font-style:normal;font-variant:normal;font-weight:600;font-stretch:normal;font-family:'Open Sans';-inkscape-font-specification:'Open Sans Semi-Bold'"
               d="M 6.5395473,-0.80105358 H 6.709592 q 0.171069,0 0.2478963,-0.0635106 0.076827,-0.0635106 0.076827,-0.18848322 0,-0.1270213 -0.082973,-0.182337 -0.082974,-0.055316 -0.2499452,-0.055316 H 6.5395473 Z m 0,0.20282431 V 0 H 6.2947241 v -1.4976219 h 0.4230628 q 0.2898953,0 0.429209,0.1085827 0.1393137,0.1085827 0.1393137,0.3277969 0,0.27965166 -0.2909197,0.39847802 L 7.4184527,0 H 7.1398253 L 6.7812975,-0.59822927 Z" />
            <path
               inkscape:connector-curvature="0"
               id="path1134"
               style="font-style:normal;font-variant:normal;font-weight:600;font-stretch:normal;font-family:'Open Sans';-inkscape-font-specification:'Open Sans Semi-Bold'"
               d="M 8.4817441,0 H 7.634594 v -1.4976219 h 0.8471501 v 0.2069218 H 7.8794173 v 0.4076973 h 0.5644252 v 0.20487304 H 7.8794173 v 0.47018363 h 0.6023268 z" />
            <path
               inkscape:connector-curvature="0"
               id="path1136"
               style="font-style:normal;font-variant:normal;font-weight:600;font-stretch:normal;font-family:'Open Sans';-inkscape-font-specification:'Open Sans Semi-Bold'"
               d="m 10.024437,-0.76315207 q 0,0.3708202 -0.2058971,0.56749832 Q 9.6126425,0 9.2254325,0 H 8.8064671 v -1.4976219 h 0.4630131 q 0.3575034,0 0.5562303,0.1925806 0.1987265,0.1925807 0.1987265,0.54188923 z m -0.2581397,0.008195 q 0,-0.53779173 -0.5029633,-0.53779173 H 9.0512904 v 1.08685148 h 0.1741421 q 0.5408648,0 0.5408648,-0.54905975 z" />
            <path
               inkscape:connector-curvature="0"
               id="path1138"
               style="font-style:normal;font-variant:normal;font-weight:600;font-stretch:normal;font-family:'Open Sans';-inkscape-font-specification:'Open Sans Semi-Bold'"
               d="m 10.892075,-1.4976219 h 0.444574 q 0.309358,0 0.446623,0.090144 0.13829,0.090144 0.13829,0.2847735 0,0.13111879 -0.06761,0.21818984 -0.06761,0.087071 -0.19463,0.10960707 v 0.0102436 q 0.157752,0.0297066 0.231507,0.117802 0.07478,0.087071 0.07478,0.23662836 0,0.20179994 -0.141362,0.31652884 Q 11.683909,0 11.432939,0 h -0.540864 z m 0.244823,0.61871657 h 0.235604 q 0.153655,0 0.224336,-0.0481452 0.07068,-0.0491695 0.07068,-0.16594717 0,-0.1055096 -0.07683,-0.1526304 -0.0758,-0.047121 -0.24175,-0.047121 h -0.212044 z m 0,0.19872684 v 0.47428109 h 0.260189 q 0.153654,0 0.231506,-0.0583888 0.07888,-0.0594132 0.07888,-0.18643446 0,-0.11677764 -0.0799,-0.17311772 -0.0799,-0.0563401 -0.242775,-0.0563401 z" />
            <path
               inkscape:connector-curvature="0"
               id="path1140"
               style="font-style:normal;font-variant:normal;font-weight:600;font-stretch:normal;font-family:'Open Sans';-inkscape-font-specification:'Open Sans Semi-Bold'"
               d="m 12.70008,-0.81437033 0.35443,-0.68325157 h 0.266335 l -0.498866,0.91680684 V 0 H 12.576131 V -0.57262014 L 12.079314,-1.4976219 h 0.266335 z" />
          </g>
          <g
             id="g1095"
             transform="matrix(0.16925259,0,0,0.16925259,164.359,336.76934)">
            <path
               id="path1079"
               inkscape:connector-curvature="0"
               d="m -497.3,-1827 c 1.5,0 2.4,1.5 2.4,3.2 0,1.7 -0.9,3.3 -2.4,3.3 -3.5,0 -3.5,-6.5 0,-6.5 z m -2.5,-1.1 h -1.6 v 12 h 1.6 v -4 c 0.7,0.7 1.4,1.1 2.5,1.1 2.6,0 4,-2.4 4,-4.7 0,-2.3 -1.4,-4.6 -4,-4.6 -1,0 -1.8,0.4 -2.5,1.2 z" />
            <path
               id="path1081"
               inkscape:connector-curvature="0"
               d="m -490,-1831.9 h -1.6 v 12.4 h 1.6 v -5.3 c 0,-1.5 1,-2.4 2.5,-2.4 1.3,0 1.8,1.1 1.8,2.4 v 5.3 h 1.6 v -5.3 c 0,-2 -0.8,-3.8 -3.3,-3.8 -1,0 -1.9,0.3 -2.5,1.4 -0.1,0.1 -0.1,-4.7 -0.1,-4.7 z" />
            <path
               id="path1083"
               inkscape:connector-curvature="0"
               d="m -478.2,-1827 c 1.5,0 2.4,1.5 2.4,3.2 0,1.7 -0.9,3.3 -2.4,3.3 -3.5,0 -3.5,-6.5 0,-6.5 z m -2.5,-1.1 h -1.6 v 12 h 1.6 v -4 c 0.7,0.7 1.4,1.1 2.5,1.1 2.6,0 4,-2.4 4,-4.7 0,-2.3 -1.4,-4.6 -4,-4.6 -1,0 -1.8,0.4 -2.5,1.2 z" />
            <path
               id="path1085"
               inkscape:connector-curvature="0"
               d="m -464.3,-1819.5 v -1.5 h -6.3 v -11 h -1.6 v 12.4 z" />
            <path
               id="path1087"
               inkscape:connector-curvature="0"
               d="m -461.3,-1819.5 v -8.8 h -1.6 v 8.8 z m 0,-10.7 v -1.7 h -1.7 v 1.7 z" />
            <path
               id="path1089"
               inkscape:connector-curvature="0"
               d="m -456.1,-1819.2 c 1.7,0 3.6,-0.8 3.6,-2.8 0,-1.8 -1.6,-2.3 -2.9,-2.7 -0.3,-0.1 -0.7,-0.2 -1,-0.2 -0.3,-0.1 -0.6,-0.2 -0.8,-0.3 -0.5,-0.2 -0.7,-0.4 -0.7,-0.8 0,-0.8 0.8,-1.1 1.7,-1.1 0.9,0 1.9,0.4 1.9,1.9 h 1.6 c 0,-2.5 -1.8,-3.2 -3.5,-3.2 -1.6,0 -3.3,0.5 -3.3,2.5 0,2.2 2.3,2.3 3.9,2.7 0.3,0.1 0.6,0.2 0.8,0.3 0.4,0.2 0.7,0.5 0.7,0.9 0,0.9 -1,1.4 -2,1.4 -1,0 -1.8,-0.6 -1.9,-1.9 h -1.6 c -0.1,2.2 1.7,3.3 3.5,3.3 z" />
            <path
               id="path1091"
               inkscape:connector-curvature="0"
               d="m -447.7,-1819.2 c 0.4,0 0.8,-0.1 1.3,-0.2 v -1.3 c -0.5,0 -0.6,0.1 -0.8,0.1 -0.2,0 -0.3,0 -0.5,0 -0.8,0 -0.8,-0.8 -0.8,-1.4 v -4.9 h 2.1 v -1.3 h -2.1 v -2.3 h -1.6 v 2.3 h -1.7 v 1.3 h 1.7 v 4.9 c 0.1,1.7 0.2,2.8 2.4,2.8 z" />
            <path
               id="path1093"
               inkscape:connector-curvature="0"
               d="m -519.5,-1837.4 c -4.3,0 -8.4,2.1 -10.9,5.5 l 8.8,8.7 3.2,-3.2 -1.8,-1.8 v 0 c -0.4,-0.6 -0.6,-1.2 -0.6,-1.9 0,-1.9 1.5,-3.3 3.4,-3.3 1.9,0 3.4,1.5 3.4,3.3 0,0.8 -0.3,1.5 -0.8,2.1 v 0 l -1.6,1.6 8.7,8.6 c 1.1,-2 1.7,-4.2 1.7,-6.5 -0.1,-7.2 -6.1,-13.1 -13.5,-13.1 z m 2,5.3 c -1.2,0 -2.1,0.9 -2.1,2.1 0,0.4 0.1,0.8 0.3,1.1 l 1.8,1.7 1.6,-1.6 c 0.3,-0.4 0.5,-0.8 0.5,-1.3 0,-1.1 -1,-2 -2.1,-2 z m -13.7,1.4 c -1.2,2 -1.8,4.2 -1.8,6.5 0,7.3 6,13.2 13.4,13.2 v 0 c 4.4,0 8.5,-2.1 11,-5.6 l -9,-8.7 -3.2,3.2 1.7,1.7 c 0.5,0.6 0.7,1.3 0.7,2 0,1.9 -1.5,3.3 -3.4,3.3 -1.9,0 -3.4,-1.5 -3.4,-3.3 0,-0.6 0.2,-1.2 0.5,-1.7 v -0.1 l 2,-1.9 z m 9.5,9.4 -1.9,1.8 c -0.2,0.3 -0.3,0.6 -0.3,1 0,1.1 1,2.1 2.1,2.1 1.2,0 2.1,-0.9 2.1,-2.1 0,-0.4 -0.1,-0.8 -0.4,-1.2 z" />
          </g>
        </g>
      </g>
    </g>
  </g>
</svg>
