<?xml version="1.0" encoding="UTF-8" standalone="no"?>
<!-- Created with Inkscape (http://www.inkscape.org/) -->

<svg
   xmlns:dc="http://purl.org/dc/elements/1.1/"
   xmlns:cc="http://creativecommons.org/ns#"
   xmlns:rdf="http://www.w3.org/1999/02/22-rdf-syntax-ns#"
   xmlns:svg="http://www.w3.org/2000/svg"
   xmlns="http://www.w3.org/2000/svg"
   xmlns:sodipodi="http://sodipodi.sourceforge.net/DTD/sodipodi-0.dtd"
   xmlns:inkscape="http://www.inkscape.org/namespaces/inkscape"
   width="504.58292"
   height="504.30661"
   viewBox="0 0 133.50423 133.43111"
   version="1.1"
   id="svg8"
   inkscape:version="0.92.3 (2405546, 2018-03-11)"
   sodipodi:docname="black.svg"
   inkscape:export-filename="/home/anxhelo/Desktop/RUST LATAM Assets/PNG/Icon/black.png"
   inkscape:export-xdpi="96"
   inkscape:export-ydpi="96">
  <defs
     id="defs2" />
  <sodipodi:namedview
     id="base"
     pagecolor="#ffffff"
     bordercolor="#666666"
     borderopacity="1.0"
     inkscape:pageopacity="0"
     inkscape:pageshadow="2"
     inkscape:zoom="0.52467208"
     inkscape:cx="77.382286"
     inkscape:cy="113.98853"
     inkscape:document-units="px"
     inkscape:current-layer="layer1"
     inkscape:document-rotation="0"
     showgrid="false"
     borderlayer="true"
     inkscape:showpageshadow="true"
     units="px"
     inkscape:pagecheckerboard="false"
     showguides="true"
     inkscape:window-width="1366"
     inkscape:window-height="715"
     inkscape:window-x="0"
     inkscape:window-y="0"
     inkscape:window-maximized="1"
     objecttolerance="10"
     guidetolerance="10"
     inkscape:snap-tangential="true"
     inkscape:snap-perpendicular="true"
     fit-margin-top="0"
     fit-margin-left="0"
     fit-margin-right="0"
     fit-margin-bottom="0">
    <inkscape:grid
       type="xygrid"
       id="grid10"
       dotted="false"
       originx="-186.91486"
       originy="-61.982498" />
  </sodipodi:namedview>
  <metadata
     id="metadata5">
    <rdf:RDF>
      <cc:Work
         rdf:about="">
        <dc:format>image/svg+xml</dc:format>
        <dc:type
           rdf:resource="http://purl.org/dc/dcmitype/StillImage" />
        <dc:title></dc:title>
        <cc:license
           rdf:resource="" />
      </cc:Work>
    </rdf:RDF>
  </metadata>
  <g
     inkscape:label="Layer 1"
     inkscape:groupmode="layer"
     id="layer1"
     transform="translate(-186.91483,-101.58638)">
    <g
       transform="matrix(1.077409,0,0,1.077409,1410.7916,-71.768732)"
       id="g1684"
       style="fill:#000000">
      <path
         class="st8"
         d="m -1012.3,221.9 c -0.1,-0.2 -0.3,-0.4 -0.6,-0.6 l -5.3,-3.3 c 0,-0.5 -0.1,-0.9 -0.1,-1.4 l 4.5,-4.2 c 0.7,-0.7 0.8,-1.8 0.1,-2.5 -0.2,-0.2 -0.4,-0.4 -0.7,-0.5 l -5.8,-2.2 c -0.1,-0.5 -0.3,-0.9 -0.4,-1.4 l 3.6,-5 c 0.6,-0.8 0.4,-1.9 -0.4,-2.5 -0.2,-0.2 -0.5,-0.3 -0.8,-0.3 l -6.1,-1 c -0.2,-0.4 -0.4,-0.8 -0.7,-1.2 l 2.6,-5.7 c 0.4,-0.9 0,-1.9 -0.9,-2.4 -0.3,-0.1 -0.5,-0.2 -0.8,-0.2 l -6.2,0.2 c -0.3,-0.4 -0.6,-0.7 -0.9,-1.1 l 1.4,-6.1 c 0.2,-1 -0.4,-1.9 -1.3,-2.1 -0.3,-0.1 -0.5,-0.1 -0.8,0 l -6.1,1.4 c -0.4,-0.3 -0.7,-0.6 -1.1,-0.9 l 0.2,-6.2 c 0,-1 -0.7,-1.8 -1.7,-1.8 -0.3,0 -0.6,0 -0.8,0.2 l -5.7,2.6 c -0.4,-0.2 -0.8,-0.4 -1.2,-0.7 l -1,-6.1 c -0.2,-1 -1.1,-1.6 -2,-1.5 -0.3,0 -0.5,0.2 -0.8,0.3 l -5,3.6 c -0.5,-0.1 -0.9,-0.3 -1.4,-0.4 l -2.2,-5.8 c -0.3,-0.9 -1.4,-1.4 -2.3,-1 -0.3,0.1 -0.5,0.3 -0.7,0.5 l -4.2,4.5 c -0.5,-0.1 -0.9,-0.1 -1.4,-0.1 l -3.3,-5.3 c -0.3,-0.5 -0.9,-0.8 -1.5,-0.8 -0.6,0 -1.2,0.3 -1.5,0.8 l -3.3,5.3 c -0.5,0 -0.9,0.1 -1.4,0.1 l -4.2,-4.5 c -0.7,-0.7 -1.8,-0.8 -2.5,-0.1 -0.2,0.2 -0.4,0.4 -0.4,0.7 l -2.2,5.8 c -0.5,0.1 -0.9,0.3 -1.4,0.4 l -5,-3.6 c -0.8,-0.6 -1.9,-0.4 -2.5,0.4 -0.2,0.2 -0.3,0.5 -0.3,0.7 l -1,6.1 c -0.4,0.2 -0.8,0.4 -1.2,0.7 l -5.7,-2.6 c -0.9,-0.4 -1.9,0 -2.4,0.9 -0.1,0.3 -0.2,0.5 -0.2,0.8 l 0.2,6.2 c -0.4,0.3 -0.7,0.6 -1.1,0.9 l -6.1,-1.4 c -1,-0.2 -1.9,0.4 -2.1,1.3 -0.1,0.3 -0.1,0.5 0,0.8 l 1.4,6.1 c -0.3,0.4 -0.6,0.7 -0.9,1.1 l -6.2,-0.2 c -1,0 -1.8,0.7 -1.8,1.7 0,0.3 0,0.6 0.2,0.8 l 2.6,5.7 c -0.2,0.4 -0.4,0.8 -0.7,1.2 l -6.1,1 c -1,0.2 -1.6,1.1 -1.5,2 0,0.3 0.2,0.5 0.3,0.8 l 3.6,5 c -0.1,0.5 -0.3,0.9 -0.4,1.4 l -5.8,2.2 c -0.9,0.3 -1.4,1.4 -1,2.3 0.1,0.3 0.3,0.5 0.5,0.7 l 4.5,4.2 c -0.1,0.5 -0.1,0.9 -0.1,1.4 l -5.3,3.3 c -0.8,0.5 -1.1,1.6 -0.6,2.4 0.1,0.2 0.3,0.4 0.6,0.6 l 5.3,3.3 c 0,0.5 0.1,0.9 0.1,1.4 l -4.5,4.2 c -0.7,0.7 -0.8,1.8 -0.1,2.5 0.2,0.2 0.4,0.4 0.7,0.4 l 5.8,2.2 c 0.1,0.5 0.3,0.9 0.4,1.4 l -3.6,5 c -0.6,0.8 -0.4,1.9 0.4,2.5 0.2,0.2 0.5,0.3 0.7,0.3 l 6.1,1 c 0.2,0.4 0.4,0.8 0.7,1.2 l -2.6,5.7 c -0.4,0.9 0,1.9 0.9,2.4 0.3,0.1 0.5,0.2 0.8,0.2 l 6.2,-0.2 c 0.3,0.4 0.6,0.7 0.9,1.1 l -1.4,6.1 c -0.2,1 0.4,1.9 1.3,2.1 0.3,0.1 0.5,0.1 0.8,0 l 6.1,-1.4 c 0.4,0.3 0.7,0.6 1.1,0.9 l -0.2,6.2 c 0,1 0.7,1.8 1.7,1.8 0.3,0 0.5,0 0.8,-0.2 l 5.7,-2.6 c 0.4,0.2 0.8,0.4 1.2,0.7 l 1,6.1 c 0.2,1 1.1,1.6 2,1.5 0.3,0 0.5,-0.2 0.7,-0.3 l 5,-3.6 c 0.5,0.1 0.9,0.3 1.4,0.4 l 2.2,5.8 c 0.3,0.9 1.4,1.4 2.3,1 0.3,-0.1 0.5,-0.2 0.7,-0.4 l 4.2,-4.5 c 0.5,0.1 0.9,0.1 1.4,0.1 l 3.3,5.3 c 0.5,0.8 1.6,1.1 2.4,0.6 0.2,-0.1 0.4,-0.3 0.6,-0.6 l 3.3,-5.3 c 0.5,0 0.9,-0.1 1.4,-0.1 l 4.2,4.5 c 0.7,0.7 1.8,0.8 2.5,0.1 0.2,-0.2 0.4,-0.4 0.5,-0.7 l 2.2,-5.8 c 0.5,-0.1 0.9,-0.3 1.4,-0.4 l 5,3.6 c 0.8,0.6 1.9,0.4 2.5,-0.4 0.2,-0.2 0.3,-0.5 0.3,-0.8 l 1,-6.1 c 0.4,-0.2 0.8,-0.4 1.2,-0.7 l 5.7,2.6 c 0.9,0.4 1.9,0 2.4,-0.9 0.1,-0.3 0.2,-0.5 0.2,-0.8 l -0.2,-6.2 c 0.4,-0.3 0.7,-0.6 1.1,-0.9 l 6.1,1.4 c 1,0.2 1.9,-0.4 2.1,-1.3 0.1,-0.3 0.1,-0.5 0,-0.8 l -1.4,-6.1 c 0.3,-0.4 0.6,-0.7 0.9,-1.1 l 6.2,0.2 c 1,0 1.8,-0.7 1.8,-1.7 0,-0.3 0,-0.5 -0.2,-0.8 l -2.6,-5.7 c 0.2,-0.4 0.4,-0.8 0.7,-1.2 l 6.1,-1 c 1,-0.2 1.6,-1.1 1.5,-2 0,-0.3 -0.2,-0.5 -0.3,-0.7 l -3.6,-5 c 0.1,-0.5 0.3,-0.9 0.4,-1.4 l 5.8,-2.2 c 0.9,-0.3 1.4,-1.4 1,-2.3 -0.1,-0.3 -0.2,-0.5 -0.4,-0.7 l -4.5,-4.2 c 0.1,-0.5 0.1,-0.9 0.1,-1.4 l 5.3,-3.3 c 0.9,-0.5 1.1,-1.6 0.6,-2.4 z m -16.4,3.9 h -4.7 c -0.5,0 -0.7,0.3 -0.7,0.8 v 2.1 c 0,5 -2.8,6.1 -5.3,6.4 -2.4,0.3 -5,-1 -5.3,-2.4 -1.4,-7.8 -3.7,-9.5 -7.4,-12.4 4.6,-2.9 9.3,-7.2 9.3,-12.9 0,-6.2 -4.2,-10.1 -7.1,-12 -4,-2.7 -8.5,-3.2 -9.7,-3.2 h -48.1 c 6.6,-7.4 15.6,-12.5 25.3,-14.3 l 5.7,5.9 c 1.3,1.3 3.4,1.4 4.7,0.1 l 6.3,-6 c 13.1,2.5 24.4,10.5 31,22.1 l -4.3,9.8 c -0.7,1.7 0,3.7 1.7,4.4 l 8.4,3.7 c 0.4,2.6 0.4,5.3 0.2,7.9 z m -20.7,26.7 c -1.8,-0.4 -3.6,0.8 -4,2.6 l -1.8,8.6 c -12,5.4 -25.8,5.4 -37.8,-0.2 l -1.8,-8.6 c -0.4,-1.8 -2.2,-3 -4,-2.6 l -7.6,1.6 c -1.4,-1.5 -2.7,-3 -3.9,-4.6 h 37 c 0.4,0 0.7,-0.1 0.7,-0.5 v -13.1 c 0,-0.4 -0.3,-0.5 -0.7,-0.5 h -10.8 v -8.3 h 11.7 c 1.1,0 5.7,0.3 7.2,6.3 0.5,1.8 1.5,7.8 2.2,9.7 0.7,2.1 3.5,6.4 6.5,6.4 h 19.1 c -1.3,1.7 -2.7,3.3 -4.2,4.9 z m 6.3,8.3 c 0,2 -1.6,3.7 -3.7,3.7 -2,0 -3.7,-1.6 -3.7,-3.7 0,-2 1.6,-3.7 3.7,-3.7 0,0 0.1,0 0.1,0 2,0.1 3.6,1.7 3.6,3.7 z m -54.6,-0.1 c 0,2 -1.6,3.7 -3.7,3.7 -2,0 -3.7,-1.6 -3.7,-3.7 0,-2 1.6,-3.7 3.7,-3.7 0,0 0.1,0 0.1,0 2.1,0 3.7,1.7 3.6,3.7 z m -19.8,-25.9 c -1.6,-5.6 -2.1,-11.5 -1.5,-17.3 l 7.9,-3.5 c 1.7,-0.8 2.5,-2.7 1.7,-4.4 l -1.6,-3.7 h 6.4 v 28.9 z m -0.5,-29.7 c 0,0 0.1,0 0.1,0 2,0.1 3.6,1.7 3.6,3.7 0,2 -1.6,3.7 -3.7,3.7 -2,0 -3.7,-1.6 -3.7,-3.7 0.1,-2 1.7,-3.7 3.7,-3.7 z m 33.8,9.6 v -8.5 h 15.3 c 0.8,0 5.6,0.9 5.6,4.5 0,3 -3.7,4 -6.7,4 z m 6.5,-39.2 c 0,-2 1.6,-3.7 3.7,-3.7 0,0 0.1,0 0.1,0 2,0.1 3.6,1.7 3.6,3.7 0,2 -1.6,3.7 -3.7,3.7 -2.1,0 -3.7,-1.7 -3.7,-3.7 z m 47.5,37.2 c -2,0 -3.7,-1.6 -3.7,-3.7 0,-2 1.6,-3.7 3.7,-3.7 0,0 0.1,0 0.1,0 2,0.1 3.6,1.7 3.6,3.7 0,2 -1.6,3.7 -3.7,3.7 z m -83.8,50.1 c 0,0 0.1,0 0.1,0 z"
         id="path1682"
         inkscape:connector-curvature="0"
         style="fill:#000000" />
    </g>
  </g>
</svg>
