<?xml version="1.0" encoding="UTF-8" standalone="no"?>
<!-- Created with Inkscape (http://www.inkscape.org/) -->

<svg
   xmlns:dc="http://purl.org/dc/elements/1.1/"
   xmlns:cc="http://creativecommons.org/ns#"
   xmlns:rdf="http://www.w3.org/1999/02/22-rdf-syntax-ns#"
   xmlns:svg="http://www.w3.org/2000/svg"
   xmlns="http://www.w3.org/2000/svg"
   xmlns:sodipodi="http://sodipodi.sourceforge.net/DTD/sodipodi-0.dtd"
   xmlns:inkscape="http://www.inkscape.org/namespaces/inkscape"
   width="125.61531mm"
   height="125.61531mm"
   viewBox="0 0 125.61531 125.61531"
   version="1.1"
   id="svg4530"
   inkscape:version="0.92.1 r"
   sodipodi:docname="icon white.svg">
  <defs
     id="defs4524" />
  <sodipodi:namedview
     id="base"
     pagecolor="#ffffff"
     bordercolor="#666666"
     borderopacity="1.0"
     inkscape:pageopacity="0.0"
     inkscape:pageshadow="2"
     inkscape:zoom="0.98994949"
     inkscape:cx="-9.6011031"
     inkscape:cy="304.82309"
     inkscape:document-units="mm"
     inkscape:current-layer="layer1"
     showgrid="false"
     fit-margin-top="0"
     fit-margin-left="0"
     fit-margin-right="0"
     fit-margin-bottom="0"
     inkscape:window-width="1366"
     inkscape:window-height="744"
     inkscape:window-x="0"
     inkscape:window-y="0"
     inkscape:window-maximized="1"
     showguides="false" />
  <metadata
     id="metadata4527">
    <rdf:RDF>
      <cc:Work
         rdf:about="">
        <dc:format>image/svg+xml</dc:format>
        <dc:type
           rdf:resource="http://purl.org/dc/dcmitype/StillImage" />
        <dc:title></dc:title>
      </cc:Work>
    </rdf:RDF>
  </metadata>
  <g
     inkscape:label="Layer 1"
     inkscape:groupmode="layer"
     id="layer1"
     transform="translate(64.319557,-82.245917)">
    <g
       transform="matrix(1.4458984,0,0,1.4458984,-156.72221,47.90297)"
       id="g5325">
      <g
         id="g4602"
         transform="matrix(0.26458333,0,0,0.26458333,63.90674,23.751978)">
        <path
           style="fill:#ffffff;stroke-width:1.44589841"
           d="M 237.38281 0 A 237.38326 237.38326 0 0 0 0 237.38281 A 237.38326 237.38326 0 0 0 210.08594 473.03711 C 209.54265 470.32861 209.08421 467.8601 208.76562 466.71094 C 207.40648 461.76886 206.35938 415.30078 206.35938 415.30078 C 206.35937 415.30078 175.61726 385.79836 169.06445 352.93164 C 162.50152 320.06782 173.41602 246.10547 173.41602 246.10547 C 173.41602 246.10547 189.33135 262.0196 196.69531 267.83789 C 190.71652 259.65266 177.83008 228.40625 177.83008 228.40625 C 177.83008 228.40625 194.41044 140.42727 238.74023 62.246094 C 246.06516 49.328438 278.32518 27.836668 283.57812 29.792969 C 287.85943 31.387795 297.45117 41.689453 297.45117 41.689453 C 297.45117 41.689453 300.67535 51.775677 297.40039 63.3125 C 304.49541 88.984426 307.80664 145.82422 307.80664 145.82422 C 307.80664 145.82422 301.56882 161.71028 279.99023 193.89453 C 292.49581 190.43883 299.97852 171.36523 299.97852 171.36523 L 279.52148 322.99219 C 279.52148 322.99219 261.18345 355.33413 233.96875 387.6543 C 252.54131 388.18783 273.72656 346.90234 273.72656 346.90234 C 273.72656 346.90234 263.05205 379.46087 257.03711 389.07031 C 250.53201 399.46198 227.91181 420.85403 221.33008 422.68164 C 219.7367 424.142 219.52154 438.41666 216.69336 470.36523 C 216.5845 471.59095 216.47301 472.68014 216.36133 473.71484 A 237.38326 237.38326 0 0 0 237.38281 474.76562 A 237.38326 237.38326 0 0 0 474.76562 237.38281 A 237.38326 237.38326 0 0 0 237.38281 0 z M 216.36133 473.71484 A 237.38326 237.38326 0 0 1 214.82812 473.63672 C 215.33747 473.68446 215.84328 473.74614 216.35352 473.79102 C 216.35606 473.76754 216.35879 473.73838 216.36133 473.71484 z M 214.82812 473.63672 C 214.06123 473.56483 213.29602 473.48524 212.53125 473.40625 A 237.38326 237.38326 0 0 0 214.82812 473.63672 z M 212.53125 473.40625 A 237.38326 237.38326 0 0 1 210.08594 473.03711 C 210.09498 473.08217 210.10224 473.11691 210.11133 473.16211 C 210.91458 473.25404 211.72547 473.32303 212.53125 473.40625 z M 274.8457 59.402344 C 256.89198 100.85191 212.70829 305.09326 211.42578 333.78711 C 210.32401 358.49896 216.7193 388.47299 217.87891 394.01367 C 217.21379 387.65895 219.88064 349.59014 220.23633 334.89258 C 220.60214 319.55593 274.8457 59.402344 274.8457 59.402344 z M 217.87891 394.01367 C 217.90204 394.29418 217.93471 394.53705 217.98242 394.68164 C 218.11544 395.18915 218.0582 394.91013 217.87891 394.01367 z "
           transform="scale(0.69161154)"
           id="circle4600" />
      </g>
      <g
         id="g4612"
         transform="matrix(0.26458333,0,0,0.26458333,63.90674,23.751978)">
        <g
           id="g4606">
          <path
             style="fill:#f8ed33"
             inkscape:connector-curvature="0"
             d="m 150.689,272.503 c 0.016,0.194 0.038,0.362 0.071,0.463 0.092,0.351 0.053,0.158 -0.071,-0.463 z"
             id="path4604" />
        </g>
        <g
           id="g4610" />
      </g>
    </g>
  </g>
</svg>
