<?xml version="1.0" encoding="UTF-8" standalone="no"?>
<!-- Created with Inkscape (http://www.inkscape.org/) -->

<svg
   xmlns:dc="http://purl.org/dc/elements/1.1/"
   xmlns:cc="http://creativecommons.org/ns#"
   xmlns:rdf="http://www.w3.org/1999/02/22-rdf-syntax-ns#"
   xmlns:svg="http://www.w3.org/2000/svg"
   xmlns="http://www.w3.org/2000/svg"
   xmlns:sodipodi="http://sodipodi.sourceforge.net/DTD/sodipodi-0.dtd"
   xmlns:inkscape="http://www.inkscape.org/namespaces/inkscape"
   width="263.48187mm"
   height="86.876999mm"
   viewBox="0 0 263.48187 86.876998"
   version="1.1"
   id="svg4530"
   inkscape:version="0.92.1 r"
   sodipodi:docname="standard horizontal.svg">
  <defs
     id="defs4524" />
  <sodipodi:namedview
     id="base"
     pagecolor="#ffffff"
     bordercolor="#666666"
     borderopacity="1.0"
     inkscape:pageopacity="0.0"
     inkscape:pageshadow="2"
     inkscape:zoom="0.35"
     inkscape:cx="232.4446"
     inkscape:cy="581.56024"
     inkscape:document-units="mm"
     inkscape:current-layer="layer1"
     showgrid="false"
     fit-margin-top="0"
     fit-margin-left="0"
     fit-margin-right="0"
     fit-margin-bottom="0"
     inkscape:window-width="1366"
     inkscape:window-height="744"
     inkscape:window-x="0"
     inkscape:window-y="0"
     inkscape:window-maximized="1" />
  <metadata
     id="metadata4527">
    <rdf:RDF>
      <cc:Work
         rdf:about="">
        <dc:format>image/svg+xml</dc:format>
        <dc:type
           rdf:resource="http://purl.org/dc/dcmitype/StillImage" />
        <dc:title></dc:title>
      </cc:Work>
    </rdf:RDF>
  </metadata>
  <g
     inkscape:label="Layer 1"
     inkscape:groupmode="layer"
     id="layer1"
     transform="translate(81.911682,-215.82749)">
    <g
       id="g4602"
       transform="matrix(0.26458333,0,0,0.26458333,-81.911682,215.82749)">
      <circle
         style="fill:#f8ed33"
         cx="164.177"
         cy="164.177"
         r="164.177"
         id="circle4600" />
    </g>
    <g
       id="g4612"
       transform="matrix(0.26458333,0,0,0.26458333,-81.911682,215.82749)">
      <g
         id="g4606">
        <path
           style="fill:#f8ed33"
           inkscape:connector-curvature="0"
           d="m 150.689,272.503 c 0.016,0.194 0.038,0.362 0.071,0.463 0.092,0.351 0.053,0.158 -0.071,-0.463 z"
           id="path4604" />
      </g>
      <g
         id="g4610">
        <path
           inkscape:connector-curvature="0"
           d="m 153.074,292.331 c 4.552,-1.264 20.197,-16.059 24.696,-23.246 4.16,-6.646 11.542,-29.163 11.542,-29.163 0,0 -14.652,28.553 -27.497,28.184 18.822,-22.353 31.505,-44.721 31.505,-44.721 l 14.148,-104.867 c 0,0 -5.175,13.192 -13.824,15.582 14.924,-22.259 19.238,-33.246 19.238,-33.246 0,0 -2.289,-39.312 -7.196,-57.067 2.265,-7.979 0.034,-14.954 0.034,-14.954 0,0 -6.633,-7.125 -9.594,-8.228 -3.633,-1.353 -25.944,13.511 -31.01,22.445 -30.659,54.071 -42.127,114.919 -42.127,114.919 0,0 8.913,21.61 13.048,27.271 -5.093,-4.024 -16.1,-15.031 -16.1,-15.031 0,0 -7.549,51.153 -3.01,73.882 4.532,22.731 25.793,43.136 25.793,43.136 0,0 0.725,32.137 1.665,35.555 0.224,0.808 0.547,2.553 0.931,4.463 1.433,0.164 2.872,0.307 4.316,0.434 0.079,-0.73 0.158,-1.502 0.235,-2.369 1.956,-22.096 2.105,-31.969 3.207,-32.979 z m -6.849,-61.48 c 0.887,-19.845 31.445,-161.101 43.862,-189.768 0,0 -37.516,179.925 -37.769,190.532 -0.246,10.165 -2.09,36.494 -1.63,40.889 0.124,0.62 0.163,0.814 0.071,0.463 -0.033,-0.1 -0.055,-0.269 -0.071,-0.463 -0.802,-3.832 -5.225,-24.562 -4.463,-41.653 z"
           id="path4608" />
      </g>
    </g>
    <g
       id="g4620"
       style="fill:#000000"
       transform="matrix(0.26458333,0,0,0.26458333,-81.911682,215.82749)">
      <path
         inkscape:connector-curvature="0"
         d="m 445.259,233.396 c -32.478,0 -56.705,-11.713 -71.88,-26.622 l 22.629,-24.759 c 13.311,11.98 29.284,18.635 47.388,18.635 18.103,0 29.018,-8.519 29.018,-22.362 0,-13.311 -6.922,-19.435 -32.479,-27.421 -42.33,-13.311 -56.705,-30.083 -56.705,-57.504 0,-34.076 30.615,-53.777 67.887,-53.777 27.687,0 47.92,8.519 64.159,23.96 l -20.765,23.96 C 481.998,77.123 468.954,72.065 454.844,72.065 c -15.974,0 -25.824,6.389 -25.824,17.837 0,11.714 6.123,16.24 34.609,25.291 34.875,11.447 54.841,25.823 54.841,59.634 0,34.61 -27.42,58.569 -73.211,58.569 z"
         id="path4614"
         style="fill:#000000" />
      <path
         inkscape:connector-curvature="0"
         d="m 586.098,75.793 v 48.453 h 53.776 v 31.68 h -53.776 v 72.945 H 541.905 V 44.379 h 110.482 l -4.525,31.414 z"
         id="path4616"
         style="fill:#000000" />
      <path
         inkscape:connector-curvature="0"
         d="M 716.286,228.87 H 672.093 V 44.379 h 44.193 z m 1.597,-98.502 58.036,-85.99 h 46.588 L 763.939,127.173 827.3,228.87 h -50.849 z"
         id="path4618"
         style="fill:#000000" />
    </g>
    <g
       id="g4626"
       style="fill:#000000"
       transform="matrix(0.26458333,0,0,0.26458333,-81.911682,215.82749)">
      <path
         inkscape:connector-curvature="0"
         d="M 894.138,134.347 V 65.395 l -19.035,11.581 -9.451,-14.11 30.349,-18.503 h 18.902 v 89.983 h -20.765 z"
         id="path4622"
         style="fill:#000000" />
      <path
         inkscape:connector-curvature="0"
         d="m 980.662,61.402 c -3.594,-2.529 -7.853,-3.727 -11.847,-3.727 -9.85,0 -16.373,8.785 -17.571,24.359 5.591,-5.724 12.646,-8.253 19.168,-8.253 14.377,0 25.425,10.649 25.425,29.817 0,18.236 -12.513,33.012 -32.613,33.012 -23.827,0 -34.21,-17.437 -34.21,-43.527 0,-30.216 15.042,-50.582 39.268,-50.582 8.386,0 15.308,2.396 20.366,5.99 z m -29.418,33.943 c 0.133,18.768 3.461,26.089 12.113,26.089 7.454,0 11.048,-7.055 11.048,-17.57 0,-11.581 -3.727,-15.441 -10.116,-15.441 -4.658,0 -9.317,2.529 -13.045,6.922 z"
         id="path4624"
         style="fill:#000000" />
    </g>
    <g
       id="g4630"
       style="fill:#000000"
       transform="matrix(0.26458333,0,0,0.26458333,-81.911682,215.82749)">
      <polygon
         points="853.248,78.005 836.303,78.005 833.313,45.086 856.239,45.086 "
         id="polygon4628"
         style="fill:#000000" />
    </g>
    <g
       id="g4666"
       style="fill:#000000"
       transform="matrix(0.26458333,0,0,0.26458333,-81.911682,215.82749)">
      <path
         inkscape:connector-curvature="0"
         d="m 377.551,273.762 0.621,-0.622 h 13.045 c 1.698,0 3.302,0.332 4.814,0.994 1.511,0.663 2.826,1.553 3.945,2.671 1.119,1.118 2.009,2.434 2.672,3.945 0.662,1.512 0.994,3.116 0.994,4.814 0,1.698 -0.332,3.303 -0.994,4.814 -0.663,1.512 -1.553,2.826 -2.672,3.945 -1.118,1.118 -2.433,2.009 -3.945,2.671 -1.512,0.663 -3.117,0.994 -4.814,0.994 H 381.9 v 14.288 l -0.622,0.622 h -3.106 l -0.621,-0.622 z m 13.666,19.878 c 1.077,0 2.101,-0.218 3.076,-0.652 0.973,-0.435 1.832,-1.015 2.578,-1.74 0.745,-0.723 1.335,-1.573 1.77,-2.547 0.435,-0.973 0.652,-2.019 0.652,-3.137 0,-1.077 -0.218,-2.101 -0.652,-3.075 -0.435,-0.973 -1.025,-1.832 -1.77,-2.578 -0.746,-0.745 -1.606,-1.335 -2.578,-1.77 -0.974,-0.435 -1.999,-0.652 -3.076,-0.652 H 381.9 v 16.151 z"
         id="path4632"
         style="fill:#000000" />
      <path
         inkscape:connector-curvature="0"
         d="m 435.323,312.276 -0.622,0.622 h -3.727 l -8.697,-14.909 h -8.697 v 14.288 l -0.622,0.622 h -3.106 l -0.621,-0.622 v -38.514 l 0.621,-0.622 h 13.045 c 1.698,0 3.302,0.332 4.814,0.994 1.511,0.663 2.826,1.553 3.945,2.671 1.119,1.118 2.009,2.434 2.672,3.945 0.662,1.512 0.994,3.116 0.994,4.814 0,1.366 -0.208,2.661 -0.622,3.883 -0.414,1.222 -0.994,2.34 -1.739,3.354 -0.746,1.015 -1.637,1.916 -2.672,2.702 -1.035,0.787 -2.154,1.388 -3.354,1.801 l 8.387,13.729 v 1.242 z M 422.899,293.64 c 1.077,0 2.101,-0.218 3.075,-0.652 0.973,-0.435 1.832,-1.015 2.578,-1.74 0.745,-0.723 1.335,-1.573 1.77,-2.547 0.435,-0.973 0.652,-2.019 0.652,-3.137 0,-1.077 -0.218,-2.101 -0.652,-3.075 -0.435,-0.973 -1.025,-1.832 -1.77,-2.578 -0.746,-0.745 -1.606,-1.335 -2.578,-1.77 -0.974,-0.435 -1.999,-0.652 -3.075,-0.652 h -9.318 v 16.151 z"
         id="path4634"
         style="fill:#000000" />
      <path
         inkscape:connector-curvature="0"
         d="m 443.399,312.276 v -38.514 l 0.621,-0.622 h 22.364 l 0.622,0.622 v 3.105 l -0.622,0.622 h -18.636 v 13.045 h 16.151 l 0.621,0.622 v 3.106 l -0.621,0.621 h -16.151 v 13.667 h 18.636 l 0.622,0.622 v 3.105 l -0.622,0.622 H 444.02 Z"
         id="path4636"
         style="fill:#000000" />
      <path
         inkscape:connector-curvature="0"
         d="m 488.125,308.55 c 0.91,0 1.78,-0.176 2.61,-0.528 0.828,-0.352 1.553,-0.838 2.174,-1.46 0.621,-0.621 1.118,-1.345 1.491,-2.174 0.373,-0.828 0.559,-1.718 0.559,-2.671 0,-1.532 -0.332,-2.723 -0.994,-3.572 -0.663,-0.848 -1.533,-1.47 -2.61,-1.864 -1.077,-0.393 -2.298,-0.652 -3.665,-0.776 -1.367,-0.124 -2.775,-0.258 -4.224,-0.404 -1.45,-0.145 -2.858,-0.362 -4.224,-0.652 -1.366,-0.29 -2.589,-0.808 -3.665,-1.553 -1.078,-0.745 -1.947,-1.801 -2.61,-3.168 -0.663,-1.366 -0.994,-3.168 -0.994,-5.405 0,-1.531 0.32,-2.981 0.963,-4.348 0.641,-1.366 1.491,-2.557 2.547,-3.571 1.056,-1.015 2.246,-1.812 3.572,-2.392 1.325,-0.579 2.692,-0.87 4.1,-0.87 h 3.106 c 1.863,0 3.675,0.208 5.435,0.622 1.76,0.414 3.262,1.242 4.504,2.485 l 1.242,1.242 v 0.622 l -2.485,2.485 h -0.622 c -0.332,-0.289 -0.674,-0.622 -1.025,-0.994 -0.353,-0.372 -0.818,-0.714 -1.398,-1.025 -0.581,-0.311 -1.315,-0.569 -2.206,-0.777 -0.891,-0.206 -2.04,-0.31 -3.447,-0.31 h -3.106 c -0.953,0 -1.843,0.186 -2.672,0.559 -0.828,0.372 -1.553,0.869 -2.174,1.491 -0.621,0.622 -1.108,1.347 -1.46,2.174 -0.352,0.829 -0.528,1.698 -0.528,2.609 0,1.575 0.331,2.775 0.994,3.604 0.662,0.828 1.532,1.45 2.61,1.863 1.076,0.415 2.298,0.674 3.665,0.777 1.367,0.103 2.774,0.228 4.224,0.372 1.449,0.146 2.858,0.363 4.224,0.652 1.366,0.29 2.588,0.808 3.665,1.553 1.077,0.745 1.947,1.801 2.61,3.168 0.662,1.366 0.994,3.168 0.994,5.405 0,1.574 -0.321,3.034 -0.963,4.379 -0.642,1.347 -1.491,2.527 -2.547,3.541 -1.056,1.015 -2.247,1.812 -3.572,2.392 -1.326,0.581 -2.692,0.87 -4.1,0.87 h -4.348 c -1.863,0 -3.676,-0.207 -5.435,-0.622 -1.761,-0.413 -3.262,-1.242 -4.504,-2.485 l -1.242,-1.242 v -0.622 l 2.485,-2.485 h 0.622 c 0.289,0.332 0.621,0.674 0.994,1.025 0.372,0.352 0.848,0.683 1.429,0.993 0.579,0.311 1.314,0.57 2.206,0.777 0.89,0.208 2.039,0.31 3.447,0.31 z"
         id="path4638"
         style="fill:#000000" />
      <path
         inkscape:connector-curvature="0"
         d="m 506.761,312.276 v -38.514 l 0.621,-0.622 h 22.364 l 0.622,0.622 v 3.105 l -0.622,0.622 H 511.11 v 13.045 h 16.151 l 0.621,0.622 v 3.106 l -0.621,0.621 H 511.11 v 13.667 h 18.636 l 0.622,0.622 v 3.105 l -0.622,0.622 h -22.364 z"
         id="path4640"
         style="fill:#000000" />
      <path
         inkscape:connector-curvature="0"
         d="m 562.671,273.762 0.621,-0.622 h 3.106 l 0.622,0.622 v 38.514 l -0.622,0.622 h -3.727 l -20.5,-31.681 h -0.622 l 0.622,10.56 v 20.5 l -0.622,0.622 h -3.106 l -0.621,-0.622 v -38.514 l 0.621,-0.622 h 3.728 l 20.5,31.681 h 0.621 l -0.621,-10.56 z"
         id="path4642"
         style="fill:#000000" />
      <path
         inkscape:connector-curvature="0"
         d="m 588.14,312.898 h -3.106 l -0.621,-0.622 v -34.788 h -11.182 l -0.621,-0.622 v -3.105 l 0.621,-0.622 h 26.712 l 0.622,0.622 v 3.105 l -0.622,0.622 h -11.182 v 34.788 z"
         id="path4644"
         style="fill:#000000" />
      <path
         inkscape:connector-curvature="0"
         d="m 606.154,312.276 v -38.514 l 0.621,-0.622 h 22.364 l 0.622,0.622 v 3.105 l -0.622,0.622 h -18.636 v 13.045 h 16.151 l 0.621,0.622 v 3.106 l -0.621,0.621 h -16.151 v 13.667 h 18.636 l 0.622,0.622 v 3.105 l -0.622,0.622 h -22.364 z"
         id="path4646"
         style="fill:#000000" />
      <path
         inkscape:connector-curvature="0"
         d="m 649.018,273.14 c 2.029,0 3.945,0.394 5.746,1.18 1.802,0.787 3.386,1.864 4.752,3.23 1.367,1.366 2.443,2.951 3.23,4.752 0.786,1.802 1.18,3.718 1.18,5.746 v 9.939 c 0,2.029 -0.394,3.945 -1.18,5.746 -0.787,1.802 -1.863,3.386 -3.23,4.752 -1.366,1.366 -2.951,2.444 -4.752,3.23 -1.801,0.787 -3.717,1.18 -5.746,1.18 h -11.182 l -0.621,-0.622 v -38.514 l 0.621,-0.622 h 11.182 z m -7.455,35.41 h 7.455 c 1.531,0 2.951,-0.289 4.255,-0.87 1.304,-0.579 2.423,-1.356 3.354,-2.33 0.932,-0.973 1.656,-2.091 2.174,-3.354 0.517,-1.262 0.776,-2.598 0.776,-4.007 v -9.939 c 0,-1.408 -0.259,-2.743 -0.776,-4.007 -0.518,-1.263 -1.242,-2.381 -2.174,-3.354 -0.932,-0.973 -2.05,-1.75 -3.354,-2.33 -1.304,-0.579 -2.724,-0.87 -4.255,-0.87 h -7.455 z"
         id="path4648"
         style="fill:#000000" />
      <path
         inkscape:connector-curvature="0"
         d="m 714.244,301.717 c 0,1.532 -0.29,2.981 -0.869,4.348 -0.581,1.366 -1.378,2.557 -2.392,3.571 -1.016,1.015 -2.206,1.812 -3.572,2.392 -1.366,0.581 -2.816,0.87 -4.348,0.87 h -14.909 l -0.621,-0.622 v -38.514 l 0.621,-0.622 h 14.288 c 1.449,0 2.816,0.28 4.1,0.838 1.284,0.559 2.402,1.315 3.354,2.268 0.953,0.953 1.709,2.072 2.268,3.354 0.559,1.284 0.838,2.651 0.838,4.1 0,1.615 -0.341,3.128 -1.025,4.535 -0.684,1.409 -1.606,2.589 -2.764,3.541 1.531,1.036 2.754,2.361 3.665,3.976 0.91,1.616 1.366,3.397 1.366,5.342 z m -11.803,-11.804 c 1.74,0 3.21,-0.6 4.411,-1.802 1.2,-1.201 1.801,-2.672 1.801,-4.411 0,-1.74 -0.601,-3.209 -1.801,-4.411 -1.202,-1.201 -2.672,-1.802 -4.411,-1.802 h -10.56 v 12.425 h 10.56 z m 0.621,18.637 c 0.953,0 1.842,-0.176 2.672,-0.528 0.828,-0.352 1.553,-0.838 2.174,-1.46 0.621,-0.621 1.107,-1.345 1.459,-2.174 0.352,-0.828 0.528,-1.718 0.528,-2.671 v -0.622 c 0,-0.952 -0.176,-1.842 -0.528,-2.671 -0.352,-0.828 -0.838,-1.553 -1.459,-2.174 -0.622,-0.622 -1.346,-1.108 -2.174,-1.46 -0.829,-0.352 -1.719,-0.528 -2.672,-0.528 h -11.181 v 14.288 z"
         id="path4650"
         style="fill:#000000" />
      <path
         inkscape:connector-curvature="0"
         d="m 731.017,299.231 -11.803,-24.227 v -1.242 l 0.621,-0.622 h 3.106 l 0.622,0.622 9.318,19.878 h 0.622 l 9.318,-19.878 0.621,-0.622 h 3.106 l 0.622,0.622 v 1.242 l -11.803,24.227 v 13.045 l -0.622,0.622 h -3.106 l -0.621,-0.622 v -13.045 z"
         id="path4652"
         style="fill:#000000" />
      <path
         inkscape:connector-curvature="0"
         d="m 769.531,312.276 v -38.514 l 0.621,-0.622 H 795 l 0.622,0.622 v 5.591 L 795,279.974 h -18.015 v 9.318 h 15.53 l 0.622,0.622 v 5.591 l -0.622,0.621 h -15.53 v 16.151 l -0.622,0.622 h -6.212 z"
         id="path4654"
         style="fill:#000000" />
      <path
         inkscape:connector-curvature="0"
         d="m 802.456,312.276 v -38.514 l 0.621,-0.622 h 6.212 l 0.622,0.622 v 32.303 h 14.908 l 0.622,0.621 v 5.591 l -0.622,0.622 h -21.742 z"
         id="path4656"
         style="fill:#000000" />
      <path
         inkscape:connector-curvature="0"
         d="m 843.082,273.14 c 2.029,0 3.945,0.394 5.746,1.18 1.802,0.787 3.386,1.864 4.752,3.23 1.366,1.366 2.443,2.951 3.23,4.752 0.786,1.802 1.18,3.718 1.18,5.746 v 9.939 c 0,2.029 -0.394,3.945 -1.18,5.746 -0.787,1.802 -1.864,3.386 -3.23,4.752 -1.366,1.366 -2.951,2.444 -4.752,3.23 -1.801,0.787 -3.718,1.18 -5.746,1.18 -2.029,0 -3.945,-0.393 -5.746,-1.18 -1.801,-0.786 -3.385,-1.864 -4.752,-3.23 -1.367,-1.366 -2.445,-2.951 -3.23,-4.752 -0.788,-1.802 -1.181,-3.717 -1.181,-5.746 v -9.939 c 0,-2.029 0.393,-3.945 1.181,-5.746 0.786,-1.802 1.863,-3.386 3.23,-4.752 1.366,-1.366 2.951,-2.443 4.752,-3.23 1.801,-0.786 3.716,-1.18 5.746,-1.18 z m 7.454,14.288 c 0,-0.91 -0.186,-1.822 -0.559,-2.733 -0.373,-0.91 -0.891,-1.708 -1.553,-2.392 -0.663,-0.684 -1.45,-1.242 -2.36,-1.678 -0.911,-0.435 -1.905,-0.652 -2.982,-0.652 -1.078,0 -2.071,0.218 -2.981,0.652 -0.912,0.435 -1.699,0.994 -2.361,1.678 -0.663,0.684 -1.18,1.481 -1.553,2.392 -0.372,0.911 -0.559,1.822 -0.559,2.733 v 11.182 c 0,0.953 0.187,1.874 0.559,2.764 0.372,0.891 0.89,1.677 1.553,2.36 0.662,0.684 1.449,1.242 2.361,1.678 0.91,0.435 1.904,0.652 2.981,0.652 1.077,0 2.071,-0.218 2.982,-0.652 0.91,-0.435 1.698,-0.994 2.36,-1.678 0.662,-0.684 1.18,-1.47 1.553,-2.36 0.372,-0.891 0.559,-1.812 0.559,-2.764 z"
         id="path4658"
         style="fill:#000000" />
      <path
         inkscape:connector-curvature="0"
         d="m 892.157,279.974 -3.727,3.728 h -1.242 c -0.332,-0.29 -0.663,-0.652 -0.994,-1.087 -0.332,-0.435 -0.776,-0.848 -1.336,-1.242 -0.559,-0.393 -1.242,-0.724 -2.05,-0.994 -0.808,-0.269 -1.832,-0.404 -3.075,-0.404 h -3.106 c -1.242,0 -2.278,0.415 -3.106,1.243 -0.829,0.828 -1.242,1.863 -1.242,3.105 0,1.451 0.517,2.496 1.553,3.138 1.035,0.642 2.34,1.14 3.914,1.491 1.573,0.353 3.271,0.694 5.094,1.025 1.822,0.332 3.519,0.901 5.093,1.708 1.573,0.808 2.879,1.988 3.914,3.541 1.035,1.553 1.553,3.718 1.553,6.492 0,1.574 -0.29,3.034 -0.869,4.379 -0.581,1.347 -1.398,2.527 -2.454,3.541 -1.056,1.015 -2.309,1.812 -3.758,2.392 -1.45,0.581 -3.023,0.87 -4.722,0.87 h -4.348 c -1.863,0 -3.676,-0.207 -5.435,-0.622 -1.761,-0.413 -3.262,-1.242 -4.504,-2.485 l -2.485,-2.485 v -1.242 l 3.727,-3.728 h 1.243 c 0.289,0.332 0.599,0.714 0.931,1.15 0.331,0.435 0.777,0.838 1.336,1.211 0.559,0.373 1.252,0.694 2.081,0.963 0.828,0.27 1.863,0.404 3.105,0.404 h 4.348 c 1.243,0 2.278,-0.414 3.106,-1.243 0.828,-0.828 1.243,-1.863 1.243,-3.105 0,-1.449 -0.519,-2.495 -1.553,-3.138 -1.035,-0.641 -2.341,-1.138 -3.914,-1.491 -1.574,-0.352 -3.272,-0.694 -5.093,-1.025 -1.823,-0.331 -3.521,-0.9 -5.094,-1.708 -1.574,-0.808 -2.879,-1.988 -3.914,-3.541 -1.035,-1.553 -1.553,-3.717 -1.553,-6.492 0,-1.531 0.289,-2.981 0.87,-4.348 0.579,-1.366 1.398,-2.557 2.453,-3.571 1.056,-1.015 2.308,-1.812 3.758,-2.392 1.449,-0.579 3.023,-0.87 4.722,-0.87 h 2.485 0.622 c 1.863,0 3.675,0.208 5.435,0.622 1.76,0.414 3.262,1.242 4.504,2.485 l 2.485,2.485 v 1.24 z"
         id="path4660"
         style="fill:#000000" />
      <path
         inkscape:connector-curvature="0"
         d="m 925.33,279.974 -3.727,3.728 h -1.242 c -0.332,-0.29 -0.663,-0.652 -0.994,-1.087 -0.332,-0.435 -0.776,-0.848 -1.336,-1.242 -0.559,-0.393 -1.242,-0.724 -2.05,-0.994 -0.808,-0.269 -1.832,-0.404 -3.075,-0.404 H 909.8 c -1.242,0 -2.279,0.415 -3.106,1.243 -0.829,0.828 -1.242,1.863 -1.242,3.105 0,1.451 0.517,2.496 1.553,3.138 1.035,0.642 2.34,1.14 3.914,1.491 1.573,0.353 3.271,0.694 5.094,1.025 1.822,0.332 3.519,0.901 5.093,1.708 1.573,0.808 2.879,1.988 3.914,3.541 1.035,1.553 1.553,3.718 1.553,6.492 0,1.574 -0.29,3.034 -0.869,4.379 -0.581,1.347 -1.398,2.527 -2.454,3.541 -1.056,1.015 -2.309,1.812 -3.758,2.392 -1.45,0.581 -3.023,0.87 -4.722,0.87 h -4.348 c -1.863,0 -3.676,-0.207 -5.435,-0.622 -1.761,-0.413 -3.262,-1.242 -4.504,-2.485 l -2.485,-2.485 v -1.242 l 3.727,-3.728 h 1.243 c 0.289,0.332 0.599,0.714 0.931,1.15 0.331,0.435 0.777,0.838 1.336,1.211 0.559,0.373 1.252,0.694 2.081,0.963 0.828,0.27 1.863,0.404 3.105,0.404 h 4.348 c 1.243,0 2.278,-0.414 3.106,-1.243 0.828,-0.828 1.243,-1.863 1.243,-3.105 0,-1.449 -0.519,-2.495 -1.553,-3.138 -1.035,-0.641 -2.341,-1.138 -3.914,-1.491 -1.574,-0.352 -3.272,-0.694 -5.093,-1.025 -1.823,-0.331 -3.521,-0.9 -5.094,-1.708 -1.574,-0.808 -2.879,-1.988 -3.914,-3.541 -1.035,-1.553 -1.553,-3.717 -1.553,-6.492 0,-1.531 0.289,-2.981 0.87,-4.348 0.579,-1.366 1.398,-2.557 2.453,-3.571 1.056,-1.015 2.308,-1.812 3.758,-2.392 1.449,-0.579 3.023,-0.87 4.722,-0.87 h 2.485 0.622 c 1.863,0 3.675,0.208 5.435,0.622 1.76,0.414 3.262,1.242 4.504,2.485 l 2.485,2.485 v 1.24 z"
         id="path4662"
         style="fill:#000000" />
      <path
         inkscape:connector-curvature="0"
         d="m 951.421,292.398 v 1.242 l 13.045,17.394 v 1.242 l -0.622,0.622 h -6.833 l -0.622,-0.622 -11.182,-15.53 h -3.727 v 15.53 l -0.622,0.622 h -6.212 l -0.621,-0.622 v -38.514 l 0.621,-0.622 h 6.212 l 0.622,0.622 v 15.53 h 3.665 l 11.244,-15.53 0.622,-0.622 h 6.833 l 0.622,0.622 v 1.242 z"
         id="path4664"
         style="fill:#000000" />
    </g>
  </g>
</svg>
