<?xml version="1.0" encoding="UTF-8" standalone="no"?>
<!-- Created with Inkscape (http://www.inkscape.org/) -->

<svg
   xmlns:dc="http://purl.org/dc/elements/1.1/"
   xmlns:cc="http://creativecommons.org/ns#"
   xmlns:rdf="http://www.w3.org/1999/02/22-rdf-syntax-ns#"
   xmlns:svg="http://www.w3.org/2000/svg"
   xmlns="http://www.w3.org/2000/svg"
   xmlns:sodipodi="http://sodipodi.sourceforge.net/DTD/sodipodi-0.dtd"
   xmlns:inkscape="http://www.inkscape.org/namespaces/inkscape"
   width="132.03058mm"
   height="125.24307mm"
   viewBox="0 0 132.03058 125.24307"
   version="1.1"
   id="svg8"
   inkscape:version="0.92.1 r"
   sodipodi:docname="white vertical.svg">
  <defs
     id="defs2" />
  <sodipodi:namedview
     id="base"
     pagecolor="#ffffff"
     bordercolor="#666666"
     borderopacity="1.0"
     inkscape:pageopacity="0.0"
     inkscape:pageshadow="2"
     inkscape:zoom="0.98994949"
     inkscape:cx="70.79614"
     inkscape:cy="335.65467"
     inkscape:document-units="mm"
     inkscape:current-layer="layer1"
     showgrid="false"
     fit-margin-top="0"
     fit-margin-left="0"
     fit-margin-right="0"
     fit-margin-bottom="0"
     inkscape:window-width="1366"
     inkscape:window-height="744"
     inkscape:window-x="0"
     inkscape:window-y="0"
     inkscape:window-maximized="1" />
  <metadata
     id="metadata5">
    <rdf:RDF>
      <cc:Work
         rdf:about="">
        <dc:format>image/svg+xml</dc:format>
        <dc:type
           rdf:resource="http://purl.org/dc/dcmitype/StillImage" />
        <dc:title />
      </cc:Work>
    </rdf:RDF>
  </metadata>
  <g
     inkscape:label="Layer 1"
     inkscape:groupmode="layer"
     id="layer1"
     transform="translate(-69.603492,-90.974215)">
    <g
       transform="matrix(0.80634472,0,0,0.80634472,31.467199,71.821933)"
       id="g5325">
      <g
         id="g4602"
         transform="matrix(0.26458333,0,0,0.26458333,63.90674,23.751978)">
        <path
           style="fill:#ffffff;stroke-width:0.80634469"
           d="M 183.00781 0 A 132.38326 132.38326 0 0 0 50.625 132.38281 A 132.38326 132.38326 0 0 0 167.78711 263.80273 C 167.48417 262.29246 167.22647 260.91423 167.04883 260.27344 C 166.29086 257.51735 165.70703 231.60352 165.70703 231.60352 C 165.70703 231.60352 148.56256 215.15129 144.9082 196.82227 C 141.2482 178.49486 147.33594 137.24805 147.33594 137.24805 C 147.33594 137.24805 156.21165 146.12246 160.31836 149.36719 C 156.98412 144.80247 149.79688 127.37695 149.79688 127.37695 C 149.79687 127.37695 159.0439 78.312755 183.76562 34.712891 C 187.85057 27.509007 205.84008 15.52425 208.76953 16.615234 C 211.15712 17.504633 216.50586 23.25 216.50586 23.25 C 216.50586 23.25 218.30489 28.872816 216.47852 35.306641 C 220.43525 49.623291 222.28125 81.322266 222.28125 81.322266 C 222.28125 81.322266 218.80342 90.182432 206.76953 108.13086 C 213.74361 106.2037 217.91602 95.566406 217.91602 95.566406 L 206.50781 180.125 C 206.50781 180.125 196.28054 198.16132 181.10352 216.18555 C 191.46101 216.48309 203.27539 193.45898 203.27539 193.45898 C 203.27539 193.45898 197.32314 211.61564 193.96875 216.97461 C 190.34101 222.76981 177.72517 234.69953 174.05469 235.71875 C 173.1661 236.53316 173.04596 244.49551 171.46875 262.3125 C 171.40806 262.99589 171.34547 263.60278 171.2832 264.17969 A 132.38326 132.38326 0 0 0 183.00781 264.76562 A 132.38326 132.38326 0 0 0 315.39258 132.38281 A 132.38326 132.38326 0 0 0 183.00781 0 z M 171.2832 264.17969 A 132.38326 132.38326 0 0 1 170.42969 264.13672 C 170.7136 264.16333 170.99489 264.19764 171.2793 264.22266 C 171.28073 264.20943 171.28177 264.19295 171.2832 264.17969 z M 170.42969 264.13672 C 170.00485 264.0969 169.58187 264.05349 169.1582 264.00977 A 132.38326 132.38326 0 0 0 170.42969 264.13672 z M 169.1582 264.00977 A 132.38326 132.38326 0 0 1 167.78711 263.80273 C 167.79218 263.82803 167.79568 263.84768 167.80078 263.87305 C 168.2517 263.92465 168.70586 263.96308 169.1582 264.00977 z M 203.90039 33.126953 C 193.88801 56.242437 169.24843 170.14262 168.5332 186.14453 C 167.91877 199.92577 171.48417 216.64251 172.13086 219.73242 C 171.75994 216.18854 173.24695 194.95821 173.44531 186.76172 C 173.64932 178.20882 203.90039 33.126953 203.90039 33.126953 z "
           transform="matrix(1.2401644,0,0,1.2401644,-62.783501,-2.3368754e-7)"
           id="circle4600" />
      </g>
      <g
         id="g4612"
         transform="matrix(0.26458333,0,0,0.26458333,63.90674,23.751978)">
        <g
           id="g4606">
          <path
             style="fill:#f8ed33"
             inkscape:connector-curvature="0"
             d="m 150.689,272.503 c 0.016,0.194 0.038,0.362 0.071,0.463 0.092,0.351 0.053,0.158 -0.071,-0.463 z"
             id="path4604" />
        </g>
        <g
           id="g4610" />
      </g>
    </g>
    <g
       id="g5424"
       transform="matrix(0.80634472,0,0,0.80634472,46.397701,63.288113)"
       style="fill:#ffffff">
      <g
         style="fill:#ffffff"
         id="g4620"
         transform="matrix(0.26458333,0,0,0.26458333,-70.010864,127.90462)">
        <path
           style="fill:#ffffff"
           id="path4614"
           d="m 445.259,233.396 c -32.478,0 -56.705,-11.713 -71.88,-26.622 l 22.629,-24.759 c 13.311,11.98 29.284,18.635 47.388,18.635 18.103,0 29.018,-8.519 29.018,-22.362 0,-13.311 -6.922,-19.435 -32.479,-27.421 -42.33,-13.311 -56.705,-30.083 -56.705,-57.504 0,-34.076 30.615,-53.777 67.887,-53.777 27.687,0 47.92,8.519 64.159,23.96 l -20.765,23.96 C 481.998,77.123 468.954,72.065 454.844,72.065 c -15.974,0 -25.824,6.389 -25.824,17.837 0,11.714 6.123,16.24 34.609,25.291 34.875,11.447 54.841,25.823 54.841,59.634 0,34.61 -27.42,58.569 -73.211,58.569 z"
           inkscape:connector-curvature="0" />
        <path
           style="fill:#ffffff"
           id="path4616"
           d="m 586.098,75.793 v 48.453 h 53.776 v 31.68 h -53.776 v 72.945 H 541.905 V 44.379 h 110.482 l -4.525,31.414 z"
           inkscape:connector-curvature="0" />
        <path
           style="fill:#ffffff"
           id="path4618"
           d="M 716.286,228.87 H 672.093 V 44.379 h 44.193 z m 1.597,-98.502 58.036,-85.99 h 46.588 L 763.939,127.173 827.3,228.87 h -50.849 z"
           inkscape:connector-curvature="0" />
      </g>
    </g>
    <g
       transform="matrix(0.21334538,0,0,0.21334538,-10.823158,166.42333)"
       id="g4626"
       style="fill:#ffffff">
      <path
         inkscape:connector-curvature="0"
         d="M 894.138,134.347 V 65.395 l -19.035,11.581 -9.451,-14.11 30.349,-18.503 h 18.902 v 89.983 h -20.765 z"
         id="path4622"
         style="fill:#ffffff" />
      <path
         inkscape:connector-curvature="0"
         d="m 980.662,61.402 c -3.594,-2.529 -7.853,-3.727 -11.847,-3.727 -9.85,0 -16.373,8.785 -17.571,24.359 5.591,-5.724 12.646,-8.253 19.168,-8.253 14.377,0 25.425,10.649 25.425,29.817 0,18.236 -12.513,33.012 -32.613,33.012 -23.827,0 -34.21,-17.437 -34.21,-43.527 0,-30.216 15.042,-50.582 39.268,-50.582 8.386,0 15.308,2.396 20.366,5.99 z m -29.418,33.943 c 0.133,18.768 3.461,26.089 12.113,26.089 7.454,0 11.048,-7.055 11.048,-17.57 0,-11.581 -3.727,-15.441 -10.116,-15.441 -4.658,0 -9.317,2.529 -13.045,6.922 z"
         id="path4624"
         style="fill:#ffffff" />
    </g>
    <g
       transform="matrix(0.21334538,0,0,0.21334538,-10.823158,166.42333)"
       id="g4630"
       style="fill:#ffffff">
      <polygon
         points="853.248,78.005 836.303,78.005 833.313,45.086 856.239,45.086 "
         id="polygon4628"
         style="fill:#ffffff" />
    </g>
  </g>
</svg>
