<?xml version="1.0" encoding="UTF-8" standalone="no"?>
<!-- Created with Inkscape (http://www.inkscape.org/) -->

<svg
   xmlns:dc="http://purl.org/dc/elements/1.1/"
   xmlns:cc="http://creativecommons.org/ns#"
   xmlns:rdf="http://www.w3.org/1999/02/22-rdf-syntax-ns#"
   xmlns:svg="http://www.w3.org/2000/svg"
   xmlns="http://www.w3.org/2000/svg"
   xmlns:sodipodi="http://sodipodi.sourceforge.net/DTD/sodipodi-0.dtd"
   xmlns:inkscape="http://www.inkscape.org/namespaces/inkscape"
   width="132.03058mm"
   height="125.24307mm"
   viewBox="0 0 132.03058 125.24307"
   version="1.1"
   id="svg8"
   inkscape:version="0.92.1 r"
   sodipodi:docname="white vertical.svg">
  <defs
     id="defs2" />
  <sodipodi:namedview
     id="base"
     pagecolor="#ffffff"
     bordercolor="#666666"
     borderopacity="1.0"
     inkscape:pageopacity="0.0"
     inkscape:pageshadow="2"
     inkscape:zoom="0.35"
     inkscape:cx="-340.21117"
     inkscape:cy="254.67946"
     inkscape:document-units="mm"
     inkscape:current-layer="layer1"
     showgrid="false"
     fit-margin-top="0"
     fit-margin-left="0"
     fit-margin-right="0"
     fit-margin-bottom="0"
     inkscape:window-width="1366"
     inkscape:window-height="744"
     inkscape:window-x="0"
     inkscape:window-y="0"
     inkscape:window-maximized="1" />
  <metadata
     id="metadata5">
    <rdf:RDF>
      <cc:Work
         rdf:about="">
        <dc:format>image/svg+xml</dc:format>
        <dc:type
           rdf:resource="http://purl.org/dc/dcmitype/StillImage" />
        <dc:title></dc:title>
      </cc:Work>
    </rdf:RDF>
  </metadata>
  <g
     inkscape:label="Layer 1"
     inkscape:groupmode="layer"
     id="layer1"
     transform="translate(-69.603492,-90.974215)">
    <g
       transform="matrix(0.80634472,0,0,0.80634472,31.467199,71.821933)"
       id="g5325">
      <g
         id="g4602"
         transform="matrix(0.26458333,0,0,0.26458333,63.90674,23.751978)">
        <circle
           style="fill:#f8ed33"
           cx="164.177"
           cy="164.177"
           r="164.177"
           id="circle4600" />
      </g>
      <g
         id="g4612"
         transform="matrix(0.26458333,0,0,0.26458333,63.90674,23.751978)">
        <g
           id="g4606">
          <path
             style="fill:#f8ed33"
             inkscape:connector-curvature="0"
             d="m 150.689,272.503 c 0.016,0.194 0.038,0.362 0.071,0.463 0.092,0.351 0.053,0.158 -0.071,-0.463 z"
             id="path4604" />
        </g>
        <g
           id="g4610">
          <path
             inkscape:connector-curvature="0"
             d="m 153.074,292.331 c 4.552,-1.264 20.197,-16.059 24.696,-23.246 4.16,-6.646 11.542,-29.163 11.542,-29.163 0,0 -14.652,28.553 -27.497,28.184 18.822,-22.353 31.505,-44.721 31.505,-44.721 l 14.148,-104.867 c 0,0 -5.175,13.192 -13.824,15.582 14.924,-22.259 19.238,-33.246 19.238,-33.246 0,0 -2.289,-39.312 -7.196,-57.067 2.265,-7.979 0.034,-14.954 0.034,-14.954 0,0 -6.633,-7.125 -9.594,-8.228 -3.633,-1.353 -25.944,13.511 -31.01,22.445 -30.659,54.071 -42.127,114.919 -42.127,114.919 0,0 8.913,21.61 13.048,27.271 -5.093,-4.024 -16.1,-15.031 -16.1,-15.031 0,0 -7.549,51.153 -3.01,73.882 4.532,22.731 25.793,43.136 25.793,43.136 0,0 0.725,32.137 1.665,35.555 0.224,0.808 0.547,2.553 0.931,4.463 1.433,0.164 2.872,0.307 4.316,0.434 0.079,-0.73 0.158,-1.502 0.235,-2.369 1.956,-22.096 2.105,-31.969 3.207,-32.979 z m -6.849,-61.48 c 0.887,-19.845 31.445,-161.101 43.862,-189.768 0,0 -37.516,179.925 -37.769,190.532 -0.246,10.165 -2.09,36.494 -1.63,40.889 0.124,0.62 0.163,0.814 0.071,0.463 -0.033,-0.1 -0.055,-0.269 -0.071,-0.463 -0.802,-3.832 -5.225,-24.562 -4.463,-41.653 z"
             id="path4608" />
        </g>
      </g>
    </g>
    <g
       id="g5424"
       transform="matrix(0.80634472,0,0,0.80634472,46.397701,63.288113)"
       style="fill:#ffffff">
      <g
         style="fill:#ffffff"
         id="g4620"
         transform="matrix(0.26458333,0,0,0.26458333,-70.010864,127.90462)">
        <path
           style="fill:#ffffff"
           id="path4614"
           d="m 445.259,233.396 c -32.478,0 -56.705,-11.713 -71.88,-26.622 l 22.629,-24.759 c 13.311,11.98 29.284,18.635 47.388,18.635 18.103,0 29.018,-8.519 29.018,-22.362 0,-13.311 -6.922,-19.435 -32.479,-27.421 -42.33,-13.311 -56.705,-30.083 -56.705,-57.504 0,-34.076 30.615,-53.777 67.887,-53.777 27.687,0 47.92,8.519 64.159,23.96 l -20.765,23.96 C 481.998,77.123 468.954,72.065 454.844,72.065 c -15.974,0 -25.824,6.389 -25.824,17.837 0,11.714 6.123,16.24 34.609,25.291 34.875,11.447 54.841,25.823 54.841,59.634 0,34.61 -27.42,58.569 -73.211,58.569 z"
           inkscape:connector-curvature="0" />
        <path
           style="fill:#ffffff"
           id="path4616"
           d="m 586.098,75.793 v 48.453 h 53.776 v 31.68 h -53.776 v 72.945 H 541.905 V 44.379 h 110.482 l -4.525,31.414 z"
           inkscape:connector-curvature="0" />
        <path
           style="fill:#ffffff"
           id="path4618"
           d="M 716.286,228.87 H 672.093 V 44.379 h 44.193 z m 1.597,-98.502 58.036,-85.99 h 46.588 L 763.939,127.173 827.3,228.87 h -50.849 z"
           inkscape:connector-curvature="0" />
      </g>
    </g>
    <g
       transform="matrix(0.21334538,0,0,0.21334538,-10.823158,166.42333)"
       id="g4626"
       style="fill:#ffffff">
      <path
         inkscape:connector-curvature="0"
         d="M 894.138,134.347 V 65.395 l -19.035,11.581 -9.451,-14.11 30.349,-18.503 h 18.902 v 89.983 h -20.765 z"
         id="path4622"
         style="fill:#ffffff" />
      <path
         inkscape:connector-curvature="0"
         d="m 980.662,61.402 c -3.594,-2.529 -7.853,-3.727 -11.847,-3.727 -9.85,0 -16.373,8.785 -17.571,24.359 5.591,-5.724 12.646,-8.253 19.168,-8.253 14.377,0 25.425,10.649 25.425,29.817 0,18.236 -12.513,33.012 -32.613,33.012 -23.827,0 -34.21,-17.437 -34.21,-43.527 0,-30.216 15.042,-50.582 39.268,-50.582 8.386,0 15.308,2.396 20.366,5.99 z m -29.418,33.943 c 0.133,18.768 3.461,26.089 12.113,26.089 7.454,0 11.048,-7.055 11.048,-17.57 0,-11.581 -3.727,-15.441 -10.116,-15.441 -4.658,0 -9.317,2.529 -13.045,6.922 z"
         id="path4624"
         style="fill:#ffffff" />
    </g>
    <g
       transform="matrix(0.21334538,0,0,0.21334538,-10.823158,166.42333)"
       id="g4630"
       style="fill:#ffffff">
      <polygon
         points="853.248,78.005 836.303,78.005 833.313,45.086 856.239,45.086 "
         id="polygon4628"
         style="fill:#ffffff" />
    </g>
  </g>
</svg>
