<?xml version="1.0" encoding="UTF-8" standalone="no"?>
<!-- Generator: Gravit.io -->

<svg
   xmlns:dc="http://purl.org/dc/elements/1.1/"
   xmlns:cc="http://creativecommons.org/ns#"
   xmlns:rdf="http://www.w3.org/1999/02/22-rdf-syntax-ns#"
   xmlns:svg="http://www.w3.org/2000/svg"
   xmlns="http://www.w3.org/2000/svg"
   xmlns:sodipodi="http://sodipodi.sourceforge.net/DTD/sodipodi-0.dtd"
   xmlns:inkscape="http://www.inkscape.org/namespaces/inkscape"
   style="isolation:isolate"
   viewBox="0 0 288 144"
   width="288"
   height="144"
   version="1.1"
   id="svg573"
   sodipodi:docname="Text Boxes.svg"
   inkscape:version="0.92.3 (2405546, 2018-03-11)"
   inkscape:export-filename="/home/anxhelo/Desktop/RUST LATAM Assets/PNG/Informative Texts/Text Boxes.png"
   inkscape:export-xdpi="384"
   inkscape:export-ydpi="384">
  <metadata
     id="metadata577">
    <rdf:RDF>
      <cc:Work
         rdf:about="">
        <dc:format>image/svg+xml</dc:format>
        <dc:type
           rdf:resource="http://purl.org/dc/dcmitype/StillImage" />
        <dc:title></dc:title>
      </cc:Work>
    </rdf:RDF>
  </metadata>
  <sodipodi:namedview
     pagecolor="#ffffff"
     bordercolor="#666666"
     borderopacity="1"
     objecttolerance="10"
     gridtolerance="10"
     guidetolerance="10"
     inkscape:pageopacity="0"
     inkscape:pageshadow="2"
     inkscape:window-width="1366"
     inkscape:window-height="715"
     id="namedview575"
     showgrid="false"
     inkscape:zoom="1.9722222"
     inkscape:cx="148.53245"
     inkscape:cy="84.104734"
     inkscape:window-x="0"
     inkscape:window-y="0"
     inkscape:window-maximized="1"
     inkscape:current-layer="g571" />
  <defs
     id="defs5">
    <clipPath
       id="_clipPath_ZTVxQ6b5agbJWytFFVWu4AuhgePGULkq">
      <rect
         width="288"
         height="144"
         id="rect2" />
    </clipPath>
  </defs>
  <g
     clip-path="url(#_clipPath_ZTVxQ6b5agbJWytFFVWu4AuhgePGULkq)"
     id="g571">
    <path
       d="m 0,126 v 18 h 18 z"
       id="path7"
       inkscape:connector-curvature="0"
       style="fill:#273b91" />
    <path
       d="M 18,144 V 126 H 0 Z"
       id="path9"
       inkscape:connector-curvature="0"
       style="fill:#0059a8" />
    <path
       d="m 18,126 v 18 h 18 z"
       id="path11"
       inkscape:connector-curvature="0"
       style="fill:#0059a8" />
    <path
       d="M 36,144 V 126 H 18 Z"
       id="path13"
       inkscape:connector-curvature="0"
       style="fill:#273b91" />
    <path
       d="m 0,108 v 18 h 18 z"
       id="path15"
       inkscape:connector-curvature="0"
       style="fill:#1ba591" />
    <path
       d="M 18,126 V 108 H 0 Z"
       id="path17"
       inkscape:connector-curvature="0"
       style="fill:#1eb69f" />
    <path
       d="m 18,108 v 18 h 18 z"
       id="path19"
       inkscape:connector-curvature="0"
       style="fill:#273b91" />
    <path
       d="M 36,126 V 108 H 18 Z"
       id="path21"
       inkscape:connector-curvature="0"
       style="fill:#0059a8" />
    <path
       d="m 0,90 v 18 h 18 z"
       id="path23"
       inkscape:connector-curvature="0"
       style="fill:#0059a8" />
    <path
       d="M 18,108 V 90 H 0 Z"
       id="path25"
       inkscape:connector-curvature="0"
       style="fill:#273b91" />
    <path
       d="m 18,90 v 18 h 18 z"
       id="path27"
       inkscape:connector-curvature="0"
       style="fill:#0059a8" />
    <path
       d="M 36,108 V 90 H 18 Z"
       id="path29"
       inkscape:connector-curvature="0"
       style="fill:#273b91" />
    <path
       d="M 0,72 V 90 H 18 Z"
       id="path31"
       inkscape:connector-curvature="0"
       style="fill:#d13d5c" />
    <path
       d="M 18,90 V 72 H 0 Z"
       id="path33"
       inkscape:connector-curvature="0"
       style="fill:#e74365" />
    <path
       d="M 18,72 V 90 H 36 Z"
       id="path35"
       inkscape:connector-curvature="0"
       style="fill:#fbe372" />
    <path
       d="M 36,90 V 72 H 18 Z"
       id="path37"
       inkscape:connector-curvature="0"
       style="fill:#ffc84b" />
    <path
       d="m 36,126 v 18 h 18 z"
       id="path39"
       inkscape:connector-curvature="0"
       style="fill:#273b91" />
    <path
       d="M 54,144 V 126 H 36 Z"
       id="path41"
       inkscape:connector-curvature="0"
       style="fill:#0059a8" />
    <path
       d="m 54,126 v 18 h 18 z"
       id="path43"
       inkscape:connector-curvature="0"
       style="fill:#1eb69f" />
    <path
       d="M 72,144 V 126 H 54 Z"
       id="path45"
       inkscape:connector-curvature="0"
       style="fill:#1ba591" />
    <path
       d="m 36,108 v 18 h 18 z"
       id="path47"
       inkscape:connector-curvature="0"
       style="fill:#e74365" />
    <path
       d="M 54,126 V 108 H 36 Z"
       id="path49"
       inkscape:connector-curvature="0"
       style="fill:#d13d5c" />
    <path
       d="m 54,108 v 18 h 18 z"
       id="path51"
       inkscape:connector-curvature="0"
       style="fill:#e74365" />
    <path
       d="M 72,126 V 108 H 54 Z"
       id="path53"
       inkscape:connector-curvature="0"
       style="fill:#e74365" />
    <path
       d="m 36,90 v 18 h 18 z"
       id="path55"
       inkscape:connector-curvature="0"
       style="fill:#273b91" />
    <path
       d="M 54,108 V 90 H 36 Z"
       id="path57"
       inkscape:connector-curvature="0"
       style="fill:#0059a8" />
    <path
       d="m 54,90 v 18 h 18 z"
       id="path59"
       inkscape:connector-curvature="0"
       style="fill:#fbe372" />
    <path
       d="M 72,108 V 90 H 54 Z"
       id="path61"
       inkscape:connector-curvature="0"
       style="fill:#ffc84b" />
    <path
       d="M 36,72 V 90 H 54 Z"
       id="path63"
       inkscape:connector-curvature="0"
       style="fill:#1eb69f" />
    <path
       d="M 54,90 V 72 H 36 Z"
       id="path65"
       inkscape:connector-curvature="0"
       style="fill:#1ba591" />
    <path
       d="M 54,72 V 90 H 72 Z"
       id="path67"
       inkscape:connector-curvature="0"
       style="fill:#fbe372" />
    <path
       d="M 72,90 V 72 H 54 Z"
       id="path69"
       inkscape:connector-curvature="0"
       style="fill:#ffc84b" />
    <path
       d="m 72,126 v 18 h 18 z"
       id="path71"
       inkscape:connector-curvature="0"
       style="fill:#273b91" />
    <path
       d="M 90,144 V 126 H 72 Z"
       id="path73"
       inkscape:connector-curvature="0"
       style="fill:#0059a8" />
    <path
       d="m 90,126 v 18 h 18 z"
       id="path75"
       inkscape:connector-curvature="0"
       style="fill:#fbe372" />
    <path
       d="M 108,144 V 126 H 90 Z"
       id="path77"
       inkscape:connector-curvature="0"
       style="fill:#ffc84b" />
    <path
       d="m 72,108 v 18 h 18 z"
       id="path79"
       inkscape:connector-curvature="0"
       style="fill:#1ba591" />
    <path
       d="M 90,126 V 108 H 72 Z"
       id="path81"
       inkscape:connector-curvature="0"
       style="fill:#1eb69f" />
    <path
       d="m 90,108 v 18 h 18 z"
       id="path83"
       inkscape:connector-curvature="0"
       style="fill:#273b91" />
    <path
       d="M 108,126 V 108 H 90 Z"
       id="path85"
       inkscape:connector-curvature="0"
       style="fill:#e74365" />
    <path
       d="m 72,90 v 18 h 18 z"
       id="path87"
       inkscape:connector-curvature="0"
       style="fill:#ffc84b" />
    <path
       d="M 90,108 V 90 H 72 Z"
       id="path89"
       inkscape:connector-curvature="0"
       style="fill:#fbe372" />
    <path
       d="m 90,90 v 18 h 18 z"
       id="path91"
       inkscape:connector-curvature="0"
       style="fill:#fbe372" />
    <path
       d="M 108,108 V 90 H 90 Z"
       id="path93"
       inkscape:connector-curvature="0"
       style="fill:#ffc84b" />
    <path
       d="M 72,72 V 90 H 90 Z"
       id="path95"
       inkscape:connector-curvature="0"
       style="fill:#e74365" />
    <path
       d="M 90,90 V 72 H 72 Z"
       id="path97"
       inkscape:connector-curvature="0"
       style="fill:#d13d5c" />
    <path
       d="m 90,72 v 18 h 18 z"
       id="path99"
       inkscape:connector-curvature="0"
       style="fill:#ffc84b" />
    <path
       d="M 108,90 V 72 H 90 Z"
       id="path101"
       inkscape:connector-curvature="0"
       style="fill:#fbe372" />
    <path
       d="m 108,126 v 18 h 18 z"
       id="path103"
       inkscape:connector-curvature="0"
       style="fill:#e74365" />
    <path
       d="M 126,144 V 126 H 108 Z"
       id="path105"
       inkscape:connector-curvature="0"
       style="fill:#e74365" />
    <path
       d="m 126,126 v 18 h 18 z"
       id="path107"
       inkscape:connector-curvature="0"
       style="fill:#1ba591" />
    <path
       d="M 144,144 V 126 H 126 Z"
       id="path109"
       inkscape:connector-curvature="0"
       style="fill:#1eb69f" />
    <path
       d="m 108,108 v 18 h 18 z"
       id="path111"
       inkscape:connector-curvature="0"
       style="fill:#1ba591" />
    <path
       d="M 126,126 V 108 H 108 Z"
       id="path113"
       inkscape:connector-curvature="0"
       style="fill:#1eb69f" />
    <path
       d="m 126,108 v 18 h 18 z"
       id="path115"
       inkscape:connector-curvature="0"
       style="fill:#e74365" />
    <path
       d="M 144,126 V 108 H 126 Z"
       id="path117"
       inkscape:connector-curvature="0"
       style="fill:#e74365" />
    <path
       d="m 108,90 v 18 h 18 z"
       id="path119"
       inkscape:connector-curvature="0"
       style="fill:#e74365" />
    <path
       d="M 126,108 V 90 h -18 z"
       id="path121"
       inkscape:connector-curvature="0"
       style="fill:#e74365" />
    <path
       d="m 126,90 v 18 h 18 z"
       id="path123"
       inkscape:connector-curvature="0"
       style="fill:#0059a8" />
    <path
       d="M 144,108 V 90 h -18 z"
       id="path125"
       inkscape:connector-curvature="0"
       style="fill:#273b91" />
    <path
       d="m 108,72 v 18 h 18 z"
       id="path127"
       inkscape:connector-curvature="0"
       style="fill:#d13d5c" />
    <path
       d="M 126,90 V 72 h -18 z"
       id="path129"
       inkscape:connector-curvature="0"
       style="fill:#e74365" />
    <path
       d="m 126,72 v 18 h 18 z"
       id="path131"
       inkscape:connector-curvature="0"
       style="fill:#1ba591" />
    <path
       d="M 144,90 V 72 h -18 z"
       id="path133"
       inkscape:connector-curvature="0"
       style="fill:#1eb69f" />
    <path
       d="M 0,54 V 72 H 18 Z"
       id="path135"
       inkscape:connector-curvature="0"
       style="fill:#ffc84b" />
    <path
       d="M 18,72 V 54 H 0 Z"
       id="path137"
       inkscape:connector-curvature="0"
       style="fill:#fbe372" />
    <path
       d="M 18,54 V 72 H 36 Z"
       id="path139"
       inkscape:connector-curvature="0"
       style="fill:#d13d5c" />
    <path
       d="M 36,72 V 54 H 18 Z"
       id="path141"
       inkscape:connector-curvature="0"
       style="fill:#e74365" />
    <path
       d="M 0,36 V 54 H 18 Z"
       id="path143"
       inkscape:connector-curvature="0"
       style="fill:#1eb69f" />
    <path
       d="M 18,54 V 36 H 0 Z"
       id="path145"
       inkscape:connector-curvature="0"
       style="fill:#1ba591" />
    <path
       d="M 18,36 V 54 H 36 Z"
       id="path147"
       inkscape:connector-curvature="0"
       style="fill:#fbe372" />
    <path
       d="M 36,54 V 36 H 18 Z"
       id="path149"
       inkscape:connector-curvature="0"
       style="fill:#ffc84b" />
    <path
       d="M 0,18 V 36 H 18 Z"
       id="path151"
       inkscape:connector-curvature="0"
       style="fill:#e74365" />
    <path
       d="M 18,36 V 18 H 0 Z"
       id="path153"
       inkscape:connector-curvature="0"
       style="fill:#d13d5c" />
    <path
       d="M 18,18 V 36 H 36 Z"
       id="path155"
       inkscape:connector-curvature="0"
       style="fill:#273b91" />
    <path
       d="M 36,36 V 18 H 18 Z"
       id="path157"
       inkscape:connector-curvature="0"
       style="fill:#0059a8" />
    <path
       d="M 0,0 V 18 H 18 Z"
       id="path159"
       inkscape:connector-curvature="0"
       style="fill:#fbe372" />
    <path
       d="M 18,18 V 0 H 0 Z"
       id="path161"
       inkscape:connector-curvature="0"
       style="fill:#ffc84b" />
    <path
       d="M 18,0 V 18 H 36 Z"
       id="path163"
       inkscape:connector-curvature="0"
       style="fill:#1eb69f" />
    <path
       d="M 36,18 V 0 H 18 Z"
       id="path165"
       inkscape:connector-curvature="0"
       style="fill:#1ba591" />
    <path
       d="M 36,54 V 72 H 54 Z"
       id="path167"
       inkscape:connector-curvature="0"
       style="fill:#ffc84b" />
    <path
       d="M 54,72 V 54 H 36 Z"
       id="path169"
       inkscape:connector-curvature="0"
       style="fill:#fbe372" />
    <path
       d="M 54,54 V 72 H 72 Z"
       id="path171"
       inkscape:connector-curvature="0"
       style="fill:#fbe372" />
    <path
       d="M 72,72 V 54 H 54 Z"
       id="path173"
       inkscape:connector-curvature="0"
       style="fill:#ffc84b" />
    <path
       d="M 36,36 V 54 H 54 Z"
       id="path175"
       inkscape:connector-curvature="0"
       style="fill:#1eb69f" />
    <path
       d="M 54,54 V 36 H 36 Z"
       id="path177"
       inkscape:connector-curvature="0"
       style="fill:#1ba591" />
    <path
       d="M 54,36 V 54 H 72 Z"
       id="path179"
       inkscape:connector-curvature="0"
       style="fill:#e74365" />
    <path
       d="M 72,54 V 36 H 54 Z"
       id="path181"
       inkscape:connector-curvature="0"
       style="fill:#e74365" />
    <path
       d="M 36,18 V 36 H 54 Z"
       id="path183"
       inkscape:connector-curvature="0"
       style="fill:#0059a8" />
    <path
       d="M 54,36 V 18 H 36 Z"
       id="path185"
       inkscape:connector-curvature="0"
       style="fill:#273b91" />
    <path
       d="M 54,18 V 36 H 72 Z"
       id="path187"
       inkscape:connector-curvature="0"
       style="fill:#273b91" />
    <path
       d="M 72,36 V 18 H 54 Z"
       id="path189"
       inkscape:connector-curvature="0"
       style="fill:#0059a8" />
    <path
       d="M 36,0 V 18 H 54 Z"
       id="path191"
       inkscape:connector-curvature="0"
       style="fill:#273b91" />
    <path
       d="M 54,18 V 0 H 36 Z"
       id="path193"
       inkscape:connector-curvature="0"
       style="fill:#0059a8" />
    <path
       d="M 54,0 V 18 H 72 Z"
       id="path195"
       inkscape:connector-curvature="0"
       style="fill:#d13d5c" />
    <path
       d="M 72,18 V 0 H 54 Z"
       id="path197"
       inkscape:connector-curvature="0"
       style="fill:#e74365" />
    <path
       d="M 72,54 V 72 H 90 Z"
       id="path199"
       inkscape:connector-curvature="0"
       style="fill:#1ba591" />
    <path
       d="M 90,72 V 54 H 72 Z"
       id="path201"
       inkscape:connector-curvature="0"
       style="fill:#1eb69f" />
    <path
       d="m 90,54 v 18 h 18 z"
       id="path203"
       inkscape:connector-curvature="0"
       style="fill:#1eb69f" />
    <path
       d="M 108,72 V 54 H 90 Z"
       id="path205"
       inkscape:connector-curvature="0"
       style="fill:#1ba591" />
    <path
       d="M 72,36 V 54 H 90 Z"
       id="path207"
       inkscape:connector-curvature="0"
       style="fill:#0059a8" />
    <path
       d="M 90,54 V 36 H 72 Z"
       id="path209"
       inkscape:connector-curvature="0"
       style="fill:#273b91" />
    <path
       d="m 90,36 v 18 h 18 z"
       id="path211"
       inkscape:connector-curvature="0"
       style="fill:#e74365" />
    <path
       d="M 108,54 V 36 H 90 Z"
       id="path213"
       inkscape:connector-curvature="0"
       style="fill:#e74365" />
    <path
       d="M 72,18 V 36 H 90 Z"
       id="path215"
       inkscape:connector-curvature="0"
       style="fill:#d13d5c" />
    <path
       d="M 90,36 V 18 H 72 Z"
       id="path217"
       inkscape:connector-curvature="0"
       style="fill:#e74365" />
    <path
       d="m 90,18 v 18 h 18 z"
       id="path219"
       inkscape:connector-curvature="0"
       style="fill:#1eb69f" />
    <path
       d="M 108,36 V 18 H 90 Z"
       id="path221"
       inkscape:connector-curvature="0"
       style="fill:#1ba591" />
    <path
       d="M 72,0 V 18 H 90 Z"
       id="path223"
       inkscape:connector-curvature="0"
       style="fill:#0059a8" />
    <path
       d="M 90,18 V 0 H 72 Z"
       id="path225"
       inkscape:connector-curvature="0"
       style="fill:#273b91" />
    <path
       d="m 90,0 v 18 h 18 z"
       id="path227"
       inkscape:connector-curvature="0"
       style="fill:#fbe372" />
    <path
       d="M 108,18 V 0 H 90 Z"
       id="path229"
       inkscape:connector-curvature="0"
       style="fill:#ffc84b" />
    <path
       d="m 108,54 v 18 h 18 z"
       id="path231"
       inkscape:connector-curvature="0"
       style="fill:#0059a8" />
    <path
       d="M 126,72 V 54 h -18 z"
       id="path233"
       inkscape:connector-curvature="0"
       style="fill:#273b91" />
    <path
       d="m 126,54 v 18 h 18 z"
       id="path235"
       inkscape:connector-curvature="0"
       style="fill:#e74365" />
    <path
       d="M 144,72 V 54 h -18 z"
       id="path237"
       inkscape:connector-curvature="0"
       style="fill:#e74365" />
    <path
       d="m 108,36 v 18 h 18 z"
       id="path239"
       inkscape:connector-curvature="0"
       style="fill:#ffc84b" />
    <path
       d="M 126,54 V 36 h -18 z"
       id="path241"
       inkscape:connector-curvature="0"
       style="fill:#fbe372" />
    <path
       d="m 126,36 v 18 h 18 z"
       id="path243"
       inkscape:connector-curvature="0"
       style="fill:#1eb69f" />
    <path
       d="M 144,54 V 36 h -18 z"
       id="path245"
       inkscape:connector-curvature="0"
       style="fill:#1ba591" />
    <path
       d="m 108,18 v 18 h 18 z"
       id="path247"
       inkscape:connector-curvature="0"
       style="fill:#1eb69f" />
    <path
       d="M 126,36 V 18 h -18 z"
       id="path249"
       inkscape:connector-curvature="0"
       style="fill:#1ba591" />
    <path
       d="m 126,18 v 18 h 18 z"
       id="path251"
       inkscape:connector-curvature="0"
       style="fill:#1ba591" />
    <path
       d="M 144,36 V 18 h -18 z"
       id="path253"
       inkscape:connector-curvature="0"
       style="fill:#1eb69f" />
    <path
       d="m 108,0 v 18 h 18 z"
       id="path255"
       inkscape:connector-curvature="0"
       style="fill:#d13d5c" />
    <path
       d="M 126,18 V 0 h -18 z"
       id="path257"
       inkscape:connector-curvature="0"
       style="fill:#e74365" />
    <path
       d="m 126,0 v 18 h 18 z"
       id="path259"
       inkscape:connector-curvature="0"
       style="fill:#0059a8" />
    <path
       d="M 144,18 V 0 h -18 z"
       id="path261"
       inkscape:connector-curvature="0"
       style="fill:#273b91" />
    <path
       d="m 144,126 v 18 h 18 z"
       id="path263"
       inkscape:connector-curvature="0"
       style="fill:#1eb69f" />
    <path
       d="M 162,144 V 126 H 144 Z"
       id="path265"
       inkscape:connector-curvature="0"
       style="fill:#1ba591" />
    <path
       d="m 162,126 v 18 h 18 z"
       id="path267"
       inkscape:connector-curvature="0"
       style="fill:#1ba591" />
    <path
       d="M 180,144 V 126 H 162 Z"
       id="path269"
       inkscape:connector-curvature="0"
       style="fill:#1eb69f" />
    <path
       d="m 144,108 v 18 h 18 z"
       id="path271"
       inkscape:connector-curvature="0"
       style="fill:#d13d5c" />
    <path
       d="M 162,126 V 108 H 144 Z"
       id="path273"
       inkscape:connector-curvature="0"
       style="fill:#e74365" />
    <path
       d="m 162,108 v 18 h 18 z"
       id="path275"
       inkscape:connector-curvature="0"
       style="fill:#0059a8" />
    <path
       d="M 180,126 V 108 H 162 Z"
       id="path277"
       inkscape:connector-curvature="0"
       style="fill:#273b91" />
    <path
       d="m 180,126 v 18 h 18 z"
       id="path279"
       inkscape:connector-curvature="0"
       style="fill:#273b91" />
    <path
       d="M 198,144 V 126 H 180 Z"
       id="path281"
       inkscape:connector-curvature="0"
       style="fill:#0059a8" />
    <path
       d="m 198,126 v 18 h 18 z"
       id="path283"
       inkscape:connector-curvature="0"
       style="fill:#0059a8" />
    <path
       d="M 216,144 V 126 H 198 Z"
       id="path285"
       inkscape:connector-curvature="0"
       style="fill:#273b91" />
    <path
       d="m 180,108 v 18 h 18 z"
       id="path287"
       inkscape:connector-curvature="0"
       style="fill:#1ba591" />
    <path
       d="M 198,126 V 108 H 180 Z"
       id="path289"
       inkscape:connector-curvature="0"
       style="fill:#1eb69f" />
    <path
       d="m 198,108 v 18 h 18 z"
       id="path291"
       inkscape:connector-curvature="0"
       style="fill:#273b91" />
    <path
       d="M 216,126 V 108 H 198 Z"
       id="path293"
       inkscape:connector-curvature="0"
       style="fill:#0059a8" />
    <path
       d="m 144,90 v 18 h 18 z"
       id="path295"
       inkscape:connector-curvature="0"
       style="fill:#e74365" />
    <path
       d="M 162,108 V 90 h -18 z"
       id="path297"
       inkscape:connector-curvature="0"
       style="fill:#d13d5c" />
    <path
       d="m 162,90 v 18 h 18 z"
       id="path299"
       inkscape:connector-curvature="0"
       style="fill:#273b91" />
    <path
       d="M 180,108 V 90 h -18 z"
       id="path301"
       inkscape:connector-curvature="0"
       style="fill:#0059a8" />
    <path
       d="m 144,72 v 18 h 18 z"
       id="path303"
       inkscape:connector-curvature="0"
       style="fill:#fbe372" />
    <path
       d="M 162,90 V 72 h -18 z"
       id="path305"
       inkscape:connector-curvature="0"
       style="fill:#ffc84b" />
    <path
       d="m 162,72 v 18 h 18 z"
       id="path307"
       inkscape:connector-curvature="0"
       style="fill:#1eb69f" />
    <path
       d="M 180,90 V 72 h -18 z"
       id="path309"
       inkscape:connector-curvature="0"
       style="fill:#1ba591" />
    <path
       d="m 180,90 v 18 h 18 z"
       id="path311"
       inkscape:connector-curvature="0"
       style="fill:#ffc84b" />
    <path
       d="M 198,108 V 90 h -18 z"
       id="path313"
       inkscape:connector-curvature="0"
       style="fill:#fbe372" />
    <path
       d="m 198,90 v 18 h 18 z"
       id="path315"
       inkscape:connector-curvature="0"
       style="fill:#d13d5c" />
    <path
       d="M 216,108 V 90 h -18 z"
       id="path317"
       inkscape:connector-curvature="0"
       style="fill:#e74365" />
    <path
       d="m 180,72 v 18 h 18 z"
       id="path319"
       inkscape:connector-curvature="0"
       style="fill:#1eb69f" />
    <path
       d="M 198,90 V 72 h -18 z"
       id="path321"
       inkscape:connector-curvature="0"
       style="fill:#1ba591" />
    <path
       d="m 198,72 v 18 h 18 z"
       id="path323"
       inkscape:connector-curvature="0"
       style="fill:#fbe372" />
    <path
       d="M 216,90 V 72 h -18 z"
       id="path325"
       inkscape:connector-curvature="0"
       style="fill:#ffc84b" />
    <path
       d="m 144,54 v 18 h 18 z"
       id="path327"
       inkscape:connector-curvature="0"
       style="fill:#1ba591" />
    <path
       d="M 162,72 V 54 h -18 z"
       id="path329"
       inkscape:connector-curvature="0"
       style="fill:#1eb69f" />
    <path
       d="m 162,54 v 18 h 18 z"
       id="path331"
       inkscape:connector-curvature="0"
       style="fill:#273b91" />
    <path
       d="M 180,72 V 54 h -18 z"
       id="path333"
       inkscape:connector-curvature="0"
       style="fill:#e74365" />
    <path
       d="m 144,36 v 18 h 18 z"
       id="path335"
       inkscape:connector-curvature="0"
       style="fill:#ffc84b" />
    <path
       d="M 162,54 V 36 h -18 z"
       id="path337"
       inkscape:connector-curvature="0"
       style="fill:#fbe372" />
    <path
       d="m 162,36 v 18 h 18 z"
       id="path339"
       inkscape:connector-curvature="0"
       style="fill:#fbe372" />
    <path
       d="M 180,54 V 36 h -18 z"
       id="path341"
       inkscape:connector-curvature="0"
       style="fill:#ffc84b" />
    <path
       d="m 144,18 v 18 h 18 z"
       id="path343"
       inkscape:connector-curvature="0"
       style="fill:#e74365" />
    <path
       d="M 162,36 V 18 h -18 z"
       id="path345"
       inkscape:connector-curvature="0"
       style="fill:#d13d5c" />
    <path
       d="m 162,18 v 18 h 18 z"
       id="path347"
       inkscape:connector-curvature="0"
       style="fill:#ffc84b" />
    <path
       d="M 180,36 V 18 h -18 z"
       id="path349"
       inkscape:connector-curvature="0"
       style="fill:#fbe372" />
    <path
       d="m 180,54 v 18 h 18 z"
       id="path351"
       inkscape:connector-curvature="0"
       style="fill:#1ba591" />
    <path
       d="M 198,72 V 54 h -18 z"
       id="path353"
       inkscape:connector-curvature="0"
       style="fill:#1eb69f" />
    <path
       d="m 198,54 v 18 h 18 z"
       id="path355"
       inkscape:connector-curvature="0"
       style="fill:#e74365" />
    <path
       d="M 216,72 V 54 h -18 z"
       id="path357"
       inkscape:connector-curvature="0"
       style="fill:#e74365" />
    <path
       d="m 180,36 v 18 h 18 z"
       id="path359"
       inkscape:connector-curvature="0"
       style="fill:#e74365" />
    <path
       d="M 198,54 V 36 h -18 z"
       id="path361"
       inkscape:connector-curvature="0"
       style="fill:#e74365" />
    <path
       d="m 198,36 v 18 h 18 z"
       id="path363"
       inkscape:connector-curvature="0"
       style="fill:#0059a8" />
    <path
       d="M 216,54 V 36 h -18 z"
       id="path365"
       inkscape:connector-curvature="0"
       style="fill:#273b91" />
    <path
       d="m 180,18 v 18 h 18 z"
       id="path367"
       inkscape:connector-curvature="0"
       style="fill:#d13d5c" />
    <path
       d="M 198,36 V 18 h -18 z"
       id="path369"
       inkscape:connector-curvature="0"
       style="fill:#e74365" />
    <path
       d="m 198,18 v 18 h 18 z"
       id="path371"
       inkscape:connector-curvature="0"
       style="fill:#1ba591" />
    <path
       d="M 216,36 V 18 h -18 z"
       id="path373"
       inkscape:connector-curvature="0"
       style="fill:#1eb69f" />
    <path
       d="m 144,0 v 18 h 18 z"
       id="path375"
       inkscape:connector-curvature="0"
       style="fill:#1ba591" />
    <path
       d="M 162,18 V 0 h -18 z"
       id="path377"
       inkscape:connector-curvature="0"
       style="fill:#1eb69f" />
    <path
       d="m 162,0 v 18 h 18 z"
       id="path379"
       inkscape:connector-curvature="0"
       style="fill:#1eb69f" />
    <path
       d="M 180,18 V 0 h -18 z"
       id="path381"
       inkscape:connector-curvature="0"
       style="fill:#1ba591" />
    <path
       d="m 180,0 v 18 h 18 z"
       id="path383"
       inkscape:connector-curvature="0"
       style="fill:#0059a8" />
    <path
       d="M 198,18 V 0 h -18 z"
       id="path385"
       inkscape:connector-curvature="0"
       style="fill:#273b91" />
    <path
       d="m 198,0 v 18 h 18 z"
       id="path387"
       inkscape:connector-curvature="0"
       style="fill:#e74365" />
    <path
       d="M 216,18 V 0 h -18 z"
       id="path389"
       inkscape:connector-curvature="0"
       style="fill:#e74365" />
    <path
       d="m 216,126 v 18 h 18 z"
       id="path391"
       inkscape:connector-curvature="0"
       style="fill:#0059a8" />
    <path
       d="M 234,144 V 126 H 216 Z"
       id="path393"
       inkscape:connector-curvature="0"
       style="fill:#273b91" />
    <path
       d="m 234,126 v 18 h 18 z"
       id="path395"
       inkscape:connector-curvature="0"
       style="fill:#0059a8" />
    <path
       d="M 252,144 V 126 H 234 Z"
       id="path397"
       inkscape:connector-curvature="0"
       style="fill:#273b91" />
    <path
       d="m 216,108 v 18 h 18 z"
       id="path399"
       inkscape:connector-curvature="0"
       style="fill:#d13d5c" />
    <path
       d="M 234,126 V 108 H 216 Z"
       id="path401"
       inkscape:connector-curvature="0"
       style="fill:#e74365" />
    <path
       d="m 234,108 v 18 h 18 z"
       id="path403"
       inkscape:connector-curvature="0"
       style="fill:#fbe372" />
    <path
       d="M 252,126 V 108 H 234 Z"
       id="path405"
       inkscape:connector-curvature="0"
       style="fill:#ffc84b" />
    <path
       d="m 252,126 v 18 h 18 z"
       id="path407"
       inkscape:connector-curvature="0"
       style="fill:#273b91" />
    <path
       d="M 270,144 V 126 H 252 Z"
       id="path409"
       inkscape:connector-curvature="0"
       style="fill:#0059a8" />
    <path
       d="m 270,126 v 18 h 18 z"
       id="path411"
       inkscape:connector-curvature="0"
       style="fill:#fbe372" />
    <path
       d="M 288,144 V 126 H 270 Z"
       id="path413"
       inkscape:connector-curvature="0"
       style="fill:#ffc84b" />
    <path
       d="m 252,108 v 18 h 18 z"
       id="path415"
       inkscape:connector-curvature="0"
       style="fill:#1eb69f" />
    <path
       d="M 270,126 V 108 H 252 Z"
       id="path417"
       inkscape:connector-curvature="0"
       style="fill:#1ba591" />
    <path
       d="m 270,108 v 18 h 18 z"
       id="path419"
       inkscape:connector-curvature="0"
       style="fill:#fbe372" />
    <path
       d="M 288,126 V 108 H 270 Z"
       id="path421"
       inkscape:connector-curvature="0"
       style="fill:#ffc84b" />
    <path
       d="m 216,90 v 18 h 18 z"
       id="path423"
       inkscape:connector-curvature="0"
       style="fill:#ffc84b" />
    <path
       d="M 234,108 V 90 h -18 z"
       id="path425"
       inkscape:connector-curvature="0"
       style="fill:#fbe372" />
    <path
       d="m 234,90 v 18 h 18 z"
       id="path427"
       inkscape:connector-curvature="0"
       style="fill:#d13d5c" />
    <path
       d="M 252,108 V 90 h -18 z"
       id="path429"
       inkscape:connector-curvature="0"
       style="fill:#e74365" />
    <path
       d="m 216,72 v 18 h 18 z"
       id="path431"
       inkscape:connector-curvature="0"
       style="fill:#1eb69f" />
    <path
       d="M 234,90 V 72 h -18 z"
       id="path433"
       inkscape:connector-curvature="0"
       style="fill:#1ba591" />
    <path
       d="m 234,72 v 18 h 18 z"
       id="path435"
       inkscape:connector-curvature="0"
       style="fill:#fbe372" />
    <path
       d="M 252,90 V 72 h -18 z"
       id="path437"
       inkscape:connector-curvature="0"
       style="fill:#ffc84b" />
    <path
       d="m 252,90 v 18 h 18 z"
       id="path439"
       inkscape:connector-curvature="0"
       style="fill:#ffc84b" />
    <path
       d="M 270,108 V 90 h -18 z"
       id="path441"
       inkscape:connector-curvature="0"
       style="fill:#fbe372" />
    <path
       d="m 270,90 v 18 h 18 z"
       id="path443"
       inkscape:connector-curvature="0"
       style="fill:#fbe372" />
    <path
       d="M 288,108 V 90 h -18 z"
       id="path445"
       inkscape:connector-curvature="0"
       style="fill:#ffc84b" />
    <path
       d="m 252,72 v 18 h 18 z"
       id="path447"
       inkscape:connector-curvature="0"
       style="fill:#1eb69f" />
    <path
       d="M 270,90 V 72 h -18 z"
       id="path449"
       inkscape:connector-curvature="0"
       style="fill:#1ba591" />
    <path
       d="m 270,72 v 18 h 18 z"
       id="path451"
       inkscape:connector-curvature="0"
       style="fill:#e74365" />
    <path
       d="M 288,90 V 72 h -18 z"
       id="path453"
       inkscape:connector-curvature="0"
       style="fill:#e74365" />
    <path
       d="m 216,54 v 18 h 18 z"
       id="path455"
       inkscape:connector-curvature="0"
       style="fill:#ffc84b" />
    <path
       d="M 234,72 V 54 h -18 z"
       id="path457"
       inkscape:connector-curvature="0"
       style="fill:#fbe372" />
    <path
       d="m 234,54 v 18 h 18 z"
       id="path459"
       inkscape:connector-curvature="0"
       style="fill:#fbe372" />
    <path
       d="M 252,72 V 54 h -18 z"
       id="path461"
       inkscape:connector-curvature="0"
       style="fill:#ffc84b" />
    <path
       d="m 216,36 v 18 h 18 z"
       id="path463"
       inkscape:connector-curvature="0"
       style="fill:#1eb69f" />
    <path
       d="M 234,54 V 36 h -18 z"
       id="path465"
       inkscape:connector-curvature="0"
       style="fill:#1ba591" />
    <path
       d="m 234,36 v 18 h 18 z"
       id="path467"
       inkscape:connector-curvature="0"
       style="fill:#e74365" />
    <path
       d="M 252,54 V 36 h -18 z"
       id="path469"
       inkscape:connector-curvature="0"
       style="fill:#e74365" />
    <path
       d="m 216,18 v 18 h 18 z"
       id="path471"
       inkscape:connector-curvature="0"
       style="fill:#0059a8" />
    <path
       d="M 234,36 V 18 h -18 z"
       id="path473"
       inkscape:connector-curvature="0"
       style="fill:#273b91" />
    <path
       d="m 234,18 v 18 h 18 z"
       id="path475"
       inkscape:connector-curvature="0"
       style="fill:#273b91" />
    <path
       d="M 252,36 V 18 h -18 z"
       id="path477"
       inkscape:connector-curvature="0"
       style="fill:#0059a8" />
    <path
       d="m 216,0 v 18 h 18 z"
       id="path479"
       inkscape:connector-curvature="0"
       style="fill:#273b91" />
    <path
       d="M 234,18 V 0 h -18 z"
       id="path481"
       inkscape:connector-curvature="0"
       style="fill:#0059a8" />
    <path
       d="m 234,0 v 18 h 18 z"
       id="path483"
       inkscape:connector-curvature="0"
       style="fill:#d13d5c" />
    <path
       d="M 252,18 V 0 h -18 z"
       id="path485"
       inkscape:connector-curvature="0"
       style="fill:#e74365" />
    <path
       d="m 252,54 v 18 h 18 z"
       id="path487"
       inkscape:connector-curvature="0"
       style="fill:#1ba591" />
    <path
       d="M 270,72 V 54 h -18 z"
       id="path489"
       inkscape:connector-curvature="0"
       style="fill:#1eb69f" />
    <path
       d="m 270,54 v 18 h 18 z"
       id="path491"
       inkscape:connector-curvature="0"
       style="fill:#1eb69f" />
    <path
       d="M 288,72 V 54 h -18 z"
       id="path493"
       inkscape:connector-curvature="0"
       style="fill:#1ba591" />
    <path
       d="m 252,36 v 18 h 18 z"
       id="path495"
       inkscape:connector-curvature="0"
       style="fill:#0059a8" />
    <path
       d="M 270,54 V 36 h -18 z"
       id="path497"
       inkscape:connector-curvature="0"
       style="fill:#273b91" />
    <path
       d="m 270,36 v 18 h 18 z"
       id="path499"
       inkscape:connector-curvature="0"
       style="fill:#e74365" />
    <path
       d="M 288,54 V 36 h -18 z"
       id="path501"
       inkscape:connector-curvature="0"
       style="fill:#e74365" />
    <path
       d="m 252,18 v 18 h 18 z"
       id="path503"
       inkscape:connector-curvature="0"
       style="fill:#d13d5c" />
    <path
       d="M 270,36 V 18 h -18 z"
       id="path505"
       inkscape:connector-curvature="0"
       style="fill:#e74365" />
    <path
       d="m 270,18 v 18 h 18 z"
       id="path507"
       inkscape:connector-curvature="0"
       style="fill:#1eb69f" />
    <path
       d="M 288,36 V 18 h -18 z"
       id="path509"
       inkscape:connector-curvature="0"
       style="fill:#1ba591" />
    <path
       d="m 252,0 v 18 h 18 z"
       id="path511"
       inkscape:connector-curvature="0"
       style="fill:#0059a8" />
    <path
       d="M 270,18 V 0 h -18 z"
       id="path513"
       inkscape:connector-curvature="0"
       style="fill:#273b91" />
    <path
       d="m 270,0 v 18 h 18 z"
       id="path515"
       inkscape:connector-curvature="0"
       style="fill:#fbe372" />
    <path
       d="M 288,18 V 0 h -18 z"
       id="path517"
       inkscape:connector-curvature="0"
       style="fill:#ffc84b" />
    <rect
       x="54"
       y="18"
       width="180"
       height="18"
       id="rect519"
       style="fill:#ffffff" />
    <rect
       x="54"
       y="54"
       width="162"
       height="72"
       id="rect521"
       style="fill:#ffffff" />
    <g
       id="g1036">
      <g
         transform="translate(58.518,20.294)"
         id="g525">
        <text
           transform="translate(0,9.68)"
           style="font-style:normal;font-weight:400;font-size:10px;font-family:'Montserrat Alternates';fill:#273b91;stroke:none"
           id="text523">
          <tspan
             style="font-style:normal;font-variant:normal;font-weight:bold;font-stretch:normal;font-family:'Montserrat Alternates';-inkscape-font-specification:'Montserrat Alternates Bold'"
             id="tspan1384">About Rust Latam</tspan>
        </text>
      </g>
    </g>
    <g
       id="g1062">
      <rect
         x="58.5"
         y="59"
         width="154.5"
         height="63.700001"
         id="rect528"
         style="fill:none" />
      <g
         transform="translate(58.477,58.096)"
         id="g532">
        <text
           transform="translate(0,3.872)"
           style="font-style:normal;font-weight:normal;font-size:4px;font-family:Montserrat;fill:#273b91;stroke:none;-inkscape-font-specification:Montserrat;font-stretch:normal;font-variant:normal;"
           id="text530">Lorem ipsum dolor sit amet, consectetuer adipiscing elit, sed diam</text>
      </g>
      <g
         transform="translate(58.477,62.896)"
         id="g536">
        <text
           transform="translate(0,3.872)"
           style="font-style:normal;font-weight:normal;font-size:4px;font-family:Montserrat;fill:#273b91;stroke:none;-inkscape-font-specification:Montserrat;font-stretch:normal;font-variant:normal;"
           id="text534">nonummy nibh euismod tincidunt ut laoreet dolore magna aliquam erat</text>
      </g>
      <g
         transform="translate(58.477,67.696)"
         id="g540">
        <text
           transform="translate(0,3.872)"
           style="font-style:normal;font-weight:normal;font-size:4px;font-family:Montserrat;fill:#273b91;stroke:none;-inkscape-font-specification:Montserrat;font-stretch:normal;font-variant:normal;"
           id="text538">volutpat. Ut wisi enim ad minim veniam, quis nostrud exerci tation</text>
      </g>
      <g
         transform="translate(58.477,72.496)"
         id="g544">
        <text
           transform="translate(0,3.872)"
           style="font-style:normal;font-weight:normal;font-size:4px;font-family:Montserrat;fill:#273b91;stroke:none;-inkscape-font-specification:Montserrat;font-stretch:normal;font-variant:normal;"
           id="text542">ullamcorper suscipit lobortis nisl ut aliquip ex ea commodo consequat.</text>
      </g>
      <g
         transform="translate(58.477,82.096)"
         id="g548">
        <text
           transform="translate(0,3.872)"
           style="font-style:normal;font-weight:normal;font-size:4px;font-family:Montserrat;fill:#273b91;stroke:none;-inkscape-font-specification:Montserrat;font-stretch:normal;font-variant:normal;"
           id="text546">Duis autem vel eum iriure dolor in hendrerit in vulputate velit esse</text>
      </g>
      <g
         transform="translate(58.477,86.896)"
         id="g552">
        <text
           transform="translate(0,3.872)"
           style="font-style:normal;font-weight:normal;font-size:4px;font-family:Montserrat;fill:#273b91;stroke:none;-inkscape-font-specification:Montserrat;font-stretch:normal;font-variant:normal;"
           id="text550">molestie consequat, vel illum dolore eu feugiat nulla facilisis at vero eros</text>
      </g>
      <g
         transform="translate(58.477,91.696)"
         id="g556">
        <text
           transform="translate(0,3.872)"
           style="font-style:normal;font-weight:normal;font-size:4px;font-family:Montserrat;fill:#273b91;stroke:none;-inkscape-font-specification:Montserrat;font-stretch:normal;font-variant:normal;"
           id="text554">et accumsan et iusto odio dignissim qui blandit praesent .</text>
      </g>
      <g
         transform="translate(58.477,101.296)"
         id="g560">
        <text
           transform="translate(0,3.872)"
           style="font-style:normal;font-weight:normal;font-size:4px;font-family:Montserrat;fill:#273b91;stroke:none;-inkscape-font-specification:Montserrat;font-stretch:normal;font-variant:normal;"
           id="text558">luptatum zzril delenit augue duis dolore te feugait nulla facilisi.</text>
      </g>
      <g
         transform="translate(58.477,106.096)"
         id="g564">
        <text
           transform="translate(0,3.872)"
           style="font-style:normal;font-weight:normal;font-size:4px;font-family:Montserrat;fill:#273b91;stroke:none;-inkscape-font-specification:Montserrat;font-stretch:normal;font-variant:normal;"
           id="text562">Lorem ipsum dolor sit amet, cons ectetuer adipiscing elit, sed diam</text>
      </g>
      <g
         transform="translate(58.477,110.896)"
         id="g568">
        <text
           transform="translate(0,3.872)"
           style="font-style:normal;font-weight:normal;font-size:4px;font-family:Montserrat;fill:#273b91;stroke:none;-inkscape-font-specification:Montserrat;font-stretch:normal;font-variant:normal;"
           id="text566">nonummy nibh euismod tincidunt ut</text>
      </g>
    </g>
  </g>
</svg>
