<?xml version="1.0" encoding="UTF-8" standalone="no"?>
<!-- Created with Inkscape (http://www.inkscape.org/) -->

<svg
   xmlns:dc="http://purl.org/dc/elements/1.1/"
   xmlns:cc="http://creativecommons.org/ns#"
   xmlns:rdf="http://www.w3.org/1999/02/22-rdf-syntax-ns#"
   xmlns:svg="http://www.w3.org/2000/svg"
   xmlns="http://www.w3.org/2000/svg"
   xmlns:sodipodi="http://sodipodi.sourceforge.net/DTD/sodipodi-0.dtd"
   xmlns:inkscape="http://www.inkscape.org/namespaces/inkscape"
   width="484.70609"
   height="559.57025"
   viewBox="0 0 128.24516 148.05296"
   version="1.1"
   id="svg8"
   inkscape:version="0.92.3 (2405546, 2018-03-11)"
   sodipodi:docname="icon_black.svg"
   inkscape:export-filename="/home/anxhelo/works/LibOCon 2018/PNG/icon_black.png"
   inkscape:export-xdpi="96"
   inkscape:export-ydpi="96">
  <defs
     id="defs2" />
  <sodipodi:namedview
     id="base"
     pagecolor="#ffffff"
     bordercolor="#666666"
     borderopacity="1.0"
     inkscape:pageopacity="0"
     inkscape:pageshadow="2"
     inkscape:zoom="0.52467208"
     inkscape:cx="255.51132"
     inkscape:cy="286.65118"
     inkscape:document-units="px"
     inkscape:current-layer="layer1"
     inkscape:document-rotation="0"
     showgrid="false"
     borderlayer="true"
     inkscape:showpageshadow="true"
     units="px"
     inkscape:pagecheckerboard="false"
     showguides="true"
     inkscape:window-width="1366"
     inkscape:window-height="715"
     inkscape:window-x="0"
     inkscape:window-y="0"
     inkscape:window-maximized="1"
     objecttolerance="10"
     guidetolerance="10"
     inkscape:snap-tangential="true"
     inkscape:snap-perpendicular="true"
     fit-margin-top="0"
     fit-margin-left="0"
     fit-margin-right="0"
     fit-margin-bottom="0">
    <inkscape:grid
       type="xygrid"
       id="grid10"
       dotted="false"
       originx="-171.17409"
       originy="-2.8767125" />
  </sodipodi:namedview>
  <metadata
     id="metadata5">
    <rdf:RDF>
      <cc:Work
         rdf:about="">
        <dc:format>image/svg+xml</dc:format>
        <dc:type
           rdf:resource="http://purl.org/dc/dcmitype/StillImage" />
        <dc:title></dc:title>
        <cc:license
           rdf:resource="" />
      </cc:Work>
    </rdf:RDF>
  </metadata>
  <g
     inkscape:label="Layer 1"
     inkscape:groupmode="layer"
     id="layer1"
     transform="translate(-171.17408,-146.07034)">
    <g
       id="XMLID_185_-7"
       transform="matrix(0.59482908,0,0,0.59482908,344.26934,41.320936)">
      <g
         id="XMLID_347_-5">
        <rect
           height="30.9"
           width="11.9"
           class="st0"
           y="259.20001"
           x="-201.60001"
           id="XMLID_348_-3"
           style="fill:none" />
      </g>
      <g
         id="XMLID_345_-5" />
      <g
         id="XMLID_343_-6">
        <rect
           height="30.9"
           width="11.9"
           class="st0"
           y="259.20001"
           x="-177.5"
           id="XMLID_344_-2"
           style="fill:none" />
      </g>
      <g
         id="XMLID_341_-9">
        <path
           d="m -134.4,247 v 0.7 l 0.3,0.3 c 2.2,2.8 4,8 4,11.6 v 30.2 c 0,0.1 0,0.3 0,0.4 0,3.5 0,8.7 0,12.2 0,0.1 0,0.3 0,0.4 v 77.5 l 42.5,-24.5 V 245.4 l -89.6,-51.7 42.3,53.4 h 0.5 z"
           class="st0"
           id="XMLID_342_-1"
           inkscape:connector-curvature="0"
           style="fill:none" />
      </g>
      <g
         id="XMLID_331_-2">
        <path
           d="m -183.6,325.5 c -13.3,0 -24.1,10.8 -24.1,24.1 0,13.3 10.8,24.1 24.1,24.1 13.3,0 24.1,-10.8 24.1,-24.1 -0.1,-13.3 -10.8,-24.1 -24.1,-24.1 z m 11.2,31.8 h -12.9 c -3.4,0 -6.1,-2.7 -6.1,-6.1 v -7.7 c 0,-3.4 2.7,-6.1 6.1,-6.1 3.4,0 6.1,2.7 6.1,6.1 v 1.6 h 6.8 c 3.4,0 6.1,2.7 6.1,6.1 0,3.4 -2.7,6.1 -6.1,6.1 z"
           class="st0"
           id="XMLID_332_-7"
           inkscape:connector-curvature="0"
           style="fill:none" />
      </g>
      <g
         id="XMLID_327_-0">
        <path
           d="m -153.5,290.1 h 11.2 v -0.4 -30.2 c 0,-0.1 0,-0.3 0,-0.4 h -11.1 z"
           class="st0"
           id="XMLID_329_-9"
           inkscape:connector-curvature="0"
           style="fill:none" />
      </g>
      <g
         id="XMLID_325_-3">
        <polygon
           points="-183.6,205.1 -216.8,247 -150.5,247 "
           class="st0"
           id="XMLID_326_-6"
           style="fill:none" />
      </g>
      <g
         id="XMLID_323_-0">
        <path
           d="m -213.8,259.2 h -11.1 c 0,0.1 0,0.3 0,0.4 v 30.2 0.4 h 11.2 z"
           class="st0"
           id="XMLID_324_-6"
           inkscape:connector-curvature="0"
           style="fill:none" />
      </g>
      <g
         id="XMLID_311_-2">
        <path
           d="m -183.6,313.3 c -20,0 -36.3,16.3 -36.3,36.3 0,20 16.3,36.3 36.3,36.3 20,0 36.3,-16.3 36.3,-36.3 -0.1,-20 -16.3,-36.3 -36.3,-36.3 z m 0,60.4 c -13.3,0 -24.1,-10.8 -24.1,-24.1 0,-13.3 10.8,-24.1 24.1,-24.1 13.3,0 24.1,10.8 24.1,24.1 -0.1,13.3 -10.8,24.1 -24.1,24.1 z"
           class="st1"
           id="XMLID_312_-6"
           inkscape:connector-curvature="0"
           style="fill:#000000" />
      </g>
      <path
         id="path907"
         d="M -183.2,176.1 -291,238.3 V 362.7 L -183.2,425 -75.4,362.7 V 238.3 Z m 32.8,70.9 h -66.3 l 33.1,-41.9 z m -15.3,12.2 v 30.9 h -11.9 v -30.9 z m -24,0 v 30.9 h -11.9 v -30.9 z m -43.5,-11.3 c -2.2,2.8 -4,8 -4,11.6 l -0.1,120.1 -41.5,-24 V 245.4 l 87.6,-50.5 -41.2,52 z m 8.1,41.9 h 0.1 v -30.6 h 11.1 v 30.9 h -11.2 z m 82.7,97.5 -40.9,23.6 -41.8,-24.2 v 0 -84 0 -0.4 h 82.7 z m 0,-97.1 h -11.2 v -30.9 h 11.1 c 0.1,0 0.1,0.2 0.1,0.3 z m 54.6,65.5 -42.4,24.5 V 259.6 c 0,-3.6 -1.8,-8.8 -4,-11.6 l -0.3,-0.3 V 247 h -0.5 l -42.1,-53.1 89.3,51.5 z"
         class="st1"
         inkscape:connector-curvature="0"
         style="fill:#000000" />
      <g
         id="XMLID_187_-1">
        <path
           d="m -172.4,345.1 h -6.8 v -1.6 c 0,-3.4 -2.7,-6.1 -6.1,-6.1 -3.4,0 -6.1,2.7 -6.1,6.1 v 7.7 c 0,3.4 2.7,6.1 6.1,6.1 h 12.9 c 3.4,0 6.1,-2.7 6.1,-6.1 0,-3.4 -2.7,-6.1 -6.1,-6.1 z"
           class="st1"
           id="XMLID_188_-8"
           inkscape:connector-curvature="0"
           style="fill:#000000" />
      </g>
    </g>
  </g>
</svg>
