<?xml version="1.0" encoding="UTF-8" standalone="no"?>
<!-- Created with Inkscape (http://www.inkscape.org/) -->

<svg
   xmlns:dc="http://purl.org/dc/elements/1.1/"
   xmlns:cc="http://creativecommons.org/ns#"
   xmlns:rdf="http://www.w3.org/1999/02/22-rdf-syntax-ns#"
   xmlns:svg="http://www.w3.org/2000/svg"
   xmlns="http://www.w3.org/2000/svg"
   xmlns:sodipodi="http://sodipodi.sourceforge.net/DTD/sodipodi-0.dtd"
   xmlns:inkscape="http://www.inkscape.org/namespaces/inkscape"
   width="575.52179"
   height="575.52179"
   viewBox="0 0 152.27348 152.27347"
   version="1.1"
   id="svg8"
   inkscape:version="0.92.3 (2405546, 2018-03-11)"
   sodipodi:docname="sticker_round.svg"
   inkscape:export-filename="/home/anxhelo/works/LibOCon 2018/PNG/sticker_round.png"
   inkscape:export-xdpi="96"
   inkscape:export-ydpi="96">
  <defs
     id="defs2">
    <clipPath
       id="clipPath5527"
       clipPathUnits="userSpaceOnUse">
      <path
         inkscape:connector-curvature="0"
         id="path5525"
         d="M 0,600 H 800 V 0 H 0 Z" />
    </clipPath>
  </defs>
  <sodipodi:namedview
     id="base"
     pagecolor="#ffffff"
     bordercolor="#666666"
     borderopacity="1.0"
     inkscape:pageopacity="0"
     inkscape:pageshadow="2"
     inkscape:zoom="0.52467208"
     inkscape:cx="174.35673"
     inkscape:cy="343.22875"
     inkscape:document-units="px"
     inkscape:current-layer="layer1"
     inkscape:document-rotation="0"
     showgrid="false"
     borderlayer="true"
     inkscape:showpageshadow="true"
     units="px"
     inkscape:pagecheckerboard="false"
     showguides="true"
     inkscape:window-width="1366"
     inkscape:window-height="715"
     inkscape:window-x="0"
     inkscape:window-y="0"
     inkscape:window-maximized="1"
     objecttolerance="10"
     guidetolerance="10"
     inkscape:snap-tangential="true"
     inkscape:snap-perpendicular="true"
     fit-margin-top="0"
     fit-margin-left="0"
     fit-margin-right="0"
     fit-margin-bottom="0">
    <inkscape:grid
       type="xygrid"
       id="grid10"
       dotted="false"
       originx="-71.618253"
       originy="-28.249892" />
  </sodipodi:namedview>
  <metadata
     id="metadata5">
    <rdf:RDF>
      <cc:Work
         rdf:about="">
        <dc:format>image/svg+xml</dc:format>
        <dc:type
           rdf:resource="http://purl.org/dc/dcmitype/StillImage" />
        <dc:title></dc:title>
        <cc:license
           rdf:resource="" />
      </cc:Work>
    </rdf:RDF>
  </metadata>
  <g
     inkscape:label="Layer 1"
     inkscape:groupmode="layer"
     id="layer1"
     transform="translate(-71.61825,-116.47664)">
    <g
       transform="matrix(0.41617738,0,0,-0.41617738,-18.715922,316.8226)"
       id="g5521">
      <g
         clip-path="url(#clipPath5527)"
         id="g5523">
        <g
           transform="translate(582.9429,298.4526)"
           id="g5529">
          <path
             inkscape:connector-curvature="0"
             id="path5531"
             style="fill:#110f0d;fill-opacity:1;fill-rule:nonzero;stroke:none"
             d="m 0,0 c 0,-101.037 -81.906,-182.943 -182.943,-182.943 -101.037,0 -182.943,81.906 -182.943,182.943 0,101.037 81.906,182.943 182.943,182.943 C -81.906,182.943 0,101.037 0,0" />
        </g>
        <path
           inkscape:connector-curvature="0"
           id="path5533"
           style="fill:#ffffff;fill-opacity:1;fill-rule:nonzero;stroke:none"
           d="m 477.454,181.858 h -58.856 v 18.485 h 58.856 z m -157.29,-1.928 h 159.105 v 22.34 H 320.164 Z" />
        <g
           transform="translate(321.525,207.6002)"
           id="g5535">
          <path
             inkscape:connector-curvature="0"
             id="path5537"
             style="fill:#ffffff;fill-opacity:1;fill-rule:nonzero;stroke:none"
             d="M 0,0 V 3.969 H 2.381 V 18.485 H 0 v 3.969 H 10.206 V 18.485 H 7.031 V 3.969 h 5.897 l 0.68,4.309 3.97,-0.34 L 16.897,0 Z" />
        </g>
        <g
           transform="translate(342.5045,207.6002)"
           id="g5539">
          <path
             inkscape:connector-curvature="0"
             id="path5541"
             style="fill:#ffffff;fill-opacity:1;fill-rule:nonzero;stroke:none"
             d="M 0,0 V 3.969 H 2.381 V 18.485 H 0 v 3.969 H 9.412 V 18.485 H 7.031 V 3.969 H 9.412 V 0 Z" />
        </g>
        <g
           transform="translate(367.2264,217.2395)"
           id="g5543">
          <path
             inkscape:connector-curvature="0"
             id="path5545"
             style="fill:#ffffff;fill-opacity:1;fill-rule:nonzero;stroke:none"
             d="m 0,0 h -3.856 v -5.67 h 3.516 c 2.608,0 3.742,1.02 3.742,2.948 C 3.402,-0.794 2.041,0 0,0 M -0.454,8.845 H -3.856 V 3.629 h 3.062 c 2.608,0 3.402,1.247 3.402,2.722 C 2.495,8.392 1.247,8.845 -0.454,8.845 M 0.794,-9.639 H -11 v 3.969 h 2.381 V 8.845 H -11 v 3.97 H 0.68 c 4.083,0 6.805,-2.042 6.805,-5.217 0,-2.381 -1.475,-4.309 -4.083,-4.65 V 2.835 c 3.175,-0.454 4.876,-2.722 4.876,-5.67 0,-3.742 -2.381,-6.804 -7.484,-6.804" />
        </g>
        <g
           transform="translate(390.4741,226.3117)"
           id="g5547">
          <path
             inkscape:connector-curvature="0"
             id="path5549"
             style="fill:#ffffff;fill-opacity:1;fill-rule:nonzero;stroke:none"
             d="m 0,0 c -4.423,0 -6.464,-3.175 -6.464,-7.371 0,-4.083 1.814,-7.598 6.577,-7.598 4.423,0 6.351,2.948 6.351,7.371 C 6.464,-2.835 4.196,0 0,0 m -0.227,-19.052 c -7.258,0 -11.34,5.33 -11.34,11.567 0,6.578 4.423,11.568 11.454,11.568 7.144,0 11.453,-5.217 11.453,-11.568 0,-6.35 -4.309,-11.567 -11.567,-11.567" />
        </g>
        <g
           transform="translate(416.5568,207.26)"
           id="g5551">
          <path
             inkscape:connector-curvature="0"
             id="path5553"
             style="fill:#ffffff;fill-opacity:1;fill-rule:nonzero;stroke:none"
             d="m 0,0 c -6.464,0 -11.227,4.536 -11.227,11.227 0,5.216 2.949,11.907 11.454,11.907 3.856,0 6.577,-1.361 8.051,-2.721 L 8.845,15.196 5.103,14.856 4.65,17.804 c -1.134,0.794 -3.062,1.248 -4.537,1.248 -3.855,0 -6.35,-2.609 -6.35,-7.598 0,-5.217 2.722,-7.371 6.577,-7.371 1.701,0 3.402,0.453 4.31,0.907 L 5.103,8.278 8.845,7.938 8.392,2.608 C 6.804,1.134 3.175,0 0,0" />
        </g>
        <g
           transform="translate(440.7116,226.3117)"
           id="g5555">
          <path
             inkscape:connector-curvature="0"
             id="path5557"
             style="fill:#ffffff;fill-opacity:1;fill-rule:nonzero;stroke:none"
             d="m 0,0 c -4.423,0 -6.464,-3.175 -6.464,-7.371 0,-4.083 1.814,-7.598 6.577,-7.598 4.423,0 6.351,2.948 6.351,7.371 C 6.237,-2.835 3.969,0 0,0 m -0.113,-19.052 c -7.258,0 -11.341,5.33 -11.341,11.567 0,6.578 4.423,11.568 11.454,11.568 7.144,0 11.454,-5.217 11.454,-11.568 -0.114,-6.35 -4.423,-11.567 -11.567,-11.567" />
        </g>
        <g
           transform="translate(477.0006,226.0849)"
           id="g5559">
          <path
             inkscape:connector-curvature="0"
             id="path5561"
             style="fill:#ffffff;fill-opacity:1;fill-rule:nonzero;stroke:none"
             d="m 0,0 v -18.485 h -2.608 l -12.021,14.289 h -0.113 v -10.32 h 3.061 v -3.969 h -9.866 v 3.969 h 2.382 V 0 H -22 v 3.969 h 6.124 l 11.34,-13.268 h 0.113 v 9.412 h -3.288 v 3.97 h 9.979 v -3.97 z" />
        </g>
        <g
           transform="translate(334.3395,192.8578)"
           id="g5563">
          <path
             inkscape:connector-curvature="0"
             id="path5565"
             style="fill:#100f0d;fill-opacity:1;fill-rule:nonzero;stroke:none"
             d="m 0,0 -0.34,2.041 h -1.815 v -7.484 h 1.928 v -2.042 h -6.01 v 2.042 h 1.814 V 2.041 H -6.237 L -6.577,0 -8.619,0.227 -8.278,4.196 H 1.814 L 2.155,0.227 Z" />
        </g>
        <g
           transform="translate(340.9169,185.3732)"
           id="g5567">
          <path
             inkscape:connector-curvature="0"
             id="path5569"
             style="fill:#100f0d;fill-opacity:1;fill-rule:nonzero;stroke:none"
             d="M 0,0 V 2.041 H 1.247 V 9.526 H 0 v 2.041 H 4.876 V 9.526 H 3.629 V 2.041 H 4.876 V 0 Z" />
        </g>
        <g
           transform="translate(355.5459,194.8991)"
           id="g5571">
          <path
             inkscape:connector-curvature="0"
             id="path5573"
             style="fill:#100f0d;fill-opacity:1;fill-rule:nonzero;stroke:none"
             d="M 0,0 H -1.134 V -3.289 H 0 c 1.814,0 2.381,0.567 2.381,1.701 C 2.268,-0.34 1.701,0 0,0 M 2.835,-9.526 0.567,-5.103 H -1.021 V -7.485 H 0.227 V -9.526 H -4.65 v 2.041 h 1.248 V 0 H -4.65 v 2.041 h 5.217 c 2.835,0 4.423,-1.134 4.423,-3.515 0,-1.588 -0.907,-2.609 -2.155,-3.176 l 1.588,-2.835 h 1.361 v -2.041 z" />
        </g>
        <g
           transform="translate(371.3089,193.5383)"
           id="g5575">
          <path
             inkscape:connector-curvature="0"
             id="path5577"
             style="fill:#100f0d;fill-opacity:1;fill-rule:nonzero;stroke:none"
             d="m 0,0 v 0 l -1.361,-3.289 h 2.608 z m 1.247,-8.165 v 2.041 H 2.155 L 1.701,-4.99 h -3.969 l -0.454,-1.134 h 1.134 v -2.041 h -4.536 v 2.041 h 1.021 l 3.289,7.485 h -1.588 v 2.041 h 3.969 l 4.196,-9.526 h 1.134 v -2.041 z" />
        </g>
        <g
           transform="translate(392.5153,194.8991)"
           id="g5579">
          <path
             inkscape:connector-curvature="0"
             id="path5581"
             style="fill:#100f0d;fill-opacity:1;fill-rule:nonzero;stroke:none"
             d="m 0,0 v -9.526 h -1.361 l -6.237,7.371 h -0.113 v -5.33 h 1.587 v -2.041 h -5.103 v 2.041 h 1.248 V 0 h -1.475 v 2.041 h 3.176 l 5.897,-6.917 h 0.113 V 0 H -3.969 V 2.041 H 1.134 V 0 Z" />
        </g>
        <g
           transform="translate(403.7422,193.5383)"
           id="g5583">
          <path
             inkscape:connector-curvature="0"
             id="path5585"
             style="fill:#100f0d;fill-opacity:1;fill-rule:nonzero;stroke:none"
             d="m 0,0 v 0 l -1.361,-3.289 h 2.608 z m 1.247,-8.165 v 2.041 H 2.155 L 1.701,-4.99 h -3.969 l -0.454,-1.134 h 1.134 v -2.041 h -4.536 v 2.041 h 1.021 l 3.289,7.485 h -1.588 v 2.041 h 3.969 l 4.196,-9.526 h 1.134 v -2.041 z" />
        </g>
        <g
           transform="translate(427.33,193.6516)"
           id="g5587">
          <path
             inkscape:connector-curvature="0"
             id="path5589"
             style="fill:#ffffff;fill-opacity:1;fill-rule:nonzero;stroke:none"
             d="m 0,0 0.34,2.835 c 0.907,0.34 2.268,0.681 3.629,0.681 2.041,0 3.969,-0.794 3.969,-2.949 0,-2.835 -3.062,-4.99 -5.33,-6.804 h 3.856 l 0.34,1.701 1.928,-0.227 -0.34,-3.515 h -8.505 l -0.227,1.927 c 2.495,2.042 5.67,4.65 5.67,6.464 0,0.794 -0.68,1.361 -1.701,1.361 -0.454,0 -1.134,-0.113 -1.588,-0.34 L 1.814,-0.227 Z" />
        </g>
        <g
           transform="translate(445.1344,187.3011)"
           id="g5591">
          <path
             inkscape:connector-curvature="0"
             id="path5593"
             style="fill:#ffffff;fill-opacity:1;fill-rule:nonzero;stroke:none"
             d="M 0,0 C 1.701,0 2.268,1.588 2.268,3.969 2.268,6.124 1.814,7.711 0,7.711 -1.814,7.711 -2.155,6.01 -2.155,3.969 -2.155,1.814 -1.928,0 0,0 m 0.113,9.866 c 3.743,0 4.763,-3.175 4.763,-6.01 0,-3.289 -1.247,-5.897 -4.876,-5.897 -3.516,0 -4.65,2.608 -4.65,5.783 -0.113,2.949 1.021,6.124 4.763,6.124" />
        </g>
        <g
           transform="translate(454.5468,187.4145)"
           id="g5595">
          <path
             inkscape:connector-curvature="0"
             id="path5597"
             style="fill:#ffffff;fill-opacity:1;fill-rule:nonzero;stroke:none"
             d="M 0,0 H 2.155 V 7.485 H 0 V 9.526 H 4.65 V 0 H 6.691 V -2.041 H 0.113 Z" />
        </g>
        <g
           transform="translate(469.6294,195.2393)"
           id="g5599">
          <path
             inkscape:connector-curvature="0"
             id="path5601"
             style="fill:#ffffff;fill-opacity:1;fill-rule:nonzero;stroke:none"
             d="m 0,0 c -0.907,0 -1.474,-0.454 -1.474,-1.021 0,-0.793 1.02,-1.247 2.154,-1.814 0.454,0.34 0.794,0.907 0.794,1.588 C 1.588,-0.34 0.794,0 0,0 m -0.68,-4.763 c -0.567,-0.454 -1.021,-0.907 -1.021,-1.701 0,-1.021 0.567,-1.701 1.928,-1.701 1.134,0 1.701,0.567 1.701,1.247 -0.227,1.021 -1.361,1.588 -2.608,2.155 M 0,-10.093 c -2.608,0 -4.309,1.021 -4.309,3.062 0,1.588 1.134,2.268 2.381,2.835 -1.134,0.68 -2.041,1.474 -2.041,2.949 0,1.814 1.588,3.175 4.082,3.175 2.268,0 3.856,-1.134 3.856,-2.835 0,-1.361 -0.907,-1.928 -2.041,-2.495 C 3.175,-4.083 4.309,-4.99 4.309,-6.804 4.423,-8.845 2.495,-10.093 0,-10.093" />
        </g>
        <g
           transform="translate(399.8865,279.7246)"
           id="g5603">
          <path
             inkscape:connector-curvature="0"
             id="path5605"
             style="fill:#ffffff;fill-opacity:1;fill-rule:nonzero;stroke:none"
             d="m 0,0 c -9.866,0 -17.804,7.938 -17.804,17.804 0,9.866 7.938,17.805 17.804,17.805 9.866,0 17.804,-7.939 17.804,-17.805 C 17.691,7.938 9.866,0 0,0 m 0,44.567 c -14.742,0 -26.763,-12.02 -26.763,-26.763 0,-14.742 12.021,-26.763 26.763,-26.763 14.742,0 26.763,12.021 26.763,26.763 0,14.743 -12.021,26.763 -26.763,26.763" />
        </g>
        <g
           transform="translate(470.6501,292.9928)"
           id="g5607">
          <path
             inkscape:connector-curvature="0"
             id="path5609"
             style="fill:#ffffff;fill-opacity:1;fill-rule:nonzero;stroke:none"
             d="M 0,0 -31.299,-18.145 V 70.99 c 0,2.609 -1.361,6.464 -2.949,8.619 l -0.227,0.227 v 0.567 h -0.34 L -65.887,119.64 0,81.65 Z m -40.258,48.423 h -8.279 v 22.794 h 8.165 c 0.114,0 0.114,-0.113 0.114,-0.227 z m 0,-71.784 -30.165,-17.464 -30.846,17.918 v 62.031 0.34 h 61.124 v -62.825 z m -61.124,72.011 v 0 l 0.113,22.567 h 8.165 V 48.423 h -8.278 z m -6.011,30.959 c -1.587,-2.041 -2.948,-5.897 -2.948,-8.619 L -110.455,-17.691 -141.073,0 v 81.423 l 64.753,37.31 -30.392,-38.444 z M -75.3,48.537 h -8.732 v 22.794 h 8.732 z m 17.691,0 h -8.732 v 22.794 h 8.732 z m 11.341,31.752 h -48.991 l 24.495,30.959 z m -24.155,52.393 -79.609,-45.929 V -5.103 l 79.609,-46.042 79.609,46.042 v 91.856 z" />
        </g>
        <g
           transform="translate(408.1649,300.8176)"
           id="g5611">
          <path
             inkscape:connector-curvature="0"
             id="path5613"
             style="fill:#ffffff;fill-opacity:1;fill-rule:nonzero;stroke:none"
             d="m 0,0 h -4.99 v 1.134 c 0,2.495 -2.041,4.536 -4.536,4.536 -2.495,0 -4.536,-2.041 -4.536,-4.536 v -5.67 c 0,-2.495 2.041,-4.536 4.536,-4.536 H 0 c 2.495,0 4.536,2.041 4.536,4.536 C 4.536,-1.928 2.495,0 0,0" />
        </g>
      </g>
    </g>
  </g>
</svg>
