<?xml version="1.0" encoding="UTF-8" standalone="no"?>
<!-- Created with Inkscape (http://www.inkscape.org/) -->

<svg
   xmlns:dc="http://purl.org/dc/elements/1.1/"
   xmlns:cc="http://creativecommons.org/ns#"
   xmlns:rdf="http://www.w3.org/1999/02/22-rdf-syntax-ns#"
   xmlns:svg="http://www.w3.org/2000/svg"
   xmlns="http://www.w3.org/2000/svg"
   xmlns:sodipodi="http://sodipodi.sourceforge.net/DTD/sodipodi-0.dtd"
   xmlns:inkscape="http://www.inkscape.org/namespaces/inkscape"
   width="536.60315"
   height="825.86572"
   viewBox="0 0 141.97626 218.5103"
   version="1.1"
   id="svg8"
   inkscape:version="0.92.3 (2405546, 2018-03-11)"
   sodipodi:docname="vertical_black.svg"
   inkscape:export-filename="/home/anxhelo/works/LibOCon 2018/SVG/vertical_black.png"
   inkscape:export-xdpi="96"
   inkscape:export-ydpi="96">
  <defs
     id="defs2" />
  <sodipodi:namedview
     id="base"
     pagecolor="#ffffff"
     bordercolor="#666666"
     borderopacity="1.0"
     inkscape:pageopacity="0"
     inkscape:pageshadow="2"
     inkscape:zoom="0.37099919"
     inkscape:cx="353.20057"
     inkscape:cy="531.53151"
     inkscape:document-units="px"
     inkscape:current-layer="g990"
     inkscape:document-rotation="0"
     showgrid="false"
     borderlayer="true"
     inkscape:showpageshadow="true"
     units="px"
     inkscape:pagecheckerboard="false"
     showguides="true"
     inkscape:window-width="1366"
     inkscape:window-height="715"
     inkscape:window-x="0"
     inkscape:window-y="0"
     inkscape:window-maximized="1"
     objecttolerance="10"
     guidetolerance="10"
     inkscape:snap-tangential="true"
     inkscape:snap-perpendicular="true"
     fit-margin-top="0"
     fit-margin-left="0"
     fit-margin-right="0"
     fit-margin-bottom="0">
    <inkscape:grid
       type="xygrid"
       id="grid10"
       dotted="false"
       originx="-45.267172"
       originy="-66.269852" />
  </sodipodi:namedview>
  <metadata
     id="metadata5">
    <rdf:RDF>
      <cc:Work
         rdf:about="">
        <dc:format>image/svg+xml</dc:format>
        <dc:type
           rdf:resource="http://purl.org/dc/dcmitype/StillImage" />
        <dc:title></dc:title>
        <cc:license
           rdf:resource="" />
      </cc:Work>
    </rdf:RDF>
  </metadata>
  <g
     inkscape:label="Layer 1"
     inkscape:groupmode="layer"
     id="layer1"
     transform="translate(-45.267158,-12.21984)">
    <g
       id="g990"
       transform="matrix(1.2517358,0,0,1.2517358,326.63542,-186.53636)">
      <g
         id="g1299"
         transform="matrix(0.80556459,0,0,0.80556459,40.328839,3.6327253)">
        <g
           id="g1275">
          <g
             id="g1273">
            <path
               id="path1252"
               d="m -329.1,389.6 v 19.7 h 140.3 v -19.7 z m 138.7,18 h -51.9 v -16.3 h 51.9 z"
               inkscape:connector-curvature="0"
               style="fill:#000000;fill-opacity:1" />
            <g
               id="XMLID_477_-22">
              <path
                 d="m -327.9,384.9 v -3.5 h 2.1 v -12.8 h -2.1 v -3.5 h 9 v 3.5 h -2.8 v 12.8 h 5.2 l 0.6,-3.8 3.5,0.3 -0.6,7 z"
                 class="st0"
                 id="XMLID_506_-6"
                 inkscape:connector-curvature="0"
                 style="fill:#000000" />
              <path
                 d="m -309.4,384.9 v -3.5 h 2.1 v -12.8 h -2.1 v -3.5 h 8.3 v 3.5 h -2.1 v 12.8 h 2.1 v 3.5 z"
                 class="st0"
                 id="XMLID_504_-1"
                 inkscape:connector-curvature="0"
                 style="fill:#000000" />
              <path
                 d="m -286.9,384.9 h -10.4 v -3.5 h 2.1 v -12.8 h -2.1 v -3.5 h 10.3 c 3.6,0 6,1.8 6,4.6 0,2.1 -1.3,3.8 -3.6,4.1 v 0.1 c 2.8,0.4 4.3,2.4 4.3,5 0,3.3 -2.1,6 -6.6,6 z m -1.1,-16.3 h -3 v 4.6 h 2.7 c 2.3,0 3,-1.1 3,-2.4 -0.1,-1.8 -1.2,-2.2 -2.7,-2.2 z m 0.4,7.8 h -3.4 v 5 h 3.1 c 2.3,0 3.3,-0.9 3.3,-2.6 0,-1.7 -1.2,-2.4 -3,-2.4 z"
                 class="st0"
                 id="XMLID_500_-0"
                 inkscape:connector-curvature="0"
                 style="fill:#000000" />
              <path
                 d="m -267.3,385.2 c -6.4,0 -10,-4.7 -10,-10.2 0,-5.8 3.9,-10.2 10.1,-10.2 6.3,0 10.1,4.6 10.1,10.2 0,5.6 -3.8,10.2 -10.2,10.2 z m 0.2,-16.8 c -3.9,0 -5.7,2.8 -5.7,6.5 0,3.6 1.6,6.7 5.8,6.7 3.9,0 5.6,-2.6 5.6,-6.5 0,-4.2 -2,-6.7 -5.7,-6.7 z"
                 class="st0"
                 id="XMLID_492_-6"
                 inkscape:connector-curvature="0"
                 style="fill:#000000" />
              <path
                 d="m -244.1,385.2 c -5.7,0 -9.9,-4 -9.9,-9.9 0,-4.6 2.6,-10.5 10.1,-10.5 3.4,0 5.8,1.2 7.1,2.4 l 0.5,4.6 -3.3,0.3 -0.4,-2.6 c -1,-0.7 -2.7,-1.1 -4,-1.1 -3.4,0 -5.6,2.3 -5.6,6.7 0,4.6 2.4,6.5 5.8,6.5 1.5,0 3,-0.4 3.8,-0.8 l 0.4,-2.9 3.3,0.3 -0.4,4.7 c -1.4,1.3 -4.6,2.3 -7.4,2.3 z"
                 class="st0"
                 id="XMLID_490_-1"
                 inkscape:connector-curvature="0"
                 style="fill:#000000" />
              <path
                 d="m -222.9,385.2 c -6.4,0 -10,-4.7 -10,-10.2 0,-5.8 3.9,-10.2 10.1,-10.2 6.3,0 10.1,4.6 10.1,10.2 -0.1,5.6 -3.9,10.2 -10.2,10.2 z m 0.1,-16.8 c -3.9,0 -5.7,2.8 -5.7,6.5 0,3.6 1.6,6.7 5.8,6.7 3.9,0 5.6,-2.6 5.6,-6.5 -0.2,-4.2 -2.2,-6.7 -5.7,-6.7 z"
                 class="st0"
                 id="XMLID_483_-5"
                 inkscape:connector-curvature="0"
                 style="fill:#000000" />
              <path
                 d="m -190.8,368.6 v 16.3 h -2.3 l -10.6,-12.6 h -0.1 v 9.1 h 2.7 v 3.5 h -8.7 v -3.5 h 2.1 v -12.8 h -2.5 v -3.5 h 5.4 l 10,11.7 h 0.1 v -8.3 h -2.9 V 365 h 8.8 v 3.5 z"
                 class="st0"
                 id="XMLID_479_-9"
                 inkscape:connector-curvature="0"
                 style="fill:#000000" />
            </g>
            <g
               id="XMLID_422_-4">
              <path
                 d="m -316.6,397.9 -0.3,-1.8 h -1.6 v 6.6 h 1.7 v 1.8 h -5.3 v -1.8 h 1.6 v -6.6 h -1.6 l -0.3,1.8 -1.8,-0.2 0.3,-3.5 h 8.9 l 0.3,3.5 z"
                 class="st1"
                 id="XMLID_467_-9"
                 inkscape:connector-curvature="0"
                 style="fill:#ffffff" />
              <path
                 d="m -310.8,404.5 v -1.8 h 1.1 v -6.6 h -1.1 v -1.8 h 4.3 v 1.8 h -1.1 v 6.6 h 1.1 v 1.8 z"
                 class="st1"
                 id="XMLID_454_-0"
                 inkscape:connector-curvature="0"
                 style="fill:#ffffff" />
              <path
                 d="m -295.4,404.5 -2,-3.9 h -1.4 v 2.1 h 1.1 v 1.8 h -4.3 v -1.8 h 1.1 v -6.6 h -1.1 v -1.8 h 4.6 c 2.5,0 3.9,1 3.9,3.1 0,1.4 -0.8,2.3 -1.9,2.8 l 1.4,2.5 h 1.2 v 1.8 z m -2.5,-8.4 h -1 v 2.9 h 1 c 1.6,0 2.1,-0.5 2.1,-1.5 -0.1,-1.1 -0.6,-1.4 -2.1,-1.4 z"
                 class="st1"
                 id="XMLID_447_-9"
                 inkscape:connector-curvature="0"
                 style="fill:#ffffff" />
              <path
                 d="m -282.9,404.5 v -1.8 h 0.8 l -0.4,-1 h -3.5 l -0.4,1 h 1 v 1.8 h -4 v -1.8 h 0.9 l 2.9,-6.6 h -1.4 v -1.8 h 3.5 l 3.7,8.4 h 1 v 1.8 z m -1.1,-7.2 v 0 l -1.2,2.9 h 2.3 z"
                 class="st1"
                 id="XMLID_423_-1"
                 inkscape:connector-curvature="0"
                 style="fill:#ffffff" />
              <path
                 d="m -265.3,396.1 v 8.4 h -1.2 L -272,398 h -0.1 v 4.7 h 1.4 v 1.8 h -4.5 v -1.8 h 1.1 v -6.6 h -1.3 v -1.8 h 2.8 l 5.2,6.1 h 0.1 v -4.3 h -1.5 v -1.8 h 4.5 v 1.8 z"
                 class="st1"
                 id="XMLID_426_-7"
                 inkscape:connector-curvature="0"
                 style="fill:#ffffff" />
              <path
                 d="m -254.3,404.5 v -1.8 h 0.8 l -0.4,-1 h -3.5 l -0.4,1 h 1 v 1.8 h -4 v -1.8 h 0.9 l 2.9,-6.6 h -1.4 v -1.8 h 3.5 l 3.7,8.4 h 1 v 1.8 z m -1.1,-7.2 v 0 l -1.2,2.9 h 2.3 z"
                 class="st1"
                 id="XMLID_428_-7"
                 inkscape:connector-curvature="0"
                 style="fill:#ffffff" />
              <path
                 d="m -234.6,397.2 0.3,-2.5 c 0.8,-0.3 2,-0.6 3.2,-0.6 1.8,0 3.5,0.7 3.5,2.6 0,2.5 -2.7,4.4 -4.7,6 h 3.4 l 0.3,-1.5 1.7,0.2 -0.3,3.1 h -7.5 l -0.2,-1.7 c 2.2,-1.8 5,-4.1 5,-5.7 0,-0.7 -0.6,-1.2 -1.5,-1.2 -0.4,0 -1,0.1 -1.4,0.3 l -0.2,1.2 z"
                 id="XMLID_431_-1"
                 inkscape:connector-curvature="0"
                 style="fill:#000000;fill-opacity:1" />
              <path
                 d="m -218.8,394.1 c 3.3,0 4.2,2.8 4.2,5.3 0,2.9 -1.1,5.2 -4.3,5.2 -3.1,0 -4.1,-2.3 -4.1,-5.1 -0.1,-2.6 0.9,-5.4 4.2,-5.4 z m -0.1,8.7 c 1.5,0 2,-1.4 2,-3.5 0,-1.9 -0.4,-3.3 -2,-3.3 -1.6,0 -1.9,1.5 -1.9,3.3 0,1.9 0.2,3.5 1.9,3.5 z"
                 id="XMLID_433_-1"
                 inkscape:connector-curvature="0"
                 style="fill:#000000;fill-opacity:1" />
              <path
                 d="m -210.6,402.7 h 1.9 v -6.6 h -1.9 v -1.8 h 4.1 v 8.4 h 1.8 v 1.8 h -5.8 z"
                 id="XMLID_436_-5"
                 inkscape:connector-curvature="0"
                 style="fill:#000000;fill-opacity:1" />
              <path
                 d="m -197.3,404.7 c -2.3,0 -3.8,-0.9 -3.8,-2.7 0,-1.4 1,-2 2.1,-2.5 -1,-0.6 -1.8,-1.3 -1.8,-2.6 0,-1.6 1.4,-2.8 3.6,-2.8 2,0 3.4,1 3.4,2.5 0,1.2 -0.8,1.7 -1.8,2.2 1.1,0.6 2.1,1.4 2.1,3 0.1,1.8 -1.6,2.9 -3.8,2.9 z m -0.6,-4.7 c -0.5,0.4 -0.9,0.8 -0.9,1.5 0,0.9 0.5,1.5 1.7,1.5 1,0 1.5,-0.5 1.5,-1.1 -0.2,-0.9 -1.2,-1.4 -2.3,-1.9 z m 0.6,-4.2 c -0.8,0 -1.3,0.4 -1.3,0.9 0,0.7 0.9,1.1 1.9,1.6 0.4,-0.3 0.7,-0.8 0.7,-1.4 0.1,-0.8 -0.6,-1.1 -1.3,-1.1 z"
                 id="XMLID_438_-9"
                 inkscape:connector-curvature="0"
                 style="fill:#000000;fill-opacity:1" />
            </g>
          </g>
        </g>
        <g
           id="XMLID_185_-77">
          <g
             id="XMLID_347_-6">
            <rect
               height="20.1"
               width="7.6999998"
               class="st2"
               y="246.7"
               x="-270.5"
               id="XMLID_348_-7"
               style="fill:none" />
          </g>
          <g
             id="XMLID_345_-3" />
          <g
             id="XMLID_343_-65">
            <rect
               height="20.1"
               width="7.6999998"
               class="st2"
               y="246.7"
               x="-254.8"
               id="XMLID_344_-6"
               style="fill:none" />
          </g>
          <g
             id="XMLID_341_-3">
            <path
               d="m -226.8,238.8 v 0.5 l 0.2,0.2 c 1.4,1.8 2.6,5.2 2.6,7.6 v 19.7 c 0,0.1 0,0.2 0,0.3 0,2.3 0,5.7 0,7.9 0,0.1 0,0.2 0,0.3 v 50.5 l 27.7,-16 v -71.9 l -58.3,-33.7 27.5,34.8 z"
               class="st2"
               id="XMLID_342_-9"
               inkscape:connector-curvature="0"
               style="fill:none" />
          </g>
          <g
             id="XMLID_331_-4">
            <path
               d="m -258.8,289.9 c -8.7,0 -15.7,7 -15.7,15.7 0,8.7 7,15.7 15.7,15.7 8.7,0 15.7,-7 15.7,-15.7 -0.1,-8.7 -7,-15.7 -15.7,-15.7 z m 7.3,20.7 h -8.4 c -2.2,0 -4,-1.8 -4,-4 v -5 c 0,-2.2 1.8,-4 4,-4 2.2,0 4,1.8 4,4 v 1 h 4.4 c 2.2,0 4,1.8 4,4 0,2.3 -1.8,4 -4,4 z"
               class="st2"
               id="XMLID_332_-8"
               inkscape:connector-curvature="0"
               style="fill:none" />
          </g>
          <g
             id="XMLID_327_-1">
            <path
               d="m -239.2,266.9 h 7.3 v -0.3 -19.7 c 0,-0.1 0,-0.2 0,-0.3 h -7.2 z"
               class="st2"
               id="XMLID_329_-2"
               inkscape:connector-curvature="0"
               style="fill:none" />
          </g>
          <g
             id="XMLID_325_-9">
            <polygon
               points="-280.4,238.8 -237.3,238.8 -258.8,211.5 "
               class="st2"
               id="XMLID_326_-3"
               style="fill:none" />
          </g>
          <g
             id="XMLID_323_-9">
            <path
               d="m -278.5,246.7 h -7.2 c 0,0.1 0,0.2 0,0.3 v 19.7 0.3 h 7.3 z"
               class="st2"
               id="XMLID_324_-0"
               inkscape:connector-curvature="0"
               style="fill:none" />
          </g>
          <g
             id="XMLID_311_-8">
            <path
               d="m -258.8,282 c -13,0 -23.6,10.6 -23.6,23.6 0,13 10.6,23.6 23.6,23.6 13,0 23.6,-10.6 23.6,-23.6 0,-13 -10.6,-23.6 -23.6,-23.6 z m 0,39.3 c -8.7,0 -15.7,-7 -15.7,-15.7 0,-8.7 7,-15.7 15.7,-15.7 8.7,0 15.7,7 15.7,15.7 -0.1,8.7 -7,15.7 -15.7,15.7 z"
               id="XMLID_312_-8"
               inkscape:connector-curvature="0"
               style="fill:#000000;fill-opacity:1" />
          </g>
          <path
             id="path1294"
             d="m -258.5,192.6 -70.2,40.5 v 81 l 70.2,40.6 70.2,-40.6 v -81 z m 21.3,46.2 h -43.2 l 21.6,-27.3 z m -10,7.9 v 20.1 h -7.7 v -20.1 z m -15.6,0 v 20.1 h -7.7 v -20.1 z m -28.3,-7.3 c -1.4,1.8 -2.6,5.2 -2.6,7.6 l -0.1,78.2 -27,-15.6 v -71.8 l 57.1,-32.9 -26.8,33.9 z m 5.3,27.3 v 0 l 0.1,-19.9 h 7.2 v 20.1 h -7.3 z m 53.9,63.5 -26.6,15.4 -27.2,-15.8 v 0 -54.7 0 -0.3 h 53.9 v 55.4 z m 0,-63.3 h -7.3 v -20.1 h 7.2 c 0.1,0 0.1,0.1 0.1,0.2 z m 35.5,42.7 -27.6,16 V 247 c 0,-2.3 -1.2,-5.7 -2.6,-7.6 l -0.2,-0.2 v -0.5 h -0.3 l -27.4,-34.6 58.1,33.5 z"
             inkscape:connector-curvature="0"
             style="fill:#000000;fill-opacity:1" />
          <g
             id="XMLID_187_-5">
            <path
               d="m -251.5,302.7 h -4.4 v -1 c 0,-2.2 -1.8,-4 -4,-4 -2.2,0 -4,1.8 -4,4 v 5 c 0,2.2 1.8,4 4,4 h 8.4 c 2.2,0 4,-1.8 4,-4 0,-2.3 -1.8,-4 -4,-4 z"
               id="XMLID_188_-0"
               inkscape:connector-curvature="0"
               style="fill:#000000;fill-opacity:1" />
          </g>
        </g>
      </g>
    </g>
  </g>
</svg>
