<?xml version="1.0" encoding="UTF-8" standalone="no"?>
<!-- Created with Inkscape (http://www.inkscape.org/) -->

<svg
   xmlns:dc="http://purl.org/dc/elements/1.1/"
   xmlns:cc="http://creativecommons.org/ns#"
   xmlns:rdf="http://www.w3.org/1999/02/22-rdf-syntax-ns#"
   xmlns:svg="http://www.w3.org/2000/svg"
   xmlns="http://www.w3.org/2000/svg"
   xmlns:sodipodi="http://sodipodi.sourceforge.net/DTD/sodipodi-0.dtd"
   xmlns:inkscape="http://www.inkscape.org/namespaces/inkscape"
   width="68.288956mm"
   height="48.379063mm"
   viewBox="0 0 68.288956 48.379063"
   version="1.1"
   id="svg4554"
   inkscape:version="0.92.1 r"
   sodipodi:docname="orgmanager_Vertical.svg">
  <defs
     id="defs4548" />
  <sodipodi:namedview
     id="base"
     pagecolor="#ffffff"
     bordercolor="#666666"
     borderopacity="1.0"
     inkscape:pageopacity="0.0"
     inkscape:pageshadow="2"
     inkscape:zoom="0.35"
     inkscape:cx="-897.51074"
     inkscape:cy="660.58218"
     inkscape:document-units="mm"
     inkscape:current-layer="layer1"
     showgrid="false"
     fit-margin-top="0"
     fit-margin-left="0"
     fit-margin-right="0"
     fit-margin-bottom="0"
     inkscape:window-width="1366"
     inkscape:window-height="744"
     inkscape:window-x="0"
     inkscape:window-y="0"
     inkscape:window-maximized="1" />
  <metadata
     id="metadata4551">
    <rdf:RDF>
      <cc:Work
         rdf:about="">
        <dc:format>image/svg+xml</dc:format>
        <dc:type
           rdf:resource="http://purl.org/dc/dcmitype/StillImage" />
        <dc:title></dc:title>
      </cc:Work>
    </rdf:RDF>
  </metadata>
  <g
     inkscape:label="Layer 1"
     inkscape:groupmode="layer"
     id="layer1"
     transform="translate(-217.05566,-275.23328)">
    <g
       transform="matrix(0.26458333,0,0,0.26458333,217.05566,275.24651)"
       id="g26">
      <g
         id="g22">
        <path
           style="fill:#404040"
           inkscape:connector-curvature="0"
           d="M 11.7,146.7 C 4.5,146.7 0,151.8 0,160 c 0,8.4 4.5,13.3 11.7,13.3 7.2,0 11.7,-4.9 11.7,-13.3 0,-8.2 -4.5,-13.3 -11.7,-13.3 z m 0,20.4 c -3.2,0 -5.2,-2.6 -5.2,-7.1 0,-4.4 2,-7.1 5.2,-7.1 3.3,0 5.2,2.7 5.2,7.1 0.1,4.5 -1.9,7.1 -5.2,7.1 z"
           id="path2" />
        <path
           style="fill:#404040"
           inkscape:connector-curvature="0"
           d="m 33.7,149.5 v -2.2 h -6.5 v 25.5 h 6.5 v -14.2 c 0,-4.4 2.1,-5.5 4.4,-5.5 2,0 3.4,0.6 4.6,1.5 l 0.9,-5.9 c -1.4,-1.2 -3,-1.9 -5.2,-1.9 -2.5,-0.1 -4,1.1 -4.7,2.7 z"
           id="path4" />
        <path
           style="fill:#404040"
           inkscape:connector-curvature="0"
           d="m 59.6,148.6 c -1.3,-1.3 -3.1,-1.9 -5.4,-1.9 -6.2,0 -10.6,5.1 -10.6,13.3 0,8.9 4.4,13.4 10.5,13.4 2,0 3.9,-0.4 5.5,-1.9 v 0.7 c 0,3.7 -2.2,4.7 -9.1,5.2 l 3.6,5.4 c 9.6,-0.7 12,-4.6 12,-13.4 v -22 h -6.5 z m 0,16.5 c -1,1.3 -2.3,2 -4.4,2 -3.4,0 -5.1,-2.9 -5.1,-7.1 0,-4.6 1.8,-7.1 5.1,-7.1 2.4,0 3.6,1.1 4.4,2.1 z"
           id="path6" />
        <path
           style="fill:#404040"
           inkscape:connector-curvature="0"
           d="m 98,146.7 c -3.2,0 -6,1 -7.8,3.6 -1.2,-2.3 -3.3,-3.6 -6.5,-3.6 -2.7,0 -4.6,1.1 -6,2.9 v -2.3 h -6.5 v 25.5 h 6.5 v -14 c 0,-4.1 1.4,-5.9 4.4,-5.9 2.9,0 4,1.7 4,5.9 v 13.9 h 6.5 v -14 c 0,-4.1 1.4,-5.9 4.4,-5.9 2.9,0 4,1.7 4,5.9 v 13.9 h 6.5 v -16 c 0,-7.5 -4.1,-9.9 -9.5,-9.9 z"
           id="path8" />
        <path
           style="fill:#404040"
           inkscape:connector-curvature="0"
           d="m 122.7,146.7 c -4.4,0 -8,1.3 -10.4,3 l 2,5.2 c 2.4,-1.6 4.9,-2.5 7.9,-2.5 2.9,0 4.6,1.2 4.6,4 v 1.3 c -1.5,-0.7 -3.4,-1.2 -5.8,-1.2 -5,0 -10.1,2.5 -10.1,8.4 0,5.6 4.1,8.4 9.4,8.4 3.3,0 5.4,-1.2 6.6,-2.4 v 1.8 h 6.4 v -16.3 c -0.2,-8.6 -6,-9.7 -10.6,-9.7 z m 4,18.9 c -1.2,1.1 -3,2.1 -5.3,2.1 -2.8,0 -4.3,-1.1 -4.3,-2.7 0,-2.1 2.2,-2.9 4.9,-2.9 1.7,0 3.4,0.3 4.7,0.8 z"
           id="path10" />
        <path
           style="fill:#404040"
           inkscape:connector-curvature="0"
           d="m 150.9,146.7 c -3,0 -5.2,1 -6.8,3 v -2.4 h -6.5 v 25.5 h 6.5 v -14.1 c 0,-4 1.7,-5.8 4.8,-5.8 3,0 4.4,1.7 4.4,5.9 v 14 h 6.5 v -16.1 c 0.1,-7.6 -4.5,-10 -8.9,-10 z"
           id="path12" />
        <path
           style="fill:#404040"
           inkscape:connector-curvature="0"
           d="m 175,146.7 c -4.4,0 -8,1.3 -10.4,3 l 2,5.2 c 2.4,-1.6 4.9,-2.5 7.9,-2.5 2.9,0 4.6,1.2 4.6,4 v 1.3 c -1.5,-0.7 -3.4,-1.2 -5.8,-1.2 -5,0 -10.1,2.5 -10.1,8.4 0,5.6 4.1,8.4 9.4,8.4 3.3,0 5.4,-1.2 6.6,-2.4 v 1.8 h 6.4 v -16.3 c -0.2,-8.6 -6,-9.7 -10.6,-9.7 z m 4.1,18.9 c -1.2,1.1 -3,2.1 -5.3,2.1 -2.8,0 -4.3,-1.1 -4.3,-2.7 0,-2.1 2.2,-2.9 4.9,-2.9 1.7,0 3.4,0.3 4.7,0.8 z"
           id="path14" />
        <path
           style="fill:#404040"
           inkscape:connector-curvature="0"
           d="m 204.7,148.6 c -1.3,-1.3 -3.1,-1.9 -5.4,-1.9 -6.2,0 -10.6,5.1 -10.6,13.3 0,8.9 4.4,13.4 10.5,13.4 2,0 3.9,-0.4 5.5,-1.9 v 0.7 c 0,3.7 -2.2,4.7 -9.1,5.2 l 3.6,5.4 c 9.6,-0.7 12,-4.6 12,-13.4 v -22 h -6.5 z m 0,16.5 c -1,1.3 -2.3,2 -4.4,2 -3.4,0 -5.1,-2.9 -5.1,-7.1 0,-4.6 1.8,-7.1 5.1,-7.1 2.4,0 3.6,1.1 4.4,2.1 z"
           id="path16" />
        <path
           style="fill:#404040"
           inkscape:connector-curvature="0"
           d="m 226.9,146.7 c -7.3,0 -11.9,5.1 -11.9,13.3 0,8.4 4.5,13.4 11.9,13.4 4.2,0 7.3,-1.7 9.5,-4.3 l -4,-4 c -1.4,1.8 -3.1,2.6 -5.5,2.6 -2.8,0 -5.3,-1.8 -5.5,-5.1 H 238 c 0.2,-1.4 0.2,-2.8 0.2,-3.8 -0.1,-8.3 -5.1,-12.1 -11.3,-12.1 z m -5.5,10.3 c 0.4,-3.2 2.4,-4.7 5.5,-4.7 2.6,0 4.5,1.7 4.9,4.7 z"
           id="path18" />
        <path
           style="fill:#404040"
           inkscape:connector-curvature="0"
           d="m 252.9,146.7 c -2.5,0 -4,1.2 -4.7,2.8 v -2.2 h -6.5 v 25.5 h 6.5 v -14.2 c 0,-4.4 2.1,-5.5 4.4,-5.5 2,0 3.4,0.6 4.6,1.5 l 0.9,-5.9 c -1.5,-1.3 -3.1,-2 -5.2,-2 z"
           id="path20" />
      </g>
      <path
         style="fill:#0faec9"
         inkscape:connector-curvature="0"
         d="m 134.3,2.2 c -3,-3 -7.8,-3 -10.8,0 L 71.7,54 c -3,3 -3,7.9 0,10.8 l 52,52 c 3,3 7.8,3 10.8,0 l 51.7,-51.7 c 3,-3 3,-7.9 0,-10.8 z m 31.9,69.7 -12.4,-12.4 3.1,-3.1 -9.3,-9.3 -12.4,12.4 9.3,9.3 3.1,-3.1 12.4,12.4 -12.4,12.4 -12.4,-12.4 3.1,-3.1 -9.3,-9.3 -12.4,12.4 9.3,9.3 3.1,-3.1 12.4,12.4 -12.4,12.5 -12.4,-12.4 3.1,-3.1 -15.5,-15.5 18.6,-18.6 -9.3,-9.3 -3.1,3.1 -12.4,-12.5 12.4,-12.4 12.4,12.4 -3.1,3.1 9.3,9.3 18.6,-18.6 15.5,15.5 3.1,-3.1 12.4,12.4 z"
         id="path24" />
    </g>
  </g>
</svg>
