<?xml version="1.0" encoding="UTF-8" standalone="no"?>
<!-- Created with Inkscape (http://www.inkscape.org/) -->

<svg
   xmlns:dc="http://purl.org/dc/elements/1.1/"
   xmlns:cc="http://creativecommons.org/ns#"
   xmlns:rdf="http://www.w3.org/1999/02/22-rdf-syntax-ns#"
   xmlns:svg="http://www.w3.org/2000/svg"
   xmlns="http://www.w3.org/2000/svg"
   xmlns:sodipodi="http://sodipodi.sourceforge.net/DTD/sodipodi-0.dtd"
   xmlns:inkscape="http://www.inkscape.org/namespaces/inkscape"
   width="192.01868"
   height="192.01868"
   viewBox="0 0 50.804943 50.804942"
   version="1.1"
   id="svg4773"
   inkscape:version="0.92.1 r"
   sodipodi:docname="icon_color.svg"
   inkscape:export-filename="/home/anxhelo/Documents/ura works folder/I2P/vertical_white.png"
   inkscape:export-xdpi="96.059998"
   inkscape:export-ydpi="96.059998">
  <defs
     id="defs4767" />
  <sodipodi:namedview
     id="base"
     pagecolor="#ffffff"
     bordercolor="#666666"
     borderopacity="1.0"
     inkscape:pageopacity="0.0"
     inkscape:pageshadow="2"
     inkscape:zoom="0.98994949"
     inkscape:cx="2.9775073"
     inkscape:cy="14.380764"
     inkscape:document-units="mm"
     inkscape:current-layer="layer1"
     showgrid="false"
     fit-margin-top="0"
     fit-margin-left="0"
     fit-margin-right="0"
     fit-margin-bottom="0"
     inkscape:window-width="1366"
     inkscape:window-height="740"
     inkscape:window-x="0"
     inkscape:window-y="0"
     inkscape:window-maximized="1"
     units="px"
     showguides="false" />
  <metadata
     id="metadata4770">
    <rdf:RDF>
      <cc:Work
         rdf:about="">
        <dc:format>image/svg+xml</dc:format>
        <dc:type
           rdf:resource="http://purl.org/dc/dcmitype/StillImage" />
        <dc:title></dc:title>
      </cc:Work>
    </rdf:RDF>
  </metadata>
  <g
     inkscape:label="Layer 1"
     inkscape:groupmode="layer"
     id="layer1"
     transform="translate(-141.57617,-125.54736)">
    <path
       d="m 180.17747,143.35805 c -1.05834,0.89712 -2.56329,1.34514 -4.5145,1.34514 h -1.43157 v 5.59647 h -3.33622 v -15.73424 h 5.02602 c 1.90818,0 3.35915,0.41098 4.35328,1.23225 0.99342,0.82197 1.49049,2.04682 1.49049,3.67524 0,1.69333 -0.52917,2.98838 -1.5875,3.88514 m -2.11491,16.82433 c -1.75683,0 -3.18135,-1.42452 -3.18135,-3.18135 0,-1.75719 1.42452,-3.18171 3.18135,-3.18171 1.75719,0 3.18135,1.42452 3.18135,3.18171 0,1.75683 -1.42416,3.18135 -3.18135,3.18135 m 0,7.56285 c -1.75683,0 -3.18135,-1.42417 -3.18135,-3.18135 0,-1.75719 1.42452,-3.18135 3.18135,-3.18135 1.75719,0 3.18135,1.42416 3.18135,3.18135 0,1.75718 -1.42416,3.18135 -3.18135,3.18135 m -7.56285,-7.56285 c -1.75718,0 -3.18135,-1.42452 -3.18135,-3.18135 0,-1.75719 1.42417,-3.18171 3.18135,-3.18171 1.75684,0 3.18135,1.42452 3.18135,3.18171 0,1.75683 -1.42451,3.18135 -3.18135,3.18135 m 0,7.56285 c -1.75718,0 -3.18135,-1.42417 -3.18135,-3.18135 0,-1.75719 1.42417,-3.18135 3.18135,-3.18135 1.75684,0 3.18135,1.42416 3.18135,3.18135 0,1.75718 -1.42451,3.18135 -3.18135,3.18135 m -12.5222,-17.44557 v -2.34068 l 3.99557,-4.03931 c 1.18286,-1.21179 1.9558,-2.0521 2.3188,-2.52024 0.36301,-0.46814 0.62442,-0.9017 0.78388,-1.30105 0.15945,-0.39899 0.23953,-0.81244 0.23953,-1.24107 0,-0.63853 -0.17603,-1.11372 -0.52811,-1.42593 -0.35207,-0.3122 -0.82162,-0.46813 -1.4097,-0.46813 -0.617,0 -1.21567,0.14146 -1.79634,0.42439 -0.58067,0.28328 -1.18675,0.6858 -1.81786,1.20862 l -1.82916,-2.16641 c 0.78387,-0.66781 1.43334,-1.13947 1.94875,-1.41535 0.51505,-0.27587 1.07773,-0.48824 1.68733,-0.63711 0.60996,-0.14852 1.29188,-0.22296 2.04682,-0.22296 0.99413,0 1.87254,0.18133 2.63454,0.54434 0.762,0.36301 1.35361,0.87101 1.77483,1.524 0.42051,0.65334 0.63112,1.40088 0.63112,2.24261 0,0.73342 -0.12877,1.42063 -0.38629,2.06339 -0.25788,0.64206 -0.65688,1.3007 -1.19768,1.97591 -0.54081,0.67487 -1.49331,1.63654 -2.85786,2.88502 l -2.04646,1.92687 v 0.1524 h 6.9349 v 2.83069 z m 4.959,9.88272 c -1.75683,0 -3.18135,-1.42452 -3.18135,-3.18135 0,-1.75719 1.42452,-3.18171 3.18135,-3.18171 1.75719,0 3.1817,1.42452 3.1817,3.18171 0,1.75683 -1.42451,3.18135 -3.1817,3.18135 m 0,7.56285 c -1.75683,0 -3.18135,-1.42417 -3.18135,-3.18135 0,-1.75719 1.42452,-3.18135 3.18135,-3.18135 1.75719,0 3.1817,1.42416 3.1817,3.18135 0,1.75718 -1.42451,3.18135 -3.1817,3.18135 m -7.56285,-7.56285 c -1.75718,0 -3.18135,-1.42452 -3.18135,-3.18135 0,-1.75719 1.42417,-3.18171 3.18135,-3.18171 1.75719,0 3.18135,1.42452 3.18135,3.18171 0,1.75683 -1.42416,3.18135 -3.18135,3.18135 m 0,7.56285 c -1.75718,0 -3.18135,-1.42417 -3.18135,-3.18135 0,-1.75719 1.42417,-3.18135 3.18135,-3.18135 1.75719,0 3.18135,1.42416 3.18135,3.18135 0,1.75718 -1.42416,3.18135 -3.18135,3.18135 m -2.75555,-33.17981 h 3.33622 v 15.73389 h -3.33622 z m 14.36053,-9.01806 c -14.02962,0 -25.40247,11.37285 -25.40247,25.40247 0,14.02927 11.37285,25.40247 25.40247,25.40247 14.02927,0 25.40247,-11.3732 25.40247,-25.40247 0,-14.02962 -11.3732,-25.40247 -25.40247,-25.40247"
       style="fill:#4661a9;fill-opacity:1;fill-rule:nonzero;stroke:none;stroke-width:0.35277775"
       id="path4696"
       inkscape:connector-curvature="0" />
  </g>
</svg>
