<?xml version="1.0" encoding="utf-8"?>
<!-- Generator: Adobe Illustrator 17.0.0, SVG Export Plug-In . SVG Version: 6.00 Build 0)  -->
<!DOCTYPE svg PUBLIC "-//W3C//DTD SVG 1.1//EN" "http://www.w3.org/Graphics/SVG/1.1/DTD/svg11.dtd">
<svg version="1.1" id="Layer_1" xmlns="http://www.w3.org/2000/svg" xmlns:xlink="http://www.w3.org/1999/xlink" x="0px" y="0px"
	 width="382.638px" height="100.544px" viewBox="0 0 382.638 100.544" enable-background="new 0 0 382.638 100.544"
	 xml:space="preserve">
<g>
	<g>
		<path fill="#FF047B" d="M125.783,48.538h18.975v24.798c-3.075,1.003-5.97,1.707-8.686,2.11c-2.715,0.403-5.491,0.605-8.326,0.605
			c-7.219,0-12.732-2.121-16.538-6.363c-3.806-4.241-5.708-10.332-5.708-18.271c0-7.721,2.208-13.74,6.625-18.059
			c4.417-4.318,10.54-6.478,18.37-6.478c4.907,0,9.64,0.981,14.198,2.944l-3.37,8.113c-3.49-1.745-7.121-2.617-10.894-2.617
			c-4.384,0-7.896,1.472-10.534,4.417c-2.639,2.944-3.958,6.903-3.958,11.875c0,5.191,1.063,9.155,3.189,11.892
			c2.127,2.737,5.218,4.105,9.275,4.105c2.115,0,4.264-0.218,6.445-0.654v-9.978h-9.062V48.538z"/>
		<path fill="#FF047B" d="M165.335,75.397h-9.978V24.493h9.978V75.397z"/>
		<path fill="#FF047B" d="M201.714,75.397l-1.341-4.678h-0.523c-1.069,1.701-2.584,3.016-4.547,3.942
			c-1.963,0.927-4.199,1.391-6.707,1.391c-4.297,0-7.536-1.15-9.716-3.451c-2.181-2.301-3.271-5.611-3.271-9.929V38.822h9.978
			v21.363c0,2.639,0.469,4.619,1.407,5.938c0.938,1.32,2.432,1.979,4.482,1.979c2.792,0,4.809-0.932,6.052-2.797
			c1.243-1.864,1.865-4.956,1.865-9.274V38.822h9.978v36.575H201.714z"/>
		<path fill="#FF047B" d="M234.691,76.051c-11.385,0-17.077-6.249-17.077-18.746c0-6.216,1.548-10.964,4.646-14.248
			c3.097-3.282,7.535-4.923,13.315-4.923c4.231,0,8.026,0.829,11.385,2.486l-2.944,7.721c-1.57-0.632-3.032-1.15-4.384-1.554
			c-1.353-0.403-2.705-0.605-4.057-0.605c-5.191,0-7.786,3.686-7.786,11.058c0,7.154,2.595,10.73,7.786,10.73
			c1.919,0,3.697-0.256,5.333-0.769c1.636-0.512,3.271-1.313,4.907-2.404v8.539c-1.614,1.025-3.245,1.734-4.891,2.126
			C239.275,75.855,237.198,76.051,234.691,76.051z"/>
		<path fill="#FF047B" d="M287.525,57.044c0,5.954-1.57,10.611-4.711,13.969c-3.141,3.359-7.514,5.038-13.119,5.038
			c-3.512,0-6.608-0.769-9.291-2.307c-2.683-1.537-4.744-3.746-6.183-6.625s-2.159-6.237-2.159-10.076
			c0-5.976,1.559-10.621,4.678-13.937c3.119-3.315,7.502-4.973,13.151-4.973c3.511,0,6.608,0.764,9.291,2.29
			c2.683,1.527,4.744,3.719,6.183,6.576C286.805,49.858,287.525,53.206,287.525,57.044z M262.236,57.044
			c0,3.621,0.594,6.358,1.783,8.211c1.188,1.854,3.125,2.781,5.807,2.781c2.661,0,4.574-0.921,5.742-2.764
			c1.166-1.843,1.75-4.585,1.75-8.228c0-3.62-0.589-6.335-1.767-8.146c-1.178-1.81-3.108-2.715-5.791-2.715
			c-2.661,0-4.58,0.9-5.758,2.699C262.825,50.681,262.236,53.402,262.236,57.044z"/>
		<path fill="#FF047B" d="M321.287,64.536c0,3.751-1.304,6.608-3.909,8.571c-2.607,1.963-6.505,2.944-11.696,2.944
			c-2.661,0-4.929-0.18-6.805-0.54c-1.876-0.359-3.631-0.888-5.267-1.586v-8.244c1.854,0.873,3.942,1.603,6.265,2.192
			c2.323,0.589,4.368,0.883,6.134,0.883c3.62,0,5.431-1.047,5.431-3.141c0-0.785-0.24-1.423-0.72-1.914
			c-0.48-0.491-1.309-1.047-2.486-1.669c-1.178-0.621-2.748-1.346-4.711-2.175c-2.813-1.178-4.88-2.268-6.2-3.271
			c-1.32-1.003-2.279-2.153-2.879-3.452c-0.6-1.297-0.899-2.895-0.899-4.792c0-3.25,1.26-5.763,3.778-7.541
			c2.52-1.777,6.09-2.667,10.714-2.667c4.405,0,8.691,0.96,12.857,2.879l-3.01,7.197c-1.832-0.785-3.544-1.428-5.136-1.93
			c-1.592-0.501-3.217-0.752-4.875-0.752c-2.944,0-4.417,0.796-4.417,2.388c0,0.895,0.474,1.668,1.423,2.323
			c0.948,0.654,3.026,1.625,6.232,2.912c2.857,1.156,4.951,2.236,6.282,3.239c1.329,1.003,2.311,2.159,2.943,3.468
			S321.287,62.726,321.287,64.536z"/>
		<path fill="#FF047B" d="M328.647,29.367c0-3.25,1.811-4.875,5.432-4.875c3.619,0,5.43,1.625,5.43,4.875
			c0,1.549-0.452,2.754-1.357,3.615c-0.905,0.862-2.263,1.292-4.072,1.292C330.458,34.274,328.647,32.639,328.647,29.367z
			 M339.051,75.397h-9.979V38.822h9.979V75.397z"/>
		<path fill="#FF047B" d="M382.757,57.044c0,5.954-1.57,10.611-4.711,13.969c-3.141,3.359-7.514,5.038-13.119,5.038
			c-3.512,0-6.607-0.769-9.291-2.307c-2.682-1.537-4.743-3.746-6.183-6.625s-2.159-6.237-2.159-10.076
			c0-5.976,1.559-10.621,4.678-13.937c3.119-3.315,7.503-4.973,13.152-4.973c3.511,0,6.607,0.764,9.291,2.29
			c2.682,1.527,4.743,3.719,6.183,6.576C382.038,49.858,382.757,53.206,382.757,57.044z M357.468,57.044
			c0,3.621,0.595,6.358,1.783,8.211c1.188,1.854,3.125,2.781,5.807,2.781c2.661,0,4.575-0.921,5.742-2.764
			c1.166-1.843,1.75-4.585,1.75-8.228c0-3.62-0.589-6.335-1.767-8.146c-1.178-1.81-3.108-2.715-5.79-2.715
			c-2.662,0-4.58,0.9-5.758,2.699C358.058,50.681,357.468,53.402,357.468,57.044z"/>
	</g>
	<g>
		<path fill="#FF047B" d="M64.781,40.673h16.565L40.673,0L0,40.673h16.565v19.198H0l40.673,40.673l40.673-40.673H64.781V40.673z
			 M40.673,76.198c-9.546,0-17.284-7.738-17.284-17.284c0-10.803,17.284-34.568,17.284-34.568s17.284,23.766,17.284,34.568
			C57.957,68.46,50.219,76.198,40.673,76.198z"/>
		<path fill="#FF047B" d="M36.232,67.556c0,1.259,1.021,2.28,2.281,2.28c7.214,0,13.083-5.869,13.083-13.083
			c0-1.259-1.021-2.28-2.281-2.28c-1.26,0-2.28,1.021-2.28,2.28c0,4.699-3.823,8.522-8.522,8.522
			C37.253,65.276,36.232,66.297,36.232,67.556z"/>
	</g>
</g>
</svg>
