<?xml version="1.0" encoding="utf-8"?>
<!-- Generator: Adobe Illustrator 17.0.0, SVG Export Plug-In . SVG Version: 6.00 Build 0)  -->
<!DOCTYPE svg PUBLIC "-//W3C//DTD SVG 1.1//EN" "http://www.w3.org/Graphics/SVG/1.1/DTD/svg11.dtd">
<svg version="1.1" id="Layer_1" xmlns="http://www.w3.org/2000/svg" xmlns:xlink="http://www.w3.org/1999/xlink" x="0px" y="0px"
	 width="81.346px" height="100.544px" viewBox="0 0 81.346 100.544" enable-background="new 0 0 81.346 100.544"
	 xml:space="preserve">
<g>
	<g>
		<path fill="#FF047B" d="M64.781,40.673h16.565L40.673,0L0,40.673h16.565v19.198H0l40.673,40.673l40.673-40.673H64.781V40.673z
			 M40.673,76.198c-9.546,0-17.284-7.738-17.284-17.284c0-10.803,17.284-34.568,17.284-34.568s17.284,23.766,17.284,34.568
			C57.957,68.46,50.219,76.198,40.673,76.198z"/>
		<path fill="#FF047B" d="M36.232,67.556c0,1.259,1.021,2.28,2.281,2.28c7.214,0,13.083-5.869,13.083-13.083
			c0-1.259-1.021-2.28-2.281-2.28c-1.26,0-2.28,1.021-2.28,2.28c0,4.699-3.823,8.522-8.522,8.522
			C37.253,65.276,36.232,66.297,36.232,67.556z"/>
	</g>
</g>
</svg>
