<?xml version="1.0" encoding="UTF-8" standalone="no"?>
<!-- Created with Inkscape (http://www.inkscape.org/) -->

<svg
   xmlns:dc="http://purl.org/dc/elements/1.1/"
   xmlns:cc="http://creativecommons.org/ns#"
   xmlns:rdf="http://www.w3.org/1999/02/22-rdf-syntax-ns#"
   xmlns:svg="http://www.w3.org/2000/svg"
   xmlns="http://www.w3.org/2000/svg"
   xmlns:sodipodi="http://sodipodi.sourceforge.net/DTD/sodipodi-0.dtd"
   xmlns:inkscape="http://www.inkscape.org/namespaces/inkscape"
   width="547.20782"
   height="105.40685"
   viewBox="0 0 144.78207 27.888893"
   version="1.1"
   id="svg8"
   inkscape:version="0.92.3 (2405546, 2018-03-11)"
   sodipodi:docname="horizontal_black.svg"
   inkscape:export-filename="/home/anxhelo/works/LO Initiative/PNG/horizontal_black.png"
   inkscape:export-xdpi="96"
   inkscape:export-ydpi="96">
  <defs
     id="defs2" />
  <sodipodi:namedview
     id="base"
     pagecolor="#ffffff"
     bordercolor="#666666"
     borderopacity="1.0"
     inkscape:pageopacity="0"
     inkscape:pageshadow="2"
     inkscape:zoom="0.74199837"
     inkscape:cx="235.55016"
     inkscape:cy="52.312695"
     inkscape:document-units="px"
     inkscape:current-layer="layer1"
     inkscape:document-rotation="0"
     showgrid="false"
     borderlayer="true"
     inkscape:showpageshadow="true"
     units="px"
     inkscape:pagecheckerboard="false"
     showguides="true"
     inkscape:window-width="1366"
     inkscape:window-height="715"
     inkscape:window-x="0"
     inkscape:window-y="0"
     inkscape:window-maximized="1"
     objecttolerance="10"
     guidetolerance="10"
     inkscape:snap-tangential="true"
     inkscape:snap-perpendicular="true"
     fit-margin-top="0"
     fit-margin-left="0"
     fit-margin-right="0"
     fit-margin-bottom="0">
    <inkscape:grid
       type="xygrid"
       id="grid10"
       dotted="false"
       originx="-118.07598"
       originy="-115.79716" />
  </sodipodi:namedview>
  <metadata
     id="metadata5">
    <rdf:RDF>
      <cc:Work
         rdf:about="">
        <dc:format>image/svg+xml</dc:format>
        <dc:type
           rdf:resource="http://purl.org/dc/dcmitype/StillImage" />
        <dc:title></dc:title>
        <cc:license
           rdf:resource="" />
      </cc:Work>
    </rdf:RDF>
  </metadata>
  <g
     inkscape:label="Layer 1"
     inkscape:groupmode="layer"
     id="layer1"
     transform="translate(-118.07598,-153.31394)">
    <g
       id="g873"
       transform="matrix(0.33359922,0,0,0.33359922,118.07598,153.31394)"
       style="fill:#000000">
      <g
         id="g861"
         style="fill:#000000">
        <path
           id="path837"
           d="m 115.2,28.8 v 25.5 h 13.3 v 5.3 H 109.3 V 28.8 Z"
           inkscape:connector-curvature="0"
           style="fill:#000000" />
        <path
           id="path839"
           d="m 166.8,44.2 c 0,8.8 -7.1,15.7 -16.4,15.7 -9.3,0 -16.4,-6.8 -16.4,-15.7 0,-8.9 7.1,-15.6 16.4,-15.6 9.3,0 16.4,6.8 16.4,15.6 z m -26.8,0 c 0,5.8 4.8,10.4 10.5,10.4 5.6,0 10.3,-4.6 10.3,-10.4 0,-5.8 -4.7,-10.3 -10.3,-10.3 -5.7,0 -10.5,4.5 -10.5,10.3 z"
           inkscape:connector-curvature="0"
           style="fill:#000000" />
        <path
           id="path841"
           d="m 192.9,28.8 v 30.8 h -3.5 V 28.8 Z"
           inkscape:connector-curvature="0"
           style="fill:#000000" />
        <path
           id="path843"
           d="m 209.2,28.8 18.5,25 v -25 h 3.5 v 30.8 h -3.6 l -18.5,-25 v 25 h -3.5 V 28.8 Z"
           inkscape:connector-curvature="0"
           style="fill:#000000" />
        <path
           id="path845"
           d="m 247.3,28.8 v 30.8 h -3.5 V 28.8 Z"
           inkscape:connector-curvature="0"
           style="fill:#000000" />
        <path
           id="path847"
           d="m 279.4,28.8 v 3.3 h -10.1 v 27.5 h -3.5 V 32.1 h -10 v -3.3 z"
           inkscape:connector-curvature="0"
           style="fill:#000000" />
        <path
           id="path849"
           d="m 291.3,28.8 v 30.8 h -3.5 V 28.8 Z"
           inkscape:connector-curvature="0"
           style="fill:#000000" />
        <path
           id="path851"
           d="m 323.4,51.8 h -16.8 l -3.4,7.9 h -3.7 l 13.8,-30.8 h 3.7 l 13.8,30.8 H 327 Z m -1.4,-3.3 -7,-15.8 -6.9,15.8 z"
           inkscape:connector-curvature="0"
           style="fill:#000000" />
        <path
           id="path853"
           d="m 355.4,28.8 v 3.3 h -10.1 v 27.5 h -3.5 V 32.1 h -10 v -3.3 z"
           inkscape:connector-curvature="0"
           style="fill:#000000" />
        <path
           id="path855"
           d="m 367.3,28.8 v 30.8 h -3.5 V 28.8 Z"
           inkscape:connector-curvature="0"
           style="fill:#000000" />
        <path
           id="path857"
           d="m 379.3,28.8 10.6,26.8 10.6,-26.8 h 3.7 L 391.6,59.6 H 388 L 375.5,28.8 Z"
           inkscape:connector-curvature="0"
           style="fill:#000000" />
        <path
           id="path859"
           d="m 433.4,28.8 v 3.3 H 416 v 10.3 h 15.5 v 3.2 H 416 v 10.7 h 18 v 3.3 H 412.5 V 28.8 Z"
           inkscape:connector-curvature="0"
           style="fill:#000000" />
      </g>
      <g
         id="g867"
         style="fill:#000000">
        <g
           id="g865"
           style="fill:#000000">
          <path
             id="path863"
             d="m 63.4,39.1 c 4.2,4.2 6.9,9.4 8.2,14.8 l 12,-12 L 41.8,0 0,41.8 12,53.8 C 13.2,48.4 16,43.2 20.2,39 32.1,27.1 51.5,27.1 63.4,39.1 Z"
             inkscape:connector-curvature="0"
             style="fill:#000000" />
        </g>
      </g>
      <g
         id="g871"
         style="fill:#000000">
        <path
           id="path869"
           d="m 44,46.9 c -0.9,0.9 -1.6,1.9 -2.2,2.9 -0.6,-1 -1.3,-2 -2.2,-2.9 -4.8,-4.8 -12.5,-4.8 -17.3,0 -4.8,4.8 -4.8,12.5 0,17.3 L 41.7,83.6 61.1,64.2 c 4.8,-4.8 4.8,-12.5 0,-17.3 -4.8,-4.8 -12.4,-4.8 -17.1,0 z"
           class="st0"
           inkscape:connector-curvature="0"
           style="fill:#000000" />
      </g>
    </g>
  </g>
</svg>
