<?xml version="1.0" encoding="UTF-8" standalone="no"?>
<!-- Created with Inkscape (http://www.inkscape.org/) -->

<svg
   xmlns:dc="http://purl.org/dc/elements/1.1/"
   xmlns:cc="http://creativecommons.org/ns#"
   xmlns:rdf="http://www.w3.org/1999/02/22-rdf-syntax-ns#"
   xmlns:svg="http://www.w3.org/2000/svg"
   xmlns="http://www.w3.org/2000/svg"
   xmlns:sodipodi="http://sodipodi.sourceforge.net/DTD/sodipodi-0.dtd"
   xmlns:inkscape="http://www.inkscape.org/namespaces/inkscape"
   width="479.68686"
   height="255.4292"
   viewBox="0 0 126.91715 67.582301"
   version="1.1"
   id="svg8"
   inkscape:version="0.92.3 (2405546, 2018-03-11)"
   sodipodi:docname="vertical_black.svg"
   inkscape:export-filename="/home/anxhelo/works/LO Initiative/PNG/vertical_black.png"
   inkscape:export-xdpi="96"
   inkscape:export-ydpi="96">
  <defs
     id="defs2" />
  <sodipodi:namedview
     id="base"
     pagecolor="#ffffff"
     bordercolor="#666666"
     borderopacity="1.0"
     inkscape:pageopacity="0"
     inkscape:pageshadow="2"
     inkscape:zoom="0.74199837"
     inkscape:cx="198.43878"
     inkscape:cy="47.43706"
     inkscape:document-units="px"
     inkscape:current-layer="layer1"
     inkscape:document-rotation="0"
     showgrid="false"
     borderlayer="true"
     inkscape:showpageshadow="true"
     units="px"
     inkscape:pagecheckerboard="false"
     showguides="true"
     inkscape:window-width="1366"
     inkscape:window-height="715"
     inkscape:window-x="0"
     inkscape:window-y="0"
     inkscape:window-maximized="1"
     objecttolerance="10"
     guidetolerance="10"
     inkscape:snap-tangential="true"
     inkscape:snap-perpendicular="true"
     fit-margin-top="0"
     fit-margin-left="0"
     fit-margin-right="0"
     fit-margin-bottom="0">
    <inkscape:grid
       type="xygrid"
       id="grid10"
       dotted="false"
       originx="-127.89504"
       originy="-117.08717" />
  </sodipodi:namedview>
  <metadata
     id="metadata5">
    <rdf:RDF>
      <cc:Work
         rdf:about="">
        <dc:format>image/svg+xml</dc:format>
        <dc:type
           rdf:resource="http://purl.org/dc/dcmitype/StillImage" />
        <dc:title></dc:title>
        <cc:license
           rdf:resource="" />
      </cc:Work>
    </rdf:RDF>
  </metadata>
  <g
     inkscape:label="Layer 1"
     inkscape:groupmode="layer"
     id="layer1"
     transform="translate(-127.89503,-112.33052)">
    <g
       id="g940"
       transform="matrix(0.39087509,0,0,0.39087509,127.89503,112.33052)"
       style="fill:#000000">
      <g
         id="g928"
         style="fill:#000000">
        <path
           id="path904"
           d="m 5.9,141.8 v 25.5 h 13.3 v 5.3 H 0 v -30.8 z"
           inkscape:connector-curvature="0"
           style="fill:#000000" />
        <path
           id="path906"
           d="m 57.5,157.2 c 0,8.8 -7.1,15.7 -16.4,15.7 -9.3,0 -16.4,-6.8 -16.4,-15.7 0,-8.9 7.1,-15.6 16.4,-15.6 9.3,0 16.4,6.8 16.4,15.6 z m -26.8,0 c 0,5.8 4.8,10.4 10.5,10.4 5.6,0 10.3,-4.6 10.3,-10.4 0,-5.8 -4.7,-10.3 -10.3,-10.3 -5.7,0 -10.5,4.5 -10.5,10.3 z"
           inkscape:connector-curvature="0"
           style="fill:#000000" />
        <path
           id="path908"
           d="m 83.6,141.8 v 30.8 h -3.5 v -30.8 z"
           inkscape:connector-curvature="0"
           style="fill:#000000" />
        <path
           id="path910"
           d="m 99.9,141.8 18.5,25 v -25 h 3.5 v 30.8 h -3.6 l -18.5,-25 v 25 h -3.5 v -30.8 z"
           inkscape:connector-curvature="0"
           style="fill:#000000" />
        <path
           id="path912"
           d="m 138,141.8 v 30.8 h -3.5 v -30.8 z"
           inkscape:connector-curvature="0"
           style="fill:#000000" />
        <path
           id="path914"
           d="m 170.1,141.8 v 3.3 H 160 v 27.5 h -3.5 v -27.5 h -10 v -3.3 z"
           inkscape:connector-curvature="0"
           style="fill:#000000" />
        <path
           id="path916"
           d="m 182,141.8 v 30.8 h -3.5 v -30.8 z"
           inkscape:connector-curvature="0"
           style="fill:#000000" />
        <path
           id="path918"
           d="m 214.1,164.8 h -16.8 l -3.4,7.9 h -3.7 L 204,141.9 h 3.7 l 13.8,30.8 h -3.8 z m -1.4,-3.3 -7,-15.8 -6.9,15.8 z"
           inkscape:connector-curvature="0"
           style="fill:#000000" />
        <path
           id="path920"
           d="m 246.1,141.8 v 3.3 H 236 v 27.5 h -3.5 v -27.5 h -10 v -3.3 z"
           inkscape:connector-curvature="0"
           style="fill:#000000" />
        <path
           id="path922"
           d="m 258,141.8 v 30.8 h -3.5 v -30.8 z"
           inkscape:connector-curvature="0"
           style="fill:#000000" />
        <path
           id="path924"
           d="m 270,141.8 10.6,26.8 10.6,-26.8 h 3.7 l -12.6,30.8 h -3.7 l -12.5,-30.8 z"
           inkscape:connector-curvature="0"
           style="fill:#000000" />
        <path
           id="path926"
           d="m 324.1,141.8 v 3.3 h -17.4 v 10.3 h 15.5 v 3.2 h -15.5 v 10.7 h 18 v 3.3 h -21.5 v -30.8 z"
           inkscape:connector-curvature="0"
           style="fill:#000000" />
      </g>
      <g
         id="g934"
         style="fill:#000000">
        <g
           id="g932"
           style="fill:#000000">
          <path
             id="path930"
             d="m 191.9,54.6 c 5.9,5.9 9.7,13.1 11.4,20.7 L 220.1,58.5 161.7,0 103.2,58.5 120,75.3 c 1.7,-7.6 5.5,-14.8 11.4,-20.7 16.8,-16.6 43.8,-16.6 60.5,0 z"
             inkscape:connector-curvature="0"
             style="fill:#000000" />
        </g>
      </g>
      <g
         id="g938"
         style="fill:#000000">
        <path
           id="path936"
           d="m 164.7,65.6 c -1.2,1.2 -2.2,2.6 -3,4.1 -0.8,-1.5 -1.8,-2.8 -3,-4.1 -6.7,-6.7 -17.5,-6.7 -24.2,0 -6.7,6.7 -6.7,17.5 0,24.2 l 27.2,27.2 27.2,-27.2 c 6.7,-6.7 6.7,-17.5 0,-24.2 -6.7,-6.6 -17.5,-6.6 -24.2,0 z"
           class="st0"
           inkscape:connector-curvature="0"
           style="fill:#000000" />
      </g>
    </g>
  </g>
</svg>
