<?xml version="1.0" encoding="UTF-8" standalone="no"?>
<!-- Created with Inkscape (http://www.inkscape.org/) -->

<svg
   xmlns:dc="http://purl.org/dc/elements/1.1/"
   xmlns:cc="http://creativecommons.org/ns#"
   xmlns:rdf="http://www.w3.org/1999/02/22-rdf-syntax-ns#"
   xmlns:svg="http://www.w3.org/2000/svg"
   xmlns="http://www.w3.org/2000/svg"
   xmlns:sodipodi="http://sodipodi.sourceforge.net/DTD/sodipodi-0.dtd"
   xmlns:inkscape="http://www.inkscape.org/namespaces/inkscape"
   width="61.887306mm"
   height="61.887291mm"
   viewBox="0 0 61.887306 61.887291"
   version="1.1"
   id="svg4542"
   inkscape:version="0.92.1 r"
   sodipodi:docname="icon white.svg"
   inkscape:export-filename="/home/anxhelo/valueflows/icon color.png"
   inkscape:export-xdpi="177.61"
   inkscape:export-ydpi="177.61">
  <defs
     id="defs4536" />
  <sodipodi:namedview
     id="base"
     pagecolor="#ffffff"
     bordercolor="#666666"
     borderopacity="1.0"
     inkscape:pageopacity="0.0"
     inkscape:pageshadow="2"
     inkscape:zoom="0.35"
     inkscape:cx="-365.33333"
     inkscape:cy="260.3809"
     inkscape:document-units="mm"
     inkscape:current-layer="layer1"
     showgrid="false"
     fit-margin-top="0"
     fit-margin-left="0"
     fit-margin-right="0"
     fit-margin-bottom="0"
     inkscape:window-width="1366"
     inkscape:window-height="744"
     inkscape:window-x="0"
     inkscape:window-y="0"
     inkscape:window-maximized="1" />
  <metadata
     id="metadata4539">
    <rdf:RDF>
      <cc:Work
         rdf:about="">
        <dc:format>image/svg+xml</dc:format>
        <dc:type
           rdf:resource="http://purl.org/dc/dcmitype/StillImage" />
        <dc:title></dc:title>
      </cc:Work>
    </rdf:RDF>
  </metadata>
  <g
     inkscape:label="Layer 1"
     inkscape:groupmode="layer"
     id="layer1"
     transform="translate(-76.250395,-155.83849)">
    <path
       d="m 123.43198,182.10316 c -4.25975,3.23861 -9.53564,12.80567 -9.57258,18.15694 -0.007,1.08003 0.74016,3.04745 0.74016,4.19935 0,4.09004 -3.31546,7.4055 -7.40552,7.4055 -4.09005,0 -7.405506,-3.31546 -7.405506,-7.4055 0,-1.1519 0.747636,-3.11932 0.740156,-4.19935 -0.0369,-5.35127 -5.312829,-14.91833 -9.572574,-18.15694 -2.762972,-2.10068 -5.97811,-3.66383 -5.97811,-7.26477 0,-4.09006 3.315458,-7.40552 7.405504,-7.40552 4.089552,0 7.405024,3.31546 7.405024,7.40552 0,1.1519 -0.747637,2.62271 -0.740153,3.70276 0.03197,4.55321 4.442899,18.51327 8.145659,18.51327 3.70276,0 8.11373,-13.96006 8.14567,-18.51327 0.007,-1.08005 -0.74015,-2.55086 -0.74015,-3.70276 0,-4.09006 3.31546,-7.40552 7.40501,-7.40552 4.09006,0 7.40552,3.31546 7.40552,7.40552 0,3.60094 -3.21514,5.16409 -5.97811,7.26477 m -16.23794,-26.26467 c -17.08987,0 -30.943645,13.85427 -30.943645,30.94364 0,17.08989 13.853775,30.94365 30.943645,30.94365 17.08988,0 30.94366,-13.85376 30.94366,-30.94365 0,-17.08937 -13.85378,-30.94364 -30.94366,-30.94364"
       style="fill:#34acb0;fill-opacity:1;fill-rule:nonzero;stroke:none;stroke-width:0.49909109"
       id="path42"
       inkscape:connector-curvature="0" />
  </g>
</svg>
