<?xml version="1.0" encoding="UTF-8" standalone="no"?>
<!-- Created with Inkscape (http://www.inkscape.org/) -->

<svg
   xmlns:dc="http://purl.org/dc/elements/1.1/"
   xmlns:cc="http://creativecommons.org/ns#"
   xmlns:rdf="http://www.w3.org/1999/02/22-rdf-syntax-ns#"
   xmlns:svg="http://www.w3.org/2000/svg"
   xmlns="http://www.w3.org/2000/svg"
   xmlns:sodipodi="http://sodipodi.sourceforge.net/DTD/sodipodi-0.dtd"
   xmlns:inkscape="http://www.inkscape.org/namespaces/inkscape"
   width="121.54852mm"
   height="65.33345mm"
   viewBox="0 0 121.54852 65.333452"
   version="1.1"
   id="svg4542"
   inkscape:version="0.92.1 r"
   sodipodi:docname="vertical color.svg"
   inkscape:export-filename="/home/anxhelo/valueflows/horizontal white.png"
   inkscape:export-xdpi="177.61"
   inkscape:export-ydpi="177.61">
  <defs
     id="defs4536" />
  <sodipodi:namedview
     id="base"
     pagecolor="#ffffff"
     bordercolor="#666666"
     borderopacity="1.0"
     inkscape:pageopacity="0.0"
     inkscape:pageshadow="2"
     inkscape:zoom="0.7"
     inkscape:cx="-109.89142"
     inkscape:cy="333.36286"
     inkscape:document-units="mm"
     inkscape:current-layer="layer1"
     showgrid="false"
     fit-margin-top="0"
     fit-margin-left="0"
     fit-margin-right="0"
     fit-margin-bottom="0"
     inkscape:window-width="1366"
     inkscape:window-height="744"
     inkscape:window-x="0"
     inkscape:window-y="0"
     inkscape:window-maximized="1" />
  <metadata
     id="metadata4539">
    <rdf:RDF>
      <cc:Work
         rdf:about="">
        <dc:format>image/svg+xml</dc:format>
        <dc:type
           rdf:resource="http://purl.org/dc/dcmitype/StillImage" />
        <dc:title></dc:title>
      </cc:Work>
    </rdf:RDF>
  </metadata>
  <g
     inkscape:label="Layer 1"
     inkscape:groupmode="layer"
     id="layer1"
     transform="translate(-10.620879,-175.34205)">
    <path
       d="m 90.445142,181.69205 c 0,-3.50696 -2.843038,-6.35 -6.35,-6.35 -3.506965,0 -6.350001,2.84304 -6.350001,6.35 0,0.98778 0.640998,2.24896 0.634648,3.175 -0.02716,3.90454 -3.809648,15.875 -6.984648,15.875 -3.174999,0 -6.957483,-11.97046 -6.984647,-15.875 -0.0064,-0.92604 0.634648,-2.18722 0.634648,-3.175 0,-3.50696 -2.843036,-6.35 -6.35,-6.35 -3.506964,0 -6.35,2.84304 -6.35,6.35 0,3.08786 2.756958,4.42807 5.126214,6.22935 3.652661,2.77742 8.176683,10.98091 8.208433,15.56949 0.0063,0.92605 -0.634647,2.61303 -0.634647,3.60116 0,3.50696 2.843036,6.35 6.349999,6.35 3.506964,0 6.35,-2.84304 6.35,-6.35 0,-0.98813 -0.640997,-2.67511 -0.634647,-3.60116 0.03175,-4.58858 4.555773,-12.79207 8.208433,-15.56949 2.369257,-1.80128 5.126215,-3.14149 5.126215,-6.22935"
       style="fill:#34acb0;fill-opacity:1;fill-rule:nonzero;stroke:none;stroke-width:0.35277775"
       id="path26"
       inkscape:connector-curvature="0" />
    <text
       y="240.3707"
       x="10.468479"
       style="font-variant:normal;font-weight:normal;font-stretch:normal;font-size:25.39999962px;font-family:'Fira Sans OT';-inkscape-font-specification:FiraSansOT;writing-mode:lr-tb;fill:#808285;fill-opacity:1;fill-rule:nonzero;stroke:none;stroke-width:0.35277775"
       id="text30">
      <tspan
         sodipodi:role="line"
         id="tspan28"
         style="font-style:normal;font-variant:normal;font-weight:normal;font-stretch:normal;font-family:'Fira Sans';-inkscape-font-specification:'Fira Sans';stroke-width:0.35277775"
         x="10.468479"
         y="240.3707">Valueflows</tspan>
    </text>
  </g>
</svg>
