<?xml version="1.0" encoding="UTF-8" standalone="no"?>
<!-- Generator: Adobe Illustrator 17.0.0, SVG Export Plug-In . SVG Version: 6.00 Build 0)  -->

<svg
   xmlns:dc="http://purl.org/dc/elements/1.1/"
   xmlns:cc="http://creativecommons.org/ns#"
   xmlns:rdf="http://www.w3.org/1999/02/22-rdf-syntax-ns#"
   xmlns:svg="http://www.w3.org/2000/svg"
   xmlns="http://www.w3.org/2000/svg"
   xmlns:sodipodi="http://sodipodi.sourceforge.net/DTD/sodipodi-0.dtd"
   xmlns:inkscape="http://www.inkscape.org/namespaces/inkscape"
   version="1.1"
   id="Layer_1"
   x="0px"
   y="0px"
   width="65.637001"
   height="92.782997"
   viewBox="0 0 65.637 92.783"
   enable-background="new 0 0 358.716 92.783"
   xml:space="preserve"
   sodipodi:docname="Logo.svg"
   inkscape:export-filename="/home/anxhelo/Downloads/white horizontal.png"
   inkscape:export-xdpi="95.919998"
   inkscape:export-ydpi="95.919998"
   inkscape:version="0.92.1 r"><metadata
     id="metadata5913"><rdf:RDF><cc:Work
         rdf:about=""><dc:format>image/svg+xml</dc:format><dc:type
           rdf:resource="http://purl.org/dc/dcmitype/StillImage" /><dc:title></dc:title></cc:Work></rdf:RDF></metadata><defs
     id="defs5911" /><sodipodi:namedview
     pagecolor="#ffffff"
     bordercolor="#666666"
     borderopacity="1"
     objecttolerance="10"
     gridtolerance="10"
     guidetolerance="10"
     inkscape:pageopacity="0"
     inkscape:pageshadow="2"
     inkscape:window-width="1366"
     inkscape:window-height="716"
     id="namedview5909"
     showgrid="false"
     inkscape:zoom="1.7005096"
     inkscape:cx="108.33201"
     inkscape:cy="101.3461"
     inkscape:window-x="0"
     inkscape:window-y="24"
     inkscape:window-maximized="1"
     inkscape:current-layer="g5906" /><g
     id="g5906"><g
       id="g28_2_"><g
         id="g5877"><g
           id="g5867"><path
             d="m 55.855,76.795 c 0,1.331 10.329,2.091 9.759,-0.317 -0.825,-4.055 -8.619,-3.738 -9.759,0.317 z"
             id="path5865"
             inkscape:connector-curvature="0" /></g><g
           id="g5871"><path
             d="m 54.587,79.583 c -2.915,2.661 0.507,5.45 3.358,3.612 0.761,-0.507 -0.063,-2.978 -3.358,-3.612 z"
             id="path5869"
             inkscape:connector-curvature="0" /></g><g
           id="g5875"><path
             d="m 10.922,82.936 c 2.345,2.028 5.893,-0.444 7.034,-3.295 -2.282,-2.978 -10.709,0.19 -7.034,3.295 z"
             id="path5873"
             inkscape:connector-curvature="0" /></g></g></g><g
       id="g5900"><g
         id="g5882"><rect
           x="0"
           y="28.125999"
           width="8.0360003"
           height="32.144001"
           id="rect5880" /></g><g
         id="g5886"><rect
           x="48.216"
           y="28.125999"
           width="8.0360003"
           height="32.144001"
           id="rect5884" /></g><g
         id="g5890"><rect
           x="32.144001"
           y="28.125999"
           width="8.0360003"
           height="32.144001"
           id="rect5888" /></g><g
         id="g5894"><rect
           x="16.072001"
           y="28.125999"
           width="8.0360003"
           height="32.144001"
           id="rect5892" /></g><g
         id="g5898"><polygon
           points="0,16.072 0,24.108 56.252,24.108 56.252,16.072 28.126,0 "
           id="polygon5896" /></g></g><g
       id="g5904"><path
         d="m 0,64.436 v 7.551 c 0,4.575 9.468,4.387 15.03,2.725 3.532,-1.056 7.266,0.031 7.685,3.333 0.386,3.042 -5.937,4.9 -3.859,7.036 2.241,2.369 7.62,0.128 8.581,5.507 0.704,3.97 9.861,1.985 13.96,-1.409 C 43.958,87 36.978,87 39.283,84.631 45.046,78.804 56.271,76.155 56.271,71.986 V 64.435 H 0 Z"
         id="path5902"
         inkscape:connector-curvature="0" /></g></g></svg>