<?xml version="1.0" encoding="UTF-8" standalone="no"?>
<!-- Created with Inkscape (http://www.inkscape.org/) -->

<svg
   xmlns:dc="http://purl.org/dc/elements/1.1/"
   xmlns:cc="http://creativecommons.org/ns#"
   xmlns:rdf="http://www.w3.org/1999/02/22-rdf-syntax-ns#"
   xmlns:svg="http://www.w3.org/2000/svg"
   xmlns="http://www.w3.org/2000/svg"
   xmlns:sodipodi="http://sodipodi.sourceforge.net/DTD/sodipodi-0.dtd"
   xmlns:inkscape="http://www.inkscape.org/namespaces/inkscape"
   width="643.92535"
   height="171.3199"
   viewBox="0 0 170.37192 45.328388"
   version="1.1"
   id="svg8"
   inkscape:version="0.92+devel unknown"
   sodipodi:docname="horizontal_white.svg"
   inkscape:export-filename="/home/anxhelo/Desktop/Design/GoCollect/horizontal_color.png"
   inkscape:export-xdpi="96"
   inkscape:export-ydpi="96">
  <defs
     id="defs2" />
  <sodipodi:namedview
     id="base"
     pagecolor="#ffffff"
     bordercolor="#666666"
     borderopacity="1.0"
     inkscape:pageopacity="0.0"
     inkscape:pageshadow="2"
     inkscape:zoom="0.7"
     inkscape:cx="355.76377"
     inkscape:cy="-104.88814"
     inkscape:document-units="mm"
     inkscape:current-layer="layer1"
     inkscape:document-rotation="0"
     showgrid="true"
     borderlayer="true"
     inkscape:showpageshadow="false"
     units="px"
     inkscape:pagecheckerboard="false"
     showguides="true"
     inkscape:window-width="1360"
     inkscape:window-height="713"
     inkscape:window-x="0"
     inkscape:window-y="0"
     inkscape:window-maximized="0"
     fit-margin-top="0"
     fit-margin-left="0"
     fit-margin-right="0"
     fit-margin-bottom="0">
    <inkscape:grid
       type="xygrid"
       id="grid10"
       originx="-134.58828"
       originy="-90.530674" />
  </sodipodi:namedview>
  <metadata
     id="metadata5">
    <rdf:RDF>
      <cc:Work
         rdf:about="">
        <dc:format>image/svg+xml</dc:format>
        <dc:type
           rdf:resource="http://purl.org/dc/dcmitype/StillImage" />
        <dc:title></dc:title>
      </cc:Work>
    </rdf:RDF>
  </metadata>
  <g
     inkscape:label="Layer 1"
     inkscape:groupmode="layer"
     id="layer1"
     transform="translate(-134.58828,-161.14094)">
    <g
       id="g5062"
       transform="translate(-33.343643,-28.789333)"
       style="fill:#ffffff">
      <g
         transform="matrix(0.69843221,0,0,-0.69843221,231.26611,212.41853)"
         id="g20"
         style="fill:#ffffff">
        <path
           inkscape:connector-curvature="0"
           id="path22"
           style="fill:#ffffff;fill-opacity:1;fill-rule:nonzero;stroke:none"
           d="m 0,0 c 0,3.151 -1.765,4.999 -4.243,4.999 -2.395,0 -4.2,-1.722 -4.2,-5.587 0,-3.613 1.595,-5.167 3.864,-5.167 2.94,0 4.579,2.479 4.579,5.293 z M 5.419,4.789 V -9.073 c 0,-6.05 -3.361,-10.292 -10.46,-10.292 -3.907,0 -7.939,1.302 -9.536,5.671 l 4.159,2.352 c 1.302,-2.436 3.066,-3.739 5.419,-3.739 2.898,0 4.999,2.185 4.999,6.008 v 2.478 c -1.009,-1.932 -2.856,-3.445 -6.218,-3.445 -4.41,0 -8.275,3.151 -8.275,9.116 0,5.629 3.193,10.208 8.528,10.208 2.983,0 4.914,-1.345 5.965,-3.319 V 8.906 H 7.939 V 4.789 Z" />
      </g>
      <g
         transform="matrix(0.69843221,0,0,-0.69843221,244.81736,208.80974)"
         id="g24"
         style="fill:#ffffff">
        <path
           inkscape:connector-curvature="0"
           id="path26"
           style="fill:#ffffff;fill-opacity:1;fill-rule:nonzero;stroke:none"
           d="m 0,0 c -2.772,0 -4.495,-2.1 -4.495,-5.671 0,-3.234 1.513,-5.797 4.453,-5.797 2.814,0 4.663,2.268 4.663,5.881 C 4.621,-1.722 2.563,0 0,0 m -0.21,-15.626 c -5.839,0 -9.872,3.57 -9.872,9.661 0,5.545 3.361,10.124 10.166,10.124 6.848,0 10.124,-4.579 10.124,-9.914 0,-6.007 -4.369,-9.871 -10.418,-9.871" />
      </g>
      <g
         transform="matrix(0.69843221,0,0,-0.69843221,259.74838,219.72378)"
         id="g28"
         style="fill:#ffffff">
        <path
           inkscape:connector-curvature="0"
           id="path30"
           style="fill:#ffffff;fill-opacity:1;fill-rule:nonzero;stroke:none"
           d="m 0,0 c -5.461,0 -9.452,3.192 -9.452,9.578 0,6.721 4.411,10.165 9.914,10.165 2.101,0 4.537,-0.504 6.848,-1.722 l 0.839,-5.755 -4.327,-0.462 -0.63,3.109 c -1.007,0.336 -1.974,0.545 -2.856,0.545 -2.311,0 -4.159,-1.638 -4.159,-5.628 0,-3.487 1.428,-5.545 4.327,-5.545 2.184,0 3.36,1.302 3.738,4.032 L 8.779,7.477 C 8.401,4.033 6.091,0 0,0" />
      </g>
      <g
         transform="matrix(0.69843221,0,0,-0.69843221,273.97482,208.80974)"
         id="g32"
         style="fill:#ffffff">
        <path
           inkscape:connector-curvature="0"
           id="path34"
           style="fill:#ffffff;fill-opacity:1;fill-rule:nonzero;stroke:none"
           d="m 0,0 c -2.772,0 -4.495,-2.1 -4.495,-5.671 0,-3.234 1.513,-5.797 4.453,-5.797 2.814,0 4.663,2.268 4.663,5.881 C 4.621,-1.722 2.563,0 0,0 m -0.21,-15.626 c -5.839,0 -9.872,3.57 -9.872,9.661 0,5.545 3.361,10.124 10.166,10.124 6.848,0 10.124,-4.579 10.124,-9.914 0,-6.007 -4.369,-9.871 -10.418,-9.871" />
      </g>
      <g
         transform="matrix(0.69843221,0,0,-0.69843221,282.21617,219.43044)"
         id="g36"
         style="fill:#ffffff">
        <path
           inkscape:connector-curvature="0"
           id="path38"
           style="fill:#ffffff;fill-opacity:1;fill-rule:nonzero;stroke:none"
           d="M 0,0 V 4.075 H 2.521 V 24.784 H -0.21 v 4.117 H 7.939 V 4.075 H 10.46 V 0 Z" />
      </g>
      <g
         transform="matrix(0.69843221,0,0,-0.69843221,290.57627,219.43044)"
         id="g40"
         style="fill:#ffffff">
        <path
           inkscape:connector-curvature="0"
           id="path42"
           style="fill:#ffffff;fill-opacity:1;fill-rule:nonzero;stroke:none"
           d="M 0,0 V 4.075 H 2.521 V 24.784 H -0.21 v 4.117 H 7.939 V 4.075 H 10.46 V 0 Z" />
      </g>
      <g
         transform="matrix(0.69843221,0,0,-0.69843221,305.65529,208.63345)"
         id="g44"
         style="fill:#ffffff">
        <path
           inkscape:connector-curvature="0"
           id="path46"
           style="fill:#ffffff;fill-opacity:1;fill-rule:nonzero;stroke:none"
           d="M 0,0 C -2.227,0 -3.444,-1.597 -3.781,-3.949 H 3.318 C 3.57,-2.059 2.563,0 0,0 m 0.252,-15.879 c -5.629,0 -9.746,3.192 -9.746,9.536 0,5.839 3.487,10.207 9.494,10.207 5.251,0 8.821,-3.318 8.905,-8.233 0,-0.84 -0.084,-1.764 -0.294,-2.731 H -3.823 c 0.295,-2.94 1.722,-4.494 4.453,-4.494 2.898,0 3.696,1.806 3.907,2.94 l 4.536,-0.84 c -0.252,-3.36 -3.36,-6.385 -8.821,-6.385" />
      </g>
      <g
         transform="matrix(0.69843221,0,0,-0.69843221,319.7938,219.72378)"
         id="g48"
         style="fill:#ffffff">
        <path
           inkscape:connector-curvature="0"
           id="path50"
           style="fill:#ffffff;fill-opacity:1;fill-rule:nonzero;stroke:none"
           d="m 0,0 c -5.461,0 -9.452,3.192 -9.452,9.578 0,6.721 4.411,10.165 9.914,10.165 2.101,0 4.537,-0.504 6.848,-1.722 l 0.839,-5.755 -4.327,-0.462 -0.63,3.109 c -1.007,0.336 -1.974,0.545 -2.856,0.545 -2.311,0 -4.159,-1.638 -4.159,-5.628 0,-3.487 1.428,-5.545 4.327,-5.545 2.184,0 3.36,1.302 3.738,4.032 L 8.779,7.477 C 8.401,4.033 6.091,0 0,0" />
      </g>
      <g
         transform="matrix(0.69843221,0,0,-0.69843221,333.375,219.72378)"
         id="g52"
         style="fill:#ffffff">
        <path
           inkscape:connector-curvature="0"
           id="path54"
           style="fill:#ffffff;fill-opacity:1;fill-rule:nonzero;stroke:none"
           d="M 0,0 C -4.201,0 -7.058,2.184 -7.058,6.091 V 15.5 h -2.688 v 3.865 h 2.688 v 5.755 h 5.419 V 19.365 H 5.167 V 15.5 H -1.639 V 7.015 c 0,-1.806 0.924,-2.478 2.269,-2.478 0.672,0 2.142,0.168 2.478,2.982 L 7.057,6.301 C 6.511,1.932 3.948,0 0,0" />
      </g>
      <g
         transform="matrix(0.69843221,0,0,-0.69843221,213.26031,205.23236)"
         id="g92"
         style="fill:#ffffff">
        <path
           inkscape:connector-curvature="0"
           id="path94"
           style="fill:#ffffff;fill-opacity:1;fill-rule:nonzero;stroke:none"
           d="m 0,0 -5.27,5.27 -10.541,-10.54 -5.27,-5.271 5.27,-5.27 10.541,-10.541 5.27,5.271 -10.541,10.54 z" />
      </g>
      <g
         transform="matrix(0.69843221,0,0,-0.69843221,186.91497,224.21575)"
         id="g96"
         style="fill:#ffffff">
        <path
           inkscape:connector-curvature="0"
           id="path98"
           style="fill:#ffffff;fill-opacity:1;fill-rule:nonzero;stroke:none"
           d="m 0,0 -10.541,-10.541 5.271,-5.27 10.54,10.541 10.541,-10.541 5.27,5.27 L 5.27,5.27 Z" />
      </g>
      <g
         transform="matrix(0.69843221,0,0,-0.69843221,182.65557,212.5944)"
         id="g100"
         style="fill:#ffffff">
        <path
           inkscape:connector-curvature="0"
           id="path102"
           style="fill:#ffffff;fill-opacity:1;fill-rule:nonzero;stroke:none"
           d="m 0,0 -5.27,5.27 -10.541,10.541 -5.27,-5.27 10.54,-10.541 -10.54,-10.541 5.27,-5.27 10.541,10.541 z" />
      </g>
      <g
         transform="matrix(0.69843221,0,0,-0.69843221,190.59599,204.65392)"
         id="g104"
         style="fill:#ffffff">
        <path
           inkscape:connector-curvature="0"
           id="path106"
           style="fill:#ffffff;fill-opacity:1;fill-rule:nonzero;stroke:none"
           d="m 0,0 15.811,15.811 -5.27,5.27 L 0,10.541 -10.541,21.081 -15.811,15.811 -5.27,5.27 Z" />
      </g>
      <g
         transform="matrix(0.69843221,0,0,-0.69843221,192.0594,214.05781)"
         id="g108"
         style="fill:#ffffff">
        <path
           inkscape:connector-curvature="0"
           id="path110"
           style="fill:#ffffff;fill-opacity:1;fill-rule:nonzero;stroke:none"
           d="m 0,0 c -1.155,-1.155 -3.035,-1.155 -4.191,0 -1.155,1.155 -1.155,3.035 0,4.191 1.156,1.155 3.036,1.155 4.191,0 C 1.155,3.035 1.155,1.155 0,0 m -8.381,8.381 c -3.472,-3.471 -3.472,-9.1 0,-12.572 3.471,-3.471 9.1,-3.471 12.572,0 3.471,3.472 3.471,9.101 0,12.572 -3.472,3.472 -9.101,3.472 -12.572,0" />
      </g>
    </g>
  </g>
</svg>
