<?xml version="1.0" encoding="UTF-8" standalone="no"?>
<!-- Created with Inkscape (http://www.inkscape.org/) -->

<svg
   xmlns:dc="http://purl.org/dc/elements/1.1/"
   xmlns:cc="http://creativecommons.org/ns#"
   xmlns:rdf="http://www.w3.org/1999/02/22-rdf-syntax-ns#"
   xmlns:svg="http://www.w3.org/2000/svg"
   xmlns="http://www.w3.org/2000/svg"
   xmlns:sodipodi="http://sodipodi.sourceforge.net/DTD/sodipodi-0.dtd"
   xmlns:inkscape="http://www.inkscape.org/namespaces/inkscape"
   width="175.33836"
   height="175.33835"
   viewBox="0 0 46.39161 46.391602"
   version="1.1"
   id="svg8"
   inkscape:version="0.92+devel unknown"
   sodipodi:docname="icon_white.svg"
   inkscape:export-filename="/home/anxhelo/Desktop/Design/GoCollect/icon_color.png"
   inkscape:export-xdpi="96"
   inkscape:export-ydpi="96">
  <defs
     id="defs2" />
  <sodipodi:namedview
     id="base"
     pagecolor="#ffffff"
     bordercolor="#666666"
     borderopacity="1.0"
     inkscape:pageopacity="0.0"
     inkscape:pageshadow="2"
     inkscape:zoom="0.35"
     inkscape:cx="75.357866"
     inkscape:cy="19.185935"
     inkscape:document-units="mm"
     inkscape:current-layer="layer1"
     inkscape:document-rotation="0"
     showgrid="true"
     borderlayer="true"
     inkscape:showpageshadow="false"
     units="px"
     inkscape:pagecheckerboard="false"
     showguides="true"
     inkscape:window-width="1360"
     inkscape:window-height="713"
     inkscape:window-x="0"
     inkscape:window-y="0"
     inkscape:window-maximized="0"
     fit-margin-top="0"
     fit-margin-left="0"
     fit-margin-right="0"
     fit-margin-bottom="0">
    <inkscape:grid
       type="xygrid"
       id="grid10"
       originx="-190.2088"
       originy="-93.939528" />
  </sodipodi:namedview>
  <metadata
     id="metadata5">
    <rdf:RDF>
      <cc:Work
         rdf:about="">
        <dc:format>image/svg+xml</dc:format>
        <dc:type
           rdf:resource="http://purl.org/dc/dcmitype/StillImage" />
        <dc:title></dc:title>
      </cc:Work>
    </rdf:RDF>
  </metadata>
  <g
     inkscape:label="Layer 1"
     inkscape:groupmode="layer"
     id="layer1"
     transform="translate(-190.20879,-156.66885)">
    <g
       id="g5318"
       transform="matrix(2.026246,0,0,2.026246,82.790113,-10.66973)"
       style="fill:#ffffff">
      <g
         transform="matrix(0.35277777,0,0,-0.35277777,75.908988,90.3146)"
         id="g92"
         style="fill:#ffffff">
        <path
           inkscape:connector-curvature="0"
           id="path94"
           style="fill:#ffffff;fill-opacity:1;fill-rule:nonzero;stroke:none"
           d="m 0,0 -5.27,5.27 -10.541,-10.54 -5.27,-5.271 5.27,-5.27 10.541,-10.541 5.27,5.271 -10.541,10.54 z" />
      </g>
      <g
         transform="matrix(0.35277777,0,0,-0.35277777,62.601968,99.9031)"
         id="g96"
         style="fill:#ffffff">
        <path
           inkscape:connector-curvature="0"
           id="path98"
           style="fill:#ffffff;fill-opacity:1;fill-rule:nonzero;stroke:none"
           d="m 0,0 -10.541,-10.541 5.271,-5.27 10.54,10.541 10.541,-10.541 5.27,5.27 L 5.27,5.27 Z" />
      </g>
      <g
         transform="matrix(0.35277777,0,0,-0.35277777,60.450548,94.03316)"
         id="g100"
         style="fill:#ffffff">
        <path
           inkscape:connector-curvature="0"
           id="path102"
           style="fill:#ffffff;fill-opacity:1;fill-rule:nonzero;stroke:none"
           d="m 0,0 -5.27,5.27 -10.541,10.541 -5.27,-5.27 10.54,-10.541 -10.54,-10.541 5.27,-5.27 10.541,10.541 z" />
      </g>
      <g
         transform="matrix(0.35277777,0,0,-0.35277777,64.461248,90.02243)"
         id="g104"
         style="fill:#ffffff">
        <path
           inkscape:connector-curvature="0"
           id="path106"
           style="fill:#ffffff;fill-opacity:1;fill-rule:nonzero;stroke:none"
           d="m 0,0 15.811,15.811 -5.27,5.27 L 0,10.541 -10.541,21.081 -15.811,15.811 -5.27,5.27 Z" />
      </g>
      <g
         transform="matrix(0.35277777,0,0,-0.35277777,65.200418,94.77233)"
         id="g108"
         style="fill:#ffffff">
        <path
           inkscape:connector-curvature="0"
           id="path110"
           style="fill:#ffffff;fill-opacity:1;fill-rule:nonzero;stroke:none"
           d="m 0,0 c -1.155,-1.155 -3.035,-1.155 -4.191,0 -1.155,1.155 -1.155,3.035 0,4.191 1.156,1.155 3.036,1.155 4.191,0 C 1.155,3.035 1.155,1.155 0,0 m -8.381,8.381 c -3.472,-3.471 -3.472,-9.1 0,-12.572 3.471,-3.471 9.1,-3.471 12.572,0 3.471,3.472 3.471,9.101 0,12.572 -3.472,3.472 -9.101,3.472 -12.572,0" />
      </g>
    </g>
  </g>
</svg>
