<?xml version="1.0" encoding="UTF-8" standalone="no"?>
<!-- Created with Inkscape (http://www.inkscape.org/) -->

<svg
   xmlns:dc="http://purl.org/dc/elements/1.1/"
   xmlns:cc="http://creativecommons.org/ns#"
   xmlns:rdf="http://www.w3.org/1999/02/22-rdf-syntax-ns#"
   xmlns:svg="http://www.w3.org/2000/svg"
   xmlns="http://www.w3.org/2000/svg"
   xmlns:sodipodi="http://sodipodi.sourceforge.net/DTD/sodipodi-0.dtd"
   xmlns:inkscape="http://www.inkscape.org/namespaces/inkscape"
   width="295.93213"
   height="222.96721"
   viewBox="0 0 78.298711 58.993404"
   version="1.1"
   id="svg8"
   inkscape:version="0.92+devel unknown"
   sodipodi:docname="vertical_white.svg"
   inkscape:export-filename="/home/anxhelo/Desktop/Design/GoCollect/vertical_color.png"
   inkscape:export-xdpi="96"
   inkscape:export-ydpi="96">
  <defs
     id="defs2" />
  <sodipodi:namedview
     id="base"
     pagecolor="#ffffff"
     bordercolor="#666666"
     borderopacity="1.0"
     inkscape:pageopacity="0.0"
     inkscape:pageshadow="2"
     inkscape:zoom="0.35"
     inkscape:cx="108.59404"
     inkscape:cy="48.520616"
     inkscape:document-units="mm"
     inkscape:current-layer="layer1"
     inkscape:document-rotation="0"
     showgrid="true"
     borderlayer="true"
     inkscape:showpageshadow="false"
     units="px"
     inkscape:pagecheckerboard="false"
     showguides="true"
     inkscape:window-width="1360"
     inkscape:window-height="713"
     inkscape:window-x="0"
     inkscape:window-y="0"
     inkscape:window-maximized="0"
     fit-margin-top="0"
     fit-margin-left="0"
     fit-margin-right="0"
     fit-margin-bottom="0">
    <inkscape:grid
       type="xygrid"
       id="grid10"
       originx="-181.41506"
       originy="-86.178066" />
  </sodipodi:namedview>
  <metadata
     id="metadata5">
    <rdf:RDF>
      <cc:Work
         rdf:about="">
        <dc:format>image/svg+xml</dc:format>
        <dc:type
           rdf:resource="http://purl.org/dc/dcmitype/StillImage" />
        <dc:title></dc:title>
      </cc:Work>
    </rdf:RDF>
  </metadata>
  <g
     inkscape:label="Layer 1"
     inkscape:groupmode="layer"
     id="layer1"
     transform="translate(-181.41505,-151.82852)">
    <g
       id="g5226"
       transform="matrix(1.3224544,0,0,1.3224544,-55.295834,-87.491979)"
       style="fill:#ffffff">
      <g
         transform="matrix(0.35277777,0,0,-0.35277777,184.13605,218.74441)"
         id="g56"
         style="fill:#ffffff">
        <path
           inkscape:connector-curvature="0"
           id="path58"
           style="fill:#ffffff;fill-opacity:1;fill-rule:nonzero;stroke:none"
           d="m 0,0 c 0,3.15 -1.765,4.999 -4.243,4.999 -2.395,0 -4.2,-1.723 -4.2,-5.587 0,-3.613 1.595,-5.167 3.864,-5.167 2.94,0 4.579,2.479 4.579,5.293 z M 5.419,4.789 V -9.073 c 0,-6.05 -3.361,-10.292 -10.46,-10.292 -3.907,0 -7.939,1.302 -9.536,5.671 l 4.159,2.352 c 1.302,-2.436 3.066,-3.739 5.419,-3.739 2.898,0 4.999,2.185 4.999,6.008 v 2.478 c -1.009,-1.932 -2.856,-3.445 -6.218,-3.445 -4.41,0 -8.275,3.15 -8.275,9.116 0,5.629 3.193,10.207 8.528,10.207 2.983,0 4.914,-1.344 5.965,-3.318 v 2.94 H 7.939 V 4.789 Z" />
      </g>
      <g
         transform="matrix(0.35277777,0,0,-0.35277777,190.98075,216.9216)"
         id="g60"
         style="fill:#ffffff">
        <path
           inkscape:connector-curvature="0"
           id="path62"
           style="fill:#ffffff;fill-opacity:1;fill-rule:nonzero;stroke:none"
           d="m 0,0 c -2.772,0 -4.495,-2.101 -4.495,-5.671 0,-3.234 1.513,-5.797 4.453,-5.797 2.814,0 4.663,2.268 4.663,5.881 C 4.621,-1.723 2.563,0 0,0 m -0.21,-15.627 c -5.839,0 -9.872,3.57 -9.872,9.662 0,5.545 3.361,10.123 10.166,10.123 6.848,0 10.124,-4.578 10.124,-9.913 0,-6.007 -4.369,-9.872 -10.418,-9.872" />
      </g>
      <g
         transform="matrix(0.35277777,0,0,-0.35277777,198.52243,222.43446)"
         id="g64"
         style="fill:#ffffff">
        <path
           inkscape:connector-curvature="0"
           id="path66"
           style="fill:#ffffff;fill-opacity:1;fill-rule:nonzero;stroke:none"
           d="m 0,0 c -5.461,0 -9.452,3.192 -9.452,9.578 0,6.721 4.411,10.165 9.914,10.165 2.101,0 4.537,-0.504 6.848,-1.722 l 0.839,-5.754 -4.327,-0.463 -0.63,3.109 c -1.007,0.336 -1.974,0.546 -2.856,0.546 -2.311,0 -4.159,-1.639 -4.159,-5.629 0,-3.487 1.428,-5.545 4.327,-5.545 2.184,0 3.36,1.302 3.738,4.032 L 8.779,7.478 C 8.401,4.033 6.091,0 0,0" />
      </g>
      <g
         transform="matrix(0.35277777,0,0,-0.35277777,205.7082,216.9216)"
         id="g68"
         style="fill:#ffffff">
        <path
           inkscape:connector-curvature="0"
           id="path70"
           style="fill:#ffffff;fill-opacity:1;fill-rule:nonzero;stroke:none"
           d="m 0,0 c -2.772,0 -4.495,-2.101 -4.495,-5.671 0,-3.234 1.513,-5.797 4.453,-5.797 2.814,0 4.663,2.268 4.663,5.881 C 4.621,-1.723 2.563,0 0,0 m -0.21,-15.627 c -5.839,0 -9.872,3.57 -9.872,9.662 0,5.545 3.361,10.123 10.166,10.123 6.848,0 10.124,-4.578 10.124,-9.913 0,-6.007 -4.369,-9.872 -10.418,-9.872" />
      </g>
      <g
         transform="matrix(0.35277777,0,0,-0.35277777,209.87091,222.28633)"
         id="g72"
         style="fill:#ffffff">
        <path
           inkscape:connector-curvature="0"
           id="path74"
           style="fill:#ffffff;fill-opacity:1;fill-rule:nonzero;stroke:none"
           d="M 0,0 V 4.075 H 2.521 V 24.784 H -0.21 v 4.117 H 7.939 V 4.075 H 10.46 V 0 Z" />
      </g>
      <g
         transform="matrix(0.35277777,0,0,-0.35277777,214.09355,222.28633)"
         id="g76"
         style="fill:#ffffff">
        <path
           inkscape:connector-curvature="0"
           id="path78"
           style="fill:#ffffff;fill-opacity:1;fill-rule:nonzero;stroke:none"
           d="M 0,0 V 4.075 H 2.521 V 24.784 H -0.21 v 4.117 H 7.939 V 4.075 H 10.46 V 0 Z" />
      </g>
      <g
         transform="matrix(0.35277777,0,0,-0.35277777,221.70999,216.83274)"
         id="g80"
         style="fill:#ffffff">
        <path
           inkscape:connector-curvature="0"
           id="path82"
           style="fill:#ffffff;fill-opacity:1;fill-rule:nonzero;stroke:none"
           d="M 0,0 C -2.227,0 -3.444,-1.597 -3.781,-3.948 H 3.318 C 3.57,-2.059 2.563,0 0,0 m 0.252,-15.879 c -5.629,0 -9.746,3.192 -9.746,9.536 0,5.839 3.487,10.207 9.494,10.207 5.251,0 8.821,-3.318 8.905,-8.233 0,-0.84 -0.084,-1.764 -0.294,-2.731 H -3.823 c 0.295,-2.94 1.722,-4.494 4.453,-4.494 2.898,0 3.696,1.806 3.907,2.941 l 4.536,-0.841 c -0.252,-3.36 -3.36,-6.385 -8.821,-6.385" />
      </g>
      <g
         transform="matrix(0.35277777,0,0,-0.35277777,228.8513,222.43446)"
         id="g84"
         style="fill:#ffffff">
        <path
           inkscape:connector-curvature="0"
           id="path86"
           style="fill:#ffffff;fill-opacity:1;fill-rule:nonzero;stroke:none"
           d="m 0,0 c -5.461,0 -9.452,3.192 -9.452,9.578 0,6.721 4.411,10.165 9.914,10.165 2.101,0 4.537,-0.504 6.848,-1.722 l 0.839,-5.754 -4.327,-0.463 -0.63,3.109 c -1.007,0.336 -1.974,0.546 -2.856,0.546 -2.311,0 -4.159,-1.639 -4.159,-5.629 0,-3.487 1.428,-5.545 4.327,-5.545 2.184,0 3.36,1.302 3.738,4.032 L 8.779,7.478 C 8.401,4.033 6.091,0 0,0" />
      </g>
      <g
         transform="matrix(0.35277777,0,0,-0.35277777,235.71117,222.43446)"
         id="g88"
         style="fill:#ffffff">
        <path
           inkscape:connector-curvature="0"
           id="path90"
           style="fill:#ffffff;fill-opacity:1;fill-rule:nonzero;stroke:none"
           d="m 0,0 c -4.201,0 -7.058,2.185 -7.058,6.091 v 9.41 h -2.688 v 3.864 h 2.688 v 5.755 h 5.419 V 19.365 H 5.167 V 15.501 H -1.639 V 7.016 c 0,-1.807 0.924,-2.479 2.269,-2.479 0.672,0 2.142,0.168 2.478,2.983 L 7.057,6.301 C 6.511,1.933 3.948,0 0,0" />
      </g>
      <g
         transform="matrix(0.35277777,0,0,-0.35277777,222.3379,190.2443)"
         id="g112"
         style="fill:#ffffff">
        <path
           inkscape:connector-curvature="0"
           id="path114"
           style="fill:#ffffff;fill-opacity:1;fill-rule:nonzero;stroke:none"
           d="m 0,0 -6.326,6.326 -12.652,-12.652 -6.326,-6.326 6.326,-6.326 12.652,-12.652 6.326,6.326 -12.652,12.652 z" />
      </g>
      <g
         transform="matrix(0.35277777,0,0,-0.35277777,206.36539,201.75343)"
         id="g116"
         style="fill:#ffffff">
        <path
           inkscape:connector-curvature="0"
           id="path118"
           style="fill:#ffffff;fill-opacity:1;fill-rule:nonzero;stroke:none"
           d="m 0,0 -12.652,-12.652 6.326,-6.326 12.652,12.652 12.652,-12.652 6.326,6.326 L 6.326,6.326 Z" />
      </g>
      <g
         transform="matrix(0.35277777,0,0,-0.35277777,203.78302,194.70772)"
         id="g120"
         style="fill:#ffffff">
        <path
           inkscape:connector-curvature="0"
           id="path122"
           style="fill:#ffffff;fill-opacity:1;fill-rule:nonzero;stroke:none"
           d="M 0,0 -6.326,6.326 -18.978,18.978 -25.304,12.652 -12.652,0 l -12.652,-12.652 6.326,-6.326 12.652,12.652 z" />
      </g>
      <g
         transform="matrix(0.35277777,0,0,-0.35277777,208.5971,189.89361)"
         id="g124"
         style="fill:#ffffff">
        <path
           inkscape:connector-curvature="0"
           id="path126"
           style="fill:#ffffff;fill-opacity:1;fill-rule:nonzero;stroke:none"
           d="M 0,0 18.978,18.978 12.652,25.304 0,12.652 -12.652,25.304 -18.978,18.978 -6.326,6.326 Z" />
      </g>
      <g
         transform="matrix(0.35277777,0,0,-0.35277777,209.48437,195.59492)"
         id="g128"
         style="fill:#ffffff">
        <path
           inkscape:connector-curvature="0"
           id="path130"
           style="fill:#ffffff;fill-opacity:1;fill-rule:nonzero;stroke:none"
           d="m 0,0 c -1.387,-1.387 -3.643,-1.387 -5.03,0 -1.387,1.387 -1.387,3.643 0,5.03 1.387,1.387 3.643,1.387 5.03,0 C 1.387,3.643 1.387,1.387 0,0 m -10.06,10.06 c -4.167,-4.167 -4.167,-10.923 0,-15.09 4.167,-4.167 10.923,-4.167 15.09,0 4.167,4.167 4.167,10.923 0,15.09 -4.167,4.167 -10.923,4.167 -15.09,0" />
      </g>
    </g>
  </g>
</svg>
