<?xml version="1.0" encoding="UTF-8" standalone="no"?>
<!-- Created with Inkscape (http://www.inkscape.org/) -->

<svg
   xmlns:dc="http://purl.org/dc/elements/1.1/"
   xmlns:cc="http://creativecommons.org/ns#"
   xmlns:rdf="http://www.w3.org/1999/02/22-rdf-syntax-ns#"
   xmlns:svg="http://www.w3.org/2000/svg"
   xmlns="http://www.w3.org/2000/svg"
   xmlns:sodipodi="http://sodipodi.sourceforge.net/DTD/sodipodi-0.dtd"
   xmlns:inkscape="http://www.inkscape.org/namespaces/inkscape"
   width="1385.6549"
   height="1265.5908"
   viewBox="0 0 366.6212 334.85422"
   version="1.1"
   id="svg8"
   inkscape:version="0.92.2 (5c3e80d, 2017-08-06)"
   sodipodi:docname="vertical_white.svg"
   inkscape:export-filename="/home/anxhelo/Files/Design/pstore/vertical_black.png"
   inkscape:export-xdpi="96"
   inkscape:export-ydpi="96">
  <defs
     id="defs2" />
  <sodipodi:namedview
     id="base"
     pagecolor="#ffffff"
     bordercolor="#666666"
     borderopacity="1.0"
     inkscape:pageopacity="0.0"
     inkscape:pageshadow="2"
     inkscape:zoom="0.2528125"
     inkscape:cx="385.58887"
     inkscape:cy="545.69342"
     inkscape:document-units="mm"
     inkscape:current-layer="g359313"
     inkscape:document-rotation="0"
     showgrid="false"
     borderlayer="true"
     inkscape:showpageshadow="false"
     units="px"
     inkscape:pagecheckerboard="false"
     showguides="true"
     inkscape:window-width="1366"
     inkscape:window-height="715"
     inkscape:window-x="0"
     inkscape:window-y="0"
     inkscape:window-maximized="1"
     fit-margin-top="0"
     fit-margin-left="0"
     fit-margin-right="0"
     fit-margin-bottom="0">
    <inkscape:grid
       type="xygrid"
       id="grid10"
       originx="-87.429691"
       originy="-17.889624" />
  </sodipodi:namedview>
  <metadata
     id="metadata5">
    <rdf:RDF>
      <cc:Work
         rdf:about="">
        <dc:format>image/svg+xml</dc:format>
        <dc:type
           rdf:resource="http://purl.org/dc/dcmitype/StillImage" />
        <dc:title></dc:title>
      </cc:Work>
    </rdf:RDF>
  </metadata>
  <g
     inkscape:label="Layer 1"
     inkscape:groupmode="layer"
     id="layer1"
     transform="translate(-18.07377,-23.357002)">
    <g
       id="g359313"
       transform="matrix(1.3077509,0,0,1.3077509,-81.564461,-77.59141)">
      <g
         id="g359515"
         transform="matrix(2.439448,0,0,2.439448,10.42541,-58.657951)"
         style="fill:#ffffff">
        <g
           id="g269589"
           transform="matrix(0.49997554,0,0,-0.49997554,105.42948,68.034862)"
           style="fill:#ffffff">
          <path
             d="m 0,0 c -4.091,0 -7.407,3.317 -7.407,7.408 0,4.092 3.316,7.408 7.407,7.408 4.092,0 7.408,-3.316 7.408,-7.408 C 7.408,3.317 4.092,0 0,0 m 0,-83.956 c -4.091,0 -7.407,3.317 -7.407,7.408 0,4.091 3.316,7.408 7.407,7.408 4.092,0 7.408,-3.317 7.408,-7.408 0,-4.091 -3.316,-7.408 -7.408,-7.408 m -9.004,43.92 h -22.288 l 11.553,-20.01 -11.502,-6.641 -11.145,19.303 -10.328,-17.888 -11.502,6.641 10.737,18.595 h -21.473 v 13.282 h 20.656 l -9.92,17.181 11.502,6.64 10.328,-17.888 11.145,19.302 11.502,-6.64 -10.737,-18.595 H -9.004 Z M -83.956,0 c -4.091,0 -7.408,3.317 -7.408,7.408 0,4.092 3.317,7.408 7.408,7.408 4.092,0 7.408,-3.316 7.408,-7.408 C -76.548,3.317 -79.864,0 -83.956,0 m 0,-83.956 c -4.091,0 -7.408,3.317 -7.408,7.408 0,4.091 3.317,7.408 7.408,7.408 4.092,0 7.408,-3.317 7.408,-7.408 0,-4.091 -3.316,-7.408 -7.408,-7.408 m -17.285,-9.877 H 17.285 V 24.693 h -118.526 z"
             style="fill:#ffffff;fill-opacity:1;fill-rule:nonzero;stroke:none"
             id="path269591"
             inkscape:connector-curvature="0" />
        </g>
        <g
           id="g269593"
           transform="matrix(0.49997554,0,0,-0.49997554,40.425357,142.91155)"
           style="fill:#ffffff">
          <path
             d="m 0,0 c 0,3.676 -0.827,6.62 -2.478,8.832 -1.652,2.211 -4.103,3.317 -7.352,3.317 -1.067,0 -2.052,-0.04 -2.958,-0.12 -0.907,-0.08 -1.652,-0.174 -2.237,-0.279 v -21.5 c 0.745,-0.479 1.717,-0.879 2.916,-1.199 1.199,-0.321 2.411,-0.478 3.637,-0.478 C -2.825,-11.427 0,-7.619 0,0 m 12.147,0.32 c 0,-3.25 -0.399,-6.208 -1.198,-8.872 -0.799,-2.663 -1.971,-4.955 -3.516,-6.872 -1.546,-1.919 -3.465,-3.41 -5.755,-4.476 -2.291,-1.065 -4.929,-1.597 -7.912,-1.597 -1.652,0 -3.197,0.159 -4.636,0.477 -1.438,0.321 -2.825,0.773 -4.155,1.36 V -35.484 H -26.934 V 19.9 c 1.066,0.321 2.29,0.627 3.676,0.921 1.385,0.292 2.838,0.544 4.356,0.759 1.519,0.212 3.064,0.386 4.636,0.52 1.571,0.132 3.077,0.2 4.516,0.2 3.462,0 6.553,-0.52 9.271,-1.559 2.716,-1.039 5.007,-2.506 6.873,-4.397 1.864,-1.891 3.289,-4.195 4.275,-6.912 0.985,-2.718 1.478,-5.756 1.478,-9.112"
             style="fill:#ffffff;fill-opacity:1;fill-rule:nonzero;stroke:none"
             id="path269595"
             inkscape:connector-curvature="0" />
        </g>
        <g
           id="g269597"
           transform="matrix(0.49997554,0,0,-0.49997554,56.128937,148.985)"
           style="fill:#ffffff">
          <path
             d="m 0,0 c 2.183,0 3.728,0.212 4.635,0.641 0.906,0.423 1.359,1.25 1.359,2.477 0,0.958 -0.587,1.797 -1.759,2.518 -1.172,0.718 -2.956,1.53 -5.354,2.437 -1.866,0.691 -3.557,1.41 -5.075,2.157 -1.519,0.745 -2.812,1.639 -3.876,2.678 -1.067,1.038 -1.892,2.277 -2.478,3.716 -0.587,1.439 -0.88,3.17 -0.88,5.195 0,3.943 1.466,7.059 4.396,9.35 2.93,2.292 6.953,3.436 12.069,3.436 2.557,0 5.007,-0.226 7.352,-0.678 2.345,-0.454 4.209,-0.947 5.595,-1.479 l -2.078,-9.27 c -1.386,0.479 -2.891,0.905 -4.515,1.279 -1.626,0.372 -3.452,0.559 -5.475,0.559 -3.73,0 -5.595,-1.039 -5.595,-3.117 0,-0.48 0.08,-0.906 0.24,-1.278 0.16,-0.374 0.48,-0.735 0.959,-1.079 0.48,-0.348 1.131,-0.723 1.958,-1.125 0.825,-0.404 1.878,-0.846 3.157,-1.329 2.611,-0.968 4.768,-1.921 6.474,-2.861 1.704,-0.939 3.05,-1.956 4.036,-3.044 0.985,-1.091 1.678,-2.299 2.078,-3.628 0.399,-1.329 0.599,-2.872 0.599,-4.625 0,-4.147 -1.558,-7.285 -4.675,-9.41 -3.117,-2.125 -7.526,-3.19 -13.227,-3.19 -3.731,0 -6.834,0.32 -9.311,0.958 -2.478,0.641 -4.196,1.171 -5.155,1.6 l 1.998,9.67 C -10.524,1.759 -8.446,1.131 -6.314,0.681 -4.184,0.226 -2.079,0 0,0"
             style="fill:#ffffff;fill-opacity:1;fill-rule:nonzero;stroke:none"
             id="path269599"
             inkscape:connector-curvature="0" />
        </g>
        <g
           id="g269601"
           transform="matrix(0.49997554,0,0,-0.49997554,68.275787,127.00728)"
           style="fill:#ffffff">
          <path
             d="m 0,0 11.909,1.917 v -12.388 h 14.306 v -9.91 H 11.909 v -14.786 c 0,-2.504 0.439,-4.502 1.318,-5.993 0.879,-1.493 2.65,-2.237 5.315,-2.237 1.279,0 2.598,0.12 3.956,0.357 1.358,0.241 2.597,0.573 3.717,1.001 l 1.678,-9.271 c -1.439,-0.587 -3.037,-1.093 -4.795,-1.52 -1.759,-0.425 -3.917,-0.637 -6.474,-0.637 -3.25,0 -5.942,0.437 -8.072,1.318 -2.132,0.879 -3.837,2.104 -5.115,3.677 -1.279,1.57 -2.172,3.475 -2.678,5.713 C 0.252,-40.522 0,-38.044 0,-35.327 Z"
             style="fill:#ffffff;fill-opacity:1;fill-rule:nonzero;stroke:none"
             id="path269603"
             inkscape:connector-curvature="0" />
        </g>
        <g
           id="g269605"
           transform="matrix(0.49997554,0,0,-0.49997554,98.005537,142.71136)"
           style="fill:#ffffff">
          <path
             d="m 0,0 c 0,3.676 -0.733,6.566 -2.198,8.671 -1.466,2.105 -3.557,3.158 -6.275,3.158 -2.717,0 -4.822,-1.053 -6.313,-3.158 -1.492,-2.105 -2.237,-4.995 -2.237,-8.671 0,-3.677 0.745,-6.595 2.237,-8.752 1.491,-2.157 3.596,-3.235 6.313,-3.235 2.718,0 4.809,1.078 6.275,3.235 C -0.733,-6.595 0,-3.677 0,0 m 12.147,0 c 0,-3.305 -0.479,-6.328 -1.438,-9.072 -0.959,-2.743 -2.345,-5.087 -4.156,-7.033 -1.812,-1.945 -3.984,-3.45 -6.514,-4.514 -2.53,-1.067 -5.368,-1.599 -8.512,-1.599 -3.09,0 -5.901,0.532 -8.43,1.599 -2.533,1.064 -4.703,2.569 -6.515,4.514 -1.812,1.946 -3.224,4.29 -4.235,7.033 -1.013,2.744 -1.519,5.767 -1.519,9.072 0,3.304 0.519,6.314 1.559,9.031 1.038,2.718 2.477,5.035 4.315,6.953 1.839,1.919 4.023,3.41 6.554,4.476 2.53,1.065 5.287,1.598 8.271,1.598 3.037,0 5.822,-0.533 8.353,-1.598 C 2.409,19.394 4.581,17.903 6.393,15.984 8.204,14.066 9.616,11.749 10.629,9.031 11.641,6.314 12.147,3.304 12.147,0"
             style="fill:#ffffff;fill-opacity:1;fill-rule:nonzero;stroke:none"
             id="path269607"
             inkscape:connector-curvature="0" />
        </g>
        <g
           id="g269609"
           transform="matrix(0.49997554,0,0,-0.49997554,120.34185,137.51656)"
           style="fill:#ffffff">
          <path
             d="m 0,0 c -1.065,0.266 -2.317,0.544 -3.756,0.839 -1.438,0.292 -2.984,0.44 -4.635,0.44 -0.747,0 -1.638,-0.068 -2.677,-0.2 -1.039,-0.134 -1.826,-0.28 -2.358,-0.44 V -31.49 H -25.335 V 8.312 c 2.131,0.746 4.648,1.45 7.553,2.117 2.904,0.666 6.139,1 9.71,1 0.639,0 1.412,-0.04 2.319,-0.12 0.904,-0.08 1.81,-0.188 2.716,-0.32 0.906,-0.134 1.811,-0.294 2.718,-0.48 0.906,-0.186 1.678,-0.412 2.317,-0.679 z"
             style="fill:#ffffff;fill-opacity:1;fill-rule:nonzero;stroke:none"
             id="path269611"
             inkscape:connector-curvature="0" />
        </g>
        <g
           id="g269613"
           transform="matrix(0.49997554,0,0,-0.49997554,136.12622,140.63336)"
           style="fill:#ffffff">
          <path
             d="m 0,0 c -0.054,1.011 -0.228,1.998 -0.52,2.956 -0.292,0.961 -0.747,1.811 -1.359,2.558 -0.612,0.746 -1.386,1.359 -2.317,1.839 -0.933,0.48 -2.091,0.718 -3.476,0.718 -1.333,0 -2.477,-0.226 -3.437,-0.678 C -12.068,6.938 -12.867,6.34 -13.507,5.594 -14.146,4.847 -14.64,3.982 -14.985,2.996 -15.333,2.009 -15.585,1.011 -15.744,0 Z m -27.973,-4.557 c 0,3.731 0.573,6.995 1.718,9.792 1.146,2.796 2.651,5.128 4.516,6.993 1.865,1.865 4.009,3.276 6.434,4.236 2.423,0.959 4.915,1.437 7.473,1.437 5.967,0 10.682,-1.825 14.145,-5.473 3.463,-3.65 5.196,-9.02 5.196,-16.104 0,-0.694 -0.028,-1.453 -0.08,-2.277 -0.054,-0.829 -0.108,-1.56 -0.16,-2.2 h -27.013 c 0.265,-2.451 1.411,-4.395 3.436,-5.833 2.024,-1.44 4.742,-2.158 8.152,-2.158 2.184,0 4.329,0.2 6.434,0.598 2.105,0.4 3.823,0.893 5.156,1.48 l 1.597,-9.67 c -0.639,-0.321 -1.492,-0.641 -2.557,-0.959 -1.067,-0.321 -2.251,-0.601 -3.556,-0.841 -1.308,-0.24 -2.705,-0.439 -4.197,-0.598 -1.492,-0.16 -2.984,-0.24 -4.475,-0.24 -3.784,0 -7.073,0.558 -9.871,1.679 -2.797,1.119 -5.114,2.649 -6.952,4.594 -1.839,1.944 -3.197,4.249 -4.077,6.913 -0.878,2.664 -1.319,5.542 -1.319,8.631"
             style="fill:#ffffff;fill-opacity:1;fill-rule:nonzero;stroke:none"
             id="path269615"
             inkscape:connector-curvature="0" />
        </g>
      </g>
    </g>
  </g>
</svg>
