<?xml version="1.0" encoding="UTF-8" standalone="no"?>
<!-- Created with Inkscape (http://www.inkscape.org/) -->

<svg
   xmlns:dc="http://purl.org/dc/elements/1.1/"
   xmlns:cc="http://creativecommons.org/ns#"
   xmlns:rdf="http://www.w3.org/1999/02/22-rdf-syntax-ns#"
   xmlns:svg="http://www.w3.org/2000/svg"
   xmlns="http://www.w3.org/2000/svg"
   xmlns:sodipodi="http://sodipodi.sourceforge.net/DTD/sodipodi-0.dtd"
   xmlns:inkscape="http://www.inkscape.org/namespaces/inkscape"
   width="234.60158"
   height="216.888"
   viewBox="0 0 62.07167 57.384948"
   version="1.1"
   id="svg8"
   inkscape:version="0.92.2 (5c3e80d, 2017-08-06)"
   sodipodi:docname="icon_1.svg">
  <defs
     id="defs2" />
  <sodipodi:namedview
     id="base"
     pagecolor="#ffffff"
     bordercolor="#666666"
     borderopacity="1.0"
     inkscape:pageopacity="0"
     inkscape:pageshadow="2"
     inkscape:zoom="1.0493442"
     inkscape:cx="99.655598"
     inkscape:cy="74.170606"
     inkscape:document-units="px"
     inkscape:current-layer="layer1"
     inkscape:document-rotation="0"
     showgrid="false"
     borderlayer="true"
     inkscape:showpageshadow="true"
     units="px"
     inkscape:pagecheckerboard="false"
     showguides="true"
     inkscape:window-width="1366"
     inkscape:window-height="718"
     inkscape:window-x="0"
     inkscape:window-y="0"
     inkscape:window-maximized="1"
     objecttolerance="10"
     guidetolerance="10"
     inkscape:snap-tangential="true"
     inkscape:snap-perpendicular="true"
     fit-margin-top="0"
     fit-margin-left="0"
     fit-margin-right="0"
     fit-margin-bottom="0">
    <inkscape:grid
       type="xygrid"
       id="grid10"
       dotted="false"
       originx="-158.57467"
       originy="-196.21784" />
  </sodipodi:namedview>
  <metadata
     id="metadata5">
    <rdf:RDF>
      <cc:Work
         rdf:about="">
        <dc:format>image/svg+xml</dc:format>
        <dc:type
           rdf:resource="http://purl.org/dc/dcmitype/StillImage" />
        <dc:title></dc:title>
        <cc:license
           rdf:resource="" />
      </cc:Work>
    </rdf:RDF>
  </metadata>
  <g
     inkscape:label="Layer 1"
     inkscape:groupmode="layer"
     id="layer1"
     transform="translate(-158.57466,-43.397213)">
    <g
       id="g1548">
      <path
         inkscape:connector-curvature="0"
         id="path12"
         style="fill:#0a84ff;fill-opacity:1;fill-rule:nonzero;stroke:none;stroke-width:0.35277775"
         d="m 218.03084,90.259929 h -5.23099 v -5.23099 h 5.23099 z m 0,7.84648 h -5.23099 v -5.23099 h 5.23099 z m -7.84648,-23.539802 h -5.23099 v -5.230989 h 5.23099 z m 0,7.846484 h -5.23099 v -5.23099 h 5.23099 z m 0,7.846838 h -5.23099 v -5.23099 h 5.23099 z m -7.84649,-15.693322 h -5.23099 v -5.230989 h 5.23099 z m 0,7.846484 h -5.23099 v -5.23099 h 5.23099 z m 0,7.846838 h -5.23099 v -5.23099 h 5.23099 z m -7.84684,0 h -5.23098 v -5.23099 h 5.23098 z m 0,7.84648 h -5.23098 v -5.23099 h 5.23098 z M 212.79985,82.413091 V 66.720123 h -18.30882 v 15.692968 h -7.84648 V 100.7219 h 14.38557 v -7.846481 h 5.23099 v 7.846481 h 14.38522 V 82.413091 Z" />
      <g
         transform="matrix(0.35277777,0,0,-0.35277777,172.79086,63.10327)"
         id="g22">
        <path
           inkscape:connector-curvature="0"
           id="path24"
           style="fill:#12bc00;fill-opacity:1;fill-rule:nonzero;stroke:none"
           d="m 0,0 c -1.185,0 -2.32,0.471 -3.158,1.308 l -7.195,7.194 c -1.744,1.744 -1.744,4.572 0,6.316 1.745,1.744 4.572,1.744 6.317,0 L 0,10.782 14.93,25.713 c 1.744,1.744 4.571,1.744 6.316,0 1.744,-1.744 1.744,-4.572 0,-6.317 L 3.158,1.308 C 2.32,0.471 1.185,0 0,0" />
      </g>
      <g
         transform="matrix(0.35277777,0,0,-0.35277777,172.79086,92.367309)"
         id="g26">
        <path
           inkscape:connector-curvature="0"
           id="path28"
           style="fill:#12bc00;fill-opacity:1;fill-rule:nonzero;stroke:none"
           d="m 0,0 c -1.185,0 -2.32,0.47 -3.158,1.308 l -7.195,7.194 c -1.744,1.744 -1.744,4.572 0,6.316 1.745,1.744 4.572,1.744 6.317,0 L 0,10.782 14.93,25.712 c 1.744,1.744 4.571,1.744 6.316,0 1.744,-1.744 1.744,-4.571 0,-6.316 L 3.158,1.308 C 2.32,0.47 1.185,0 0,0" />
      </g>
      <g
         transform="matrix(0.35277777,0,0,-0.35277777,176.94066,72.986407)"
         id="g30">
        <path
           inkscape:connector-curvature="0"
           id="path32"
           style="fill:#d70022;fill-opacity:1;fill-rule:nonzero;stroke:none"
           d="m 0,0 7.784,7.784 c 1.744,1.744 1.744,4.572 0,6.316 -1.745,1.744 -4.572,1.744 -6.317,0 L -6.316,6.316 -14.1,14.1 c -1.745,1.744 -4.572,1.744 -6.317,0 -1.744,-1.744 -1.744,-4.572 0,-6.316 L -12.632,0 -20.417,-7.784 c -1.744,-1.744 -1.744,-4.572 0,-6.316 0.873,-0.872 2.016,-1.308 3.159,-1.308 1.143,0 2.285,0.436 3.158,1.308 l 7.784,7.784 7.783,-7.784 c 0.873,-0.872 2.015,-1.308 3.158,-1.308 1.144,0 2.287,0.436 3.159,1.308 1.744,1.744 1.744,4.572 0,6.316 z" />
      </g>
      <g
         transform="matrix(0.35277777,0,0,-0.35277777,168.61507,96.209809)"
         id="g34">
        <path
           inkscape:connector-curvature="0"
           id="path36"
           style="fill:#363959;fill-opacity:1;fill-rule:nonzero;stroke:none"
           d="m 0,0 c -8.546,0 -15.5,6.954 -15.5,15.5 v 105.743 c 0,8.547 6.954,15.5 15.5,15.5 h 96.779 c 8.546,0 15.5,-6.953 15.5,-15.5 v -25.49 h 12.961 v 25.49 c 0,15.694 -12.767,28.462 -28.461,28.462 H 0 c -15.694,0 -28.461,-12.768 -28.461,-28.462 V 15.5 c 0,-15.693 12.767,-28.461 28.461,-28.461 H 37.426 V 0 Z" />
      </g>
    </g>
  </g>
</svg>
