<?xml version="1.0" encoding="UTF-8" standalone="no"?>
<!-- Created with Inkscape (http://www.inkscape.org/) -->

<svg
   xmlns:dc="http://purl.org/dc/elements/1.1/"
   xmlns:cc="http://creativecommons.org/ns#"
   xmlns:rdf="http://www.w3.org/1999/02/22-rdf-syntax-ns#"
   xmlns:svg="http://www.w3.org/2000/svg"
   xmlns="http://www.w3.org/2000/svg"
   xmlns:sodipodi="http://sodipodi.sourceforge.net/DTD/sodipodi-0.dtd"
   xmlns:inkscape="http://www.inkscape.org/namespaces/inkscape"
   width="304.888"
   height="304.88931"
   viewBox="0 0 80.668287 80.668628"
   version="1.1"
   id="svg8"
   inkscape:version="0.92.2 (5c3e80d, 2017-08-06)"
   sodipodi:docname="icon_2.svg"
   inkscape:export-filename="/home/anxhelo/works/Firefox Enterprise Policy Generator/PNG/icon_1.png"
   inkscape:export-xdpi="96"
   inkscape:export-ydpi="96">
  <defs
     id="defs2" />
  <sodipodi:namedview
     id="base"
     pagecolor="#ffffff"
     bordercolor="#666666"
     borderopacity="1.0"
     inkscape:pageopacity="0"
     inkscape:pageshadow="2"
     inkscape:zoom="1.0493442"
     inkscape:cx="289.26568"
     inkscape:cy="144.65932"
     inkscape:document-units="px"
     inkscape:current-layer="layer1"
     inkscape:document-rotation="0"
     showgrid="false"
     borderlayer="true"
     inkscape:showpageshadow="true"
     units="px"
     inkscape:pagecheckerboard="false"
     showguides="true"
     inkscape:window-width="1366"
     inkscape:window-height="718"
     inkscape:window-x="0"
     inkscape:window-y="0"
     inkscape:window-maximized="1"
     objecttolerance="10"
     guidetolerance="10"
     inkscape:snap-tangential="true"
     inkscape:snap-perpendicular="true"
     fit-margin-top="0"
     fit-margin-left="0"
     fit-margin-right="0"
     fit-margin-bottom="0">
    <inkscape:grid
       type="xygrid"
       id="grid10"
       dotted="false"
       originx="-88.235677"
       originy="-227.99602" />
  </sodipodi:namedview>
  <metadata
     id="metadata5">
    <rdf:RDF>
      <cc:Work
         rdf:about="">
        <dc:format>image/svg+xml</dc:format>
        <dc:type
           rdf:resource="http://purl.org/dc/dcmitype/StillImage" />
        <dc:title></dc:title>
        <cc:license
           rdf:resource="" />
      </cc:Work>
    </rdf:RDF>
  </metadata>
  <g
     inkscape:label="Layer 1"
     inkscape:groupmode="layer"
     id="layer1"
     transform="translate(-88.235664,11.664657)">
    <path
       d="m 136.41628,38.096488 h 5.23099 v -5.23099 h -5.23099 z"
       style="fill:#0a84ff;fill-opacity:1;fill-rule:nonzero;stroke:none;stroke-width:0.35277775"
       id="path38"
       inkscape:connector-curvature="0" />
    <path
       d="m 144.26312,45.943325 h 5.23099 v -5.230991 h -5.23099 z"
       style="fill:#0a84ff;fill-opacity:1;fill-rule:nonzero;stroke:none;stroke-width:0.35277775"
       id="path40"
       inkscape:connector-curvature="0" />
    <path
       d="m 136.41628,30.250005 h 5.23099 v -5.23099 h -5.23099 z"
       style="fill:#0a84ff;fill-opacity:1;fill-rule:nonzero;stroke:none;stroke-width:0.35277775"
       id="path42"
       inkscape:connector-curvature="0" />
    <path
       d="m 136.41628,45.943325 h 5.23099 v -5.230991 h -5.23099 z"
       style="fill:#0a84ff;fill-opacity:1;fill-rule:nonzero;stroke:none;stroke-width:0.35277775"
       id="path44"
       inkscape:connector-curvature="0" />
    <path
       d="m 128.5698,53.789805 h 5.23099 v -5.23099 h -5.23099 z"
       style="fill:#0a84ff;fill-opacity:1;fill-rule:nonzero;stroke:none;stroke-width:0.35277775"
       id="path46"
       inkscape:connector-curvature="0" />
    <path
       d="m 128.5698,45.943325 h 5.23099 v -5.230991 h -5.23099 z"
       style="fill:#0a84ff;fill-opacity:1;fill-rule:nonzero;stroke:none;stroke-width:0.35277775"
       id="path48"
       inkscape:connector-curvature="0" />
    <path
       d="m 152.1096,45.943325 h 5.23099 v -5.230991 h -5.23099 z"
       style="fill:#0a84ff;fill-opacity:1;fill-rule:nonzero;stroke:none;stroke-width:0.35277775"
       id="path50"
       inkscape:connector-curvature="0" />
    <g
       id="g52"
       transform="matrix(0.35277777,0,0,-0.35277777,159.95609,56.405225)">
      <path
         d="M 0,0 H -40.777 V 22.242 H -55.605 V 0 h -40.778 v 51.898 h 22.242 v 44.485 h 51.899 V 51.898 H 0 Z m -114.407,126.032 -18.088,-18.089 c -0.838,-0.837 -1.974,-1.308 -3.158,-1.308 -1.185,0 -2.321,0.471 -3.159,1.308 l -7.194,7.194 c -1.744,1.744 -1.744,4.572 0,6.317 1.745,1.743 4.571,1.743 6.317,0 l 4.036,-4.037 14.929,14.931 c 1.745,1.744 4.573,1.744 6.317,0 1.744,-1.744 1.744,-4.572 0,-6.316 m -25.282,-87.532 4.036,-4.036 14.929,14.931 c 1.745,1.743 4.573,1.743 6.317,0 1.744,-1.745 1.744,-4.572 0,-6.316 L -132.495,24.99 c -0.838,-0.838 -1.974,-1.308 -3.158,-1.308 -1.185,0 -2.321,0.47 -3.159,1.308 l -7.194,7.194 c -1.744,1.744 -1.744,4.572 0,6.316 1.745,1.744 4.571,1.744 6.317,0 m -4.618,47.904 c -1.744,1.744 -1.744,4.572 0,6.316 1.745,1.744 4.572,1.744 6.317,0 l 7.784,-7.783 7.783,7.783 c 1.745,1.744 4.572,1.744 6.317,0 1.744,-1.744 1.744,-4.572 0,-6.316 l -7.785,-7.784 7.785,-7.784 c 1.744,-1.744 1.744,-4.572 0,-6.316 -0.873,-0.872 -2.015,-1.308 -3.159,-1.308 -1.142,0 -2.286,0.436 -3.158,1.308 l -7.783,7.784 -7.784,-7.784 c -0.872,-0.872 -2.015,-1.308 -3.158,-1.308 -1.144,0 -2.287,0.436 -3.159,1.308 -1.744,1.744 -1.744,4.572 0,6.316 l 7.785,7.784 z m 34.243,-86.575 h -37.426 c -15.694,0 -28.461,12.768 -28.461,28.461 v 105.743 c 0,15.694 12.767,28.462 28.461,28.462 h 96.779 c 15.693,0 28.461,-12.768 28.461,-28.462 v -25.49 h -12.962 v 25.49 c 0,8.547 -6.953,15.5 -15.499,15.5 h -96.779 c -8.547,0 -15.5,-6.953 -15.5,-15.5 V 28.29 c 0,-8.546 6.953,-15.5 15.5,-15.5 h 37.426 z m 98.928,193.125 h -155.666 c -20.075,0 -36.5,-16.426 -36.5,-36.5 V 0.787 c 0,-20.075 16.425,-36.5 36.5,-36.5 h 155.666 c 20.075,0 36.5,16.425 36.5,36.5 v 155.667 c 0,20.074 -16.425,36.5 -36.5,36.5"
         style="fill:#0a84ff;fill-opacity:1;fill-rule:nonzero;stroke:none"
         id="path54"
         inkscape:connector-curvature="0" />
    </g>
    <path
       d="m 144.26312,38.096488 h 5.23099 v -5.23099 h -5.23099 z"
       style="fill:#0a84ff;fill-opacity:1;fill-rule:nonzero;stroke:none;stroke-width:0.35277775"
       id="path56"
       inkscape:connector-curvature="0" />
    <path
       d="m 152.1096,53.789805 h 5.23099 v -5.23099 h -5.23099 z"
       style="fill:#0a84ff;fill-opacity:1;fill-rule:nonzero;stroke:none;stroke-width:0.35277775"
       id="path58"
       inkscape:connector-curvature="0" />
    <path
       d="m 144.26312,30.250005 h 5.23099 v -5.23099 h -5.23099 z"
       style="fill:#0a84ff;fill-opacity:1;fill-rule:nonzero;stroke:none;stroke-width:0.35277775"
       id="path60"
       inkscape:connector-curvature="0" />
  </g>
</svg>
