<?xml version="1.0" encoding="UTF-8" standalone="no"?>
<!-- Created with Inkscape (http://www.inkscape.org/) -->

<svg
   xmlns:dc="http://purl.org/dc/elements/1.1/"
   xmlns:cc="http://creativecommons.org/ns#"
   xmlns:rdf="http://www.w3.org/1999/02/22-rdf-syntax-ns#"
   xmlns:svg="http://www.w3.org/2000/svg"
   xmlns="http://www.w3.org/2000/svg"
   xmlns:sodipodi="http://sodipodi.sourceforge.net/DTD/sodipodi-0.dtd"
   xmlns:inkscape="http://www.inkscape.org/namespaces/inkscape"
   width="234.60161"
   height="216.88666"
   viewBox="0 0 62.071678 57.384593"
   version="1.1"
   id="svg8"
   inkscape:version="0.92.2 (5c3e80d, 2017-08-06)"
   sodipodi:docname="icon_3.svg"
   inkscape:export-filename="/home/anxhelo/works/Firefox Enterprise Policy Generator/PNG/icon_3.png"
   inkscape:export-xdpi="96"
   inkscape:export-ydpi="96">
  <defs
     id="defs2" />
  <sodipodi:namedview
     id="base"
     pagecolor="#ffffff"
     bordercolor="#666666"
     borderopacity="1.0"
     inkscape:pageopacity="0"
     inkscape:pageshadow="2"
     inkscape:zoom="1.0493442"
     inkscape:cx="278.86767"
     inkscape:cy="91.096694"
     inkscape:document-units="px"
     inkscape:current-layer="layer1"
     inkscape:document-rotation="0"
     showgrid="false"
     borderlayer="true"
     inkscape:showpageshadow="true"
     units="px"
     inkscape:pagecheckerboard="false"
     showguides="true"
     inkscape:window-width="1366"
     inkscape:window-height="718"
     inkscape:window-x="0"
     inkscape:window-y="0"
     inkscape:window-maximized="1"
     objecttolerance="10"
     guidetolerance="10"
     inkscape:snap-tangential="true"
     inkscape:snap-perpendicular="true"
     fit-margin-top="0"
     fit-margin-left="0"
     fit-margin-right="0"
     fit-margin-bottom="0">
    <inkscape:grid
       type="xygrid"
       id="grid10"
       dotted="false"
       originx="-30.472828"
       originy="-302.68177" />
  </sodipodi:namedview>
  <metadata
     id="metadata5">
    <rdf:RDF>
      <cc:Work
         rdf:about="">
        <dc:format>image/svg+xml</dc:format>
        <dc:type
           rdf:resource="http://purl.org/dc/dcmitype/StillImage" />
        <dc:title></dc:title>
        <cc:license
           rdf:resource="" />
      </cc:Work>
    </rdf:RDF>
  </metadata>
  <g
     inkscape:label="Layer 1"
     inkscape:groupmode="layer"
     id="layer1"
     transform="translate(-30.472814,63.066387)">
    <path
       d="M 89.92899,-16.204023 H 84.698 v -5.23099 h 5.23099 z m 0,7.8464838 H 84.698 v -5.2309898 h 5.23099 z M 82.08251,-31.897341 h -5.23099 v -5.23099 h 5.23099 z m 0,7.846483 h -5.23099 v -5.23099 h 5.23099 z m 0,7.846835 h -5.23099 v -5.23099 h 5.23099 z m -7.84648,-15.693318 h -5.23099 v -5.23099 h 5.23099 z m 0,7.846483 h -5.23099 v -5.23099 h 5.23099 z m 0,7.846835 h -5.23099 v -5.23099 h 5.23099 z m -7.84684,0 H 61.1582 v -5.23099 h 5.23099 z m 0,7.8464838 H 61.1582 v -5.2309898 h 5.23099 z M 84.698,-24.050858 V -39.743826 H 66.38919 v 15.692968 h -7.84648 v 18.3088118 h 14.38557 v -7.8464828 h 5.23099 v 7.8464828 H 92.54449 V -24.050858 Z"
       style="fill:#000000;fill-opacity:1;fill-rule:nonzero;stroke:none;stroke-width:0.35277775"
       id="path62"
       inkscape:connector-curvature="0" />
    <g
       id="g64"
       transform="matrix(0.35277777,0,0,-0.35277777,44.68902,-43.360502)">
      <path
         d="m 0,0 c -1.185,0 -2.32,0.471 -3.158,1.309 l -7.195,7.194 c -1.744,1.744 -1.744,4.572 0,6.316 1.745,1.743 4.572,1.743 6.317,0 L 0,10.783 14.93,25.713 c 1.744,1.744 4.571,1.744 6.316,0 1.744,-1.744 1.744,-4.571 0,-6.316 L 3.158,1.309 C 2.32,0.471 1.185,0 0,0"
         style="fill:#000000;fill-opacity:1;fill-rule:nonzero;stroke:none"
         id="path66"
         inkscape:connector-curvature="0" />
    </g>
    <g
       id="g68"
       transform="matrix(0.35277777,0,0,-0.35277777,44.68902,-14.096458)">
      <path
         d="m 0,0 c -1.185,0 -2.32,0.471 -3.158,1.309 l -7.195,7.193 c -1.744,1.744 -1.744,4.572 0,6.316 1.745,1.744 4.572,1.744 6.317,0 L 0,10.782 14.93,25.713 c 1.744,1.744 4.571,1.744 6.316,0 1.744,-1.744 1.744,-4.572 0,-6.317 L 3.158,1.309 C 2.32,0.471 1.185,0 0,0"
         style="fill:#000000;fill-opacity:1;fill-rule:nonzero;stroke:none"
         id="path70"
         inkscape:connector-curvature="0" />
    </g>
    <g
       id="g72"
       transform="matrix(0.35277777,0,0,-0.35277777,48.83881,-33.477539)">
      <path
         d="m 0,0 7.784,7.784 c 1.744,1.744 1.744,4.572 0,6.317 -1.745,1.743 -4.572,1.743 -6.317,0 L -6.316,6.316 -14.1,14.101 c -1.745,1.743 -4.572,1.743 -6.317,0 -1.744,-1.745 -1.744,-4.573 0,-6.317 L -12.632,0 -20.417,-7.784 c -1.744,-1.744 -1.744,-4.571 0,-6.316 0.873,-0.872 2.016,-1.308 3.159,-1.308 1.143,0 2.285,0.436 3.158,1.308 l 7.784,7.784 7.783,-7.784 c 0.873,-0.872 2.015,-1.308 3.158,-1.308 1.144,0 2.287,0.436 3.159,1.308 1.744,1.745 1.744,4.572 0,6.316 z"
         style="fill:#000000;fill-opacity:1;fill-rule:nonzero;stroke:none"
         id="path74"
         inkscape:connector-curvature="0" />
    </g>
    <g
       id="g76"
       transform="matrix(0.35277777,0,0,-0.35277777,40.513222,-10.254144)">
      <path
         d="m 0,0 c -8.546,0 -15.5,6.954 -15.5,15.5 v 105.743 c 0,8.547 6.954,15.5 15.5,15.5 h 96.779 c 8.546,0 15.5,-6.953 15.5,-15.5 v -25.49 h 12.961 v 25.49 c 0,15.694 -12.767,28.461 -28.461,28.461 H 0 c -15.694,0 -28.461,-12.767 -28.461,-28.461 V 15.5 c 0,-15.693 12.767,-28.461 28.461,-28.461 H 37.426 V 0 Z"
         style="fill:#000000;fill-opacity:1;fill-rule:nonzero;stroke:none"
         id="path78"
         inkscape:connector-curvature="0" />
    </g>
  </g>
</svg>
