<?xml version="1.0" encoding="UTF-8" standalone="no"?>
<!-- Created with Inkscape (http://www.inkscape.org/) -->

<svg
   xmlns:dc="http://purl.org/dc/elements/1.1/"
   xmlns:cc="http://creativecommons.org/ns#"
   xmlns:rdf="http://www.w3.org/1999/02/22-rdf-syntax-ns#"
   xmlns:svg="http://www.w3.org/2000/svg"
   xmlns="http://www.w3.org/2000/svg"
   xmlns:sodipodi="http://sodipodi.sourceforge.net/DTD/sodipodi-0.dtd"
   xmlns:inkscape="http://www.inkscape.org/namespaces/inkscape"
   width="956.92126"
   height="159.89812"
   viewBox="0 0 253.18543 42.306375"
   version="1.1"
   id="svg8"
   inkscape:version="0.92.2 (5c3e80d, 2017-08-06)"
   sodipodi:docname="horizontal_color.svg"
   inkscape:export-filename="/home/anxhelo/works/CloudCover/PNG/horizontal_color.png"
   inkscape:export-xdpi="96"
   inkscape:export-ydpi="96">
  <defs
     id="defs2" />
  <sodipodi:namedview
     id="base"
     pagecolor="#ffffff"
     bordercolor="#666666"
     borderopacity="1.0"
     inkscape:pageopacity="0"
     inkscape:pageshadow="2"
     inkscape:zoom="0.52467208"
     inkscape:cx="457.76536"
     inkscape:cy="84.28621"
     inkscape:document-units="px"
     inkscape:current-layer="layer1"
     inkscape:document-rotation="0"
     showgrid="false"
     borderlayer="true"
     inkscape:showpageshadow="true"
     units="px"
     inkscape:pagecheckerboard="false"
     showguides="true"
     inkscape:window-width="1366"
     inkscape:window-height="715"
     inkscape:window-x="0"
     inkscape:window-y="0"
     inkscape:window-maximized="1"
     objecttolerance="10"
     guidetolerance="10"
     inkscape:snap-tangential="true"
     inkscape:snap-perpendicular="true"
     fit-margin-top="0"
     fit-margin-left="0"
     fit-margin-right="0"
     fit-margin-bottom="0">
    <inkscape:grid
       type="xygrid"
       id="grid10"
       dotted="false"
       originx="-91.061072"
       originy="-96.950832" />
  </sodipodi:namedview>
  <metadata
     id="metadata5">
    <rdf:RDF>
      <cc:Work
         rdf:about="">
        <dc:format>image/svg+xml</dc:format>
        <dc:type
           rdf:resource="http://purl.org/dc/dcmitype/StillImage" />
        <dc:title></dc:title>
        <cc:license
           rdf:resource="" />
      </cc:Work>
    </rdf:RDF>
  </metadata>
  <g
     inkscape:label="Layer 1"
     inkscape:groupmode="layer"
     id="layer1"
     transform="translate(-91.061068,-157.7428)">
    <g
       id="g1644"
       transform="matrix(1.2283603,0,0,1.2283603,0.2298115,-36.022186)">
      <g
         transform="matrix(0.35277777,0,0,-0.35277777,112.33793,173.41177)"
         id="g853">
        <path
           inkscape:connector-curvature="0"
           id="path855"
           style="fill:#048dbb;fill-opacity:1;fill-rule:nonzero;stroke:none"
           d="m 0,0 c 1.696,3.048 2.665,6.556 2.665,10.292 0,11.712 -9.494,21.206 -21.206,21.206 -1.92,0 -3.777,-0.259 -5.546,-0.737 -6.047,8.276 -15.824,13.655 -26.858,13.655 -18.361,0 -33.244,-14.884 -33.244,-33.244 0,-1.037 0.049,-2.064 0.143,-3.076 -14.14,-2.865 -24.784,-15.362 -24.784,-30.346 0,-17.101 13.862,-30.963 30.963,-30.963 h 8.01 l 2.634,30.442 -5.819,10.168 V 7.683 h 12.737 V -3.462 h 9.552 V 7.683 h 19.105 V -3.462 h 9.552 V 7.683 h 12.737 v -20.286 l -5.819,-10.168 2.631,-30.442 H -0.18 c 14.697,0 26.61,11.913 26.61,26.609 C 26.43,-11.97 14.612,-0.098 0,0" />
      </g>
      <g
         transform="matrix(0.35277777,0,0,-0.35277777,97.80342,180.1566)"
         id="g857">
        <path
           inkscape:connector-curvature="0"
           id="path859"
           style="fill:#048dbb;fill-opacity:1;fill-rule:nonzero;stroke:none"
           d="M 0,0 C -5.12,0 -9.271,-4.15 -9.271,-9.271 V -22.02 H 9.271 V -9.271 C 9.271,-4.15 5.12,0 0,0" />
      </g>
      <g
         transform="matrix(0.35277777,0,0,-0.35277777,141.52514,171.0791)"
         id="g861">
        <path
           inkscape:connector-curvature="0"
           id="path863"
           style="fill:#048dbb;fill-opacity:1;fill-rule:nonzero;stroke:none"
           d="m 0,0 c -8.641,0 -15.337,-6.696 -15.337,-15.481 0,-8.785 6.696,-15.553 15.337,-15.553 4.536,0 9.505,2.304 13.105,5.904 l 6.697,-7.272 c -5.328,-5.473 -13.033,-9.001 -20.378,-9.001 -15.049,0 -26.426,11.161 -26.426,25.778 0,14.545 11.593,25.49 26.858,25.49 7.273,0 14.906,-3.24 19.873,-8.352 L 13.105,-6.553 C 9.649,-2.592 4.681,0 0,0" />
      </g>
      <g
         transform="matrix(0.35277777,0,0,-0.35277777,155.69757,182.2054)"
         id="g865">
        <path
           inkscape:connector-curvature="0"
           id="path867"
           style="fill:#048dbb;fill-opacity:1;fill-rule:nonzero;stroke:none"
           d="m 0,0 c 1.152,0 2.377,0.433 3.745,1.08 l 1.08,-9.217 c -2.448,-1.151 -4.969,-1.727 -7.345,-1.727 -6.48,0 -11.953,4.32 -11.953,13.321 V 44.068 H -3.456 V 4.177 C -3.456,1.297 -2.016,0 0,0" />
      </g>
      <g
         transform="matrix(0.35277777,0,0,-0.35277777,161.99659,178.72517)"
         id="g869">
        <path
           inkscape:connector-curvature="0"
           id="path871"
           style="fill:#048dbb;fill-opacity:1;fill-rule:nonzero;stroke:none"
           d="m 0,0 c 0,-6.337 3.96,-10.657 9.721,-10.657 5.688,0 9.648,4.32 9.648,10.657 0,6.337 -3.96,10.657 -9.648,10.657 C 3.96,10.657 0,6.337 0,0 m 30.458,0.145 c 0,-11.81 -8.353,-19.802 -20.737,-19.802 -12.457,0 -20.81,7.992 -20.81,19.802 0,11.88 8.353,19.729 20.81,19.729 12.384,0 20.737,-7.849 20.737,-19.729" />
      </g>
      <g
         transform="matrix(0.35277777,0,0,-0.35277777,188.31159,171.84117)"
         id="g873">
        <path
           inkscape:connector-curvature="0"
           id="path875"
           style="fill:#048dbb;fill-opacity:1;fill-rule:nonzero;stroke:none"
           d="m 0,0 v -38.739 h -11.018 v 6.841 c -2.664,-4.897 -7.128,-7.273 -12.961,-7.273 -8.568,0 -13.968,5.689 -13.968,14.833 V 0 h 11.089 v -21.17 c 0,-4.896 2.807,-7.849 7.272,-7.849 5.328,0.073 8.568,4.248 8.568,9.866 V 0 Z" />
      </g>
      <g
         transform="matrix(0.35277777,0,0,-0.35277777,201.69682,178.72517)"
         id="g877">
        <path
           inkscape:connector-curvature="0"
           id="path879"
           style="fill:#048dbb;fill-opacity:1;fill-rule:nonzero;stroke:none"
           d="m 0,0 c 0,6.337 -3.96,10.729 -9.648,10.729 -5.761,0 -9.722,-4.464 -9.793,-10.729 0.071,-6.337 3.96,-10.729 9.793,-10.729 C -3.96,-10.729 0,-6.337 0,0 M 11.017,34.203 V -19.226 H 0 v 5.689 c -2.736,-3.96 -6.913,-6.12 -12.241,-6.12 -11.017,0 -18.289,7.992 -18.289,19.945 0,11.809 7.2,19.657 18.001,19.657 5.472,0 9.72,-2.16 12.529,-6.12 v 20.378 z" />
      </g>
      <g
         transform="matrix(0.35277777,0,0,-0.35277777,218.39002,171.0791)"
         id="g881">
        <path
           inkscape:connector-curvature="0"
           id="path883"
           style="fill:#048dbb;fill-opacity:1;fill-rule:nonzero;stroke:none"
           d="m 0,0 c -8.641,0 -15.337,-6.696 -15.337,-15.481 0,-8.785 6.696,-15.553 15.337,-15.553 4.536,0 9.505,2.304 13.105,5.904 l 6.697,-7.272 c -5.328,-5.473 -13.033,-9.001 -20.378,-9.001 -15.049,0 -26.426,11.161 -26.426,25.778 0,14.545 11.593,25.49 26.858,25.49 7.273,0 14.906,-3.24 19.873,-8.352 L 13.105,-6.553 C 9.649,-2.592 4.681,0 0,0" />
      </g>
      <g
         transform="matrix(0.35277777,0,0,-0.35277777,230.09924,178.72517)"
         id="g885">
        <path
           inkscape:connector-curvature="0"
           id="path887"
           style="fill:#048dbb;fill-opacity:1;fill-rule:nonzero;stroke:none"
           d="m 0,0 c 0,-6.337 3.96,-10.657 9.721,-10.657 5.688,0 9.648,4.32 9.648,10.657 0,6.337 -3.96,10.657 -9.648,10.657 C 3.96,10.657 0,6.337 0,0 m 30.458,0.145 c 0,-11.81 -8.353,-19.802 -20.737,-19.802 -12.457,0 -20.81,7.992 -20.81,19.802 0,11.88 8.353,19.729 20.81,19.729 12.384,0 20.737,-7.849 20.737,-19.729" />
      </g>
      <path
         inkscape:connector-curvature="0"
         id="path891"
         style="fill:#048dbb;fill-opacity:1;fill-rule:nonzero;stroke:none;stroke-width:0.35277775"
         d="m 245.05992,171.84117 3.22616,9.95786 3.2004,-9.95786 h 3.88655 l -5.15655,13.66626 h -4.01356 l -5.18195,-13.64086 z" />
      <g
         transform="matrix(0.35277777,0,0,-0.35277777,259.38597,178.16637)"
         id="g893">
        <path
           inkscape:connector-curvature="0"
           id="path895"
           style="fill:#048dbb;fill-opacity:1;fill-rule:nonzero;stroke:none"
           d="M 0,0 16.993,4.608 C 15.769,8.353 13.104,10.081 9.36,10.081 3.888,10.081 0.359,6.553 0,0 m 20.594,-7.561 6.336,-5.76 c -4.464,-5.256 -10.368,-7.92 -17.425,-7.92 -12.314,0 -20.594,7.92 -20.594,19.729 0,11.665 7.704,19.73 19.873,19.802 11.234,0.071 18.65,-6.769 19.082,-17.857 L 1.08,-6.624 c 1.656,-3.745 4.968,-5.977 9.217,-5.977 3.744,0 7.345,1.728 10.297,5.04" />
      </g>
      <g
         transform="matrix(0.35277777,0,0,-0.35277777,280.0617,171.68891)"
         id="g897">
        <path
           inkscape:connector-curvature="0"
           id="path899"
           style="fill:#048dbb;fill-opacity:1;fill-rule:nonzero;stroke:none"
           d="m 0,0 v -10.44 c -7.921,0.719 -12.817,-3.529 -12.817,-10.081 v -18.65 h -11.089 v 38.739 h 11.089 V -7.416 C -10.152,-2.664 -5.761,-0.071 0,0" />
      </g>
    </g>
  </g>
</svg>
