<?xml version="1.0" encoding="UTF-8" standalone="no"?>
<!-- Created with Inkscape (http://www.inkscape.org/) -->

<svg
   xmlns:dc="http://purl.org/dc/elements/1.1/"
   xmlns:cc="http://creativecommons.org/ns#"
   xmlns:rdf="http://www.w3.org/1999/02/22-rdf-syntax-ns#"
   xmlns:svg="http://www.w3.org/2000/svg"
   xmlns="http://www.w3.org/2000/svg"
   xmlns:sodipodi="http://sodipodi.sourceforge.net/DTD/sodipodi-0.dtd"
   xmlns:inkscape="http://www.inkscape.org/namespaces/inkscape"
   width="498.52875"
   height="359.83038"
   viewBox="0 0 131.9024 95.205116"
   version="1.1"
   id="svg8"
   inkscape:version="0.92.2 (5c3e80d, 2017-08-06)"
   sodipodi:docname="icon_color.svg"
   inkscape:export-filename="/home/anxhelo/works/CloudCover/PNG/icon_color.png"
   inkscape:export-xdpi="96"
   inkscape:export-ydpi="96">
  <defs
     id="defs2" />
  <sodipodi:namedview
     id="base"
     pagecolor="#ffffff"
     bordercolor="#666666"
     borderopacity="1.0"
     inkscape:pageopacity="0"
     inkscape:pageshadow="2"
     inkscape:zoom="0.52467208"
     inkscape:cx="117.48954"
     inkscape:cy="90.454676"
     inkscape:document-units="px"
     inkscape:current-layer="layer1"
     inkscape:document-rotation="0"
     showgrid="false"
     borderlayer="true"
     inkscape:showpageshadow="true"
     units="px"
     inkscape:pagecheckerboard="false"
     showguides="true"
     inkscape:window-width="1366"
     inkscape:window-height="715"
     inkscape:window-x="0"
     inkscape:window-y="0"
     inkscape:window-maximized="1"
     objecttolerance="10"
     guidetolerance="10"
     inkscape:snap-tangential="true"
     inkscape:snap-perpendicular="true"
     fit-margin-top="0"
     fit-margin-left="0"
     fit-margin-right="0"
     fit-margin-bottom="0">
    <inkscape:grid
       type="xygrid"
       id="grid10"
       dotted="false"
       originx="-181.0924"
       originy="-95.318743" />
  </sodipodi:namedview>
  <metadata
     id="metadata5">
    <rdf:RDF>
      <cc:Work
         rdf:about="">
        <dc:format>image/svg+xml</dc:format>
        <dc:type
           rdf:resource="http://purl.org/dc/dcmitype/StillImage" />
        <dc:title></dc:title>
        <cc:license
           rdf:resource="" />
      </cc:Work>
    </rdf:RDF>
  </metadata>
  <g
     inkscape:label="Layer 1"
     inkscape:groupmode="layer"
     id="layer1"
     transform="translate(-181.09238,-106.47613)">
    <g
       id="g1898"
       transform="matrix(3.0966827,0,0,3.0966827,-744.21742,-455.92588)">
      <g
         transform="matrix(0.35277776,0,0,-0.35277776,333.07879,195.60128)"
         id="g949">
        <path
           inkscape:connector-curvature="0"
           id="path951"
           style="fill:#048dbb;fill-opacity:1;fill-rule:nonzero;stroke:none"
           d="m 0,0 c 1.514,2.722 2.379,5.853 2.379,9.188 0,10.455 -8.476,18.93 -18.931,18.93 -1.713,0 -3.372,-0.231 -4.95,-0.658 -5.397,7.388 -14.125,12.188 -23.976,12.188 -16.389,0 -29.675,-13.286 -29.675,-29.674 0,-0.927 0.045,-1.842 0.128,-2.747 -12.622,-2.556 -22.124,-13.712 -22.124,-27.088 0,-15.265 12.375,-27.64 27.639,-27.64 h 7.151 l 2.352,27.175 -5.195,9.077 V 6.858 h 11.37 V -3.09 h 8.526 v 9.948 h 17.055 V -3.09 h 8.526 v 9.948 h 11.37 v -18.107 l -5.194,-9.076 2.349,-27.176 h 11.04 c 13.118,0 23.752,10.635 23.752,23.753 C 23.592,-10.684 13.044,-0.087 0,0" />
      </g>
      <g
         transform="matrix(0.35277776,0,0,-0.35277776,320.10422,201.62193)"
         id="g953">
        <path
           inkscape:connector-curvature="0"
           id="path955"
           style="fill:#048dbb;fill-opacity:1;fill-rule:nonzero;stroke:none"
           d="M 0,0 C -4.57,0 -8.276,-3.705 -8.276,-8.275 V -19.656 H 8.275 V -8.275 C 8.275,-3.705 4.57,0 0,0" />
      </g>
    </g>
  </g>
</svg>
