<?xml version="1.0" encoding="UTF-8" standalone="no"?>
<!-- Created with Inkscape (http://www.inkscape.org/) -->

<svg
   xmlns:dc="http://purl.org/dc/elements/1.1/"
   xmlns:cc="http://creativecommons.org/ns#"
   xmlns:rdf="http://www.w3.org/1999/02/22-rdf-syntax-ns#"
   xmlns:svg="http://www.w3.org/2000/svg"
   xmlns="http://www.w3.org/2000/svg"
   xmlns:sodipodi="http://sodipodi.sourceforge.net/DTD/sodipodi-0.dtd"
   xmlns:inkscape="http://www.inkscape.org/namespaces/inkscape"
   width="773.07214"
   height="426.15869"
   viewBox="0 0 204.54201 112.75448"
   version="1.1"
   id="svg8"
   inkscape:version="0.92.2 (5c3e80d, 2017-08-06)"
   sodipodi:docname="vertical_color.svg"
   inkscape:export-filename="/home/anxhelo/works/CloudCover/PNG/vertical_color.png"
   inkscape:export-xdpi="96"
   inkscape:export-ydpi="96">
  <defs
     id="defs2" />
  <sodipodi:namedview
     id="base"
     pagecolor="#ffffff"
     bordercolor="#666666"
     borderopacity="1.0"
     inkscape:pageopacity="0"
     inkscape:pageshadow="2"
     inkscape:zoom="0.52467208"
     inkscape:cx="348.75379"
     inkscape:cy="66.992743"
     inkscape:document-units="px"
     inkscape:current-layer="layer1"
     inkscape:document-rotation="0"
     showgrid="false"
     borderlayer="true"
     inkscape:showpageshadow="true"
     units="px"
     inkscape:pagecheckerboard="false"
     showguides="true"
     inkscape:window-width="1366"
     inkscape:window-height="715"
     inkscape:window-x="0"
     inkscape:window-y="0"
     inkscape:window-maximized="1"
     objecttolerance="10"
     guidetolerance="10"
     inkscape:snap-tangential="true"
     inkscape:snap-perpendicular="true"
     fit-margin-top="0"
     fit-margin-left="0"
     fit-margin-right="0"
     fit-margin-bottom="0">
    <inkscape:grid
       type="xygrid"
       id="grid10"
       dotted="false"
       originx="-119.90372"
       originy="-101.52639" />
  </sodipodi:namedview>
  <metadata
     id="metadata5">
    <rdf:RDF>
      <cc:Work
         rdf:about="">
        <dc:format>image/svg+xml</dc:format>
        <dc:type
           rdf:resource="http://purl.org/dc/dcmitype/StillImage" />
        <dc:title></dc:title>
        <cc:license
           rdf:resource="" />
      </cc:Work>
    </rdf:RDF>
  </metadata>
  <g
     inkscape:label="Layer 1"
     inkscape:groupmode="layer"
     id="layer1"
     transform="translate(-119.90371,-82.719126)">
    <g
       id="g1811"
       transform="matrix(1.3814592,0,0,1.3814592,-100.77346,-101.73443)">
      <g
         transform="matrix(0.35277777,0,0,-0.35277777,253.19305,154.45641)"
         id="g901">
        <path
           inkscape:connector-curvature="0"
           id="path903"
           style="fill:#048dbb;fill-opacity:1;fill-rule:nonzero;stroke:none"
           d="m 0,0 c 2.267,4.072 3.562,8.76 3.562,13.751 0,15.648 -12.686,28.335 -28.335,28.335 -2.565,0 -5.047,-0.347 -7.41,-0.985 -8.079,11.058 -21.142,18.244 -35.886,18.244 -24.532,0 -44.417,-19.887 -44.417,-44.417 0,-1.387 0.066,-2.757 0.19,-4.112 -18.891,-3.826 -33.114,-20.524 -33.114,-40.545 0,-22.848 18.522,-41.37 41.37,-41.37 h 10.702 l 3.522,40.675 -7.776,13.586 v 27.104 h 17.018 V -4.625 h 12.762 v 14.891 h 25.527 V -4.625 h 12.763 v 14.891 h 17.017 v -27.104 l -7.774,-13.586 3.515,-40.675 h 16.525 c 19.635,0 35.552,15.917 35.552,35.552 C 35.313,-15.992 19.524,-0.13 0,0" />
      </g>
      <g
         transform="matrix(0.35277777,0,0,-0.35277777,233.77307,163.46809)"
         id="g905">
        <path
           inkscape:connector-curvature="0"
           id="path907"
           style="fill:#048dbb;fill-opacity:1;fill-rule:nonzero;stroke:none"
           d="m 0,0 c -6.841,0 -12.387,-5.546 -12.387,-12.387 v -17.034 h 24.775 v 17.034 C 12.388,-5.546 6.842,0 0,0" />
      </g>
      <g
         transform="matrix(0.35277777,0,0,-0.35277777,169.26779,200.53455)"
         id="g909">
        <path
           inkscape:connector-curvature="0"
           id="path911"
           style="fill:#048dbb;fill-opacity:1;fill-rule:nonzero;stroke:none"
           d="m 0,0 c -8.641,0 -15.337,-6.696 -15.337,-15.481 0,-8.785 6.696,-15.553 15.337,-15.553 4.536,0 9.505,2.304 13.105,5.904 l 6.697,-7.272 c -5.328,-5.473 -13.033,-9.001 -20.378,-9.001 -15.049,0 -26.426,11.161 -26.426,25.778 0,14.545 11.593,25.49 26.858,25.49 7.273,0 14.906,-3.24 19.873,-8.352 L 13.105,-6.553 C 9.649,-2.592 4.681,0 0,0" />
      </g>
      <g
         transform="matrix(0.35277777,0,0,-0.35277777,183.44022,211.66086)"
         id="g913">
        <path
           inkscape:connector-curvature="0"
           id="path915"
           style="fill:#048dbb;fill-opacity:1;fill-rule:nonzero;stroke:none"
           d="m 0,0 c 1.152,0 2.377,0.433 3.745,1.08 l 1.08,-9.217 c -2.448,-1.151 -4.969,-1.727 -7.345,-1.727 -6.48,0 -11.953,4.32 -11.953,13.321 V 44.068 H -3.456 V 4.177 C -3.456,1.297 -2.016,0 0,0" />
      </g>
      <g
         transform="matrix(0.35277777,0,0,-0.35277777,189.73924,208.18058)"
         id="g917">
        <path
           inkscape:connector-curvature="0"
           id="path919"
           style="fill:#048dbb;fill-opacity:1;fill-rule:nonzero;stroke:none"
           d="m 0,0 c 0,-6.337 3.96,-10.657 9.721,-10.657 5.688,0 9.648,4.32 9.648,10.657 0,6.337 -3.96,10.657 -9.648,10.657 C 3.96,10.657 0,6.337 0,0 m 30.458,0.145 c 0,-11.81 -8.353,-19.802 -20.737,-19.802 -12.457,0 -20.81,7.992 -20.81,19.802 0,11.88 8.353,19.729 20.81,19.729 12.384,0 20.737,-7.849 20.737,-19.729" />
      </g>
      <g
         transform="matrix(0.35277777,0,0,-0.35277777,216.05424,201.29663)"
         id="g921">
        <path
           inkscape:connector-curvature="0"
           id="path923"
           style="fill:#048dbb;fill-opacity:1;fill-rule:nonzero;stroke:none"
           d="m 0,0 v -38.739 h -11.018 v 6.841 c -2.664,-4.897 -7.128,-7.273 -12.961,-7.273 -8.568,0 -13.968,5.689 -13.968,14.833 V 0 h 11.089 v -21.17 c 0,-4.896 2.807,-7.849 7.272,-7.849 5.328,0.073 8.568,4.248 8.568,9.866 V 0 Z" />
      </g>
      <g
         transform="matrix(0.35277777,0,0,-0.35277777,229.43948,208.18058)"
         id="g925">
        <path
           inkscape:connector-curvature="0"
           id="path927"
           style="fill:#048dbb;fill-opacity:1;fill-rule:nonzero;stroke:none"
           d="m 0,0 c 0,6.337 -3.96,10.729 -9.648,10.729 -5.761,0 -9.722,-4.464 -9.793,-10.729 0.071,-6.337 3.96,-10.729 9.793,-10.729 C -3.96,-10.729 0,-6.337 0,0 M 11.017,34.203 V -19.226 H 0 v 5.689 c -2.736,-3.96 -6.913,-6.12 -12.241,-6.12 -11.017,0 -18.289,7.992 -18.289,19.945 0,11.809 7.2,19.657 18.001,19.657 5.472,0 9.72,-2.16 12.529,-6.12 v 20.378 z" />
      </g>
      <g
         transform="matrix(0.35277777,0,0,-0.35277777,246.13271,200.53455)"
         id="g929">
        <path
           inkscape:connector-curvature="0"
           id="path931"
           style="fill:#048dbb;fill-opacity:1;fill-rule:nonzero;stroke:none"
           d="m 0,0 c -8.641,0 -15.337,-6.696 -15.337,-15.481 0,-8.785 6.696,-15.553 15.337,-15.553 4.536,0 9.505,2.304 13.105,5.904 l 6.697,-7.272 c -5.328,-5.473 -13.033,-9.001 -20.378,-9.001 -15.049,0 -26.426,11.161 -26.426,25.778 0,14.545 11.593,25.49 26.858,25.49 7.273,0 14.906,-3.24 19.873,-8.352 L 13.105,-6.553 C 9.649,-2.592 4.681,0 0,0" />
      </g>
      <g
         transform="matrix(0.35277777,0,0,-0.35277777,257.84189,208.18058)"
         id="g933">
        <path
           inkscape:connector-curvature="0"
           id="path935"
           style="fill:#048dbb;fill-opacity:1;fill-rule:nonzero;stroke:none"
           d="m 0,0 c 0,-6.337 3.96,-10.657 9.721,-10.657 5.688,0 9.648,4.32 9.648,10.657 0,6.337 -3.96,10.657 -9.648,10.657 C 3.96,10.657 0,6.337 0,0 m 30.458,0.145 c 0,-11.81 -8.353,-19.802 -20.737,-19.802 -12.457,0 -20.81,7.992 -20.81,19.802 0,11.88 8.353,19.729 20.81,19.729 12.384,0 20.737,-7.849 20.737,-19.729" />
      </g>
      <g
         transform="matrix(0.35277777,0,0,-0.35277777,272.80257,201.29663)"
         id="g937">
        <path
           inkscape:connector-curvature="0"
           id="path939"
           style="fill:#048dbb;fill-opacity:1;fill-rule:nonzero;stroke:none"
           d="M 0,0 9.145,-28.227 18.217,0 H 29.234 L 14.617,-38.739 H 3.24 l -14.689,38.667 z" />
      </g>
      <g
         transform="matrix(0.35277777,0,0,-0.35277777,287.12862,207.62178)"
         id="g941">
        <path
           inkscape:connector-curvature="0"
           id="path943"
           style="fill:#048dbb;fill-opacity:1;fill-rule:nonzero;stroke:none"
           d="M 0,0 16.993,4.608 C 15.769,8.353 13.104,10.081 9.36,10.081 3.888,10.081 0.359,6.553 0,0 m 20.594,-7.561 6.336,-5.76 c -4.464,-5.256 -10.368,-7.92 -17.425,-7.92 -12.314,0 -20.594,7.92 -20.594,19.729 0,11.665 7.704,19.73 19.873,19.802 11.234,0.071 18.65,-6.769 19.082,-17.857 L 1.08,-6.624 c 1.656,-3.745 4.968,-5.977 9.217,-5.977 3.744,0 7.345,1.728 10.297,5.04" />
      </g>
      <g
         transform="matrix(0.35277777,0,0,-0.35277777,307.80437,201.14433)"
         id="g945">
        <path
           inkscape:connector-curvature="0"
           id="path947"
           style="fill:#048dbb;fill-opacity:1;fill-rule:nonzero;stroke:none"
           d="m 0,0 v -10.44 c -7.921,0.719 -12.817,-3.529 -12.817,-10.081 v -18.65 h -11.089 v 38.739 h 11.089 V -7.416 C -10.152,-2.664 -5.761,-0.071 0,0" />
      </g>
    </g>
  </g>
</svg>
