<?xml version="1.0" encoding="UTF-8" standalone="no"?>
<!-- Created with Inkscape (http://www.inkscape.org/) -->

<svg
   xmlns:dc="http://purl.org/dc/elements/1.1/"
   xmlns:cc="http://creativecommons.org/ns#"
   xmlns:rdf="http://www.w3.org/1999/02/22-rdf-syntax-ns#"
   xmlns:svg="http://www.w3.org/2000/svg"
   xmlns="http://www.w3.org/2000/svg"
   xmlns:sodipodi="http://sodipodi.sourceforge.net/DTD/sodipodi-0.dtd"
   xmlns:inkscape="http://www.inkscape.org/namespaces/inkscape"
   width="1013.3737"
   height="328.32932"
   viewBox="0 0 268.12181 86.870464"
   version="1.1"
   id="svg8"
   inkscape:version="0.92.3 (2405546, 2018-03-11)"
   sodipodi:docname="horizontal_black.svg"
   inkscape:export-filename="/home/anxhelo/works/LibOCon 2018/SVG/horizontal_black.png"
   inkscape:export-xdpi="96"
   inkscape:export-ydpi="96">
  <defs
     id="defs2" />
  <sodipodi:namedview
     id="base"
     pagecolor="#ffffff"
     bordercolor="#666666"
     borderopacity="1.0"
     inkscape:pageopacity="0"
     inkscape:pageshadow="2"
     inkscape:zoom="0.37099919"
     inkscape:cx="655.59248"
     inkscape:cy="221.08941"
     inkscape:document-units="px"
     inkscape:current-layer="g990"
     inkscape:document-rotation="0"
     showgrid="false"
     borderlayer="true"
     inkscape:showpageshadow="true"
     units="px"
     inkscape:pagecheckerboard="false"
     showguides="true"
     inkscape:window-width="1366"
     inkscape:window-height="715"
     inkscape:window-x="0"
     inkscape:window-y="0"
     inkscape:window-maximized="1"
     objecttolerance="10"
     guidetolerance="10"
     inkscape:snap-tangential="true"
     inkscape:snap-perpendicular="true"
     fit-margin-top="0"
     fit-margin-left="0"
     fit-margin-right="0"
     fit-margin-bottom="0">
    <inkscape:grid
       type="xygrid"
       id="grid10"
       dotted="false"
       originx="34.740696"
       originy="-62.827963" />
  </sodipodi:namedview>
  <metadata
     id="metadata5">
    <rdf:RDF>
      <cc:Work
         rdf:about="">
        <dc:format>image/svg+xml</dc:format>
        <dc:type
           rdf:resource="http://purl.org/dc/dcmitype/StillImage" />
        <dc:title></dc:title>
        <cc:license
           rdf:resource="" />
      </cc:Work>
    </rdf:RDF>
  </metadata>
  <g
     inkscape:label="Layer 1"
     inkscape:groupmode="layer"
     id="layer1"
     transform="translate(34.740705,-147.30158)">
    <g
       id="g990"
       transform="matrix(1.2517358,0,0,1.2517358,326.63542,-186.53636)">
      <g
         id="g966"
         style="fill:#000000">
        <g
           id="g964"
           style="fill:#000000">
          <path
             id="path943"
             d="m -219.6,302.1 v 20.4 h 145.1 v -20.4 z m 143.5,18.7 h -53.7 v -16.9 h 53.7 z"
             inkscape:connector-curvature="0"
             style="fill:#000000;fill-opacity:1" />
          <g
             id="XMLID_477_"
             style="fill:#000000">
            <path
               d="m -218.3,297.3 v -3.6 h 2.2 v -13.2 h -2.2 v -3.6 h 9.3 v 3.6 h -2.9 v 13.2 h 5.4 l 0.6,-3.9 3.6,0.3 -0.6,7.2 z"
               class="st0"
               id="XMLID_506_"
               inkscape:connector-curvature="0"
               style="fill:#000000" />
            <path
               d="m -199.2,297.3 v -3.6 h 2.2 v -13.2 h -2.2 v -3.6 h 8.6 v 3.6 h -2.2 v 13.2 h 2.2 v 3.6 z"
               class="st0"
               id="XMLID_504_"
               inkscape:connector-curvature="0"
               style="fill:#000000" />
            <path
               d="m -175.9,297.3 h -10.8 v -3.6 h 2.2 v -13.2 h -2.2 v -3.6 h 10.7 c 3.7,0 6.2,1.9 6.2,4.8 0,2.2 -1.3,3.9 -3.7,4.2 v 0.1 c 2.9,0.4 4.4,2.5 4.4,5.2 0,3.3 -2.2,6.1 -6.8,6.1 z m -1.2,-16.9 h -3.1 v 4.8 h 2.8 c 2.4,0 3.1,-1.1 3.1,-2.5 -0.1,-1.9 -1.2,-2.3 -2.8,-2.3 z m 0.4,8.1 h -3.5 v 5.2 h 3.2 c 2.4,0 3.4,-0.9 3.4,-2.7 0,-1.8 -1.2,-2.5 -3.1,-2.5 z"
               class="st0"
               id="XMLID_500_"
               inkscape:connector-curvature="0"
               style="fill:#000000" />
            <path
               d="m -155.7,297.6 c -6.6,0 -10.3,-4.9 -10.3,-10.5 0,-6 4,-10.5 10.4,-10.5 6.5,0 10.4,4.8 10.4,10.5 0,5.7 -3.9,10.5 -10.5,10.5 z m 0.2,-17.4 c -4,0 -5.9,2.9 -5.9,6.7 0,3.7 1.7,6.9 6,6.9 4,0 5.8,-2.7 5.8,-6.7 0,-4.3 -2,-6.9 -5.9,-6.9 z"
               class="st0"
               id="XMLID_492_"
               inkscape:connector-curvature="0"
               style="fill:#000000" />
            <path
               d="m -131.7,297.6 c -5.9,0 -10.2,-4.1 -10.2,-10.2 0,-4.8 2.7,-10.9 10.4,-10.9 3.5,0 6,1.2 7.3,2.5 l 0.5,4.8 -3.4,0.3 -0.4,-2.7 c -1,-0.7 -2.8,-1.1 -4.1,-1.1 -3.5,0 -5.8,2.4 -5.8,6.9 0,4.8 2.5,6.7 6,6.7 1.6,0 3.1,-0.4 3.9,-0.8 l 0.4,-3 3.4,0.3 -0.4,4.9 c -1.4,1.3 -4.7,2.3 -7.6,2.3 z"
               class="st0"
               id="XMLID_490_"
               inkscape:connector-curvature="0"
               style="fill:#000000" />
            <path
               d="m -109.8,297.6 c -6.6,0 -10.3,-4.9 -10.3,-10.5 0,-6 4,-10.5 10.4,-10.5 6.5,0 10.4,4.8 10.4,10.5 0,5.7 -3.9,10.5 -10.5,10.5 z m 0.1,-17.4 c -4,0 -5.9,2.9 -5.9,6.7 0,3.7 1.7,6.9 6,6.9 4,0 5.8,-2.7 5.8,-6.7 -0.2,-4.3 -2.2,-6.9 -5.9,-6.9 z"
               class="st0"
               id="XMLID_483_"
               inkscape:connector-curvature="0"
               style="fill:#000000" />
            <path
               d="m -76.6,280.4 v 16.9 H -79 l -11,-13 v 0 9.4 h 2.8 v 3.6 h -9 v -3.6 h 2.2 v -13.2 h -2.6 v -3.6 h 5.6 l 10.3,12.1 h 0.1 v -8.6 h -3 v -3.6 h 9.1 v 3.6 z"
               class="st0"
               id="XMLID_479_"
               inkscape:connector-curvature="0"
               style="fill:#000000" />
          </g>
          <g
             id="XMLID_422_"
             style="fill:#000000">
            <path
               d="m -206.6,310.7 -0.3,-1.9 h -1.7 v 6.8 h 1.8 v 1.9 h -5.5 v -1.9 h 1.7 v -6.8 h -1.7 l -0.3,1.9 -1.9,-0.2 0.3,-3.6 h 9.2 l 0.3,3.6 z"
               class="st1"
               id="XMLID_467_"
               inkscape:connector-curvature="0"
               style="fill:#ffffff" />
            <path
               d="m -200.7,317.5 v -1.9 h 1.1 v -6.8 h -1.1 V 307 h 4.4 v 1.9 h -1.1 v 6.8 h 1.1 v 1.9 h -4.4 z"
               class="st1"
               id="XMLID_454_"
               inkscape:connector-curvature="0"
               style="fill:#ffffff" />
            <path
               d="m -184.7,317.5 -2.1,-4 h -1.4 v 2.2 h 1.1 v 1.9 h -4.4 v -1.9 h 1.1 v -6.8 h -1.1 V 307 h 4.8 c 2.6,0 4,1 4,3.2 0,1.4 -0.8,2.4 -2,2.9 l 1.4,2.6 h 1.2 v 1.9 h -2.6 z m -2.6,-8.6 h -1 v 3 h 1 c 1.7,0 2.2,-0.5 2.2,-1.6 -0.1,-1.1 -0.7,-1.4 -2.2,-1.4 z"
               class="st1"
               id="XMLID_447_"
               inkscape:connector-curvature="0"
               style="fill:#ffffff" />
            <path
               d="m -171.8,317.5 v -1.9 h 0.8 l -0.4,-1 h -3.6 l -0.4,1 h 1 v 1.9 h -4.1 v -1.9 h 0.9 l 3,-6.8 H -176 V 307 h 3.6 l 3.8,8.7 h 1 v 1.9 h -4.2 z m -1.1,-7.4 v 0 l -1.2,3 h 2.4 z"
               class="st1"
               id="XMLID_423_"
               inkscape:connector-curvature="0"
               style="fill:#ffffff" />
            <path
               d="m -153.6,308.9 v 8.7 h -1.2 l -5.7,-6.7 h -0.1 v 4.9 h 1.4 v 1.9 h -4.7 v -1.9 h 1.1 V 309 h -1.3 v -2 h 2.9 l 5.4,6.3 h 0.1 v -4.4 h -1.6 V 307 h 4.7 v 1.9 z"
               class="st1"
               id="XMLID_426_"
               inkscape:connector-curvature="0"
               style="fill:#ffffff" />
            <path
               d="m -142.2,317.5 v -1.9 h 0.8 l -0.4,-1 h -3.6 l -0.4,1 h 1 v 1.9 h -4.1 v -1.9 h 0.9 l 3,-6.8 h -1.4 V 307 h 3.6 l 3.8,8.7 h 1 v 1.9 h -4.2 z m -1.2,-7.4 v 0 l -1.2,3 h 2.4 z"
               class="st1"
               id="XMLID_428_"
               inkscape:connector-curvature="0"
               style="fill:#ffffff" />
            <path
               d="m -121.9,310 0.3,-2.6 c 0.8,-0.3 2.1,-0.6 3.3,-0.6 1.9,0 3.6,0.7 3.6,2.7 0,2.6 -2.8,4.5 -4.9,6.2 h 3.5 l 0.3,-1.6 1.8,0.2 -0.3,3.2 h -7.8 l -0.2,-1.8 c 2.3,-1.9 5.2,-4.2 5.2,-5.9 0,-0.7 -0.6,-1.2 -1.6,-1.2 -0.4,0 -1,0.1 -1.4,0.3 l -0.2,1.2 z"
               id="XMLID_431_"
               inkscape:connector-curvature="0"
               style="fill:#000000;fill-opacity:1" />
            <path
               d="m -105.5,306.8 c 3.4,0 4.3,2.9 4.3,5.5 0,3 -1.1,5.4 -4.4,5.4 -3.2,0 -4.2,-2.4 -4.2,-5.3 -0.2,-2.7 0.9,-5.6 4.3,-5.6 z m -0.1,9 c 1.6,0 2.1,-1.4 2.1,-3.6 0,-2 -0.4,-3.4 -2.1,-3.4 -1.7,0 -2,1.6 -2,3.4 0,1.9 0.2,3.6 2,3.6 z"
               id="XMLID_433_"
               inkscape:connector-curvature="0"
               style="fill:#000000;fill-opacity:1" />
            <path
               d="m -97,315.7 h 2 v -6.8 h -2 V 307 h 4.2 v 8.7 h 1.9 v 1.9 h -6 z"
               id="XMLID_436_"
               inkscape:connector-curvature="0"
               style="fill:#000000;fill-opacity:1" />
            <path
               d="m -83.3,317.8 c -2.4,0 -3.9,-0.9 -3.9,-2.8 0,-1.4 1,-2.1 2.2,-2.6 -1,-0.6 -1.9,-1.3 -1.9,-2.7 0,-1.7 1.4,-2.9 3.7,-2.9 2.1,0 3.5,1 3.5,2.6 0,1.2 -0.8,1.8 -1.9,2.3 1.1,0.6 2.2,1.4 2.2,3.1 0.1,1.8 -1.6,3 -3.9,3 z m -0.6,-4.9 c -0.5,0.4 -0.9,0.8 -0.9,1.6 0,0.9 0.5,1.6 1.8,1.6 1,0 1.6,-0.5 1.6,-1.1 -0.3,-1.1 -1.4,-1.6 -2.5,-2.1 z m 0.6,-4.3 c -0.8,0 -1.3,0.4 -1.3,0.9 0,0.7 0.9,1.1 2,1.7 0.4,-0.3 0.7,-0.8 0.7,-1.4 0.1,-0.9 -0.7,-1.2 -1.4,-1.2 z"
               id="XMLID_438_"
               inkscape:connector-curvature="0"
               style="fill:#000000;fill-opacity:1" />
          </g>
        </g>
      </g>
      <g
         id="XMLID_12_">
        <g
           id="XMLID_60_">
          <rect
             height="8.6000004"
             width="3.3"
             class="st2"
             y="289.79999"
             x="-263.79999"
             id="XMLID_61_"
             style="fill:none" />
        </g>
        <g
           id="XMLID_59_" />
        <g
           id="XMLID_57_">
          <rect
             height="8.6000004"
             width="3.3"
             class="st2"
             y="289.79999"
             x="-257.10001"
             id="XMLID_58_"
             style="fill:none" />
        </g>
        <g
           id="XMLID_55_">
          <path
             d="m -245.1,286.4 v 0.2 l 0.1,0.1 c 0.6,0.8 1.1,2.2 1.1,3.3 v 8.4 c 0,0 0,0.1 0,0.1 0,1 0,2.4 0,3.4 0,0 0,0.1 0,0.1 v 21.6 l 11.9,-6.8 V 286 l -25,-14.4 11.8,14.9 z"
             class="st2"
             id="XMLID_56_"
             inkscape:connector-curvature="0"
             style="fill:none" />
        </g>
        <g
           id="XMLID_45_">
          <path
             d="m -258.8,308.3 c -3.7,0 -6.7,3 -6.7,6.7 0,3.7 3,6.7 6.7,6.7 3.7,0 6.7,-3 6.7,-6.7 0,-3.7 -3,-6.7 -6.7,-6.7 z m 3.1,8.9 h -3.6 c -0.9,0 -1.7,-0.8 -1.7,-1.7 v -2.1 c 0,-0.9 0.8,-1.7 1.7,-1.7 0.9,0 1.7,0.8 1.7,1.7 v 0.4 h 1.9 c 0.9,0 1.7,0.8 1.7,1.7 0,0.9 -0.8,1.7 -1.7,1.7 z"
             class="st2"
             id="XMLID_48_"
             inkscape:connector-curvature="0"
             style="fill:none" />
        </g>
        <g
           id="XMLID_39_">
          <path
             d="m -250.4,298.5 h 3.1 v -0.1 -8.4 c 0,0 0,-0.1 0,-0.1 h -3.1 z"
             class="st2"
             id="XMLID_44_"
             inkscape:connector-curvature="0"
             style="fill:none" />
        </g>
        <g
           id="XMLID_21_">
          <polygon
             points="-268.1,286.4 -249.6,286.4 -258.8,274.7 "
             class="st2"
             id="XMLID_38_"
             style="fill:none" />
        </g>
        <g
           id="XMLID_17_">
          <path
             d="m -267.3,289.8 h -3.1 c 0,0 0,0.1 0,0.1 v 8.4 0.1 h 3.1 z"
             class="st2"
             id="XMLID_20_"
             inkscape:connector-curvature="0"
             style="fill:none" />
        </g>
        <g
           id="XMLID_15_">
          <path
             d="m -258.8,304.9 c -5.6,0 -10.1,4.5 -10.1,10.1 0,5.6 4.5,10.1 10.1,10.1 5.6,0 10.1,-4.5 10.1,-10.1 0,-5.5 -4.6,-10.1 -10.1,-10.1 z m 0,16.8 c -3.7,0 -6.7,-3 -6.7,-6.7 0,-3.7 3,-6.7 6.7,-6.7 3.7,0 6.7,3 6.7,6.7 0,3.8 -3,6.7 -6.7,6.7 z"
             id="XMLID_16_"
             inkscape:connector-curvature="0"
             style="fill:#000000;fill-opacity:1" />
        </g>
        <path
           id="path985"
           d="m -258.7,266.7 -30,17.3 v 34.7 l 30,17.4 30.1,-17.4 V 284 Z m 9.1,19.7 h -18.5 l 9.2,-11.7 z m -4.3,3.4 v 8.6 h -3.3 v -8.6 z m -6.6,0 v 8.6 h -3.3 v -8.6 z m -12.1,-3.1 c -0.6,0.8 -1.1,2.2 -1.1,3.3 v 33.5 l -11.6,-6.7 V 286 l 24.4,-14.1 -11.5,14.5 z m 2.2,11.7 v 0 -8.5 h 3.1 v 8.6 z m 23.1,27.2 -11.4,6.6 -11.6,-6.8 v 0 -23.4 0 -0.1 h 23.1 z m 0,-27.1 h -3.1 v -8.6 h 3.1 c 0,0 0,0 0,0.1 z m 15.2,18.2 -11.8,6.8 v -33.6 c 0,-1 -0.5,-2.4 -1.1,-3.3 l -0.1,-0.1 v -0.2 h -0.1 l -11.7,-14.8 24.9,14.3 v 30.9 z"
           inkscape:connector-curvature="0"
           style="fill:#000000;fill-opacity:1" />
        <g
           id="XMLID_13_">
          <path
             d="m -255.7,313.8 h -1.9 v -0.4 c 0,-0.9 -0.8,-1.7 -1.7,-1.7 -0.9,0 -1.7,0.8 -1.7,1.7 v 2.1 c 0,0.9 0.8,1.7 1.7,1.7 h 3.6 c 0.9,0 1.7,-0.8 1.7,-1.7 0,-1 -0.8,-1.7 -1.7,-1.7 z"
             id="XMLID_14_"
             inkscape:connector-curvature="0"
             style="fill:#000000;fill-opacity:1" />
        </g>
      </g>
    </g>
  </g>
</svg>
