<svg width="1413" height="216" viewBox="0 0 1413 216" fill="none" xmlns="http://www.w3.org/2000/svg">
<path d="M258.194 175.271H282.519V47.6964H258.194V175.271Z" fill="white"/>
<path d="M357.453 177.021C397.353 177.021 419.053 153.046 419.053 111.921V111.396C419.053 68.8714 395.078 46.1214 357.453 46.1214C319.828 46.1214 295.853 68.8714 295.853 111.396V111.921C295.853 153.046 317.553 177.021 357.453 177.021ZM357.453 155.846C334.703 155.846 321.403 142.721 321.403 121.196V101.946C321.403 81.6464 333.303 67.2964 357.453 67.2964C381.603 67.2964 393.503 81.6464 393.503 101.946V121.196C393.503 142.721 380.203 155.846 357.453 155.846Z" fill="white"/>
<path d="M432.531 175.271H483.281C519.856 175.271 544.356 155.496 544.356 112.096V110.871C544.356 70.4464 523.006 47.5214 483.281 47.5214H432.531V175.271ZM456.856 154.446V68.3464H483.281C507.256 68.3464 518.631 81.8214 518.631 101.946V120.846C518.631 142.196 506.031 154.446 483.281 154.446H456.856Z" fill="white"/>
<path d="M542.145 175.271H565.595L575.22 147.446H630.17L639.795 175.271H663.945L619.845 47.6964H586.07L542.145 175.271ZM580.995 128.896L602.17 66.7714H603.22L610.745 88.6464L624.395 128.896H580.995Z" fill="white"/>
<path d="M759.88 96.6015H765.476V48.0364H759.88V96.6015Z" fill="white"/>
<path d="M776.942 96.6015H782.271V76.1495C782.271 69.6875 785.602 65.5571 791.198 65.5571C795.861 65.5571 798.993 67.7556 798.993 74.8172V96.6015H804.322V74.151C804.322 65.8236 800.658 61.0271 793.263 61.0271C788.2 61.0271 784.137 63.8251 782.738 68.2219H782.338L781.938 61.6933H776.942V96.6015Z" fill="white"/>
<path d="M822.398 96.6015H831.059V92.2713H822.731V66.1567H831.325V61.6933H822.731V50.3681H817.402V61.6933H810.074V66.1567H817.402V91.7383C817.402 94.7362 818.867 96.6015 822.398 96.6015Z" fill="white"/>
<path d="M850.37 97.2677C858.031 97.2677 863.694 92.9375 864.027 85.6094H858.897C858.498 90.0729 855.367 93.0041 850.304 93.0041C844.641 93.0041 841.31 89.3401 841.31 83.6108V80.4798H864.227V76.0829C864.227 66.8229 859.164 61.0937 850.17 61.0271C841.643 61.0937 835.781 66.5564 835.781 77.2821V80.6796C835.781 91.0055 840.71 97.2677 850.37 97.2677ZM841.31 75.4833C841.31 69.2878 844.108 65.2907 850.237 65.2907C855.7 65.2907 858.897 68.4884 858.897 75.4833V76.8157H841.31V75.4833Z" fill="white"/>
<path d="M872.116 96.6015H877.445V66.1567H890.036V61.6933H877.512C874.247 61.6933 872.116 63.5586 872.116 67.0228V96.6015Z" fill="white"/>
<path d="M897.009 96.6015H902.339V76.1495C902.339 69.6875 905.67 65.5571 911.266 65.5571C915.929 65.5571 919.06 67.7556 919.06 74.8172V96.6015H924.389V74.151C924.389 65.8236 920.725 61.0271 913.331 61.0271C908.268 61.0271 904.204 63.8251 902.805 68.2219H902.405L902.005 61.6933H897.009V96.6015Z" fill="white"/>
<path d="M946.52 97.2677C954.181 97.2677 959.844 92.9375 960.177 85.6094H955.047C954.647 90.0729 951.516 93.0041 946.453 93.0041C940.791 93.0041 937.46 89.3401 937.46 83.6108V80.4798H960.377V76.0829C960.377 66.8229 955.314 61.0937 946.32 61.0271C937.793 61.0937 931.93 66.5564 931.93 77.2821V80.6796C931.93 91.0055 936.86 97.2677 946.52 97.2677ZM937.46 75.4833C937.46 69.2878 940.258 65.2907 946.387 65.2907C951.849 65.2907 955.047 68.4884 955.047 75.4833V76.8157H937.46V75.4833Z" fill="white"/>
<path d="M976.792 96.6015H985.453V92.2713H977.125V66.1567H985.719V61.6933H977.125V50.3681H971.796V61.6933H964.468V66.1567H971.796V91.7383C971.796 94.7362 973.262 96.6015 976.792 96.6015Z" fill="white"/>
<path d="M1023.6 97.2677C1035.79 97.2677 1043.25 90.2061 1043.25 75.55V69.1546C1043.25 54.4984 1035.73 47.4368 1023.6 47.4368C1011.54 47.4368 1004.02 54.4984 1004.02 69.1546V75.55C1004.02 90.2061 1011.48 97.2677 1023.6 97.2677ZM1023.6 92.4045C1014.81 92.4045 1009.88 87.2083 1009.88 78.0149V66.623C1009.88 58.1625 1014.27 52.3 1023.6 52.3C1032.99 52.3 1037.39 58.1625 1037.39 66.623V78.0149C1037.39 87.2083 1032.46 92.4045 1023.6 92.4045Z" fill="white"/>
<path d="M1061.99 97.2677C1067.12 97.2677 1071.19 94.4697 1072.65 90.1395H1073.05L1073.45 96.6015H1078.45V61.6933H1073.12V82.2118C1073.12 88.6073 1069.79 92.8042 1064.19 92.8042C1059.59 92.8042 1056.46 90.5392 1056.46 83.5442V61.6933H1051.13V84.277C1051.13 92.1381 1054.53 97.2677 1061.99 97.2677Z" fill="white"/>
<path d="M1097.05 96.6015H1105.72V92.2713H1097.39V66.1567H1105.98V61.6933H1097.39V50.3681H1092.06V61.6933H1084.73V66.1567H1092.06V91.7383C1092.06 94.7362 1093.52 96.6015 1097.05 96.6015Z" fill="white"/>
<path d="M1122.76 97.2677C1127.43 97.2677 1131.36 94.6696 1132.82 90.6058H1133.22V96.6015H1138.55V61.6933H1133.49L1133.22 67.7556H1132.82C1131.36 63.6252 1127.49 61.0937 1122.76 61.0937C1114.9 61.0937 1110.44 66.4898 1110.44 77.4819V81.0793C1110.44 91.4719 1114.57 97.2677 1122.76 97.2677ZM1124.63 92.8042C1119.36 92.8042 1116.1 89.6065 1116.1 83.0779V75.3501C1116.1 68.7548 1119.36 65.5571 1124.63 65.5571C1130.02 65.5571 1133.22 69.4877 1133.22 75.6166V82.7448C1133.22 88.8737 1130.02 92.8042 1124.63 92.8042Z" fill="white"/>
<path d="M1159.98 108.393C1169.51 108.393 1174.44 103.93 1174.44 95.0027V61.6933H1169.38L1169.11 67.6889H1168.64C1167.24 63.6252 1163.51 61.0271 1158.58 61.0271C1150.99 61.0271 1146.33 66.0901 1146.33 76.6159V78.9475C1146.33 88.6739 1150.26 94.5363 1158.52 94.5363C1163.18 94.5363 1167.18 92.0048 1168.64 87.8744H1169.04V95.5356C1169.04 101.398 1166.51 104.396 1160.25 104.396C1155.72 104.396 1152.72 102.197 1152.52 98.5335H1147.39C1147.59 104.529 1152.45 108.393 1159.98 108.393ZM1160.52 90.0729C1155.25 90.0729 1151.99 86.9418 1151.99 80.8129V75.2169C1151.99 68.6882 1155.25 65.4905 1160.52 65.4905C1165.85 65.4905 1169.04 69.3544 1169.04 75.4167V80.1467C1169.04 86.1424 1165.91 90.0729 1160.52 90.0729Z" fill="white"/>
<path d="M1196.74 97.2677C1204.4 97.2677 1210.06 92.9375 1210.4 85.6094H1205.27C1204.87 90.0729 1201.73 93.0041 1196.67 93.0041C1191.01 93.0041 1187.68 89.3401 1187.68 83.6108V80.4798H1210.6V76.0829C1210.6 66.8229 1205.53 61.0937 1196.54 61.0271C1188.01 61.0937 1182.15 66.5564 1182.15 77.2821V80.6796C1182.15 91.0055 1187.08 97.2677 1196.74 97.2677ZM1187.68 75.4833C1187.68 69.2878 1190.48 65.2907 1196.61 65.2907C1202.07 65.2907 1205.27 68.4884 1205.27 75.4833V76.8157H1187.68V75.4833Z" fill="white"/>
<path d="M759.88 168.602H776.002C787.86 168.602 795.454 162.073 795.454 146.95V141.688C795.454 126.965 788.26 120.036 776.002 120.036H759.88V168.602ZM765.476 163.738V124.9H775.869C785.328 124.9 789.592 130.629 789.592 139.356V149.215C789.592 158.542 784.795 163.738 775.869 163.738H765.476Z" fill="white"/>
<path d="M815.937 169.268C823.598 169.268 829.26 164.937 829.593 157.609H824.464C824.064 162.073 820.933 165.004 815.87 165.004C810.207 165.004 806.876 161.34 806.876 155.611V152.48H829.793V148.083C829.793 138.823 824.73 133.094 815.737 133.027C807.21 133.094 801.347 138.556 801.347 149.282V152.68C801.347 163.006 806.277 169.268 815.937 169.268ZM806.876 147.483C806.876 141.288 809.674 137.291 815.803 137.291C821.266 137.291 824.464 140.488 824.464 147.483V148.816H806.876V147.483Z" fill="white"/>
<path d="M846.209 168.602H854.87V164.271H846.542V138.157H855.136V133.693H846.542V122.368H841.213V133.693H833.885V138.157H841.213V163.738C841.213 166.736 842.678 168.602 846.209 168.602Z" fill="white"/>
<path d="M874.181 169.268C881.842 169.268 887.505 164.937 887.838 157.609H882.708C882.309 162.073 879.178 165.004 874.115 165.004C868.452 165.004 865.121 161.34 865.121 155.611V152.48H888.038V148.083C888.038 138.823 882.975 133.094 873.981 133.027C865.454 133.094 859.592 138.556 859.592 149.282V152.68C859.592 163.006 864.521 169.268 874.181 169.268ZM865.121 147.483C865.121 141.288 867.919 137.291 874.048 137.291C879.511 137.291 882.708 140.488 882.708 147.483V148.816H865.121V147.483Z" fill="white"/>
<path d="M907.918 169.268C915.979 169.268 921.575 164.538 921.775 156.61H916.512C916.312 161.54 913.447 164.804 907.985 164.804C902.189 164.804 898.991 161.273 898.991 155.411V146.95C898.991 141.288 902.255 137.491 907.985 137.491C912.981 137.491 916.112 140.488 916.512 145.685H921.708C921.375 137.557 915.979 133.094 907.985 133.027C899.257 133.094 893.528 138.29 893.528 149.415V152.946C893.528 163.339 898.458 169.268 907.918 169.268Z" fill="white"/>
<path d="M953.993 127.831H959.323V120.036H953.993V127.831ZM953.993 138.157V168.602H959.323V133.693H938.138V122.368H932.808V133.693H925.48V138.157H932.808V163.738C932.808 166.736 934.274 168.602 937.805 168.602H946.465V164.271H938.138V138.157H953.993Z" fill="white"/>
<path d="M981.518 169.268C991.044 169.268 995.974 163.405 995.974 152.946V149.415C995.974 138.357 990.311 133.094 981.518 133.027C972.791 133.094 967.061 138.29 967.061 149.415V152.946C967.061 163.339 971.925 169.268 981.518 169.268ZM981.518 164.804C975.722 164.804 972.591 161.273 972.591 155.411V146.95C972.591 141.288 975.788 137.491 981.518 137.491C987.247 137.491 990.445 141.288 990.445 146.95V155.411C990.445 161.273 987.313 164.804 981.518 164.804Z" fill="white"/>
<path d="M1003.92 168.602H1009.25V148.15C1009.25 141.688 1012.58 137.557 1018.17 137.557C1022.84 137.557 1025.97 139.756 1025.97 146.817V168.602H1031.3V146.151C1031.3 137.824 1027.63 133.027 1020.24 133.027C1015.18 133.027 1011.11 135.825 1009.71 140.222H1009.31L1008.91 133.693H1003.92V168.602Z" fill="white"/>
<path d="M1064.48 169.268C1069.14 169.268 1073.07 166.67 1074.54 162.606H1074.93V168.602H1080.26V133.693H1075.2L1074.93 139.756H1074.54C1073.07 135.625 1069.21 133.094 1064.48 133.094C1056.61 133.094 1052.15 138.49 1052.15 149.482V153.079C1052.15 163.472 1056.28 169.268 1064.48 169.268ZM1066.34 164.804C1061.08 164.804 1057.81 161.607 1057.81 155.078V147.35C1057.81 140.755 1061.08 137.557 1066.34 137.557C1071.74 137.557 1074.93 141.488 1074.93 147.617V154.745C1074.93 160.874 1071.74 164.804 1066.34 164.804Z" fill="white"/>
<path d="M1090.44 168.602H1095.77V148.15C1095.77 141.688 1099.1 137.557 1104.69 137.557C1109.36 137.557 1112.49 139.756 1112.49 146.817V168.602H1117.82V146.151C1117.82 137.824 1114.15 133.027 1106.76 133.027C1101.7 133.027 1097.63 135.825 1096.23 140.222H1095.83L1095.43 133.693H1090.44V168.602Z" fill="white"/>
<path d="M1137.68 169.268C1142.41 169.268 1146.28 166.67 1147.74 162.539H1148.14L1148.41 168.602H1153.47V120.036H1148.14V139.689H1147.74C1146.28 135.625 1142.35 133.027 1137.68 133.027C1129.82 133.027 1125.36 138.423 1125.36 149.215V152.879C1125.36 163.339 1129.49 169.268 1137.68 169.268ZM1139.55 164.804C1134.29 164.804 1131.02 161.607 1131.02 155.011V147.283C1131.02 140.688 1134.29 137.557 1139.55 137.557C1144.95 137.557 1148.14 141.488 1148.14 147.55V154.678C1148.14 160.874 1144.95 164.804 1139.55 164.804Z" fill="white"/>
<path d="M1171.83 168.602H1177.36L1181.16 156.743H1200.94L1204.67 168.602H1210.34L1194.95 120.036H1187.22L1171.83 168.602ZM1182.36 152.347L1187.82 134.693L1190.82 124.9H1191.22L1194.21 134.626L1199.74 152.347H1182.36Z" fill="white"/>
<path d="M1215.45 168.602H1220.78V148.15C1220.78 141.688 1224.11 137.557 1229.71 137.557C1234.37 137.557 1237.5 139.756 1237.5 146.817V168.602H1242.83V146.151C1242.83 137.824 1239.17 133.027 1231.77 133.027C1226.71 133.027 1222.64 135.825 1221.25 140.222H1220.85L1220.45 133.693H1215.45V168.602Z" fill="white"/>
<path d="M1262.7 169.268C1267.36 169.268 1271.29 166.67 1272.75 162.606H1273.15V168.602H1278.48V133.693H1273.42L1273.15 139.756H1272.75C1271.29 135.625 1267.43 133.094 1262.7 133.094C1254.83 133.094 1250.37 138.49 1250.37 149.482V153.079C1250.37 163.472 1254.5 169.268 1262.7 169.268ZM1264.56 164.804C1259.3 164.804 1256.03 161.607 1256.03 155.078V147.35C1256.03 140.755 1259.3 137.557 1264.56 137.557C1269.96 137.557 1273.15 141.488 1273.15 147.617V154.745C1273.15 160.874 1269.96 164.804 1264.56 164.804Z" fill="white"/>
<path d="M1288.52 168.602H1293.92V120.036H1288.52V168.602Z" fill="white"/>
<path d="M1301.65 179.727H1314.11C1316.78 179.727 1318.44 178.394 1318.44 175.463V165.137L1331.1 133.693H1325.5L1317.04 156.344L1315.91 159.475H1315.58L1314.51 156.344L1306.18 133.693H1300.52L1313.11 165.137V175.397H1301.65V179.727Z" fill="white"/>
<path d="M1347.4 169.268C1354.86 169.268 1360.06 165.737 1360.06 159.142C1360.06 151.281 1354 149.615 1348.87 148.483C1344.47 147.417 1340.81 146.484 1340.81 142.354C1340.81 139.156 1343.01 137.091 1347.34 137.091C1351.73 137.091 1354.26 139.289 1354.4 143.553H1359.46C1359.33 137.157 1354.93 133.027 1347.34 133.027C1340.41 133.027 1335.48 136.691 1335.48 142.953C1335.48 149.815 1341.21 151.48 1346.2 152.68C1351.47 153.879 1354.6 154.878 1354.6 159.608C1354.6 162.806 1352.4 165.204 1347.47 165.204C1342.74 165.137 1339.74 163.006 1339.61 157.876H1334.48C1334.48 164.671 1338.81 169.268 1347.4 169.268Z" fill="white"/>
<path d="M1367.43 127.831H1372.89V119.97H1367.43V127.831ZM1367.5 168.602H1372.89V133.693H1367.5V168.602Z" fill="white"/>
<path d="M1393.35 169.268C1400.81 169.268 1406.01 165.737 1406.01 159.142C1406.01 151.281 1399.95 149.615 1394.82 148.483C1390.42 147.417 1386.76 146.484 1386.76 142.354C1386.76 139.156 1388.95 137.091 1393.28 137.091C1397.68 137.091 1400.21 139.289 1400.35 143.553H1405.41C1405.28 137.157 1400.88 133.027 1393.28 133.027C1386.36 133.027 1381.43 136.691 1381.43 142.953C1381.43 149.815 1387.16 151.48 1392.15 152.68C1397.42 153.879 1400.55 154.878 1400.55 159.608C1400.55 162.806 1398.35 165.204 1393.42 165.204C1388.69 165.137 1385.69 163.006 1385.56 157.876H1380.43C1380.43 164.671 1384.76 169.268 1393.35 169.268Z" fill="white"/>
<path fill-rule="evenodd" clip-rule="evenodd" d="M705.536 201.976L705.536 20.4541H709.536L709.536 201.976H705.536Z" fill="white"/>
<path d="M57.5305 71.9923L97.1737 49.1043L147.893 78.3868V124.163L193.724 150.624C193.761 150.069 193.78 149.51 193.78 148.949V66.3898C193.78 57.4195 188.995 49.1305 181.226 44.6453L109.728 3.36584C101.959 -1.11934 92.3881 -1.11934 84.6195 3.36584L13.1213 44.6453C12.6352 44.926 12.1608 45.2215 11.6985 45.5312L57.5305 71.9923Z" fill="white"/>
<path d="M46.4554 91.174L0.62347 64.7129C0.586389 65.2684 0.567627 65.8274 0.567627 66.3891V148.948C0.567627 157.918 5.35326 166.207 13.1218 170.693L84.62 211.972C92.3886 216.457 101.96 216.457 109.728 211.972L181.227 170.693C181.713 170.412 182.188 170.116 182.65 169.806L136.818 143.345L97.1742 166.234L46.4554 136.951V91.174Z" fill="white"/>
</svg>
