<svg width="666" height="216" viewBox="0 0 666 216" fill="none" xmlns="http://www.w3.org/2000/svg">
<path d="M258.3 175.271H282.625V47.6965H258.3V175.271Z" fill="white"/>
<path d="M357.559 177.021C397.459 177.021 419.159 153.046 419.159 111.921V111.396C419.159 68.8715 395.184 46.1215 357.559 46.1215C319.934 46.1215 295.959 68.8715 295.959 111.396V111.921C295.959 153.046 317.659 177.021 357.559 177.021ZM357.559 155.846C334.809 155.846 321.509 142.721 321.509 121.196V101.946C321.509 81.6465 333.409 67.2965 357.559 67.2965C381.709 67.2965 393.609 81.6465 393.609 101.946V121.196C393.609 142.721 380.309 155.846 357.559 155.846Z" fill="white"/>
<path d="M432.637 175.271H483.387C519.962 175.271 544.462 155.496 544.462 112.096V110.871C544.462 70.4465 523.112 47.5215 483.387 47.5215H432.637V175.271ZM456.962 154.446V68.3465H483.387C507.362 68.3465 518.737 81.8215 518.737 101.946V120.846C518.737 142.197 506.137 154.446 483.387 154.446H456.962Z" fill="white"/>
<path d="M542.251 175.271H565.701L575.326 147.446H630.276L639.901 175.271H664.051L619.951 47.6965H586.176L542.251 175.271ZM581.101 128.896L602.276 66.7715H603.326L610.851 88.6465L624.501 128.896H581.101Z" fill="white"/>
<path d="M57.6359 71.9923L97.2792 49.1043L147.998 78.3868V124.163L193.83 150.624C193.867 150.069 193.886 149.51 193.886 148.949V66.3898C193.886 57.4195 189.1 49.1305 181.332 44.6453L109.833 3.36584C102.065 -1.11934 92.4935 -1.11934 84.725 3.36584L13.2268 44.6453C12.7407 44.926 12.2663 45.2215 11.804 45.5312L57.6359 71.9923Z" fill="white"/>
<path d="M46.5608 91.174L0.728938 64.7129C0.691857 65.2684 0.673096 65.8274 0.673096 66.3891V148.948C0.673096 157.918 5.45873 166.207 13.2273 170.693L84.7255 211.972C92.494 216.457 102.065 216.457 109.834 211.972L181.332 170.693C181.818 170.412 182.293 170.116 182.756 169.806L136.924 143.345L97.2797 166.234L46.5608 136.951V91.174Z" fill="white"/>
</svg>
