<svg width="1177" height="217" viewBox="0 0 1177 217" fill="none" xmlns="http://www.w3.org/2000/svg">
<path d="M258.613 175.938H282.938V48.3625H258.613V175.938Z" fill="black"/>
<path d="M357.872 177.688C397.772 177.688 419.472 153.712 419.472 112.587V112.062C419.472 69.5375 395.497 46.7875 357.872 46.7875C320.247 46.7875 296.272 69.5375 296.272 112.062V112.587C296.272 153.712 317.972 177.688 357.872 177.688ZM357.872 156.513C335.122 156.513 321.822 143.388 321.822 121.862V102.612C321.822 82.3125 333.722 67.9625 357.872 67.9625C382.022 67.9625 393.922 82.3125 393.922 102.612V121.862C393.922 143.388 380.622 156.513 357.872 156.513Z" fill="black"/>
<path d="M432.95 175.938H483.7C520.275 175.938 544.775 156.162 544.775 112.762V111.537C544.775 71.1125 523.425 48.1875 483.7 48.1875H432.95V175.938ZM457.275 155.112V69.0125H483.7C507.675 69.0125 519.05 82.4875 519.05 102.612V121.513C519.05 142.863 506.45 155.112 483.7 155.112H457.275Z" fill="black"/>
<path d="M542.564 175.938H566.014L575.639 148.112H630.589L640.214 175.938H664.364L620.264 48.3625H586.489L542.564 175.938ZM581.414 129.562L602.589 67.4375H603.639L611.164 89.3125L624.814 129.562H581.414Z" fill="black"/>
<path fill-rule="evenodd" clip-rule="evenodd" d="M705.954 202.642L705.954 21.1201H709.954L709.954 202.642H705.954Z" fill="black"/>
<path d="M57.9494 72.6583L97.5926 49.7703L148.311 79.0528V124.829L194.143 151.29C194.18 150.735 194.199 150.176 194.199 149.615V67.0558C194.199 58.0855 189.414 49.7965 181.645 45.3113L110.147 4.03186C102.378 -0.453326 92.807 -0.453327 85.0384 4.03185L13.5403 45.3113C13.0542 45.592 12.5797 45.8875 12.1174 46.1972L57.9494 72.6583Z" fill="black"/>
<path d="M46.8743 91.84L1.04241 65.3789C1.00533 65.9345 0.986572 66.4935 0.986572 67.0551V149.614C0.986572 158.584 5.7722 166.873 13.5408 171.359L85.0389 212.638C92.8075 217.123 102.379 217.123 110.147 212.638L181.645 171.359C182.132 171.078 182.607 170.782 183.069 170.472L137.237 144.011L97.5931 166.9L46.8743 137.617V91.84Z" fill="black"/>
<path d="M961.321 121.522H998.491C998.585 121.509 998.68 121.517 998.769 121.546C998.858 121.576 998.94 121.625 999.007 121.691C999.074 121.757 999.126 121.838 999.157 121.927C999.188 122.015 999.198 122.11 999.187 122.204V133.262C999.2 133.356 999.192 133.453 999.162 133.543C999.132 133.634 999.081 133.716 999.013 133.784C998.946 133.852 998.863 133.902 998.773 133.932C998.682 133.963 998.586 133.971 998.491 133.957H992.546C992.452 133.971 992.355 133.963 992.265 133.932C992.174 133.902 992.092 133.852 992.024 133.784C991.957 133.716 991.906 133.634 991.876 133.543C991.846 133.453 991.837 133.356 991.851 133.262V129.171C991.857 129.116 991.851 129.06 991.833 129.007C991.815 128.955 991.785 128.907 991.746 128.868C991.706 128.828 991.658 128.798 991.606 128.78C991.553 128.762 991.497 128.756 991.442 128.762H984.392C984.337 128.756 984.281 128.762 984.228 128.78C984.176 128.798 984.128 128.828 984.089 128.868C984.049 128.907 984.019 128.955 984.001 129.007C983.983 129.06 983.977 129.116 983.983 129.171V161.31C983.977 161.365 983.983 161.421 984.001 161.474C984.019 161.526 984.049 161.574 984.089 161.614C984.128 161.653 984.176 161.683 984.228 161.701C984.281 161.719 984.337 161.725 984.392 161.719H987.992C988.086 161.707 988.18 161.718 988.269 161.749C988.358 161.78 988.439 161.831 988.505 161.898C988.57 161.966 988.62 162.047 988.649 162.137C988.679 162.226 988.687 162.321 988.674 162.414V167.868C988.687 167.962 988.679 168.057 988.649 168.146C988.62 168.236 988.57 168.317 988.505 168.384C988.439 168.452 988.358 168.503 988.269 168.534C988.18 168.565 988.086 168.575 987.992 168.564H971.807C971.713 168.578 971.617 168.57 971.527 168.54C971.436 168.51 971.355 168.459 971.288 168.391C971.221 168.323 971.172 168.24 971.144 168.149C971.115 168.058 971.109 167.962 971.125 167.868V162.414C971.109 162.321 971.115 162.224 971.144 162.133C971.172 162.043 971.221 161.96 971.288 161.892C971.355 161.824 971.436 161.773 971.527 161.743C971.617 161.713 971.713 161.705 971.807 161.719H975.407C975.462 161.725 975.518 161.719 975.571 161.701C975.623 161.683 975.671 161.653 975.71 161.614C975.75 161.574 975.78 161.526 975.798 161.474C975.816 161.421 975.822 161.365 975.816 161.31V129.117C975.822 129.061 975.816 129.005 975.798 128.953C975.78 128.9 975.75 128.852 975.71 128.813C975.671 128.774 975.623 128.744 975.571 128.725C975.518 128.707 975.462 128.701 975.407 128.708H968.357C968.301 128.699 968.243 128.703 968.189 128.72C968.134 128.738 968.085 128.767 968.044 128.807C968.003 128.846 967.972 128.895 967.953 128.949C967.934 129.003 967.927 129.06 967.935 129.117V133.207C967.951 133.301 967.944 133.397 967.916 133.488C967.888 133.579 967.838 133.662 967.772 133.73C967.705 133.798 967.623 133.849 967.533 133.879C967.443 133.909 967.347 133.917 967.253 133.903H961.308C961.213 133.917 961.117 133.908 961.026 133.878C960.936 133.848 960.853 133.797 960.786 133.729C960.718 133.662 960.667 133.58 960.637 133.489C960.607 133.398 960.599 133.302 960.612 133.207V122.204C960.6 122.109 960.611 122.013 960.643 121.923C960.675 121.833 960.727 121.751 960.796 121.685C960.865 121.619 960.948 121.57 961.039 121.541C961.131 121.513 961.227 121.506 961.321 121.522Z" fill="black"/>
<path d="M1010.7 134.435C1013.78 134.339 1016.82 135.196 1019.39 136.889C1021.77 138.503 1023.53 140.879 1024.37 143.625C1025.23 146.893 1025.6 150.27 1025.48 153.647C1025.48 154.097 1025.22 154.329 1024.71 154.329H1004.26C1004.2 154.319 1004.14 154.324 1004.09 154.341C1004.03 154.359 1003.98 154.39 1003.94 154.432C1003.9 154.473 1003.87 154.523 1003.85 154.579C1003.83 154.635 1003.83 154.694 1003.84 154.751C1003.85 155.624 1004.01 156.487 1004.33 157.301C1005.47 160.664 1007.96 162.346 1011.79 162.346C1013.23 162.404 1014.67 162.151 1016 161.602C1017.34 161.054 1018.54 160.224 1019.53 159.169C1019.9 158.801 1020.25 158.76 1020.57 159.033L1024.66 162.619C1024.73 162.672 1024.8 162.742 1024.84 162.823C1024.89 162.904 1024.91 162.994 1024.92 163.087C1024.93 163.179 1024.91 163.272 1024.88 163.359C1024.85 163.445 1024.79 163.523 1024.73 163.587C1021.51 167.368 1016.96 169.259 1011.09 169.259C1007.95 169.363 1004.85 168.506 1002.21 166.805C999.807 165.18 998.038 162.77 997.21 159.987C996.392 157.339 995.996 154.578 996.037 151.806C995.986 149.039 996.358 146.28 997.142 143.625C997.958 140.835 999.729 138.422 1002.15 136.807C1004.7 135.181 1007.67 134.355 1010.7 134.435ZM1010.7 140.993C1007.29 140.993 1005.1 142.425 1004.14 145.288C1003.84 146.199 1003.7 147.153 1003.71 148.111C1003.7 148.168 1003.71 148.227 1003.73 148.283C1003.74 148.339 1003.78 148.389 1003.82 148.43C1003.86 148.472 1003.91 148.503 1003.96 148.521C1004.02 148.538 1004.08 148.543 1004.14 148.533H1017.19C1017.24 148.54 1017.3 148.534 1017.35 148.515C1017.41 148.496 1017.46 148.465 1017.5 148.424C1017.54 148.383 1017.57 148.334 1017.59 148.28C1017.61 148.226 1017.61 148.168 1017.61 148.111C1017.62 147.153 1017.48 146.201 1017.19 145.288C1016.76 143.998 1015.91 142.888 1014.77 142.139C1013.58 141.37 1012.18 140.972 1010.76 140.993H1010.7Z" fill="black"/>
<path d="M1044.96 134.434C1048.95 134.289 1052.91 135.202 1056.43 137.08C1056.6 137.155 1056.75 137.281 1056.85 137.442C1056.95 137.603 1057 137.79 1056.99 137.979V145.574C1057 145.668 1056.99 145.765 1056.96 145.855C1056.93 145.945 1056.88 146.027 1056.81 146.093C1056.75 146.16 1056.66 146.209 1056.57 146.238C1056.48 146.266 1056.39 146.272 1056.29 146.256H1050.42C1050.32 146.27 1050.23 146.262 1050.14 146.232C1050.05 146.203 1049.97 146.153 1049.9 146.087C1049.84 146.021 1049.79 145.94 1049.76 145.851C1049.73 145.762 1049.72 145.667 1049.73 145.574V142.534C1049.73 142.343 1049.61 142.193 1049.38 142.043C1048.04 141.514 1046.6 141.281 1045.17 141.361C1041.57 141.361 1039.3 142.811 1038.35 145.711C1037.81 147.714 1037.57 149.787 1037.65 151.86C1037.57 153.956 1037.8 156.052 1038.35 158.078C1039.32 160.932 1041.59 162.359 1045.17 162.359C1046.6 162.456 1048.04 162.242 1049.38 161.732C1049.48 161.705 1049.58 161.642 1049.64 161.556C1049.7 161.469 1049.74 161.363 1049.73 161.255V158.133C1049.72 158.039 1049.73 157.944 1049.76 157.855C1049.79 157.765 1049.84 157.684 1049.9 157.617C1049.97 157.549 1050.05 157.498 1050.14 157.467C1050.23 157.436 1050.32 157.426 1050.42 157.437H1056.35C1056.44 157.423 1056.54 157.432 1056.63 157.462C1056.72 157.492 1056.8 157.543 1056.87 157.61C1056.94 157.678 1056.99 157.76 1057.02 157.851C1057.05 157.942 1057.06 158.038 1057.04 158.133V165.796C1057.05 165.985 1057 166.172 1056.9 166.333C1056.8 166.494 1056.66 166.621 1056.48 166.696C1052.92 168.466 1048.99 169.346 1045.02 169.259C1037.52 169.259 1032.74 166.259 1030.86 160.273C1030.08 157.535 1029.73 154.692 1029.83 151.847C1029.74 149.082 1030.09 146.322 1030.86 143.665C1031.7 140.851 1033.53 138.432 1036 136.848C1038.69 135.189 1041.8 134.351 1044.96 134.434Z" fill="black"/>
<path d="M1061.99 121.522H1072.42C1072.52 121.508 1072.61 121.517 1072.7 121.546C1072.79 121.576 1072.87 121.625 1072.94 121.691C1073.01 121.757 1073.06 121.838 1073.09 121.926C1073.12 122.015 1073.13 122.11 1073.12 122.204V138.307H1073.19C1075 135.725 1077.88 134.434 1081.82 134.434C1083.37 134.373 1084.92 134.649 1086.36 135.245C1087.79 135.84 1089.08 136.741 1090.14 137.884C1092.29 140.341 1093.42 143.535 1093.29 146.802V161.31C1093.28 161.365 1093.28 161.421 1093.3 161.474C1093.32 161.526 1093.35 161.574 1093.39 161.613C1093.43 161.653 1093.48 161.683 1093.53 161.701C1093.58 161.719 1093.64 161.725 1093.69 161.719H1096.53C1096.63 161.705 1096.72 161.714 1096.81 161.744C1096.9 161.774 1096.99 161.825 1097.05 161.892C1097.12 161.96 1097.17 162.042 1097.2 162.133C1097.23 162.223 1097.24 162.32 1097.23 162.414V167.868C1097.24 167.963 1097.23 168.059 1097.2 168.15C1097.17 168.24 1097.12 168.323 1097.05 168.39C1096.99 168.458 1096.9 168.509 1096.81 168.539C1096.72 168.569 1096.63 168.577 1096.53 168.564H1082.16C1082.06 168.578 1081.97 168.57 1081.88 168.54C1081.79 168.51 1081.71 168.459 1081.64 168.391C1081.57 168.323 1081.52 168.24 1081.5 168.149C1081.47 168.058 1081.46 167.962 1081.48 167.868V162.414C1081.46 162.32 1081.47 162.224 1081.5 162.133C1081.52 162.043 1081.57 161.96 1081.64 161.892C1081.71 161.824 1081.79 161.773 1081.88 161.743C1081.97 161.713 1082.06 161.704 1082.16 161.719H1085.13C1085.19 161.728 1085.25 161.723 1085.3 161.706C1085.35 161.689 1085.4 161.659 1085.44 161.62C1085.49 161.58 1085.52 161.531 1085.54 161.478C1085.55 161.424 1085.56 161.366 1085.55 161.31V148.602C1085.65 146.706 1085.09 144.836 1083.96 143.311C1083.36 142.691 1082.65 142.197 1081.85 141.86C1081.06 141.523 1080.21 141.349 1079.35 141.349C1078.49 141.349 1077.64 141.523 1076.85 141.86C1076.05 142.197 1075.34 142.691 1074.74 143.311C1073.59 144.826 1073.01 146.701 1073.12 148.602V161.31C1073.11 161.365 1073.12 161.421 1073.14 161.474C1073.15 161.526 1073.18 161.574 1073.22 161.613C1073.26 161.653 1073.31 161.683 1073.36 161.701C1073.42 161.719 1073.47 161.725 1073.53 161.719H1076.5C1076.59 161.704 1076.69 161.713 1076.78 161.743C1076.87 161.773 1076.95 161.824 1077.02 161.892C1077.09 161.96 1077.14 162.043 1077.16 162.133C1077.19 162.224 1077.2 162.32 1077.18 162.414V167.868C1077.2 167.962 1077.19 168.058 1077.16 168.149C1077.14 168.24 1077.09 168.323 1077.02 168.391C1076.95 168.459 1076.87 168.51 1076.78 168.54C1076.69 168.57 1076.59 168.578 1076.5 168.564H1061.99C1061.9 168.577 1061.8 168.569 1061.71 168.539C1061.62 168.509 1061.54 168.458 1061.47 168.39C1061.4 168.323 1061.35 168.24 1061.32 168.15C1061.29 168.059 1061.28 167.963 1061.3 167.868V162.414C1061.28 162.32 1061.29 162.223 1061.32 162.133C1061.35 162.042 1061.4 161.96 1061.47 161.892C1061.54 161.825 1061.62 161.774 1061.71 161.744C1061.8 161.714 1061.9 161.705 1061.99 161.719H1064.96C1065.02 161.725 1065.08 161.719 1065.13 161.701C1065.18 161.683 1065.23 161.653 1065.27 161.613C1065.31 161.574 1065.34 161.526 1065.36 161.474C1065.37 161.421 1065.38 161.365 1065.37 161.31V128.708C1065.37 128.421 1065.24 128.285 1064.96 128.285H1061.99C1061.9 128.298 1061.8 128.29 1061.71 128.26C1061.63 128.231 1061.54 128.181 1061.48 128.116C1061.41 128.05 1061.36 127.969 1061.33 127.88C1061.3 127.791 1061.29 127.697 1061.3 127.603V122.149C1061.29 122.06 1061.31 121.971 1061.35 121.889C1061.38 121.807 1061.43 121.734 1061.5 121.674C1061.57 121.614 1061.64 121.57 1061.73 121.544C1061.81 121.517 1061.9 121.51 1061.99 121.522Z" fill="black"/>
<path d="M1105.83 161.719C1105.15 161.708 1104.49 161.899 1103.92 162.268C1103.35 162.636 1102.91 163.166 1102.64 163.788C1102.37 164.411 1102.3 165.099 1102.43 165.764C1102.55 166.429 1102.87 167.042 1103.35 167.523C1103.83 168.005 1104.43 168.334 1105.1 168.468C1105.76 168.603 1106.45 168.537 1107.08 168.278C1107.7 168.02 1108.24 167.581 1108.61 167.017C1108.99 166.454 1109.19 165.791 1109.18 165.114C1109.19 164.67 1109.1 164.229 1108.93 163.817C1108.77 163.405 1108.52 163.031 1108.21 162.715C1107.89 162.399 1107.52 162.149 1107.11 161.978C1106.7 161.807 1106.26 161.719 1105.82 161.719H1105.83ZM1105.83 167.991C1105.1 167.941 1104.42 167.617 1103.92 167.084C1103.43 166.551 1103.15 165.85 1103.15 165.121C1103.15 164.392 1103.43 163.691 1103.92 163.158C1104.42 162.625 1105.1 162.301 1105.83 162.251C1106.56 162.301 1107.24 162.625 1107.73 163.158C1108.23 163.691 1108.51 164.392 1108.51 165.121C1108.51 165.85 1108.23 166.551 1107.73 167.084C1107.24 167.617 1106.56 167.941 1105.83 167.991Z" fill="black"/>
<path d="M1106.43 165.237C1106.64 165.191 1106.83 165.073 1106.97 164.905C1107.1 164.736 1107.18 164.527 1107.18 164.31C1107.19 164.161 1107.16 164.012 1107.1 163.876C1107.04 163.74 1106.94 163.622 1106.82 163.533C1106.47 163.317 1106.06 163.217 1105.65 163.246C1105.29 163.245 1104.93 163.277 1104.57 163.342V167.078H1105.19V165.442H1105.61C1105.71 165.428 1105.81 165.435 1105.9 165.462C1106 165.489 1106.08 165.536 1106.16 165.599C1106.24 165.661 1106.3 165.739 1106.34 165.827C1106.39 165.915 1106.41 166.011 1106.42 166.11C1106.44 166.446 1106.53 166.774 1106.67 167.078H1107.32C1107.18 166.781 1107.09 166.463 1107.07 166.137C1106.99 165.605 1106.8 165.292 1106.43 165.237ZM1105.62 164.992H1105.19V163.71H1105.62C1106.29 163.71 1106.54 164.037 1106.54 164.378C1106.54 164.719 1106.12 164.992 1105.62 164.992Z" fill="black"/>
<path d="M971.302 60.5444C974.08 60.5302 976.842 60.963 979.483 61.8261C981.762 62.4989 983.888 63.6105 985.742 65.0986C985.888 65.2143 986.007 65.3612 986.09 65.5287C986.172 65.6962 986.216 65.88 986.219 66.0667V74.357C986.233 74.4515 986.224 74.5479 986.194 74.6386C986.164 74.7292 986.113 74.8115 986.046 74.8791C985.978 74.9466 985.896 74.9974 985.805 75.0275C985.714 75.0576 985.618 75.0661 985.523 75.0524H979.306C979.212 75.0638 979.117 75.0535 979.029 75.0224C978.94 74.9913 978.859 74.9401 978.793 74.8729C978.727 74.8057 978.678 74.7242 978.648 74.6347C978.619 74.5452 978.611 74.4502 978.624 74.357V70.2664C978.627 70.1585 978.603 70.0517 978.552 69.9561C978.502 69.8606 978.428 69.7796 978.338 69.721C976.157 68.396 973.633 67.746 971.084 67.8529C966.02 67.8529 962.775 69.9482 961.348 74.1388C960.472 77.6591 960.1 81.2859 960.244 84.9108C960.081 88.4845 960.384 92.0641 961.143 95.56C961.711 97.4041 962.865 99.0127 964.43 100.141C966.327 101.289 968.529 101.832 970.743 101.696C973.405 101.873 976.065 101.301 978.419 100.046C978.623 99.9416 978.794 99.7835 978.914 99.5888C979.034 99.3941 979.099 99.1703 979.101 98.9415V89.765C979.108 89.7096 979.102 89.6536 979.083 89.6009C979.065 89.5483 979.035 89.5005 978.996 89.4611C978.957 89.4218 978.909 89.3918 978.856 89.3736C978.804 89.3554 978.747 89.3493 978.692 89.3559H971.234C971.139 89.3696 971.043 89.3611 970.952 89.331C970.861 89.3009 970.779 89.2501 970.712 89.1825C970.644 89.115 970.593 89.0327 970.563 88.942C970.533 88.8514 970.524 88.755 970.538 88.6605V83.1382C970.524 83.0437 970.533 82.9473 970.563 82.8566C970.593 82.766 970.644 82.6836 970.712 82.6161C970.779 82.5486 970.861 82.4978 970.952 82.4677C971.043 82.4376 971.139 82.429 971.234 82.4428H986.232C986.327 82.429 986.423 82.4376 986.514 82.4677C986.605 82.4978 986.687 82.5486 986.755 82.6161C986.822 82.6836 986.873 82.766 986.903 82.8566C986.933 82.9473 986.942 83.0437 986.928 83.1382V102.991C986.933 103.321 986.853 103.645 986.695 103.935C986.537 104.224 986.308 104.467 986.028 104.641C981.471 107.724 976.05 109.276 970.552 109.073C961.289 109.073 955.462 105.409 953.071 98.0825C952.29 95.7372 951.899 91.3603 951.899 84.9517C951.899 78.9249 952.335 74.5888 953.262 71.9708C955.698 64.3441 961.712 60.5353 971.302 60.5444Z" fill="black"/>
<path d="M1007.75 74.2206C1010.84 74.1281 1013.88 74.9847 1016.46 76.675C1018.84 78.2869 1020.59 80.6642 1021.43 83.4108C1022.29 86.683 1022.66 90.065 1022.53 93.4464C1022.53 93.91 1022.29 94.1418 1021.78 94.1418H1001.26C1001.2 94.1353 1001.15 94.1413 1001.1 94.1595C1001.04 94.1778 1000.99 94.2077 1000.96 94.2471C1000.92 94.2865 1000.89 94.3343 1000.87 94.3869C1000.85 94.4395 1000.84 94.4956 1000.85 94.5509C1000.85 95.4272 1001.02 96.2956 1001.33 97.1143C1002.47 100.482 1004.97 102.159 1008.79 102.159C1010.25 102.215 1011.7 101.953 1013.05 101.39C1014.4 100.828 1015.61 99.978 1016.6 98.9006C1016.97 98.5324 1017.31 98.4779 1017.64 98.7642L1021.73 102.35C1021.8 102.405 1021.86 102.476 1021.9 102.557C1021.95 102.637 1021.98 102.727 1021.98 102.819C1021.99 102.911 1021.97 103.003 1021.94 103.089C1021.91 103.175 1021.86 103.254 1021.79 103.318C1018.56 107.091 1014.01 108.982 1008.16 108.991C1005.02 109.092 1001.92 108.236 999.269 106.536C996.866 104.907 995.098 102.499 994.264 99.7187C993.453 97.0686 993.058 94.3088 993.092 91.5375C993.041 88.7701 993.413 86.0111 994.196 83.3563C995.018 80.5694 996.788 78.1576 999.2 76.5386C1001.76 74.9345 1004.73 74.1275 1007.75 74.2206ZM1007.75 80.7792C1004.34 80.7792 1002.15 82.2064 1001.19 85.0607C1000.91 85.9784 1000.77 86.9358 1000.78 87.8969C1000.77 87.9532 1000.78 88.0108 1000.79 88.0652C1000.81 88.1196 1000.84 88.1692 1000.88 88.2102C1000.92 88.2512 1000.97 88.2824 1001.02 88.3014C1001.08 88.3204 1001.13 88.3266 1001.19 88.3196H1014.25C1014.31 88.3266 1014.37 88.3204 1014.42 88.3014C1014.48 88.2824 1014.52 88.2512 1014.56 88.2102C1014.6 88.1692 1014.63 88.1196 1014.65 88.0652C1014.67 88.0108 1014.67 87.9532 1014.66 87.8969C1014.68 86.9358 1014.54 85.9784 1014.25 85.0607C1013.82 83.772 1012.97 82.667 1011.83 81.9246C1010.63 81.155 1009.24 80.7564 1007.82 80.7792H1007.75Z" fill="black"/>
<path d="M1042.71 74.2206C1045.78 74.1389 1048.8 74.9797 1051.38 76.6341C1053.8 78.2531 1055.57 80.6649 1056.39 83.4518C1057.18 86.1049 1057.55 88.8651 1057.49 91.633C1057.55 94.4007 1057.18 97.1606 1056.39 99.8142C1055.57 102.602 1053.8 105.015 1051.38 106.632C1048.76 108.22 1045.75 109.059 1042.68 109.059C1039.61 109.059 1036.6 108.22 1033.97 106.632C1031.55 105.019 1029.78 102.605 1028.97 99.8142C1028.18 97.1606 1027.81 94.4007 1027.86 91.633C1027.8 88.8651 1028.18 86.1049 1028.97 83.4518C1029.78 80.6623 1031.55 78.2488 1033.97 76.6341C1036.58 74.9711 1039.62 74.1302 1042.71 74.2206ZM1042.71 81.1747C1041.32 81.0393 1039.92 81.4021 1038.77 82.1984C1037.62 82.9947 1036.79 84.1731 1036.42 85.5243C1035.9 87.5295 1035.66 89.6011 1035.73 91.6739C1035.66 93.7468 1035.89 95.8193 1036.42 97.8234C1036.9 99.1 1037.75 100.201 1038.87 100.979C1039.99 101.756 1041.32 102.173 1042.68 102.173C1044.04 102.173 1045.37 101.756 1046.48 100.979C1047.6 100.201 1048.46 99.1 1048.93 97.8234C1049.46 95.8193 1049.7 93.7468 1049.62 91.6739C1049.69 89.6011 1049.46 87.5295 1048.93 85.5243C1048.57 84.1828 1047.75 83.0108 1046.61 82.2149C1045.48 81.4191 1044.09 81.0507 1042.71 81.1747Z" fill="black"/>
<path d="M1081.79 74.4932C1082.88 74.4943 1083.97 74.6131 1085.04 74.8477C1085.49 74.9295 1085.72 75.1614 1085.72 75.5295V81.5427C1085.72 82.1426 1085.44 82.3744 1084.89 82.2381C1083.54 81.9482 1082.17 81.7613 1080.79 81.679C1075.82 81.679 1073.32 84.5425 1073.32 90.242V101.15C1073.32 101.207 1073.32 101.264 1073.34 101.318C1073.36 101.372 1073.39 101.421 1073.43 101.46C1073.47 101.5 1073.52 101.53 1073.58 101.547C1073.63 101.564 1073.69 101.568 1073.75 101.559H1076.99C1077.09 101.546 1077.18 101.554 1077.27 101.584C1077.36 101.614 1077.45 101.665 1077.51 101.733C1077.58 101.8 1077.63 101.883 1077.66 101.973C1077.69 102.064 1077.7 102.16 1077.69 102.255V107.641C1077.7 107.735 1077.69 107.832 1077.66 107.922C1077.63 108.013 1077.58 108.095 1077.51 108.163C1077.45 108.23 1077.36 108.281 1077.27 108.311C1077.18 108.341 1077.09 108.35 1076.99 108.336H1062.24C1062.14 108.35 1062.05 108.341 1061.96 108.311C1061.87 108.281 1061.78 108.23 1061.72 108.163C1061.65 108.095 1061.6 108.013 1061.57 107.922C1061.54 107.832 1061.53 107.735 1061.54 107.641V102.2C1061.53 102.106 1061.54 102.009 1061.57 101.919C1061.6 101.828 1061.65 101.746 1061.72 101.678C1061.78 101.611 1061.87 101.56 1061.96 101.53C1062.05 101.5 1062.14 101.491 1062.24 101.505H1065.21C1065.26 101.511 1065.32 101.505 1065.37 101.487C1065.43 101.469 1065.47 101.439 1065.51 101.4C1065.55 101.36 1065.58 101.312 1065.6 101.26C1065.62 101.207 1065.63 101.151 1065.62 101.096V82.1699C1065.62 81.8836 1065.48 81.7472 1065.21 81.7472H1062.24C1062.14 81.7605 1062.05 81.7521 1061.96 81.7227C1061.87 81.6934 1061.79 81.6438 1061.72 81.5779C1061.65 81.512 1061.6 81.4315 1061.57 81.3426C1061.54 81.2537 1061.53 81.1589 1061.54 81.0655V75.7204C1061.53 75.6269 1061.54 75.5321 1061.57 75.4432C1061.6 75.3544 1061.65 75.2739 1061.72 75.208C1061.79 75.1421 1061.87 75.0925 1061.96 75.0631C1062.05 75.0338 1062.14 75.0254 1062.24 75.0386H1072.71C1072.8 75.0248 1072.9 75.0329 1072.99 75.0623C1073.07 75.0917 1073.16 75.1415 1073.22 75.2078C1073.29 75.2741 1073.34 75.355 1073.37 75.444C1073.4 75.533 1073.4 75.6277 1073.39 75.7204V79.1292C1074.23 77.6589 1075.46 76.4482 1076.94 75.6303C1078.42 74.8124 1080.1 74.4189 1081.79 74.4932Z" fill="black"/>
<path d="M1101.04 74.262C1105.13 74.262 1108.02 75.6255 1109.67 78.2026H1109.74V75.721C1109.73 75.6264 1109.74 75.53 1109.77 75.4394C1109.8 75.3488 1109.85 75.2664 1109.92 75.1989C1109.98 75.1314 1110.07 75.0805 1110.16 75.0504C1110.25 75.0203 1110.34 75.0118 1110.44 75.0256H1120.87C1120.96 75.0118 1121.06 75.0203 1121.15 75.0504C1121.24 75.0805 1121.32 75.1314 1121.39 75.1989C1121.46 75.2664 1121.51 75.3488 1121.54 75.4394C1121.57 75.53 1121.58 75.6264 1121.56 75.721V81.1751C1121.58 81.2691 1121.57 81.3652 1121.54 81.4555C1121.51 81.5457 1121.46 81.6275 1121.39 81.6941C1121.32 81.7607 1121.24 81.8102 1121.15 81.8385C1121.06 81.8668 1120.96 81.8731 1120.87 81.8569H1117.9C1117.84 81.8498 1117.78 81.856 1117.73 81.875C1117.67 81.894 1117.63 81.9252 1117.59 81.9662C1117.55 82.0072 1117.52 82.0568 1117.5 82.1112C1117.48 82.1656 1117.48 82.2232 1117.49 82.2796V106.25C1117.49 111.086 1116.16 114.841 1113.51 117.513C1110.85 120.186 1107 121.522 1101.94 121.522C1099.6 121.511 1097.29 121.048 1095.12 120.159C1093.11 119.411 1091.31 118.163 1089.9 116.532C1089.84 116.467 1089.79 116.388 1089.75 116.302C1089.72 116.216 1089.71 116.124 1089.72 116.032C1089.72 115.94 1089.75 115.851 1089.79 115.77C1089.84 115.689 1089.9 115.619 1089.97 115.563L1094.06 111.473C1094.12 111.388 1094.2 111.319 1094.29 111.272C1094.38 111.224 1094.48 111.199 1094.58 111.199C1094.68 111.199 1094.78 111.224 1094.87 111.272C1094.96 111.319 1095.04 111.388 1095.1 111.473C1096.04 112.444 1097.17 113.22 1098.41 113.753C1099.66 114.287 1101 114.568 1102.35 114.582C1107.32 114.582 1109.81 111.932 1109.81 106.632V103.551H1109.74C1108.09 106.141 1105.2 107.423 1101.11 107.423C1098.58 107.503 1096.09 106.777 1093.99 105.351C1091.97 103.856 1090.49 101.746 1089.78 99.3374C1088.97 96.5801 1088.6 93.7143 1088.68 90.8426C1088.61 87.9935 1088.98 85.1508 1089.78 82.4159C1091.48 76.989 1095.23 74.2711 1101.04 74.262ZM1103.05 81.1751C1101.73 81.0785 1100.42 81.4473 1099.35 82.2172C1098.27 82.9871 1097.5 84.1094 1097.17 85.3884C1096.62 87.1527 1096.36 88.995 1096.41 90.8426C1096.35 92.6909 1096.61 94.5357 1097.17 96.2967C1097.57 97.5455 1098.36 98.6342 1099.42 99.4066C1100.48 100.179 1101.76 100.595 1103.07 100.595C1104.39 100.595 1105.67 100.179 1106.73 99.4066C1107.79 98.6342 1108.58 97.5455 1108.98 96.2967C1109.55 94.5372 1109.81 92.6912 1109.74 90.8426C1109.79 88.9947 1109.54 87.1512 1108.98 85.3884C1108.64 84.1022 1107.86 82.9757 1106.78 82.2055C1105.69 81.4354 1104.37 81.0707 1103.05 81.1751Z" fill="black"/>
<path d="M1125.98 74.9845H1136.41C1136.51 74.9713 1136.6 74.9797 1136.69 75.009C1136.78 75.0384 1136.86 75.088 1136.93 75.1539C1137 75.2198 1137.05 75.3003 1137.08 75.3891C1137.11 75.478 1137.12 75.5728 1137.11 75.6663V101.096C1137.1 101.152 1137.11 101.208 1137.13 101.26C1137.14 101.313 1137.17 101.361 1137.21 101.4C1137.25 101.439 1137.3 101.469 1137.35 101.488C1137.41 101.506 1137.46 101.512 1137.52 101.505H1140.49C1140.58 101.492 1140.68 101.5 1140.77 101.53C1140.86 101.56 1140.94 101.611 1141.01 101.679C1141.08 101.746 1141.13 101.829 1141.16 101.919C1141.19 102.01 1141.2 102.106 1141.19 102.201V107.587C1141.2 107.681 1141.19 107.778 1141.16 107.868C1141.13 107.959 1141.08 108.041 1141.01 108.109C1140.94 108.176 1140.86 108.227 1140.77 108.257C1140.68 108.287 1140.58 108.296 1140.49 108.282H1125.98C1125.89 108.296 1125.79 108.287 1125.7 108.257C1125.61 108.227 1125.53 108.176 1125.46 108.109C1125.39 108.041 1125.34 107.959 1125.31 107.868C1125.28 107.778 1125.27 107.681 1125.29 107.587V102.201C1125.27 102.106 1125.28 102.01 1125.31 101.919C1125.34 101.829 1125.39 101.746 1125.46 101.679C1125.53 101.611 1125.61 101.56 1125.7 101.53C1125.79 101.5 1125.89 101.492 1125.98 101.505H1128.95C1129.01 101.512 1129.07 101.506 1129.12 101.488C1129.17 101.469 1129.22 101.439 1129.26 101.4C1129.3 101.361 1129.33 101.313 1129.35 101.26C1129.36 101.208 1129.37 101.152 1129.36 101.096V82.1704C1129.36 81.884 1129.23 81.7477 1128.95 81.7477H1125.98C1125.89 81.7609 1125.79 81.7525 1125.7 81.7232C1125.61 81.6938 1125.53 81.6442 1125.47 81.5783C1125.4 81.5124 1125.35 81.4319 1125.32 81.343C1125.29 81.2542 1125.28 81.1594 1125.29 81.0659V75.7208C1125.27 75.6234 1125.27 75.5222 1125.3 75.4261C1125.32 75.33 1125.37 75.2418 1125.44 75.1693C1125.51 75.0968 1125.59 75.042 1125.69 75.0098C1125.78 74.9776 1125.88 74.969 1125.98 74.9845ZM1130.07 61.3492H1136.43C1136.52 61.333 1136.62 61.3393 1136.71 61.3676C1136.8 61.3959 1136.88 61.4453 1136.95 61.5119C1137.02 61.5785 1137.07 61.6603 1137.1 61.7506C1137.13 61.8408 1137.14 61.9369 1137.12 62.0309V68.0441C1137.14 68.1386 1137.13 68.235 1137.1 68.3257C1137.07 68.4163 1137.02 68.4987 1136.95 68.5662C1136.88 68.6337 1136.8 68.6846 1136.71 68.7146C1136.62 68.7447 1136.52 68.7533 1136.43 68.7395H1130.07C1129.98 68.7533 1129.88 68.7447 1129.79 68.7146C1129.7 68.6846 1129.62 68.6337 1129.55 68.5662C1129.48 68.4987 1129.43 68.4163 1129.4 68.3257C1129.37 68.235 1129.36 68.1386 1129.38 68.0441V61.99C1129.36 61.8973 1129.37 61.8027 1129.4 61.7137C1129.43 61.6246 1129.48 61.5437 1129.55 61.4775C1129.61 61.4112 1129.69 61.3613 1129.78 61.332C1129.87 61.3026 1129.97 61.2945 1130.06 61.3083L1130.07 61.3492Z" fill="black"/>
<path d="M1158.86 74.221C1163.87 74.221 1167.43 75.13 1169.52 76.9481C1171.61 78.7661 1172.66 81.7341 1172.67 85.852V101.124C1172.66 101.179 1172.67 101.235 1172.69 101.288C1172.71 101.34 1172.74 101.388 1172.77 101.427C1172.81 101.467 1172.86 101.497 1172.91 101.515C1172.97 101.533 1173.02 101.539 1173.08 101.533H1176.05C1176.15 101.519 1176.24 101.527 1176.33 101.558C1176.42 101.588 1176.51 101.638 1176.57 101.706C1176.64 101.773 1176.69 101.856 1176.72 101.946C1176.75 102.037 1176.76 102.134 1176.75 102.228V107.614C1176.76 107.708 1176.75 107.805 1176.72 107.896C1176.69 107.986 1176.64 108.069 1176.57 108.136C1176.51 108.204 1176.42 108.254 1176.33 108.284C1176.24 108.315 1176.15 108.323 1176.05 108.309H1166.18C1166.08 108.323 1165.99 108.315 1165.9 108.284C1165.81 108.254 1165.72 108.204 1165.66 108.136C1165.59 108.069 1165.54 107.986 1165.51 107.896C1165.48 107.805 1165.47 107.708 1165.48 107.614V105.173H1165.43C1163.61 107.755 1160.52 109.046 1156.17 109.046C1153.28 109.152 1150.45 108.218 1148.19 106.414C1147.11 105.48 1146.26 104.309 1145.7 102.992C1145.14 101.675 1144.89 100.247 1144.98 98.8192C1144.87 97.305 1145.14 95.7887 1145.75 94.398C1146.35 93.0074 1147.29 91.7832 1148.47 90.8289C1151.35 88.8964 1154.78 87.9624 1158.24 88.17H1164.88C1164.94 88.1766 1165 88.1705 1165.05 88.1523C1165.1 88.134 1165.15 88.1041 1165.19 88.0647C1165.23 88.0253 1165.26 87.9775 1165.27 87.9249C1165.29 87.8723 1165.3 87.8162 1165.29 87.7609V86.3974C1165.37 85.598 1165.27 84.7918 1165.02 84.0308C1164.76 83.2698 1164.35 82.571 1163.81 81.9795C1162.81 81.0705 1161.02 80.616 1158.45 80.616C1157.24 80.6152 1156.04 80.7571 1154.86 81.0387C1154.63 81.0387 1154.52 81.2432 1154.52 81.5159V84.4884C1154.53 84.5829 1154.53 84.6793 1154.5 84.77C1154.47 84.8606 1154.41 84.943 1154.35 85.0105C1154.28 85.078 1154.2 85.1288 1154.11 85.1589C1154.02 85.189 1153.92 85.1976 1153.83 85.1838H1147.81C1147.72 85.1976 1147.62 85.189 1147.53 85.1589C1147.44 85.1288 1147.36 85.078 1147.29 85.0105C1147.22 84.943 1147.17 84.8606 1147.14 84.77C1147.11 84.6793 1147.1 84.5829 1147.12 84.4884V77.4662C1147.11 77.2778 1147.16 77.0917 1147.26 76.9316C1147.36 76.7714 1147.5 76.6443 1147.68 76.5663C1151.18 74.9466 1155 74.1447 1158.86 74.221ZM1164.94 93.9786H1159.48C1154.74 93.9786 1152.37 95.4967 1152.37 98.5328C1152.37 101.342 1154.26 102.746 1158.04 102.746C1162.88 102.746 1165.3 100.86 1165.29 97.0875V94.3604C1165.29 94.3121 1165.29 94.2638 1165.27 94.2185C1165.25 94.1731 1165.23 94.1315 1165.19 94.096C1165.16 94.0606 1165.12 94.032 1165.08 94.0118C1165.03 93.9917 1164.99 93.9804 1164.94 93.9786Z" fill="black"/>
<path d="M909.085 162.25C908.468 162.24 907.861 162.413 907.342 162.749C906.823 163.084 906.417 163.567 906.173 164.134C905.93 164.702 905.861 165.33 905.976 165.937C906.091 166.544 906.384 167.103 906.818 167.542C907.252 167.982 907.807 168.283 908.412 168.405C909.018 168.528 909.646 168.468 910.217 168.232C910.788 167.997 911.276 167.596 911.618 167.082C911.961 166.568 912.142 165.963 912.14 165.346C912.142 164.935 912.061 164.528 911.904 164.149C911.747 163.77 911.515 163.427 911.223 163.138C910.931 162.85 910.584 162.623 910.203 162.47C909.822 162.318 909.414 162.243 909.004 162.25H909.085ZM909.085 167.977C908.422 167.929 907.801 167.632 907.348 167.145C906.895 166.658 906.643 166.018 906.643 165.352C906.643 164.687 906.895 164.047 907.348 163.56C907.801 163.073 908.422 162.775 909.085 162.728C909.749 162.775 910.37 163.073 910.823 163.56C911.276 164.047 911.528 164.687 911.528 165.352C911.528 166.018 911.276 166.658 910.823 167.145C910.37 167.632 909.749 167.929 909.085 167.977Z" fill="black"/>
<path d="M909.562 165.455C909.756 165.414 909.929 165.307 910.054 165.153C910.178 164.999 910.245 164.807 910.244 164.609C910.254 164.474 910.231 164.339 910.177 164.215C910.122 164.091 910.037 163.983 909.93 163.9C909.605 163.708 909.23 163.617 908.853 163.641C908.524 163.643 908.196 163.67 907.871 163.723V167.173H908.431V165.714H908.812C908.902 165.7 908.993 165.706 909.08 165.73C909.168 165.754 909.249 165.797 909.318 165.855C909.388 165.913 909.444 165.985 909.484 166.066C909.524 166.148 909.546 166.237 909.549 166.327C909.573 166.63 909.651 166.925 909.78 167.2H910.367C910.251 166.931 910.177 166.646 910.149 166.355C910.08 165.782 909.862 165.509 909.562 165.455ZM908.826 165.236H908.431V164.064H908.826C909.44 164.064 909.658 164.364 909.658 164.677C909.658 164.991 909.276 165.236 908.826 165.236Z" fill="black"/>
<path d="M825.268 95.0963V122.081H839.776L841.303 113.899H847.821C845.435 126.389 833.136 134.939 817.537 134.939C816.473 134.939 815.396 134.939 814.319 134.816C806.282 134.36 798.536 131.647 791.97 126.989C788.971 124.882 786.524 122.082 784.837 118.828C783.149 115.574 782.271 111.961 782.276 108.295C782.298 104.36 783.161 100.475 784.807 96.9003C786.453 93.3258 788.844 90.1445 791.82 87.5695C797.925 82.2908 805.653 79.2638 813.719 78.9929C814.237 78.9929 814.769 78.9929 815.301 78.9929C825.509 79.1661 835.36 82.7736 843.267 89.2331C843.662 89.5603 843.758 89.6285 843.853 89.6967C844.048 89.8353 844.235 89.9855 844.412 90.1466L844.63 90.3375H861.279V61.2124H844.412V69.5436C834.294 63.483 822.704 60.3225 810.91 60.4079H810.678C795.182 60.4894 780.352 66.7177 769.445 77.7248C760.718 86.6287 755.96 97.537 756.096 108.445C756.259 120.172 761.905 131.094 772.008 139.193C782.282 147.184 794.936 151.505 807.951 151.465C809.574 151.465 811.224 151.465 812.846 151.274C825.895 150.21 837.39 147.183 845.571 142.861V146.461H863.488V114.036H869.678V151.588H860.338V168.441H902.021V151.588H892.722V114.022H913.83L915.302 122.203H929.865V95.0963H825.268Z" fill="black"/>
</svg>
