<svg width="1413" height="217" viewBox="0 0 1413 217" fill="none" xmlns="http://www.w3.org/2000/svg">
<path d="M258.194 175.937H282.519V48.3624H258.194V175.937Z" fill="black"/>
<path d="M357.453 177.687C397.353 177.687 419.053 153.712 419.053 112.587V112.062C419.053 69.5374 395.078 46.7874 357.453 46.7874C319.828 46.7874 295.853 69.5374 295.853 112.062V112.587C295.853 153.712 317.553 177.687 357.453 177.687ZM357.453 156.512C334.703 156.512 321.403 143.387 321.403 121.862V102.612C321.403 82.3124 333.303 67.9624 357.453 67.9624C381.603 67.9624 393.503 82.3124 393.503 102.612V121.862C393.503 143.387 380.203 156.512 357.453 156.512Z" fill="black"/>
<path d="M432.531 175.937H483.281C519.856 175.937 544.356 156.162 544.356 112.762V111.537C544.356 71.1124 523.006 48.1874 483.281 48.1874H432.531V175.937ZM456.856 155.112V69.0124H483.281C507.256 69.0124 518.631 82.4874 518.631 102.612V121.512C518.631 142.862 506.031 155.112 483.281 155.112H456.856Z" fill="black"/>
<path d="M542.145 175.937H565.595L575.22 148.112H630.17L639.795 175.937H663.945L619.845 48.3624H586.07L542.145 175.937ZM580.995 129.562L602.17 67.4374H603.22L610.745 89.3124L624.395 129.562H580.995Z" fill="black"/>
<path d="M759.88 97.2675H765.476V48.7024H759.88V97.2675Z" fill="black"/>
<path d="M776.942 97.2675H782.271V76.8155C782.271 70.3535 785.602 66.2232 791.198 66.2232C795.861 66.2232 798.993 68.4216 798.993 75.4832V97.2675H804.322V74.817C804.322 66.4896 800.658 61.6931 793.263 61.6931C788.2 61.6931 784.137 64.4911 782.738 68.8879H782.338L781.938 62.3593H776.942V97.2675Z" fill="black"/>
<path d="M822.398 97.2675H831.059V92.9373H822.731V66.8227H831.325V62.3593H822.731V51.0341H817.402V62.3593H810.074V66.8227H817.402V92.4043C817.402 95.4022 818.867 97.2675 822.398 97.2675Z" fill="black"/>
<path d="M850.37 97.9337C858.031 97.9337 863.694 93.6035 864.027 86.2754H858.897C858.498 90.7389 855.367 93.6701 850.304 93.6701C844.641 93.6701 841.31 90.0061 841.31 84.2768V81.1458H864.227V76.7489C864.227 67.4889 859.164 61.7597 850.17 61.6931C841.643 61.7597 835.781 67.2224 835.781 77.9481V81.3456C835.781 91.6715 840.71 97.9337 850.37 97.9337ZM841.31 76.1494C841.31 69.9538 844.108 65.9567 850.237 65.9567C855.7 65.9567 858.897 69.1544 858.897 76.1494V77.4817H841.31V76.1494Z" fill="black"/>
<path d="M872.116 97.2675H877.445V66.8227H890.036V62.3593H877.512C874.247 62.3593 872.116 64.2246 872.116 67.6888V97.2675Z" fill="black"/>
<path d="M897.009 97.2675H902.339V76.8155C902.339 70.3535 905.67 66.2232 911.266 66.2232C915.929 66.2232 919.06 68.4216 919.06 75.4832V97.2675H924.389V74.817C924.389 66.4896 920.725 61.6931 913.331 61.6931C908.268 61.6931 904.204 64.4911 902.805 68.8879H902.405L902.005 62.3593H897.009V97.2675Z" fill="black"/>
<path d="M946.52 97.9337C954.181 97.9337 959.844 93.6035 960.177 86.2754H955.047C954.647 90.7389 951.516 93.6701 946.453 93.6701C940.791 93.6701 937.46 90.0061 937.46 84.2768V81.1458H960.377V76.7489C960.377 67.4889 955.314 61.7597 946.32 61.6931C937.793 61.7597 931.93 67.2224 931.93 77.9481V81.3456C931.93 91.6715 936.86 97.9337 946.52 97.9337ZM937.46 76.1494C937.46 69.9538 940.258 65.9567 946.387 65.9567C951.849 65.9567 955.047 69.1544 955.047 76.1494V77.4817H937.46V76.1494Z" fill="black"/>
<path d="M976.792 97.2675H985.453V92.9373H977.125V66.8227H985.719V62.3593H977.125V51.0341H971.796V62.3593H964.468V66.8227H971.796V92.4043C971.796 95.4022 973.262 97.2675 976.792 97.2675Z" fill="black"/>
<path d="M1023.6 97.9337C1035.79 97.9337 1043.25 90.8721 1043.25 76.216V69.8206C1043.25 55.1644 1035.73 48.1028 1023.6 48.1028C1011.54 48.1028 1004.02 55.1644 1004.02 69.8206V76.216C1004.02 90.8721 1011.48 97.9337 1023.6 97.9337ZM1023.6 93.0705C1014.81 93.0705 1009.88 87.8743 1009.88 78.6809V67.2891C1009.88 58.8285 1014.27 52.966 1023.6 52.966C1032.99 52.966 1037.39 58.8285 1037.39 67.2891V78.6809C1037.39 87.8743 1032.46 93.0705 1023.6 93.0705Z" fill="black"/>
<path d="M1061.99 97.9337C1067.12 97.9337 1071.19 95.1357 1072.65 90.8055H1073.05L1073.45 97.2675H1078.45V62.3593H1073.12V82.8779C1073.12 89.2733 1069.79 93.4702 1064.19 93.4702C1059.59 93.4702 1056.46 91.2052 1056.46 84.2102V62.3593H1051.13V84.943C1051.13 92.8041 1054.53 97.9337 1061.99 97.9337Z" fill="black"/>
<path d="M1097.05 97.2675H1105.72V92.9373H1097.39V66.8227H1105.98V62.3593H1097.39V51.0341H1092.06V62.3593H1084.73V66.8227H1092.06V92.4043C1092.06 95.4022 1093.52 97.2675 1097.05 97.2675Z" fill="black"/>
<path d="M1122.76 97.9337C1127.43 97.9337 1131.36 95.3356 1132.82 91.2718H1133.22V97.2675H1138.55V62.3593H1133.49L1133.22 68.4216H1132.82C1131.36 64.2912 1127.49 61.7597 1122.76 61.7597C1114.9 61.7597 1110.44 67.1558 1110.44 78.1479V81.7453C1110.44 92.1379 1114.57 97.9337 1122.76 97.9337ZM1124.63 93.4702C1119.36 93.4702 1116.1 90.2725 1116.1 83.7439V76.0161C1116.1 69.4209 1119.36 66.2232 1124.63 66.2232C1130.02 66.2232 1133.22 70.1537 1133.22 76.2826V83.4108C1133.22 89.5397 1130.02 93.4702 1124.63 93.4702Z" fill="black"/>
<path d="M1159.98 109.059C1169.51 109.059 1174.44 104.596 1174.44 95.6687V62.3593H1169.38L1169.11 68.355H1168.64C1167.24 64.2912 1163.51 61.6931 1158.58 61.6931C1150.99 61.6931 1146.33 66.7561 1146.33 77.2819V79.6135C1146.33 89.3399 1150.26 95.2023 1158.52 95.2023C1163.18 95.2023 1167.18 92.6708 1168.64 88.5405H1169.04V96.2016C1169.04 102.064 1166.51 105.062 1160.25 105.062C1155.72 105.062 1152.72 102.863 1152.52 99.1995H1147.39C1147.59 105.195 1152.45 109.059 1159.98 109.059ZM1160.52 90.7389C1155.25 90.7389 1151.99 87.6078 1151.99 81.4789V75.8829C1151.99 69.3542 1155.25 66.1565 1160.52 66.1565C1165.85 66.1565 1169.04 70.0204 1169.04 76.0827V80.8127C1169.04 86.8084 1165.91 90.7389 1160.52 90.7389Z" fill="black"/>
<path d="M1196.74 97.9337C1204.4 97.9337 1210.06 93.6035 1210.4 86.2754H1205.27C1204.87 90.7389 1201.73 93.6701 1196.67 93.6701C1191.01 93.6701 1187.68 90.0061 1187.68 84.2768V81.1458H1210.6V76.7489C1210.6 67.4889 1205.53 61.7597 1196.54 61.6931C1188.01 61.7597 1182.15 67.2224 1182.15 77.9481V81.3456C1182.15 91.6715 1187.08 97.9337 1196.74 97.9337ZM1187.68 76.1494C1187.68 69.9538 1190.48 65.9567 1196.61 65.9567C1202.07 65.9567 1205.27 69.1544 1205.27 76.1494V77.4817H1187.68V76.1494Z" fill="black"/>
<path d="M759.88 169.268H776.002C787.86 169.268 795.454 162.739 795.454 147.616V142.354C795.454 127.631 788.26 120.702 776.002 120.702H759.88V169.268ZM765.476 164.404V125.566H775.869C785.328 125.566 789.592 131.295 789.592 140.022V149.881C789.592 159.208 784.795 164.404 775.869 164.404H765.476Z" fill="black"/>
<path d="M815.937 169.934C823.598 169.934 829.26 165.603 829.593 158.275H824.464C824.064 162.739 820.933 165.67 815.87 165.67C810.207 165.67 806.876 162.006 806.876 156.277V153.146H829.793V148.749C829.793 139.489 824.73 133.76 815.737 133.693C807.21 133.76 801.347 139.222 801.347 149.948V153.346C801.347 163.672 806.277 169.934 815.937 169.934ZM806.876 148.149C806.876 141.954 809.674 137.957 815.803 137.957C821.266 137.957 824.464 141.154 824.464 148.149V149.482H806.876V148.149Z" fill="black"/>
<path d="M846.209 169.268H854.87V164.937H846.542V138.823H855.136V134.359H846.542V123.034H841.213V134.359H833.885V138.823H841.213V164.404C841.213 167.402 842.678 169.268 846.209 169.268Z" fill="black"/>
<path d="M874.181 169.934C881.842 169.934 887.505 165.603 887.838 158.275H882.708C882.309 162.739 879.178 165.67 874.115 165.67C868.452 165.67 865.121 162.006 865.121 156.277V153.146H888.038V148.749C888.038 139.489 882.975 133.76 873.981 133.693C865.454 133.76 859.592 139.222 859.592 149.948V153.346C859.592 163.672 864.521 169.934 874.181 169.934ZM865.121 148.149C865.121 141.954 867.919 137.957 874.048 137.957C879.511 137.957 882.708 141.154 882.708 148.149V149.482H865.121V148.149Z" fill="black"/>
<path d="M907.918 169.934C915.979 169.934 921.575 165.204 921.775 157.276H916.512C916.312 162.206 913.447 165.47 907.985 165.47C902.189 165.47 898.991 161.939 898.991 156.077V147.616C898.991 141.954 902.255 138.157 907.985 138.157C912.981 138.157 916.112 141.154 916.512 146.351H921.708C921.375 138.223 915.979 133.76 907.985 133.693C899.257 133.76 893.528 138.956 893.528 150.081V153.612C893.528 164.005 898.458 169.934 907.918 169.934Z" fill="black"/>
<path d="M953.993 128.497H959.323V120.702H953.993V128.497ZM953.993 138.823V169.268H959.323V134.359H938.138V123.034H932.808V134.359H925.48V138.823H932.808V164.404C932.808 167.402 934.274 169.268 937.805 169.268H946.465V164.937H938.138V138.823H953.993Z" fill="black"/>
<path d="M981.518 169.934C991.044 169.934 995.974 164.071 995.974 153.612V150.081C995.974 139.023 990.311 133.76 981.518 133.693C972.791 133.76 967.061 138.956 967.061 150.081V153.612C967.061 164.005 971.925 169.934 981.518 169.934ZM981.518 165.47C975.722 165.47 972.591 161.939 972.591 156.077V147.616C972.591 141.954 975.788 138.157 981.518 138.157C987.247 138.157 990.445 141.954 990.445 147.616V156.077C990.445 161.939 987.313 165.47 981.518 165.47Z" fill="black"/>
<path d="M1003.92 169.268H1009.25V148.816C1009.25 142.354 1012.58 138.223 1018.17 138.223C1022.84 138.223 1025.97 140.422 1025.97 147.483V169.268H1031.3V146.817C1031.3 138.49 1027.63 133.693 1020.24 133.693C1015.18 133.693 1011.11 136.491 1009.71 140.888H1009.31L1008.91 134.359H1003.92V169.268Z" fill="black"/>
<path d="M1064.48 169.934C1069.14 169.934 1073.07 167.336 1074.54 163.272H1074.93V169.268H1080.26V134.359H1075.2L1074.93 140.422H1074.54C1073.07 136.291 1069.21 133.76 1064.48 133.76C1056.61 133.76 1052.15 139.156 1052.15 150.148V153.745C1052.15 164.138 1056.28 169.934 1064.48 169.934ZM1066.34 165.47C1061.08 165.47 1057.81 162.273 1057.81 155.744V148.016C1057.81 141.421 1061.08 138.223 1066.34 138.223C1071.74 138.223 1074.93 142.154 1074.93 148.283V155.411C1074.93 161.54 1071.74 165.47 1066.34 165.47Z" fill="black"/>
<path d="M1090.44 169.268H1095.77V148.816C1095.77 142.354 1099.1 138.223 1104.69 138.223C1109.36 138.223 1112.49 140.422 1112.49 147.483V169.268H1117.82V146.817C1117.82 138.49 1114.15 133.693 1106.76 133.693C1101.7 133.693 1097.63 136.491 1096.23 140.888H1095.83L1095.43 134.359H1090.44V169.268Z" fill="black"/>
<path d="M1137.68 169.934C1142.41 169.934 1146.28 167.336 1147.74 163.205H1148.14L1148.41 169.268H1153.47V120.702H1148.14V140.355H1147.74C1146.28 136.291 1142.35 133.693 1137.68 133.693C1129.82 133.693 1125.36 139.089 1125.36 149.881V153.545C1125.36 164.005 1129.49 169.934 1137.68 169.934ZM1139.55 165.47C1134.29 165.47 1131.02 162.273 1131.02 155.677V147.95C1131.02 141.354 1134.29 138.223 1139.55 138.223C1144.95 138.223 1148.14 142.154 1148.14 148.216V155.344C1148.14 161.54 1144.95 165.47 1139.55 165.47Z" fill="black"/>
<path d="M1171.83 169.268H1177.36L1181.16 157.409H1200.94L1204.67 169.268H1210.34L1194.95 120.702H1187.22L1171.83 169.268ZM1182.36 153.013L1187.82 135.359L1190.82 125.566H1191.22L1194.21 135.292L1199.74 153.013H1182.36Z" fill="black"/>
<path d="M1215.45 169.268H1220.78V148.816C1220.78 142.354 1224.11 138.223 1229.71 138.223C1234.37 138.223 1237.5 140.422 1237.5 147.483V169.268H1242.83V146.817C1242.83 138.49 1239.17 133.693 1231.77 133.693C1226.71 133.693 1222.64 136.491 1221.25 140.888H1220.85L1220.45 134.359H1215.45V169.268Z" fill="black"/>
<path d="M1262.7 169.934C1267.36 169.934 1271.29 167.336 1272.75 163.272H1273.15V169.268H1278.48V134.359H1273.42L1273.15 140.422H1272.75C1271.29 136.291 1267.43 133.76 1262.7 133.76C1254.83 133.76 1250.37 139.156 1250.37 150.148V153.745C1250.37 164.138 1254.5 169.934 1262.7 169.934ZM1264.56 165.47C1259.3 165.47 1256.03 162.273 1256.03 155.744V148.016C1256.03 141.421 1259.3 138.223 1264.56 138.223C1269.96 138.223 1273.15 142.154 1273.15 148.283V155.411C1273.15 161.54 1269.96 165.47 1264.56 165.47Z" fill="black"/>
<path d="M1288.52 169.268H1293.92V120.702H1288.52V169.268Z" fill="black"/>
<path d="M1301.65 180.393H1314.11C1316.78 180.393 1318.44 179.06 1318.44 176.129V165.803L1331.1 134.359H1325.5L1317.04 157.01L1315.91 160.141H1315.58L1314.51 157.01L1306.18 134.359H1300.52L1313.11 165.803V176.063H1301.65V180.393Z" fill="black"/>
<path d="M1347.4 169.934C1354.86 169.934 1360.06 166.403 1360.06 159.808C1360.06 151.947 1354 150.281 1348.87 149.149C1344.47 148.083 1340.81 147.15 1340.81 143.02C1340.81 139.822 1343.01 137.757 1347.34 137.757C1351.73 137.757 1354.26 139.955 1354.4 144.219H1359.46C1359.33 137.823 1354.93 133.693 1347.34 133.693C1340.41 133.693 1335.48 137.357 1335.48 143.619C1335.48 150.481 1341.21 152.146 1346.2 153.346C1351.47 154.545 1354.6 155.544 1354.6 160.274C1354.6 163.472 1352.4 165.87 1347.47 165.87C1342.74 165.803 1339.74 163.672 1339.61 158.542H1334.48C1334.48 165.337 1338.81 169.934 1347.4 169.934Z" fill="black"/>
<path d="M1367.43 128.497H1372.89V120.636H1367.43V128.497ZM1367.5 169.268H1372.89V134.359H1367.5V169.268Z" fill="black"/>
<path d="M1393.35 169.934C1400.81 169.934 1406.01 166.403 1406.01 159.808C1406.01 151.947 1399.95 150.281 1394.82 149.149C1390.42 148.083 1386.76 147.15 1386.76 143.02C1386.76 139.822 1388.95 137.757 1393.28 137.757C1397.68 137.757 1400.21 139.955 1400.35 144.219H1405.41C1405.28 137.823 1400.88 133.693 1393.28 133.693C1386.36 133.693 1381.43 137.357 1381.43 143.619C1381.43 150.481 1387.16 152.146 1392.15 153.346C1397.42 154.545 1400.55 155.544 1400.55 160.274C1400.55 163.472 1398.35 165.87 1393.42 165.87C1388.69 165.803 1385.69 163.672 1385.56 158.542H1380.43C1380.43 165.337 1384.76 169.934 1393.35 169.934Z" fill="black"/>
<path fill-rule="evenodd" clip-rule="evenodd" d="M705.536 202.642L705.536 21.1201H709.536L709.536 202.642H705.536Z" fill="black"/>
<path d="M57.5305 72.6583L97.1737 49.7703L147.893 79.0528V124.829L193.724 151.29C193.761 150.735 193.78 150.176 193.78 149.615V67.0558C193.78 58.0855 188.995 49.7965 181.226 45.3113L109.728 4.03186C101.959 -0.453326 92.3881 -0.453327 84.6195 4.03185L13.1213 45.3113C12.6352 45.592 12.1608 45.8875 11.6985 46.1972L57.5305 72.6583Z" fill="black"/>
<path d="M46.4554 91.84L0.62347 65.3789C0.586389 65.9345 0.567627 66.4935 0.567627 67.0551V149.614C0.567627 158.584 5.35326 166.873 13.1218 171.359L84.62 212.638C92.3886 217.123 101.96 217.123 109.728 212.638L181.227 171.359C181.713 171.078 182.188 170.782 182.65 170.472L136.818 144.011L97.1742 166.9L46.4554 137.617V91.84Z" fill="black"/>
</svg>
