<svg width="1413" height="216" viewBox="0 0 1413 216" fill="none" xmlns="http://www.w3.org/2000/svg">
<path d="M258.194 175.603H282.519V48.0284H258.194V175.603Z" fill="white"/>
<path d="M357.453 177.353C397.353 177.353 419.053 153.378 419.053 112.253V111.728C419.053 69.2034 395.078 46.4534 357.453 46.4534C319.828 46.4534 295.853 69.2034 295.853 111.728V112.253C295.853 153.378 317.553 177.353 357.453 177.353ZM357.453 156.178C334.703 156.178 321.403 143.053 321.403 121.528V102.278C321.403 81.9784 333.303 67.6284 357.453 67.6284C381.603 67.6284 393.503 81.9784 393.503 102.278V121.528C393.503 143.053 380.203 156.178 357.453 156.178Z" fill="white"/>
<path d="M432.531 175.603H483.281C519.856 175.603 544.356 155.828 544.356 112.428V111.203C544.356 70.7784 523.006 47.8534 483.281 47.8534H432.531V175.603ZM456.856 154.778V68.6785H483.281C507.256 68.6785 518.631 82.1534 518.631 102.278V121.178C518.631 142.528 506.031 154.778 483.281 154.778H456.856Z" fill="white"/>
<path d="M542.145 175.603H565.595L575.22 147.778H630.17L639.795 175.603H663.945L619.845 48.0284H586.07L542.145 175.603ZM580.995 129.228L602.17 67.1035H603.22L610.745 88.9784L624.395 129.228H580.995Z" fill="white"/>
<path d="M759.88 96.9335H765.476V48.3684H759.88V96.9335Z" fill="white"/>
<path d="M776.942 96.9335H782.271V76.4816C782.271 70.0195 785.602 65.8892 791.198 65.8892C795.861 65.8892 798.993 68.0876 798.993 75.1492V96.9335H804.322V74.483C804.322 66.1557 800.658 61.3591 793.263 61.3591C788.2 61.3591 784.137 64.1571 782.738 68.5539H782.338L781.938 62.0253H776.942V96.9335Z" fill="white"/>
<path d="M822.398 96.9335H831.059V92.6033H822.731V66.4887H831.325V62.0253H822.731V50.7001H817.402V62.0253H810.074V66.4887H817.402V92.0704C817.402 95.0682 818.867 96.9335 822.398 96.9335Z" fill="white"/>
<path d="M850.37 97.5997C858.031 97.5997 863.694 93.2695 864.027 85.9414H858.897C858.498 90.4049 855.367 93.3361 850.304 93.3361C844.641 93.3361 841.31 89.6721 841.31 83.9429V80.8118H864.227V76.4149C864.227 67.1549 859.164 61.4257 850.17 61.3591C841.643 61.4257 835.781 66.8885 835.781 77.6141V81.0116C835.781 91.3376 840.71 97.5997 850.37 97.5997ZM841.31 75.8154C841.31 69.6198 844.108 65.6227 850.237 65.6227C855.7 65.6227 858.897 68.8204 858.897 75.8154V77.1478H841.31V75.8154Z" fill="white"/>
<path d="M872.116 96.9335H877.445V66.4887H890.036V62.0253H877.512C874.247 62.0253 872.116 63.8906 872.116 67.3548V96.9335Z" fill="white"/>
<path d="M897.009 96.9335H902.339V76.4816C902.339 70.0195 905.67 65.8892 911.266 65.8892C915.929 65.8892 919.06 68.0876 919.06 75.1492V96.9335H924.389V74.483C924.389 66.1557 920.725 61.3591 913.331 61.3591C908.268 61.3591 904.204 64.1571 902.805 68.5539H902.405L902.005 62.0253H897.009V96.9335Z" fill="white"/>
<path d="M946.52 97.5997C954.181 97.5997 959.844 93.2695 960.177 85.9414H955.047C954.647 90.4049 951.516 93.3361 946.453 93.3361C940.791 93.3361 937.46 89.6721 937.46 83.9429V80.8118H960.377V76.4149C960.377 67.1549 955.314 61.4257 946.32 61.3591C937.793 61.4257 931.93 66.8885 931.93 77.6141V81.0116C931.93 91.3376 936.86 97.5997 946.52 97.5997ZM937.46 75.8154C937.46 69.6198 940.258 65.6227 946.387 65.6227C951.849 65.6227 955.047 68.8204 955.047 75.8154V77.1478H937.46V75.8154Z" fill="white"/>
<path d="M976.792 96.9335H985.453V92.6033H977.125V66.4887H985.719V62.0253H977.125V50.7001H971.796V62.0253H964.468V66.4887H971.796V92.0704C971.796 95.0682 973.262 96.9335 976.792 96.9335Z" fill="white"/>
<path d="M1023.6 97.5997C1035.79 97.5997 1043.25 90.5381 1043.25 75.882V69.4866C1043.25 54.8305 1035.73 47.7689 1023.6 47.7689C1011.54 47.7689 1004.02 54.8305 1004.02 69.4866V75.882C1004.02 90.5381 1011.48 97.5997 1023.6 97.5997ZM1023.6 92.7366C1014.81 92.7366 1009.88 87.5403 1009.88 78.3469V66.9551C1009.88 58.4945 1014.27 52.632 1023.6 52.632C1032.99 52.632 1037.39 58.4945 1037.39 66.9551V78.3469C1037.39 87.5403 1032.46 92.7366 1023.6 92.7366Z" fill="white"/>
<path d="M1061.99 97.5997C1067.12 97.5997 1071.19 94.8017 1072.65 90.4715H1073.05L1073.45 96.9335H1078.45V62.0253H1073.12V82.5439C1073.12 88.9393 1069.79 93.1363 1064.19 93.1363C1059.59 93.1363 1056.46 90.8712 1056.46 83.8763V62.0253H1051.13V84.6091C1051.13 92.4701 1054.53 97.5997 1061.99 97.5997Z" fill="white"/>
<path d="M1097.05 96.9335H1105.72V92.6033H1097.39V66.4887H1105.98V62.0253H1097.39V50.7001H1092.06V62.0253H1084.73V66.4887H1092.06V92.0704C1092.06 95.0682 1093.52 96.9335 1097.05 96.9335Z" fill="white"/>
<path d="M1122.76 97.5997C1127.43 97.5997 1131.36 95.0016 1132.82 90.9378H1133.22V96.9335H1138.55V62.0253H1133.49L1133.22 68.0876H1132.82C1131.36 63.9572 1127.49 61.4257 1122.76 61.4257C1114.9 61.4257 1110.44 66.8218 1110.44 77.8139V81.4114C1110.44 91.8039 1114.57 97.5997 1122.76 97.5997ZM1124.63 93.1363C1119.36 93.1363 1116.1 89.9386 1116.1 83.4099V75.6821C1116.1 69.0869 1119.36 65.8892 1124.63 65.8892C1130.02 65.8892 1133.22 69.8197 1133.22 75.9486V83.0768C1133.22 89.2058 1130.02 93.1363 1124.63 93.1363Z" fill="white"/>
<path d="M1159.98 108.725C1169.51 108.725 1174.44 104.262 1174.44 95.3347V62.0253H1169.38L1169.11 68.021H1168.64C1167.24 63.9572 1163.51 61.3591 1158.58 61.3591C1150.99 61.3591 1146.33 66.4221 1146.33 76.9479V79.2796C1146.33 89.0059 1150.26 94.8684 1158.52 94.8684C1163.18 94.8684 1167.18 92.3368 1168.64 88.2065H1169.04V95.8676C1169.04 101.73 1166.51 104.728 1160.25 104.728C1155.72 104.728 1152.72 102.53 1152.52 98.8655H1147.39C1147.59 104.861 1152.45 108.725 1159.98 108.725ZM1160.52 90.4049C1155.25 90.4049 1151.99 87.2738 1151.99 81.1449V75.5489C1151.99 69.0203 1155.25 65.8226 1160.52 65.8226C1165.85 65.8226 1169.04 69.6864 1169.04 75.7488V80.4787C1169.04 86.4744 1165.91 90.4049 1160.52 90.4049Z" fill="white"/>
<path d="M1196.74 97.5997C1204.4 97.5997 1210.06 93.2695 1210.4 85.9414H1205.27C1204.87 90.4049 1201.73 93.3361 1196.67 93.3361C1191.01 93.3361 1187.68 89.6721 1187.68 83.9429V80.8118H1210.6V76.4149C1210.6 67.1549 1205.53 61.4257 1196.54 61.3591C1188.01 61.4257 1182.15 66.8885 1182.15 77.6141V81.0116C1182.15 91.3376 1187.08 97.5997 1196.74 97.5997ZM1187.68 75.8154C1187.68 69.6198 1190.48 65.6227 1196.61 65.6227C1202.07 65.6227 1205.27 68.8204 1205.27 75.8154V77.1478H1187.68V75.8154Z" fill="white"/>
<path d="M759.88 168.934H776.002C787.86 168.934 795.454 162.405 795.454 147.282V142.02C795.454 127.297 788.26 120.368 776.002 120.368H759.88V168.934ZM765.476 164.07V125.232H775.869C785.328 125.232 789.592 130.961 789.592 139.688V149.547C789.592 158.874 784.795 164.07 775.869 164.07H765.476Z" fill="white"/>
<path d="M815.937 169.6C823.598 169.6 829.26 165.27 829.593 157.941H824.464C824.064 162.405 820.933 165.336 815.87 165.336C810.207 165.336 806.876 161.672 806.876 155.943V152.812H829.793V148.415C829.793 139.155 824.73 133.426 815.737 133.359C807.21 133.426 801.347 138.888 801.347 149.614V153.012C801.347 163.338 806.277 169.6 815.937 169.6ZM806.876 147.815C806.876 141.62 809.674 137.623 815.803 137.623C821.266 137.623 824.464 140.82 824.464 147.815V149.148H806.876V147.815Z" fill="white"/>
<path d="M846.209 168.934H854.87V164.603H846.542V138.489H855.136V134.025H846.542V122.7H841.213V134.025H833.885V138.489H841.213V164.07C841.213 167.068 842.678 168.934 846.209 168.934Z" fill="white"/>
<path d="M874.181 169.6C881.842 169.6 887.505 165.27 887.838 157.941H882.708C882.309 162.405 879.178 165.336 874.115 165.336C868.452 165.336 865.121 161.672 865.121 155.943V152.812H888.038V148.415C888.038 139.155 882.975 133.426 873.981 133.359C865.454 133.426 859.592 138.888 859.592 149.614V153.012C859.592 163.338 864.521 169.6 874.181 169.6ZM865.121 147.815C865.121 141.62 867.919 137.623 874.048 137.623C879.511 137.623 882.708 140.82 882.708 147.815V149.148H865.121V147.815Z" fill="white"/>
<path d="M907.918 169.6C915.979 169.6 921.575 164.87 921.775 156.942H916.512C916.312 161.872 913.447 165.136 907.985 165.136C902.189 165.136 898.991 161.605 898.991 155.743V147.282C898.991 141.62 902.255 137.823 907.985 137.823C912.981 137.823 916.112 140.82 916.512 146.017H921.708C921.375 137.889 915.979 133.426 907.985 133.359C899.257 133.426 893.528 138.622 893.528 149.747V153.278C893.528 163.671 898.458 169.6 907.918 169.6Z" fill="white"/>
<path d="M953.993 128.163H959.323V120.368H953.993V128.163ZM953.993 138.489V168.934H959.323V134.025H938.138V122.7H932.808V134.025H925.48V138.489H932.808V164.07C932.808 167.068 934.274 168.934 937.805 168.934H946.465V164.603H938.138V138.489H953.993Z" fill="white"/>
<path d="M981.518 169.6C991.044 169.6 995.974 163.737 995.974 153.278V149.747C995.974 138.689 990.311 133.426 981.518 133.359C972.791 133.426 967.061 138.622 967.061 149.747V153.278C967.061 163.671 971.925 169.6 981.518 169.6ZM981.518 165.136C975.722 165.136 972.591 161.605 972.591 155.743V147.282C972.591 141.62 975.788 137.823 981.518 137.823C987.247 137.823 990.445 141.62 990.445 147.282V155.743C990.445 161.605 987.313 165.136 981.518 165.136Z" fill="white"/>
<path d="M1003.92 168.934H1009.25V148.482C1009.25 142.02 1012.58 137.889 1018.17 137.889C1022.84 137.889 1025.97 140.088 1025.97 147.149V168.934H1031.3V146.483C1031.3 138.156 1027.63 133.359 1020.24 133.359C1015.18 133.359 1011.11 136.157 1009.71 140.554H1009.31L1008.91 134.025H1003.92V168.934Z" fill="white"/>
<path d="M1064.48 169.6C1069.14 169.6 1073.07 167.002 1074.54 162.938H1074.93V168.934H1080.26V134.025H1075.2L1074.93 140.088H1074.54C1073.07 135.957 1069.21 133.426 1064.48 133.426C1056.61 133.426 1052.15 138.822 1052.15 149.814V153.411C1052.15 163.804 1056.28 169.6 1064.48 169.6ZM1066.34 165.136C1061.08 165.136 1057.81 161.939 1057.81 155.41V147.682C1057.81 141.087 1061.08 137.889 1066.34 137.889C1071.74 137.889 1074.93 141.82 1074.93 147.949V155.077C1074.93 161.206 1071.74 165.136 1066.34 165.136Z" fill="white"/>
<path d="M1090.44 168.934H1095.77V148.482C1095.77 142.02 1099.1 137.889 1104.69 137.889C1109.36 137.889 1112.49 140.088 1112.49 147.149V168.934H1117.82V146.483C1117.82 138.156 1114.15 133.359 1106.76 133.359C1101.7 133.359 1097.63 136.157 1096.23 140.554H1095.83L1095.43 134.025H1090.44V168.934Z" fill="white"/>
<path d="M1137.68 169.6C1142.41 169.6 1146.28 167.002 1147.74 162.871H1148.14L1148.41 168.934H1153.47V120.368H1148.14V140.021H1147.74C1146.28 135.957 1142.35 133.359 1137.68 133.359C1129.82 133.359 1125.36 138.755 1125.36 149.547V153.212C1125.36 163.671 1129.49 169.6 1137.68 169.6ZM1139.55 165.136C1134.29 165.136 1131.02 161.939 1131.02 155.343V147.616C1131.02 141.02 1134.29 137.889 1139.55 137.889C1144.95 137.889 1148.14 141.82 1148.14 147.882V155.01C1148.14 161.206 1144.95 165.136 1139.55 165.136Z" fill="white"/>
<path d="M1171.83 168.934H1177.36L1181.16 157.075H1200.94L1204.67 168.934H1210.34L1194.95 120.368H1187.22L1171.83 168.934ZM1182.36 152.679L1187.82 135.025L1190.82 125.232H1191.22L1194.21 134.958L1199.74 152.679H1182.36Z" fill="white"/>
<path d="M1215.45 168.934H1220.78V148.482C1220.78 142.02 1224.11 137.889 1229.71 137.889C1234.37 137.889 1237.5 140.088 1237.5 147.149V168.934H1242.83V146.483C1242.83 138.156 1239.17 133.359 1231.77 133.359C1226.71 133.359 1222.64 136.157 1221.25 140.554H1220.85L1220.45 134.025H1215.45V168.934Z" fill="white"/>
<path d="M1262.7 169.6C1267.36 169.6 1271.29 167.002 1272.75 162.938H1273.15V168.934H1278.48V134.025H1273.42L1273.15 140.088H1272.75C1271.29 135.957 1267.43 133.426 1262.7 133.426C1254.83 133.426 1250.37 138.822 1250.37 149.814V153.411C1250.37 163.804 1254.5 169.6 1262.7 169.6ZM1264.56 165.136C1259.3 165.136 1256.03 161.939 1256.03 155.41V147.682C1256.03 141.087 1259.3 137.889 1264.56 137.889C1269.96 137.889 1273.15 141.82 1273.15 147.949V155.077C1273.15 161.206 1269.96 165.136 1264.56 165.136Z" fill="white"/>
<path d="M1288.52 168.934H1293.92V120.368H1288.52V168.934Z" fill="white"/>
<path d="M1301.65 180.059H1314.11C1316.78 180.059 1318.44 178.727 1318.44 175.795V165.469L1331.1 134.025H1325.5L1317.04 156.676L1315.91 159.807H1315.58L1314.51 156.676L1306.18 134.025H1300.52L1313.11 165.469V175.729H1301.65V180.059Z" fill="white"/>
<path d="M1347.4 169.6C1354.86 169.6 1360.06 166.069 1360.06 159.474C1360.06 151.613 1354 149.947 1348.87 148.815C1344.47 147.749 1340.81 146.816 1340.81 142.686C1340.81 139.488 1343.01 137.423 1347.34 137.423C1351.73 137.423 1354.26 139.621 1354.4 143.885H1359.46C1359.33 137.489 1354.93 133.359 1347.34 133.359C1340.41 133.359 1335.48 137.023 1335.48 143.285C1335.48 150.147 1341.21 151.813 1346.2 153.012C1351.47 154.211 1354.6 155.21 1354.6 159.94C1354.6 163.138 1352.4 165.536 1347.47 165.536C1342.74 165.469 1339.74 163.338 1339.61 158.208H1334.48C1334.48 165.003 1338.81 169.6 1347.4 169.6Z" fill="white"/>
<path d="M1367.43 128.163H1372.89V120.302H1367.43V128.163ZM1367.5 168.934H1372.89V134.025H1367.5V168.934Z" fill="white"/>
<path d="M1393.35 169.6C1400.81 169.6 1406.01 166.069 1406.01 159.474C1406.01 151.613 1399.95 149.947 1394.82 148.815C1390.42 147.749 1386.76 146.816 1386.76 142.686C1386.76 139.488 1388.95 137.423 1393.28 137.423C1397.68 137.423 1400.21 139.621 1400.35 143.885H1405.41C1405.28 137.489 1400.88 133.359 1393.28 133.359C1386.36 133.359 1381.43 137.023 1381.43 143.285C1381.43 150.147 1387.16 151.813 1392.15 153.012C1397.42 154.211 1400.55 155.21 1400.55 159.94C1400.55 163.138 1398.35 165.536 1393.42 165.536C1388.69 165.469 1385.69 163.338 1385.56 158.208H1380.43C1380.43 165.003 1384.76 169.6 1393.35 169.6Z" fill="white"/>
<path fill-rule="evenodd" clip-rule="evenodd" d="M705.536 202.308L705.536 20.7861H709.536L709.536 202.308H705.536Z" fill="white"/>
<path d="M57.5305 72.3243L97.1737 49.4363L147.893 78.7188V124.495L193.724 150.956C193.761 150.401 193.78 149.842 193.78 149.281V66.7219C193.78 57.7515 188.995 49.4625 181.226 44.9774L109.728 3.69787C101.959 -0.787311 92.3881 -0.787312 84.6195 3.69787L13.1213 44.9774C12.6352 45.258 12.1608 45.5536 11.6985 45.8632L57.5305 72.3243Z" fill="#F59E0B"/>
<path d="M46.4554 91.506L0.62347 65.0449C0.586389 65.6005 0.567627 66.1595 0.567627 66.7211V149.28C0.567627 158.25 5.35326 166.539 13.1218 171.025L84.62 212.304C92.3886 216.789 101.96 216.789 109.728 212.304L181.227 171.025C181.713 170.744 182.188 170.448 182.65 170.138L136.818 143.677L97.1742 166.566L46.4554 137.283V91.506Z" fill="#D97706"/>
</svg>
