<svg width="195" height="216" viewBox="0 0 195 216" fill="none" xmlns="http://www.w3.org/2000/svg">
<path d="M57.8625 71.9904L97.5057 49.1023L148.225 78.3848V124.161L194.057 150.622C194.094 150.067 194.112 149.508 194.112 148.947V66.3879C194.112 57.4175 189.327 49.1286 181.558 44.6434L110.06 3.36389C102.291 -1.12129 92.7201 -1.1213 84.9515 3.36389L13.4534 44.6434C12.9673 44.924 12.4928 45.2196 12.0305 45.5293L57.8625 71.9904Z" fill="#F59E0B"/>
<path d="M46.7874 91.172L0.955501 64.7109C0.91842 65.2665 0.899658 65.8255 0.899658 66.3871V148.946C0.899658 157.916 5.68529 166.205 13.4539 170.691L84.952 211.97C92.7206 216.455 102.292 216.455 110.06 211.97L181.559 170.691C182.045 170.41 182.52 170.114 182.982 169.804L137.15 143.343L97.5062 166.232L46.7874 136.949V91.172Z" fill="#D97706"/>
</svg>
