<svg width="195" height="217" viewBox="0 0 195 217" fill="none" xmlns="http://www.w3.org/2000/svg">
<path d="M57.8625 72.6583L97.5057 49.7703L148.225 79.0528V124.829L194.057 151.29C194.094 150.735 194.112 150.176 194.112 149.615V67.0558C194.112 58.0855 189.327 49.7965 181.558 45.3113L110.06 4.03186C102.291 -0.453326 92.7201 -0.453327 84.9515 4.03185L13.4534 45.3113C12.9673 45.592 12.4928 45.8875 12.0305 46.1972L57.8625 72.6583Z" fill="black"/>
<path d="M46.7874 91.84L0.955501 65.3789C0.91842 65.9345 0.899658 66.4935 0.899658 67.0551V149.614C0.899658 158.584 5.68529 166.873 13.4539 171.359L84.952 212.638C92.7206 217.123 102.292 217.123 110.06 212.638L181.559 171.359C182.045 171.078 182.52 170.782 182.982 170.472L137.15 144.011L97.5062 166.9L46.7874 137.617V91.84Z" fill="black"/>
</svg>
