<svg width="1177" height="216" viewBox="0 0 1177 216" fill="none" xmlns="http://www.w3.org/2000/svg">
<path d="M258.613 175.271H282.938V47.6965H258.613V175.271Z" fill="white"/>
<path d="M357.872 177.021C397.772 177.021 419.472 153.046 419.472 111.921V111.396C419.472 68.8715 395.497 46.1215 357.872 46.1215C320.247 46.1215 296.272 68.8715 296.272 111.396V111.921C296.272 153.046 317.972 177.021 357.872 177.021ZM357.872 155.846C335.122 155.846 321.822 142.721 321.822 121.196V101.946C321.822 81.6465 333.722 67.2965 357.872 67.2965C382.022 67.2965 393.922 81.6465 393.922 101.946V121.196C393.922 142.721 380.622 155.846 357.872 155.846Z" fill="white"/>
<path d="M432.95 175.271H483.7C520.275 175.271 544.775 155.496 544.775 112.096V110.871C544.775 70.4465 523.425 47.5215 483.7 47.5215H432.95V175.271ZM457.275 154.446V68.3465H483.7C507.675 68.3465 519.05 81.8215 519.05 101.946V120.846C519.05 142.197 506.45 154.446 483.7 154.446H457.275Z" fill="white"/>
<path d="M542.564 175.271H566.014L575.639 147.446H630.589L640.214 175.271H664.364L620.264 47.6965H586.489L542.564 175.271ZM581.414 128.896L602.589 66.7715H603.639L611.164 88.6465L624.814 128.896H581.414Z" fill="white"/>
<path fill-rule="evenodd" clip-rule="evenodd" d="M705.954 201.976L705.954 20.4541H709.954L709.954 201.976H705.954Z" fill="white"/>
<path d="M57.9494 71.9923L97.5926 49.1043L148.311 78.3868V124.163L194.143 150.624C194.18 150.069 194.199 149.51 194.199 148.949V66.3898C194.199 57.4195 189.414 49.1305 181.645 44.6453L110.147 3.36584C102.378 -1.11934 92.807 -1.11934 85.0384 3.36584L13.5403 44.6453C13.0542 44.926 12.5797 45.2215 12.1174 45.5312L57.9494 71.9923Z" fill="white"/>
<path d="M46.8743 91.174L1.04241 64.7129C1.00533 65.2684 0.986572 65.8274 0.986572 66.3891V148.948C0.986572 157.918 5.7722 166.207 13.5408 170.693L85.0389 211.972C92.8075 216.457 102.379 216.457 110.147 211.972L181.645 170.693C182.132 170.412 182.607 170.116 183.069 169.806L137.237 143.345L97.5931 166.234L46.8743 136.951V91.174Z" fill="white"/>
<path d="M961.321 120.856H998.491C998.585 120.843 998.68 120.851 998.769 120.88C998.858 120.91 998.94 120.959 999.007 121.025C999.074 121.091 999.126 121.172 999.157 121.26C999.188 121.349 999.198 121.444 999.187 121.538V132.596C999.2 132.69 999.192 132.787 999.162 132.877C999.132 132.968 999.081 133.05 999.013 133.118C998.946 133.185 998.863 133.236 998.773 133.266C998.682 133.297 998.586 133.305 998.491 133.291H992.546C992.452 133.305 992.355 133.297 992.265 133.266C992.174 133.236 992.092 133.185 992.024 133.118C991.957 133.05 991.906 132.968 991.876 132.877C991.846 132.787 991.837 132.69 991.851 132.596V128.505C991.857 128.45 991.851 128.394 991.833 128.341C991.815 128.289 991.785 128.241 991.746 128.201C991.706 128.162 991.658 128.132 991.606 128.114C991.553 128.096 991.497 128.09 991.442 128.096H984.392C984.337 128.09 984.281 128.096 984.228 128.114C984.176 128.132 984.128 128.162 984.089 128.201C984.049 128.241 984.019 128.289 984.001 128.341C983.983 128.394 983.977 128.45 983.983 128.505V160.644C983.977 160.699 983.983 160.755 984.001 160.808C984.019 160.86 984.049 160.908 984.089 160.948C984.128 160.987 984.176 161.017 984.228 161.035C984.281 161.053 984.337 161.059 984.392 161.053H987.992C988.086 161.041 988.18 161.052 988.269 161.083C988.358 161.114 988.439 161.165 988.505 161.232C988.57 161.3 988.62 161.381 988.649 161.471C988.679 161.56 988.687 161.655 988.674 161.748V167.202C988.687 167.296 988.679 167.391 988.649 167.48C988.62 167.57 988.57 167.651 988.505 167.718C988.439 167.786 988.358 167.837 988.269 167.868C988.18 167.899 988.086 167.909 987.992 167.898H971.807C971.713 167.912 971.617 167.904 971.527 167.874C971.436 167.844 971.355 167.793 971.288 167.725C971.221 167.657 971.172 167.574 971.144 167.483C971.115 167.392 971.109 167.296 971.125 167.202V161.748C971.109 161.655 971.115 161.558 971.144 161.467C971.172 161.377 971.221 161.294 971.288 161.226C971.355 161.158 971.436 161.107 971.527 161.077C971.617 161.047 971.713 161.039 971.807 161.053H975.407C975.462 161.059 975.518 161.053 975.571 161.035C975.623 161.017 975.671 160.987 975.71 160.948C975.75 160.908 975.78 160.86 975.798 160.808C975.816 160.755 975.822 160.699 975.816 160.644V128.451C975.822 128.395 975.816 128.339 975.798 128.287C975.78 128.234 975.75 128.186 975.71 128.147C975.671 128.108 975.623 128.078 975.571 128.059C975.518 128.041 975.462 128.035 975.407 128.042H968.357C968.301 128.033 968.243 128.037 968.189 128.054C968.134 128.072 968.085 128.101 968.044 128.141C968.003 128.18 967.972 128.229 967.953 128.283C967.934 128.337 967.927 128.394 967.935 128.451V132.541C967.951 132.635 967.944 132.731 967.916 132.822C967.888 132.913 967.838 132.996 967.772 133.064C967.705 133.132 967.623 133.183 967.533 133.213C967.443 133.243 967.347 133.251 967.253 133.237H961.308C961.213 133.25 961.117 133.242 961.026 133.212C960.936 133.182 960.853 133.131 960.786 133.063C960.718 132.996 960.667 132.914 960.637 132.823C960.607 132.732 960.599 132.636 960.612 132.541V121.538C960.6 121.443 960.611 121.347 960.643 121.257C960.675 121.167 960.727 121.085 960.796 121.019C960.865 120.953 960.948 120.904 961.039 120.875C961.131 120.847 961.227 120.84 961.321 120.856Z" fill="white"/>
<path d="M1010.7 133.769C1013.78 133.673 1016.82 134.53 1019.39 136.223C1021.77 137.837 1023.53 140.213 1024.37 142.959C1025.23 146.227 1025.6 149.604 1025.48 152.981C1025.48 153.431 1025.22 153.662 1024.71 153.662H1004.26C1004.2 153.653 1004.14 153.657 1004.09 153.675C1004.03 153.693 1003.98 153.724 1003.94 153.766C1003.9 153.807 1003.87 153.857 1003.85 153.913C1003.83 153.968 1003.83 154.028 1003.84 154.085C1003.85 154.958 1004.01 155.821 1004.33 156.635C1005.47 159.998 1007.96 161.68 1011.79 161.68C1013.23 161.738 1014.67 161.485 1016 160.936C1017.34 160.388 1018.54 159.558 1019.53 158.503C1019.9 158.135 1020.25 158.094 1020.57 158.367L1024.66 161.953C1024.73 162.006 1024.8 162.076 1024.84 162.157C1024.89 162.238 1024.91 162.328 1024.92 162.421C1024.93 162.513 1024.91 162.606 1024.88 162.693C1024.85 162.779 1024.79 162.857 1024.73 162.921C1021.51 166.702 1016.96 168.593 1011.09 168.593C1007.95 168.697 1004.85 167.84 1002.21 166.139C999.807 164.514 998.038 162.104 997.21 159.321C996.392 156.673 995.996 153.912 996.037 151.14C995.986 148.373 996.358 145.614 997.142 142.959C997.958 140.169 999.729 137.756 1002.15 136.141C1004.7 134.515 1007.67 133.689 1010.7 133.769ZM1010.7 140.327C1007.29 140.327 1005.1 141.759 1004.14 144.622C1003.84 145.533 1003.7 146.487 1003.71 147.445C1003.7 147.502 1003.71 147.561 1003.73 147.617C1003.74 147.673 1003.78 147.723 1003.82 147.764C1003.86 147.806 1003.91 147.837 1003.96 147.855C1004.02 147.872 1004.08 147.877 1004.14 147.867H1017.19C1017.24 147.874 1017.3 147.868 1017.35 147.849C1017.41 147.83 1017.46 147.799 1017.5 147.758C1017.54 147.717 1017.57 147.668 1017.59 147.614C1017.61 147.56 1017.61 147.502 1017.61 147.445C1017.62 146.487 1017.48 145.535 1017.19 144.622C1016.76 143.332 1015.91 142.222 1014.77 141.472C1013.58 140.704 1012.18 140.306 1010.76 140.327H1010.7Z" fill="white"/>
<path d="M1044.96 133.768C1048.95 133.623 1052.91 134.536 1056.43 136.414C1056.6 136.488 1056.75 136.615 1056.85 136.776C1056.95 136.937 1057 137.124 1056.99 137.313V144.908C1057 145.002 1056.99 145.099 1056.96 145.189C1056.93 145.279 1056.88 145.361 1056.81 145.427C1056.75 145.494 1056.66 145.543 1056.57 145.572C1056.48 145.6 1056.39 145.606 1056.29 145.59H1050.42C1050.32 145.604 1050.23 145.596 1050.14 145.566C1050.05 145.537 1049.97 145.487 1049.9 145.421C1049.84 145.355 1049.79 145.274 1049.76 145.185C1049.73 145.096 1049.72 145.001 1049.73 144.908V141.868C1049.73 141.677 1049.61 141.527 1049.38 141.377C1048.04 140.848 1046.6 140.615 1045.17 140.695C1041.57 140.695 1039.3 142.145 1038.35 145.045C1037.81 147.048 1037.57 149.121 1037.65 151.194C1037.57 153.29 1037.8 155.386 1038.35 157.412C1039.32 160.266 1041.59 161.693 1045.17 161.693C1046.6 161.79 1048.04 161.576 1049.38 161.066C1049.48 161.039 1049.58 160.976 1049.64 160.89C1049.7 160.803 1049.74 160.697 1049.73 160.589V157.467C1049.72 157.373 1049.73 157.278 1049.76 157.189C1049.79 157.099 1049.84 157.018 1049.9 156.951C1049.97 156.883 1050.05 156.832 1050.14 156.801C1050.23 156.77 1050.32 156.76 1050.42 156.771H1056.35C1056.44 156.757 1056.54 156.766 1056.63 156.796C1056.72 156.826 1056.8 156.877 1056.87 156.944C1056.94 157.012 1056.99 157.094 1057.02 157.185C1057.05 157.276 1057.06 157.372 1057.04 157.467V165.13C1057.05 165.319 1057 165.506 1056.9 165.667C1056.8 165.828 1056.66 165.955 1056.48 166.03C1052.92 167.8 1048.99 168.68 1045.02 168.593C1037.52 168.593 1032.74 165.593 1030.86 159.607C1030.08 156.869 1029.73 154.026 1029.83 151.181C1029.74 148.416 1030.09 145.656 1030.86 142.999C1031.7 140.185 1033.53 137.766 1036 136.182C1038.69 134.523 1041.8 133.685 1044.96 133.768Z" fill="white"/>
<path d="M1061.99 120.856H1072.42C1072.52 120.842 1072.61 120.851 1072.7 120.88C1072.79 120.91 1072.87 120.959 1072.94 121.025C1073.01 121.091 1073.06 121.171 1073.09 121.26C1073.12 121.349 1073.13 121.444 1073.12 121.537V137.641H1073.19C1075 135.059 1077.88 133.768 1081.82 133.768C1083.37 133.707 1084.92 133.983 1086.36 134.579C1087.79 135.174 1089.08 136.075 1090.14 137.218C1092.29 139.675 1093.42 142.869 1093.29 146.136V160.644C1093.28 160.699 1093.28 160.755 1093.3 160.808C1093.32 160.86 1093.35 160.908 1093.39 160.947C1093.43 160.987 1093.48 161.017 1093.53 161.035C1093.58 161.053 1093.64 161.059 1093.69 161.053H1096.53C1096.63 161.039 1096.72 161.048 1096.81 161.078C1096.9 161.108 1096.99 161.159 1097.05 161.226C1097.12 161.294 1097.17 161.376 1097.2 161.467C1097.23 161.557 1097.24 161.654 1097.23 161.748V167.202C1097.24 167.297 1097.23 167.393 1097.2 167.484C1097.17 167.574 1097.12 167.657 1097.05 167.724C1096.99 167.792 1096.9 167.843 1096.81 167.873C1096.72 167.903 1096.63 167.911 1096.53 167.898H1082.16C1082.06 167.912 1081.97 167.904 1081.88 167.874C1081.79 167.844 1081.71 167.793 1081.64 167.725C1081.57 167.657 1081.52 167.574 1081.5 167.483C1081.47 167.392 1081.46 167.296 1081.48 167.202V161.748C1081.46 161.654 1081.47 161.558 1081.5 161.467C1081.52 161.376 1081.57 161.294 1081.64 161.226C1081.71 161.158 1081.79 161.107 1081.88 161.077C1081.97 161.047 1082.06 161.038 1082.16 161.053H1085.13C1085.19 161.062 1085.25 161.057 1085.3 161.04C1085.35 161.023 1085.4 160.993 1085.44 160.954C1085.49 160.914 1085.52 160.865 1085.54 160.812C1085.55 160.758 1085.56 160.7 1085.55 160.644V147.936C1085.65 146.04 1085.09 144.17 1083.96 142.645C1083.36 142.025 1082.65 141.531 1081.85 141.194C1081.06 140.857 1080.21 140.683 1079.35 140.683C1078.49 140.683 1077.64 140.857 1076.85 141.194C1076.05 141.531 1075.34 142.025 1074.74 142.645C1073.59 144.16 1073.01 146.035 1073.12 147.936V160.644C1073.11 160.699 1073.12 160.755 1073.14 160.808C1073.15 160.86 1073.18 160.908 1073.22 160.947C1073.26 160.987 1073.31 161.017 1073.36 161.035C1073.42 161.053 1073.47 161.059 1073.53 161.053H1076.5C1076.59 161.038 1076.69 161.047 1076.78 161.077C1076.87 161.107 1076.95 161.158 1077.02 161.226C1077.09 161.294 1077.14 161.376 1077.16 161.467C1077.19 161.558 1077.2 161.654 1077.18 161.748V167.202C1077.2 167.296 1077.19 167.392 1077.16 167.483C1077.14 167.574 1077.09 167.657 1077.02 167.725C1076.95 167.793 1076.87 167.844 1076.78 167.874C1076.69 167.904 1076.59 167.912 1076.5 167.898H1061.99C1061.9 167.911 1061.8 167.903 1061.71 167.873C1061.62 167.843 1061.54 167.792 1061.47 167.724C1061.4 167.657 1061.35 167.574 1061.32 167.484C1061.29 167.393 1061.28 167.297 1061.3 167.202V161.748C1061.28 161.654 1061.29 161.557 1061.32 161.467C1061.35 161.376 1061.4 161.294 1061.47 161.226C1061.54 161.159 1061.62 161.108 1061.71 161.078C1061.8 161.048 1061.9 161.039 1061.99 161.053H1064.96C1065.02 161.059 1065.08 161.053 1065.13 161.035C1065.18 161.017 1065.23 160.987 1065.27 160.947C1065.31 160.908 1065.34 160.86 1065.36 160.808C1065.37 160.755 1065.38 160.699 1065.37 160.644V128.042C1065.37 127.755 1065.24 127.619 1064.96 127.619H1061.99C1061.9 127.632 1061.8 127.624 1061.71 127.594C1061.63 127.565 1061.54 127.515 1061.48 127.45C1061.41 127.384 1061.36 127.303 1061.33 127.214C1061.3 127.125 1061.29 127.031 1061.3 126.937V121.483C1061.29 121.394 1061.31 121.305 1061.35 121.223C1061.38 121.141 1061.43 121.068 1061.5 121.008C1061.57 120.948 1061.64 120.904 1061.73 120.878C1061.81 120.851 1061.9 120.844 1061.99 120.856Z" fill="white"/>
<path d="M1105.83 161.053C1105.15 161.042 1104.49 161.233 1103.92 161.602C1103.35 161.97 1102.91 162.5 1102.64 163.122C1102.37 163.745 1102.3 164.433 1102.43 165.098C1102.55 165.763 1102.87 166.376 1103.35 166.857C1103.83 167.339 1104.43 167.668 1105.1 167.802C1105.76 167.937 1106.45 167.871 1107.08 167.612C1107.7 167.354 1108.24 166.915 1108.61 166.351C1108.99 165.788 1109.19 165.125 1109.18 164.448C1109.19 164.004 1109.1 163.563 1108.93 163.151C1108.77 162.739 1108.52 162.365 1108.21 162.049C1107.89 161.733 1107.52 161.483 1107.11 161.312C1106.7 161.141 1106.26 161.053 1105.82 161.053H1105.83ZM1105.83 167.325C1105.1 167.275 1104.42 166.951 1103.92 166.418C1103.43 165.885 1103.15 165.184 1103.15 164.455C1103.15 163.726 1103.43 163.025 1103.92 162.492C1104.42 161.959 1105.1 161.635 1105.83 161.585C1106.56 161.635 1107.24 161.959 1107.73 162.492C1108.23 163.025 1108.51 163.726 1108.51 164.455C1108.51 165.184 1108.23 165.885 1107.73 166.418C1107.24 166.951 1106.56 167.275 1105.83 167.325Z" fill="white"/>
<path d="M1106.43 164.571C1106.64 164.525 1106.83 164.407 1106.97 164.239C1107.1 164.07 1107.18 163.86 1107.18 163.644C1107.19 163.495 1107.16 163.345 1107.1 163.21C1107.04 163.074 1106.94 162.956 1106.82 162.867C1106.47 162.651 1106.06 162.551 1105.65 162.58C1105.29 162.579 1104.93 162.611 1104.57 162.676V166.412H1105.19V164.775H1105.61C1105.71 164.762 1105.81 164.769 1105.9 164.796C1106 164.823 1106.08 164.87 1106.16 164.933C1106.24 164.995 1106.3 165.073 1106.34 165.161C1106.39 165.249 1106.41 165.345 1106.42 165.444C1106.44 165.78 1106.53 166.108 1106.67 166.412H1107.32C1107.18 166.115 1107.09 165.797 1107.07 165.471C1106.99 164.939 1106.8 164.626 1106.43 164.571ZM1105.62 164.326H1105.19V163.044H1105.62C1106.29 163.044 1106.54 163.371 1106.54 163.712C1106.54 164.053 1106.12 164.326 1105.62 164.326Z" fill="white"/>
<path d="M971.302 59.8784C974.08 59.8642 976.842 60.297 979.483 61.1601C981.762 61.8329 983.888 62.9445 985.742 64.4326C985.888 64.5483 986.007 64.6952 986.09 64.8627C986.172 65.0302 986.216 65.214 986.219 65.4007V73.691C986.233 73.7855 986.224 73.8819 986.194 73.9725C986.164 74.0632 986.113 74.1455 986.046 74.2131C985.978 74.2806 985.896 74.3314 985.805 74.3615C985.714 74.3916 985.618 74.4001 985.523 74.3864H979.306C979.212 74.3978 979.117 74.3875 979.029 74.3564C978.94 74.3253 978.859 74.2741 978.793 74.2069C978.727 74.1396 978.678 74.0581 978.648 73.9687C978.619 73.8792 978.611 73.7842 978.624 73.691V69.6004C978.627 69.4925 978.603 69.3857 978.552 69.2901C978.502 69.1946 978.428 69.1136 978.338 69.055C976.157 67.73 973.633 67.08 971.084 67.1869C966.02 67.1869 962.775 69.2822 961.348 73.4728C960.472 76.993 960.1 80.6199 960.244 84.2448C960.081 87.8185 960.384 91.3981 961.143 94.894C961.711 96.7381 962.865 98.3467 964.43 99.4754C966.327 100.623 968.529 101.165 970.743 101.03C973.405 101.207 976.065 100.635 978.419 99.38C978.623 99.2756 978.794 99.1175 978.914 98.9228C979.034 98.7281 979.099 98.5043 979.101 98.2755V89.0989C979.108 89.0436 979.102 88.9876 979.083 88.9349C979.065 88.8823 979.035 88.8345 978.996 88.7951C978.957 88.7557 978.909 88.7258 978.856 88.7076C978.804 88.6894 978.747 88.6833 978.692 88.6899H971.234C971.139 88.7036 971.043 88.6951 970.952 88.665C970.861 88.6349 970.779 88.5841 970.712 88.5165C970.644 88.449 970.593 88.3666 970.563 88.276C970.533 88.1854 970.524 88.089 970.538 87.9945V82.4722C970.524 82.3777 970.533 82.2812 970.563 82.1906C970.593 82.1 970.644 82.0176 970.712 81.9501C970.779 81.8826 970.861 81.8317 970.952 81.8017C971.043 81.7716 971.139 81.763 971.234 81.7768H986.232C986.327 81.763 986.423 81.7716 986.514 81.8017C986.605 81.8317 986.687 81.8826 986.755 81.9501C986.822 82.0176 986.873 82.1 986.903 82.1906C986.933 82.2812 986.942 82.3777 986.928 82.4722V102.325C986.933 102.654 986.853 102.979 986.695 103.269C986.537 103.558 986.308 103.801 986.028 103.975C981.471 107.058 976.05 108.61 970.552 108.407C961.289 108.407 955.462 104.743 953.071 97.4165C952.29 95.0712 951.899 90.6943 951.899 84.2857C951.899 78.2588 952.335 73.9228 953.262 71.3048C955.698 63.6781 961.712 59.8693 971.302 59.8784Z" fill="white"/>
<path d="M1007.75 73.5546C1010.84 73.4621 1013.88 74.3187 1016.46 76.009C1018.84 77.6209 1020.59 79.9982 1021.43 82.7448C1022.29 86.017 1022.66 89.399 1022.53 92.7804C1022.53 93.244 1022.29 93.4758 1021.78 93.4758H1001.26C1001.2 93.4693 1001.15 93.4753 1001.1 93.4935C1001.04 93.5118 1000.99 93.5417 1000.96 93.5811C1000.92 93.6205 1000.89 93.6683 1000.87 93.7209C1000.85 93.7735 1000.84 93.8296 1000.85 93.8849C1000.85 94.7612 1001.02 95.6296 1001.33 96.4483C1002.47 99.8163 1004.97 101.493 1008.79 101.493C1010.25 101.549 1011.7 101.287 1013.05 100.724C1014.4 100.162 1015.61 99.312 1016.6 98.2346C1016.97 97.8664 1017.31 97.8119 1017.64 98.0982L1021.73 101.684C1021.8 101.739 1021.86 101.81 1021.9 101.891C1021.95 101.971 1021.98 102.061 1021.98 102.153C1021.99 102.245 1021.97 102.337 1021.94 102.423C1021.91 102.509 1021.86 102.588 1021.79 102.652C1018.56 106.425 1014.01 108.316 1008.16 108.325C1005.02 108.426 1001.92 107.57 999.269 105.87C996.866 104.241 995.098 101.833 994.264 99.0527C993.453 96.4026 993.058 93.6428 993.092 90.8715C993.041 88.1041 993.413 85.3451 994.196 82.6903C995.018 79.9034 996.788 77.4916 999.2 75.8726C1001.76 74.2685 1004.73 73.4615 1007.75 73.5546ZM1007.75 80.1132C1004.34 80.1132 1002.15 81.5404 1001.19 84.3947C1000.91 85.3124 1000.77 86.2698 1000.78 87.2308C1000.77 87.2872 1000.78 87.3448 1000.79 87.3992C1000.81 87.4536 1000.84 87.5032 1000.88 87.5442C1000.92 87.5852 1000.97 87.6164 1001.02 87.6354C1001.08 87.6544 1001.13 87.6606 1001.19 87.6535H1014.25C1014.31 87.6606 1014.37 87.6544 1014.42 87.6354C1014.48 87.6164 1014.52 87.5852 1014.56 87.5442C1014.6 87.5032 1014.63 87.4536 1014.65 87.3992C1014.67 87.3448 1014.67 87.2872 1014.66 87.2308C1014.68 86.2698 1014.54 85.3124 1014.25 84.3947C1013.82 83.106 1012.97 82.001 1011.83 81.2586C1010.63 80.489 1009.24 80.0904 1007.82 80.1132H1007.75Z" fill="white"/>
<path d="M1042.71 73.5546C1045.78 73.4729 1048.8 74.3137 1051.38 75.9681C1053.8 77.5871 1055.57 79.9989 1056.39 82.7858C1057.18 85.4389 1057.55 88.1991 1057.49 90.967C1057.55 93.7347 1057.18 96.4946 1056.39 99.1482C1055.57 101.936 1053.8 104.349 1051.38 105.966C1048.76 107.554 1045.75 108.393 1042.68 108.393C1039.61 108.393 1036.6 107.554 1033.97 105.966C1031.55 104.353 1029.78 101.939 1028.97 99.1482C1028.18 96.4946 1027.81 93.7347 1027.86 90.967C1027.8 88.1991 1028.18 85.4389 1028.97 82.7858C1029.78 79.9963 1031.55 77.5828 1033.97 75.9681C1036.58 74.3051 1039.62 73.4642 1042.71 73.5546ZM1042.71 80.5087C1041.32 80.3733 1039.92 80.7361 1038.77 81.5324C1037.62 82.3287 1036.79 83.5071 1036.42 84.8583C1035.9 86.8635 1035.66 88.9351 1035.73 91.0079C1035.66 93.0808 1035.89 95.1533 1036.42 97.1574C1036.9 98.434 1037.75 99.5351 1038.87 100.313C1039.99 101.09 1041.32 101.507 1042.68 101.507C1044.04 101.507 1045.37 101.09 1046.48 100.313C1047.6 99.5351 1048.46 98.434 1048.93 97.1574C1049.46 95.1533 1049.7 93.0808 1049.62 91.0079C1049.69 88.9351 1049.46 86.8635 1048.93 84.8583C1048.57 83.5168 1047.75 82.3448 1046.61 81.5489C1045.48 80.7531 1044.09 80.3847 1042.71 80.5087Z" fill="white"/>
<path d="M1081.79 73.8272C1082.88 73.8282 1083.97 73.9471 1085.04 74.1817C1085.49 74.2635 1085.72 74.4953 1085.72 74.8635V80.8767C1085.72 81.4766 1085.44 81.7084 1084.89 81.5721C1083.54 81.2822 1082.17 81.0953 1080.79 81.013C1075.82 81.013 1073.32 83.8765 1073.32 89.576V100.484C1073.32 100.541 1073.32 100.598 1073.34 100.652C1073.36 100.706 1073.39 100.755 1073.43 100.794C1073.47 100.834 1073.52 100.864 1073.58 100.881C1073.63 100.898 1073.69 100.902 1073.75 100.893H1076.99C1077.09 100.88 1077.18 100.888 1077.27 100.918C1077.36 100.948 1077.45 100.999 1077.51 101.067C1077.58 101.134 1077.63 101.217 1077.66 101.307C1077.69 101.398 1077.7 101.494 1077.69 101.589V106.975C1077.7 107.069 1077.69 107.166 1077.66 107.256C1077.63 107.347 1077.58 107.429 1077.51 107.497C1077.45 107.564 1077.36 107.615 1077.27 107.645C1077.18 107.675 1077.09 107.684 1076.99 107.67H1062.24C1062.14 107.684 1062.05 107.675 1061.96 107.645C1061.87 107.615 1061.78 107.564 1061.72 107.497C1061.65 107.429 1061.6 107.347 1061.57 107.256C1061.54 107.166 1061.53 107.069 1061.54 106.975V101.534C1061.53 101.44 1061.54 101.343 1061.57 101.253C1061.6 101.162 1061.65 101.08 1061.72 101.012C1061.78 100.945 1061.87 100.894 1061.96 100.864C1062.05 100.834 1062.14 100.825 1062.24 100.839H1065.21C1065.26 100.845 1065.32 100.839 1065.37 100.821C1065.43 100.803 1065.47 100.773 1065.51 100.734C1065.55 100.694 1065.58 100.646 1065.6 100.594C1065.62 100.541 1065.63 100.485 1065.62 100.43V81.5039C1065.62 81.2176 1065.48 81.0812 1065.21 81.0812H1062.24C1062.14 81.0944 1062.05 81.0861 1061.96 81.0567C1061.87 81.0273 1061.79 80.9778 1061.72 80.9119C1061.65 80.8459 1061.6 80.7655 1061.57 80.6766C1061.54 80.5877 1061.53 80.4929 1061.54 80.3994V75.0544C1061.53 74.9609 1061.54 74.8661 1061.57 74.7772C1061.6 74.6884 1061.65 74.6079 1061.72 74.542C1061.79 74.476 1061.87 74.4265 1061.96 74.3971C1062.05 74.3678 1062.14 74.3594 1062.24 74.3726H1072.71C1072.8 74.3588 1072.9 74.3669 1072.99 74.3963C1073.07 74.4257 1073.16 74.4755 1073.22 74.5418C1073.29 74.6081 1073.34 74.689 1073.37 74.778C1073.4 74.867 1073.4 74.9617 1073.39 75.0544V78.4632C1074.23 76.9929 1075.46 75.7822 1076.94 74.9643C1078.42 74.1464 1080.1 73.7529 1081.79 73.8272Z" fill="white"/>
<path d="M1101.04 73.5959C1105.13 73.5959 1108.02 74.9595 1109.67 77.5366H1109.74V75.0549C1109.73 74.9604 1109.74 74.864 1109.77 74.7734C1109.8 74.6828 1109.85 74.6004 1109.92 74.5329C1109.98 74.4653 1110.07 74.4145 1110.16 74.3844C1110.25 74.3543 1110.34 74.3458 1110.44 74.3595H1120.87C1120.96 74.3458 1121.06 74.3543 1121.15 74.3844C1121.24 74.4145 1121.32 74.4653 1121.39 74.5329C1121.46 74.6004 1121.51 74.6828 1121.54 74.7734C1121.57 74.864 1121.58 74.9604 1121.56 75.0549V80.5091C1121.58 80.6031 1121.57 80.6992 1121.54 80.7895C1121.51 80.8797 1121.46 80.9615 1121.39 81.0281C1121.32 81.0947 1121.24 81.1442 1121.15 81.1725C1121.06 81.2008 1120.96 81.2071 1120.87 81.1908H1117.9C1117.84 81.1838 1117.78 81.19 1117.73 81.209C1117.67 81.228 1117.63 81.2592 1117.59 81.3002C1117.55 81.3411 1117.52 81.3908 1117.5 81.4452C1117.48 81.4996 1117.48 81.5572 1117.49 81.6135V105.584C1117.49 110.42 1116.16 114.175 1113.51 116.847C1110.85 119.52 1107 120.856 1101.94 120.856C1099.6 120.845 1097.29 120.382 1095.12 119.493C1093.11 118.745 1091.31 117.497 1089.9 115.866C1089.84 115.801 1089.79 115.722 1089.75 115.636C1089.72 115.55 1089.71 115.458 1089.72 115.366C1089.72 115.274 1089.75 115.185 1089.79 115.104C1089.84 115.023 1089.9 114.953 1089.97 114.897L1094.06 110.807C1094.12 110.722 1094.2 110.653 1094.29 110.606C1094.38 110.558 1094.48 110.533 1094.58 110.533C1094.68 110.533 1094.78 110.558 1094.87 110.606C1094.96 110.653 1095.04 110.722 1095.1 110.807C1096.04 111.778 1097.17 112.553 1098.41 113.087C1099.66 113.621 1101 113.902 1102.35 113.916C1107.32 113.916 1109.81 111.266 1109.81 105.966V102.885H1109.74C1108.09 105.475 1105.2 106.757 1101.11 106.757C1098.58 106.837 1096.09 106.111 1093.99 104.685C1091.97 103.19 1090.49 101.08 1089.78 98.6713C1088.97 95.914 1088.6 93.0482 1088.68 90.1765C1088.61 87.3274 1088.98 84.4848 1089.78 81.7499C1091.48 76.323 1095.23 73.605 1101.04 73.5959ZM1103.05 80.5091C1101.73 80.4125 1100.42 80.7813 1099.35 81.5512C1098.27 82.3211 1097.5 83.4433 1097.17 84.7224C1096.62 86.4866 1096.36 88.329 1096.41 90.1765C1096.35 92.0249 1096.61 93.8697 1097.17 95.6307C1097.57 96.8794 1098.36 97.9682 1099.42 98.7405C1100.48 99.5129 1101.76 99.9289 1103.07 99.9289C1104.39 99.9289 1105.67 99.5129 1106.73 98.7405C1107.79 97.9682 1108.58 96.8794 1108.98 95.6307C1109.55 93.8712 1109.81 92.0252 1109.74 90.1765C1109.79 88.3286 1109.54 86.4852 1108.98 84.7224C1108.64 83.4362 1107.86 82.3096 1106.78 81.5395C1105.69 80.7694 1104.37 80.4047 1103.05 80.5091Z" fill="white"/>
<path d="M1125.98 74.3185H1136.41C1136.51 74.3053 1136.6 74.3136 1136.69 74.343C1136.78 74.3724 1136.86 74.4219 1136.93 74.4878C1137 74.5538 1137.05 74.6343 1137.08 74.7231C1137.11 74.812 1137.12 74.9068 1137.11 75.0003V100.43C1137.1 100.485 1137.11 100.542 1137.13 100.594C1137.14 100.647 1137.17 100.695 1137.21 100.734C1137.25 100.773 1137.3 100.803 1137.35 100.822C1137.41 100.84 1137.46 100.846 1137.52 100.839H1140.49C1140.58 100.826 1140.68 100.834 1140.77 100.864C1140.86 100.894 1140.94 100.945 1141.01 101.013C1141.08 101.08 1141.13 101.162 1141.16 101.253C1141.19 101.344 1141.2 101.44 1141.19 101.535V106.921C1141.2 107.015 1141.19 107.112 1141.16 107.202C1141.13 107.293 1141.08 107.375 1141.01 107.443C1140.94 107.51 1140.86 107.561 1140.77 107.591C1140.68 107.621 1140.58 107.63 1140.49 107.616H1125.98C1125.89 107.63 1125.79 107.621 1125.7 107.591C1125.61 107.561 1125.53 107.51 1125.46 107.443C1125.39 107.375 1125.34 107.293 1125.31 107.202C1125.28 107.112 1125.27 107.015 1125.29 106.921V101.535C1125.27 101.44 1125.28 101.344 1125.31 101.253C1125.34 101.162 1125.39 101.08 1125.46 101.013C1125.53 100.945 1125.61 100.894 1125.7 100.864C1125.79 100.834 1125.89 100.826 1125.98 100.839H1128.95C1129.01 100.846 1129.07 100.84 1129.12 100.822C1129.17 100.803 1129.22 100.773 1129.26 100.734C1129.3 100.695 1129.33 100.647 1129.35 100.594C1129.36 100.542 1129.37 100.485 1129.36 100.43V81.5043C1129.36 81.218 1129.23 81.0816 1128.95 81.0816H1125.98C1125.89 81.0949 1125.79 81.0865 1125.7 81.0571C1125.61 81.0278 1125.53 80.9782 1125.47 80.9123C1125.4 80.8464 1125.35 80.7659 1125.32 80.677C1125.29 80.5882 1125.28 80.4933 1125.29 80.3999V75.0548C1125.27 74.9573 1125.27 74.8561 1125.3 74.76C1125.32 74.6639 1125.37 74.5758 1125.44 74.5033C1125.51 74.4307 1125.59 74.376 1125.69 74.3438C1125.78 74.3116 1125.88 74.3029 1125.98 74.3185ZM1130.07 60.6832H1136.43C1136.52 60.6669 1136.62 60.6732 1136.71 60.7015C1136.8 60.7298 1136.88 60.7793 1136.95 60.8459C1137.02 60.9125 1137.07 60.9943 1137.1 61.0845C1137.13 61.1748 1137.14 61.2709 1137.12 61.3649V67.3781C1137.14 67.4726 1137.13 67.569 1137.1 67.6597C1137.07 67.7503 1137.02 67.8326 1136.95 67.9002C1136.88 67.9677 1136.8 68.0185 1136.71 68.0486C1136.62 68.0787 1136.52 68.0872 1136.43 68.0735H1130.07C1129.98 68.0872 1129.88 68.0787 1129.79 68.0486C1129.7 68.0185 1129.62 67.9677 1129.55 67.9002C1129.48 67.8326 1129.43 67.7503 1129.4 67.6597C1129.37 67.569 1129.36 67.4726 1129.38 67.3781V61.324C1129.36 61.2313 1129.37 61.1366 1129.4 61.0476C1129.43 60.9586 1129.48 60.8777 1129.55 60.8114C1129.61 60.7452 1129.69 60.6953 1129.78 60.6659C1129.87 60.6366 1129.97 60.6284 1130.06 60.6423L1130.07 60.6832Z" fill="white"/>
<path d="M1158.86 73.555C1163.87 73.555 1167.43 74.464 1169.52 76.2821C1171.61 78.1001 1172.66 81.0681 1172.67 85.186V100.458C1172.66 100.513 1172.67 100.569 1172.69 100.622C1172.71 100.674 1172.74 100.722 1172.77 100.761C1172.81 100.801 1172.86 100.831 1172.91 100.849C1172.97 100.867 1173.02 100.873 1173.08 100.867H1176.05C1176.15 100.853 1176.24 100.861 1176.33 100.891C1176.42 100.922 1176.51 100.972 1176.57 101.04C1176.64 101.107 1176.69 101.19 1176.72 101.28C1176.75 101.371 1176.76 101.467 1176.75 101.562V106.948C1176.76 107.042 1176.75 107.139 1176.72 107.23C1176.69 107.32 1176.64 107.402 1176.57 107.47C1176.51 107.538 1176.42 107.588 1176.33 107.618C1176.24 107.649 1176.15 107.657 1176.05 107.643H1166.18C1166.08 107.657 1165.99 107.649 1165.9 107.618C1165.81 107.588 1165.72 107.538 1165.66 107.47C1165.59 107.402 1165.54 107.32 1165.51 107.23C1165.48 107.139 1165.47 107.042 1165.48 106.948V104.507H1165.43C1163.61 107.089 1160.52 108.38 1156.17 108.38C1153.28 108.486 1150.45 107.552 1148.19 105.748C1147.11 104.814 1146.26 103.643 1145.7 102.326C1145.14 101.009 1144.89 99.5812 1144.98 98.1532C1144.87 96.639 1145.14 95.1227 1145.75 93.732C1146.35 92.3414 1147.29 91.1172 1148.47 90.1629C1151.35 88.2304 1154.78 87.2964 1158.24 87.504H1164.88C1164.94 87.5105 1165 87.5045 1165.05 87.4863C1165.1 87.468 1165.15 87.4381 1165.19 87.3987C1165.23 87.3593 1165.26 87.3115 1165.27 87.2589C1165.29 87.2063 1165.3 87.1502 1165.29 87.0949V85.7314C1165.37 84.932 1165.27 84.1258 1165.02 83.3648C1164.76 82.6038 1164.35 81.905 1163.81 81.3135C1162.81 80.4045 1161.02 79.95 1158.45 79.95C1157.24 79.9492 1156.04 80.0911 1154.86 80.3727C1154.63 80.3727 1154.52 80.5772 1154.52 80.8499V83.8224C1154.53 83.9169 1154.53 84.0133 1154.5 84.104C1154.47 84.1946 1154.41 84.2769 1154.35 84.3445C1154.28 84.412 1154.2 84.4628 1154.11 84.4929C1154.02 84.523 1153.92 84.5315 1153.83 84.5178H1147.81C1147.72 84.5315 1147.62 84.523 1147.53 84.4929C1147.44 84.4628 1147.36 84.412 1147.29 84.3445C1147.22 84.2769 1147.17 84.1946 1147.14 84.104C1147.11 84.0133 1147.1 83.9169 1147.12 83.8224V76.8002C1147.11 76.6118 1147.16 76.4257 1147.26 76.2656C1147.36 76.1054 1147.5 75.9783 1147.68 75.9003C1151.18 74.2806 1155 73.4786 1158.86 73.555ZM1164.94 93.3126H1159.48C1154.74 93.3126 1152.37 94.8307 1152.37 97.8668C1152.37 100.676 1154.26 102.08 1158.04 102.08C1162.88 102.08 1165.3 100.194 1165.29 96.4215V93.6944C1165.29 93.6461 1165.29 93.5978 1165.27 93.5524C1165.25 93.5071 1165.23 93.4655 1165.19 93.43C1165.16 93.3946 1165.12 93.3659 1165.08 93.3458C1165.03 93.3256 1164.99 93.3144 1164.94 93.3126Z" fill="white"/>
<path d="M909.085 161.584C908.468 161.574 907.861 161.747 907.342 162.083C906.823 162.418 906.417 162.901 906.173 163.468C905.93 164.036 905.861 164.664 905.976 165.271C906.091 165.878 906.384 166.437 906.818 166.876C907.252 167.316 907.807 167.617 908.412 167.739C909.018 167.862 909.646 167.802 910.217 167.566C910.788 167.331 911.276 166.93 911.618 166.416C911.961 165.902 912.142 165.297 912.14 164.68C912.142 164.269 912.061 163.862 911.904 163.483C911.747 163.104 911.515 162.761 911.223 162.472C910.931 162.184 910.584 161.957 910.203 161.804C909.822 161.652 909.414 161.577 909.004 161.584H909.085ZM909.085 167.311C908.422 167.263 907.801 166.966 907.348 166.479C906.895 165.992 906.643 165.352 906.643 164.686C906.643 164.021 906.895 163.381 907.348 162.894C907.801 162.407 908.422 162.109 909.085 162.062C909.749 162.109 910.37 162.407 910.823 162.894C911.276 163.381 911.528 164.021 911.528 164.686C911.528 165.352 911.276 165.992 910.823 166.479C910.37 166.966 909.749 167.263 909.085 167.311Z" fill="white"/>
<path d="M909.562 164.789C909.756 164.748 909.929 164.641 910.054 164.487C910.178 164.333 910.245 164.141 910.244 163.943C910.254 163.808 910.231 163.673 910.177 163.549C910.122 163.425 910.037 163.317 909.93 163.234C909.605 163.042 909.23 162.951 908.853 162.975C908.524 162.977 908.196 163.004 907.871 163.057V166.507H908.431V165.048H908.812C908.902 165.034 908.993 165.04 909.08 165.064C909.168 165.088 909.249 165.131 909.318 165.189C909.388 165.247 909.444 165.319 909.484 165.4C909.524 165.482 909.546 165.571 909.549 165.661C909.573 165.964 909.651 166.259 909.78 166.534H910.367C910.251 166.265 910.177 165.98 910.149 165.689C910.08 165.116 909.862 164.843 909.562 164.789ZM908.826 164.57H908.431V163.398H908.826C909.44 163.398 909.658 163.698 909.658 164.011C909.658 164.325 909.276 164.57 908.826 164.57Z" fill="white"/>
<path d="M825.268 94.4302V121.415H839.776L841.303 113.233H847.821C845.435 125.723 833.136 134.273 817.537 134.273C816.473 134.273 815.396 134.273 814.319 134.15C806.282 133.694 798.536 130.981 791.97 126.323C788.971 124.216 786.524 121.416 784.837 118.162C783.149 114.908 782.271 111.295 782.276 107.629C782.298 103.694 783.161 99.8088 784.807 96.2343C786.453 92.6598 788.844 89.4785 791.82 86.9035C797.925 81.6248 805.653 78.5977 813.719 78.3269C814.237 78.3269 814.769 78.3269 815.301 78.3269C825.509 78.5001 835.36 82.1075 843.267 88.567C843.662 88.8943 843.758 88.9625 843.853 89.0306C844.048 89.1692 844.235 89.3195 844.412 89.4806L844.63 89.6715H861.279V60.5464H844.412V68.8776C834.294 62.817 822.704 59.6565 810.91 59.7419H810.678C795.182 59.8234 780.352 66.0517 769.445 77.0588C760.718 85.9627 755.96 96.871 756.096 107.779C756.259 119.506 761.905 130.428 772.008 138.527C782.282 146.518 794.936 150.839 807.951 150.799C809.574 150.799 811.224 150.799 812.846 150.608C825.895 149.544 837.39 146.517 845.571 142.195V145.795H863.488V113.37H869.678V150.921H860.338V167.775H902.021V150.921H892.722V113.356H913.83L915.302 121.537H929.865V94.4302H825.268Z" fill="white"/>
</svg>
