<svg width="666" height="217" viewBox="0 0 666 217" fill="none" xmlns="http://www.w3.org/2000/svg">
<path d="M258.3 175.938H282.625V48.3625H258.3V175.938Z" fill="black"/>
<path d="M357.559 177.688C397.459 177.688 419.159 153.712 419.159 112.587V112.062C419.159 69.5375 395.184 46.7875 357.559 46.7875C319.934 46.7875 295.959 69.5375 295.959 112.062V112.587C295.959 153.712 317.659 177.688 357.559 177.688ZM357.559 156.513C334.809 156.513 321.509 143.388 321.509 121.862V102.612C321.509 82.3125 333.409 67.9625 357.559 67.9625C381.709 67.9625 393.609 82.3125 393.609 102.612V121.862C393.609 143.388 380.309 156.513 357.559 156.513Z" fill="black"/>
<path d="M432.637 175.938H483.387C519.962 175.938 544.462 156.162 544.462 112.762V111.537C544.462 71.1125 523.112 48.1875 483.387 48.1875H432.637V175.938ZM456.962 155.112V69.0125H483.387C507.362 69.0125 518.737 82.4875 518.737 102.612V121.513C518.737 142.863 506.137 155.112 483.387 155.112H456.962Z" fill="black"/>
<path d="M542.251 175.938H565.701L575.326 148.112H630.276L639.901 175.938H664.051L619.951 48.3625H586.176L542.251 175.938ZM581.101 129.562L602.276 67.4375H603.326L610.851 89.3125L624.501 129.562H581.101Z" fill="black"/>
<path d="M57.6359 72.6583L97.2792 49.7703L147.998 79.0528V124.829L193.83 151.29C193.867 150.735 193.886 150.176 193.886 149.615V67.0558C193.886 58.0855 189.1 49.7965 181.332 45.3113L109.833 4.03186C102.065 -0.453326 92.4935 -0.453327 84.725 4.03185L13.2268 45.3113C12.7407 45.592 12.2663 45.8875 11.804 46.1972L57.6359 72.6583Z" fill="black"/>
<path d="M46.5608 91.84L0.728938 65.3789C0.691857 65.9345 0.673096 66.4935 0.673096 67.0551V149.614C0.673096 158.584 5.45873 166.873 13.2273 171.359L84.7255 212.638C92.494 217.123 102.065 217.123 109.834 212.638L181.332 171.359C181.818 171.078 182.293 170.782 182.756 170.472L136.924 144.011L97.2797 166.9L46.5608 137.617V91.84Z" fill="black"/>
</svg>
