<svg width="1413" height="216" viewBox="0 0 1413 216" fill="none" xmlns="http://www.w3.org/2000/svg">
<path d="M258.194 175.269H282.519V47.6945H258.194V175.269Z" fill="#374151"/>
<path d="M357.453 177.019C397.353 177.019 419.053 153.044 419.053 111.919V111.394C419.053 68.8695 395.078 46.1195 357.453 46.1195C319.828 46.1195 295.853 68.8695 295.853 111.394V111.919C295.853 153.044 317.553 177.019 357.453 177.019ZM357.453 155.844C334.703 155.844 321.403 142.719 321.403 121.194V101.944C321.403 81.6445 333.303 67.2945 357.453 67.2945C381.603 67.2945 393.503 81.6445 393.503 101.944V121.194C393.503 142.719 380.203 155.844 357.453 155.844Z" fill="#374151"/>
<path d="M432.531 175.269H483.281C519.856 175.269 544.356 155.494 544.356 112.094V110.869C544.356 70.4445 523.006 47.5195 483.281 47.5195H432.531V175.269ZM456.856 154.444V68.3445H483.281C507.256 68.3445 518.631 81.8195 518.631 101.944V120.844C518.631 142.194 506.031 154.444 483.281 154.444H456.856Z" fill="#374151"/>
<path d="M542.145 175.269H565.595L575.22 147.444H630.17L639.795 175.269H663.945L619.845 47.6945H586.07L542.145 175.269ZM580.995 128.894L602.17 66.7695H603.22L610.745 88.6445L624.395 128.894H580.995Z" fill="#374151"/>
<path d="M759.88 96.5996H765.476V48.0344H759.88V96.5996Z" fill="#374151"/>
<path d="M776.942 96.5996H782.271V76.1476C782.271 69.6856 785.602 65.5552 791.198 65.5552C795.861 65.5552 798.993 67.7536 798.993 74.8152V96.5996H804.322V74.149C804.322 65.8217 800.658 61.0251 793.263 61.0251C788.2 61.0251 784.137 63.8231 782.738 68.2199H782.338L781.938 61.6913H776.942V96.5996Z" fill="#374151"/>
<path d="M822.398 96.5996H831.059V92.2693H822.731V66.1548H831.325V61.6913H822.731V50.3661H817.402V61.6913H810.074V66.1548H817.402V91.7364C817.402 94.7342 818.867 96.5996 822.398 96.5996Z" fill="#374151"/>
<path d="M850.37 97.2657C858.031 97.2657 863.694 92.9355 864.027 85.6075H858.897C858.498 90.0709 855.367 93.0021 850.304 93.0021C844.641 93.0021 841.31 89.3381 841.31 83.6089V80.4778H864.227V76.081C864.227 66.8209 859.164 61.0917 850.17 61.0251C841.643 61.0917 835.781 66.5545 835.781 77.2801V80.6777C835.781 91.0036 840.71 97.2657 850.37 97.2657ZM841.31 75.4814C841.31 69.2858 844.108 65.2887 850.237 65.2887C855.7 65.2887 858.897 68.4864 858.897 75.4814V76.8138H841.31V75.4814Z" fill="#374151"/>
<path d="M872.116 96.5996H877.445V66.1548H890.036V61.6913H877.512C874.247 61.6913 872.116 63.5566 872.116 67.0208V96.5996Z" fill="#374151"/>
<path d="M897.009 96.5996H902.339V76.1476C902.339 69.6856 905.67 65.5552 911.266 65.5552C915.929 65.5552 919.06 67.7536 919.06 74.8152V96.5996H924.389V74.149C924.389 65.8217 920.725 61.0251 913.331 61.0251C908.268 61.0251 904.204 63.8231 902.805 68.2199H902.405L902.005 61.6913H897.009V96.5996Z" fill="#374151"/>
<path d="M946.52 97.2657C954.181 97.2657 959.844 92.9355 960.177 85.6075H955.047C954.647 90.0709 951.516 93.0021 946.453 93.0021C940.791 93.0021 937.46 89.3381 937.46 83.6089V80.4778H960.377V76.081C960.377 66.8209 955.314 61.0917 946.32 61.0251C937.793 61.0917 931.93 66.5545 931.93 77.2801V80.6777C931.93 91.0036 936.86 97.2657 946.52 97.2657ZM937.46 75.4814C937.46 69.2858 940.258 65.2887 946.387 65.2887C951.849 65.2887 955.047 68.4864 955.047 75.4814V76.8138H937.46V75.4814Z" fill="#374151"/>
<path d="M976.792 96.5996H985.453V92.2693H977.125V66.1548H985.719V61.6913H977.125V50.3661H971.796V61.6913H964.468V66.1548H971.796V91.7364C971.796 94.7342 973.262 96.5996 976.792 96.5996Z" fill="#374151"/>
<path d="M1023.6 97.2657C1035.79 97.2657 1043.25 90.2042 1043.25 75.548V69.1526C1043.25 54.4965 1035.73 47.4349 1023.6 47.4349C1011.54 47.4349 1004.02 54.4965 1004.02 69.1526V75.548C1004.02 90.2042 1011.48 97.2657 1023.6 97.2657ZM1023.6 92.4026C1014.81 92.4026 1009.88 87.2063 1009.88 78.0129V66.6211C1009.88 58.1605 1014.27 52.298 1023.6 52.298C1032.99 52.298 1037.39 58.1605 1037.39 66.6211V78.0129C1037.39 87.2063 1032.46 92.4026 1023.6 92.4026Z" fill="#374151"/>
<path d="M1061.99 97.2657C1067.12 97.2657 1071.19 94.4678 1072.65 90.1375H1073.05L1073.45 96.5996H1078.45V61.6913H1073.12V82.2099C1073.12 88.6053 1069.79 92.8023 1064.19 92.8023C1059.59 92.8023 1056.46 90.5372 1056.46 83.5423V61.6913H1051.13V84.2751C1051.13 92.1361 1054.53 97.2657 1061.99 97.2657Z" fill="#374151"/>
<path d="M1097.05 96.5996H1105.72V92.2693H1097.39V66.1548H1105.98V61.6913H1097.39V50.3661H1092.06V61.6913H1084.73V66.1548H1092.06V91.7364C1092.06 94.7342 1093.52 96.5996 1097.05 96.5996Z" fill="#374151"/>
<path d="M1122.76 97.2657C1127.43 97.2657 1131.36 94.6676 1132.82 90.6039H1133.22V96.5996H1138.55V61.6913H1133.49L1133.22 67.7536H1132.82C1131.36 63.6232 1127.49 61.0917 1122.76 61.0917C1114.9 61.0917 1110.44 66.4879 1110.44 77.48V81.0774C1110.44 91.4699 1114.57 97.2657 1122.76 97.2657ZM1124.63 92.8023C1119.36 92.8023 1116.1 89.6046 1116.1 83.0759V75.3482C1116.1 68.7529 1119.36 65.5552 1124.63 65.5552C1130.02 65.5552 1133.22 69.4857 1133.22 75.6146V82.7428C1133.22 88.8718 1130.02 92.8023 1124.63 92.8023Z" fill="#374151"/>
<path d="M1159.98 108.391C1169.51 108.391 1174.44 103.928 1174.44 95.0007V61.6913H1169.38L1169.11 67.687H1168.64C1167.24 63.6232 1163.51 61.0251 1158.58 61.0251C1150.99 61.0251 1146.33 66.0881 1146.33 76.6139V78.9456C1146.33 88.6719 1150.26 94.5344 1158.52 94.5344C1163.18 94.5344 1167.18 92.0029 1168.64 87.8725H1169.04V95.5337C1169.04 101.396 1166.51 104.394 1160.25 104.394C1155.72 104.394 1152.72 102.196 1152.52 98.5315H1147.39C1147.59 104.527 1152.45 108.391 1159.98 108.391ZM1160.52 90.0709C1155.25 90.0709 1151.99 86.9398 1151.99 80.8109V75.2149C1151.99 68.6863 1155.25 65.4886 1160.52 65.4886C1165.85 65.4886 1169.04 69.3525 1169.04 75.4148V80.1447C1169.04 86.1404 1165.91 90.0709 1160.52 90.0709Z" fill="#374151"/>
<path d="M1196.74 97.2657C1204.4 97.2657 1210.06 92.9355 1210.4 85.6075H1205.27C1204.87 90.0709 1201.73 93.0021 1196.67 93.0021C1191.01 93.0021 1187.68 89.3381 1187.68 83.6089V80.4778H1210.6V76.081C1210.6 66.8209 1205.53 61.0917 1196.54 61.0251C1188.01 61.0917 1182.15 66.5545 1182.15 77.2801V80.6777C1182.15 91.0036 1187.08 97.2657 1196.74 97.2657ZM1187.68 75.4814C1187.68 69.2858 1190.48 65.2887 1196.61 65.2887C1202.07 65.2887 1205.27 68.4864 1205.27 75.4814V76.8138H1187.68V75.4814Z" fill="#374151"/>
<path d="M759.88 168.6H776.002C787.86 168.6 795.454 162.071 795.454 146.948V141.686C795.454 126.963 788.26 120.034 776.002 120.034H759.88V168.6ZM765.476 163.736V124.898H775.869C785.328 124.898 789.592 130.627 789.592 139.354V149.213C789.592 158.54 784.795 163.736 775.869 163.736H765.476Z" fill="#374151"/>
<path d="M815.937 169.266C823.598 169.266 829.26 164.936 829.593 157.607H824.464C824.064 162.071 820.933 165.002 815.87 165.002C810.207 165.002 806.876 161.338 806.876 155.609V152.478H829.793V148.081C829.793 138.821 824.73 133.092 815.737 133.025C807.21 133.092 801.347 138.554 801.347 149.28V152.678C801.347 163.004 806.277 169.266 815.937 169.266ZM806.876 147.481C806.876 141.286 809.674 137.289 815.803 137.289C821.266 137.289 824.464 140.486 824.464 147.481V148.814H806.876V147.481Z" fill="#374151"/>
<path d="M846.209 168.6H854.87V164.269H846.542V138.155H855.136V133.691H846.542V122.366H841.213V133.691H833.885V138.155H841.213V163.736C841.213 166.734 842.678 168.6 846.209 168.6Z" fill="#374151"/>
<path d="M874.181 169.266C881.842 169.266 887.505 164.936 887.838 157.607H882.708C882.309 162.071 879.178 165.002 874.115 165.002C868.452 165.002 865.121 161.338 865.121 155.609V152.478H888.038V148.081C888.038 138.821 882.975 133.092 873.981 133.025C865.454 133.092 859.592 138.554 859.592 149.28V152.678C859.592 163.004 864.521 169.266 874.181 169.266ZM865.121 147.481C865.121 141.286 867.919 137.289 874.048 137.289C879.511 137.289 882.708 140.486 882.708 147.481V148.814H865.121V147.481Z" fill="#374151"/>
<path d="M907.918 169.266C915.979 169.266 921.575 164.536 921.775 156.608H916.512C916.312 161.538 913.447 164.802 907.985 164.802C902.189 164.802 898.991 161.271 898.991 155.409V146.948C898.991 141.286 902.255 137.489 907.985 137.489C912.981 137.489 916.112 140.486 916.512 145.683H921.708C921.375 137.555 915.979 133.092 907.985 133.025C899.257 133.092 893.528 138.288 893.528 149.413V152.944C893.528 163.337 898.458 169.266 907.918 169.266Z" fill="#374151"/>
<path d="M953.993 127.829H959.323V120.034H953.993V127.829ZM953.993 138.155V168.6H959.323V133.691H938.138V122.366H932.808V133.691H925.48V138.155H932.808V163.736C932.808 166.734 934.274 168.6 937.805 168.6H946.465V164.269H938.138V138.155H953.993Z" fill="#374151"/>
<path d="M981.518 169.266C991.044 169.266 995.974 163.403 995.974 152.944V149.413C995.974 138.355 990.311 133.092 981.518 133.025C972.791 133.092 967.061 138.288 967.061 149.413V152.944C967.061 163.337 971.925 169.266 981.518 169.266ZM981.518 164.802C975.722 164.802 972.591 161.271 972.591 155.409V146.948C972.591 141.286 975.788 137.489 981.518 137.489C987.247 137.489 990.445 141.286 990.445 146.948V155.409C990.445 161.271 987.313 164.802 981.518 164.802Z" fill="#374151"/>
<path d="M1003.92 168.6H1009.25V148.148C1009.25 141.686 1012.58 137.555 1018.17 137.555C1022.84 137.555 1025.97 139.754 1025.97 146.815V168.6H1031.3V146.149C1031.3 137.822 1027.63 133.025 1020.24 133.025C1015.18 133.025 1011.11 135.823 1009.71 140.22H1009.31L1008.91 133.691H1003.92V168.6Z" fill="#374151"/>
<path d="M1064.48 169.266C1069.14 169.266 1073.07 166.668 1074.54 162.604H1074.93V168.6H1080.26V133.691H1075.2L1074.93 139.754H1074.54C1073.07 135.623 1069.21 133.092 1064.48 133.092C1056.61 133.092 1052.15 138.488 1052.15 149.48V153.077C1052.15 163.47 1056.28 169.266 1064.48 169.266ZM1066.34 164.802C1061.08 164.802 1057.81 161.605 1057.81 155.076V147.348C1057.81 140.753 1061.08 137.555 1066.34 137.555C1071.74 137.555 1074.93 141.486 1074.93 147.615V154.743C1074.93 160.872 1071.74 164.802 1066.34 164.802Z" fill="#374151"/>
<path d="M1090.44 168.6H1095.77V148.148C1095.77 141.686 1099.1 137.555 1104.69 137.555C1109.36 137.555 1112.49 139.754 1112.49 146.815V168.6H1117.82V146.149C1117.82 137.822 1114.15 133.025 1106.76 133.025C1101.7 133.025 1097.63 135.823 1096.23 140.22H1095.83L1095.43 133.691H1090.44V168.6Z" fill="#374151"/>
<path d="M1137.68 169.266C1142.41 169.266 1146.28 166.668 1147.74 162.537H1148.14L1148.41 168.6H1153.47V120.034H1148.14V139.687H1147.74C1146.28 135.623 1142.35 133.025 1137.68 133.025C1129.82 133.025 1125.36 138.421 1125.36 149.213V152.878C1125.36 163.337 1129.49 169.266 1137.68 169.266ZM1139.55 164.802C1134.29 164.802 1131.02 161.605 1131.02 155.009V147.282C1131.02 140.686 1134.29 137.555 1139.55 137.555C1144.95 137.555 1148.14 141.486 1148.14 147.548V154.676C1148.14 160.872 1144.95 164.802 1139.55 164.802Z" fill="#374151"/>
<path d="M1171.83 168.6H1177.36L1181.16 156.741H1200.94L1204.67 168.6H1210.34L1194.95 120.034H1187.22L1171.83 168.6ZM1182.36 152.345L1187.82 134.691L1190.82 124.898H1191.22L1194.21 134.624L1199.74 152.345H1182.36Z" fill="#374151"/>
<path d="M1215.45 168.6H1220.78V148.148C1220.78 141.686 1224.11 137.555 1229.71 137.555C1234.37 137.555 1237.5 139.754 1237.5 146.815V168.6H1242.83V146.149C1242.83 137.822 1239.17 133.025 1231.77 133.025C1226.71 133.025 1222.64 135.823 1221.25 140.22H1220.85L1220.45 133.691H1215.45V168.6Z" fill="#374151"/>
<path d="M1262.7 169.266C1267.36 169.266 1271.29 166.668 1272.75 162.604H1273.15V168.6H1278.48V133.691H1273.42L1273.15 139.754H1272.75C1271.29 135.623 1267.43 133.092 1262.7 133.092C1254.83 133.092 1250.37 138.488 1250.37 149.48V153.077C1250.37 163.47 1254.5 169.266 1262.7 169.266ZM1264.56 164.802C1259.3 164.802 1256.03 161.605 1256.03 155.076V147.348C1256.03 140.753 1259.3 137.555 1264.56 137.555C1269.96 137.555 1273.15 141.486 1273.15 147.615V154.743C1273.15 160.872 1269.96 164.802 1264.56 164.802Z" fill="#374151"/>
<path d="M1288.52 168.6H1293.92V120.034H1288.52V168.6Z" fill="#374151"/>
<path d="M1301.65 179.725H1314.11C1316.78 179.725 1318.44 178.393 1318.44 175.461V165.135L1331.1 133.691H1325.5L1317.04 156.342L1315.91 159.473H1315.58L1314.51 156.342L1306.18 133.691H1300.52L1313.11 165.135V175.395H1301.65V179.725Z" fill="#374151"/>
<path d="M1347.4 169.266C1354.86 169.266 1360.06 165.735 1360.06 159.14C1360.06 151.279 1354 149.613 1348.87 148.481C1344.47 147.415 1340.81 146.482 1340.81 142.352C1340.81 139.154 1343.01 137.089 1347.34 137.089C1351.73 137.089 1354.26 139.287 1354.4 143.551H1359.46C1359.33 137.155 1354.93 133.025 1347.34 133.025C1340.41 133.025 1335.48 136.689 1335.48 142.951C1335.48 149.813 1341.21 151.479 1346.2 152.678C1351.47 153.877 1354.6 154.876 1354.6 159.606C1354.6 162.804 1352.4 165.202 1347.47 165.202C1342.74 165.135 1339.74 163.004 1339.61 157.874H1334.48C1334.48 164.669 1338.81 169.266 1347.4 169.266Z" fill="#374151"/>
<path d="M1367.43 127.829H1372.89V119.968H1367.43V127.829ZM1367.5 168.6H1372.89V133.691H1367.5V168.6Z" fill="#374151"/>
<path d="M1393.35 169.266C1400.81 169.266 1406.01 165.735 1406.01 159.14C1406.01 151.279 1399.95 149.613 1394.82 148.481C1390.42 147.415 1386.76 146.482 1386.76 142.352C1386.76 139.154 1388.95 137.089 1393.28 137.089C1397.68 137.089 1400.21 139.287 1400.35 143.551H1405.41C1405.28 137.155 1400.88 133.025 1393.28 133.025C1386.36 133.025 1381.43 136.689 1381.43 142.951C1381.43 149.813 1387.16 151.479 1392.15 152.678C1397.42 153.877 1400.55 154.876 1400.55 159.606C1400.55 162.804 1398.35 165.202 1393.42 165.202C1388.69 165.135 1385.69 163.004 1385.56 157.874H1380.43C1380.43 164.669 1384.76 169.266 1393.35 169.266Z" fill="#374151"/>
<path fill-rule="evenodd" clip-rule="evenodd" d="M705.536 201.974L705.536 20.4521H709.536L709.536 201.974H705.536Z" fill="#374151"/>
<path d="M57.5305 71.9904L97.1737 49.1023L147.893 78.3848V124.161L193.724 150.622C193.761 150.067 193.78 149.508 193.78 148.947V66.3879C193.78 57.4175 188.995 49.1286 181.226 44.6434L109.728 3.36389C101.959 -1.12129 92.3881 -1.1213 84.6195 3.36389L13.1213 44.6434C12.6352 44.924 12.1608 45.2196 11.6985 45.5293L57.5305 71.9904Z" fill="#F59E0B"/>
<path d="M46.4554 91.172L0.62347 64.7109C0.586389 65.2665 0.567627 65.8255 0.567627 66.3871V148.946C0.567627 157.916 5.35326 166.205 13.1218 170.691L84.62 211.97C92.3886 216.455 101.96 216.455 109.728 211.97L181.227 170.691C181.713 170.41 182.188 170.114 182.65 169.804L136.818 143.343L97.1742 166.232L46.4554 136.949V91.172Z" fill="#D97706"/>
</svg>
