<svg width="666" height="216" viewBox="0 0 666 216" fill="none" xmlns="http://www.w3.org/2000/svg">
<path d="M258.3 175.604H282.625V48.0285H258.3V175.604Z" fill="white"/>
<path d="M357.559 177.354C397.459 177.354 419.159 153.379 419.159 112.254V111.729C419.159 69.2035 395.184 46.4535 357.559 46.4535C319.934 46.4535 295.959 69.2035 295.959 111.729V112.254C295.959 153.379 317.659 177.354 357.559 177.354ZM357.559 156.179C334.809 156.179 321.509 143.054 321.509 121.529V102.279C321.509 81.9785 333.409 67.6285 357.559 67.6285C381.709 67.6285 393.609 81.9785 393.609 102.279V121.529C393.609 143.054 380.309 156.179 357.559 156.179Z" fill="white"/>
<path d="M432.637 175.604H483.387C519.962 175.604 544.462 155.829 544.462 112.429V111.204C544.462 70.7785 523.112 47.8535 483.387 47.8535H432.637V175.604ZM456.962 154.779V68.6785H483.387C507.362 68.6785 518.737 82.1535 518.737 102.279V121.179C518.737 142.529 506.137 154.779 483.387 154.779H456.962Z" fill="white"/>
<path d="M542.251 175.604H565.701L575.326 147.779H630.276L639.901 175.604H664.051L619.951 48.0285H586.176L542.251 175.604ZM581.101 129.229L602.276 67.1035H603.326L610.851 88.9785L624.501 129.229H581.101Z" fill="white"/>
<path d="M57.6359 72.3243L97.2792 49.4363L147.998 78.7188V124.495L193.83 150.956C193.867 150.401 193.886 149.842 193.886 149.281V66.7219C193.886 57.7515 189.1 49.4625 181.332 44.9774L109.833 3.69787C102.065 -0.787311 92.4935 -0.787312 84.725 3.69787L13.2268 44.9774C12.7407 45.258 12.2663 45.5536 11.804 45.8632L57.6359 72.3243Z" fill="#F59E0B"/>
<path d="M46.5608 91.506L0.728938 65.0449C0.691857 65.6005 0.673096 66.1595 0.673096 66.7211V149.28C0.673096 158.25 5.45873 166.539 13.2273 171.025L84.7255 212.304C92.494 216.789 102.065 216.789 109.834 212.304L181.332 171.025C181.818 170.744 182.293 170.448 182.756 170.138L136.924 143.677L97.2797 166.566L46.5608 137.283V91.506Z" fill="#D97706"/>
</svg>
