<svg width="1177" height="216" viewBox="0 0 1177 216" fill="none" xmlns="http://www.w3.org/2000/svg">
<path d="M258.613 175.27H282.938V47.6945H258.613V175.27Z" fill="#374151"/>
<path d="M357.872 177.02C397.772 177.02 419.472 153.045 419.472 111.92V111.395C419.472 68.8695 395.497 46.1195 357.872 46.1195C320.247 46.1195 296.272 68.8695 296.272 111.395V111.92C296.272 153.045 317.972 177.02 357.872 177.02ZM357.872 155.845C335.122 155.845 321.822 142.72 321.822 121.195V101.945C321.822 81.6445 333.722 67.2945 357.872 67.2945C382.022 67.2945 393.922 81.6445 393.922 101.945V121.195C393.922 142.72 380.622 155.845 357.872 155.845Z" fill="#374151"/>
<path d="M432.95 175.27H483.7C520.275 175.27 544.775 155.495 544.775 112.095V110.87C544.775 70.4445 523.425 47.5195 483.7 47.5195H432.95V175.27ZM457.275 154.445V68.3445H483.7C507.675 68.3445 519.05 81.8195 519.05 101.945V120.845C519.05 142.195 506.45 154.445 483.7 154.445H457.275Z" fill="#374151"/>
<path d="M542.564 175.27H566.014L575.639 147.445H630.589L640.214 175.27H664.364L620.264 47.6945H586.489L542.564 175.27ZM581.414 128.895L602.589 66.7695H603.639L611.164 88.6445L624.814 128.895H581.414Z" fill="#374151"/>
<path fill-rule="evenodd" clip-rule="evenodd" d="M705.954 201.974L705.954 20.4521H709.954L709.954 201.974H705.954Z" fill="#374151"/>
<path d="M57.9494 71.9904L97.5926 49.1023L148.311 78.3848V124.161L194.143 150.622C194.18 150.067 194.199 149.508 194.199 148.947V66.3879C194.199 57.4175 189.414 49.1286 181.645 44.6434L110.147 3.36389C102.378 -1.12129 92.807 -1.1213 85.0384 3.36389L13.5403 44.6434C13.0542 44.924 12.5797 45.2196 12.1174 45.5293L57.9494 71.9904Z" fill="#F59E0B"/>
<path d="M46.8743 91.172L1.04241 64.7109C1.00533 65.2665 0.986572 65.8255 0.986572 66.3871V148.946C0.986572 157.916 5.7722 166.205 13.5408 170.691L85.0389 211.97C92.8075 216.455 102.379 216.455 110.147 211.97L181.645 170.691C182.132 170.41 182.607 170.114 183.069 169.804L137.237 143.343L97.5931 166.232L46.8743 136.949V91.172Z" fill="#D97706"/>
<path d="M961.321 120.854H998.491C998.585 120.841 998.68 120.849 998.769 120.878C998.858 120.908 998.94 120.957 999.007 121.023C999.074 121.089 999.126 121.17 999.157 121.259C999.188 121.347 999.198 121.442 999.187 121.536V132.594C999.2 132.688 999.192 132.785 999.162 132.875C999.132 132.966 999.081 133.048 999.013 133.116C998.946 133.184 998.863 133.234 998.773 133.264C998.682 133.295 998.586 133.303 998.491 133.289H992.546C992.452 133.303 992.355 133.295 992.265 133.264C992.174 133.234 992.092 133.184 992.024 133.116C991.957 133.048 991.906 132.966 991.876 132.875C991.846 132.785 991.837 132.688 991.851 132.594V128.503C991.857 128.448 991.851 128.392 991.833 128.339C991.815 128.287 991.785 128.239 991.746 128.2C991.706 128.16 991.658 128.13 991.606 128.112C991.553 128.094 991.497 128.088 991.442 128.094H984.392C984.337 128.088 984.281 128.094 984.228 128.112C984.176 128.13 984.128 128.16 984.089 128.2C984.049 128.239 984.019 128.287 984.001 128.339C983.983 128.392 983.977 128.448 983.983 128.503V160.642C983.977 160.697 983.983 160.753 984.001 160.806C984.019 160.858 984.049 160.906 984.089 160.946C984.128 160.985 984.176 161.015 984.228 161.033C984.281 161.051 984.337 161.057 984.392 161.051H987.992C988.086 161.04 988.18 161.05 988.269 161.081C988.358 161.112 988.439 161.163 988.505 161.23C988.57 161.298 988.62 161.379 988.649 161.469C988.679 161.558 988.687 161.653 988.674 161.746V167.2C988.687 167.294 988.679 167.389 988.649 167.478C988.62 167.568 988.57 167.649 988.505 167.716C988.439 167.784 988.358 167.835 988.269 167.866C988.18 167.897 988.086 167.907 987.992 167.896H971.807C971.713 167.91 971.617 167.902 971.527 167.872C971.436 167.842 971.355 167.791 971.288 167.723C971.221 167.655 971.172 167.572 971.144 167.481C971.115 167.39 971.109 167.294 971.125 167.2V161.746C971.109 161.653 971.115 161.556 971.144 161.466C971.172 161.375 971.221 161.292 971.288 161.224C971.355 161.156 971.436 161.105 971.527 161.075C971.617 161.045 971.713 161.037 971.807 161.051H975.407C975.462 161.057 975.518 161.051 975.571 161.033C975.623 161.015 975.671 160.985 975.71 160.946C975.75 160.906 975.78 160.858 975.798 160.806C975.816 160.753 975.822 160.697 975.816 160.642V128.449C975.822 128.394 975.816 128.337 975.798 128.285C975.78 128.232 975.75 128.184 975.71 128.145C975.671 128.106 975.623 128.076 975.571 128.057C975.518 128.039 975.462 128.033 975.407 128.04H968.357C968.301 128.031 968.243 128.035 968.189 128.052C968.134 128.07 968.085 128.099 968.044 128.139C968.003 128.179 967.972 128.227 967.953 128.281C967.934 128.335 967.927 128.392 967.935 128.449V132.539C967.951 132.633 967.944 132.729 967.916 132.82C967.888 132.911 967.838 132.994 967.772 133.062C967.705 133.13 967.623 133.181 967.533 133.211C967.443 133.241 967.347 133.249 967.253 133.235H961.308C961.213 133.249 961.117 133.24 961.026 133.21C960.936 133.18 960.853 133.129 960.786 133.061C960.718 132.994 960.667 132.912 960.637 132.821C960.607 132.73 960.599 132.634 960.612 132.539V121.536C960.6 121.441 960.611 121.345 960.643 121.255C960.675 121.165 960.727 121.083 960.796 121.017C960.865 120.951 960.948 120.902 961.039 120.873C961.131 120.845 961.227 120.838 961.321 120.854Z" fill="#374151"/>
<path d="M1010.7 133.767C1013.78 133.671 1016.82 134.528 1019.39 136.221C1021.77 137.835 1023.53 140.211 1024.37 142.957C1025.23 146.225 1025.6 149.602 1025.48 152.979C1025.48 153.429 1025.22 153.661 1024.71 153.661H1004.26C1004.2 153.651 1004.14 153.656 1004.09 153.673C1004.03 153.691 1003.98 153.722 1003.94 153.764C1003.9 153.805 1003.87 153.855 1003.85 153.911C1003.83 153.967 1003.83 154.026 1003.84 154.083C1003.85 154.956 1004.01 155.819 1004.33 156.633C1005.47 159.996 1007.96 161.678 1011.79 161.678C1013.23 161.736 1014.67 161.483 1016 160.934C1017.34 160.386 1018.54 159.556 1019.53 158.501C1019.9 158.133 1020.25 158.092 1020.57 158.365L1024.66 161.951C1024.73 162.004 1024.8 162.074 1024.84 162.155C1024.89 162.236 1024.91 162.326 1024.92 162.419C1024.93 162.511 1024.91 162.604 1024.88 162.691C1024.85 162.777 1024.79 162.855 1024.73 162.919C1021.51 166.7 1016.96 168.591 1011.09 168.591C1007.95 168.695 1004.85 167.838 1002.21 166.137C999.807 164.512 998.038 162.102 997.21 159.319C996.392 156.671 995.996 153.91 996.037 151.138C995.986 148.371 996.358 145.612 997.142 142.957C997.958 140.167 999.729 137.754 1002.15 136.139C1004.7 134.514 1007.67 133.687 1010.7 133.767ZM1010.7 140.325C1007.29 140.325 1005.1 141.757 1004.14 144.62C1003.84 145.531 1003.7 146.485 1003.71 147.443C1003.7 147.5 1003.71 147.56 1003.73 147.615C1003.74 147.671 1003.78 147.721 1003.82 147.762C1003.86 147.804 1003.91 147.835 1003.96 147.853C1004.02 147.87 1004.08 147.875 1004.14 147.866H1017.19C1017.24 147.872 1017.3 147.866 1017.35 147.847C1017.41 147.828 1017.46 147.797 1017.5 147.756C1017.54 147.716 1017.57 147.666 1017.59 147.612C1017.61 147.558 1017.61 147.5 1017.61 147.443C1017.62 146.485 1017.48 145.533 1017.19 144.62C1016.76 143.33 1015.91 142.22 1014.77 141.471C1013.58 140.702 1012.18 140.304 1010.76 140.325H1010.7Z" fill="#374151"/>
<path d="M1044.96 133.766C1048.95 133.621 1052.91 134.534 1056.43 136.412C1056.6 136.487 1056.75 136.613 1056.85 136.774C1056.95 136.935 1057 137.122 1056.99 137.312V144.906C1057 145 1056.99 145.097 1056.96 145.187C1056.93 145.277 1056.88 145.359 1056.81 145.425C1056.75 145.492 1056.66 145.542 1056.57 145.57C1056.48 145.598 1056.39 145.604 1056.29 145.588H1050.42C1050.32 145.602 1050.23 145.594 1050.14 145.564C1050.05 145.535 1049.97 145.485 1049.9 145.419C1049.84 145.353 1049.79 145.272 1049.76 145.183C1049.73 145.094 1049.72 144.999 1049.73 144.906V141.866C1049.73 141.675 1049.61 141.525 1049.38 141.375C1048.04 140.846 1046.6 140.613 1045.17 140.693C1041.57 140.693 1039.3 142.143 1038.35 145.043C1037.81 147.046 1037.57 149.119 1037.65 151.192C1037.57 153.288 1037.8 155.384 1038.35 157.41C1039.32 160.264 1041.59 161.692 1045.17 161.692C1046.6 161.788 1048.04 161.574 1049.38 161.064C1049.48 161.037 1049.58 160.974 1049.64 160.888C1049.7 160.801 1049.74 160.695 1049.73 160.587V157.465C1049.72 157.371 1049.73 157.276 1049.76 157.187C1049.79 157.097 1049.84 157.016 1049.9 156.949C1049.97 156.881 1050.05 156.83 1050.14 156.799C1050.23 156.768 1050.32 156.758 1050.42 156.769H1056.35C1056.44 156.755 1056.54 156.764 1056.63 156.794C1056.72 156.824 1056.8 156.875 1056.87 156.943C1056.94 157.01 1056.99 157.092 1057.02 157.183C1057.05 157.274 1057.06 157.37 1057.04 157.465V165.128C1057.05 165.317 1057 165.504 1056.9 165.665C1056.8 165.826 1056.66 165.953 1056.48 166.028C1052.92 167.798 1048.99 168.678 1045.02 168.591C1037.52 168.591 1032.74 165.591 1030.86 159.605C1030.08 156.867 1029.73 154.024 1029.83 151.179C1029.74 148.414 1030.09 145.654 1030.86 142.997C1031.7 140.183 1033.53 137.764 1036 136.18C1038.69 134.521 1041.8 133.683 1044.96 133.766Z" fill="#374151"/>
<path d="M1061.99 120.854H1072.42C1072.52 120.841 1072.61 120.849 1072.7 120.878C1072.79 120.908 1072.87 120.957 1072.94 121.023C1073.01 121.089 1073.06 121.17 1073.09 121.258C1073.12 121.347 1073.13 121.442 1073.12 121.536V137.639H1073.19C1075 135.057 1077.88 133.766 1081.82 133.766C1083.37 133.705 1084.92 133.981 1086.36 134.577C1087.79 135.172 1089.08 136.073 1090.14 137.216C1092.29 139.673 1093.42 142.867 1093.29 146.134V160.642C1093.28 160.697 1093.28 160.753 1093.3 160.806C1093.32 160.858 1093.35 160.906 1093.39 160.946C1093.43 160.985 1093.48 161.015 1093.53 161.033C1093.58 161.051 1093.64 161.057 1093.69 161.051H1096.53C1096.63 161.037 1096.72 161.046 1096.81 161.076C1096.9 161.106 1096.99 161.157 1097.05 161.224C1097.12 161.292 1097.17 161.374 1097.2 161.465C1097.23 161.555 1097.24 161.652 1097.23 161.746V167.2C1097.24 167.295 1097.23 167.391 1097.2 167.482C1097.17 167.572 1097.12 167.655 1097.05 167.722C1096.99 167.79 1096.9 167.841 1096.81 167.871C1096.72 167.901 1096.63 167.909 1096.53 167.896H1082.16C1082.06 167.91 1081.97 167.902 1081.88 167.872C1081.79 167.842 1081.71 167.791 1081.64 167.723C1081.57 167.655 1081.52 167.572 1081.5 167.481C1081.47 167.39 1081.46 167.294 1081.48 167.2V161.746C1081.46 161.652 1081.47 161.556 1081.5 161.465C1081.52 161.375 1081.57 161.292 1081.64 161.224C1081.71 161.156 1081.79 161.105 1081.88 161.075C1081.97 161.045 1082.06 161.036 1082.16 161.051H1085.13C1085.19 161.06 1085.25 161.055 1085.3 161.038C1085.35 161.021 1085.4 160.991 1085.44 160.952C1085.49 160.912 1085.52 160.863 1085.54 160.81C1085.55 160.756 1085.56 160.698 1085.55 160.642V147.934C1085.65 146.038 1085.09 144.168 1083.96 142.643C1083.36 142.023 1082.65 141.529 1081.85 141.192C1081.06 140.855 1080.21 140.681 1079.35 140.681C1078.49 140.681 1077.64 140.855 1076.85 141.192C1076.05 141.529 1075.34 142.023 1074.74 142.643C1073.59 144.158 1073.01 146.033 1073.12 147.934V160.642C1073.11 160.697 1073.12 160.753 1073.14 160.806C1073.15 160.858 1073.18 160.906 1073.22 160.946C1073.26 160.985 1073.31 161.015 1073.36 161.033C1073.42 161.051 1073.47 161.057 1073.53 161.051H1076.5C1076.59 161.036 1076.69 161.045 1076.78 161.075C1076.87 161.105 1076.95 161.156 1077.02 161.224C1077.09 161.292 1077.14 161.375 1077.16 161.465C1077.19 161.556 1077.2 161.652 1077.18 161.746V167.2C1077.2 167.294 1077.19 167.39 1077.16 167.481C1077.14 167.572 1077.09 167.655 1077.02 167.723C1076.95 167.791 1076.87 167.842 1076.78 167.872C1076.69 167.902 1076.59 167.91 1076.5 167.896H1061.99C1061.9 167.909 1061.8 167.901 1061.71 167.871C1061.62 167.841 1061.54 167.79 1061.47 167.722C1061.4 167.655 1061.35 167.572 1061.32 167.482C1061.29 167.391 1061.28 167.295 1061.3 167.2V161.746C1061.28 161.652 1061.29 161.555 1061.32 161.465C1061.35 161.374 1061.4 161.292 1061.47 161.224C1061.54 161.157 1061.62 161.106 1061.71 161.076C1061.8 161.046 1061.9 161.037 1061.99 161.051H1064.96C1065.02 161.057 1065.08 161.051 1065.13 161.033C1065.18 161.015 1065.23 160.985 1065.27 160.946C1065.31 160.906 1065.34 160.858 1065.36 160.806C1065.37 160.753 1065.38 160.697 1065.37 160.642V128.04C1065.37 127.753 1065.24 127.617 1064.96 127.617H1061.99C1061.9 127.63 1061.8 127.622 1061.71 127.592C1061.63 127.563 1061.54 127.513 1061.48 127.448C1061.41 127.382 1061.36 127.301 1061.33 127.212C1061.3 127.123 1061.29 127.029 1061.3 126.935V121.481C1061.29 121.392 1061.31 121.303 1061.35 121.221C1061.38 121.139 1061.43 121.066 1061.5 121.006C1061.57 120.947 1061.64 120.902 1061.73 120.876C1061.81 120.849 1061.9 120.842 1061.99 120.854Z" fill="#374151"/>
<path d="M1105.83 161.051C1105.15 161.04 1104.49 161.231 1103.92 161.6C1103.35 161.968 1102.91 162.498 1102.64 163.12C1102.37 163.743 1102.3 164.431 1102.43 165.096C1102.55 165.761 1102.87 166.374 1103.35 166.855C1103.83 167.337 1104.43 167.666 1105.1 167.8C1105.76 167.935 1106.45 167.869 1107.08 167.61C1107.7 167.352 1108.24 166.913 1108.61 166.349C1108.99 165.786 1109.19 165.123 1109.18 164.446C1109.19 164.002 1109.1 163.561 1108.93 163.149C1108.77 162.737 1108.52 162.363 1108.21 162.047C1107.89 161.732 1107.52 161.481 1107.11 161.31C1106.7 161.139 1106.26 161.051 1105.82 161.051H1105.83ZM1105.83 167.323C1105.1 167.273 1104.42 166.949 1103.92 166.416C1103.43 165.884 1103.15 165.182 1103.15 164.453C1103.15 163.724 1103.43 163.023 1103.92 162.49C1104.42 161.957 1105.1 161.633 1105.83 161.583C1106.56 161.633 1107.24 161.957 1107.73 162.49C1108.23 163.023 1108.51 163.724 1108.51 164.453C1108.51 165.182 1108.23 165.884 1107.73 166.416C1107.24 166.949 1106.56 167.273 1105.83 167.323Z" fill="#374151"/>
<path d="M1106.43 164.569C1106.64 164.523 1106.83 164.405 1106.97 164.237C1107.1 164.068 1107.18 163.859 1107.18 163.642C1107.19 163.493 1107.16 163.344 1107.1 163.208C1107.04 163.072 1106.94 162.954 1106.82 162.865C1106.47 162.649 1106.06 162.549 1105.65 162.578C1105.29 162.577 1104.93 162.609 1104.57 162.674V166.41H1105.19V164.774H1105.61C1105.71 164.76 1105.81 164.767 1105.9 164.794C1106 164.821 1106.08 164.868 1106.16 164.931C1106.24 164.993 1106.3 165.071 1106.34 165.159C1106.39 165.247 1106.41 165.343 1106.42 165.442C1106.44 165.778 1106.53 166.106 1106.67 166.41H1107.32C1107.18 166.113 1107.09 165.795 1107.07 165.469C1106.99 164.937 1106.8 164.624 1106.43 164.569ZM1105.62 164.324H1105.19V163.042H1105.62C1106.29 163.042 1106.54 163.369 1106.54 163.71C1106.54 164.051 1106.12 164.324 1105.62 164.324Z" fill="#374151"/>
<path d="M971.302 59.8764C974.08 59.8623 976.842 60.295 979.483 61.1582C981.762 61.8309 983.888 62.9426 985.742 64.4306C985.888 64.5463 986.007 64.6933 986.09 64.8607C986.172 65.0282 986.216 65.212 986.219 65.3988V73.689C986.233 73.7835 986.224 73.88 986.194 73.9706C986.164 74.0612 986.113 74.1436 986.046 74.2111C985.978 74.2786 985.896 74.3295 985.805 74.3596C985.714 74.3896 985.618 74.3982 985.523 74.3844H979.306C979.212 74.3958 979.117 74.3856 979.029 74.3545C978.94 74.3233 978.859 74.2722 978.793 74.2049C978.727 74.1377 978.678 74.0562 978.648 73.9667C978.619 73.8773 978.611 73.7823 978.624 73.689V69.5984C978.627 69.4906 978.603 69.3837 978.552 69.2882C978.502 69.1926 978.428 69.1116 978.338 69.053C976.157 67.728 973.633 67.0781 971.084 67.185C966.02 67.185 962.775 69.2803 961.348 73.4709C960.472 76.9911 960.1 80.618 960.244 84.2428C960.081 87.8165 960.384 91.3962 961.143 94.892C961.711 96.7361 962.865 98.3447 964.43 99.4735C966.327 100.621 968.529 101.164 970.743 101.028C973.405 101.205 976.065 100.633 978.419 99.378C978.623 99.2736 978.794 99.1155 978.914 98.9208C979.034 98.7262 979.099 98.5023 979.101 98.2736V89.097C979.108 89.0417 979.102 88.9856 979.083 88.933C979.065 88.8804 979.035 88.8326 978.996 88.7932C978.957 88.7538 978.909 88.7239 978.856 88.7056C978.804 88.6874 978.747 88.6813 978.692 88.6879H971.234C971.139 88.7016 971.043 88.6931 970.952 88.663C970.861 88.6329 970.779 88.5821 970.712 88.5146C970.644 88.447 970.593 88.3647 970.563 88.2741C970.533 88.1834 970.524 88.087 970.538 87.9925V82.4702C970.524 82.3757 970.533 82.2793 970.563 82.1887C970.593 82.098 970.644 82.0157 970.712 81.9481C970.779 81.8806 970.861 81.8298 970.952 81.7997C971.043 81.7696 971.139 81.7611 971.234 81.7748H986.232C986.327 81.7611 986.423 81.7696 986.514 81.7997C986.605 81.8298 986.687 81.8806 986.755 81.9481C986.822 82.0157 986.873 82.098 986.903 82.1887C986.933 82.2793 986.942 82.3757 986.928 82.4702V102.323C986.933 102.653 986.853 102.978 986.695 103.267C986.537 103.556 986.308 103.799 986.028 103.973C981.471 107.056 976.05 108.608 970.552 108.405C961.289 108.405 955.462 104.741 953.071 97.4145C952.29 95.0693 951.899 90.6923 951.899 84.2837C951.899 78.2569 952.335 73.9208 953.262 71.3029C955.698 63.6762 961.712 59.8673 971.302 59.8764Z" fill="#374151"/>
<path d="M1007.75 73.5526C1010.84 73.4601 1013.88 74.3168 1016.46 76.007C1018.84 77.6189 1020.59 79.9962 1021.43 82.7429C1022.29 86.015 1022.66 89.3971 1022.53 92.7785C1022.53 93.2421 1022.29 93.4739 1021.78 93.4739H1001.26C1001.2 93.4673 1001.15 93.4734 1001.1 93.4916C1001.04 93.5098 1000.99 93.5398 1000.96 93.5791C1000.92 93.6185 1000.89 93.6663 1000.87 93.7189C1000.85 93.7716 1000.84 93.8276 1000.85 93.8829C1000.85 94.7592 1001.02 95.6277 1001.33 96.4464C1002.47 99.8143 1004.97 101.491 1008.79 101.491C1010.25 101.548 1011.7 101.285 1013.05 100.722C1014.4 100.16 1015.61 99.31 1016.6 98.2326C1016.97 97.8645 1017.31 97.8099 1017.64 98.0963L1021.73 101.682C1021.8 101.737 1021.86 101.808 1021.9 101.889C1021.95 101.97 1021.98 102.059 1021.98 102.151C1021.99 102.243 1021.97 102.335 1021.94 102.421C1021.91 102.507 1021.86 102.586 1021.79 102.65C1018.56 106.423 1014.01 108.314 1008.16 108.323C1005.02 108.424 1001.92 107.568 999.269 105.868C996.866 104.239 995.098 101.831 994.264 99.0507C993.453 96.4006 993.058 93.6408 993.092 90.8695C993.041 88.1021 993.413 85.3431 994.196 82.6883C995.018 79.9014 996.788 77.4896 999.2 75.8706C1001.76 74.2665 1004.73 73.4596 1007.75 73.5526ZM1007.75 80.1112C1004.34 80.1112 1002.15 81.5384 1001.19 84.3927C1000.91 85.3105 1000.77 86.2678 1000.78 87.2289C1000.77 87.2852 1000.78 87.3429 1000.79 87.3973C1000.81 87.4516 1000.84 87.5013 1000.88 87.5423C1000.92 87.5833 1000.97 87.6145 1001.02 87.6334C1001.08 87.6524 1001.13 87.6586 1001.19 87.6516H1014.25C1014.31 87.6586 1014.37 87.6524 1014.42 87.6334C1014.48 87.6145 1014.52 87.5833 1014.56 87.5423C1014.6 87.5013 1014.63 87.4516 1014.65 87.3973C1014.67 87.3429 1014.67 87.2852 1014.66 87.2289C1014.68 86.2678 1014.54 85.3105 1014.25 84.3927C1013.82 83.104 1012.97 81.9991 1011.83 81.2566C1010.63 80.487 1009.24 80.0885 1007.82 80.1112H1007.75Z" fill="#374151"/>
<path d="M1042.71 73.5527C1045.78 73.471 1048.8 74.3117 1051.38 75.9661C1053.8 77.5851 1055.57 79.9969 1056.39 82.7838C1057.18 85.437 1057.55 88.1971 1057.49 90.965C1057.55 93.7328 1057.18 96.4926 1056.39 99.1462C1055.57 101.934 1053.8 104.347 1051.38 105.964C1048.76 107.552 1045.75 108.391 1042.68 108.391C1039.61 108.391 1036.6 107.552 1033.97 105.964C1031.55 104.351 1029.78 101.937 1028.97 99.1462C1028.18 96.4926 1027.81 93.7328 1027.86 90.965C1027.8 88.1971 1028.18 85.437 1028.97 82.7838C1029.78 79.9943 1031.55 77.5809 1033.97 75.9661C1036.58 74.3032 1039.62 73.4623 1042.71 73.5527ZM1042.71 80.5067C1041.32 80.3714 1039.92 80.7341 1038.77 81.5304C1037.62 82.3268 1036.79 83.5052 1036.42 84.8564C1035.9 86.8615 1035.66 88.9332 1035.73 91.0059C1035.66 93.0789 1035.89 95.1513 1036.42 97.1555C1036.9 98.4321 1037.75 99.5332 1038.87 100.311C1039.99 101.088 1041.32 101.505 1042.68 101.505C1044.04 101.505 1045.37 101.088 1046.48 100.311C1047.6 99.5332 1048.46 98.4321 1048.93 97.1555C1049.46 95.1513 1049.7 93.0789 1049.62 91.0059C1049.69 88.9332 1049.46 86.8615 1048.93 84.8564C1048.57 83.5149 1047.75 82.3428 1046.61 81.547C1045.48 80.7512 1044.09 80.3827 1042.71 80.5067Z" fill="#374151"/>
<path d="M1081.79 73.8252C1082.88 73.8263 1083.97 73.9452 1085.04 74.1798C1085.49 74.2616 1085.72 74.4934 1085.72 74.8615V80.8747C1085.72 81.4747 1085.44 81.7065 1084.89 81.5701C1083.54 81.2802 1082.17 81.0933 1080.79 81.0111C1075.82 81.0111 1073.32 83.8745 1073.32 89.5741V100.482C1073.32 100.539 1073.32 100.596 1073.34 100.65C1073.36 100.704 1073.39 100.753 1073.43 100.792C1073.47 100.832 1073.52 100.862 1073.58 100.879C1073.63 100.896 1073.69 100.9 1073.75 100.891H1076.99C1077.09 100.878 1077.18 100.886 1077.27 100.916C1077.36 100.946 1077.45 100.997 1077.51 101.065C1077.58 101.132 1077.63 101.215 1077.66 101.305C1077.69 101.396 1077.7 101.492 1077.69 101.587V106.973C1077.7 107.067 1077.69 107.164 1077.66 107.254C1077.63 107.345 1077.58 107.427 1077.51 107.495C1077.45 107.562 1077.36 107.613 1077.27 107.643C1077.18 107.673 1077.09 107.682 1076.99 107.668H1062.24C1062.14 107.682 1062.05 107.673 1061.96 107.643C1061.87 107.613 1061.78 107.562 1061.72 107.495C1061.65 107.427 1061.6 107.345 1061.57 107.254C1061.54 107.164 1061.53 107.067 1061.54 106.973V101.532C1061.53 101.438 1061.54 101.341 1061.57 101.251C1061.6 101.16 1061.65 101.078 1061.72 101.01C1061.78 100.943 1061.87 100.892 1061.96 100.862C1062.05 100.832 1062.14 100.823 1062.24 100.837H1065.21C1065.26 100.843 1065.32 100.837 1065.37 100.819C1065.43 100.801 1065.47 100.771 1065.51 100.732C1065.55 100.692 1065.58 100.644 1065.6 100.592C1065.62 100.539 1065.63 100.483 1065.62 100.428V81.5019C1065.62 81.2156 1065.48 81.0793 1065.21 81.0793H1062.24C1062.14 81.0925 1062.05 81.0841 1061.96 81.0548C1061.87 81.0254 1061.79 80.9758 1061.72 80.9099C1061.65 80.844 1061.6 80.7635 1061.57 80.6746C1061.54 80.5858 1061.53 80.4909 1061.54 80.3975V75.0524C1061.53 74.959 1061.54 74.8641 1061.57 74.7753C1061.6 74.6864 1061.65 74.6059 1061.72 74.54C1061.79 74.4741 1061.87 74.4245 1061.96 74.3952C1062.05 74.3658 1062.14 74.3574 1062.24 74.3707H1072.71C1072.8 74.3569 1072.9 74.365 1072.99 74.3943C1073.07 74.4237 1073.16 74.4736 1073.22 74.5398C1073.29 74.6061 1073.34 74.687 1073.37 74.776C1073.4 74.865 1073.4 74.9597 1073.39 75.0524V78.4613C1074.23 76.9909 1075.46 75.7802 1076.94 74.9623C1078.42 74.1444 1080.1 73.751 1081.79 73.8252Z" fill="#374151"/>
<path d="M1101.04 73.594C1105.13 73.594 1108.02 74.9575 1109.67 77.5346H1109.74V75.053C1109.73 74.9585 1109.74 74.8621 1109.77 74.7714C1109.8 74.6808 1109.85 74.5984 1109.92 74.5309C1109.98 74.4634 1110.07 74.4126 1110.16 74.3825C1110.25 74.3524 1110.34 74.3439 1110.44 74.3576H1120.87C1120.96 74.3439 1121.06 74.3524 1121.15 74.3825C1121.24 74.4126 1121.32 74.4634 1121.39 74.5309C1121.46 74.5984 1121.51 74.6808 1121.54 74.7714C1121.57 74.8621 1121.58 74.9585 1121.56 75.053V80.5071C1121.58 80.6012 1121.57 80.6973 1121.54 80.7875C1121.51 80.8777 1121.46 80.9595 1121.39 81.0261C1121.32 81.0927 1121.24 81.1422 1121.15 81.1705C1121.06 81.1988 1120.96 81.2051 1120.87 81.1889H1117.9C1117.84 81.1818 1117.78 81.1881 1117.73 81.207C1117.67 81.226 1117.63 81.2572 1117.59 81.2982C1117.55 81.3392 1117.52 81.3888 1117.5 81.4432C1117.48 81.4976 1117.48 81.5552 1117.49 81.6116V105.583C1117.49 110.419 1116.16 114.173 1113.51 116.845C1110.85 119.518 1107 120.854 1101.94 120.854C1099.6 120.843 1097.29 120.38 1095.12 119.491C1093.11 118.743 1091.31 117.495 1089.9 115.864C1089.84 115.799 1089.79 115.72 1089.75 115.634C1089.72 115.548 1089.71 115.456 1089.72 115.364C1089.72 115.272 1089.75 115.183 1089.79 115.102C1089.84 115.021 1089.9 114.951 1089.97 114.895L1094.06 110.805C1094.12 110.72 1094.2 110.651 1094.29 110.604C1094.38 110.556 1094.48 110.531 1094.58 110.531C1094.68 110.531 1094.78 110.556 1094.87 110.604C1094.96 110.651 1095.04 110.72 1095.1 110.805C1096.04 111.777 1097.17 112.552 1098.41 113.085C1099.66 113.619 1101 113.9 1102.35 113.914C1107.32 113.914 1109.81 111.264 1109.81 105.964V102.883H1109.74C1108.09 105.473 1105.2 106.755 1101.11 106.755C1098.58 106.835 1096.09 106.109 1093.99 104.683C1091.97 103.188 1090.49 101.078 1089.78 98.6694C1088.97 95.9121 1088.6 93.0463 1088.68 90.1746C1088.61 87.3255 1088.98 84.4828 1089.78 81.7479C1091.48 76.3211 1095.23 73.6031 1101.04 73.594ZM1103.05 80.5071C1101.73 80.4106 1100.42 80.7794 1099.35 81.5493C1098.27 82.3192 1097.5 83.4414 1097.17 84.7204C1096.62 86.4847 1096.36 88.3271 1096.41 90.1746C1096.35 92.0229 1096.61 93.8678 1097.17 95.6287C1097.57 96.8775 1098.36 97.9663 1099.42 98.7386C1100.48 99.5109 1101.76 99.927 1103.07 99.927C1104.39 99.927 1105.67 99.5109 1106.73 98.7386C1107.79 97.9663 1108.58 96.8775 1108.98 95.6287C1109.55 93.8692 1109.81 92.0233 1109.74 90.1746C1109.79 88.3267 1109.54 86.4832 1108.98 84.7204C1108.64 83.4343 1107.86 82.3077 1106.78 81.5376C1105.69 80.7674 1104.37 80.4027 1103.05 80.5071Z" fill="#374151"/>
<path d="M1125.98 74.3166H1136.41C1136.51 74.3033 1136.6 74.3117 1136.69 74.3411C1136.78 74.3704 1136.86 74.42 1136.93 74.4859C1137 74.5518 1137.05 74.6323 1137.08 74.7212C1137.11 74.81 1137.12 74.9049 1137.11 74.9983V100.428C1137.1 100.484 1137.11 100.54 1137.13 100.592C1137.14 100.645 1137.17 100.693 1137.21 100.732C1137.25 100.771 1137.3 100.801 1137.35 100.82C1137.41 100.838 1137.46 100.844 1137.52 100.837H1140.49C1140.58 100.824 1140.68 100.832 1140.77 100.862C1140.86 100.892 1140.94 100.943 1141.01 101.011C1141.08 101.078 1141.13 101.161 1141.16 101.251C1141.19 101.342 1141.2 101.438 1141.19 101.533V106.919C1141.2 107.013 1141.19 107.11 1141.16 107.2C1141.13 107.291 1141.08 107.373 1141.01 107.441C1140.94 107.508 1140.86 107.559 1140.77 107.589C1140.68 107.619 1140.58 107.628 1140.49 107.614H1125.98C1125.89 107.628 1125.79 107.619 1125.7 107.589C1125.61 107.559 1125.53 107.508 1125.46 107.441C1125.39 107.373 1125.34 107.291 1125.31 107.2C1125.28 107.11 1125.27 107.013 1125.29 106.919V101.533C1125.27 101.438 1125.28 101.342 1125.31 101.251C1125.34 101.161 1125.39 101.078 1125.46 101.011C1125.53 100.943 1125.61 100.892 1125.7 100.862C1125.79 100.832 1125.89 100.824 1125.98 100.837H1128.95C1129.01 100.844 1129.07 100.838 1129.12 100.82C1129.17 100.801 1129.22 100.771 1129.26 100.732C1129.3 100.693 1129.33 100.645 1129.35 100.592C1129.36 100.54 1129.37 100.484 1129.36 100.428V81.5024C1129.36 81.216 1129.23 81.0797 1128.95 81.0797H1125.98C1125.89 81.0929 1125.79 81.0845 1125.7 81.0552C1125.61 81.0258 1125.53 80.9763 1125.47 80.9103C1125.4 80.8444 1125.35 80.7639 1125.32 80.6751C1125.29 80.5862 1125.28 80.4914 1125.29 80.3979V75.0529C1125.27 74.9554 1125.27 74.8542 1125.3 74.7581C1125.32 74.662 1125.37 74.5738 1125.44 74.5013C1125.51 74.4288 1125.59 74.3741 1125.69 74.3419C1125.78 74.3097 1125.88 74.301 1125.98 74.3166ZM1130.07 60.6812H1136.43C1136.52 60.665 1136.62 60.6713 1136.71 60.6996C1136.8 60.7279 1136.88 60.7774 1136.95 60.844C1137.02 60.9106 1137.07 60.9923 1137.1 61.0826C1137.13 61.1728 1137.14 61.2689 1137.12 61.363V67.3762C1137.14 67.4707 1137.13 67.5671 1137.1 67.6577C1137.07 67.7483 1137.02 67.8307 1136.95 67.8982C1136.88 67.9657 1136.8 68.0166 1136.71 68.0467C1136.62 68.0768 1136.52 68.0853 1136.43 68.0716H1130.07C1129.98 68.0853 1129.88 68.0768 1129.79 68.0467C1129.7 68.0166 1129.62 67.9657 1129.55 67.8982C1129.48 67.8307 1129.43 67.7483 1129.4 67.6577C1129.37 67.5671 1129.36 67.4707 1129.38 67.3762V61.3221C1129.36 61.2294 1129.37 61.1347 1129.4 61.0457C1129.43 60.9567 1129.48 60.8758 1129.55 60.8095C1129.61 60.7432 1129.69 60.6934 1129.78 60.664C1129.87 60.6346 1129.97 60.6265 1130.06 60.6403L1130.07 60.6812Z" fill="#374151"/>
<path d="M1158.86 73.553C1163.87 73.553 1167.43 74.4621 1169.52 76.2801C1171.61 78.0982 1172.66 81.0661 1172.67 85.184V100.456C1172.66 100.511 1172.67 100.567 1172.69 100.62C1172.71 100.672 1172.74 100.72 1172.77 100.759C1172.81 100.799 1172.86 100.829 1172.91 100.847C1172.97 100.865 1173.02 100.871 1173.08 100.865H1176.05C1176.15 100.851 1176.24 100.859 1176.33 100.89C1176.42 100.92 1176.51 100.97 1176.57 101.038C1176.64 101.106 1176.69 101.188 1176.72 101.279C1176.75 101.369 1176.76 101.466 1176.75 101.56V106.946C1176.76 107.041 1176.75 107.137 1176.72 107.228C1176.69 107.318 1176.64 107.401 1176.57 107.468C1176.51 107.536 1176.42 107.586 1176.33 107.617C1176.24 107.647 1176.15 107.655 1176.05 107.641H1166.18C1166.08 107.655 1165.99 107.647 1165.9 107.617C1165.81 107.586 1165.72 107.536 1165.66 107.468C1165.59 107.401 1165.54 107.318 1165.51 107.228C1165.48 107.137 1165.47 107.041 1165.48 106.946V104.505H1165.43C1163.61 107.087 1160.52 108.378 1156.17 108.378C1153.28 108.484 1150.45 107.55 1148.19 105.746C1147.11 104.812 1146.26 103.641 1145.7 102.324C1145.14 101.007 1144.89 99.5793 1144.98 98.1512C1144.87 96.6371 1145.14 95.1207 1145.75 93.7301C1146.35 92.3394 1147.29 91.1153 1148.47 90.1609C1151.35 88.2285 1154.78 87.2944 1158.24 87.502H1164.88C1164.94 87.5086 1165 87.5025 1165.05 87.4843C1165.1 87.4661 1165.15 87.4361 1165.19 87.3968C1165.23 87.3574 1165.26 87.3096 1165.27 87.2569C1165.29 87.2043 1165.3 87.1483 1165.29 87.093V85.7294C1165.37 84.93 1165.27 84.1238 1165.02 83.3629C1164.76 82.6019 1164.35 81.9031 1163.81 81.3116C1162.81 80.4025 1161.02 79.948 1158.45 79.948C1157.24 79.9473 1156.04 80.0891 1154.86 80.3707C1154.63 80.3707 1154.52 80.5753 1154.52 80.848V83.8205C1154.53 83.915 1154.53 84.0114 1154.5 84.102C1154.47 84.1926 1154.41 84.275 1154.35 84.3425C1154.28 84.41 1154.2 84.4609 1154.11 84.491C1154.02 84.5211 1153.92 84.5296 1153.83 84.5159H1147.81C1147.72 84.5296 1147.62 84.5211 1147.53 84.491C1147.44 84.4609 1147.36 84.41 1147.29 84.3425C1147.22 84.275 1147.17 84.1926 1147.14 84.102C1147.11 84.0114 1147.1 83.915 1147.12 83.8205V76.7983C1147.11 76.6098 1147.16 76.4238 1147.26 76.2636C1147.36 76.1034 1147.5 75.9763 1147.68 75.8983C1151.18 74.2787 1155 73.4767 1158.86 73.553ZM1164.94 93.3107H1159.48C1154.74 93.3107 1152.37 94.8287 1152.37 97.8649C1152.37 100.674 1154.26 102.078 1158.04 102.078C1162.88 102.078 1165.3 100.192 1165.29 96.4195V93.6925C1165.29 93.6441 1165.29 93.5959 1165.27 93.5505C1165.25 93.5051 1165.23 93.4635 1165.19 93.4281C1165.16 93.3926 1165.12 93.364 1165.08 93.3438C1165.03 93.3237 1164.99 93.3124 1164.94 93.3107Z" fill="#374151"/>
<path d="M909.085 161.582C908.468 161.572 907.861 161.745 907.342 162.081C906.823 162.416 906.417 162.899 906.173 163.466C905.93 164.034 905.861 164.662 905.976 165.269C906.091 165.876 906.384 166.435 906.818 166.874C907.252 167.314 907.807 167.615 908.412 167.738C909.018 167.86 909.646 167.8 910.217 167.564C910.788 167.329 911.276 166.928 911.618 166.414C911.961 165.9 912.142 165.295 912.14 164.678C912.142 164.267 912.061 163.86 911.904 163.481C911.747 163.102 911.515 162.759 911.223 162.47C910.931 162.182 910.584 161.955 910.203 161.802C909.822 161.65 909.414 161.575 909.004 161.582H909.085ZM909.085 167.309C908.422 167.261 907.801 166.964 907.348 166.477C906.895 165.99 906.643 165.35 906.643 164.684C906.643 164.019 906.895 163.379 907.348 162.892C907.801 162.405 908.422 162.108 909.085 162.06C909.749 162.108 910.37 162.405 910.823 162.892C911.276 163.379 911.528 164.019 911.528 164.684C911.528 165.35 911.276 165.99 910.823 166.477C910.37 166.964 909.749 167.261 909.085 167.309Z" fill="#374151"/>
<path d="M909.562 164.787C909.756 164.746 909.929 164.639 910.054 164.485C910.178 164.331 910.245 164.139 910.244 163.941C910.254 163.806 910.231 163.671 910.177 163.547C910.122 163.423 910.037 163.315 909.93 163.232C909.605 163.04 909.23 162.949 908.853 162.973C908.524 162.975 908.196 163.002 907.871 163.055V166.505H908.431V165.046H908.812C908.902 165.032 908.993 165.038 909.08 165.062C909.168 165.087 909.249 165.129 909.318 165.187C909.388 165.245 909.444 165.317 909.484 165.399C909.524 165.48 909.546 165.569 909.549 165.659C909.573 165.962 909.651 166.257 909.78 166.532H910.367C910.251 166.263 910.177 165.978 910.149 165.687C910.08 165.114 909.862 164.841 909.562 164.787ZM908.826 164.568H908.431V163.396H908.826C909.44 163.396 909.658 163.696 909.658 164.009C909.658 164.323 909.276 164.568 908.826 164.568Z" fill="#374151"/>
<path d="M825.268 94.4283V121.413H839.776L841.303 113.231H847.821C845.435 125.721 833.136 134.271 817.537 134.271C816.473 134.271 815.396 134.271 814.319 134.148C806.282 133.692 798.536 130.979 791.97 126.321C788.971 124.214 786.524 121.414 784.837 118.16C783.149 114.906 782.271 111.293 782.276 107.627C782.298 103.692 783.161 99.8069 784.807 96.2324C786.453 92.6578 788.844 89.4765 791.82 86.9016C797.925 81.6229 805.653 78.5958 813.719 78.3249C814.237 78.3249 814.769 78.3249 815.301 78.3249C825.509 78.4982 835.36 82.1056 843.267 88.5651C843.662 88.8923 843.758 88.9605 843.853 89.0287C844.048 89.1673 844.235 89.3176 844.412 89.4787L844.63 89.6696H861.279V60.5445H844.412V68.8756C834.294 62.8151 822.704 59.6545 810.91 59.74H810.678C795.182 59.8215 780.352 66.0497 769.445 77.0569C760.718 85.9607 755.96 96.869 756.096 107.777C756.259 119.504 761.905 130.426 772.008 138.525C782.282 146.516 794.936 150.837 807.951 150.797C809.574 150.797 811.224 150.797 812.846 150.606C825.895 149.542 837.39 146.515 845.571 142.193V145.793H863.488V113.368H869.678V150.92H860.338V167.773H902.021V150.92H892.722V113.354H913.83L915.302 121.535H929.865V94.4283H825.268Z" fill="#374151"/>
</svg>
