<svg width="195" height="216" viewBox="0 0 195 216" fill="none" xmlns="http://www.w3.org/2000/svg">
<path d="M57.8625 71.9923L97.5057 49.1043L148.225 78.3868V124.163L194.057 150.624C194.094 150.069 194.112 149.51 194.112 148.949V66.3898C194.112 57.4195 189.327 49.1305 181.558 44.6453L110.06 3.36584C102.291 -1.11934 92.7201 -1.11934 84.9515 3.36584L13.4534 44.6453C12.9673 44.926 12.4928 45.2215 12.0305 45.5312L57.8625 71.9923Z" fill="white"/>
<path d="M46.7874 91.174L0.955501 64.7129C0.91842 65.2684 0.899658 65.8274 0.899658 66.3891V148.948C0.899658 157.918 5.68529 166.207 13.4539 170.693L84.952 211.972C92.7206 216.457 102.292 216.457 110.06 211.972L181.559 170.693C182.045 170.412 182.52 170.116 182.982 169.806L137.15 143.345L97.5062 166.234L46.7874 136.951V91.174Z" fill="white"/>
</svg>
