<svg width="666" height="216" viewBox="0 0 666 216" fill="none" xmlns="http://www.w3.org/2000/svg">
<path d="M258.3 175.27H282.625V47.6945H258.3V175.27Z" fill="#374151"/>
<path d="M357.559 177.02C397.459 177.02 419.159 153.045 419.159 111.92V111.395C419.159 68.8695 395.184 46.1195 357.559 46.1195C319.934 46.1195 295.959 68.8695 295.959 111.395V111.92C295.959 153.045 317.659 177.02 357.559 177.02ZM357.559 155.845C334.809 155.845 321.509 142.72 321.509 121.195V101.945C321.509 81.6445 333.409 67.2945 357.559 67.2945C381.709 67.2945 393.609 81.6445 393.609 101.945V121.195C393.609 142.72 380.309 155.845 357.559 155.845Z" fill="#374151"/>
<path d="M432.637 175.27H483.387C519.962 175.27 544.462 155.495 544.462 112.095V110.87C544.462 70.4445 523.112 47.5195 483.387 47.5195H432.637V175.27ZM456.962 154.445V68.3445H483.387C507.362 68.3445 518.737 81.8195 518.737 101.945V120.845C518.737 142.195 506.137 154.445 483.387 154.445H456.962Z" fill="#374151"/>
<path d="M542.251 175.27H565.701L575.326 147.445H630.276L639.901 175.27H664.051L619.951 47.6945H586.176L542.251 175.27ZM581.101 128.895L602.276 66.7695H603.326L610.851 88.6445L624.501 128.895H581.101Z" fill="#374151"/>
<path d="M57.6359 71.9904L97.2792 49.1023L147.998 78.3848V124.161L193.83 150.622C193.867 150.067 193.886 149.508 193.886 148.947V66.3879C193.886 57.4175 189.1 49.1286 181.332 44.6434L109.833 3.36389C102.065 -1.12129 92.4935 -1.1213 84.725 3.36389L13.2268 44.6434C12.7407 44.924 12.2663 45.2196 11.804 45.5293L57.6359 71.9904Z" fill="#F59E0B"/>
<path d="M46.5608 91.172L0.728938 64.7109C0.691857 65.2665 0.673096 65.8255 0.673096 66.3871V148.946C0.673096 157.916 5.45873 166.205 13.2273 170.691L84.7255 211.97C92.494 216.455 102.065 216.455 109.834 211.97L181.332 170.691C181.818 170.41 182.293 170.114 182.756 169.804L136.924 143.343L97.2797 166.232L46.5608 136.949V91.172Z" fill="#D97706"/>
</svg>
