<svg width="1177" height="216" viewBox="0 0 1177 216" fill="none" xmlns="http://www.w3.org/2000/svg">
<path d="M258.613 175.604H282.938V48.0285H258.613V175.604Z" fill="white"/>
<path d="M357.872 177.354C397.772 177.354 419.472 153.379 419.472 112.254V111.729C419.472 69.2035 395.497 46.4535 357.872 46.4535C320.247 46.4535 296.272 69.2035 296.272 111.729V112.254C296.272 153.379 317.972 177.354 357.872 177.354ZM357.872 156.179C335.122 156.179 321.822 143.054 321.822 121.529V102.279C321.822 81.9785 333.722 67.6285 357.872 67.6285C382.022 67.6285 393.922 81.9785 393.922 102.279V121.529C393.922 143.054 380.622 156.179 357.872 156.179Z" fill="white"/>
<path d="M432.95 175.604H483.7C520.275 175.604 544.775 155.829 544.775 112.429V111.204C544.775 70.7785 523.425 47.8535 483.7 47.8535H432.95V175.604ZM457.275 154.779V68.6785H483.7C507.675 68.6785 519.05 82.1535 519.05 102.279V121.179C519.05 142.529 506.45 154.779 483.7 154.779H457.275Z" fill="white"/>
<path d="M542.564 175.604H566.014L575.639 147.779H630.589L640.214 175.604H664.364L620.264 48.0285H586.489L542.564 175.604ZM581.414 129.229L602.589 67.1035H603.639L611.164 88.9785L624.814 129.229H581.414Z" fill="white"/>
<path fill-rule="evenodd" clip-rule="evenodd" d="M705.954 202.308L705.954 20.7861H709.954L709.954 202.308H705.954Z" fill="white"/>
<path d="M57.9494 72.3243L97.5926 49.4363L148.311 78.7188V124.495L194.143 150.956C194.18 150.401 194.199 149.842 194.199 149.281V66.7219C194.199 57.7515 189.414 49.4625 181.645 44.9774L110.147 3.69787C102.378 -0.787311 92.807 -0.787312 85.0384 3.69787L13.5403 44.9774C13.0542 45.258 12.5797 45.5536 12.1174 45.8632L57.9494 72.3243Z" fill="#F59E0B"/>
<path d="M46.8743 91.506L1.04241 65.0449C1.00533 65.6005 0.986572 66.1595 0.986572 66.7211V149.28C0.986572 158.25 5.7722 166.539 13.5408 171.025L85.0389 212.304C92.8075 216.789 102.379 216.789 110.147 212.304L181.645 171.025C182.132 170.744 182.607 170.448 183.069 170.138L137.237 143.677L97.5931 166.566L46.8743 137.283V91.506Z" fill="#D97706"/>
<path d="M961.321 121.188H998.491C998.585 121.175 998.68 121.183 998.769 121.212C998.858 121.242 998.94 121.291 999.007 121.357C999.074 121.423 999.126 121.504 999.157 121.593C999.188 121.681 999.198 121.776 999.187 121.87V132.928C999.2 133.022 999.192 133.119 999.162 133.209C999.132 133.3 999.081 133.382 999.013 133.45C998.946 133.518 998.863 133.568 998.773 133.598C998.682 133.629 998.586 133.637 998.491 133.623H992.546C992.452 133.637 992.355 133.629 992.265 133.598C992.174 133.568 992.092 133.518 992.024 133.45C991.957 133.382 991.906 133.3 991.876 133.209C991.846 133.119 991.837 133.022 991.851 132.928V128.837C991.857 128.782 991.851 128.726 991.833 128.673C991.815 128.621 991.785 128.573 991.746 128.534C991.706 128.494 991.658 128.464 991.606 128.446C991.553 128.428 991.497 128.422 991.442 128.428H984.392C984.337 128.422 984.281 128.428 984.228 128.446C984.176 128.464 984.128 128.494 984.089 128.534C984.049 128.573 984.019 128.621 984.001 128.673C983.983 128.726 983.977 128.782 983.983 128.837V160.976C983.977 161.031 983.983 161.087 984.001 161.14C984.019 161.192 984.049 161.24 984.089 161.28C984.128 161.319 984.176 161.349 984.228 161.367C984.281 161.385 984.337 161.391 984.392 161.385H987.992C988.086 161.374 988.18 161.384 988.269 161.415C988.358 161.446 988.439 161.497 988.505 161.564C988.57 161.632 988.62 161.713 988.649 161.803C988.679 161.892 988.687 161.987 988.674 162.08V167.534C988.687 167.628 988.679 167.723 988.649 167.812C988.62 167.902 988.57 167.983 988.505 168.05C988.439 168.118 988.358 168.169 988.269 168.2C988.18 168.231 988.086 168.241 987.992 168.23H971.807C971.713 168.244 971.617 168.236 971.527 168.206C971.436 168.176 971.355 168.125 971.288 168.057C971.221 167.989 971.172 167.906 971.144 167.815C971.115 167.724 971.109 167.628 971.125 167.534V162.08C971.109 161.987 971.115 161.89 971.144 161.8C971.172 161.709 971.221 161.626 971.288 161.558C971.355 161.49 971.436 161.439 971.527 161.409C971.617 161.379 971.713 161.371 971.807 161.385H975.407C975.462 161.391 975.518 161.385 975.571 161.367C975.623 161.349 975.671 161.319 975.71 161.28C975.75 161.24 975.78 161.192 975.798 161.14C975.816 161.087 975.822 161.031 975.816 160.976V128.783C975.822 128.727 975.816 128.671 975.798 128.619C975.78 128.566 975.75 128.518 975.71 128.479C975.671 128.44 975.623 128.41 975.571 128.391C975.518 128.373 975.462 128.367 975.407 128.374H968.357C968.301 128.365 968.243 128.369 968.189 128.386C968.134 128.404 968.085 128.433 968.044 128.473C968.003 128.512 967.972 128.561 967.953 128.615C967.934 128.669 967.927 128.726 967.935 128.783V132.873C967.951 132.967 967.944 133.063 967.916 133.154C967.888 133.245 967.838 133.328 967.772 133.396C967.705 133.464 967.623 133.515 967.533 133.545C967.443 133.575 967.347 133.583 967.253 133.569H961.308C961.213 133.583 961.117 133.574 961.026 133.544C960.936 133.514 960.853 133.463 960.786 133.395C960.718 133.328 960.667 133.246 960.637 133.155C960.607 133.064 960.599 132.968 960.612 132.873V121.87C960.6 121.775 960.611 121.679 960.643 121.589C960.675 121.499 960.727 121.417 960.796 121.351C960.865 121.285 960.948 121.236 961.039 121.207C961.131 121.179 961.227 121.172 961.321 121.188Z" fill="white"/>
<path d="M1010.7 134.101C1013.78 134.005 1016.82 134.862 1019.39 136.555C1021.77 138.169 1023.53 140.545 1024.37 143.291C1025.23 146.559 1025.6 149.936 1025.48 153.313C1025.48 153.763 1025.22 153.995 1024.71 153.995H1004.26C1004.2 153.985 1004.14 153.99 1004.09 154.007C1004.03 154.025 1003.98 154.056 1003.94 154.098C1003.9 154.139 1003.87 154.189 1003.85 154.245C1003.83 154.301 1003.83 154.36 1003.84 154.417C1003.85 155.29 1004.01 156.153 1004.33 156.967C1005.47 160.33 1007.96 162.012 1011.79 162.012C1013.23 162.07 1014.67 161.817 1016 161.268C1017.34 160.72 1018.54 159.89 1019.53 158.835C1019.9 158.467 1020.25 158.426 1020.57 158.699L1024.66 162.285C1024.73 162.338 1024.8 162.408 1024.84 162.489C1024.89 162.57 1024.91 162.66 1024.92 162.753C1024.93 162.845 1024.91 162.938 1024.88 163.025C1024.85 163.111 1024.79 163.189 1024.73 163.253C1021.51 167.034 1016.96 168.925 1011.09 168.925C1007.95 169.029 1004.85 168.172 1002.21 166.471C999.807 164.846 998.038 162.436 997.21 159.653C996.392 157.005 995.996 154.244 996.037 151.472C995.986 148.705 996.358 145.946 997.142 143.291C997.958 140.501 999.729 138.088 1002.15 136.473C1004.7 134.848 1007.67 134.021 1010.7 134.101ZM1010.7 140.659C1007.29 140.659 1005.1 142.091 1004.14 144.954C1003.84 145.865 1003.7 146.819 1003.71 147.777C1003.7 147.834 1003.71 147.893 1003.73 147.949C1003.74 148.005 1003.78 148.055 1003.82 148.096C1003.86 148.138 1003.91 148.169 1003.96 148.187C1004.02 148.204 1004.08 148.209 1004.14 148.2H1017.19C1017.24 148.206 1017.3 148.2 1017.35 148.181C1017.41 148.162 1017.46 148.131 1017.5 148.09C1017.54 148.05 1017.57 148 1017.59 147.946C1017.61 147.892 1017.61 147.834 1017.61 147.777C1017.62 146.819 1017.48 145.867 1017.19 144.954C1016.76 143.664 1015.91 142.554 1014.77 141.805C1013.58 141.036 1012.18 140.638 1010.76 140.659H1010.7Z" fill="white"/>
<path d="M1044.96 134.1C1048.95 133.955 1052.91 134.868 1056.43 136.746C1056.6 136.821 1056.75 136.947 1056.85 137.108C1056.95 137.269 1057 137.456 1056.99 137.646V145.24C1057 145.334 1056.99 145.431 1056.96 145.521C1056.93 145.611 1056.88 145.693 1056.81 145.759C1056.75 145.826 1056.66 145.876 1056.57 145.904C1056.48 145.932 1056.39 145.938 1056.29 145.922H1050.42C1050.32 145.936 1050.23 145.928 1050.14 145.898C1050.05 145.869 1049.97 145.819 1049.9 145.753C1049.84 145.687 1049.79 145.606 1049.76 145.517C1049.73 145.428 1049.72 145.333 1049.73 145.24V142.2C1049.73 142.009 1049.61 141.859 1049.38 141.709C1048.04 141.18 1046.6 140.947 1045.17 141.027C1041.57 141.027 1039.3 142.477 1038.35 145.377C1037.81 147.38 1037.57 149.453 1037.65 151.526C1037.57 153.622 1037.8 155.718 1038.35 157.744C1039.32 160.598 1041.59 162.026 1045.17 162.026C1046.6 162.122 1048.04 161.908 1049.38 161.398C1049.48 161.371 1049.58 161.308 1049.64 161.222C1049.7 161.135 1049.74 161.029 1049.73 160.921V157.799C1049.72 157.705 1049.73 157.61 1049.76 157.521C1049.79 157.431 1049.84 157.35 1049.9 157.283C1049.97 157.215 1050.05 157.164 1050.14 157.133C1050.23 157.102 1050.32 157.092 1050.42 157.103H1056.35C1056.44 157.089 1056.54 157.098 1056.63 157.128C1056.72 157.158 1056.8 157.209 1056.87 157.276C1056.94 157.344 1056.99 157.426 1057.02 157.517C1057.05 157.608 1057.06 157.704 1057.04 157.799V165.462C1057.05 165.651 1057 165.838 1056.9 165.999C1056.8 166.16 1056.66 166.287 1056.48 166.362C1052.92 168.132 1048.99 169.012 1045.02 168.925C1037.52 168.925 1032.74 165.925 1030.86 159.939C1030.08 157.201 1029.73 154.358 1029.83 151.513C1029.74 148.748 1030.09 145.988 1030.86 143.331C1031.7 140.517 1033.53 138.098 1036 136.514C1038.69 134.855 1041.8 134.017 1044.96 134.1Z" fill="white"/>
<path d="M1061.99 121.188H1072.42C1072.52 121.175 1072.61 121.183 1072.7 121.212C1072.79 121.242 1072.87 121.291 1072.94 121.357C1073.01 121.423 1073.06 121.504 1073.09 121.592C1073.12 121.681 1073.13 121.776 1073.12 121.87V137.973H1073.19C1075 135.391 1077.88 134.1 1081.82 134.1C1083.37 134.039 1084.92 134.315 1086.36 134.911C1087.79 135.506 1089.08 136.407 1090.14 137.55C1092.29 140.007 1093.42 143.201 1093.29 146.468V160.976C1093.28 161.031 1093.28 161.087 1093.3 161.14C1093.32 161.192 1093.35 161.24 1093.39 161.28C1093.43 161.319 1093.48 161.349 1093.53 161.367C1093.58 161.385 1093.64 161.391 1093.69 161.385H1096.53C1096.63 161.371 1096.72 161.38 1096.81 161.41C1096.9 161.44 1096.99 161.491 1097.05 161.558C1097.12 161.626 1097.17 161.708 1097.2 161.799C1097.23 161.889 1097.24 161.986 1097.23 162.08V167.534C1097.24 167.629 1097.23 167.725 1097.2 167.816C1097.17 167.906 1097.12 167.989 1097.05 168.056C1096.99 168.124 1096.9 168.175 1096.81 168.205C1096.72 168.235 1096.63 168.243 1096.53 168.23H1082.16C1082.06 168.244 1081.97 168.236 1081.88 168.206C1081.79 168.176 1081.71 168.125 1081.64 168.057C1081.57 167.989 1081.52 167.906 1081.5 167.815C1081.47 167.724 1081.46 167.628 1081.48 167.534V162.08C1081.46 161.986 1081.47 161.89 1081.5 161.799C1081.52 161.709 1081.57 161.626 1081.64 161.558C1081.71 161.49 1081.79 161.439 1081.88 161.409C1081.97 161.379 1082.06 161.37 1082.16 161.385H1085.13C1085.19 161.394 1085.25 161.389 1085.3 161.372C1085.35 161.355 1085.4 161.325 1085.44 161.286C1085.49 161.246 1085.52 161.197 1085.54 161.144C1085.55 161.09 1085.56 161.032 1085.55 160.976V148.268C1085.65 146.372 1085.09 144.502 1083.96 142.977C1083.36 142.357 1082.65 141.863 1081.85 141.526C1081.06 141.189 1080.21 141.015 1079.35 141.015C1078.49 141.015 1077.64 141.189 1076.85 141.526C1076.05 141.863 1075.34 142.357 1074.74 142.977C1073.59 144.492 1073.01 146.367 1073.12 148.268V160.976C1073.11 161.031 1073.12 161.087 1073.14 161.14C1073.15 161.192 1073.18 161.24 1073.22 161.28C1073.26 161.319 1073.31 161.349 1073.36 161.367C1073.42 161.385 1073.47 161.391 1073.53 161.385H1076.5C1076.59 161.37 1076.69 161.379 1076.78 161.409C1076.87 161.439 1076.95 161.49 1077.02 161.558C1077.09 161.626 1077.14 161.709 1077.16 161.799C1077.19 161.89 1077.2 161.986 1077.18 162.08V167.534C1077.2 167.628 1077.19 167.724 1077.16 167.815C1077.14 167.906 1077.09 167.989 1077.02 168.057C1076.95 168.125 1076.87 168.176 1076.78 168.206C1076.69 168.236 1076.59 168.244 1076.5 168.23H1061.99C1061.9 168.243 1061.8 168.235 1061.71 168.205C1061.62 168.175 1061.54 168.124 1061.47 168.056C1061.4 167.989 1061.35 167.906 1061.32 167.816C1061.29 167.725 1061.28 167.629 1061.3 167.534V162.08C1061.28 161.986 1061.29 161.889 1061.32 161.799C1061.35 161.708 1061.4 161.626 1061.47 161.558C1061.54 161.491 1061.62 161.44 1061.71 161.41C1061.8 161.38 1061.9 161.371 1061.99 161.385H1064.96C1065.02 161.391 1065.08 161.385 1065.13 161.367C1065.18 161.349 1065.23 161.319 1065.27 161.28C1065.31 161.24 1065.34 161.192 1065.36 161.14C1065.37 161.087 1065.38 161.031 1065.37 160.976V128.374C1065.37 128.087 1065.24 127.951 1064.96 127.951H1061.99C1061.9 127.964 1061.8 127.956 1061.71 127.926C1061.63 127.897 1061.54 127.847 1061.48 127.782C1061.41 127.716 1061.36 127.635 1061.33 127.546C1061.3 127.457 1061.29 127.363 1061.3 127.269V121.815C1061.29 121.726 1061.31 121.637 1061.35 121.555C1061.38 121.473 1061.43 121.4 1061.5 121.34C1061.57 121.281 1061.64 121.236 1061.73 121.21C1061.81 121.183 1061.9 121.176 1061.99 121.188Z" fill="white"/>
<path d="M1105.83 161.385C1105.15 161.374 1104.49 161.565 1103.92 161.934C1103.35 162.302 1102.91 162.832 1102.64 163.454C1102.37 164.077 1102.3 164.765 1102.43 165.43C1102.55 166.095 1102.87 166.708 1103.35 167.189C1103.83 167.671 1104.43 168 1105.1 168.134C1105.76 168.269 1106.45 168.203 1107.08 167.944C1107.7 167.686 1108.24 167.247 1108.61 166.683C1108.99 166.12 1109.19 165.457 1109.18 164.78C1109.19 164.336 1109.1 163.895 1108.93 163.483C1108.77 163.071 1108.52 162.697 1108.21 162.381C1107.89 162.066 1107.52 161.815 1107.11 161.644C1106.7 161.473 1106.26 161.385 1105.82 161.385H1105.83ZM1105.83 167.657C1105.1 167.607 1104.42 167.283 1103.92 166.75C1103.43 166.217 1103.15 165.516 1103.15 164.787C1103.15 164.058 1103.43 163.357 1103.92 162.824C1104.42 162.291 1105.1 161.967 1105.83 161.917C1106.56 161.967 1107.24 162.291 1107.73 162.824C1108.23 163.357 1108.51 164.058 1108.51 164.787C1108.51 165.516 1108.23 166.217 1107.73 166.75C1107.24 167.283 1106.56 167.607 1105.83 167.657Z" fill="white"/>
<path d="M1106.43 164.903C1106.64 164.857 1106.83 164.739 1106.97 164.571C1107.1 164.402 1107.18 164.193 1107.18 163.976C1107.19 163.827 1107.16 163.678 1107.1 163.542C1107.04 163.406 1106.94 163.288 1106.82 163.199C1106.47 162.983 1106.06 162.883 1105.65 162.912C1105.29 162.911 1104.93 162.943 1104.57 163.008V166.744H1105.19V165.108H1105.61C1105.71 165.094 1105.81 165.101 1105.9 165.128C1106 165.155 1106.08 165.202 1106.16 165.265C1106.24 165.327 1106.3 165.405 1106.34 165.493C1106.39 165.581 1106.41 165.677 1106.42 165.776C1106.44 166.112 1106.53 166.44 1106.67 166.744H1107.32C1107.18 166.447 1107.09 166.129 1107.07 165.803C1106.99 165.271 1106.8 164.958 1106.43 164.903ZM1105.62 164.658H1105.19V163.376H1105.62C1106.29 163.376 1106.54 163.703 1106.54 164.044C1106.54 164.385 1106.12 164.658 1105.62 164.658Z" fill="white"/>
<path d="M971.302 60.2104C974.08 60.1962 976.842 60.629 979.483 61.4921C981.762 62.1649 983.888 63.2766 985.742 64.7646C985.888 64.8803 986.007 65.0272 986.09 65.1947C986.172 65.3622 986.216 65.546 986.219 65.7327V74.023C986.233 74.1175 986.224 74.2139 986.194 74.3046C986.164 74.3952 986.113 74.4776 986.046 74.5451C985.978 74.6126 985.896 74.6634 985.805 74.6935C985.714 74.7236 985.618 74.7322 985.523 74.7184H979.306C979.212 74.7298 979.117 74.7196 979.029 74.6884C978.94 74.6573 978.859 74.6061 978.793 74.5389C978.727 74.4717 978.678 74.3902 978.648 74.3007C978.619 74.2113 978.611 74.1162 978.624 74.023V69.9324C978.627 69.8246 978.603 69.7177 978.552 69.6221C978.502 69.5266 978.428 69.4456 978.338 69.387C976.157 68.062 973.633 67.412 971.084 67.519C966.02 67.519 962.775 69.6143 961.348 73.8049C960.472 77.3251 960.1 80.952 960.244 84.5768C960.081 88.1505 960.384 91.7301 961.143 95.226C961.711 97.0701 962.865 98.6787 964.43 99.8075C966.327 100.955 968.529 101.498 970.743 101.362C973.405 101.539 976.065 100.967 978.419 99.712C978.623 99.6076 978.794 99.4495 978.914 99.2548C979.034 99.0601 979.099 98.8363 979.101 98.6076V89.431C979.108 89.3757 979.102 89.3196 979.083 89.267C979.065 89.2143 979.035 89.1665 978.996 89.1272C978.957 89.0878 978.909 89.0578 978.856 89.0396C978.804 89.0214 978.747 89.0153 978.692 89.0219H971.234C971.139 89.0356 971.043 89.0271 970.952 88.997C970.861 88.9669 970.779 88.9161 970.712 88.8486C970.644 88.781 970.593 88.6987 970.563 88.608C970.533 88.5174 970.524 88.421 970.538 88.3265V82.8042C970.524 82.7097 970.533 82.6133 970.563 82.5226C970.593 82.432 970.644 82.3497 970.712 82.2821C970.779 82.2146 970.861 82.1638 970.952 82.1337C971.043 82.1036 971.139 82.0951 971.234 82.1088H986.232C986.327 82.0951 986.423 82.1036 986.514 82.1337C986.605 82.1638 986.687 82.2146 986.755 82.2821C986.822 82.3497 986.873 82.432 986.903 82.5226C986.933 82.6133 986.942 82.7097 986.928 82.8042V102.657C986.933 102.987 986.853 103.312 986.695 103.601C986.537 103.89 986.308 104.133 986.028 104.307C981.471 107.39 976.05 108.942 970.552 108.739C961.289 108.739 955.462 105.075 953.071 97.7485C952.29 95.4033 951.899 91.0263 951.899 84.6177C951.899 78.5909 952.335 74.2548 953.262 71.6368C955.698 64.0101 961.712 60.2013 971.302 60.2104Z" fill="white"/>
<path d="M1007.75 73.8866C1010.84 73.7941 1013.88 74.6507 1016.46 76.341C1018.84 77.9529 1020.59 80.3302 1021.43 83.0768C1022.29 86.349 1022.66 89.731 1022.53 93.1124C1022.53 93.576 1022.29 93.8078 1021.78 93.8078H1001.26C1001.2 93.8013 1001.15 93.8073 1001.1 93.8256C1001.04 93.8438 1000.99 93.8737 1000.96 93.9131C1000.92 93.9525 1000.89 94.0003 1000.87 94.0529C1000.85 94.1055 1000.84 94.1616 1000.85 94.2169C1000.85 95.0932 1001.02 95.9616 1001.33 96.7804C1002.47 100.148 1004.97 101.825 1008.79 101.825C1010.25 101.881 1011.7 101.619 1013.05 101.056C1014.4 100.494 1015.61 99.644 1016.6 98.5666C1016.97 98.1984 1017.31 98.1439 1017.64 98.4302L1021.73 102.016C1021.8 102.071 1021.86 102.142 1021.9 102.223C1021.95 102.303 1021.98 102.393 1021.98 102.485C1021.99 102.577 1021.97 102.669 1021.94 102.755C1021.91 102.841 1021.86 102.92 1021.79 102.984C1018.56 106.757 1014.01 108.648 1008.16 108.657C1005.02 108.758 1001.92 107.902 999.269 106.202C996.866 104.573 995.098 102.165 994.264 99.3847C993.453 96.7346 993.058 93.9748 993.092 91.2035C993.041 88.4361 993.413 85.6771 994.196 83.0223C995.018 80.2354 996.788 77.8236 999.2 76.2046C1001.76 74.6005 1004.73 73.7936 1007.75 73.8866ZM1007.75 80.4452C1004.34 80.4452 1002.15 81.8724 1001.19 84.7267C1000.91 85.6444 1000.77 86.6018 1000.78 87.5629C1000.77 87.6192 1000.78 87.6768 1000.79 87.7312C1000.81 87.7856 1000.84 87.8352 1000.88 87.8762C1000.92 87.9172 1000.97 87.9484 1001.02 87.9674C1001.08 87.9864 1001.13 87.9926 1001.19 87.9856H1014.25C1014.31 87.9926 1014.37 87.9864 1014.42 87.9674C1014.48 87.9484 1014.52 87.9172 1014.56 87.8762C1014.6 87.8352 1014.63 87.7856 1014.65 87.7312C1014.67 87.6768 1014.67 87.6192 1014.66 87.5629C1014.68 86.6018 1014.54 85.6444 1014.25 84.7267C1013.82 83.438 1012.97 82.333 1011.83 81.5906C1010.63 80.821 1009.24 80.4224 1007.82 80.4452H1007.75Z" fill="white"/>
<path d="M1042.71 73.8866C1045.78 73.8049 1048.8 74.6457 1051.38 76.3001C1053.8 77.9191 1055.57 80.3309 1056.39 83.1178C1057.18 85.7709 1057.55 88.5311 1057.49 91.299C1057.55 94.0667 1057.18 96.8266 1056.39 99.4802C1055.57 102.268 1053.8 104.681 1051.38 106.298C1048.76 107.886 1045.75 108.725 1042.68 108.725C1039.61 108.725 1036.6 107.886 1033.97 106.298C1031.55 104.685 1029.78 102.271 1028.97 99.4802C1028.18 96.8266 1027.81 94.0667 1027.86 91.299C1027.8 88.5311 1028.18 85.7709 1028.97 83.1178C1029.78 80.3283 1031.55 77.9148 1033.97 76.3001C1036.58 74.6372 1039.62 73.7963 1042.71 73.8866ZM1042.71 80.8407C1041.32 80.7054 1039.92 81.0681 1038.77 81.8644C1037.62 82.6607 1036.79 83.8391 1036.42 85.1903C1035.9 87.1955 1035.66 89.2671 1035.73 91.3399C1035.66 93.4129 1035.89 95.4853 1036.42 97.4894C1036.9 98.766 1037.75 99.8671 1038.87 100.645C1039.99 101.422 1041.32 101.839 1042.68 101.839C1044.04 101.839 1045.37 101.422 1046.48 100.645C1047.6 99.8671 1048.46 98.766 1048.93 97.4894C1049.46 95.4853 1049.7 93.4129 1049.62 91.3399C1049.69 89.2671 1049.46 87.1955 1048.93 85.1903C1048.57 83.8488 1047.75 82.6768 1046.61 81.881C1045.48 81.0851 1044.09 80.7167 1042.71 80.8407Z" fill="white"/>
<path d="M1081.79 74.1592C1082.88 74.1603 1083.97 74.2791 1085.04 74.5138C1085.49 74.5956 1085.72 74.8274 1085.72 75.1955V81.2087C1085.72 81.8087 1085.44 82.0405 1084.89 81.9041C1083.54 81.6142 1082.17 81.4273 1080.79 81.3451C1075.82 81.3451 1073.32 84.2085 1073.32 89.9081V100.816C1073.32 100.873 1073.32 100.93 1073.34 100.984C1073.36 101.038 1073.39 101.087 1073.43 101.126C1073.47 101.166 1073.52 101.196 1073.58 101.213C1073.63 101.23 1073.69 101.234 1073.75 101.225H1076.99C1077.09 101.212 1077.18 101.22 1077.27 101.25C1077.36 101.28 1077.45 101.331 1077.51 101.399C1077.58 101.466 1077.63 101.549 1077.66 101.639C1077.69 101.73 1077.7 101.826 1077.69 101.921V107.307C1077.7 107.401 1077.69 107.498 1077.66 107.588C1077.63 107.679 1077.58 107.761 1077.51 107.829C1077.45 107.896 1077.36 107.947 1077.27 107.977C1077.18 108.007 1077.09 108.016 1076.99 108.002H1062.24C1062.14 108.016 1062.05 108.007 1061.96 107.977C1061.87 107.947 1061.78 107.896 1061.72 107.829C1061.65 107.761 1061.6 107.679 1061.57 107.588C1061.54 107.498 1061.53 107.401 1061.54 107.307V101.866C1061.53 101.772 1061.54 101.675 1061.57 101.585C1061.6 101.494 1061.65 101.412 1061.72 101.344C1061.78 101.277 1061.87 101.226 1061.96 101.196C1062.05 101.166 1062.14 101.157 1062.24 101.171H1065.21C1065.26 101.177 1065.32 101.171 1065.37 101.153C1065.43 101.135 1065.47 101.105 1065.51 101.066C1065.55 101.026 1065.58 100.978 1065.6 100.926C1065.62 100.873 1065.63 100.817 1065.62 100.762V81.8359C1065.62 81.5496 1065.48 81.4132 1065.21 81.4132H1062.24C1062.14 81.4265 1062.05 81.4181 1061.96 81.3887C1061.87 81.3594 1061.79 81.3098 1061.72 81.2439C1061.65 81.178 1061.6 81.0975 1061.57 81.0086C1061.54 80.9198 1061.53 80.8249 1061.54 80.7315V75.3864C1061.53 75.293 1061.54 75.1981 1061.57 75.1093C1061.6 75.0204 1061.65 74.9399 1061.72 74.874C1061.79 74.8081 1061.87 74.7585 1061.96 74.7292C1062.05 74.6998 1062.14 74.6914 1062.24 74.7046H1072.71C1072.8 74.6908 1072.9 74.699 1072.99 74.7283C1073.07 74.7577 1073.16 74.8075 1073.22 74.8738C1073.29 74.9401 1073.34 75.021 1073.37 75.11C1073.4 75.199 1073.4 75.2937 1073.39 75.3864V78.7953C1074.23 77.3249 1075.46 76.1142 1076.94 75.2963C1078.42 74.4784 1080.1 74.0849 1081.79 74.1592Z" fill="white"/>
<path d="M1101.04 73.928C1105.13 73.928 1108.02 75.2915 1109.67 77.8686H1109.74V75.387C1109.73 75.2925 1109.74 75.1961 1109.77 75.1054C1109.8 75.0148 1109.85 74.9324 1109.92 74.8649C1109.98 74.7974 1110.07 74.7466 1110.16 74.7165C1110.25 74.6864 1110.34 74.6779 1110.44 74.6916H1120.87C1120.96 74.6779 1121.06 74.6864 1121.15 74.7165C1121.24 74.7466 1121.32 74.7974 1121.39 74.8649C1121.46 74.9324 1121.51 75.0148 1121.54 75.1054C1121.57 75.1961 1121.58 75.2925 1121.56 75.387V80.8411C1121.58 80.9352 1121.57 81.0313 1121.54 81.1215C1121.51 81.2117 1121.46 81.2935 1121.39 81.3601C1121.32 81.4267 1121.24 81.4762 1121.15 81.5045C1121.06 81.5328 1120.96 81.5391 1120.87 81.5229H1117.9C1117.84 81.5158 1117.78 81.5221 1117.73 81.541C1117.67 81.56 1117.63 81.5912 1117.59 81.6322C1117.55 81.6732 1117.52 81.7228 1117.5 81.7772C1117.48 81.8316 1117.48 81.8892 1117.49 81.9456V105.917C1117.49 110.753 1116.16 114.507 1113.51 117.179C1110.85 119.852 1107 121.188 1101.94 121.188C1099.6 121.177 1097.29 120.714 1095.12 119.825C1093.11 119.077 1091.31 117.829 1089.9 116.198C1089.84 116.133 1089.79 116.054 1089.75 115.968C1089.72 115.882 1089.71 115.79 1089.72 115.698C1089.72 115.606 1089.75 115.517 1089.79 115.436C1089.84 115.355 1089.9 115.285 1089.97 115.229L1094.06 111.139C1094.12 111.054 1094.2 110.985 1094.29 110.938C1094.38 110.89 1094.48 110.865 1094.58 110.865C1094.68 110.865 1094.78 110.89 1094.87 110.938C1094.96 110.985 1095.04 111.054 1095.1 111.139C1096.04 112.111 1097.17 112.886 1098.41 113.419C1099.66 113.953 1101 114.234 1102.35 114.248C1107.32 114.248 1109.81 111.598 1109.81 106.298V103.217H1109.74C1108.09 105.807 1105.2 107.089 1101.11 107.089C1098.58 107.169 1096.09 106.443 1093.99 105.017C1091.97 103.522 1090.49 101.412 1089.78 99.0034C1088.97 96.2461 1088.6 93.3803 1088.68 90.5086C1088.61 87.6595 1088.98 84.8168 1089.78 82.0819C1091.48 76.6551 1095.23 73.9371 1101.04 73.928ZM1103.05 80.8411C1101.73 80.7446 1100.42 81.1134 1099.35 81.8833C1098.27 82.6532 1097.5 83.7754 1097.17 85.0544C1096.62 86.8187 1096.36 88.6611 1096.41 90.5086C1096.35 92.3569 1096.61 94.2018 1097.17 95.9627C1097.57 97.2115 1098.36 98.3003 1099.42 99.0726C1100.48 99.8449 1101.76 100.261 1103.07 100.261C1104.39 100.261 1105.67 99.8449 1106.73 99.0726C1107.79 98.3003 1108.58 97.2115 1108.98 95.9627C1109.55 94.2032 1109.81 92.3573 1109.74 90.5086C1109.79 88.6607 1109.54 86.8172 1108.98 85.0544C1108.64 83.7683 1107.86 82.6417 1106.78 81.8716C1105.69 81.1014 1104.37 80.7367 1103.05 80.8411Z" fill="white"/>
<path d="M1125.98 74.6506H1136.41C1136.51 74.6373 1136.6 74.6457 1136.69 74.6751C1136.78 74.7044 1136.86 74.754 1136.93 74.8199C1137 74.8858 1137.05 74.9663 1137.08 75.0552C1137.11 75.144 1137.12 75.2389 1137.11 75.3323V100.762C1137.1 100.818 1137.11 100.874 1137.13 100.926C1137.14 100.979 1137.17 101.027 1137.21 101.066C1137.25 101.105 1137.3 101.135 1137.35 101.154C1137.41 101.172 1137.46 101.178 1137.52 101.171H1140.49C1140.58 101.158 1140.68 101.166 1140.77 101.196C1140.86 101.226 1140.94 101.277 1141.01 101.345C1141.08 101.412 1141.13 101.495 1141.16 101.585C1141.19 101.676 1141.2 101.772 1141.19 101.867V107.253C1141.2 107.347 1141.19 107.444 1141.16 107.534C1141.13 107.625 1141.08 107.707 1141.01 107.775C1140.94 107.842 1140.86 107.893 1140.77 107.923C1140.68 107.953 1140.58 107.962 1140.49 107.948H1125.98C1125.89 107.962 1125.79 107.953 1125.7 107.923C1125.61 107.893 1125.53 107.842 1125.46 107.775C1125.39 107.707 1125.34 107.625 1125.31 107.534C1125.28 107.444 1125.27 107.347 1125.29 107.253V101.867C1125.27 101.772 1125.28 101.676 1125.31 101.585C1125.34 101.495 1125.39 101.412 1125.46 101.345C1125.53 101.277 1125.61 101.226 1125.7 101.196C1125.79 101.166 1125.89 101.158 1125.98 101.171H1128.95C1129.01 101.178 1129.07 101.172 1129.12 101.154C1129.17 101.135 1129.22 101.105 1129.26 101.066C1129.3 101.027 1129.33 100.979 1129.35 100.926C1129.36 100.874 1129.37 100.818 1129.36 100.762V81.8364C1129.36 81.55 1129.23 81.4137 1128.95 81.4137H1125.98C1125.89 81.4269 1125.79 81.4185 1125.7 81.3892C1125.61 81.3598 1125.53 81.3103 1125.47 81.2443C1125.4 81.1784 1125.35 81.0979 1125.32 81.0091C1125.29 80.9202 1125.28 80.8254 1125.29 80.7319V75.3869C1125.27 75.2894 1125.27 75.1882 1125.3 75.0921C1125.32 74.996 1125.37 74.9078 1125.44 74.8353C1125.51 74.7628 1125.59 74.7081 1125.69 74.6759C1125.78 74.6437 1125.88 74.635 1125.98 74.6506ZM1130.07 61.0152H1136.43C1136.52 60.999 1136.62 61.0053 1136.71 61.0336C1136.8 61.0619 1136.88 61.1114 1136.95 61.178C1137.02 61.2446 1137.07 61.3263 1137.1 61.4166C1137.13 61.5068 1137.14 61.6029 1137.12 61.697V67.7102C1137.14 67.8047 1137.13 67.9011 1137.1 67.9917C1137.07 68.0823 1137.02 68.1647 1136.95 68.2322C1136.88 68.2997 1136.8 68.3506 1136.71 68.3807C1136.62 68.4108 1136.52 68.4193 1136.43 68.4056H1130.07C1129.98 68.4193 1129.88 68.4108 1129.79 68.3807C1129.7 68.3506 1129.62 68.2997 1129.55 68.2322C1129.48 68.1647 1129.43 68.0823 1129.4 67.9917C1129.37 67.9011 1129.36 67.8047 1129.38 67.7102V61.6561C1129.36 61.5634 1129.37 61.4687 1129.4 61.3797C1129.43 61.2907 1129.48 61.2098 1129.55 61.1435C1129.61 61.0772 1129.69 61.0274 1129.78 60.998C1129.87 60.9686 1129.97 60.9605 1130.06 60.9743L1130.07 61.0152Z" fill="white"/>
<path d="M1158.86 73.887C1163.87 73.887 1167.43 74.7961 1169.52 76.6141C1171.61 78.4321 1172.66 81.4001 1172.67 85.518V100.79C1172.66 100.845 1172.67 100.901 1172.69 100.954C1172.71 101.006 1172.74 101.054 1172.77 101.093C1172.81 101.133 1172.86 101.163 1172.91 101.181C1172.97 101.199 1173.02 101.205 1173.08 101.199H1176.05C1176.15 101.185 1176.24 101.193 1176.33 101.224C1176.42 101.254 1176.51 101.304 1176.57 101.372C1176.64 101.44 1176.69 101.522 1176.72 101.612C1176.75 101.703 1176.76 101.8 1176.75 101.894V107.28C1176.76 107.375 1176.75 107.471 1176.72 107.562C1176.69 107.652 1176.64 107.735 1176.57 107.802C1176.51 107.87 1176.42 107.92 1176.33 107.951C1176.24 107.981 1176.15 107.989 1176.05 107.975H1166.18C1166.08 107.989 1165.99 107.981 1165.9 107.951C1165.81 107.92 1165.72 107.87 1165.66 107.802C1165.59 107.735 1165.54 107.652 1165.51 107.562C1165.48 107.471 1165.47 107.375 1165.48 107.28V104.839H1165.43C1163.61 107.421 1160.52 108.712 1156.17 108.712C1153.28 108.818 1150.45 107.884 1148.19 106.08C1147.11 105.146 1146.26 103.975 1145.7 102.658C1145.14 101.341 1144.89 99.9133 1144.98 98.4852C1144.87 96.971 1145.14 95.4547 1145.75 94.064C1146.35 92.6734 1147.29 91.4493 1148.47 90.4949C1151.35 88.5625 1154.78 87.6284 1158.24 87.836H1164.88C1164.94 87.8426 1165 87.8365 1165.05 87.8183C1165.1 87.8001 1165.15 87.7701 1165.19 87.7307C1165.23 87.6914 1165.26 87.6436 1165.27 87.5909C1165.29 87.5383 1165.3 87.4822 1165.29 87.4269V86.0634C1165.37 85.264 1165.27 84.4578 1165.02 83.6968C1164.76 82.9359 1164.35 82.237 1163.81 81.6455C1162.81 80.7365 1161.02 80.282 1158.45 80.282C1157.24 80.2812 1156.04 80.4231 1154.86 80.7047C1154.63 80.7047 1154.52 80.9092 1154.52 81.1819V84.1544C1154.53 84.249 1154.53 84.3454 1154.5 84.436C1154.47 84.5266 1154.41 84.609 1154.35 84.6765C1154.28 84.744 1154.2 84.7949 1154.11 84.825C1154.02 84.855 1153.92 84.8636 1153.83 84.8498H1147.81C1147.72 84.8636 1147.62 84.855 1147.53 84.825C1147.44 84.7949 1147.36 84.744 1147.29 84.6765C1147.22 84.609 1147.17 84.5266 1147.14 84.436C1147.11 84.3454 1147.1 84.249 1147.12 84.1544V77.1322C1147.11 76.9438 1147.16 76.7578 1147.26 76.5976C1147.36 76.4374 1147.5 76.3103 1147.68 76.2323C1151.18 74.6127 1155 73.8107 1158.86 73.887ZM1164.94 93.6446H1159.48C1154.74 93.6446 1152.37 95.1627 1152.37 98.1989C1152.37 101.008 1154.26 102.412 1158.04 102.412C1162.88 102.412 1165.3 100.526 1165.29 96.7535V94.0264C1165.29 93.9781 1165.29 93.9298 1165.27 93.8845C1165.25 93.8391 1165.23 93.7975 1165.19 93.7621C1165.16 93.7266 1165.12 93.698 1165.08 93.6778C1165.03 93.6577 1164.99 93.6464 1164.94 93.6446Z" fill="white"/>
<path d="M909.085 161.916C908.468 161.906 907.861 162.079 907.342 162.415C906.823 162.75 906.417 163.233 906.173 163.8C905.93 164.368 905.861 164.996 905.976 165.603C906.091 166.21 906.384 166.769 906.818 167.208C907.252 167.648 907.807 167.949 908.412 168.072C909.018 168.194 909.646 168.134 910.217 167.898C910.788 167.663 911.276 167.262 911.618 166.748C911.961 166.234 912.142 165.629 912.14 165.012C912.142 164.601 912.061 164.194 911.904 163.815C911.747 163.436 911.515 163.093 911.223 162.804C910.931 162.516 910.584 162.289 910.203 162.136C909.822 161.984 909.414 161.909 909.004 161.916H909.085ZM909.085 167.643C908.422 167.595 907.801 167.298 907.348 166.811C906.895 166.324 906.643 165.684 906.643 165.018C906.643 164.353 906.895 163.713 907.348 163.226C907.801 162.739 908.422 162.441 909.085 162.394C909.749 162.441 910.37 162.739 910.823 163.226C911.276 163.713 911.528 164.353 911.528 165.018C911.528 165.684 911.276 166.324 910.823 166.811C910.37 167.298 909.749 167.595 909.085 167.643Z" fill="white"/>
<path d="M909.562 165.121C909.756 165.08 909.929 164.973 910.054 164.819C910.178 164.665 910.245 164.473 910.244 164.275C910.254 164.14 910.231 164.005 910.177 163.881C910.122 163.757 910.037 163.649 909.93 163.566C909.605 163.374 909.23 163.283 908.853 163.307C908.524 163.309 908.196 163.336 907.871 163.389V166.839H908.431V165.38H908.812C908.902 165.366 908.993 165.372 909.08 165.396C909.168 165.42 909.249 165.463 909.318 165.521C909.388 165.579 909.444 165.651 909.484 165.732C909.524 165.814 909.546 165.903 909.549 165.993C909.573 166.296 909.651 166.591 909.78 166.866H910.367C910.251 166.597 910.177 166.312 910.149 166.021C910.08 165.448 909.862 165.175 909.562 165.121ZM908.826 164.902H908.431V163.73H908.826C909.44 163.73 909.658 164.03 909.658 164.343C909.658 164.657 909.276 164.902 908.826 164.902Z" fill="white"/>
<path d="M825.268 94.7623V121.747H839.776L841.303 113.565H847.821C845.435 126.055 833.136 134.605 817.537 134.605C816.473 134.605 815.396 134.605 814.319 134.482C806.282 134.026 798.536 131.313 791.97 126.655C788.971 124.548 786.524 121.748 784.837 118.494C783.149 115.24 782.271 111.627 782.276 107.961C782.298 104.026 783.161 100.141 784.807 96.5664C786.453 92.9918 788.844 89.8105 791.82 87.2356C797.925 81.9569 805.653 78.9298 813.719 78.6589C814.237 78.6589 814.769 78.6589 815.301 78.6589C825.509 78.8322 835.36 82.4396 843.267 88.8991C843.662 89.2263 843.758 89.2945 843.853 89.3627C844.048 89.5013 844.235 89.6515 844.412 89.8126L844.63 90.0035H861.279V60.8784H844.412V69.2096C834.294 63.149 822.704 59.9885 810.91 60.074H810.678C795.182 60.1555 780.352 66.3837 769.445 77.3908C760.718 86.2947 755.96 97.203 756.096 108.111C756.259 119.838 761.905 130.76 772.008 138.859C782.282 146.85 794.936 151.171 807.951 151.131C809.574 151.131 811.224 151.131 812.846 150.94C825.895 149.876 837.39 146.849 845.571 142.527V146.127H863.488V113.702H869.678V151.254H860.338V168.107H902.021V151.254H892.722V113.688H913.83L915.302 121.869H929.865V94.7623H825.268Z" fill="white"/>
</svg>
