<?xml version="1.0" encoding="UTF-8" standalone="no"?>
<!-- Created with Inkscape (http://www.inkscape.org/) -->

<svg
   xmlns:dc="http://purl.org/dc/elements/1.1/"
   xmlns:cc="http://creativecommons.org/ns#"
   xmlns:rdf="http://www.w3.org/1999/02/22-rdf-syntax-ns#"
   xmlns:svg="http://www.w3.org/2000/svg"
   xmlns="http://www.w3.org/2000/svg"
   xmlns:sodipodi="http://sodipodi.sourceforge.net/DTD/sodipodi-0.dtd"
   xmlns:inkscape="http://www.inkscape.org/namespaces/inkscape"
   width="16.933332mm"
   height="16.933332mm"
   viewBox="0 0 16.933331 16.933333"
   version="1.1"
   id="svg4626"
   inkscape:version="0.92.1 r"
   sodipodi:docname="CCT_Icon_NoPlant.svg">
  <defs
     id="defs4620" />
  <sodipodi:namedview
     id="base"
     pagecolor="#ffffff"
     bordercolor="#666666"
     borderopacity="1.0"
     inkscape:pageopacity="0.0"
     inkscape:pageshadow="2"
     inkscape:zoom="0.35"
     inkscape:cx="-755.80522"
     inkscape:cy="65.089447"
     inkscape:document-units="mm"
     inkscape:current-layer="layer1"
     showgrid="false"
     fit-margin-top="0"
     fit-margin-left="0"
     fit-margin-right="0"
     fit-margin-bottom="0"
     inkscape:window-width="1366"
     inkscape:window-height="744"
     inkscape:window-x="0"
     inkscape:window-y="0"
     inkscape:window-maximized="1" />
  <metadata
     id="metadata4623">
    <rdf:RDF>
      <cc:Work
         rdf:about="">
        <dc:format>image/svg+xml</dc:format>
        <dc:type
           rdf:resource="http://purl.org/dc/dcmitype/StillImage" />
        <dc:title></dc:title>
      </cc:Work>
    </rdf:RDF>
  </metadata>
  <g
     inkscape:label="Layer 1"
     inkscape:groupmode="layer"
     id="layer1"
     transform="translate(-179.56275,-149.12158)">
    <g
       id="g18"
       transform="matrix(0.26458333,0,0,0.26458333,179.56275,149.12158)">
      <circle
         style="fill:#58b032"
         cx="32"
         cy="13.002"
         r="3.1889999"
         id="circle2" />
      <circle
         style="fill:#58b032"
         cx="19.243999"
         cy="25.757999"
         r="3.1889999"
         id="circle4" />
      <path
         style="fill:#58b032"
         inkscape:connector-curvature="0"
         d="m 38.268,23.986 c 0.151,-0.553 0.369,-1.077 0.648,-1.563 l -3.581,-3.581 c -0.984,0.564 -2.121,0.892 -3.335,0.892 -1.214,0 -2.35,-0.328 -3.335,-0.892 l -3.581,3.581 c 0.279,0.486 0.496,1.011 0.648,1.563 z"
         id="path6" />
      <path
         style="fill:#58b032"
         inkscape:connector-curvature="0"
         d="M 42.985,32.246 C 40.696,31.62 38.895,29.818 38.269,27.53 H 25.732 c -0.626,2.289 -2.428,4.09 -4.716,4.716 v 9.347 c 2.289,0.626 4.09,2.428 4.716,4.716 h 12.536 c 0.626,-2.289 2.428,-4.09 4.716,-4.716 v -9.347 z"
         id="path8" />
      <circle
         style="fill:#58b032"
         cx="19.243999"
         cy="48.081001"
         r="3.1889999"
         id="circle10" />
      <circle
         style="fill:#58b032"
         cx="44.756001"
         cy="48.081001"
         r="3.1889999"
         id="circle12" />
      <path
         style="fill:#58b032"
         inkscape:connector-curvature="0"
         d="M 32,0 C 14.327,0 0,14.327 0,32 0,49.673 14.327,64 32,64 49.673,64 64,49.673 64,32 64,14.327 49.673,0 32,0 Z m 19.489,48.081 c 0,3.712 -3.02,6.733 -6.733,6.733 -3.098,0 -5.708,-2.107 -6.488,-4.961 H 25.732 c -0.781,2.854 -3.39,4.961 -6.488,4.961 -3.712,0 -6.733,-3.02 -6.733,-6.733 0,-3.098 2.107,-5.707 4.961,-6.488 v -9.347 c -2.854,-0.781 -4.961,-3.39 -4.961,-6.488 0,-3.712 3.02,-6.732 6.733,-6.732 1.214,0 2.35,0.328 3.335,0.892 l 3.581,-3.581 c -0.564,-0.984 -0.892,-2.121 -0.892,-3.335 0,-3.712 3.02,-6.733 6.733,-6.733 3.712,0 6.733,3.02 6.733,6.733 0,1.214 -0.328,2.35 -0.892,3.335 l 3.581,3.581 c 0.984,-0.564 2.121,-0.892 3.335,-0.892 3.712,0 6.733,3.02 6.733,6.732 0,3.098 -2.107,5.707 -4.961,6.488 v 9.347 c 2.852,0.781 4.959,3.39 4.959,6.488 z"
         id="path14" />
      <circle
         style="fill:#58b032"
         cx="44.756001"
         cy="25.757999"
         r="3.1889999"
         id="circle16" />
    </g>
  </g>
</svg>
