<?xml version="1.0" encoding="UTF-8" standalone="no"?>
<!-- Created with Inkscape (http://www.inkscape.org/) -->

<svg
   xmlns:dc="http://purl.org/dc/elements/1.1/"
   xmlns:cc="http://creativecommons.org/ns#"
   xmlns:rdf="http://www.w3.org/1999/02/22-rdf-syntax-ns#"
   xmlns:svg="http://www.w3.org/2000/svg"
   xmlns="http://www.w3.org/2000/svg"
   xmlns:sodipodi="http://sodipodi.sourceforge.net/DTD/sodipodi-0.dtd"
   xmlns:inkscape="http://www.inkscape.org/namespaces/inkscape"
   width="109.2626mm"
   height="34.140774mm"
   viewBox="0 0 109.26259 34.140774"
   version="1.1"
   id="svg4621"
   inkscape:version="0.92.1 r"
   sodipodi:docname="CCT_Horizontal.svg">
  <defs
     id="defs4615" />
  <sodipodi:namedview
     id="base"
     pagecolor="#ffffff"
     bordercolor="#666666"
     borderopacity="1.0"
     inkscape:pageopacity="0.0"
     inkscape:pageshadow="2"
     inkscape:zoom="0.35"
     inkscape:cx="175.05192"
     inkscape:cy="-132.62485"
     inkscape:document-units="mm"
     inkscape:current-layer="layer1"
     showgrid="false"
     fit-margin-top="0"
     fit-margin-left="0"
     fit-margin-right="0"
     fit-margin-bottom="0"
     inkscape:window-width="1366"
     inkscape:window-height="744"
     inkscape:window-x="0"
     inkscape:window-y="0"
     inkscape:window-maximized="1" />
  <metadata
     id="metadata4618">
    <rdf:RDF>
      <cc:Work
         rdf:about="">
        <dc:format>image/svg+xml</dc:format>
        <dc:type
           rdf:resource="http://purl.org/dc/dcmitype/StillImage" />
        <dc:title></dc:title>
      </cc:Work>
    </rdf:RDF>
  </metadata>
  <g
     inkscape:label="Layer 1"
     inkscape:groupmode="layer"
     id="layer1"
     transform="translate(66.726536,-79.602232)">
    <g
       id="g82"
       transform="matrix(0.26458333,0,0,0.26458333,-66.726536,79.602232)">
      <g
         id="g72">
        <path
           style="fill:#3c7532"
           inkscape:connector-curvature="0"
           d="m 164.897,31.788 2.961,3.76 c -2.162,2.067 -5.499,3.947 -10.151,3.947 -8.271,0 -14.052,-5.969 -14.052,-17.013 0,-10.903 6.25,-16.872 14.099,-16.872 4.277,0 7.049,1.222 9.681,3.431 l -3.195,3.713 c -1.833,-1.551 -3.807,-2.35 -6.11,-2.35 -4.417,0 -7.942,3.337 -7.942,12.078 0,8.554 3.336,12.031 7.801,12.031 3.195,0 5.216,-1.316 6.908,-2.725 z"
           id="path2" />
        <path
           style="fill:#3c7532"
           inkscape:connector-curvature="0"
           d="m 175.237,28.215 c 0.47,4.7 2.773,6.721 6.109,6.721 2.115,0 3.901,-0.611 6.016,-2.303 l 2.585,3.618 c -2.35,1.928 -5.357,3.243 -8.977,3.243 -7.989,0 -11.984,-5.404 -11.984,-13.112 0,-7.426 3.995,-13.159 11.185,-13.159 6.814,0 10.81,4.7 10.81,12.549 0,0.799 -0.094,1.785 -0.141,2.443 z m -0.047,-3.9 h 9.822 c -0.047,-4.277 -1.363,-6.814 -4.794,-6.814 -2.866,0 -4.699,2.114 -5.028,6.814 z"
           id="path4" />
        <path
           style="fill:#3c7532"
           inkscape:connector-curvature="0"
           d="m 208.371,21.212 c 0,-2.49 -0.94,-3.478 -3.055,-3.478 -2.068,0 -3.76,1.598 -5.123,3.478 V 38.79 h -6.016 V 13.928 h 5.217 l 0.423,3.102 c 2.115,-2.49 4.888,-3.807 7.801,-3.807 4.606,0 6.768,2.726 6.768,7.379 V 38.79 H 208.37 V 21.212 Z"
           id="path6" />
        <path
           style="fill:#3c7532"
           inkscape:connector-curvature="0"
           d="m 234.409,37.615 c -1.691,1.269 -4.088,1.88 -6.203,1.88 -5.546,-0.047 -7.52,-3.195 -7.52,-8.271 V 18.205 h -3.807 v -4.276 h 3.807 v -5.5 l 6.016,-0.704 v 6.203 h 6.063 l -0.658,4.276 h -5.404 v 13.019 c 0,2.444 0.799,3.431 2.632,3.431 0.987,0 1.88,-0.282 2.96,-0.939 z"
           id="path8" />
        <path
           style="fill:#3c7532"
           inkscape:connector-curvature="0"
           d="m 240.801,28.215 c 0.47,4.7 2.773,6.721 6.109,6.721 2.115,0 3.901,-0.611 6.016,-2.303 l 2.585,3.618 c -2.35,1.928 -5.357,3.243 -8.977,3.243 -7.989,0 -11.984,-5.404 -11.984,-13.112 0,-7.426 3.995,-13.159 11.185,-13.159 6.814,0 10.81,4.7 10.81,12.549 0,0.799 -0.094,1.785 -0.141,2.443 z m -0.046,-3.9 h 9.822 c -0.047,-4.277 -1.363,-6.814 -4.794,-6.814 -2.867,0 -4.699,2.114 -5.028,6.814 z"
           id="path10" />
        <path
           style="fill:#3c7532"
           inkscape:connector-curvature="0"
           d="M 260.588,38.79 V 13.928 h 5.311 l 0.563,4.7 c 1.269,-3.384 3.525,-5.358 6.392,-5.358 0.893,0 1.692,0.095 2.491,0.329 l -1.034,5.828 c -0.752,-0.188 -1.363,-0.282 -2.209,-0.282 -3.055,0 -4.699,2.819 -5.499,6.156 V 38.79 Z"
           id="path12" />
        <path
           style="fill:#58b032"
           inkscape:connector-curvature="0"
           d="M 302.793,4.811 301.43,7.96 c -1.598,-0.705 -3.055,-0.939 -4.324,-0.939 -2.726,0 -3.666,1.175 -3.666,3.571 v 3.431 h 6.016 l -0.47,3.337 h -5.546 v 21.43 h -4.324 V 17.359 h -3.948 v -3.337 h 3.948 v -3.384 c 0,-4.136 2.726,-7.097 7.755,-7.097 2.35,10e-4 3.948,0.424 5.922,1.27 z"
           id="path14" />
        <path
           style="fill:#58b032"
           inkscape:connector-curvature="0"
           d="m 310.219,13.459 c 7.05,0 10.998,5.075 10.998,12.924 0,7.661 -4.042,12.972 -11.044,12.972 -7.05,0 -11.044,-5.076 -11.044,-12.925 -0.001,-7.661 4.041,-12.971 11.09,-12.971 z m 0,3.477 c -4.136,0 -6.438,3.008 -6.438,9.493 0,6.438 2.256,9.446 6.392,9.446 4.136,0 6.392,-3.008 6.392,-9.493 -10e-4,-6.438 -2.257,-9.446 -6.346,-9.446 z"
           id="path16" />
        <path
           style="fill:#58b032"
           inkscape:connector-curvature="0"
           d="M 325.682,38.79 V 14.022 h 3.76 l 0.517,4.747 c 1.41,-3.478 3.572,-5.311 6.486,-5.311 0.799,0 1.692,0.094 2.444,0.282 l -0.799,4.229 c -0.752,-0.188 -1.269,-0.282 -2.162,-0.282 -3.102,0 -5.076,3.148 -5.921,6.58 V 38.79 Z"
           id="path18" />
        <path
           style="fill:#58b032"
           inkscape:connector-curvature="0"
           d="m 363.093,37.662 c -1.504,1.128 -3.478,1.692 -5.545,1.692 -4.606,0 -6.674,-2.914 -6.674,-7.19 V 17.312 h -3.948 v -3.29 h 3.948 V 8.429 l 4.324,-0.517 v 6.109 h 6.251 l -0.517,3.29 h -5.734 v 14.804 c 0,2.491 0.799,3.666 2.961,3.666 1.081,0 2.068,-0.329 3.29,-1.081 z"
           id="path20" />
        <path
           style="fill:#58b032"
           inkscape:connector-curvature="0"
           d="M 365.162,38.79 V 4.106 l 4.323,-0.47 v 13.535 c 1.974,-2.351 4.7,-3.713 7.614,-3.713 4.793,0 6.721,2.726 6.721,7.331 v 18 h -4.324 V 21.072 c 0,-2.961 -1.034,-4.229 -3.854,-4.229 -2.679,0 -4.84,2.067 -6.157,3.994 V 38.79 Z"
           id="path22" />
        <path
           style="fill:#58b032"
           inkscape:connector-curvature="0"
           d="m 392.703,27.886 c 0.376,5.499 2.914,7.942 6.673,7.942 2.256,0 4.089,-0.563 6.204,-2.303 l 1.974,2.867 c -2.303,1.833 -5.076,2.961 -8.271,2.961 -7.379,0 -11.186,-5.217 -11.186,-12.925 0,-7.473 3.901,-12.971 10.48,-12.971 6.485,0 10.01,4.652 10.01,12.219 0,0.847 -0.047,1.646 -0.094,2.209 h -15.79 z m 0,-3.195 h 11.608 c -0.094,-5.123 -1.88,-7.802 -5.733,-7.802 -3.384,0 -5.546,2.491 -5.875,7.802 z"
           id="path24" />
        <path
           style="fill:#3c7532"
           inkscape:connector-curvature="0"
           d="m 164.897,71.788 2.961,3.76 c -2.162,2.067 -5.499,3.947 -10.151,3.947 -8.271,0 -14.052,-5.969 -14.052,-17.013 0,-10.903 6.25,-16.872 14.099,-16.872 4.277,0 7.049,1.222 9.681,3.431 l -3.195,3.713 c -1.833,-1.551 -3.807,-2.35 -6.11,-2.35 -4.417,0 -7.942,3.337 -7.942,12.078 0,8.554 3.336,12.031 7.801,12.031 3.195,0 5.216,-1.316 6.908,-2.725 z"
           id="path26" />
        <path
           style="fill:#3c7532"
           inkscape:connector-curvature="0"
           d="m 176.459,53.928 v 17.248 c 0,1.927 0.376,3.666 2.726,3.666 2.303,0 3.854,-1.27 5.169,-3.103 V 53.928 h 6.016 V 78.79 h -5.216 l -0.329,-3.102 c -1.833,2.491 -4.606,3.807 -7.52,3.807 -4.793,0 -6.862,-2.914 -6.862,-7.566 v -18 h 6.016 z"
           id="path28" />
        <path
           style="fill:#3c7532"
           inkscape:connector-curvature="0"
           d="m 204.706,78.649 c -1.175,0.47 -2.679,0.846 -4.183,0.846 -3.572,0 -5.921,-2.067 -5.921,-6.674 V 43.965 l 6.016,-0.658 v 29.42 c 0,1.41 0.47,1.927 1.363,1.927 0.517,0 1.034,-0.094 1.41,-0.234 z"
           id="path30" />
        <path
           style="fill:#3c7532"
           inkscape:connector-curvature="0"
           d="m 221.578,77.615 c -1.691,1.269 -4.088,1.88 -6.203,1.88 -5.546,-0.047 -7.52,-3.195 -7.52,-8.271 V 58.205 h -3.807 v -4.276 h 3.807 V 48.43 l 6.016,-0.704 v 6.203 h 6.063 l -0.658,4.276 h -5.404 v 13.019 c 0,2.444 0.799,3.431 2.632,3.431 0.987,0 1.88,-0.282 2.96,-0.939 z"
           id="path32" />
        <path
           style="fill:#3c7532"
           inkscape:connector-curvature="0"
           d="m 226.749,48.711 c -2.256,0 -3.807,-1.598 -3.807,-3.666 0,-2.021 1.551,-3.618 3.807,-3.618 2.209,0 3.807,1.598 3.807,3.618 -0.001,2.069 -1.598,3.666 -3.807,3.666 z M 223.741,78.79 V 53.928 h 6.016 V 78.79 Z"
           id="path34" />
        <path
           style="fill:#3c7532"
           inkscape:connector-curvature="0"
           d="m 247.334,78.79 h -7.049 l -8.271,-24.861 h 6.485 l 5.311,19.786 h 0.188 l 5.405,-19.786 h 6.157 z"
           id="path36" />
        <path
           style="fill:#3c7532"
           inkscape:connector-curvature="0"
           d="m 275.674,72.351 c 0,1.88 0.517,2.585 1.739,3.055 l -1.316,3.995 c -2.632,-0.235 -4.417,-1.175 -5.358,-3.337 -1.786,2.35 -4.559,3.431 -7.566,3.431 -5.076,0 -8.177,-3.148 -8.177,-7.802 0,-5.264 4.183,-8.225 11.796,-8.225 h 3.055 v -1.409 c 0,-3.149 -1.457,-4.23 -4.935,-4.23 -1.598,0 -3.948,0.376 -6.486,1.27 l -1.457,-4.136 c 3.149,-1.175 6.298,-1.739 8.835,-1.739 7.003,0 9.87,3.008 9.87,8.46 z m -5.828,-0.282 v -4.981 h -2.115 c -4.652,0 -6.297,1.551 -6.297,4.276 0,2.444 1.128,3.76 3.619,3.76 1.974,0 3.619,-1.128 4.793,-3.055 z"
           id="path38" />
        <path
           style="fill:#3c7532"
           inkscape:connector-curvature="0"
           d="m 295.791,77.615 c -1.692,1.269 -4.089,1.88 -6.204,1.88 -5.545,-0.047 -7.52,-3.195 -7.52,-8.271 V 58.205 h -3.807 v -4.276 h 3.807 V 48.43 l 6.016,-0.704 v 6.203 h 6.063 l -0.658,4.276 h -5.405 v 13.019 c 0,2.444 0.799,3.431 2.632,3.431 0.987,0 1.88,-0.282 2.961,-0.939 z"
           id="path40" />
        <path
           style="fill:#3c7532"
           inkscape:connector-curvature="0"
           d="m 300.961,48.711 c -2.256,0 -3.807,-1.598 -3.807,-3.666 0,-2.021 1.551,-3.618 3.807,-3.618 2.209,0 3.807,1.598 3.807,3.618 -10e-4,2.069 -1.598,3.666 -3.807,3.666 z M 297.953,78.79 V 53.928 h 6.016 V 78.79 Z"
           id="path42" />
        <path
           style="fill:#3c7532"
           inkscape:connector-curvature="0"
           d="m 319.901,53.223 c 7.379,0 11.655,5.17 11.655,13.112 0,7.989 -4.324,13.159 -11.702,13.159 -7.378,0 -11.702,-4.981 -11.702,-13.159 0,-7.801 4.371,-13.112 11.749,-13.112 z m 0,4.559 c -3.524,0 -5.452,2.679 -5.452,8.554 0,5.969 1.88,8.601 5.405,8.601 3.572,0 5.405,-2.632 5.405,-8.601 0,-5.875 -1.833,-8.554 -5.358,-8.554 z"
           id="path44" />
        <path
           style="fill:#3c7532"
           inkscape:connector-curvature="0"
           d="m 350.122,61.212 c 0,-2.49 -0.94,-3.478 -3.055,-3.478 -2.068,0 -3.76,1.598 -5.123,3.478 V 78.79 h -6.016 V 53.928 h 5.216 l 0.423,3.102 c 2.115,-2.49 4.888,-3.807 7.801,-3.807 4.606,0 6.768,2.726 6.768,7.379 V 78.79 H 350.12 V 61.212 Z"
           id="path46" />
        <path
           style="fill:#58b032"
           inkscape:connector-curvature="0"
           d="m 383.022,53.459 c 7.05,0 10.998,5.075 10.998,12.924 0,7.661 -4.042,12.972 -11.044,12.972 -7.049,0 -11.044,-5.076 -11.044,-12.925 -0.002,-7.661 4.04,-12.971 11.09,-12.971 z m 0,3.477 c -4.136,0 -6.438,3.008 -6.438,9.493 0,6.438 2.256,9.446 6.392,9.446 4.136,0 6.392,-3.008 6.392,-9.493 -0.002,-6.438 -2.257,-9.446 -6.346,-9.446 z"
           id="path48" />
        <path
           style="fill:#58b032"
           inkscape:connector-curvature="0"
           d="m 412.961,44.811 -1.363,3.148 C 410,47.254 408.543,47.02 407.274,47.02 c -2.726,0 -3.666,1.175 -3.666,3.571 v 3.431 h 6.016 l -0.47,3.337 h -5.546 V 78.79 h -4.324 V 57.359 h -3.948 v -3.337 h 3.948 v -3.384 c 0,-4.136 2.726,-7.097 7.754,-7.097 2.351,0.001 3.949,0.424 5.923,1.27 z"
           id="path50" />
        <path
           style="fill:#3c7532"
           inkscape:connector-curvature="0"
           d="m 157.048,91.25 v 27.54 h -6.25 V 91.25 h -8.835 v -4.935 h 24.157 l -0.658,4.935 z"
           id="path52" />
        <path
           style="fill:#3c7532"
           inkscape:connector-curvature="0"
           d="m 169.88,108.215 c 0.47,4.7 2.773,6.721 6.109,6.721 2.115,0 3.901,-0.611 6.016,-2.303 l 2.585,3.618 c -2.35,1.928 -5.357,3.243 -8.977,3.243 -7.989,0 -11.984,-5.404 -11.984,-13.112 0,-7.426 3.995,-13.159 11.185,-13.159 6.814,0 10.81,4.7 10.81,12.549 0,0.799 -0.094,1.785 -0.141,2.443 z m -0.047,-3.9 h 9.822 c -0.047,-4.277 -1.363,-6.814 -4.794,-6.814 -2.867,0 -4.699,2.114 -5.028,6.814 z"
           id="path54" />
        <path
           style="fill:#3c7532"
           inkscape:connector-curvature="0"
           d="m 205.129,112.68 2.773,3.947 c -2.35,1.88 -4.981,2.867 -7.942,2.867 -7.754,0 -11.89,-5.217 -11.89,-13.019 0,-7.613 4.229,-13.253 11.796,-13.253 3.055,0 5.687,0.894 8.037,2.914 l -2.726,3.666 c -1.833,-1.41 -3.337,-1.833 -5.029,-1.833 -3.572,0 -5.687,2.538 -5.687,8.506 0,6.016 2.162,8.131 5.64,8.131 1.691,0.001 3.148,-0.516 5.028,-1.926 z"
           id="path56" />
        <path
           style="fill:#3c7532"
           inkscape:connector-curvature="0"
           d="M 210.91,118.79 V 84.012 l 6.016,-0.611 v 13.348 c 2.021,-2.256 4.559,-3.525 7.425,-3.525 4.606,0 6.768,2.726 6.768,7.379 v 18.188 h -6.016 v -17.577 c 0,-2.49 -0.94,-3.478 -3.055,-3.478 -2.068,0 -3.76,1.598 -5.123,3.478 v 17.577 h -6.015 z"
           id="path58" />
        <path
           style="fill:#3c7532"
           inkscape:connector-curvature="0"
           d="m 250.154,101.212 c 0,-2.49 -0.94,-3.478 -3.055,-3.478 -2.068,0 -3.76,1.598 -5.123,3.478 v 17.577 H 235.96 V 93.928 h 5.216 l 0.423,3.102 c 2.115,-2.49 4.888,-3.807 7.801,-3.807 4.606,0 6.768,2.726 6.768,7.379 v 18.188 h -6.016 v -17.578 z"
           id="path60" />
        <path
           style="fill:#3c7532"
           inkscape:connector-curvature="0"
           d="m 272.009,93.223 c 7.379,0 11.655,5.17 11.655,13.112 0,7.989 -4.324,13.159 -11.702,13.159 -7.378,0 -11.702,-4.981 -11.702,-13.159 0,-7.801 4.371,-13.112 11.749,-13.112 z m 0,4.559 c -3.524,0 -5.452,2.679 -5.452,8.554 0,5.969 1.88,8.601 5.405,8.601 3.572,0 5.405,-2.632 5.405,-8.601 0,-5.875 -1.833,-8.554 -5.358,-8.554 z"
           id="path62" />
        <path
           style="fill:#3c7532"
           inkscape:connector-curvature="0"
           d="m 297.765,118.649 c -1.175,0.47 -2.679,0.846 -4.183,0.846 -3.572,0 -5.921,-2.067 -5.921,-6.674 V 83.965 l 6.016,-0.658 v 29.42 c 0,1.41 0.47,1.927 1.363,1.927 0.517,0 1.034,-0.094 1.41,-0.234 z"
           id="path64" />
        <path
           style="fill:#3c7532"
           inkscape:connector-curvature="0"
           d="m 310.22,93.223 c 7.379,0 11.655,5.17 11.655,13.112 0,7.989 -4.324,13.159 -11.702,13.159 -7.378,0 -11.702,-4.981 -11.702,-13.159 0,-7.801 4.371,-13.112 11.749,-13.112 z m 0,4.559 c -3.524,0 -5.452,2.679 -5.452,8.554 0,5.969 1.88,8.601 5.405,8.601 3.572,0 5.405,-2.632 5.405,-8.601 0,-5.875 -1.833,-8.554 -5.358,-8.554 z"
           id="path66" />
        <path
           style="fill:#3c7532"
           inkscape:connector-curvature="0"
           d="m 328.786,121.234 c 0,2.772 2.021,3.571 6.016,3.571 5.076,0 6.298,-1.504 6.298,-3.242 0,-1.739 -0.893,-3.008 -4.371,-3.008 h -3.524 c -4.7,0 -7.19,-1.975 -7.19,-4.888 0,-1.692 0.987,-3.337 2.632,-4.465 -2.585,-1.504 -4.042,-3.666 -4.042,-7.238 0,-5.687 4.794,-8.741 10.292,-8.741 5.357,0 8.789,-1.269 11.608,-2.772 l 1.598,4.794 c -1.974,0.704 -4.417,0.846 -7.097,0.846 v 0.188 c 2.585,1.128 4.183,3.196 4.183,6.204 0,4.794 -3.76,8.365 -9.964,8.365 -1.081,0 -2.162,-0.141 -3.195,-0.376 -0.423,0.423 -0.752,1.128 -0.752,1.786 0,1.315 0.752,1.786 3.76,1.786 h 2.443 c 6.157,0 9.682,2.726 9.682,7.144 0,5.216 -4.981,7.848 -12.454,7.848 -8.318,0 -11.326,-2.819 -11.326,-7.707 v -0.094 h 5.403 z m 6.251,-14.334 c 2.819,0 4.323,-1.833 4.323,-4.841 0,-3.055 -1.41,-4.7 -4.323,-4.7 -2.82,0 -4.418,1.927 -4.418,4.747 0,2.914 1.645,4.794 4.418,4.794 z"
           id="path68" />
        <path
           style="fill:#3c7532"
           inkscape:connector-curvature="0"
           d="m 362.108,118.883 c -1.88,5.781 -5.546,9.635 -12.83,10.151 l -0.752,-4.37 c 4.981,-0.752 6.721,-2.397 7.942,-5.875 h -2.021 l -7.848,-24.861 h 6.392 l 5.264,20.491 h 0.188 l 5.499,-20.491 h 6.204 z"
           id="path70" />
      </g>
      <g
         id="g76">
        <path
           style="fill:#58b032"
           inkscape:connector-curvature="0"
           d="M 80.419,88.484 V 62.551 c 6.439,-1.562 11.241,-7.36 11.241,-14.272 0,-8.106 -6.594,-14.7 -14.7,-14.7 -2.801,0 -5.412,0.801 -7.642,2.167 L 58.364,24.791 c 1.365,-2.23 2.167,-4.841 2.167,-7.642 0,-8.106 -6.594,-14.7 -14.7,-14.7 -8.106,0 -14.7,6.595 -14.7,14.7 0,2.801 0.802,5.412 2.167,7.642 L 22.342,35.745 C 20.112,34.38 17.501,33.578 14.7,33.578 6.594,33.578 0,40.173 0,48.278 0,55.191 4.802,60.988 11.241,62.55 V 88.483 C 4.802,90.046 0,95.843 0,102.756 c 0,8.106 6.594,14.7 14.7,14.7 6.913,0 12.71,-4.802 14.272,-11.241 h 33.715 c 1.562,6.439 7.36,11.241 14.272,11.241 8.106,0 14.7,-6.595 14.7,-14.7 10e-4,-6.912 -4.801,-12.71 -11.24,-14.272 z m -3.459,22.055 c -4.298,0 -7.782,-3.484 -7.782,-7.782 0,-4.298 3.484,-7.782 7.782,-7.782 4.298,0 7.782,3.484 7.782,7.782 0,4.298 -3.484,7.782 -7.782,7.782 z M 52.415,85.679 c 0,0 4.82,-1.077 7.647,-5.218 2.829,-4.14 1.826,-13.559 1.826,-13.559 0,0 -7.86,2.149 -10.867,6.16 -1.553,2.071 -1.998,4.003 -2.052,4.258 0.026,-0.413 0.026,-3.743 -2.762,-7.272 C 41.864,64.555 29.6,63.011 29.6,63.011 c 0,0 0.626,12.449 5.025,17.897 4.399,5.447 12.825,4.769 12.825,4.769 0.738,3.266 1.254,8.254 0.71,13.621 H 28.972 C 27.68,93.97 23.487,89.777 18.159,88.485 V 62.551 c 5.328,-1.292 9.521,-5.485 10.813,-10.813 h 33.715 c 1.292,5.328 5.486,9.521 10.813,10.813 v 25.933 c -5.328,1.292 -9.521,5.485 -10.813,10.813 h -9.746 c 0.601,-5.375 0.192,-9.999 -0.526,-13.618 z m -29.932,17.077 c 0,4.298 -3.484,7.782 -7.782,7.782 -4.298,0 -7.782,-3.484 -7.782,-7.782 0,-4.298 3.484,-7.782 7.782,-7.782 4.298,0 7.782,3.484 7.782,7.782 z M 6.918,48.279 c 0,-4.298 3.484,-7.782 7.782,-7.782 4.298,0 7.782,3.484 7.782,7.782 0,4.298 -3.484,7.782 -7.782,7.782 -4.298,0 -7.782,-3.484 -7.782,-7.782 z m 31.13,-31.13 c 0,-4.298 3.484,-7.782 7.782,-7.782 4.298,0 7.782,3.484 7.782,7.782 0,4.298 -3.484,7.782 -7.782,7.782 -4.298,0 -7.782,-3.484 -7.782,-7.782 z m 7.782,14.7 c 2.801,0 5.412,-0.802 7.642,-2.167 l 10.954,10.954 c -0.784,1.28 -1.375,2.686 -1.739,4.183 H 28.972 C 28.609,43.321 28.017,41.916 27.234,40.636 L 38.188,29.682 c 2.23,1.366 4.841,2.167 7.642,2.167 z m 38.912,16.43 c 0,4.298 -3.484,7.782 -7.782,7.782 -4.298,0 -7.782,-3.484 -7.782,-7.782 0,-4.298 3.484,-7.782 7.782,-7.782 4.298,-10e-4 7.782,3.484 7.782,7.782 z"
           id="path74" />
      </g>
      <g
         id="g80">
        <rect
           style="fill:#58b032"
           x="115.206"
           y="0"
           width="5.9120002"
           height="121.786"
           id="rect78" />
      </g>
    </g>
  </g>
</svg>
