<?xml version="1.0" encoding="utf-8"?>
<!-- Generator: Adobe Illustrator 17.0.0, SVG Export Plug-In . SVG Version: 6.00 Build 0)  -->
<!DOCTYPE svg PUBLIC "-//W3C//DTD SVG 1.1//EN" "http://www.w3.org/Graphics/SVG/1.1/DTD/svg11.dtd">
<svg version="1.1" id="Layer_1" xmlns="http://www.w3.org/2000/svg" xmlns:xlink="http://www.w3.org/1999/xlink" x="0px" y="0px"
	 width="412.961px" height="129.035px" viewBox="0 0 412.961 129.035" enable-background="new 0 0 412.961 129.035"
	 xml:space="preserve">
<g>
	<g>
		<path fill="#3C7532" d="M164.897,31.788l2.961,3.76c-2.162,2.067-5.499,3.947-10.151,3.947c-8.271,0-14.052-5.969-14.052-17.013
			c0-10.903,6.25-16.872,14.099-16.872c4.277,0,7.049,1.222,9.681,3.431l-3.195,3.713c-1.833-1.551-3.807-2.35-6.11-2.35
			c-4.417,0-7.942,3.337-7.942,12.078c0,8.554,3.336,12.031,7.801,12.031C161.184,34.513,163.205,33.197,164.897,31.788z"/>
		<path fill="#3C7532" d="M175.237,28.215c0.47,4.7,2.773,6.721,6.109,6.721c2.115,0,3.901-0.611,6.016-2.303l2.585,3.618
			c-2.35,1.928-5.357,3.243-8.977,3.243c-7.989,0-11.984-5.404-11.984-13.112c0-7.426,3.995-13.159,11.185-13.159
			c6.814,0,10.81,4.7,10.81,12.549c0,0.799-0.094,1.785-0.141,2.443H175.237z M175.19,24.315h9.822
			c-0.047-4.277-1.363-6.814-4.794-6.814C177.352,17.501,175.519,19.615,175.19,24.315z"/>
		<path fill="#3C7532" d="M208.371,21.212c0-2.49-0.94-3.478-3.055-3.478c-2.068,0-3.76,1.598-5.123,3.478V38.79h-6.016V13.928
			h5.217l0.423,3.102c2.115-2.49,4.888-3.807,7.801-3.807c4.606,0,6.768,2.726,6.768,7.379V38.79h-6.016V21.212z"/>
		<path fill="#3C7532" d="M234.409,37.615c-1.691,1.269-4.088,1.88-6.203,1.88c-5.546-0.047-7.52-3.195-7.52-8.271V18.205h-3.807
			v-4.276h3.807V8.429l6.016-0.704v6.203h6.063l-0.658,4.276h-5.404v13.019c0,2.444,0.799,3.431,2.632,3.431
			c0.987,0,1.88-0.282,2.96-0.939L234.409,37.615z"/>
		<path fill="#3C7532" d="M240.801,28.215c0.47,4.7,2.773,6.721,6.109,6.721c2.115,0,3.901-0.611,6.016-2.303l2.585,3.618
			c-2.35,1.928-5.357,3.243-8.977,3.243c-7.989,0-11.984-5.404-11.984-13.112c0-7.426,3.995-13.159,11.185-13.159
			c6.814,0,10.81,4.7,10.81,12.549c0,0.799-0.094,1.785-0.141,2.443H240.801z M240.755,24.315h9.822
			c-0.047-4.277-1.363-6.814-4.794-6.814C242.916,17.501,241.084,19.615,240.755,24.315z"/>
		<path fill="#3C7532" d="M260.588,38.79V13.928h5.311l0.563,4.7c1.269-3.384,3.525-5.358,6.392-5.358
			c0.893,0,1.692,0.095,2.491,0.329l-1.034,5.828c-0.752-0.188-1.363-0.282-2.209-0.282c-3.055,0-4.699,2.819-5.499,6.156V38.79
			H260.588z"/>
		<path fill="#58B032" d="M302.793,4.811L301.43,7.96c-1.598-0.705-3.055-0.939-4.324-0.939c-2.726,0-3.666,1.175-3.666,3.571v3.431
			h6.016l-0.47,3.337h-5.546V38.79h-4.324V17.359h-3.948v-3.337h3.948v-3.384c0-4.136,2.726-7.097,7.755-7.097
			C299.221,3.542,300.819,3.965,302.793,4.811z"/>
		<path fill="#58B032" d="M310.219,13.459c7.05,0,10.998,5.075,10.998,12.924c0,7.661-4.042,12.972-11.044,12.972
			c-7.05,0-11.044-5.076-11.044-12.925C299.128,18.769,303.17,13.459,310.219,13.459z M310.219,16.936
			c-4.136,0-6.438,3.008-6.438,9.493c0,6.438,2.256,9.446,6.392,9.446s6.392-3.008,6.392-9.493
			C316.564,19.944,314.308,16.936,310.219,16.936z"/>
		<path fill="#58B032" d="M325.682,38.79V14.022h3.76l0.517,4.747c1.41-3.478,3.572-5.311,6.486-5.311
			c0.799,0,1.692,0.094,2.444,0.282l-0.799,4.229c-0.752-0.188-1.269-0.282-2.162-0.282c-3.102,0-5.076,3.148-5.921,6.58V38.79
			H325.682z"/>
		<path fill="#58B032" d="M363.093,37.662c-1.504,1.128-3.478,1.692-5.545,1.692c-4.606,0-6.674-2.914-6.674-7.19V17.312h-3.948
			v-3.29h3.948V8.429l4.324-0.517v6.109h6.251l-0.517,3.29h-5.734v14.804c0,2.491,0.799,3.666,2.961,3.666
			c1.081,0,2.068-0.329,3.29-1.081L363.093,37.662z"/>
		<path fill="#58B032" d="M365.162,38.79V4.106l4.323-0.47v13.535c1.974-2.351,4.7-3.713,7.614-3.713
			c4.793,0,6.721,2.726,6.721,7.331v18h-4.324V21.072c0-2.961-1.034-4.229-3.854-4.229c-2.679,0-4.84,2.067-6.157,3.994V38.79
			H365.162z"/>
		<path fill="#58B032" d="M392.703,27.886c0.376,5.499,2.914,7.942,6.673,7.942c2.256,0,4.089-0.563,6.204-2.303l1.974,2.867
			c-2.303,1.833-5.076,2.961-8.271,2.961c-7.379,0-11.186-5.217-11.186-12.925c0-7.473,3.901-12.971,10.48-12.971
			c6.485,0,10.01,4.652,10.01,12.219c0,0.847-0.047,1.646-0.094,2.209H392.703z M392.703,24.691h11.608
			c-0.094-5.123-1.88-7.802-5.733-7.802C395.194,16.889,393.032,19.38,392.703,24.691z"/>
		<path fill="#3C7532" d="M164.897,71.788l2.961,3.76c-2.162,2.067-5.499,3.947-10.151,3.947c-8.271,0-14.052-5.969-14.052-17.013
			c0-10.903,6.25-16.872,14.099-16.872c4.277,0,7.049,1.222,9.681,3.431l-3.195,3.713c-1.833-1.551-3.807-2.35-6.11-2.35
			c-4.417,0-7.942,3.337-7.942,12.078c0,8.554,3.336,12.031,7.801,12.031C161.184,74.513,163.205,73.197,164.897,71.788z"/>
		<path fill="#3C7532" d="M176.459,53.928v17.248c0,1.927,0.376,3.666,2.726,3.666c2.303,0,3.854-1.27,5.169-3.103V53.928h6.016
			V78.79h-5.216l-0.329-3.102c-1.833,2.491-4.606,3.807-7.52,3.807c-4.793,0-6.862-2.914-6.862-7.566v-18H176.459z"/>
		<path fill="#3C7532" d="M204.706,78.649c-1.175,0.47-2.679,0.846-4.183,0.846c-3.572,0-5.921-2.067-5.921-6.674V43.965
			l6.016-0.658v29.42c0,1.41,0.47,1.927,1.363,1.927c0.517,0,1.034-0.094,1.41-0.234L204.706,78.649z"/>
		<path fill="#3C7532" d="M221.578,77.615c-1.691,1.269-4.088,1.88-6.203,1.88c-5.546-0.047-7.52-3.195-7.52-8.271V58.205h-3.807
			v-4.276h3.807v-5.499l6.016-0.704v6.203h6.063l-0.658,4.276h-5.404v13.019c0,2.444,0.799,3.431,2.632,3.431
			c0.987,0,1.88-0.282,2.96-0.939L221.578,77.615z"/>
		<path fill="#3C7532" d="M226.749,48.711c-2.256,0-3.807-1.598-3.807-3.666c0-2.021,1.551-3.618,3.807-3.618
			c2.209,0,3.807,1.598,3.807,3.618C230.555,47.114,228.958,48.711,226.749,48.711z M223.741,78.79V53.928h6.016V78.79H223.741z"/>
		<path fill="#3C7532" d="M247.334,78.79h-7.049l-8.271-24.861h6.485l5.311,19.786h0.188l5.405-19.786h6.157L247.334,78.79z"/>
		<path fill="#3C7532" d="M275.674,72.351c0,1.88,0.517,2.585,1.739,3.055l-1.316,3.995c-2.632-0.235-4.417-1.175-5.358-3.337
			c-1.786,2.35-4.559,3.431-7.566,3.431c-5.076,0-8.177-3.148-8.177-7.802c0-5.264,4.183-8.225,11.796-8.225h3.055v-1.409
			c0-3.149-1.457-4.23-4.935-4.23c-1.598,0-3.948,0.376-6.486,1.27l-1.457-4.136c3.149-1.175,6.298-1.739,8.835-1.739
			c7.003,0,9.87,3.008,9.87,8.46V72.351z M269.846,72.069v-4.981h-2.115c-4.652,0-6.297,1.551-6.297,4.276
			c0,2.444,1.128,3.76,3.619,3.76C267.027,75.124,268.672,73.996,269.846,72.069z"/>
		<path fill="#3C7532" d="M295.791,77.615c-1.692,1.269-4.089,1.88-6.204,1.88c-5.545-0.047-7.52-3.195-7.52-8.271V58.205h-3.807
			v-4.276h3.807v-5.499l6.016-0.704v6.203h6.063l-0.658,4.276h-5.405v13.019c0,2.444,0.799,3.431,2.632,3.431
			c0.987,0,1.88-0.282,2.961-0.939L295.791,77.615z"/>
		<path fill="#3C7532" d="M300.961,48.711c-2.256,0-3.807-1.598-3.807-3.666c0-2.021,1.551-3.618,3.807-3.618
			c2.209,0,3.807,1.598,3.807,3.618C304.767,47.114,303.17,48.711,300.961,48.711z M297.953,78.79V53.928h6.016V78.79H297.953z"/>
		<path fill="#3C7532" d="M319.901,53.223c7.379,0,11.655,5.17,11.655,13.112c0,7.989-4.324,13.159-11.702,13.159
			s-11.702-4.981-11.702-13.159C308.152,58.534,312.523,53.223,319.901,53.223z M319.901,57.782c-3.524,0-5.452,2.679-5.452,8.554
			c0,5.969,1.88,8.601,5.405,8.601c3.572,0,5.405-2.632,5.405-8.601C325.259,60.461,323.426,57.782,319.901,57.782z"/>
		<path fill="#3C7532" d="M350.122,61.212c0-2.49-0.94-3.478-3.055-3.478c-2.068,0-3.76,1.598-5.123,3.478V78.79h-6.016V53.928
			h5.216l0.423,3.102c2.115-2.49,4.888-3.807,7.801-3.807c4.606,0,6.768,2.726,6.768,7.379V78.79h-6.016V61.212z"/>
		<path fill="#58B032" d="M383.022,53.459c7.05,0,10.998,5.075,10.998,12.924c0,7.661-4.042,12.972-11.044,12.972
			c-7.049,0-11.044-5.076-11.044-12.925C371.93,58.769,375.972,53.459,383.022,53.459z M383.022,56.936
			c-4.136,0-6.438,3.008-6.438,9.493c0,6.438,2.256,9.446,6.392,9.446s6.392-3.008,6.392-9.493
			C389.366,59.944,387.111,56.936,383.022,56.936z"/>
		<path fill="#58B032" d="M412.961,44.811l-1.363,3.148c-1.598-0.705-3.055-0.939-4.324-0.939c-2.726,0-3.666,1.175-3.666,3.571
			v3.431h6.016l-0.47,3.337h-5.546V78.79h-4.324V57.359h-3.948v-3.337h3.948v-3.384c0-4.136,2.726-7.097,7.754-7.097
			C409.389,43.542,410.987,43.965,412.961,44.811z"/>
		<path fill="#3C7532" d="M157.048,91.25v27.54h-6.25V91.25h-8.835v-4.935h24.157l-0.658,4.935H157.048z"/>
		<path fill="#3C7532" d="M169.88,108.215c0.47,4.7,2.773,6.721,6.109,6.721c2.115,0,3.901-0.611,6.016-2.303l2.585,3.618
			c-2.35,1.928-5.357,3.243-8.977,3.243c-7.989,0-11.984-5.404-11.984-13.112c0-7.426,3.995-13.159,11.185-13.159
			c6.814,0,10.81,4.7,10.81,12.549c0,0.799-0.094,1.785-0.141,2.443H169.88z M169.833,104.315h9.822
			c-0.047-4.277-1.363-6.814-4.794-6.814C171.994,97.501,170.162,99.615,169.833,104.315z"/>
		<path fill="#3C7532" d="M205.129,112.68l2.773,3.947c-2.35,1.88-4.981,2.867-7.942,2.867c-7.754,0-11.89-5.217-11.89-13.019
			c0-7.613,4.229-13.253,11.796-13.253c3.055,0,5.687,0.894,8.037,2.914l-2.726,3.666c-1.833-1.41-3.337-1.833-5.029-1.833
			c-3.572,0-5.687,2.538-5.687,8.506c0,6.016,2.162,8.131,5.64,8.131C201.792,114.607,203.249,114.09,205.129,112.68z"/>
		<path fill="#3C7532" d="M210.91,118.79V84.012l6.016-0.611v13.348c2.021-2.256,4.559-3.525,7.425-3.525
			c4.606,0,6.768,2.726,6.768,7.379v18.188h-6.016v-17.577c0-2.49-0.94-3.478-3.055-3.478c-2.068,0-3.76,1.598-5.123,3.478v17.577
			H210.91z"/>
		<path fill="#3C7532" d="M250.154,101.212c0-2.49-0.94-3.478-3.055-3.478c-2.068,0-3.76,1.598-5.123,3.478v17.577h-6.016V93.928
			h5.216l0.423,3.102c2.115-2.49,4.888-3.807,7.801-3.807c4.606,0,6.768,2.726,6.768,7.379v18.188h-6.016V101.212z"/>
		<path fill="#3C7532" d="M272.009,93.223c7.379,0,11.655,5.17,11.655,13.112c0,7.989-4.324,13.159-11.702,13.159
			s-11.702-4.981-11.702-13.159C260.26,98.534,264.631,93.223,272.009,93.223z M272.009,97.782c-3.524,0-5.452,2.679-5.452,8.554
			c0,5.969,1.88,8.601,5.405,8.601c3.572,0,5.405-2.632,5.405-8.601C277.367,100.461,275.534,97.782,272.009,97.782z"/>
		<path fill="#3C7532" d="M297.765,118.649c-1.175,0.47-2.679,0.846-4.183,0.846c-3.572,0-5.921-2.067-5.921-6.674V83.965
			l6.016-0.658v29.42c0,1.41,0.47,1.927,1.363,1.927c0.517,0,1.034-0.094,1.41-0.234L297.765,118.649z"/>
		<path fill="#3C7532" d="M310.22,93.223c7.379,0,11.655,5.17,11.655,13.112c0,7.989-4.324,13.159-11.702,13.159
			s-11.702-4.981-11.702-13.159C298.471,98.534,302.842,93.223,310.22,93.223z M310.22,97.782c-3.524,0-5.452,2.679-5.452,8.554
			c0,5.969,1.88,8.601,5.405,8.601c3.572,0,5.405-2.632,5.405-8.601C315.578,100.461,313.745,97.782,310.22,97.782z"/>
		<path fill="#3C7532" d="M328.786,121.234c0,2.772,2.021,3.571,6.016,3.571c5.076,0,6.298-1.504,6.298-3.242
			c0-1.739-0.893-3.008-4.371-3.008h-3.524c-4.7,0-7.19-1.975-7.19-4.888c0-1.692,0.987-3.337,2.632-4.465
			c-2.585-1.504-4.042-3.666-4.042-7.238c0-5.687,4.794-8.741,10.292-8.741c5.357,0,8.789-1.269,11.608-2.772l1.598,4.794
			c-1.974,0.704-4.417,0.846-7.097,0.846v0.188c2.585,1.128,4.183,3.196,4.183,6.204c0,4.794-3.76,8.365-9.964,8.365
			c-1.081,0-2.162-0.141-3.195-0.376c-0.423,0.423-0.752,1.128-0.752,1.786c0,1.315,0.752,1.786,3.76,1.786h2.443
			c6.157,0,9.682,2.726,9.682,7.144c0,5.216-4.981,7.848-12.454,7.848c-8.318,0-11.326-2.819-11.326-7.707v-0.094H328.786z
			 M335.037,106.9c2.819,0,4.323-1.833,4.323-4.841c0-3.055-1.41-4.7-4.323-4.7c-2.82,0-4.418,1.927-4.418,4.747
			C330.619,105.02,332.264,106.9,335.037,106.9z"/>
		<path fill="#3C7532" d="M362.108,118.883c-1.88,5.781-5.546,9.635-12.83,10.151l-0.752-4.37c4.981-0.752,6.721-2.397,7.942-5.875
			h-2.021l-7.848-24.861h6.392l5.264,20.491h0.188l5.499-20.491h6.204L362.108,118.883z"/>
	</g>
	<g>
		<path fill="#58B032" d="M80.419,88.484V62.551c6.439-1.562,11.241-7.36,11.241-14.272c0-8.106-6.594-14.7-14.7-14.7
			c-2.801,0-5.412,0.801-7.642,2.167L58.364,24.791c1.365-2.23,2.167-4.841,2.167-7.642c0-8.106-6.594-14.7-14.7-14.7
			s-14.7,6.595-14.7,14.7c0,2.801,0.802,5.412,2.167,7.642L22.342,35.745c-2.23-1.365-4.841-2.167-7.642-2.167
			c-8.106,0-14.7,6.595-14.7,14.7c0,6.913,4.802,12.71,11.241,14.272v25.933C4.802,90.046,0,95.843,0,102.756
			c0,8.106,6.594,14.7,14.7,14.7c6.913,0,12.71-4.802,14.272-11.241h33.715c1.562,6.439,7.36,11.241,14.272,11.241
			c8.106,0,14.7-6.595,14.7-14.7C91.66,95.844,86.858,90.046,80.419,88.484z M76.96,110.539c-4.298,0-7.782-3.484-7.782-7.782
			s3.484-7.782,7.782-7.782c4.298,0,7.782,3.484,7.782,7.782S81.258,110.539,76.96,110.539z M52.415,85.679
			c0,0,4.82-1.077,7.647-5.218c2.829-4.14,1.826-13.559,1.826-13.559s-7.86,2.149-10.867,6.16c-1.553,2.071-1.998,4.003-2.052,4.258
			c0.026-0.413,0.026-3.743-2.762-7.272C41.864,64.555,29.6,63.011,29.6,63.011s0.626,12.449,5.025,17.897
			c4.399,5.447,12.825,4.769,12.825,4.769c0.738,3.266,1.254,8.254,0.71,13.621H28.972c-1.292-5.328-5.485-9.521-10.813-10.813
			V62.551c5.328-1.292,9.521-5.485,10.813-10.813h33.715c1.292,5.328,5.486,9.521,10.813,10.813v25.933
			c-5.328,1.292-9.521,5.485-10.813,10.813h-9.746C53.542,93.922,53.133,89.298,52.415,85.679z M22.483,102.756
			c0,4.298-3.484,7.782-7.782,7.782s-7.782-3.484-7.782-7.782s3.484-7.782,7.782-7.782S22.483,98.458,22.483,102.756z M6.918,48.279
			c0-4.298,3.484-7.782,7.782-7.782s7.782,3.484,7.782,7.782s-3.484,7.782-7.782,7.782S6.918,52.577,6.918,48.279z M38.048,17.149
			c0-4.298,3.484-7.782,7.782-7.782s7.782,3.484,7.782,7.782s-3.484,7.782-7.782,7.782S38.048,21.447,38.048,17.149z M45.83,31.849
			c2.801,0,5.412-0.802,7.642-2.167l10.954,10.954c-0.784,1.28-1.375,2.686-1.739,4.183H28.972
			c-0.363-1.498-0.955-2.903-1.738-4.183l10.954-10.954C40.418,31.048,43.029,31.849,45.83,31.849z M84.742,48.279
			c0,4.298-3.484,7.782-7.782,7.782c-4.298,0-7.782-3.484-7.782-7.782s3.484-7.782,7.782-7.782
			C81.258,40.496,84.742,43.981,84.742,48.279z"/>
	</g>
	<g>
		<rect x="115.206" y="0" fill="#58B032" width="5.912" height="121.786"/>
	</g>
</g>
</svg>
