<?xml version="1.0" encoding="utf-8"?>
<!-- Generator: Adobe Illustrator 17.0.0, SVG Export Plug-In . SVG Version: 6.00 Build 0)  -->
<!DOCTYPE svg PUBLIC "-//W3C//DTD SVG 1.1//EN" "http://www.w3.org/Graphics/SVG/1.1/DTD/svg11.dtd">
<svg version="1.1" id="Layer_1" xmlns="http://www.w3.org/2000/svg" xmlns:xlink="http://www.w3.org/1999/xlink" x="0px" y="0px"
	 width="220.098px" height="266.428px" viewBox="0 0 220.098 266.428" enable-background="new 0 0 220.098 266.428"
	 xml:space="preserve">
<g>
	<g>
		<path fill="#3C7532" d="M18.627,187.446l2.405,3.054c-1.756,1.679-4.466,3.206-8.245,3.206c-6.718,0-11.413-4.848-11.413-13.817
			c0-8.855,5.076-13.703,11.451-13.703c3.474,0,5.725,0.992,7.863,2.786l-2.595,3.016c-1.489-1.26-3.092-1.908-4.962-1.908
			c-3.588,0-6.451,2.71-6.451,9.81c0,6.947,2.71,9.771,6.336,9.771C15.611,189.66,17.253,188.591,18.627,187.446z"/>
		<path fill="#3C7532" d="M27.025,184.545c0.382,3.817,2.252,5.458,4.962,5.458c1.718,0,3.168-0.497,4.886-1.87l2.099,2.939
			c-1.908,1.566-4.351,2.634-7.291,2.634c-6.489,0-9.733-4.389-9.733-10.649c0-6.031,3.244-10.688,9.084-10.688
			c5.535,0,8.779,3.817,8.779,10.192c0,0.649-0.077,1.45-0.115,1.984H27.025z M26.987,181.377h7.977
			c-0.038-3.474-1.107-5.535-3.894-5.535C28.743,175.842,27.254,177.56,26.987,181.377z"/>
		<path fill="#3C7532" d="M53.936,178.857c0-2.023-0.763-2.824-2.481-2.824c-1.679,0-3.054,1.298-4.16,2.824v14.276h-4.886v-20.192
			h4.237l0.343,2.519c1.718-2.022,3.97-3.092,6.336-3.092c3.741,0,5.496,2.214,5.496,5.993v14.771h-4.886V178.857z"/>
		<path fill="#3C7532" d="M75.083,192.179c-1.374,1.03-3.32,1.527-5.038,1.527c-4.504-0.038-6.107-2.595-6.107-6.718v-10.573h-3.092
			v-3.473h3.092v-4.466l4.886-0.572v5.038h4.924l-0.535,3.473h-4.389v10.573c0,1.985,0.649,2.786,2.138,2.786
			c0.801,0,1.527-0.229,2.404-0.763L75.083,192.179z"/>
		<path fill="#3C7532" d="M80.275,184.545c0.382,3.817,2.252,5.458,4.962,5.458c1.718,0,3.168-0.497,4.886-1.87l2.099,2.939
			c-1.908,1.566-4.351,2.634-7.291,2.634c-6.489,0-9.733-4.389-9.733-10.649c0-6.031,3.244-10.688,9.084-10.688
			c5.535,0,8.779,3.817,8.779,10.192c0,0.649-0.077,1.45-0.115,1.984H80.275z M80.237,181.377h7.977
			c-0.038-3.474-1.107-5.535-3.894-5.535C81.992,175.842,80.504,177.56,80.237,181.377z"/>
		<path fill="#3C7532" d="M96.345,193.133v-20.192h4.313l0.458,3.817c1.031-2.748,2.863-4.352,5.191-4.352
			c0.725,0,1.375,0.077,2.023,0.267l-0.84,4.733c-0.611-0.153-1.107-0.229-1.794-0.229c-2.481,0-3.817,2.29-4.466,5v10.955H96.345z"
			/>
		<path fill="#58B032" d="M130.623,165.536l-1.107,2.557c-1.298-0.573-2.481-0.763-3.512-0.763c-2.214,0-2.977,0.954-2.977,2.901
			v2.786h4.886l-0.382,2.71h-4.504v17.405h-3.512v-17.405h-3.206v-2.71h3.206v-2.748c0-3.359,2.214-5.764,6.298-5.764
			C127.722,164.505,129.02,164.85,130.623,165.536z"/>
		<path fill="#58B032" d="M136.654,172.56c5.726,0,8.932,4.122,8.932,10.496c0,6.222-3.283,10.535-8.97,10.535
			c-5.726,0-8.97-4.123-8.97-10.497C127.646,176.873,130.929,172.56,136.654,172.56z M136.654,175.384
			c-3.359,0-5.229,2.443-5.229,7.71c0,5.229,1.832,7.672,5.191,7.672c3.359,0,5.191-2.443,5.191-7.71
			C141.807,177.827,139.975,175.384,136.654,175.384z"/>
		<path fill="#58B032" d="M149.213,193.133v-20.116h3.054l0.42,3.855c1.145-2.824,2.901-4.313,5.268-4.313
			c0.649,0,1.374,0.076,1.985,0.229l-0.649,3.435c-0.611-0.153-1.03-0.229-1.756-0.229c-2.519,0-4.122,2.557-4.809,5.344v11.794
			H149.213z"/>
		<path fill="#58B032" d="M179.597,192.217c-1.221,0.916-2.824,1.375-4.504,1.375c-3.741,0-5.42-2.367-5.42-5.84v-12.062h-3.206
			v-2.672h3.206v-4.542l3.512-0.42v4.962h5.077l-0.42,2.672h-4.657v12.023c0,2.023,0.649,2.977,2.405,2.977
			c0.878,0,1.679-0.267,2.672-0.878L179.597,192.217z"/>
		<path fill="#58B032" d="M181.277,193.133v-28.169l3.511-0.382v10.993c1.603-1.909,3.817-3.016,6.184-3.016
			c3.893,0,5.458,2.214,5.458,5.954v14.619h-3.512v-14.39c0-2.405-0.84-3.435-3.13-3.435c-2.176,0-3.931,1.679-5,3.244v14.581
			H181.277z"/>
		<path fill="#58B032" d="M203.646,184.278c0.305,4.466,2.366,6.451,5.42,6.451c1.832,0,3.321-0.458,5.038-1.87l1.603,2.329
			c-1.87,1.489-4.122,2.405-6.718,2.405c-5.993,0-9.085-4.237-9.085-10.497c0-6.069,3.168-10.534,8.512-10.534
			c5.267,0,8.13,3.779,8.13,9.924c0,0.688-0.038,1.336-0.076,1.794H203.646z M203.646,181.682h9.428
			c-0.076-4.161-1.527-6.336-4.657-6.336C205.668,175.346,203.912,177.369,203.646,181.682z"/>
		<path fill="#3C7532" d="M18.627,219.933l2.405,3.054c-1.756,1.679-4.466,3.206-8.245,3.206c-6.718,0-11.413-4.848-11.413-13.817
			c0-8.855,5.076-13.703,11.451-13.703c3.474,0,5.725,0.992,7.863,2.786l-2.595,3.016c-1.489-1.26-3.092-1.908-4.962-1.908
			c-3.588,0-6.451,2.71-6.451,9.81c0,6.947,2.71,9.771,6.336,9.771C15.611,222.147,17.253,221.078,18.627,219.933z"/>
		<path fill="#3C7532" d="M28.017,205.428v14.008c0,1.565,0.305,2.977,2.214,2.977c1.87,0,3.13-1.031,4.198-2.52v-14.466h4.886
			v20.192h-4.237l-0.267-2.519c-1.489,2.023-3.741,3.092-6.107,3.092c-3.893,0-5.573-2.367-5.573-6.145v-14.619H28.017z"/>
		<path fill="#3C7532" d="M50.959,225.506c-0.955,0.382-2.176,0.687-3.397,0.687c-2.901,0-4.809-1.679-4.809-5.42v-23.436
			l4.886-0.535v23.894c0,1.145,0.382,1.565,1.107,1.565c0.42,0,0.84-0.076,1.145-0.19L50.959,225.506z"/>
		<path fill="#3C7532" d="M64.662,224.666c-1.374,1.03-3.32,1.527-5.038,1.527c-4.504-0.038-6.107-2.595-6.107-6.718v-10.573h-3.092
			v-3.473h3.092v-4.466l4.886-0.572v5.038h4.924l-0.535,3.473h-4.389v10.573c0,1.985,0.649,2.786,2.138,2.786
			c0.801,0,1.527-0.229,2.404-0.763L64.662,224.666z"/>
		<path fill="#3C7532" d="M68.862,201.191c-1.832,0-3.092-1.298-3.092-2.977c0-1.641,1.26-2.939,3.092-2.939
			c1.794,0,3.092,1.298,3.092,2.939C71.953,199.894,70.656,201.191,68.862,201.191z M66.419,225.62v-20.192h4.886v20.192H66.419z"/>
		<path fill="#3C7532" d="M85.58,225.62h-5.725l-6.718-20.192h5.267l4.313,16.07h0.153l4.39-16.07h5L85.58,225.62z"/>
		<path fill="#3C7532" d="M108.597,220.391c0,1.527,0.42,2.099,1.412,2.481l-1.069,3.245c-2.138-0.191-3.588-0.954-4.352-2.71
			c-1.45,1.908-3.702,2.786-6.145,2.786c-4.122,0-6.641-2.557-6.641-6.336c0-4.275,3.397-6.68,9.581-6.68h2.481v-1.145
			c0-2.558-1.183-3.436-4.008-3.436c-1.298,0-3.207,0.305-5.268,1.031l-1.183-3.359c2.557-0.954,5.115-1.413,7.176-1.413
			c5.688,0,8.016,2.443,8.016,6.871V220.391z M103.864,220.161v-4.046h-1.718c-3.779,0-5.115,1.26-5.115,3.473
			c0,1.985,0.916,3.054,2.939,3.054C101.574,222.642,102.91,221.726,103.864,220.161z"/>
		<path fill="#3C7532" d="M124.936,224.666c-1.375,1.03-3.321,1.527-5.039,1.527c-4.504-0.038-6.107-2.595-6.107-6.718v-10.573
			h-3.092v-3.473h3.092v-4.466l4.886-0.572v5.038h4.924l-0.535,3.473h-4.39v10.573c0,1.985,0.649,2.786,2.138,2.786
			c0.802,0,1.527-0.229,2.405-0.763L124.936,224.666z"/>
		<path fill="#3C7532" d="M129.135,201.191c-1.832,0-3.092-1.298-3.092-2.977c0-1.641,1.26-2.939,3.092-2.939
			c1.794,0,3.092,1.298,3.092,2.939C132.226,199.894,130.929,201.191,129.135,201.191z M126.692,225.62v-20.192h4.886v20.192
			H126.692z"/>
		<path fill="#3C7532" d="M144.517,204.855c5.993,0,9.466,4.199,9.466,10.649c0,6.489-3.512,10.688-9.504,10.688
			c-5.993,0-9.504-4.046-9.504-10.688C134.975,209.169,138.525,204.855,144.517,204.855z M144.517,208.558
			c-2.862,0-4.428,2.176-4.428,6.947c0,4.848,1.527,6.985,4.39,6.985c2.901,0,4.39-2.138,4.39-6.985
			C148.869,210.733,147.38,208.558,144.517,208.558z"/>
		<path fill="#3C7532" d="M169.062,211.344c0-2.023-0.763-2.824-2.481-2.824c-1.679,0-3.054,1.298-4.16,2.824v14.276h-4.886v-20.192
			h4.237l0.344,2.519c1.718-2.022,3.97-3.092,6.336-3.092c3.741,0,5.496,2.214,5.496,5.993v14.771h-4.886V211.344z"/>
		<path fill="#58B032" d="M195.782,205.047c5.726,0,8.932,4.122,8.932,10.496c0,6.222-3.283,10.535-8.97,10.535
			c-5.725,0-8.97-4.123-8.97-10.497C186.774,209.36,190.057,205.047,195.782,205.047z M195.782,207.871
			c-3.359,0-5.229,2.443-5.229,7.71c0,5.229,1.832,7.672,5.191,7.672s5.191-2.443,5.191-7.71
			C200.935,210.314,199.103,207.871,195.782,207.871z"/>
		<path fill="#58B032" d="M220.098,198.023l-1.107,2.557c-1.298-0.573-2.481-0.763-3.512-0.763c-2.214,0-2.977,0.954-2.977,2.901
			v2.786h4.886l-0.382,2.71h-4.504v17.405h-3.512v-17.405h-3.206v-2.71h3.206v-2.748c0-3.359,2.214-5.764,6.298-5.764
			C217.197,196.992,218.495,197.337,220.098,198.023z"/>
		<path fill="#3C7532" d="M12.252,235.74v22.367H7.176V235.74H0v-4.008h19.619l-0.535,4.008H12.252z"/>
		<path fill="#3C7532" d="M22.674,249.519c0.382,3.817,2.252,5.458,4.962,5.458c1.718,0,3.168-0.497,4.886-1.87l2.099,2.939
			c-1.908,1.566-4.351,2.634-7.291,2.634c-6.489,0-9.733-4.389-9.733-10.649c0-6.031,3.244-10.688,9.084-10.688
			c5.535,0,8.779,3.817,8.779,10.192c0,0.649-0.077,1.45-0.115,1.984H22.674z M22.636,246.351h7.977
			c-0.038-3.474-1.107-5.535-3.894-5.535C24.391,240.816,22.903,242.534,22.636,246.351z"/>
		<path fill="#3C7532" d="M51.302,253.145l2.252,3.206c-1.908,1.527-4.046,2.329-6.451,2.329c-6.298,0-9.657-4.237-9.657-10.573
			c0-6.183,3.435-10.764,9.58-10.764c2.481,0,4.619,0.726,6.527,2.367l-2.214,2.977c-1.489-1.145-2.71-1.489-4.084-1.489
			c-2.901,0-4.618,2.061-4.618,6.908c0,4.886,1.756,6.604,4.58,6.604C48.592,254.71,49.775,254.29,51.302,253.145z"/>
		<path fill="#3C7532" d="M55.998,258.107v-28.245l4.886-0.497v10.841c1.641-1.832,3.702-2.863,6.031-2.863
			c3.741,0,5.496,2.214,5.496,5.993v14.771h-4.886v-14.276c0-2.023-0.763-2.824-2.481-2.824c-1.679,0-3.054,1.298-4.16,2.824v14.276
			H55.998z"/>
		<path fill="#3C7532" d="M87.871,243.831c0-2.023-0.763-2.824-2.481-2.824c-1.679,0-3.054,1.298-4.16,2.824v14.276h-4.886v-20.192
			h4.237l0.344,2.519c1.718-2.023,3.97-3.092,6.336-3.092c3.741,0,5.496,2.214,5.496,5.993v14.771h-4.886V243.831z"/>
		<path fill="#3C7532" d="M105.621,237.342c5.993,0,9.466,4.199,9.466,10.649c0,6.489-3.512,10.688-9.504,10.688
			s-9.504-4.046-9.504-10.688C96.079,241.656,99.629,237.342,105.621,237.342z M105.621,241.045c-2.862,0-4.428,2.176-4.428,6.947
			c0,4.848,1.527,6.985,4.39,6.985c2.901,0,4.39-2.138,4.39-6.985C109.973,243.22,108.484,241.045,105.621,241.045z"/>
		<path fill="#3C7532" d="M126.539,257.993c-0.955,0.382-2.176,0.687-3.397,0.687c-2.901,0-4.809-1.679-4.809-5.42v-23.436
			l4.886-0.535v23.894c0,1.145,0.381,1.565,1.107,1.565c0.42,0,0.84-0.076,1.145-0.19L126.539,257.993z"/>
		<path fill="#3C7532" d="M136.655,237.342c5.993,0,9.466,4.199,9.466,10.649c0,6.489-3.512,10.688-9.504,10.688
			c-5.993,0-9.504-4.046-9.504-10.688C127.113,241.656,130.662,237.342,136.655,237.342z M136.655,241.045
			c-2.862,0-4.428,2.176-4.428,6.947c0,4.848,1.527,6.985,4.39,6.985c2.901,0,4.39-2.138,4.39-6.985
			C141.007,243.22,139.518,241.045,136.655,241.045z"/>
		<path fill="#3C7532" d="M151.733,260.092c0,2.252,1.641,2.901,4.886,2.901c4.122,0,5.115-1.221,5.115-2.633
			c0-1.413-0.725-2.443-3.55-2.443h-2.862c-3.817,0-5.84-1.604-5.84-3.97c0-1.375,0.801-2.71,2.138-3.626
			c-2.099-1.221-3.283-2.977-3.283-5.879c0-4.618,3.894-7.099,8.359-7.099c4.351,0,7.138-1.03,9.428-2.252l1.298,3.894
			c-1.603,0.572-3.588,0.687-5.764,0.687v0.152c2.099,0.916,3.397,2.596,3.397,5.039c0,3.894-3.054,6.794-8.092,6.794
			c-0.878,0-1.756-0.114-2.595-0.305c-0.344,0.343-0.611,0.916-0.611,1.451c0,1.068,0.611,1.451,3.054,1.451h1.984
			c5,0,7.863,2.214,7.863,5.802c0,4.236-4.046,6.374-10.115,6.374c-6.756,0-9.199-2.29-9.199-6.259v-0.076H151.733z M156.81,248.45
			c2.29,0,3.511-1.489,3.511-3.932c0-2.481-1.145-3.817-3.511-3.817c-2.291,0-3.588,1.565-3.588,3.855
			C153.222,246.924,154.558,248.45,156.81,248.45z"/>
		<path fill="#3C7532" d="M178.797,258.183c-1.527,4.695-4.504,7.825-10.42,8.245l-0.611-3.549c4.046-0.611,5.458-1.947,6.451-4.772
			h-1.641l-6.374-20.192h5.191l4.275,16.642h0.152l4.466-16.642h5.038L178.797,258.183z"/>
	</g>
	<g>
		<path fill="#58B032" d="M161.338,118.452V82.748c8.865-2.15,15.477-10.133,15.477-19.65c0-11.16-9.079-20.239-20.239-20.239
			c-3.856,0-7.451,1.103-10.521,2.983l-15.081-15.081c1.879-3.071,2.983-6.665,2.983-10.522C133.956,9.079,124.877,0,113.717,0
			S93.478,9.079,93.478,20.239c0,3.856,1.104,7.451,2.983,10.522L81.379,45.842c-3.071-1.879-6.665-2.983-10.522-2.983
			c-11.16,0-20.239,9.079-20.239,20.239c0,9.517,6.612,17.5,15.477,19.65v35.704c-8.865,2.15-15.477,10.132-15.477,19.65
			c0,11.16,9.079,20.239,20.239,20.239c9.517,0,17.5-6.611,19.65-15.477h46.419c2.15,8.865,10.133,15.477,19.65,15.477
			c11.16,0,20.239-9.079,20.239-20.239C176.815,128.585,170.204,120.602,161.338,118.452z M156.576,148.817
			c-5.918,0-10.715-4.797-10.715-10.715c0-5.918,4.797-10.715,10.715-10.715c5.918,0,10.715,4.797,10.715,10.715
			C167.291,144.019,162.494,148.817,156.576,148.817z M122.783,114.591c0,0,6.636-1.482,10.528-7.184
			c3.895-5.7,2.513-18.667,2.513-18.667s-10.821,2.959-14.962,8.482c-2.138,2.852-2.752,5.511-2.826,5.862
			c0.036-0.568,0.036-5.153-3.803-10.012c-5.977-7.564-22.861-9.69-22.861-9.69s0.862,17.139,6.918,24.64
			c6.056,7.499,17.658,6.566,17.658,6.566c1.016,4.497,1.726,11.364,0.978,18.753H90.507c-1.779-7.335-7.552-13.109-14.887-14.887
			V82.748c7.335-1.779,13.108-7.552,14.887-14.887h46.419c1.779,7.335,7.552,13.109,14.888,14.888v35.704
			c-7.335,1.779-13.109,7.552-14.888,14.888h-13.418C124.335,125.94,123.771,119.572,122.783,114.591z M81.573,138.102
			c0,5.918-4.797,10.715-10.715,10.715s-10.715-4.797-10.715-10.715c0-5.918,4.797-10.715,10.715-10.715
			S81.573,132.184,81.573,138.102z M60.143,63.098c0-5.918,4.797-10.715,10.715-10.715s10.715,4.797,10.715,10.715
			s-4.797,10.715-10.715,10.715S60.143,69.016,60.143,63.098z M103.002,20.239c0-5.918,4.797-10.715,10.715-10.715
			s10.715,4.797,10.715,10.715s-4.797,10.715-10.715,10.715S103.002,26.157,103.002,20.239z M113.717,40.478
			c3.856,0,7.451-1.104,10.522-2.983l15.081,15.081c-1.079,1.763-1.893,3.698-2.394,5.76H90.507c-0.5-2.062-1.315-3.997-2.393-5.759
			l15.081-15.081C106.266,39.375,109.861,40.478,113.717,40.478z M167.291,63.098c0,5.918-4.797,10.715-10.715,10.715
			c-5.918,0-10.715-4.797-10.715-10.715s4.797-10.715,10.715-10.715C162.494,52.383,167.291,57.181,167.291,63.098z"/>
	</g>
</g>
</svg>
