<?xml version="1.0" encoding="UTF-8" standalone="no"?>
<!-- Created with Inkscape (http://www.inkscape.org/) -->

<svg
   xmlns:dc="http://purl.org/dc/elements/1.1/"
   xmlns:cc="http://creativecommons.org/ns#"
   xmlns:rdf="http://www.w3.org/1999/02/22-rdf-syntax-ns#"
   xmlns:svg="http://www.w3.org/2000/svg"
   xmlns="http://www.w3.org/2000/svg"
   xmlns:sodipodi="http://sodipodi.sourceforge.net/DTD/sodipodi-0.dtd"
   xmlns:inkscape="http://www.inkscape.org/namespaces/inkscape"
   width="58.234261mm"
   height="70.492935mm"
   viewBox="0 0 58.234256 70.492937"
   version="1.1"
   id="svg4626"
   inkscape:version="0.92.1 r"
   sodipodi:docname="CCT_Vertical.svg">
  <defs
     id="defs4620" />
  <sodipodi:namedview
     id="base"
     pagecolor="#ffffff"
     bordercolor="#666666"
     borderopacity="1.0"
     inkscape:pageopacity="0.0"
     inkscape:pageshadow="2"
     inkscape:zoom="0.35"
     inkscape:cx="-362.32765"
     inkscape:cy="-101.12411"
     inkscape:document-units="mm"
     inkscape:current-layer="layer1"
     showgrid="false"
     fit-margin-top="0"
     fit-margin-left="0"
     fit-margin-right="0"
     fit-margin-bottom="0"
     inkscape:window-width="1366"
     inkscape:window-height="744"
     inkscape:window-x="0"
     inkscape:window-y="0"
     inkscape:window-maximized="1" />
  <metadata
     id="metadata4623">
    <rdf:RDF>
      <cc:Work
         rdf:about="">
        <dc:format>image/svg+xml</dc:format>
        <dc:type
           rdf:resource="http://purl.org/dc/dcmitype/StillImage" />
        <dc:title></dc:title>
      </cc:Work>
    </rdf:RDF>
  </metadata>
  <g
     inkscape:label="Layer 1"
     inkscape:groupmode="layer"
     id="layer1"
     transform="translate(-75.455144,-51.584637)">
    <g
       id="g78"
       transform="matrix(0.26458333,0,0,0.26458333,75.455144,51.584637)">
      <g
         id="g72">
        <path
           style="fill:#3c7532"
           inkscape:connector-curvature="0"
           d="m 18.627,187.446 2.405,3.054 c -1.756,1.679 -4.466,3.206 -8.245,3.206 -6.718,0 -11.413,-4.848 -11.413,-13.817 0,-8.855 5.076,-13.703 11.451,-13.703 3.474,0 5.725,0.992 7.863,2.786 l -2.595,3.016 c -1.489,-1.26 -3.092,-1.908 -4.962,-1.908 -3.588,0 -6.451,2.71 -6.451,9.81 0,6.947 2.71,9.771 6.336,9.771 2.595,-0.001 4.237,-1.07 5.611,-2.215 z"
           id="path2" />
        <path
           style="fill:#3c7532"
           inkscape:connector-curvature="0"
           d="m 27.025,184.545 c 0.382,3.817 2.252,5.458 4.962,5.458 1.718,0 3.168,-0.497 4.886,-1.87 l 2.099,2.939 c -1.908,1.566 -4.351,2.634 -7.291,2.634 -6.489,0 -9.733,-4.389 -9.733,-10.649 0,-6.031 3.244,-10.688 9.084,-10.688 5.535,0 8.779,3.817 8.779,10.192 0,0.649 -0.077,1.45 -0.115,1.984 z m -0.038,-3.168 h 7.977 c -0.038,-3.474 -1.107,-5.535 -3.894,-5.535 -2.327,0 -3.816,1.718 -4.083,5.535 z"
           id="path4" />
        <path
           style="fill:#3c7532"
           inkscape:connector-curvature="0"
           d="m 53.936,178.857 c 0,-2.023 -0.763,-2.824 -2.481,-2.824 -1.679,0 -3.054,1.298 -4.16,2.824 v 14.276 h -4.886 v -20.192 h 4.237 l 0.343,2.519 c 1.718,-2.022 3.97,-3.092 6.336,-3.092 3.741,0 5.496,2.214 5.496,5.993 v 14.771 h -4.886 v -14.275 z"
           id="path6" />
        <path
           style="fill:#3c7532"
           inkscape:connector-curvature="0"
           d="m 75.083,192.179 c -1.374,1.03 -3.32,1.527 -5.038,1.527 -4.504,-0.038 -6.107,-2.595 -6.107,-6.718 v -10.573 h -3.092 v -3.473 h 3.092 v -4.466 l 4.886,-0.572 v 5.038 h 4.924 l -0.535,3.473 h -4.389 v 10.573 c 0,1.985 0.649,2.786 2.138,2.786 0.801,0 1.527,-0.229 2.404,-0.763 z"
           id="path8" />
        <path
           style="fill:#3c7532"
           inkscape:connector-curvature="0"
           d="m 80.275,184.545 c 0.382,3.817 2.252,5.458 4.962,5.458 1.718,0 3.168,-0.497 4.886,-1.87 l 2.099,2.939 c -1.908,1.566 -4.351,2.634 -7.291,2.634 -6.489,0 -9.733,-4.389 -9.733,-10.649 0,-6.031 3.244,-10.688 9.084,-10.688 5.535,0 8.779,3.817 8.779,10.192 0,0.649 -0.077,1.45 -0.115,1.984 z m -0.038,-3.168 h 7.977 c -0.038,-3.474 -1.107,-5.535 -3.894,-5.535 -2.328,0 -3.816,1.718 -4.083,5.535 z"
           id="path10" />
        <path
           style="fill:#3c7532"
           inkscape:connector-curvature="0"
           d="m 96.345,193.133 v -20.192 h 4.313 l 0.458,3.817 c 1.031,-2.748 2.863,-4.352 5.191,-4.352 0.725,0 1.375,0.077 2.023,0.267 l -0.84,4.733 c -0.611,-0.153 -1.107,-0.229 -1.794,-0.229 -2.481,0 -3.817,2.29 -4.466,5 v 10.955 h -4.885 z"
           id="path12" />
        <path
           style="fill:#58b032"
           inkscape:connector-curvature="0"
           d="m 130.623,165.536 -1.107,2.557 c -1.298,-0.573 -2.481,-0.763 -3.512,-0.763 -2.214,0 -2.977,0.954 -2.977,2.901 v 2.786 h 4.886 l -0.382,2.71 h -4.504 v 17.405 h -3.512 v -17.405 h -3.206 v -2.71 h 3.206 v -2.748 c 0,-3.359 2.214,-5.764 6.298,-5.764 1.909,0 3.207,0.345 4.81,1.031 z"
           id="path14" />
        <path
           style="fill:#58b032"
           inkscape:connector-curvature="0"
           d="m 136.654,172.56 c 5.726,0 8.932,4.122 8.932,10.496 0,6.222 -3.283,10.535 -8.97,10.535 -5.726,0 -8.97,-4.123 -8.97,-10.497 0,-6.221 3.283,-10.534 9.008,-10.534 z m 0,2.824 c -3.359,0 -5.229,2.443 -5.229,7.71 0,5.229 1.832,7.672 5.191,7.672 3.359,0 5.191,-2.443 5.191,-7.71 0,-5.229 -1.832,-7.672 -5.153,-7.672 z"
           id="path16" />
        <path
           style="fill:#58b032"
           inkscape:connector-curvature="0"
           d="m 149.213,193.133 v -20.116 h 3.054 l 0.42,3.855 c 1.145,-2.824 2.901,-4.313 5.268,-4.313 0.649,0 1.374,0.076 1.985,0.229 l -0.649,3.435 c -0.611,-0.153 -1.03,-0.229 -1.756,-0.229 -2.519,0 -4.122,2.557 -4.809,5.344 v 11.794 h -3.513 z"
           id="path18" />
        <path
           style="fill:#58b032"
           inkscape:connector-curvature="0"
           d="m 179.597,192.217 c -1.221,0.916 -2.824,1.375 -4.504,1.375 -3.741,0 -5.42,-2.367 -5.42,-5.84 V 175.69 h -3.206 v -2.672 h 3.206 v -4.542 l 3.512,-0.42 v 4.962 h 5.077 l -0.42,2.672 h -4.657 v 12.023 c 0,2.023 0.649,2.977 2.405,2.977 0.878,0 1.679,-0.267 2.672,-0.878 z"
           id="path20" />
        <path
           style="fill:#58b032"
           inkscape:connector-curvature="0"
           d="m 181.277,193.133 v -28.169 l 3.511,-0.382 v 10.993 c 1.603,-1.909 3.817,-3.016 6.184,-3.016 3.893,0 5.458,2.214 5.458,5.954 v 14.619 h -3.512 v -14.39 c 0,-2.405 -0.84,-3.435 -3.13,-3.435 -2.176,0 -3.931,1.679 -5,3.244 v 14.581 h -3.511 z"
           id="path22" />
        <path
           style="fill:#58b032"
           inkscape:connector-curvature="0"
           d="m 203.646,184.278 c 0.305,4.466 2.366,6.451 5.42,6.451 1.832,0 3.321,-0.458 5.038,-1.87 l 1.603,2.329 c -1.87,1.489 -4.122,2.405 -6.718,2.405 -5.993,0 -9.085,-4.237 -9.085,-10.497 0,-6.069 3.168,-10.534 8.512,-10.534 5.267,0 8.13,3.779 8.13,9.924 0,0.688 -0.038,1.336 -0.076,1.794 h -12.824 z m 0,-2.596 h 9.428 c -0.076,-4.161 -1.527,-6.336 -4.657,-6.336 -2.749,0 -4.505,2.023 -4.771,6.336 z"
           id="path24" />
        <path
           style="fill:#3c7532"
           inkscape:connector-curvature="0"
           d="m 18.627,219.933 2.405,3.054 c -1.756,1.679 -4.466,3.206 -8.245,3.206 -6.718,0 -11.413,-4.848 -11.413,-13.817 0,-8.855 5.076,-13.703 11.451,-13.703 3.474,0 5.725,0.992 7.863,2.786 l -2.595,3.016 c -1.489,-1.26 -3.092,-1.908 -4.962,-1.908 -3.588,0 -6.451,2.71 -6.451,9.81 0,6.947 2.71,9.771 6.336,9.771 2.595,-0.001 4.237,-1.07 5.611,-2.215 z"
           id="path26" />
        <path
           style="fill:#3c7532"
           inkscape:connector-curvature="0"
           d="m 28.017,205.428 v 14.008 c 0,1.565 0.305,2.977 2.214,2.977 1.87,0 3.13,-1.031 4.198,-2.52 v -14.466 h 4.886 v 20.192 H 35.078 L 34.811,223.1 c -1.489,2.023 -3.741,3.092 -6.107,3.092 -3.893,0 -5.573,-2.367 -5.573,-6.145 v -14.619 z"
           id="path28" />
        <path
           style="fill:#3c7532"
           inkscape:connector-curvature="0"
           d="m 50.959,225.506 c -0.955,0.382 -2.176,0.687 -3.397,0.687 -2.901,0 -4.809,-1.679 -4.809,-5.42 v -23.436 l 4.886,-0.535 v 23.894 c 0,1.145 0.382,1.565 1.107,1.565 0.42,0 0.84,-0.076 1.145,-0.19 z"
           id="path30" />
        <path
           style="fill:#3c7532"
           inkscape:connector-curvature="0"
           d="m 64.662,224.666 c -1.374,1.03 -3.32,1.527 -5.038,1.527 -4.504,-0.038 -6.107,-2.595 -6.107,-6.718 v -10.573 h -3.092 v -3.473 h 3.092 v -4.466 l 4.886,-0.572 v 5.038 h 4.924 l -0.535,3.473 h -4.389 v 10.573 c 0,1.985 0.649,2.786 2.138,2.786 0.801,0 1.527,-0.229 2.404,-0.763 z"
           id="path32" />
        <path
           style="fill:#3c7532"
           inkscape:connector-curvature="0"
           d="m 68.862,201.191 c -1.832,0 -3.092,-1.298 -3.092,-2.977 0,-1.641 1.26,-2.939 3.092,-2.939 1.794,0 3.092,1.298 3.092,2.939 -10e-4,1.68 -1.298,2.977 -3.092,2.977 z m -2.443,24.429 v -20.192 h 4.886 v 20.192 z"
           id="path34" />
        <path
           style="fill:#3c7532"
           inkscape:connector-curvature="0"
           d="m 85.58,225.62 h -5.725 l -6.718,-20.192 h 5.267 l 4.313,16.07 h 0.153 l 4.39,-16.07 h 5 z"
           id="path36" />
        <path
           style="fill:#3c7532"
           inkscape:connector-curvature="0"
           d="m 108.597,220.391 c 0,1.527 0.42,2.099 1.412,2.481 l -1.069,3.245 c -2.138,-0.191 -3.588,-0.954 -4.352,-2.71 -1.45,1.908 -3.702,2.786 -6.145,2.786 -4.122,0 -6.641,-2.557 -6.641,-6.336 0,-4.275 3.397,-6.68 9.581,-6.68 h 2.481 v -1.145 c 0,-2.558 -1.183,-3.436 -4.008,-3.436 -1.298,0 -3.207,0.305 -5.268,1.031 l -1.183,-3.359 c 2.557,-0.954 5.115,-1.413 7.176,-1.413 5.688,0 8.016,2.443 8.016,6.871 z m -4.733,-0.23 v -4.046 h -1.718 c -3.779,0 -5.115,1.26 -5.115,3.473 0,1.985 0.916,3.054 2.939,3.054 1.604,0 2.94,-0.916 3.894,-2.481 z"
           id="path38" />
        <path
           style="fill:#3c7532"
           inkscape:connector-curvature="0"
           d="m 124.936,224.666 c -1.375,1.03 -3.321,1.527 -5.039,1.527 -4.504,-0.038 -6.107,-2.595 -6.107,-6.718 v -10.573 h -3.092 v -3.473 h 3.092 v -4.466 l 4.886,-0.572 v 5.038 h 4.924 l -0.535,3.473 h -4.39 v 10.573 c 0,1.985 0.649,2.786 2.138,2.786 0.802,0 1.527,-0.229 2.405,-0.763 z"
           id="path40" />
        <path
           style="fill:#3c7532"
           inkscape:connector-curvature="0"
           d="m 129.135,201.191 c -1.832,0 -3.092,-1.298 -3.092,-2.977 0,-1.641 1.26,-2.939 3.092,-2.939 1.794,0 3.092,1.298 3.092,2.939 -0.001,1.68 -1.298,2.977 -3.092,2.977 z m -2.443,24.429 v -20.192 h 4.886 v 20.192 z"
           id="path42" />
        <path
           style="fill:#3c7532"
           inkscape:connector-curvature="0"
           d="m 144.517,204.855 c 5.993,0 9.466,4.199 9.466,10.649 0,6.489 -3.512,10.688 -9.504,10.688 -5.993,0 -9.504,-4.046 -9.504,-10.688 0,-6.335 3.55,-10.649 9.542,-10.649 z m 0,3.703 c -2.862,0 -4.428,2.176 -4.428,6.947 0,4.848 1.527,6.985 4.39,6.985 2.901,0 4.39,-2.138 4.39,-6.985 0,-4.772 -1.489,-6.947 -4.352,-6.947 z"
           id="path44" />
        <path
           style="fill:#3c7532"
           inkscape:connector-curvature="0"
           d="m 169.062,211.344 c 0,-2.023 -0.763,-2.824 -2.481,-2.824 -1.679,0 -3.054,1.298 -4.16,2.824 v 14.276 h -4.886 v -20.192 h 4.237 l 0.344,2.519 c 1.718,-2.022 3.97,-3.092 6.336,-3.092 3.741,0 5.496,2.214 5.496,5.993 v 14.771 h -4.886 z"
           id="path46" />
        <path
           style="fill:#58b032"
           inkscape:connector-curvature="0"
           d="m 195.782,205.047 c 5.726,0 8.932,4.122 8.932,10.496 0,6.222 -3.283,10.535 -8.97,10.535 -5.725,0 -8.97,-4.123 -8.97,-10.497 0,-6.221 3.283,-10.534 9.008,-10.534 z m 0,2.824 c -3.359,0 -5.229,2.443 -5.229,7.71 0,5.229 1.832,7.672 5.191,7.672 3.359,0 5.191,-2.443 5.191,-7.71 0,-5.229 -1.832,-7.672 -5.153,-7.672 z"
           id="path48" />
        <path
           style="fill:#58b032"
           inkscape:connector-curvature="0"
           d="m 220.098,198.023 -1.107,2.557 c -1.298,-0.573 -2.481,-0.763 -3.512,-0.763 -2.214,0 -2.977,0.954 -2.977,2.901 v 2.786 h 4.886 l -0.382,2.71 h -4.504 v 17.405 h -3.512 v -17.405 h -3.206 v -2.71 h 3.206 v -2.748 c 0,-3.359 2.214,-5.764 6.298,-5.764 1.909,0 3.207,0.345 4.81,1.031 z"
           id="path50" />
        <path
           style="fill:#3c7532"
           inkscape:connector-curvature="0"
           d="m 12.252,235.74 v 22.367 H 7.176 V 235.74 H 0 v -4.008 h 19.619 l -0.535,4.008 z"
           id="path52" />
        <path
           style="fill:#3c7532"
           inkscape:connector-curvature="0"
           d="m 22.674,249.519 c 0.382,3.817 2.252,5.458 4.962,5.458 1.718,0 3.168,-0.497 4.886,-1.87 l 2.099,2.939 c -1.908,1.566 -4.351,2.634 -7.291,2.634 -6.489,0 -9.733,-4.389 -9.733,-10.649 0,-6.031 3.244,-10.688 9.084,-10.688 5.535,0 8.779,3.817 8.779,10.192 0,0.649 -0.077,1.45 -0.115,1.984 z m -0.038,-3.168 h 7.977 c -0.038,-3.474 -1.107,-5.535 -3.894,-5.535 -2.328,0 -3.816,1.718 -4.083,5.535 z"
           id="path54" />
        <path
           style="fill:#3c7532"
           inkscape:connector-curvature="0"
           d="m 51.302,253.145 2.252,3.206 c -1.908,1.527 -4.046,2.329 -6.451,2.329 -6.298,0 -9.657,-4.237 -9.657,-10.573 0,-6.183 3.435,-10.764 9.58,-10.764 2.481,0 4.619,0.726 6.527,2.367 l -2.214,2.977 c -1.489,-1.145 -2.71,-1.489 -4.084,-1.489 -2.901,0 -4.618,2.061 -4.618,6.908 0,4.886 1.756,6.604 4.58,6.604 1.375,0 2.558,-0.42 4.085,-1.565 z"
           id="path56" />
        <path
           style="fill:#3c7532"
           inkscape:connector-curvature="0"
           d="m 55.998,258.107 v -28.245 l 4.886,-0.497 v 10.841 c 1.641,-1.832 3.702,-2.863 6.031,-2.863 3.741,0 5.496,2.214 5.496,5.993 v 14.771 h -4.886 v -14.276 c 0,-2.023 -0.763,-2.824 -2.481,-2.824 -1.679,0 -3.054,1.298 -4.16,2.824 v 14.276 z"
           id="path58" />
        <path
           style="fill:#3c7532"
           inkscape:connector-curvature="0"
           d="m 87.871,243.831 c 0,-2.023 -0.763,-2.824 -2.481,-2.824 -1.679,0 -3.054,1.298 -4.16,2.824 v 14.276 h -4.886 v -20.192 h 4.237 l 0.344,2.519 c 1.718,-2.023 3.97,-3.092 6.336,-3.092 3.741,0 5.496,2.214 5.496,5.993 v 14.771 h -4.886 z"
           id="path60" />
        <path
           style="fill:#3c7532"
           inkscape:connector-curvature="0"
           d="m 105.621,237.342 c 5.993,0 9.466,4.199 9.466,10.649 0,6.489 -3.512,10.688 -9.504,10.688 -5.992,0 -9.504,-4.046 -9.504,-10.688 0,-6.335 3.55,-10.649 9.542,-10.649 z m 0,3.703 c -2.862,0 -4.428,2.176 -4.428,6.947 0,4.848 1.527,6.985 4.39,6.985 2.901,0 4.39,-2.138 4.39,-6.985 0,-4.772 -1.489,-6.947 -4.352,-6.947 z"
           id="path62" />
        <path
           style="fill:#3c7532"
           inkscape:connector-curvature="0"
           d="m 126.539,257.993 c -0.955,0.382 -2.176,0.687 -3.397,0.687 -2.901,0 -4.809,-1.679 -4.809,-5.42 v -23.436 l 4.886,-0.535 v 23.894 c 0,1.145 0.381,1.565 1.107,1.565 0.42,0 0.84,-0.076 1.145,-0.19 z"
           id="path64" />
        <path
           style="fill:#3c7532"
           inkscape:connector-curvature="0"
           d="m 136.655,237.342 c 5.993,0 9.466,4.199 9.466,10.649 0,6.489 -3.512,10.688 -9.504,10.688 -5.993,0 -9.504,-4.046 -9.504,-10.688 0,-6.335 3.549,-10.649 9.542,-10.649 z m 0,3.703 c -2.862,0 -4.428,2.176 -4.428,6.947 0,4.848 1.527,6.985 4.39,6.985 2.901,0 4.39,-2.138 4.39,-6.985 0,-4.772 -1.489,-6.947 -4.352,-6.947 z"
           id="path66" />
        <path
           style="fill:#3c7532"
           inkscape:connector-curvature="0"
           d="m 151.733,260.092 c 0,2.252 1.641,2.901 4.886,2.901 4.122,0 5.115,-1.221 5.115,-2.633 0,-1.413 -0.725,-2.443 -3.55,-2.443 h -2.862 c -3.817,0 -5.84,-1.604 -5.84,-3.97 0,-1.375 0.801,-2.71 2.138,-3.626 -2.099,-1.221 -3.283,-2.977 -3.283,-5.879 0,-4.618 3.894,-7.099 8.359,-7.099 4.351,0 7.138,-1.03 9.428,-2.252 l 1.298,3.894 c -1.603,0.572 -3.588,0.687 -5.764,0.687 v 0.152 c 2.099,0.916 3.397,2.596 3.397,5.039 0,3.894 -3.054,6.794 -8.092,6.794 -0.878,0 -1.756,-0.114 -2.595,-0.305 -0.344,0.343 -0.611,0.916 -0.611,1.451 0,1.068 0.611,1.451 3.054,1.451 h 1.984 c 5,0 7.863,2.214 7.863,5.802 0,4.236 -4.046,6.374 -10.115,6.374 -6.756,0 -9.199,-2.29 -9.199,-6.259 v -0.076 h 4.389 z m 5.077,-11.642 c 2.29,0 3.511,-1.489 3.511,-3.932 0,-2.481 -1.145,-3.817 -3.511,-3.817 -2.291,0 -3.588,1.565 -3.588,3.855 0,2.368 1.336,3.894 3.588,3.894 z"
           id="path68" />
        <path
           style="fill:#3c7532"
           inkscape:connector-curvature="0"
           d="m 178.797,258.183 c -1.527,4.695 -4.504,7.825 -10.42,8.245 l -0.611,-3.549 c 4.046,-0.611 5.458,-1.947 6.451,-4.772 h -1.641 l -6.374,-20.192 h 5.191 l 4.275,16.642 h 0.152 l 4.466,-16.642 h 5.038 z"
           id="path70" />
      </g>
      <g
         id="g76">
        <path
           style="fill:#58b032"
           inkscape:connector-curvature="0"
           d="M 161.338,118.452 V 82.748 c 8.865,-2.15 15.477,-10.133 15.477,-19.65 0,-11.16 -9.079,-20.239 -20.239,-20.239 -3.856,0 -7.451,1.103 -10.521,2.983 L 130.974,30.761 c 1.879,-3.071 2.983,-6.665 2.983,-10.522 C 133.956,9.079 124.877,0 113.717,0 102.557,0 93.478,9.079 93.478,20.239 c 0,3.856 1.104,7.451 2.983,10.522 L 81.379,45.842 c -3.071,-1.879 -6.665,-2.983 -10.522,-2.983 -11.16,0 -20.239,9.079 -20.239,20.239 0,9.517 6.612,17.5 15.477,19.65 v 35.704 c -8.865,2.15 -15.477,10.132 -15.477,19.65 0,11.16 9.079,20.239 20.239,20.239 9.517,0 17.5,-6.611 19.65,-15.477 h 46.419 c 2.15,8.865 10.133,15.477 19.65,15.477 11.16,0 20.239,-9.079 20.239,-20.239 0,-9.517 -6.611,-17.5 -15.477,-19.65 z m -4.762,30.365 c -5.918,0 -10.715,-4.797 -10.715,-10.715 0,-5.918 4.797,-10.715 10.715,-10.715 5.918,0 10.715,4.797 10.715,10.715 0,5.917 -4.797,10.715 -10.715,10.715 z m -33.793,-34.226 c 0,0 6.636,-1.482 10.528,-7.184 3.895,-5.7 2.513,-18.667 2.513,-18.667 0,0 -10.821,2.959 -14.962,8.482 -2.138,2.852 -2.752,5.511 -2.826,5.862 0.036,-0.568 0.036,-5.153 -3.803,-10.012 -5.977,-7.564 -22.861,-9.69 -22.861,-9.69 0,0 0.862,17.139 6.918,24.64 6.056,7.499 17.658,6.566 17.658,6.566 1.016,4.497 1.726,11.364 0.978,18.753 H 90.507 C 88.728,126.006 82.955,120.232 75.62,118.454 V 82.748 c 7.335,-1.779 13.108,-7.552 14.887,-14.887 h 46.419 c 1.779,7.335 7.552,13.109 14.888,14.888 v 35.704 c -7.335,1.779 -13.109,7.552 -14.888,14.888 h -13.418 c 0.827,-7.401 0.263,-13.769 -0.725,-18.75 z m -41.21,23.511 c 0,5.918 -4.797,10.715 -10.715,10.715 -5.918,0 -10.715,-4.797 -10.715,-10.715 0,-5.918 4.797,-10.715 10.715,-10.715 5.918,0 10.715,4.797 10.715,10.715 z M 60.143,63.098 c 0,-5.918 4.797,-10.715 10.715,-10.715 5.918,0 10.715,4.797 10.715,10.715 0,5.918 -4.797,10.715 -10.715,10.715 -5.918,0 -10.715,-4.797 -10.715,-10.715 z m 42.859,-42.859 c 0,-5.918 4.797,-10.715 10.715,-10.715 5.918,0 10.715,4.797 10.715,10.715 0,5.918 -4.797,10.715 -10.715,10.715 -5.918,0 -10.715,-4.797 -10.715,-10.715 z m 10.715,20.239 c 3.856,0 7.451,-1.104 10.522,-2.983 l 15.081,15.081 c -1.079,1.763 -1.893,3.698 -2.394,5.76 H 90.507 c -0.5,-2.062 -1.315,-3.997 -2.393,-5.759 l 15.081,-15.081 c 3.071,1.879 6.666,2.982 10.522,2.982 z m 53.574,22.62 c 0,5.918 -4.797,10.715 -10.715,10.715 -5.918,0 -10.715,-4.797 -10.715,-10.715 0,-5.918 4.797,-10.715 10.715,-10.715 5.918,0 10.715,4.798 10.715,10.715 z"
           id="path74" />
      </g>
    </g>
  </g>
</svg>
