<?xml version="1.0" encoding="UTF-8" standalone="no"?>
<!-- Created with Inkscape (http://www.inkscape.org/) -->

<svg
   xmlns:dc="http://purl.org/dc/elements/1.1/"
   xmlns:cc="http://creativecommons.org/ns#"
   xmlns:rdf="http://www.w3.org/1999/02/22-rdf-syntax-ns#"
   xmlns:svg="http://www.w3.org/2000/svg"
   xmlns="http://www.w3.org/2000/svg"
   xmlns:sodipodi="http://sodipodi.sourceforge.net/DTD/sodipodi-0.dtd"
   xmlns:inkscape="http://www.inkscape.org/namespaces/inkscape"
   width="240.02538"
   height="175.11911"
   viewBox="0 0 63.506717 46.333599"
   version="1.1"
   id="svg8"
   inkscape:version="0.92.2 (5c3e80d, 2017-08-06)"
   sodipodi:docname="vertical_color.svg"
   inkscape:export-filename="/home/anxhelo/Desktop/Design/openCFP/horizontal_white.png"
   inkscape:export-xdpi="96"
   inkscape:export-ydpi="96">
  <defs
     id="defs2" />
  <sodipodi:namedview
     id="base"
     pagecolor="#ffffff"
     bordercolor="#666666"
     borderopacity="1.0"
     inkscape:pageopacity="0.0"
     inkscape:pageshadow="2"
     inkscape:zoom="0.71506173"
     inkscape:cx="50.421855"
     inkscape:cy="82.172211"
     inkscape:document-units="mm"
     inkscape:current-layer="layer1"
     inkscape:document-rotation="0"
     showgrid="false"
     borderlayer="true"
     inkscape:showpageshadow="false"
     units="px"
     inkscape:pagecheckerboard="false"
     showguides="true"
     inkscape:window-width="1366"
     inkscape:window-height="710"
     inkscape:window-x="0"
     inkscape:window-y="0"
     inkscape:window-maximized="1"
     fit-margin-top="0"
     fit-margin-left="0"
     fit-margin-right="0"
     fit-margin-bottom="0">
    <inkscape:grid
       type="xygrid"
       id="grid10"
       originx="-191.76199"
       originy="-109.66261" />
  </sodipodi:namedview>
  <metadata
     id="metadata5">
    <rdf:RDF>
      <cc:Work
         rdf:about="">
        <dc:format>image/svg+xml</dc:format>
        <dc:type
           rdf:resource="http://purl.org/dc/dcmitype/StillImage" />
        <dc:title></dc:title>
      </cc:Work>
    </rdf:RDF>
  </metadata>
  <g
     inkscape:label="Layer 1"
     inkscape:groupmode="layer"
     id="layer1"
     transform="translate(-191.76197,-141.0038)">
    <g
       id="g1063"
       transform="matrix(0.79809583,0,0,0.79809583,119.04109,66.764305)">
      <g
         transform="matrix(0.54558983,0,0,-0.54558983,129.14641,97.896171)"
         id="g80">
        <path
           inkscape:connector-curvature="0"
           id="path82"
           style="fill:#e04c3d;fill-opacity:1;fill-rule:nonzero;stroke:none"
           d="M 0,0 11.033,7.93 C 8.534,8.584 5.912,8.936 3.208,8.936 -5.647,8.936 -13.624,5.195 -19.244,-0.786 -18.332,-0.29 -17.297,0 -16.196,0 Z" />
      </g>
      <g
         transform="matrix(0.54558983,0,0,-0.54558983,117.1819,112.11627)"
         id="g84">
        <path
           inkscape:connector-curvature="0"
           id="path86"
           style="fill:#e04c3d;fill-opacity:1;fill-rule:nonzero;stroke:none"
           d="m 0,0 c -2.192,0.471 -4.127,1.56 -5.645,3.061 0.299,-8.314 3.891,-15.785 9.514,-21.154 -2.071,5.221 -2.368,10.739 -2.351,16.1 C 0.887,-1.435 0.369,-0.755 0,0" />
      </g>
      <g
         transform="matrix(0.54558983,0,0,-0.54558983,115.41548,103.26986)"
         id="g88">
        <path
           inkscape:connector-curvature="0"
           id="path90"
           style="fill:#e04c3d;fill-opacity:1;fill-rule:nonzero;stroke:none"
           d="m 0,0 c -0.788,-1.857 -1.399,-3.806 -1.812,-5.828 0.292,-2.607 1.891,-4.827 4.175,-5.938 V 1.814 C 1.453,1.371 0.656,0.748 0,0" />
      </g>
      <g
         transform="matrix(0.54558983,0,0,-0.54558983,141.46233,108.43069)"
         id="g92">
        <path
           inkscape:connector-curvature="0"
           id="path94"
           style="fill:#e04c3d;fill-opacity:1;fill-rule:nonzero;stroke:none"
           d="M 0,0 C 1.471,0.962 2.43,2.627 2.43,4.483 2.43,6.34 1.471,8.004 0,8.966 Z" />
      </g>
      <g
         transform="matrix(0.54558983,0,0,-0.54558983,141.46233,96.759933)"
         id="g96">
        <path
           inkscape:connector-curvature="0"
           id="path98"
           style="fill:#e04c3d;fill-opacity:1;fill-rule:nonzero;stroke:none"
           d="m 0,0 v -8.082 c 3.733,-1.236 6.376,-4.766 6.376,-8.826 0,-4.06 -2.643,-7.59 -6.376,-8.826 v -8.742 c 0,-2.606 -1.44,-4.963 -3.759,-6.152 -2.318,-1.188 -5.073,-0.982 -7.188,0.538 l -11.627,8.357 h -1.231 v -1.712 c 0,-2.606 -1.686,-4.826 -4.025,-5.624 0.47,-1.895 1.201,-3.411 2.28,-4.765 1.851,-2.322 1.833,-5.686 -0.044,-8 l -1.047,-1.291 c -0.182,-0.226 -0.382,-0.431 -0.59,-0.627 2.511,-0.661 5.146,-1.017 7.865,-1.017 17.016,0 30.811,13.795 30.811,30.811 C 11.445,-14.28 6.979,-5.649 0,0" />
      </g>
      <g
         transform="matrix(0.54558983,0,0,-0.54558983,123.18622,124.39886)"
         id="g100">
        <path
           inkscape:connector-curvature="0"
           id="path102"
           style="fill:#e04c3d;fill-opacity:1;fill-rule:nonzero;stroke:none"
           d="m 0,0 c 0.466,-0.565 1.153,-0.889 1.886,-0.889 h 0.01 c 0.739,0.003 1.431,0.334 1.896,0.908 L 4.839,1.31 C 5.558,2.196 5.568,3.481 4.863,4.366 3.003,6.699 1.9,9.431 1.39,12.964 l -0.324,2.254 h 2.687 c 1.1,0 1.994,0.895 1.994,1.996 v 1.804 H -5.537 C -5.472,12.209 -4.676,5.678 0,0" />
      </g>
      <g
         transform="matrix(0.54558983,0,0,-0.54558983,120.62729,111.92055)"
         id="g104">
        <path
           inkscape:connector-curvature="0"
           id="path106"
           style="fill:#e04c3d;fill-opacity:1;fill-rule:nonzero;stroke:none"
           d="m 0,0 h 10.438 0.97 1.58 V 21.759 H 0 c -1.792,0 -3.244,-1.452 -3.244,-3.244 V 3.244 C -3.244,1.452 -1.791,0 0,0" />
      </g>
      <g
         transform="matrix(0.54558983,0,0,-0.54558983,138.42924,117.01031)"
         id="g108">
        <path
           inkscape:connector-curvature="0"
           id="path110"
           style="fill:#e04c3d;fill-opacity:1;fill-rule:nonzero;stroke:none"
           d="m 0,0 c 1.01,0.518 1.613,1.505 1.613,2.64 v 35.137 c 0,1.135 -0.603,2.122 -1.613,2.64 -1.01,0.518 -2.164,0.432 -3.085,-0.231 v 0 L -15.696,31.122 V 9.294 L -3.085,0.231 C -2.164,-0.432 -1.01,-0.518 0,0" />
      </g>
      <g
         transform="matrix(0.54558983,0,0,-0.54558983,95.607643,138.55326)"
         id="g144">
        <path
           inkscape:connector-curvature="0"
           id="path146"
           style="fill:#394247;fill-opacity:1;fill-rule:nonzero;stroke:none"
           d="m 0,0 c -3.511,0 -5.474,-2.755 -5.474,-6.493 0,-3.662 1.888,-6.531 5.474,-6.531 3.586,0 5.549,2.794 5.549,6.569 C 5.549,-2.604 3.511,0 0,0 m -0.076,-15.289 c -5.096,0 -8.153,3.586 -8.153,8.645 0,4.908 2.868,8.909 8.304,8.909 5.474,0 8.268,-4.001 8.268,-8.758 0,-5.096 -3.247,-8.796 -8.419,-8.796" />
      </g>
      <g
         transform="matrix(0.54558983,0,0,-0.54558983,107.1396,138.57377)"
         id="g148">
        <path
           inkscape:connector-curvature="0"
           id="path150"
           style="fill:#394247;fill-opacity:1;fill-rule:nonzero;stroke:none"
           d="m 0,0 c -3.02,0 -5.171,-2.944 -5.285,-5.511 v -2.492 c 0,-2.832 2.227,-4.983 5.021,-4.983 3.775,0 5.398,3.171 5.398,6.757 C 5.134,-2.189 2.945,0 0,0 m 0.265,-15.251 c -2.379,0 -4.417,0.981 -5.55,2.831 v -8.343 h 3.889 v -2.152 h -9.514 v 2.152 h 2.983 v 20.536 h -3.02 v 2.152 h 5.662 v -3.51 c 1.019,2.038 2.869,3.85 5.965,3.85 4.303,0 7.248,-3.057 7.248,-8.267 0,-4.493 -2.19,-9.249 -7.663,-9.249" />
      </g>
      <g
         transform="matrix(0.54558983,0,0,-0.54558983,117.18876,138.53247)"
         id="g152">
        <path
           inkscape:connector-curvature="0"
           id="path154"
           style="fill:#394247;fill-opacity:1;fill-rule:nonzero;stroke:none"
           d="M 0,0 C -3.095,0 -4.454,-2.378 -4.794,-5.209 H 4.417 C 4.682,-2.718 3.284,0 0,0 m 0.302,-15.327 c -4.756,0 -7.927,3.095 -7.927,8.532 0,5.21 2.944,8.984 7.701,8.984 4.606,0 7.097,-3.397 7.135,-7.361 0,-0.641 -0.076,-1.321 -0.227,-2.001 H -4.832 c 0.151,-3.738 2.001,-5.889 5.323,-5.889 2.643,0 4.114,1.359 4.643,3.436 l 2.227,-0.492 c -0.453,-2.869 -2.906,-5.209 -7.059,-5.209" />
      </g>
      <g
         transform="matrix(0.54558983,0,0,-0.54558983,128.90672,146.68888)"
         id="g156">
        <path
           inkscape:connector-curvature="0"
           id="path158"
           style="fill:#394247;fill-opacity:1;fill-rule:nonzero;stroke:none"
           d="m 0,0 v 2.152 h 2.906 v 7.814 c 0,3.624 -1.623,4.946 -3.887,4.946 -3.021,0 -4.984,-2.341 -5.097,-4.908 V 2.152 h 2.944 V 0 h -8.531 v 2.152 h 2.944 v 12.495 h -3.019 v 2.152 h 5.662 v -2.982 c 1.133,2.077 3.209,3.322 5.889,3.322 3.285,0 5.776,-1.925 5.776,-6.38 V 2.152 H 8.493 V 0 Z" />
      </g>
      <g
         transform="matrix(0.54558983,0,0,-0.54558983,140.9539,146.89455)"
         id="g160">
        <path
           inkscape:connector-curvature="0"
           id="path162"
           style="fill:#e04c3d;fill-opacity:1;fill-rule:nonzero;stroke:none"
           d="m 0,0 c -7.021,0 -12.345,4.945 -12.345,12.231 0,5.7 3.246,13.061 12.572,13.061 4.189,0 7.247,-1.472 8.833,-2.944 l 0.603,-5.7 -4.114,-0.377 -0.528,3.246 C 3.737,20.385 1.66,20.838 0,20.838 c -4.229,0 -6.909,-2.907 -6.909,-8.267 0,-5.701 3.02,-8.117 7.248,-8.117 1.85,0 3.737,0.453 4.682,1.02 L 5.549,9.135 9.663,8.758 9.173,2.982 C 7.55,1.245 3.511,0 0,0" />
      </g>
      <g
         transform="matrix(0.54558983,0,0,-0.54558983,155.90437,137.62619)"
         id="g164">
        <path
           inkscape:connector-curvature="0"
           id="path166"
           style="fill:#e04c3d;fill-opacity:1;fill-rule:nonzero;stroke:none"
           d="M 0,0 -0.755,3.624 H -7.173 V -3.247 H 3.134 V -7.513 H -7.173 v -4.794 h 4.002 v -4.304 h -11.702 v 4.304 h 2.643 V 3.624 h -2.643 V 7.927 H 3.549 l 0.755,-7.55 z" />
      </g>
      <g
         transform="matrix(0.54558983,0,0,-0.54558983,165.25343,135.64897)"
         id="g168">
        <path
           inkscape:connector-curvature="0"
           id="path170"
           style="fill:#e04c3d;fill-opacity:1;fill-rule:nonzero;stroke:none"
           d="m 0,0 h -2.907 v -7.739 h 2.832 c 3.472,0 4.605,1.586 4.605,3.964 C 4.53,-1.359 3.359,0 0,0 m 0.868,-12.005 h -3.775 v -3.926 h 3.775 v -4.304 h -11.475 v 4.304 h 2.642 V 0 h -2.642 V 4.303 H 0.642 c 6.078,0 9.324,-3.095 9.324,-8.003 0,-5.587 -4.266,-8.305 -9.098,-8.305" />
      </g>
    </g>
  </g>
</svg>
