<?xml version="1.0" encoding="UTF-8" standalone="no"?>
<!-- Created with Inkscape (http://www.inkscape.org/) -->

<svg
   xmlns:dc="http://purl.org/dc/elements/1.1/"
   xmlns:cc="http://creativecommons.org/ns#"
   xmlns:rdf="http://www.w3.org/1999/02/22-rdf-syntax-ns#"
   xmlns:svg="http://www.w3.org/2000/svg"
   xmlns="http://www.w3.org/2000/svg"
   xmlns:sodipodi="http://sodipodi.sourceforge.net/DTD/sodipodi-0.dtd"
   xmlns:inkscape="http://www.inkscape.org/namespaces/inkscape"
   width="163.8"
   height="163.8"
   viewBox="0 0 43.338754 43.338749"
   version="1.1"
   id="svg8"
   inkscape:version="0.92.3 (2405546, 2018-03-11)"
   sodipodi:docname="icon_blue.svg"
   inkscape:export-filename="/home/anxhelo/works/Reproducible-Builds/PNG/icon_blue.png"
   inkscape:export-xdpi="96"
   inkscape:export-ydpi="96">
  <defs
     id="defs2" />
  <sodipodi:namedview
     id="base"
     pagecolor="#ffffff"
     bordercolor="#666666"
     borderopacity="1.0"
     inkscape:pageopacity="0"
     inkscape:pageshadow="2"
     inkscape:zoom="2.0986883"
     inkscape:cx="23.513731"
     inkscape:cy="83.110047"
     inkscape:document-units="px"
     inkscape:current-layer="layer1"
     inkscape:document-rotation="0"
     showgrid="false"
     borderlayer="true"
     inkscape:showpageshadow="true"
     units="px"
     inkscape:pagecheckerboard="false"
     showguides="true"
     inkscape:window-width="1366"
     inkscape:window-height="715"
     inkscape:window-x="0"
     inkscape:window-y="0"
     inkscape:window-maximized="1"
     objecttolerance="10"
     guidetolerance="10"
     inkscape:snap-tangential="true"
     inkscape:snap-perpendicular="true"
     fit-margin-top="0"
     fit-margin-left="0"
     fit-margin-right="0"
     fit-margin-bottom="0"
     inkscape:snap-page="true">
    <inkscape:grid
       type="xygrid"
       id="grid10"
       dotted="false"
       originx="-197.27321"
       originy="-93.147678" />
  </sodipodi:namedview>
  <metadata
     id="metadata5">
    <rdf:RDF>
      <cc:Work
         rdf:about="">
        <dc:format>image/svg+xml</dc:format>
        <dc:type
           rdf:resource="http://purl.org/dc/dcmitype/StillImage" />
        <dc:title></dc:title>
        <cc:license
           rdf:resource="" />
      </cc:Work>
    </rdf:RDF>
  </metadata>
  <g
     inkscape:label="Layer 1"
     inkscape:groupmode="layer"
     id="layer1"
     transform="translate(-197.27317,-160.51357)">
    <path
       id="path3004"
       d="m 218.94255,160.51357 c -11.95917,0 -21.66938,9.71021 -21.66938,21.66937 0,11.95917 9.71021,21.66938 21.66938,21.66938 11.95917,0 21.66937,-9.71021 21.66937,-21.66938 -0.0265,-11.95916 -9.7102,-21.66937 -21.66937,-21.66937 z m 10.26583,12.3825 v 5.37104 h -5.37104 l -3.70417,-3.70417 5.3975,0.0265 -0.0265,-5.3975 z m -10.26583,-8.12271 c 1.82562,0 3.33375,1.48167 3.33375,3.33375 0,1.85208 -1.48167,3.33375 -3.33375,3.33375 -1.82563,0 -3.33375,-1.48167 -3.33375,-3.33375 0,-1.85208 1.48167,-3.33375 3.33375,-3.33375 z m -10.29229,8.12271 3.67771,-3.67771 v 5.37104 h 5.37104 l -3.67771,3.70417 h -5.37104 z m -7.14375,9.31333 c 0,-1.82562 1.48166,-3.33375 3.33375,-3.33375 1.82562,0 3.33375,1.48167 3.33375,3.33375 0,1.82563 -1.48167,3.33375 -3.33375,3.33375 -1.85209,-0.0265 -3.33375,-1.50812 -3.33375,-3.33375 z m 8.12271,10.21292 -3.67771,-3.67771 5.3975,0.0265 -0.0265,-5.3975 3.6777,3.67771 0.0265,5.3975 z m 9.28687,7.17021 c -1.82562,0 -3.33375,-1.48167 -3.33375,-3.33375 0,-1.82563 1.48167,-3.33375 3.33375,-3.33375 1.82563,0 3.33375,1.48166 3.33375,3.33375 -0.0265,1.85208 -1.50812,3.33375 -3.33375,3.33375 z m 9.28688,-7.14375 h -5.37105 v -5.37105 l 3.67771,-3.6777 v 5.37104 h 5.37104 z m 4.78895,-6.95855 c -1.82562,0 -3.33375,-1.48166 -3.33375,-3.33375 0,-1.82562 1.48167,-3.33375 3.33375,-3.33375 1.85209,0 3.33375,1.48167 3.33375,3.33375 0,1.85209 -1.48166,3.33375 -3.33375,3.33375 z"
       class="st0"
       inkscape:connector-curvature="0"
       style="fill:#1e5b96;stroke-width:0.26458332" />
  </g>
</svg>
