<?xml version="1.0" encoding="UTF-8" standalone="no"?>
<!-- Created with Inkscape (http://www.inkscape.org/) -->

<svg
   xmlns:dc="http://purl.org/dc/elements/1.1/"
   xmlns:cc="http://creativecommons.org/ns#"
   xmlns:rdf="http://www.w3.org/1999/02/22-rdf-syntax-ns#"
   xmlns:svg="http://www.w3.org/2000/svg"
   xmlns="http://www.w3.org/2000/svg"
   xmlns:sodipodi="http://sodipodi.sourceforge.net/DTD/sodipodi-0.dtd"
   xmlns:inkscape="http://www.inkscape.org/namespaces/inkscape"
   width="277.5"
   height="224.10001"
   viewBox="0 0 73.421881 59.293125"
   version="1.1"
   id="svg8"
   inkscape:version="0.92.3 (2405546, 2018-03-11)"
   sodipodi:docname="vertical_color.svg"
   inkscape:export-filename="/home/anxhelo/works/Reproducible-Builds/PNG/vertical_color.png"
   inkscape:export-xdpi="96"
   inkscape:export-ydpi="96">
  <defs
     id="defs2" />
  <sodipodi:namedview
     id="base"
     pagecolor="#ffffff"
     bordercolor="#666666"
     borderopacity="1.0"
     inkscape:pageopacity="0"
     inkscape:pageshadow="2"
     inkscape:zoom="1.4839967"
     inkscape:cx="137.5494"
     inkscape:cy="126.28887"
     inkscape:document-units="px"
     inkscape:current-layer="layer1"
     inkscape:document-rotation="0"
     showgrid="false"
     borderlayer="true"
     inkscape:showpageshadow="true"
     units="px"
     inkscape:pagecheckerboard="false"
     showguides="true"
     inkscape:window-width="1366"
     inkscape:window-height="715"
     inkscape:window-x="0"
     inkscape:window-y="0"
     inkscape:window-maximized="1"
     objecttolerance="10"
     guidetolerance="10"
     inkscape:snap-tangential="true"
     inkscape:snap-perpendicular="true"
     fit-margin-top="0"
     fit-margin-left="0"
     fit-margin-right="0"
     fit-margin-bottom="0"
     inkscape:snap-page="true">
    <inkscape:grid
       type="xygrid"
       id="grid10"
       dotted="false"
       originx="-153.04199"
       originy="-91.521261" />
  </sodipodi:namedview>
  <metadata
     id="metadata5">
    <rdf:RDF>
      <cc:Work
         rdf:about="">
        <dc:format>image/svg+xml</dc:format>
        <dc:type
           rdf:resource="http://purl.org/dc/dcmitype/StillImage" />
        <dc:title></dc:title>
        <cc:license
           rdf:resource="" />
      </cc:Work>
    </rdf:RDF>
  </metadata>
  <g
     inkscape:label="Layer 1"
     inkscape:groupmode="layer"
     id="layer1"
     transform="translate(-153.04197,-146.18562)">
    <g
       id="g2341"
       transform="matrix(0.26458334,0,0,0.26458334,153.04197,146.18562)">
      <g
         id="g2292">
        <g
           id="g2290">
          <path
             id="path2266"
             d="m 0,142.6 h 15.3 c 8.3,0 11,4.9 11,10.3 0,3.7 -2.1,8 -6.4,9.5 l 6.4,13.1 H 19.2 L 13,163.2 H 6.3 v 12.3 H 0 c 0,0 0,-32.9 0,-32.9 z m 15.4,14.6 c 3.2,0 4.3,-2.1 4.3,-4.3 0,-2.1 -0.9,-4.3 -4.3,-4.3 h -9 v 8.6 z"
             class="st0"
             inkscape:connector-curvature="0"
             style="fill:#1e5b96" />
          <path
             id="path2268"
             d="m 29.1,163.4 c 0,-7.8 4.4,-12.5 11.2,-12.5 5.9,0 10.6,3.6 10.6,11.3 0,0.9 0,2.3 -0.2,3.6 H 35.1 c 0.2,3.1 2.6,4.8 5.2,4.8 2.2,0 3.8,-0.8 5.2,-2.5 l 3.8,3.8 c -2,2.4 -4.9,4 -8.9,4 -7,0.1 -11.3,-4.6 -11.3,-12.5 z M 45,160.7 c -0.4,-2.8 -2.2,-4.4 -4.7,-4.4 -2.9,0 -4.8,1.4 -5.2,4.4 0.1,0 9.9,0 9.9,0 z"
             class="st0"
             inkscape:connector-curvature="0"
             style="fill:#1e5b96" />
          <path
             id="path2270"
             d="m 62,173.7 v 8.4 l -6.1,2.8 V 151.5 H 62 v 1.7 c 1.1,-1.4 2.8,-2.3 5.2,-2.3 5.9,0 9.9,4.5 9.9,12.6 0,7.9 -4.2,12.5 -10,12.5 -2.4,0 -4,-0.9 -5.1,-2.3 z m 9,-10.2 c 0,-4 -1.6,-6.7 -4.8,-6.7 -2,0 -3.3,0.8 -4.2,1.9 v 9.5 c 0.6,1 2.1,2 4.2,2 3,0 4.8,-2.4 4.8,-6.7 z"
             class="st0"
             inkscape:connector-curvature="0"
             style="fill:#1e5b96" />
          <path
             id="path2272"
             d="m 82.2,151.5 h 6.1 v 2.1 c 0.7,-1.5 2.1,-2.7 4.5,-2.7 2,0 3.5,0.7 4.9,1.8 l -0.8,5.6 c -1.1,-0.8 -2.5,-1.4 -4.4,-1.4 -2.1,0 -4.1,1 -4.1,5.2 v 13.4 h -6.1 v -24 z"
             class="st0"
             inkscape:connector-curvature="0"
             style="fill:#1e5b96" />
          <path
             id="path2274"
             d="m 99.4,163.5 c 0,-7.8 4.3,-12.6 11,-12.6 6.7,0 11,4.8 11,12.6 0,7.9 -4.3,12.5 -11,12.5 -6.7,0 -11,-4.6 -11,-12.5 z m 15.9,0 c 0,-4.2 -1.8,-6.7 -4.9,-6.7 -3,0 -4.9,2.5 -4.9,6.7 0,4.2 1.9,6.7 4.9,6.7 3.1,0 4.9,-2.5 4.9,-6.7 z"
             class="st0"
             inkscape:connector-curvature="0"
             style="fill:#1e5b96" />
          <path
             id="path2276"
             d="m 125.4,163.4 c 0,-7.8 4.2,-12.5 10,-12.5 2.4,0 4,0.9 5.1,2.3 v -8.9 l 6.1,-2.8 v 33.9 h -6.1 v -1.7 c -1,1.5 -2.7,2.3 -5.2,2.3 -6,0 -9.9,-4.4 -9.9,-12.6 z m 15.1,4.8 v -9.5 c -0.7,-0.9 -2.1,-2 -4.2,-2 -3.1,0 -4.8,2.3 -4.8,6.7 0,4.1 1.6,6.7 4.8,6.7 2.1,0.1 3.3,-0.6 4.2,-1.9 z"
             class="st0"
             inkscape:connector-curvature="0"
             style="fill:#1e5b96" />
          <path
             id="path2278"
             d="m 167.6,173.2 c -1.5,1.8 -3.7,2.8 -6.4,2.8 -4.1,0 -8.4,-2.3 -8.4,-9.4 v -15.1 h 6.1 v 13.2 c 0,3.9 1.3,5.5 4.2,5.5 2.9,0 4.6,-1.6 4.6,-5.5 v -13.3 h 6.1 v 24 h -6.1 z"
             class="st0"
             inkscape:connector-curvature="0"
             style="fill:#1e5b96" />
          <path
             id="path2280"
             d="m 178.9,163.5 c 0,-7.8 4.3,-12.6 10.9,-12.6 4.9,0 8.5,2.2 10,7 l -5.8,1.9 c -0.7,-1.8 -2.1,-3.1 -4,-3.1 -3,0 -4.9,2.7 -4.9,6.7 0,4.1 1.9,6.7 4.7,6.7 2.1,0 3.5,-1.2 4.2,-3.5 l 5.8,1.7 c -1.5,5.1 -4.8,7.6 -10.1,7.6 -6.5,0.1 -10.8,-4.5 -10.8,-12.4 z"
             class="st0"
             inkscape:connector-curvature="0"
             style="fill:#1e5b96" />
          <path
             id="path2282"
             d="m 204.6,145.1 c 0,-2 1.6,-3.5 3.6,-3.5 2,0 3.6,1.6 3.6,3.5 0,2 -1.6,3.6 -3.6,3.6 -2,-0.1 -3.6,-1.7 -3.6,-3.6 z m 0.5,6.4 h 6.1 v 24 h -6.1 z"
             class="st0"
             inkscape:connector-curvature="0"
             style="fill:#1e5b96" />
          <path
             id="path2284"
             d="m 223.7,173.7 v 1.7 h -6.1 v -31.2 l 6.1,-2.8 v 11.7 c 1.1,-1.4 2.7,-2.3 5.1,-2.3 5.7,0 10,4.8 10,12.5 0,8.1 -3.9,12.6 -10.2,12.6 -2.3,0.1 -3.8,-0.7 -4.9,-2.2 z m 9,-10.3 c 0,-4.3 -1.7,-6.7 -4.8,-6.7 -2.1,0 -3.5,1 -4.2,2 v 9.5 c 0.9,1.3 2.2,1.9 4.2,1.9 3.1,0.1 4.8,-2.5 4.8,-6.7 z"
             class="st0"
             inkscape:connector-curvature="0"
             style="fill:#1e5b96" />
          <path
             id="path2286"
             d="m 244.2,144.4 6.1,-2.9 v 33.9 h -6.1 z"
             class="st0"
             inkscape:connector-curvature="0"
             style="fill:#1e5b96" />
          <path
             id="path2288"
             d="m 255.7,163.4 c 0,-7.8 4.4,-12.5 11.2,-12.5 5.9,0 10.6,3.6 10.6,11.3 0,0.9 0,2.3 -0.2,3.6 h -15.6 c 0.2,3.1 2.6,4.8 5.2,4.8 2.2,0 3.8,-0.8 5.2,-2.5 l 3.8,3.8 c -2,2.4 -4.9,4 -8.9,4 -7,0.1 -11.3,-4.6 -11.3,-12.5 z m 15.9,-2.7 c -0.4,-2.8 -2.2,-4.4 -4.7,-4.4 -2.9,0 -4.8,1.4 -5.2,4.4 0.1,0 9.9,0 9.9,0 z"
             class="st0"
             inkscape:connector-curvature="0"
             style="fill:#1e5b96" />
        </g>
      </g>
      <g
         id="g2325">
        <g
           id="g2323">
          <g
             transform="rotate(90,40.7,44.8)"
             id="g26_1_">
            <g
               id="circle2_1_">
              <circle
                 id="circle2294"
                 r="12.6"
                 cy="-106.5"
                 cx="61.700001"
                 class="st0"
                 style="fill:#1e5b96" />
            </g>
            <g
               id="circle4_1_">
              <circle
                 id="circle2297"
                 r="12.6"
                 cy="-0.1"
                 cx="61.700001"
                 class="st0"
                 style="fill:#1e5b96" />
            </g>
            <g
               id="circle6_1_">
              <circle
                 id="circle2300"
                 r="12.6"
                 cy="-53.200001"
                 cx="114.9"
                 class="st0"
                 style="fill:#1e5b96" />
            </g>
            <g
               id="circle8_1_">
              <circle
                 id="circle2303"
                 r="12.6"
                 cy="-53.299999"
                 cx="8.5"
                 class="st0"
                 style="fill:#1e5b96" />
            </g>
            <g
               id="g12_1_">
              <g
                 id="polygon10_1_">
                <polygon
                   id="polygon2306"
                   points="100.5,-68 100.5,-88.4 86.6,-102.2 86.6,-81.9 66.3,-81.9 80.2,-68 "
                   class="st1"
                   style="fill:#2b89d6" />
              </g>
            </g>
            <g
               id="g16_1_">
              <g
                 id="polygon14_1_">
                <polygon
                   id="polygon2310"
                   points="47,-14.5 47,-34.8 33.1,-48.7 33.1,-28.4 12.7,-28.4 26.6,-14.5 "
                   class="st1"
                   style="fill:#2b89d6" />
              </g>
            </g>
            <g
               id="g20_1_">
              <g
                 id="polygon18_1_">
                <polygon
                   id="polygon2314"
                   points="100.5,-38.6 80.1,-38.5 66.2,-24.7 86.6,-24.7 86.5,-4.3 100.4,-18.2 "
                   class="st1"
                   style="fill:#2b89d6" />
              </g>
            </g>
            <g
               id="g24_1_">
              <g
                 id="polygon22_1_">
                <polygon
                   id="polygon2318"
                   points="47,-92.2 26.6,-92.2 12.7,-78.2 33.1,-78.3 33,-57.9 47,-71.8 "
                   class="st1"
                   style="fill:#2b89d6" />
              </g>
            </g>
          </g>
        </g>
      </g>
      <g
         id="g2339">
        <path
           id="path2327"
           d="m 78.6,184.3 c 9.3,0 12.2,5.2 12.2,10.4 0,3.6 -2.1,6.6 -5.8,8.2 4.5,1.4 7.2,4.9 7.2,9.4 0,5.3 -3.1,11.3 -12.7,11.3 H 64.7 v -39.2 c 0,-0.1 13.9,-0.1 13.9,-0.1 z m 7.4,10.4 c 0,-2.9 -1.2,-6 -7.1,-6 h -9.3 v 12.2 h 8.1 c 5.5,0 8.3,-2.5 8.3,-6.2 z m 1.4,17.8 c 0,-3.8 -1.8,-7.2 -9.1,-7.2 H 69.6 V 219 h 10.5 c 5.7,0 7.3,-3.3 7.3,-6.5 z"
           class="st0"
           inkscape:connector-curvature="0"
           style="fill:#1e5b96" />
        <path
           id="path2329"
           d="m 118.3,220.7 c -1.9,2.5 -4.2,3.4 -7.2,3.4 -6.7,0 -10.4,-3.6 -10.4,-12.8 v -16.5 h 4.9 V 212 c 0,5.4 2.6,7.5 6.2,7.5 3.8,0 6.6,-1.8 6.6,-7.4 v -17.4 h 4.9 v 28.6 h -4.9 z"
           class="st0"
           inkscape:connector-curvature="0"
           style="fill:#1e5b96" />
        <path
           id="path2331"
           d="m 132.3,186.6 c 0,-1.7 1.3,-3.1 3,-3.1 1.7,0 3.1,1.4 3.1,3.1 0,1.7 -1.3,3 -3.1,3 -1.7,0 -3,-1.3 -3,-3 z m 0.6,8.3 h 4.9 v 28.6 h -4.9 z"
           class="st0"
           inkscape:connector-curvature="0"
           style="fill:#1e5b96" />
        <path
           id="path2333"
           d="m 147.7,185.3 4.9,-2.3 v 40.4 h -4.9 z"
           class="st0"
           inkscape:connector-curvature="0"
           style="fill:#1e5b96" />
        <path
           id="path2335"
           d="m 160.7,209.1 c 0,-9.4 4.7,-15 11.8,-15 3.4,0 5.6,1.2 7.2,2.7 v -11.5 l 4.9,-2.3 v 40.4 h -4.9 v -2.2 c -1.6,1.7 -3.8,2.9 -7.2,2.9 -7.3,0 -11.8,-5.7 -11.8,-15 z m 19.1,6.6 v -13.4 c -1.1,-1.7 -3.2,-3.6 -6.6,-3.6 -4.8,0 -7.6,3.8 -7.6,10.5 0,5.9 2.9,10.5 7.6,10.5 2.7,-0.1 5.1,-1.5 6.6,-4 z"
           class="st0"
           inkscape:connector-curvature="0"
           style="fill:#1e5b96" />
        <path
           id="path2337"
           d="m 192.3,219.3 3.5,-3 c 1.5,1.6 3.9,3.4 7,3.4 3,0 5.3,-1.1 5.3,-3.6 0,-2.9 -3.2,-4.1 -6.6,-5.4 -5.3,-2 -8.8,-4.3 -8.8,-9 0,-4.7 4.1,-7.6 9.6,-7.6 4.4,0 7.6,1.8 9.6,4.3 l -3.4,2.8 c -1.2,-1.3 -3.2,-2.7 -6.3,-2.7 -2.9,0 -4.8,1.2 -4.8,3.2 0,2.4 2.9,3.5 6,4.8 5.2,1.8 9.3,4.1 9.3,9.5 0,5.2 -4,8.1 -10.2,8.1 -4,0 -8,-1.9 -10.2,-4.8 z"
           class="st0"
           inkscape:connector-curvature="0"
           style="fill:#1e5b96" />
      </g>
    </g>
  </g>
</svg>
