<?xml version="1.0" encoding="UTF-8" standalone="no"?>
<!-- Created with Inkscape (http://www.inkscape.org/) -->

<svg
   xmlns:dc="http://purl.org/dc/elements/1.1/"
   xmlns:cc="http://creativecommons.org/ns#"
   xmlns:rdf="http://www.w3.org/1999/02/22-rdf-syntax-ns#"
   xmlns:svg="http://www.w3.org/2000/svg"
   xmlns="http://www.w3.org/2000/svg"
   xmlns:sodipodi="http://sodipodi.sourceforge.net/DTD/sodipodi-0.dtd"
   xmlns:inkscape="http://www.inkscape.org/namespaces/inkscape"
   width="145.24518mm"
   height="41.874874mm"
   viewBox="0 0 145.24518 41.874874"
   version="1.1"
   id="svg1342"
   inkscape:version="0.92.3 (2405546, 2018-03-11)"
   sodipodi:docname="horizontal_color.svg"
   inkscape:export-filename="/home/anxhelo/Desktop/SecureDrop/PNG/horizontal_color.png"
   inkscape:export-xdpi="96"
   inkscape:export-ydpi="96">
  <defs
     id="defs1336" />
  <sodipodi:namedview
     id="base"
     pagecolor="#ffffff"
     bordercolor="#666666"
     borderopacity="1.0"
     inkscape:pageopacity="0.0"
     inkscape:pageshadow="2"
     inkscape:zoom="0.49497475"
     inkscape:cx="163.45595"
     inkscape:cy="123.62805"
     inkscape:document-units="mm"
     inkscape:current-layer="layer1"
     showgrid="false"
     fit-margin-top="0"
     fit-margin-left="0"
     fit-margin-right="0"
     fit-margin-bottom="0"
     inkscape:window-width="1366"
     inkscape:window-height="717"
     inkscape:window-x="0"
     inkscape:window-y="0"
     inkscape:window-maximized="1" />
  <metadata
     id="metadata1339">
    <rdf:RDF>
      <cc:Work
         rdf:about="">
        <dc:format>image/svg+xml</dc:format>
        <dc:type
           rdf:resource="http://purl.org/dc/dcmitype/StillImage" />
        <dc:title></dc:title>
      </cc:Work>
    </rdf:RDF>
  </metadata>
  <g
     inkscape:label="Layer 1"
     inkscape:groupmode="layer"
     id="layer1"
     transform="translate(-24.139315,-122.60423)">
    <g
       transform="matrix(0.20416809,0,0,0.20416809,24.139315,122.60423)"
       id="g1006">
      <g
         id="Symbols_7_">
        <g
           id="g991">
          <g
             id="Logo_x2F_White-Text_12_">
            <g
               id="SD-Logo_12_">
              <g
                 transform="translate(0,0.6334)"
                 id="Group-3_12_">
                <g
                   id="Fill-1_14_">
                  <path
                     style="fill:#034482"
                     inkscape:connector-curvature="0"
                     id="path963"
                     d="m 253.6,48.7 c 2.3,1 4.3,2.3 6,4 1.7,1.7 3,3.7 4,6 1,2.3 1.5,4.7 1.5,7.3 v 5.7 c 0,1.4 -0.6,2.3 -1.9,2.7 L 249.6,78 c -1.3,0.4 -1.9,-0.1 -1.9,-1.5 v -9.7 c 0,-1 -0.4,-1.8 -1,-2.5 -0.7,-0.7 -1.5,-1 -2.5,-1 H 243 c -1,0 -1.8,0.4 -2.5,1 -0.7,0.7 -1,1.6 -1,2.5 v 13.6 c 0.1,1.1 0.3,2 0.6,2.8 0.3,0.8 0.8,1.6 1.6,2.4 l 19.6,14.7 c 1.6,1.4 2.6,2.8 3.1,4.3 0.5,1.4 0.8,3.1 1,4.9 v 25.8 c 0,2.6 -0.5,5 -1.5,7.3 -1,2.3 -2.3,4.3 -4,6 -1.7,1.7 -3.7,3 -6,4 -2.3,1 -4.7,1.5 -7.3,1.5 h -5.7 c -2.6,0 -5,-0.5 -7.3,-1.5 -2.3,-1 -4.3,-2.3 -6,-4 -1.7,-1.7 -3,-3.7 -4,-6 -1,-2.3 -1.5,-4.7 -1.5,-7.3 v -14.4 c 0,-1.4 0.6,-2.3 1.9,-2.7 l 13.6,-3.6 c 1.3,-0.4 1.9,0.1 1.9,1.5 v 18.4 c 0,1 0.3,1.8 1,2.5 0.7,0.7 1.5,1 2.5,1 h 1.2 c 1,0 1.8,-0.3 2.5,-1 0.7,-0.7 1,-1.5 1,-2.5 v -19.8 c -0.1,-1.3 -0.3,-2.4 -0.6,-3.4 -0.3,-1 -0.9,-1.9 -1.8,-2.7 L 226,93.8 c -1.5,-1.4 -2.6,-2.8 -3.2,-4.2 -0.7,-1.4 -1,-3.2 -1,-5.5 V 66 c 0,-2.6 0.5,-5 1.5,-7.3 1,-2.3 2.3,-4.3 4,-6 1.7,-1.7 3.7,-3 6,-4 2.3,-1 4.7,-1.5 7.3,-1.5 h 5.7 c 2.6,0 5,0.5 7.3,1.5"
                     class="st0" />
                </g>
              </g>
              <g
                 id="Fill-4_14_">
                <path
                   style="fill:#034482"
                   inkscape:connector-curvature="0"
                   id="path967"
                   d="m 309.1,138.3 v 13.3 c 0,1.4 -0.7,2.1 -2.1,2.1 h -32.5 c -1.4,0 -2.1,-0.7 -2.1,-2.1 V 50.9 c 0,-1.4 0.7,-2.1 2.1,-2.1 H 307 c 1.4,0 2.1,0.7 2.1,2.1 v 13.3 c 0,1.4 -0.7,2.1 -2.1,2.1 h -17.1 v 21.6 h 14.8 c 1.4,0 2.1,0.7 2.1,2.1 v 13.3 c 0,1.4 -0.7,2.1 -2.1,2.1 h -14.8 v 30.7 H 307 c 1.4,0.1 2.1,0.8 2.1,2.2"
                   class="st0" />
              </g>
              <g
                 transform="translate(61,0.6334)"
                 id="Group-8_12_">
                <g
                   id="Fill-6_14_">
                  <path
                     style="fill:#034482"
                     inkscape:connector-curvature="0"
                     id="path970"
                     d="m 287.2,48.7 c 2.3,1 4.3,2.3 6,4 1.7,1.7 3,3.7 4,6 1,2.3 1.5,4.7 1.5,7.3 v 12 c 0,1.4 -0.7,2.3 -1.9,2.7 l -13.6,2.1 c -1.3,0.4 -1.9,-0.1 -1.9,-1.5 V 66.8 c 0,-1 -0.4,-1.8 -1.1,-2.5 -0.7,-0.7 -1.6,-1 -2.5,-1 h -1.2 c -1,0 -1.8,0.4 -2.5,1 -0.7,0.7 -1,1.6 -1,2.5 v 67.7 c 0,1 0.3,1.8 1,2.5 0.7,0.7 1.5,1 2.5,1 h 1.2 c 1,0 1.8,-0.3 2.5,-1 0.7,-0.7 1.1,-1.5 1.1,-2.5 v -21 c 0,-1.4 0.6,-1.9 1.9,-1.5 l 13.6,1.8 c 1.3,0.4 1.9,1.3 1.9,2.7 v 18.7 c 0,2.6 -0.5,5 -1.5,7.3 -1,2.3 -2.4,4.3 -4,6 -1.7,1.7 -3.7,3 -6,4 -2.3,1 -4.7,1.5 -7.3,1.5 h -5.7 c -2.6,0 -5,-0.5 -7.3,-1.5 -2.3,-1 -4.3,-2.3 -6,-4 -1.7,-1.7 -3,-3.7 -4,-6 -1,-2.3 -1.5,-4.7 -1.5,-7.3 V 66 c 0,-2.6 0.5,-5 1.5,-7.3 1,-2.3 2.3,-4.3 4,-6 1.7,-1.7 3.7,-3 6,-4 2.3,-1 4.7,-1.5 7.3,-1.5 h 5.7 c 2.5,0 5,0.5 7.3,1.5"
                     class="st0" />
                </g>
              </g>
              <g
                 id="Fill-9_14_">
                <path
                   style="fill:#034482"
                   inkscape:connector-curvature="0"
                   id="path974"
                   d="m 408.8,50.9 v 85 c 0,2.6 -0.5,5 -1.5,7.3 -1,2.3 -2.3,4.3 -4,6 -1.7,1.7 -3.7,3 -6,4 -2.3,1 -4.7,1.5 -7.3,1.5 h -5.7 c -2.6,0 -5,-0.5 -7.3,-1.5 -2.3,-1 -4.3,-2.3 -6,-4 -1.7,-1.7 -3,-3.7 -4,-6 -1,-2.3 -1.5,-4.7 -1.5,-7.3 v -85 c 0,-1.4 0.7,-2.1 2.1,-2.1 h 13.3 c 1.4,0 2.1,0.7 2.1,2.1 v 84.2 c 0,1 0.3,1.8 1,2.5 0.7,0.7 1.5,1 2.5,1 h 1.2 c 1,0 1.8,-0.3 2.5,-1 0.7,-0.7 1,-1.5 1,-2.5 V 50.9 c 0,-1.4 0.7,-2.1 2.1,-2.1 h 13.3 c 1.5,0 2.2,0.7 2.2,2.1"
                   class="st0" />
              </g>
              <g
                 id="Fill-11_14_">
                <g
                   id="g979">
                  <path
                     style="fill:#034482"
                     inkscape:connector-curvature="0"
                     id="path977"
                     d="m 434.3,95 h 4.8 c 1,0 1.8,-0.3 2.5,-1 0.7,-0.7 1,-1.5 1,-2.5 v -23 c 0,-1 -0.4,-1.8 -1,-2.5 -0.7,-0.7 -1.6,-1.1 -2.5,-1.1 h -4.8 z m 28.9,56.6 c 0.3,1.4 -0.2,2.1 -1.5,2.1 h -13.6 c -0.6,0 -1.2,-0.2 -1.7,-0.6 -0.6,-0.4 -0.9,-0.9 -1.1,-1.5 l -10.9,-36.7 v 38.8 l -0.2,-1.5 c -0.2,1 -0.8,1.5 -1.9,1.5 H 419 c -1.4,0 -2.1,-0.7 -2.1,-2.1 V 50.9 c 0,-1.4 0.7,-2.1 2.1,-2.1 h 22.5 c 2.6,0 5,0.5 7.3,1.5 2.3,1 4.3,2.3 6,4 1.7,1.7 3,3.7 4,6 1,2.3 1.5,4.7 1.5,7.3 V 92 c 0,3.7 -1,7 -2.8,10 -1.9,2.9 -4.4,5.2 -7.5,6.8 z"
                     class="st0" />
                </g>
              </g>
              <g
                 id="Fill-13_14_">
                <path
                   style="fill:#034482"
                   inkscape:connector-curvature="0"
                   id="path982"
                   d="m 505.8,138.3 v 13.3 c 0,1.4 -0.7,2.1 -2.1,2.1 h -32.5 c -1.4,0 -2.1,-0.7 -2.1,-2.1 V 50.9 c 0,-1.4 0.7,-2.1 2.1,-2.1 h 32.5 c 1.4,0 2.1,0.7 2.1,2.1 v 13.3 c 0,1.4 -0.7,2.1 -2.1,2.1 h -17.1 v 21.6 h 14.8 c 1.4,0 2.1,0.7 2.1,2.1 v 13.3 c 0,1.4 -0.7,2.1 -2.1,2.1 h -14.8 v 30.7 h 17.1 c 1.4,0.1 2.1,0.8 2.1,2.2"
                   class="st0" />
              </g>
              <path
                 style="fill:#2e8ae8"
                 inkscape:connector-curvature="0"
                 d="m 540.4,68.5 c 0,-1 -0.4,-1.8 -1.1,-2.5 -0.7,-0.7 -1.5,-1.1 -2.5,-1.1 H 532 v 72.8 h 4.8 c 1,0 1.8,-0.4 2.5,-1 0.7,-0.7 1.1,-1.5 1.1,-2.5 z M 539,48.8 c 2.6,0 5,0.5 7.3,1.5 2.3,1 4.3,2.4 6,4 1.7,1.7 3,3.7 4,6 1,2.3 1.5,4.7 1.5,7.3 v 67.1 c 0,2.6 -0.5,5 -1.5,7.3 -1,2.3 -2.3,4.3 -4,6 -1.7,1.7 -3.7,3 -6,4 -2.3,1 -4.7,1.5 -7.3,1.5 h -22.5 c -1.4,0 -2.1,-0.7 -2.1,-2.1 V 50.9 c 0,-1.4 0.7,-2.1 2.1,-2.1 0,0 22.5,0 22.5,0 z"
                 class="st1"
                 id="Fill-15_14_" />
              <path
                 style="fill:#2e8ae8"
                 inkscape:connector-curvature="0"
                 d="m 583.4,95 h 4.8 c 1,0 1.8,-0.3 2.5,-1 0.7,-0.7 1,-1.5 1,-2.5 v -23 c 0,-1 -0.4,-1.8 -1,-2.5 -0.7,-0.7 -1.6,-1.1 -2.5,-1.1 h -4.8 z m 28.9,56.6 c 0.3,1.4 -0.2,2.1 -1.5,2.1 h -13.6 c -0.6,0 -1.2,-0.2 -1.7,-0.6 -0.6,-0.4 -0.9,-0.9 -1.1,-1.5 l -10.9,-36.7 v 38.8 l -0.2,-1.5 c -0.2,1 -0.8,1.5 -1.9,1.5 h -13.3 c -1.4,0 -2.1,-0.7 -2.1,-2.1 V 50.9 c 0,-1.4 0.7,-2.1 2.1,-2.1 h 22.5 c 2.6,0 5,0.5 7.3,1.5 2.3,1 4.3,2.3 6,4 1.7,1.7 3,3.7 4,6 1,2.3 1.5,4.7 1.5,7.3 V 92 c 0,3.7 -1,7 -2.8,10 -1.9,2.9 -4.4,5.2 -7.5,6.8 z"
                 class="st1"
                 id="Fill-17_14_" />
              <path
                 style="fill:#2e8ae8"
                 inkscape:connector-curvature="0"
                 d="m 642.6,67.4 c 0,-1 -0.4,-1.8 -1,-2.5 -0.7,-0.7 -1.5,-1 -2.5,-1 h -1.2 c -1,0 -1.8,0.4 -2.5,1 -0.7,0.7 -1,1.6 -1,2.5 v 67.7 c 0,1 0.3,1.8 1,2.5 0.7,0.7 1.5,1 2.5,1 h 1.2 c 1,0 1.8,-0.3 2.5,-1 0.7,-0.7 1,-1.5 1,-2.5 z m 17.5,68.5 c 0,2.6 -0.5,5 -1.5,7.3 -1,2.3 -2.3,4.3 -4,6 -1.7,1.7 -3.7,3 -6,4 -2.3,1 -4.7,1.5 -7.3,1.5 h -5.7 c -2.6,0 -5,-0.5 -7.3,-1.5 -2.3,-1 -4.3,-2.3 -6,-4 -1.7,-1.7 -3,-3.7 -4,-6 -1,-2.3 -1.5,-4.7 -1.5,-7.3 V 66.7 c 0,-2.6 0.5,-5 1.5,-7.3 1,-2.3 2.3,-4.3 4,-6 1.7,-1.7 3.7,-3 6,-4 2.3,-1 4.7,-1.5 7.3,-1.5 h 5.7 c 2.6,0 5,0.5 7.3,1.5 2.3,1 4.3,2.3 6,4 1.7,1.7 3,3.7 4,6 1,2.3 1.5,4.7 1.5,7.3 z"
                 class="st1"
                 id="Fill-19_14_" />
              <path
                 style="fill:#2e8ae8"
                 inkscape:connector-curvature="0"
                 d="m 693.9,68.5 c 0,-1 -0.4,-1.8 -1,-2.5 -0.7,-0.7 -1.6,-1.1 -2.5,-1.1 h -4.8 V 95 h 4.8 c 1,0 1.8,-0.3 2.5,-1 0.7,-0.7 1,-1.5 1,-2.5 z m -1.3,-19.7 c 2.6,0 5,0.5 7.3,1.5 2.3,1 4.3,2.4 6,4 1.7,1.7 3,3.7 4,6 1,2.3 1.5,4.7 1.5,7.3 V 92 c 0,2.6 -0.5,5 -1.5,7.3 -1,2.3 -2.3,4.3 -4,6 -1.7,1.7 -3.7,3 -6,4 -2.3,1 -4.7,1.5 -7.3,1.5 h -7 v 40.6 c 0,1.4 -0.7,2.1 -2.1,2.1 h -13.3 c -1.4,0 -2.1,-0.7 -2.1,-2.1 V 50.9 c 0,-1.4 0.7,-2.1 2.1,-2.1 0,0 22.4,0 22.4,0 z"
                 class="st1"
                 id="Fill-21_14_" />
            </g>
          </g>
        </g>
      </g>
      <g
         id="g1004">
        <path
           style="fill:#045fb4"
           inkscape:connector-curvature="0"
           id="path994"
           d="M 88.8,205.1 V 102.5 L 177.6,51.2 V 153.7 Z M 155,146.7 c 4.2,-2.4 6.7,-6.9 6.7,-11.7 V 95.1 c 0,-3.7 -3,-6.7 -6.6,-6.7 -1.2,0 -2.3,0.3 -3.3,0.9 L 111,112.9 v 59.2 z M 124.9,120.6 145.1,109 c 1.4,-0.8 3.2,-0.3 4,1.1 0.2,0.4 0.4,0.9 0.4,1.4 v 19.3 c 0,2.8 -1.5,5.4 -4,6.8 L 124.9,149 Z"
           class="st2" />
        <path
           style="fill:#2e8ae8"
           inkscape:connector-curvature="0"
           id="path996"
           d="M 88.8,102.5 0,51.3 88.8,0 177.6,51.3 Z m 14,-36.8 17.2,-9.9 -25,-9.2 c 0.5,-0.9 0.8,-1.9 0.8,-2.9 0,-5.1 -7.4,-9.2 -16.5,-9.2 -9.1,0 -16.5,4.2 -16.5,9.2 0,5 7.4,9.2 16.5,9.2 1.2,0 2.4,-0.1 3.6,-0.2 z"
           class="st1" />
        <g
           id="g1002">
          <polygon
             style="fill:none"
             id="polygon998"
             points="20.9,143.9 66.4,170.2 66.4,134.4 33.3,115.4 33.3,108.6 66.3,127.7 66.4,113.5 20.9,87.3 20.9,122.7 52,140.7 52,147.3 20.9,129.4 "
             class="st3" />
          <path
             style="fill:#034482"
             inkscape:connector-curvature="0"
             id="path1000"
             d="m 0,153.8 88.8,51.3 V 102.5 L 0,51.3 Z m 20.9,-24.4 31.1,18 v -6.7 l -31.1,-18 V 87.3 l 45.4,26.2 v 14.2 L 33.2,108.6 v 6.7 l 33.1,19.1 v 35.7 L 20.9,143.9 c 0,0 0,-14.5 0,-14.5 z"
             class="st0" />
        </g>
      </g>
    </g>
  </g>
</svg>
