<?xml version="1.0" encoding="UTF-8" standalone="no"?>
<!-- Created with Inkscape (http://www.inkscape.org/) -->

<svg
   xmlns:dc="http://purl.org/dc/elements/1.1/"
   xmlns:cc="http://creativecommons.org/ns#"
   xmlns:rdf="http://www.w3.org/1999/02/22-rdf-syntax-ns#"
   xmlns:svg="http://www.w3.org/2000/svg"
   xmlns="http://www.w3.org/2000/svg"
   xmlns:sodipodi="http://sodipodi.sourceforge.net/DTD/sodipodi-0.dtd"
   xmlns:inkscape="http://www.inkscape.org/namespaces/inkscape"
   width="145.24579mm"
   height="39.84201mm"
   viewBox="0 0 145.24579 39.84201"
   version="1.1"
   id="svg1342"
   sodipodi:docname="horizontal_black.svg"
   inkscape:export-filename="/home/anxhelo/Desktop/SecureDrop/PNG/horizontal_black.png"
   inkscape:export-xdpi="96"
   inkscape:export-ydpi="96"
   inkscape:version="0.92.3 (2405546, 2018-03-11)">
  <defs
     id="defs1336">
    <mask
       id="mask-2_9_"
       height="107"
       width="43.4"
       y="42.8"
       x="217.9"
       maskUnits="userSpaceOnUse">
      <g
         id="g2397"
         class="st0"
         style="filter:url(#Adobe_OpacityMaskFilter)">
        <polygon
           points="217.9,42.8 261.4,42.8 261.4,149.7 217.9,149.7 "
           class="st1"
           id="path-1_9_"
           style="fill:#ffffff" />
      </g>
    </mask>
    <filter
       height="107"
       width="43.400002"
       y="42.799999"
       x="217.89999"
       filterUnits="userSpaceOnUse"
       id="Adobe_OpacityMaskFilter">
      <feColorMatrix
         id="feColorMatrix2391"
         values="1 0 0 0 0  0 1 0 0 0  0 0 1 0 0  0 0 0 1 0"
         type="matrix" />
    </filter>
    <mask
       id="mask-4_9_"
       height="107"
       width="43.4"
       y="42.8"
       x="251.5"
       maskUnits="userSpaceOnUse">
      <g
         id="g2409"
         class="st3"
         style="filter:url(#Adobe_OpacityMaskFilter_1_)">
        <polygon
           points="251.5,42.8 294.9,42.8 294.9,149.7 251.5,149.7 "
           class="st1"
           id="path-3_9_"
           style="fill:#ffffff" />
      </g>
    </mask>
    <filter
       height="107"
       width="43.400002"
       y="42.799999"
       x="251.5"
       filterUnits="userSpaceOnUse"
       id="Adobe_OpacityMaskFilter_1_">
      <feColorMatrix
         id="feColorMatrix2403"
         values="1 0 0 0 0  0 1 0 0 0  0 0 1 0 0  0 0 0 1 0"
         type="matrix" />
    </filter>
    <filter
       height="107"
       width="43.400002"
       y="42.799999"
       x="217.89999"
       filterUnits="userSpaceOnUse"
       id="filter2466">
      <feColorMatrix
         id="feColorMatrix2464"
         values="1 0 0 0 0  0 1 0 0 0  0 0 1 0 0  0 0 0 1 0"
         type="matrix" />
    </filter>
    <filter
       height="107"
       width="43.400002"
       y="42.799999"
       x="251.5"
       filterUnits="userSpaceOnUse"
       id="filter2477">
      <feColorMatrix
         id="feColorMatrix2475"
         values="1 0 0 0 0  0 1 0 0 0  0 0 1 0 0  0 0 0 1 0"
         type="matrix" />
    </filter>
  </defs>
  <sodipodi:namedview
     id="base"
     pagecolor="#ffffff"
     bordercolor="#666666"
     borderopacity="1.0"
     inkscape:pageopacity="0.0"
     inkscape:pageshadow="2"
     inkscape:zoom="0.7"
     inkscape:cx="332.42697"
     inkscape:cy="282.152"
     inkscape:document-units="mm"
     inkscape:current-layer="layer1"
     showgrid="false"
     fit-margin-top="0"
     fit-margin-left="0"
     fit-margin-right="0"
     fit-margin-bottom="0"
     inkscape:window-width="1366"
     inkscape:window-height="717"
     inkscape:window-x="0"
     inkscape:window-y="0"
     inkscape:window-maximized="1"
     units="px"
     inkscape:snap-page="true" />
  <metadata
     id="metadata1339">
    <rdf:RDF>
      <cc:Work
         rdf:about="">
        <dc:format>image/svg+xml</dc:format>
        <dc:type
           rdf:resource="http://purl.org/dc/dcmitype/StillImage" />
        <dc:title></dc:title>
      </cc:Work>
    </rdf:RDF>
  </metadata>
  <g
     inkscape:label="Layer 1"
     inkscape:groupmode="layer"
     id="layer1"
     transform="translate(-24.139315,-122.68544)">
    <g
       id="g2450"
       transform="matrix(0.20526538,0,0,0.20526538,24.139315,122.68544)">
      <g
         id="Symbols_6_">
        <g
           id="g2439">
          <g
             id="Logo_x2F_White-Text_15_">
            <g
               id="SD-Logo_15_">
              <g
                 transform="translate(0,0.6334)"
                 id="Group-3_15_">
                <defs
                   id="defs2394">
                  <filter
                     height="107"
                     width="43.400002"
                     y="42.799999"
                     x="217.89999"
                     filterUnits="userSpaceOnUse"
                     id="filter2645">
                    <feColorMatrix
                       id="feColorMatrix2643"
                       values="1 0 0 0 0  0 1 0 0 0  0 0 1 0 0  0 0 0 1 0"
                       type="matrix" />
                  </filter>
                </defs>
                <mask
                   id="mask2534"
                   height="107"
                   width="43.4"
                   y="42.8"
                   x="217.9"
                   maskUnits="userSpaceOnUse">
                  <g
                     id="g2532"
                     class="st0"
                     style="filter:url(#Adobe_OpacityMaskFilter)">
                    <polygon
                       points="261.4,42.8 261.4,149.7 217.9,149.7 217.9,42.8 "
                       class="st1"
                       id="polygon2530"
                       style="fill:#ffffff" />
                  </g>
                </mask>
                <path
                   mask="url(#mask-2_9_)"
                   d="m 249.8,44.3 c 2.3,1 4.3,2.3 6,4 1.7,1.7 3,3.7 4,6 1,2.3 1.5,4.7 1.5,7.3 v 5.7 c 0,1.4 -0.6,2.3 -1.9,2.7 l -13.6,3.6 c -1.3,0.4 -1.9,-0.1 -1.9,-1.5 v -9.7 c 0,-1 -0.4,-1.8 -1,-2.5 -0.7,-0.7 -1.5,-1 -2.5,-1 h -1.2 c -1,0 -1.8,0.4 -2.5,1 -0.7,0.7 -1,1.6 -1,2.5 V 76 c 0.1,1.1 0.3,2 0.6,2.8 0.3,0.8 0.8,1.6 1.6,2.4 L 257.3,96 c 1.6,1.4 2.6,2.8 3.1,4.3 0.5,1.4 0.8,3.1 1,4.9 V 131 c 0,2.6 -0.5,5 -1.5,7.3 -1,2.3 -2.3,4.3 -4,6 -1.7,1.7 -3.7,3 -6,4 -2.3,1 -4.7,1.5 -7.3,1.5 h -5.7 c -2.6,0 -5,-0.5 -7.3,-1.5 -2.3,-1 -4.3,-2.3 -6,-4 -1.7,-1.7 -3,-3.7 -4,-6 -1,-2.3 -1.5,-4.7 -1.5,-7.3 v -14.4 c 0,-1.4 0.6,-2.3 1.9,-2.7 l 13.6,-3.6 c 1.3,-0.4 1.9,0.1 1.9,1.5 v 18.4 c 0,1 0.3,1.8 1,2.5 0.7,0.7 1.5,1 2.5,1 h 1.2 c 1,0 1.8,-0.3 2.5,-1 0.7,-0.7 1,-1.5 1,-2.5 v -19.8 c -0.1,-1.3 -0.3,-2.4 -0.6,-3.4 -0.3,-1 -0.9,-1.9 -1.8,-2.7 L 222,89.5 c -1.5,-1.4 -2.6,-2.8 -3.2,-4.2 -0.7,-1.4 -1,-3.2 -1,-5.5 v -18 c 0,-2.6 0.5,-5 1.5,-7.3 1,-2.3 2.3,-4.3 4,-6 1.7,-1.7 3.7,-3 6,-4 2.3,-1 4.7,-1.5 7.3,-1.5 h 5.7 c 2.8,-0.2 5.2,0.3 7.5,1.3"
                   class="st2"
                   id="Fill-1_17_"
                   inkscape:connector-curvature="0" />
              </g>
              <path
                 d="m 305.3,133.9 v 13.3 c 0,1.4 -0.7,2.1 -2.1,2.1 h -32.5 c -1.4,0 -2.1,-0.7 -2.1,-2.1 V 46.5 c 0,-1.4 0.7,-2.1 2.1,-2.1 h 32.5 c 1.4,0 2.1,0.7 2.1,2.1 v 13.3 c 0,1.4 -0.7,2.1 -2.1,2.1 h -17.1 v 21.6 h 14.8 c 1.4,0 2.1,0.7 2.1,2.1 V 99 c 0,1.4 -0.7,2.1 -2.1,2.1 h -14.8 v 30.7 h 17.1 c 1.4,0 2.1,0.7 2.1,2.1"
                 id="Fill-4_17_"
                 inkscape:connector-curvature="0" />
              <g
                 transform="translate(61,0.6334)"
                 id="Group-8_15_">
                <defs
                   id="defs2406">
                  <filter
                     height="107"
                     width="43.400002"
                     y="42.799999"
                     x="251.5"
                     filterUnits="userSpaceOnUse"
                     id="filter2656">
                    <feColorMatrix
                       id="feColorMatrix2654"
                       values="1 0 0 0 0  0 1 0 0 0  0 0 1 0 0  0 0 0 1 0"
                       type="matrix" />
                  </filter>
                </defs>
                <mask
                   id="mask2546"
                   height="107"
                   width="43.4"
                   y="42.8"
                   x="251.5"
                   maskUnits="userSpaceOnUse">
                  <g
                     id="g2544"
                     class="st3"
                     style="filter:url(#Adobe_OpacityMaskFilter_1_)">
                    <polygon
                       points="294.9,42.8 294.9,149.7 251.5,149.7 251.5,42.8 "
                       class="st1"
                       id="polygon2542"
                       style="fill:#ffffff" />
                  </g>
                </mask>
                <path
                   mask="url(#mask-4_9_)"
                   d="m 283.4,44.3 c 2.3,1 4.3,2.3 6,4 1.7,1.7 3,3.7 4,6 1,2.3 1.5,4.7 1.5,7.3 v 12 c 0,1.4 -0.7,2.3 -1.9,2.7 l -13.6,2.1 c -1.3,0.4 -1.9,-0.1 -1.9,-1.5 V 62.4 c 0,-1 -0.4,-1.8 -1.1,-2.5 -0.7,-0.7 -1.6,-1 -2.5,-1 h -1.2 c -1,0 -1.8,0.4 -2.5,1 -0.7,0.7 -1,1.6 -1,2.5 v 67.7 c 0,1 0.3,1.8 1,2.5 0.7,0.7 1.5,1 2.5,1 h 1.2 c 1,0 1.8,-0.3 2.5,-1 0.7,-0.7 1.1,-1.5 1.1,-2.5 v -21 c 0,-1.4 0.6,-1.9 1.9,-1.5 l 13.6,1.8 c 1.3,0.4 1.9,1.3 1.9,2.7 v 18.7 c 0,2.6 -0.5,5 -1.5,7.3 -1,2.3 -2.4,4.3 -4,6 -1.7,1.7 -3.7,3 -6,4 -2.3,1 -4.7,1.5 -7.3,1.5 h -5.7 c -2.6,0 -5,-0.5 -7.3,-1.5 -2.3,-1 -4.3,-2.3 -6,-4 -1.7,-1.7 -3,-3.7 -4,-6 -1,-2.3 -1.5,-4.7 -1.5,-7.3 V 61.6 c 0,-2.6 0.5,-5 1.5,-7.3 1,-2.3 2.3,-4.3 4,-6 1.7,-1.7 3.7,-3 6,-4 2.3,-1 4.7,-1.5 7.3,-1.5 h 5.7 c 2.5,0 5,0.5 7.3,1.5"
                   class="st4"
                   id="Fill-6_17_"
                   inkscape:connector-curvature="0" />
              </g>
              <path
                 d="m 405.1,46.5 v 85 c 0,2.6 -0.5,5 -1.5,7.3 -1,2.3 -2.3,4.3 -4,6 -1.7,1.7 -3.7,3 -6,4 -2.3,1 -4.7,1.5 -7.3,1.5 h -5.7 c -2.6,0 -5,-0.5 -7.3,-1.5 -2.3,-1 -4.3,-2.3 -6,-4 -1.7,-1.7 -3,-3.7 -4,-6 -1,-2.3 -1.5,-4.7 -1.5,-7.3 v -85 c 0,-1.4 0.7,-2.1 2.1,-2.1 H 377 c 1.4,0 2.1,0.7 2.1,2.1 v 84.2 c 0,1 0.3,1.8 1,2.5 0.7,0.7 1.5,1 2.5,1 h 1.2 c 1,0 1.8,-0.3 2.5,-1 0.7,-0.7 1,-1.5 1,-2.5 V 46.5 c 0,-1.4 0.7,-2.1 2.1,-2.1 H 403 c 1.4,0 2.1,0.7 2.1,2.1"
                 id="Fill-9_17_"
                 inkscape:connector-curvature="0" />
              <path
                 d="m 430.5,90.6 h 4.8 c 1,0 1.8,-0.3 2.5,-1 0.7,-0.7 1,-1.5 1,-2.5 v -23 c 0,-1 -0.4,-1.8 -1,-2.5 -0.7,-0.7 -1.6,-1.1 -2.5,-1.1 h -4.8 z m 28.9,56.6 c 0.3,1.4 -0.2,2.1 -1.5,2.1 h -13.6 c -0.6,0 -1.2,-0.2 -1.7,-0.6 -0.6,-0.4 -0.9,-0.9 -1.1,-1.5 l -10.9,-36.7 v 38.8 l -0.2,-1.5 c -0.2,1 -0.8,1.5 -1.9,1.5 h -13.3 c -1.4,0 -2.1,-0.7 -2.1,-2.1 V 46.5 c 0,-1.4 0.7,-2.1 2.1,-2.1 h 22.5 c 2.6,0 5,0.5 7.3,1.5 2.3,1 4.3,2.3 6,4 1.7,1.7 3,3.7 4,6 1,2.3 1.5,4.7 1.5,7.3 v 24.4 c 0,3.7 -1,7 -2.8,10 -1.9,2.9 -4.4,5.2 -7.5,6.8 z"
                 id="Fill-11_17_"
                 inkscape:connector-curvature="0" />
              <path
                 d="m 502,133.9 v 13.3 c 0,1.4 -0.7,2.1 -2.1,2.1 h -32.5 c -1.4,0 -2.1,-0.7 -2.1,-2.1 V 46.5 c 0,-1.4 0.7,-2.1 2.1,-2.1 h 32.5 c 1.4,0 2.1,0.7 2.1,2.1 v 13.3 c 0,1.4 -0.7,2.1 -2.1,2.1 h -17.1 v 21.6 h 14.8 c 1.4,0 2.1,0.7 2.1,2.1 V 99 c 0,1.4 -0.7,2.1 -2.1,2.1 h -14.8 v 30.7 h 17.1 c 1.4,0 2.1,0.7 2.1,2.1"
                 id="Fill-13_17_"
                 inkscape:connector-curvature="0" />
              <g
                 id="Fill-15_16_">
                <g
                   id="g2419">
                  <path
                     id="path2417"
                     d="m 536.6,64.1 c 0,-1 -0.4,-1.8 -1.1,-2.5 -0.7,-0.7 -1.5,-1.1 -2.5,-1.1 h -4.8 v 72.8 h 4.8 c 1,0 1.8,-0.4 2.5,-1 0.7,-0.7 1.1,-1.5 1.1,-2.5 z m -1.4,-19.7 c 2.6,0 5,0.5 7.3,1.5 2.3,1 4.3,2.4 6,4 1.7,1.7 3,3.7 4,6 1,2.3 1.5,4.7 1.5,7.3 v 67.1 c 0,2.6 -0.5,5 -1.5,7.3 -1,2.3 -2.3,4.3 -4,6 -1.7,1.7 -3.7,3 -6,4 -2.3,1 -4.7,1.5 -7.3,1.5 h -22.5 c -1.4,0 -2.1,-0.7 -2.1,-2.1 V 46.5 c 0,-1.4 0.7,-2.1 2.1,-2.1 z"
                     inkscape:connector-curvature="0" />
                </g>
              </g>
              <g
                 id="Fill-17_16_">
                <g
                   id="g2424">
                  <path
                     id="path2422"
                     d="m 579.6,90.6 h 4.8 c 1,0 1.8,-0.3 2.5,-1 0.7,-0.7 1,-1.5 1,-2.5 v -23 c 0,-1 -0.4,-1.8 -1,-2.5 -0.7,-0.7 -1.6,-1.1 -2.5,-1.1 h -4.8 z m 28.9,56.6 c 0.3,1.4 -0.2,2.1 -1.5,2.1 h -13.6 c -0.6,0 -1.2,-0.2 -1.7,-0.6 -0.6,-0.4 -0.9,-0.9 -1.1,-1.5 l -10.9,-36.7 v 38.8 l -0.2,-1.5 c -0.2,1 -0.8,1.5 -1.9,1.5 h -13.3 c -1.4,0 -2.1,-0.7 -2.1,-2.1 V 46.5 c 0,-1.4 0.7,-2.1 2.1,-2.1 h 22.5 c 2.6,0 5,0.5 7.3,1.5 2.3,1 4.3,2.3 6,4 1.7,1.7 3,3.7 4,6 1,2.3 1.5,4.7 1.5,7.3 v 24.4 c 0,3.7 -1,7 -2.8,10 -1.9,2.9 -4.4,5.2 -7.5,6.8 z"
                     inkscape:connector-curvature="0" />
                </g>
              </g>
              <g
                 id="Fill-19_16_">
                <g
                   id="g2429">
                  <path
                     id="path2427"
                     d="m 638.8,63 c 0,-1 -0.4,-1.8 -1,-2.5 -0.7,-0.7 -1.5,-1 -2.5,-1 H 634 c -1,0 -1.8,0.4 -2.5,1 -0.7,0.7 -1,1.6 -1,2.5 v 67.7 c 0,1 0.3,1.8 1,2.5 0.7,0.7 1.5,1 2.5,1 h 1.2 c 1,0 1.8,-0.3 2.5,-1 0.7,-0.7 1,-1.5 1,-2.5 V 63 Z m 17.5,68.5 c 0,2.6 -0.5,5 -1.5,7.3 -1,2.3 -2.3,4.3 -4,6 -1.7,1.7 -3.7,3 -6,4 -2.3,1 -4.7,1.5 -7.3,1.5 h -5.7 c -2.6,0 -5,-0.5 -7.3,-1.5 -2.3,-1 -4.3,-2.3 -6,-4 -1.7,-1.7 -3,-3.7 -4,-6 -1,-2.3 -1.5,-4.7 -1.5,-7.3 V 62.3 c 0,-2.6 0.5,-5 1.5,-7.3 1,-2.3 2.3,-4.3 4,-6 1.7,-1.7 3.7,-3 6,-4 2.3,-1 4.7,-1.5 7.3,-1.5 h 5.7 c 2.6,0 5,0.5 7.3,1.5 2.3,1 4.3,2.3 6,4 1.7,1.7 3,3.7 4,6 1,2.3 1.5,4.7 1.5,7.3 z"
                     inkscape:connector-curvature="0" />
                </g>
              </g>
              <g
                 id="Fill-21_16_">
                <g
                   id="g2434">
                  <path
                     id="path2432"
                     d="m 690.2,64.1 c 0,-1 -0.4,-1.8 -1,-2.5 -0.7,-0.7 -1.6,-1.1 -2.5,-1.1 h -4.8 v 30.1 h 4.8 c 1,0 1.8,-0.3 2.5,-1 0.7,-0.7 1,-1.5 1,-2.5 z m -1.4,-19.7 c 2.6,0 5,0.5 7.3,1.5 2.3,1 4.3,2.4 6,4 1.7,1.7 3,3.7 4,6 1,2.3 1.5,4.7 1.5,7.3 v 24.4 c 0,2.6 -0.5,5 -1.5,7.3 -1,2.3 -2.3,4.3 -4,6 -1.7,1.7 -3.7,3 -6,4 -2.3,1 -4.7,1.5 -7.3,1.5 h -7 V 147 c 0,1.4 -0.7,2.1 -2.1,2.1 h -13.3 c -1.4,0 -2.1,-0.7 -2.1,-2.1 V 46.5 c 0,-1.4 0.7,-2.1 2.1,-2.1 z"
                     inkscape:connector-curvature="0" />
                </g>
              </g>
            </g>
          </g>
        </g>
      </g>
      <path
         id="path2442"
         d="m 141.3,104.6 -20.2,11.6 v 28.4 l 20.5,-11.5 c 2.5,-1.4 4,-4 4,-6.8 V 107 c 0,-0.5 -0.1,-1 -0.4,-1.4 -0.7,-1.3 -2.5,-1.8 -3.9,-1 z"
         inkscape:connector-curvature="0" />
      <path
         id="path2444"
         d="m 170,53.4 -81.2,46.9 v 93.8 L 170,147.2 Z m -12.1,77.2 c 0,4.8 -2.6,9.3 -6.7,11.7 l -44,25.4 V 108.5 L 148,85 c 1,-0.6 2.2,-0.9 3.3,-0.9 3.7,0 6.6,3 6.6,6.7 z"
         inkscape:connector-curvature="0" />
      <path
         id="path2446"
         d="M 166.2,46.9 85,0 3.8,46.9 85,93.8 Z M 75.5,48.6 C 66.4,48.6 59,44.4 59,39.4 c 0,-5.1 7.4,-9.2 16.5,-9.2 9.1,0 16.5,4.1 16.5,9.2 0,1 -0.3,2 -0.8,2.9 l 25,9.2 -17.2,9.8 -19.9,-13 c -1.2,0.2 -2.4,0.3 -3.6,0.3 z"
         inkscape:connector-curvature="0" />
      <path
         id="path2448"
         d="m 0,53.4 v 93.8 l 81.2,46.9 V 100.3 Z M 62.6,165.8 17.2,139.6 V 125 l 31.1,18 v -6.7 L 17.2,118.4 V 82.9 l 45.4,26.2 v 14.2 L 29.5,104.2 v 6.7 L 62.6,130 Z"
         inkscape:connector-curvature="0" />
    </g>
  </g>
</svg>
