<?xml version="1.0" encoding="UTF-8" standalone="no"?>
<!-- Created with Inkscape (http://www.inkscape.org/) -->

<svg
   xmlns:dc="http://purl.org/dc/elements/1.1/"
   xmlns:cc="http://creativecommons.org/ns#"
   xmlns:rdf="http://www.w3.org/1999/02/22-rdf-syntax-ns#"
   xmlns:svg="http://www.w3.org/2000/svg"
   xmlns="http://www.w3.org/2000/svg"
   xmlns:sodipodi="http://sodipodi.sourceforge.net/DTD/sodipodi-0.dtd"
   xmlns:inkscape="http://www.inkscape.org/namespaces/inkscape"
   width="489.69998"
   height="447.43341"
   viewBox="0 0 129.56645 118.38341"
   version="1.1"
   id="svg1342"
   sodipodi:docname="vertical_color.svg"
   inkscape:export-filename="/home/anxhelo/Desktop/SecureDrop/PNG/vertical_color.png"
   inkscape:export-xdpi="96"
   inkscape:export-ydpi="96"
   inkscape:version="0.92.3 (2405546, 2018-03-11)">
  <defs
     id="defs1336" />
  <sodipodi:namedview
     id="base"
     pagecolor="#ffffff"
     bordercolor="#666666"
     borderopacity="1.0"
     inkscape:pageopacity="0.0"
     inkscape:pageshadow="2"
     inkscape:zoom="0.49497475"
     inkscape:cx="-16.10789"
     inkscape:cy="244.308"
     inkscape:document-units="mm"
     inkscape:current-layer="layer1"
     showgrid="false"
     fit-margin-top="0"
     fit-margin-left="0"
     fit-margin-right="0"
     fit-margin-bottom="0"
     inkscape:window-width="1366"
     inkscape:window-height="717"
     inkscape:window-x="0"
     inkscape:window-y="0"
     inkscape:window-maximized="1"
     units="px" />
  <metadata
     id="metadata1339">
    <rdf:RDF>
      <cc:Work
         rdf:about="">
        <dc:format>image/svg+xml</dc:format>
        <dc:type
           rdf:resource="http://purl.org/dc/dcmitype/StillImage" />
        <dc:title></dc:title>
      </cc:Work>
    </rdf:RDF>
  </metadata>
  <g
     inkscape:label="Layer 1"
     inkscape:groupmode="layer"
     id="layer1"
     transform="translate(-31.927518,-42.543347)">
    <g
       id="g1258"
       transform="matrix(0.26458333,0,0,0.26458333,31.927518,42.543347)">
      <g
         id="Symbols_13_">
        <g
           id="g1243">
          <g
             id="Logo_x2F_White-Text_13_">
            <g
               id="SD-Logo_13_">
              <g
                 transform="translate(0,0.6334)"
                 id="Group-3_13_">
                <g
                   id="Fill-1_15_">
                  <path
                     id="path1215"
                     d="m 31.9,341.3 c 2.3,1 4.3,2.3 6,4 1.7,1.7 3,3.7 4,6 1,2.3 1.5,4.7 1.5,7.3 v 5.7 c 0,1.4 -0.6,2.3 -1.9,2.7 l -13.6,3.6 C 26.6,371 26,370.5 26,369.1 v -9.7 c 0,-1 -0.4,-1.8 -1,-2.5 -0.7,-0.7 -1.5,-1 -2.5,-1 h -1.2 c -1,0 -1.8,0.4 -2.5,1 -0.7,0.7 -1,1.6 -1,2.5 V 373 c 0.1,1.1 0.3,2 0.6,2.8 0.3,0.8 0.8,1.6 1.6,2.4 L 39.4,393 c 1.6,1.4 2.6,2.8 3.1,4.3 0.5,1.4 0.8,3.1 1,4.9 V 428 c 0,2.6 -0.5,5 -1.5,7.3 -1,2.3 -2.3,4.3 -4,6 -1.7,1.7 -3.7,3 -6,4 -2.3,1 -4.7,1.5 -7.3,1.5 H 19 c -2.6,0 -5,-0.5 -7.3,-1.5 -2.3,-1 -4.3,-2.3 -6,-4 -1.7,-1.7 -3,-3.7 -4,-6 -1,-2.3 -1.5,-4.7 -1.5,-7.3 v -14.4 c 0,-1.4 0.6,-2.3 1.9,-2.7 l 13.6,-3.6 c 1.3,-0.4 1.9,0.1 1.9,1.5 v 18.4 c 0,1 0.3,1.8 1,2.5 0.7,0.7 1.5,1 2.5,1 h 1.2 c 1,0 1.8,-0.3 2.5,-1 0.7,-0.7 1,-1.5 1,-2.5 v -19.8 c -0.1,-1.3 -0.3,-2.4 -0.6,-3.4 -0.3,-1 -0.9,-1.9 -1.8,-2.7 L 4.2,386.4 C 2.7,385 1.6,383.6 1,382.2 0.3,380.8 0,379 0,376.7 v -18 c 0,-2.6 0.5,-5 1.5,-7.3 1,-2.3 2.3,-4.3 4,-6 1.7,-1.7 3.7,-3 6,-4 2.3,-1 4.7,-1.5 7.3,-1.5 h 5.7 c 2.7,-0.1 5.1,0.4 7.4,1.4"
                     class="st0"
                     inkscape:connector-curvature="0"
                     style="fill:#034482" />
                </g>
              </g>
              <g
                 id="Fill-4_15_">
                <path
                   id="path1219"
                   d="m 87.3,430.9 v 13.3 c 0,1.4 -0.7,2.1 -2.1,2.1 H 52.7 c -1.4,0 -2.1,-0.7 -2.1,-2.1 V 343.6 c 0,-1.4 0.7,-2.1 2.1,-2.1 h 32.5 c 1.4,0 2.1,0.7 2.1,2.1 v 13.3 c 0,1.4 -0.7,2.1 -2.1,2.1 h -17 v 21.6 H 83 c 1.4,0 2.1,0.7 2.1,2.1 V 396 c 0,1.4 -0.7,2.1 -2.1,2.1 H 68.2 v 30.7 h 17.1 c 1.3,0.1 2,0.8 2,2.1"
                   class="st0"
                   inkscape:connector-curvature="0"
                   style="fill:#034482" />
              </g>
              <g
                 transform="translate(61,0.6334)"
                 id="Group-8_13_">
                <g
                   id="Fill-6_15_">
                  <path
                     id="path1222"
                     d="m 65.4,341.3 c 2.3,1 4.3,2.3 6,4 1.7,1.7 3,3.7 4,6 1,2.3 1.5,4.7 1.5,7.3 v 12 c 0,1.4 -0.7,2.3 -1.9,2.7 l -13.6,2.1 c -1.3,0.4 -1.9,-0.1 -1.9,-1.5 v -14.5 c 0,-1 -0.4,-1.8 -1.1,-2.5 -0.7,-0.7 -1.6,-1 -2.5,-1 h -1.2 c -1,0 -1.8,0.4 -2.5,1 -0.7,0.7 -1,1.6 -1,2.5 v 67.7 c 0,1 0.3,1.8 1,2.5 0.7,0.7 1.5,1 2.5,1 h 1.2 c 1,0 1.8,-0.3 2.5,-1 0.7,-0.7 1.1,-1.5 1.1,-2.5 v -21 c 0,-1.4 0.6,-1.9 1.9,-1.5 l 13.6,1.8 c 1.3,0.4 1.9,1.3 1.9,2.7 v 18.7 c 0,2.6 -0.5,5 -1.5,7.3 -1,2.3 -2.4,4.3 -4,6 -1.7,1.7 -3.7,3 -6,4 -2.3,1 -4.7,1.5 -7.3,1.5 h -5.7 c -2.6,0 -5,-0.5 -7.3,-1.5 -2.3,-1 -4.3,-2.3 -6,-4 -1.7,-1.7 -3,-3.7 -4,-6 -1,-2.3 -1.5,-4.7 -1.5,-7.3 v -69.2 c 0,-2.6 0.5,-5 1.5,-7.3 1,-2.3 2.3,-4.3 4,-6 1.7,-1.7 3.7,-3 6,-4 2.3,-1 4.7,-1.5 7.3,-1.5 h 5.7 c 2.6,0 5.1,0.5 7.3,1.5"
                     class="st0"
                     inkscape:connector-curvature="0"
                     style="fill:#034482" />
                </g>
              </g>
              <g
                 id="Fill-9_15_">
                <path
                   id="path1226"
                   d="m 187.1,343.6 v 85 c 0,2.6 -0.5,5 -1.5,7.3 -1,2.3 -2.3,4.3 -4,6 -1.7,1.7 -3.7,3 -6,4 -2.3,1 -4.7,1.5 -7.3,1.5 h -5.7 c -2.6,0 -5,-0.5 -7.3,-1.5 -2.3,-1 -4.3,-2.3 -6,-4 -1.7,-1.7 -3,-3.7 -4,-6 -1,-2.3 -1.5,-4.7 -1.5,-7.3 v -85 c 0,-1.4 0.7,-2.1 2.1,-2.1 h 13.3 c 1.4,0 2.1,0.7 2.1,2.1 v 84.2 c 0,1 0.3,1.8 1,2.5 0.7,0.7 1.5,1 2.5,1 h 1.2 c 1,0 1.8,-0.3 2.5,-1 0.7,-0.7 1,-1.5 1,-2.5 v -84.2 c 0,-1.4 0.7,-2.1 2.1,-2.1 H 185 c 1.4,0 2.1,0.7 2.1,2.1"
                   class="st0"
                   inkscape:connector-curvature="0"
                   style="fill:#034482" />
              </g>
              <g
                 id="Fill-11_15_">
                <g
                   id="g1231">
                  <path
                     id="path1229"
                     d="m 212.6,387.6 h 4.8 c 1,0 1.8,-0.3 2.5,-1 0.7,-0.7 1,-1.5 1,-2.5 v -22.9 c 0,-1 -0.4,-1.8 -1,-2.5 -0.7,-0.7 -1.6,-1.1 -2.5,-1.1 h -4.8 z m 28.9,56.7 c 0.3,1.4 -0.2,2.1 -1.5,2.1 h -13.6 c -0.6,0 -1.2,-0.2 -1.7,-0.6 -0.6,-0.4 -0.9,-0.9 -1.1,-1.5 l -10.9,-36.7 v 38.8 l -0.2,-1.5 c -0.2,1 -0.8,1.5 -1.9,1.5 h -13.3 c -1.4,0 -2.1,-0.7 -2.1,-2.1 V 343.6 c 0,-1.4 0.7,-2.1 2.1,-2.1 h 22.5 c 2.6,0 5,0.5 7.3,1.5 2.3,1 4.3,2.3 6,4 1.7,1.7 3,3.7 4,6 1,2.3 1.5,4.7 1.5,7.3 v 24.4 c 0,3.7 -1,7 -2.8,10 -1.9,2.9 -4.4,5.2 -7.5,6.8 z"
                     class="st0"
                     inkscape:connector-curvature="0"
                     style="fill:#034482" />
                </g>
              </g>
              <g
                 id="Fill-13_15_">
                <path
                   id="path1234"
                   d="m 284.1,430.9 v 13.3 c 0,1.4 -0.7,2.1 -2.1,2.1 h -32.5 c -1.4,0 -2.1,-0.7 -2.1,-2.1 V 343.6 c 0,-1.4 0.7,-2.1 2.1,-2.1 H 282 c 1.4,0 2.1,0.7 2.1,2.1 v 13.3 c 0,1.4 -0.7,2.1 -2.1,2.1 h -17.1 v 21.6 h 14.8 c 1.4,0 2.1,0.7 2.1,2.1 V 396 c 0,1.4 -0.7,2.1 -2.1,2.1 h -14.8 v 30.7 H 282 c 1.4,0.1 2.1,0.8 2.1,2.1"
                   class="st0"
                   inkscape:connector-curvature="0"
                   style="fill:#034482" />
              </g>
              <path
                 d="m 318.7,361.1 c 0,-1 -0.4,-1.8 -1.1,-2.5 -0.7,-0.7 -1.5,-1.1 -2.5,-1.1 h -4.8 v 72.8 h 4.8 c 1,0 1.8,-0.4 2.5,-1 0.7,-0.7 1.1,-1.5 1.1,-2.5 z m -1.4,-19.6 c 2.6,0 5,0.5 7.3,1.5 2.3,1 4.3,2.4 6,4 1.7,1.7 3,3.7 4,6 1,2.3 1.5,4.7 1.5,7.3 v 67.1 c 0,2.6 -0.5,5 -1.5,7.3 -1,2.3 -2.3,4.3 -4,6 -1.7,1.7 -3.7,3 -6,4 -2.3,1 -4.7,1.5 -7.3,1.5 h -22.5 c -1.4,0 -2.1,-0.7 -2.1,-2.1 V 343.6 c 0,-1.4 0.7,-2.1 2.1,-2.1 z"
                 class="st1"
                 id="Fill-15_12_"
                 inkscape:connector-curvature="0"
                 style="fill:#2e8ae8" />
              <path
                 d="m 361.7,387.6 h 4.8 c 1,0 1.8,-0.3 2.5,-1 0.7,-0.7 1,-1.5 1,-2.5 v -22.9 c 0,-1 -0.4,-1.8 -1,-2.5 -0.7,-0.7 -1.6,-1.1 -2.5,-1.1 h -4.8 z m 28.9,56.7 c 0.3,1.4 -0.2,2.1 -1.5,2.1 h -13.6 c -0.6,0 -1.2,-0.2 -1.7,-0.6 -0.6,-0.4 -0.9,-0.9 -1.1,-1.5 l -10.9,-36.7 v 38.8 l -0.2,-1.5 c -0.2,1 -0.8,1.5 -1.9,1.5 h -13.3 c -1.4,0 -2.1,-0.7 -2.1,-2.1 V 343.6 c 0,-1.4 0.7,-2.1 2.1,-2.1 h 22.5 c 2.6,0 5,0.5 7.3,1.5 2.3,1 4.3,2.3 6,4 1.7,1.7 3,3.7 4,6 1,2.3 1.5,4.7 1.5,7.3 v 24.4 c 0,3.7 -1,7 -2.8,10 -1.9,2.9 -4.4,5.2 -7.5,6.8 z"
                 class="st1"
                 id="Fill-17_12_"
                 inkscape:connector-curvature="0"
                 style="fill:#2e8ae8" />
              <path
                 d="m 420.8,360.1 c 0,-1 -0.4,-1.8 -1,-2.5 -0.7,-0.7 -1.5,-1 -2.5,-1 h -1.2 c -1,0 -1.8,0.4 -2.5,1 -0.7,0.7 -1,1.6 -1,2.5 v 67.7 c 0,1 0.3,1.8 1,2.5 0.7,0.7 1.5,1 2.5,1 h 1.2 c 1,0 1.8,-0.3 2.5,-1 0.7,-0.7 1,-1.5 1,-2.5 z m 17.6,68.5 c 0,2.6 -0.5,5 -1.5,7.3 -1,2.3 -2.3,4.3 -4,6 -1.7,1.7 -3.7,3 -6,4 -2.3,1 -4.7,1.5 -7.3,1.5 h -5.7 c -2.6,0 -5,-0.5 -7.3,-1.5 -2.3,-1 -4.3,-2.3 -6,-4 -1.7,-1.7 -3,-3.7 -4,-6 -1,-2.3 -1.5,-4.7 -1.5,-7.3 v -69.2 c 0,-2.6 0.5,-5 1.5,-7.3 1,-2.3 2.3,-4.3 4,-6 1.7,-1.7 3.7,-3 6,-4 2.3,-1 4.7,-1.5 7.3,-1.5 h 5.7 c 2.6,0 5,0.5 7.3,1.5 2.3,1 4.3,2.3 6,4 1.7,1.7 3,3.7 4,6 1,2.3 1.5,4.7 1.5,7.3 z"
                 class="st1"
                 id="Fill-19_12_"
                 inkscape:connector-curvature="0"
                 style="fill:#2e8ae8" />
              <path
                 d="m 472.2,361.1 c 0,-1 -0.4,-1.8 -1,-2.5 -0.7,-0.7 -1.6,-1.1 -2.5,-1.1 h -4.8 v 30.1 h 4.8 c 1,0 1.8,-0.3 2.5,-1 0.7,-0.7 1,-1.5 1,-2.5 z m -1.3,-19.6 c 2.6,0 5,0.5 7.3,1.5 2.3,1 4.3,2.4 6,4 1.7,1.7 3,3.7 4,6 1,2.3 1.5,4.7 1.5,7.3 v 24.4 c 0,2.6 -0.5,5 -1.5,7.3 -1,2.3 -2.3,4.3 -4,6 -1.7,1.7 -3.7,3 -6,4 -2.3,1 -4.7,1.5 -7.3,1.5 h -7 v 40.6 c 0,1.4 -0.7,2.1 -2.1,2.1 h -13.3 c -1.4,0 -2.1,-0.7 -2.1,-2.1 V 343.6 c 0,-1.4 0.7,-2.1 2.1,-2.1 z"
                 class="st1"
                 id="Fill-21_12_"
                 inkscape:connector-curvature="0"
                 style="fill:#2e8ae8" />
            </g>
          </g>
        </g>
      </g>
      <g
         id="g1256">
        <path
           id="path1246"
           d="M 240.7,303.6 V 151.8 L 372.2,75.9 v 151.8 z m 98.1,-86.4 c 6.2,-3.6 10,-10.2 10,-17.3 v -59.1 c 0,-5.4 -4.4,-9.9 -9.8,-9.9 -1.7,0 -3.4,0.5 -4.9,1.3 l -60.3,34.9 v 87.7 z m -44.6,-38.6 29.9,-17.2 c 2.1,-1.2 4.7,-0.4 5.9,1.6 0.4,0.6 0.5,1.3 0.6,2 v 28.5 c 0,4.2 -2.3,8.1 -5.9,10.1 l -30.4,17 z"
           class="st2"
           inkscape:connector-curvature="0"
           style="fill:#045fb4" />
        <path
           id="path1248"
           d="M 240.7,151.8 109.3,75.9 240.7,0 372.2,75.9 Z M 261.5,97.3 287,82.6 249.9,69 c 0.8,-1.3 1.2,-2.8 1.2,-4.3 0,-7.5 -10.9,-13.7 -24.4,-13.7 -13.5,0 -24.4,6.2 -24.4,13.7 0,7.5 10.9,13.7 24.4,13.7 1.8,0 3.5,-0.1 5.3,-0.3 z"
           class="st1"
           inkscape:connector-curvature="0"
           style="fill:#2e8ae8" />
        <g
           id="g1254">
          <polygon
             id="polygon1250"
             points="207.5,252 207.5,199.1 158.5,170.8 158.5,160.8 207.5,189.1 207.5,168.1 140.2,129.2 140.2,181.7 186.3,208.3 186.3,218.2 140.2,191.6 140.2,213.1 "
             class="st3"
             style="fill:none" />
          <path
             id="path1252"
             d="m 109.3,227.7 131.5,75.9 V 151.8 L 109.3,75.9 Z m 30.9,-36.1 46,26.6 v -9.9 l -46,-26.6 v -52.5 l 67.3,38.8 v 21 l -49,-28.3 v 10 l 49,28.3 v 53 l -67.3,-38.8 z"
             class="st0"
             inkscape:connector-curvature="0"
             style="fill:#034482" />
        </g>
      </g>
    </g>
  </g>
</svg>
