<?xml version="1.0" encoding="UTF-8" standalone="no"?>
<!-- Created with Inkscape (http://www.inkscape.org/) -->

<svg
   xmlns:dc="http://purl.org/dc/elements/1.1/"
   xmlns:cc="http://creativecommons.org/ns#"
   xmlns:rdf="http://www.w3.org/1999/02/22-rdf-syntax-ns#"
   xmlns:svg="http://www.w3.org/2000/svg"
   xmlns="http://www.w3.org/2000/svg"
   xmlns:sodipodi="http://sodipodi.sourceforge.net/DTD/sodipodi-0.dtd"
   xmlns:inkscape="http://www.inkscape.org/namespaces/inkscape"
   width="131.78532mm"
   height="118.67945mm"
   viewBox="0 0 131.78532 118.67945"
   version="1.1"
   id="svg2913"
   inkscape:version="0.92.3 (2405546, 2018-03-11)"
   sodipodi:docname="vertical_white.svg"
   inkscape:export-filename="/home/anxhelo/Desktop/SecureDrop/PNG/vertical_white.png"
   inkscape:export-xdpi="96"
   inkscape:export-ydpi="96">
  <defs
     id="defs2907">
    <mask
       id="mask-2_8_"
       height="107"
       width="43.4"
       y="333.4"
       x="0"
       maskUnits="userSpaceOnUse">
      <g
         style="filter:url(#Adobe_OpacityMaskFilter-3)"
         id="g3687"
         class="st0">
        <polygon
           points="0,333.4 43.4,333.4 43.4,440.4 0,440.4 "
           class="st1"
           id="path-1_8_"
           style="fill:#ffffff" />
      </g>
    </mask>
    <filter
       height="107"
       width="43.400002"
       y="333.39999"
       x="0"
       filterUnits="userSpaceOnUse"
       id="Adobe_OpacityMaskFilter-3">
      <feColorMatrix
         id="feColorMatrix3681"
         values="1 0 0 0 0  0 1 0 0 0  0 0 1 0 0  0 0 0 1 0"
         type="matrix" />
    </filter>
    <mask
       id="mask-4_8_"
       height="107"
       width="43.4"
       y="333.4"
       x="33.5"
       maskUnits="userSpaceOnUse">
      <g
         style="filter:url(#Adobe_OpacityMaskFilter_1_-6)"
         id="g3699"
         class="st3">
        <polygon
           points="33.5,333.4 77,333.4 77,440.4 33.5,440.4 "
           class="st1"
           id="path-3_8_"
           style="fill:#ffffff" />
      </g>
    </mask>
    <filter
       height="107"
       width="43.400002"
       y="333.39999"
       x="33.5"
       filterUnits="userSpaceOnUse"
       id="Adobe_OpacityMaskFilter_1_-6">
      <feColorMatrix
         id="feColorMatrix3693"
         values="1 0 0 0 0  0 1 0 0 0  0 0 1 0 0  0 0 0 1 0"
         type="matrix" />
    </filter>
    <filter
       height="107"
       width="43.400002"
       y="333.39999"
       x="0"
       filterUnits="userSpaceOnUse"
       id="filter3756">
      <feColorMatrix
         id="feColorMatrix3754"
         values="1 0 0 0 0  0 1 0 0 0  0 0 1 0 0  0 0 0 1 0"
         type="matrix" />
    </filter>
    <filter
       height="107"
       width="43.400002"
       y="333.39999"
       x="33.5"
       filterUnits="userSpaceOnUse"
       id="filter3767">
      <feColorMatrix
         id="feColorMatrix3765"
         values="1 0 0 0 0  0 1 0 0 0  0 0 1 0 0  0 0 0 1 0"
         type="matrix" />
    </filter>
  </defs>
  <sodipodi:namedview
     id="base"
     pagecolor="#ffffff"
     bordercolor="#666666"
     borderopacity="1.0"
     inkscape:pageopacity="0.0"
     inkscape:pageshadow="2"
     inkscape:zoom="0.7"
     inkscape:cx="142.19127"
     inkscape:cy="143.92633"
     inkscape:document-units="mm"
     inkscape:current-layer="layer1"
     showgrid="false"
     fit-margin-top="0"
     fit-margin-left="0"
     fit-margin-right="0"
     fit-margin-bottom="0"
     inkscape:snap-page="true"
     inkscape:window-width="1366"
     inkscape:window-height="717"
     inkscape:window-x="0"
     inkscape:window-y="0"
     inkscape:window-maximized="1" />
  <metadata
     id="metadata2910">
    <rdf:RDF>
      <cc:Work
         rdf:about="">
        <dc:format>image/svg+xml</dc:format>
        <dc:type
           rdf:resource="http://purl.org/dc/dcmitype/StillImage" />
        <dc:title></dc:title>
      </cc:Work>
    </rdf:RDF>
  </metadata>
  <g
     inkscape:label="Layer 1"
     inkscape:groupmode="layer"
     id="layer1"
     transform="translate(-39.5382,-97.9571)">
    <g
       id="g3740"
       transform="matrix(0.2691144,0,0,0.2691144,39.5382,97.9571)">
      <g
         id="Symbols_4_">
        <g
           id="g3729">
          <g
             id="Logo_x2F_White-Text_14_">
            <g
               id="SD-Logo_14_">
              <g
                 transform="translate(0,0.6334)"
                 id="Group-3_14_">
                <defs
                   id="defs3684">
                  <filter
                     height="107"
                     width="43.400002"
                     y="333.39999"
                     x="0"
                     filterUnits="userSpaceOnUse"
                     id="filter3935">
                    <feColorMatrix
                       id="feColorMatrix3933"
                       values="1 0 0 0 0  0 1 0 0 0  0 0 1 0 0  0 0 0 1 0"
                       type="matrix" />
                  </filter>
                </defs>
                <mask
                   id="mask3824"
                   height="107"
                   width="43.4"
                   y="333.4"
                   x="0"
                   maskUnits="userSpaceOnUse">
                  <g
                     style="filter:url(#Adobe_OpacityMaskFilter-3)"
                     id="g3822"
                     class="st0">
                    <polygon
                       points="43.4,440.4 0,440.4 0,333.4 43.4,333.4 "
                       class="st1"
                       id="polygon3820"
                       style="fill:#ffffff" />
                  </g>
                </mask>
                <path
                   mask="url(#mask-2_8_)"
                   d="m 31.9,334.9 c 2.3,1 4.3,2.3 6,4 1.7,1.7 3,3.7 4,6 1,2.3 1.5,4.7 1.5,7.3 v 5.7 c 0,1.4 -0.6,2.3 -1.9,2.7 l -13.6,3.6 C 26.6,364.6 26,364.1 26,362.7 V 353 c 0,-1 -0.4,-1.8 -1,-2.5 -0.7,-0.7 -1.5,-1 -2.5,-1 h -1.2 c -1,0 -1.8,0.4 -2.5,1 -0.7,0.7 -1,1.6 -1,2.5 v 13.6 c 0.1,1.1 0.3,2 0.6,2.8 0.3,0.8 0.8,1.6 1.6,2.4 l 19.6,14.7 c 1.6,1.4 2.6,2.8 3.1,4.3 0.5,1.4 0.8,3.1 1,4.9 v 25.8 c 0,2.6 -0.5,5 -1.5,7.3 -1,2.3 -2.3,4.3 -4,6 -1.7,1.7 -3.7,3 -6,4 -2.3,1 -4.7,1.5 -7.3,1.5 h -5.7 c -2.6,0 -5,-0.5 -7.3,-1.5 -2.3,-1 -4.3,-2.3 -6,-4 -1.7,-1.7 -3,-3.7 -4,-6 -1,-2.3 -1.5,-4.7 -1.5,-7.3 v -14.4 c 0,-1.4 0.6,-2.3 1.9,-2.7 l 13.6,-3.6 c 1.3,-0.4 1.9,0.1 1.9,1.5 v 18.4 c 0,1 0.3,1.8 1,2.5 0.7,0.7 1.5,1 2.5,1 h 1.2 c 1,0 1.8,-0.3 2.5,-1 0.7,-0.7 1,-1.5 1,-2.5 V 401 c -0.1,-1.3 -0.3,-2.4 -0.6,-3.4 -0.3,-1 -0.9,-1.9 -1.8,-2.7 L 4.2,380 C 2.7,378.6 1.6,377.2 1,375.8 0.3,374.4 0,372.6 0,370.3 v -18 c 0,-2.6 0.5,-5 1.5,-7.3 1,-2.3 2.3,-4.3 4,-6 1.7,-1.7 3.7,-3 6,-4 2.3,-1 4.7,-1.5 7.3,-1.5 h 5.7 c 2.7,-0.1 5.1,0.4 7.4,1.4"
                   class="st6"
                   id="Fill-1_16_"
                   inkscape:connector-curvature="0"
                   style="fill:#ffffff" />
              </g>
              <path
                 d="m 87.3,424.5 v 13.3 c 0,1.4 -0.7,2.1 -2.1,2.1 H 52.7 c -1.4,0 -2.1,-0.7 -2.1,-2.1 V 337.2 c 0,-1.4 0.7,-2.1 2.1,-2.1 h 32.5 c 1.4,0 2.1,0.7 2.1,2.1 v 13.3 c 0,1.4 -0.7,2.1 -2.1,2.1 h -17 v 21.6 H 83 c 1.4,0 2.1,0.7 2.1,2.1 v 13.3 c 0,1.4 -0.7,2.1 -2.1,2.1 H 68.2 v 30.7 h 17.1 c 1.3,0 2,0.7 2,2.1"
                 id="Fill-4_16_"
                 inkscape:connector-curvature="0"
                 style="fill:#ffffff" />
              <g
                 transform="translate(61,0.6334)"
                 id="Group-8_14_">
                <defs
                   id="defs3696">
                  <filter
                     height="107"
                     width="43.400002"
                     y="333.39999"
                     x="33.5"
                     filterUnits="userSpaceOnUse"
                     id="filter3946">
                    <feColorMatrix
                       id="feColorMatrix3944"
                       values="1 0 0 0 0  0 1 0 0 0  0 0 1 0 0  0 0 0 1 0"
                       type="matrix" />
                  </filter>
                </defs>
                <mask
                   id="mask3836"
                   height="107"
                   width="43.4"
                   y="333.4"
                   x="33.5"
                   maskUnits="userSpaceOnUse">
                  <g
                     style="filter:url(#Adobe_OpacityMaskFilter_1_-6)"
                     id="g3834"
                     class="st3">
                    <polygon
                       points="77,440.4 33.5,440.4 33.5,333.4 77,333.4 "
                       class="st1"
                       id="polygon3832"
                       style="fill:#ffffff" />
                  </g>
                </mask>
                <path
                   mask="url(#mask-4_8_)"
                   d="m 65.4,334.9 c 2.3,1 4.3,2.3 6,4 1.7,1.7 3,3.7 4,6 1,2.3 1.5,4.7 1.5,7.3 v 12 c 0,1.4 -0.7,2.3 -1.9,2.7 L 61.4,369 c -1.3,0.4 -1.9,-0.1 -1.9,-1.5 V 353 c 0,-1 -0.4,-1.8 -1.1,-2.5 -0.7,-0.7 -1.6,-1 -2.5,-1 h -1.2 c -1,0 -1.8,0.4 -2.5,1 -0.7,0.7 -1,1.6 -1,2.5 v 67.7 c 0,1 0.3,1.8 1,2.5 0.7,0.7 1.5,1 2.5,1 h 1.2 c 1,0 1.8,-0.3 2.5,-1 0.7,-0.7 1.1,-1.5 1.1,-2.5 v -21 c 0,-1.4 0.6,-1.9 1.9,-1.5 L 75,400 c 1.3,0.4 1.9,1.3 1.9,2.7 v 18.7 c 0,2.6 -0.5,5 -1.5,7.3 -1,2.3 -2.4,4.3 -4,6 -1.7,1.7 -3.7,3 -6,4 -2.3,1 -4.7,1.5 -7.3,1.5 h -5.7 c -2.6,0 -5,-0.5 -7.3,-1.5 -2.3,-1 -4.3,-2.3 -6,-4 -1.7,-1.7 -3,-3.7 -4,-6 -1,-2.3 -1.5,-4.7 -1.5,-7.3 v -69.2 c 0,-2.6 0.5,-5 1.5,-7.3 1,-2.3 2.3,-4.3 4,-6 1.7,-1.7 3.7,-3 6,-4 2.3,-1 4.7,-1.5 7.3,-1.5 h 5.7 c 2.6,0 5.1,0.5 7.3,1.5"
                   class="st8"
                   id="Fill-6_16_"
                   inkscape:connector-curvature="0"
                   style="fill:#ffffff" />
              </g>
              <path
                 d="m 187.1,337.2 v 85 c 0,2.6 -0.5,5 -1.5,7.3 -1,2.3 -2.3,4.3 -4,6 -1.7,1.7 -3.7,3 -6,4 -2.3,1 -4.7,1.5 -7.3,1.5 h -5.7 c -2.6,0 -5,-0.5 -7.3,-1.5 -2.3,-1 -4.3,-2.3 -6,-4 -1.7,-1.7 -3,-3.7 -4,-6 -1,-2.3 -1.5,-4.7 -1.5,-7.3 v -85 c 0,-1.4 0.7,-2.1 2.1,-2.1 h 13.3 c 1.4,0 2.1,0.7 2.1,2.1 v 84.2 c 0,1 0.3,1.8 1,2.5 0.7,0.7 1.5,1 2.5,1 h 1.2 c 1,0 1.8,-0.3 2.5,-1 0.7,-0.7 1,-1.5 1,-2.5 v -84.2 c 0,-1.4 0.7,-2.1 2.1,-2.1 H 185 c 1.4,0 2.1,0.7 2.1,2.1"
                 id="Fill-9_16_"
                 inkscape:connector-curvature="0"
                 style="fill:#ffffff" />
              <path
                 d="m 212.6,381.2 h 4.8 c 1,0 1.8,-0.3 2.5,-1 0.7,-0.7 1,-1.5 1,-2.5 v -22.9 c 0,-1 -0.4,-1.8 -1,-2.5 -0.7,-0.7 -1.6,-1.1 -2.5,-1.1 h -4.8 z m 28.9,56.6 c 0.3,1.4 -0.2,2.1 -1.5,2.1 h -13.6 c -0.6,0 -1.2,-0.2 -1.7,-0.6 -0.6,-0.4 -0.9,-0.9 -1.1,-1.5 l -10.9,-36.7 v 38.8 l -0.2,-1.5 c -0.2,1 -0.8,1.5 -1.9,1.5 h -13.3 c -1.4,0 -2.1,-0.7 -2.1,-2.1 V 337.2 c 0,-1.4 0.7,-2.1 2.1,-2.1 h 22.5 c 2.6,0 5,0.5 7.3,1.5 2.3,1 4.3,2.3 6,4 1.7,1.7 3,3.7 4,6 1,2.3 1.5,4.7 1.5,7.3 v 24.4 c 0,3.7 -1,7 -2.8,10 -1.9,2.9 -4.4,5.2 -7.5,6.8 z"
                 id="Fill-11_16_"
                 inkscape:connector-curvature="0"
                 style="fill:#ffffff" />
              <path
                 d="m 284.1,424.5 v 13.3 c 0,1.4 -0.7,2.1 -2.1,2.1 h -32.5 c -1.4,0 -2.1,-0.7 -2.1,-2.1 V 337.2 c 0,-1.4 0.7,-2.1 2.1,-2.1 H 282 c 1.4,0 2.1,0.7 2.1,2.1 v 13.3 c 0,1.4 -0.7,2.1 -2.1,2.1 h -17.1 v 21.6 h 14.8 c 1.4,0 2.1,0.7 2.1,2.1 v 13.3 c 0,1.4 -0.7,2.1 -2.1,2.1 h -14.8 v 30.7 H 282 c 1.4,0 2.1,0.7 2.1,2.1"
                 id="Fill-13_16_"
                 inkscape:connector-curvature="0"
                 style="fill:#ffffff" />
              <g
                 id="Fill-15_13_">
                <g
                   id="g3709">
                  <path
                     id="path3707"
                     d="m 318.7,354.7 c 0,-1 -0.4,-1.8 -1.1,-2.5 -0.7,-0.7 -1.5,-1.1 -2.5,-1.1 h -4.8 v 72.8 h 4.8 c 1,0 1.8,-0.4 2.5,-1 0.7,-0.7 1.1,-1.5 1.1,-2.5 z m -1.4,-19.6 c 2.6,0 5,0.5 7.3,1.5 2.3,1 4.3,2.4 6,4 1.7,1.7 3,3.7 4,6 1,2.3 1.5,4.7 1.5,7.3 V 421 c 0,2.6 -0.5,5 -1.5,7.3 -1,2.3 -2.3,4.3 -4,6 -1.7,1.7 -3.7,3 -6,4 -2.3,1 -4.7,1.5 -7.3,1.5 h -22.5 c -1.4,0 -2.1,-0.7 -2.1,-2.1 V 337.2 c 0,-1.4 0.7,-2.1 2.1,-2.1 z"
                     inkscape:connector-curvature="0"
                     style="fill:#ffffff" />
                </g>
              </g>
              <g
                 id="Fill-17_13_">
                <g
                   id="g3714">
                  <path
                     id="path3712"
                     d="m 361.7,381.2 h 4.8 c 1,0 1.8,-0.3 2.5,-1 0.7,-0.7 1,-1.5 1,-2.5 v -22.9 c 0,-1 -0.4,-1.8 -1,-2.5 -0.7,-0.7 -1.6,-1.1 -2.5,-1.1 h -4.8 z m 28.9,56.6 c 0.3,1.4 -0.2,2.1 -1.5,2.1 h -13.6 c -0.6,0 -1.2,-0.2 -1.7,-0.6 -0.6,-0.4 -0.9,-0.9 -1.1,-1.5 l -10.9,-36.7 v 38.8 l -0.2,-1.5 c -0.2,1 -0.8,1.5 -1.9,1.5 h -13.3 c -1.4,0 -2.1,-0.7 -2.1,-2.1 V 337.2 c 0,-1.4 0.7,-2.1 2.1,-2.1 h 22.5 c 2.6,0 5,0.5 7.3,1.5 2.3,1 4.3,2.3 6,4 1.7,1.7 3,3.7 4,6 1,2.3 1.5,4.7 1.5,7.3 v 24.4 c 0,3.7 -1,7 -2.8,10 -1.9,2.9 -4.4,5.2 -7.5,6.8 z"
                     inkscape:connector-curvature="0"
                     style="fill:#ffffff" />
                </g>
              </g>
              <g
                 id="Fill-19_13_">
                <g
                   id="g3719">
                  <path
                     id="path3717"
                     d="m 420.8,353.6 c 0,-1 -0.4,-1.8 -1,-2.5 -0.7,-0.7 -1.5,-1 -2.5,-1 h -1.2 c -1,0 -1.8,0.4 -2.5,1 -0.7,0.7 -1,1.6 -1,2.5 v 67.7 c 0,1 0.3,1.8 1,2.5 0.7,0.7 1.5,1 2.5,1 h 1.2 c 1,0 1.8,-0.3 2.5,-1 0.7,-0.7 1,-1.5 1,-2.5 z m 17.6,68.5 c 0,2.6 -0.5,5 -1.5,7.3 -1,2.3 -2.3,4.3 -4,6 -1.7,1.7 -3.7,3 -6,4 -2.3,1 -4.7,1.5 -7.3,1.5 h -5.7 c -2.6,0 -5,-0.5 -7.3,-1.5 -2.3,-1 -4.3,-2.3 -6,-4 -1.7,-1.7 -3,-3.7 -4,-6 -1,-2.3 -1.5,-4.7 -1.5,-7.3 v -69.2 c 0,-2.6 0.5,-5 1.5,-7.3 1,-2.3 2.3,-4.3 4,-6 1.7,-1.7 3.7,-3 6,-4 2.3,-1 4.7,-1.5 7.3,-1.5 h 5.7 c 2.6,0 5,0.5 7.3,1.5 2.3,1 4.3,2.3 6,4 1.7,1.7 3,3.7 4,6 1,2.3 1.5,4.7 1.5,7.3 z"
                     inkscape:connector-curvature="0"
                     style="fill:#ffffff" />
                </g>
              </g>
              <g
                 id="Fill-21_13_">
                <g
                   id="g3724">
                  <path
                     id="path3722"
                     d="m 472.2,354.7 c 0,-1 -0.4,-1.8 -1,-2.5 -0.7,-0.7 -1.6,-1.1 -2.5,-1.1 h -4.8 v 30.1 h 4.8 c 1,0 1.8,-0.3 2.5,-1 0.7,-0.7 1,-1.5 1,-2.5 z m -1.3,-19.6 c 2.6,0 5,0.5 7.3,1.5 2.3,1 4.3,2.4 6,4 1.7,1.7 3,3.7 4,6 1,2.3 1.5,4.7 1.5,7.3 v 24.4 c 0,2.6 -0.5,5 -1.5,7.3 -1,2.3 -2.3,4.3 -4,6 -1.7,1.7 -3.7,3 -6,4 -2.3,1 -4.7,1.5 -7.3,1.5 h -7 v 40.6 c 0,1.4 -0.7,2.1 -2.1,2.1 h -13.3 c -1.4,0 -2.1,-0.7 -2.1,-2.1 V 337.2 c 0,-1.4 0.7,-2.1 2.1,-2.1 z"
                     inkscape:connector-curvature="0"
                     style="fill:#ffffff" />
                </g>
              </g>
            </g>
          </g>
        </g>
      </g>
      <path
         id="path3732"
         d="M 366.6,79.1 246.3,148.6 V 287.5 L 366.6,218 Z m -17.9,114.4 c 0,7.1 -3.8,13.7 -10,17.3 l -65.1,37.6 v -87.7 l 60.3,-34.9 c 1.5,-0.9 3.2,-1.3 4.9,-1.3 5.4,0 9.8,4.4 9.8,9.9 v 59.1 z"
         inkscape:connector-curvature="0"
         style="fill:#ffffff" />
      <path
         id="path3734"
         d="m 324.1,154.9 -29.9,17.2 v 42.1 l 30.4,-17 c 3.7,-2 5.9,-5.9 5.9,-10.1 v -28.5 c 0,-0.7 -0.2,-1.4 -0.6,-2 -1.1,-2.1 -3.8,-2.9 -5.8,-1.7 z"
         inkscape:connector-curvature="0"
         style="fill:#ffffff" />
      <path
         id="path3736"
         d="M 240.7,0 120.4,69.5 240.7,139 361,69.5 Z M 232,71.6 c -1.8,0.2 -3.5,0.3 -5.3,0.3 -13.5,0 -24.4,-6.2 -24.4,-13.7 0,-7.5 10.9,-13.7 24.4,-13.7 13.5,0 24.4,6.1 24.4,13.7 0,1.5 -0.4,3 -1.2,4.3 L 287,76.1 261.5,90.8 Z"
         inkscape:connector-curvature="0"
         style="fill:#ffffff" />
      <path
         id="path3738"
         d="M 114.8,79.1 V 218 l 120.3,69.5 V 148.6 Z m 92.7,166.4 -67.3,-38.8 v -21.6 l 46,26.6 v -9.9 l -46,-26.6 v -52.5 l 67.3,38.8 v 21 l -49,-28.3 v 10 l 49,28.3 z"
         inkscape:connector-curvature="0"
         style="fill:#ffffff" />
    </g>
  </g>
</svg>
