<?xml version="1.0" encoding="UTF-8" standalone="no"?>
<!-- Created with Inkscape (http://www.inkscape.org/) -->

<svg
   xmlns:dc="http://purl.org/dc/elements/1.1/"
   xmlns:cc="http://creativecommons.org/ns#"
   xmlns:rdf="http://www.w3.org/1999/02/22-rdf-syntax-ns#"
   xmlns:svg="http://www.w3.org/2000/svg"
   xmlns="http://www.w3.org/2000/svg"
   xmlns:sodipodi="http://sodipodi.sourceforge.net/DTD/sodipodi-0.dtd"
   xmlns:inkscape="http://www.inkscape.org/namespaces/inkscape"
   width="760.38885"
   height="187.35738"
   viewBox="0 0 201.18623 49.571637"
   version="1.1"
   id="svg8"
   inkscape:version="0.92.2 (5c3e80d, 2017-08-06)"
   sodipodi:docname="horizontal_white.svg"
   inkscape:export-filename="/home/anxhelo/works/Remmina/PNG/horizontal_white.png"
   inkscape:export-xdpi="96"
   inkscape:export-ydpi="96">
  <defs
     id="defs2" />
  <sodipodi:namedview
     id="base"
     pagecolor="#ffffff"
     bordercolor="#666666"
     borderopacity="1.0"
     inkscape:pageopacity="0"
     inkscape:pageshadow="2"
     inkscape:zoom="0.74199837"
     inkscape:cx="300.42754"
     inkscape:cy="80.921021"
     inkscape:document-units="px"
     inkscape:current-layer="g875"
     inkscape:document-rotation="0"
     showgrid="false"
     borderlayer="true"
     inkscape:showpageshadow="true"
     units="px"
     inkscape:pagecheckerboard="false"
     showguides="true"
     inkscape:window-width="1366"
     inkscape:window-height="715"
     inkscape:window-x="0"
     inkscape:window-y="0"
     inkscape:window-maximized="1"
     objecttolerance="10"
     guidetolerance="10"
     inkscape:snap-tangential="true"
     inkscape:snap-perpendicular="true"
     fit-margin-top="0"
     fit-margin-left="0"
     fit-margin-right="0"
     fit-margin-bottom="0">
    <inkscape:grid
       type="xygrid"
       id="grid10"
       dotted="false"
       originx="-73.187621"
       originy="-77.018669" />
  </sodipodi:namedview>
  <metadata
     id="metadata5">
    <rdf:RDF>
      <cc:Work
         rdf:about="">
        <dc:format>image/svg+xml</dc:format>
        <dc:type
           rdf:resource="http://purl.org/dc/dcmitype/StillImage" />
        <dc:title></dc:title>
        <cc:license
           rdf:resource="" />
      </cc:Work>
    </rdf:RDF>
  </metadata>
  <g
     inkscape:label="Layer 1"
     inkscape:groupmode="layer"
     id="layer1"
     transform="translate(-73.187616,-170.4097)">
    <g
       id="g875"
       transform="matrix(0.64508605,0,0,0.64508605,73.187616,170.4097)">
      <g
         id="g851"
         style="fill:#ffffff">
        <path
           id="path837"
           d="m 108.337,23.879 c 5.101,0 9.002,0.936 11.705,2.805 2.703,1.87 4.055,4.726 4.055,8.568 0,4.794 -2.364,8.041 -7.09,9.741 0.646,0.782 1.378,1.734 2.193,2.855 0.816,1.122 1.648,2.339 2.499,3.646 0.85,1.31 1.666,2.652 2.448,4.029 0.781,1.377 1.479,2.729 2.091,4.055 h -7.191 c -0.646,-1.224 -1.343,-2.456 -2.091,-3.697 -0.748,-1.241 -1.504,-2.448 -2.27,-3.621 -0.765,-1.173 -1.521,-2.277 -2.27,-3.315 -0.748,-1.036 -1.445,-1.963 -2.091,-2.779 -0.477,0.034 -0.885,0.051 -1.224,0.051 -0.341,0 -0.663,0 -0.97,0 h -3.11 V 59.58 H 98.595 V 24.747 c 1.563,-0.339 3.229,-0.569 4.998,-0.688 1.768,-0.12 3.349,-0.18 4.744,-0.18 z m 0.459,5.559 c -1.36,0 -2.618,0.051 -3.773,0.153 v 11.424 h 2.805 c 1.563,0 2.94,-0.084 4.131,-0.255 1.19,-0.17 2.185,-0.476 2.983,-0.918 0.798,-0.442 1.403,-1.037 1.811,-1.785 0.408,-0.748 0.612,-1.7 0.612,-2.856 0,-1.088 -0.204,-2.006 -0.612,-2.754 -0.407,-0.748 -0.994,-1.343 -1.759,-1.785 -0.766,-0.441 -1.676,-0.756 -2.729,-0.943 -1.055,-0.186 -2.211,-0.281 -3.469,-0.281 z"
           class="st0"
           inkscape:connector-curvature="0"
           style="fill:#ffffff" />
        <path
           id="path839"
           d="m 129.451,46.371 c 0,-2.346 0.348,-4.403 1.045,-6.171 0.697,-1.768 1.624,-3.239 2.78,-4.412 1.155,-1.173 2.481,-2.057 3.978,-2.652 1.496,-0.595 3.025,-0.893 4.59,-0.893 3.672,0 6.536,1.14 8.594,3.417 2.057,2.278 3.085,5.679 3.085,10.2 0,0.34 -0.008,0.723 -0.025,1.147 -0.018,0.426 -0.043,0.808 -0.076,1.147 h -17.595 c 0.17,2.142 0.926,3.8 2.27,4.973 1.343,1.173 3.289,1.759 5.839,1.759 1.496,0 2.864,-0.135 4.105,-0.407 1.241,-0.272 2.219,-0.562 2.933,-0.867 l 0.816,5.049 c -0.341,0.171 -0.809,0.349 -1.402,0.535 -0.596,0.188 -1.275,0.357 -2.04,0.511 -0.766,0.152 -1.59,0.28 -2.474,0.382 -0.885,0.103 -1.785,0.153 -2.703,0.153 -2.346,0 -4.386,-0.349 -6.12,-1.046 -1.733,-0.696 -3.162,-1.665 -4.284,-2.906 -1.122,-1.241 -1.955,-2.703 -2.499,-4.387 -0.546,-1.682 -0.817,-3.526 -0.817,-5.532 z m 17.9,-2.754 c 0,-0.85 -0.119,-1.657 -0.356,-2.423 -0.238,-0.765 -0.587,-1.428 -1.046,-1.989 -0.459,-0.561 -1.02,-1.002 -1.683,-1.326 -0.663,-0.323 -1.454,-0.484 -2.372,-0.484 -0.952,0 -1.784,0.179 -2.499,0.536 -0.714,0.357 -1.317,0.825 -1.811,1.402 -0.493,0.579 -0.875,1.242 -1.147,1.989 -0.272,0.748 -0.459,1.513 -0.561,2.295 z"
           class="st0"
           inkscape:connector-curvature="0"
           style="fill:#ffffff" />
        <path
           id="path841"
           d="m 175.249,45.554 c 0,-2.787 -0.349,-4.802 -1.046,-6.043 -0.697,-1.241 -1.997,-1.862 -3.901,-1.862 -0.681,0 -1.428,0.051 -2.244,0.153 -0.815,0.102 -1.428,0.187 -1.836,0.255 V 59.58 h -6.171 V 33.773 c 1.19,-0.339 2.745,-0.663 4.667,-0.969 1.92,-0.306 3.952,-0.459 6.095,-0.459 1.836,0 3.34,0.238 4.513,0.714 1.173,0.477 2.15,1.105 2.933,1.887 0.374,-0.272 0.85,-0.561 1.428,-0.867 0.578,-0.306 1.225,-0.586 1.938,-0.841 0.714,-0.255 1.471,-0.467 2.27,-0.638 0.799,-0.17 1.606,-0.255 2.423,-0.255 2.073,0 3.781,0.298 5.125,0.893 1.343,0.595 2.397,1.428 3.162,2.499 0.765,1.071 1.292,2.363 1.581,3.876 0.288,1.513 0.434,3.17 0.434,4.972 V 59.58 h -6.171 V 45.554 c 0,-2.787 -0.341,-4.802 -1.021,-6.043 -0.681,-1.241 -1.988,-1.862 -3.927,-1.862 -0.986,0 -1.921,0.162 -2.805,0.485 -0.885,0.323 -1.548,0.637 -1.989,0.943 0.271,0.85 0.459,1.751 0.561,2.703 0.103,0.952 0.153,1.972 0.153,3.06 V 59.58 H 175.25 V 45.554 Z"
           class="st0"
           inkscape:connector-curvature="0"
           style="fill:#ffffff" />
        <path
           id="path843"
           d="m 219.363,45.554 c 0,-2.787 -0.349,-4.802 -1.046,-6.043 -0.697,-1.241 -1.997,-1.862 -3.901,-1.862 -0.681,0 -1.428,0.051 -2.244,0.153 -0.815,0.102 -1.428,0.187 -1.836,0.255 V 59.58 h -6.171 V 33.773 c 1.19,-0.339 2.745,-0.663 4.667,-0.969 1.92,-0.306 3.952,-0.459 6.095,-0.459 1.836,0 3.34,0.238 4.513,0.714 1.173,0.477 2.15,1.105 2.933,1.887 0.374,-0.272 0.85,-0.561 1.428,-0.867 0.578,-0.306 1.225,-0.586 1.938,-0.841 0.714,-0.255 1.471,-0.467 2.27,-0.638 0.799,-0.17 1.606,-0.255 2.423,-0.255 2.073,0 3.781,0.298 5.125,0.893 1.343,0.595 2.397,1.428 3.162,2.499 0.765,1.071 1.292,2.363 1.581,3.876 0.288,1.513 0.434,3.17 0.434,4.972 V 59.58 h -6.171 V 45.554 c 0,-2.787 -0.341,-4.802 -1.021,-6.043 -0.681,-1.241 -1.988,-1.862 -3.927,-1.862 -0.986,0 -1.921,0.162 -2.805,0.485 -0.885,0.323 -1.548,0.637 -1.989,0.943 0.271,0.85 0.459,1.751 0.561,2.703 0.103,0.952 0.153,1.972 0.153,3.06 v 14.74 h -6.171 V 45.554 Z"
           class="st0"
           inkscape:connector-curvature="0"
           style="fill:#ffffff" />
        <path
           id="path845"
           d="m 255.164,25.104 c 0,1.156 -0.374,2.074 -1.121,2.754 -0.749,0.681 -1.633,1.02 -2.652,1.02 -1.055,0 -1.956,-0.339 -2.703,-1.02 -0.748,-0.68 -1.122,-1.598 -1.122,-2.754 0,-1.189 0.374,-2.125 1.122,-2.805 0.747,-0.68 1.648,-1.02 2.703,-1.02 1.02,0 1.903,0.34 2.652,1.02 0.747,0.68 1.121,1.615 1.121,2.805 z M 254.502,59.58 H 248.33 V 32.907 h 6.172 z"
           class="st0"
           inkscape:connector-curvature="0"
           style="fill:#ffffff" />
        <path
           id="path847"
           d="m 262.354,33.773 c 1.19,-0.339 2.736,-0.663 4.642,-0.969 1.903,-0.306 4.011,-0.459 6.323,-0.459 2.176,0 3.995,0.298 5.457,0.893 1.462,0.595 2.627,1.428 3.494,2.499 0.867,1.071 1.479,2.363 1.836,3.876 0.356,1.513 0.535,3.17 0.535,4.972 V 59.58 H 278.47 V 45.554 c 0,-1.428 -0.094,-2.643 -0.28,-3.646 -0.188,-1.002 -0.493,-1.818 -0.918,-2.448 -0.426,-0.628 -1.004,-1.087 -1.734,-1.377 -0.731,-0.289 -1.624,-0.434 -2.678,-0.434 -0.782,0 -1.599,0.051 -2.447,0.153 -0.851,0.102 -1.479,0.187 -1.888,0.255 V 59.58 h -6.171 z"
           class="st0"
           inkscape:connector-curvature="0"
           style="fill:#ffffff" />
        <path
           id="path849"
           d="m 301.063,32.244 c 2.04,0 3.757,0.255 5.151,0.765 1.394,0.51 2.507,1.224 3.341,2.142 0.832,0.918 1.428,2.032 1.784,3.341 0.357,1.309 0.536,2.746 0.536,4.309 v 16.167 c -0.952,0.204 -2.39,0.451 -4.31,0.74 -1.922,0.288 -4.089,0.433 -6.503,0.433 -1.599,0 -3.06,-0.152 -4.386,-0.459 -1.326,-0.306 -2.457,-0.798 -3.392,-1.479 -0.936,-0.68 -1.666,-1.563 -2.193,-2.652 -0.527,-1.088 -0.79,-2.43 -0.79,-4.028 0,-1.53 0.297,-2.822 0.893,-3.876 0.595,-1.054 1.402,-1.913 2.423,-2.576 1.02,-0.663 2.2,-1.139 3.544,-1.428 1.343,-0.288 2.745,-0.434 4.208,-0.434 0.68,0 1.394,0.043 2.142,0.128 0.747,0.085 1.547,0.229 2.397,0.434 V 42.75 c 0,-0.714 -0.086,-1.394 -0.256,-2.04 -0.17,-0.646 -0.468,-1.215 -0.893,-1.708 -0.425,-0.492 -0.986,-0.875 -1.683,-1.147 -0.697,-0.271 -1.573,-0.408 -2.626,-0.408 -1.429,0 -2.737,0.102 -3.928,0.306 -1.191,0.204 -2.159,0.442 -2.906,0.714 l -0.766,-4.998 c 0.782,-0.272 1.921,-0.543 3.417,-0.816 1.498,-0.273 3.096,-0.409 4.796,-0.409 z m 0.51,23.001 c 1.904,0 3.349,-0.102 4.336,-0.306 v -6.834 c -0.341,-0.103 -0.834,-0.204 -1.479,-0.307 -0.646,-0.102 -1.36,-0.152 -2.142,-0.152 -0.681,0 -1.369,0.051 -2.065,0.152 -0.697,0.103 -1.326,0.289 -1.888,0.562 -0.561,0.272 -1.012,0.654 -1.352,1.147 -0.34,0.493 -0.51,1.114 -0.51,1.861 0,1.462 0.459,2.474 1.377,3.034 0.918,0.562 2.16,0.843 3.723,0.843 z"
           class="st0"
           inkscape:connector-curvature="0"
           style="fill:#ffffff" />
      </g>
      <g
         id="g863"
         style="fill:#ffffff">
        <g
           id="g855"
           style="fill:#ffffff">
          <polygon
             id="polygon853"
             points="20.618,17.742 20.618,26.923 29.549,32.877 20.618,38.831 20.618,48.012 43.32,32.877 "
             class="st1"
             style="fill:#ffffff" />
        </g>
        <g
           id="g861"
           style="fill:#ffffff">
          <g
             id="g859"
             style="fill:#ffffff">
            <polygon
               id="polygon857"
               points="55.388,59.232 55.388,50.051 46.457,44.097 55.388,38.143 55.388,28.962 32.685,44.097 "
               class="st2"
               style="fill:#ffffff" />
          </g>
        </g>
      </g>
      <g
         id="g873"
         style="fill:#ffffff">
        <g
           id="g867"
           style="fill:#ffffff">
          <path
             id="path865"
             d="m 64.776,23.074 c 2.632,4.509 4.147,9.75 4.147,15.348 0,16.845 -13.656,30.5 -30.5,30.5 -9.922,0 -18.734,-4.741 -24.304,-12.077 L 7.53,61.238 c 7.005,9.461 18.243,15.607 30.892,15.607 21.186,0 38.423,-17.236 38.423,-38.423 0,-7.215 -2.002,-13.97 -5.476,-19.744 z"
             class="st1"
             inkscape:connector-curvature="0"
             style="fill:#ffffff" />
        </g>
        <g
           id="g871"
           style="fill:#ffffff">
          <path
             id="path869"
             d="m 7.922,38.423 c 0,-16.845 13.656,-30.5 30.5,-30.5 9.826,0 18.561,4.652 24.139,11.868 l 6.596,-4.397 C 62.142,6.053 50.976,0 38.423,0 17.236,0 0,17.236 0,38.423 0,45.543 1.954,52.212 5.343,57.936 L 11.937,53.54 C 9.387,49.083 7.922,43.925 7.922,38.423 Z"
             class="st2"
             inkscape:connector-curvature="0"
             style="fill:#ffffff" />
        </g>
      </g>
    </g>
  </g>
  <style
     id="style835"
     type="text/css">
	.st0{fill:#333333;}
	.st1{fill:#20AA73;}
	.st2{fill:#4A93DD;}
</style>
  <style
     id="style905"
     type="text/css">
	.st0{fill:#333333;}
	.st1{fill:#20AA73;}
	.st2{fill:#4A93DD;}
</style>
</svg>
