<?xml version="1.0" encoding="UTF-8" standalone="no"?>
<!-- Created with Inkscape (http://www.inkscape.org/) -->

<svg
   xmlns:dc="http://purl.org/dc/elements/1.1/"
   xmlns:cc="http://creativecommons.org/ns#"
   xmlns:rdf="http://www.w3.org/1999/02/22-rdf-syntax-ns#"
   xmlns:svg="http://www.w3.org/2000/svg"
   xmlns="http://www.w3.org/2000/svg"
   xmlns:sodipodi="http://sodipodi.sourceforge.net/DTD/sodipodi-0.dtd"
   xmlns:inkscape="http://www.inkscape.org/namespaces/inkscape"
   width="986.45148"
   height="228.37314"
   viewBox="0 0 260.99862 60.423724"
   version="1.1"
   id="svg8"
   inkscape:version="0.92.2 (5c3e80d, 2017-08-06)"
   sodipodi:docname="horizontal_white.svg"
   inkscape:export-filename="/home/anxhelo/works/ProTip/PNG/horizontal_white.png"
   inkscape:export-xdpi="96"
   inkscape:export-ydpi="96">
  <defs
     id="defs2" />
  <sodipodi:namedview
     id="base"
     pagecolor="#ffffff"
     bordercolor="#666666"
     borderopacity="1.0"
     inkscape:pageopacity="0"
     inkscape:pageshadow="2"
     inkscape:zoom="0.52467208"
     inkscape:cx="535.42615"
     inkscape:cy="125.75459"
     inkscape:document-units="px"
     inkscape:current-layer="g1942"
     inkscape:document-rotation="0"
     showgrid="false"
     borderlayer="true"
     inkscape:showpageshadow="true"
     units="px"
     inkscape:pagecheckerboard="false"
     showguides="true"
     inkscape:window-width="1366"
     inkscape:window-height="715"
     inkscape:window-x="0"
     inkscape:window-y="0"
     inkscape:window-maximized="1"
     objecttolerance="10"
     guidetolerance="10"
     inkscape:snap-tangential="true"
     inkscape:snap-perpendicular="true"
     fit-margin-top="0"
     fit-margin-left="0"
     fit-margin-right="0"
     fit-margin-bottom="0">
    <inkscape:grid
       type="xygrid"
       id="grid10"
       dotted="false"
       originx="12.504177"
       originy="-122.90208" />
  </sodipodi:namedview>
  <metadata
     id="metadata5">
    <rdf:RDF>
      <cc:Work
         rdf:about="">
        <dc:format>image/svg+xml</dc:format>
        <dc:type
           rdf:resource="http://purl.org/dc/dcmitype/StillImage" />
        <dc:title></dc:title>
        <cc:license
           rdf:resource="" />
      </cc:Work>
    </rdf:RDF>
  </metadata>
  <g
     inkscape:label="Layer 1"
     inkscape:groupmode="layer"
     id="layer1"
     transform="translate(12.504177,-113.6742)">
    <g
       id="g1942"
       transform="matrix(3.1637475,0,0,3.1637475,-537.72448,-420.82215)">
      <g
         transform="matrix(0.35277777,0,0,-0.35277777,200.0793,173.95375)"
         id="g20"
         style="fill:#ffffff">
        <path
           inkscape:connector-curvature="0"
           id="path22"
           style="fill:#ffffff;fill-opacity:1;fill-rule:nonzero;stroke:none"
           d="M 0,0 H -4.732 V -12.169 H 0 c 4.889,0 6.917,2.393 6.917,6.24 C 6.917,-2.185 4.992,0 0,0 m 0.988,-17.057 h -5.72 v -6.864 h 5.408 v -4.941 h -15.08 v 4.941 h 3.9 V 0 h -3.9 v 4.94 h 15.08 c 8.373,0 12.428,-4.472 12.428,-10.764 0,-7.437 -5.459,-11.233 -12.116,-11.233" />
      </g>
      <g
         transform="matrix(0.35277777,0,0,-0.35277777,212.16811,176.22853)"
         id="g24"
         style="fill:#ffffff">
        <path
           inkscape:connector-curvature="0"
           id="path26"
           style="fill:#ffffff;fill-opacity:1;fill-rule:nonzero;stroke:none"
           d="m 0,0 0.988,-7.28 -4.316,-0.521 -0.884,4.005 c -0.624,0.312 -1.144,0.52 -1.768,0.52 -1.976,0 -3.588,-1.716 -3.588,-4.525 v -10.348 h 4.628 v -4.265 h -13.676 v 4.265 h 3.484 V -3.38 h -3.64 v 4.316 h 8.788 V -3.433 C -9.152,-0.78 -7.332,1.3 -4.368,1.3 -2.964,1.3 -1.456,0.936 0,0" />
      </g>
      <g
         transform="matrix(0.35277777,0,0,-0.35277777,217.74486,177.25585)"
         id="g28"
         style="fill:#ffffff">
        <path
           inkscape:connector-curvature="0"
           id="path30"
           style="fill:#ffffff;fill-opacity:1;fill-rule:nonzero;stroke:none"
           d="m 0,0 c -3.952,0 -6.292,-3.068 -6.292,-7.749 0,-4.42 2.132,-7.904 6.292,-7.904 4.005,0 6.448,3.224 6.448,7.956 C 6.448,-2.704 3.797,0 0,0 m -0.208,-20.021 c -7.125,0 -11.856,4.628 -11.856,11.96 0,6.813 4.107,12.429 12.168,12.429 8.113,0 12.117,-5.616 12.117,-12.221 0,-7.28 -5.096,-12.168 -12.429,-12.168" />
      </g>
      <g
         transform="matrix(0.35277777,0,0,-0.35277777,231.19176,176.24698)"
         id="g32"
         style="fill:#ffffff">
        <path
           inkscape:connector-curvature="0"
           id="path34"
           style="fill:#ffffff;fill-opacity:1;fill-rule:nonzero;stroke:none"
           d="m 0,0 -1.04,6.5 h -6.604 v -23.921 h 5.668 v -4.94 h -16.9 v 4.94 h 5.46 V 6.5 h -6.656 l -1.04,-6.5 -4.941,0.416 1.04,11.024 H 3.952 L 4.992,0.416 Z" />
      </g>
      <path
         inkscape:connector-curvature="0"
         id="path36"
         style="fill:#ffffff;fill-opacity:1;fill-rule:nonzero;stroke:none;stroke-width:0.35277775"
         d="m 235.06198,172.02769 h 1.99989 v 2.16464 h -1.99989 z m -1.11901,12.10803 v -1.50459 h 1.22943 v -5.21018 h -1.30281 v -1.52259 h 3.24697 v 6.73277 h 1.22942 v 1.50459 z" />
      <g
         transform="matrix(0.35277777,0,0,-0.35277777,244.32621,177.31099)"
         id="g38"
         style="fill:#ffffff">
        <path
           inkscape:connector-curvature="0"
           id="path40"
           style="fill:#ffffff;fill-opacity:1;fill-rule:nonzero;stroke:none"
           d="m 0,0 c -3.744,0 -5.98,-3.328 -6.137,-7.125 l -0.051,-1.82 c 0,-3.847 2.496,-6.448 6.032,-6.448 3.952,0 6.24,2.964 6.24,7.748 C 6.084,-2.652 3.536,0 0,0 m 1.144,-19.865 c -3.329,0 -5.876,1.3 -7.332,3.64 v -9.828 h 4.627 v -4.368 h -13.676 v 4.368 h 3.484 V -0.26 h -3.64 v 4.264 h 9.205 v -4.628 c 1.299,2.756 3.744,5.096 8.007,5.096 5.929,0 10.037,-4.264 10.037,-11.545 0,-6.656 -3.432,-12.792 -10.712,-12.792" />
      </g>
      <g
         transform="matrix(0.35277777,0,0,-0.35277777,184.77979,172.11906)"
         id="g42"
         style="fill:#ffffff;fill-opacity:0.94199997">
        <path
           inkscape:connector-curvature="0"
           id="path44"
           style="fill:#ffffff;fill-opacity:0.94199997;fill-rule:nonzero;stroke:none"
           d="M 0,0 V 9 H -18 V -9 h -9 v -9 h -9 v -18 h 9 v -9 h 9 v 9 h 9 v 9 h 9 v 9 H 9 V 0 Z" />
      </g>
      <path
         inkscape:connector-curvature="0"
         id="path46"
         style="fill:#ffffff;fill-opacity:0.94199997;fill-rule:nonzero;stroke:none;stroke-width:0.35277775"
         d="m 168.92038,180.92298 h 2.4384 v -2.4384 h -2.4384 z" />
      <path
         inkscape:connector-curvature="0"
         id="path48"
         style="fill:#ffffff;fill-opacity:0.94199997;fill-rule:nonzero;stroke:none;stroke-width:0.35277775"
         d="m 177.70878,172.13458 h -2.4384 v 2.4384 h 2.4384 z" />
      <path
         inkscape:connector-curvature="0"
         id="path50"
         style="fill:#ffffff;fill-opacity:0.94199997;fill-rule:nonzero;stroke:none;stroke-width:0.35277775"
         d="m 170.90158,169.41678 h -1.524 v 1.524 h 1.524 z" />
      <path
         inkscape:connector-curvature="0"
         id="path52"
         style="fill:#ffffff;fill-opacity:0.94199997;fill-rule:nonzero;stroke:none;stroke-width:0.35277775"
         d="m 167.72658,172.59178 h -1.524 v 1.524 h 1.524 z" />
      <path
         inkscape:connector-curvature="0"
         id="path54"
         style="fill:#ffffff;fill-opacity:0.94199997;fill-rule:nonzero;stroke:none;stroke-width:0.35277775"
         d="m 174.53378,175.30958 h -2.4384 v 2.4384 h 2.4384 z" />
      <path
         inkscape:connector-curvature="0"
         id="path56"
         style="fill:#ffffff;fill-opacity:0.94199997;fill-rule:nonzero;stroke:none;stroke-width:0.35277775"
         d="m 172.36208,174.30628 h 1.905 v -1.905 h -1.905 z" />
      <path
         inkscape:connector-curvature="0"
         id="path58"
         style="fill:#ffffff;fill-opacity:0.94199997;fill-rule:nonzero;stroke:none;stroke-width:0.35277775"
         d="m 171.09208,175.57628 h -1.905 v 1.905 h 1.905 z" />
      <path
         inkscape:connector-curvature="0"
         id="path60"
         style="fill:#ffffff;fill-opacity:0.94199997;fill-rule:nonzero;stroke:none;stroke-width:0.35277775"
         d="m 171.09208,172.40128 h -1.905 v 1.905 h 1.905 z" />
      <path
         inkscape:connector-curvature="0"
         id="path62"
         style="fill:#ffffff;fill-opacity:0.94199997;fill-rule:nonzero;stroke:none;stroke-width:0.35277775"
         d="m 166.01208,177.48128 h 1.905 v -1.905 h -1.905 z" />
      <path
         inkscape:connector-curvature="0"
         id="path64"
         style="fill:#ffffff;fill-opacity:0.94199997;fill-rule:nonzero;stroke:none;stroke-width:0.35277775"
         d="m 174.26708,169.22628 h -1.905 v 1.905 h 1.905 z" />
    </g>
  </g>
</svg>
