<?xml version="1.0" encoding="UTF-8" standalone="no"?>
<!-- Created with Inkscape (http://www.inkscape.org/) -->

<svg
   xmlns:dc="http://purl.org/dc/elements/1.1/"
   xmlns:cc="http://creativecommons.org/ns#"
   xmlns:rdf="http://www.w3.org/1999/02/22-rdf-syntax-ns#"
   xmlns:svg="http://www.w3.org/2000/svg"
   xmlns="http://www.w3.org/2000/svg"
   xmlns:sodipodi="http://sodipodi.sourceforge.net/DTD/sodipodi-0.dtd"
   xmlns:inkscape="http://www.inkscape.org/namespaces/inkscape"
   width="690.16956"
   height="571.12885"
   viewBox="0 0 182.60736 151.11117"
   version="1.1"
   id="svg8"
   inkscape:version="0.92.2 (5c3e80d, 2017-08-06)"
   sodipodi:docname="vertical_color.svg"
   inkscape:export-filename="/home/anxhelo/works/ProTip/PNG/vertical_color.png"
   inkscape:export-xdpi="96"
   inkscape:export-ydpi="96">
  <defs
     id="defs2" />
  <sodipodi:namedview
     id="base"
     pagecolor="#ffffff"
     bordercolor="#666666"
     borderopacity="1.0"
     inkscape:pageopacity="0"
     inkscape:pageshadow="2"
     inkscape:zoom="0.52467208"
     inkscape:cx="346.84425"
     inkscape:cy="291.0964"
     inkscape:document-units="px"
     inkscape:current-layer="g2124"
     inkscape:document-rotation="0"
     showgrid="false"
     borderlayer="true"
     inkscape:showpageshadow="true"
     units="px"
     inkscape:pagecheckerboard="false"
     showguides="true"
     inkscape:window-width="1366"
     inkscape:window-height="715"
     inkscape:window-x="0"
     inkscape:window-y="0"
     inkscape:window-maximized="1"
     objecttolerance="10"
     guidetolerance="10"
     inkscape:snap-tangential="true"
     inkscape:snap-perpendicular="true"
     fit-margin-top="0"
     fit-margin-left="0"
     fit-margin-right="0"
     fit-margin-bottom="0">
    <inkscape:grid
       type="xygrid"
       id="grid10"
       dotted="false"
       originx="-37.39145"
       originy="-79.155395" />
  </sodipodi:namedview>
  <metadata
     id="metadata5">
    <rdf:RDF>
      <cc:Work
         rdf:about="">
        <dc:format>image/svg+xml</dc:format>
        <dc:type
           rdf:resource="http://purl.org/dc/dcmitype/StillImage" />
        <dc:title></dc:title>
        <cc:license
           rdf:resource="" />
      </cc:Work>
    </rdf:RDF>
  </metadata>
  <g
     inkscape:label="Layer 1"
     inkscape:groupmode="layer"
     id="layer1"
     transform="translate(-37.39145,-66.733446)">
    <g
       id="g1942"
       transform="matrix(3.1637475,0,0,3.1637475,-537.72448,-420.82215)">
      <g
         id="g2124"
         transform="matrix(3.4125295,0,0,3.4125295,-490.23123,-407.68751)">
        <g
           transform="matrix(0.1115063,0,0,-0.1115063,198.53172,174.17017)"
           id="g66"
           style="fill:#3bcc6c;fill-opacity:1">
          <path
             inkscape:connector-curvature="0"
             id="path68"
             style="fill:#3bcc6c;fill-opacity:1;fill-rule:nonzero;stroke:none"
             d="M 0,0 H -4.732 V -12.168 H 0 c 4.889,0 6.917,2.393 6.917,6.24 C 6.917,-2.184 4.992,0 0,0 m 0.988,-17.057 h -5.72 v -6.864 h 5.408 v -4.94 h -15.08 v 4.94 h 3.9 V 0 h -3.9 v 4.94 h 15.08 c 8.373,0 12.428,-4.471 12.428,-10.764 0,-7.436 -5.459,-11.233 -12.116,-11.233" />
        </g>
        <g
           transform="matrix(0.1115063,0,0,-0.1115063,202.35276,174.88907)"
           id="g70"
           style="fill:#3bcc6c;fill-opacity:1">
          <path
             inkscape:connector-curvature="0"
             id="path72"
             style="fill:#3bcc6c;fill-opacity:1;fill-rule:nonzero;stroke:none"
             d="m 0,0 0.988,-7.281 -4.316,-0.52 -0.884,4.004 c -0.624,0.313 -1.144,0.52 -1.768,0.52 -1.976,0 -3.588,-1.715 -3.588,-4.524 v -10.348 h 4.628 v -4.265 h -13.676 v 4.265 h 3.484 v 14.768 h -3.64 v 4.317 h 8.788 v -4.37 c 0.832,2.653 2.652,4.733 5.616,4.733 C -2.964,1.299 -1.456,0.936 0,0" />
        </g>
        <g
           transform="matrix(0.1115063,0,0,-0.1115063,204.11546,175.21379)"
           id="g74"
           style="fill:#3bcc6c;fill-opacity:1">
          <path
             inkscape:connector-curvature="0"
             id="path76"
             style="fill:#3bcc6c;fill-opacity:1;fill-rule:nonzero;stroke:none"
             d="m 0,0 c -3.952,0 -6.292,-3.068 -6.292,-7.749 0,-4.421 2.132,-7.904 6.292,-7.904 4.005,0 6.448,3.223 6.448,7.956 C 6.448,-2.705 3.797,0 0,0 m -0.208,-20.021 c -7.125,0 -11.856,4.627 -11.856,11.959 0,6.814 4.107,12.429 12.168,12.429 8.113,0 12.117,-5.615 12.117,-12.221 0,-7.28 -5.096,-12.167 -12.429,-12.167" />
        </g>
        <g
           transform="matrix(0.1115063,0,0,-0.1115063,208.36577,174.89496)"
           id="g78"
           style="fill:#3bcc6c;fill-opacity:1">
          <path
             inkscape:connector-curvature="0"
             id="path80"
             style="fill:#3bcc6c;fill-opacity:1;fill-rule:nonzero;stroke:none"
             d="m 0,0 -1.04,6.5 h -6.604 v -23.921 h 5.668 v -4.94 h -16.9 v 4.94 h 5.46 V 6.5 h -6.656 l -1.04,-6.5 -4.941,0.416 1.04,11.024 H 3.952 L 4.992,0.416 Z" />
        </g>
        <path
           inkscape:connector-curvature="0"
           id="path82"
           style="fill:#3bcc6c;fill-opacity:1;fill-rule:nonzero;stroke:none;stroke-width:0.11150629"
           d="m 209.58907,173.56121 h 0.63213 v 0.68431 h -0.63213 z m -0.3537,3.82723 v -0.47557 h 0.3886 v -1.64684 h -0.41179 v -0.48126 h 1.0263 v 2.1281 h 0.3886 v 0.47557 z" />
        <g
           transform="matrix(0.1115063,0,0,-0.1115063,212.51732,175.23122)"
           id="g84"
           style="fill:#3bcc6c;fill-opacity:1">
          <path
             inkscape:connector-curvature="0"
             id="path86"
             style="fill:#3bcc6c;fill-opacity:1;fill-rule:nonzero;stroke:none"
             d="m 0,0 c -3.744,0 -5.98,-3.328 -6.137,-7.125 l -0.051,-1.82 c 0,-3.848 2.496,-6.449 6.032,-6.449 3.952,0 6.24,2.964 6.24,7.748 C 6.084,-2.652 3.536,0 0,0 m 1.144,-19.865 c -3.329,0 -5.876,1.3 -7.332,3.639 v -9.828 h 4.627 v -4.368 h -13.676 v 4.368 h 3.484 V -0.26 h -3.64 v 4.264 h 9.205 v -4.629 c 1.299,2.756 3.744,5.097 8.007,5.097 5.929,0 10.037,-4.265 10.037,-11.545 0,-6.656 -3.432,-12.792 -10.712,-12.792" />
        </g>
        <g
           transform="matrix(0.1115063,0,0,-0.1115063,208.12539,165.8306)"
           id="g88">
          <path
             inkscape:connector-curvature="0"
             id="path90"
             style="fill:#3bcc6c;fill-opacity:1;fill-rule:nonzero;stroke:none"
             d="m 0,0 v 10.794 h -21.588 v -21.589 h -10.794 v -10.794 h -10.795 v -21.589 h 10.795 v -10.794 h 10.794 v 10.794 h 10.794 v 10.795 H 0 v 10.794 H 10.794 V 0 Z" />
        </g>
        <path
           inkscape:connector-curvature="0"
           id="path92"
           style="fill:#3bcc6c;fill-opacity:1;fill-rule:nonzero;stroke:none;stroke-width:0.11150629"
           d="m 202.11324,169.1682 h 0.92439 v -0.92439 h -0.92439 z" />
        <path
           inkscape:connector-curvature="0"
           id="path94"
           style="fill:#3bcc6c;fill-opacity:1;fill-rule:nonzero;stroke:none;stroke-width:0.11150629"
           d="m 205.44483,165.8365 h -0.92439 v 0.92439 h 0.92439 z" />
        <path
           inkscape:connector-curvature="0"
           id="path96"
           style="fill:#3bcc6c;fill-opacity:1;fill-rule:nonzero;stroke:none;stroke-width:0.11150629"
           d="m 202.86424,164.80629 h -0.57772 v 0.57772 h 0.57772 z" />
        <path
           inkscape:connector-curvature="0"
           id="path98"
           style="fill:#3bcc6c;fill-opacity:1;fill-rule:nonzero;stroke:none;stroke-width:0.11150629"
           d="m 201.66064,166.00989 h -0.57771 v 0.57783 h 0.57771 z" />
        <path
           inkscape:connector-curvature="0"
           id="path100"
           style="fill:#3bcc6c;fill-opacity:1;fill-rule:nonzero;stroke:none;stroke-width:0.11150629"
           d="m 204.24123,167.04021 h -0.92439 v 0.92439 h 0.92439 z" />
        <path
           inkscape:connector-curvature="0"
           id="path102"
           style="fill:#3bcc6c;fill-opacity:1;fill-rule:nonzero;stroke:none;stroke-width:0.11150629"
           d="m 203.41787,166.65986 h 0.72222 v -0.72223 h -0.72222 z" />
        <path
           inkscape:connector-curvature="0"
           id="path104"
           style="fill:#3bcc6c;fill-opacity:1;fill-rule:nonzero;stroke:none;stroke-width:0.11150629"
           d="m 202.93649,167.14123 h -0.72222 v 0.72223 h 0.72222 z" />
        <path
           inkscape:connector-curvature="0"
           id="path106"
           style="fill:#3bcc6c;fill-opacity:1;fill-rule:nonzero;stroke:none;stroke-width:0.11150629"
           d="m 202.93649,165.93763 h -0.72222 v 0.72223 h 0.72222 z" />
        <path
           inkscape:connector-curvature="0"
           id="path108"
           style="fill:#3bcc6c;fill-opacity:1;fill-rule:nonzero;stroke:none;stroke-width:0.11150629"
           d="m 201.01067,167.86346 h 0.72223 v -0.72223 h -0.72223 z" />
        <path
           inkscape:connector-curvature="0"
           id="path110"
           style="fill:#3bcc6c;fill-opacity:1;fill-rule:nonzero;stroke:none;stroke-width:0.11150629"
           d="m 204.14009,164.73404 h -0.72222 v 0.72222 h 0.72222 z" />
      </g>
    </g>
  </g>
</svg>
