<?xml version="1.0" encoding="UTF-8" standalone="no"?>
<!-- Created with Inkscape (http://www.inkscape.org/) -->

<svg
   xmlns:dc="http://purl.org/dc/elements/1.1/"
   xmlns:cc="http://creativecommons.org/ns#"
   xmlns:rdf="http://www.w3.org/1999/02/22-rdf-syntax-ns#"
   xmlns:svg="http://www.w3.org/2000/svg"
   xmlns="http://www.w3.org/2000/svg"
   xmlns:sodipodi="http://sodipodi.sourceforge.net/DTD/sodipodi-0.dtd"
   xmlns:inkscape="http://www.inkscape.org/namespaces/inkscape"
   width="648.41901"
   height="154.38048"
   viewBox="0 0 171.56087 40.8465"
   version="1.1"
   id="svg8"
   inkscape:version="0.92.3 (2405546, 2018-03-11)"
   sodipodi:docname="horizontal_logo.svg"
   inkscape:export-filename="/home/anxhelo/Desktop/Thundebird Assets/Horizontal/horizontal_logo.png"
   inkscape:export-xdpi="66.209999"
   inkscape:export-ydpi="66.209999">
  <defs
     id="defs2">
    <linearGradient
       y2="26.7376"
       x2="25.2281"
       y1="128.3746"
       x1="126.8651"
       gradientUnits="userSpaceOnUse"
       id="SVGID_1_-3">
      <stop
         id="stop1214"
         style="stop-color:#130036"
         offset="0" />
      <stop
         id="stop1216"
         style="stop-color:#18023B"
         offset="0.2297" />
      <stop
         id="stop1218"
         style="stop-color:#26094A"
         offset="0.5122" />
      <stop
         id="stop1220"
         style="stop-color:#3D1563"
         offset="0.8211" />
      <stop
         id="stop1222"
         style="stop-color:#4E1D75"
         offset="1" />
    </linearGradient>
    <linearGradient
       y2="60.599899"
       x2="36.688702"
       y1="60.599899"
       x1="6.5124998"
       gradientUnits="userSpaceOnUse"
       id="SVGID_2_-6">
      <stop
         id="stop1237"
         style="stop-color:#3156A8"
         offset="0" />
      <stop
         id="stop1239"
         style="stop-color:#3351A4"
         offset="0.2474" />
      <stop
         id="stop1241"
         style="stop-color:#3B4397"
         offset="0.5365" />
      <stop
         id="stop1243"
         style="stop-color:#472C82"
         offset="0.8453" />
      <stop
         id="stop1245"
         style="stop-color:#4E1D75"
         offset="1" />
    </linearGradient>
    <radialGradient
       gradientUnits="userSpaceOnUse"
       gradientTransform="matrix(1,0,0,1.45,0,-32.5951)"
       r="54.200699"
       cy="72.433601"
       cx="37.559399"
       id="SVGID_3_-7">
      <stop
         id="stop1250"
         style="stop-color:#14CDDA"
         offset="0.1654" />
      <stop
         id="stop1252"
         style="stop-color:#2061BD"
         offset="0.5478" />
      <stop
         id="stop1254"
         style="stop-color:#2658AC"
         offset="0.6546" />
      <stop
         id="stop1256"
         style="stop-color:#373F81"
         offset="0.864" />
      <stop
         id="stop1258"
         style="stop-color:#432D62"
         offset="1" />
    </radialGradient>
    <linearGradient
       y2="36.811798"
       x2="121.7672"
       y1="36.811798"
       x1="28.318199"
       gradientUnits="userSpaceOnUse"
       id="SVGID_4_-5">
      <stop
         id="stop1263"
         style="stop-color:#2061BD"
         offset="0" />
      <stop
         id="stop1265"
         style="stop-color:#2B51AC"
         offset="0.1846" />
      <stop
         id="stop1267"
         style="stop-color:#442C84"
         offset="0.6826" />
      <stop
         id="stop1269"
         style="stop-color:#4E1D75"
         offset="0.9409" />
    </linearGradient>
    <linearGradient
       y2="70.627296"
       x2="106.3483"
       y1="14.7544"
       x1="42.073898"
       gradientUnits="userSpaceOnUse"
       id="SVGID_5_-3">
      <stop
         id="stop1278"
         style="stop-color:#48A8E0"
         offset="0.0202" />
      <stop
         id="stop1280"
         style="stop-color:#2061BD"
         offset="0.3883" />
      <stop
         id="stop1282"
         style="stop-color:#2B51AC"
         offset="0.4968" />
      <stop
         id="stop1284"
         style="stop-color:#442C84"
         offset="0.7892" />
      <stop
         id="stop1286"
         style="stop-color:#4E1D75"
         offset="0.9409" />
    </linearGradient>
    <linearGradient
       y2="27.740999"
       x2="138.502"
       y1="214.5313"
       x1="12.5103"
       gradientUnits="userSpaceOnUse"
       id="SVGID_6_-5">
      <stop
         id="stop1291"
         style="stop-color:#3156A8"
         offset="0.3787" />
      <stop
         id="stop1293"
         style="stop-color:#4E1D75"
         offset="1" />
    </linearGradient>
    <linearGradient
       y2="20.690701"
       x2="131.1788"
       y1="177.16589"
       x1="61.5116"
       gradientUnits="userSpaceOnUse"
       id="SVGID_7_-6">
      <stop
         id="stop1298"
         style="stop-color:#29ABE2"
         offset="0" />
      <stop
         id="stop1300"
         style="stop-color:#385AA6"
         offset="0.7733" />
      <stop
         id="stop1302"
         style="stop-color:#414293"
         offset="0.8575" />
      <stop
         id="stop1304"
         style="stop-color:#4E1D75"
         offset="1" />
    </linearGradient>
    <linearGradient
       y2="60.699699"
       x2="34.487202"
       y1="58.515999"
       x1="30.689699"
       gradientUnits="userSpaceOnUse"
       id="SVGID_8_-2">
      <stop
         id="stop1309"
         style="stop-color:#B0DCD6"
         offset="0" />
      <stop
         id="stop1311"
         style="stop-color:#53ACE0"
         offset="1" />
    </linearGradient>
    <mask
       id="SVGID_9_"
       height="6.629"
       width="14.927"
       y="18.355"
       x="162.68"
       maskUnits="userSpaceOnUse">
      <g
         id="g989"
         class="st13"
         style="filter:url(#Adobe_OpacityMaskFilter)">
        <radialGradient
           gradientUnits="userSpaceOnUse"
           r="51.967499"
           cy="67.998497"
           cx="154.384"
           id="SVGID_10_">
          <stop
             id="stop982"
             style="stop-color:#FFFFFF"
             offset="0.868" />
          <stop
             id="stop984"
             style="stop-color:#000000"
             offset="1" />
        </radialGradient>
        <rect
           id="rect987"
           height="93.338997"
           width="100.015"
           class="st14"
           y="-7.2179999"
           x="91.294998"
           style="fill:url(#SVGID_10_)" />
      </g>
    </mask>
    <filter
       height="6.6290002"
       width="14.927"
       y="18.355"
       x="162.67999"
       filterUnits="userSpaceOnUse"
       id="Adobe_OpacityMaskFilter">
      <feColorMatrix
         id="feColorMatrix977"
         values="1 0 0 0 0  0 1 0 0 0  0 0 1 0 0  0 0 0 1 0"
         type="matrix" />
    </filter>
    <radialGradient
       gradientUnits="userSpaceOnUse"
       r="51.967499"
       cy="67.998497"
       cx="154.384"
       id="radialGradient2005">
      <stop
         id="stop2001"
         style="stop-color:#FFFFFF"
         offset="0.868" />
      <stop
         id="stop2003"
         style="stop-color:#000000"
         offset="1" />
    </radialGradient>
    <linearGradient
       y2="13.0694"
       x2="104.4257"
       y1="14.6777"
       x1="112.0387"
       gradientUnits="userSpaceOnUse"
       id="SVGID_11_-7">
      <stop
         id="stop1331"
         style="stop-color:#3092B9"
         offset="0" />
      <stop
         id="stop1333"
         style="stop-color:#258DB6"
         offset="0.2199" />
      <stop
         id="stop1335"
         style="stop-color:#1685B1"
         offset="0.6564" />
      <stop
         id="stop1337"
         style="stop-color:#1082AF"
         offset="1" />
    </linearGradient>
    <linearGradient
       y2="49.303501"
       x2="57.627998"
       y1="24.1768"
       x1="51.363201"
       gradientUnits="userSpaceOnUse"
       id="SVGID_12_-0">
      <stop
         id="stop1348"
         style="stop-color:#1398D1;stop-opacity:0"
         offset="0.0074" />
      <stop
         id="stop1350"
         style="stop-color:#1187C2;stop-opacity:0.6197"
         offset="0.2482" />
      <stop
         id="stop1352"
         style="stop-color:#3F6499;stop-opacity:0.71"
         offset="0.6422" />
      <stop
         id="stop1354"
         style="stop-color:#2F4282;stop-opacity:0.5"
         offset="1" />
    </linearGradient>
    <linearGradient
       gradientTransform="matrix(0.9994,0.0349,-0.0349,0.9994,21.6653,-6.6119)"
       y2="50.299801"
       x2="22.9382"
       y1="52.251999"
       x1="26.4599"
       gradientUnits="userSpaceOnUse"
       id="SVGID_13_-9">
      <stop
         id="stop1363"
         style="stop-color:#F9C21B"
         offset="0" />
      <stop
         id="stop1365"
         style="stop-color:#F3BA1B"
         offset="0.1479" />
      <stop
         id="stop1367"
         style="stop-color:#E3A41B"
         offset="0.3787" />
      <stop
         id="stop1369"
         style="stop-color:#C9801C"
         offset="0.6634" />
      <stop
         id="stop1371"
         style="stop-color:#A44E1C"
         offset="0.9884" />
      <stop
         id="stop1373"
         style="stop-color:#A34C1C"
         offset="1" />
    </linearGradient>
    <linearGradient
       y2="30.2178"
       x2="107.7252"
       y1="82.743797"
       x1="131.1113"
       gradientUnits="userSpaceOnUse"
       id="SVGID_14_-3">
      <stop
         id="stop1384"
         style="stop-color:#409EC3"
         offset="0" />
      <stop
         id="stop1386"
         style="stop-color:#2061BD"
         offset="0.62" />
    </linearGradient>
    <linearGradient
       y2="13.9583"
       x2="95.630302"
       y1="65.527298"
       x1="112.3861"
       gradientUnits="userSpaceOnUse"
       id="SVGID_15_-6">
      <stop
         id="stop1391"
         style="stop-color:#14B2DA"
         offset="0" />
      <stop
         id="stop1393"
         style="stop-color:#297CCC"
         offset="0.4028" />
      <stop
         id="stop1395"
         style="stop-color:#256FC5"
         offset="0.5077" />
      <stop
         id="stop1397"
         style="stop-color:#2164BF"
         offset="0.6492" />
      <stop
         id="stop1399"
         style="stop-color:#2061BD"
         offset="0.8162" />
      <stop
         id="stop1401"
         style="stop-color:#2061BD"
         offset="0.9835" />
    </linearGradient>
    <filter
       height="4.2150002"
       width="9.4910002"
       y="11.67"
       x="103.433"
       filterUnits="userSpaceOnUse"
       id="filter1490">
      <feColorMatrix
         id="feColorMatrix1488"
         values="1 0 0 0 0  0 1 0 0 0  0 0 1 0 0  0 0 0 1 0"
         type="matrix" />
    </filter>
  </defs>
  <sodipodi:namedview
     id="base"
     pagecolor="#ffffff"
     bordercolor="#666666"
     borderopacity="1.0"
     inkscape:pageopacity="0"
     inkscape:pageshadow="2"
     inkscape:zoom="0.52467208"
     inkscape:cx="360.42258"
     inkscape:cy="105.97476"
     inkscape:document-units="px"
     inkscape:current-layer="layer1"
     inkscape:document-rotation="0"
     showgrid="false"
     borderlayer="true"
     inkscape:showpageshadow="true"
     units="px"
     inkscape:pagecheckerboard="false"
     showguides="true"
     inkscape:window-width="1366"
     inkscape:window-height="715"
     inkscape:window-x="0"
     inkscape:window-y="0"
     inkscape:window-maximized="1"
     objecttolerance="10"
     guidetolerance="10"
     inkscape:snap-tangential="true"
     inkscape:snap-perpendicular="true"
     fit-margin-top="0"
     fit-margin-left="0"
     fit-margin-right="0"
     fit-margin-bottom="0">
    <inkscape:grid
       type="xygrid"
       id="grid10"
       dotted="false"
       originx="-103.83007"
       originy="-91.023342" />
  </sodipodi:namedview>
  <metadata
     id="metadata5">
    <rdf:RDF>
      <cc:Work
         rdf:about="">
        <dc:format>image/svg+xml</dc:format>
        <dc:type
           rdf:resource="http://purl.org/dc/dcmitype/StillImage" />
        <dc:title></dc:title>
        <cc:license
           rdf:resource="" />
      </cc:Work>
    </rdf:RDF>
  </metadata>
  <g
     inkscape:label="Layer 1"
     inkscape:groupmode="layer"
     id="layer1"
     transform="translate(-103.83007,-165.13016)">
    <g
       id="g1408"
       transform="matrix(0.26458333,0,0,0.26458333,103.83007,165.13029)">
      <g
         id="g1212">
        <polygon
           id="polygon1188"
           points="201.509,56.966 201.509,110.935 210.905,110.935 210.905,56.966 227.802,56.966 228.809,48.814 184.111,48.814 184.111,56.966 "
           class="st0"
           style="fill:#363959" />
        <path
           id="path1190"
           d="m 256.936,62.128 c -5.267,0 -9.757,2.225 -13.366,6.619 V 43.522 l -9.129,0.992 v 66.421 h 9.129 V 77.307 c 1.597,-2.486 3.324,-4.434 5.134,-5.791 1.798,-1.35 3.881,-2.034 6.191,-2.034 2.275,0 4.023,0.635 5.196,1.889 1.18,1.264 1.779,3.513 1.779,6.684 v 32.88 h 9.128 V 76.901 c 0,-4.544 -1.253,-8.179 -3.726,-10.804 -2.481,-2.634 -5.959,-3.969 -10.336,-3.969 z"
           class="st0"
           inkscape:connector-curvature="0"
           style="fill:#363959" />
        <path
           id="path1192"
           d="m 310.424,96.916 c -3.133,5.13 -6.912,7.731 -11.236,7.731 -2.385,0 -4.113,-0.615 -5.135,-1.826 -1.044,-1.237 -1.573,-3.417 -1.573,-6.481 V 63.194 h -9.128 v 34.034 c 0,4.662 1.208,8.326 3.59,10.89 2.391,2.576 5.735,3.882 9.939,3.882 3.384,0 6.302,-0.694 8.674,-2.061 2.039,-1.177 3.893,-2.964 5.523,-5.326 l 0.54,6.323 h 7.936 V 63.194 h -9.129 v 33.722 z"
           class="st0"
           inkscape:connector-curvature="0"
           style="fill:#363959" />
        <path
           id="path1194"
           d="m 355.286,62.128 c -3.031,0 -5.845,0.739 -8.363,2.196 -2.152,1.244 -4.024,2.908 -5.579,4.956 l -0.625,-6.085 h -7.927 v 47.741 h 9.128 V 77.394 c 1.596,-2.543 3.323,-4.52 5.133,-5.878 1.799,-1.35 3.912,-2.034 6.281,-2.034 2.274,0 4.005,0.634 5.148,1.885 1.153,1.264 1.738,3.514 1.738,6.688 v 32.88 h 9.129 V 76.901 c 0,-4.544 -1.254,-8.179 -3.726,-10.804 -2.482,-2.634 -5.96,-3.969 -10.337,-3.969 z"
           class="st0"
           inkscape:connector-curvature="0"
           style="fill:#363959" />
        <path
           id="path1196"
           d="m 410.193,67.207 c -3.506,-3.371 -7.579,-5.079 -12.123,-5.079 -3.817,0 -7.2,1.093 -10.054,3.249 -2.841,2.146 -5.045,5.157 -6.548,8.949 -1.495,3.768 -2.253,8.128 -2.253,12.96 0,7.464 1.598,13.501 4.748,17.943 3.188,4.493 7.695,6.771 13.398,6.771 2.913,0 5.592,-0.694 7.963,-2.061 2.011,-1.161 3.758,-2.725 5.204,-4.659 l 0.697,5.655 h 8.097 V 44.43 l -9.129,-1.092 z m 0,8.171 v 22.581 c -1.588,2.188 -3.246,3.851 -4.929,4.946 -1.688,1.096 -3.75,1.652 -6.129,1.652 -3.285,0 -5.735,-1.377 -7.491,-4.211 -1.777,-2.866 -2.679,-7.319 -2.679,-13.238 0,-5.856 0.974,-10.306 2.894,-13.228 1.905,-2.901 4.517,-4.31 7.986,-4.31 2.089,0 3.993,0.5 5.657,1.486 1.646,0.977 3.223,2.431 4.691,4.322 z"
           class="st0"
           inkscape:connector-curvature="0"
           style="fill:#363959" />
        <path
           id="path1198"
           d="m 449.109,62.128 c -4.048,0 -7.623,1.106 -10.624,3.288 -2.99,2.175 -5.314,5.216 -6.906,9.036 -1.587,3.799 -2.39,8.207 -2.39,13.101 0,7.539 1.875,13.557 5.575,17.888 3.717,4.352 8.962,6.559 15.589,6.559 6.002,0 11.598,-2.006 16.63,-5.961 l 0.365,-0.287 -4.098,-5.636 -0.385,0.265 c -2.027,1.389 -3.99,2.415 -5.832,3.049 -1.833,0.63 -3.871,0.949 -6.058,0.949 -3.396,0 -6.204,-1.173 -8.346,-3.485 -2.086,-2.249 -3.343,-5.798 -3.739,-10.553 h 29.749 l 0.037,-0.442 c 0.118,-1.431 0.179,-2.847 0.179,-4.211 0,-7.299 -1.709,-13.105 -5.077,-17.257 -3.399,-4.182 -8.333,-6.303 -14.669,-6.303 z m -10.226,21.215 c 0.667,-9.266 4.075,-13.773 10.404,-13.773 3.492,0 6.14,1.16 7.871,3.448 1.761,2.331 2.654,5.788 2.654,10.274 v 0.051 z"
           class="st0"
           inkscape:connector-curvature="0"
           style="fill:#363959" />
        <path
           id="path1200"
           d="m 499.083,62.128 c -2.942,0 -5.554,0.934 -7.765,2.775 -1.777,1.481 -3.267,3.561 -4.443,6.198 l -0.665,-7.907 h -7.936 v 47.741 h 9.128 V 83.789 c 0.983,-4.376 2.35,-7.634 4.06,-9.687 1.695,-2.034 3.868,-3.023 6.642,-3.023 1.257,0 2.591,0.174 3.967,0.518 l 0.494,0.124 1.688,-8.937 -0.441,-0.11 c -1.447,-0.362 -3.04,-0.546 -4.729,-0.546 z"
           class="st0"
           inkscape:connector-curvature="0"
           style="fill:#363959" />
        <path
           id="path1202"
           d="m 531.748,62.128 c -5.124,0 -9.406,2.02 -12.745,6.009 V 43.338 l -9.128,1.092 v 66.505 h 8.083 l 0.701,-4.521 c 3.331,3.708 7.402,5.586 12.113,5.586 3.814,0 7.195,-1.062 10.049,-3.155 2.841,-2.086 5.046,-5.053 6.553,-8.819 1.495,-3.74 2.254,-8.115 2.254,-13.006 0,-7.759 -1.614,-13.903 -4.798,-18.259 -3.219,-4.402 -7.621,-6.633 -13.082,-6.633 z m -2.308,7.442 c 3.35,0 5.861,1.31 7.678,4.004 1.831,2.718 2.759,7.242 2.759,13.445 0,6.026 -1.001,10.517 -2.976,13.35 -1.964,2.819 -4.607,4.188 -8.082,4.188 -1.914,0 -3.754,-0.542 -5.471,-1.614 -1.697,-1.055 -3.158,-2.518 -4.344,-4.348 V 76.511 c 3.01,-4.606 6.52,-6.941 10.436,-6.941 z"
           class="st0"
           inkscape:connector-curvature="0"
           style="fill:#363959" />
        <rect
           id="rect1204"
           height="47.741001"
           width="9.1280003"
           class="st0"
           y="63.194"
           x="559.93701"
           style="fill:#363959" />
        <path
           id="path1206"
           d="m 564.412,40.736 c -1.781,0 -3.269,0.585 -4.423,1.738 -1.154,1.155 -1.739,2.613 -1.739,4.335 0,1.726 0.586,3.171 1.744,4.295 1.153,1.121 2.64,1.689 4.419,1.689 1.839,0 3.356,-0.568 4.508,-1.689 1.157,-1.124 1.744,-2.569 1.744,-4.295 0,-1.721 -0.585,-3.18 -1.739,-4.335 -1.155,-1.153 -2.673,-1.738 -4.514,-1.738 z"
           class="st0"
           inkscape:connector-curvature="0"
           style="fill:#363959" />
        <path
           id="path1208"
           d="m 603.113,62.128 c -2.942,0 -5.554,0.934 -7.765,2.775 -1.777,1.481 -3.267,3.561 -4.443,6.198 l -0.665,-7.907 h -7.936 v 47.741 h 9.128 V 83.789 c 0.983,-4.376 2.35,-7.634 4.06,-9.687 1.695,-2.034 3.868,-3.023 6.642,-3.023 1.257,0 2.591,0.174 3.967,0.518 l 0.494,0.124 1.688,-8.937 -0.441,-0.11 c -1.448,-0.362 -3.04,-0.546 -4.729,-0.546 z"
           class="st0"
           inkscape:connector-curvature="0"
           style="fill:#363959" />
        <path
           id="path1210"
           d="m 639.29,43.338 v 23.869 c -3.506,-3.371 -7.579,-5.079 -12.123,-5.079 -3.817,0 -7.2,1.093 -10.054,3.249 -2.841,2.146 -5.044,5.157 -6.548,8.949 -1.495,3.768 -2.253,8.128 -2.253,12.96 0,7.464 1.598,13.501 4.748,17.943 3.188,4.493 7.695,6.771 13.398,6.771 2.913,0 5.592,-0.694 7.963,-2.061 2.011,-1.161 3.758,-2.725 5.204,-4.659 l 0.697,5.655 h 8.097 V 44.43 Z m 0,32.04 v 22.581 c -1.588,2.188 -3.246,3.851 -4.929,4.946 -1.688,1.096 -3.75,1.652 -6.129,1.652 -3.285,0 -5.735,-1.377 -7.491,-4.211 -1.777,-2.866 -2.679,-7.319 -2.679,-13.238 0,-5.856 0.974,-10.306 2.894,-13.228 1.905,-2.901 4.517,-4.31 7.986,-4.31 2.089,0 3.993,0.5 5.657,1.486 1.646,0.977 3.223,2.431 4.691,4.322 z"
           class="st0"
           inkscape:connector-curvature="0"
           style="fill:#363959" />
      </g>
      <g
         id="g1406">
        <g
           id="g1380">
          <linearGradient
             y2="26.7376"
             x2="25.2281"
             y1="128.3746"
             x1="126.8651"
             gradientUnits="userSpaceOnUse"
             id="linearGradient2057">
            <stop
               id="stop2047"
               style="stop-color:#130036"
               offset="0" />
            <stop
               id="stop2049"
               style="stop-color:#18023B"
               offset="0.2297" />
            <stop
               id="stop2051"
               style="stop-color:#26094A"
               offset="0.5122" />
            <stop
               id="stop2053"
               style="stop-color:#3D1563"
               offset="0.8211" />
            <stop
               id="stop2055"
               style="stop-color:#4E1D75"
               offset="1" />
          </linearGradient>
          <path
             style="fill:url(#SVGID_1_-3)"
             id="path1225"
             d="m 120.097,22.566 c -9.22,-6.022 -21.011,-7.972 -27.518,-8.653 -6.965,-0.728 -13.014,-0.6 -18.334,0.181 -0.451,-0.006 -0.899,-0.023 -1.352,-0.023 -0.346,0 -0.687,0.015 -1.035,0.019 0.143,-0.175 0.242,-0.283 0.242,-0.283 0,0 -0.28,0.044 -0.829,0.293 -1.727,0.028 -3.447,0.088 -5.14,0.204 2.359,-2.586 4.292,-3.942 4.292,-3.942 0,0 -2.294,0.336 -6.48,4.13 -1.991,0.183 -3.956,0.426 -5.886,0.728 4.399,-5.952 9,-8.459 9,-8.459 0,0 -5.577,-1.135 -14.31,7.64 -0.731,0.735 -1.408,1.498 -2.064,2.271 -25.454,6.158 -43.67,22.595 -43.67,41.911 0,3.788 -1.163,7.954 0.091,12.115 -0.501,6.646 0.566,24.781 0.566,24.781 0,0 6.89,37.29 33.386,43.773 0.421,0.101 -5.536,-9.295 -8.171,-20.627 5.13,5.218 11.244,9.346 18.107,10.061 0.842,0.087 -3.92,-5.494 -8.091,-12.229 l 60.21,20.286 c 31.491,-13.526 27.825,-12.307 34.586,-19.631 14.896,-16.124 16.981,-25.273 13.228,-52.286 -2.537,-18.234 -15.996,-36.294 -30.828,-42.26 z"
             class="st1"
             inkscape:connector-curvature="0" />
          <polygon
             id="polygon1227"
             points="128.395,60.778 14.425,39.595 5.434,90.717 10.419,106.164 109.938,139.252 "
             class="st2"
             style="fill:#fbfbfb" />
          <g
             id="g1231">
            <path
               id="path1229"
               d="m 14.705,41.334 c 0.499,1.074 0.352,1.328 0.041,1.328 -0.14,0 -0.313,-0.051 -0.475,-0.103 -0.162,-0.051 -0.314,-0.103 -0.412,-0.103 -0.275,0 -0.12,0.407 1.439,2.365 2.205,2.801 34.587,51.687 36.357,51.687 0.009,0 0.018,-10e-4 0.025,-0.004 15.075,-5.372 79.186,-27.377 79.186,-27.377 L 124.306,59.572 14.705,41.334"
               class="st3"
               inkscape:connector-curvature="0"
               style="fill:#999999" />
          </g>
          <path
             id="path1233"
             d="m 15.645,40.133 c 0,0 0.483,2.5 2.722,5.267 2.225,2.792 32.115,48.049 33.615,47.65 19.58,-5.198 90.619,-32.855 90.619,-32.855 z"
             class="st4"
             inkscape:connector-curvature="0"
             style="fill:#f8f8f8" />
          <polygon
             id="polygon1235"
             points="107.437,140.522 106.384,138.073 11.806,106.627 12.14,108.837 "
             class="st3"
             style="fill:#999999" />
          <linearGradient
             y2="60.599899"
             x2="36.688702"
             y1="60.599899"
             x1="6.5124998"
             gradientUnits="userSpaceOnUse"
             id="linearGradient2075">
            <stop
               id="stop2065"
               style="stop-color:#3156A8"
               offset="0" />
            <stop
               id="stop2067"
               style="stop-color:#3351A4"
               offset="0.2474" />
            <stop
               id="stop2069"
               style="stop-color:#3B4397"
               offset="0.5365" />
            <stop
               id="stop2071"
               style="stop-color:#472C82"
               offset="0.8453" />
            <stop
               id="stop2073"
               style="stop-color:#4E1D75"
               offset="1" />
          </linearGradient>
          <path
             style="fill:url(#SVGID_2_-6)"
             id="path1248"
             d="m 36.689,38.018 c 0,0 -34.412,10.078 -18.622,45.163 0,0 -7.24,-6.629 -11.551,-15.105 -0.194,-0.379 7.186,-26.595 7.186,-26.595 z"
             class="st5"
             inkscape:connector-curvature="0" />
          <radialGradient
             gradientUnits="userSpaceOnUse"
             gradientTransform="matrix(1,0,0,1.45,0,-32.5951)"
             r="54.200699"
             cy="72.433601"
             cx="37.559399"
             id="radialGradient2088">
            <stop
               id="stop2078"
               style="stop-color:#14CDDA"
               offset="0.1654" />
            <stop
               id="stop2080"
               style="stop-color:#2061BD"
               offset="0.5478" />
            <stop
               id="stop2082"
               style="stop-color:#2658AC"
               offset="0.6546" />
            <stop
               id="stop2084"
               style="stop-color:#373F81"
               offset="0.864" />
            <stop
               id="stop2086"
               style="stop-color:#432D62"
               offset="1" />
          </radialGradient>
          <path
             style="fill:url(#SVGID_3_-7)"
             id="path1261"
             d="m 18.067,83.182 c -2.992,-0.052 -7.801,-2.521 -9.36,-5.51 -1.949,32.489 11.306,51.462 32.35,61.58 C 34.18,138.464 0,120.427 0,77.022 0,40.115 29.286,7.126 75.116,5.615 c 0.281,2.069 -22.721,7.257 -23.457,9.697 -1.142,3.797 -3.767,7.93 -5.98,11.244 -3,4.489 4.169,8.328 -1.099,9.538 -7.927,1.819 -18.501,0.812 -26.298,10.948 -11.721,15.236 -3.9,32.666 -0.215,36.14 z"
             class="st6"
             inkscape:connector-curvature="0" />
          <g
             id="g1274">
            <linearGradient
               y2="36.811798"
               x2="121.7672"
               y1="36.811798"
               x1="28.318199"
               gradientUnits="userSpaceOnUse"
               id="linearGradient2099">
              <stop
                 id="stop2091"
                 style="stop-color:#2061BD"
                 offset="0" />
              <stop
                 id="stop2093"
                 style="stop-color:#2B51AC"
                 offset="0.1846" />
              <stop
                 id="stop2095"
                 style="stop-color:#442C84"
                 offset="0.6826" />
              <stop
                 id="stop2097"
                 style="stop-color:#4E1D75"
                 offset="0.9409" />
            </linearGradient>
            <path
               style="fill:url(#SVGID_4_-5)"
               id="path1272"
               d="M 87.136,6.803 C 57.456,4.525 42.18,16.402 32.374,30.211 c -3.571,5.027 -3.181,9.643 -1.951,15.219 0.528,2.38 1.062,3.521 0.419,5.948 -0.355,1.339 -0.296,2.589 -0.737,3.379 -0.609,1.092 -1.386,2.285 -1.646,4.245 -0.65,4.895 1.083,6.454 2.166,8.101 1.543,-1.532 4.556,-5.137 9.988,-7.29 5.433,-2.153 9.008,-5.39 15.817,-8.864 9.303,-4.745 20.208,2.454 40.883,-4.321 6.362,-2.085 20.983,-23.744 24.454,-24.576 C 112.101,11.364 95.657,7.456 87.136,6.803 Z"
               class="st7"
               inkscape:connector-curvature="0" />
          </g>
          <path
             id="path1276"
             d="m 67.528,0.02 c 0,0 -5.3,2.56 -7.607,7.185 5.329,-2.686 8.422,-4.154 9.884,-4.329 0,0 -1.401,0.678 -3.138,4.368 3.071,-0.983 4.128,-1.604 4.971,-1.613 0,0 -0.245,0.388 -0.469,4.07 C 66.453,8.173 57.377,9.953 52.548,12.977 50.911,4.246 67.528,0.02 67.528,0.02 Z"
             class="st8"
             inkscape:connector-curvature="0"
             style="fill:#3f6499" />
          <linearGradient
             y2="70.627296"
             x2="106.3483"
             y1="14.7544"
             x1="42.073898"
             gradientUnits="userSpaceOnUse"
             id="linearGradient2114">
            <stop
               id="stop2104"
               style="stop-color:#48A8E0"
               offset="0.0202" />
            <stop
               id="stop2106"
               style="stop-color:#2061BD"
               offset="0.3883" />
            <stop
               id="stop2108"
               style="stop-color:#2B51AC"
               offset="0.4968" />
            <stop
               id="stop2110"
               style="stop-color:#442C84"
               offset="0.7892" />
            <stop
               id="stop2112"
               style="stop-color:#4E1D75"
               offset="0.9409" />
          </linearGradient>
          <path
             style="fill:url(#SVGID_5_-3)"
             id="path1289"
             d="M 88.619,5.487 C 79.521,4.308 71.916,4.54 65.45,5.786 67.483,3.837 69.836,2.877 69.836,2.877 66.787,3.146 62.982,5.137 59.716,7.244 58.07,7.769 56.502,8.362 55.017,9.023 55.926,7.825 56.984,6.544 58.018,5.561 61.857,1.91 67.559,0.02 67.559,0.02 62.693,-0.337 46.407,3.832 36.607,23.68 c -1.606,1.957 -3.105,3.964 -4.533,5.976 -3.686,5.191 -3.282,9.956 -2.011,15.714 0.542,2.459 0.642,6.384 0.107,8.92 -0.107,0.508 -1.502,1.82 -1.86,5.358 -0.383,3.754 0.957,5.598 2.278,7.123 4.693,-6.862 9.322,-8.222 9.322,-8.222 6.568,-2.691 9.302,-5.565 16.333,-9.152 9.606,-4.901 43.197,11.095 64.543,4.1 6.569,-2.152 -2.529,-30.112 1.057,-30.97 C 111.861,11.491 97.367,6.621 88.619,5.487 Z"
             class="st9"
             inkscape:connector-curvature="0" />
          <linearGradient
             y2="27.740999"
             x2="138.502"
             y1="214.5313"
             x1="12.5103"
             gradientUnits="userSpaceOnUse"
             id="linearGradient2121">
            <stop
               id="stop2117"
               style="stop-color:#3156A8"
               offset="0.3787" />
            <stop
               id="stop2119"
               style="stop-color:#4E1D75"
               offset="1" />
          </linearGradient>
          <path
             style="fill:url(#SVGID_6_-5)"
             id="path1296"
             d="M 155.25,65.672 C 149.988,38.182 124.67,13.172 104.311,11.786 95.275,11.171 98.05,15.803 92.396,17.568 68.031,25.171 67.659,29.61 67.659,29.61 c 51.661,2.428 52.444,53.449 38.609,66.357 3.893,-0.908 8.114,-5.668 11.991,-13.14 -0.465,3.135 -0.865,6.981 -1.446,11.272 -1.772,13.094 0.523,40.447 -37.103,58.752 0,0 20.583,-1.682 30.789,-13.172 -4.151,9.545 -15.54,14.701 -15.54,14.701 8.382,-1.226 30.398,-7.723 44.423,-25.262 15.873,-19.853 20.647,-38.478 15.868,-63.446 z"
             class="st10"
             inkscape:connector-curvature="0" />
          <linearGradient
             y2="20.690701"
             x2="131.1788"
             y1="177.16589"
             x1="61.5116"
             gradientUnits="userSpaceOnUse"
             id="linearGradient2132">
            <stop
               id="stop2124"
               style="stop-color:#29ABE2"
               offset="0" />
            <stop
               id="stop2126"
               style="stop-color:#385AA6"
               offset="0.7733" />
            <stop
               id="stop2128"
               style="stop-color:#414293"
               offset="0.8575" />
            <stop
               id="stop2130"
               style="stop-color:#4E1D75"
               offset="1" />
          </linearGradient>
          <path
             style="fill:url(#SVGID_7_-6)"
             id="path1307"
             d="m 104.904,115.858 c 0,0 16.783,-4.692 22.191,-13.755 -0.656,10.567 -10.241,21.403 -10.241,21.403 0,0 14.012,-2.836 19.987,-12.696 -0.778,8.898 -11.566,20.923 -11.566,20.923 11.029,-1.979 38.74,-19.484 29.974,-66.062 -5.177,-27.507 -30.58,-52.5 -50.94,-53.886 -9.036,-0.615 -6.261,4.017 -11.915,5.782 -24.363,7.604 -24.735,12.043 -24.735,12.043 51.661,2.428 65.389,29.466 38.609,65.635 3.893,-0.908 5.454,-3.048 8.379,-6.549 -0.001,0 1.325,13.848 -9.743,27.162 z"
             class="st11"
             inkscape:connector-curvature="0" />
          <linearGradient
             y2="60.699699"
             x2="34.487202"
             y1="58.515999"
             x1="30.689699"
             gradientUnits="userSpaceOnUse"
             id="linearGradient2139">
            <stop
               id="stop2135"
               style="stop-color:#B0DCD6"
               offset="0" />
            <stop
               id="stop2137"
               style="stop-color:#53ACE0"
               offset="1" />
          </linearGradient>
          <path
             style="fill:url(#SVGID_8_-2)"
             id="path1314"
             d="m 38.536,54.404 c 0,0 -3,2.099 -5.173,1.564 -2.572,-0.631 -3.007,-3.123 -3.007,-3.123 -0.057,0.51 -0.122,1.003 -0.217,1.445 -0.107,0.508 -1.502,1.82 -1.86,5.358 -0.383,3.754 1.027,5.929 2.348,7.454 4.693,-6.862 9.252,-8.553 9.252,-8.553 -1.787,-0.624 -1.343,-4.145 -1.343,-4.145 z"
             class="st12"
             inkscape:connector-curvature="0" />
          <defs
             id="defs1319">
            <filter
               height="4.2150002"
               width="9.4910002"
               y="11.67"
               x="103.433"
               filterUnits="userSpaceOnUse"
               id="filter3123">
              <feColorMatrix
                 id="feColorMatrix3121"
                 values="1 0 0 0 0  0 1 0 0 0  0 0 1 0 0  0 0 0 1 0"
                 type="matrix" />
            </filter>
          </defs>
          <mask
             id="SVGID_9_-1"
             height="4.215"
             width="9.491"
             y="11.67"
             x="103.433"
             maskUnits="userSpaceOnUse">
            <g
               style="filter:url(#Adobe_OpacityMaskFilter-9)"
               id="g1328"
               class="st13">
              <radialGradient
                 gradientUnits="userSpaceOnUse"
                 r="33.0415"
                 cy="43.2342"
                 cx="98.158997"
                 id="SVGID_10_-2">
                <stop
                   id="stop1321"
                   style="stop-color:#FFFFFF"
                   offset="0.868" />
                <stop
                   id="stop1323"
                   style="stop-color:#000000"
                   offset="1" />
              </radialGradient>
              <rect
                 style="fill:url(#SVGID_10_-2)"
                 id="rect1326"
                 height="59.346001"
                 width="63.591"
                 class="st14"
                 y="-4.5890002"
                 x="58.046001" />
            </g>
          </mask>
          <g
             id="g1346"
             mask="url(#SVGID_9_)"
             class="st15">
            <g
               id="g1344"
               class="st16"
               style="opacity:0.6">
              <g
                 id="g1342"
                 class="st17"
                 style="opacity:0.2">
                <linearGradient
                   y2="13.0694"
                   x2="104.4257"
                   y1="14.6777"
                   x1="112.0387"
                   gradientUnits="userSpaceOnUse"
                   id="linearGradient2159">
                  <stop
                     id="stop2151"
                     style="stop-color:#3092B9"
                     offset="0" />
                  <stop
                     id="stop2153"
                     style="stop-color:#258DB6"
                     offset="0.2199" />
                  <stop
                     id="stop2155"
                     style="stop-color:#1685B1"
                     offset="0.6564" />
                  <stop
                     id="stop2157"
                     style="stop-color:#1082AF"
                     offset="1" />
                </linearGradient>
                <path
                   style="fill:url(#SVGID_11_-7)"
                   id="path1340"
                   d="m 103.963,11.72 c 0.703,-0.182 3.574,0.13 5.458,0.975 1.884,0.845 5.133,2.339 2.534,2.989 -2.599,0.65 -4.094,-0.39 -5.393,-1.494 -1.299,-1.104 -4.353,-2.015 -2.599,-2.47 z"
                   class="st18"
                   inkscape:connector-curvature="0" />
              </g>
            </g>
          </g>
          <linearGradient
             y2="49.303501"
             x2="57.627998"
             y1="24.1768"
             x1="51.363201"
             gradientUnits="userSpaceOnUse"
             id="linearGradient2173">
            <stop
               id="stop2165"
               style="stop-color:#1398D1;stop-opacity:0"
               offset="0.0074" />
            <stop
               id="stop2167"
               style="stop-color:#1187C2;stop-opacity:0.6197"
               offset="0.2482" />
            <stop
               id="stop2169"
               style="stop-color:#3F6499;stop-opacity:0.71"
               offset="0.6422" />
            <stop
               id="stop2171"
               style="stop-color:#2F4282;stop-opacity:0.5"
               offset="1" />
          </linearGradient>
          <path
             style="fill:url(#SVGID_12_-0)"
             id="path1357"
             d="m 38.817,53.994 c 0,0 16.46,-27.125 31.341,-34.445 1.382,-0.695 -20.603,5.844 -29.451,15.609 -5.259,5.804 -2.475,17.168 -1.89,18.836 z"
             class="st19"
             inkscape:connector-curvature="0" />
          <path
             id="path1359"
             d="m 38.817,53.994 c 0.015,-0.01 0.032,-0.019 0.048,-0.029 4.256,-2.63 11.55,-4.144 13.901,-8.911 C 61.818,26.699 70.158,19.549 70.158,19.549 55.277,26.868 38.817,53.994 38.817,53.994 Z"
             class="st20"
             inkscape:connector-curvature="0"
             style="opacity:0.1;fill:#f2f2f2" />
          <path
             id="path1361"
             d="m 40.382,49.033 c 0,0 -2.966,-4.551 1.305,-8.702 2.254,-2.187 5.671,-0.972 6.066,-0.579 1.681,1.667 0.624,5.186 -0.889,7.177 -0.855,1.121 -3.344,2.867 -6.482,2.104 z"
             class="st21"
             inkscape:connector-curvature="0"
             style="fill:#2f4282" />
          <linearGradient
             gradientTransform="matrix(0.9994,0.0349,-0.0349,0.9994,21.6653,-6.6119)"
             y2="50.299801"
             x2="22.9382"
             y1="52.251999"
             x1="26.4599"
             gradientUnits="userSpaceOnUse"
             id="linearGradient2190">
            <stop
               id="stop2178"
               style="stop-color:#F9C21B"
               offset="0" />
            <stop
               id="stop2180"
               style="stop-color:#F3BA1B"
               offset="0.1479" />
            <stop
               id="stop2182"
               style="stop-color:#E3A41B"
               offset="0.3787" />
            <stop
               id="stop2184"
               style="stop-color:#C9801C"
               offset="0.6634" />
            <stop
               id="stop2186"
               style="stop-color:#A44E1C"
               offset="0.9884" />
            <stop
               id="stop2188"
               style="stop-color:#A34C1C"
               offset="1" />
          </linearGradient>
          <path
             style="fill:url(#SVGID_13_-9)"
             id="path1376"
             d="m 42.082,48.75 c 0,0 -2.05,-3.147 0.904,-6.014 1.555,-1.511 3.917,-0.671 4.191,-0.401 1.161,1.152 0.43,3.584 -0.615,4.959 -0.59,0.778 -2.311,1.984 -4.48,1.456 z"
             class="st22"
             inkscape:connector-curvature="0" />
          <path
             id="path1378"
             d="m 46.175,45.393 c -0.046,1.257 -1.11,2.239 -2.377,2.196 -1.269,-0.044 -2.263,-1.097 -2.217,-2.355 0.045,-1.257 1.109,-2.239 2.379,-2.195 1.266,0.043 2.258,1.097 2.215,2.354 z"
             inkscape:connector-curvature="0" />
        </g>
        <circle
           id="circle1382"
           r="0.722"
           cy="44.688999"
           cx="42.424"
           class="st24"
           style="fill:#ffffff" />
        <linearGradient
           y2="30.2178"
           x2="107.7252"
           y1="82.743797"
           x1="131.1113"
           gradientUnits="userSpaceOnUse"
           id="linearGradient2200">
          <stop
             id="stop2196"
             style="stop-color:#409EC3"
             offset="0" />
          <stop
             id="stop2198"
             style="stop-color:#2061BD"
             offset="0.62" />
        </linearGradient>
        <path
           style="fill:url(#SVGID_14_-3)"
           id="path1389"
           d="m 145.286,41.334 c -11.267,-17.152 -20.194,-21.51 -20.194,-21.51 0,0 0.41,12.494 6.666,18.52 0.715,0.688 -7.486,-5.361 -7.486,-5.361 0,0 -1.754,5.771 2.265,12.405 -1.167,-1.551 -1.94,-2.138 -1.94,-2.138 0,0 -7.571,3.491 -9.806,8.335 -1.154,-2.178 -2.02,-3.462 -2.02,-3.462 0,0 -5.237,10.451 -4.578,22.568 1.071,19.702 -3.69,26.961 -3.69,26.961 0,0 12.753,-4.893 18.868,-20.644 2.526,6.697 -0.077,13.746 -0.077,13.746 0,0 10.304,-7.699 12.52,-21.732 2.456,3.961 1.734,11.867 1.734,11.867 0,0 6.577,-9.157 6.737,-19.129 3.048,2.125 3.329,10.427 3.329,10.427 0,0 9.751,-12.467 -2.328,-30.853 z"
           class="st23"
           inkscape:connector-curvature="0" />
        <linearGradient
           y2="13.9583"
           x2="95.630302"
           y1="65.527298"
           x1="112.3861"
           gradientUnits="userSpaceOnUse"
           id="linearGradient2215">
          <stop
             id="stop2203"
             style="stop-color:#14B2DA"
             offset="0" />
          <stop
             id="stop2205"
             style="stop-color:#297CCC"
             offset="0.4028" />
          <stop
             id="stop2207"
             style="stop-color:#256FC5"
             offset="0.5077" />
          <stop
             id="stop2209"
             style="stop-color:#2164BF"
             offset="0.6492" />
          <stop
             id="stop2211"
             style="stop-color:#2061BD"
             offset="0.8162" />
          <stop
             id="stop2213"
             style="stop-color:#2061BD"
             offset="0.9835" />
        </linearGradient>
        <path
           style="fill:url(#SVGID_15_-6)"
           id="path1404"
           d="m 134.335,29.348 c -2.945,-5.487 -8.14,-8.984 -12.707,-11.814 -11.387,-7.061 -18.71,-8.052 -18.71,-8.052 0,0 -10.508,1.954 -8.704,4.878 0.093,0.15 0.309,0.34 0.616,0.558 -9.218,-4.246 -14.447,5.517 -14.447,5.517 -5.267,-0.32 -11.681,2.273 -13.551,9.219 -0.194,0.721 2.359,0.315 3.673,0.601 7.68,1.67 14.91,5.29 18.232,7.079 7.728,4.163 12.312,11.095 14.96,16.295 3.202,6.291 4.51,17.36 4.51,17.36 0,0 8.426,-11.575 6.413,-17.518 3.337,2.073 3.996,9.468 3.996,9.468 0,0 5.617,-8.798 3.957,-16.462 4.333,2.641 4.478,8.012 4.478,8.012 0,0 4.412,-6.123 2.418,-16.167 4.36,3.467 5.273,7.958 5.273,7.958 0,0 3.563,-9.534 -0.407,-16.932 z"
           class="st25"
           inkscape:connector-curvature="0" />
      </g>
    </g>
  </g>
</svg>
