<?xml version="1.0" encoding="UTF-8" standalone="no"?>
<!-- Created with Inkscape (http://www.inkscape.org/) -->

<svg
   xmlns:dc="http://purl.org/dc/elements/1.1/"
   xmlns:cc="http://creativecommons.org/ns#"
   xmlns:rdf="http://www.w3.org/1999/02/22-rdf-syntax-ns#"
   xmlns:svg="http://www.w3.org/2000/svg"
   xmlns="http://www.w3.org/2000/svg"
   xmlns:sodipodi="http://sodipodi.sourceforge.net/DTD/sodipodi-0.dtd"
   xmlns:inkscape="http://www.inkscape.org/namespaces/inkscape"
   width="49.648056mm"
   height="77.933586mm"
   viewBox="0 0 49.648057 77.933584"
   version="1.1"
   id="svg83264"
   inkscape:version="0.92.1 r"
   sodipodi:docname="icon_color.svg"
   inkscape:export-filename="/home/anxhelo/Documents/ura works folder/elixir lang moscow/vertical_color.png"
   inkscape:export-xdpi="141.06"
   inkscape:export-ydpi="141.06">
  <defs
     id="defs83258" />
  <sodipodi:namedview
     id="base"
     pagecolor="#ffffff"
     bordercolor="#666666"
     borderopacity="1.0"
     inkscape:pageopacity="0.0"
     inkscape:pageshadow="2"
     inkscape:zoom="0.7"
     inkscape:cx="-58.648792"
     inkscape:cy="157.8846"
     inkscape:document-units="mm"
     inkscape:current-layer="layer1"
     showgrid="false"
     fit-margin-top="0"
     fit-margin-left="0"
     fit-margin-right="0"
     fit-margin-bottom="0"
     inkscape:window-width="1366"
     inkscape:window-height="740"
     inkscape:window-x="0"
     inkscape:window-y="0"
     inkscape:window-maximized="1" />
  <metadata
     id="metadata83261">
    <rdf:RDF>
      <cc:Work
         rdf:about="">
        <dc:format>image/svg+xml</dc:format>
        <dc:type
           rdf:resource="http://purl.org/dc/dcmitype/StillImage" />
        <dc:title></dc:title>
      </cc:Work>
    </rdf:RDF>
  </metadata>
  <g
     inkscape:label="Layer 1"
     inkscape:groupmode="layer"
     id="layer1"
     transform="translate(-173.16105,-209.13174)">
    <g
       transform="matrix(0.50126765,0,0,-0.50126765,184.07264,250.62166)"
       id="g19460">
      <path
         inkscape:connector-curvature="0"
         id="path19462"
         style="fill:#4c285f;fill-opacity:1;fill-rule:nonzero;stroke:none"
         d="m 0,0 c 0.058,0.071 0.117,0.142 0.176,0.212 0.317,0.381 0.641,0.756 0.974,1.125 0.027,0.029 0.052,0.06 0.079,0.089 2.378,2.615 5.153,4.916 8.28,6.795 2.009,1.209 3.032,3.381 3.032,5.727 V 44.124 H 42.833 V 13.948 c 0,-2.343 1.196,-4.518 3.206,-5.727 4.7,-2.824 8.642,-6.603 11.631,-10.978 -0.033,-0.006 -0.068,-0.013 -0.101,-0.019 -9.396,-1.567 -25.823,-9.508 -39.205,-13.883 -9.861,-3.224 -17.841,3.535 -22.8,9.765 -0.008,0.011 -0.018,0.022 -0.026,0.033 C -3.24,-4.425 -1.742,-2.124 0,0 M 45.067,69.191 40.898,57.18 H 14.683 L 10.284,69.191 Z M 55.89,17.557 v 26.567 h 3.323 c 3.689,0 6.683,2.838 6.683,6.528 0,3.69 -2.994,6.528 -6.683,6.528 h -4.145 l 5.743,16.303 c 0.722,2.042 0.406,4.503 -0.849,6.273 -1.252,1.77 -3.284,3.014 -5.452,3.014 H 0.667 c -2.187,0 -4.238,-1.254 -5.487,-3.05 -1.25,-1.798 -1.538,-4.204 -0.776,-6.255 L 0.423,57.18 h -3.917 c -3.69,0 -6.681,-2.838 -6.681,-6.528 0,-3.69 2.991,-6.528 6.681,-6.528 h 2.979 V 17.557 c -13.057,-9.394 -21.253,-24.665 -21.253,-40.72 0,-27.316 22.244,-49.54 49.553,-49.54 27.35,0 49.492,22.224 49.492,49.54 C 77.28,-7.102 68.946,8.17 55.89,17.557" />
    </g>
  </g>
</svg>
