<?xml version="1.0" encoding="UTF-8" standalone="no"?>
<!-- Created with Inkscape (http://www.inkscape.org/) -->

<svg
   xmlns:dc="http://purl.org/dc/elements/1.1/"
   xmlns:cc="http://creativecommons.org/ns#"
   xmlns:rdf="http://www.w3.org/1999/02/22-rdf-syntax-ns#"
   xmlns:svg="http://www.w3.org/2000/svg"
   xmlns="http://www.w3.org/2000/svg"
   xmlns:sodipodi="http://sodipodi.sourceforge.net/DTD/sodipodi-0.dtd"
   xmlns:inkscape="http://www.inkscape.org/namespaces/inkscape"
   width="147.68677mm"
   height="139.90321mm"
   viewBox="0 0 147.68677 139.90321"
   version="1.1"
   id="svg83264"
   inkscape:version="0.92.1 r"
   sodipodi:docname="vertical_white.svg"
   inkscape:export-filename="/home/anxhelo/Documents/ura works folder/elixir lang moscow/vertical_color.png"
   inkscape:export-xdpi="141.06"
   inkscape:export-ydpi="141.06">
  <defs
     id="defs83258" />
  <sodipodi:namedview
     id="base"
     pagecolor="#ffffff"
     bordercolor="#666666"
     borderopacity="1.0"
     inkscape:pageopacity="0.0"
     inkscape:pageshadow="2"
     inkscape:zoom="0.7"
     inkscape:cx="126.09951"
     inkscape:cy="132.03713"
     inkscape:document-units="mm"
     inkscape:current-layer="layer1"
     showgrid="false"
     fit-margin-top="0"
     fit-margin-left="0"
     fit-margin-right="0"
     fit-margin-bottom="0"
     inkscape:window-width="1366"
     inkscape:window-height="740"
     inkscape:window-x="0"
     inkscape:window-y="0"
     inkscape:window-maximized="1" />
  <metadata
     id="metadata83261">
    <rdf:RDF>
      <cc:Work
         rdf:about="">
        <dc:format>image/svg+xml</dc:format>
        <dc:type
           rdf:resource="http://purl.org/dc/dcmitype/StillImage" />
        <dc:title></dc:title>
      </cc:Work>
    </rdf:RDF>
  </metadata>
  <g
     inkscape:label="Layer 1"
     inkscape:groupmode="layer"
     id="layer1"
     transform="translate(-124.27972,-185.68044)">
    <g
       transform="translate(46.881434,105.31242)"
       id="g84037"
       style="fill:#ffffff">
      <g
         transform="matrix(0.50126765,0,0,-0.50126765,137.32924,121.85794)"
         id="g19460"
         style="fill:#ffffff">
        <path
           inkscape:connector-curvature="0"
           id="path19462"
           style="fill:#ffffff;fill-opacity:1;fill-rule:nonzero;stroke:none"
           d="m 0,0 c 0.058,0.071 0.117,0.142 0.176,0.212 0.317,0.381 0.641,0.756 0.974,1.125 0.027,0.029 0.052,0.06 0.079,0.089 2.378,2.615 5.153,4.916 8.28,6.795 2.009,1.209 3.032,3.381 3.032,5.727 V 44.124 H 42.833 V 13.948 c 0,-2.343 1.196,-4.518 3.206,-5.727 4.7,-2.824 8.642,-6.603 11.631,-10.978 -0.033,-0.006 -0.068,-0.013 -0.101,-0.019 -9.396,-1.567 -25.823,-9.508 -39.205,-13.883 -9.861,-3.224 -17.841,3.535 -22.8,9.765 -0.008,0.011 -0.018,0.022 -0.026,0.033 C -3.24,-4.425 -1.742,-2.124 0,0 M 45.067,69.191 40.898,57.18 H 14.683 L 10.284,69.191 Z M 55.89,17.557 v 26.567 h 3.323 c 3.689,0 6.683,2.838 6.683,6.528 0,3.69 -2.994,6.528 -6.683,6.528 h -4.145 l 5.743,16.303 c 0.722,2.042 0.406,4.503 -0.849,6.273 -1.252,1.77 -3.284,3.014 -5.452,3.014 H 0.667 c -2.187,0 -4.238,-1.254 -5.487,-3.05 -1.25,-1.798 -1.538,-4.204 -0.776,-6.255 L 0.423,57.18 h -3.917 c -3.69,0 -6.681,-2.838 -6.681,-6.528 0,-3.69 2.991,-6.528 6.681,-6.528 h 2.979 V 17.557 c -13.057,-9.394 -21.253,-24.665 -21.253,-40.72 0,-27.316 22.244,-49.54 49.553,-49.54 27.35,0 49.492,22.224 49.492,49.54 C 77.28,-7.102 68.946,8.17 55.89,17.557" />
      </g>
      <g
         id="g83139"
         style="fill:#ffffff">
        <g
           transform="matrix(0.35277777,0,0,-0.35277777,86.160934,178.58813)"
           id="g27682"
           style="fill:#ffffff">
          <path
             inkscape:connector-curvature="0"
             id="path27684"
             style="fill:#ffffff;fill-opacity:1;fill-rule:nonzero;stroke:none"
             d="m 0,0 c -3.234,0 -5.765,-0.923 -7.594,-2.768 -1.829,-1.846 -3.021,-4.451 -3.576,-7.815 H 9.897 c 0,1.404 -0.189,2.744 -0.564,4.018 -0.376,1.274 -0.972,2.4 -1.788,3.38 C 6.728,-2.205 5.7,-1.429 4.459,-0.857 3.217,-0.286 1.731,0 0,0 m -0.245,9.505 c 3.234,0 6.214,-0.515 8.941,-1.544 2.727,-1.029 5.079,-2.523 7.055,-4.482 1.976,-1.96 3.511,-4.369 4.606,-7.227 1.093,-2.858 1.641,-6.117 1.641,-9.774 0,-1.013 -0.049,-1.846 -0.147,-2.499 -0.098,-0.653 -0.262,-1.176 -0.49,-1.568 -0.229,-0.391 -0.539,-0.661 -0.931,-0.808 -0.392,-0.147 -0.898,-0.22 -1.518,-0.22 h -30.327 c 0.424,-4.737 1.771,-8.199 4.042,-10.387 2.27,-2.188 5.249,-3.282 8.941,-3.282 1.862,0 3.47,0.22 4.826,0.661 1.355,0.441 2.547,0.931 3.576,1.47 1.029,0.539 1.96,1.029 2.793,1.469 0.833,0.441 1.657,0.662 2.474,0.662 1.045,0 1.862,-0.392 2.45,-1.176 l 3.919,-4.899 c -1.437,-1.666 -3.021,-3.046 -4.752,-4.14 -1.732,-1.095 -3.528,-1.96 -5.389,-2.597 -1.862,-0.637 -3.741,-1.077 -5.634,-1.322 -1.895,-0.245 -3.724,-0.368 -5.488,-0.368 -3.528,0 -6.818,0.58 -9.872,1.739 -3.054,1.159 -5.716,2.874 -7.986,5.145 -2.27,2.269 -4.059,5.087 -5.365,8.451 -1.306,3.364 -1.959,7.267 -1.959,11.709 0,3.43 0.563,6.663 1.69,9.701 1.127,3.037 2.751,5.683 4.875,7.937 2.123,2.254 4.703,4.042 7.741,5.364 3.037,1.323 6.467,1.985 10.288,1.985" />
        </g>
        <path
           inkscape:connector-curvature="0"
           id="path27686"
           style="fill:#ffffff;fill-opacity:1;fill-rule:nonzero;stroke:none;stroke-width:0.35277775"
           d="m 101.19752,193.33114 h -4.770257 v -25.76971 h 4.770257 z" />
        <path
           inkscape:connector-curvature="0"
           id="path27688"
           style="fill:#ffffff;fill-opacity:1;fill-rule:nonzero;stroke:none;stroke-width:0.35277775"
           d="m 109.59751,193.33114 h -4.77026 v -17.81916 h 4.77026 z m 0.57009,-22.88364 c 0,0.40358 -0.0804,0.77788 -0.24165,1.1236 -0.16157,0.34572 -0.37782,0.65087 -0.6484,0.91581 -0.27094,0.26529 -0.58773,0.47272 -0.95039,0.6223 -0.36301,0.14993 -0.75177,0.22472 -1.16663,0.22472 -0.39194,0 -0.76377,-0.0748 -1.11478,-0.22472 -0.35172,-0.14958 -0.6597,-0.35701 -0.92463,-0.6223 -0.26529,-0.26494 -0.47555,-0.57009 -0.63112,-0.91581 -0.15558,-0.34572 -0.23319,-0.72002 -0.23319,-1.1236 0,-0.40322 0.0776,-0.78034 0.23319,-1.13206 0.15557,-0.35137 0.36583,-0.65934 0.63112,-0.92463 0.26493,-0.26494 0.57291,-0.47237 0.92463,-0.6223 0.35101,-0.14958 0.72284,-0.22472 1.11478,-0.22472 0.41486,0 0.80362,0.0751 1.16663,0.22472 0.36266,0.14993 0.67945,0.35736 0.95039,0.6223 0.27058,0.26529 0.48683,0.57326 0.6484,0.92463 0.16122,0.35172 0.24165,0.72884 0.24165,1.13206" />
        <g
           transform="matrix(0.35277777,0,0,-0.35277777,117.25381,184.13613)"
           id="g27690"
           style="fill:#ffffff">
          <path
             inkscape:connector-curvature="0"
             id="path27692"
             style="fill:#ffffff;fill-opacity:1;fill-rule:nonzero;stroke:none"
             d="m 0,0 -16.462,24.447 h 12.983 c 0.98,0 1.698,-0.13 2.156,-0.392 0.457,-0.261 0.865,-0.685 1.225,-1.273 L 9.75,6.761 c 0.196,0.555 0.424,1.11 0.685,1.666 0.262,0.555 0.572,1.127 0.931,1.715 l 7.595,12.395 c 0.784,1.273 1.796,1.91 3.037,1.91 H 34.393 L 17.931,0.588 35.079,-26.064 H 22.096 c -0.98,0 -1.772,0.245 -2.377,0.735 -0.604,0.49 -1.085,1.061 -1.444,1.714 L 8.329,-7.006 C 8.035,-8.117 7.61,-9.097 7.055,-9.946 L -1.47,-23.615 c -0.392,-0.62 -0.874,-1.184 -1.445,-1.69 -0.572,-0.507 -1.299,-0.759 -2.181,-0.759 h -12.052 z" />
        </g>
        <path
           inkscape:connector-curvature="0"
           id="path27694"
           style="fill:#ffffff;fill-opacity:1;fill-rule:nonzero;stroke:none;stroke-width:0.35277775"
           d="m 136.00645,193.33114 h -4.77026 v -17.81916 h 4.77026 z m 0.57009,-22.88364 c 0,0.40358 -0.0804,0.77788 -0.24165,1.1236 -0.16157,0.34572 -0.37747,0.65087 -0.64805,0.91581 -0.27094,0.26529 -0.58773,0.47272 -0.95074,0.6223 -0.36265,0.14993 -0.75177,0.22472 -1.16663,0.22472 -0.39194,0 -0.76377,-0.0748 -1.11478,-0.22472 -0.35172,-0.14958 -0.6597,-0.35701 -0.92463,-0.6223 -0.26529,-0.26494 -0.47519,-0.57009 -0.63077,-0.91581 -0.15593,-0.34572 -0.23354,-0.72002 -0.23354,-1.1236 0,-0.40322 0.0776,-0.78034 0.23354,-1.13206 0.15558,-0.35137 0.36548,-0.65934 0.63077,-0.92463 0.26493,-0.26494 0.57291,-0.47237 0.92463,-0.6223 0.35101,-0.14958 0.72284,-0.22472 1.11478,-0.22472 0.41486,0 0.80398,0.0751 1.16663,0.22472 0.36301,0.14993 0.6798,0.35736 0.95074,0.6223 0.27058,0.26529 0.48648,0.57326 0.64805,0.92463 0.16122,0.35172 0.24165,0.72884 0.24165,1.13206" />
        <g
           transform="matrix(0.35277777,0,0,-0.35277777,139.60126,193.33103)"
           id="g27696"
           style="fill:#ffffff">
          <path
             inkscape:connector-curvature="0"
             id="path27698"
             style="fill:#ffffff;fill-opacity:1;fill-rule:nonzero;stroke:none"
             d="m 0,0 v 50.511 h 7.986 c 1.372,0 2.319,-0.245 2.842,-0.734 0.522,-0.49 0.897,-1.34 1.126,-2.548 l 0.686,-5.046 c 1.6,2.873 3.454,5.144 5.561,6.81 2.106,1.665 4.564,2.499 7.373,2.499 2.286,0 4.148,-0.54 5.585,-1.618 L 30.277,39.88 c -0.163,-0.654 -0.416,-1.102 -0.758,-1.347 -0.344,-0.245 -0.809,-0.368 -1.397,-0.368 -0.523,0 -1.274,0.074 -2.254,0.221 -0.98,0.147 -1.894,0.22 -2.743,0.22 -2.483,0 -4.451,-0.678 -5.904,-2.033 -1.454,-1.355 -2.687,-3.242 -3.699,-5.659 L 13.522,0 Z" />
        </g>
        <path
           inkscape:connector-curvature="0"
           id="path27700"
           style="fill:#ffffff;fill-opacity:1;fill-rule:nonzero;stroke:none;stroke-width:0.35277775"
           d="m 152.06278,180.90419 h 9.12566 v 3.90631 h -9.12566 z" />
        <path
           inkscape:connector-curvature="0"
           id="path27702"
           style="fill:#ffffff;fill-opacity:1;fill-rule:nonzero;stroke:none;stroke-width:0.35277775"
           d="m 169.38029,193.33114 h -4.77026 v -25.76971 h 4.77026 z" />
        <g
           transform="matrix(0.35277777,0,0,-0.35277777,178.38526,190.39289)"
           id="g27704"
           style="fill:#ffffff">
          <path
             inkscape:connector-curvature="0"
             id="path27706"
             style="fill:#ffffff;fill-opacity:1;fill-rule:nonzero;stroke:none"
             d="M 0,0 C 2.221,0 4.165,0.4 5.831,1.201 7.497,2 9.145,3.234 10.779,4.9 v 7.838 C 7.479,12.608 4.736,12.33 2.548,11.906 0.359,11.481 -1.38,10.95 -2.67,10.313 -3.961,9.676 -4.875,8.941 -5.413,8.108 -5.953,7.276 -6.221,6.369 -6.221,5.39 c 0,-1.96 0.546,-3.349 1.64,-4.165 C -3.486,0.408 -1.959,0 0,0 m 17.785,-8.329 c -1.274,0 -2.247,0.179 -2.915,0.539 -0.671,0.359 -1.218,1.11 -1.642,2.254 L 12.15,-2.352 C 10.877,-3.462 9.644,-4.434 8.451,-5.266 7.259,-6.099 6.018,-6.802 4.728,-7.373 3.438,-7.945 2.066,-8.378 0.612,-8.672 c -1.453,-0.294 -3.061,-0.441 -4.825,-0.441 -2.222,0 -4.246,0.294 -6.075,0.882 -1.83,0.588 -3.405,1.462 -4.728,2.622 -1.323,1.159 -2.344,2.604 -3.062,4.336 -0.719,1.73 -1.078,3.723 -1.078,5.977 0,1.861 0.473,3.714 1.421,5.56 0.947,1.845 2.572,3.528 4.875,5.046 2.302,1.519 5.372,2.785 9.211,3.797 3.837,1.013 8.646,1.584 14.428,1.715 v 2.597 c 0,3.168 -0.67,5.495 -2.009,6.981 -1.339,1.486 -3.266,2.229 -5.781,2.229 -1.861,0 -3.414,-0.22 -4.655,-0.661 -1.241,-0.441 -2.327,-0.915 -3.257,-1.421 -0.932,-0.506 -1.806,-0.979 -2.622,-1.42 -0.816,-0.441 -1.763,-0.662 -2.841,-0.662 -0.948,0 -1.74,0.237 -2.376,0.711 -0.637,0.472 -1.169,1.036 -1.593,1.69 l -2.4,4.311 c 2.972,2.678 6.254,4.679 9.848,6.002 3.591,1.323 7.479,1.984 11.66,1.984 3.005,0 5.69,-0.49 8.059,-1.47 2.367,-0.98 4.376,-2.344 6.027,-4.091 1.648,-1.747 2.914,-3.83 3.796,-6.246 0.882,-2.418 1.323,-5.063 1.323,-7.937 V -8.329 Z" />
        </g>
        <g
           transform="matrix(0.35277777,0,0,-0.35277777,190.08616,193.33103)"
           id="g27708"
           style="fill:#ffffff">
          <path
             inkscape:connector-curvature="0"
             id="path27710"
             style="fill:#ffffff;fill-opacity:1;fill-rule:nonzero;stroke:none"
             d="m 0,0 v 50.511 h 8.329 c 1.698,0 2.825,-0.783 3.381,-2.351 l 0.832,-3.528 c 1.012,0.98 2.066,1.878 3.16,2.695 1.094,0.816 2.254,1.519 3.479,2.107 1.224,0.587 2.548,1.045 3.968,1.371 1.421,0.327 2.965,0.49 4.63,0.49 2.744,0 5.176,-0.474 7.3,-1.421 2.122,-0.947 3.911,-2.27 5.365,-3.968 1.453,-1.699 2.547,-3.723 3.283,-6.075 0.734,-2.352 1.102,-4.932 1.102,-7.741 V 0 H 31.355 v 32.09 c 0,2.809 -0.653,4.989 -1.959,6.541 -1.307,1.551 -3.234,2.327 -5.782,2.327 -1.927,0 -3.715,-0.416 -5.364,-1.249 C 16.6,38.876 15.024,37.74 13.522,36.304 V 0 Z" />
        </g>
        <g
           transform="matrix(0.35277777,0,0,-0.35277777,215.83805,183.75583)"
           id="g27712"
           style="fill:#ffffff">
          <path
             inkscape:connector-curvature="0"
             id="path27714"
             style="fill:#ffffff;fill-opacity:1;fill-rule:nonzero;stroke:none"
             d="m 0,0 c 2.776,0 4.826,0.702 6.149,2.107 1.322,1.403 1.984,3.216 1.984,5.438 0,2.319 -0.662,4.139 -1.984,5.462 C 4.826,14.33 2.776,14.992 0,14.992 c -2.776,0 -4.818,-0.662 -6.123,-1.985 -1.308,-1.323 -1.96,-3.143 -1.96,-5.462 0,-2.189 0.661,-3.993 1.984,-5.414 C -4.777,0.71 -2.743,0 0,0 m 12.788,-29.2 c 0,0.882 -0.279,1.601 -0.834,2.156 -0.555,0.555 -1.298,0.996 -2.229,1.323 -0.93,0.326 -2.032,0.563 -3.306,0.71 -1.274,0.147 -2.63,0.261 -4.067,0.343 -1.438,0.081 -2.932,0.155 -4.483,0.22 -1.551,0.065 -3.062,0.18 -4.532,0.343 -1.143,-0.686 -2.075,-1.494 -2.793,-2.425 -0.719,-0.931 -1.078,-1.984 -1.078,-3.16 0,-0.816 0.189,-1.568 0.564,-2.254 0.376,-0.685 1.004,-1.273 1.887,-1.763 0.882,-0.49 2.04,-0.874 3.478,-1.152 1.437,-0.277 3.233,-0.416 5.389,-0.416 2.221,0 4.099,0.147 5.635,0.441 1.535,0.294 2.775,0.71 3.723,1.249 0.947,0.539 1.624,1.184 2.033,1.935 0.408,0.752 0.613,1.568 0.613,2.45 M 0,24.251 c 2.156,0 4.189,-0.22 6.1,-0.661 1.911,-0.441 3.666,-1.07 5.266,-1.886 h 14.846 v -4.949 c 0,-0.783 -0.221,-1.404 -0.662,-1.861 -0.44,-0.458 -1.168,-0.801 -2.18,-1.029 l -4.115,-0.833 c 0.555,-1.601 0.832,-3.315 0.832,-5.144 0,-2.516 -0.514,-4.777 -1.542,-6.786 -1.03,-2.009 -2.443,-3.723 -4.239,-5.144 C 12.509,-5.463 10.387,-6.557 7.937,-7.325 5.487,-8.092 2.842,-8.476 0,-8.476 c -0.882,0 -1.747,0.032 -2.596,0.098 -0.851,0.065 -1.683,0.163 -2.499,0.294 -1.34,-0.817 -2.009,-1.732 -2.009,-2.744 0,-0.947 0.465,-1.633 1.397,-2.057 0.93,-0.425 2.156,-0.727 3.674,-0.907 1.519,-0.179 3.25,-0.294 5.193,-0.343 1.943,-0.049 3.919,-0.155 5.929,-0.318 2.008,-0.164 3.984,-0.449 5.927,-0.857 1.944,-0.409 3.675,-1.078 5.193,-2.009 1.52,-0.931 2.745,-2.164 3.675,-3.699 0.932,-1.536 1.396,-3.512 1.396,-5.928 0,-2.254 -0.555,-4.442 -1.665,-6.565 -1.111,-2.123 -2.719,-4.018 -4.826,-5.683 -2.107,-1.666 -4.695,-3.005 -7.765,-4.018 -3.07,-1.012 -6.565,-1.519 -10.484,-1.519 -3.889,0 -7.26,0.368 -10.118,1.103 -2.858,0.734 -5.226,1.714 -7.103,2.939 -1.879,1.225 -3.275,2.638 -4.19,4.238 -0.914,1.601 -1.371,3.267 -1.371,4.997 0,2.254 0.686,4.165 2.057,5.733 1.372,1.567 3.249,2.824 5.634,3.772 -1.274,0.718 -2.287,1.658 -3.038,2.817 -0.751,1.159 -1.126,2.67 -1.126,4.532 0,1.502 0.546,3.078 1.642,4.728 1.093,1.649 2.767,3.029 5.021,4.139 -2.58,1.404 -4.614,3.259 -6.099,5.561 -1.487,2.303 -2.23,4.989 -2.23,8.06 0,2.515 0.515,4.784 1.544,6.81 1.028,2.025 2.456,3.747 4.286,5.168 1.829,1.421 3.984,2.507 6.468,3.258 2.481,0.751 5.176,1.127 8.083,1.127" />
        </g>
      </g>
      <g
         transform="translate(11.786937,1.0583333)"
         id="g83120"
         style="fill:#ffffff">
        <g
           transform="matrix(0.35277777,0,0,-0.35277777,78.64264,218.93631)"
           id="g27716"
           style="fill:#ffffff">
          <path
             inkscape:connector-curvature="0"
             id="path27718"
             style="fill:#ffffff;fill-opacity:1;fill-rule:nonzero;stroke:none"
             d="m 0,0 v 49.972 h 6.369 c 1.437,0 2.352,-0.669 2.744,-2.008 l 0.686,-4.361 c 0.914,1.045 1.861,2.001 2.841,2.867 0.98,0.865 2.033,1.617 3.16,2.253 1.127,0.637 2.335,1.135 3.625,1.495 1.29,0.358 2.687,0.539 4.19,0.539 1.6,0 3.069,-0.23 4.409,-0.687 1.339,-0.457 2.523,-1.11 3.552,-1.959 1.029,-0.85 1.918,-1.879 2.67,-3.087 0.751,-1.208 1.372,-2.564 1.862,-4.066 0.751,1.731 1.698,3.217 2.841,4.459 1.143,1.24 2.417,2.253 3.822,3.037 1.404,0.784 2.898,1.363 4.483,1.739 1.584,0.375 3.192,0.564 4.826,0.564 2.677,0 5.07,-0.425 7.177,-1.274 2.106,-0.85 3.886,-2.082 5.34,-3.699 1.453,-1.617 2.556,-3.601 3.307,-5.953 0.751,-2.352 1.127,-5.03 1.127,-8.035 V 0 H 58.498 v 31.796 c 0,3.528 -0.76,6.181 -2.279,7.962 -1.519,1.78 -3.765,2.67 -6.736,2.67 -1.34,0 -2.597,-0.229 -3.773,-0.686 -1.176,-0.458 -2.205,-1.127 -3.086,-2.009 -0.882,-0.882 -1.576,-1.984 -2.082,-3.307 -0.507,-1.322 -0.76,-2.866 -0.76,-4.63 V 0 H 29.249 v 31.796 c 0,3.658 -0.735,6.345 -2.205,8.06 -1.47,1.715 -3.625,2.572 -6.467,2.572 -1.96,0 -3.772,-0.498 -5.438,-1.494 -1.666,-0.997 -3.201,-2.361 -4.605,-4.091 L 10.534,0 Z" />
        </g>
        <g
           transform="matrix(0.35277777,0,0,-0.35277777,114.48835,216.29186)"
           id="g27720"
           style="fill:#ffffff">
          <path
             inkscape:connector-curvature="0"
             id="path27722"
             style="fill:#ffffff;fill-opacity:1;fill-rule:nonzero;stroke:none"
             d="m 0,0 c 4.508,0 7.863,1.51 10.068,4.532 2.205,3.02 3.307,7.34 3.307,12.958 0,5.618 -1.102,9.953 -3.307,13.008 -2.205,3.054 -5.56,4.581 -10.068,4.581 -4.573,0 -7.97,-1.527 -10.191,-4.581 -2.221,-3.055 -3.331,-7.39 -3.331,-13.008 0,-5.618 1.11,-9.938 3.331,-12.958 C -7.97,1.51 -4.573,0 0,0 m 0,43.26 c 3.691,0 7.031,-0.604 10.019,-1.812 2.989,-1.209 5.536,-2.924 7.643,-5.145 2.107,-2.221 3.731,-4.916 4.875,-8.083 1.143,-3.169 1.715,-6.729 1.715,-10.681 0,-3.952 -0.572,-7.512 -1.715,-10.68 C 21.393,3.691 19.769,0.987 17.662,-1.249 15.555,-3.487 13.008,-5.21 10.019,-6.418 7.031,-7.626 3.691,-8.231 0,-8.231 c -3.724,0 -7.079,0.605 -10.068,1.813 -2.988,1.208 -5.545,2.931 -7.667,5.169 -2.124,2.236 -3.757,4.94 -4.9,8.108 -1.143,3.168 -1.714,6.728 -1.714,10.68 0,3.952 0.571,7.512 1.714,10.681 1.143,3.167 2.776,5.862 4.9,8.083 2.122,2.221 4.679,3.936 7.667,5.145 2.989,1.208 6.344,1.812 10.068,1.812" />
        </g>
        <g
           transform="matrix(0.35277777,0,0,-0.35277777,136.64622,204.50453)"
           id="g27724"
           style="fill:#ffffff">
          <path
             inkscape:connector-curvature="0"
             id="path27726"
             style="fill:#ffffff;fill-opacity:1;fill-rule:nonzero;stroke:none"
             d="m 0,0 c -0.262,-0.458 -0.556,-0.784 -0.882,-0.979 -0.327,-0.196 -0.736,-0.294 -1.226,-0.294 -0.555,0 -1.159,0.171 -1.812,0.514 -0.653,0.343 -1.421,0.726 -2.303,1.151 -0.882,0.424 -1.919,0.808 -3.11,1.151 -1.193,0.343 -2.589,0.515 -4.189,0.515 -1.307,0 -2.491,-0.156 -3.552,-0.466 -1.062,-0.31 -1.961,-0.751 -2.695,-1.322 -0.734,-0.572 -1.298,-1.242 -1.69,-2.009 -0.392,-0.768 -0.588,-1.593 -0.588,-2.474 0,-1.176 0.359,-2.156 1.078,-2.94 0.718,-0.784 1.666,-1.462 2.841,-2.033 1.176,-0.572 2.515,-1.086 4.018,-1.543 1.502,-0.458 3.037,-0.948 4.605,-1.47 1.568,-0.523 3.103,-1.127 4.605,-1.813 1.502,-0.686 2.842,-1.527 4.018,-2.523 1.176,-0.996 2.123,-2.204 2.841,-3.625 0.718,-1.421 1.078,-3.144 1.078,-5.169 0,-2.352 -0.425,-4.524 -1.274,-6.516 -0.849,-1.993 -2.09,-3.724 -3.723,-5.193 -1.634,-1.47 -3.667,-2.614 -6.099,-3.43 -2.434,-0.816 -5.219,-1.225 -8.354,-1.225 -1.732,0 -3.406,0.155 -5.022,0.466 -1.617,0.31 -3.153,0.734 -4.605,1.273 -1.454,0.539 -2.809,1.184 -4.067,1.936 -1.257,0.751 -2.376,1.568 -3.356,2.449 l 2.45,4.018 c 0.294,0.49 0.662,0.873 1.102,1.151 0.441,0.277 0.988,0.417 1.642,0.417 0.685,0 1.363,-0.221 2.033,-0.662 0.669,-0.441 1.452,-0.923 2.352,-1.445 0.897,-0.523 1.984,-1.005 3.257,-1.446 1.274,-0.441 2.858,-0.661 4.753,-0.661 1.568,0 2.922,0.188 4.066,0.563 1.143,0.376 2.09,0.89 2.842,1.544 0.75,0.653 1.306,1.396 1.665,2.229 0.359,0.833 0.54,1.722 0.54,2.67 0,1.274 -0.36,2.319 -1.078,3.136 -0.719,0.816 -1.675,1.518 -2.866,2.106 -1.193,0.588 -2.548,1.11 -4.067,1.568 -1.518,0.457 -3.062,0.947 -4.629,1.47 -1.568,0.522 -3.112,1.127 -4.631,1.813 -1.518,0.685 -2.874,1.559 -4.066,2.621 -1.193,1.061 -2.147,2.352 -2.866,3.87 -0.718,1.519 -1.077,3.372 -1.077,5.561 0,1.992 0.398,3.886 1.2,5.683 0.799,1.796 1.975,3.381 3.527,4.753 1.551,1.371 3.462,2.457 5.733,3.257 2.269,0.8 4.89,1.201 7.863,1.201 3.363,0 6.417,-0.539 9.161,-1.617 C -1.814,7.153 0.49,5.684 2.351,3.822 Z" />
        </g>
        <g
           transform="matrix(0.35277777,0,0,-0.35277777,153.18652,204.76364)"
           id="g27728"
           style="fill:#ffffff">
          <path
             inkscape:connector-curvature="0"
             id="path27730"
             style="fill:#ffffff;fill-opacity:1;fill-rule:nonzero;stroke:none"
             d="m 0,0 c -0.328,-0.425 -0.639,-0.752 -0.932,-0.98 -0.295,-0.229 -0.72,-0.343 -1.275,-0.343 -0.555,0 -1.134,0.196 -1.737,0.588 -0.606,0.392 -1.324,0.824 -2.156,1.298 -0.833,0.473 -1.837,0.906 -3.013,1.299 -1.176,0.392 -2.647,0.588 -4.409,0.588 -2.288,0 -4.288,-0.41 -6.004,-1.226 -1.713,-0.816 -3.151,-1.984 -4.31,-3.502 -1.16,-1.519 -2.026,-3.365 -2.596,-5.537 -0.573,-2.172 -0.859,-4.613 -0.859,-7.324 0,-2.81 0.311,-5.308 0.932,-7.496 0.621,-2.189 1.51,-4.034 2.669,-5.536 1.16,-1.503 2.566,-2.646 4.215,-3.43 1.647,-0.783 3.502,-1.175 5.561,-1.175 2.024,0 3.673,0.245 4.946,0.734 1.275,0.49 2.337,1.029 3.185,1.617 0.85,0.588 1.577,1.127 2.18,1.617 0.606,0.49 1.251,0.735 1.936,0.735 0.85,0 1.502,-0.327 1.96,-0.98 l 2.988,-3.87 c -1.209,-1.47 -2.548,-2.712 -4.017,-3.724 -1.471,-1.013 -3.021,-1.837 -4.655,-2.474 -1.632,-0.637 -3.33,-1.094 -5.094,-1.372 -1.764,-0.277 -3.546,-0.416 -5.341,-0.416 -3.103,0 -6.001,0.58 -8.697,1.739 -2.693,1.159 -5.045,2.841 -7.054,5.046 -2.008,2.205 -3.594,4.899 -4.752,8.084 -1.161,3.185 -1.74,6.818 -1.74,10.901 0,3.69 0.522,7.112 1.568,10.264 1.046,3.152 2.572,5.87 4.581,8.157 2.008,2.286 4.499,4.074 7.472,5.365 2.971,1.29 6.4,1.935 10.287,1.935 3.627,0 6.819,-0.588 9.578,-1.763 2.762,-1.176 5.219,-2.842 7.376,-4.998 z" />
        </g>
        <g
           transform="matrix(0.35277777,0,0,-0.35277777,164.14426,216.29186)"
           id="g27732"
           style="fill:#ffffff">
          <path
             inkscape:connector-curvature="0"
             id="path27734"
             style="fill:#ffffff;fill-opacity:1;fill-rule:nonzero;stroke:none"
             d="m 0,0 c 4.507,0 7.863,1.51 10.068,4.532 2.204,3.02 3.307,7.34 3.307,12.958 0,5.618 -1.103,9.953 -3.307,13.008 C 7.863,33.552 4.507,35.079 0,35.079 c -4.573,0 -7.97,-1.527 -10.191,-4.581 -2.221,-3.055 -3.331,-7.39 -3.331,-13.008 0,-5.618 1.11,-9.938 3.331,-12.958 C -7.97,1.51 -4.573,0 0,0 m 0,43.26 c 3.69,0 7.03,-0.604 10.018,-1.812 2.989,-1.209 5.537,-2.924 7.643,-5.145 2.107,-2.221 3.732,-4.916 4.875,-8.083 1.143,-3.169 1.715,-6.729 1.715,-10.681 0,-3.952 -0.572,-7.512 -1.715,-10.68 C 21.393,3.691 19.768,0.987 17.661,-1.249 15.555,-3.487 13.007,-5.21 10.018,-6.418 7.03,-7.626 3.69,-8.231 0,-8.231 c -3.724,0 -7.08,0.605 -10.069,1.813 -2.988,1.208 -5.544,2.931 -7.667,5.169 -2.123,2.236 -3.756,4.94 -4.899,8.108 -1.143,3.168 -1.715,6.728 -1.715,10.68 0,3.952 0.572,7.512 1.715,10.681 1.143,3.167 2.776,5.862 4.899,8.083 2.123,2.221 4.679,3.936 7.667,5.145 C -7.08,42.656 -3.724,43.26 0,43.26" />
        </g>
        <g
           transform="matrix(0.35277777,0,0,-0.35277777,173.66739,201.30713)"
           id="g27736"
           style="fill:#ffffff">
          <path
             inkscape:connector-curvature="0"
             id="path27738"
             style="fill:#ffffff;fill-opacity:1;fill-rule:nonzero;stroke:none"
             d="m 0,0 h 8.329 c 0.816,0 1.494,-0.204 2.033,-0.612 0.539,-0.409 0.89,-0.891 1.054,-1.445 l 8.329,-29.102 c 0.326,-1.34 0.612,-2.638 0.856,-3.895 0.246,-1.258 0.466,-2.507 0.662,-3.748 0.326,1.241 0.662,2.49 1.005,3.748 0.343,1.257 0.726,2.555 1.151,3.895 l 9.358,29.249 c 0.163,0.588 0.498,1.069 1.004,1.445 0.506,0.375 1.118,0.563 1.837,0.563 h 4.606 c 0.751,0 1.387,-0.188 1.91,-0.563 0.522,-0.376 0.865,-0.857 1.029,-1.445 l 9.113,-29.249 c 0.359,-1.34 0.718,-2.646 1.078,-3.92 0.359,-1.273 0.685,-2.531 0.979,-3.772 0.392,2.482 0.947,5.046 1.666,7.692 l 8.476,29.102 c 0.196,0.588 0.555,1.078 1.078,1.47 C 66.075,-0.195 66.712,0 67.463,0 H 75.4 L 59.38,-49.972 h -8.378 c -0.98,0 -1.666,0.637 -2.058,1.91 l -9.946,31.111 c -0.262,0.881 -0.497,1.755 -0.71,2.621 -0.212,0.865 -0.4,1.739 -0.564,2.621 -0.359,-1.764 -0.8,-3.528 -1.322,-5.291 L 26.31,-48.062 c -0.36,-1.273 -1.128,-1.91 -2.303,-1.91 h -7.986 z" />
        </g>
      </g>
    </g>
  </g>
</svg>
