<?xml version="1.0" encoding="UTF-8" standalone="no"?>
<!-- Created with Inkscape (http://www.inkscape.org/) -->

<svg
   xmlns:dc="http://purl.org/dc/elements/1.1/"
   xmlns:cc="http://creativecommons.org/ns#"
   xmlns:rdf="http://www.w3.org/1999/02/22-rdf-syntax-ns#"
   xmlns:svg="http://www.w3.org/2000/svg"
   xmlns="http://www.w3.org/2000/svg"
   xmlns:sodipodi="http://sodipodi.sourceforge.net/DTD/sodipodi-0.dtd"
   xmlns:inkscape="http://www.inkscape.org/namespaces/inkscape"
   width="334.52585"
   height="334.52701"
   viewBox="0 0 88.509967 88.510267"
   version="1.1"
   id="svg8"
   inkscape:version="0.92.2 (5c3e80d, 2017-08-06)"
   sodipodi:docname="icon_color.svg"
   inkscape:export-filename="/home/anxhelo/Desktop/Design/learn8ks/vertical_white.png"
   inkscape:export-xdpi="96"
   inkscape:export-ydpi="96">
  <defs
     id="defs2" />
  <sodipodi:namedview
     id="base"
     pagecolor="#ffffff"
     bordercolor="#666666"
     borderopacity="1.0"
     inkscape:pageopacity="0.0"
     inkscape:pageshadow="2"
     inkscape:zoom="0.7"
     inkscape:cx="120.24488"
     inkscape:cy="147.78685"
     inkscape:document-units="mm"
     inkscape:current-layer="layer1"
     inkscape:document-rotation="0"
     showgrid="false"
     borderlayer="true"
     inkscape:showpageshadow="false"
     units="px"
     inkscape:pagecheckerboard="false"
     showguides="true"
     inkscape:window-width="1366"
     inkscape:window-height="710"
     inkscape:window-x="0"
     inkscape:window-y="0"
     inkscape:window-maximized="1"
     fit-margin-top="0"
     fit-margin-left="0"
     fit-margin-right="0"
     fit-margin-bottom="0">
    <inkscape:grid
       type="xygrid"
       id="grid10"
       originx="-208.21496"
       originy="-49.918066" />
  </sodipodi:namedview>
  <metadata
     id="metadata5">
    <rdf:RDF>
      <cc:Work
         rdf:about="">
        <dc:format>image/svg+xml</dc:format>
        <dc:type
           rdf:resource="http://purl.org/dc/dcmitype/StillImage" />
        <dc:title></dc:title>
      </cc:Work>
    </rdf:RDF>
  </metadata>
  <g
     inkscape:label="Layer 1"
     inkscape:groupmode="layer"
     id="layer1"
     transform="translate(-208.21493,-158.57167)">
    <g
       id="g2621"
       transform="matrix(3.4351567,0,0,3.4351567,-404.46178,-213.45868)">
      <g
         transform="matrix(0.35277777,0,0,-0.35277777,197.28698,120.22157)"
         id="g212">
        <path
           inkscape:connector-curvature="0"
           id="path214"
           style="fill:#326ce5;fill-opacity:1;fill-rule:nonzero;stroke:none"
           d="m 0,0 c -1.5,0 -2.721,-1.221 -2.721,-2.721 0,-1.5 1.221,-2.72 2.721,-2.72 1.5,0 2.721,1.22 2.721,2.72 C 2.721,-1.221 1.5,0 0,0" />
      </g>
      <g
         transform="matrix(0.35277777,0,0,-0.35277777,197.28698,123.3409)"
         id="g216">
        <path
           inkscape:connector-curvature="0"
           id="path218"
           style="fill:#326ce5;fill-opacity:1;fill-rule:nonzero;stroke:none"
           d="m 0,0 c -2.167,0 -4.067,1.129 -5.155,2.829 -0.883,-2.144 -1.76,-4.597 -2.426,-6.462 -2.459,-6.884 -4.163,-11.363 -6.407,-12.886 -1.111,-1.137 -2.66,-1.846 -4.377,-1.846 -3.38,0 -6.121,2.741 -6.121,6.122 0,2.167 1.129,4.067 2.829,5.155 -2.144,0.883 -4.597,1.76 -6.462,2.426 -6.884,2.459 -11.363,4.163 -12.885,6.407 -1.138,1.111 -1.846,2.66 -1.846,4.376 0,3.381 2.74,6.122 6.121,6.122 2.167,0 4.067,-1.129 5.155,-2.829 0.883,2.144 1.76,4.597 2.426,6.462 2.459,6.884 4.163,11.363 6.407,12.885 1.111,1.138 2.66,1.846 4.376,1.846 3.381,0 6.122,-2.74 6.122,-6.121 0,-2.167 -1.129,-4.067 -2.829,-5.155 2.144,-0.883 4.597,-1.76 6.462,-2.426 C -1.726,14.446 2.753,12.742 4.276,10.498 5.413,9.387 6.122,7.838 6.122,6.121 6.122,2.741 3.381,0 0,0 m -14.527,41.548 c -1.447,1.447 -3.793,1.447 -5.24,0 L -52.58,8.735 c -1.448,-1.447 -1.448,-3.794 0,-5.241 l 32.813,-32.813 c 1.447,-1.447 3.793,-1.447 5.24,0 L 18.286,3.494 c 1.447,1.447 1.447,3.794 0,5.241 z" />
      </g>
      <g
         transform="matrix(0.35277777,0,0,-0.35277777,184.32981,120.22157)"
         id="g220">
        <path
           inkscape:connector-curvature="0"
           id="path222"
           style="fill:#326ce5;fill-opacity:1;fill-rule:nonzero;stroke:none"
           d="m 0,0 c -1.5,0 -2.721,-1.221 -2.721,-2.721 0,-1.5 1.221,-2.72 2.721,-2.72 1.5,0 2.721,1.22 2.721,2.72 C 2.721,-1.221 1.5,0 0,0" />
      </g>
      <g
         transform="matrix(0.35277777,0,0,-0.35277777,190.80839,126.70016)"
         id="g224">
        <path
           inkscape:connector-curvature="0"
           id="path226"
           style="fill:#326ce5;fill-opacity:1;fill-rule:nonzero;stroke:none"
           d="m 0,0 c -1.5,0 -2.721,-1.22 -2.721,-2.721 0,-1.5 1.221,-2.72 2.721,-2.72 1.5,0 2.721,1.22 2.721,2.72 C 2.721,-1.22 1.5,0 0,0" />
      </g>
      <g
         transform="matrix(0.35277777,0,0,-0.35277777,189.30009,116.24679)"
         id="g228">
        <path
           inkscape:connector-curvature="0"
           id="path230"
           style="fill:#326ce5;fill-opacity:1;fill-rule:nonzero;stroke:none"
           d="m 0,0 c -0.333,0.326 -0.627,0.69 -0.879,1.084 -0.884,-2.144 -1.76,-4.597 -2.426,-6.461 -2.459,-6.885 -4.163,-11.363 -6.407,-12.886 -0.326,-0.334 -0.69,-0.627 -1.084,-0.88 2.143,-0.883 4.596,-1.76 6.461,-2.426 6.884,-2.458 11.363,-4.163 12.886,-6.407 0.333,-0.325 0.627,-0.689 0.879,-1.083 0.884,2.143 1.76,4.596 2.426,6.461 2.459,6.884 4.163,11.363 6.407,12.886 0.326,0.333 0.69,0.627 1.084,0.879 -2.143,0.883 -4.596,1.76 -6.461,2.426 C 6.002,-3.948 1.523,-2.244 0,0" />
      </g>
      <g
         transform="matrix(0.35277777,0,0,-0.35277777,190.80839,115.66259)"
         id="g232">
        <path
           inkscape:connector-curvature="0"
           id="path234"
           style="fill:#326ce5;fill-opacity:1;fill-rule:nonzero;stroke:none"
           d="m 0,0 c 1.5,0 2.721,1.221 2.721,2.721 0,1.5 -1.221,2.72 -2.721,2.72 -1.5,0 -2.721,-1.22 -2.721,-2.72 C -2.721,1.221 -1.5,0 0,0" />
      </g>
    </g>
  </g>
</svg>
