<?xml version="1.0" encoding="UTF-8" standalone="no"?>
<!-- Created with Inkscape (http://www.inkscape.org/) -->

<svg
   xmlns:dc="http://purl.org/dc/elements/1.1/"
   xmlns:cc="http://creativecommons.org/ns#"
   xmlns:rdf="http://www.w3.org/1999/02/22-rdf-syntax-ns#"
   xmlns:svg="http://www.w3.org/2000/svg"
   xmlns="http://www.w3.org/2000/svg"
   xmlns:sodipodi="http://sodipodi.sourceforge.net/DTD/sodipodi-0.dtd"
   xmlns:inkscape="http://www.inkscape.org/namespaces/inkscape"
   width="1600"
   height="900"
   viewBox="0 0 423.33333 238.125"
   version="1.1"
   id="svg4684"
   inkscape:version="0.92.1 r"
   inkscape:export-filename="/home/anxhelo/Desktop/PiCast/icon standard.png"
   inkscape:export-xdpi="95.919998"
   inkscape:export-ydpi="95.919998">
  <defs
     id="defs4678" />
  <sodipodi:namedview
     id="base"
     pagecolor="#ffffff"
     bordercolor="#666666"
     borderopacity="1.0"
     inkscape:pageopacity="0.0"
     inkscape:pageshadow="2"
     inkscape:zoom="0.24748737"
     inkscape:cx="949.77267"
     inkscape:cy="808.44905"
     inkscape:document-units="mm"
     inkscape:current-layer="layer1"
     showgrid="false"
     units="px"
     inkscape:window-width="1366"
     inkscape:window-height="716"
     inkscape:window-x="0"
     inkscape:window-y="24"
     inkscape:window-maximized="1"
     inkscape:measure-start="0,0"
     inkscape:measure-end="0,0" />
  <metadata
     id="metadata4681">
    <rdf:RDF>
      <cc:Work
         rdf:about="">
        <dc:format>image/svg+xml</dc:format>
        <dc:type
           rdf:resource="http://purl.org/dc/dcmitype/StillImage" />
        <dc:title></dc:title>
      </cc:Work>
    </rdf:RDF>
  </metadata>
  <g
     inkscape:label="Layer 1"
     inkscape:groupmode="layer"
     id="layer1"
     transform="translate(0,-58.875)">
    <rect
       style="opacity:1;fill:#cb1b34;fill-opacity:1;stroke:none;stroke-width:2.44790721;stroke-miterlimit:4;stroke-dasharray:none;stroke-opacity:1"
       id="rect5631"
       width="423.33334"
       height="238.125"
       x="0"
       y="58.875" />
    <g
       id="g5610"
       transform="matrix(2.9078159,0,0,2.9078159,-366.54825,-231.8162)"
       style="fill:#ffffff">
      <path
         inkscape:connector-curvature="0"
         id="path4559"
         style="fill:#ffffff;fill-opacity:1;fill-rule:nonzero;stroke:none;stroke-width:0.35277775"
         d="m 203.33752,147.39315 c 0,-3.1877 2.5841,-5.77144 5.77145,-5.77144 3.1877,0 5.77179,2.58374 5.77179,5.77144 0,3.1877 -2.58409,5.77144 -5.77179,5.77144 -3.18735,0 -5.77145,-2.58374 -5.77145,-5.77144 m -14.28115,5.7531 c -3.55635,0.28046 -6.50169,-2.66524 -6.22159,-6.22159 0.22084,-2.79752 2.48744,-5.06412 5.28497,-5.28461 3.556,-0.28046 6.50169,2.66524 6.22123,6.22159 -0.22048,2.79753 -2.48708,5.06412 -5.28461,5.28461 m 15.56385,4.50744 c 0,3.1877 -2.58409,5.77145 -5.77179,5.77145 -3.18735,0 -5.77145,-2.58375 -5.77145,-5.77145 0,-3.1877 2.5841,-5.77144 5.77145,-5.77144 3.1877,0 5.77179,2.58374 5.77179,5.77144 m -5.77179,-14.74964 c -3.18735,0 -5.77145,-2.58374 -5.77145,-5.77144 0,-3.1877 2.5841,-5.77145 5.77145,-5.77145 3.1877,0 5.77179,2.58375 5.77179,5.77145 0,3.1877 -2.58409,5.77144 -5.77179,5.77144 m 24.34166,4.4891 c 0,-3.23285 -2.3114,-5.9249 -5.37139,-6.51651 -0.27023,-0.78669 -0.58491,-1.55258 -0.94686,-2.29164 1.74378,-2.58199 1.47426,-6.11858 -0.81103,-8.40388 -2.28565,-2.28564 -5.8219,-2.55517 -8.40388,-0.81103 -0.73942,-0.36195 -1.5053,-0.67698 -2.29199,-0.94721 -0.59161,-3.06 -3.2833,-5.3714 -6.51651,-5.3714 -3.23286,0 -5.92455,2.3114 -6.51616,5.3714 -0.78705,0.27023 -1.55293,0.58526 -2.292,0.94721 -2.58198,-1.74414 -6.11858,-1.47461 -8.40387,0.81103 -2.2853,2.2853 -2.55482,5.82189 -0.81104,8.40388 -0.3623,0.74012 -0.67768,1.50706 -0.94791,2.29481 -2.87408,0.55916 -5.11493,3.00426 -5.34917,5.97465 -0.27376,3.46886 2.1216,6.43114 5.35023,7.0552 0.27022,0.78705 0.5849,1.55258 0.94685,2.29164 -1.74378,2.58199 -1.47426,6.11858 0.81104,8.40388 2.28529,2.28564 5.82189,2.55517 8.40387,0.81103 0.73907,0.36195 1.50495,0.67663 2.292,0.94721 0.59161,3.05999 3.2833,5.37139 6.51616,5.37139 3.23321,0 5.9249,-2.3114 6.51651,-5.37139 0.78669,-0.27058 1.55257,-0.58526 2.29199,-0.94721 2.58198,1.74414 6.11823,1.47461 8.40388,-0.81103 2.28529,-2.2853 2.55481,-5.82189 0.81103,-8.40388 0.36195,-0.73906 0.67663,-1.50495 0.94686,-2.29164 3.05999,-0.59161 5.37139,-3.28365 5.37139,-6.51651" />
      <path
         inkscape:connector-curvature="0"
         id="path4563"
         style="fill:#ffffff;fill-opacity:1;fill-rule:nonzero;stroke:none;stroke-width:0.35277775"
         d="m 190.65199,119.45752 2.95381,3.55177 c 1.42275,-1.18533 3.25049,-1.89971 5.24263,-1.89971 1.99213,0 3.82023,0.71438 5.24298,1.89971 l 2.95381,-3.55177 c -2.22427,-1.85278 -5.08212,-2.96968 -8.19679,-2.96968 -3.11433,0 -5.97218,1.1169 -8.19644,2.96968" />
      <path
         inkscape:connector-curvature="0"
         id="path4567"
         style="fill:#ffffff;fill-opacity:1;fill-rule:nonzero;stroke:none;stroke-width:0.35277775"
         d="m 186.56605,114.54432 2.9538,3.55177 c 2.53118,-2.10891 5.78415,-3.37997 9.32886,-3.37997 3.54471,0 6.79732,1.27106 9.32885,3.37997 l 2.95346,-3.55177 c -3.33304,-2.77671 -7.61541,-4.44994 -12.28231,-4.44994 -4.66725,0 -8.94962,1.67323 -12.28266,4.44994" />
    </g>
  </g>
</svg>
