<?xml version="1.0" encoding="UTF-8" standalone="no"?>
<!-- Created with Inkscape (http://www.inkscape.org/) -->

<svg
   xmlns:dc="http://purl.org/dc/elements/1.1/"
   xmlns:cc="http://creativecommons.org/ns#"
   xmlns:rdf="http://www.w3.org/1999/02/22-rdf-syntax-ns#"
   xmlns:svg="http://www.w3.org/2000/svg"
   xmlns="http://www.w3.org/2000/svg"
   xmlns:sodipodi="http://sodipodi.sourceforge.net/DTD/sodipodi-0.dtd"
   xmlns:inkscape="http://www.inkscape.org/namespaces/inkscape"
   width="1600"
   height="900"
   viewBox="0 0 423.33333 238.125"
   version="1.1"
   id="svg4684"
   inkscape:version="0.92.1 r"
   inkscape:export-filename="/home/anxhelo/Desktop/PiCast/logo white horizontal.png"
   inkscape:export-xdpi="95.919998"
   inkscape:export-ydpi="95.919998">
  <defs
     id="defs4678" />
  <sodipodi:namedview
     id="base"
     pagecolor="#ffffff"
     bordercolor="#666666"
     borderopacity="1.0"
     inkscape:pageopacity="0.0"
     inkscape:pageshadow="2"
     inkscape:zoom="0.24748737"
     inkscape:cx="1105.9312"
     inkscape:cy="338.52099"
     inkscape:document-units="mm"
     inkscape:current-layer="layer1"
     showgrid="false"
     units="px"
     inkscape:window-width="1366"
     inkscape:window-height="716"
     inkscape:window-x="0"
     inkscape:window-y="24"
     inkscape:window-maximized="1" />
  <metadata
     id="metadata4681">
    <rdf:RDF>
      <cc:Work
         rdf:about="">
        <dc:format>image/svg+xml</dc:format>
        <dc:type
           rdf:resource="http://purl.org/dc/dcmitype/StillImage" />
        <dc:title></dc:title>
      </cc:Work>
    </rdf:RDF>
  </metadata>
  <g
     inkscape:label="Layer 1"
     inkscape:groupmode="layer"
     id="layer1"
     transform="translate(0,-58.875)">
    <rect
       style="opacity:1;fill:#cb1b34;fill-opacity:1;stroke:none;stroke-width:3.7741189;stroke-miterlimit:4;stroke-dasharray:none;stroke-opacity:1"
       id="rect5541"
       width="423.33334"
       height="238.125"
       x="0"
       y="58.874992" />
    <g
       id="g5539"
       transform="matrix(1.5401164,0,0,1.5401164,-67.754449,-135.10949)">
      <path
         inkscape:connector-curvature="0"
         id="path4593"
         style="fill:#ffffff;fill-opacity:1;fill-rule:nonzero;stroke:none;stroke-width:0.35277775"
         d="m 185.91746,192.97393 c 0,-3.1877 2.5841,-5.77144 5.77144,-5.77144 3.1877,0 5.7718,2.58374 5.7718,5.77144 0,3.1877 -2.5841,5.77144 -5.7718,5.77144 -3.18734,0 -5.77144,-2.58374 -5.77144,-5.77144 m -14.28115,5.7531 c -3.55635,0.28046 -6.50169,-2.66523 -6.22159,-6.22159 0.22084,-2.79752 2.48744,-5.06412 5.28497,-5.28461 3.556,-0.28045 6.50169,2.66524 6.22123,6.22159 -0.22048,2.79753 -2.48708,5.06412 -5.28461,5.28461 m 15.56385,4.50744 c 0,3.1877 -2.58409,5.77145 -5.77179,5.77145 -3.18735,0 -5.77145,-2.58375 -5.77145,-5.77145 0,-3.1877 2.5841,-5.77144 5.77145,-5.77144 3.1877,0 5.77179,2.58374 5.77179,5.77144 m -5.77179,-14.74963 c -3.18735,0 -5.77145,-2.58375 -5.77145,-5.77145 0,-3.1877 2.5841,-5.77144 5.77145,-5.77144 3.1877,0 5.77179,2.58374 5.77179,5.77144 0,3.1877 -2.58409,5.77145 -5.77179,5.77145 m 24.34166,4.48909 c 0,-3.23285 -2.3114,-5.9249 -5.37139,-6.51651 -0.27023,-0.78669 -0.58491,-1.55257 -0.94686,-2.29164 1.74378,-2.58198 1.47426,-6.11858 -0.81104,-8.40387 -2.28564,-2.28565 -5.82189,-2.55517 -8.40387,-0.81104 -0.73942,-0.36195 -1.5053,-0.67698 -2.29199,-0.94721 -0.59161,-3.05999 -3.28331,-5.37139 -6.51651,-5.37139 -3.23286,0 -5.92455,2.3114 -6.51616,5.37139 -0.78705,0.27023 -1.55293,0.58526 -2.292,0.94721 -2.58198,-1.74413 -6.11858,-1.47461 -8.40387,0.81104 -2.2853,2.28529 -2.55482,5.82189 -0.81104,8.40387 -0.3623,0.74013 -0.67768,1.50706 -0.94791,2.29482 -2.87408,0.55915 -5.11493,3.00425 -5.34917,5.97464 -0.27376,3.46887 2.1216,6.43114 5.35022,7.0552 0.27023,0.78705 0.58491,1.55258 0.94686,2.29164 -1.74378,2.58199 -1.47426,6.11858 0.81104,8.40388 2.28529,2.28564 5.82189,2.55517 8.40387,0.81103 0.73907,0.36195 1.50495,0.67663 2.292,0.94721 0.59161,3.05999 3.2833,5.37139 6.51616,5.37139 3.2332,0 5.9249,-2.3114 6.51651,-5.37139 0.78669,-0.27058 1.55257,-0.58526 2.29164,-0.94721 2.58198,1.74414 6.11858,1.47461 8.40422,-0.81103 2.2853,-2.2853 2.55482,-5.82189 0.81104,-8.40388 0.36195,-0.73906 0.67663,-1.50495 0.94686,-2.29164 3.05999,-0.59161 5.37139,-3.28365 5.37139,-6.51651" />
      <path
         inkscape:connector-curvature="0"
         id="path4597"
         style="fill:#ffffff;fill-opacity:1;fill-rule:nonzero;stroke:none;stroke-width:0.35277775"
         d="m 173.23188,165.03831 2.95381,3.55177 c 1.42275,-1.18534 3.25085,-1.89971 5.24263,-1.89971 1.99214,0 3.82023,0.71437 5.24298,1.89971 l 2.95381,-3.55177 c -2.22426,-1.85279 -5.08211,-2.96968 -8.19679,-2.96968 -3.11432,0 -5.97217,1.11689 -8.19644,2.96968" />
      <path
         inkscape:connector-curvature="0"
         id="path4601"
         style="fill:#ffffff;fill-opacity:1;fill-rule:nonzero;stroke:none;stroke-width:0.35277775"
         d="m 169.14592,160.1251 2.95381,3.55177 c 2.53118,-2.10891 5.78414,-3.37996 9.32885,-3.37996 3.54472,0 6.79733,1.27105 9.32886,3.37996 l 2.95346,-3.55177 c -3.33305,-2.77671 -7.61542,-4.44994 -12.28232,-4.44994 -4.66725,0 -8.94961,1.67323 -12.28266,4.44994" />
      <path
         inkscape:connector-curvature="0"
         id="path4605"
         style="fill:#ffffff;fill-opacity:1;fill-rule:nonzero;stroke:none;stroke-width:0.35277775"
         d="m 150.1237,233.35982 c 0,-1.42451 -0.74824,-3.31223 -3.31293,-3.31223 h -6.09036 v 6.62517 h 6.09036 c 2.42217,0 3.31293,-1.74554 3.31293,-3.31294 m -14.21165,-7.87153 h 10.68529 c 6.30449,0 8.51288,3.98921 8.51288,7.87153 0,3.63326 -2.42182,7.87189 -8.51288,7.87189 h -5.87693 v 9.1895 h -4.80836 z" />
      <path
         inkscape:connector-curvature="0"
         id="path4607"
         style="fill:#ffffff;fill-opacity:1;fill-rule:nonzero;stroke:none;stroke-width:0.35277775"
         d="m 156.24797,232.22025 h 4.63021 v 18.20086 h -4.63021 z m -0.39158,-4.844 c 0,-1.49613 1.21073,-2.67158 2.70686,-2.67158 1.53141,0 2.70686,1.17545 2.70686,2.67158 0,1.49578 -1.17545,2.70687 -2.70686,2.70687 -1.49613,0 -2.70686,-1.21109 -2.70686,-2.70687" />
      <path
         inkscape:connector-curvature="0"
         id="path4611"
         style="fill:#ffffff;fill-opacity:1;fill-rule:nonzero;stroke:none;stroke-width:0.35277775"
         d="m 163.26402,237.95472 c 0,-5.69913 2.74285,-12.85805 10.47186,-12.85805 4.77308,0 7.76463,2.81376 8.90481,5.62752 l -4.30988,1.95897 c -1.24672,-1.88807 -2.42217,-2.95663 -4.59493,-2.95663 -4.16737,0 -5.48534,4.5593 -5.48534,8.22819 0,3.84669 1.63865,8.22819 5.48534,8.22819 2.03023,0 3.38384,-1.31833 4.52402,-3.2057 l 4.41642,1.67358 c -1.6383,3.63326 -4.41642,6.16197 -8.94044,6.16197 -7.80063,0 -10.47186,-6.69607 -10.47186,-12.85804" />
      <path
         inkscape:connector-curvature="0"
         id="path4615"
         style="fill:#ffffff;fill-opacity:1;fill-rule:nonzero;stroke:none;stroke-width:0.35277775"
         d="m 194.82019,245.292 v -1.95897 c -0.96167,-0.39158 -2.13713,-0.60572 -3.38385,-0.60572 -1.92299,0 -3.49073,0.60572 -3.49073,2.10185 0,1.17545 1.06856,1.95897 3.06317,1.95897 1.67428,0 2.921,-0.67698 3.81141,-1.49613 m 0,3.81141 c -0.85514,0.85443 -2.31528,1.7452 -4.70182,1.7452 -3.77543,0 -6.69608,-2.03024 -6.69608,-6.01945 0,-4.203 3.63326,-6.01945 7.23054,-6.01945 1.74519,0 3.06316,0.32032 4.16736,0.85443 v -0.92604 c 0,-1.99425 -1.17546,-2.88467 -3.27695,-2.88467 -2.13713,0 -3.91795,0.641 -5.62787,1.81646 l -1.42452,-3.74015 c 1.7452,-1.17511 4.30989,-2.13713 7.44432,-2.13713 3.27696,0 7.44432,0.8195 7.44432,7.0171 v 11.61133 h -4.5593 z" />
      <path
         inkscape:connector-curvature="0"
         id="path4619"
         style="fill:#ffffff;fill-opacity:1;fill-rule:nonzero;stroke:none;stroke-width:0.35277775"
         d="m 200.83824,247.57158 3.06352,-2.59997 c 0.74789,0.74789 2.35056,1.95897 4.27426,1.95897 1.60267,0 2.74249,-0.42756 2.74249,-1.60266 0,-1.10455 -1.21108,-1.60303 -3.31258,-2.42218 -4.06047,-1.35361 -6.23358,-2.81375 -6.23358,-5.98381 0,-3.31294 2.99226,-5.12904 6.62552,-5.12904 3.1697,0 5.34246,1.38924 6.66044,2.92065 l -3.0988,2.52871 c -1.10384,-1.03293 -2.13713,-1.53141 -3.56164,-1.53141 -1.38924,0 -2.31529,0.46284 -2.31529,1.35361 0,0.96132 1.67429,1.63794 3.562,2.20803 3.13408,1.03294 5.98382,2.42218 5.98382,6.05544 0,3.56129 -2.81411,5.52061 -7.12399,5.52061 -2.95628,0 -5.8413,-1.28234 -7.26617,-3.27695" />
      <path
         inkscape:connector-curvature="0"
         id="path4623"
         style="fill:#ffffff;fill-opacity:1;fill-rule:nonzero;stroke:none;stroke-width:0.35277775"
         d="m 218.04063,246.04028 v -9.75995 h -2.60033 v -4.06012 h 2.60033 v -5.30719 l 4.63021,-2.20839 v 7.51558 h 4.06047 v 4.06012 h -4.06047 v 9.08332 c 0,0.89006 0.4632,1.42452 1.28235,1.42452 0.96131,0 1.95897,-0.24942 2.9919,-0.78352 l -0.53445,4.02484 c -1.1042,0.53411 -2.42218,0.81915 -3.95323,0.81915 -3.13478,0 -4.41678,-1.78082 -4.41678,-4.80836" />
    </g>
  </g>
</svg>
