<?xml version="1.0" encoding="UTF-8" standalone="no"?>
<!-- Created with Inkscape (http://www.inkscape.org/) -->

<svg
   xmlns:dc="http://purl.org/dc/elements/1.1/"
   xmlns:cc="http://creativecommons.org/ns#"
   xmlns:rdf="http://www.w3.org/1999/02/22-rdf-syntax-ns#"
   xmlns:svg="http://www.w3.org/2000/svg"
   xmlns="http://www.w3.org/2000/svg"
   xmlns:sodipodi="http://sodipodi.sourceforge.net/DTD/sodipodi-0.dtd"
   xmlns:inkscape="http://www.inkscape.org/namespaces/inkscape"
   width="1600"
   height="900"
   viewBox="0 0 423.33333 238.125"
   version="1.1"
   id="svg4684"
   inkscape:version="0.92.1 r"
   inkscape:export-filename="/home/anxhelo/Desktop/PiCast/logo standard horizontal.png"
   inkscape:export-xdpi="95.919998"
   inkscape:export-ydpi="95.919998">
  <defs
     id="defs4678" />
  <sodipodi:namedview
     id="base"
     pagecolor="#ffffff"
     bordercolor="#666666"
     borderopacity="1.0"
     inkscape:pageopacity="0.0"
     inkscape:pageshadow="2"
     inkscape:zoom="0.35"
     inkscape:cx="647.71492"
     inkscape:cy="244.70301"
     inkscape:document-units="mm"
     inkscape:current-layer="layer1"
     showgrid="false"
     units="px"
     inkscape:window-width="1366"
     inkscape:window-height="716"
     inkscape:window-x="0"
     inkscape:window-y="24"
     inkscape:window-maximized="1" />
  <metadata
     id="metadata4681">
    <rdf:RDF>
      <cc:Work
         rdf:about="">
        <dc:format>image/svg+xml</dc:format>
        <dc:type
           rdf:resource="http://purl.org/dc/dcmitype/StillImage" />
        <dc:title></dc:title>
      </cc:Work>
    </rdf:RDF>
  </metadata>
  <g
     inkscape:label="Layer 1"
     inkscape:groupmode="layer"
     id="layer1"
     transform="translate(0,-58.875)">
    <g
       id="g5335"
       transform="matrix(1.5480742,0,0,1.5480742,-176.8631,-85.235114)">
      <path
         inkscape:connector-curvature="0"
         id="path4593"
         style="fill:#cb1b34;fill-opacity:1;fill-rule:nonzero;stroke:none;stroke-width:0.35277775"
         d="m 255.46508,159.71203 c 0,-3.1877 2.5841,-5.77145 5.77144,-5.77145 3.1877,0 5.7718,2.58375 5.7718,5.77145 0,3.1877 -2.5841,5.77144 -5.7718,5.77144 -3.18734,0 -5.77144,-2.58374 -5.77144,-5.77144 m -14.28115,5.7531 c -3.55635,0.28046 -6.50169,-2.66524 -6.22159,-6.22159 0.22084,-2.79753 2.48744,-5.06412 5.28496,-5.28461 3.556,-0.28046 6.5017,2.66524 6.22124,6.22159 -0.22049,2.79753 -2.48708,5.06412 -5.28461,5.28461 m 15.56385,4.50744 c 0,3.1877 -2.5841,5.77145 -5.7718,5.77145 -3.18734,0 -5.77144,-2.58375 -5.77144,-5.77145 0,-3.1877 2.5841,-5.77144 5.77144,-5.77144 3.1877,0 5.7718,2.58374 5.7718,5.77144 m -5.7718,-14.74964 c -3.18734,0 -5.77144,-2.58374 -5.77144,-5.77144 0,-3.1877 2.5841,-5.77145 5.77144,-5.77145 3.1877,0 5.7718,2.58375 5.7718,5.77145 0,3.1877 -2.5841,5.77144 -5.7718,5.77144 m 24.34167,4.4891 c 0,-3.23286 -2.3114,-5.9249 -5.3714,-6.51651 -0.27022,-0.7867 -0.5849,-1.55258 -0.94685,-2.29165 1.74378,-2.58198 1.47426,-6.11857 -0.81104,-8.40387 -2.28565,-2.28564 -5.82189,-2.55517 -8.40387,-0.81103 -0.73942,-0.36195 -1.5053,-0.67698 -2.292,-0.94721 -0.5916,-3.06 -3.2833,-5.3714 -6.51651,-5.3714 -3.23285,0 -5.92455,2.3114 -6.51615,5.3714 -0.78705,0.27023 -1.55293,0.58526 -2.292,0.94721 -2.58198,-1.74414 -6.11858,-1.47461 -8.40388,0.81103 -2.28529,2.2853 -2.55481,5.82189 -0.81103,8.40387 -0.3623,0.74013 -0.67769,1.50707 -0.94792,2.29482 -2.87407,0.55916 -5.11492,3.00426 -5.34916,5.97465 -0.27376,3.46886 2.1216,6.43114 5.35022,7.0552 0.27023,0.78705 0.58491,1.55258 0.94686,2.29164 -1.74378,2.58199 -1.47426,6.11858 0.81103,8.40388 2.2853,2.28564 5.8219,2.55517 8.40388,0.81103 0.73907,0.36195 1.50495,0.67663 2.292,0.94721 0.5916,3.05999 3.2833,5.37139 6.51615,5.37139 3.23321,0 5.92491,-2.3114 6.51651,-5.37139 0.7867,-0.27058 1.55258,-0.58526 2.29165,-0.94721 2.58198,1.74414 6.11857,1.47461 8.40422,-0.81103 2.2853,-2.2853 2.55482,-5.82189 0.81104,-8.40388 0.36195,-0.73906 0.67663,-1.50495 0.94685,-2.29164 3.06,-0.59161 5.3714,-3.28366 5.3714,-6.51651" />
      <path
         inkscape:connector-curvature="0"
         id="path4597"
         style="fill:#09934c;fill-opacity:1;fill-rule:nonzero;stroke:none;stroke-width:0.35277775"
         d="m 242.7795,131.77641 2.95381,3.55176 c 1.42275,-1.18533 3.25085,-1.89971 5.24263,-1.89971 1.99213,0 3.82023,0.71438 5.24298,1.89971 l 2.95381,-3.55176 c -2.22426,-1.85279 -5.08212,-2.96969 -8.19679,-2.96969 -3.11432,0 -5.97218,1.1169 -8.19644,2.96969" />
      <path
         inkscape:connector-curvature="0"
         id="path4601"
         style="fill:#09934c;fill-opacity:1;fill-rule:nonzero;stroke:none;stroke-width:0.35277775"
         d="m 238.69354,126.8632 2.95381,3.55177 c 2.53118,-2.10891 5.78414,-3.37997 9.32885,-3.37997 3.54471,0 6.79732,1.27106 9.32886,3.37997 l 2.95345,-3.55177 c -3.33304,-2.77671 -7.61541,-4.44994 -12.28231,-4.44994 -4.66725,0 -8.94961,1.67323 -12.28266,4.44994" />
      <path
         inkscape:connector-curvature="0"
         id="path4605"
         style="fill:#393536;fill-opacity:1;fill-rule:nonzero;stroke:none;stroke-width:0.35277775"
         d="m 219.67132,200.09792 c 0,-1.42451 -0.74824,-3.31223 -3.31294,-3.31223 h -6.09035 v 6.62517 h 6.09035 c 2.42218,0 3.31294,-1.74554 3.31294,-3.31294 m -14.21165,-7.87153 h 10.68528 c 6.3045,0 8.51288,3.98921 8.51288,7.87153 0,3.63326 -2.42181,7.87189 -8.51288,7.87189 h -5.87692 v 9.1895 h -4.80836 z" />
      <path
         inkscape:connector-curvature="0"
         id="path4607"
         style="fill:#393536;fill-opacity:1;fill-rule:nonzero;stroke:none;stroke-width:0.35277775"
         d="m 225.79559,198.95835 h 4.63021 v 18.20086 h -4.63021 z m -0.39158,-4.844 c 0,-1.49613 1.21073,-2.67158 2.70686,-2.67158 1.53141,0 2.70686,1.17545 2.70686,2.67158 0,1.49578 -1.17545,2.70687 -2.70686,2.70687 -1.49613,0 -2.70686,-1.21109 -2.70686,-2.70687" />
      <path
         inkscape:connector-curvature="0"
         id="path4611"
         style="fill:#393536;fill-opacity:1;fill-rule:nonzero;stroke:none;stroke-width:0.35277775"
         d="m 232.81164,204.69282 c 0,-5.69913 2.74285,-12.85805 10.47186,-12.85805 4.77308,0 7.76463,2.81376 8.90481,5.62752 l -4.30988,1.95897 c -1.24672,-1.88807 -2.42218,-2.95663 -4.59493,-2.95663 -4.16737,0 -5.48535,4.5593 -5.48535,8.22819 0,3.84669 1.63866,8.22819 5.48535,8.22819 2.03023,0 3.38384,-1.31833 4.52402,-3.2057 l 4.41642,1.67358 c -1.6383,3.63326 -4.41642,6.16197 -8.94044,6.16197 -7.80063,0 -10.47186,-6.69607 -10.47186,-12.85804" />
      <path
         inkscape:connector-curvature="0"
         id="path4615"
         style="fill:#393536;fill-opacity:1;fill-rule:nonzero;stroke:none;stroke-width:0.35277775"
         d="m 264.36781,212.0301 v -1.95897 c -0.96167,-0.39158 -2.13713,-0.60572 -3.38385,-0.60572 -1.92299,0 -3.49073,0.60572 -3.49073,2.10185 0,1.17545 1.06856,1.95897 3.06317,1.95897 1.67428,0 2.921,-0.67698 3.81141,-1.49613 m 0,3.81141 c -0.85514,0.85443 -2.31528,1.7452 -4.70182,1.7452 -3.77543,0 -6.69608,-2.03024 -6.69608,-6.01945 0,-4.203 3.63326,-6.01945 7.23053,-6.01945 1.7452,0 3.06317,0.32032 4.16737,0.85443 v -0.92604 c 0,-1.99425 -1.17546,-2.88467 -3.27696,-2.88467 -2.13712,0 -3.91795,0.641 -5.62786,1.81646 l -1.42452,-3.74015 c 1.74519,-1.17511 4.30989,-2.13713 7.44432,-2.13713 3.27695,0 7.44432,0.8195 7.44432,7.0171 v 11.61133 h -4.5593 z" />
      <path
         inkscape:connector-curvature="0"
         id="path4619"
         style="fill:#393536;fill-opacity:1;fill-rule:nonzero;stroke:none;stroke-width:0.35277775"
         d="m 270.38586,214.30968 3.06352,-2.59997 c 0.74789,0.74789 2.35056,1.95897 4.27426,1.95897 1.60267,0 2.74249,-0.42756 2.74249,-1.60266 0,-1.10455 -1.21108,-1.60303 -3.31258,-2.42218 -4.06047,-1.35361 -6.23358,-2.81375 -6.23358,-5.98381 0,-3.31294 2.99226,-5.12904 6.62551,-5.12904 3.16971,0 5.34247,1.38924 6.66045,2.92065 l -3.0988,2.52871 c -1.10384,-1.03293 -2.13713,-1.53141 -3.56165,-1.53141 -1.38923,0 -2.31528,0.46284 -2.31528,1.35361 0,0.96132 1.67429,1.63794 3.562,2.20803 3.13408,1.03294 5.98382,2.42218 5.98382,6.05544 0,3.56129 -2.81411,5.52061 -7.124,5.52061 -2.95627,0 -5.84129,-1.28234 -7.26616,-3.27695" />
      <path
         inkscape:connector-curvature="0"
         id="path4623"
         style="fill:#393536;fill-opacity:1;fill-rule:nonzero;stroke:none;stroke-width:0.35277775"
         d="m 287.58825,212.77838 v -9.75995 h -2.60033 v -4.06012 h 2.60033 v -5.30719 l 4.63021,-2.20839 v 7.51558 h 4.06047 v 4.06012 h -4.06047 v 9.08332 c 0,0.89006 0.46319,1.42452 1.28234,1.42452 0.96132,0 1.95898,-0.24942 2.99191,-0.78352 l -0.53446,4.02484 c -1.10419,0.53411 -2.42217,0.81915 -3.95323,0.81915 -3.13478,0 -4.41677,-1.78082 -4.41677,-4.80836" />
    </g>
  </g>
</svg>
