<?xml version="1.0" encoding="UTF-8" standalone="no"?>
<!-- Created with Inkscape (http://www.inkscape.org/) -->

<svg
   xmlns:dc="http://purl.org/dc/elements/1.1/"
   xmlns:cc="http://creativecommons.org/ns#"
   xmlns:rdf="http://www.w3.org/1999/02/22-rdf-syntax-ns#"
   xmlns:svg="http://www.w3.org/2000/svg"
   xmlns="http://www.w3.org/2000/svg"
   xmlns:sodipodi="http://sodipodi.sourceforge.net/DTD/sodipodi-0.dtd"
   xmlns:inkscape="http://www.inkscape.org/namespaces/inkscape"
   width="1068.11"
   height="439"
   viewBox="0 0 282.6041 116.15208"
   version="1.1"
   id="svg4684"
   inkscape:version="0.92.1 r"
   sodipodi:docname="logo standard horizontal.svg"
   inkscape:export-filename="/home/anxhelo/Desktop/PiCast/standard horizontal.png"
   inkscape:export-xdpi="95.919998"
   inkscape:export-ydpi="95.919998">
  <defs
     id="defs4678" />
  <sodipodi:namedview
     id="base"
     pagecolor="#ffffff"
     bordercolor="#666666"
     borderopacity="1.0"
     inkscape:pageopacity="0.0"
     inkscape:pageshadow="2"
     inkscape:zoom="0.35"
     inkscape:cx="831.82542"
     inkscape:cy="380.61561"
     inkscape:document-units="mm"
     inkscape:current-layer="layer1"
     showgrid="false"
     units="px"
     inkscape:window-width="1366"
     inkscape:window-height="716"
     inkscape:window-x="0"
     inkscape:window-y="24"
     inkscape:window-maximized="1" />
  <metadata
     id="metadata4681">
    <rdf:RDF>
      <cc:Work
         rdf:about="">
        <dc:format>image/svg+xml</dc:format>
        <dc:type
           rdf:resource="http://purl.org/dc/dcmitype/StillImage" />
        <dc:title></dc:title>
      </cc:Work>
    </rdf:RDF>
  </metadata>
  <g
     inkscape:label="Layer 1"
     inkscape:groupmode="layer"
     id="layer1"
     transform="translate(0,-180.84792)">
    <g
       id="g4500"
       transform="translate(-63.960443,68.6653)">
      <path
         inkscape:connector-curvature="0"
         id="path4559"
         style="fill:#cb1b34;fill-opacity:1;fill-rule:nonzero;stroke:none;stroke-width:0.66447067"
         d="m 118.26391,182.48623 c 0,-6.00416 4.86726,-10.87075 10.87075,-10.87075 6.00416,0 10.8714,4.86659 10.8714,10.87075 0,6.00416 -4.86724,10.87073 -10.8714,10.87073 -6.00349,0 -10.87075,-4.86657 -10.87075,-10.87073 m -26.899098,10.83619 c -6.698524,0.52825 -12.246187,-5.02009 -11.718589,-11.71861 0.415942,-5.26926 4.685172,-9.53849 9.954429,-9.95377 6.697864,-0.52826 12.246188,5.02007 11.717948,11.71861 -0.4153,5.26925 -4.684531,9.53847 -9.953788,9.95377 m 29.315118,8.48994 c 0,6.00415 -4.86724,10.87075 -10.87139,10.87075 -6.0035,0 -10.870748,-4.8666 -10.870748,-10.87075 0,-6.00416 4.867248,-10.87074 10.870748,-10.87074 6.00415,0 10.87139,4.86658 10.87139,10.87074 m -10.87139,-27.78153 c -6.0035,0 -10.870748,-4.86657 -10.870748,-10.87073 0,-6.00416 4.867248,-10.87075 10.870748,-10.87075 6.00415,0 10.87139,4.86659 10.87139,10.87075 0,6.00416 -4.86724,10.87073 -10.87139,10.87073 m 45.84846,8.4554 c 0,-6.08922 -4.35361,-11.1598 -10.11722,-12.2741 -0.50899,-1.48178 -1.1017,-2.92435 -1.78345,-4.31641 3.28448,-4.86326 2.77683,-11.52459 -1.5276,-15.82902 -4.30511,-4.30511 -10.96578,-4.81276 -15.82904,-1.52763 -1.39273,-0.68174 -2.83529,-1.27512 -4.31705,-1.78408 -1.11432,-5.76363 -6.18423,-10.11725 -12.2741,-10.11725 -6.08922,0 -11.159122,4.35362 -12.273443,10.11725 -1.482439,0.50896 -2.925004,1.10234 -4.317071,1.78408 -4.86326,-3.28513 -11.524584,-2.77748 -15.829017,1.52763 -4.304433,4.30443 -4.812103,10.96576 -1.527626,15.82902 -0.682406,1.39406 -1.276436,2.83862 -1.785425,4.32238 -5.413442,1.0532 -9.63417,5.65864 -10.075371,11.25349 -0.515637,6.53373 3.996136,12.1133 10.077367,13.28874 0.508989,1.48244 1.101682,2.92434 1.783429,4.31639 -3.284477,4.86328 -2.776807,11.52459 1.527626,15.82904 4.304433,4.30509 10.965757,4.81276 15.829017,1.52761 1.392067,0.68174 2.834632,1.27445 4.317071,1.7841 1.114321,5.76361 6.184223,10.11723 12.273443,10.11723 6.08987,0 11.15978,-4.35362 12.2741,-10.11723 1.48176,-0.50965 2.92432,-1.10236 4.31705,-1.7841 4.86326,3.28515 11.52393,2.77748 15.82904,-1.52761 4.30443,-4.30445 4.81208,-10.96576 1.5276,-15.82904 0.68175,-1.39205 1.27446,-2.83463 1.78345,-4.31639 5.76361,-1.11432 10.11722,-6.1849 10.11722,-12.2741" />
      <path
         inkscape:connector-curvature="0"
         id="path4563"
         style="fill:#09934c;fill-opacity:1;fill-rule:nonzero;stroke:none;stroke-width:0.66447067"
         d="m 94.370224,129.86838 5.563618,6.6899 c 2.679798,-2.23264 6.122418,-3.57818 9.874698,-3.57818 3.75225,0 7.19555,1.34554 9.87535,3.57818 l 5.56362,-6.6899 c -4.1895,-3.4898 -9.57237,-5.59351 -15.43897,-5.59351 -5.86597,0 -11.248835,2.10371 -15.438316,5.59351" />
      <path
         inkscape:connector-curvature="0"
         id="path4567"
         style="fill:#09934c;fill-opacity:1;fill-rule:nonzero;stroke:none;stroke-width:0.66447067"
         d="m 86.674197,120.61418 5.563598,6.68987 c 4.767595,-3.97219 10.894665,-6.36628 17.571265,-6.36628 6.6766,0 12.80302,2.39409 17.57126,6.36628 l 5.56295,-6.68987 c -6.27791,-5.23006 -14.34392,-8.38164 -23.13421,-8.38164 -8.79094,0 -16.856952,3.15158 -23.134863,8.38164" />
      <path
         inkscape:connector-curvature="0"
         id="path4571"
         style="fill:#393536;fill-opacity:1;fill-rule:nonzero;stroke:none;stroke-width:0.66447067"
         d="m 201.86943,174.16686 c 0,-2.68314 -1.40936,-6.23873 -6.24006,-6.23873 h -11.47143 v 12.47877 h 11.47143 c 4.56226,0 6.24006,-3.2878 6.24006,-6.24004 m -26.76822,-14.82635 h 20.12616 c 11.87475,0 16.03434,7.51383 16.03434,14.82635 0,6.84337 -4.56159,14.827 -16.03434,14.827 h -11.06943 v 17.3088 h -9.05673 z" />
      <path
         inkscape:connector-curvature="0"
         id="path4573"
         style="fill:#393536;fill-opacity:1;fill-rule:nonzero;stroke:none;stroke-width:0.66447067"
         d="m 213.40456,172.02042 h 8.72118 v 34.28203 h -8.72118 z m -0.73756,-9.12384 c 0,-2.81804 2.28114,-5.03205 5.09848,-5.03205 2.88447,0 5.09849,2.21401 5.09849,5.03205 0,2.81734 -2.21402,5.09847 -5.09849,5.09847 -2.81734,0 -5.09848,-2.28113 -5.09848,-5.09847" />
      <path
         inkscape:connector-curvature="0"
         id="path4577"
         style="fill:#393536;fill-opacity:1;fill-rule:nonzero;stroke:none;stroke-width:0.66447067"
         d="m 226.61975,182.82152 c 0,-10.73452 5.16627,-24.21862 19.72416,-24.21862 8.9903,0 14.625,5.29981 16.77257,10.59963 l -8.11784,3.6898 c -2.34825,-3.55624 -4.56225,-5.56893 -8.65473,-5.56893 -7.84939,0 -10.33185,8.58762 -10.33185,15.49812 0,7.24539 3.08646,15.49811 10.33185,15.49811 3.82403,0 6.37361,-2.48312 8.52117,-6.03804 l 8.31851,3.15226 c -3.0858,6.84338 -8.31851,11.60631 -16.83968,11.60631 -14.69277,0 -19.72416,-12.61233 -19.72416,-24.21864" />
      <path
         inkscape:connector-curvature="0"
         id="path4581"
         style="fill:#393536;fill-opacity:1;fill-rule:nonzero;stroke:none;stroke-width:0.66447067"
         d="m 286.05707,196.64157 v -3.6898 c -1.81135,-0.73755 -4.02537,-1.14089 -6.37362,-1.14089 -3.62202,0 -6.57492,1.14089 -6.57492,3.95891 0,2.21401 2.01267,3.6898 5.7696,3.6898 3.15357,0 5.50181,-1.27512 7.17894,-2.81802 m 0,7.17894 c -1.61067,1.60935 -4.36092,3.28715 -8.85607,3.28715 -7.11117,0 -12.61232,-3.82403 -12.61232,-11.33787 0,-7.91651 6.84338,-11.33787 13.619,-11.33787 3.28713,0 5.76958,0.60334 7.84939,1.60936 v -1.74424 c 0,-3.75626 -2.21403,-5.43338 -6.17227,-5.43338 -4.02536,0 -7.37961,1.20734 -10.60031,3.42137 l -2.68312,-7.04472 c 3.28713,-2.21336 8.11783,-4.02537 14.02165,-4.02537 6.17228,0 14.02167,1.54356 14.02167,13.21698 v 21.8704 h -8.58762 z" />
      <path
         inkscape:connector-curvature="0"
         id="path4585"
         style="fill:#393536;fill-opacity:1;fill-rule:nonzero;stroke:none;stroke-width:0.66447067"
         d="m 297.3922,200.93527 5.77026,-4.89717 c 1.40868,1.40868 4.42737,3.68982 8.05074,3.68982 3.01869,0 5.16559,-0.80535 5.16559,-3.01869 0,-2.08047 -2.28114,-3.01935 -6.23938,-4.56225 -7.64805,-2.54958 -11.74119,-5.29983 -11.74119,-11.27076 0,-6.24005 5.63604,-9.66075 12.47941,-9.66075 5.97027,0 10.06275,2.61669 12.54522,5.50116 l -5.83672,4.76292 c -2.07912,-1.94556 -4.02536,-2.88447 -6.7085,-2.88447 -2.61669,0 -4.36092,0.8718 -4.36092,2.54958 0,1.81068 3.15359,3.08514 6.70916,4.15893 5.90317,1.94556 11.27076,4.56225 11.27076,11.40564 0,6.70849 -5.30048,10.3983 -13.41833,10.3983 -5.56827,0 -11.0023,-2.41536 -13.6861,-6.17226" />
      <path
         inkscape:connector-curvature="0"
         id="path4589"
         style="fill:#393536;fill-opacity:1;fill-rule:nonzero;stroke:none;stroke-width:0.66447067"
         d="m 329.79365,198.05099 v -18.38325 h -4.89782 v -7.6474 h 4.89782 v -9.9963 l 8.72118,-4.15958 v 14.15588 h 7.64806 v 7.6474 h -7.64806 v 17.10879 c 0,1.67646 0.87246,2.68314 2.41536,2.68314 1.81066,0 3.6898,-0.46978 5.63536,-1.4758 l -1.00666,7.58095 c -2.0798,1.00602 -4.56227,1.5429 -7.44606,1.5429 -5.90448,0 -8.31918,-3.35424 -8.31918,-9.05673" />
    </g>
  </g>
</svg>
