<?xml version="1.0" encoding="UTF-8" standalone="no"?>
<!-- Created with Inkscape (http://www.inkscape.org/) -->

<svg
   xmlns:dc="http://purl.org/dc/elements/1.1/"
   xmlns:cc="http://creativecommons.org/ns#"
   xmlns:rdf="http://www.w3.org/1999/02/22-rdf-syntax-ns#"
   xmlns:svg="http://www.w3.org/2000/svg"
   xmlns="http://www.w3.org/2000/svg"
   xmlns:sodipodi="http://sodipodi.sourceforge.net/DTD/sodipodi-0.dtd"
   xmlns:inkscape="http://www.inkscape.org/namespaces/inkscape"
   width="342.31879"
   height="526.90228"
   viewBox="0 0 90.57185 139.40956"
   version="1.1"
   id="svg8"
   inkscape:version="0.92.2 (5c3e80d, 2017-08-06)"
   sodipodi:docname="vertical_color.svg"
   inkscape:export-filename="/home/anxhelo/works/Sit/vertical_color.png"
   inkscape:export-xdpi="96"
   inkscape:export-ydpi="96">
  <defs
     id="defs2" />
  <sodipodi:namedview
     id="base"
     pagecolor="#ffffff"
     bordercolor="#666666"
     borderopacity="1.0"
     inkscape:pageopacity="0"
     inkscape:pageshadow="2"
     inkscape:zoom="0.52467208"
     inkscape:cx="105.16498"
     inkscape:cy="271.54587"
     inkscape:document-units="px"
     inkscape:current-layer="layer1"
     inkscape:document-rotation="0"
     showgrid="false"
     borderlayer="true"
     inkscape:showpageshadow="true"
     units="px"
     inkscape:pagecheckerboard="false"
     showguides="true"
     inkscape:window-width="1366"
     inkscape:window-height="743"
     inkscape:window-x="0"
     inkscape:window-y="0"
     inkscape:window-maximized="1"
     objecttolerance="10"
     guidetolerance="10"
     inkscape:snap-tangential="true"
     inkscape:snap-perpendicular="true"
     fit-margin-top="0"
     fit-margin-left="0"
     fit-margin-right="0"
     fit-margin-bottom="0">
    <inkscape:grid
       type="xygrid"
       id="grid10"
       dotted="false"
       originx="-172.12734"
       originy="-45.394321" />
  </sodipodi:namedview>
  <metadata
     id="metadata5">
    <rdf:RDF>
      <cc:Work
         rdf:about="">
        <dc:format>image/svg+xml</dc:format>
        <dc:type
           rdf:resource="http://purl.org/dc/dcmitype/StillImage" />
        <dc:title></dc:title>
        <cc:license
           rdf:resource="" />
      </cc:Work>
    </rdf:RDF>
  </metadata>
  <g
     inkscape:label="Layer 1"
     inkscape:groupmode="layer"
     id="layer1"
     transform="translate(-172.12733,-112.19613)">
    <g
       id="g1585"
       transform="matrix(2.3739695,0,0,2.3739695,187.29447,130.76837)">
      <g
         transform="matrix(0.35277777,0,0,-0.35277777,22.628778,13.924406)"
         id="g36">
        <path
           inkscape:connector-curvature="0"
           id="path38"
           style="fill:#43b3c2;fill-opacity:1;fill-rule:nonzero;stroke:none"
           d="M 0,0 V 28.182 L 14.091,14.091 Z m -28.182,-1.761 c -8.754,0 -15.851,7.097 -15.851,15.852 0,8.755 7.097,15.852 15.851,15.852 8.755,0 15.853,-7.097 15.853,-15.852 0,-8.755 -7.098,-15.852 -15.853,-15.852 m 0,-26.42 -14.089,14.09 h 28.18 z m 0,84.544 14.091,-14.091 h -28.18 z M -56.362,0 -70.453,14.091 -56.362,28.182 Z m 49.317,35.227 v 26.42 h -42.272 v -26.42 h -26.42 V -7.045 h 26.42 v -26.42 h 42.272 v 26.42 h 26.42 v 42.272 z" />
      </g>
      <g
         transform="matrix(0.35277777,0,0,-0.35277777,-0.4192324,50.900956)"
         id="g40">
        <path
           inkscape:connector-curvature="0"
           id="path42"
           style="fill:#515256;fill-opacity:1;fill-rule:nonzero;stroke:none"
           d="m 0,0 c -6.337,0 -13.249,1.656 -16.922,4.896 l 1.441,11.593 7.705,-0.72 -0.073,-5.689 c 3.241,-1.727 5.473,-1.8 7.129,-1.8 5.04,0 8.713,0.72 8.713,5.473 0,5.184 -4.465,6.337 -9.649,7.272 -6.769,1.225 -14.833,2.88 -14.833,12.961 0,10.442 8.568,14.258 16.993,14.258 6.121,0 12.169,-2.016 15.193,-5.184 L 16.13,32.906 8.425,32.187 7.776,37.659 c -2.448,1.656 -4.896,2.088 -7.2,2.088 -3.816,0 -6.696,-1.152 -6.696,-4.536 0,-3.961 3.816,-5.041 8.064,-5.977 C 7.705,28.01 18.361,26.858 18.361,14.905 18.361,5.256 11.377,0 0,0" />
      </g>
      <g
         transform="matrix(0.35277777,0,0,-0.35277777,7.8351776,50.647056)"
         id="g44">
        <path
           inkscape:connector-curvature="0"
           id="path46"
           style="fill:#515256;fill-opacity:1;fill-rule:nonzero;stroke:none"
           d="M 0,0 V 8.209 H 5.04 V 38.596 H 0 v 8.208 H 19.729 V 38.596 H 14.688 V 8.209 h 5.041 V 0 Z" />
      </g>
      <g
         transform="matrix(0.35277777,0,0,-0.35277777,28.867178,39.978276)"
         id="g48">
        <path
           inkscape:connector-curvature="0"
           id="path50"
           style="fill:#515256;fill-opacity:1;fill-rule:nonzero;stroke:none"
           d="m 0,0 -1.439,8.354 h -7.417 v -30.387 h 7.632 v -8.209 h -24.482 v 8.209 h 7.2 V 8.354 h -7.416 L -27.362,0 l -8.209,0.721 1.44,15.841 h 40.9 L 8.209,0.721 Z" />
      </g>
    </g>
  </g>
</svg>
