<?xml version="1.0" encoding="UTF-8" standalone="no"?>
<!-- Created with Inkscape (http://www.inkscape.org/) -->

<svg
   xmlns:dc="http://purl.org/dc/elements/1.1/"
   xmlns:cc="http://creativecommons.org/ns#"
   xmlns:rdf="http://www.w3.org/1999/02/22-rdf-syntax-ns#"
   xmlns:svg="http://www.w3.org/2000/svg"
   xmlns="http://www.w3.org/2000/svg"
   xmlns:sodipodi="http://sodipodi.sourceforge.net/DTD/sodipodi-0.dtd"
   xmlns:inkscape="http://www.inkscape.org/namespaces/inkscape"
   width="74.115227mm"
   height="17.664289mm"
   viewBox="0 0 262.613 62.590002"
   id="svg4301"
   version="1.1"
   inkscape:version="0.91 r13725"
   sodipodi:docname="Horizontal_Gray.svg"
   inkscape:export-filename="E:\Nextcloud\cloud.ura.design\Projects\OpenStreetMap Albania Logo\Export\Horizontal_Gray.png"
   inkscape:export-xdpi="232.94617"
   inkscape:export-ydpi="232.94617">
  <title
     id="title4943">OpenStreetMap Albania Logo</title>
  <defs
     id="defs4303" />
  <sodipodi:namedview
     id="base"
     pagecolor="#ffffff"
     bordercolor="#bbbbbb"
     borderopacity="1"
     inkscape:pageopacity="0"
     inkscape:pageshadow="2"
     inkscape:zoom="1.979899"
     inkscape:cx="41.515106"
     inkscape:cy="-1.6681094"
     inkscape:document-units="px"
     inkscape:current-layer="g3986"
     showgrid="false"
     fit-margin-top="0"
     fit-margin-left="0"
     fit-margin-right="0"
     fit-margin-bottom="0"
     inkscape:window-width="1920"
     inkscape:window-height="1018"
     inkscape:window-x="-8"
     inkscape:window-y="-8"
     inkscape:window-maximized="1"
     inkscape:showpageshadow="false"
     showborder="true"
     borderlayer="true" />
  <metadata
     id="metadata4306">
    <rdf:RDF>
      <cc:Work
         rdf:about="">
        <dc:format>image/svg+xml</dc:format>
        <dc:type
           rdf:resource="http://purl.org/dc/dcmitype/StillImage" />
        <dc:title>OpenStreetMap Albania Logo</dc:title>
        <cc:license
           rdf:resource="http://creativecommons.org/licenses/by-sa/3.0/" />
        <dc:date>28 January 2017</dc:date>
        <dc:creator>
          <cc:Agent>
            <dc:title>Ura Design</dc:title>
          </cc:Agent>
        </dc:creator>
        <dc:rights>
          <cc:Agent>
            <dc:title>Some Rights Reserved - Licensed under CC-BY-SA </dc:title>
          </cc:Agent>
        </dc:rights>
        <dc:source>www.ura.design</dc:source>
        <dc:subject>
          <rdf:Bag>
            <rdf:li>OpenStreetMap Albania Logo</rdf:li>
          </rdf:Bag>
        </dc:subject>
        <dc:contributor>
          <cc:Agent>
            <dc:title>Anxhelo Lushka
Elio Qoshi
Giannis Konstantinidis
Redon Skikuli</dc:title>
          </cc:Agent>
        </dc:contributor>
        <dc:language />
        <dc:description>Revised logo for OpenStreetMap Albania</dc:description>
      </cc:Work>
      <cc:License
         rdf:about="http://creativecommons.org/licenses/by-sa/3.0/">
        <cc:permits
           rdf:resource="http://creativecommons.org/ns#Reproduction" />
        <cc:permits
           rdf:resource="http://creativecommons.org/ns#Distribution" />
        <cc:requires
           rdf:resource="http://creativecommons.org/ns#Notice" />
        <cc:requires
           rdf:resource="http://creativecommons.org/ns#Attribution" />
        <cc:permits
           rdf:resource="http://creativecommons.org/ns#DerivativeWorks" />
        <cc:requires
           rdf:resource="http://creativecommons.org/ns#ShareAlike" />
      </cc:License>
    </rdf:RDF>
  </metadata>
  <g
     inkscape:label="Layer 1"
     inkscape:groupmode="layer"
     id="layer1"
     transform="translate(0.96109,28.62429)">
    <g
       transform="translate(-288.10109,-324.05829)"
       id="g3974">
      <polygon
         style="fill:#454646"
         points="302.475,352.751 311.935,350.973 326.074,355.491 332.199,355.332 330.146,348.868 318.442,350.092 309.213,346.013 "
         id="polygon3976" />
      <path
         style="fill:#454646"
         inkscape:connector-curvature="0"
         d="m 328.332,340.855 c -4.74,0 -9.388,-1.422 -13.311,-4.041 l -0.663,0.663 0.036,2.281 0.017,1.059 -0.749,0.749 -1.004,1.004 6.347,3.036 15.628,-1.985 2.858,11.631 6.491,-0.187 -4.497,-10.819 1.436,-6.977 c -3.661,2.271 -7.974,3.586 -12.589,3.586 z"
         id="path3978" />
      <path
         style="fill:#454646"
         inkscape:connector-curvature="0"
         d="m 304.516,330.923 1.059,0.017 2.281,0.036 0.644,-0.643 c -2.676,-3.95 -4.129,-8.642 -4.129,-13.438 0,-7.454 3.422,-14.123 8.777,-18.521 l -0.711,-0.272 -10.773,4.099 -3.08,7.522 3.434,8.079 -5.564,10.68 -8.382,-2.66 5.508,10.067 -2.723,8.695 12.912,-12.913 0.747,-0.748 z"
         id="path3980" />
      <polygon
         style="fill:#454646"
         points="291.956,310.74 287.662,322.008 295.068,324.357 298.016,317.373 294.966,310.196 298.102,302.28 287.14,298.102 "
         id="polygon3982" />
      <path
         style="fill:#454646"
         inkscape:connector-curvature="0"
         d="m 287.309,351.667 6.357,6.357 18.227,-18.226 -0.052,-3.339 2.932,-2.932 c 3.82,3.116 8.623,4.829 13.559,4.829 11.833,0 21.461,-9.627 21.461,-21.461 0,-11.834 -9.627,-21.461 -21.461,-21.461 -11.834,0 -21.461,9.627 -21.461,21.461 0,4.991 1.748,9.833 4.928,13.675 l -2.923,2.923 -3.339,-0.052 -18.228,18.226 z m 41.023,-49.951 c 8.369,0 15.178,6.809 15.178,15.179 0,8.369 -6.809,15.178 -15.178,15.178 -8.369,0 -15.179,-6.809 -15.179,-15.178 0,-8.37 6.809,-15.179 15.179,-15.179 z"
         id="path3984" />
    </g>
    <g
       transform="translate(-288.10109,-324.05829)"
       id="g3986">
      <path
         style="fill:#454646"
         inkscape:connector-curvature="0"
         d="m 370.963,321.379 c -1.037,0 -1.966,-0.136 -2.788,-0.408 -0.822,-0.272 -1.548,-0.644 -2.178,-1.113 -0.63,-0.469 -1.168,-1.022 -1.615,-1.661 -0.446,-0.639 -0.811,-1.327 -1.092,-2.064 -0.282,-0.737 -0.487,-1.506 -0.617,-2.305 -0.129,-0.8 -0.194,-1.598 -0.194,-2.393 0,-0.786 0.065,-1.579 0.194,-2.379 0.13,-0.8 0.335,-1.568 0.617,-2.306 0.281,-0.737 0.646,-1.425 1.092,-2.063 0.447,-0.639 0.985,-1.193 1.615,-1.662 0.63,-0.469 1.355,-0.84 2.178,-1.112 0.823,-0.272 1.751,-0.409 2.788,-0.409 1.036,0 1.963,0.137 2.78,0.409 0.818,0.272 1.539,0.644 2.165,1.112 0.625,0.469 1.161,1.023 1.608,1.662 0.446,0.639 0.811,1.326 1.092,2.063 0.282,0.737 0.487,1.506 0.617,2.306 0.129,0.8 0.194,1.593 0.194,2.379 0,0.795 -0.065,1.593 -0.194,2.393 -0.13,0.799 -0.335,1.567 -0.617,2.305 -0.281,0.737 -0.646,1.426 -1.092,2.064 -0.447,0.639 -0.983,1.192 -1.608,1.661 -0.626,0.47 -1.347,0.841 -2.165,1.113 -0.817,0.272 -1.744,0.408 -2.78,0.408 z m 0,-3.578 c 0.857,0 1.579,-0.201 2.164,-0.604 0.585,-0.403 1.059,-0.916 1.421,-1.541 0.361,-0.625 0.623,-1.312 0.784,-2.058 0.16,-0.746 0.241,-1.468 0.241,-2.164 0,-0.491 -0.033,-0.989 -0.101,-1.494 -0.068,-0.505 -0.177,-0.992 -0.328,-1.461 -0.152,-0.47 -0.349,-0.912 -0.59,-1.327 -0.241,-0.416 -0.532,-0.777 -0.871,-1.086 -0.34,-0.308 -0.735,-0.552 -1.187,-0.73 -0.452,-0.178 -0.963,-0.268 -1.534,-0.268 -0.581,0 -1.098,0.094 -1.548,0.281 -0.452,0.188 -0.85,0.44 -1.193,0.757 -0.344,0.317 -0.637,0.687 -0.878,1.106 -0.241,0.419 -0.438,0.866 -0.59,1.34 -0.151,0.474 -0.261,0.956 -0.328,1.447 -0.067,0.492 -0.101,0.97 -0.101,1.435 0,0.732 0.08,1.477 0.241,2.231 0.161,0.754 0.422,1.438 0.784,2.051 0.362,0.611 0.838,1.112 1.428,1.501 0.59,0.389 1.319,0.584 2.186,0.584 z"
         id="path3988" />
      <path
         style="fill:#454646"
         inkscape:connector-curvature="0"
         d="m 388.723,321.379 c -0.688,0 -1.282,-0.125 -1.783,-0.375 -0.5,-0.25 -0.902,-0.576 -1.206,-0.979 l 0,4.892 -3.564,1.622 0,-19.527 3.564,0 0,1.019 c 0.304,-0.402 0.708,-0.726 1.213,-0.972 0.505,-0.246 1.105,-0.369 1.803,-0.369 0.866,0 1.657,0.161 2.372,0.482 0.715,0.322 1.325,0.794 1.83,1.414 0.504,0.621 0.896,1.39 1.172,2.306 0.277,0.916 0.416,1.968 0.416,3.156 0,1.144 -0.146,2.169 -0.436,3.076 -0.291,0.906 -0.695,1.675 -1.213,2.305 -0.519,0.63 -1.133,1.112 -1.843,1.447 -0.711,0.336 -1.485,0.503 -2.325,0.503 z m -0.55,-3.431 c 0.894,0 1.584,-0.338 2.07,-1.012 0.487,-0.675 0.73,-1.638 0.73,-2.889 0,-0.599 -0.06,-1.14 -0.181,-1.622 -0.12,-0.482 -0.3,-0.893 -0.536,-1.232 -0.236,-0.339 -0.529,-0.604 -0.878,-0.791 -0.349,-0.187 -0.75,-0.281 -1.206,-0.281 -0.581,0 -1.067,0.099 -1.461,0.295 -0.394,0.196 -0.72,0.474 -0.979,0.831 l 0,5.548 c 0.09,0.135 0.21,0.271 0.362,0.409 0.151,0.139 0.33,0.264 0.536,0.375 0.205,0.112 0.438,0.201 0.696,0.269 0.262,0.066 0.543,0.1 0.847,0.1 z"
         id="path3990" />
      <path
         style="fill:#454646"
         inkscape:connector-curvature="0"
         d="m 402.756,321.379 c -1.019,0 -1.933,-0.167 -2.741,-0.503 -0.809,-0.335 -1.496,-0.819 -2.063,-1.454 -0.568,-0.634 -1.004,-1.407 -1.308,-2.318 -0.304,-0.911 -0.455,-1.938 -0.455,-3.082 0,-1.145 0.151,-2.169 0.455,-3.076 0.304,-0.907 0.742,-1.676 1.313,-2.306 0.572,-0.63 1.263,-1.112 2.071,-1.447 0.808,-0.335 1.718,-0.503 2.728,-0.503 0.866,0 1.68,0.135 2.439,0.402 0.759,0.269 1.416,0.675 1.97,1.22 0.554,0.545 0.992,1.231 1.313,2.058 0.321,0.827 0.482,1.803 0.482,2.928 0,0.277 -0.005,0.605 -0.014,0.985 -0.009,0.38 -0.04,0.758 -0.094,1.133 l -9.141,0 c 0.036,0.455 0.144,0.857 0.322,1.206 0.178,0.349 0.404,0.644 0.677,0.885 0.273,0.241 0.583,0.424 0.932,0.55 0.348,0.125 0.719,0.188 1.112,0.188 0.643,0 1.206,-0.114 1.688,-0.342 0.482,-0.229 0.925,-0.597 1.327,-1.106 l 2.197,2.212 c -0.589,0.724 -1.313,1.3 -2.171,1.729 -0.854,0.427 -1.869,0.641 -3.039,0.641 z m 0,-11.567 c -0.84,0 -1.526,0.21 -2.058,0.63 -0.532,0.42 -0.851,1.072 -0.958,1.957 l 5.736,0 c -0.116,-0.831 -0.42,-1.47 -0.912,-1.917 -0.49,-0.446 -1.093,-0.67 -1.808,-0.67 z"
         id="path3992" />
      <path
         style="fill:#454646"
         inkscape:connector-curvature="0"
         d="m 419.832,321.044 0,-8.229 c 0,-0.473 -0.063,-0.88 -0.188,-1.22 -0.125,-0.339 -0.3,-0.618 -0.522,-0.837 -0.224,-0.219 -0.482,-0.38 -0.777,-0.482 -0.295,-0.102 -0.617,-0.154 -0.965,-0.154 -0.367,0 -0.711,0.047 -1.032,0.141 -0.322,0.094 -0.604,0.246 -0.845,0.456 -0.241,0.21 -0.431,0.482 -0.569,0.817 -0.138,0.335 -0.208,0.743 -0.208,1.226 l 0,8.283 -3.564,0 0,-14.032 3.564,0 0,1.326 c 0.429,-0.526 0.958,-0.933 1.588,-1.219 0.63,-0.286 1.352,-0.43 2.165,-0.43 0.599,0 1.192,0.09 1.782,0.269 0.59,0.179 1.117,0.482 1.582,0.911 0.464,0.429 0.84,0.996 1.126,1.702 0.285,0.706 0.429,1.586 0.429,2.641 l 0,8.832 -3.566,0 z"
         id="path3994" />
      <path
         style="fill:#454646"
         inkscape:connector-curvature="0"
         d="m 437,307.052 c -0.116,-0.286 -0.272,-0.554 -0.469,-0.804 -0.196,-0.251 -0.431,-0.467 -0.703,-0.65 -0.273,-0.184 -0.586,-0.326 -0.938,-0.429 -0.354,-0.103 -0.744,-0.154 -1.173,-0.154 -0.804,0 -1.432,0.161 -1.883,0.482 -0.451,0.321 -0.677,0.772 -0.677,1.354 0,0.385 0.143,0.706 0.429,0.965 0.286,0.26 0.661,0.494 1.126,0.704 0.464,0.21 0.993,0.408 1.588,0.596 0.594,0.188 1.204,0.396 1.829,0.624 0.626,0.228 1.235,0.495 1.83,0.804 0.594,0.309 1.123,0.688 1.588,1.14 0.465,0.452 0.84,0.987 1.126,1.608 0.286,0.621 0.429,1.364 0.429,2.231 0,0.938 -0.179,1.769 -0.536,2.492 -0.357,0.723 -0.847,1.336 -1.468,1.837 -0.621,0.5 -1.355,0.88 -2.204,1.139 -0.85,0.259 -1.765,0.389 -2.748,0.389 -0.902,0 -1.747,-0.123 -2.533,-0.368 -0.786,-0.246 -1.499,-0.597 -2.138,-1.053 -0.639,-0.455 -1.194,-1.009 -1.668,-1.661 -0.474,-0.652 -0.85,-1.386 -1.126,-2.198 l 3.377,-1.26 c 0.206,0.446 0.454,0.855 0.744,1.226 0.29,0.371 0.614,0.688 0.972,0.952 0.358,0.264 0.744,0.469 1.159,0.616 0.416,0.147 0.86,0.222 1.334,0.222 0.464,0 0.887,-0.05 1.267,-0.147 0.379,-0.099 0.705,-0.246 0.979,-0.442 0.272,-0.196 0.482,-0.44 0.63,-0.73 0.148,-0.29 0.221,-0.628 0.221,-1.012 0,-0.465 -0.143,-0.855 -0.429,-1.173 -0.286,-0.318 -0.661,-0.595 -1.126,-0.831 -0.465,-0.236 -0.994,-0.451 -1.588,-0.644 -0.595,-0.192 -1.202,-0.396 -1.823,-0.609 -0.621,-0.215 -1.229,-0.465 -1.822,-0.751 -0.595,-0.286 -1.124,-0.639 -1.589,-1.059 -0.464,-0.42 -0.84,-0.925 -1.125,-1.515 -0.286,-0.59 -0.43,-1.305 -0.43,-2.145 0,-0.724 0.146,-1.404 0.436,-2.044 0.291,-0.639 0.713,-1.199 1.267,-1.682 0.555,-0.482 1.233,-0.864 2.037,-1.146 0.805,-0.281 1.725,-0.422 2.762,-0.422 0.866,0 1.65,0.112 2.352,0.335 0.701,0.224 1.32,0.534 1.856,0.932 0.536,0.398 0.987,0.867 1.354,1.407 0.366,0.541 0.644,1.133 0.831,1.776 L 437,307.052 Z"
         id="path3996" />
      <path
         style="fill:#454646"
         inkscape:connector-curvature="0"
         d="m 447.871,321.379 c -0.608,0 -1.126,-0.085 -1.555,-0.255 -0.429,-0.169 -0.78,-0.413 -1.053,-0.73 -0.272,-0.316 -0.474,-0.705 -0.603,-1.166 -0.13,-0.46 -0.194,-0.98 -0.194,-1.561 l 0,-7.52 -2.011,0 0,-3.136 2.011,0 0,-4.088 3.564,-1.702 0,5.79 3.137,0 0,3.136 -3.137,0 0,6.996 c 0,0.357 0.088,0.63 0.262,0.817 0.174,0.188 0.418,0.282 0.73,0.282 0.357,0 0.729,-0.052 1.112,-0.154 0.383,-0.102 0.782,-0.253 1.193,-0.449 l -0.416,3.096 c -0.411,0.206 -0.876,0.364 -1.394,0.477 -0.516,0.111 -1.066,0.167 -1.646,0.167 z"
         id="path3998" />
      <path
         style="fill:#454646"
         inkscape:connector-curvature="0"
         d="m 453.395,321.044 0,-14.032 3.564,0 0,1.246 c 0.196,-0.446 0.507,-0.819 0.932,-1.119 0.424,-0.299 0.98,-0.449 1.669,-0.449 0.58,0 1.101,0.094 1.562,0.282 0.46,0.188 0.891,0.451 1.293,0.79 l -0.482,3.257 c -0.34,-0.231 -0.713,-0.426 -1.119,-0.583 -0.407,-0.156 -0.887,-0.234 -1.441,-0.234 -0.313,0 -0.614,0.045 -0.904,0.134 -0.29,0.09 -0.547,0.246 -0.771,0.47 -0.224,0.224 -0.402,0.531 -0.536,0.925 -0.134,0.393 -0.201,0.889 -0.201,1.487 l 0,7.827 -3.566,0 z"
         id="path4000" />
      <path
         style="fill:#454646"
         inkscape:connector-curvature="0"
         d="m 469.948,321.379 c -1.019,0 -1.933,-0.167 -2.741,-0.503 -0.809,-0.335 -1.496,-0.819 -2.063,-1.454 -0.568,-0.634 -1.004,-1.407 -1.308,-2.318 -0.304,-0.911 -0.455,-1.938 -0.455,-3.082 0,-1.145 0.151,-2.169 0.455,-3.076 0.304,-0.907 0.742,-1.676 1.313,-2.306 0.572,-0.63 1.263,-1.112 2.071,-1.447 0.808,-0.335 1.718,-0.503 2.728,-0.503 0.866,0 1.68,0.135 2.439,0.402 0.759,0.269 1.416,0.675 1.97,1.22 0.554,0.545 0.992,1.231 1.313,2.058 0.321,0.827 0.482,1.803 0.482,2.928 0,0.277 -0.005,0.605 -0.014,0.985 -0.009,0.38 -0.04,0.758 -0.094,1.133 l -9.141,0 c 0.036,0.455 0.144,0.857 0.322,1.206 0.178,0.349 0.404,0.644 0.677,0.885 0.273,0.241 0.583,0.424 0.932,0.55 0.348,0.125 0.719,0.188 1.112,0.188 0.643,0 1.206,-0.114 1.688,-0.342 0.482,-0.229 0.925,-0.597 1.327,-1.106 l 2.197,2.212 c -0.589,0.724 -1.313,1.3 -2.171,1.729 -0.855,0.427 -1.87,0.641 -3.039,0.641 z m 0,-11.567 c -0.84,0 -1.526,0.21 -2.058,0.63 -0.532,0.42 -0.851,1.072 -0.958,1.957 l 5.736,0 c -0.116,-0.831 -0.42,-1.47 -0.912,-1.917 -0.491,-0.446 -1.094,-0.67 -1.808,-0.67 z"
         id="path4002" />
      <path
         style="fill:#454646"
         inkscape:connector-curvature="0"
         d="m 484.223,321.379 c -1.019,0 -1.933,-0.167 -2.741,-0.503 -0.809,-0.335 -1.496,-0.819 -2.063,-1.454 -0.568,-0.634 -1.004,-1.407 -1.308,-2.318 -0.304,-0.911 -0.455,-1.938 -0.455,-3.082 0,-1.145 0.151,-2.169 0.455,-3.076 0.304,-0.907 0.742,-1.676 1.313,-2.306 0.572,-0.63 1.263,-1.112 2.071,-1.447 0.808,-0.335 1.718,-0.503 2.728,-0.503 0.866,0 1.68,0.135 2.439,0.402 0.759,0.269 1.416,0.675 1.97,1.22 0.554,0.545 0.992,1.231 1.313,2.058 0.321,0.827 0.482,1.803 0.482,2.928 0,0.277 -0.005,0.605 -0.014,0.985 -0.009,0.38 -0.04,0.758 -0.094,1.133 l -9.141,0 c 0.036,0.455 0.144,0.857 0.322,1.206 0.178,0.349 0.404,0.644 0.677,0.885 0.273,0.241 0.583,0.424 0.932,0.55 0.348,0.125 0.719,0.188 1.112,0.188 0.643,0 1.206,-0.114 1.688,-0.342 0.482,-0.229 0.925,-0.597 1.327,-1.106 l 2.197,2.212 c -0.589,0.724 -1.313,1.3 -2.171,1.729 -0.854,0.427 -1.869,0.641 -3.039,0.641 z m 0,-11.567 c -0.84,0 -1.526,0.21 -2.058,0.63 -0.532,0.42 -0.851,1.072 -0.958,1.957 l 5.736,0 c -0.116,-0.831 -0.42,-1.47 -0.912,-1.917 -0.491,-0.446 -1.093,-0.67 -1.808,-0.67 z"
         id="path4004" />
      <path
         style="fill:#454646"
         inkscape:connector-curvature="0"
         d="m 496.796,321.379 c -0.608,0 -1.126,-0.085 -1.555,-0.255 -0.429,-0.169 -0.78,-0.413 -1.053,-0.73 -0.272,-0.316 -0.474,-0.705 -0.603,-1.166 -0.13,-0.46 -0.194,-0.98 -0.194,-1.561 l 0,-7.52 -2.011,0 0,-3.136 2.011,0 0,-4.088 3.564,-1.702 0,5.79 3.137,0 0,3.136 -3.137,0 0,6.996 c 0,0.357 0.088,0.63 0.262,0.817 0.174,0.188 0.418,0.282 0.73,0.282 0.357,0 0.729,-0.052 1.112,-0.154 0.383,-0.102 0.782,-0.253 1.193,-0.449 l -0.416,3.096 c -0.411,0.206 -0.876,0.364 -1.394,0.477 -0.516,0.111 -1.066,0.167 -1.646,0.167 z"
         id="path4006" />
      <path
         style="fill:#454646"
         inkscape:connector-curvature="0"
         d="m 518.875,321.044 0,-14.218 -6.408,14.547 -5.971,-14.465 0,14.136 -1.949,0 0,-19.214 1.65,0 6.434,14.959 6.516,-14.959 1.678,0 0,19.214 -1.95,0 z"
         id="path4008" />
      <path
         style="fill:#454646"
         inkscape:connector-curvature="0"
         d="m 533.121,321.044 0,-1.372 c -0.567,0.512 -1.203,0.924 -1.907,1.234 -0.705,0.312 -1.441,0.467 -2.21,0.467 -1.409,0 -2.558,-0.397 -3.444,-1.193 -0.888,-0.796 -1.332,-1.98 -1.332,-3.555 0,-0.806 0.142,-1.5 0.426,-2.086 0.283,-0.586 0.659,-1.066 1.125,-1.441 0.467,-0.375 1.012,-0.654 1.634,-0.837 0.622,-0.183 1.263,-0.274 1.921,-0.274 0.586,0 1.189,0.073 1.812,0.22 0.623,0.147 1.281,0.402 1.977,0.769 l 0,-1.181 c 0,-0.714 -0.087,-1.29 -0.261,-1.729 -0.174,-0.439 -0.402,-0.786 -0.687,-1.043 -0.283,-0.256 -0.613,-0.43 -0.987,-0.521 -0.376,-0.091 -0.755,-0.137 -1.14,-0.137 -0.348,0 -0.714,0.046 -1.098,0.137 -0.385,0.092 -0.76,0.211 -1.126,0.356 -0.366,0.147 -0.718,0.307 -1.057,0.48 -0.339,0.175 -0.636,0.353 -0.892,0.535 l -0.549,-1.646 c 0.566,-0.366 1.285,-0.714 2.154,-1.043 0.869,-0.329 1.788,-0.494 2.759,-0.494 0.494,0 1.016,0.068 1.564,0.206 0.549,0.137 1.052,0.384 1.51,0.741 0.457,0.356 0.837,0.851 1.139,1.481 0.302,0.632 0.453,1.441 0.453,2.43 l 0,9.497 -1.784,0 z m -3.924,-1.345 c 0.421,0 0.823,-0.064 1.208,-0.192 0.384,-0.128 0.74,-0.293 1.07,-0.494 0.329,-0.201 0.631,-0.435 0.905,-0.7 0.274,-0.265 0.521,-0.525 0.741,-0.782 l 0,-2.717 c -0.457,-0.312 -1.021,-0.581 -1.688,-0.81 -0.669,-0.229 -1.305,-0.344 -1.908,-0.344 -0.476,0 -0.924,0.06 -1.345,0.179 -0.421,0.119 -0.792,0.302 -1.111,0.549 -0.321,0.247 -0.577,0.554 -0.769,0.92 -0.192,0.366 -0.289,0.805 -0.289,1.317 0,0.933 0.274,1.679 0.824,2.236 0.55,0.559 1.336,0.838 2.362,0.838 z"
         id="path4010" />
      <path
         style="fill:#454646"
         inkscape:connector-curvature="0"
         d="m 543.98,321.373 c -0.985,0 -1.771,-0.174 -2.354,-0.521 -0.585,-0.347 -1.077,-0.759 -1.479,-1.235 l 0,6.039 -1.948,0.961 0,-19.599 1.948,0 0,1.263 c 0.456,-0.421 0.972,-0.791 1.546,-1.111 0.575,-0.32 1.337,-0.48 2.286,-0.48 0.894,0 1.697,0.174 2.408,0.521 0.712,0.348 1.318,0.842 1.82,1.482 0.502,0.64 0.885,1.413 1.149,2.319 0.265,0.905 0.397,1.907 0.397,3.006 0,1.171 -0.142,2.214 -0.425,3.129 -0.282,0.915 -0.68,1.684 -1.19,2.306 -0.51,0.622 -1.122,1.098 -1.834,1.427 -0.71,0.329 -1.485,0.493 -2.324,0.493 z m -0.222,-1.729 c 1.276,0 2.261,-0.48 2.953,-1.441 0.693,-0.961 1.04,-2.355 1.04,-4.186 0,-1.72 -0.352,-3.084 -1.053,-4.09 -0.702,-1.007 -1.683,-1.51 -2.94,-1.51 -0.766,0 -1.464,0.188 -2.093,0.563 -0.629,0.375 -1.135,0.91 -1.518,1.605 l 0,6.89 c 0.475,0.622 1.003,1.14 1.586,1.551 0.585,0.412 1.259,0.618 2.025,0.618 z"
         id="path4012" />
    </g>
    <g
       transform="translate(-288.10109,-324.05829)"
       id="g4014">
      <path
         style="fill:#454646"
         inkscape:connector-curvature="0"
         d="m 395.204,338.788 c -0.279,-0.279 -0.66,-0.504 -1.142,-0.672 -0.482,-0.168 -1.099,-0.252 -1.853,-0.252 l -3.287,0 0,5.67 3.978,0 c 0.601,0 1.1,-0.076 1.497,-0.23 0.397,-0.154 0.712,-0.354 0.942,-0.599 0.23,-0.245 0.391,-0.528 0.481,-0.851 0.09,-0.323 0.137,-0.651 0.137,-0.987 0,-0.392 -0.057,-0.767 -0.168,-1.123 -0.11,-0.357 -0.307,-0.675 -0.585,-0.956 z"
         id="path4016" />
      <path
         style="fill:#454646"
         inkscape:connector-curvature="0"
         d="m 404.431,333.182 c -0.091,-0.28 -0.15,-0.49 -0.179,-0.63 -0.042,0.14 -0.102,0.35 -0.178,0.63 -0.077,0.28 -0.151,0.511 -0.221,0.692 l -2.017,5.881 4.852,0 -2.017,-5.881 c -0.069,-0.181 -0.149,-0.412 -0.24,-0.692 z"
         id="path4018" />
      <path
         style="fill:#454646"
         inkscape:connector-curvature="0"
         d="m 394.563,335.869 c 0.579,-0.476 0.869,-1.112 0.869,-1.911 0,-0.294 -0.042,-0.591 -0.126,-0.892 -0.084,-0.302 -0.233,-0.567 -0.45,-0.799 -0.216,-0.23 -0.52,-0.42 -0.91,-0.566 -0.391,-0.147 -0.894,-0.221 -1.507,-0.221 l -3.517,0 0,5.103 3.035,0 c 1.159,0 2.027,-0.237 2.606,-0.714 z"
         id="path4020" />
      <path
         style="fill:#454646"
         inkscape:connector-curvature="0"
         d="m 359.947,326.963 0,20.848 85.342,0 0,-20.848 -85.342,0 z m 12.827,17.895 -1.345,-3.801 -5.732,0 -1.281,3.801 -1.533,0 5.104,-14.7 1.134,0 5.145,14.7 -1.492,0 z m 12.474,0 -8.778,0 0,-14.7 1.491,0 0,13.293 7.287,0 0,1.407 z m 11.854,-2.625 c -0.147,0.49 -0.403,0.928 -0.767,1.313 -0.364,0.385 -0.848,0.7 -1.449,0.945 -0.603,0.245 -1.352,0.367 -2.247,0.367 l -5.208,0 0,-14.7 4.872,0 c 0.854,0 1.571,0.112 2.152,0.336 0.581,0.225 1.043,0.515 1.386,0.872 0.343,0.356 0.588,0.767 0.735,1.229 0.146,0.462 0.221,0.931 0.221,1.406 0,0.757 -0.21,1.396 -0.63,1.922 -0.42,0.526 -0.98,0.921 -1.681,1.187 0.798,0.196 1.471,0.599 2.017,1.208 0.546,0.608 0.818,1.417 0.818,2.425 10e-4,0.502 -0.072,0.999 -0.219,1.49 z m 11.372,2.625 -1.345,-3.801 -5.732,0 -1.281,3.801 -1.533,0 5.104,-14.7 1.134,0 5.145,14.7 -1.492,0 z m 14.111,0 -1.512,0 -7.413,-11.949 0,11.949 -1.491,0 0,-14.7 1.491,0 7.434,12.117 0,-12.117 1.491,0 0,14.7 z m 5.04,0 -1.491,0 0,-14.7 1.491,0 0,14.7 z m 12.075,0 -1.345,-3.801 -5.732,0 -1.281,3.801 -1.533,0 5.104,-14.7 1.134,0 5.145,14.7 -1.492,0 z"
         id="path4022" />
      <path
         style="fill:#454646"
         inkscape:connector-curvature="0"
         d="m 368.731,333.182 c -0.091,-0.28 -0.15,-0.49 -0.179,-0.63 -0.042,0.14 -0.102,0.35 -0.178,0.63 -0.077,0.28 -0.151,0.511 -0.221,0.692 l -2.017,5.881 4.852,0 -2.017,-5.881 c -0.069,-0.181 -0.149,-0.412 -0.24,-0.692 z"
         id="path4024" />
      <path
         style="fill:#454646"
         inkscape:connector-curvature="0"
         d="m 435.657,333.182 c -0.091,-0.28 -0.15,-0.49 -0.179,-0.63 -0.042,0.14 -0.102,0.35 -0.178,0.63 -0.077,0.28 -0.151,0.511 -0.221,0.692 l -2.017,5.881 4.852,0 -2.017,-5.881 c -0.069,-0.181 -0.149,-0.412 -0.24,-0.692 z"
         id="path4026" />
    </g>
  </g>
</svg>
