<?xml version="1.0" encoding="UTF-8" standalone="no"?>
<!-- Created with Inkscape (http://www.inkscape.org/) -->

<svg
   xmlns:dc="http://purl.org/dc/elements/1.1/"
   xmlns:cc="http://creativecommons.org/ns#"
   xmlns:rdf="http://www.w3.org/1999/02/22-rdf-syntax-ns#"
   xmlns:svg="http://www.w3.org/2000/svg"
   xmlns="http://www.w3.org/2000/svg"
   xmlns:sodipodi="http://sodipodi.sourceforge.net/DTD/sodipodi-0.dtd"
   xmlns:inkscape="http://www.inkscape.org/namespaces/inkscape"
   width="17.68207mm"
   height="17.664289mm"
   viewBox="0 0 62.653001 62.590002"
   id="svg4301"
   version="1.1"
   inkscape:version="0.91 r13725"
   sodipodi:docname="Icon_White.svg"
   inkscape:export-filename="E:\Nextcloud\cloud.ura.design\Projects\OpenStreetMap Albania Logo\Export\Horizontal_Gray.png"
   inkscape:export-xdpi="232.94617"
   inkscape:export-ydpi="232.94617">
  <title
     id="title4943">OpenStreetMap Albania Logo</title>
  <defs
     id="defs4303" />
  <sodipodi:namedview
     id="base"
     pagecolor="#ffffff"
     bordercolor="#bbbbbb"
     borderopacity="1"
     inkscape:pageopacity="0"
     inkscape:pageshadow="2"
     inkscape:zoom="1.979899"
     inkscape:cx="41.515106"
     inkscape:cy="-1.6681115"
     inkscape:document-units="px"
     inkscape:current-layer="layer1"
     showgrid="false"
     fit-margin-top="0"
     fit-margin-left="0"
     fit-margin-right="0"
     fit-margin-bottom="0"
     inkscape:window-width="1920"
     inkscape:window-height="1018"
     inkscape:window-x="-8"
     inkscape:window-y="-8"
     inkscape:window-maximized="1"
     inkscape:showpageshadow="false"
     showborder="true"
     borderlayer="true" />
  <metadata
     id="metadata4306">
    <rdf:RDF>
      <cc:Work
         rdf:about="">
        <dc:format>image/svg+xml</dc:format>
        <dc:type
           rdf:resource="http://purl.org/dc/dcmitype/StillImage" />
        <dc:title>OpenStreetMap Albania Logo</dc:title>
        <cc:license
           rdf:resource="http://creativecommons.org/licenses/by-sa/3.0/" />
        <dc:date>28 January 2017</dc:date>
        <dc:creator>
          <cc:Agent>
            <dc:title>Ura Design</dc:title>
          </cc:Agent>
        </dc:creator>
        <dc:rights>
          <cc:Agent>
            <dc:title>Some Rights Reserved - Licensed under CC-BY-SA </dc:title>
          </cc:Agent>
        </dc:rights>
        <dc:source>www.ura.design</dc:source>
        <dc:subject>
          <rdf:Bag>
            <rdf:li>OpenStreetMap Albania Logo</rdf:li>
          </rdf:Bag>
        </dc:subject>
        <dc:contributor>
          <cc:Agent>
            <dc:title>Anxhelo Lushka
Elio Qoshi
Giannis Konstantinidis
Redon Skikuli</dc:title>
          </cc:Agent>
        </dc:contributor>
        <dc:language />
        <dc:description>Revised logo for OpenStreetMap Albania</dc:description>
      </cc:Work>
      <cc:License
         rdf:about="http://creativecommons.org/licenses/by-sa/3.0/">
        <cc:permits
           rdf:resource="http://creativecommons.org/ns#Reproduction" />
        <cc:permits
           rdf:resource="http://creativecommons.org/ns#Distribution" />
        <cc:requires
           rdf:resource="http://creativecommons.org/ns#Notice" />
        <cc:requires
           rdf:resource="http://creativecommons.org/ns#Attribution" />
        <cc:permits
           rdf:resource="http://creativecommons.org/ns#DerivativeWorks" />
        <cc:requires
           rdf:resource="http://creativecommons.org/ns#ShareAlike" />
      </cc:License>
    </rdf:RDF>
  </metadata>
  <g
     inkscape:label="Layer 1"
     inkscape:groupmode="layer"
     id="layer1"
     transform="translate(0.96109,28.62429)">
    <g
       transform="translate(-288.10109,-324.05829)"
       id="g3974"
       style="fill:#ffffff">
      <polygon
         style="fill:#ffffff"
         points="332.199,355.332 330.146,348.868 318.442,350.092 309.213,346.013 302.475,352.751 311.935,350.973 326.074,355.491 "
         id="polygon3976" />
      <path
         style="fill:#ffffff"
         inkscape:connector-curvature="0"
         d="m 328.332,340.855 c -4.74,0 -9.388,-1.422 -13.311,-4.041 l -0.663,0.663 0.036,2.281 0.017,1.059 -0.749,0.749 -1.004,1.004 6.347,3.036 15.628,-1.985 2.858,11.631 6.491,-0.187 -4.497,-10.819 1.436,-6.977 c -3.661,2.271 -7.974,3.586 -12.589,3.586 z"
         id="path3978" />
      <path
         style="fill:#ffffff"
         inkscape:connector-curvature="0"
         d="m 304.516,330.923 1.059,0.017 2.281,0.036 0.644,-0.643 c -2.676,-3.95 -4.129,-8.642 -4.129,-13.438 0,-7.454 3.422,-14.123 8.777,-18.521 l -0.711,-0.272 -10.773,4.099 -3.08,7.522 3.434,8.079 -5.564,10.68 -8.382,-2.66 5.508,10.067 -2.723,8.695 12.912,-12.913 0.747,-0.748 z"
         id="path3980" />
      <polygon
         style="fill:#ffffff"
         points="298.016,317.373 294.966,310.196 298.102,302.28 287.14,298.102 291.956,310.74 287.662,322.008 295.068,324.357 "
         id="polygon3982" />
      <path
         style="fill:#ffffff"
         inkscape:connector-curvature="0"
         d="m 287.309,351.667 6.357,6.357 18.227,-18.226 -0.052,-3.339 2.932,-2.932 c 3.82,3.116 8.623,4.829 13.559,4.829 11.833,0 21.461,-9.627 21.461,-21.461 0,-11.834 -9.627,-21.461 -21.461,-21.461 -11.834,0 -21.461,9.627 -21.461,21.461 0,4.991 1.748,9.833 4.928,13.675 l -2.923,2.923 -3.339,-0.052 -18.228,18.226 z m 41.023,-49.951 c 8.369,0 15.178,6.809 15.178,15.179 0,8.369 -6.809,15.178 -15.178,15.178 -8.369,0 -15.179,-6.809 -15.179,-15.178 0,-8.37 6.809,-15.179 15.179,-15.179 z"
         id="path3984" />
    </g>
    <g
       transform="translate(-288.10109,-324.05829)"
       id="g3986" />
  </g>
</svg>
