<?xml version="1.0" encoding="UTF-8" standalone="no"?>
<!-- Created with Inkscape (http://www.inkscape.org/) -->

<svg
   xmlns:dc="http://purl.org/dc/elements/1.1/"
   xmlns:cc="http://creativecommons.org/ns#"
   xmlns:rdf="http://www.w3.org/1999/02/22-rdf-syntax-ns#"
   xmlns:svg="http://www.w3.org/2000/svg"
   xmlns="http://www.w3.org/2000/svg"
   xmlns:sodipodi="http://sodipodi.sourceforge.net/DTD/sodipodi-0.dtd"
   xmlns:inkscape="http://www.inkscape.org/namespaces/inkscape"
   width="4.1769333pc"
   height="4.1727333pc"
   viewBox="0 0 62.653997 62.589995"
   id="svg4301"
   version="1.1"
   inkscape:version="0.91 r13725"
   sodipodi:docname="Icon_Color.svg"
   inkscape:export-filename="E:\Nextcloud\cloud.ura.design\Projects\OpenStreetMap Albania Logo\Export\Icon_Color.png"
   inkscape:export-xdpi="368.10403"
   inkscape:export-ydpi="368.10403">
  <title
     id="title4943">OpenStreetMap Albania Logo</title>
  <defs
     id="defs4303" />
  <sodipodi:namedview
     id="base"
     pagecolor="#ffffff"
     bordercolor="#bbbbbb"
     borderopacity="1"
     inkscape:pageopacity="0"
     inkscape:pageshadow="2"
     inkscape:zoom="1.979899"
     inkscape:cx="55.032307"
     inkscape:cy="20.535505"
     inkscape:document-units="px"
     inkscape:current-layer="g3932"
     showgrid="false"
     fit-margin-top="0"
     fit-margin-left="0"
     fit-margin-right="0"
     fit-margin-bottom="0"
     inkscape:window-width="1920"
     inkscape:window-height="1018"
     inkscape:window-x="-8"
     inkscape:window-y="-8"
     inkscape:window-maximized="1"
     inkscape:showpageshadow="false"
     showborder="true"
     borderlayer="true"
     units="pc" />
  <metadata
     id="metadata4306">
    <rdf:RDF>
      <cc:Work
         rdf:about="">
        <dc:format>image/svg+xml</dc:format>
        <dc:type
           rdf:resource="http://purl.org/dc/dcmitype/StillImage" />
        <dc:title>OpenStreetMap Albania Logo</dc:title>
        <cc:license
           rdf:resource="http://creativecommons.org/licenses/by-sa/3.0/" />
        <dc:date>28 January 2017</dc:date>
        <dc:creator>
          <cc:Agent>
            <dc:title>Ura Design</dc:title>
          </cc:Agent>
        </dc:creator>
        <dc:rights>
          <cc:Agent>
            <dc:title>Some Rights Reserved - Licensed under CC-BY-SA </dc:title>
          </cc:Agent>
        </dc:rights>
        <dc:source>www.ura.design</dc:source>
        <dc:subject>
          <rdf:Bag>
            <rdf:li>OpenStreetMap Albania Logo</rdf:li>
          </rdf:Bag>
        </dc:subject>
        <dc:contributor>
          <cc:Agent>
            <dc:title>Anxhelo Lushka
Elio Qoshi
Giannis Konstantinidis
Redon Skikuli</dc:title>
          </cc:Agent>
        </dc:contributor>
        <dc:language />
        <dc:description>Revised logo for OpenStreetMap Albania</dc:description>
      </cc:Work>
      <cc:License
         rdf:about="http://creativecommons.org/licenses/by-sa/3.0/">
        <cc:permits
           rdf:resource="http://creativecommons.org/ns#Reproduction" />
        <cc:permits
           rdf:resource="http://creativecommons.org/ns#Distribution" />
        <cc:requires
           rdf:resource="http://creativecommons.org/ns#Notice" />
        <cc:requires
           rdf:resource="http://creativecommons.org/ns#Attribution" />
        <cc:permits
           rdf:resource="http://creativecommons.org/ns#DerivativeWorks" />
        <cc:requires
           rdf:resource="http://creativecommons.org/ns#ShareAlike" />
      </cc:License>
    </rdf:RDF>
  </metadata>
  <g
     inkscape:label="Layer 1"
     inkscape:groupmode="layer"
     id="layer1"
     transform="translate(4.95792,26.623718)">
    <g
       transform="translate(-292.14792,-121.82322)"
       id="g3884"
       inkscape:export-xdpi="232.94617"
       inkscape:export-ydpi="232.94617">
      <g
         id="g3886">
        <g
           id="g3888">
          <polygon
             style="fill:#63b181"
             points="305.267,144.013 296.905,153.573 311.985,150.739 326.124,155.257 332.249,155.098 330.196,148.634 318.492,149.858 "
             id="polygon3890" />
        </g>
        <g
           id="g3892">
          <path
             style="fill:#63b181"
             inkscape:connector-curvature="0"
             d="m 334.682,143.387 2.858,11.631 6.491,-0.187 -4.497,-10.819 2.165,-10.519 c -3.635,2.815 -8.194,4.494 -13.147,4.494 -5.144,0 -9.865,-1.809 -13.565,-4.822 l -3.446,3.447 -2.689,3.88 10.201,4.88 15.629,-1.985 z"
             id="path3894" />
        </g>
        <g
           id="g3896">
          <polygon
             style="fill:#4074d4"
             points="318.492,149.858 330.196,148.634 332.249,155.098 337.54,155.018 334.682,143.387 319.054,145.372 308.853,140.492 305.267,144.013 "
             id="polygon3898" />
        </g>
      </g>
      <g
         id="g3900">
        <g
           id="g3902">
          <path
             style="fill:none;stroke:#4f84ca;stroke-miterlimit:10"
             inkscape:connector-curvature="0"
             stroke-miterlimit="10"
             d="M 311.985,139.289"
             id="path3904" />
        </g>
      </g>
      <g
         id="g3906">
        <g
           id="g3908">
          <path
             style="fill:none;stroke:#4f84ca;stroke-miterlimit:10"
             inkscape:connector-curvature="0"
             stroke-miterlimit="10"
             d="M 326.124,155.257"
             id="path3910" />
        </g>
      </g>
      <g
         id="g3912">
        <g
           id="g3914">
          <path
             style="fill:#63b181"
             inkscape:connector-curvature="0"
             d="m 315.846,99.151 -3.361,-1.283 -10.773,4.099 -3.08,7.522 3.434,8.079 -5.564,10.68 -8.382,-2.66 5.508,10.067 -4.723,15.083 17.3,-17.23 2.89,0.443 3.296,-3.295 c -3.319,-3.784 -5.336,-8.739 -5.336,-14.168 0,-7.117 3.461,-13.424 8.791,-17.337 z"
             id="path3916" />
        </g>
        <g
           id="g3918">
          <polygon
             style="fill:#63b181"
             points="295.016,109.962 298.152,102.046 287.19,97.868 292.006,110.506 287.712,121.774 295.118,124.124 298.066,117.139 "
             id="polygon3920" />
        </g>
        <g
           id="g3922">
          <polygon
             style="fill:#fff87f"
             points="302.066,117.569 298.632,109.49 301.712,101.968 299.828,102.684 298.152,102.046 295.016,109.962 298.066,117.139 295.118,124.124 287.712,121.774 287.19,123.145 288.12,125.589 296.502,128.249 "
             id="polygon3924" />
        </g>
      </g>
      <g
         id="g3926">
        <g
           id="g3928">
          <path
             style="fill:#454646"
             inkscape:connector-curvature="0"
             d="m 328.381,95.199 c -11.834,0 -21.461,9.627 -21.461,21.461 0,4.991 1.748,9.833 4.928,13.675 l -2.923,2.923 -3.339,-0.052 -18.226,18.227 6.357,6.357 18.227,-18.226 -0.052,-3.339 2.932,-2.932 c 3.82,3.116 8.623,4.829 13.559,4.829 11.833,0 21.461,-9.627 21.461,-21.461 -0.002,-11.834 -9.629,-21.462 -21.463,-21.462 z m 15.178,21.462 c 0,8.369 -6.809,15.178 -15.178,15.178 -8.369,0 -15.179,-6.809 -15.179,-15.178 0,-8.369 6.809,-15.179 15.179,-15.179 8.37,0 15.178,6.809 15.178,15.179 z"
             id="path3930" />
        </g>
      </g>
    </g>
    <g
       transform="translate(-292.14792,-121.82322)"
       id="g3932"
       inkscape:export-xdpi="232.94617"
       inkscape:export-ydpi="232.94617" />
  </g>
</svg>
