<?xml version="1.0" encoding="UTF-8" standalone="no"?>
<!-- Created with Inkscape (http://www.inkscape.org/) -->

<svg
   xmlns:dc="http://purl.org/dc/elements/1.1/"
   xmlns:cc="http://creativecommons.org/ns#"
   xmlns:rdf="http://www.w3.org/1999/02/22-rdf-syntax-ns#"
   xmlns:svg="http://www.w3.org/2000/svg"
   xmlns="http://www.w3.org/2000/svg"
   xmlns:sodipodi="http://sodipodi.sourceforge.net/DTD/sodipodi-0.dtd"
   xmlns:inkscape="http://www.inkscape.org/namespaces/inkscape"
   width="52.852322mm"
   height="39.580818mm"
   viewBox="0 0 187.272 140.24699"
   id="svg4301"
   version="1.1"
   inkscape:version="0.91 r13725"
   sodipodi:docname="Vertical_Color.svg"
   inkscape:export-filename="E:\Nextcloud\cloud.ura.design\Projects\OpenStreetMap Albania Logo\Export\Vertical_Color.png"
   inkscape:export-xdpi="232.946"
   inkscape:export-ydpi="232.946">
  <title
     id="title4943">OpenStreetMap Albania Logo</title>
  <defs
     id="defs4303" />
  <sodipodi:namedview
     id="base"
     pagecolor="#ffffff"
     bordercolor="#666666"
     borderopacity="1.0"
     inkscape:pageopacity="0.0"
     inkscape:pageshadow="2"
     inkscape:zoom="2.8"
     inkscape:cx="15.650295"
     inkscape:cy="50.161772"
     inkscape:document-units="px"
     inkscape:current-layer="g3856"
     showgrid="false"
     fit-margin-top="0"
     fit-margin-left="0"
     fit-margin-right="0"
     fit-margin-bottom="0"
     inkscape:window-width="1920"
     inkscape:window-height="1018"
     inkscape:window-x="-8"
     inkscape:window-y="-8"
     inkscape:window-maximized="1" />
  <metadata
     id="metadata4306">
    <rdf:RDF>
      <cc:Work
         rdf:about="">
        <dc:format>image/svg+xml</dc:format>
        <dc:type
           rdf:resource="http://purl.org/dc/dcmitype/StillImage" />
        <dc:title>OpenStreetMap Albania Logo</dc:title>
        <cc:license
           rdf:resource="http://creativecommons.org/licenses/by-sa/3.0/" />
        <dc:date>28 January 2017</dc:date>
        <dc:creator>
          <cc:Agent>
            <dc:title>Ura Design</dc:title>
          </cc:Agent>
        </dc:creator>
        <dc:rights>
          <cc:Agent>
            <dc:title>Some Rights Reserved - Licensed under CC-BY-SA </dc:title>
          </cc:Agent>
        </dc:rights>
        <dc:source>www.ura.design</dc:source>
        <dc:subject>
          <rdf:Bag>
            <rdf:li>OpenStreetMap Albania Logo</rdf:li>
          </rdf:Bag>
        </dc:subject>
        <dc:contributor>
          <cc:Agent>
            <dc:title>Anxhelo Lushka
Elio Qoshi
Giannis Konstantinidis
Redon Skikuli</dc:title>
          </cc:Agent>
        </dc:contributor>
        <dc:language />
        <dc:description>Revised logo for OpenStreetMap Albania</dc:description>
      </cc:Work>
      <cc:License
         rdf:about="http://creativecommons.org/licenses/by-sa/3.0/">
        <cc:permits
           rdf:resource="http://creativecommons.org/ns#Reproduction" />
        <cc:permits
           rdf:resource="http://creativecommons.org/ns#Distribution" />
        <cc:requires
           rdf:resource="http://creativecommons.org/ns#Notice" />
        <cc:requires
           rdf:resource="http://creativecommons.org/ns#Attribution" />
        <cc:permits
           rdf:resource="http://creativecommons.org/ns#DerivativeWorks" />
        <cc:requires
           rdf:resource="http://creativecommons.org/ns#ShareAlike" />
      </cc:License>
    </rdf:RDF>
  </metadata>
  <g
     inkscape:label="Layer 1"
     inkscape:groupmode="layer"
     id="layer1"
     transform="translate(-39.649711,-39.381562)">
    <g
       transform="translate(-9.3772886,-18.571438)"
       id="g3856">
      <path
         style="fill:#454646"
         inkscape:connector-curvature="0"
         d="m 57.511,167.733 c -1.037,0 -1.966,-0.136 -2.788,-0.408 -0.822,-0.272 -1.548,-0.644 -2.178,-1.113 -0.63,-0.469 -1.168,-1.022 -1.615,-1.661 -0.446,-0.639 -0.811,-1.327 -1.092,-2.064 -0.282,-0.737 -0.487,-1.506 -0.617,-2.305 -0.129,-0.8 -0.194,-1.598 -0.194,-2.393 0,-0.786 0.065,-1.579 0.194,-2.379 0.13,-0.8 0.335,-1.568 0.617,-2.306 0.281,-0.737 0.646,-1.425 1.092,-2.063 0.447,-0.639 0.985,-1.193 1.615,-1.662 0.63,-0.469 1.355,-0.84 2.178,-1.112 0.823,-0.272 1.751,-0.409 2.788,-0.409 1.036,0 1.963,0.137 2.78,0.409 0.818,0.272 1.539,0.644 2.165,1.112 0.625,0.469 1.161,1.023 1.608,1.662 0.446,0.639 0.811,1.326 1.092,2.063 0.282,0.737 0.487,1.506 0.617,2.306 0.129,0.8 0.194,1.593 0.194,2.379 0,0.795 -0.065,1.593 -0.194,2.393 -0.13,0.799 -0.335,1.567 -0.617,2.305 -0.281,0.737 -0.646,1.426 -1.092,2.064 -0.447,0.639 -0.983,1.192 -1.608,1.661 -0.626,0.47 -1.347,0.841 -2.165,1.113 -0.817,0.272 -1.744,0.408 -2.78,0.408 z m 0,-3.579 c 0.857,0 1.579,-0.201 2.164,-0.604 0.585,-0.403 1.059,-0.916 1.421,-1.541 0.361,-0.625 0.623,-1.312 0.784,-2.058 0.16,-0.746 0.241,-1.468 0.241,-2.164 0,-0.491 -0.033,-0.989 -0.101,-1.494 -0.068,-0.505 -0.177,-0.992 -0.328,-1.461 -0.152,-0.47 -0.349,-0.912 -0.59,-1.327 -0.241,-0.416 -0.532,-0.777 -0.871,-1.086 -0.34,-0.308 -0.735,-0.552 -1.187,-0.73 -0.452,-0.178 -0.963,-0.268 -1.534,-0.268 -0.581,0 -1.098,0.094 -1.548,0.281 -0.452,0.188 -0.85,0.44 -1.193,0.757 -0.344,0.317 -0.637,0.687 -0.878,1.106 -0.241,0.419 -0.438,0.866 -0.59,1.34 -0.151,0.474 -0.261,0.956 -0.328,1.447 -0.067,0.492 -0.101,0.97 -0.101,1.435 0,0.732 0.08,1.477 0.241,2.231 0.161,0.754 0.422,1.438 0.784,2.051 0.362,0.611 0.838,1.112 1.428,1.501 0.59,0.389 1.319,0.584 2.186,0.584 z"
         id="path3858" />
      <path
         style="fill:#454646"
         inkscape:connector-curvature="0"
         d="m 75.271,167.733 c -0.688,0 -1.282,-0.125 -1.783,-0.375 -0.5,-0.25 -0.902,-0.576 -1.206,-0.979 l 0,4.892 -3.564,1.622 0,-19.527 3.564,0 0,1.019 c 0.304,-0.402 0.708,-0.726 1.213,-0.972 0.505,-0.246 1.105,-0.369 1.803,-0.369 0.866,0 1.657,0.161 2.372,0.482 0.715,0.322 1.325,0.794 1.83,1.414 0.504,0.621 0.896,1.39 1.172,2.306 0.277,0.916 0.416,1.968 0.416,3.156 0,1.144 -0.146,2.169 -0.436,3.076 -0.291,0.906 -0.695,1.675 -1.213,2.305 -0.519,0.63 -1.133,1.112 -1.843,1.447 -0.711,0.336 -1.486,0.503 -2.325,0.503 z m -0.55,-3.431 c 0.894,0 1.584,-0.338 2.07,-1.012 0.487,-0.675 0.73,-1.638 0.73,-2.889 0,-0.599 -0.06,-1.14 -0.181,-1.622 -0.12,-0.482 -0.3,-0.893 -0.536,-1.232 -0.236,-0.339 -0.529,-0.604 -0.878,-0.791 -0.349,-0.187 -0.75,-0.281 -1.206,-0.281 -0.581,0 -1.067,0.099 -1.461,0.295 -0.394,0.196 -0.72,0.474 -0.979,0.831 l 0,5.548 c 0.09,0.135 0.21,0.271 0.362,0.409 0.151,0.139 0.33,0.264 0.536,0.375 0.205,0.112 0.438,0.201 0.696,0.269 0.262,0.066 0.543,0.1 0.847,0.1 z"
         id="path3860" />
      <path
         style="fill:#454646"
         inkscape:connector-curvature="0"
         d="m 89.304,167.733 c -1.019,0 -1.933,-0.167 -2.741,-0.503 -0.809,-0.335 -1.496,-0.819 -2.063,-1.454 -0.568,-0.634 -1.004,-1.407 -1.308,-2.318 -0.304,-0.911 -0.455,-1.938 -0.455,-3.082 0,-1.145 0.151,-2.169 0.455,-3.076 0.304,-0.907 0.742,-1.676 1.313,-2.306 0.572,-0.63 1.263,-1.112 2.071,-1.447 0.808,-0.335 1.718,-0.503 2.728,-0.503 0.866,0 1.68,0.135 2.439,0.402 0.759,0.269 1.416,0.675 1.97,1.22 0.554,0.545 0.992,1.231 1.313,2.058 0.321,0.827 0.482,1.803 0.482,2.928 0,0.277 -0.005,0.605 -0.014,0.985 -0.009,0.38 -0.04,0.758 -0.094,1.133 l -9.141,0 c 0.036,0.455 0.144,0.857 0.322,1.206 0.178,0.349 0.404,0.644 0.677,0.885 0.273,0.241 0.583,0.424 0.932,0.55 0.348,0.125 0.719,0.188 1.112,0.188 0.643,0 1.206,-0.114 1.688,-0.342 0.482,-0.229 0.925,-0.597 1.327,-1.106 l 2.197,2.212 c -0.589,0.724 -1.313,1.3 -2.171,1.729 -0.855,0.427 -1.869,0.641 -3.039,0.641 z m 0,-11.567 c -0.84,0 -1.526,0.21 -2.058,0.63 -0.532,0.42 -0.851,1.072 -0.958,1.957 l 5.736,0 c -0.116,-0.831 -0.42,-1.47 -0.912,-1.917 -0.491,-0.446 -1.093,-0.67 -1.808,-0.67 z"
         id="path3862" />
      <path
         style="fill:#454646"
         inkscape:connector-curvature="0"
         d="m 106.38,167.398 0,-8.229 c 0,-0.473 -0.063,-0.88 -0.188,-1.22 -0.125,-0.339 -0.3,-0.618 -0.522,-0.837 -0.224,-0.219 -0.482,-0.38 -0.777,-0.482 -0.295,-0.102 -0.617,-0.154 -0.965,-0.154 -0.367,0 -0.711,0.047 -1.032,0.141 -0.322,0.094 -0.604,0.246 -0.845,0.456 -0.241,0.21 -0.431,0.482 -0.569,0.817 -0.138,0.335 -0.208,0.743 -0.208,1.226 l 0,8.283 -3.564,0 0,-14.032 3.564,0 0,1.326 c 0.429,-0.526 0.958,-0.933 1.588,-1.219 0.63,-0.286 1.352,-0.43 2.165,-0.43 0.599,0 1.192,0.09 1.782,0.269 0.59,0.179 1.117,0.482 1.582,0.911 0.464,0.429 0.84,0.996 1.126,1.702 0.285,0.706 0.429,1.586 0.429,2.641 l 0,8.832 -3.566,0 z"
         id="path3864" />
      <path
         style="fill:#454646"
         inkscape:connector-curvature="0"
         d="m 123.548,153.405 c -0.116,-0.286 -0.272,-0.554 -0.469,-0.804 -0.196,-0.251 -0.431,-0.467 -0.703,-0.65 -0.273,-0.184 -0.586,-0.326 -0.938,-0.429 -0.354,-0.103 -0.744,-0.154 -1.173,-0.154 -0.804,0 -1.432,0.161 -1.883,0.482 -0.451,0.321 -0.677,0.772 -0.677,1.354 0,0.385 0.143,0.706 0.429,0.965 0.286,0.26 0.661,0.494 1.126,0.704 0.464,0.21 0.993,0.408 1.588,0.596 0.594,0.188 1.204,0.396 1.829,0.624 0.626,0.228 1.235,0.495 1.83,0.804 0.594,0.309 1.123,0.688 1.588,1.14 0.465,0.452 0.84,0.987 1.126,1.608 0.286,0.621 0.429,1.364 0.429,2.231 0,0.938 -0.179,1.769 -0.536,2.492 -0.357,0.723 -0.847,1.336 -1.468,1.837 -0.621,0.5 -1.355,0.88 -2.204,1.139 -0.85,0.259 -1.765,0.389 -2.748,0.389 -0.902,0 -1.747,-0.123 -2.533,-0.368 -0.786,-0.246 -1.499,-0.597 -2.138,-1.053 -0.639,-0.455 -1.194,-1.009 -1.668,-1.661 -0.474,-0.652 -0.85,-1.386 -1.126,-2.198 l 3.377,-1.26 c 0.206,0.446 0.454,0.855 0.744,1.226 0.29,0.371 0.614,0.688 0.972,0.952 0.358,0.264 0.744,0.469 1.159,0.616 0.416,0.147 0.86,0.222 1.334,0.222 0.464,0 0.887,-0.05 1.267,-0.147 0.379,-0.099 0.705,-0.246 0.979,-0.442 0.272,-0.196 0.482,-0.44 0.63,-0.73 0.148,-0.29 0.221,-0.628 0.221,-1.012 0,-0.465 -0.143,-0.855 -0.429,-1.173 -0.286,-0.318 -0.661,-0.595 -1.126,-0.831 -0.465,-0.236 -0.994,-0.451 -1.588,-0.644 -0.595,-0.192 -1.202,-0.396 -1.823,-0.609 -0.621,-0.215 -1.229,-0.465 -1.822,-0.751 -0.595,-0.286 -1.124,-0.639 -1.589,-1.059 -0.464,-0.42 -0.84,-0.925 -1.125,-1.515 -0.286,-0.59 -0.43,-1.305 -0.43,-2.145 0,-0.724 0.146,-1.404 0.436,-2.044 0.291,-0.639 0.713,-1.199 1.267,-1.682 0.555,-0.482 1.233,-0.864 2.037,-1.146 0.805,-0.281 1.725,-0.422 2.762,-0.422 0.866,0 1.65,0.112 2.352,0.335 0.701,0.224 1.32,0.534 1.856,0.932 0.536,0.398 0.987,0.867 1.354,1.407 0.366,0.541 0.644,1.133 0.831,1.776 l -3.327,1.098 z"
         id="path3866" />
      <path
         style="fill:#454646"
         inkscape:connector-curvature="0"
         d="m 134.419,167.733 c -0.608,0 -1.126,-0.085 -1.555,-0.255 -0.429,-0.169 -0.78,-0.413 -1.053,-0.73 -0.272,-0.316 -0.474,-0.705 -0.603,-1.166 -0.13,-0.46 -0.194,-0.98 -0.194,-1.561 l 0,-7.52 -2.011,0 0,-3.136 2.011,0 0,-4.088 3.564,-1.702 0,5.79 3.137,0 0,3.136 -3.137,0 0,6.996 c 0,0.357 0.088,0.63 0.262,0.817 0.174,0.188 0.418,0.282 0.73,0.282 0.357,0 0.729,-0.052 1.112,-0.154 0.383,-0.102 0.782,-0.253 1.193,-0.449 l -0.416,3.096 c -0.411,0.206 -0.876,0.364 -1.394,0.477 -0.516,0.111 -1.066,0.167 -1.646,0.167 z"
         id="path3868" />
      <path
         style="fill:#454646"
         inkscape:connector-curvature="0"
         d="m 139.942,167.398 0,-14.032 3.564,0 0,1.246 c 0.196,-0.446 0.507,-0.819 0.932,-1.119 0.424,-0.299 0.98,-0.449 1.669,-0.449 0.58,0 1.101,0.094 1.562,0.282 0.46,0.188 0.891,0.451 1.293,0.79 l -0.482,3.257 c -0.34,-0.231 -0.713,-0.426 -1.119,-0.583 -0.407,-0.156 -0.887,-0.234 -1.441,-0.234 -0.313,0 -0.614,0.045 -0.904,0.134 -0.29,0.09 -0.547,0.246 -0.771,0.47 -0.224,0.224 -0.402,0.531 -0.536,0.925 -0.134,0.393 -0.201,0.889 -0.201,1.487 l 0,7.827 -3.566,0 z"
         id="path3870" />
      <path
         style="fill:#454646"
         inkscape:connector-curvature="0"
         d="m 156.495,167.733 c -1.019,0 -1.933,-0.167 -2.741,-0.503 -0.809,-0.335 -1.496,-0.819 -2.063,-1.454 -0.568,-0.634 -1.004,-1.407 -1.308,-2.318 -0.304,-0.911 -0.455,-1.938 -0.455,-3.082 0,-1.145 0.151,-2.169 0.455,-3.076 0.304,-0.907 0.742,-1.676 1.313,-2.306 0.572,-0.63 1.263,-1.112 2.071,-1.447 0.808,-0.335 1.718,-0.503 2.728,-0.503 0.866,0 1.68,0.135 2.439,0.402 0.759,0.269 1.416,0.675 1.97,1.22 0.554,0.545 0.992,1.231 1.313,2.058 0.321,0.827 0.482,1.803 0.482,2.928 0,0.277 -0.005,0.605 -0.014,0.985 -0.009,0.38 -0.04,0.758 -0.094,1.133 l -9.141,0 c 0.036,0.455 0.144,0.857 0.322,1.206 0.178,0.349 0.404,0.644 0.677,0.885 0.273,0.241 0.583,0.424 0.932,0.55 0.348,0.125 0.719,0.188 1.112,0.188 0.643,0 1.206,-0.114 1.688,-0.342 0.482,-0.229 0.925,-0.597 1.327,-1.106 l 2.197,2.212 c -0.589,0.724 -1.313,1.3 -2.171,1.729 -0.854,0.427 -1.869,0.641 -3.039,0.641 z m 0,-11.567 c -0.84,0 -1.526,0.21 -2.058,0.63 -0.532,0.42 -0.851,1.072 -0.958,1.957 l 5.736,0 c -0.116,-0.831 -0.42,-1.47 -0.912,-1.917 -0.49,-0.446 -1.093,-0.67 -1.808,-0.67 z"
         id="path3872" />
      <path
         style="fill:#454646"
         inkscape:connector-curvature="0"
         d="m 170.771,167.733 c -1.019,0 -1.933,-0.167 -2.741,-0.503 -0.809,-0.335 -1.496,-0.819 -2.063,-1.454 -0.568,-0.634 -1.004,-1.407 -1.308,-2.318 -0.304,-0.911 -0.455,-1.938 -0.455,-3.082 0,-1.145 0.151,-2.169 0.455,-3.076 0.304,-0.907 0.742,-1.676 1.313,-2.306 0.572,-0.63 1.263,-1.112 2.071,-1.447 0.808,-0.335 1.718,-0.503 2.728,-0.503 0.866,0 1.68,0.135 2.439,0.402 0.759,0.269 1.416,0.675 1.97,1.22 0.554,0.545 0.992,1.231 1.313,2.058 0.321,0.827 0.482,1.803 0.482,2.928 0,0.277 -0.005,0.605 -0.014,0.985 -0.009,0.38 -0.04,0.758 -0.094,1.133 l -9.141,0 c 0.036,0.455 0.144,0.857 0.322,1.206 0.178,0.349 0.404,0.644 0.677,0.885 0.273,0.241 0.583,0.424 0.932,0.55 0.348,0.125 0.719,0.188 1.112,0.188 0.643,0 1.206,-0.114 1.688,-0.342 0.482,-0.229 0.925,-0.597 1.327,-1.106 l 2.197,2.212 c -0.589,0.724 -1.313,1.3 -2.171,1.729 -0.855,0.427 -1.87,0.641 -3.039,0.641 z m 0,-11.567 c -0.84,0 -1.526,0.21 -2.058,0.63 -0.532,0.42 -0.851,1.072 -0.958,1.957 l 5.736,0 c -0.116,-0.831 -0.42,-1.47 -0.912,-1.917 -0.491,-0.446 -1.094,-0.67 -1.808,-0.67 z"
         id="path3874" />
      <path
         style="fill:#454646"
         inkscape:connector-curvature="0"
         d="m 183.344,167.733 c -0.608,0 -1.126,-0.085 -1.555,-0.255 -0.429,-0.169 -0.78,-0.413 -1.053,-0.73 -0.272,-0.316 -0.474,-0.705 -0.603,-1.166 -0.13,-0.46 -0.194,-0.98 -0.194,-1.561 l 0,-7.52 -2.011,0 0,-3.136 2.011,0 0,-4.088 3.564,-1.702 0,5.79 3.137,0 0,3.136 -3.137,0 0,6.996 c 0,0.357 0.088,0.63 0.262,0.817 0.174,0.188 0.418,0.282 0.73,0.282 0.357,0 0.729,-0.052 1.112,-0.154 0.383,-0.102 0.782,-0.253 1.193,-0.449 l -0.416,3.096 c -0.411,0.206 -0.876,0.364 -1.394,0.477 -0.516,0.111 -1.066,0.167 -1.646,0.167 z"
         id="path3876" />
      <path
         style="fill:#454646"
         inkscape:connector-curvature="0"
         d="m 205.423,167.398 0,-14.218 -6.408,14.547 -5.971,-14.465 0,14.136 -1.949,0 0,-19.214 1.65,0 6.434,14.959 6.516,-14.959 1.678,0 0,19.214 -1.95,0 z"
         id="path3878" />
      <path
         style="fill:#454646"
         inkscape:connector-curvature="0"
         d="m 219.669,167.398 0,-1.372 c -0.567,0.512 -1.203,0.924 -1.907,1.234 -0.705,0.312 -1.441,0.467 -2.21,0.467 -1.409,0 -2.558,-0.397 -3.444,-1.193 -0.888,-0.796 -1.332,-1.98 -1.332,-3.555 0,-0.806 0.142,-1.5 0.426,-2.086 0.283,-0.586 0.659,-1.066 1.125,-1.441 0.467,-0.375 1.012,-0.654 1.634,-0.837 0.622,-0.183 1.263,-0.274 1.921,-0.274 0.586,0 1.189,0.073 1.812,0.22 0.623,0.147 1.281,0.402 1.977,0.769 l 0,-1.181 c 0,-0.714 -0.087,-1.29 -0.261,-1.729 -0.174,-0.439 -0.402,-0.786 -0.687,-1.043 -0.283,-0.256 -0.613,-0.43 -0.987,-0.521 -0.376,-0.091 -0.755,-0.137 -1.14,-0.137 -0.348,0 -0.714,0.046 -1.098,0.137 -0.385,0.092 -0.76,0.211 -1.126,0.356 -0.366,0.147 -0.718,0.307 -1.057,0.48 -0.339,0.175 -0.636,0.353 -0.892,0.535 l -0.549,-1.646 c 0.566,-0.366 1.285,-0.714 2.154,-1.043 0.869,-0.329 1.788,-0.494 2.759,-0.494 0.494,0 1.016,0.068 1.564,0.206 0.549,0.137 1.052,0.384 1.51,0.741 0.457,0.356 0.837,0.851 1.139,1.481 0.302,0.632 0.453,1.441 0.453,2.43 l 0,9.497 -1.784,0 z m -3.925,-1.345 c 0.421,0 0.823,-0.064 1.208,-0.192 0.384,-0.128 0.74,-0.293 1.07,-0.494 0.329,-0.201 0.631,-0.435 0.905,-0.7 0.274,-0.265 0.521,-0.525 0.741,-0.782 l 0,-2.717 c -0.457,-0.312 -1.021,-0.581 -1.688,-0.81 -0.669,-0.229 -1.305,-0.344 -1.908,-0.344 -0.476,0 -0.924,0.06 -1.345,0.179 -0.421,0.119 -0.792,0.302 -1.111,0.549 -0.321,0.247 -0.577,0.554 -0.769,0.92 -0.192,0.366 -0.289,0.805 -0.289,1.317 0,0.933 0.274,1.679 0.824,2.236 0.551,0.559 1.337,0.838 2.362,0.838 z"
         id="path3880" />
      <path
         style="fill:#454646"
         inkscape:connector-curvature="0"
         d="m 230.526,167.727 c -0.985,0 -1.771,-0.174 -2.354,-0.521 -0.585,-0.347 -1.077,-0.759 -1.479,-1.235 l 0,6.039 -1.948,0.961 0,-19.599 1.948,0 0,1.263 c 0.456,-0.421 0.972,-0.791 1.546,-1.111 0.575,-0.32 1.337,-0.48 2.286,-0.48 0.894,0 1.697,0.174 2.408,0.521 0.712,0.348 1.318,0.842 1.82,1.482 0.502,0.64 0.885,1.413 1.149,2.319 0.265,0.905 0.397,1.907 0.397,3.006 0,1.171 -0.142,2.214 -0.425,3.129 -0.282,0.915 -0.68,1.684 -1.19,2.306 -0.51,0.622 -1.122,1.098 -1.834,1.427 -0.709,0.329 -1.485,0.493 -2.324,0.493 z m -0.221,-1.729 c 1.276,0 2.261,-0.48 2.953,-1.441 0.693,-0.961 1.04,-2.355 1.04,-4.186 0,-1.72 -0.352,-3.084 -1.053,-4.09 -0.702,-1.007 -1.683,-1.51 -2.94,-1.51 -0.766,0 -1.464,0.188 -2.093,0.563 -0.629,0.375 -1.135,0.91 -1.518,1.605 l 0,6.89 c 0.475,0.622 1.003,1.14 1.586,1.551 0.584,0.412 1.259,0.618 2.025,0.618 z"
         id="path3882" />
    </g>
    <g
       transform="translate(-9.3772886,-18.571438)"
       id="g4028">
      <path
         style="fill:#454646"
         inkscape:connector-curvature="0"
         d="m 133.794,184.767 c 0.651,-0.535 0.978,-1.252 0.978,-2.15 0,-0.33 -0.047,-0.665 -0.142,-1.004 -0.094,-0.338 -0.263,-0.638 -0.506,-0.897 -0.243,-0.259 -0.585,-0.473 -1.024,-0.638 -0.439,-0.165 -1.005,-0.248 -1.695,-0.248 l -3.956,0 0,5.74 3.414,0 c 1.304,-0.001 2.28,-0.268 2.931,-0.803 z"
         id="path4030" />
      <path
         style="fill:#454646"
         inkscape:connector-curvature="0"
         d="m 144.896,181.742 c -0.103,-0.314 -0.17,-0.551 -0.201,-0.708 -0.047,0.157 -0.114,0.394 -0.2,0.708 -0.087,0.315 -0.17,0.575 -0.248,0.78 l -2.269,6.614 5.458,0 -2.269,-6.614 c -0.079,-0.204 -0.168,-0.464 -0.271,-0.78 z"
         id="path4032" />
      <path
         style="fill:#454646"
         inkscape:connector-curvature="0"
         d="m 104.733,181.742 c -0.103,-0.314 -0.17,-0.551 -0.201,-0.708 -0.047,0.157 -0.114,0.394 -0.2,0.708 -0.087,0.315 -0.17,0.575 -0.248,0.78 l -2.269,6.614 5.458,0 -2.269,-6.614 c -0.079,-0.204 -0.168,-0.464 -0.271,-0.78 z"
         id="path4034" />
      <path
         style="fill:#454646"
         inkscape:connector-curvature="0"
         d="m 134.515,188.051 c -0.314,-0.315 -0.742,-0.567 -1.284,-0.757 -0.542,-0.188 -1.236,-0.283 -2.084,-0.283 l -3.698,0 0,6.379 4.476,0 c 0.675,0 1.236,-0.087 1.684,-0.26 0.448,-0.173 0.801,-0.397 1.06,-0.674 0.26,-0.275 0.439,-0.594 0.542,-0.956 0.102,-0.362 0.153,-0.732 0.153,-1.11 0,-0.441 -0.063,-0.862 -0.188,-1.265 -0.128,-0.401 -0.347,-0.76 -0.661,-1.074 z"
         id="path4036" />
      <path
         style="fill:#454646"
         inkscape:connector-curvature="0"
         d="m 180.027,181.742 c -0.103,-0.314 -0.17,-0.551 -0.201,-0.708 -0.047,0.157 -0.114,0.394 -0.2,0.708 -0.087,0.315 -0.17,0.575 -0.248,0.78 l -2.269,6.614 5.458,0 -2.269,-6.614 c -0.079,-0.204 -0.169,-0.464 -0.271,-0.78 z"
         id="path4038" />
      <path
         style="fill:#454646"
         inkscape:connector-curvature="0"
         d="m 94.851,174.746 0,23.454 96.009,0 0,-23.454 -96.009,0 z m 14.43,20.132 -1.512,-4.276 -6.45,0 -1.441,4.276 -1.724,0 5.74,-16.537 1.275,0 5.788,16.537 -1.676,0 z m 14.032,0 -9.875,0 0,-16.537 1.678,0 0,14.954 8.197,0 0,1.583 z m 13.337,-2.953 c -0.165,0.552 -0.452,1.044 -0.862,1.477 -0.409,0.434 -0.953,0.788 -1.63,1.063 -0.677,0.275 -1.52,0.413 -2.527,0.413 l -5.859,0 0,-16.537 5.481,0 c 0.96,0 1.768,0.126 2.421,0.378 0.653,0.252 1.174,0.579 1.56,0.98 0.386,0.401 0.661,0.862 0.827,1.382 0.165,0.52 0.248,1.048 0.248,1.583 0,0.851 -0.236,1.571 -0.709,2.161 -0.473,0.591 -1.103,1.036 -1.89,1.335 0.897,0.221 1.653,0.674 2.268,1.358 0.614,0.686 0.921,1.595 0.921,2.729 -0.001,0.568 -0.083,1.127 -0.249,1.678 z m 12.794,2.953 -1.512,-4.276 -6.45,0 -1.441,4.276 -1.724,0 5.74,-16.537 1.275,0 5.788,16.537 -1.676,0 z m 15.875,0 -1.701,0 -8.339,-13.442 0,13.442 -1.678,0 0,-16.537 1.678,0 8.363,13.631 0,-13.631 1.677,0 0,16.537 z m 5.671,0 -1.678,0 0,-16.537 1.678,0 0,16.537 z m 13.585,0 -1.512,-4.276 -6.45,0 -1.441,4.276 -1.724,0 5.74,-16.537 1.275,0 5.788,16.537 -1.676,0 z"
         id="path4040" />
    </g>
    <g
       transform="translate(-9.3772886,-18.571438)"
       id="g4042">
      <g
         id="g4044">
        <g
           id="g4046">
          <polygon
             style="fill:#63b181"
             points="151.874,132.069 159.433,131.874 156.901,123.897 142.456,125.407 126.135,118.193 115.816,129.991 134.426,126.495 "
             id="polygon4048" />
        </g>
        <g
           id="g4050">
          <path
             style="fill:#63b181"
             inkscape:connector-curvature="0"
             d="m 162.436,117.421 3.527,14.354 8.011,-0.231 -5.55,-13.351 2.672,-12.982 c -4.486,3.473 -10.112,5.546 -16.224,5.546 -6.349,0 -12.174,-2.232 -16.741,-5.951 l -4.253,4.253 -3.318,4.789 12.589,6.023 19.287,-2.45 z"
             id="path4052" />
        </g>
        <g
           id="g4054">
          <polygon
             style="fill:#4074d4"
             points="130.561,113.848 126.135,118.193 142.456,125.407 156.901,123.897 159.433,131.874 165.963,131.775 162.436,117.421 143.149,119.871 "
             id="polygon4056" />
        </g>
      </g>
      <g
         id="g4058">
        <g
           id="g4060">
          <path
             style="fill:none;stroke:#4f84ca;stroke-miterlimit:10"
             inkscape:connector-curvature="0"
             stroke-miterlimit="10"
             d="M 134.426,112.364"
             id="path4062" />
        </g>
      </g>
      <g
         id="g4064">
        <g
           id="g4066">
          <path
             style="fill:none;stroke:#4f84ca;stroke-miterlimit:10"
             inkscape:connector-curvature="0"
             stroke-miterlimit="10"
             d="M 151.874,132.069"
             id="path4068" />
        </g>
      </g>
      <g
         id="g4070">
        <g
           id="g4072">
          <path
             style="fill:#63b181"
             inkscape:connector-curvature="0"
             d="m 139.191,62.829 -4.147,-1.583 -13.295,5.059 -3.802,9.283 4.238,9.971 -6.866,13.18 -10.344,-3.283 6.797,12.424 -5.829,18.614 21.35,-21.264 3.566,0.547 4.068,-4.067 c -4.097,-4.669 -6.585,-10.784 -6.585,-17.485 0,-8.783 4.271,-16.567 10.849,-21.396 z"
             id="path4074" />
        </g>
        <g
           id="g4076">
          <polygon
             style="fill:#63b181"
             points="109.77,76.843 104.471,90.749 113.61,93.648 117.248,85.028 113.484,76.171 117.355,66.402 103.826,61.247 "
             id="polygon4078" />
        </g>
        <g
           id="g4080">
          <polygon
             style="fill:#fff87f"
             points="117.248,85.028 113.61,93.648 104.471,90.749 103.826,92.44 104.974,95.457 115.318,98.739 122.184,85.559 117.946,75.589 121.748,66.305 119.423,67.19 117.355,66.402 113.484,76.171 "
             id="polygon4082" />
        </g>
      </g>
      <g
         id="g4084">
        <g
           id="g4086">
          <path
             style="fill:#454646"
             inkscape:connector-curvature="0"
             d="m 154.661,57.953 c -14.604,0 -26.485,11.881 -26.485,26.485 0,6.159 2.157,12.135 6.082,16.876 l -3.608,3.607 -4.121,-0.065 -22.493,22.494 7.845,7.845 22.494,-22.493 -0.065,-4.121 3.618,-3.619 c 4.715,3.846 10.641,5.96 16.733,5.96 14.604,0 26.484,-11.881 26.484,-26.484 0,-14.604 -11.881,-26.485 -26.484,-26.485 z m 18.731,26.485 c 0,10.328 -8.403,18.731 -18.731,18.731 -10.328,0 -18.732,-8.403 -18.732,-18.731 0,-10.328 8.404,-18.732 18.732,-18.732 10.328,0 18.731,8.404 18.731,18.732 z"
             id="path4088" />
        </g>
      </g>
    </g>
  </g>
</svg>
