<?xml version="1.0" encoding="UTF-8" standalone="no"?>
<!-- Created with Inkscape (http://www.inkscape.org/) -->

<svg
   xmlns:dc="http://purl.org/dc/elements/1.1/"
   xmlns:cc="http://creativecommons.org/ns#"
   xmlns:rdf="http://www.w3.org/1999/02/22-rdf-syntax-ns#"
   xmlns:svg="http://www.w3.org/2000/svg"
   xmlns="http://www.w3.org/2000/svg"
   xmlns:sodipodi="http://sodipodi.sourceforge.net/DTD/sodipodi-0.dtd"
   xmlns:inkscape="http://www.inkscape.org/namespaces/inkscape"
   width="604.36707"
   height="233.50569"
   viewBox="0 0 159.90546 61.781712"
   version="1.1"
   id="svg8"
   inkscape:version="0.92.2 (5c3e80d, 2017-08-06)"
   sodipodi:docname="horizontal-color.svg"
   inkscape:export-filename="/home/anxhelo/works/Sit/horizontal-color.png"
   inkscape:export-xdpi="96"
   inkscape:export-ydpi="96">
  <defs
     id="defs2" />
  <sodipodi:namedview
     id="base"
     pagecolor="#ffffff"
     bordercolor="#666666"
     borderopacity="1.0"
     inkscape:pageopacity="0"
     inkscape:pageshadow="2"
     inkscape:zoom="0.26233604"
     inkscape:cx="-247.7469"
     inkscape:cy="116.73062"
     inkscape:document-units="px"
     inkscape:current-layer="layer1"
     inkscape:document-rotation="0"
     showgrid="false"
     borderlayer="true"
     inkscape:showpageshadow="true"
     units="px"
     inkscape:pagecheckerboard="false"
     showguides="true"
     inkscape:window-width="1366"
     inkscape:window-height="743"
     inkscape:window-x="0"
     inkscape:window-y="0"
     inkscape:window-maximized="1"
     objecttolerance="10"
     guidetolerance="10"
     inkscape:snap-tangential="true"
     inkscape:snap-perpendicular="true"
     fit-margin-top="0"
     fit-margin-left="0"
     fit-margin-right="0"
     fit-margin-bottom="0">
    <inkscape:grid
       type="xygrid"
       id="grid10"
       dotted="false"
       originx="-131.69795"
       originy="-80.807845" />
  </sodipodi:namedview>
  <metadata
     id="metadata5">
    <rdf:RDF>
      <cc:Work
         rdf:about="">
        <dc:format>image/svg+xml</dc:format>
        <dc:type
           rdf:resource="http://purl.org/dc/dcmitype/StillImage" />
        <dc:title></dc:title>
        <cc:license
           rdf:resource="" />
      </cc:Work>
    </rdf:RDF>
  </metadata>
  <g
     inkscape:label="Layer 1"
     inkscape:groupmode="layer"
     id="layer1"
     transform="translate(-131.69794,-154.41045)">
    <g
       id="g20"
       transform="matrix(0.77854846,0,0,-0.77854846,180.89442,194.45431)">
      <path
         d="M 0,0 V 23.513 L 11.756,11.756 Z m -23.513,-1.469 c -7.304,0 -13.225,5.921 -13.225,13.225 0,7.305 5.921,13.226 13.225,13.226 7.305,0 13.226,-5.921 13.226,-13.226 0,-7.304 -5.921,-13.225 -13.226,-13.225 m 0,-22.043 -11.756,11.756 h 23.512 z m 0,70.537 11.756,-11.756 H -35.269 Z M -47.025,0 -58.781,11.756 -47.025,23.513 Z M -5.878,29.391 V 51.434 H -41.147 V 29.391 H -63.19 V -5.878 h 22.043 v -22.043 h 35.269 v 22.043 h 22.043 v 35.269 z"
         style="fill:#43b3c2;fill-opacity:1;fill-rule:nonzero;stroke:none"
         id="path22"
         inkscape:connector-curvature="0" />
    </g>
    <g
       id="g24"
       transform="matrix(0.77854846,0,0,-0.77854846,220.57983,204.0816)">
      <path
         d="m 0,0 c -6.337,0 -13.249,1.656 -16.922,4.896 l 1.441,11.593 7.705,-0.72 -0.073,-5.689 c 3.241,-1.727 5.473,-1.8 7.129,-1.8 5.04,0 8.713,0.72 8.713,5.473 0,5.184 -4.465,6.337 -9.649,7.272 -6.769,1.225 -14.833,2.88 -14.833,12.961 0,10.442 8.568,14.258 16.993,14.258 6.121,0 12.169,-2.016 15.193,-5.184 L 16.13,32.906 8.425,32.187 7.776,37.659 c -2.448,1.656 -4.896,2.088 -7.2,2.088 -3.816,0 -6.696,-1.152 -6.696,-4.536 0,-3.961 3.816,-5.041 8.064,-5.977 C 7.705,28.01 18.361,26.858 18.361,14.905 18.361,5.256 11.377,0 0,0"
         style="fill:#515256;fill-opacity:1;fill-rule:nonzero;stroke:none"
         id="path26"
         inkscape:connector-curvature="0" />
    </g>
    <g
       id="g28"
       transform="matrix(0.77854846,0,0,-0.77854846,238.79672,203.52129)">
      <path
         d="M 0,0 V 8.209 H 5.04 V 38.596 H 0 v 8.208 H 19.729 V 38.596 H 14.688 V 8.209 h 5.041 V 0 Z"
         style="fill:#515256;fill-opacity:1;fill-rule:nonzero;stroke:none"
         id="path30"
         inkscape:connector-curvature="0" />
    </g>
    <g
       id="g32"
       transform="matrix(0.77854846,0,0,-0.77854846,285.21229,179.97626)">
      <path
         d="m 0,0 -1.439,8.354 h -7.417 v -30.387 h 7.632 v -8.209 h -24.482 v 8.209 h 7.2 V 8.354 h -7.416 L -27.362,0 l -8.209,0.721 1.44,15.841 h 40.9 L 8.209,0.721 Z"
         style="fill:#515256;fill-opacity:1;fill-rule:nonzero;stroke:none"
         id="path34"
         inkscape:connector-curvature="0" />
    </g>
  </g>
</svg>
