<?xml version="1.0" encoding="UTF-8" standalone="no"?>
<!-- Created with Inkscape (http://www.inkscape.org/) -->

<svg
   xmlns:dc="http://purl.org/dc/elements/1.1/"
   xmlns:cc="http://creativecommons.org/ns#"
   xmlns:rdf="http://www.w3.org/1999/02/22-rdf-syntax-ns#"
   xmlns:svg="http://www.w3.org/2000/svg"
   xmlns="http://www.w3.org/2000/svg"
   xmlns:sodipodi="http://sodipodi.sourceforge.net/DTD/sodipodi-0.dtd"
   xmlns:inkscape="http://www.inkscape.org/namespaces/inkscape"
   width="204.98726mm"
   height="39.260464mm"
   viewBox="0 0 204.98726 39.260464"
   version="1.1"
   id="svg4561"
   inkscape:version="0.92.1 r"
   sodipodi:docname="horizontal color.svg">
  <defs
     id="defs4555" />
  <sodipodi:namedview
     id="base"
     pagecolor="#ffffff"
     bordercolor="#666666"
     borderopacity="1.0"
     inkscape:pageopacity="0.0"
     inkscape:pageshadow="2"
     inkscape:zoom="0.35"
     inkscape:cx="-89.765362"
     inkscape:cy="74.192984"
     inkscape:document-units="mm"
     inkscape:current-layer="layer1"
     showgrid="false"
     fit-margin-top="0"
     fit-margin-left="0"
     fit-margin-right="0"
     fit-margin-bottom="0"
     inkscape:window-width="1366"
     inkscape:window-height="744"
     inkscape:window-x="0"
     inkscape:window-y="0"
     inkscape:window-maximized="1" />
  <metadata
     id="metadata4558">
    <rdf:RDF>
      <cc:Work
         rdf:about="">
        <dc:format>image/svg+xml</dc:format>
        <dc:type
           rdf:resource="http://purl.org/dc/dcmitype/StillImage" />
        <dc:title></dc:title>
      </cc:Work>
    </rdf:RDF>
  </metadata>
  <g
     inkscape:label="Layer 1"
     inkscape:groupmode="layer"
     id="layer1"
     transform="translate(-3.3397044,-129.2031)">
    <g
       id="g24"
       transform="matrix(0.26458333,0,0,0.26458333,3.3397044,129.2031)">
      <path
         style="fill:#414042"
         inkscape:connector-curvature="0"
         d="m 212.133,31.731 h 18.04 v 67.865 c 0,3.805 1.718,5.031 3.191,5.031 0.736,0 1.227,0 2.209,-0.245 l 2.209,13.377 c -1.964,0.859 -5.031,1.473 -9.081,1.473 -12.395,0 -16.567,-8.101 -16.567,-20.372 V 31.731 Z"
         id="path2" />
      <path
         style="fill:#414042"
         inkscape:connector-curvature="0"
         d="m 245.755,38.481 c 0,-5.522 4.417,-9.327 10.431,-9.327 6.137,0 10.432,3.805 10.432,9.327 0,5.522 -4.296,9.449 -10.432,9.449 -6.013,0 -10.431,-3.926 -10.431,-9.449 z m 1.473,18.408 h 18.04 v 60.87 h -18.04 z"
         id="path4" />
      <path
         style="fill:#414042"
         inkscape:connector-curvature="0"
         d="m 281.095,31.731 h 18.04 V 52.84 l -0.491,9.326 c 4.664,-4.173 10.431,-6.749 16.076,-6.749 14.726,0 23.93,12.15 23.93,30.803 0,20.986 -12.518,33.013 -25.648,33.013 -5.401,0 -11.045,-2.7 -15.832,-7.854 h -0.491 l -1.473,6.381 H 281.094 V 31.731 Z m 27.735,72.774 c 6.258,0 11.289,-5.401 11.289,-17.919 0,-10.922 -3.314,-16.444 -10.554,-16.444 -3.682,0 -6.995,1.718 -10.431,5.522 v 24.912 c 3.192,2.947 6.627,3.929 9.696,3.929 z"
         id="path6" />
      <path
         style="fill:#414042"
         inkscape:connector-curvature="0"
         d="m 360.612,96.528 c 6.26,0 10.923,4.908 10.923,11.413 0,6.381 -4.664,11.291 -10.923,11.291 -6.258,0 -10.922,-4.91 -10.922,-11.291 10e-4,-6.505 4.664,-11.413 10.922,-11.413 z"
         id="path8" />
      <path
         style="fill:#414042"
         inkscape:connector-curvature="0"
         d="m 386.995,56.889 h 14.726 l 1.227,10.677 h 0.491 c 4.419,-8.224 11.045,-12.15 17.305,-12.15 3.435,0 5.522,0.491 7.24,1.227 l -2.946,15.587 c -2.209,-0.614 -4.049,-0.982 -6.626,-0.982 -4.54,0 -10.186,2.944 -13.377,11.166 v 35.345 h -18.04 z"
         id="path10" />
      <path
         style="fill:#414042"
         inkscape:connector-curvature="0"
         d="m 459.763,55.416 c 17.305,0 25.894,12.641 25.894,29.208 0,3.191 -0.368,6.135 -0.736,7.608 h -36.448 c 1.594,9.204 7.731,13.255 15.83,13.255 4.542,0 8.715,-1.351 13.132,-4.051 l 6.013,10.923 c -6.258,4.294 -14.359,6.872 -21.599,6.872 -17.428,0 -30.804,-11.782 -30.804,-31.908 10e-4,-19.757 14.114,-31.907 28.718,-31.907 z m 10.554,25.648 c 0,-6.994 -2.944,-11.904 -10.186,-11.904 -5.644,0 -10.554,3.805 -11.78,11.904 z"
         id="path12" />
      <path
         style="fill:#414042"
         inkscape:connector-curvature="0"
         d="m 491.664,58.116 h 10.431 l 11.291,33.872 c 1.718,5.89 3.682,11.904 5.522,17.549 h 0.491 c 1.718,-5.646 3.682,-11.659 5.399,-17.549 l 11.291,-33.872 h 9.94 l -21.108,59.643 h -11.782 z"
         id="path14" />
      <path
         style="fill:#414042"
         inkscape:connector-curvature="0"
         d="m 555.719,39.34 c 0,-3.928 3.069,-6.504 6.995,-6.504 3.928,0 6.995,2.576 6.995,6.504 0,3.805 -3.067,6.504 -6.995,6.504 -3.926,0 -6.995,-2.699 -6.995,-6.504 z m 1.841,18.776 h 10.063 v 59.643 H 557.56 Z"
         id="path16" />
      <path
         style="fill:#414042"
         inkscape:connector-curvature="0"
         d="m 610.081,56.643 c 15.217,0 23.807,10.923 23.807,27.982 0,2.085 -0.122,4.049 -0.368,5.522 h -40.253 c 0.737,12.886 8.468,20.984 19.881,20.984 5.646,0 10.432,-1.841 14.85,-4.664 l 3.558,6.628 c -5.153,3.314 -11.536,6.137 -19.635,6.137 -15.955,0 -28.594,-11.659 -28.594,-31.172 10e-4,-19.512 13.131,-31.417 26.754,-31.417 z m 14.971,26.876 c 0,-12.15 -5.399,-18.899 -14.726,-18.899 -8.345,0 -15.953,6.872 -17.18,18.899 z"
         id="path18" />
      <path
         style="fill:#414042"
         inkscape:connector-curvature="0"
         d="m 642.104,58.116 h 10.307 l 8.836,34.484 c 1.35,5.646 2.455,11.046 3.558,16.569 h 0.491 c 1.35,-5.522 2.578,-11.046 4.051,-16.569 l 9.204,-34.484 h 9.817 l 9.327,34.484 c 1.473,5.646 2.823,11.046 4.173,16.569 h 0.491 c 1.35,-5.522 2.455,-10.923 3.682,-16.569 l 8.713,-34.484 h 9.573 l -15.955,59.643 H 696.101 L 687.51,85.728 c -1.471,-5.644 -2.576,-11.166 -4.049,-17.18 h -0.491 c -1.35,6.013 -2.576,11.657 -4.173,17.303 l -8.345,31.908 h -11.781 z"
         id="path20" />
      <path
         style="fill:#414042"
         inkscape:connector-curvature="0"
         d="m 735.731,104.259 c 5.155,4.173 10.431,7.119 17.549,7.119 7.854,0 11.78,-4.173 11.78,-9.327 0,-6.137 -7.117,-8.836 -13.621,-11.291 -8.468,-3.067 -17.796,-7.117 -17.796,-17.18 0,-9.574 7.609,-16.937 20.495,-16.937 7.486,0 13.991,3.069 18.531,6.751 l -4.787,6.381 c -4.049,-3.069 -8.345,-5.278 -13.621,-5.278 -7.486,0 -10.923,4.051 -10.923,8.592 0,5.522 6.504,7.731 13.255,10.307 8.59,3.191 18.162,6.751 18.162,18.04 0,9.695 -7.731,17.796 -21.845,17.796 -8.467,0 -16.567,-3.558 -22.211,-8.222 z"
         id="path22" />
    </g>
    <g
       id="g42"
       transform="matrix(0.26458333,0,0,0.26458333,3.3397044,129.2031)">
      <g
         id="g30">
        <polygon
           style="fill:#f15a29"
           points="160.116,116.409 160.116,30.102 93.56,30.102 93.56,86.307 93.56,93.56 86.307,93.56 73.808,93.56 73.808,116.409 129.841,116.409 160.116,148.386 "
           id="polygon26" />
        <polygon
           style="fill:#009444"
           points="0,0 0,86.307 0,118.284 30.275,86.307 86.307,86.307 86.307,0 "
           id="polygon28" />
      </g>
      <g
         style="opacity:0.6"
         id="g34">
        <polygon
           style="fill:#ffffff"
           points="98.458,64.175 114.251,61.88 121.314,47.569 128.377,61.88 144.169,64.175 132.742,75.314 135.439,91.043 121.314,83.617 107.188,91.043 109.886,75.314 "
           id="polygon32" />
      </g>
      <g
         id="g38">
        <polygon
           style="fill:#ffffff"
           points="109.886,75.314 107.188,91.043 121.314,83.617 121.314,47.569 114.251,61.88 98.458,64.175 "
           id="polygon36" />
      </g>
      <polygon
         style="fill:#ffffff"
         points="13.415,34.343 33.964,31.357 43.154,12.736 52.344,31.357 72.893,34.343 58.023,48.837 61.533,69.303 43.154,59.64 24.774,69.303 28.284,48.837 "
         id="polygon40" />
    </g>
  </g>
</svg>
