<?xml version="1.0" encoding="UTF-8" standalone="no"?>
<!-- Created with Inkscape (http://www.inkscape.org/) -->

<svg
   xmlns:dc="http://purl.org/dc/elements/1.1/"
   xmlns:cc="http://creativecommons.org/ns#"
   xmlns:rdf="http://www.w3.org/1999/02/22-rdf-syntax-ns#"
   xmlns:svg="http://www.w3.org/2000/svg"
   xmlns="http://www.w3.org/2000/svg"
   xmlns:sodipodi="http://sodipodi.sourceforge.net/DTD/sodipodi-0.dtd"
   xmlns:inkscape="http://www.inkscape.org/namespaces/inkscape"
   width="1000"
   height="1000"
   viewBox="0 0 264.58334 264.58332"
   version="1.1"
   id="svg8"
   inkscape:version="0.92.3 (2405546, 2018-03-11)"
   sodipodi:docname="avatar.svg"
   inkscape:export-filename="/home/anxhelo/Desktop/RUST LATAM Assets/PNG/Social Media/avatar.png"
   inkscape:export-xdpi="53.333332"
   inkscape:export-ydpi="53.333332">
  <defs
     id="defs2" />
  <sodipodi:namedview
     id="base"
     pagecolor="#ffffff"
     bordercolor="#666666"
     borderopacity="1.0"
     inkscape:pageopacity="0"
     inkscape:pageshadow="2"
     inkscape:zoom="0.26233604"
     inkscape:cx="306.34512"
     inkscape:cy="520.74903"
     inkscape:document-units="px"
     inkscape:current-layer="layer1"
     inkscape:document-rotation="0"
     showgrid="false"
     borderlayer="true"
     inkscape:showpageshadow="true"
     units="px"
     inkscape:pagecheckerboard="false"
     showguides="true"
     inkscape:window-width="1366"
     inkscape:window-height="715"
     inkscape:window-x="0"
     inkscape:window-y="0"
     inkscape:window-maximized="1"
     objecttolerance="10"
     guidetolerance="10"
     inkscape:snap-tangential="true"
     inkscape:snap-perpendicular="true"
     inkscape:snap-page="true">
    <inkscape:grid
       type="xygrid"
       id="grid10"
       dotted="false" />
  </sodipodi:namedview>
  <metadata
     id="metadata5">
    <rdf:RDF>
      <cc:Work
         rdf:about="">
        <dc:format>image/svg+xml</dc:format>
        <dc:type
           rdf:resource="http://purl.org/dc/dcmitype/StillImage" />
        <dc:title></dc:title>
        <cc:license
           rdf:resource="" />
      </cc:Work>
    </rdf:RDF>
  </metadata>
  <g
     inkscape:label="Layer 1"
     inkscape:groupmode="layer"
     id="layer1"
     transform="translate(0,-32.416677)">
    <g
       id="g2647"
       transform="matrix(1.4073581,0,0,1.4073581,0,32.416677)">
      <g
         id="g2598">
        <polygon
           id="polygon2534"
           points="47,188 0,141 0,188 "
           class="st0"
           style="fill:#ffc84b" />
        <polygon
           id="polygon2536"
           points="0,141 47,188 47,141 "
           class="st1"
           style="fill:#fbe372" />
        <polygon
           id="polygon2538"
           points="94,188 47,141 47,188 "
           class="st2"
           style="fill:#d13d5c" />
        <polygon
           id="polygon2540"
           points="47,141 94,188 94,141 "
           class="st3"
           style="fill:#e74365" />
        <polygon
           id="polygon2542"
           points="47,141 0,94 0,141 "
           class="st4"
           style="fill:#1eb69f" />
        <polygon
           id="polygon2544"
           points="0,94 47,141 47,94 "
           class="st5"
           style="fill:#1ba591" />
        <polygon
           id="polygon2546"
           points="94,141 47,94 47,141 "
           class="st6"
           style="fill:#273b91" />
        <polygon
           id="polygon2548"
           points="47,94 94,141 94,94 "
           class="st7"
           style="fill:#0059a8" />
        <polygon
           id="polygon2550"
           points="47,94 0,47 0,94 "
           class="st3"
           style="fill:#e74365" />
        <polygon
           id="polygon2552"
           points="0,47 47,94 47,47 "
           class="st2"
           style="fill:#d13d5c" />
        <polygon
           id="polygon2554"
           points="94,94 47,47 47,94 "
           class="st6"
           style="fill:#273b91" />
        <polygon
           id="polygon2556"
           points="47,47 94,94 94,47 "
           class="st7"
           style="fill:#0059a8" />
        <polygon
           id="polygon2558"
           points="47,47 0,0 0,47 "
           class="st1"
           style="fill:#fbe372" />
        <polygon
           id="polygon2560"
           points="0,0 47,47 47,0 "
           class="st0"
           style="fill:#ffc84b" />
        <polygon
           id="polygon2562"
           points="94,47 47,0 47,47 "
           class="st4"
           style="fill:#1eb69f" />
        <polygon
           id="polygon2564"
           points="47,0 94,47 94,0 "
           class="st5"
           style="fill:#1ba591" />
        <polygon
           id="polygon2566"
           points="141,188 94,141 94,188 "
           class="st4"
           style="fill:#1eb69f" />
        <polygon
           id="polygon2568"
           points="94,141 141,188 141,141 "
           class="st5"
           style="fill:#1ba591" />
        <polygon
           id="polygon2570"
           points="188,188 141,141 141,188 "
           class="st1"
           style="fill:#fbe372" />
        <polygon
           id="polygon2572"
           points="141,141 188,188 188,141 "
           class="st0"
           style="fill:#ffc84b" />
        <polygon
           id="polygon2574"
           points="141,141 94,94 94,141 "
           class="st7"
           style="fill:#0059a8" />
        <polygon
           id="polygon2576"
           points="94,94 141,141 141,94 "
           class="st6"
           style="fill:#273b91" />
        <polygon
           id="polygon2578"
           points="188,141 141,94 141,141 "
           class="st3"
           style="fill:#e74365" />
        <polygon
           id="polygon2580"
           points="141,94 188,141 188,94 "
           class="st3"
           style="fill:#e74365" />
        <polygon
           id="polygon2582"
           points="141,94 94,47 94,94 "
           class="st7"
           style="fill:#0059a8" />
        <polygon
           id="polygon2584"
           points="94,47 141,94 141,47 "
           class="st6"
           style="fill:#273b91" />
        <polygon
           id="polygon2586"
           points="188,94 141,47 141,94 "
           class="st4"
           style="fill:#1eb69f" />
        <polygon
           id="polygon2588"
           points="141,47 188,94 188,47 "
           class="st5"
           style="fill:#1ba591" />
        <polygon
           id="polygon2590"
           points="141,47 94,0 94,47 "
           class="st1"
           style="fill:#fbe372" />
        <polygon
           id="polygon2592"
           points="94,0 141,47 141,0 "
           class="st0"
           style="fill:#ffc84b" />
        <polygon
           id="polygon2594"
           points="188,47 141,0 141,47 "
           class="st2"
           style="fill:#d13d5c" />
        <polygon
           id="polygon2596"
           points="141,0 188,47 188,0 "
           class="st3"
           style="fill:#e74365" />
      </g>
      <g
         id="g2602">
        <path
           id="path2600"
           d="m 169.7,92.8 c -0.2,-0.3 -0.4,-0.5 -0.7,-0.7 l -6.5,-4 c 0,-0.6 -0.1,-1.2 -0.2,-1.7 l 5.6,-5.2 c 0.9,-0.8 0.9,-2.2 0.1,-3.1 -0.2,-0.2 -0.5,-0.4 -0.8,-0.6 l -7.1,-2.7 c -0.2,-0.6 -0.3,-1.1 -0.5,-1.7 L 164,67 c 0.7,-1 0.5,-2.3 -0.5,-3 -0.3,-0.2 -0.6,-0.3 -0.9,-0.4 l -7.5,-1.2 c -0.3,-0.5 -0.5,-1 -0.8,-1.5 l 3.2,-7 c 0.5,-1.1 0,-2.4 -1.1,-2.9 -0.3,-0.1 -0.6,-0.2 -1,-0.2 l -7.7,0.3 c -0.4,-0.4 -0.7,-0.9 -1.1,-1.3 l 1.8,-7.5 c 0.3,-1.2 -0.4,-2.3 -1.6,-2.6 -0.3,-0.1 -0.7,-0.1 -1,0 l -7.5,1.8 c -0.4,-0.4 -0.9,-0.7 -1.3,-1.1 l 0.3,-7.7 c 0,-1.2 -0.9,-2.2 -2.1,-2.3 -0.3,0 -0.7,0.1 -1,0.2 l -7,3.2 c -0.5,-0.3 -1,-0.5 -1.5,-0.8 l -1.2,-7.5 c -0.2,-1.2 -1.3,-2 -2.5,-1.8 -0.3,0.1 -0.7,0.2 -0.9,0.4 l -6.2,4.4 c -0.6,-0.2 -1.1,-0.3 -1.7,-0.5 l -2.7,-7.1 c -0.4,-1.1 -1.7,-1.7 -2.8,-1.3 -0.3,0.1 -0.6,0.3 -0.8,0.6 l -5.2,5.6 c -0.6,-0.1 -1.2,-0.1 -1.7,-0.2 l -4,-6.5 c -0.4,-0.6 -1.1,-1 -1.8,-1 -0.8,0 -1.5,0.4 -1.9,1 l -4,6.5 c -0.6,0 -1.2,0.1 -1.7,0.2 l -5.2,-5.6 c -0.8,-0.9 -2.2,-0.9 -3.1,-0.1 -0.2,0.2 -0.4,0.5 -0.6,0.8 L 74.9,28 c -0.6,0.2 -1.1,0.3 -1.7,0.5 L 67,24 c -1,-0.7 -2.3,-0.5 -3,0.5 -0.2,0.3 -0.3,0.6 -0.4,0.9 L 62.4,33 c -0.5,0.3 -1,0.5 -1.5,0.8 l -7,-3.2 c -1.1,-0.5 -2.4,0 -2.9,1.1 -0.1,0.3 -0.2,0.6 -0.2,1 l 0.3,7.7 c -0.4,0.4 -0.9,0.7 -1.3,1.1 l -7.5,-1.8 c -1.2,-0.3 -2.3,0.4 -2.6,1.6 -0.1,0.3 -0.1,0.7 0,1 l 1.8,7.5 c -0.4,0.4 -0.7,0.9 -1.1,1.3 l -7.7,-0.3 c -1.2,0 -2.2,0.9 -2.3,2.1 0,0.3 0.1,0.7 0.2,1 l 3.2,7 c -0.3,0.5 -0.5,1 -0.8,1.5 l -7.5,1.2 c -1.2,0.2 -2,1.3 -1.8,2.5 0.1,0.3 0.2,0.7 0.4,0.9 l 4.4,6.2 c -0.2,0.6 -0.3,1.1 -0.5,1.7 l -7.1,2.7 c -1.1,0.4 -1.7,1.7 -1.3,2.8 0.1,0.3 0.3,0.6 0.6,0.8 l 5.6,5.2 c -0.1,0.6 -0.1,1.2 -0.2,1.7 l -6.5,4 c -1,0.6 -1.3,2 -0.7,3 0.2,0.3 0.4,0.5 0.7,0.7 l 6.5,4 c 0,0.6 0.1,1.2 0.2,1.7 l -5.6,5.2 c -0.9,0.8 -0.9,2.2 -0.1,3.1 0.2,0.2 0.5,0.4 0.8,0.6 l 7.1,2.7 c 0.2,0.6 0.3,1.1 0.5,1.7 L 24,121 c -0.7,1 -0.5,2.3 0.5,3 0.3,0.2 0.6,0.3 0.9,0.4 l 7.5,1.2 c 0.3,0.5 0.5,1 0.8,1.5 l -3.2,7 c -0.5,1.1 0,2.4 1.1,2.9 0.3,0.1 0.6,0.2 1,0.2 l 7.7,-0.3 c 0.4,0.4 0.7,0.9 1.1,1.3 l -1.8,7.5 c -0.3,1.2 0.4,2.3 1.6,2.6 0.3,0.1 0.7,0.1 1,0 l 7.5,-1.8 c 0.4,0.4 0.9,0.7 1.3,1.1 l -0.3,7.7 c 0,1.2 0.9,2.2 2.1,2.3 0.3,0 0.7,-0.1 1,-0.2 l 7,-3.2 c 0.5,0.3 1,0.5 1.5,0.8 l 1.2,7.5 c 0.2,1.2 1.3,2 2.5,1.8 0.3,-0.1 0.6,-0.2 0.9,-0.4 l 6.2,-4.4 c 0.6,0.2 1.1,0.3 1.7,0.5 l 2.7,7.1 c 0.4,1.1 1.7,1.7 2.8,1.3 0.3,-0.1 0.6,-0.3 0.8,-0.6 l 5.2,-5.6 c 0.6,0.1 1.2,0.1 1.7,0.2 l 4,6.5 c 0.6,1 2,1.3 3,0.7 0.3,-0.2 0.5,-0.4 0.7,-0.7 l 4,-6.5 c 0.6,0 1.2,-0.1 1.7,-0.2 l 5.2,5.6 c 0.8,0.9 2.2,0.9 3.1,0.1 0.2,-0.2 0.4,-0.5 0.6,-0.8 L 113,160 c 0.6,-0.2 1.1,-0.3 1.7,-0.5 l 6.2,4.4 c 1,0.7 2.3,0.5 3,-0.5 0.2,-0.3 0.3,-0.6 0.4,-0.9 l 1.2,-7.5 c 0.5,-0.3 1,-0.5 1.5,-0.8 l 7,3.2 c 1.1,0.5 2.4,0 2.9,-1.1 0.1,-0.3 0.2,-0.6 0.2,-1 l -0.3,-7.7 c 0.4,-0.4 0.9,-0.7 1.3,-1.1 l 7.5,1.8 c 1.2,0.3 2.3,-0.4 2.6,-1.6 0.1,-0.3 0.1,-0.7 0,-1 l -1.8,-7.5 c 0.4,-0.4 0.7,-0.9 1.1,-1.3 l 7.7,0.3 c 1.2,0 2.2,-0.9 2.3,-2.1 0,-0.3 -0.1,-0.7 -0.2,-1 l -3.2,-7 c 0.3,-0.5 0.5,-1 0.8,-1.5 l 7.5,-1.2 c 1.2,-0.2 2,-1.3 1.8,-2.5 -0.1,-0.3 -0.2,-0.6 -0.4,-0.9 l -4.4,-6.2 c 0.2,-0.6 0.3,-1.1 0.5,-1.7 l 7.1,-2.7 c 1.1,-0.4 1.7,-1.7 1.3,-2.8 -0.1,-0.3 -0.3,-0.6 -0.6,-0.8 l -5.6,-5.2 c 0.1,-0.6 0.1,-1.2 0.2,-1.7 l 6.5,-4 c 1.2,-0.7 1.5,-2 0.9,-3.1 z m -20.2,4.8 h -5.7 c -0.6,0 -0.8,0.4 -0.8,0.9 v 2.6 c 0,6.2 -3.5,7.5 -6.5,7.9 -2.9,0.3 -6.1,-1.2 -6.5,-3 -1.7,-9.6 -4.6,-11.7 -9.1,-15.3 5.6,-3.5 11.4,-8.8 11.4,-15.8 0,-7.6 -5.2,-12.3 -8.7,-14.7 -5,-3.3 -10.5,-3.9 -12,-3.9 H 52.5 C 60.7,47.2 71.6,41 83.6,38.7 l 7,7.3 c 1.6,1.6 4.2,1.7 5.8,0.1 l 7.8,-7.4 c 16.1,3 30,12.9 38.1,27.1 L 137,78 c -0.9,2.1 0,4.5 2.1,5.5 l 10.3,4.6 c 0.3,3.1 0.3,6.3 0.1,9.5 z m -25.4,32.9 c -2.2,-0.5 -4.4,0.9 -4.9,3.2 l -2.3,10.6 c -14.8,6.7 -31.7,6.6 -46.4,-0.2 l -2.3,-10.6 c -0.5,-2.2 -2.7,-3.7 -4.9,-3.2 l -9.4,2 c -1.7,-1.8 -3.3,-3.7 -4.8,-5.7 h 45.5 c 0.5,0 0.9,-0.1 0.9,-0.6 v -16.1 c 0,-0.5 -0.3,-0.6 -0.9,-0.6 H 81.4 V 99.1 h 14.4 c 1.3,0 7,0.4 8.8,7.7 0.6,2.2 1.8,9.5 2.7,11.9 0.9,2.6 4.3,7.9 8,7.9 h 23.5 c -1.6,2.1 -3.3,4.1 -5.1,6 z m 7.7,10.2 c 0,2.5 -2,4.5 -4.5,4.5 -2.5,0 -4.5,-2 -4.5,-4.5 0,-2.5 2,-4.5 4.5,-4.5 0,0 0.1,0 0.1,0 2.4,0.1 4.4,2.1 4.4,4.5 z m -67,-0.2 c 0,2.5 -2,4.5 -4.5,4.5 -2.5,0 -4.5,-2 -4.5,-4.5 0,-2.5 2,-4.5 4.5,-4.5 0,0 0.1,0 0.1,0 2.4,0 4.4,2.1 4.4,4.5 z M 40.5,108.8 c -2,-6.9 -2.6,-14.1 -1.8,-21.3 l 9.7,-4.3 c 2.1,-0.9 3,-3.4 2.1,-5.4 l -2,-4.5 h 7.9 v 35.5 z M 39.8,72.3 c 0,0 0.1,0 0.1,0 2.4,0.1 4.4,2.1 4.4,4.5 0,2.5 -2,4.5 -4.5,4.5 -2.5,0 -4.5,-2 -4.5,-4.5 0,-2.5 2,-4.5 4.5,-4.5 z M 81.4,84.1 V 73.6 h 18.8 c 1,0 6.9,1.1 6.9,5.5 0,3.7 -4.5,5 -8.2,5 z m 7.8,-48.2 c 0,-2.5 2,-4.5 4.5,-4.5 0,0 0.1,0 0.1,0 2.4,0.1 4.4,2.1 4.4,4.5 0,2.5 -2,4.5 -4.5,4.5 -2.4,0 -4.5,-2 -4.5,-4.5 z m 58.5,45.6 c -2.5,0 -4.5,-2 -4.5,-4.5 0,-2.5 2,-4.5 4.5,-4.5 0,0 0.1,0 0.1,0 2.4,0.1 4.4,2.1 4.4,4.5 0,2.5 -2,4.5 -4.5,4.5 z m -103,61.7 c 0.1,0 0.1,0 0.2,0 z"
           class="st8"
           inkscape:connector-curvature="0"
           style="fill:#ffffff" />
      </g>
    </g>
  </g>
</svg>
