<svg xmlns="http://www.w3.org/2000/svg" viewBox="0 0 984.6 662.7"><style><![CDATA[.A{fill:#B20F32}]]></style><path class="A" d="M369.6 313.8h-10.9v29.5h-20.1v-83.4h32.8c9.9 0 17.6 2.2 23.2 6.6s8.4 10.6 8.4 18.6c0 5.8-1.2 10.6-3.5 14.4s-6 6.9-11 9.3l17.4 33.7v.9h-21.5l-14.8-29.6zm-10.9-15.5h12.7c3.8 0 6.7-1 8.6-3s2.9-4.8 2.9-8.4-1-6.4-2.9-8.5c-1.9-2-4.8-3.1-8.6-3.1h-12.7v23zm121.8-38.4v54.6c0 6.2-1.3 11.5-3.9 16.1-2.6 4.5-6.4 8-11.3 10.3-4.9 2.4-10.7 3.5-17.5 3.5-10.2 0-18.2-2.6-24-7.9s-8.8-12.5-8.9-21.6v-55H435v55.4c.2 9.1 4.5 13.7 12.7 13.7 4.2 0 7.3-1.1 9.4-3.4s3.2-6 3.2-11.2v-54.5h20.2zm55.6 61.2c0-2.9-1-5.2-3.1-6.9s-5.7-3.3-11-5.1c-5.2-1.8-9.5-3.5-12.8-5.1-10.8-5.3-16.2-12.6-16.2-21.9 0-4.6 1.3-8.7 4-12.2s6.5-6.3 11.4-8.2c4.9-2 10.5-2.9 16.6-2.9 6 0 11.4 1.1 16.1 3.2 4.8 2.1 8.4 5.2 11.1 9.1 2.6 4 3.9 8.5 3.9 13.5h-20c0-3.4-1-6-3.1-7.9s-4.9-2.8-8.4-2.8c-3.6 0-6.4.8-8.5 2.4s-3.1 3.6-3.1 6c0 2.1 1.1 4.1 3.4 5.8s6.3 3.5 12.1 5.4 10.5 3.9 14.2 6c9 5.2 13.5 12.3 13.5 21.5 0 7.3-2.7 13-8.2 17.2s-13 6.2-22.6 6.2c-6.8 0-12.9-1.2-18.3-3.6-5.5-2.4-9.6-5.7-12.4-10-2.8-4.2-4.2-9.1-4.2-14.6h20.2c0 4.5 1.2 7.8 3.5 9.9s6.1 3.2 11.3 3.2c3.3 0 5.9-.7 7.9-2.1 1.7-1.5 2.7-3.5 2.7-6.1zm95.8-45.7h-25v67.9h-20.1v-67.9h-24.6v-15.5h69.7v15.5zm61 34.6h-32.4v33.2h-20.1v-83.4h55.8v15.5h-35.7v19.2h32.4V310zm63.3-2.1h-31.6v19.9H762v15.5h-57.4v-83.4h57.6v15.5h-37.4V293h31.6v14.9h-.2zm57 13.2c0-2.9-1-5.2-3.1-6.9-2.1-1.6-5.7-3.3-11-5.1-5.2-1.8-9.5-3.5-12.8-5.1-10.8-5.3-16.2-12.6-16.2-21.9 0-4.6 1.3-8.7 4-12.2s6.5-6.3 11.4-8.2c4.9-2 10.5-2.9 16.6-2.9 6 0 11.4 1.1 16.1 3.2 4.8 2.1 8.4 5.2 11.1 9.1 2.6 4 3.9 8.5 3.9 13.5h-20c0-3.4-1-6-3.1-7.9s-4.9-2.8-8.4-2.8c-3.6 0-6.4.8-8.5 2.4s-3.1 3.6-3.1 6c0 2.1 1.1 4.1 3.4 5.8s6.3 3.5 12.1 5.4 10.5 3.9 14.2 6c9 5.2 13.5 12.3 13.5 21.5 0 7.3-2.7 13-8.2 17.2s-13 6.2-22.6 6.2c-6.8 0-12.9-1.2-18.3-3.6-5.5-2.4-9.6-5.7-12.4-10-2.8-4.2-4.2-9.1-4.2-14.6h20.2c0 4.5 1.2 7.8 3.5 9.9s6.1 3.2 11.3 3.2c3.3 0 5.9-.7 7.9-2.1 1.7-1.5 2.7-3.5 2.7-6.1zm95.8-45.7h-25v67.9h-20.1v-67.9h-24.6v-15.5H909v15.5zm-566.3 127h-4.1v-36.6h17.5c3.7 0 6.7 1 8.9 3.1 2.2 2 3.4 4.8 3.4 8.3 0 4.6-1.9 7.7-5.7 9.3a13.9 13.9 0 0 1-3.1 1l9.6 14.7h-4.9l-8.8-14h-12.7v14.2zm0-17.9h12.6c3.9 0 6.6-1.2 8.1-3.6.6-.9.8-2.1.8-3.5 0-2.3-.8-4.2-2.4-5.5s-3.7-2-6.3-2h-12.9v14.6zm49.1-19.1c5.4 0 9.9 1.8 13.4 5.5 3.4 3.5 5.1 8 5.1 13.3s-1.7 9.7-5.1 13.3c-3.5 3.6-8 5.5-13.4 5.5s-9.9-1.8-13.4-5.5c-3.4-3.5-5.1-8-5.1-13.3s1.7-9.7 5.1-13.3c3.5-3.7 7.9-5.5 13.4-5.5zm0 33.4c4.3 0 7.9-1.4 10.5-4.3 2.6-2.7 3.9-6.2 3.9-10.4s-1.3-7.7-3.9-10.4c-2.7-2.8-6.2-4.3-10.5-4.3s-7.9 1.4-10.5 4.3c-2.6 2.7-3.9 6.2-3.9 10.4s1.3 7.7 3.9 10.4c2.6 2.9 6.1 4.3 10.5 4.3zm60.7-33v36.6h-4.1v-30.3l-13.5 17.4-13.8-17.4v30.3H417v-36.6h4.8l13.1 17.3 12.9-17.3h4.7zm13.1 4v12.3H486v4h-20.3v12.3h22.8v4h-26.9v-36.6h26.9v4h-22.9zm64.3 6.5c0 1.6-.5 3.1-1.4 4.6a15.4 15.4 0 0 1-3.6 4.1c-1.4 1.3-3 2.5-4.7 3.6l-4.7 3.3c-1.5 1.1-2.7 2.2-3.7 3.2s-1.6 2.1-1.7 3.2h19.7v4h-24.6V400c0-1.8.5-3.5 1.5-4.9 1-1.5 2.3-2.9 3.8-4.2s3.2-2.5 4.9-3.7l4.9-3.5c1.5-1.2 2.8-2.4 3.8-3.6s1.5-2.5 1.5-3.9c0-2.1-.7-3.8-2.1-5s-3.4-1.8-5.9-1.8-4.6.5-6.1 1.6-2.4 2.7-2.7 4.7h-4.1c.3-3.1 1.6-5.6 4-7.5s5.3-2.9 8.7-2.9c3.9 0 6.9 1 9.2 3.1 2.2 2.1 3.3 4.7 3.3 7.9zm5.2 7.8c0-12.5 4.3-18.7 12.8-18.7 4.6.1 8 2 10.2 5.9 1.7 3.1 2.6 7.4 2.6 12.9 0 12.5-4.3 18.7-12.8 18.7-8.5-.1-12.8-6.3-12.8-18.8zm12.8 14.7c4.9-.1 7.6-3.3 8.3-9.6.2-1.7.3-3.4.3-5.1 0-4.9-.7-8.6-2-11-1.4-2.4-3.6-3.6-6.6-3.6-3.1 0-5.3 1.2-6.6 3.6-1.4 2.4-2 6.1-2 11s.7 8.6 2 11c1.4 2.5 3.6 3.7 6.6 3.7zm32.4-33v36.6h-4.1v-32.6h-7.7v-4h11.8zm32.3 16.5c2.2.8 3.9 2.1 5.1 3.9 1.3 1.7 1.9 3.5 1.9 5.4s-.3 3.5-.9 4.8-1.4 2.5-2.5 3.5c-2.3 2-5.5 3-9.7 3-4.1 0-7.3-1-9.7-3-2.3-2-3.4-4.6-3.4-7.9 0-2.1.6-4 1.9-5.7s3-3 5.1-3.9c-1.4-.5-2.6-1.4-3.7-2.5-1.3-1.4-1.9-3.1-1.9-5.1 0-2.8 1-5 3-6.7s4.9-2.5 8.7-2.5 6.7.8 8.7 2.5 3 3.9 3 6.7c0 2.9-1.2 5.1-3.7 6.7-.7.2-1.3.6-1.9.8zm-6 16.6c2.8 0 4.9-.6 6.5-1.9s2.4-3 2.4-5.1c0-2.3-.9-4.1-2.7-5.6-1.7-1.3-3.8-1.9-6.3-1.9s-4.6.6-6.3 1.9c-1.8 1.4-2.7 3.3-2.7 5.5s.8 4 2.4 5.2c1.7 1.2 3.9 1.9 6.7 1.9zm0-18.4c2 0 3.6-.4 5-1.3 1.7-1.1 2.5-2.5 2.5-4.3s-.7-3.2-2.1-4.1-3.2-1.4-5.4-1.4-4 .5-5.4 1.4-2.1 2.3-2.1 4.1.8 3.2 2.3 4.2c1.5.9 3.2 1.4 5.2 1.4z"/><path d="M185.9 242.3c-49.2 0-89 39.8-89 89s39.8 89 89 89 89-39.8 89-89-39.8-89-89-89zm0 152.2c-34.9 0-63.2-28.3-63.2-63.2S151 268 185.9 268s63.2 28.3 63.2 63.2-28.3 63.3-63.2 63.3z" fill="#dd0e3b"/><path class="A" d="M269.6 265.3l-.5-2.1-.6-2-.7-1.9-.8-1.7-.9-1.6-1.1-1.5-1.1-1.3-1.3-1.1-1.5-1.1-1.6-.9-1.7-.8-1.9-.7-2-.6-2.1-.5-2.3-.4-30.3 30.3c8.3 5.1 15.2 12.1 20.4 20.4l30.3-30.3-.3-2.2zm-137.4 99.3l-30.3 30.3.4 2.3.5 2.1.6 2 .7 1.9.8 1.7.9 1.6 1.1 1.5 1.1 1.3 1.3 1.1 1.5 1.1 1.6.9 1.7.8 1.9.7 2 .6 2.1.5 2.3.4 30.3-30.3c-8.4-5.3-15.4-12.3-20.5-20.5zm163.9-35l-.3-1.8-.5-1.8-.7-1.8-.8-1.8-1-1.8-1.1-1.8-1.4-1.9h-42.9l-1.8.9-1.7.9-1.6.9-1.5.9-1.4.9-1.3.9-2.2 1.8-.9.9-.8.9-.7.9-.6.9-.5.9-.3.9-.2.9-.1.9.1.9.2.9.3.9.5.9.6.9.7.9.8.9.9.9 2.2 1.8 1.3.9 1.4.9 1.5.9 1.6.9 1.7.9 1.8.9h42.9l1.4-1.9 1.1-1.8 1-1.8.8-1.8.7-1.8.5-1.8.3-1.8.1-1.7-.1-1.7zm-53.3 6.1a4.48 4.48 0 1 1 0-9 4.48 4.48 0 1 1 0 9zm-103.1-5.3l-.2-.9-.3-.9-.5-.9-.6-.9-.7-.9-.8-.9-.9-.9-2.2-1.8-1.3-.9-1.4-.9-1.5-.9-1.6-.9-1.7-.9-1.8-.9H81.5l-1.4 1.9-1.1 1.8-1 1.8-.8 1.8-.7 1.8-.5 1.8-.3 1.8-.1 1.7.1 1.7.3 1.8.5 1.8.7 1.8.8 1.8 1 1.8 1.1 1.8 1.4 1.9h42.9l1.8-.9 1.7-.9 1.6-.9 1.5-.9 1.4-.9 1.3-.9 2.2-1.8.9-.9.8-.9.7-.9.6-.9.5-.9.3-.9.2-.9.1-.9-.3-.9zm-10.7 5.3a4.48 4.48 0 1 1 0-9 4.48 4.48 0 1 1 0 9zm122.8 79.2l2.1-.5 2-.6 1.9-.7 1.7-.8 1.6-.9 1.5-1.1 1.3-1.1 1.1-1.3 1.1-1.5.9-1.6.8-1.7.7-1.9.6-2 .5-2.1.4-2.3-30.3-30.3c-5.1 8.3-12.1 15.2-20.4 20.4l30.3 30.3 2.2-.3zm-99.2-137.4l-18.4-18.4-.2-.1-11.7-11.7-2.3.4-2.1.5-2 .6-1.9.7-1.7.8-1.6.9-1.5 1.1-1.3 1.1-1.1 1.3-1.1 1.5-.9 1.6-.8 1.7-.7 1.9-.6 2-.5 2.1-.4 2.3 30.3 30.3c5.2-8.4 12.2-15.4 20.5-20.6zm35 163.9l1.8-.3 1.8-.5 1.8-.7 1.8-.8 1.8-1 1.8-1.1 1.9-1.4v-42.9l-.9-1.8-.9-1.7-.9-1.6-.9-1.5-.9-1.4-.9-1.3-1.8-2.2-.9-.9-.9-.8-.9-.7-.9-.6-.9-.5-.9-.3-.9-.2-.9-.1-.9.1-.9.2-.9.3-.9.5-.9.6-.9.7-.9.8-.9.9-1.8 2.2-.9 1.3-.9 1.4-.9 1.5-.9 1.6-.9 1.7-.9 1.8v42.9l1.9 1.4 1.8 1.1 1.8 1 1.8.8 1.8.7 1.8.5 1.8.3 1.7.1 1.7-.1zm-6.2-53.3a4.48 4.48 0 1 1 9 0 4.48 4.48 0 1 1-9 0zm5.4-103l.9-.2.9-.3.9-.5.9-.6.9-.7.9-.8.9-.9 1.8-2.2.9-1.3.9-1.4.9-1.5.9-1.6.9-1.7.9-1.8v-42.9l-1.9-1.4-1.8-1.1-1.8-1-1.8-.8-1.8-.7-1.8-.5-1.8-.3-1.7-.1-1.7.1-1.8.3-1.8.5-1.8.7-1.8.8-1.8 1-1.8 1.1-1.9 1.4v42.9l.9 1.8.9 1.7.9 1.6.9 1.5.9 1.4.9 1.3 1.8 2.2.9.9.9.8.9.7.9.6.9.5.9.3.9.2.9.1.9-.1zm-5.4-10.7a4.5 4.5 0 1 1 4.5 4.5c-2.5-.1-4.5-2.1-4.5-4.5z"/></svg>