<svg xmlns="http://www.w3.org/2000/svg" viewBox="0 0 984.6 662.7"><style><![CDATA[.B{fill:#B20F32}]]></style><path d="M491 244.7c-48 0-86.9 38.9-86.9 86.9s38.9 86.9 86.9 86.9 86.9-38.9 86.9-86.9-38.9-86.9-86.9-86.9zm0 148.6c-34.1 0-61.7-27.6-61.7-61.7s27.6-61.7 61.7-61.7 61.7 27.6 61.7 61.7-27.6 61.7-61.7 61.7z" fill="#dd0e3b"/><path class="B" d="M572.7 267.2l-1-4-.7-1.8-.8-1.7-.9-1.6-1.1-1.4-1.1-1.2-1.2-1.1-1.4-1.1-1.6-.9-1.7-.8-1.8-.7-4-1-2.3-.4-11.6 11.7-17.9 17.9a61.04 61.04 0 0 1 19.9 19.9l29.5-29.5-.3-2.3zm-134.2 96.9l-18.1 18.1-11.4 11.5.4 2.3 1 4 .7 1.8.8 1.7.9 1.6 1.1 1.4 1.1 1.2 1.2 1.1 1.4 1.1 1.6.9 1.7.8 1.8.7 4 1 2.3.4 29.5-29.5c-8.1-5.2-14.9-12-20-20.1zm160.1-34.2l-.3-1.8-.5-1.8-.7-1.8-.8-1.8-1-1.8-1.1-1.8-1.3-1.8h-41.8l-1.7.9-3.2 1.8-1.5.9-1.3.9-1.2.9-1.1.9-1 .9-.9.9-.8.9-.7.9-.6.9-.5.9-.3.9-.2.9-.1.8.1.8.2.9.3.9.5.9.6.9.7.9.8.9.9.9 1 .9 1.1.9 1.2.9 1.3.9 1.5.9 3.2 1.8 1.7.9H593l1.3-1.8 1.1-1.8 1-1.8.8-1.8.7-1.8.5-1.8.3-1.8.1-1.6-.2-1.8zm-52 6c-2.4 0-4.4-2-4.4-4.4s2-4.4 4.4-4.4 4.4 2 4.4 4.4c-.1 2.5-2 4.4-4.4 4.4zm-100.7-5.2l-.2-.9-.3-.9-.5-.9-.6-.9-.7-.9-.8-.9-.9-.9-1-.9-1.1-.9-1.2-.9-1.3-.9-1.5-.9-3.2-1.8-1.7-.9H389l-1.3 1.8-1.1 1.8-1 1.8-.8 1.8-.7 1.8-.5 1.8-.3 1.8-.1 1.6.1 1.6.3 1.8.5 1.8.7 1.8.8 1.8 1 1.8 1.1 1.8 1.3 1.8h41.8l1.7-.9 3.2-1.8 1.5-.9 1.3-.9 1.2-.9 1.1-.9 1-.9.9-.9.8-.9.7-.9.6-.9.5-.9.3-.9.2-.9.1-.8v-.6zm-10.5 5.2c-2.4 0-4.4-2-4.4-4.4s2-4.4 4.4-4.4 4.4 2 4.4 4.4c0 2.5-1.9 4.4-4.4 4.4zm120 77.4l4-1 1.8-.7 1.7-.8 1.6-.9 1.4-1.1 1.2-1.1 1.1-1.2 1.1-1.4.9-1.6.8-1.7.7-1.8 1-4 .4-2.3-29.5-29.5a61.04 61.04 0 0 1-19.9 19.9l29.5 29.5 2.2-.3zm-97-134.2l-29.5-29.5-2.3.4-4 1-1.8.7-1.7.8-1.6.9-1.4 1.1-1.2 1.1-1.1 1.2-1.1 1.4-.9 1.6-.8 1.7-.7 1.8-1 4-.4 2.3 29.5 29.5c5.2-8.2 12-15 20-20zm34.2 160.1l1.8-.3 1.8-.5 1.8-.7 1.8-.8 1.8-1 1.8-1.1 1.8-1.3v-41.8l-.9-1.7-1.8-3.2-.9-1.5-.9-1.3-.9-1.2-.9-1.1-.9-1-.9-.9-.9-.8-.9-.7-.9-.6-.9-.5-.9-.3-.9-.2-.8-.1-.8.1-.9.2-.9.3-.9.5-.9.6-.9.7-.9.8-.9.9-.9 1-.9 1.1-.9 1.2-.9 1.3-.9 1.5-1.8 3.2-.9 1.7v41.8l1.8 1.3 1.8 1.1 1.8 1 1.8.8 1.8.7 1.8.5 1.8.3 1.6.1 1.8-.1zm-6-52.1c0-2.4 2-4.4 4.4-4.4s4.4 2 4.4 4.4-2 4.4-4.4 4.4-4.4-2-4.4-4.4zm5.2-100.6l.9-.2.9-.3.9-.5.9-.6.9-.7.9-.8.9-.9.9-1 .9-1.1.9-1.2.9-1.3.9-1.5 1.8-3.2.9-1.7v-41.8l-1.8-1.3-1.8-1.1-1.8-1-1.8-.8-1.8-.7-1.8-.5-1.8-.3-1.6-.1-1.6.1-1.8.3-1.8.5-1.8.7-1.8.8-1.8 1-1.8 1.1-1.8 1.3v41.8l.9 1.7 1.8 3.2.9 1.5.9 1.3.9 1.2.9 1.1.9 1 .9.9.9.8.9.7.9.6.9.5.9.3.9.2.8.1.6-.1zm-5.2-10.5c0-2.4 2-4.4 4.4-4.4s4.4 2 4.4 4.4-2 4.4-4.4 4.4-4.4-2-4.4-4.4z"/></svg>