<svg xmlns="http://www.w3.org/2000/svg" viewBox="0 0 984.6 662.7"><style><![CDATA[.A{fill:#B20F32}]]></style><path class="A" d="M252.2 315.3h-10.3v27.9h-19v-78.8h31c9.3 0 16.6 2.1 21.9 6.2s7.9 10 7.9 17.6c0 5.5-1.1 10-3.3 13.6s-5.7 6.5-10.4 8.8l16.4 31.8v.8h-20.3l-13.9-27.9zm-10.3-14.6h12c3.6 0 6.3-.9 8.1-2.9 1.8-1.9 2.7-4.5 2.7-7.9s-.9-6.1-2.8-8-4.5-2.9-8.1-2.9h-12l.1 21.7zM357 264.4V316c0 5.9-1.2 10.9-3.7 15.2s-6.1 7.5-10.7 9.8c-4.7 2.2-10.1 3.4-16.5 3.4-9.6 0-17.1-2.5-22.7-7.5-5.5-5-8.3-11.8-8.4-20.5v-51.9h19.1v52.2c.2 8.6 4.2 12.9 12 12.9 3.9 0 6.9-1.1 8.9-3.3s3-5.7 3-10.5v-51.5h19v.1zm52.5 57.8c0-2.8-1-4.9-3-6.5s-5.4-3.2-10.4-4.8c-4.9-1.7-9-3.3-12.1-4.8-10.2-5-15.3-11.9-15.3-20.7 0-4.4 1.3-8.2 3.8-11.5s6.1-5.9 10.8-7.8c4.6-1.9 9.9-2.8 15.7-2.8 5.7 0 10.7 1 15.2 3s8 4.9 10.5 8.6 3.7 8 3.7 12.8h-18.9c0-3.2-1-5.7-3-7.5s-4.6-2.6-8-2.6-6.1.8-8 2.2c-2 1.5-3 3.4-3 5.7 0 2 1.1 3.9 3.3 5.5s6 3.3 11.4 5.1c5.5 1.8 9.9 3.6 13.4 5.7 8.5 4.9 12.8 11.7 12.8 20.3 0 6.9-2.6 12.3-7.8 16.2s-12.3 5.9-21.4 5.9c-6.4 0-12.2-1.1-17.3-3.4-5.2-2.3-9.1-5.4-11.7-9.4s-3.9-8.6-3.9-13.8h19c0 4.2 1.1 7.3 3.3 9.3s5.7 3 10.6 3c3.1 0 5.6-.7 7.4-2 1.9-1.3 2.9-3.2 2.9-5.7zM500 279h-23.6v64.1h-19V279h-23.2v-14.7H500V279zm57.6 32.8H527v31.4h-19v-78.8h52.7v14.7H527v18.1h30.6v14.6zm59.9-2.1h-29.9v18.8h35.3v14.6h-54.3v-78.8H623V279h-35.4v16.7h29.9v14zm53.8 12.5c0-2.8-1-4.9-3-6.5-2-1.5-5.4-3.2-10.4-4.8-4.9-1.7-9-3.3-12.1-4.8-10.2-5-15.3-11.9-15.3-20.7 0-4.4 1.3-8.2 3.8-11.5s6.1-5.9 10.8-7.8 9.9-2.8 15.7-2.8c5.7 0 10.7 1 15.2 3s8 4.9 10.5 8.6 3.7 8 3.7 12.8h-18.9c0-3.2-1-5.7-3-7.5s-4.6-2.6-8-2.6-6.1.8-8 2.2c-2 1.5-3 3.4-3 5.7 0 2 1.1 3.9 3.3 5.5s6 3.3 11.4 5.1c5.5 1.8 9.9 3.6 13.4 5.7 8.5 4.9 12.8 11.7 12.8 20.3 0 6.9-2.6 12.3-7.8 16.2s-12.3 5.9-21.4 5.9c-6.4 0-12.2-1.1-17.3-3.4-5.2-2.3-9.1-5.4-11.7-9.4s-3.9-8.6-3.9-13.8h19c0 4.2 1.1 7.3 3.3 9.3s5.7 3 10.6 3c3.1 0 5.6-.7 7.4-2 1.9-1.3 2.9-3.2 2.9-5.7zm90.5-43.2h-23.6v64.1h-19V279H696v-14.7h65.8V279zM362.2 399h-3.9v-34.4h16.5c3.5 0 6.3 1 8.4 2.9s3.2 4.5 3.2 7.9c0 4.3-1.8 7.2-5.4 8.8-1 .5-2 .8-3 1l9 13.9h-4.6l-8.3-13.2h-12V399zm0-16.9h11.9c3.7 0 6.2-1.1 7.6-3.4.5-.9.8-2 .8-3.3 0-2.2-.7-3.9-2.2-5.2s-3.5-1.9-5.9-1.9h-12.1v13.8zm46.1-18c5.1 0 9.3 1.7 12.6 5.1 3.2 3.3 4.8 7.5 4.8 12.5s-1.6 9.2-4.8 12.5c-3.3 3.4-7.5 5.1-12.6 5.1s-9.3-1.7-12.6-5.1c-3.2-3.3-4.8-7.5-4.8-12.5s1.6-9.2 4.8-12.5c3.3-3.4 7.5-5.1 12.6-5.1zm0 31.5c4.1 0 7.4-1.3 9.9-4 2.4-2.6 3.6-5.8 3.6-9.8s-1.2-7.3-3.6-9.8c-2.5-2.7-5.8-4-9.9-4s-7.4 1.3-9.9 4c-2.4 2.6-3.6 5.8-3.6 9.8s1.2 7.3 3.6 9.8c2.5 2.7 5.8 4 9.9 4zm57.2-31.1V399h-3.9v-28.5l-12.7 16.4-12.9-16.4V399h-3.9v-34.4h4.5l12.3 16.3 12.1-16.3h4.5zm12.4 3.8v11.5H497v3.8h-19.1v11.6h21.4v3.7H474v-34.4h25.3v3.7h-21.4zm60.5 6.1c0 1.5-.4 2.9-1.3 4.3a17.64 17.64 0 0 1-3.4 3.9c-1.4 1.2-2.8 2.4-4.4 3.4l-4.4 3.1c-1.4 1-2.6 2-3.5 3-1 1-1.5 2-1.6 3h18.5v3.7h-23.1v-2.1c0-1.7.5-3.3 1.4-4.7 1-1.4 2.1-2.7 3.6-4a44.17 44.17 0 0 1 4.7-3.5l4.7-3.3c1.4-1.1 2.6-2.2 3.6-3.4 1-1.1 1.4-2.4 1.4-3.7 0-2-.7-3.6-2-4.7s-3.2-1.7-5.6-1.7-4.3.5-5.7 1.5-2.3 2.5-2.6 4.4h-3.9c.3-2.9 1.5-5.3 3.8-7.1s5-2.7 8.2-2.7c3.6 0 6.5 1 8.7 2.9 1.9 2.2 2.9 4.7 2.9 7.7zm4.9 7.4c0-11.8 4-17.6 12.1-17.6 4.4.1 7.6 1.9 9.6 5.5 1.6 2.9 2.4 7 2.4 12.1 0 11.8-4 17.6-12.1 17.6-8 0-12-5.9-12-17.6zm12 13.8c4.6-.1 7.2-3.1 7.9-9 .2-1.6.3-3.2.3-4.8 0-4.6-.6-8.1-1.9-10.4s-3.4-3.4-6.2-3.4c-2.9 0-5 1.1-6.2 3.4-1.3 2.3-1.9 5.8-1.9 10.4s.6 8.1 1.9 10.4 3.3 3.4 6.1 3.4zm30.5-31.1V399h-3.9v-30.7h-7.3v-3.7h11.2zm30.5 15.5c2 .8 3.7 2 4.8 3.6 1.2 1.6 1.8 3.3 1.8 5.1s-.3 3.3-.8 4.5c-.6 1.3-1.4 2.3-2.4 3.3-2.2 1.9-5.2 2.9-9.1 2.9s-6.9-1-9.1-2.9-3.2-4.4-3.2-7.4c0-2 .6-3.8 1.8-5.4s2.8-2.8 4.8-3.6a9.15 9.15 0 0 1-3.5-2.4c-1.2-1.4-1.8-3-1.8-4.8 0-2.6.9-4.7 2.8-6.3s4.6-2.4 8.2-2.4 6.3.8 8.2 2.4 2.8 3.7 2.8 6.3c0 2.7-1.2 4.8-3.5 6.3l-1.8.8zm-5.8 15.6c2.6 0 4.7-.6 6.2-1.8s2.3-2.8 2.3-4.8c0-2.1-.8-3.9-2.5-5.3-1.6-1.2-3.5-1.8-5.9-1.8s-4.4.6-5.9 1.8c-1.7 1.4-2.5 3.1-2.5 5.2s.8 3.7 2.3 4.9c1.4 1.3 3.4 1.8 6 1.8zm0-17.2c1.8 0 3.4-.4 4.7-1.2 1.6-1 2.3-2.4 2.3-4.1s-.7-3-2-3.9-3-1.3-5.1-1.3-3.8.4-5.1 1.3-2 2.2-2 3.9.7 3 2.2 3.9c1.6.9 3.2 1.4 5 1.4z"/></svg>