<svg xmlns="http://www.w3.org/2000/svg" viewBox="0 0 984.6 662.7"><style><![CDATA[.A{fill:#fff}]]></style><path class="A" d="M71.9 340.2H64v21.5H49.3V301h23.9c7.2 0 12.8 1.6 16.9 4.8s6.1 7.7 6.1 13.6c0 4.2-.9 7.8-2.6 10.5-1.7 2.8-4.4 5-8 6.8l12.7 24.5v.6H82.6l-10.7-21.6zm-8-11.2h9.3c2.8 0 4.9-.7 6.2-2.2 1.4-1.4 2.1-3.5 2.1-6.2 0-2.6-.7-4.6-2.1-6.2-1.4-1.5-3.5-2.2-6.2-2.2h-9.3V329zm88.7-28v39.7c0 4.5-1 8.4-2.9 11.7s-4.6 5.8-8.3 7.5c-3.6 1.7-7.8 2.6-12.8 2.6-7.4 0-13.2-1.9-17.5-5.7s-6.4-9.1-6.5-15.8v-40.1h14.8v40.3c.2 6.7 3.2 10 9.3 10 3 0 5.4-.8 6.9-2.5s2.3-4.4 2.3-8.1V301h14.7zm40.5 44.6c0-2.1-.7-3.8-2.2-5s-4.2-2.4-7.9-3.7c-3.8-1.2-7-2.5-9.4-3.7-7.8-3.8-11.8-9.2-11.8-16 0-3.4 1-6.3 2.9-8.9s4.7-4.5 8.3-6c3.6-1.4 7.6-2.1 12.1-2.1 4.4 0 8.3.8 11.8 2.3s6.2 3.7 8 6.7c1.9 2.9 2.9 6.2 2.9 9.9h-14.6c0-2.5-.8-4.4-2.2-5.7-1.5-1.3-3.6-2.1-6.2-2.1s-4.6.5-6.2 1.7c-1.5 1.2-2.2 2.6-2.2 4.4 0 1.5.8 2.9 2.5 4.2 1.7 1.2 4.6 2.6 8.8 3.9s7.7 2.8 10.3 4.4c6.5 3.7 9.8 9 9.8 15.6 0 5.4-2 9.5-6 12.5s-9.5 4.5-16.5 4.5c-4.9 0-9.4-.9-13.4-2.7s-7-4.2-9-7.2c-2.1-3-3-6.6-3-10.6h14.7c0 3.2.8 5.6 2.5 7.2 1.7 1.5 4.4 2.3 8.2 2.3 2.4 0 4.4-.5 5.7-1.6 1.4-1 2.1-2.5 2.1-4.3zm69.7-33.3h-18.2v49.4H230v-49.4h-17.9V301h50.8v11.3h-.1zm44.5 25.2h-23.6v24.2H269V301h40.6v11.3h-26v14h23.6l.1 11.2zm46.1-1.6h-23v14.5h27.2v11.2h-41.8V301h41.9v11.3h-27.3v12.8h23v10.8zm41.4 9.7c0-2.1-.7-3.8-2.2-5s-4.2-2.4-7.9-3.7c-3.8-1.2-7-2.5-9.4-3.7-7.8-3.8-11.8-9.2-11.8-16 0-3.4 1-6.3 2.9-8.9 2-2.6 4.7-4.5 8.3-6 3.6-1.4 7.6-2.1 12.1-2.1 4.4 0 8.3.8 11.8 2.3s6.2 3.7 8 6.7c1.9 2.9 2.9 6.2 2.9 9.9h-14.6c0-2.5-.8-4.4-2.2-5.7-1.5-1.3-3.6-2.1-6.2-2.1s-4.6.5-6.2 1.7c-1.5 1.2-2.2 2.6-2.2 4.4 0 1.5.8 2.9 2.5 4.2s4.6 2.6 8.8 3.9 7.7 2.8 10.3 4.4c6.5 3.7 9.8 9 9.8 15.6 0 5.4-2 9.5-6 12.5s-9.5 4.5-16.5 4.5c-4.9 0-9.4-.9-13.4-2.7s-7-4.2-9-7.2c-2.1-3-3-6.6-3-10.6h14.7c0 3.2.8 5.6 2.5 7.2 1.7 1.5 4.4 2.3 8.2 2.3 2.4 0 4.4-.5 5.7-1.6 1.4-1 2.1-2.5 2.1-4.3zm69.8-33.3h-18.2v49.4h-14.7v-49.4h-17.8V301h50.8l-.1 11.3zm25.3 48.8h-6.7v-59.4h28.5c6 0 10.9 1.7 14.5 5s5.5 7.8 5.5 13.6c0 7.4-3.1 12.5-9.2 15.2-1.7.8-3.4 1.3-5.1 1.7l15.6 24h-8l-14.4-22.8H490l-.1 22.7zm0-29.2h20.6c6.3 0 10.7-2 13.1-5.9.9-1.5 1.3-3.4 1.3-5.7 0-3.8-1.3-6.7-3.9-8.9s-6-3.3-10.2-3.3h-20.9v23.8zm79.7-31c8.9 0 16.1 3 21.8 8.9 5.6 5.7 8.3 12.9 8.3 21.5s-2.8 15.8-8.3 21.5c-5.7 5.9-13 8.9-21.8 8.9-8.9 0-16.1-3-21.8-8.9-5.6-5.7-8.3-12.9-8.3-21.5s2.8-15.8 8.3-21.5c5.7-5.9 13-8.9 21.8-8.9zm0 54.3c7.1 0 12.8-2.3 17.1-6.9 4.2-4.4 6.3-10.1 6.3-17s-2.1-12.5-6.3-17c-4.4-4.6-10.1-6.9-17.1-6.9-7.1 0-12.8 2.3-17.1 6.9-4.2 4.4-6.3 10.1-6.3 17s2.1 12.5 6.3 17c4.3 4.6 10.1 6.9 17.1 6.9zm98.8-53.5v59.4h-6.7v-49.2l-22 28.3-22.4-28.3v49.2h-6.7v-59.4h7.8l21.3 28.2 20.9-28.2h7.8zm21.2 6.4V328h33v6.6h-33v20h37v6.5h-43.7v-59.4h43.7v6.5h-37v-.1zm104.5 10.6c0 2.6-.8 5.1-2.3 7.5s-3.5 4.6-5.8 6.7-4.9 4.1-7.6 5.9l-7.7 5.4c-2.4 1.8-4.4 3.5-6.1 5.2-1.6 1.7-2.6 3.4-2.7 5.2h32v6.5H754v-3.7c0-2.9.8-5.6 2.5-8 1.6-2.4 3.7-4.7 6.2-6.8s5.2-4.1 8-6l8-5.7c2.5-1.9 4.5-3.9 6.2-5.8 1.6-2 2.5-4.1 2.5-6.4 0-3.5-1.2-6.2-3.5-8.2s-5.5-3-9.7-3-7.4.9-9.9 2.6c-2.5 1.8-4 4.3-4.4 7.7h-6.7c.5-5 2.7-9.1 6.6-12.2s8.6-4.7 14.1-4.7c6.3 0 11.3 1.7 15 5 3.5 3.3 5.2 7.5 5.2 12.8zm8.5 12.7c0-20.3 6.9-30.4 20.8-30.4 7.5.1 13.1 3.3 16.6 9.5 2.8 5 4.2 12 4.2 20.9 0 20.3-6.9 30.4-20.8 30.4s-20.8-10.1-20.8-30.4zm20.8 23.8c7.9-.2 12.4-5.4 13.6-15.5.4-2.8.5-5.6.5-8.3 0-8-1.1-14-3.3-18s-5.8-5.9-10.8-5.9-8.6 2-10.8 5.9-3.3 9.9-3.3 18c0 8 1.1 14 3.3 18 2.2 3.9 5.8 5.8 10.8 5.8zm52.7-53.5v59.4h-6.7v-53h-12.6v-6.5h19.3v.1zm52.5 26.7c3.5 1.4 6.3 3.5 8.4 6.3 2 2.8 3.1 5.7 3.1 8.8s-.5 5.6-1.4 7.8c-1 2.2-2.3 4.1-4.1 5.6-3.8 3.3-9 4.9-15.7 4.9s-11.9-1.6-15.7-4.9c-3.7-3.2-5.6-7.5-5.6-12.8 0-3.4 1-6.5 3.1-9.3 2-2.8 4.8-4.9 8.3-6.3-2.3-.8-4.3-2.2-6-4.1a12.36 12.36 0 0 1-3.1-8.3c0-4.5 1.6-8.1 4.8-10.9s7.9-4.1 14.1-4.1 10.9 1.4 14.1 4.1c3.2 2.8 4.8 6.4 4.8 10.9 0 4.7-2 8.3-6 10.9-1.2.5-2.2 1-3.1 1.4zm-9.9 26.9c4.5 0 8-1 10.6-3.1 2.6-2 3.9-4.8 3.9-8.3 0-3.7-1.4-6.7-4.3-9.1-2.7-2.1-6.1-3.1-10.2-3.1s-7.5 1-10.2 3.1c-2.9 2.3-4.3 5.3-4.3 8.9s1.3 6.4 3.9 8.5 6.1 3.1 10.6 3.1zm0-29.8c3.2 0 5.9-.7 8.2-2.2 2.7-1.7 4-4.1 4-7s-1.1-5.2-3.4-6.7-5.2-2.3-8.8-2.3-6.5.8-8.8 2.3-3.4 3.8-3.4 6.7 1.2 5.2 3.7 6.8 5.3 2.4 8.5 2.4z"/></svg>