<?xml version="1.0" encoding="UTF-8" standalone="no"?>
<!-- Created with Inkscape (http://www.inkscape.org/) -->

<svg
   xmlns:dc="http://purl.org/dc/elements/1.1/"
   xmlns:cc="http://creativecommons.org/ns#"
   xmlns:rdf="http://www.w3.org/1999/02/22-rdf-syntax-ns#"
   xmlns:svg="http://www.w3.org/2000/svg"
   xmlns="http://www.w3.org/2000/svg"
   xmlns:sodipodi="http://sodipodi.sourceforge.net/DTD/sodipodi-0.dtd"
   xmlns:inkscape="http://www.inkscape.org/namespaces/inkscape"
   width="984.3515"
   height="265.5943"
   viewBox="0 0 260.44301 70.271822"
   version="1.1"
   id="svg8"
   inkscape:version="0.92.3 (2405546, 2018-03-11)"
   sodipodi:docname="white.svg"
   inkscape:export-filename="/home/anxhelo/Desktop/RUST LATAM Assets/PNG/Wordmark/white.png"
   inkscape:export-xdpi="96"
   inkscape:export-ydpi="96">
  <defs
     id="defs2" />
  <sodipodi:namedview
     id="base"
     pagecolor="#ffffff"
     bordercolor="#666666"
     borderopacity="1.0"
     inkscape:pageopacity="0"
     inkscape:pageshadow="2"
     inkscape:zoom="0.26233604"
     inkscape:cx="785.2845"
     inkscape:cy="588.34013"
     inkscape:document-units="px"
     inkscape:current-layer="layer1"
     inkscape:document-rotation="0"
     showgrid="false"
     borderlayer="true"
     inkscape:showpageshadow="true"
     units="px"
     inkscape:pagecheckerboard="false"
     showguides="true"
     inkscape:window-width="1366"
     inkscape:window-height="715"
     inkscape:window-x="0"
     inkscape:window-y="0"
     inkscape:window-maximized="1"
     objecttolerance="10"
     guidetolerance="10"
     inkscape:snap-tangential="true"
     inkscape:snap-perpendicular="true"
     fit-margin-top="0"
     fit-margin-left="0"
     fit-margin-right="0"
     fit-margin-bottom="0"
     inkscape:snap-page="true">
    <inkscape:grid
       type="xygrid"
       id="grid10"
       dotted="false"
       originx="-104.38533"
       originy="-76.756824" />
  </sodipodi:namedview>
  <metadata
     id="metadata5">
    <rdf:RDF>
      <cc:Work
         rdf:about="">
        <dc:format>image/svg+xml</dc:format>
        <dc:type
           rdf:resource="http://purl.org/dc/dcmitype/StillImage" />
        <dc:title></dc:title>
        <cc:license
           rdf:resource="" />
      </cc:Work>
    </rdf:RDF>
  </metadata>
  <g
     inkscape:label="Layer 1"
     inkscape:groupmode="layer"
     id="layer1"
     transform="translate(-104.38531,-149.97135)">
    <g
       id="g864"
       transform="matrix(4.2490817,0,0,4.2490817,-536.20654,-1459.8122)"
       style="fill:#ffffff">
      <path
         style="fill:#ffffff;stroke-width:0.26458332"
         inkscape:connector-curvature="0"
         id="path1648"
         d="m 151.10771,385.83938 h 1.29645 c 0.0794,0 0.1323,-0.0265 0.18521,-0.0794 0.0529,-0.0529 0.0794,-0.10583 0.0794,-0.1852 v -2.11667 h 0.89958 l 1.08479,2.11667 c 0.0265,0.0794 0.0794,0.13229 0.15875,0.1852 0.0529,0.0529 0.15875,0.0794 0.26459,0.0794 h 1.34937 c 0.0529,0 0.10583,-0.0265 0.15875,-0.0529 0.0529,-0.0529 0.0529,-0.10583 0.0529,-0.15875 0,-0.0265 0,-0.0794 -0.0265,-0.10583 l -1.21708,-2.35479 c 0.79375,-0.37042 1.16416,-1.00542 1.16416,-1.95792 0,-0.74083 -0.23812,-1.32292 -0.74083,-1.69333 -0.47625,-0.37042 -1.16417,-0.55563 -2.03729,-0.55563 h -2.67229 c -0.0794,0 -0.1323,0.0265 -0.18521,0.0794 -0.0529,0.0529 -0.0794,0.10583 -0.0794,0.18521 v 6.35 c 0,0.0794 0.0265,0.13229 0.0794,0.1852 0.0529,0.0529 0.13229,0.0794 0.18521,0.0794 z m 1.56104,-5.37104 H 153.78 c 0.635,0 0.9525,0.23812 0.9525,0.74083 0,0.47625 -0.3175,0.74083 -0.9525,0.74083 h -1.11125 z"
         class="st8" />
      <path
         style="fill:#ffffff;stroke-width:0.26458332"
         inkscape:connector-curvature="0"
         id="path1650"
         d="m 159.30979,385.60125 c 0.44979,0.21167 0.97896,0.3175 1.5875,0.3175 0.60854,0 1.11125,-0.10583 1.56104,-0.3175 0.44979,-0.21166 0.79375,-0.52916 1.05833,-0.9525 0.23813,-0.42333 0.37042,-0.92604 0.37042,-1.50812 v -3.91583 c 0,-0.0794 -0.0265,-0.1323 -0.0794,-0.18521 -0.0529,-0.0529 -0.10584,-0.0794 -0.18521,-0.0794 h -1.29646 c -0.0794,0 -0.13229,0.0265 -0.18521,0.0794 -0.0529,0.0529 -0.0794,0.10583 -0.0794,0.18521 v 3.88937 c 0,0.39688 -0.10584,0.71438 -0.29105,0.92604 -0.21166,0.21167 -0.5027,0.3175 -0.87312,0.3175 -0.37042,0 -0.66146,-0.10583 -0.87313,-0.3175 -0.21166,-0.21166 -0.29104,-0.52916 -0.29104,-0.92604 v -3.88937 c 0,-0.0794 -0.0265,-0.1323 -0.0794,-0.18521 -0.0529,-0.0529 -0.10584,-0.0794 -0.18521,-0.0794 h -1.29646 c -0.0794,0 -0.13229,0.0265 -0.18521,0.0794 -0.0529,0.0529 -0.0794,0.10583 -0.0794,0.18521 v 3.91583 c 0,0.58208 0.13229,1.08479 0.37041,1.50812 0.21167,0.42334 0.58209,0.74084 1.03188,0.9525 z"
         class="st8" />
      <path
         style="fill:#ffffff;stroke-width:0.26458332"
         inkscape:connector-curvature="0"
         id="path1652"
         d="m 166.45354,385.62771 c 0.44979,0.18521 0.97896,0.29104 1.53458,0.29104 0.58209,0 1.11125,-0.0794 1.56104,-0.26458 0.4498,-0.18521 0.82021,-0.42333 1.0848,-0.74083 0.26458,-0.3175 0.39687,-0.71438 0.39687,-1.13771 0,-0.60854 -0.18521,-1.05833 -0.52917,-1.37583 -0.34395,-0.3175 -0.89958,-0.55563 -1.64041,-0.71438 -0.58209,-0.10583 -0.97896,-0.21167 -1.21709,-0.26458 -0.23812,-0.0529 -0.39687,-0.13229 -0.52916,-0.21167 -0.10584,-0.0794 -0.15875,-0.18521 -0.15875,-0.3175 0,-0.18521 0.0794,-0.3175 0.26458,-0.39687 0.18521,-0.0794 0.42333,-0.10584 0.68792,-0.10584 0.21166,0 0.37041,0.0265 0.52916,0.0794 0.15875,0.0529 0.26459,0.13229 0.34396,0.21166 0.0794,0.0794 0.10584,0.1323 0.13229,0.1323 0.0529,0.0529 0.1323,0.10583 0.18521,0.13229 0.0529,0.0265 0.13229,0.0265 0.21167,0.0265 h 1.29646 c 0.0529,0 0.10583,-0.0265 0.13229,-0.0529 0.0529,-0.0529 0.0529,-0.10583 0.0529,-0.15875 0,-0.29104 -0.15875,-0.58208 -0.39688,-0.87313 -0.26458,-0.29104 -0.60854,-0.55562 -1.03187,-0.74083 -0.4498,-0.21167 -0.92605,-0.29104 -1.45521,-0.29104 -0.55563,0 -1.03188,0.10583 -1.45521,0.29104 -0.42333,0.18521 -0.74083,0.44979 -0.97896,0.76729 -0.23812,0.3175 -0.34396,0.68792 -0.34396,1.05834 0,0.55562 0.15875,1.00541 0.47625,1.34937 0.3175,0.34396 0.79375,0.58208 1.48167,0.71438 l 0.44979,0.0794 c 0.44979,0.10583 0.79375,0.18521 1.00542,0.23813 0.21166,0.0529 0.37041,0.10583 0.47625,0.1852 0.10583,0.0794 0.18521,0.15875 0.18521,0.29105 0,0.34395 -0.39688,0.52916 -1.21709,0.52916 -0.23812,0 -0.44979,-0.0265 -0.60854,-0.10583 -0.18521,-0.0794 -0.29104,-0.15875 -0.39687,-0.26458 -0.0794,-0.10584 -0.1323,-0.15875 -0.15875,-0.18521 -0.10584,-0.0794 -0.23813,-0.13229 -0.37042,-0.13229 h -1.29646 c -0.0529,0 -0.10583,0.0264 -0.13229,0.0529 -0.0529,0.0529 -0.0529,0.10584 -0.0529,0.15875 0,0.34396 0.15875,0.66146 0.42334,0.97896 0.23812,0.3175 0.58208,0.58208 1.05833,0.76729 z"
         class="st8" />
      <path
         style="fill:#ffffff;stroke-width:0.26458332"
         inkscape:connector-curvature="0"
         id="path1654"
         d="m 171.53354,380.52125 h 1.71979 v 5.05355 c 0,0.0794 0.0265,0.13229 0.0794,0.1852 0.0529,0.0529 0.10583,0.0794 0.1852,0.0794 h 1.29646 c 0.0794,0 0.13229,-0.0265 0.18521,-0.0794 0.0529,-0.0529 0.0794,-0.10583 0.0794,-0.1852 v -5.05355 h 1.71979 c 0.0794,0 0.13229,-0.0265 0.18521,-0.0794 0.0529,-0.0529 0.0794,-0.10583 0.0794,-0.18521 v -1.03187 c 0,-0.0794 -0.0265,-0.1323 -0.0794,-0.18521 -0.0529,-0.0529 -0.10584,-0.0794 -0.18521,-0.0794 h -5.29167 c -0.0794,0 -0.13229,0.0265 -0.18521,0.0794 -0.0529,0.0529 -0.0794,0.10583 -0.0794,0.18521 v 1.03187 c 0,0.0794 0.0265,0.13229 0.0794,0.18521 0.0794,0.0529 0.15875,0.0794 0.21167,0.0794 z"
         class="st8" />
      <path
         style="fill:#ffffff;stroke-width:0.26458332"
         inkscape:connector-curvature="0"
         id="path1656"
         d="m 180.34416,385.83938 h 4.55084 c 0.0794,0 0.13229,-0.0265 0.18521,-0.0794 0.0529,-0.0529 0.0794,-0.10583 0.0794,-0.1852 v -1.03188 c 0,-0.0794 -0.0265,-0.13229 -0.0794,-0.18521 -0.0529,-0.0529 -0.10584,-0.0794 -0.18521,-0.0794 h -2.98979 v -5.05354 c 0,-0.0794 -0.0265,-0.1323 -0.0794,-0.18521 -0.0529,-0.0529 -0.10583,-0.0794 -0.18521,-0.0794 h -1.29646 c -0.0794,0 -0.13229,0.0265 -0.1852,0.0794 -0.0529,0.0529 -0.0794,0.10583 -0.0794,0.18521 v 6.35 c 0,0.0794 0.0265,0.13229 0.0794,0.1852 0.0265,0.0529 0.10583,0.0794 0.1852,0.0794 z"
         class="st8" />
      <path
         style="fill:#ffffff;stroke-width:0.26458332"
         inkscape:connector-curvature="0"
         id="path1658"
         d="m 186.13854,385.83938 h 1.24354 c 0.10583,0 0.18521,-0.0265 0.26458,-0.0794 0.0529,-0.0529 0.10584,-0.10583 0.1323,-0.1852 l 0.26458,-0.82021 h 2.61937 l 0.26459,0.82021 c 0.0265,0.0529 0.0529,0.13229 0.13229,0.1852 0.0529,0.0529 0.15875,0.0794 0.26458,0.0794 h 1.24354 c 0.0529,0 0.10584,-0.0265 0.15875,-0.0529 0.0529,-0.0529 0.0529,-0.10583 0.0529,-0.15875 0,-0.0265 0,-0.0794 -0.0265,-0.15875 l -2.14312,-6.19125 c -0.0265,-0.0794 -0.0794,-0.15875 -0.15875,-0.23812 -0.0794,-0.0529 -0.15875,-0.10584 -0.29104,-0.10584 h -1.5875 c -0.10584,0 -0.21167,0.0265 -0.29105,0.10584 -0.0794,0.0529 -0.13229,0.13229 -0.15875,0.23812 l -2.14312,6.19125 c -0.0265,0.0529 -0.0265,0.10584 -0.0265,0.15875 0,0.0529 0.0265,0.10584 0.0529,0.15875 0.0265,0.0265 0.0794,0.0529 0.13229,0.0529 z m 3.20146,-4.94771 0.79375,2.35479 h -1.5875 z"
         class="st8" />
      <path
         style="fill:#ffffff;stroke-width:0.26458332"
         inkscape:connector-curvature="0"
         id="path1660"
         d="m 192.35625,380.52125 h 1.71979 v 5.05355 c 0,0.0794 0.0265,0.13229 0.0794,0.1852 0.0529,0.0529 0.10584,0.0794 0.18521,0.0794 h 1.29646 c 0.0794,0 0.13229,-0.0265 0.18521,-0.0794 0.0529,-0.0529 0.0794,-0.10583 0.0794,-0.1852 v -5.05355 h 1.7198 c 0.0794,0 0.13229,-0.0265 0.1852,-0.0794 0.0529,-0.0529 0.0794,-0.10583 0.0794,-0.18521 v -1.03187 c 0,-0.0794 -0.0265,-0.1323 -0.0794,-0.18521 -0.0529,-0.0529 -0.10583,-0.0794 -0.1852,-0.0794 h -5.29167 c -0.0794,0 -0.13229,0.0265 -0.18521,0.0794 -0.0529,0.0529 -0.0794,0.10583 -0.0794,0.18521 v 1.03187 c 0,0.0794 0.0265,0.13229 0.0794,0.18521 0.0794,0.0529 0.13229,0.0794 0.21167,0.0794 z"
         class="st8" />
      <path
         style="fill:#ffffff;stroke-width:0.26458332"
         inkscape:connector-curvature="0"
         id="path1662"
         d="m 197.25104,385.60125 c 0,0.0529 0.0265,0.10584 0.0529,0.15875 0.0529,0.0529 0.10583,0.0529 0.15875,0.0529 h 1.24354 c 0.10583,0 0.18521,-0.0265 0.26458,-0.0794 0.0794,-0.0529 0.10583,-0.10584 0.13229,-0.18521 l 0.26459,-0.82021 h 2.61937 l 0.26458,0.82021 c 0.0265,0.0529 0.0529,0.13229 0.1323,0.18521 0.0529,0.0529 0.15875,0.0794 0.26458,0.0794 h 1.24354 c 0.0529,0 0.10583,-0.0265 0.15875,-0.0529 0.0529,-0.0529 0.0529,-0.10583 0.0529,-0.15875 0,-0.0264 0,-0.0794 -0.0265,-0.15875 l -2.14313,-6.19125 c -0.0265,-0.0794 -0.0794,-0.15875 -0.15875,-0.23812 -0.0794,-0.0529 -0.15875,-0.10583 -0.29104,-0.10583 h -1.5875 c -0.10583,0 -0.21166,0.0265 -0.29104,0.10583 -0.0794,0.0529 -0.13229,0.13229 -0.15875,0.23812 l -2.14312,6.19125 c -0.0529,0.0794 -0.0529,0.1323 -0.0529,0.15875 z m 3.41312,-4.70958 0.79375,2.35479 h -1.5875 z"
         class="st8" />
      <path
         style="fill:#ffffff;stroke-width:0.26458332"
         inkscape:connector-curvature="0"
         id="path1664"
         d="m 205.16208,385.83938 h 1.29646 c 0.0794,0 0.13229,-0.0265 0.18521,-0.0794 0.0529,-0.0529 0.0794,-0.10583 0.0794,-0.1852 v -3.25438 l 0.92604,1.61396 c 0.0529,0.0794 0.10584,0.13229 0.15875,0.18521 0.0529,0.0529 0.1323,0.0794 0.21167,0.0794 h 0.635 c 0.0794,0 0.15875,-0.0265 0.21167,-0.0794 0.0529,-0.0529 0.10583,-0.10584 0.15875,-0.18521 l 0.92604,-1.61396 v 3.25438 c 0,0.0794 0.0265,0.13229 0.0794,0.1852 0.0529,0.0529 0.10584,0.0794 0.18521,0.0794 h 1.29646 c 0.0794,0 0.13229,-0.0265 0.18521,-0.0794 0.0529,-0.0529 0.0794,-0.10583 0.0794,-0.1852 v -6.35 c 0,-0.0794 -0.0265,-0.1323 -0.0794,-0.18521 -0.0529,-0.0529 -0.10583,-0.0794 -0.18521,-0.0794 h -1.13771 c -0.18521,0 -0.3175,0.0794 -0.42333,0.26459 l -1.5875,2.7252 -1.5875,-2.7252 c -0.10583,-0.18521 -0.23813,-0.26459 -0.42333,-0.26459 h -1.13771 c -0.0794,0 -0.13229,0.0265 -0.18521,0.0794 -0.0529,0.0529 -0.0794,0.10583 -0.0794,0.18521 v 6.35 c 0,0.0794 0.0265,0.13229 0.0794,0.1852 0,0.0529 0.0529,0.0794 0.13229,0.0794 z"
         class="st8" />
      <path
         inkscape:connector-curvature="0"
         id="rect1712"
         d="m 151.28873,387.77135 c -0.29297,0 -0.52866,0.2362 -0.52866,0.52916 v 6.56291 c 0,0.29296 0.23569,0.52916 0.52866,0.52916 h 60.23612 c 0.29296,0 0.52917,-0.2362 0.52917,-0.52916 v -6.56291 c 0,-0.29296 -0.23621,-0.52916 -0.52917,-0.52916 z m 9.22735,1.94561 c 1.12405,0 1.95283,0.78757 1.95283,1.86501 0,1.07743 -0.82878,1.86448 -1.95283,1.86448 -1.12406,0 -1.95287,-0.79223 -1.95287,-1.86448 0,-1.07226 0.82881,-1.86501 1.95287,-1.86501 z m 31.11903,0 c 1.12405,0 1.95285,0.78757 1.95285,1.86501 0,1.07743 -0.8288,1.86448 -1.95285,1.86448 -1.12405,0 -1.95286,-0.79223 -1.95286,-1.86448 0,-1.07226 0.82881,-1.86501 1.95286,-1.86501 z m 6.25543,0 c 0.78735,0 1.29501,0.39897 1.29501,1.04128 0,0.35224 -0.098,0.67326 -0.60048,1.14464 l -0.96893,0.92242 h 1.70945 v 0.56947 h -2.6727 v -0.45061 l 1.4397,-1.36736 c 0.35224,-0.3367 0.41445,-0.54936 0.41445,-0.75138 0,-0.33151 -0.22787,-0.52296 -0.67335,-0.52296 -0.35223,0 -0.64754,0.11927 -0.84955,0.37827 l -0.47129,-0.36277 c 0.27971,-0.37814 0.78199,-0.601 1.37769,-0.601 z m 3.7791,0 c 0.86505,0 1.51773,0.67362 1.51773,1.86501 0,1.19139 -0.65268,1.86448 -1.51773,1.86448 -0.85988,0 -1.51257,-0.67309 -1.51257,-1.86448 0,-1.19139 0.65269,-1.86501 1.51257,-1.86501 z m 6.06888,0 c 0.98937,0 1.56941,0.6375 1.56941,1.80299 0,1.24319 -0.7251,1.9265 -1.77664,1.9265 -0.36259,0 -0.70943,-0.0777 -0.95291,-0.23306 l 0.24856,-0.50746 c 0.19684,0.1295 0.43503,0.17621 0.68885,0.17621 0.68376,0 1.11363,-0.42489 1.11363,-1.2485 v -0.005 c -0.21756,0.25382 -0.56438,0.37827 -0.96842,0.37827 -0.71483,0 -1.2485,-0.43505 -1.2485,-1.11362 0,-0.72002 0.58528,-1.17616 1.32602,-1.17616 z m -54.23287,0.0522 h 0.55449 l 1.4397,2.40347 1.41439,-2.40347 h 0.55395 l 0.006,3.62561 h -0.63717 l -0.006,-2.40347 -1.19112,1.98903 h -0.30025 l -1.19166,-1.95802 v 2.37246 h -0.64233 z m 10.04589,0 h 0.55448 l 1.99938,2.45514 v -2.45514 h 0.66818 v 3.62561 h -0.55399 l -1.99935,-2.45514 v 2.45514 h -0.6687 z m 4.10157,0 h 3.07731 v 0.56947 h -1.20197 v 3.05614 h -0.67334 v -3.05614 h -1.202 z m 3.95168,0 h 2.64687 v 0.5643 h -1.9735 v 0.94258 h 1.75077 v 0.55449 h -1.75077 v 0.99994 h 2.04586 v 0.5643 h -2.71923 z m 3.27578,0 h 0.7302 l 1.20716,2.79672 1.21698,-2.79672 h 0.67384 l -1.58025,3.62561 h -0.66302 z m 4.5744,0 h 0.67386 v 3.62561 h -0.67386 z m 2.01848,0 h 1.58492 c 1.17585,0 1.97869,0.72501 1.97869,1.81281 0,1.08779 -0.80284,1.8128 -1.97869,1.8128 h -1.58492 z m 4.64881,0 h 2.64687 v 0.5643 h -1.97352 v 0.94258 h 1.7508 v 0.55449 h -1.7508 v 0.99994 h 2.04587 v 0.5643 h -2.71922 z m 17.77153,0 h 1.43971 v 3.62561 h -0.67335 v -3.06131 h -0.76636 z m 3.8809,0.47645 c -0.41958,0 -0.70952,0.23837 -0.70952,0.6165 0,0.37814 0.28473,0.61599 0.72502,0.61599 0.43512,0 0.73587,-0.26374 0.73587,-0.62115 0,-0.34188 -0.26963,-0.61134 -0.75137,-0.61134 z m -6.10505,0.0568 c -0.4921,0 -0.83406,0.40409 -0.83406,1.27951 0,0.87541 0.34196,1.2795 0.83406,1.2795 0.49727,0 0.83922,-0.40409 0.83922,-1.2795 0,-0.87542 -0.34195,-1.27951 -0.83922,-1.27951 z m -41.15356,0.005 c -0.73036,0 -1.27434,0.5336 -1.27434,1.27434 0,0.74073 0.54398,1.27434 1.27434,1.27434 0.73038,0 1.27434,-0.53361 1.27434,-1.27434 0,-0.74074 -0.54396,-1.27434 -1.27434,-1.27434 z m 31.11903,0 c -0.73038,0 -1.27434,0.5336 -1.27434,1.27434 0,0.74073 0.54396,1.27434 1.27434,1.27434 0.73037,0 1.27382,-0.53361 1.27382,-1.27434 0,-0.74074 -0.54345,-1.27434 -1.27382,-1.27434 z m -9.48831,0.031 v 2.48667 h 0.88056 c 0.80808,0 1.33119,-0.49224 1.33119,-1.24333 0,-0.7511 -0.52311,-1.24334 -1.33119,-1.24334 z"
         style="opacity:1;fill:#ffffff;fill-opacity:1;fill-rule:nonzero;stroke:none;stroke-width:1.98843467;stroke-linecap:square;stroke-linejoin:miter;stroke-miterlimit:4;stroke-dasharray:none;stroke-opacity:1;paint-order:markers stroke fill" />
    </g>
  </g>
</svg>
