<?xml version="1.0" encoding="UTF-8" standalone="no"?>
<!-- Generator: Adobe Illustrator 17.0.0, SVG Export Plug-In . SVG Version: 6.00 Build 0)  -->

<svg
   xmlns:dc="http://purl.org/dc/elements/1.1/"
   xmlns:cc="http://creativecommons.org/ns#"
   xmlns:rdf="http://www.w3.org/1999/02/22-rdf-syntax-ns#"
   xmlns:svg="http://www.w3.org/2000/svg"
   xmlns="http://www.w3.org/2000/svg"
   xmlns:sodipodi="http://sodipodi.sourceforge.net/DTD/sodipodi-0.dtd"
   xmlns:inkscape="http://www.inkscape.org/namespaces/inkscape"
   version="1.1"
   id="Layer_1"
   x="0px"
   y="0px"
   width="995.837px"
   height="328.355px"
   viewBox="0 0 995.837 328.355"
   enable-background="new 0 0 995.837 328.355"
   xml:space="preserve"
   sodipodi:docname="standard horizontal.svg"
   inkscape:version="0.92.1 r"
   inkscape:export-filename="/home/anxhelo/Desktop/SFK'16/standard horizontal.png"
   inkscape:export-xdpi="95.919998"
   inkscape:export-ydpi="95.919998"><metadata
     id="metadata4675"><rdf:RDF><cc:Work
         rdf:about=""><dc:format>image/svg+xml</dc:format><dc:type
           rdf:resource="http://purl.org/dc/dcmitype/StillImage" /><dc:title></dc:title></cc:Work></rdf:RDF></metadata><defs
     id="defs4673" /><sodipodi:namedview
     pagecolor="#ffffff"
     bordercolor="#666666"
     borderopacity="1"
     objecttolerance="10"
     gridtolerance="10"
     guidetolerance="10"
     inkscape:pageopacity="0"
     inkscape:pageshadow="2"
     inkscape:window-width="1366"
     inkscape:window-height="716"
     id="namedview4671"
     showgrid="false"
     inkscape:zoom="0.29254587"
     inkscape:cx="547.5747"
     inkscape:cy="299.39422"
     inkscape:window-x="0"
     inkscape:window-y="24"
     inkscape:window-maximized="1"
     inkscape:current-layer="g4668" /><g
     id="g4668"><g
       id="g4602"><circle
         fill="#F8ED33"
         cx="164.177"
         cy="164.177"
         r="164.177"
         id="circle4600" /></g><g
       id="g4612"><g
         id="g4606"><path
           fill="#F8ED33"
           d="M150.689,272.503c0.016,0.194,0.038,0.362,0.071,0.463C150.852,273.317,150.813,273.124,150.689,272.503z     "
           id="path4604" /></g><g
         id="g4610"><path
           d="M153.074,292.331c4.552-1.264,20.197-16.059,24.696-23.246c4.16-6.646,11.542-29.163,11.542-29.163     s-14.652,28.553-27.497,28.184c18.822-22.353,31.505-44.721,31.505-44.721l14.148-104.867c0,0-5.175,13.192-13.824,15.582     c14.924-22.259,19.238-33.246,19.238-33.246s-2.289-39.312-7.196-57.067c2.265-7.979,0.034-14.954,0.034-14.954     s-6.633-7.125-9.594-8.228c-3.633-1.353-25.944,13.511-31.01,22.445c-30.659,54.071-42.127,114.919-42.127,114.919     s8.913,21.61,13.048,27.271c-5.093-4.024-16.1-15.031-16.1-15.031s-7.549,51.153-3.01,73.882     c4.532,22.731,25.793,43.136,25.793,43.136s0.725,32.137,1.665,35.555c0.224,0.808,0.547,2.553,0.931,4.463     c1.433,0.164,2.872,0.307,4.316,0.434c0.079-0.73,0.158-1.502,0.235-2.369C151.823,303.214,151.972,293.341,153.074,292.331z      M146.225,230.851c0.887-19.845,31.445-161.101,43.862-189.768c0,0-37.516,179.925-37.769,190.532     c-0.246,10.165-2.09,36.494-1.63,40.889c0.124,0.62,0.163,0.814,0.071,0.463c-0.033-0.1-0.055-0.269-0.071-0.463     C149.886,268.672,145.463,247.942,146.225,230.851z"
           id="path4608" /></g></g><g
       id="g4620"
       style="fill:#000000"><path
         fill="#FFFFFF"
         d="M445.259,233.396c-32.478,0-56.705-11.713-71.88-26.622l22.629-24.759    c13.311,11.98,29.284,18.635,47.388,18.635c18.103,0,29.018-8.519,29.018-22.362c0-13.311-6.922-19.435-32.479-27.421    c-42.33-13.311-56.705-30.083-56.705-57.504c0-34.076,30.615-53.777,67.887-53.777c27.687,0,47.92,8.519,64.159,23.96    l-20.765,23.96c-12.513-10.383-25.557-15.441-39.667-15.441c-15.974,0-25.824,6.389-25.824,17.837    c0,11.714,6.123,16.24,34.609,25.291c34.875,11.447,54.841,25.823,54.841,59.634C518.47,209.437,491.05,233.396,445.259,233.396z"
         id="path4614"
         style="fill:#000000" /><path
         fill="#FFFFFF"
         d="M586.098,75.793v48.453h53.776v31.68h-53.776v72.945h-44.193V44.379h110.482l-4.525,31.414H586.098z"
         id="path4616"
         style="fill:#000000" /><path
         fill="#FFFFFF"
         d="M716.286,228.87h-44.193V44.379h44.193V228.87z M717.883,130.368l58.036-85.99h46.588l-58.568,82.795    L827.3,228.87h-50.849L717.883,130.368z"
         id="path4618"
         style="fill:#000000" /></g><g
       id="g4626"
       style="fill:#000000"><path
         fill="#FFFFFF"
         d="M894.138,134.347V65.395l-19.035,11.581l-9.451-14.11l30.349-18.503h18.902v89.983H894.138z"
         id="path4622"
         style="fill:#000000" /><path
         fill="#FFFFFF"
         d="M980.662,61.402c-3.594-2.529-7.853-3.727-11.847-3.727c-9.85,0-16.373,8.785-17.571,24.359    c5.591-5.724,12.646-8.253,19.168-8.253c14.377,0,25.425,10.649,25.425,29.817c0,18.236-12.513,33.012-32.613,33.012    c-23.827,0-34.21-17.437-34.21-43.527c0-30.216,15.042-50.582,39.268-50.582c8.386,0,15.308,2.396,20.366,5.99L980.662,61.402z     M951.244,95.345c0.133,18.768,3.461,26.089,12.113,26.089c7.454,0,11.048-7.055,11.048-17.57    c0-11.581-3.727-15.441-10.116-15.441C959.631,88.423,954.972,90.952,951.244,95.345z"
         id="path4624"
         style="fill:#000000" /></g><g
       id="g4630"
       style="fill:#000000"><polygon
         fill="#FFFFFF"
         points="853.248,78.005 836.303,78.005 833.313,45.086 856.239,45.086   "
         id="polygon4628"
         style="fill:#000000" /></g><g
       id="g4666"
       style="fill:#000000"><path
         fill="#FFFFFF"
         d="M377.551,273.762l0.621-0.622h13.045c1.698,0,3.302,0.332,4.814,0.994    c1.511,0.663,2.826,1.553,3.945,2.671c1.119,1.118,2.009,2.434,2.672,3.945c0.662,1.512,0.994,3.116,0.994,4.814    s-0.332,3.303-0.994,4.814c-0.663,1.512-1.553,2.826-2.672,3.945c-1.118,1.118-2.433,2.009-3.945,2.671    c-1.512,0.663-3.117,0.994-4.814,0.994H381.9v14.288l-0.622,0.622h-3.106l-0.621-0.622V273.762z M391.217,293.64    c1.077,0,2.101-0.218,3.076-0.652c0.973-0.435,1.832-1.015,2.578-1.74c0.745-0.723,1.335-1.573,1.77-2.547    c0.435-0.973,0.652-2.019,0.652-3.137c0-1.077-0.218-2.101-0.652-3.075c-0.435-0.973-1.025-1.832-1.77-2.578    c-0.746-0.745-1.606-1.335-2.578-1.77c-0.974-0.435-1.999-0.652-3.076-0.652H381.9v16.151H391.217z"
         id="path4632"
         style="fill:#000000" /><path
         fill="#FFFFFF"
         d="M435.323,312.276l-0.622,0.622h-3.727l-8.697-14.909h-8.697v14.288l-0.622,0.622h-3.106l-0.621-0.622    v-38.514l0.621-0.622h13.045c1.698,0,3.302,0.332,4.814,0.994c1.511,0.663,2.826,1.553,3.945,2.671    c1.119,1.118,2.009,2.434,2.672,3.945c0.662,1.512,0.994,3.116,0.994,4.814c0,1.366-0.208,2.661-0.622,3.883    c-0.414,1.222-0.994,2.34-1.739,3.354c-0.746,1.015-1.637,1.916-2.672,2.702c-1.035,0.787-2.154,1.388-3.354,1.801l8.387,13.729    V312.276z M422.899,293.64c1.077,0,2.101-0.218,3.075-0.652c0.973-0.435,1.832-1.015,2.578-1.74    c0.745-0.723,1.335-1.573,1.77-2.547c0.435-0.973,0.652-2.019,0.652-3.137c0-1.077-0.218-2.101-0.652-3.075    c-0.435-0.973-1.025-1.832-1.77-2.578c-0.746-0.745-1.606-1.335-2.578-1.77c-0.974-0.435-1.999-0.652-3.075-0.652h-9.318v16.151    H422.899z"
         id="path4634"
         style="fill:#000000" /><path
         fill="#FFFFFF"
         d="M443.399,312.276v-38.514l0.621-0.622h22.364l0.622,0.622v3.105l-0.622,0.622h-18.636v13.045h16.151    l0.621,0.622v3.106l-0.621,0.621h-16.151v13.667h18.636l0.622,0.622v3.105l-0.622,0.622h-22.364L443.399,312.276z"
         id="path4636"
         style="fill:#000000" /><path
         fill="#FFFFFF"
         d="M488.125,308.55c0.91,0,1.78-0.176,2.61-0.528c0.828-0.352,1.553-0.838,2.174-1.46    c0.621-0.621,1.118-1.345,1.491-2.174c0.373-0.828,0.559-1.718,0.559-2.671c0-1.532-0.332-2.723-0.994-3.572    c-0.663-0.848-1.533-1.47-2.61-1.864c-1.077-0.393-2.298-0.652-3.665-0.776s-2.775-0.258-4.224-0.404    c-1.45-0.145-2.858-0.362-4.224-0.652c-1.366-0.29-2.589-0.808-3.665-1.553c-1.078-0.745-1.947-1.801-2.61-3.168    c-0.663-1.366-0.994-3.168-0.994-5.405c0-1.531,0.32-2.981,0.963-4.348c0.641-1.366,1.491-2.557,2.547-3.571    c1.056-1.015,2.246-1.812,3.572-2.392c1.325-0.579,2.692-0.87,4.1-0.87h3.106c1.863,0,3.675,0.208,5.435,0.622    c1.76,0.414,3.262,1.242,4.504,2.485l1.242,1.242v0.622l-2.485,2.485h-0.622c-0.332-0.289-0.674-0.622-1.025-0.994    c-0.353-0.372-0.818-0.714-1.398-1.025c-0.581-0.311-1.315-0.569-2.206-0.777c-0.891-0.206-2.04-0.31-3.447-0.31h-3.106    c-0.953,0-1.843,0.186-2.672,0.559c-0.828,0.372-1.553,0.869-2.174,1.491c-0.621,0.622-1.108,1.347-1.46,2.174    c-0.352,0.829-0.528,1.698-0.528,2.609c0,1.575,0.331,2.775,0.994,3.604c0.662,0.828,1.532,1.45,2.61,1.863    c1.076,0.415,2.298,0.674,3.665,0.777s2.774,0.228,4.224,0.372c1.449,0.146,2.858,0.363,4.224,0.652    c1.366,0.29,2.588,0.808,3.665,1.553c1.077,0.745,1.947,1.801,2.61,3.168c0.662,1.366,0.994,3.168,0.994,5.405    c0,1.574-0.321,3.034-0.963,4.379c-0.642,1.347-1.491,2.527-2.547,3.541c-1.056,1.015-2.247,1.812-3.572,2.392    c-1.326,0.581-2.692,0.87-4.1,0.87h-4.348c-1.863,0-3.676-0.207-5.435-0.622c-1.761-0.413-3.262-1.242-4.504-2.485l-1.242-1.242    v-0.622l2.485-2.485h0.622c0.289,0.332,0.621,0.674,0.994,1.025c0.372,0.352,0.848,0.683,1.429,0.993    c0.579,0.311,1.314,0.57,2.206,0.777c0.89,0.208,2.039,0.31,3.447,0.31H488.125z"
         id="path4638"
         style="fill:#000000" /><path
         fill="#FFFFFF"
         d="M506.761,312.276v-38.514l0.621-0.622h22.364l0.622,0.622v3.105l-0.622,0.622H511.11v13.045h16.151    l0.621,0.622v3.106l-0.621,0.621H511.11v13.667h18.636l0.622,0.622v3.105l-0.622,0.622h-22.364L506.761,312.276z"
         id="path4640"
         style="fill:#000000" /><path
         fill="#FFFFFF"
         d="M562.671,273.762l0.621-0.622h3.106l0.622,0.622v38.514l-0.622,0.622h-3.727l-20.5-31.681h-0.622    l0.622,10.56v20.5l-0.622,0.622h-3.106l-0.621-0.622v-38.514l0.621-0.622h3.728l20.5,31.681h0.621l-0.621-10.56V273.762z"
         id="path4642"
         style="fill:#000000" /><path
         fill="#FFFFFF"
         d="M588.14,312.898h-3.106l-0.621-0.622v-34.788h-11.182l-0.621-0.622v-3.105l0.621-0.622h26.712l0.622,0.622    v3.105l-0.622,0.622h-11.182v34.788L588.14,312.898z"
         id="path4644"
         style="fill:#000000" /><path
         fill="#FFFFFF"
         d="M606.154,312.276v-38.514l0.621-0.622h22.364l0.622,0.622v3.105l-0.622,0.622h-18.636v13.045h16.151    l0.621,0.622v3.106l-0.621,0.621h-16.151v13.667h18.636l0.622,0.622v3.105l-0.622,0.622h-22.364L606.154,312.276z"
         id="path4646"
         style="fill:#000000" /><path
         fill="#FFFFFF"
         d="M649.018,273.14c2.029,0,3.945,0.394,5.746,1.18c1.802,0.787,3.386,1.864,4.752,3.23    c1.367,1.366,2.443,2.951,3.23,4.752c0.786,1.802,1.18,3.718,1.18,5.746v9.939c0,2.029-0.394,3.945-1.18,5.746    c-0.787,1.802-1.863,3.386-3.23,4.752c-1.366,1.366-2.951,2.444-4.752,3.23c-1.801,0.787-3.717,1.18-5.746,1.18h-11.182    l-0.621-0.622v-38.514l0.621-0.622H649.018z M641.563,308.55h7.455c1.531,0,2.951-0.289,4.255-0.87    c1.304-0.579,2.423-1.356,3.354-2.33c0.932-0.973,1.656-2.091,2.174-3.354c0.517-1.262,0.776-2.598,0.776-4.007v-9.939    c0-1.408-0.259-2.743-0.776-4.007c-0.518-1.263-1.242-2.381-2.174-3.354c-0.932-0.973-2.05-1.75-3.354-2.33    c-1.304-0.579-2.724-0.87-4.255-0.87h-7.455V308.55z"
         id="path4648"
         style="fill:#000000" /><path
         fill="#FFFFFF"
         d="M714.244,301.717c0,1.532-0.29,2.981-0.869,4.348c-0.581,1.366-1.378,2.557-2.392,3.571    c-1.016,1.015-2.206,1.812-3.572,2.392c-1.366,0.581-2.816,0.87-4.348,0.87h-14.909l-0.621-0.622v-38.514l0.621-0.622h14.288    c1.449,0,2.816,0.28,4.1,0.838c1.284,0.559,2.402,1.315,3.354,2.268c0.953,0.953,1.709,2.072,2.268,3.354    c0.559,1.284,0.838,2.651,0.838,4.1c0,1.615-0.341,3.128-1.025,4.535c-0.684,1.409-1.606,2.589-2.764,3.541    c1.531,1.036,2.754,2.361,3.665,3.976c0.91,1.616,1.366,3.397,1.366,5.342V301.717z M702.441,289.913c1.74,0,3.21-0.6,4.411-1.802    c1.2-1.201,1.801-2.672,1.801-4.411c0-1.74-0.601-3.209-1.801-4.411c-1.202-1.201-2.672-1.802-4.411-1.802h-10.56v12.425H702.441z     M703.062,308.55c0.953,0,1.842-0.176,2.672-0.528c0.828-0.352,1.553-0.838,2.174-1.46c0.621-0.621,1.107-1.345,1.459-2.174    c0.352-0.828,0.528-1.718,0.528-2.671v-0.622c0-0.952-0.176-1.842-0.528-2.671c-0.352-0.828-0.838-1.553-1.459-2.174    c-0.622-0.622-1.346-1.108-2.174-1.46c-0.829-0.352-1.719-0.528-2.672-0.528h-11.181v14.288H703.062z"
         id="path4650"
         style="fill:#000000" /><path
         fill="#FFFFFF"
         d="M731.017,299.231l-11.803-24.227v-1.242l0.621-0.622h3.106l0.622,0.622l9.318,19.878h0.622l9.318-19.878    l0.621-0.622h3.106l0.622,0.622v1.242l-11.803,24.227v13.045l-0.622,0.622h-3.106l-0.621-0.622V299.231z"
         id="path4652"
         style="fill:#000000" /><path
         fill="#FFFFFF"
         d="M769.531,312.276v-38.514l0.621-0.622h24.848l0.622,0.622v5.591l-0.622,0.621h-18.015v9.318h15.53    l0.622,0.622v5.591l-0.622,0.621h-15.53v16.151l-0.622,0.622h-6.212L769.531,312.276z"
         id="path4654"
         style="fill:#000000" /><path
         fill="#FFFFFF"
         d="M802.456,312.276v-38.514l0.621-0.622h6.212l0.622,0.622v32.303h14.908l0.622,0.621v5.591l-0.622,0.622    h-21.742L802.456,312.276z"
         id="path4656"
         style="fill:#000000" /><path
         fill="#FFFFFF"
         d="M843.082,273.14c2.029,0,3.945,0.394,5.746,1.18c1.802,0.787,3.386,1.864,4.752,3.23    s2.443,2.951,3.23,4.752c0.786,1.802,1.18,3.718,1.18,5.746v9.939c0,2.029-0.394,3.945-1.18,5.746    c-0.787,1.802-1.864,3.386-3.23,4.752s-2.951,2.444-4.752,3.23c-1.801,0.787-3.718,1.18-5.746,1.18    c-2.029,0-3.945-0.393-5.746-1.18c-1.801-0.786-3.385-1.864-4.752-3.23c-1.367-1.366-2.445-2.951-3.23-4.752    c-0.788-1.802-1.181-3.717-1.181-5.746v-9.939c0-2.029,0.393-3.945,1.181-5.746c0.786-1.802,1.863-3.386,3.23-4.752    c1.366-1.366,2.951-2.443,4.752-3.23C839.137,273.534,841.052,273.14,843.082,273.14z M850.536,287.428    c0-0.91-0.186-1.822-0.559-2.733c-0.373-0.91-0.891-1.708-1.553-2.392c-0.663-0.684-1.45-1.242-2.36-1.678    c-0.911-0.435-1.905-0.652-2.982-0.652c-1.078,0-2.071,0.218-2.981,0.652c-0.912,0.435-1.699,0.994-2.361,1.678    c-0.663,0.684-1.18,1.481-1.553,2.392c-0.372,0.911-0.559,1.822-0.559,2.733v11.182c0,0.953,0.187,1.874,0.559,2.764    c0.372,0.891,0.89,1.677,1.553,2.36c0.662,0.684,1.449,1.242,2.361,1.678c0.91,0.435,1.904,0.652,2.981,0.652    c1.077,0,2.071-0.218,2.982-0.652c0.91-0.435,1.698-0.994,2.36-1.678c0.662-0.684,1.18-1.47,1.553-2.36    c0.372-0.891,0.559-1.812,0.559-2.764V287.428z"
         id="path4658"
         style="fill:#000000" /><path
         fill="#FFFFFF"
         d="M892.157,279.974l-3.727,3.728h-1.242c-0.332-0.29-0.663-0.652-0.994-1.087    c-0.332-0.435-0.776-0.848-1.336-1.242c-0.559-0.393-1.242-0.724-2.05-0.994c-0.808-0.269-1.832-0.404-3.075-0.404h-3.106    c-1.242,0-2.278,0.415-3.106,1.243c-0.829,0.828-1.242,1.863-1.242,3.105c0,1.451,0.517,2.496,1.553,3.138    c1.035,0.642,2.34,1.14,3.914,1.491c1.573,0.353,3.271,0.694,5.094,1.025c1.822,0.332,3.519,0.901,5.093,1.708    c1.573,0.808,2.879,1.988,3.914,3.541c1.035,1.553,1.553,3.718,1.553,6.492c0,1.574-0.29,3.034-0.869,4.379    c-0.581,1.347-1.398,2.527-2.454,3.541c-1.056,1.015-2.309,1.812-3.758,2.392c-1.45,0.581-3.023,0.87-4.722,0.87h-4.348    c-1.863,0-3.676-0.207-5.435-0.622c-1.761-0.413-3.262-1.242-4.504-2.485l-2.485-2.485v-1.242l3.727-3.728h1.243    c0.289,0.332,0.599,0.714,0.931,1.15c0.331,0.435,0.777,0.838,1.336,1.211c0.559,0.373,1.252,0.694,2.081,0.963    c0.828,0.27,1.863,0.404,3.105,0.404h4.348c1.243,0,2.278-0.414,3.106-1.243c0.828-0.828,1.243-1.863,1.243-3.105    c0-1.449-0.519-2.495-1.553-3.138c-1.035-0.641-2.341-1.138-3.914-1.491c-1.574-0.352-3.272-0.694-5.093-1.025    c-1.823-0.331-3.521-0.9-5.094-1.708c-1.574-0.808-2.879-1.988-3.914-3.541c-1.035-1.553-1.553-3.717-1.553-6.492    c0-1.531,0.289-2.981,0.87-4.348c0.579-1.366,1.398-2.557,2.453-3.571c1.056-1.015,2.308-1.812,3.758-2.392    c1.449-0.579,3.023-0.87,4.722-0.87h2.485h0.622c1.863,0,3.675,0.208,5.435,0.622s3.262,1.242,4.504,2.485l2.485,2.485V279.974z"
         id="path4660"
         style="fill:#000000" /><path
         fill="#FFFFFF"
         d="M925.33,279.974l-3.727,3.728h-1.242c-0.332-0.29-0.663-0.652-0.994-1.087    c-0.332-0.435-0.776-0.848-1.336-1.242c-0.559-0.393-1.242-0.724-2.05-0.994c-0.808-0.269-1.832-0.404-3.075-0.404H909.8    c-1.242,0-2.279,0.415-3.106,1.243c-0.829,0.828-1.242,1.863-1.242,3.105c0,1.451,0.517,2.496,1.553,3.138    c1.035,0.642,2.34,1.14,3.914,1.491c1.573,0.353,3.271,0.694,5.094,1.025c1.822,0.332,3.519,0.901,5.093,1.708    c1.573,0.808,2.879,1.988,3.914,3.541c1.035,1.553,1.553,3.718,1.553,6.492c0,1.574-0.29,3.034-0.869,4.379    c-0.581,1.347-1.398,2.527-2.454,3.541c-1.056,1.015-2.309,1.812-3.758,2.392c-1.45,0.581-3.023,0.87-4.722,0.87h-4.348    c-1.863,0-3.676-0.207-5.435-0.622c-1.761-0.413-3.262-1.242-4.504-2.485l-2.485-2.485v-1.242l3.727-3.728h1.243    c0.289,0.332,0.599,0.714,0.931,1.15c0.331,0.435,0.777,0.838,1.336,1.211c0.559,0.373,1.252,0.694,2.081,0.963    c0.828,0.27,1.863,0.404,3.105,0.404h4.348c1.243,0,2.278-0.414,3.106-1.243c0.828-0.828,1.243-1.863,1.243-3.105    c0-1.449-0.519-2.495-1.553-3.138c-1.035-0.641-2.341-1.138-3.914-1.491c-1.574-0.352-3.272-0.694-5.093-1.025    c-1.823-0.331-3.521-0.9-5.094-1.708c-1.574-0.808-2.879-1.988-3.914-3.541c-1.035-1.553-1.553-3.717-1.553-6.492    c0-1.531,0.289-2.981,0.87-4.348c0.579-1.366,1.398-2.557,2.453-3.571c1.056-1.015,2.308-1.812,3.758-2.392    c1.449-0.579,3.023-0.87,4.722-0.87h2.485h0.622c1.863,0,3.675,0.208,5.435,0.622s3.262,1.242,4.504,2.485l2.485,2.485V279.974z"
         id="path4662"
         style="fill:#000000" /><path
         fill="#FFFFFF"
         d="M951.421,292.398v1.242l13.045,17.394v1.242l-0.622,0.622h-6.833l-0.622-0.622l-11.182-15.53h-3.727v15.53    l-0.622,0.622h-6.212l-0.621-0.622v-38.514l0.621-0.622h6.212l0.622,0.622v15.53h3.665l11.244-15.53l0.622-0.622h6.833    l0.622,0.622v1.242L951.421,292.398z"
         id="path4664"
         style="fill:#000000" /></g></g></svg>