<?xml version="1.0" encoding="UTF-8" standalone="no"?>
<!-- Created with Inkscape (http://www.inkscape.org/) -->

<svg
   xmlns:dc="http://purl.org/dc/elements/1.1/"
   xmlns:cc="http://creativecommons.org/ns#"
   xmlns:rdf="http://www.w3.org/1999/02/22-rdf-syntax-ns#"
   xmlns:svg="http://www.w3.org/2000/svg"
   xmlns="http://www.w3.org/2000/svg"
   xmlns:sodipodi="http://sodipodi.sourceforge.net/DTD/sodipodi-0.dtd"
   xmlns:inkscape="http://www.inkscape.org/namespaces/inkscape"
   width="714.51935"
   height="377.16736"
   viewBox="0 0 189.04992 99.792192"
   version="1.1"
   id="svg8"
   inkscape:version="0.92.2 (5c3e80d, 2017-08-06)"
   sodipodi:docname="vertical.svg"
   inkscape:export-filename="/home/anxhelo/works/AGO Labs/PNG/Monochrome Black/vertical.png"
   inkscape:export-xdpi="96"
   inkscape:export-ydpi="96">
  <defs
     id="defs2" />
  <sodipodi:namedview
     id="base"
     pagecolor="#ffffff"
     bordercolor="#666666"
     borderopacity="1.0"
     inkscape:pageopacity="0"
     inkscape:pageshadow="2"
     inkscape:zoom="0.74199837"
     inkscape:cx="427.95077"
     inkscape:cy="252.44163"
     inkscape:document-units="px"
     inkscape:current-layer="g3055"
     inkscape:document-rotation="0"
     showgrid="false"
     borderlayer="true"
     inkscape:showpageshadow="true"
     units="px"
     inkscape:pagecheckerboard="false"
     showguides="false"
     inkscape:window-width="1366"
     inkscape:window-height="715"
     inkscape:window-x="0"
     inkscape:window-y="0"
     inkscape:window-maximized="1"
     objecttolerance="10"
     guidetolerance="10"
     inkscape:snap-tangential="true"
     inkscape:snap-perpendicular="true"
     fit-margin-top="0"
     fit-margin-left="0"
     fit-margin-right="0"
     fit-margin-bottom="0"
     inkscape:guide-bbox="true">
    <inkscape:grid
       type="xygrid"
       id="grid10"
       dotted="false"
       originx="-118.93726"
       originy="-106.4986" />
    <sodipodi:guide
       position="100.81046,42.264148"
       orientation="0,1"
       id="guide894"
       inkscape:locked="false" />
    <sodipodi:guide
       position="100.80568,99.792192"
       orientation="0,1"
       id="guide896"
       inkscape:locked="false" />
  </sodipodi:namedview>
  <metadata
     id="metadata5">
    <rdf:RDF>
      <cc:Work
         rdf:about="">
        <dc:format>image/svg+xml</dc:format>
        <dc:type
           rdf:resource="http://purl.org/dc/dcmitype/StillImage" />
        <dc:title></dc:title>
        <cc:license
           rdf:resource="" />
      </cc:Work>
    </rdf:RDF>
  </metadata>
  <g
     inkscape:label="Layer 1"
     inkscape:groupmode="layer"
     id="layer1"
     transform="translate(-118.93725,-90.7092)">
    <g
       id="g3055"
       transform="matrix(1.8059565,0,0,1.8059565,-251.15213,-146.07717)">
      <g
         id="g3116"
         transform="matrix(1.4152693,0,0,1.4152693,-126.99011,-74.436002)"
         style="fill:#000000">
        <g
           id="g64"
           transform="matrix(0.35277777,0,0,-0.35277777,238.00385,179.57503)"
           style="fill:#000000">
          <path
             d="m 0,0 h 12.181 l -5.8,18.56 h -0.58 z m 2.32,23.2 0.639,0.58 H 9.28 L 9.86,23.2 22.041,-11.6 v -1.16 l -0.58,-0.58 H 16.82 l -0.58,0.58 -2.32,7.54 H -1.74 l -2.32,-7.54 -0.58,-0.58 h -4.639 l -0.58,0.58 v 1.16 z"
             style="fill:#000000;fill-opacity:1;fill-rule:nonzero;stroke:none"
             id="path66"
             inkscape:connector-curvature="0" />
        </g>
        <g
           id="g68"
           transform="matrix(0.35277777,0,0,-0.35277777,251.2013,177.32416)"
           style="fill:#000000">
          <path
             d="m 0,0 0.58,0.58 h 9.859 L 11.02,0 v -16.82 c -1.161,-1.16 -2.514,-1.934 -4.06,-2.32 -1.547,-0.387 -3.094,-0.58 -4.64,-0.58 h -4.06 c -1.74,0 -3.355,0.28 -4.843,0.841 -1.489,0.56 -2.774,1.343 -3.856,2.349 -1.084,1.005 -1.935,2.223 -2.553,3.654 -0.619,1.43 -0.928,3.016 -0.928,4.756 V 5.8 c 0,1.74 0.309,3.325 0.928,4.756 0.618,1.43 1.469,2.648 2.553,3.654 1.082,1.005 2.367,1.788 3.856,2.349 1.488,0.56 3.103,0.841 4.843,0.841 h 2.32 c 1.74,0 3.432,-0.194 5.075,-0.58 C 7.299,16.433 8.7,15.66 9.859,14.5 L 11.02,13.34 V 11.6 L 8.7,9.28 H 8.12 C 7.54,9.86 6.573,10.391 5.221,10.875 3.866,11.358 2.32,11.6 0.58,11.6 h -2.9 c -0.89,0 -1.682,-0.165 -2.377,-0.493 C -5.395,10.778 -6.003,10.343 -6.525,9.802 -7.047,9.26 -7.443,8.642 -7.714,7.946 -7.984,7.25 -8.12,6.534 -8.12,5.8 V -8.12 c 0,-0.774 0.136,-1.508 0.406,-2.204 0.271,-0.696 0.667,-1.315 1.189,-1.856 0.522,-0.542 1.13,-0.967 1.828,-1.276 0.695,-0.31 1.487,-0.464 2.377,-0.464 h 7.541 v 8.7 H 0.58 L 0,-4.64 Z"
             style="fill:#000000;fill-opacity:1;fill-rule:nonzero;stroke:none"
             id="path70"
             inkscape:connector-curvature="0" />
        </g>
        <g
           id="g72"
           transform="matrix(0.35277777,0,0,-0.35277777,265.01269,176.0965)"
           style="fill:#000000">
          <path
             d="M 0,0 C 0,1.314 -0.232,2.474 -0.695,3.48 -1.16,4.485 -1.77,5.336 -2.523,6.032 -3.277,6.728 -4.146,7.25 -5.133,7.598 -6.119,7.946 -7.115,8.12 -8.12,8.12 -9.126,8.12 -10.121,7.946 -11.107,7.598 -12.094,7.25 -12.963,6.728 -13.717,6.032 -14.471,5.336 -15.08,4.485 -15.544,3.48 -16.008,2.474 -16.24,1.314 -16.24,0 v -9.28 c 0,-1.315 0.232,-2.475 0.696,-3.48 0.464,-1.006 1.073,-1.856 1.827,-2.552 0.754,-0.696 1.623,-1.218 2.61,-1.566 0.986,-0.348 1.981,-0.522 2.987,-0.522 1.005,0 2.001,0.174 2.987,0.522 0.987,0.348 1.856,0.87 2.61,1.566 0.753,0.696 1.363,1.546 1.828,2.552 0.463,1.005 0.695,2.165 0.695,3.48 z m -8.12,13.92 c 1.893,0 3.683,-0.368 5.365,-1.102 1.682,-0.735 3.161,-1.74 4.437,-3.016 C 2.958,8.526 3.963,7.047 4.697,5.365 5.432,3.683 5.8,1.894 5.8,0 v -9.28 c 0,-1.895 -0.368,-3.683 -1.103,-5.365 -0.734,-1.682 -1.739,-3.161 -3.015,-4.437 -1.276,-1.276 -2.755,-2.282 -4.437,-3.016 -1.682,-0.735 -3.472,-1.102 -5.365,-1.102 -1.896,0 -3.683,0.367 -5.364,1.102 -1.683,0.734 -3.162,1.74 -4.438,3.016 -1.276,1.276 -2.282,2.755 -3.015,4.437 -0.736,1.682 -1.103,3.47 -1.103,5.365 V 0 c 0,1.894 0.367,3.683 1.103,5.365 0.733,1.682 1.739,3.161 3.015,4.437 1.276,1.276 2.755,2.281 4.438,3.016 1.681,0.734 3.468,1.102 5.364,1.102"
             style="fill:#000000;fill-opacity:1;fill-rule:nonzero;stroke:none"
             id="path74"
             inkscape:connector-curvature="0" />
        </g>
        <g
           id="g76"
           transform="matrix(0.35277777,0,0,-0.35277777,274.0154,184.07637)"
           style="fill:#000000">
          <path
             d="m 0,0 v 35.96 l 0.58,0.58 H 5.22 L 5.8,35.96 V 5.22 H 20.88 L 21.46,4.64 V 0 L 20.88,-0.58 H 0.58 Z"
             style="fill:#000000;fill-opacity:1;fill-rule:nonzero;stroke:none"
             id="path78"
             inkscape:connector-curvature="0" />
        </g>
        <g
           id="g80"
           transform="matrix(0.35277777,0,0,-0.35277777,285.14582,180.3934)"
           style="fill:#000000">
          <path
             d="m 0,0 c -0.812,0 -1.488,-0.271 -2.029,-0.812 -0.543,-0.542 -0.813,-1.257 -0.813,-2.146 0,-0.812 0.261,-1.489 0.783,-2.03 C -1.537,-5.53 -0.851,-5.8 0,-5.8 h 2.958 c 1.74,0 3.142,0.531 4.205,1.595 C 8.227,-3.142 8.758,-1.74 8.758,0 Z m 4.698,16.82 c 1.314,0 2.532,-0.242 3.654,-0.725 1.121,-0.484 2.097,-1.141 2.929,-1.972 0.831,-0.832 1.489,-1.808 1.972,-2.929 0.483,-1.122 0.726,-2.34 0.726,-3.654 v -17.98 l -0.581,-0.58 h -1.16 L 9.918,-8.7 C 8.912,-9.474 7.868,-10.054 6.786,-10.44 5.703,-10.827 4.428,-11.02 2.958,-11.02 H 0.059 c -1.161,0 -2.234,0.203 -3.219,0.609 -0.986,0.406 -1.848,0.976 -2.582,1.711 -0.735,0.734 -1.305,1.595 -1.711,2.581 -0.406,0.986 -0.61,2.059 -0.61,3.219 0,1.121 0.194,2.165 0.581,3.132 0.386,0.966 0.928,1.807 1.625,2.523 0.695,0.715 1.516,1.295 2.464,1.74 0.948,0.444 1.981,0.686 3.103,0.725 h 9.048 v 2.32 c 0,1.16 -0.387,2.126 -1.16,2.9 -0.774,0.773 -1.74,1.16 -2.9,1.16 H 1.219 C 0.483,11.6 -0.136,11.513 -0.638,11.339 -1.141,11.165 -1.576,10.952 -1.943,10.701 -2.311,10.449 -2.609,10.188 -2.842,9.918 -3.074,9.647 -3.268,9.434 -3.422,9.28 h -0.58 l -2.32,2.9 v 1.16 l 1.16,1.16 c 0.58,0.58 1.498,1.111 2.756,1.595 1.256,0.483 2.465,0.725 3.625,0.725 z"
             style="fill:#000000;fill-opacity:1;fill-rule:nonzero;stroke:none"
             id="path82"
             inkscape:connector-curvature="0" />
        </g>
        <g
           id="g84"
           transform="matrix(0.35277777,0,0,-0.35277777,296.11259,176.30114)"
           style="fill:#000000">
          <path
             d="M 0,0 C -0.735,0 -1.45,-0.145 -2.146,-0.435 -2.842,-0.725 -3.461,-1.131 -4.002,-1.653 -4.544,-2.175 -4.979,-2.794 -5.308,-3.509 -5.636,-4.225 -5.8,-4.988 -5.8,-5.8 v -5.8 c 0,-0.89 0.164,-1.682 0.492,-2.378 0.329,-0.696 0.764,-1.305 1.306,-1.827 0.541,-0.522 1.16,-0.919 1.856,-1.189 C -1.45,-17.265 -0.735,-17.4 0,-17.4 h 1.102 c 1.16,0 2.136,0.386 2.929,1.16 0.792,0.773 1.189,1.74 1.189,2.9 v 9.28 c 0,1.16 -0.397,2.126 -1.189,2.9 C 3.238,-0.387 2.262,0 1.102,0 Z m 0,-22.62 c -1.47,0 -2.755,0.222 -3.857,0.667 -1.102,0.444 -2.118,1.053 -3.045,1.827 L -9.28,-22.62 h -1.16 l -0.581,0.58 v 35.96 l 0.581,0.58 h 4.06 L -5.8,13.92 V 5.22 L -6.902,3.48 -6.38,2.9 -5.8,3.48 c 0.889,0.58 1.788,1.015 2.696,1.305 C -2.195,5.075 -1.16,5.22 0,5.22 H 1.16 C 2.474,5.22 3.692,4.978 4.813,4.495 5.935,4.011 6.911,3.354 7.743,2.523 8.574,1.691 9.23,0.715 9.715,-0.406 c 0.483,-1.122 0.724,-2.34 0.724,-3.654 v -9.28 c 0,-1.315 -0.241,-2.533 -0.724,-3.654 C 9.23,-18.116 8.574,-19.092 7.743,-19.923 6.911,-20.755 5.935,-21.412 4.813,-21.895 3.692,-22.379 2.474,-22.62 1.16,-22.62 Z"
             style="fill:#000000;fill-opacity:1;fill-rule:nonzero;stroke:none"
             id="path86"
             inkscape:connector-curvature="0" />
        </g>
        <g
           id="g88"
           transform="matrix(0.35277777,0,0,-0.35277777,305.4223,174.45975)"
           style="fill:#000000">
          <path
             d="M 0,0 C 1.16,0 2.368,-0.242 3.625,-0.725 4.881,-1.209 5.8,-1.74 6.38,-2.32 L 7.54,-3.48 V -4.64 L 5.22,-7.54 H 4.64 C 4.485,-7.386 4.292,-7.173 4.06,-6.902 3.828,-6.632 3.528,-6.371 3.161,-6.119 2.793,-5.868 2.358,-5.655 1.856,-5.481 1.354,-5.307 0.734,-5.22 0,-5.22 h -3.48 c -1.16,0 -2.03,-0.261 -2.61,-0.783 -0.58,-0.522 -0.87,-1.228 -0.87,-2.117 0,-0.967 0.386,-1.644 1.16,-2.03 0.773,-0.387 1.74,-0.667 2.9,-0.841 1.16,-0.174 2.416,-0.348 3.77,-0.522 1.353,-0.174 2.61,-0.532 3.77,-1.073 1.16,-0.542 2.126,-1.363 2.9,-2.465 0.773,-1.102 1.16,-2.659 1.16,-4.669 0,-2.32 -0.725,-4.254 -2.175,-5.8 C 5.075,-27.067 2.9,-27.84 0,-27.84 h -4.06 c -1.16,0 -2.369,0.241 -3.625,0.725 -1.257,0.483 -2.175,1.015 -2.755,1.595 l -1.16,1.16 v 1.16 l 2.32,2.9 h 0.58 c 0.154,-0.155 0.348,-0.368 0.58,-0.638 0.232,-0.271 0.531,-0.532 0.899,-0.783 0.367,-0.252 0.802,-0.464 1.305,-0.638 0.502,-0.174 1.121,-0.261 1.856,-0.261 H 0 c 1.16,0 2.03,0.261 2.61,0.783 0.58,0.522 0.87,1.227 0.87,2.117 0,0.966 -0.387,1.633 -1.16,2.001 -0.774,0.367 -1.74,0.618 -2.9,0.754 -1.16,0.135 -2.417,0.28 -3.77,0.435 -1.354,0.154 -2.61,0.493 -3.77,1.015 -1.16,0.522 -2.127,1.353 -2.9,2.494 -0.774,1.14 -1.16,2.774 -1.16,4.901 0,2.32 0.715,4.253 2.146,5.8 1.43,1.546 3.596,2.32 6.496,2.32 z"
             style="fill:#000000;fill-opacity:1;fill-rule:nonzero;stroke:none"
             id="path90"
             inkscape:connector-curvature="0" />
        </g>
      </g>
      <g
         id="g3285"
         transform="matrix(2.5836402,0,0,2.5836402,-126.34577,-86.997142)"
         style="fill:#000000">
        <g
           id="g136"
           transform="matrix(0.19534123,0,0,-0.19534123,147.71787,95.404508)"
           style="fill:#000000">
          <path
             d="M 0,0 3.873,-2.457 Z"
             style="fill:#000000;fill-opacity:1;fill-rule:nonzero;stroke:none"
             id="path138"
             inkscape:connector-curvature="0" />
        </g>
        <g
           id="g140"
           transform="matrix(0.19534123,0,0,-0.19534123,154.53919,87.393228)"
           style="fill:#000000">
          <path
             d="m 0,0 -24.064,15.22 -6.983,-4.429 24.064,-15.22 v -23.819 l -24.064,-15.22 6.983,-4.429 24.064,15.22 0.078,9.267 v 14.143 z"
             style="fill:#000000;fill-opacity:1;fill-rule:nonzero;stroke:none"
             id="path142"
             inkscape:connector-curvature="0" />
        </g>
        <g
           id="g144"
           transform="matrix(0.19534123,0,0,-0.19534123,143.76527,92.897228)"
           style="fill:#000000">
          <path
             d="M 0,0 V 23.676 L 24.107,38.967 17.125,43.396 -6.982,28.105 V -4.43 l 24.107,-15.291 6.982,4.429 -3.873,2.457 z"
             style="fill:#000000;fill-opacity:1;fill-rule:nonzero;stroke:none"
             id="path146"
             inkscape:connector-curvature="0" />
        </g>
        <g
           id="g148"
           transform="matrix(0.19534123,0,0,-0.19534123,146.23815,89.494278)"
           style="fill:#000000">
          <path
             d="M 0,0 -0.037,-11.131 11.427,-18.403 22.89,-11.131 22.853,0 11.41,7.237 Z"
             style="fill:#000000;fill-opacity:1;fill-rule:nonzero;stroke:none"
             id="path150"
             inkscape:connector-curvature="0" />
        </g>
      </g>
    </g>
  </g>
</svg>
