<?xml version="1.0" encoding="UTF-8" standalone="no"?>
<!-- Created with Inkscape (http://www.inkscape.org/) -->

<svg
   xmlns:dc="http://purl.org/dc/elements/1.1/"
   xmlns:cc="http://creativecommons.org/ns#"
   xmlns:rdf="http://www.w3.org/1999/02/22-rdf-syntax-ns#"
   xmlns:svg="http://www.w3.org/2000/svg"
   xmlns="http://www.w3.org/2000/svg"
   xmlns:sodipodi="http://sodipodi.sourceforge.net/DTD/sodipodi-0.dtd"
   xmlns:inkscape="http://www.inkscape.org/namespaces/inkscape"
   width="176.38887mm"
   height="52.53849mm"
   viewBox="0 0 176.38887 52.53849"
   version="1.1"
   id="svg1059"
   inkscape:version="0.92.1 r"
   sodipodi:docname="horizontal-artboard-whitewordmark.svg">
  <defs
     id="defs1053" />
  <sodipodi:namedview
     id="base"
     pagecolor="#ffffff"
     bordercolor="#666666"
     borderopacity="1.0"
     inkscape:pageopacity="0.0"
     inkscape:pageshadow="2"
     inkscape:zoom="0.35"
     inkscape:cx="-479.5075"
     inkscape:cy="-280.15234"
     inkscape:document-units="mm"
     inkscape:current-layer="layer1"
     showgrid="false"
     fit-margin-top="0"
     fit-margin-left="0"
     fit-margin-right="0"
     fit-margin-bottom="0"
     inkscape:window-width="1366"
     inkscape:window-height="744"
     inkscape:window-x="0"
     inkscape:window-y="0"
     inkscape:window-maximized="1" />
  <metadata
     id="metadata1056">
    <rdf:RDF>
      <cc:Work
         rdf:about="">
        <dc:format>image/svg+xml</dc:format>
        <dc:type
           rdf:resource="http://purl.org/dc/dcmitype/StillImage" />
        <dc:title></dc:title>
      </cc:Work>
    </rdf:RDF>
  </metadata>
  <g
     inkscape:label="Layer 1"
     inkscape:groupmode="layer"
     id="layer1"
     transform="translate(-106.45897,-22.171197)">
    <path
       d="m 280.20413,64.369448 h -4.76814 c -1.98296,0 -2.65747,-0.84352 -2.82646,-2.86882 l -1.01317,-13.33183 c -0.16863,-1.98299 -0.0413,-4.64054 -0.0413,-4.64054 h -0.085 c 0,0 -0.88582,2.9537 -1.64535,4.64054 l -4.97805,11.05394 h -4.47181 l -4.97911,-11.05394 c -0.75847,-1.68684 -1.64429,-4.68312 -1.64429,-4.68312 h -0.085 c 0,0 0.12629,2.70013 -0.0423,4.68312 l -0.96978,13.33183 c -0.16863,2.0253 -0.88583,2.86882 -2.86879,2.86882 h -4.76779 v -4.68312 h 1.3081 c 0.58984,0 0.88582,-0.33736 0.92851,-0.92827 l 1.94028,-24.342297 h 5.73757 l 6.15986,14.259067 c 0.71719,1.73055 1.47672,4.00829 1.47672,4.00829 h 0.084 c 0,0 0.75954,-2.27774 1.47673,-4.00829 l 6.15986,-14.259067 h 5.73757 l 1.94063,24.342297 c 0.0423,0.59091 0.33726,0.92827 0.92816,0.92827 h 1.30845 z m -36.83352,-2.86882 c 0,2.0253 -0.88583,2.86882 -2.86879,2.86882 h -13.58406 c -2.0253,0 -2.86879,-0.84352 -2.86879,-2.86882 v -22.40174 h -2.7425 v -4.683127 h 18.09856 c 1.98297,0 2.86879,0.886178 2.86879,2.868787 v 4.55563 h -5.02038 v -1.81419 c 0,-0.58981 -0.33761,-0.9271 -0.92851,-0.9271 h -6.7497 v 7.84662 h 9.70351 v 4.68298 h -9.70351 v 7.12957 c 0,0.59091 0.33761,0.92827 0.92852,0.92827 h 6.91832 c 0.5909,0 0.92816,-0.33736 0.92816,-0.92827 v -1.81296 h 5.02038 z M 217.58185,30.457242 v 38.451046 h 65.266 V 30.457242 h -65.266"
       style="fill:#ffffff;fill-opacity:1;fill-rule:nonzero;stroke:none;stroke-width:0.03527778"
       id="path14"
       inkscape:connector-curvature="0" />
    <path
       d="m 175.52686,59.729048 c -5.40032,0 -9.74584,-4.55704 -9.74584,-10.54696 0,-5.73762 4.34552,-10.12554 9.74584,-10.12554 5.40032,0 9.74584,4.38792 9.74584,10.12554 0,5.98992 -4.34552,10.54696 -9.74584,10.54696 z m 0,-25.820581 c -8.81768,0 -15.48342,6.708561 -15.48342,15.273621 0,8.8175 6.66574,15.69321 15.48342,15.69321 8.81733,0 15.48341,-6.87571 15.48341,-15.69321 0,-8.56506 -6.66608,-15.273621 -15.48341,-15.273621"
       style="fill:#ffffff;fill-opacity:1;fill-rule:nonzero;stroke:none;stroke-width:0.03527778"
       id="path16"
       inkscape:connector-curvature="0" />
    <path
       d="m 199.78774,42.136298 c 0,-1.89921 1.85702,-3.20604 4.3882,-3.20604 1.98296,0 3.96593,0.92706 3.96593,2.32025 v 1.34938 h 4.97804 v -2.78377 c 0,-4.261943 -5.40032,-5.907651 -8.9027,-5.907651 -5.77885,0 -9.99807,3.587401 -9.99807,8.438971 0,9.32364 14.09136,8.90129 14.09136,14.00666 0,2.32004 -2.0253,3.54347 -4.30319,3.54347 -4.17689,0 -7.25699,-3.54347 -7.25699,-3.54347 l -3.12243,3.8808 c 0,0 3.671,4.6404 10.2944,4.6404 6.28615,0 9.95716,-4.0495 9.95716,-8.81736 0,-9.82955 -14.09171,-8.81751 -14.09171,-13.92164"
       style="fill:#ffffff;fill-opacity:1;fill-rule:nonzero;stroke:none;stroke-width:0.03527778"
       id="path18"
       inkscape:connector-curvature="0" />
    <path
       d="m 137.33503,22.171197 -0.0411,0.0011 c -0.37017,0.02258 -0.6295,0.25153 -0.85842,0.453672 -0.0829,0.07303 -0.21854,0.192969 -0.28688,0.223661 -0.23495,-0.01693 -0.49127,-0.09772 -0.76221,-0.182739 -0.16824,-0.05292 -0.34216,-0.107597 -0.52627,-0.1524 -0.25037,-0.06103 -0.49513,-0.09207 -0.72746,-0.09207 -0.51372,0 -0.96062,0.15487 -1.29248,0.448381 -0.53618,0.47378 -0.64392,1.172986 -0.67839,1.658055 -0.01,0.133703 0.0208,0.2667 0.0871,0.383117 l 0.67758,1.186744 c 0.11438,0.200378 0.32315,0.328436 0.55369,0.339725 0.0699,0.0035 0.14097,0.0053 0.21124,0.0053 0.96312,0 1.91358,-0.320322 2.67617,-0.902406 0.34326,-0.262113 0.74881,-0.689327 1.08494,-1.142999 0.63884,-0.862542 0.63016,-1.276703 0.62727,-1.412875 -0.006,-0.285398 -0.13628,-0.537634 -0.35775,-0.69215 -0.11367,-0.07973 -0.24885,-0.122062 -0.38707,-0.122062 z m 0,0.675923 c 0.34642,0.242005 -0.68517,1.628775 -1.37749,2.156883 -0.64506,0.492478 -1.45493,0.764117 -2.26607,0.764117 -0.0594,0 -0.11864,-0.0018 -0.17805,-0.0046 l -0.67744,-1.186745 c 0.0311,-0.437444 0.12323,-0.909108 0.45187,-1.199444 0.22998,-0.203553 0.53316,-0.279048 0.84473,-0.279048 0.19085,0 0.38474,0.02822 0.56734,0.07267 0.48094,0.117475 0.9441,0.328789 1.43842,0.355247 l 0.0277,7.06e-4 c 0.48094,0 0.85382,-0.660752 1.169,-0.679802"
       style="fill:#3b3a3c;fill-opacity:1;fill-rule:nonzero;stroke:none;stroke-width:0.03527778"
       id="path20"
       inkscape:connector-curvature="0" />
    <path
       d="m 117.80987,31.844364 c -0.0678,-0.08819 -0.25975,-0.132644 -0.51389,-0.118181 -0.068,0.0039 -0.13832,0.0099 -0.2129,0.01658 -0.28261,0.0254 -0.60276,0.05397 -0.93211,-0.04763 -0.82211,-0.254706 -1.1472,-1.116542 -1.38451,-1.745897 -0.17046,-0.451909 -0.3919,-0.9652 -0.74249,-1.345848 -0.14055,-0.1524 -0.25587,-0.155575 -0.68859,-0.102658 -0.101,0.01235 -0.21541,0.02646 -0.3357,0.03563 -0.20698,0.01623 -0.39921,-0.109714 -0.46782,-0.306212 -0.0685,-0.196144 0.004,-0.414161 0.17554,-0.530577 0.63571,-0.431095 1.2131,-0.527403 1.71609,-0.286809 0.0925,0.0441 0.18383,0.09031 0.27202,0.135114 0.31708,0.160514 0.61652,0.311856 0.91585,0.348897 0.26042,0.0321 0.54624,-0.0194 0.84885,-0.07408 0.2056,-0.03739 0.41836,-0.07585 0.64107,-0.09172 0.7003,-0.0508 1.5573,0.237419 1.78538,0.990247 0.0739,0.24377 0.0619,0.472722 0.0513,0.674864 -0.003,0.06809 -0.007,0.132997 -0.007,0.192264 9.5e-4,0.134055 0.0362,0.214489 0.0521,0.230717 l -0.009,-0.0056 -0.39991,0.8255 c -0.34752,-0.168275 -0.55715,-0.5588 -0.56071,-1.043869 -7.1e-4,-0.08643 0.004,-0.168275 0.008,-0.246945 0.007,-0.139347 0.0142,-0.270933 -0.0131,-0.360539 -0.0747,-0.246591 -0.4863,-0.367594 -0.84127,-0.341841 -0.17392,0.0127 -0.35376,0.04515 -0.54405,0.07937 -0.35691,0.06456 -0.72581,0.131233 -1.12476,0.08184 -0.0882,-0.01058 -0.17378,-0.02681 -0.257,-0.04692 0.15667,0.291394 0.27862,0.589139 0.38294,0.865716 0.18937,0.502003 0.40407,1.071034 0.79763,1.193095 0.15624,0.04833 0.36146,0.02999 0.57863,0.01023 0.0789,-0.0067 0.1604,-0.01411 0.24405,-0.0187 0.73448,-0.04092 1.10821,0.236008 1.29233,0.475544 l -0.72747,0.558448"
       style="fill:#3b3a3c;fill-opacity:1;fill-rule:nonzero;stroke:none;stroke-width:0.03527778"
       id="path22"
       inkscape:connector-curvature="0" />
    <path
       d="m 147.58721,72.577168 c -0.49883,0 -0.99907,-0.0276 -1.48767,-0.0819 -2.46133,-0.27313 -6.04082,-1.36453 -9.1162,-5.01236 -0.38791,-0.46023 -0.32907,-1.14994 0.13092,-1.538 0.19664,-0.16552 0.44619,-0.25686 0.70305,-0.25686 0.32261,0 0.62689,0.1415 0.83471,0.38777 2.61122,3.09729 5.62225,4.02082 7.68847,4.25013 0.41663,0.0463 0.83961,0.0699 1.25695,0.0699 2.77107,0 4.54272,-0.98489 5.02003,-1.28655 1.01141,-0.64022 1.61713,-1.48622 1.66193,-2.32198 0.0356,-0.66397 -0.2868,-1.2856 -0.93203,-1.79808 -0.64664,-0.51375 -1.30352,-0.76344 -2.00766,-0.76344 -0.70838,0 -1.48485,0.26391 -2.30788,0.78493 -0.53057,0.33542 -0.86007,0.77473 -0.88159,1.17478 -0.0159,0.29669 0.13512,0.57327 0.44873,0.82229 0.47096,0.37426 0.54999,1.06218 0.17569,1.53321 -0.20849,0.2625 -0.52,0.41272 -0.85514,0.41272 -0.24518,0 -0.48612,-0.0839 -0.67839,-0.23675 -0.87347,-0.69385 -1.32468,-1.63435 -1.27035,-2.64831 0.06,-1.12105 0.75036,-2.17911 1.89406,-2.90258 1.17758,-0.7451 2.34986,-1.12296 3.48404,-1.12296 1.1938,0 2.32269,0.41588 3.35597,1.23694 1.20509,0.95705 1.8281,2.24427 1.75402,3.62437 -0.0829,1.55042 -1.05798,3.02645 -2.67441,4.04922 -0.93627,0.59229 -2.10538,1.05117 -3.38138,1.32747 -0.90805,0.19651 -1.85526,0.296 -2.81587,0.296"
       style="fill:#967e73;fill-opacity:1;fill-rule:nonzero;stroke:none;stroke-width:0.03527778"
       id="path24"
       inkscape:connector-curvature="0" />
    <path
       d="m 151.34888,61.681288 v 0 c -1.20368,0 -2.44122,0.39648 -3.67771,1.17891 -1.2439,0.78715 -1.99566,1.94952 -2.06199,3.18922 -0.061,1.13411 0.43886,2.18225 1.40688,2.95134 0.25612,0.20312 0.57679,0.31502 0.90346,0.31502 0.44627,0 0.86114,-0.20009 1.13842,-0.5493 0.24165,-0.30414 0.35031,-0.68404 0.30621,-1.06963 -0.0444,-0.38558 -0.23601,-0.73106 -0.5401,-0.97261 -0.21661,-0.17183 -0.32138,-0.34646 -0.31221,-0.51925 0.0148,-0.27905 0.28822,-0.61916 0.71367,-0.88844 0.76411,-0.48355 1.47567,-0.72883 2.1142,-0.72883 0.61912,0 1.20227,0.22408 1.78258,0.68474 0.55739,0.44319 0.82515,0.94618 0.79552,1.49546 -0.0385,0.71684 -0.58279,1.45877 -1.49402,2.03521 -0.45614,0.28857 -2.15265,1.23045 -4.82635,1.23045 -0.40428,0 -0.81351,-0.0226 -1.21708,-0.0674 -2.00061,-0.22228 -4.9173,-1.11784 -7.45152,-4.12365 -0.27682,-0.32837 -0.68199,-0.51633 -1.11153,-0.51633 -0.34216,0 -0.67469,0.12125 -0.93638,0.34216 -0.61281,0.5165 -0.69105,1.4351 -0.17459,2.04791 3.15257,3.73943 6.82639,4.8584 9.35334,5.13883 0.50165,0.0558 1.01565,0.0839 1.52753,0.0839 0.98601,0 1.95933,-0.10225 2.89242,-0.304 1.31692,-0.28511 2.5266,-0.76068 3.49815,-1.37556 1.71732,-1.08617 2.75343,-2.66665 2.84268,-4.33557 0.0808,-1.5004 -0.5909,-2.89529 -1.89053,-3.92755 -1.09855,-0.87274 -2.30364,-1.31508 -3.58105,-1.31508 m 0,0.7239 c 1.10455,0 2.159,0.38625 3.1309,1.15852 1.1109,0.88194 1.68522,2.06153 1.61784,3.32133 -0.0769,1.43193 -0.9906,2.80321 -2.50684,3.76273 -0.90064,0.56983 -2.02953,1.01218 -3.26425,1.27952 -0.88371,0.19086 -1.81152,0.28787 -2.73932,0.28787 -0.48472,0 -0.96944,-0.0265 -1.44745,-0.0796 -2.39607,-0.2661 -5.88123,-1.32924 -8.8797,-4.88598 -0.2595,-0.30797 -0.22038,-0.76796 0.0876,-1.02775 0.13685,-0.11532 0.30371,-0.17169 0.46962,-0.17169 0.20754,0 0.4137,0.0882 0.55799,0.25922 2.68813,3.18851 5.79349,4.13988 7.92533,4.37663 0.44344,0.0494 0.877,0.0719 1.29681,0.0719 2.25143,0 4.12115,-0.65151 5.21335,-1.3426 1.11196,-0.70351 1.77906,-1.65421 1.83021,-2.60851 0.0423,-0.78602 -0.32737,-1.51239 -1.06856,-2.10108 -0.70661,-0.56126 -1.4471,-0.84211 -2.23273,-0.84211 -0.78529,0 -1.61537,0.28042 -2.50155,0.84102 -0.63888,0.40432 -1.02129,0.93691 -1.04952,1.46153 -0.0222,0.41451 0.17992,0.80369 0.58491,1.12532 0.31538,0.25051 0.36795,0.70912 0.11747,1.02457 -0.14393,0.18119 -0.35665,0.27573 -0.5715,0.27573 -0.15875,0 -0.31891,-0.0518 -0.45296,-0.15832 -0.77929,-0.61916 -1.18216,-1.45204 -1.13418,-2.3453 0.0536,-1.00253 0.68262,-1.95612 1.72614,-2.6162 1.1243,-0.7112 2.23061,-1.06673 3.29036,-1.06673"
       style="fill:#3b3a3c;fill-opacity:1;fill-rule:nonzero;stroke:none;stroke-width:0.03527778"
       id="path26"
       inkscape:connector-curvature="0" />
    <path
       d="m 142.40772,35.884378 c -0.0385,0 -0.0773,-0.0116 -0.11112,-0.0353 -0.0871,-0.0614 -0.1083,-0.18168 -0.0469,-0.26917 0.43497,-0.618067 0.88582,-2.094089 0.59337,-2.788356 -0.0416,-0.09843 0.005,-0.211666 0.10301,-0.252941 0.0984,-0.04127 0.21131,0.0046 0.25294,0.103011 0.35772,0.850194 -0.14428,2.465564 -0.63323,3.160536 -0.0377,0.0536 -0.0974,0.0822 -0.15805,0.0822"
       style="fill:#3b3a3c;fill-opacity:1;fill-rule:nonzero;stroke:none;stroke-width:0.03527778"
       id="path28"
       inkscape:connector-curvature="0" />
    <path
       d="m 143.41032,36.098508 c -0.0536,0 -0.10725,-0.0226 -0.14535,-0.0663 -0.0702,-0.0804 -0.0617,-0.20249 0.0183,-0.27234 0.49072,-0.428276 1.7459,-1.403001 2.80706,-1.210031 0.10477,0.01905 0.17462,0.119591 0.15522,0.224366 -0.019,0.105128 -0.11924,0.174978 -0.22437,0.155575 -0.73131,-0.132997 -1.76283,0.491773 -2.48391,1.12113 -0.0367,0.0318 -0.0818,0.0476 -0.127,0.0476"
       style="fill:#3b3a3c;fill-opacity:1;fill-rule:nonzero;stroke:none;stroke-width:0.03527778"
       id="path30"
       inkscape:connector-curvature="0" />
    <path
       d="m 133.2815,26.241195 -0.69285,-0.544337 2.53792,-1.199444 1.19366,-0.60713 0.0234,-0.01305 0.7688,-0.485775 0.0549,-0.0448 c 0.19692,0.728839 0.3011,2.079272 -1.15756,3.046236 l -2.72825,-0.151694"
       style="fill:#646668;fill-opacity:1;fill-rule:nonzero;stroke:none;stroke-width:0.03527778"
       id="path32"
       inkscape:connector-curvature="0" />
    <path
       d="m 137.2384,22.702128 -0.2807,0.4445 -0.76881,0.485775 -1.19366,0.606778 -2.95395,1.395941 1.13302,0.890411 2.91345,0.161925 c 2.40756,-1.51765 1.15065,-3.98533 1.15065,-3.98533 z m -0.27407,1.125714 c 0.0124,0.09772 0.0207,0.20073 0.0224,0.307269 0.0131,0.800806 -0.34297,1.4605 -1.05901,1.963209 l -2.53904,-0.141112 -0.25273,-0.198613 2.10675,-0.995539 0.015,-0.0074 1.1938,-0.60713 0.0467,-0.02646 0.46605,-0.294217"
       style="fill:#3b3a3c;fill-opacity:1;fill-rule:nonzero;stroke:none;stroke-width:0.03527778"
       id="path34"
       inkscape:connector-curvature="0" />
    <path
       d="m 132.88424,24.38382 c 0.0311,-0.437445 0.12319,-0.909461 0.45184,-1.199798 0.37098,-0.32773 0.93116,-0.323497 1.41206,-0.206022 0.48094,0.117122 0.94411,0.328789 1.43856,0.354895 0.49431,0.02646 0.87545,-0.659342 1.19655,-0.678745 0.34657,0.242006 -0.68516,1.628422 -1.37749,2.156884 -0.69218,0.528108 -1.57427,0.802216 -2.44394,0.759177 l -0.67758,-1.186391"
       style="fill:#d4c1ba;fill-opacity:1;fill-rule:nonzero;stroke:none;stroke-width:0.03527778"
       id="path36"
       inkscape:connector-curvature="0" />
    <path
       d="m 127.56982,74.251078 c -3.34119,0 -5.95919,-0.90551 -7.56708,-1.6655 -1.74777,-0.82545 -2.71583,-1.66328 -2.72535,-1.67185 l -1.17849,-1.02965 0.68379,2.35685 c -3.63185,-2.26619 -6.03183,-8.24757 -6.05758,-8.31287 l -0.45283,-1.14473 -0.53441,1.52714 c -0.88567,-1.3673 -1.52687,-2.88177 -1.90969,-4.51337 -0.36339,-1.54905 -0.49692,-3.20767 -0.39673,-4.93021 0.1717,-2.95049 0.98061,-5.09101 0.98874,-5.11239 l 0.7338,-1.91547 -2.22374,2.13473 c 0.23937,-4.92965 3.79803,-10.59794 3.83645,-10.65862 l 1.01713,-1.60373 -2.13664,1.2566 c 1.32927,-4.908552 8.03452,-9.382127 8.10659,-9.4294 l 0.20602,-0.136172 v -0.246944 c 0,-1.262592 1.15976,-2.511778 2.13279,-3.337631 0.39441,-0.334433 0.79139,-0.628297 1.13951,-0.868186 -0.043,0.365831 0.0245,0.583495 0.0493,0.6477 l 0.22214,0.57785 0.48796,-0.380647 c 2.03649,-1.588558 3.51745,-2.250722 4.45397,-2.523067 l -0.007,0.01411 -0.47544,0.950736 1.01783,-0.306563 c 1.78993,-0.539045 3.17059,-0.865011 4.05818,-1.05022 l -1.14018,1.50495 1.0655,-0.122414 c 0.17857,-0.02046 0.36696,-0.03104 0.56003,-0.03104 1.31685,0 2.67723,0.473075 3.54087,0.843491 l -1.5543,0.633237 1.50357,0.296333 c 1.59907,0.315383 2.37077,1.283405 2.72426,1.963914 l -0.0357,0.0018 -1.1049,0.07338 0.67109,0.587375 c -0.0558,-0.01482 -0.11505,-0.02822 -0.17763,-0.03951 -0.21057,-0.03845 -0.39631,-0.0575 -0.55216,-0.0575 -0.31669,0 -0.5406,0.08149 -0.66573,0.242358 l -0.0535,0.06879 -1.39651,4.746977 -3.06765,2.253893 0.6991,5.35986 c 0.009,0.413 0.26582,3.41602 5.52193,7.49931 0.2257,0.1754 0.44771,0.33197 0.66241,0.48327 0.90015,0.635 1.67763,1.18333 2.34625,2.83986 0.54145,1.34109 0.11755,3.22101 0.11314,3.23991 l -0.0649,0.2811 0.22532,0.18013 c 0.75046,0.60025 1.73761,1.32344 2.17858,1.35914 1.07915,0.0875 1.75542,0.51072 2.14665,0.87701 l -0.88547,0.0984 0.23354,0.56374 c 1.14406,2.76257 1.3215,4.96672 0.52846,6.55066 -0.774,1.54587 -2.21968,1.93047 -2.2345,1.93393 l -0.12417,0.0318 -0.09,0.0917 c -0.0159,0.0163 -1.61368,1.63544 -4.09593,3.29752 -2.27295,1.52175 -5.77592,3.39326 -9.55657,3.66777 -0.46355,0.0335 -0.93127,0.0504 -1.39002,0.0504"
       style="fill:#d4c1ba;fill-opacity:1;fill-rule:nonzero;stroke:none;stroke-width:0.03527778"
       id="path38"
       inkscape:connector-curvature="0" />
    <path
       d="m 132.11886,22.213178 c 0,0 -1.91188,0.265994 -5.27043,1.277408 0,0 0.24281,-0.485422 0.8902,-0.849489 0,0 -0.0697,-0.01305 -0.20959,-0.01305 -0.60635,0 -2.5316,0.240241 -5.8196,2.804936 0,0 -0.20228,-0.525992 0.40474,-1.577975 0,0 -4.61299,2.508602 -4.61299,5.300486 0,0 -7.85014,5.179483 -8.49754,10.723314 l 1.37584,-0.8092 c 0,0 -4.2084,6.63596 -3.90482,11.97722 l 1.51736,-1.45658 c 0,0 -3.3383,8.67957 1.88158,15.72038 l 0.42499,-1.21391 c 0,0 2.85266,7.22272 7.22284,9.04379 l -0.54624,-1.8817 c 0,0 3.92878,3.45088 10.59448,3.45088 0.4615,0 0.93595,-0.0165 1.42339,-0.0518 7.52641,-0.54611 13.947,-7.10146 13.947,-7.10146 0,0 5.2331,-1.3353 2.01612,-9.10456 l 1.09255,-0.12125 c 0,0 -0.72813,-1.5175 -2.97391,-1.69954 -0.3937,-0.032 -1.92913,-1.26023 -1.92913,-1.26023 0,0 0.467,-2.02406 -0.13476,-3.51465 -0.88484,-2.19206 -1.99073,-2.61098 -3.15253,-3.5136 -5.4259,-4.21513 -5.34487,-7.16897 -5.34487,-7.16897 l -0.66766,-5.11884 2.97409,-2.184752 1.41566,-4.812594 c 0,0 0.051,-0.06526 0.30371,-0.06526 0.11243,0 0.26472,0.0127 0.47004,0.05009 0.66781,0.121356 0.75117,0.477661 0.75117,0.477661 0,0 0.29654,-0.809272 -0.0271,-1.092553 0,0 0.0495,-0.0035 0.12319,-0.0035 0.18397,0 0.51841,0.02081 0.60508,0.165453 0,0 -0.48563,-2.468386 -3.3584,-3.034948 l 1.09251,-0.445205 c 0,0 -2.37299,-1.336322 -4.67155,-1.336675 -0.20546,0 -0.40982,0.01058 -0.61228,0.03387 l 1.20689,-1.593144 m -2.2043,1.391003 -1.02898,1.358194 2.13084,-0.244475 c 0.16151,-0.0187 0.33225,-0.02822 0.50783,-0.02787 0.78175,0 1.58693,0.180269 2.28173,0.402167 l -1.88736,0.769054 3.00718,0.593019 c 0.83496,0.164748 1.50358,0.536928 1.99111,1.108075 l -1.45425,0.09701 0.55838,0.488597 c -0.21248,0.06809 -0.3828,0.183798 -0.50917,0.346075 l -0.10707,0.137584 -0.0492,0.167216 -1.32828,4.51485 -2.72453,2.002014 -0.43657,0.320674 0.07,0.53728 0.66076,5.06568 c 0.009,0.2945 0.0985,1.12684 0.74044,2.36128 0.93472,1.79737 2.60283,3.63651 4.95815,5.46626 0.23414,0.18189 0.46055,0.34163 0.67938,0.49597 0.87574,0.61764 1.56725,1.10547 2.18542,2.63673 0.40129,0.99385 0.20176,2.47855 0.0915,2.96513 l -0.12968,0.56208 0.4505,0.36037 c 0.0164,0.0131 0.40764,0.32565 0.85478,0.64685 0.89345,0.64177 1.26457,0.78617 1.5729,0.81125 0.26176,0.0212 0.496,0.0646 0.70449,0.1228 l -0.0632,0.007 0.46708,1.12794 c 0.60219,1.45479 0.92922,2.76073 0.9712,3.88218 0.0325,0.8697 -0.10689,1.62913 -0.41452,2.25778 -0.64946,1.32831 -1.85631,1.69693 -1.95544,1.72547 l -0.23918,0.056 -0.18627,0.19019 c -0.0152,0.0156 -1.56722,1.58997 -4.00646,3.22583 -1.42847,0.95776 -2.86964,1.742 -4.28322,2.33042 -1.74487,0.72678 -3.4502,1.15465 -5.06829,1.2722 -0.45254,0.0328 -0.90911,0.0493 -1.35696,0.0493 -1.4297,0 -2.84275,-0.16826 -4.20013,-0.50064 -1.08822,-0.26624 -2.14408,-0.63845 -3.13807,-1.10519 -1.70063,-0.79913 -2.64347,-1.61052 -2.65105,-1.61687 l -2.37187,-2.10562 0.75004,2.583 c -0.98157,-0.86364 -1.95873,-2.0665 -2.89179,-3.5687 -1.20689,-1.94306 -1.90831,-3.7017 -1.91509,-3.71866 l -0.90508,-2.29168 -0.61818,1.76639 c -0.60248,-1.0939 -1.05448,-2.27362 -1.34979,-3.52531 -0.3543,-1.50178 -0.4859,-3.11217 -0.39109,-4.78635 0.16343,-2.88586 0.95305,-4.98365 0.96063,-5.00337 l 1.47727,-3.84086 -2.81259,2.69998 c 0.23881,-1.59092 0.78852,-3.39563 1.62967,-5.33051 0.97429,-2.24084 2.00147,-3.87145 2.01153,-3.88747 l 2.03411,-3.20738 -2.67698,1.57445 c 0.67938,-1.5173 1.89632,-3.147843 3.60151,-4.810485 1.95915,-1.909939 3.87477,-3.183466 3.89364,-3.195814 l 0.41205,-0.271991 v -0.493889 c 0,-0.845609 0.69589,-1.903236 1.95957,-2.97815 0.16217,-0.137936 0.32494,-0.268817 0.48436,-0.391584 l 0.43533,1.131712 0.97593,-0.761295 c 1.1654,-0.909108 2.25227,-1.594555 3.23811,-2.043289 l -0.43448,0.869245 2.03577,-0.613128 c 1.09594,-0.3302 2.03631,-0.579614 2.80155,-0.764822"
       style="fill:#3b3a3c;fill-opacity:1;fill-rule:nonzero;stroke:none;stroke-width:0.03527778"
       id="path40"
       inkscape:connector-curvature="0" />
    <path
       d="m 128.67666,74.678268 c 0.10488,-0.006 0.21029,-0.0127 0.31641,-0.0204 v 0 0 c -0.10612,0.008 -0.21153,0.0145 -0.31641,0.0204 m 0.33899,-0.0222 c 0.001,0 0.002,0 0.003,0 -0.001,0 -0.002,0 -0.003,0 m 0.0228,-0.001 c 5.5e-4,0 10e-4,-5.3e-4 0.002,-5.3e-4 -5.6e-4,0 -0.001,0 -0.002,5.3e-4"
       style="fill:#cec5c0;fill-opacity:1;fill-rule:nonzero;stroke:none;stroke-width:0.03527778"
       id="path42"
       inkscape:connector-curvature="0" />
    <path
       d="m 127.56968,73.792468 c -1.4297,0 -2.84275,-0.16826 -4.20014,-0.50065 -1.08821,-0.26623 -2.14407,-0.63844 -3.13806,-1.10518 -1.70064,-0.79913 -2.64347,-1.61052 -2.65106,-1.61687 l -2.37186,-2.10563 0.75004,2.58301 c -0.98157,-0.86364 -1.95873,-2.0665 -2.89179,-3.5687 -1.20689,-1.94307 -1.90832,-3.7017 -1.91509,-3.71867 l -0.90509,-2.29168 -0.61818,1.7664 c -0.60248,-1.0939 -1.05447,-2.27362 -1.34979,-3.52531 -0.35429,-1.50178 -0.48589,-3.11217 -0.39108,-4.78635 0.16343,-2.88586 0.95305,-4.98366 0.96063,-5.00338 l 1.47727,-3.84086 -2.81259,2.69998 c 0.23881,-1.59092 0.78851,-3.39563 1.62967,-5.33051 0.97429,-2.24084 2.00147,-3.87145 2.01152,-3.88747 l 1.66289,-2.62212 c -0.32205,0.94509 -0.46302,1.93745 -0.36078,2.94996 0.17885,1.77038 1.08507,3.4731 0.86815,5.23917 -0.30717,2.5024 -2.75897,4.30802 -3.16795,6.79581 -0.37263,2.26645 1.05114,4.43561 2.65272,6.08224 1.60154,1.64648 3.49567,3.11009 4.47696,5.18693 0.76041,1.60926 0.90247,3.45821 1.67626,5.06169 1.48057,3.06695 4.96312,4.63791 8.30668,5.28628 0.43695,0.0848 0.87616,0.15806 1.31699,0.22407 -0.34012,0.0186 -0.68062,0.0278 -1.01632,0.0278 m -17.05846,-35.86476 c 0.55093,-1.23049 1.45535,-2.535065 2.68689,-3.871387 0.27288,0.170744 0.5847,0.301625 0.93529,0.391583 -0.46055,0.635 -0.84942,1.311984 -1.13965,2.019654 l -2.48253,1.46015"
       style="fill:#b09c94;fill-opacity:1;fill-rule:nonzero;stroke:none;stroke-width:0.03527778"
       id="path44"
       inkscape:connector-curvature="0" />
    <path
       d="m 127.56968,74.709688 c -6.3664,0 -10.2362,-3.14786 -10.57077,-3.43035 -0.0159,-0.0135 -0.0237,-0.0205 -0.0237,-0.0205 v 0 0 l 0.54624,1.8817 c -4.37018,-1.8211 -7.22284,-9.04382 -7.22284,-9.04382 l -0.42499,1.21391 c -2.29127,-3.09065 -2.93357,-6.49718 -2.93302,-9.34653 6.9e-4,-3.64187 1.05144,-6.37385 1.05144,-6.37385 v 0 0 l -1.51736,1.45658 c -0.0108,-0.18767 -0.0159,-0.37701 -0.0157,-0.56775 0.003,-5.23184 3.92053,-11.40947 3.92053,-11.40947 v 0 0 l -1.37584,0.8092 c 0.27189,-2.32756 1.81364,-4.591333 3.51082,-6.433891 0.19032,0.241653 0.41853,0.445558 0.68364,0.611364 -1.23154,1.336322 -2.13596,2.640897 -2.68689,3.871387 l 2.48253,-1.46015 c -0.0638,0.15557 -0.12291,0.31291 -0.17678,0.47096 l -1.66289,2.62212 c -0.01,0.016 -1.03723,1.64663 -2.01152,3.88747 -0.84116,1.93488 -1.39086,3.73959 -1.62967,5.33051 l 2.81259,-2.69998 -1.47727,3.84086 c -0.008,0.0197 -0.7972,2.11752 -0.96063,5.00338 -0.0948,1.67418 0.0368,3.28457 0.39108,4.78635 0.29532,1.25169 0.74731,2.43141 1.34979,3.52531 l 0.61818,-1.7664 0.90509,2.29168 c 0.007,0.017 0.7082,1.7756 1.91509,3.71867 0.93306,1.5022 1.91022,2.70506 2.89179,3.5687 l -0.75004,-2.58301 2.37186,2.10563 c 0.008,0.006 0.95042,0.81774 2.65106,1.61687 0.99399,0.46674 2.04985,0.83895 3.13806,1.10518 1.35739,0.33239 2.77044,0.50065 4.20014,0.50065 0.3357,0 0.6762,-0.009 1.01632,-0.0278 1.07939,0.16151 2.16806,0.27864 3.25271,0.40817 -0.90773,0.23951 -1.84411,0.40914 -2.79865,0.48149 -4.3e-4,0 -10e-4,5.3e-4 -0.002,5.3e-4 -0.007,2.6e-4 -0.013,7.9e-4 -0.0194,10e-4 -10e-4,0 -0.002,0 -0.003,0 -0.008,8e-4 -0.015,0.001 -0.0226,0.002 v 0 c -0.10612,0.008 -0.21153,0.0145 -0.31641,0.0204 -0.37691,0.0215 -0.74595,0.0314 -1.10698,0.0314"
       style="fill:#3e3a3a;fill-opacity:1;fill-rule:nonzero;stroke:none;stroke-width:0.03527778"
       id="path46"
       inkscape:connector-curvature="0" />
    <path
       d="m 127.73863,22.641097 c -0.002,-7.06e-4 -0.0639,-0.01164 -0.18602,-0.0127 0.12209,0.0011 0.18397,0.01199 0.18602,0.0127"
       style="fill:#cec5c0;fill-opacity:1;fill-rule:nonzero;stroke:none;stroke-width:0.03527778"
       id="path48"
       inkscape:connector-curvature="0" />
    <path
       d="m 117.41656,31.281683 -0.42277,-0.631472 c 0.60992,-0.461433 1.00404,-0.723194 1.01258,-0.728839 l 0.41204,-0.271991 v -0.493889 c 0,-0.845609 0.69589,-1.903236 1.95958,-2.97815 0.16217,-0.137936 0.32494,-0.268817 0.48436,-0.391584 l 0.43533,1.131712 0.97592,-0.761295 c 1.16541,-0.909108 2.25228,-1.594555 3.23812,-2.043289 l -0.43449,0.869245 2.03578,-0.613128 c 0.46179,-0.139347 0.89584,-0.263878 1.30087,-0.375708 -1.38508,0.967669 -3.38543,1.631597 -4.64704,2.420055 -2.5032,1.56457 -4.11759,3.123142 -6.35028,4.868333"
       style="fill:#b09c94;fill-opacity:1;fill-rule:nonzero;stroke:none;stroke-width:0.03527778"
       id="path50"
       inkscape:connector-curvature="0" />
    <path
       d="m 116.99379,30.650211 -0.51153,-0.764116 c 0.62234,-0.468842 1.01893,-0.730603 1.01893,-0.730603 0,-2.791884 4.61299,-5.300486 4.61299,-5.300486 -0.3641,0.630766 -0.43698,1.072444 -0.43712,1.325033 0,0.168628 0.0324,0.252942 0.0324,0.252942 3.28771,-2.564695 5.2131,-2.804936 5.8196,-2.804936 0.008,0 0.0158,0 0.0236,3.52e-4 0.12209,0.0011 0.18397,0.01199 0.18602,0.0127 v 0 c -0.64739,0.364066 -0.8902,0.849488 -0.8902,0.849488 v 0 0 c 0.98749,-0.297391 1.89342,-0.468136 2.68192,-0.562327 -0.27407,0.397933 -0.66227,0.747889 -1.11647,1.065036 -0.40503,0.11183 -0.83908,0.236361 -1.30087,0.375708 l -2.03578,0.613129 0.43448,-0.869245 c -0.98583,0.448734 -2.07271,1.134181 -3.23811,2.043289 l -0.97592,0.761295 -0.43533,-1.131712 c -0.15942,0.122767 -0.32219,0.253648 -0.48436,0.391584 -1.26369,1.074914 -1.95958,2.132541 -1.95958,2.97815 v 0.493889 l -0.41204,0.271991 c -0.008,0.0056 -0.40266,0.267406 -1.01258,0.728839"
       style="fill:#3e3a3a;fill-opacity:1;fill-rule:nonzero;stroke:none;stroke-width:0.03527778"
       id="path52"
       inkscape:connector-curvature="0" />
    <path
       d="m 112.77245,28.158189 c 0,0 -2.56452,6.178197 2.73167,6.125281 0.81223,-0.0081 1.73002,-0.741539 1.6771,-2.789414 l -1.43002,-2.13607 -1.67707,-0.88265 -0.8297,-0.317853 -0.47198,7.15e-4"
       style="fill:#646668;fill-opacity:1;fill-rule:nonzero;stroke:none;stroke-width:0.03527778"
       id="path54"
       inkscape:connector-curvature="0" />
    <path
       d="m 112.9892,28.471808 c -0.24927,0.691445 -0.99974,3.073048 -0.0774,4.452762 0.46373,0.693561 1.31314,1.045633 2.52483,1.045633 h 5.5e-4 l 0.0638,-7.15e-4 c 0.20599,-0.0018 0.51016,-0.06491 0.78934,-0.354541 0.27365,-0.283634 0.59242,-0.863953 0.57891,-2.022828 l -1.33448,-1.993547 -1.59026,-0.836789 -0.75794,-0.290336 -0.19734,3.44e-4 m 2.44796,6.125633 h -5.6e-4 c -1.43492,0 -2.4602,-0.445911 -3.04736,-1.325386 -1.26753,-1.89865 0.0372,-5.098697 0.0934,-5.234164 0.0485,-0.11677 0.16259,-0.19297 0.28924,-0.193322 l 0.47198,-7.15e-4 h 5.6e-4 c 0.0383,0 0.0763,0.0071 0.11214,0.02081 l 0.82974,0.3175 0.0339,0.01552 1.67721,0.88265 c 0.046,0.02434 0.0854,0.05962 0.11451,0.103011 l 1.42999,2.13607 c 0.0331,0.04974 0.0514,0.107244 0.0529,0.166511 0.0372,1.436511 -0.38887,2.187575 -0.75283,2.564694 -0.33553,0.347839 -0.77403,0.541867 -1.23486,0.546453 l -0.07,3.44e-4"
       style="fill:#3b3a3c;fill-opacity:1;fill-rule:nonzero;stroke:none;stroke-width:0.03527778"
       id="path56"
       inkscape:connector-curvature="0" />
    <path
       d="m 121.40118,58.972198 c -1.67213,-0.53756 -1.91106,-2.56798 -1.91106,-2.56798 -1.01523,0.74652 -1.40342,1.94085 -1.40342,1.94085 -1.2839,-2.3887 -0.38817,-4.68796 -0.38817,-4.68796 l 3.8818,0.40806 c 0.0353,0.008 0.0719,0.0117 0.10967,0.0117 0.92467,0 2.62255,-2.24208 4.68796,-2.26124 0.006,0 0.0124,0 0.0186,0 1.04154,0 1.47659,0.81196 1.59385,0.99551 0.45777,0.71656 1.09485,1.03505 1.59258,1.31381 0.1935,0.1083 0.63998,0.14153 1.11333,0.14153 0.74387,0 1.55417,-0.0819 1.55417,-0.0819 -0.17914,0.65694 -1.55279,1.09488 -1.55279,1.09488 l 1.15468,0.59721 c -0.5176,0.79626 -2.38884,1.11485 -2.38884,1.11485 0.0796,0.2388 0.59708,1.11471 0.59708,1.11471 -2.0603,-0.11934 -3.22489,-2.4784 -3.22489,-2.4784 -0.1524,-0.0215 -0.29266,-0.0316 -0.42248,-0.0316 -2.03165,0 -1.39898,2.48035 -1.39898,2.48035 -0.32783,0.069 -0.62205,0.0984 -0.88526,0.0984 -1.43908,0 -1.95146,-0.87493 -1.95146,-0.87493 -0.50765,0.29849 -0.77636,1.6721 -0.77636,1.6721"
       style="fill:#b6a59f;fill-opacity:1;fill-rule:nonzero;stroke:none;stroke-width:0.03527778"
       id="path58"
       inkscape:connector-curvature="0" />
    <path
       d="m 116.42688,33.140117 c -0.15491,0 -0.32826,-0.02469 -0.49915,-0.1143 -1.05103,-0.550686 -1.30732,-1.249892 -1.7261,-2.360436 -0.27411,-0.72637 -0.36217,-1.521178 -0.87246,-2.139245 l 0.61532,0.235656 1.59025,0.836789 1.33448,1.993547 c 0.008,0.706261 -0.10692,1.19768 -0.26003,1.538111 -0.0567,0.0056 -0.11783,0.0099 -0.18231,0.0099"
       style="fill:#454545;fill-opacity:1;fill-rule:nonzero;stroke:none;stroke-width:0.03527778"
       id="path60"
       inkscape:connector-curvature="0" />
    <path
       d="m 116.60919,33.130239 c 0.15311,-0.340431 0.26815,-0.83185 0.26003,-1.538111 l -1.33448,-1.993547 -1.59025,-0.836789 -0.61532,-0.235656 c -0.13751,-0.166511 -0.30579,-0.320322 -0.51675,-0.456494 0.0256,-0.06773 0.0411,-0.104422 0.0411,-0.104422 l 0.47184,-7.15e-4 0.8297,0.317853 1.67707,0.88265 1.31865,2.083505 c 0.0275,1.059039 0.0382,1.356784 -0.24846,1.853848 -0.007,-7.15e-4 -0.014,-0.0011 -0.0218,-0.0011 -0.0478,0 -0.11286,0.0099 -0.19018,0.0194 -0.0258,0.0035 -0.0529,0.0067 -0.0811,0.0095"
       style="fill:#2e2d2e;fill-opacity:1;fill-rule:nonzero;stroke:none;stroke-width:0.03527778"
       id="path62"
       inkscape:connector-curvature="0" />
    <path
       d="m 117.58208,52.716078 c 0,0 -0.91048,2.33686 0.39451,4.76468 0,0 0.39455,-1.21391 1.42643,-1.97266 0,0 0.24281,2.06361 1.94236,2.61013 0,0 0.27312,-1.39622 0.78905,-1.69965 0,0 0.72828,1.24421 2.88297,0.78906 0,0 -0.72827,-2.85281 1.85128,-2.4886 0,0 1.1836,2.39751 3.27765,2.5189 0,0 -0.52599,-0.89019 -0.60702,-1.13301 0,0 1.90182,-0.32371 2.42782,-1.13302 l -1.17338,-0.60688 c 0,0 1.39608,-0.4451 1.57812,-1.11277 0,0 -2.20529,0.22253 -2.71113,-0.0608 -0.50575,-0.28318 -1.15316,-0.60689 -1.61851,-1.3353 -0.11991,-0.18757 -0.56667,-1.02154 -1.6389,-1.01163 -2.18504,0.0202 -3.96547,2.4886 -4.87592,2.28629"
       style="fill:#d4c1ba;fill-opacity:1;fill-rule:nonzero;stroke:none;stroke-width:0.03527778"
       id="path64"
       inkscape:connector-curvature="0" />
    <path
       d="m 121.54833,58.462188 -0.28427,-0.0913 c -1.33932,-0.43053 -1.84877,-1.68523 -2.03122,-2.37205 -0.71177,0.68573 -1.00048,1.55431 -1.00362,1.56408 l -0.19212,0.5909 -0.29436,-0.54747 c -1.34744,-2.50681 -0.44701,-4.88654 -0.40802,-4.98673 l 0.49498,0.19251 c -0.008,0.0205 -0.72553,1.93354 0.13698,4.02802 0.23054,-0.44733 0.63832,-1.07488 1.2791,-1.54588 l 0.36767,-0.27036 0.0533,0.45321 c 0.002,0.0174 0.21703,1.67157 1.48812,2.28025 0.12167,-0.47749 0.39014,-1.3002 0.84487,-1.56767 l 0.2293,-0.13491 0.13438,0.22973 c 0.0245,0.04 0.61792,0.97716 2.34223,0.71053 -0.0737,-0.47473 -0.13861,-1.44462 0.40873,-2.05549 0.38862,-0.43367 0.99137,-0.59616 1.79147,-0.48341 l 0.13875,0.0195 0.0622,0.12583 c 0.01,0.0202 0.93818,1.8554 2.53161,2.28604 -0.14747,-0.26363 -0.30428,-0.55838 -0.35102,-0.69854 l -0.098,-0.29379 0.30537,-0.052 c 0.4301,-0.0736 1.51585,-0.3441 2.04639,-0.79266 l -1.43838,-0.74397 0.61034,-0.1946 c 0.27559,-0.0882 0.76412,-0.29767 1.08849,-0.54613 -0.73476,0.0494 -1.86944,0.082 -2.27058,-0.14273 -0.0351,-0.0196 -0.0711,-0.0396 -0.10749,-0.0597 -0.50617,-0.28085 -1.13619,-0.63031 -1.60514,-1.36427 l -0.0269,-0.0431 c -0.144,-0.23357 -0.52571,-0.85344 -1.38575,-0.84599 -1.16914,0.0109 -2.25142,0.80091 -3.12099,1.43577 -0.73201,0.53442 -1.31021,0.95624 -1.815,0.84419 l 0.11522,-0.5184 c 0.27089,0.0606 0.83795,-0.35416 1.38669,-0.75477 0.93102,-0.67952 2.08954,-1.52534 3.42911,-1.53776 0.76867,-0.005 1.38906,0.36245 1.84273,1.0983 l 0.0223,0.0358 c 0.39663,0.62067 0.93776,0.92092 1.41542,1.18579 0.0369,0.0205 0.0734,0.0408 0.10926,0.0608 0.2982,0.16701 1.67336,0.11698 2.5546,0.0281 l 0.38463,-0.0387 -0.1017,0.37289 c -0.13466,0.49322 -0.73149,0.8588 -1.1949,1.0746 l 0.91638,0.47406 -0.1597,0.24581 c -0.44747,0.68834 -1.65958,1.04264 -2.26745,1.18142 0.12901,0.2461 0.32082,0.58209 0.45258,0.8049 l 0.2534,0.42898 -0.49745,-0.0289 c -1.95668,-0.11342 -3.14138,-2.01316 -3.43175,-2.53697 -0.54501,-0.0541 -0.94463,0.0555 -1.1884,0.32699 -0.5424,0.60403 -0.23912,1.83695 -0.23594,1.84933 l 0.0675,0.26776 -0.27009,0.0572 c -1.70586,0.36064 -2.59898,-0.27531 -2.96443,-0.65814 -0.22186,0.31019 -0.41754,0.93059 -0.50203,1.35985 l -0.0575,0.29323"
       style="fill:#3b3a3c;fill-opacity:1;fill-rule:nonzero;stroke:none;stroke-width:0.03527778"
       id="path66"
       inkscape:connector-curvature="0" />
    <path
       d="m 139.05672,56.322518 -0.0785,-0.001 c -0.87658,-0.0267 -1.71249,-0.49735 -2.48475,-1.39859 -0.0954,-0.11148 -0.0824,-0.27905 0.0289,-0.3744 0.11137,-0.0954 0.27908,-0.0825 0.37444,0.0289 0.67081,0.78303 1.37664,1.19119 2.09765,1.21338 l 0.0619,8e-4 c 0.94947,0 1.60814,-0.6682 1.61477,-0.67522 0.10213,-0.1053 0.27023,-0.10792 0.37553,-0.006 0.10527,0.10195 0.10802,0.27009 0.006,0.3755 -0.0338,0.0349 -0.82447,0.83675 -1.9958,0.83675"
       style="fill:#3b3a3c;fill-opacity:1;fill-rule:nonzero;stroke:none;stroke-width:0.03527778"
       id="path68"
       inkscape:connector-curvature="0" />
    <path
       d="m 136.47898,54.567308 c -0.81884,0.72058 -0.74856,1.71979 -0.74856,1.71979 -0.34396,-0.32385 -0.34396,-1.61865 -0.34396,-1.61865 -0.87009,1.2948 -1.61865,1.21391 -1.61865,1.21391 0.28335,-0.32367 0.4046,-1.19362 0.4046,-1.19362 -0.89006,0.46535 -1.21377,-0.26307 -1.21377,-0.26307 0.54624,0.14164 0.89006,-0.61711 0.89006,-0.61711 -0.15169,-2.30643 2.00314,-2.21534 2.00314,-2.21534 0,0 1.41619,-0.081 1.39595,1.6994 0,0 -0.26293,0.82959 -0.76881,1.27469"
       style="fill:#f5f5f5;fill-opacity:1;fill-rule:nonzero;stroke:none;stroke-width:0.03527778"
       id="path70"
       inkscape:connector-curvature="0" />
    <path
       d="m 134.17241,54.519758 c 0.0343,0 0.0684,0.0103 0.0974,0.0308 0.0517,0.0365 0.0787,0.0988 0.07,0.1615 -0.01,0.0696 -0.08,0.54444 -0.24017,0.92932 0.26952,-0.10982 0.68749,-0.38389 1.14653,-1.06715 0.0415,-0.0617 0.11835,-0.089 0.18947,-0.0674 0.0711,0.0217 0.11974,0.0874 0.11974,0.16164 1.4e-4,0.2799 0.0276,0.64837 0.0859,0.9543 0.0948,-0.36008 0.29739,-0.80504 0.72608,-1.18237 0.41879,-0.36847 0.66601,-1.04302 0.71177,-1.17588 0.002,-0.51907 -0.12637,-0.91239 -0.38047,-1.16924 -0.31394,-0.31765 -0.73727,-0.33363 -0.81898,-0.33363 l -0.0189,2.7e-4 -0.0162,1.4e-4 -0.0257,-5.3e-4 c -0.14495,0 -0.89256,0.0262 -1.37597,0.54254 -0.32466,0.34671 -0.46785,0.84913 -0.42552,1.49337 l -0.0146,0.0809 c -0.0119,0.0259 -0.2588,0.55961 -0.69607,0.70015 0.0781,0.0541 0.18204,0.0965 0.31532,0.0965 v 0 c 0.14055,0 0.29944,-0.0457 0.47208,-0.13617 l 0.0783,-0.0192 m 1.55801,1.93629 c -0.0422,0 -0.0838,-0.0158 -0.11589,-0.0459 -0.24997,-0.23534 -0.343,-0.82159 -0.37729,-1.25744 -0.68337,0.82793 -1.26422,0.89972 -1.44254,0.89972 l -0.0449,-0.002 c -0.062,-0.008 -0.11618,-0.0495 -0.13822,-0.10788 -0.0222,-0.0583 -0.012,-0.12432 0.0292,-0.17131 0.14291,-0.16344 0.24832,-0.5268 0.30991,-0.80892 -0.11356,0.0338 -0.22338,0.0507 -0.32854,0.0509 h -2.5e-4 c -0.58071,0 -0.80835,-0.49762 -0.81774,-0.51882 -0.0263,-0.0593 -0.0164,-0.12831 0.0255,-0.17791 0.0419,-0.0494 0.10859,-0.0707 0.17128,-0.0542 l 0.093,0.0121 c 0.27065,0 0.49759,-0.33264 0.5836,-0.49981 -0.039,-0.72003 0.13546,-1.29216 0.51855,-1.70131 0.57891,-0.61821 1.45341,-0.64946 1.62277,-0.64946 l 0.032,2.6e-4 0.0288,-5.3e-4 c 0.14785,0 0.66118,0.0314 1.05929,0.43395 0.32413,0.32798 0.48493,0.81139 0.47777,1.43715 l -0.008,0.0491 c -0.0113,0.0357 -0.28332,0.87958 -0.81827,1.35033 -0.69604,0.61267 -0.69604,1.44791 -0.69219,1.56682 l 0.002,0.0262 c 0,0.0933 -0.0755,0.16881 -0.16884,0.16895 h -10e-4"
       style="fill:#3b3a3c;fill-opacity:1;fill-rule:nonzero;stroke:none;stroke-width:0.03527778"
       id="path72"
       inkscape:connector-curvature="0" />
    <path
       d="m 121.75587,63.563288 c 0,0 0.9937,-2.90478 2.86646,-4.01313 l -0.1148,1.41428 c 0,0 1.8729,-1.56711 4.89218,-2.21685 l -0.42044,1.29963 c 0,0 2.59899,0.038 3.21056,1.29921 l -0.80271,0.11465 1.41415,1.79642 -2.57404,4.09635 c 0,0 -2.27983,0.91062 -2.54745,2.63042 l -5.92391,-6.42098"
       style="fill:#d4c1ba;fill-opacity:1;fill-rule:nonzero;stroke:none;stroke-width:0.03527778"
       id="path74"
       inkscape:connector-curvature="0" />
    <path
       d="m 128.01383,70.036088 -0.66795,-0.10379 c 0.26239,-1.68656 2.17385,-2.63521 2.65148,-2.84759 l 2.39105,-3.80545 -1.62941,-2.06967 0.79499,-0.11353 c -0.68764,-0.54998 -2.02914,-0.70213 -2.5798,-0.71095 l -0.45684,-0.007 0.37525,-1.16057 c -2.5659,0.68403 -4.15135,1.99248 -4.16814,2.00656 l -0.61888,0.51784 0.1203,-1.48371 c -1.38233,1.21433 -2.14189,3.39051 -2.15029,3.41517 l -0.63955,-0.21897 c 0.0423,-0.12347 1.05653,-3.03607 3.01417,-4.1946 l 0.56169,-0.33224 -0.10816,1.33311 c 0.79883,-0.52917 2.341,-1.39457 4.42485,-1.84284 l 0.57316,-0.12347 -0.46676,1.44279 c 0.82381,0.0765 2.52787,0.36724 3.05883,1.46265 l 0.20204,0.41617 -0.68047,0.0974 1.19873,1.52259 -2.75925,4.39138 -0.10223,0.041 c -0.0207,0.008 -2.10453,0.8618 -2.33881,2.36816"
       style="fill:#3b3a3c;fill-opacity:1;fill-rule:nonzero;stroke:none;stroke-width:0.03527778"
       id="path76"
       inkscape:connector-curvature="0" />
    <path
       d="m 142.28002,62.949768 -0.0303,-0.002 c -0.1457,-0.0167 -0.25047,-0.14831 -0.23389,-0.29393 0.32526,-2.85214 -2.49178,-5.63785 -2.52028,-5.66554 -0.10503,-0.10252 -0.10707,-0.27051 -0.005,-0.37554 0.10223,-0.10498 0.27036,-0.10735 0.37524,-0.005 0.12401,0.12069 3.03202,2.99294 2.67748,6.10581 -0.0155,0.13547 -0.13017,0.23562 -0.26352,0.23562"
       style="fill:#3b3a3c;fill-opacity:1;fill-rule:nonzero;stroke:none;stroke-width:0.03527778"
       id="path78"
       inkscape:connector-curvature="0" />
    <path
       d="m 129.66074,53.191478 c -0.50575,-0.28318 -1.15316,-0.60689 -1.61851,-1.3353 -0.0212,-0.0332 -0.0533,-0.0872 -0.0966,-0.15272 l -1.04662,-0.29242 0.51593,1.69954 -1.18357,0.78906 0.63733,0.8194 c 0,0 1.18361,2.39751 3.27766,2.5189 0,0 -0.52599,-0.89019 -0.60702,-1.13301 0,0 1.90182,-0.32371 2.42781,-1.13302 l -1.17337,-0.60688 c 0,0 1.39608,-0.4451 1.57811,-1.11277 0,0 -2.20528,0.22253 -2.71113,-0.0608"
       style="fill:#f5f5f5;fill-opacity:1;fill-rule:nonzero;stroke:none;stroke-width:0.03527778"
       id="path80"
       inkscape:connector-curvature="0" />
    <path
       d="m 126.44136,53.933688 0.54169,0.69645 0.0155,0.0247 c 0.011,0.0222 1.0644,2.10936 2.87817,2.4077 -0.16567,-0.28829 -0.41674,-0.73769 -0.47473,-0.91172 -0.0134,-0.0403 -0.009,-0.0841 0.0132,-0.12029 0.0218,-0.0363 0.0581,-0.0614 0.0999,-0.0684 0.0172,-0.003 1.636,-0.28593 2.23132,-0.94132 l -1.01921,-0.52726 c -0.0521,-0.0268 -0.0827,-0.0824 -0.0777,-0.14069 0.005,-0.0584 0.0445,-0.10802 0.10018,-0.12594 0.31433,-0.10033 1.07859,-0.4155 1.37598,-0.80768 -0.30664,0.025 -0.83661,0.0609 -1.3334,0.0609 -0.61408,0 -1.00721,-0.0531 -1.20219,-0.16235 -0.0353,-0.0197 -0.0714,-0.0397 -0.10792,-0.0599 -0.49431,-0.27421 -1.10959,-0.61556 -1.56199,-1.32372 l -0.0258,-0.0413 -0.0404,-0.0645 -0.73974,-0.20672 0.43931,1.44695 c 0.0186,0.061 -0.005,0.12704 -0.0583,0.16245 z m 3.70497,3.44911 -0.008,-2.7e-4 c -2.0938,-0.12141 -3.28221,-2.3686 -3.39231,-2.58591 l -0.62854,-0.80808 c -0.0248,-0.0317 -0.0351,-0.0724 -0.0286,-0.11204 0.006,-0.0398 0.0291,-0.075 0.0625,-0.0973 l 1.09417,-0.72951 -0.48464,-1.59661 c -0.0155,-0.0506 -0.002,-0.10541 0.035,-0.14333 0.0369,-0.0378 0.0916,-0.0524 0.14248,-0.0382 l 1.04662,0.29242 c 0.0335,0.009 0.0624,0.0305 0.0817,0.0596 0.0299,0.0451 0.0547,0.0852 0.0743,0.11684 l 0.0236,0.0378 c 0.413,0.64643 0.96849,0.95455 1.45849,1.22643 0.0369,0.0204 0.0732,0.0407 0.10887,0.0605 0.0835,0.0469 0.33253,0.12542 1.0607,0.12542 0.7396,0 1.55691,-0.0816 1.56503,-0.0824 0.0476,-0.005 0.0943,0.014 0.12513,0.0504 0.0309,0.0365 0.0417,0.0857 0.0292,0.13173 -0.14595,0.53495 -0.91021,0.91599 -1.35876,1.09746 l 0.88085,0.45558 c 0.0364,0.0187 0.063,0.0521 0.0734,0.0917 0.0105,0.0394 0.004,0.0816 -0.0185,0.11588 -0.46069,0.70873 -1.84464,1.05668 -2.34474,1.16184 0.1312,0.26899 0.39867,0.73392 0.51939,0.93857 0.018,0.0243 0.0288,0.0541 0.0288,0.0867 0,0.0801 -0.0649,0.14486 -0.14485,0.14486 h -9.5e-4"
       style="fill:#3b3a3c;fill-opacity:1;fill-rule:nonzero;stroke:none;stroke-width:0.03527778"
       id="path82"
       inkscape:connector-curvature="0" />
    <path
       d="m 133.89806,44.386778 c -1.40039,-1.9673 -1.38522,-3.18244 -1.38452,-3.21261 -7.1e-4,0.0302 -0.0153,1.24559 1.38466,3.21247 v 0 m -1.38466,-3.21247 c 0,-2.9e-4 0,-4.2e-4 0,-5.5e-4 0,1.4e-4 0,2.9e-4 0,5.5e-4 m 0,-5.5e-4 v 0 0 0 m -0.66766,-5.11884 v 0 l 2.97409,-2.184755 1.10807,-3.766961 c 0.0568,0.04692 0.11452,0.0956 0.1735,0.145344 l -1.28157,3.621617 -2.97409,2.184755"
       style="fill:#bcb5b4;fill-opacity:1;fill-rule:nonzero;stroke:none;stroke-width:0.03527778"
       id="path84"
       inkscape:connector-curvature="0" />
    <path
       d="m 126.11253,47.329858 c -3.86884,0 -6.48695,-4.07239 -6.48695,-4.07239 l -0.12142,1.21394 c -1.69954,-1.76018 -1.82094,-4.12739 -1.82094,-4.12739 l -0.48549,0.91048 c -0.91045,-2.67067 0.12143,-4.7951 0.12143,-4.7951 l -1.21391,0.78917 c 2.5346,-6.178198 6.11075,-7.923037 9.34392,-7.923037 4.19957,0 7.81981,2.946047 7.81981,2.946047 0.81471,-1.886656 1.35269,-2.50437 1.81776,-2.558697 l -1.05943,3.600802 -2.72454,2.002014 -0.43656,0.320671 0.07,0.53728 0.66076,5.06568 c 0.009,0.2945 0.0985,1.12684 0.74044,2.36128 0.21646,0.41646 0.47237,0.83496 0.76715,1.25526 -2.30314,1.26725 -4.27979,1.54506 -5.57032,1.54492 -1.00694,0 -1.59632,-0.16909 -1.59632,-0.16909 l 0.42485,1.09252 c -0.0841,0.004 -0.16729,0.006 -0.25026,0.006"
       style="fill:#a08f8b;fill-opacity:1;fill-rule:nonzero;stroke:none;stroke-width:0.03527778"
       id="path86"
       inkscape:connector-curvature="0" />
    <path
       d="m 133.10459,44.855868 c -0.29478,-0.4203 -0.55069,-0.8388 -0.76715,-1.25526 -0.64192,-1.23444 -0.73121,-2.06678 -0.74045,-2.36128 l -0.66075,-5.06568 -0.07,-0.53728 0.43656,-0.320671 2.72454,-2.002014 1.05942,-3.600802 c 0.0232,-0.0028 0.0463,-0.0042 0.069,-0.0042 0.26543,0 0.50959,0.177095 0.77227,0.394406 l -1.10807,3.766961 -2.9741,2.18475 0.66767,5.11884 v 0 0 c 0,1.4e-4 0,2.9e-4 0,5.6e-4 v 0 c -7.2e-4,0.0302 -0.0159,1.2453 1.38451,3.2126 -0.26818,0.16965 -0.53305,0.32576 -0.79347,0.46909"
       style="fill:#343334;fill-opacity:1;fill-rule:nonzero;stroke:none;stroke-width:0.03527778"
       id="path88"
       inkscape:connector-curvature="0" />
    <path
       d="m 133.22845,29.714292 c 0,0 -9.63041,-7.688086 -16.92092,6.717246 l 1.21391,-0.78917 c 0,0 -1.03187,2.12443 -0.12139,4.7951 l 0.48546,-0.91049 c 0,0 0.12142,2.36721 1.82097,4.12736 l 0.12139,-1.21391 c 0,0 2.73141,4.24879 6.73735,4.06661 l -0.42485,-1.09251 c 0,0 5.70551,1.6389 11.95726,-5.28066 0,0 4.96379,-0.76863 6.78483,0.081 0,0 0.93733,0.86995 2.4885,-1.05216 1.20297,-1.49119 -1.74696,-2.48849 -1.74696,-2.48849 0,0 -0.22366,-0.32703 -0.33373,-0.39476 -1.59879,-0.980019 -4.72846,-1.212146 -5.66674,-2.589743 -1.18692,-1.741664 -3.76481,-3.894314 -3.4006,-4.703939 0,0 -0.93073,-2.913239 -2.99448,0.728486"
       style="fill:#f5f5f5;fill-opacity:1;fill-rule:nonzero;stroke:none;stroke-width:0.03527778"
       id="path90"
       inkscape:connector-curvature="0" />
    <path
       d="m 119.82787,42.126528 c 0.10512,0 0.20531,0.0531 0.26402,0.14415 0.006,0.01 0.65292,1.00457 1.74998,1.98286 0.95857,0.85478 2.46338,1.86778 4.26516,1.94123 l -0.25922,-0.66654 c -0.0431,-0.11109 -0.0197,-0.23718 0.0608,-0.32523 0.0803,-0.088 0.2038,-0.12319 0.31834,-0.09 0.005,0.001 0.56734,0.15709 1.51046,0.15709 1.97816,0 5.92434,-0.69465 10.12733,-5.34652 0.0482,-0.0535 0.11356,-0.0887 0.18479,-0.0998 0.0851,-0.0132 2.10551,-0.32258 4.05941,-0.32258 1.31798,0 2.29552,0.14443 2.90618,0.42926 0.0328,0.0153 0.0533,0.027 0.0783,0.0521 0.0212,0.0166 0.15487,0.11494 0.38912,0.11494 v 0 c 0.33337,0 0.88935,-0.19636 1.64394,-1.13161 0.19438,-0.24095 0.25788,-0.46284 0.19509,-0.67945 -0.18592,-0.63994 -1.39065,-1.17722 -1.79811,-1.3148 -0.0646,-0.0219 -0.11994,-0.0642 -0.1584,-0.11995 -0.0875,-0.1277 -0.20249,-0.27199 -0.24553,-0.30832 -0.60713,-0.37042 -1.49014,-0.64171 -2.34456,-0.90453 -1.37005,-0.42086 -2.78695,-0.856541 -3.4108,-1.772352 -0.42817,-0.628297 -1.04786,-1.317625 -1.64701,-1.984375 -1.09446,-1.217436 -1.97365,-2.195689 -1.82577,-2.886428 -0.0903,-0.22225 -0.36396,-0.799041 -0.77294,-0.799041 -0.24983,0 -0.79223,0.217311 -1.61685,1.672519 -0.0454,0.07973 -0.12336,0.13582 -0.2136,0.153106 -0.0901,0.01764 -0.18341,-0.0053 -0.25524,-0.06279 -0.0247,-0.0194 -2.52896,-1.980847 -5.8583,-1.980847 -3.87254,0 -7.24034,2.531886 -10.02178,7.529336 l 0.19773,-0.128764 c 0.11811,-0.07655 0.27302,-0.06526 0.37871,0.02787 0.10569,0.09349 0.13614,0.245526 0.0745,0.372526 -0.008,0.0176 -0.78024,1.66264 -0.31185,3.81893 l 0.11687,-0.21918 c 0.0664,-0.12453 0.20754,-0.18945 0.34519,-0.15875 0.13766,0.0307 0.23785,0.14957 0.24515,0.29026 9.5e-4,0.0199 0.11176,1.81737 1.26877,3.37676 l 0.0478,-0.47844 c 0.0132,-0.13286 0.10914,-0.24268 0.23897,-0.27383 z m 6.48698,4.70006 c -1.66042,0 -3.35594,-0.73173 -4.90347,-2.1161 -0.58155,-0.52007 -1.03823,-1.03724 -1.35227,-1.42847 l -0.0404,0.40347 c -0.0121,0.12168 -0.0938,0.22518 -0.2093,0.26529 -0.11536,0.04 -0.24381,0.009 -0.32868,-0.0784 -1.08935,-1.12833 -1.55925,-2.47869 -1.76058,-3.36846 l -0.0433,0.0811 c -0.0588,0.11039 -0.1779,0.1753 -0.30219,0.1651 -0.12456,-0.0101 -0.23138,-0.0931 -0.27174,-0.21138 -0.59037,-1.73196 -0.40404,-3.2355 -0.17212,-4.13826 l -0.45226,0.29422 c -0.11906,0.0773 -0.27506,0.0649 -0.38065,-0.0296 -0.10569,-0.0949 -0.13448,-0.2487 -0.0704,-0.37535 1.63685,-3.234268 3.53095,-5.626807 5.6297,-7.11059 1.71513,-1.213203 3.57149,-1.828095 5.51727,-1.828095 2.91549,0 5.17895,1.365956 5.95919,1.905353 0.69218,-1.134886 1.34316,-1.687336 1.9848,-1.687336 0.96999,0 1.38617,1.267531 1.40338,1.321506 0.0236,0.07373 0.019,0.153458 -0.0128,0.224366 -0.008,0.01799 -0.0668,0.193675 0.36421,0.796925 0.32272,0.451556 0.80257,0.985309 1.31078,1.550811 0.61295,0.68192 1.24686,1.387475 1.6987,2.050698 0.50009,0.733777 1.80992,1.136297 3.07675,1.525763 0.89464,0.274814 1.81927,0.559149 2.49449,0.972959 0.11677,0.0716 0.25682,0.24342 0.36936,0.40005 0.41698,0.15417 1.82139,0.73731 2.10079,1.69933 0.0847,0.28999 0.0995,0.74225 -0.30903,1.24848 -0.73096,0.90583 -1.44851,1.36511 -2.13255,1.36511 v 0 c -0.39934,0 -0.66216,-0.16217 -0.76623,-0.24102 -0.52458,-0.23248 -1.42452,-0.35524 -2.60738,-0.35524 -1.65266,0 -3.40649,0.23509 -3.85449,0.29929 -1.88129,2.06294 -3.90136,3.56983 -6.00561,4.47961 -1.89248,0.81813 -3.4979,0.98997 -4.51143,0.98997 -0.45036,0 -0.82158,-0.0327 -1.09982,-0.0703 l 0.22006,0.56596 c 0.0367,0.0943 0.0256,0.20038 -0.0295,0.28498 -0.0551,0.0847 -0.14774,0.13765 -0.24874,0.1422 -0.0878,0.004 -0.17681,0.006 -0.26458,0.006"
       style="fill:#3b3a3c;fill-opacity:1;fill-rule:nonzero;stroke:none;stroke-width:0.03527778"
       id="path92"
       inkscape:connector-curvature="0" />
    <path
       d="m 129.29762,43.282408 c -1.33918,0 -2.7886,-0.335 -3.92963,-1.25952 -1.61201,-1.30623 -2.43663,-2.83651 -2.67395,-4.96235 -0.0208,-0.18556 0.11286,-0.35278 0.29835,-0.37324 0.18521,-0.0208 0.35264,0.11254 0.37331,0.2981 0.21593,1.93534 0.96477,3.32694 2.42781,4.51234 1.52415,1.23497 3.70142,1.27744 5.23078,0.90537 1.1187,-0.27217 2.16546,-0.75353 3.17789,-1.21888 1.29096,-0.59352 2.62598,-1.20731 4.13177,-1.40243 0.18507,-0.024 0.35458,0.10664 0.37853,0.29171 0.024,0.1851 -0.1065,0.35457 -0.29157,0.37856 -1.40395,0.1819 -2.63398,0.74743 -3.9365,1.3462 -1.0414,0.47886 -2.11833,0.97399 -3.30042,1.26161 -0.56497,0.13737 -1.21168,0.22253 -1.88637,0.22253"
       style="fill:#3b3a3c;fill-opacity:1;fill-rule:nonzero;stroke:none;stroke-width:0.03527778"
       id="path94"
       inkscape:connector-curvature="0" />
    <path
       d="m 121.97237,37.875808 -0.032,-10e-4 c -0.19929,-0.0176 -0.34657,-0.19333 -0.32907,-0.39229 0.0665,-0.75918 0.65743,-1.39348 1.3451,-1.44392 0.6937,-0.0504 1.35654,0.496 1.50922,1.24566 0.04,0.19579 -0.0865,0.38735 -0.2825,0.42686 -0.19611,0.0402 -0.38711,-0.0864 -0.42704,-0.28223 -0.0787,-0.38629 -0.42058,-0.6925 -0.74651,-0.66816 -0.33183,0.0243 -0.64174,0.38383 -0.67688,0.78493 -0.0165,0.18839 -0.17473,0.33056 -0.36036,0.33056"
       style="fill:#3b3a3c;fill-opacity:1;fill-rule:nonzero;stroke:none;stroke-width:0.03527778"
       id="path96"
       inkscape:connector-curvature="0" />
    <path
       d="m 138.32693,44.199238 c -0.10075,0 -0.18563,-0.0781 -0.19251,-0.18013 -0.1717,-2.5317 0.91349,-4.54998 2.02184,-5.16364 0.0933,-0.0515 0.21086,-0.018 0.26254,0.0755 0.0515,0.0935 0.0178,0.2106 -0.0754,0.26246 -1.00419,0.55584 -1.98452,2.42694 -1.82369,4.79965 0.007,0.1064 -0.0732,0.19858 -0.17956,0.20574 l -0.0132,4.2e-4"
       style="fill:#3b3a3c;fill-opacity:1;fill-rule:nonzero;stroke:none;stroke-width:0.03527778"
       id="path98"
       inkscape:connector-curvature="0" />
    <path
       d="m 142.25215,43.875528 c -0.0586,0 -0.11677,-0.0267 -0.15452,-0.0773 -0.8625,-1.14984 -1.20149,-3.66642 -0.65966,-4.89585 0.043,-0.0977 0.15695,-0.14182 0.25453,-0.0988 0.0975,0.043 0.14196,0.15699 0.0989,0.25436 -0.48807,1.10733 -0.16601,3.46695 0.61525,4.5086 0.0639,0.0853 0.0466,0.20631 -0.0388,0.27023 -0.0346,0.0262 -0.0751,0.0387 -0.11571,0.0387"
       style="fill:#3b3a3c;fill-opacity:1;fill-rule:nonzero;stroke:none;stroke-width:0.03527778"
       id="path100"
       inkscape:connector-curvature="0" />
    <path
       d="m 141.37239,67.761338 c -0.67303,-0.45325 -1.45616,-1.46181 -1.26492,-3.68515 0.15766,-1.83198 0.34396,-2.30216 0.49379,-2.30216 0.1579,0 0.27502,0.52215 0.27502,0.52215 l 1.13316,2.99434 0.74648,1.36342 c -0.0222,0.007 -0.0378,0.012 -0.0459,0.0145 l -0.23919,0.056 -0.18626,0.19019 c -0.007,0.007 -0.33126,0.33623 -0.91222,0.84666"
       style="fill:#b6a59f;fill-opacity:1;fill-rule:nonzero;stroke:none;stroke-width:0.03527778"
       id="path102"
       inkscape:connector-curvature="0" />
    <path
       d="m 142.25215,68.122938 c 0,0 -0.41346,-0.0476 -0.87976,-0.3616 0.58096,-0.51043 0.90516,-0.83965 0.91222,-0.84666 l 0.18626,-0.19019 0.23919,-0.056 c 0.008,-0.002 0.0236,-0.007 0.0459,-0.0145 l 0.18415,0.33598 -0.32385,0.84984 -0.36407,0.28318"
       style="fill:#373638;fill-opacity:1;fill-rule:nonzero;stroke:none;stroke-width:0.03527778"
       id="path104"
       inkscape:connector-curvature="0" />
    <path
       d="m 142.24192,63.428908 c 0.0342,-0.16079 0.0593,-0.32177 0.0762,-0.48189 0.11642,-0.0169 0.21167,-0.11039 0.22542,-0.23287 0.23531,-2.06446 -0.96484,-4.02333 -1.83592,-5.14382 2.15872,1.90363 2.47516,5.79798 2.47516,5.79798 l -0.94086,0.0606"
       style="fill:#b6a59f;fill-opacity:1;fill-rule:nonzero;stroke:none;stroke-width:0.03527778"
       id="path106"
       inkscape:connector-curvature="0" />
    <path
       d="m 142.31812,62.947018 c 0.33055,-3.12318 -2.44323,-5.95189 -2.44323,-5.95189 0.30413,0.1585 0.58095,0.35348 0.83273,0.5752 0.87108,1.12049 2.07123,3.07936 1.83592,5.14382 -0.0138,0.12248 -0.109,0.21593 -0.22542,0.23287"
       style="fill:#373638;fill-opacity:1;fill-rule:nonzero;stroke:none;stroke-width:0.03527778"
       id="path108"
       inkscape:connector-curvature="0" />
    <path
       d="m 140.78837,61.470988 c 0,0 -0.5158,6.2519 3.18675,6.70709 3.7024,0.45543 2.39747,-6.88912 2.39747,-6.88912 l -1.42628,1.66938 -1.06221,-2.18517 -1.24425,2.48846 -1.85148,-1.79064"
       style="fill:#f5f5f5;fill-opacity:1;fill-rule:nonzero;stroke:none;stroke-width:0.03527778"
       id="path110"
       inkscape:connector-curvature="0" />
    <path
       d="m 141.00857,62.019878 c -0.0213,1.4792 0.1771,5.57181 2.99583,5.91856 0.0998,0.0124 0.19791,0.0183 0.29104,0.0183 0.51964,0 0.92851,-0.18658 1.2506,-0.57079 1.07738,-1.28513 0.8202,-4.31793 0.66428,-5.53572 l -1.08056,1.26464 c -0.0529,0.0617 -0.1337,0.0929 -0.21414,0.0827 -0.0808,-0.0104 -0.15099,-0.0608 -0.18662,-0.13381 l -0.84808,-1.74473 -1.02517,2.05066 c -0.0346,0.0688 -0.0995,0.11712 -0.17533,0.12979 -0.0759,0.0131 -0.1531,-0.0109 -0.20849,-0.0642 z m 3.28687,6.41989 c -0.11289,0 -0.23037,-0.007 -0.34996,-0.0222 -1.6263,-0.20009 -2.72894,-1.48456 -3.18851,-3.71521 -0.33708,-1.63477 -0.21445,-3.18586 -0.20905,-3.25106 0.008,-0.0932 0.0682,-0.17321 0.15557,-0.20616 0.0872,-0.0328 0.18577,-0.0123 0.25273,0.0523 l 1.61484,1.56171 1.09714,-2.19382 c 0.0409,-0.0823 0.12382,-0.13519 0.21696,-0.13367 0.0921,7.9e-4 0.17568,0.0532 0.2159,0.13614 l 0.90099,1.85346 1.1871,-1.38892 c 0.0607,-0.0713 0.15663,-0.10047 0.24659,-0.0762 0.0903,0.0244 0.15805,0.0988 0.17463,0.19057 0.0335,0.18933 0.8068,4.65804 -0.69427,6.44948 -0.41346,0.4935 -0.9585,0.74362 -1.62066,0.74362"
       style="fill:#3b3a3c;fill-opacity:1;fill-rule:nonzero;stroke:none;stroke-width:0.03527778"
       id="path112"
       inkscape:connector-curvature="0" />
    <path
       d="m 130.9766,54.308088 c -0.27203,-0.13903 -0.54416,-0.27806 -0.81619,-0.41712 -0.16595,-0.0847 -0.31256,0.1651 -0.14623,0.25011 0.27217,0.13907 0.5442,0.2781 0.81623,0.41713 0.16605,0.0848 0.31252,-0.16507 0.14619,-0.25012"
       style="fill:#3b3a3c;fill-opacity:1;fill-rule:nonzero;stroke:none;stroke-width:0.03527778"
       id="path114"
       inkscape:connector-curvature="0" />
    <path
       d="m 129.65865,56.041388 c -0.13765,-0.31485 -0.27534,-0.6296 -0.41299,-0.94435 -0.0747,-0.17074 -0.32414,-0.0232 -0.25012,0.14619 0.13765,0.31475 0.27534,0.6295 0.41299,0.94439 0.0747,0.17074 0.32414,0.0232 0.25012,-0.14623"
       style="fill:#3b3a3c;fill-opacity:1;fill-rule:nonzero;stroke:none;stroke-width:0.03527778"
       id="path116"
       inkscape:connector-curvature="0" />
    <path
       d="m 135.54468,54.657438 c 0.004,-0.28553 0.0788,-0.5559 0.22172,-0.80327 0.10911,-0.18891 -0.18288,-0.35909 -0.29189,-0.17046 -0.17212,0.29806 -0.26306,0.62964 -0.26786,0.97373 -0.003,0.21802 0.335,0.21774 0.33803,0"
       style="fill:#3b3a3c;fill-opacity:1;fill-rule:nonzero;stroke:none;stroke-width:0.03527778"
       id="path118"
       inkscape:connector-curvature="0" />
    <path
       d="m 134.29218,54.835208 c 0.23068,-0.3598 0.35553,-0.77213 0.36999,-1.19877 0.007,-0.21799 -0.33059,-0.21731 -0.33803,0 -0.0124,0.3689 -0.12471,0.71783 -0.32371,1.02831 -0.11797,0.18397 0.17459,0.35331 0.29175,0.17046"
       style="fill:#3b3a3c;fill-opacity:1;fill-rule:nonzero;stroke:none;stroke-width:0.03527778"
       id="path120"
       inkscape:connector-curvature="0" />
    <path
       d="m 132.3107,70.944488 c -0.23979,0 -0.491,-0.0783 -0.75131,-0.26211 -1.76019,-1.24425 -1.89163,-1.9527 -1.89163,-1.9527 0,0 -0.83718,0.21319 -1.37958,0.5726 0.62978,-1.04705 2.04735,-1.62776 2.06446,-1.63435 l 0.10223,-0.041 0.15339,-0.24416 4.07127,0.95716 c 0,0 -0.98778,2.60452 -2.36883,2.60452 m -4.51983,-0.87658 c -0.0222,0 -0.0477,-0.0265 -0.0659,-0.0766 l 0.10834,0.0169 c -0.007,0.0405 -0.0236,0.0597 -0.0424,0.0597"
       style="fill:#b6a59f;fill-opacity:1;fill-rule:nonzero;stroke:none;stroke-width:0.03527778"
       id="path122"
       inkscape:connector-curvature="0" />
    <path
       d="m 127.83331,70.008218 -0.10834,-0.0169 c -0.1065,-0.29312 0.0369,-1.391 2.57366,-2.68111 l 0.30963,0.0726 -0.15339,0.24416 -0.10223,0.041 c -0.0171,0.007 -1.43468,0.5873 -2.06446,1.63435 -0.26786,0.17748 -0.46397,0.39052 -0.45159,0.63154 0.002,0.0299 2.9e-4,0.0547 -0.003,0.0744"
       style="fill:#373638;fill-opacity:1;fill-rule:nonzero;stroke:none;stroke-width:0.03527778"
       id="path124"
       inkscape:connector-curvature="0" />
    <path
       d="m 135.99031,51.724558 c -0.0663,0 -0.12016,-0.0535 -0.12069,-0.11973 -5.2e-4,-0.0667 0.0532,-0.12115 0.11988,-0.12171 0.78796,-0.006 1.56047,-0.44539 1.96811,-1.11979 0.0345,-0.0569 0.10859,-0.0752 0.16563,-0.0408 0.0571,0.0344 0.0754,0.10872 0.0409,0.16563 -0.45004,0.74471 -1.30292,1.22992 -2.17301,1.23638 h -7.9e-4"
       style="fill:#3b3a3c;fill-opacity:1;fill-rule:nonzero;stroke:none;stroke-width:0.03527778"
       id="path126"
       inkscape:connector-curvature="0" />
    <path
       d="m 137.43518,51.072338 c 0.12376,-0.29407 0.15272,-0.62702 0.0816,-0.93789"
       style="fill:#e6e6e4;fill-opacity:1;fill-rule:nonzero;stroke:none;stroke-width:0.03527778"
       id="path128"
       inkscape:connector-curvature="0" />
    <path
       d="m 137.43507,51.217158 -0.0561,-0.0114 c -0.0737,-0.031 -0.10833,-0.11589 -0.0773,-0.18962 0.11204,-0.26624 0.13836,-0.5679 0.074,-0.84942 -0.0179,-0.078 0.0309,-0.15571 0.10887,-0.17349 0.078,-0.0177 0.15572,0.0309 0.1735,0.10886 0.0777,0.34022 0.046,0.70471 -0.0893,1.02637 -0.0234,0.0554 -0.077,0.0887 -0.13367,0.0887"
       style="fill:#3b3a3c;fill-opacity:1;fill-rule:nonzero;stroke:none;stroke-width:0.03527778"
       id="path130"
       inkscape:connector-curvature="0" />
    <path
       d="m 139.3562,56.560508 c -1.58242,-1.4e-4 -2.66019,-1.28528 -2.95289,-1.67845 0.0132,-0.0152 0.0269,-0.0303 0.0408,-0.0453 0.0106,0.0306 0.027,0.0598 0.0493,0.086 0.77226,0.90124 1.60817,1.37185 2.48475,1.39859 l 0.0785,10e-4 c 0.54723,0 1.0112,-0.17501 1.35393,-0.36505 l 0.16206,0.12968 c 0.007,0.005 0.0745,0.0596 0.18274,0.14358 -0.35983,0.16884 -0.70294,0.26543 -1.02775,0.30635 -0.0155,-0.003 -0.0311,-0.004 -0.0467,-0.004 -0.0337,0 -0.0671,0.006 -0.0987,0.0189 -0.0765,0.006 -0.15187,0.009 -0.22612,0.009"
       style="fill:#b6a59f;fill-opacity:1;fill-rule:nonzero;stroke:none;stroke-width:0.03527778"
       id="path132"
       inkscape:connector-curvature="0" />
    <path
       d="m 140.75545,56.230728 c -0.10819,-0.084 -0.17614,-0.13819 -0.18273,-0.14358 l -0.16207,-0.12968 c 0.39095,-0.21675 0.62399,-0.45308 0.64188,-0.4717 0.0147,-0.0151 0.0273,-0.0317 0.0376,-0.049 0.0233,-0.0155 0.0356,-0.024 0.0356,-0.024 l 0.40305,0.35609 c -0.26526,0.19251 -0.52324,0.34463 -0.77333,0.46189"
       style="fill:#373638;fill-opacity:1;fill-rule:nonzero;stroke:none;stroke-width:0.03527778"
       id="path134"
       inkscape:connector-curvature="0" />
    <path
       d="m 139.05672,56.322518 -0.0785,-0.001 c -0.87658,-0.0267 -1.71249,-0.49735 -2.48475,-1.39859 -0.0223,-0.0262 -0.0387,-0.0554 -0.0493,-0.086 0.0302,-0.0324 0.0619,-0.0645 0.0954,-0.0961 0.23562,0.30084 0.93211,1.05999 2.13649,1.33159 0.14083,0.0319 0.28388,0.0456 0.42707,0.0456 0.90509,0 1.80012,-0.55782 1.98713,-0.68115 -0.0103,0.0174 -0.0229,0.0339 -0.0376,0.049 -0.0179,0.0186 -0.25093,0.25495 -0.64188,0.4717 -0.34272,0.19004 -0.80669,0.36505 -1.35392,0.36505"
       style="fill:#373638;fill-opacity:1;fill-rule:nonzero;stroke:none;stroke-width:0.03527778"
       id="path136"
       inkscape:connector-curvature="0" />
    <path
       d="m 136.40331,54.882058 c -0.0528,-0.071 -0.08,-0.11286 -0.08,-0.11286 l 0.12513,-0.15367 c 0,0 0.0302,0.0473 0.0911,0.12514 -0.0335,0.0316 -0.0652,0.0637 -0.0954,0.0961 -0.0139,0.015 -0.0276,0.0302 -0.0408,0.0453"
       style="fill:#373638;fill-opacity:1;fill-rule:nonzero;stroke:none;stroke-width:0.03527778"
       id="path138"
       inkscape:connector-curvature="0" />
    <path
       d="m 139.58233,56.551828 c 0.0315,-0.0125 0.065,-0.0189 0.0987,-0.0189 0.0156,0 0.0313,0.001 0.0467,0.004 -0.0488,0.006 -0.0973,0.011 -0.14538,0.0147"
       style="fill:#373638;fill-opacity:1;fill-rule:nonzero;stroke:none;stroke-width:0.03527778"
       id="path140"
       inkscape:connector-curvature="0" />
    <path
       d="m 122.77864,52.372498 c -0.3737,-0.13063 -0.65221,-0.55823 -0.59679,-0.95634 0.0182,-0.13021 -0.0295,-0.25866 -0.16856,-0.29697 -0.11423,-0.0314 -0.27877,0.038 -0.29697,0.16866 -0.0934,0.67208 0.28773,1.3243 0.93405,1.55018 0.12428,0.0434 0.26374,-0.0483 0.29697,-0.1687 0.0367,-0.13324 -0.0445,-0.25354 -0.1687,-0.29683"
       style="fill:#3b3a3c;fill-opacity:1;fill-rule:nonzero;stroke:none;stroke-width:0.03527778"
       id="path142"
       inkscape:connector-curvature="0" />
    <path
       d="m 118.15947,31.902925 c -0.20104,-0.261761 -0.57354,-0.315383 -0.90318,-0.297039 -0.32946,0.01834 -0.66848,0.08643 -0.98375,-0.01094 -0.60526,-0.187325 -0.86748,-0.876653 -1.09115,-1.469319 -0.20256,-0.537281 -0.44509,-1.072445 -0.83414,-1.49472 -0.38887,-0.422275 -0.94767,-0.721077 -1.52008,-0.677333 0.36131,-0.245181 0.95207,0.0042 1.38423,0.210961 0.43215,0.206728 0.85411,0.466725 1.32951,0.525286 0.52698,0.06526 1.0498,-0.125236 1.57939,-0.163689 0.52959,-0.03845 1.15933,0.158045 1.31339,0.666398 0.0717,0.236361 0.0233,0.490008 0.0251,0.736952 0.002,0.247298 0.0797,0.526698 0.30208,0.634295"
       style="fill:#d4c1ba;fill-opacity:1;fill-rule:nonzero;stroke:none;stroke-width:0.03527778"
       id="path144"
       inkscape:connector-curvature="0" />
    <path
       d="m 147.65529,39.234708 c 1.25625,-1.55681 -1.5875,-2.62537 -1.899,-2.7365 -0.6103,0.381 -2.52236,2.1336 -1.11548,3.666 0.10054,0.19251 1.30281,1.192 3.01448,-0.9295"
       style="fill:#e53060;fill-opacity:1;fill-rule:nonzero;stroke:none;stroke-width:0.03527778"
       id="path146"
       inkscape:connector-curvature="0" />
    <path
       d="m 145.77746,36.685888 c -0.46532,0.3175 -1.33562,1.15605 -1.45874,2.06093 -0.0642,0.47201 0.0861,0.91069 0.44627,1.30316 l 0.0152,0.0162 0.0102,0.0197 c 0.0409,0.0678 0.32984,0.31253 0.77717,0.31253 0.6096,0 1.28587,-0.43917 1.9565,-1.26993 0.25153,-0.3115 0.33302,-0.60713 0.24941,-0.90382 -0.23036,-0.81738 -1.61783,-1.39488 -1.99601,-1.53881 z m -0.2099,4.05049 v 0 c -0.55351,0 -0.95145,-0.29493 -1.06328,-0.47117 -0.42298,-0.46673 -0.59796,-0.99276 -0.52034,-1.5639 0.15698,-1.15606 1.2961,-2.10503 1.68275,-2.34668 l 0.0695,-0.043 0.0769,0.0275 c 0.33055,0.11783 1.9939,0.75847 2.28564,1.79387 0.11395,0.40393 0.009,0.81033 -0.31185,1.20791 -0.74719,0.92597 -1.49402,1.39549 -2.21933,1.39549"
       style="fill:#e53060;fill-opacity:1;fill-rule:nonzero;stroke:none;stroke-width:0.03527778"
       id="path148"
       inkscape:connector-curvature="0" />
    <path
       d="m 126.53572,34.350145 c 0,0 -0.003,-0.02822 -0.007,-0.08008 -0.002,-0.02575 -0.005,-0.05715 -0.003,-0.09596 10e-4,-0.03775 10e-4,-0.08467 0.008,-0.13335 0.006,-0.04939 0.0124,-0.105127 0.0263,-0.163688 l 0.0219,-0.09278 c 0.01,-0.0314 0.0199,-0.06421 0.0303,-0.09807 0.0461,-0.133703 0.11286,-0.282575 0.20917,-0.432506 0.0959,-0.150283 0.22062,-0.301272 0.37401,-0.441325 0.0388,-0.03422 0.0788,-0.06879 0.12044,-0.102658 0.0424,-0.0321 0.0853,-0.06597 0.13077,-0.09701 0.046,-0.02963 0.0918,-0.06244 0.14112,-0.08996 l 0.0741,-0.04233 0.0187,-0.01058 0.009,-0.0053 0.0221,-0.0092 0.002,-0.0011 0.004,-0.0018 0.0329,-0.01588 c 0.0441,-0.02081 0.0886,-0.04198 0.13338,-0.0635 l 0.0701,-0.03105 0.0886,-0.03069 c 0.0601,-0.0194 0.12044,-0.03916 0.18122,-0.05856 l 0.0879,-0.02187 0.0868,-0.01905 c 0.0581,-0.01199 0.11684,-0.02681 0.17569,-0.03351 0.059,-0.0078 0.11825,-0.01447 0.17776,-0.02081 l 0.0893,-0.0088 0.0891,-0.0025 0.17872,-0.0025 c 0.0594,3.44e-4 0.11811,0.0067 0.17723,0.01023 0.0587,0.0049 0.11811,0.0067 0.17583,0.01658 0.058,0.0085 0.11574,0.01729 0.17307,0.02752 l 0.0859,0.01482 0.0841,0.02011 c 0.0558,0.01411 0.1112,0.02787 0.16648,0.04163 l 0.0207,0.0056 0.015,0.0039 0.005,0.0018 0.009,0.0028 0.0361,0.01199 0.0716,0.02363 c 0.0555,0.01976 0.11712,0.04339 0.17349,0.06562 0.0552,0.02469 0.10901,0.04904 0.1626,0.07655 0.21332,0.110419 0.41892,0.266347 0.56596,0.465314 l 0.0524,0.07514 0.0343,0.05045 0.0141,0.02963 0.0299,0.06315 0.0387,0.08819 0.0153,0.04127 0.0122,0.03916 0.0211,0.07655 c 0.0113,0.0508 0.0215,0.100188 0.026,0.148166 0.0239,0.191559 0.004,0.3556 -0.0225,0.493184 -0.0277,0.137583 -0.0636,0.250119 -0.098,0.341136 -0.0339,0.09102 -0.0654,0.160161 -0.0879,0.20708 -0.0226,0.04692 -0.036,0.07161 -0.036,0.07161 0,0 -0.009,-0.02681 -0.0227,-0.0769 -0.0141,-0.04974 -0.0336,-0.122767 -0.0568,-0.213078 -0.0241,-0.09031 -0.0522,-0.198261 -0.0901,-0.313267 -0.0371,-0.114653 -0.0853,-0.237419 -0.15021,-0.344311 -0.0305,-0.05362 -0.0706,-0.105128 -0.10693,-0.144286 l -0.0241,-0.02187 -0.0423,-0.04374 -0.023,-0.02364 0.008,0.01199 -10e-4,-7.14e-4 -0.002,-0.0018 -0.005,-0.0028 -0.009,-0.006 -0.035,-0.02505 c -0.0949,-0.06385 -0.21343,-0.1143 -0.35743,-0.155575 -0.036,-0.01023 -0.0752,-0.01799 -0.11205,-0.02893 -0.0368,-0.0074 -0.074,-0.01482 -0.11133,-0.02258 l -0.0742,-0.01411 -0.0372,-0.0071 -0.009,-0.0018 -0.005,-0.0011 0.008,0.0021 h -0.002 l -0.0167,-0.0021 c -0.0438,-0.0063 -0.088,-0.01235 -0.13244,-0.0187 l -0.0663,-0.01058 -0.0667,-0.006 c -0.0445,-0.0039 -0.089,-0.0085 -0.13352,-0.01376 -0.0445,-0.006 -0.089,-0.0039 -0.13356,-0.0074 -0.0443,-0.0018 -0.0891,-0.0064 -0.13339,-0.0067 l -0.13243,3.44e-4 -0.0661,-7.14e-4 -0.0653,0.0042 c -0.0434,0.0032 -0.0868,0.0053 -0.13039,0.0067 -0.0437,0.0011 -0.0852,0.01058 -0.12788,0.01411 -0.0414,0.0049 -0.0875,0.0081 -0.12513,0.01447 -0.0368,0.0067 -0.0736,0.01305 -0.11063,0.01905 l -0.0561,0.0074 -0.07,0.0187 c -0.0478,0.0127 -0.0954,0.0254 -0.14263,0.0381 l -0.0353,0.0092 -0.004,0.0014 -0.002,3.44e-4 0.0179,-0.0071 -0.007,0.0021 -0.0142,0.0042 -0.0569,0.01764 c -0.038,0.01129 -0.0743,0.02611 -0.1119,0.03845 -0.0368,0.01447 -0.0732,0.02858 -0.10912,0.04269 -0.0357,0.01588 -0.071,0.0314 -0.10572,0.04692 -0.13847,0.06491 -0.26748,0.138642 -0.38266,0.216959 -0.1155,0.07832 -0.21844,0.160161 -0.30716,0.240241 -0.0893,0.07973 -0.16179,0.158398 -0.22229,0.226484 -0.058,0.06773 -0.10541,0.123825 -0.13575,0.167216 -0.031,0.04163 -0.0488,0.06385 -0.0488,0.06385"
       style="fill:#3b3a3c;fill-opacity:1;fill-rule:nonzero;stroke:none;stroke-width:0.03527778"
       id="path150"
       inkscape:connector-curvature="0" />
    <path
       d="m 127.38461,35.233853 c -0.0888,0 -0.17557,-0.0448 -0.22585,-0.125589 -0.25551,-0.410986 -0.85922,-0.581378 -1.2918,-0.363714 -0.13088,0.06562 -0.29062,0.01305 -0.35648,-0.118181 -0.0659,-0.13088 -0.013,-0.290688 0.11811,-0.356305 0.67508,-0.339372 1.58239,-0.08396 1.9812,0.558094 0.0774,0.124531 0.0393,0.28822 -0.0853,0.365478 -0.0437,0.02716 -0.0921,0.04022 -0.13987,0.04022"
       style="fill:#3b3a3c;fill-opacity:1;fill-rule:nonzero;stroke:none;stroke-width:0.03527778"
       id="path152"
       inkscape:connector-curvature="0" />
    <path
       d="m 136.02326,33.467495 -0.0342,-0.03704 -0.0382,-0.0448 -0.0449,-0.06985 c -0.032,-0.05433 -0.0642,-0.121003 -0.0909,-0.204258 -0.0155,-0.04163 -0.0225,-0.08643 -0.0346,-0.135467 -0.008,-0.04798 -0.0156,-0.100189 -0.0178,-0.154869 -0.008,-0.109714 0.002,-0.230364 0.0305,-0.356306 0.0284,-0.125942 0.0758,-0.257528 0.14894,-0.383822 0.0368,-0.06315 0.0784,-0.125589 0.12651,-0.185208 l 0.0766,-0.08714 0.0201,-0.02117 0.0103,-0.01058 0.01,-0.0085 0.001,-7.15e-4 0.002,-0.0021 0.004,-0.0035 0.0316,-0.03104 0.0321,-0.03034 0.0453,-0.03739 0.0925,-0.07126 0.0922,-0.06315 0.0987,-0.05715 c 0.13617,-0.0702 0.28278,-0.130528 0.44221,-0.157692 0.0768,-0.01834 0.16055,-0.0194 0.23854,-0.02505 0.0402,7.14e-4 0.0803,0.0039 0.11977,0.0063 0.0394,0.0025 0.0781,0.0056 0.11642,0.01482 0.0762,0.01623 0.15064,0.03069 0.21801,0.06103 0.0342,0.01341 0.0675,0.02681 0.0996,0.04127 0.032,0.01447 0.0608,0.03387 0.0898,0.0508 l 0.0834,0.05292 0.0729,0.05927 0.066,0.05962 0.0581,0.06103 c 0.034,0.04304 0.0664,0.0829 0.0944,0.122414 l 0.0207,0.02928 0.0171,0.02999 0.0313,0.05821 c 0.0392,0.0755 0.0687,0.141111 0.0838,0.200731 0.0346,0.116064 0.0423,0.185208 0.0423,0.185208 0,0 -0.0719,-0.01976 -0.17663,-0.05891 -0.0273,-0.0088 -0.0532,-0.02258 -0.0857,-0.03104 -0.0324,-0.0088 -0.0645,-0.02046 -0.0993,-0.03104 -0.0667,-0.02575 -0.14443,-0.04092 -0.22024,-0.06103 l -0.0583,-0.01058 -0.0583,-0.0088 -0.0577,-0.0081 -0.0577,-0.0021 -0.0562,-0.0028 -0.0554,0.0035 c -0.0361,-0.0011 -0.0722,0.0088 -0.10693,0.01235 l -0.0522,0.01094 -0.0516,0.01129 -0.0523,0.01729 -0.026,0.0067 -0.0265,0.01094 c -0.0704,0.02293 -0.14386,0.06103 -0.21925,0.09948 l -0.057,0.03069 -0.0572,0.03422 -0.0522,0.0321 -0.0256,0.01517 -0.0361,0.02575 -0.036,0.02505 -0.005,0.0032 -0.002,0.0018 -0.001,7.14e-4 0.008,-0.0064 -0.006,0.0042 -0.0117,0.0085 -0.0477,0.03422 c -0.0321,0.02293 -0.062,0.04904 -0.093,0.07479 -0.0612,0.05256 -0.1174,0.112183 -0.17046,0.174272 -0.0529,0.06209 -0.10255,0.127 -0.14499,0.192617 -0.0242,0.03245 -0.0395,0.06597 -0.0612,0.09807 -0.0178,0.03245 -0.036,0.06421 -0.0515,0.0956 -0.0321,0.06174 -0.0579,0.121708 -0.0792,0.171097 l -0.0283,0.06879 -0.0189,0.05609 -0.0178,0.04692"
       style="fill:#3b3a3c;fill-opacity:1;fill-rule:nonzero;stroke:none;stroke-width:0.03527778"
       id="path154"
       inkscape:connector-curvature="0" />
    <path
       d="m 129.71693,63.470958 c 0,0 -0.51593,6.25147 3.18657,6.70663 3.70255,0.45543 2.39752,-6.88908 2.39752,-6.88908 l -1.42625,1.66934 -1.06221,-2.18514 -1.24436,2.4886 -1.85127,-1.79035"
       style="fill:#f5f5f5;fill-opacity:1;fill-rule:nonzero;stroke:none;stroke-width:0.03527778"
       id="path156"
       inkscape:connector-curvature="0" />
    <path
       d="m 129.93714,64.019428 c -0.0215,1.47916 0.17695,5.57223 2.99586,5.91851 0.0999,0.0124 0.1979,0.0188 0.29104,0.0188 0.51967,0 0.92879,-0.187 1.2507,-0.57121 1.07791,-1.28612 0.82035,-4.31821 0.66435,-5.53572 l -1.08091,1.26478 c -0.0528,0.062 -0.13324,0.0927 -0.21414,0.0828 -0.0808,-0.0106 -0.15091,-0.061 -0.18647,-0.13405 l -0.84805,-1.74473 -1.02538,2.05062 c -0.0345,0.0688 -0.0995,0.11716 -0.1753,0.13025 -0.0756,0.0129 -0.15324,-0.0113 -0.20835,-0.0646 z m 3.2869,6.41985 c -0.11286,0 -0.23054,-0.007 -0.35003,-0.0219 -1.62634,-0.19995 -2.72891,-1.48484 -3.18862,-3.71503 -0.33693,-1.63506 -0.21441,-3.18633 -0.20891,-3.25148 0.008,-0.0929 0.0682,-0.17325 0.15557,-0.20603 0.0872,-0.0329 0.18564,-0.0124 0.25273,0.0525 l 1.61467,1.56174 1.09717,-2.19428 c 0.0411,-0.0823 0.12609,-0.13338 0.21717,-0.13338 0.0919,5.3e-4 0.17572,0.0529 0.21583,0.13589 l 0.9011,1.85346 1.18675,-1.38892 c 0.0608,-0.0708 0.15695,-0.10047 0.24694,-0.0762 0.0901,0.0249 0.15794,0.0988 0.17434,0.19089 0.0336,0.18919 0.80698,4.65818 -0.69398,6.4492 -0.41342,0.49347 -0.95871,0.74359 -1.62073,0.74359"
       style="fill:#3b3a3c;fill-opacity:1;fill-rule:nonzero;stroke:none;stroke-width:0.03527778"
       id="path158"
       inkscape:connector-curvature="0" />
  </g>
</svg>
