<?xml version="1.0" encoding="UTF-8" standalone="no"?>
<!-- Created with Inkscape (http://www.inkscape.org/) -->

<svg
   xmlns:dc="http://purl.org/dc/elements/1.1/"
   xmlns:cc="http://creativecommons.org/ns#"
   xmlns:rdf="http://www.w3.org/1999/02/22-rdf-syntax-ns#"
   xmlns:svg="http://www.w3.org/2000/svg"
   xmlns="http://www.w3.org/2000/svg"
   xmlns:sodipodi="http://sodipodi.sourceforge.net/DTD/sodipodi-0.dtd"
   xmlns:inkscape="http://www.inkscape.org/namespaces/inkscape"
   version="1.1"
   id="svg2"
   xml:space="preserve"
   width="190.37334"
   height="198.57333"
   viewBox="0 0 190.37334 198.57333"
   sodipodi:docname="OSEM_RGB-07.svg"
   inkscape:version="0.92.1 r"><metadata
     id="metadata8"><rdf:RDF><cc:Work
         rdf:about=""><dc:format>image/svg+xml</dc:format><dc:type
           rdf:resource="http://purl.org/dc/dcmitype/StillImage" /><dc:title></dc:title></cc:Work></rdf:RDF></metadata><defs
     id="defs6" /><sodipodi:namedview
     pagecolor="#ffffff"
     bordercolor="#666666"
     borderopacity="1"
     objecttolerance="10"
     gridtolerance="10"
     guidetolerance="10"
     inkscape:pageopacity="0"
     inkscape:pageshadow="2"
     inkscape:window-width="711"
     inkscape:window-height="480"
     id="namedview4"
     showgrid="false"
     inkscape:zoom="1.1884778"
     inkscape:cx="95.186668"
     inkscape:cy="99.286667"
     inkscape:window-x="0"
     inkscape:window-y="0"
     inkscape:window-maximized="0"
     inkscape:current-layer="g10" /><g
     id="g10"
     inkscape:groupmode="layer"
     inkscape:label="ink_ext_XXXXXX"
     transform="matrix(1.3333333,0,0,-1.3333333,0,198.57333)"><g
       id="g12"
       transform="scale(0.1)"><path
         d="m 1313.58,158.789 c -13.52,-8.559 -63.75,-36.469 -142.3,-36.469 -11.83,0 -23.81,0.66 -35.63,1.969 -36.69,4.082 -83.91,15.891 -132.26,45.731 10.82,9.25 19.39,17.039 25.43,22.699 11.45,-7.719 24.46,-12.547 38.95,-14.328 3.38,-0.411 6.72,-0.621 9.92,-0.621 18.76,0 34.22,7.089 45.94,21.082 2.74,3.269 5.21,6.867 7.44,10.718 5.89,-14.871 15.98,-28.429 30.12,-39.66 5.45,-4.332 12.28,-6.719 19.23,-6.719 9.49,0 18.33,4.27 24.23,11.7 10.61,13.359 8.38,32.859 -4.98,43.468 -8.89,7.051 -13.17,14.903 -12.72,23.301 0.61,11.34 9.95,23.789 24.99,33.309 23.34,14.761 45.35,22.25 65.42,22.25 19.97,0 38.58,-7.078 56.91,-21.641 18.3,-14.527 27.44,-32.156 26.43,-50.976 -1.27,-23.68 -18.45,-47.672 -47.12,-65.813 z M 941.621,502.363 c -2.973,2.903 -3.031,7.668 -0.133,10.645 2.899,2.972 7.664,3.039 10.641,0.137 3.512,-3.422 85.951,-84.844 75.901,-173.086 -0.11,-0.93 -0.4,-1.797 -0.8,-2.59 l -13.73,13.281 c 2.72,77.609 -71.098,150.855 -71.879,151.613 z m -14.66,18.914 c -24.848,0.762 -48.547,14.102 -70.434,39.649 l -1.281,2.297 c -15.492,-16.778 -15.687,-37.121 -15.59,-40.231 l 0.059,-0.742 c 0,-2.645 -2.145,-4.785 -4.785,-4.789 h -0.032 c -1.199,0 -2.378,0.445 -3.285,1.301 -7.086,6.672 -9.722,23.285 -10.695,35.644 -19.371,-23.468 -35.836,-25.504 -40.891,-25.504 l -1.277,0.055 c -1.754,0.227 -3.289,1.406 -3.918,3.059 -0.625,1.656 -0.336,3.527 0.828,4.859 4.055,4.633 7.043,14.934 8.785,22.93 -3.215,-0.957 -6.332,-1.442 -9.312,-1.442 h -0.004 c -16.461,0 -22.914,14.106 -23.184,14.707 -0.746,1.68 -0.465,3.637 0.727,5.039 1.187,1.403 3.074,2.004 4.855,1.539 l 2.633,-0.343 c 7.672,0 14.106,9.429 16.543,14.168 -1.101,20.406 3.844,36.629 14.703,48.226 16.407,17.524 41.196,18.41 46,18.41 l 0.907,-0.011 0.816,0.011 c 1.734,0 5.301,-0.203 9.629,-1.195 10.894,1.238 21.398,5.305 30.433,11.551 l 0.243,1.199 c 3.179,7.543 3.921,16.098 2.097,24.078 -0.504,2.211 0.879,4.414 3.09,4.918 2.207,0.5 4.41,-0.875 4.914,-3.086 1.328,-5.804 1.395,-11.836 0.512,-17.722 2.973,3.183 5.723,6.578 7.98,10.312 0.977,1.617 3.082,2.137 4.7,1.16 1.617,-0.976 2.132,-3.082 1.156,-4.699 -9.524,-15.758 -25.422,-27.406 -43.129,-32.379 2.863,-1.648 5.726,-3.73 8.402,-6.433 9.188,-9.297 13.742,-23 13.543,-40.739 l -0.226,-1.39 c -0.278,-0.887 -6.219,-19.317 -17.86,-32.852 1.246,-0.418 2.43,-1.043 3.348,-2.113 19.016,-22.196 39.019,-33.77 59.461,-34.395 l 1.75,-0.023 c 26.918,0 45.586,18.941 45.777,19.14 2.891,2.985 7.656,3.059 10.645,0.168 2.984,-2.89 3.058,-7.66 0.168,-10.644 -0.957,-0.988 -23.375,-23.719 -56.574,-23.719 z M 800.516,149.059 c -9.336,-11.137 -21.2,-16.547 -36.266,-16.547 -2.703,0 -5.543,0.179 -8.437,0.527 -81.743,10.051 -87.497,128.731 -86.875,171.633 l 42.433,-41.043 c 1.602,-1.551 3.848,-2.25 6.043,-1.867 2.199,0.379 4.086,1.777 5.082,3.769 l 29.731,59.457 24.593,-50.59 c 1.035,-2.117 3.067,-3.578 5.41,-3.878 2.34,-0.301 4.676,0.601 6.208,2.39 l 31.343,36.68 c 4.524,-35.301 11.992,-123.219 -19.265,-160.531 z m -184.36,-16.547 -18.929,2.949 c 6.464,41.559 48.113,67.211 67.812,77.18 1.742,-6.512 3.668,-12.743 5.828,-18.602 -17.679,-9.449 -49.902,-30.617 -54.711,-61.527 z m -110.785,235.129 3.41,42.05 c -39.183,-34.41 -60.715,-96.101 -60.953,-96.8 l -18.125,6.199 c 1.195,3.5 29.949,86.058 85.438,118.898 l 15.922,9.434 L 528,409.629 c 22.645,14.992 66.355,39.519 125.43,52.242 l 16.246,3.488 -13.235,-40.89 c 23.352,-2.18 71.657,-10.418 86.711,-41.457 l 5.723,-11.813 -19.289,-2.75 17.988,-22.847 -1.519,-1.653 -8.375,-16.75 -43.707,55.512 22.539,3.219 c -19.492,15.601 -57.524,19.91 -73.133,20.16 l -12.945,0.199 10.636,32.902 C 568.332,419.801 523.395,382.719 522.918,382.32 Z M 367.25,530.422 C 347.07,510.984 338.891,486.371 338.797,486.09 l -5.445,-16.762 -8.34,15.524 c -38.199,71.062 -12.676,138.519 -11.571,141.355 l 14.032,-5.453 c -0.227,-0.586 -20.567,-54.813 3.886,-114.18 6.536,12.68 18.094,30.465 36.254,43.821 l 10.422,7.664 1.512,-12.848 c 0.058,-0.492 6.152,-47.387 42.187,-64.641 3.446,13.539 11.055,36.86 23.946,44.442 l 6.5,3.824 3.812,-6.512 c 0.692,-1.136 17.512,-27.703 66.395,-20.14 -2.094,13.457 -3.93,40.945 11.582,58.265 8.836,9.86 21.636,14.684 38.035,14.594 l -9.613,12.363 c -0.7,0.899 -0.993,2.051 -0.813,3.176 0.184,1.125 0.828,2.125 1.777,2.758 l 31.012,20.68 -13.738,45.253 c -0.438,1.438 -0.055,2.993 0.992,4.067 1.051,1.07 2.598,1.484 4.043,1.082 l 8.785,-2.453 c -5.953,4.035 -13.668,7.117 -23.875,7.027 -33.136,-0.305 -63.816,-22.699 -88.465,-40.695 -20.75,-15.149 -37.14,-27.106 -51.453,-23.93 l 3.266,14.695 c 4.238,-0.949 11.062,2.266 18.91,7.188 -11.223,8.738 -17.227,23.023 -15.184,37.707 0.512,3.703 5.18,5.672 8.415,4.781 3.945,-1.086 5.292,-4.726 4.781,-8.418 -1.426,-10.265 5.004,-21.148 14.14,-25.832 2.739,1.957 5.496,3.957 8.246,5.965 26.391,19.266 59.235,43.242 97.208,43.594 21.789,0.144 39.375,-10.274 52.234,-31.133 l 0.633,-1.016 c 11.238,-17.593 26.582,-26.105 40.117,-33.613 1.051,-0.582 2.086,-1.156 3.098,-1.723 8.453,-4.734 47.437,-3.316 72.418,-0.8 l 10.898,1.101 -2.883,-10.57 c -3.812,-13.981 -20.73,-24.344 -33.867,-30.465 l 25.977,-13.437 -4.532,-6.965 c -12.679,-19.516 -47.043,-29.555 -64.269,-33.492 3.656,-6.973 9.093,-16.497 12.824,-22.813 l 7.187,-12.156 -14.101,0.812 c -55.469,3.215 -89.047,57.071 -97.281,71.918 -15.45,1.535 -26.774,-1.574 -33.688,-9.269 -15.375,-17.121 -6.773,-52.071 -6.687,-52.422 l 1.918,-7.59 -7.657,-1.629 c -48.355,-10.219 -73.672,7.813 -84.031,18.664 -6.293,-8.797 -11.84,-26.383 -14.23,-38.555 l -1.633,-8.308 -8.059,2.59 c -37.961,12.199 -52.406,47.773 -57.574,67.242 z m 764.72,-165.871 c 4.41,-34.512 11.7,-120.492 -18.84,-156.922 -9.12,-10.891 -20.72,-16.18 -35.44,-16.18 -2.65,0 -5.42,0.18 -8.25,0.531 -79.909,9.821 -85.534,125.829 -84.924,167.77 l 41.474,-40.121 c 1.57,-1.52 3.77,-2.199 5.91,-1.828 2.15,0.371 4,1.738 4.97,3.687 l 29.06,58.121 24.04,-49.449 c 1.01,-2.082 3,-3.5 5.29,-3.801 2.29,-0.281 4.57,0.59 6.07,2.34 z m 240.79,-40.52 c -29.29,23.258 -61.3,35.059 -95.14,35.059 -32.14,0 -65.37,-10.711 -98.76,-31.84 -11.39,-7.199 -21.09,-15.629 -29.09,-24.852 0.2,40.75 -5.97,76.473 -6.47,79.262 -0.46,2.61 -2.39,4.711 -4.94,5.41 -2.55,0.692 -5.28,-0.148 -7,-2.16 l -8.99,-10.519 c -4.24,25.148 -12.4,53.769 -25.95,86.5 l 30.97,3.437 c 0,0 -20.65,43.012 -84.31,48.172 -11.15,0.906 -54.682,35.723 -54.682,35.723 0,0 13.242,57.375 -3.816,99.629 -25.082,62.136 -56.43,74.011 -89.367,99.597 -58.848,45.719 -94.793,86.172 -116.809,118.735 -13.922,-8.051 -27.988,-15.227 -42.203,-21.371 -53.644,-23.192 -99.152,-28.059 -127.883,-28.059 -12.761,0 -23.285,0.926 -31.172,1.992 l 6.239,-16.047 c 1.039,-2.668 0.726,-5.676 -0.836,-8.074 -1.567,-2.402 -4.192,-3.902 -7.051,-4.031 -2.488,-0.117 -5.016,-0.172 -7.504,-0.172 -47.062,0 -95.129,20.742 -138.996,59.984 -16.48,14.742 -29.43,29.403 -38.328,40.492 l -1.145,-11.441 c -0.347,-3.445 -2.664,-6.379 -5.937,-7.519 -3.27,-1.133 -6.906,-0.266 -9.313,2.226 -30.882,31.984 -44.203,70.258 -49.906,95.484 l -1.226,-2.3 c -1.668,-3.129 -5.043,-4.969 -8.567,-4.684 -3.535,0.285 -6.558,2.645 -7.703,5.996 -16.734,49.09 -11.457,91.71 -4.883,117.3 l -12.82,-8.33 c -3.371,-2.19 -7.797,-1.85 -10.789,0.84 -2.992,2.68 -3.813,7.05 -1.996,10.63 46.398,91.68 100.09,159.5 159.582,201.57 48.621,34.38 101.238,51.81 156.394,51.81 82.649,0 146.805,-38.71 168.922,-54.01 19.621,32.17 38.078,47.84 56.262,47.84 27.496,0 39.293,-35.93 39.781,-37.46 0.301,-0.94 0.387,-1.92 0.367,-2.89 l 0.133,0.01 c 3.184,0 7.5,-0.37 13.324,-1.43 18.926,-3.44 21.289,-13.53 21.289,-13.53 0,0 8.411,22.94 -0.765,30.97 0,0 1.402,0.09 3.488,0.09 5.215,0 14.695,-0.59 17.156,-4.68 0,0 -8.265,41.58 -49.386,67.99 18.074,17.79 23.648,37.93 23.968,55.39 14.688,21.25 14.668,31.87 14.594,35.47 -0.172,8.08 -3.867,15.24 -10.141,19.62 -3.226,2.25 -7.058,3.45 -10.972,3.45 l -1.168,-0.03 c -10.492,-0.64 -17.844,-7.13 -24.328,-12.85 -2.356,-2.08 -6.199,-5.47 -8.133,-6.35 -6.66,0.49 -13.93,2.77 -21.609,5.19 -4.766,1.49 -9.7,3.04 -14.918,4.32 -7.098,1.73 -14.036,2.61 -20.618,2.61 -14.562,0 -27.234,-4.4 -36.64,-12.72 -8.66,-7.65 -13.301,-17.37 -15.942,-26.87 -7.082,0.82 -14.226,1.31 -21.363,1.31 -5.82,0 -11.613,-0.3 -17.355,-0.96 l 34.214,45.16 c 0,0 -54.195,-7.53 -149.398,-36.21 0,0 6.883,13.77 25.234,24.09 0,0 -1.98,0.36 -5.941,0.36 -17.188,0 -71.762,-6.81 -164.965,-79.5 0,0 -5.734,14.91 11.469,44.73 0,0 -91.039,-49.58 -121.133,-112 -6.926,1.89 -14.187,2.62 -20.961,2.13 -6.312,-0.46 -12.344,-1.55 -18.176,-2.6 -8.578,-1.56 -16.679,-3.02 -24.058,-2.11 -8.485,1.05 -16.977,5.35 -25.961,9.89 -2.504,1.27 -5.094,2.58 -7.711,3.83 -14.262,6.83 -30.625,4.09 -48.645,-8.12 -2.726,-1.85 -4.449,-4.62 -5.203,-7.66 l -1.172,-1.94 c -1.589,-3.83 -38.578,-94.55 -2.644,-148.37 1.129,-1.69 2.461,-3.19 3.707,-4.77 C 128.797,1117.61 85,1053.42 77.2852,987.367 l 38.9998,22.943 c 0,0 -119.28891,-188.115 -110.68734,-339.521 l 43.01564,41.293 c 0,0 -94.6289,-246.031 53.3357,-445.621 l 12.043,34.418 c 0,0 80.863,-204.7501 204.742,-256.3595 L 303.25,97.8516 c 0,0 111.371,-97.82035 300.316,-97.82035 13.086,0 26.536,0.46875 40.352,1.46875 122.777,8.9102 235.094,74.2109 308.395,128.07 63.857,-44.6208 127.887,-61.3708 176.517,-66.7692 13.84,-1.5391 28.03,-2.3203 42.16,-2.3203 27.23,0 54.08,2.8281 79.82,8.3984 36.17,7.8203 69.31,20.832 95.85,37.6211 45.83,29 73.46,70.828 75.82,114.789 2.1,39.121 -15.56,75.602 -49.72,102.742"
         style="fill:#3b393d;fill-opacity:1;fill-rule:nonzero;stroke:none"
         id="path14"
         inkscape:connector-curvature="0" /><path
         d="m 662.211,505.23 c -4.18,7.473 -8.625,15.829 -9.949,19.801 l -2.778,8.328 c 0,0 -2.863,12.457 -5.496,18.481 -2.101,4.801 4.973,8.984 7.09,4.144 3.024,-6.921 6.051,-13.839 9.078,-20.761 13.211,2.488 41.657,9.961 55.989,22.078 0,0 -41.079,24.652 -43.282,25.781 -4.718,2.41 -0.562,9.492 4.145,7.09 4.519,-2.313 9.043,-4.621 13.566,-6.934 l 2.098,0.668 c 7.812,2.5 21.664,8.434 30.859,15.477 -20.832,-1.395 -52.996,-2.32 -64.367,4.047 -0.996,0.558 -2.012,1.121 -3.043,1.695 -14.351,7.961 -32.211,17.867 -45.504,38.672 l -0.762,1.223 c -0.804,1.308 -1.968,3.109 -3.355,5.054 l -15.84,4.426 12.449,-41.016 c 0.528,-1.73 -0.144,-3.605 -1.648,-4.605 l -29.875,-19.922 c 0,0 45.453,-71.519 90.625,-83.727"
         style="fill:#3b393d;fill-opacity:1;fill-rule:nonzero;stroke:none"
         id="path16"
         inkscape:connector-curvature="0" /><path
         d="m 862.344,641.074 c -8.899,9 -20.903,9.457 -23.215,9.457 l -0.539,-0.008 -0.457,-0.003 -0.727,0.007 c -4.109,0 -25.304,-0.738 -39.008,-15.375 -9.203,-9.828 -13.261,-24.07 -12.058,-42.332 l -0.418,-2.293 c -0.332,-0.738 -7.332,-15.867 -19.731,-19.847 2.215,-1.532 5.161,-2.735 8.938,-2.735 h 0.004 c 3.73,0 7.953,1.243 12.496,3.493 4.461,7.984 7.094,16.718 7.406,25.949 0.207,6.16 9.785,6.179 9.578,0 -0.383,-11.305 -3.605,-22.199 -9.347,-31.91 -0.653,-4.164 -2.668,-15.485 -6.598,-24.926 7.434,3.027 18.859,10.558 31.453,28.785 0.277,9.434 2.793,18.523 7.524,26.711 3.085,5.348 11.367,0.523 8.273,-4.832 -3.969,-6.863 -6.059,-14.363 -6.25,-22.274 l 0.266,-0.808 c 0.004,-7.934 0.785,-18.379 2.433,-27.055 2.692,10.211 8.434,22.824 20.582,33.516 11.871,10.449 18.879,29.566 20.176,33.336 0.047,14.715 -3.582,25.859 -10.781,33.144"
         style="fill:#3b393d;fill-opacity:1;fill-rule:nonzero;stroke:none"
         id="path18"
         inkscape:connector-curvature="0" /><path
         d="m 707.969,1152.97 c -0.781,-3.9 -1.805,-7.1 -2.774,-9.68 -0.961,-2.57 -1.855,-4.53 -2.492,-5.86 -0.644,-1.34 -1.023,-2.04 -1.023,-2.04 0,0 -0.246,0.77 -0.641,2.18 -0.398,1.41 -0.953,3.48 -1.613,6.05 -0.68,2.56 -1.481,5.61 -2.551,8.88 -1.055,3.25 -2.418,6.73 -4.262,9.76 -0.863,1.51 -2,2.97 -3.027,4.08 l -0.688,0.62 -1.199,1.24 -0.652,0.68 0.234,-0.34 -0.031,0.02 -0.066,0.04 -0.129,0.09 -0.254,0.17 -0.992,0.7 c -2.696,1.81 -6.051,3.25 -10.137,4.41 -1.02,0.3 -2.129,0.51 -3.172,0.82 -1.047,0.21 -2.098,0.43 -3.16,0.65 l -2.098,0.4 -1.058,0.2 -0.262,0.05 -0.133,0.02 0.227,-0.06 -0.063,0.01 -0.469,0.05 c -1.246,0.18 -2.5,0.36 -3.754,0.53 l -1.878,0.3 -1.891,0.18 c -1.266,0.1 -2.527,0.24 -3.785,0.38 -1.262,0.17 -2.528,0.11 -3.785,0.22 -1.262,0.05 -2.528,0.18 -3.782,0.18 l -3.754,-0.01 -1.878,0.02 -1.848,-0.11 c -1.231,-0.09 -2.465,-0.15 -3.699,-0.19 -1.239,-0.04 -2.41,-0.31 -3.625,-0.4 -1.176,-0.15 -2.477,-0.23 -3.547,-0.42 -1.039,-0.19 -2.086,-0.37 -3.137,-0.53 l -1.59,-0.21 -1.98,-0.53 c -1.36,-0.36 -2.707,-0.73 -4.043,-1.08 l -1,-0.27 -0.125,-0.03 -0.067,-0.02 0.508,0.21 -0.199,-0.06 -0.402,-0.13 -1.614,-0.5 c -1.078,-0.32 -2.109,-0.74 -3.171,-1.08 -1.043,-0.41 -2.075,-0.81 -3.094,-1.21 -1.012,-0.45 -2.012,-0.89 -3,-1.33 -3.922,-1.84 -7.578,-3.93 -10.848,-6.16 -3.269,-2.22 -6.187,-4.54 -8.703,-6.81 -2.531,-2.25 -4.586,-4.49 -6.305,-6.41 l -1.265,-1.51 c 10.754,-2.69 20.59,-9.11 26.484,-18.59 2.195,-3.53 1.109,-8.17 -2.422,-10.37 -1.234,-0.76 -2.609,-1.13 -3.965,-1.13 -2.515,0 -4.972,1.26 -6.398,3.55 -7.246,11.66 -24.359,16.48 -36.621,10.32 -3.711,-1.87 -8.238,-0.37 -10.102,3.34 -1.867,3.72 -0.371,8.24 3.344,10.11 7.871,3.95 16.836,4.92 25.473,3.58 0.023,0.91 0.031,1.85 0.175,2.92 0.164,1.39 0.352,2.97 0.75,4.64 l 0.622,2.62 c 0.273,0.9 0.562,1.83 0.859,2.78 1.308,3.79 3.195,8.01 5.926,12.26 2.718,4.26 6.257,8.54 10.601,12.52 1.106,0.97 2.239,1.95 3.414,2.91 1.203,0.91 2.422,1.86 3.711,2.74 1.305,0.85 2.598,1.78 3.996,2.56 l 2.102,1.2 0.531,0.3 0.266,0.15 0.625,0.25 0.058,0.03 0.118,0.06 0.933,0.44 c 1.25,0.6 2.512,1.2 3.781,1.8 l 1.993,0.88 2.507,0.88 c 1.704,0.55 3.418,1.1 5.137,1.66 l 2.492,0.61 2.465,0.55 c 1.645,0.33 3.309,0.75 4.981,0.95 1.668,0.21 3.347,0.41 5.035,0.58 l 2.535,0.25 2.523,0.07 5.067,0.08 c 1.683,-0.02 3.351,-0.2 5.023,-0.29 1.668,-0.14 3.352,-0.2 4.988,-0.47 1.641,-0.25 3.282,-0.5 4.907,-0.78 l 2.429,-0.43 2.387,-0.57 c 1.578,-0.39 3.152,-0.79 4.719,-1.18 l 0.582,-0.16 0.43,-0.11 0.129,-0.04 0.253,-0.08 1.02,-0.34 2.031,-0.67 c 1.578,-0.56 3.321,-1.23 4.922,-1.87 1.566,-0.7 3.09,-1.39 4.606,-2.17 6.05,-3.13 11.875,-7.55 16.043,-13.18 l 1.488,-2.14 0.969,-1.42 0.402,-0.85 0.844,-1.79 1.101,-2.5 0.434,-1.17 0.347,-1.1 0.594,-2.18 c 0.324,-1.44 0.613,-2.83 0.742,-4.19 0.672,-5.44 0.094,-10.09 -0.64,-13.98 z m 188.336,53.76 -1.649,0.3 -1.656,0.25 -1.637,0.23 -1.636,0.06 -1.59,0.09 -1.574,-0.11 c -1.024,0.04 -2.047,-0.24 -3.032,-0.34 l -1.48,-0.31 -1.465,-0.32 -1.477,-0.49 -0.742,-0.2 -0.75,-0.31 c -1.996,-0.64 -4.074,-1.72 -6.215,-2.81 l -1.617,-0.88 -1.621,-0.97 -1.48,-0.9 -0.723,-0.44 -1.023,-0.72 -1.024,-0.72 -0.129,-0.09 -0.062,-0.05 -0.032,-0.02 0.211,0.18 -0.164,-0.12 -0.332,-0.24 -1.347,-0.96 c -0.911,-0.65 -1.762,-1.39 -2.637,-2.12 -1.734,-1.49 -3.328,-3.19 -4.836,-4.95 -1.496,-1.75 -2.902,-3.6 -4.106,-5.46 -0.687,-0.92 -1.121,-1.86 -1.734,-2.77 -0.504,-0.92 -1.019,-1.83 -1.465,-2.72 -0.91,-1.75 -1.64,-3.45 -2.242,-4.85 l -0.805,-1.95 -0.531,-1.58 -0.508,-1.34 -0.968,1.05 -1.082,1.28 -1.27,1.97 c -0.906,1.54 -1.82,3.44 -2.582,5.8 -0.434,1.18 -0.637,2.44 -0.98,3.83 -0.215,1.37 -0.438,2.85 -0.504,4.4 -0.215,3.11 0.066,6.52 0.863,10.1 0.808,3.56 2.148,7.29 4.226,10.88 1.04,1.78 2.223,3.55 3.586,5.24 l 2.168,2.47 0.575,0.61 0.289,0.3 0.269,0.23 0.028,0.03 0.054,0.05 0.113,0.11 0.899,0.87 0.906,0.86 1.289,1.07 2.617,2.02 2.618,1.79 2.796,1.61 c 3.86,1.99 8.012,3.7 12.536,4.47 1.511,0.37 3.109,0.49 4.695,0.58 -23.621,26.84 -40.367,48.83 -36.875,65.15 -2.559,6.3 -10.32,22.65 -21.914,22.65 -7.082,0 -22.453,-6.16 -45.832,-47.41 -1.281,-2.27 -3.496,-3.86 -6.051,-4.35 -2.555,-0.49 -5.203,0.15 -7.238,1.78 -0.699,0.56 -71.684,56.15 -166.063,56.15 -109.769,0 -205.234,-71.77 -284.082,-213.42 l 5.606,3.64 c 3.351,2.18 7.742,1.86 10.734,-0.79 2.996,-2.64 3.859,-6.96 2.113,-10.55 -0.238,-0.5 -22.113,-47.14 -8.839,-108.257 l 3.316,6.217 c 1.879,3.52 5.883,5.36 9.781,4.49 3.903,-0.87 6.746,-4.23 6.949,-8.223 0.032,-0.563 3.168,-51.516 35.969,-95.719 l 1.356,13.563 c 0.375,3.761 3.093,6.879 6.769,7.761 l 2.082,0.246 c 2.977,0 5.821,-1.5 7.481,-4.082 0.179,-0.281 18.507,-28.476 49.605,-56.211 27.176,-24.23 69.832,-52.945 120.906,-55.023 l -7.347,18.895 c -1.227,3.148 -0.559,6.722 1.718,9.218 2.282,2.496 5.778,3.489 9.028,2.551 0.137,-0.039 16.082,-4.453 42.812,-4.453 52.586,0 154.227,17.316 264.93,128.219 -25.031,-7.539 -48.906,-18.418 -73.672,-29.809 -29.523,-13.57 -60.051,-27.605 -93.555,-35.758 -16.019,-3.898 -34.351,-6.308 -53.476,-6.308 -37.957,0 -79.043,9.496 -111.387,35.703 -45.695,37.027 -69.074,80.41 -75.801,140.67 -0.238,2.14 0.391,4.11 1.407,5.83 -6.133,-3.85 -10.93,-11.38 -11.649,-19.57 -0.469,-5.35 -4.949,-9.37 -10.211,-9.37 l -0.91,0.04 c -5.648,0.49 -9.82,5.47 -9.328,11.12 1.891,21.51 18.637,39.49 38.129,40.92 19.668,1.43 38.457,-14.06 42.785,-35.3 1.133,-5.56 -2.453,-10.98 -8.008,-12.11 -5.558,-1.14 -10.976,2.45 -12.105,8 -1.574,7.73 -6.887,14.25 -13.11,17.22 1.028,-1.34 1.84,-2.86 2.043,-4.66 6.121,-54.85 27.348,-94.302 68.817,-127.907 43.207,-35.008 104.922,-36.207 148.273,-25.66 31.711,7.714 61.387,21.355 90.082,34.55 34.024,15.641 69.18,31.653 108.246,38.289 2.575,0.438 5.129,0.922 7.739,1.278 l 1.14,0.187 0.16,-0.012 c 6.09,0.836 15.231,2.004 26.395,3.204 -4.336,-5.723 -8.445,-12.161 -12.176,-19.325 C 909.129,947.199 900.262,910.996 903.039,870 c 0.195,-2.891 2.602,-5.102 5.457,-5.102 l 0.375,0.012 c 3.016,0.203 5.297,2.817 5.09,5.832 -2.883,42.574 7.207,79.414 22.211,104.742 4.453,7.52 9.332,14.012 14.441,19.34 12.524,1.141 26.496,2.145 40.957,2.723 -1.05,-5.606 -1.726,-11.606 -2.035,-17.887 -1.762,-35.711 8.106,-79.738 25.845,-103.394 1.08,-1.438 2.72,-2.192 4.39,-2.192 1.14,0 2.29,0.356 3.28,1.094 2.42,1.816 2.91,5.246 1.09,7.664 -16.36,21.816 -25.581,63.996 -23.72,97.215 0.36,6.348 1.1,12.367 2.3,17.851 4.32,0.102 8.66,0.172 12.99,0.172 22.48,0 41.4,-1.511 56.73,-4.453 -3.63,8.553 -4.88,17.613 -3.59,27.133 3.29,24.2 21.75,45.17 35.6,57.25 -1.43,1.83 -2.73,3.35 -3.4,3.91 -9.81,5.99 -22.19,11.04 -35.47,15.67 16.41,10.45 34.21,17.77 48.19,15.22 2.98,-0.54 5.82,1.43 6.36,4.41 0.55,2.97 -1.43,5.83 -4.4,6.36 -21.68,3.95 -46.16,-9.3 -63.38,-21.55 -5.89,1.88 -11.85,3.71 -17.76,5.53 -2.52,0.77 -5.03,1.56 -7.55,2.34 8.7,21.99 14.02,50.46 6.73,67.77 -1.18,2.79 -4.38,4.1 -7.17,2.93 -2.79,-1.18 -4.1,-4.39 -2.92,-7.17 6.03,-14.33 0.89,-40.35 -7.1,-60.23 -32.693,10.47 -63.732,22.66 -78.682,44.6 -10.464,15.36 -24.976,32 -39.664,48.41 l -1.929,0.53"
         style="fill:#3b393d;fill-opacity:1;fill-rule:nonzero;stroke:none"
         id="path20"
         inkscape:connector-curvature="0" /><path
         d="m 1081.33,1018.63 c -2.08,-15.29 2.79,-29.493 14.46,-42.208 l 0.48,-0.527 0.34,-0.637 c 1.32,-2.195 10.68,-10.121 25.17,-10.121 19.74,0 41.65,14.222 63.36,41.133 8.14,10.09 10.79,19.66 8.08,29.27 -7.46,26.48 -52.39,45.17 -64.64,49.83 -15.08,-10.28 -43.27,-37.43 -47.25,-66.74"
         style="fill:#3b393d;fill-opacity:1;fill-rule:nonzero;stroke:none"
         id="path22"
         inkscape:connector-curvature="0" /></g></g></svg>