<?xml version="1.0" encoding="UTF-8" standalone="no"?>
<!-- Created with Inkscape (http://www.inkscape.org/) -->

<svg
   xmlns:dc="http://purl.org/dc/elements/1.1/"
   xmlns:cc="http://creativecommons.org/ns#"
   xmlns:rdf="http://www.w3.org/1999/02/22-rdf-syntax-ns#"
   xmlns:svg="http://www.w3.org/2000/svg"
   xmlns="http://www.w3.org/2000/svg"
   xmlns:sodipodi="http://sodipodi.sourceforge.net/DTD/sodipodi-0.dtd"
   xmlns:inkscape="http://www.inkscape.org/namespaces/inkscape"
   version="1.1"
   id="svg2"
   xml:space="preserve"
   width="464.14667"
   height="356.98666"
   viewBox="0 0 464.14667 356.98666"
   sodipodi:docname="OSEM_RGB-03.svg"
   inkscape:version="0.92.1 r"><metadata
     id="metadata8"><rdf:RDF><cc:Work
         rdf:about=""><dc:format>image/svg+xml</dc:format><dc:type
           rdf:resource="http://purl.org/dc/dcmitype/StillImage" /><dc:title></dc:title></cc:Work></rdf:RDF></metadata><defs
     id="defs6" /><sodipodi:namedview
     pagecolor="#ffffff"
     bordercolor="#666666"
     borderopacity="1"
     objecttolerance="10"
     gridtolerance="10"
     guidetolerance="10"
     inkscape:pageopacity="0"
     inkscape:pageshadow="2"
     inkscape:window-width="711"
     inkscape:window-height="480"
     id="namedview4"
     showgrid="false"
     inkscape:zoom="0.66108912"
     inkscape:cx="232.07333"
     inkscape:cy="178.49333"
     inkscape:window-x="0"
     inkscape:window-y="0"
     inkscape:window-maximized="0"
     inkscape:current-layer="g10" /><g
     id="g10"
     inkscape:groupmode="layer"
     inkscape:label="ink_ext_XXXXXX"
     transform="matrix(1.3333333,0,0,-1.3333333,0,356.98667)"><g
       id="g12"
       transform="scale(0.1)"><path
         d="m 3406.13,128.672 h -135.16 c -56.21,0 -75.33,23.898 -80.11,81.316 l -28.73,377.91 c -4.78,56.211 -1.17,131.543 -1.17,131.543 h -2.4 c 0,0 -25.12,-83.73 -46.65,-131.543 L 2970.8,274.551 H 2844.04 L 2702.9,587.898 c -21.5,47.813 -46.61,132.75 -46.61,132.75 h -2.41 c 0,0 3.58,-76.539 -1.2,-132.75 l -27.49,-377.91 c -4.78,-57.418 -25.11,-81.316 -81.32,-81.316 H 2408.72 V 261.41 h 37.08 c 16.72,0 25.11,9.57 26.32,26.32 l 55,690.008 h 162.64 L 2864.37,573.551 C 2884.7,524.5 2906.24,459.93 2906.24,459.93 h 2.37 c 0,0 21.53,64.57 41.86,113.621 l 174.62,404.187 h 162.64 l 55,-690.008 c 1.2,-16.75 9.56,-26.32 26.32,-26.32 h 37.08 z m -1044.09,81.316 c 0,-57.418 -25.11,-81.316 -81.32,-81.316 h -385.07 c -57.41,0 -81.32,23.898 -81.32,81.316 V 845 h -77.74 v 132.738 h 513.03 c 56.21,0 81.32,-25.109 81.32,-81.308 V 767.289 h -142.31 v 51.43 c 0,16.722 -9.56,26.281 -26.32,26.281 H 1970.99 V 622.57 h 275.05 V 489.828 H 1970.99 V 287.73 c 0,-16.75 9.56,-26.32 26.31,-26.32 h 196.11 c 16.75,0 26.32,9.57 26.32,26.32 v 51.391 h 142.31 z M 1631.01,1089.96 V 0 H 3481.07 V 1089.96 H 1631.01"
         style="fill:#505256;fill-opacity:1;fill-rule:nonzero;stroke:none"
         id="path14"
         inkscape:connector-curvature="0" /><path
         d="m 438.902,260.211 c -153.078,0 -276.261,129.168 -276.261,298.961 0,162.637 123.183,287.027 276.261,287.027 153.075,0 276.262,-124.39 276.262,-287.027 0,-169.793 -123.187,-298.961 -276.262,-298.961 z m 0,731.918 C 188.957,992.129 0,801.969 0,559.172 0,309.23 188.957,114.32 438.902,114.32 c 249.946,0 438.899,194.91 438.899,444.852 0,242.797 -188.953,432.957 -438.899,432.957"
         style="fill:#505256;fill-opacity:1;fill-rule:nonzero;stroke:none"
         id="path16"
         inkscape:connector-curvature="0" /><path
         d="m 1126.62,758.898 c 0,53.832 52.63,90.883 124.39,90.883 56.2,0 112.41,-26.281 112.41,-65.769 v -38.25 h 141.11 v 78.91 c 0,120.808 -153.08,167.457 -252.36,167.457 -163.8,0 -283.412,-101.688 -283.412,-239.219 0,-264.289 399.442,-252.32 399.442,-397.039 0,-65.769 -57.41,-100.441 -121.98,-100.441 -118.4,0 -205.7,100.441 -205.7,100.441 l -88.516,-110 c 0,0 104.056,-131.551 291.806,-131.551 178.19,0 282.25,114.789 282.25,249.95 0,278.628 -399.44,249.941 -399.44,394.628"
         style="fill:#505256;fill-opacity:1;fill-rule:nonzero;stroke:none"
         id="path18"
         inkscape:connector-curvature="0" /><path
         d="m 1901.88,2677.44 -1.16,-0.03 c -10.49,-0.64 -17.84,-7.13 -24.33,-12.86 -2.35,-2.07 -6.2,-5.47 -8.13,-6.34 -6.66,0.48 -13.93,2.77 -21.61,5.18 -4.77,1.5 -9.7,3.05 -14.92,4.32 -7.1,1.73 -14.03,2.61 -20.62,2.61 -14.56,0 -27.23,-4.39 -36.64,-12.71 -15.19,-13.43 -18.25,-33.25 -19.23,-47 -0.27,-3.79 0.59,-7.56 2.47,-10.86 l 19.21,-33.64 c 3.24,-5.68 9.16,-9.31 15.69,-9.64 1.99,-0.09 4,-0.14 5.99,-0.14 27.3,0 54.24,9.08 75.86,25.58 9.73,7.43 21.23,19.54 30.76,32.4 18.11,24.45 17.86,36.19 17.78,40.05 -0.17,8.09 -3.87,15.24 -10.14,19.62 -3.23,2.26 -7.06,3.46 -10.98,3.46 z m 0,-19.16 c 9.83,-6.86 -19.42,-46.17 -39.04,-61.14 -18.29,-13.96 -41.24,-21.66 -64.24,-21.66 -1.68,0 -3.36,0.05 -5.04,0.13 l -19.21,33.64 c 0.88,12.4 3.49,25.77 12.81,34 6.52,5.77 15.11,7.91 23.95,7.91 5.41,0 10.9,-0.8 16.08,-2.06 13.63,-3.33 26.76,-9.33 40.77,-10.07 l 0.79,-0.02 c 13.63,0 24.2,18.73 33.13,19.27"
         style="fill:#3a3a3c;fill-opacity:1;fill-rule:nonzero;stroke:none"
         id="path20"
         inkscape:connector-curvature="0" /><path
         d="m 1348.41,2403.24 c -1.92,2.5 -7.36,3.76 -14.56,3.35 -1.93,-0.1 -3.93,-0.28 -6.04,-0.47 -8.01,-0.72 -17.08,-1.53 -26.42,1.35 -23.3,7.22 -32.52,31.65 -39.25,49.49 -4.83,12.81 -11.11,27.36 -21.04,38.15 -3.99,4.32 -7.26,4.41 -19.52,2.91 -2.86,-0.35 -6.11,-0.75 -9.51,-1.01 -5.87,-0.46 -11.32,3.12 -13.27,8.68 -1.94,5.56 0.1,11.74 4.98,15.04 18.02,12.22 34.38,14.95 48.64,8.13 2.62,-1.25 5.21,-2.56 7.72,-3.83 8.98,-4.55 17.47,-8.84 25.96,-9.89 7.38,-0.91 15.48,0.55 24.06,2.1 5.83,1.06 11.86,2.15 18.17,2.6 19.85,1.44 44.14,-6.73 50.61,-28.07 2.09,-6.91 1.75,-13.4 1.45,-19.12 -0.1,-1.95 -0.19,-3.78 -0.18,-5.46 0.03,-3.8 1.02,-6.08 1.47,-6.54 l -0.24,0.16 -11.34,-23.4 c -9.85,4.77 -15.79,15.84 -15.89,29.59 -0.02,2.45 0.1,4.77 0.22,7 0.2,3.95 0.4,7.68 -0.37,10.23 -2.12,6.98 -13.79,10.41 -23.85,9.68 -4.93,-0.36 -10.03,-1.28 -15.43,-2.25 -10.11,-1.84 -20.57,-3.72 -31.88,-2.33 -2.5,0.31 -4.92,0.77 -7.28,1.34 4.44,-8.26 7.9,-16.7 10.85,-24.54 5.37,-14.23 11.46,-30.36 22.61,-33.82 4.43,-1.37 10.25,-0.85 16.41,-0.29 2.23,0.19 4.54,0.4 6.91,0.53 20.82,1.16 31.42,-6.69 36.64,-13.48 l -20.63,-15.83"
         style="fill:#3a3a3c;fill-opacity:1;fill-rule:nonzero;stroke:none"
         id="path22"
         inkscape:connector-curvature="0" /><path
         d="m 2192.5,1248.61 c -14.14,0 -28.32,0.78 -42.17,2.32 -69.77,7.74 -171.24,38.68 -258.42,142.08 -10.99,13.05 -9.32,32.6 3.72,43.6 5.57,4.69 12.65,7.28 19.92,7.28 9.15,0 17.78,-4.01 23.67,-10.99 74.01,-87.8 159.37,-113.98 217.94,-120.48 11.81,-1.31 23.79,-1.98 35.62,-1.98 78.55,0 128.78,27.92 142.3,36.47 28.68,18.14 45.85,42.13 47.12,65.82 1.01,18.82 -8.13,36.44 -26.42,50.97 -18.33,14.56 -36.95,21.64 -56.91,21.64 -20.08,0 -42.09,-7.48 -65.43,-22.25 -15.03,-9.51 -24.37,-21.96 -24.98,-33.3 -0.45,-8.41 3.82,-16.25 12.71,-23.31 13.36,-10.61 15.59,-30.11 4.99,-43.46 -5.91,-7.44 -14.74,-11.7 -24.24,-11.7 -6.95,0 -13.78,2.38 -19.23,6.71 -24.76,19.67 -37.56,46.33 -36.02,75.07 1.71,31.78 21.28,61.77 53.69,82.28 33.39,21.12 66.62,31.83 98.77,31.83 33.83,0 65.84,-11.79 95.13,-35.06 34.16,-27.13 51.82,-63.62 49.72,-102.74 -2.35,-43.95 -29.99,-85.79 -75.82,-114.78 -26.53,-16.79 -59.68,-29.8 -95.85,-37.63 -25.73,-5.57 -52.59,-8.39 -79.81,-8.39"
         style="fill:#957e72;fill-opacity:1;fill-rule:nonzero;stroke:none"
         id="path24"
         inkscape:connector-curvature="0" /><path
         d="m 2299.13,1557.48 h -0.01 c -34.11,0 -69.19,-11.25 -104.24,-33.43 -35.26,-22.31 -56.57,-55.26 -58.45,-90.4 -1.73,-32.15 12.44,-61.86 39.88,-83.66 7.25,-5.76 16.35,-8.93 25.61,-8.93 12.64,0 24.41,5.67 32.27,15.57 6.85,8.62 9.93,19.39 8.67,30.32 -1.25,10.93 -6.69,20.72 -15.3,27.57 -6.14,4.87 -9.12,9.82 -8.85,14.72 0.42,7.91 8.17,17.55 20.22,25.18 21.67,13.71 41.84,20.66 59.94,20.66 17.55,0 34.08,-6.35 50.52,-19.41 15.81,-12.55 23.4,-26.82 22.56,-42.39 -1.09,-20.32 -16.53,-41.35 -42.35,-57.69 -12.94,-8.18 -61.03,-34.88 -136.82,-34.88 -11.45,0 -23.05,0.64 -34.49,1.91 -56.71,6.3 -139.39,31.69 -211.22,116.89 -7.85,9.31 -19.34,14.64 -31.51,14.64 -9.7,0 -19.13,-3.44 -26.55,-9.7 -17.37,-14.64 -19.59,-40.68 -4.94,-58.05 89.36,-106 193.5,-137.72 265.13,-145.68 14.22,-1.57 28.78,-2.37 43.3,-2.37 27.95,0 55.53,2.9 81.98,8.62 37.34,8.08 71.63,21.56 99.17,38.99 48.67,30.79 78.04,75.59 80.58,122.9 2.28,42.53 -16.75,82.07 -53.59,111.33 -31.15,24.74 -65.3,37.29 -101.51,37.29 m -0.01,-20.53 c 31.32,0 61.2,-10.95 88.75,-32.83 31.49,-25.01 47.78,-58.45 45.86,-94.16 -2.17,-40.59 -28.07,-79.46 -71.05,-106.66 -25.54,-16.15 -57.53,-28.69 -92.54,-36.27 -25.04,-5.41 -51.35,-8.16 -77.64,-8.16 -13.74,0 -27.48,0.75 -41.04,2.26 -67.91,7.54 -166.71,37.68 -251.7,138.5 -7.36,8.73 -6.25,21.77 2.48,29.13 3.88,3.27 8.61,4.87 13.32,4.87 5.88,0 11.72,-2.5 15.81,-7.35 76.2,-90.39 164.23,-117.35 224.66,-124.06 12.57,-1.4 24.86,-2.04 36.75,-2.04 63.83,0 116.83,18.47 147.79,38.06 31.52,19.94 50.43,46.89 51.88,73.94 1.19,22.28 -9.28,42.87 -30.29,59.56 -20.03,15.91 -41.02,23.87 -63.29,23.87 -22.26,0 -45.79,-7.95 -70.91,-23.84 -18.11,-11.46 -28.95,-26.56 -29.75,-41.43 -0.63,-11.75 5.1,-22.78 16.58,-31.9 8.94,-7.1 10.43,-20.1 3.33,-29.04 -4.08,-5.14 -10.11,-7.82 -16.2,-7.82 -4.51,0 -9.04,1.47 -12.84,4.49 -22.1,17.55 -33.51,41.16 -32.16,66.48 1.53,28.42 19.36,55.45 48.93,74.16 31.88,20.16 63.23,30.24 93.27,30.24"
         style="fill:#3a3a3c;fill-opacity:1;fill-rule:nonzero;stroke:none"
         id="path26"
         inkscape:connector-curvature="0" /><path
         d="m 2045.67,2288.72 c -1.09,0 -2.19,0.33 -3.14,1 -2.48,1.74 -3.07,5.16 -1.33,7.63 12.33,17.52 25.1,59.36 16.81,79.04 -1.17,2.79 0.14,6 2.92,7.17 2.79,1.17 6,-0.13 7.17,-2.92 10.15,-24.1 -4.08,-69.89 -17.95,-89.59 -1.06,-1.52 -2.76,-2.33 -4.48,-2.33"
         style="fill:#3a3a3c;fill-opacity:1;fill-rule:nonzero;stroke:none"
         id="path28"
         inkscape:connector-curvature="0" /><path
         d="m 2074.1,2282.65 c -1.52,0 -3.04,0.64 -4.12,1.88 -1.99,2.27 -1.76,5.74 0.52,7.72 13.91,12.14 49.49,39.77 79.57,34.3 2.97,-0.54 4.94,-3.39 4.4,-6.36 -0.54,-2.98 -3.38,-4.96 -6.36,-4.41 -20.73,3.77 -49.97,-13.94 -70.41,-31.78 -1.04,-0.9 -2.32,-1.35 -3.6,-1.35"
         style="fill:#3a3a3c;fill-opacity:1;fill-rule:nonzero;stroke:none"
         id="path30"
         inkscape:connector-curvature="0" /><path
         d="m 1786.98,2562.07 -19.64,15.43 71.94,34 33.84,17.2 0.66,0.38 21.79,13.77 1.56,1.27 c 5.58,-20.66 8.53,-58.94 -32.81,-86.35 l -77.34,4.3"
         style="fill:#646668;fill-opacity:1;fill-rule:nonzero;stroke:none"
         id="path32"
         inkscape:connector-curvature="0" /><path
         d="m 1899.15,2662.39 -7.96,-12.6 -21.79,-13.77 -33.84,-17.2 -83.73,-39.57 32.11,-25.24 82.59,-4.59 c 68.25,43.02 32.62,112.97 32.62,112.97 z m -7.77,-31.91 c 0.35,-2.77 0.58,-5.69 0.63,-8.71 0.37,-22.7 -9.72,-41.39 -30.02,-55.64 l -71.97,3.99 -7.16,5.63 59.72,28.22 0.42,0.21 33.84,17.21 1.33,0.75 13.21,8.34"
         style="fill:#3a3a3c;fill-opacity:1;fill-rule:nonzero;stroke:none"
         id="path34"
         inkscape:connector-curvature="0" /><path
         d="m 1625.07,1201.16 c -94.7,0 -168.92,25.67 -214.5,47.21 -49.54,23.4 -76.98,47.15 -77.25,47.39 l -33.41,29.19 19.39,-66.81 c -102.95,64.24 -170.98,233.79 -171.72,235.64 l -12.83,32.45 -15.15,-43.29 c -25.1,38.76 -43.28,81.69 -54.13,127.94 -10.3,43.91 -14.09,90.92 -11.25,139.75 4.87,83.64 27.8,144.32 28.03,144.92 l 20.8,54.3 -63.03,-60.51 c 6.78,139.73 107.66,300.41 108.75,302.13 l 28.83,45.47 -60.57,-35.63 c 37.68,139.14 227.75,265.95 229.79,267.29 l 5.85,3.86 v 6.99 c 0,35.8 32.87,71.21 60.45,94.62 11.18,9.48 22.44,17.81 32.3,24.61 -1.22,-10.37 0.7,-16.54 1.4,-18.37 l 6.3,-16.37 13.83,10.79 c 57.73,45.03 99.71,63.8 126.25,71.52 l -0.2,-0.4 -13.48,-26.95 28.86,8.69 c 50.74,15.29 89.87,24.52 115.03,29.77 l -32.32,-42.66 30.21,3.47 c 5.06,0.58 10.4,0.88 15.87,0.88 37.33,0 75.89,-13.41 100.37,-23.91 l -44.06,-17.95 42.62,-8.4 c 45.33,-8.94 67.2,-36.38 77.23,-55.66 l -1.02,-0.06 -31.32,-2.08 19.03,-16.65 c -1.59,0.42 -3.26,0.8 -5.04,1.12 -5.97,1.08 -11.23,1.63 -15.65,1.63 -8.98,0 -15.33,-2.31 -18.87,-6.87 l -1.52,-1.95 -39.58,-134.56 -86.96,-63.89 19.82,-151.93 c 0.26,-11.71 7.53,-96.84 156.52,-212.58 6.4,-4.97 12.7,-9.41 18.78,-13.7 25.52,-18 47.55,-33.54 66.51,-80.5 15.34,-38.02 3.33,-91.31 3.21,-91.84 l -1.84,-7.97 6.38,-5.1 c 21.28,-17.02 49.26,-37.52 61.75,-38.53 30.6,-2.48 49.76,-14.48 60.85,-24.86 l -25.09,-2.79 6.62,-15.98 c 32.42,-78.31 37.46,-140.79 14.98,-185.7 -21.94,-43.81 -62.93,-54.71 -63.34,-54.81 l -3.53,-0.9 -2.54,-2.6 c -0.45,-0.46 -45.75,-46.36 -116.11,-93.47 -64.43,-43.14 -163.72,-96.19 -270.89,-103.97 -13.14,-0.95 -26.4,-1.43 -39.41,-1.43"
         style="fill:#d4c1ba;fill-opacity:1;fill-rule:nonzero;stroke:none"
         id="path36"
         inkscape:connector-curvature="0" /><path
         d="m 1754.02,2676.25 c 0,0 -54.19,-7.54 -149.39,-36.21 0,0 6.88,13.76 25.23,24.09 0,0 -1.98,0.36 -5.94,0.36 -17.19,0 -71.76,-6.81 -164.96,-79.51 0,0 -5.74,14.91 11.47,44.73 0,0 -130.77,-71.11 -130.77,-150.26 0,0 -222.52,-146.81 -240.87,-303.96 l 39,22.94 c 0,0 -119.29,-188.11 -110.69,-339.52 l 43.01,41.3 c 0,0 -94.626,-246.04 53.34,-445.62 l 12.05,34.41 c 0,0 80.86,-204.74 204.74,-256.36 l -15.49,53.34 c 0,0 111.37,-97.82 300.32,-97.82 13.08,0 26.53,0.46 40.35,1.47 213.35,15.48 395.35,201.3 395.35,201.3 0,0 148.34,37.85 57.15,258.08 l 30.97,3.44 c 0,0 -20.65,43.01 -84.31,48.18 -11.15,0.9 -54.68,35.72 -54.68,35.72 0,0 13.24,57.37 -3.81,99.63 -25.09,62.13 -56.44,74.01 -89.37,99.59 -153.8,119.48 -151.51,203.22 -151.51,203.22 l -18.93,145.1 84.31,61.94 40.13,136.41 c 0,0 1.44,1.85 8.61,1.85 3.19,0 7.5,-0.36 13.33,-1.42 18.92,-3.44 21.29,-13.54 21.29,-13.54 0,0 8.4,22.94 -0.77,30.97 0,0 1.4,0.1 3.49,0.1 5.21,0 14.69,-0.59 17.15,-4.69 0,0 -13.76,69.97 -95.2,86.03 l 30.97,12.62 c 0,0 -67.26,37.88 -132.42,37.89 -5.82,0 -11.62,-0.31 -17.36,-0.96 l 34.21,45.16 m -62.48,-39.43 -29.17,-38.5 60.41,6.93 c 4.57,0.53 9.41,0.79 14.39,0.79 22.16,0 44.98,-5.11 64.68,-11.4 l -53.5,-21.8 85.24,-16.81 c 23.67,-4.67 42.62,-15.22 56.44,-31.41 l -41.22,-2.74 15.83,-13.86 c -6.02,-1.93 -10.85,-5.21 -14.44,-9.81 l -3.03,-3.9 -1.4,-4.74 -37.65,-127.98 -77.23,-56.75 -12.37,-9.09 1.98,-15.23 18.73,-143.59 c 0.26,-8.35 2.79,-31.95 20.99,-66.94 26.49,-50.95 73.78,-103.08 140.55,-154.95 6.64,-5.15 13.05,-9.68 19.26,-14.06 24.82,-17.5 44.42,-31.33 61.94,-74.74 11.38,-28.17 5.72,-70.26 2.6,-84.05 l -3.68,-15.93 12.77,-10.22 c 0.47,-0.37 11.55,-9.23 24.23,-18.33 25.33,-18.19 35.84,-22.29 44.59,-23 7.42,-0.6 14.05,-1.83 19.97,-3.48 l -1.79,-0.2 13.24,-31.97 c 17.07,-41.24 26.33,-78.26 27.52,-110.05 0.93,-24.65 -3.03,-46.18 -11.74,-64 -18.41,-37.65 -52.62,-48.1 -55.43,-48.91 l -6.79,-1.59 -5.27,-5.39 c -0.44,-0.44 -44.43,-45.07 -113.57,-91.44 -40.5,-27.15 -81.35,-49.38 -121.42,-66.06 -49.46,-20.6 -97.8,-32.73 -143.66,-36.06 -12.83,-0.93 -25.78,-1.4 -38.47,-1.4 -40.52,0 -80.58,4.77 -119.06,14.19 -30.84,7.55 -60.77,18.09 -88.95,31.33 -48.21,22.65 -74.93,45.65 -75.15,45.83 l -67.23,59.69 21.26,-73.22 c -27.83,24.48 -55.52,58.58 -81.97,101.16 -34.21,55.08 -54.1,104.93 -54.29,105.41 l -25.66,64.96 -17.52,-50.07 c -17.08,31.01 -29.89,64.45 -38.26,99.93 -10.04,42.57 -13.77,88.22 -11.08,135.68 4.63,81.8 27.01,141.27 27.22,141.83 l 41.88,108.87 -79.73,-76.54 c 6.77,45.1 22.35,96.26 46.2,151.11 27.61,63.52 56.73,109.74 57.02,110.19 l 57.66,90.93 -75.88,-44.64 c 19.25,43.01 53.75,89.23 102.08,136.36 55.54,54.14 109.84,90.24 110.37,90.59 l 11.69,7.71 v 13.99 c 0,23.98 19.72,53.96 55.54,84.43 4.6,3.91 9.21,7.62 13.73,11.1 l 12.34,-32.08 27.67,21.58 c 33.03,25.77 63.84,45.2 91.79,57.92 l -12.32,-24.64 57.71,17.38 c 31.06,9.36 57.72,16.43 79.41,21.68"
         style="fill:#3a3a3c;fill-opacity:1;fill-rule:nonzero;stroke:none"
         id="path38"
         inkscape:connector-curvature="0" /><path
         d="m 1665.74,1189.65 c 0.04,0 0.06,0.01 0.1,0.01 -0.03,0 -0.07,-0.01 -0.1,-0.01 m 0.32,0.02 c 0.03,0.01 0.06,0.01 0.1,0.01 -0.04,0 -0.07,0 -0.1,-0.01 m 0.32,0.03 c 0.01,0 0.06,0 0.07,0 -0.02,0 -0.05,0 -0.07,0 m 0.32,0.02 c 0.01,0 0.04,0.01 0.05,0.01 -0.01,0 -0.03,-0.01 -0.05,-0.01 m 0.33,0.03 v 0 0 m -279.42,55.53 c -40.76,21.34 -62.68,40.54 -62.86,40.7 v 0 c 0,0 21.94,-19.27 62.86,-40.7 m -360.51,613.63 c -7.77,136.85 88.92,303.68 107.6,334.5 -18.68,-30.82 -115.37,-197.65 -107.6,-334.5 v 0"
         style="fill:#dddad7;fill-opacity:1;fill-rule:nonzero;stroke:none"
         id="path40"
         inkscape:connector-curvature="0" /><path
         d="m 1625.07,1214.16 c -40.52,0 -80.58,4.77 -119.06,14.19 -30.84,7.55 -60.77,18.09 -88.95,31.33 -48.21,22.65 -74.93,45.65 -75.15,45.83 l -67.23,59.69 21.26,-73.22 c -27.83,24.48 -55.52,58.58 -81.97,101.16 -34.21,55.08 -54.1,104.93 -54.29,105.41 l -25.66,64.96 -17.52,-50.07 c -17.08,31.01 -29.89,64.45 -38.26,99.93 -10.04,42.57 -13.77,88.22 -11.08,135.68 4.63,81.8 27.01,141.27 27.22,141.83 l 41.88,108.87 -79.73,-76.54 c 6.77,45.1 22.35,96.26 46.2,151.11 27.61,63.52 56.73,109.74 57.02,110.19 l 47.13,74.33 c -9.12,-26.79 -13.12,-54.92 -10.22,-83.62 5.07,-50.18 30.75,-98.45 24.61,-148.51 -8.71,-70.93 -78.21,-122.12 -89.8,-192.64 -10.57,-64.25 29.79,-125.73 75.19,-172.41 45.4,-46.67 99.09,-88.16 126.91,-147.03 21.55,-45.62 25.58,-98.03 47.51,-143.48 41.97,-86.94 140.69,-131.47 235.47,-149.85 12.38,-2.4 24.83,-4.48 37.33,-6.35 -9.64,-0.53 -19.29,-0.79 -28.81,-0.79 M 1141.53,2230.8 c 15.61,34.88 41.25,71.86 76.16,109.74 7.73,-4.85 16.57,-8.55 26.51,-11.1 -13.05,-18.01 -24.08,-37.19 -32.3,-57.24 l -70.37,-41.4"
         style="fill:#b7a59e;fill-opacity:1;fill-rule:nonzero;stroke:none"
         id="path42"
         inkscape:connector-curvature="0" /><path
         d="m 1625.07,1188.16 c -105.08,0 -186.18,30.26 -237.46,57.12 -40.92,21.43 -62.86,40.7 -62.86,40.7 v 0 0 l 15.49,-53.34 C 1216.36,1284.26 1135.5,1489 1135.5,1489 l -12.05,-34.41 c -64.95,87.61 -83.16,184.17 -83.14,264.94 0.02,103.24 29.8,180.68 29.8,180.68 v 0 0 l -43.01,-41.3 c -7.77,136.85 88.92,303.68 107.6,334.5 1.99,3.29 3.09,5.02 3.09,5.02 v 0 0 l -39,-22.94 c 7.71,65.98 51.41,130.15 99.52,182.39 5.39,-6.86 11.86,-12.64 19.38,-17.34 -34.91,-37.88 -60.55,-74.86 -76.16,-109.74 l 70.37,41.4 c -1.81,-4.41 -3.49,-8.87 -5.02,-13.36 l -47.13,-74.33 c -0.29,-0.45 -29.41,-46.67 -57.02,-110.19 -23.85,-54.85 -39.43,-106.01 -46.2,-151.11 l 79.73,76.54 -41.88,-108.87 c -0.21,-0.56 -22.59,-60.03 -27.22,-141.83 -2.69,-47.46 1.04,-93.11 11.08,-135.68 8.37,-35.48 21.18,-68.92 38.26,-99.93 l 17.52,50.07 25.66,-64.96 c 0.19,-0.48 20.08,-50.33 54.29,-105.41 26.45,-42.58 54.14,-76.68 81.97,-101.16 l -21.26,73.22 67.23,-59.69 c 0.22,-0.18 26.94,-23.18 75.15,-45.83 28.18,-13.24 58.11,-23.78 88.95,-31.33 38.48,-9.42 78.54,-14.19 119.06,-14.19 9.52,0 19.17,0.26 28.81,0.79 30.6,-4.58 61.46,-7.9 92.2,-11.57 -25.64,-6.77 -52.09,-11.56 -79.05,-13.63 v 0 c -0.09,-0.01 -0.18,-0.02 -0.28,-0.02 -0.01,0 -0.04,-0.01 -0.05,-0.01 -0.08,0 -0.16,-0.01 -0.25,-0.02 -0.01,0 -0.06,0 -0.07,0 -0.08,-0.01 -0.15,-0.01 -0.22,-0.02 -0.04,0 -0.07,0 -0.1,-0.01 -0.07,0 -0.15,-0.01 -0.22,-0.01 -0.04,0 -0.06,-0.01 -0.1,-0.01 -0.11,-0.01 -0.21,-0.01 -0.32,-0.02 v 0 0 c -13.82,-1 -27.27,-1.47 -40.35,-1.47"
         style="fill:#3d3939;fill-opacity:1;fill-rule:nonzero;stroke:none"
         id="path44"
         inkscape:connector-curvature="0" /><path
         d="m 1458.96,2584.98 c 32.58,25.41 60.43,42.77 83.63,54.61 -23.19,-11.84 -51.06,-29.2 -83.63,-54.61 m 83.63,54.61 c 0.06,0.03 0.12,0.06 0.17,0.09 -0.05,-0.03 -0.11,-0.06 -0.17,-0.09 m 0.2,0.1 c 0.06,0.03 0.11,0.06 0.17,0.09 -0.06,-0.03 -0.11,-0.06 -0.17,-0.09 m 0.19,0.1 c 0.05,0.03 0.1,0.05 0.15,0.07 -0.05,-0.02 -0.1,-0.05 -0.15,-0.07 m 0.2,0.1 c 0.05,0.02 0.09,0.05 0.14,0.07 -0.04,-0.02 -0.09,-0.05 -0.14,-0.07 m 0.19,0.1 c 0.03,0.01 0.06,0.03 0.09,0.05 -0.03,-0.02 -0.06,-0.04 -0.09,-0.05 m 0.2,0.1 c 0.01,0 0.01,0 0.02,0.01 -0.01,-0.01 -0.02,-0.01 -0.02,-0.01 m 0.57,0.29 c 0.03,0.01 0.05,0.02 0.08,0.03 -0.02,-0.01 -0.05,-0.02 -0.08,-0.03 m 0.2,0.1 c 0.01,0 0.01,0 0.02,0.01 -0.01,-0.01 -0.01,-0.01 -0.02,-0.01 m 0.19,0.09 v 0 0 m 0.19,0.1 c 0.01,0 0,0 0.01,0 h -0.01 m 0.39,0.19 c 0,0 0,0 0.01,0.01 -0.01,-0.01 -0.01,-0.01 -0.01,-0.01 m 64.54,22.43 c 0.02,0 0.03,0 0.04,0 -0.01,0 -0.02,0 -0.04,0 m 0.1,0.01 c 0,0 0,0 0.01,0 -0.01,0 -0.01,0 -0.01,0 m 0.09,0.01 c 0.02,0.01 0.04,0.01 0.06,0.01 -0.02,0 -0.04,0 -0.06,-0.01 m 0.09,0.01 c 6.04,0.92 10.7,1.17 13.99,1.17 3.96,0 5.94,-0.36 5.94,-0.36 0,0 -1.98,0.36 -5.94,0.36 v 0 c -3.3,0 -7.95,-0.25 -13.99,-1.17"
         style="fill:#dddad7;fill-opacity:1;fill-rule:nonzero;stroke:none"
         id="path46"
         inkscape:connector-curvature="0" /><path
         d="m 1337.27,2419.19 -11.99,17.9 c 17.29,13.08 28.46,20.5 28.7,20.66 l 11.69,7.71 v 13.99 c 0,23.98 19.72,53.96 55.54,84.43 4.6,3.91 9.21,7.62 13.73,11.1 l 12.34,-32.08 27.67,21.58 c 33.03,25.77 63.84,45.2 91.79,57.92 l -12.32,-24.64 57.71,17.38 c 13.09,3.95 25.39,7.48 36.87,10.65 -39.26,-27.43 -95.96,-46.25 -131.72,-68.6 -70.96,-44.35 -116.73,-88.53 -180.01,-138"
         style="fill:#b7a59e;fill-opacity:1;fill-rule:nonzero;stroke:none"
         id="path48"
         inkscape:connector-curvature="0" /><path
         d="m 1325.28,2437.09 -14.5,21.66 c 17.64,13.29 28.88,20.7 28.88,20.7 0,79.15 130.77,150.26 130.77,150.26 -10.32,-17.88 -12.39,-30.4 -12.39,-37.56 0,-4.78 0.92,-7.17 0.92,-7.17 v 0 c 32.57,25.41 60.44,42.77 83.63,54.61 v 0 c 0.06,0.03 0.12,0.06 0.17,0.09 0.01,0 0.02,0.01 0.03,0.01 0.06,0.03 0.11,0.06 0.17,0.09 0,0 0.02,0.01 0.02,0.01 0.05,0.02 0.1,0.05 0.15,0.07 0.01,0.01 0.03,0.02 0.05,0.03 0.05,0.02 0.1,0.05 0.14,0.07 0.02,0.01 0.04,0.02 0.05,0.03 0.03,0.01 0.06,0.03 0.09,0.05 0.04,0.01 0.07,0.03 0.11,0.05 0,0 0.01,0 0.02,0.01 0.18,0.09 0.37,0.19 0.55,0.28 0.03,0.01 0.06,0.02 0.08,0.03 0.04,0.03 0.08,0.05 0.12,0.07 0.01,0 0.01,0 0.02,0.01 0.06,0.03 0.12,0.06 0.17,0.08 v 0 c 0.07,0.04 0.13,0.07 0.19,0.1 h 0.01 c 0.12,0.06 0.25,0.13 0.38,0.19 0,0 0,0 0.01,0.01 28.97,14.49 50.45,20.25 64.53,22.42 0.02,0 0.03,0 0.04,0 0.02,0 0.04,0.01 0.06,0.01 0,0 0,0 0.01,0 0.02,0 0.05,0.01 0.08,0.01 0.02,0.01 0.04,0.01 0.06,0.01 0.01,0 0.02,0 0.03,0 6.04,0.92 10.69,1.17 13.99,1.17 v 0 c 3.96,0 5.94,-0.36 5.94,-0.36 v 0 c -18.35,-10.33 -25.23,-24.09 -25.23,-24.09 v 0 0 c 27.99,8.43 53.67,13.27 76.02,15.93 -7.77,-11.27 -18.77,-21.19 -31.65,-30.18 -11.48,-3.17 -23.78,-6.7 -36.87,-10.65 l -57.71,-17.38 12.32,24.64 c -27.95,-12.72 -58.76,-32.15 -91.79,-57.92 l -27.67,-21.58 -12.34,32.08 c -4.52,-3.48 -9.13,-7.19 -13.73,-11.1 -35.82,-30.47 -55.54,-60.45 -55.54,-84.43 v -13.99 l -11.69,-7.71 c -0.24,-0.16 -11.41,-7.58 -28.7,-20.66"
         style="fill:#3d3939;fill-opacity:1;fill-rule:nonzero;stroke:none"
         id="path50"
         inkscape:connector-curvature="0" /><path
         d="m 1205.62,2507.73 c 0,0 -72.69,-175.13 77.43,-173.63 23.03,0.23 49.05,21.02 47.54,79.07 l -40.53,60.55 -47.54,25.02 -23.52,9.01 -13.38,-0.02"
         style="fill:#646668;fill-opacity:1;fill-rule:nonzero;stroke:none"
         id="path52"
         inkscape:connector-curvature="0" /><path
         d="m 1211.77,2498.84 c -7.07,-19.6 -28.34,-87.11 -2.2,-126.22 13.14,-19.66 37.22,-29.64 71.57,-29.64 h 0.02 l 1.8,0.02 c 5.84,0.05 14.47,1.84 22.38,10.05 7.76,8.04 16.79,24.49 16.41,57.34 l -37.83,56.51 -45.08,23.72 -21.48,8.23 -5.59,-0.01 m 69.39,-173.64 h -0.02 c -40.67,0 -69.74,12.64 -86.38,37.57 -35.93,53.82 1.06,144.53 2.65,148.37 1.37,3.31 4.61,5.47 8.2,5.48 l 13.37,0.02 h 0.02 c 1.09,0 2.16,-0.2 3.18,-0.59 l 23.52,-9 0.96,-0.44 47.54,-25.02 c 1.31,-0.69 2.43,-1.7 3.25,-2.92 l 40.54,-60.55 c 0.93,-1.4 1.45,-3.04 1.5,-4.72 1.05,-40.72 -11.03,-62.01 -21.35,-72.7 -9.51,-9.86 -21.94,-15.36 -35,-15.49 l -1.98,-0.01"
         style="fill:#3a3a3c;fill-opacity:1;fill-rule:nonzero;stroke:none"
         id="path54"
         inkscape:connector-curvature="0" /><path
         d="m 1450.22,1634.26 c -47.4,15.24 -54.18,72.79 -54.18,72.79 -28.77,-21.16 -39.78,-55.01 -39.78,-55.01 -36.39,67.71 -11,132.89 -11,132.89 l 110.04,-11.57 c 1,-0.22 2.03,-0.33 3.11,-0.33 26.21,0 74.33,63.55 132.88,64.09 0.18,0.01 0.35,0.01 0.53,0.01 29.52,0 41.85,-23.02 45.18,-28.22 12.97,-20.32 31.03,-29.34 45.14,-37.25 5.49,-3.07 18.14,-4.01 31.56,-4.01 21.08,0 44.05,2.32 44.05,2.32 -5.07,-18.62 -44.01,-31.03 -44.01,-31.03 l 32.73,-16.93 c -14.67,-22.57 -67.72,-31.6 -67.72,-31.6 2.26,-6.77 16.93,-31.6 16.93,-31.6 -58.4,3.38 -91.41,70.25 -91.41,70.25 -4.32,0.61 -8.3,0.9 -11.98,0.9 -57.59,0 -39.65,-70.31 -39.65,-70.31 -9.3,-1.96 -17.64,-2.79 -25.1,-2.79 -40.8,0 -55.32,24.8 -55.32,24.8 -14.39,-8.46 -22,-47.4 -22,-47.4"
         style="fill:#bdaea8;fill-opacity:1;fill-rule:nonzero;stroke:none"
         id="path56"
         inkscape:connector-curvature="0" /><path
         d="m 1309.21,2366.51 c -4.39,0 -9.3,0.7 -14.15,3.24 -29.79,15.61 -37.06,35.43 -48.93,66.9 -7.77,20.6 -10.26,43.13 -24.73,60.65 l 17.44,-6.68 45.08,-23.72 37.83,-56.51 c 0.23,-20.02 -3.03,-33.95 -7.37,-43.6 -1.61,-0.16 -3.34,-0.28 -5.17,-0.28"
         style="fill:#454547;fill-opacity:1;fill-rule:nonzero;stroke:none"
         id="path58"
         inkscape:connector-curvature="0" /><path
         d="m 1314.38,2366.79 c 4.34,9.65 7.6,23.58 7.37,43.6 l -37.83,56.51 -45.08,23.72 -17.44,6.68 c -3.89,4.72 -8.67,9.08 -14.64,12.94 0.72,1.92 1.16,2.96 1.16,2.96 l 13.37,0.02 23.52,-9.01 47.54,-25.02 37.38,-59.06 c 0.78,-30.02 1.08,-38.46 -7.04,-52.55 -0.19,0.02 -0.4,0.03 -0.62,0.03 -1.35,0 -3.2,-0.28 -5.39,-0.56 -0.73,-0.09 -1.5,-0.17 -2.3,-0.26"
         style="fill:#2c2b2b;fill-opacity:1;fill-rule:nonzero;stroke:none"
         id="path60"
         inkscape:connector-curvature="0" /><path
         d="m 1341.96,1811.6 c 0,0 -25.81,-66.24 11.18,-135.06 0,0 11.19,34.41 40.43,55.92 0,0 6.89,-58.5 55.06,-73.99 0,0 7.74,39.58 22.37,48.18 0,0 20.65,-35.27 81.72,-22.37 0,0 -20.64,80.87 52.48,70.54 0,0 33.55,-67.96 92.91,-71.4 0,0 -14.91,25.24 -17.21,32.12 0,0 53.91,9.17 68.83,32.12 l -33.27,17.2 c 0,0 39.57,12.62 44.74,31.54 0,0 -62.52,-6.31 -76.85,1.73 -14.34,8.02 -32.7,17.2 -45.89,37.85 -3.39,5.31 -16.06,28.95 -46.45,28.67 -61.94,-0.57 -112.41,-70.54 -138.22,-64.81"
         style="fill:#d4c1ba;fill-opacity:1;fill-rule:nonzero;stroke:none"
         id="path62"
         inkscape:connector-curvature="0" /><path
         d="m 1454.39,1648.72 -8.06,2.59 c -37.97,12.2 -52.41,47.77 -57.58,67.24 -20.18,-19.44 -28.36,-44.06 -28.45,-44.34 l -5.44,-16.75 -8.35,15.52 c -38.19,71.06 -12.67,138.52 -11.56,141.36 l 14.03,-5.46 c -0.23,-0.58 -20.57,-54.81 3.88,-114.18 6.54,12.68 18.1,30.47 36.26,43.82 l 10.42,7.66 1.51,-12.84 c 0.06,-0.5 6.15,-47.39 42.19,-64.64 3.44,13.53 11.05,36.85 23.94,44.44 l 6.5,3.82 3.81,-6.51 c 0.7,-1.13 17.52,-27.7 66.4,-20.14 -2.09,13.46 -3.93,40.95 11.58,58.26 11.02,12.3 28.1,16.9 50.78,13.71 l 3.94,-0.56 1.76,-3.56 c 0.28,-0.58 26.59,-52.6 71.76,-64.8 -4.18,7.47 -8.62,15.82 -9.95,19.8 l -2.77,8.32 8.65,1.48 c 12.19,2.08 42.97,9.75 58.01,22.47 l -40.77,21.09 17.3,5.51 c 7.81,2.5 21.66,8.44 30.85,15.48 -20.83,-1.4 -52.99,-2.32 -64.36,4.05 -1,0.55 -2.01,1.12 -3.05,1.69 -14.35,7.96 -32.21,17.87 -45.5,38.67 l -0.76,1.22 c -4.08,6.63 -14.9,24.2 -39.28,23.99 -33.14,-0.31 -63.82,-22.71 -88.47,-40.7 -20.75,-15.15 -37.14,-27.11 -51.45,-23.93 l 3.27,14.69 c 7.68,-1.72 23.75,10.04 39.3,21.4 26.39,19.26 59.24,43.23 97.21,43.59 21.79,0.14 39.38,-10.28 52.23,-31.14 l 0.64,-1.01 c 11.24,-17.6 26.58,-26.11 40.12,-33.62 1.05,-0.58 2.08,-1.15 3.09,-1.72 8.46,-4.73 47.44,-3.31 72.42,-0.8 l 10.9,1.1 -2.88,-10.57 c -3.82,-13.98 -20.73,-24.34 -33.87,-30.46 l 25.98,-13.44 -4.53,-6.97 c -12.69,-19.51 -47.05,-29.55 -64.28,-33.48 3.66,-6.98 9.1,-16.5 12.83,-22.82 l 7.19,-12.16 -14.11,0.82 c -55.46,3.22 -89.04,57.07 -97.28,71.91 -15.44,1.54 -26.77,-1.57 -33.68,-9.27 -15.38,-17.12 -6.78,-52.07 -6.69,-52.42 l 1.92,-7.59 -7.66,-1.62 c -48.36,-10.22 -73.67,7.81 -84.03,18.66 -6.29,-8.79 -11.84,-26.38 -14.23,-38.55 l -1.63,-8.31"
         style="fill:#3a3a3c;fill-opacity:1;fill-rule:nonzero;stroke:none"
         id="path64"
         inkscape:connector-curvature="0" /><path
         d="m 1950.69,1709.37 -2.23,0.03 c -24.85,0.76 -48.54,14.1 -70.43,39.65 -2.7,3.16 -2.34,7.91 0.82,10.61 3.16,2.71 7.91,2.34 10.61,-0.82 19.02,-22.19 39.03,-33.76 59.46,-34.39 l 1.76,-0.02 c 26.91,0 45.58,18.94 45.77,19.14 2.89,2.98 7.66,3.06 10.64,0.16 2.99,-2.89 3.07,-7.66 0.17,-10.64 -0.95,-0.99 -23.37,-23.72 -56.57,-23.72"
         style="fill:#3a3a3c;fill-opacity:1;fill-rule:nonzero;stroke:none"
         id="path66"
         inkscape:connector-curvature="0" /><path
         d="m 1877.62,1759.13 c -23.21,-20.43 -21.22,-48.75 -21.22,-48.75 -9.75,9.17 -9.75,45.88 -9.75,45.88 -24.66,-36.71 -45.88,-34.41 -45.88,-34.41 8.03,9.17 11.47,33.83 11.47,33.83 -25.24,-13.19 -34.41,7.46 -34.41,7.46 15.48,-4.01 25.23,17.49 25.23,17.49 -4.3,65.38 56.78,62.8 56.78,62.8 0,0 40.15,2.3 39.57,-48.17 0,0 -7.45,-23.52 -21.79,-36.13"
         style="fill:#f4f4f5;fill-opacity:1;fill-rule:nonzero;stroke:none"
         id="path68"
         inkscape:connector-curvature="0" /><path
         d="m 1812.24,1760.47 c 0.97,0 1.93,-0.29 2.76,-0.87 1.46,-1.03 2.23,-2.8 1.98,-4.58 -0.27,-1.97 -2.27,-15.43 -6.81,-26.34 7.64,3.11 19.49,10.88 32.5,30.25 1.18,1.75 3.36,2.52 5.37,1.91 2.02,-0.61 3.4,-2.48 3.4,-4.58 0,-7.94 0.78,-18.38 2.43,-27.06 2.69,10.21 8.43,22.83 20.58,33.52 11.88,10.45 18.88,29.57 20.18,33.33 0.04,14.72 -3.58,25.87 -10.78,33.15 -8.9,9 -20.9,9.46 -23.22,9.46 l -0.54,-0.01 -0.45,-0.01 -0.73,0.01 c -4.11,0 -25.3,-0.74 -39.01,-15.37 -9.2,-9.83 -13.26,-24.07 -12.06,-42.33 l -0.42,-2.3 c -0.33,-0.73 -7.33,-15.86 -19.72,-19.85 2.21,-1.53 5.15,-2.73 8.93,-2.73 v 0 c 3.99,0 8.49,1.3 13.39,3.86 l 2.22,0.54 m 44.16,-54.88 c -1.2,0 -2.38,0.45 -3.28,1.3 -7.09,6.67 -9.73,23.29 -10.7,35.64 -19.37,-23.47 -35.84,-25.5 -40.89,-25.5 l -1.28,0.06 c -1.75,0.22 -3.29,1.4 -3.91,3.05 -0.63,1.66 -0.34,3.53 0.82,4.86 4.06,4.63 7.05,14.93 8.79,22.93 -3.22,-0.96 -6.33,-1.44 -9.31,-1.44 h -0.01 c -16.46,0 -22.91,14.1 -23.18,14.71 -0.75,1.68 -0.46,3.64 0.72,5.04 1.19,1.4 3.08,2 4.86,1.53 l 2.63,-0.34 c 7.68,0 14.11,9.43 16.55,14.17 -1.11,20.41 3.84,36.63 14.7,48.22 16.41,17.53 41.2,18.41 46,18.41 l 0.9,-0.01 0.82,0.02 c 4.19,0 18.74,-0.89 30.03,-12.3 9.19,-9.3 13.74,-23 13.54,-40.74 l -0.22,-1.39 c -0.32,-1.01 -8.03,-24.93 -23.2,-38.28 -19.73,-17.37 -19.73,-41.04 -19.62,-44.41 l 0.06,-0.74 c 0,-2.65 -2.14,-4.79 -4.79,-4.79 h -0.03"
         style="fill:#3a3a3c;fill-opacity:1;fill-rule:nonzero;stroke:none"
         id="path70"
         inkscape:connector-curvature="0" /><path
         d="m 1460.27,1504.12 c 0,0 28.17,82.34 81.25,113.76 l -3.25,-40.09 c 0,0 53.09,44.42 138.68,62.84 l -11.92,-36.84 c 0,0 73.67,-1.08 91,-36.83 l -22.75,-3.25 40.09,-50.92 -72.97,-116.12 c 0,0 -64.62,-25.81 -72.21,-74.56"
         style="fill:#d4c1ba;fill-opacity:1;fill-rule:nonzero;stroke:none"
         id="path72"
         inkscape:connector-curvature="0" /><path
         d="m 1637.66,1320.64 -18.93,2.94 c 7.44,47.81 61.62,74.7 75.16,80.72 l 67.78,107.87 -46.19,58.67 22.53,3.22 c -19.49,15.59 -57.52,19.9 -73.13,20.15 l -12.94,0.21 10.63,32.89 c -72.74,-19.38 -117.67,-56.47 -118.15,-56.87 l -17.54,-14.68 3.41,42.06 c -39.19,-34.42 -60.72,-96.11 -60.96,-96.81 l -18.12,6.21 c 1.19,3.5 29.95,86.06 85.43,118.9 l 15.93,9.42 -3.07,-37.79 c 22.65,15 66.36,39.53 125.43,52.24 l 16.25,3.5 -13.23,-40.9 c 23.35,-2.18 71.65,-10.41 86.7,-41.46 l 5.73,-11.8 -19.29,-2.76 33.98,-43.16 -78.22,-124.48 -2.89,-1.16 c -0.59,-0.24 -59.66,-24.43 -66.3,-67.13"
         style="fill:#3a3a3c;fill-opacity:1;fill-rule:nonzero;stroke:none"
         id="path74"
         inkscape:connector-curvature="0" /><path
         d="m 2042.06,1521.51 -0.86,0.05 c -4.13,0.47 -7.1,4.2 -6.63,8.33 9.21,80.85 -70.64,159.81 -71.44,160.6 -2.98,2.9 -3.04,7.67 -0.14,10.64 2.9,2.98 7.66,3.04 10.64,0.14 3.52,-3.42 85.95,-84.84 75.9,-173.08 -0.44,-3.84 -3.7,-6.68 -7.47,-6.68"
         style="fill:#3a3a3c;fill-opacity:1;fill-rule:nonzero;stroke:none"
         id="path76"
         inkscape:connector-curvature="0" /><path
         d="m 1684.35,1798.13 c -14.34,8.02 -32.7,17.2 -45.89,37.85 -0.6,0.94 -1.51,2.47 -2.73,4.32 l -29.67,8.29 14.63,-48.17 -33.55,-22.37 18.06,-23.23 c 0,0 33.55,-67.96 92.91,-71.4 0,0 -14.91,25.24 -17.21,32.12 0,0 53.91,9.17 68.83,32.12 l -33.27,17.2 c 0,0 39.57,12.62 44.74,31.54 0,0 -62.52,-6.31 -76.85,1.73"
         style="fill:#f4f4f5;fill-opacity:1;fill-rule:nonzero;stroke:none"
         id="path78"
         inkscape:connector-curvature="0" /><path
         d="m 1593.09,1777.09 15.35,-19.75 0.44,-0.7 c 0.31,-0.62 30.17,-59.79 81.59,-68.25 -4.7,8.18 -11.82,20.91 -13.46,25.85 -0.38,1.14 -0.24,2.38 0.37,3.41 0.62,1.03 1.65,1.74 2.83,1.94 0.49,0.08 46.38,8.1 63.26,26.68 l -28.9,14.94 c -1.47,0.77 -2.34,2.34 -2.2,3.99 0.14,1.66 1.26,3.07 2.84,3.57 8.91,2.85 30.57,11.78 39.01,22.9 -8.69,-0.71 -23.72,-1.73 -37.8,-1.73 -17.41,0 -28.55,1.51 -34.08,4.6 -1,0.56 -2.02,1.13 -3.06,1.7 -14.01,7.78 -31.45,17.45 -44.28,37.53 l -0.73,1.17 -1.14,1.83 -20.97,5.86 12.45,-41.02 c 0.53,-1.73 -0.14,-3.6 -1.65,-4.61 z m 105.02,-97.77 h -0.24 c -59.35,3.45 -93.04,67.14 -96.16,73.3 l -17.82,22.91 c -0.7,0.9 -0.99,2.05 -0.81,3.18 0.19,1.13 0.83,2.12 1.78,2.75 l 31.01,20.68 -13.74,45.26 c -0.43,1.44 -0.05,2.99 1,4.06 1.04,1.08 2.59,1.49 4.04,1.09 l 29.66,-8.29 c 0.95,-0.27 1.77,-0.87 2.32,-1.69 0.85,-1.28 1.55,-2.41 2.11,-3.31 l 0.66,-1.07 c 11.71,-18.33 27.46,-27.06 41.35,-34.77 1.04,-0.58 2.07,-1.15 3.08,-1.72 2.37,-1.32 9.43,-3.55 30.07,-3.55 20.96,0 44.13,2.31 44.36,2.34 1.35,0.14 2.68,-0.4 3.55,-1.44 0.87,-1.03 1.18,-2.42 0.83,-3.73 -4.14,-15.16 -25.8,-25.96 -38.52,-31.11 l 24.97,-12.91 c 1.03,-0.53 1.79,-1.48 2.08,-2.6 0.3,-1.11 0.11,-2.31 -0.52,-3.28 -13.06,-20.09 -52.29,-29.96 -66.47,-32.94 3.72,-7.62 11.31,-20.8 14.73,-26.6 0.51,-0.69 0.81,-1.54 0.81,-2.46 0,-2.27 -1.84,-4.1 -4.1,-4.1 h -0.03"
         style="fill:#3a3a3c;fill-opacity:1;fill-rule:nonzero;stroke:none"
         id="path80"
         inkscape:connector-curvature="0" /><path
         d="m 1804.46,2047.71 c -40,56.18 -39.26,90.72 -39.25,91.08 -0.01,-0.36 -0.73,-34.9 39.25,-91.08 v 0 m -39.25,91.08 v 0 0 m 0,0 v 0 0 0 m -18.93,145.1 v 0 l 84.31,61.94 31.41,106.77 c 1.61,-1.33 3.25,-2.71 4.92,-4.12 l -36.33,-102.65 -84.31,-61.94"
         style="fill:#d2d2d0;fill-opacity:1;fill-rule:nonzero;stroke:none"
         id="path82"
         inkscape:connector-curvature="0" /><path
         d="m 1583.76,1964.28 c -109.66,0 -183.88,115.44 -183.88,115.44 l -3.44,-34.41 c -48.17,49.89 -51.61,116.99 -51.61,116.99 l -13.77,-25.8 c -25.81,75.7 3.44,135.92 3.44,135.92 l -34.41,-22.37 c 71.85,175.13 173.22,224.59 264.87,224.59 119.05,0 221.67,-83.5 221.67,-83.5 23.09,53.47 38.34,70.99 51.52,72.52 l -30.03,-102.07 -77.23,-56.75 -12.37,-9.09 1.98,-15.23 18.73,-143.59 c 0.26,-8.35 2.79,-31.95 20.99,-66.94 6.14,-11.8 13.39,-23.67 21.74,-35.58 -65.28,-35.93 -121.31,-43.8 -157.89,-43.79 -28.54,0 -45.25,4.79 -45.25,4.79 l 12.04,-30.97 c -2.38,-0.1 -4.74,-0.16 -7.1,-0.16"
         style="fill:#ab9d98;fill-opacity:1;fill-rule:nonzero;stroke:none"
         id="path84"
         inkscape:connector-curvature="0" /><path
         d="m 1781.96,2034.41 c -8.35,11.91 -15.6,23.78 -21.74,35.58 -18.2,34.99 -20.73,58.59 -20.99,66.94 l -18.73,143.59 -1.98,15.23 12.37,9.09 77.23,56.75 30.03,102.07 c 0.66,0.08 1.31,0.12 1.96,0.12 7.52,0 14.45,-5.02 21.89,-11.18 l -31.41,-106.77 -84.31,-61.94 18.93,-145.1 v 0 0 0 c 0,0 0,0 0,0 -0.01,-0.36 -0.75,-34.9 39.25,-91.08 -7.6,-4.81 -15.11,-9.24 -22.5,-13.3"
         style="fill:#333233;fill-opacity:1;fill-rule:nonzero;stroke:none"
         id="path86"
         inkscape:connector-curvature="0" /><path
         d="m 1785.48,2463.62 c 0,0 -272.99,217.93 -479.65,-190.41 l 34.41,22.37 c 0,0 -29.25,-60.22 -3.44,-135.92 l 13.76,25.8 c 0,0 3.44,-67.1 51.62,-116.99 l 3.44,34.41 c 0,0 77.42,-120.44 190.98,-115.27 l -12.05,30.96 c 0,0 161.73,-46.45 338.95,149.69 0,0 140.71,21.79 192.32,-2.3 0,0 26.58,-24.66 70.54,29.83 34.11,42.26 -49.51,70.54 -49.51,70.54 0,0 -6.34,9.27 -9.47,11.19 -45.32,27.78 -134.03,34.36 -160.63,73.41 -33.64,49.37 -106.71,110.39 -96.39,133.34 0,0 -26.38,82.58 -84.88,-20.65"
         style="fill:#f4f4f5;fill-opacity:1;fill-rule:nonzero;stroke:none"
         id="path88"
         inkscape:connector-curvature="0" /><path
         d="m 1405.62,2111.78 c 2.98,0 5.82,-1.51 7.48,-4.09 0.18,-0.28 18.51,-28.48 49.61,-56.21 27.17,-24.23 69.83,-52.94 120.9,-55.02 l -7.35,18.89 c -1.22,3.15 -0.55,6.72 1.72,9.22 2.28,2.5 5.78,3.49 9.03,2.55 0.14,-0.03 16.08,-4.45 42.82,-4.45 56.07,0 167.93,19.69 287.07,151.55 1.37,1.52 3.22,2.52 5.24,2.83 2.41,0.38 59.68,9.15 115.07,9.15 37.36,0 65.07,-4.1 82.37,-12.17 0.93,-0.44 1.51,-0.77 2.23,-1.48 0.59,-0.47 4.39,-3.26 11.03,-3.26 v 0 c 9.45,0 25.21,5.57 46.6,32.09 5.5,6.82 7.31,13.11 5.53,19.25 -5.28,18.14 -39.43,33.37 -50.97,37.27 -1.83,0.62 -3.41,1.82 -4.49,3.4 -2.48,3.62 -5.74,7.71 -6.96,8.74 -17.21,10.5 -42.25,18.19 -66.46,25.64 -38.84,11.93 -79,24.28 -96.69,50.24 -12.14,17.81 -29.7,37.35 -46.68,56.25 -31.03,34.51 -55.95,62.24 -51.76,81.82 -2.56,6.3 -10.32,22.65 -21.91,22.65 -7.08,0 -22.46,-6.16 -45.83,-47.41 -1.28,-2.26 -3.5,-3.85 -6.05,-4.34 -2.56,-0.5 -5.21,0.15 -7.24,1.78 -0.7,0.55 -71.69,56.15 -166.06,56.15 -109.78,0 -205.24,-71.77 -284.08,-213.43 l 5.6,3.65 c 3.35,2.17 7.74,1.85 10.74,-0.79 2.99,-2.65 3.85,-6.96 2.11,-10.56 -0.24,-0.5 -22.12,-47.13 -8.84,-108.25 l 3.31,6.21 c 1.88,3.53 5.88,5.37 9.79,4.5 3.9,-0.87 6.74,-4.24 6.95,-8.23 0.03,-0.56 3.16,-51.51 35.96,-95.72 l 1.36,13.57 c 0.37,3.76 3.09,6.87 6.77,7.76 z m 183.88,-133.23 c -47.06,0 -95.13,20.74 -139,59.98 -16.48,14.74 -29.43,29.4 -38.33,40.49 l -1.14,-11.43 c -0.35,-3.45 -2.66,-6.39 -5.94,-7.52 -3.27,-1.14 -6.9,-0.27 -9.31,2.22 -30.88,31.98 -44.2,70.26 -49.91,95.48 l -1.22,-2.3 c -1.67,-3.13 -5.05,-4.97 -8.57,-4.68 -3.53,0.29 -6.56,2.64 -7.7,6 -16.74,49.09 -11.46,91.7 -4.88,117.3 l -12.82,-8.34 c -3.38,-2.19 -7.8,-1.84 -10.79,0.84 -3,2.69 -3.82,7.05 -2,10.64 46.4,91.68 100.09,159.5 159.58,201.56 48.62,34.39 101.24,51.82 156.4,51.82 82.64,0 146.8,-38.72 168.92,-54.01 19.62,32.17 38.07,47.83 56.26,47.83 27.5,0 39.29,-35.93 39.78,-37.46 0.67,-2.09 0.54,-4.35 -0.36,-6.36 -0.23,-0.51 -1.89,-5.48 10.32,-22.59 9.15,-12.8 22.76,-27.93 37.16,-43.96 17.38,-19.33 35.35,-39.33 48.15,-58.13 14.18,-20.8 51.31,-32.21 87.22,-43.25 25.35,-7.79 51.57,-15.85 70.71,-27.58 3.31,-2.03 7.28,-6.9 10.47,-11.34 11.82,-4.37 51.63,-20.9 59.55,-48.17 2.39,-8.22 2.81,-21.04 -8.76,-35.39 -20.72,-25.68 -41.06,-38.7 -60.45,-38.7 v 0 c -11.33,0 -18.77,4.6 -21.72,6.84 -14.87,6.59 -40.38,10.07 -73.91,10.07 -46.85,0 -96.57,-6.67 -109.27,-8.49 -53.32,-58.47 -110.58,-101.19 -170.23,-126.98 -53.65,-23.19 -99.16,-28.06 -127.88,-28.06 -12.77,0 -23.29,0.92 -31.18,1.99 l 6.24,-16.04 c 1.04,-2.67 0.73,-5.68 -0.84,-8.08 -1.56,-2.4 -4.19,-3.9 -7.05,-4.03 -2.49,-0.11 -5.01,-0.17 -7.5,-0.17"
         style="fill:#3a3a3c;fill-opacity:1;fill-rule:nonzero;stroke:none"
         id="path90"
         inkscape:connector-curvature="0" /><path
         d="m 1674.05,2079.01 c -37.96,0 -79.04,9.5 -111.39,35.7 -45.69,37.03 -69.07,80.42 -75.8,140.67 -0.58,5.26 3.2,10 8.46,10.58 5.25,0.59 10,-3.19 10.58,-8.45 6.13,-54.86 27.35,-94.31 68.82,-127.91 43.21,-35.01 104.92,-36.21 148.28,-25.66 31.71,7.71 61.38,21.36 90.08,34.55 36.59,16.82 74.44,34.22 117.12,39.75 5.24,0.68 10.05,-3.02 10.73,-8.27 0.68,-5.24 -3.02,-10.05 -8.27,-10.73 -39.79,-5.15 -74.66,-21.19 -111.58,-38.16 -29.52,-13.57 -60.05,-27.61 -93.55,-35.76 -16.02,-3.9 -34.36,-6.31 -53.48,-6.31"
         style="fill:#3a3a3c;fill-opacity:1;fill-rule:nonzero;stroke:none"
         id="path92"
         inkscape:connector-curvature="0" /><path
         d="m 1466.41,2232.27 -0.91,0.04 c -5.65,0.5 -9.82,5.48 -9.33,11.12 1.89,21.52 18.64,39.5 38.13,40.93 19.67,1.43 38.45,-14.06 42.78,-35.31 1.14,-5.55 -2.45,-10.98 -8,-12.11 -5.56,-1.13 -10.98,2.46 -12.11,8.01 -2.23,10.95 -11.92,19.63 -21.16,18.94 -9.4,-0.69 -18.19,-10.88 -19.19,-22.25 -0.47,-5.34 -4.95,-9.37 -10.21,-9.37"
         style="fill:#3a3a3c;fill-opacity:1;fill-rule:nonzero;stroke:none"
         id="path94"
         inkscape:connector-curvature="0" /><path
         d="m 1930,2053.02 c -2.86,0 -5.26,2.21 -5.46,5.11 -4.86,71.76 25.9,128.98 57.32,146.37 2.64,1.46 5.97,0.51 7.44,-2.14 1.46,-2.65 0.5,-5.97 -2.14,-7.44 -28.46,-15.76 -56.25,-68.79 -51.69,-136.05 0.2,-3.02 -2.08,-5.63 -5.1,-5.83 l -0.37,-0.02"
         style="fill:#3a3a3c;fill-opacity:1;fill-rule:nonzero;stroke:none"
         id="path96"
         inkscape:connector-curvature="0" /><path
         d="m 2041.27,2062.2 c -1.66,0 -3.31,0.76 -4.38,2.19 -24.45,32.59 -34.06,103.93 -18.7,138.78 1.22,2.77 4.45,4.02 7.21,2.8 2.77,-1.22 4.02,-4.45 2.81,-7.21 -13.84,-31.39 -4.71,-98.28 17.43,-127.8 1.82,-2.42 1.33,-5.85 -1.09,-7.66 -0.98,-0.75 -2.14,-1.1 -3.28,-1.1"
         style="fill:#3a3a3c;fill-opacity:1;fill-rule:nonzero;stroke:none"
         id="path98"
         inkscape:connector-curvature="0" /><path
         d="m 2016.33,1385.12 c -19.08,12.85 -41.28,41.44 -35.86,104.45 4.47,51.94 9.76,65.27 14,65.27 4.48,0 7.8,-14.8 7.8,-14.8 l 32.11,-84.88 21.17,-38.65 c -0.63,-0.21 -1.07,-0.34 -1.3,-0.41 l -6.79,-1.59 -5.27,-5.39 c -0.2,-0.2 -9.39,-9.53 -25.86,-24"
         style="fill:#bdaea8;fill-opacity:1;fill-rule:nonzero;stroke:none"
         id="path100"
         inkscape:connector-curvature="0" /><path
         d="m 2041.27,1374.87 c 0,0 -11.72,1.35 -24.94,10.25 16.47,14.47 25.66,23.8 25.86,24 l 5.27,5.39 6.79,1.59 c 0.23,0.07 0.67,0.2 1.3,0.41 l 5.22,-9.52 -9.18,-24.09 -10.32,-8.03"
         style="fill:#363536;fill-opacity:1;fill-rule:nonzero;stroke:none"
         id="path102"
         inkscape:connector-curvature="0" /><path
         d="m 2040.98,1507.93 c 0.96,4.56 1.67,9.12 2.15,13.66 3.31,0.48 6,3.13 6.4,6.6 6.67,58.52 -27.35,114.04 -52.04,145.8 61.19,-53.95 70.16,-164.34 70.16,-164.34 l -26.67,-1.72"
         style="fill:#bdaea8;fill-opacity:1;fill-rule:nonzero;stroke:none"
         id="path104"
         inkscape:connector-curvature="0" /><path
         d="m 2043.13,1521.59 c 9.38,88.53 -69.25,168.71 -69.25,168.71 8.62,-4.49 16.47,-10.01 23.61,-16.31 24.69,-31.76 58.71,-87.28 52.04,-145.8 -0.4,-3.47 -3.09,-6.12 -6.4,-6.6"
         style="fill:#363536;fill-opacity:1;fill-rule:nonzero;stroke:none"
         id="path106"
         inkscape:connector-curvature="0" /><path
         d="m 1999.78,1563.43 c 0,0 -14.63,-177.22 90.32,-190.12 104.96,-12.91 67.97,195.28 67.97,195.28 l -40.44,-47.32 -30.11,61.94 -35.27,-70.54 -52.47,50.76"
         style="fill:#f4f4f5;fill-opacity:1;fill-rule:nonzero;stroke:none"
         id="path108"
         inkscape:connector-curvature="0" /><path
         d="m 2006.02,1547.87 c -0.61,-41.93 5.01,-157.95 84.92,-167.77 2.83,-0.35 5.61,-0.52 8.25,-0.52 14.73,0 26.32,5.29 35.45,16.18 30.53,36.42 23.24,122.4 18.83,156.92 l -30.64,-35.85 c -1.49,-1.75 -3.78,-2.63 -6.07,-2.34 -2.29,0.29 -4.27,1.72 -5.28,3.79 l -24.04,49.46 -29.07,-58.13 c -0.97,-1.95 -2.82,-3.32 -4.97,-3.68 -2.14,-0.37 -4.34,0.31 -5.9,1.82 z m 93.17,-181.98 c -3.2,0 -6.54,0.21 -9.92,0.63 -46.1,5.67 -77.36,42.08 -90.39,105.31 -9.55,46.34 -6.08,90.31 -5.92,92.16 0.21,2.64 1.93,4.91 4.41,5.84 2.47,0.93 5.26,0.35 7.16,-1.48 l 45.77,-44.27 31.1,62.19 c 1.17,2.33 3.51,3.83 6.16,3.79 2.61,-0.02 4.98,-1.51 6.12,-3.86 l 25.54,-52.54 33.64,39.37 c 1.72,2.01 4.45,2.85 7,2.16 2.56,-0.69 4.48,-2.8 4.94,-5.4 0.96,-5.37 22.88,-132.04 -19.67,-182.82 -11.72,-13.99 -27.18,-21.08 -45.94,-21.08"
         style="fill:#3a3a3c;fill-opacity:1;fill-rule:nonzero;stroke:none"
         id="path110"
         inkscape:connector-curvature="0" /><path
         d="m 1721.65,1766.47 c -7.72,3.94 -15.43,7.89 -23.14,11.83 -4.71,2.4 -8.86,-4.68 -4.15,-7.09 7.72,-3.94 15.43,-7.89 23.14,-11.83 4.71,-2.4 8.86,4.68 4.15,7.09"
         style="fill:#3a3a3c;fill-opacity:1;fill-rule:nonzero;stroke:none"
         id="path112"
         inkscape:connector-curvature="0" /><path
         d="m 1684.29,1717.34 c -3.91,8.93 -7.81,17.85 -11.71,26.77 -2.12,4.84 -9.19,0.66 -7.09,-4.15 3.9,-8.92 7.8,-17.84 11.71,-26.76 2.11,-4.84 9.19,-0.66 7.09,4.14"
         style="fill:#3a3a3c;fill-opacity:1;fill-rule:nonzero;stroke:none"
         id="path114"
         inkscape:connector-curvature="0" /><path
         d="m 1851.13,1756.57 c 0.12,8.09 2.24,15.76 6.29,22.77 3.09,5.36 -5.19,10.18 -8.27,4.83 -4.88,-8.45 -7.46,-17.85 -7.6,-27.6 -0.08,-6.18 9.5,-6.17 9.58,0"
         style="fill:#3a3a3c;fill-opacity:1;fill-rule:nonzero;stroke:none"
         id="path116"
         inkscape:connector-curvature="0" /><path
         d="m 1815.63,1751.53 c 6.54,10.2 10.08,21.89 10.49,33.98 0.21,6.18 -9.37,6.16 -9.58,0 -0.36,-10.46 -3.54,-20.35 -9.18,-29.15 -3.34,-5.21 4.95,-10.01 8.27,-4.83"
         style="fill:#3a3a3c;fill-opacity:1;fill-rule:nonzero;stroke:none"
         id="path118"
         inkscape:connector-curvature="0" /><path
         d="m 1863.77,1839.71 c -1.88,0 -3.41,1.51 -3.42,3.39 -0.02,1.89 1.5,3.44 3.39,3.45 22.34,0.16 44.24,12.63 55.79,31.74 0.98,1.62 3.08,2.14 4.7,1.16 1.62,-0.98 2.13,-3.08 1.16,-4.7 -12.76,-21.11 -36.94,-34.86 -61.6,-35.04 h -0.02"
         style="fill:#3a3a3c;fill-opacity:1;fill-rule:nonzero;stroke:none"
         id="path120"
         inkscape:connector-curvature="0" /><path
         d="m 1904.72,1858.2 c 3.51,8.33 4.33,17.77 2.32,26.58"
         style="fill:#e6e6e4;fill-opacity:1;fill-rule:nonzero;stroke:none"
         id="path122"
         inkscape:connector-curvature="0" /><path
         d="m 1904.72,1854.09 -1.59,0.32 c -2.09,0.88 -3.07,3.29 -2.19,5.38 3.18,7.55 3.92,16.1 2.09,24.08 -0.5,2.21 0.88,4.41 3.09,4.92 2.21,0.5 4.41,-0.88 4.92,-3.09 2.2,-9.65 1.3,-19.98 -2.53,-29.09 -0.66,-1.57 -2.19,-2.52 -3.79,-2.52"
         style="fill:#3a3a3c;fill-opacity:1;fill-rule:nonzero;stroke:none"
         id="path124"
         inkscape:connector-curvature="0" /><path
         d="m 1959.18,1702.63 c -44.86,0 -75.41,36.42 -83.71,47.57 0.38,0.43 0.77,0.86 1.16,1.29 0.3,-0.87 0.77,-1.7 1.4,-2.44 21.89,-25.55 45.58,-38.89 70.43,-39.65 l 2.23,-0.03 c 15.51,0 28.66,4.96 38.38,10.35 l 4.59,-3.68 c 0.19,-0.15 2.12,-1.68 5.18,-4.07 -10.2,-4.78 -19.93,-7.52 -29.13,-8.68 -0.44,0.08 -0.88,0.12 -1.33,0.12 -0.95,0 -1.9,-0.18 -2.79,-0.54 -2.17,-0.17 -4.31,-0.24 -6.41,-0.24"
         style="fill:#bdaea8;fill-opacity:1;fill-rule:nonzero;stroke:none"
         id="path126"
         inkscape:connector-curvature="0" /><path
         d="m 1998.84,1711.97 c -3.06,2.39 -4.99,3.92 -5.18,4.07 l -4.59,3.68 c 11.08,6.14 17.68,12.84 18.19,13.37 0.42,0.43 0.77,0.9 1.07,1.39 0.66,0.43 1.01,0.68 1.01,0.68 l 11.42,-10.09 c -7.52,-5.46 -14.83,-9.77 -21.92,-13.1"
         style="fill:#363536;fill-opacity:1;fill-rule:nonzero;stroke:none"
         id="path128"
         inkscape:connector-curvature="0" /><path
         d="m 1950.69,1709.37 -2.23,0.03 c -24.85,0.76 -48.54,14.1 -70.43,39.65 -0.63,0.74 -1.1,1.57 -1.4,2.44 0.86,0.92 1.75,1.83 2.7,2.72 6.68,-8.53 26.43,-30.05 60.57,-37.75 3.99,-0.9 8.04,-1.29 12.1,-1.29 25.66,0 51.03,15.81 56.33,19.31 -0.3,-0.49 -0.65,-0.96 -1.07,-1.39 -0.51,-0.53 -7.11,-7.23 -18.19,-13.37 -9.72,-5.39 -22.87,-10.35 -38.38,-10.35"
         style="fill:#363536;fill-opacity:1;fill-rule:nonzero;stroke:none"
         id="path130"
         inkscape:connector-curvature="0" /><path
         d="m 1875.47,1750.2 c -1.49,2.01 -2.27,3.2 -2.27,3.2 l 3.55,4.36 c 0,0 0.86,-1.34 2.58,-3.55 -0.95,-0.89 -1.84,-1.8 -2.7,-2.72 -0.39,-0.43 -0.78,-0.86 -1.16,-1.29"
         style="fill:#363536;fill-opacity:1;fill-rule:nonzero;stroke:none"
         id="path132"
         inkscape:connector-curvature="0" /><path
         d="m 1965.59,1702.87 c 0.89,0.36 1.84,0.54 2.79,0.54 0.45,0 0.89,-0.04 1.33,-0.12 -1.39,-0.18 -2.76,-0.31 -4.12,-0.42"
         style="fill:#363536;fill-opacity:1;fill-rule:nonzero;stroke:none"
         id="path134"
         inkscape:connector-curvature="0" /><path
         d="m 1489.26,1821.34 c -10.59,3.7 -18.48,15.82 -16.91,27.11 0.51,3.69 -0.84,7.33 -4.78,8.42 -3.24,0.89 -7.91,-1.08 -8.42,-4.78 -2.65,-19.05 8.16,-37.55 26.48,-43.95 3.52,-1.23 7.47,1.37 8.41,4.79 1.04,3.77 -1.26,7.18 -4.78,8.41"
         style="fill:#3a3a3c;fill-opacity:1;fill-rule:nonzero;stroke:none"
         id="path136"
         inkscape:connector-curvature="0" /><path
         d="m 1358.32,2401.58 c -5.69,7.42 -16.25,8.94 -25.6,8.42 -9.34,-0.52 -18.94,-2.45 -27.88,0.31 -17.16,5.32 -24.59,24.85 -30.93,41.65 -5.75,15.23 -12.62,30.4 -23.65,42.37 -11.02,11.97 -26.86,20.44 -43.09,19.2 10.24,6.95 26.99,-0.12 39.24,-5.98 12.25,-5.86 24.21,-13.23 37.69,-14.89 14.94,-1.85 29.76,3.55 44.77,4.64 15.01,1.09 32.86,-4.48 37.23,-18.89 2.03,-6.7 0.66,-13.89 0.71,-20.89 0.05,-7.01 2.26,-14.93 8.56,-17.98"
         style="fill:#d4c1ba;fill-opacity:1;fill-rule:nonzero;stroke:none"
         id="path138"
         inkscape:connector-curvature="0" /><path
         d="m 2194.43,2193.75 c 35.61,44.13 -45,74.42 -53.83,77.57 -17.3,-10.8 -71.51,-60.48 -31.63,-103.92 2.86,-5.45 36.94,-33.79 85.46,26.35"
         style="fill:#e52f60;fill-opacity:1;fill-rule:nonzero;stroke:none"
         id="path140"
         inkscape:connector-curvature="0" /><path
         d="m 2141.2,2265.99 c -13.19,-8.99 -37.87,-32.76 -41.35,-58.41 -1.82,-13.38 2.44,-25.81 12.65,-36.94 l 0.43,-0.46 0.29,-0.56 c 1.16,-1.92 9.35,-8.86 22.03,-8.86 17.27,0 36.45,12.45 55.45,36 7.13,8.83 9.45,17.21 7.08,25.62 -6.53,23.17 -45.86,39.54 -56.58,43.61 z m -5.95,-114.81 v 0 c -15.7,0 -26.97,8.36 -30.15,13.36 -11.98,13.23 -16.94,28.14 -14.74,44.33 4.45,32.77 36.74,59.67 47.7,66.52 l 1.97,1.22 2.18,-0.78 c 9.37,-3.34 56.52,-21.5 64.79,-50.86 3.23,-11.44 0.25,-22.96 -8.84,-34.23 -21.18,-26.25 -42.35,-39.56 -62.91,-39.56"
         style="fill:#e52f60;fill-opacity:1;fill-rule:nonzero;stroke:none"
         id="path142"
         inkscape:connector-curvature="0" /><path
         d="m 1595.76,2332.21 c 0,0 -0.09,0.8 -0.21,2.27 -0.05,0.73 -0.15,1.62 -0.09,2.71 0.04,1.08 0.04,2.41 0.24,3.79 0.16,1.4 0.35,2.98 0.74,4.64 l 0.62,2.63 c 0.28,0.89 0.57,1.82 0.86,2.78 1.31,3.79 3.2,8.01 5.93,12.26 2.72,4.26 6.26,8.54 10.6,12.51 1.11,0.97 2.24,1.95 3.42,2.91 1.2,0.92 2.42,1.87 3.71,2.75 1.3,0.84 2.6,1.77 3.99,2.55 l 2.11,1.2 0.53,0.3 0.26,0.15 0.63,0.26 0.06,0.03 0.11,0.05 0.94,0.45 c 1.25,0.59 2.51,1.19 3.78,1.79 l 1.99,0.89 2.51,0.87 c 1.7,0.55 3.41,1.11 5.14,1.66 l 2.49,0.62 2.46,0.54 c 1.65,0.34 3.31,0.76 4.98,0.95 1.67,0.22 3.35,0.41 5.04,0.59 l 2.53,0.25 2.53,0.07 5.06,0.07 c 1.69,-0.01 3.35,-0.19 5.03,-0.29 1.66,-0.14 3.35,-0.19 4.98,-0.47 1.64,-0.24 3.28,-0.49 4.91,-0.78 l 2.43,-0.42 2.39,-0.57 c 1.58,-0.4 3.15,-0.79 4.71,-1.19 l 0.59,-0.15 0.43,-0.11 0.12,-0.05 0.26,-0.08 1.02,-0.34 2.03,-0.67 c 1.58,-0.56 3.32,-1.23 4.92,-1.86 1.57,-0.7 3.09,-1.39 4.61,-2.17 6.05,-3.13 11.87,-7.55 16.04,-13.19 l 1.49,-2.13 0.97,-1.43 0.4,-0.84 0.85,-1.79 1.09,-2.5 0.44,-1.17 0.34,-1.11 0.6,-2.17 c 0.32,-1.44 0.61,-2.84 0.74,-4.2 0.68,-5.43 0.1,-10.08 -0.64,-13.98 -0.78,-3.9 -1.8,-7.09 -2.77,-9.67 -0.96,-2.58 -1.86,-4.54 -2.49,-5.87 -0.65,-1.33 -1.03,-2.03 -1.03,-2.03 0,0 -0.24,0.76 -0.64,2.18 -0.4,1.41 -0.95,3.48 -1.61,6.04 -0.68,2.56 -1.48,5.62 -2.55,8.89 -1.06,3.25 -2.42,6.72 -4.26,9.75 -0.87,1.52 -2,2.98 -3.03,4.09 l -0.69,0.62 -1.2,1.24 -0.65,0.67 0.23,-0.34 -0.03,0.02 -0.06,0.05 -0.13,0.08 -0.26,0.17 -0.99,0.71 c -2.69,1.81 -6.05,3.24 -10.14,4.41 -1.01,0.29 -2.12,0.51 -3.17,0.82 -1.04,0.21 -2.1,0.42 -3.16,0.64 l -2.1,0.4 -1.05,0.2 -0.27,0.05 -0.13,0.03 0.23,-0.06 h -0.06 l -0.47,0.06 c -1.25,0.18 -2.5,0.35 -3.76,0.53 l -1.88,0.3 -1.89,0.17 c -1.26,0.11 -2.52,0.24 -3.78,0.39 -1.26,0.17 -2.53,0.11 -3.79,0.21 -1.26,0.05 -2.52,0.18 -3.78,0.19 l -3.75,-0.01 -1.88,0.02 -1.85,-0.12 c -1.23,-0.09 -2.46,-0.15 -3.7,-0.19 -1.23,-0.03 -2.41,-0.3 -3.62,-0.4 -1.18,-0.14 -2.48,-0.23 -3.55,-0.41 -1.04,-0.19 -2.08,-0.37 -3.14,-0.54 l -1.59,-0.21 -1.98,-0.53 c -1.35,-0.36 -2.7,-0.72 -4.04,-1.08 l -1,-0.26 -0.13,-0.04 -0.06,-0.01 0.51,0.2 -0.2,-0.06 -0.41,-0.12 -1.61,-0.5 c -1.08,-0.32 -2.11,-0.74 -3.17,-1.09 -1.04,-0.41 -2.07,-0.81 -3.09,-1.21 -1.02,-0.45 -2.02,-0.89 -3,-1.33 -3.93,-1.84 -7.58,-3.93 -10.85,-6.15 -3.27,-2.22 -6.19,-4.54 -8.7,-6.81 -2.54,-2.26 -4.59,-4.49 -6.31,-6.42 -1.64,-1.92 -2.99,-3.51 -3.84,-4.74 -0.88,-1.18 -1.39,-1.81 -1.39,-1.81"
         style="fill:#3a3a3c;fill-opacity:1;fill-rule:nonzero;stroke:none"
         id="path144"
         inkscape:connector-curvature="0" /><path
         d="m 1619.82,2307.16 c -2.51,0 -4.97,1.27 -6.4,3.56 -7.24,11.66 -24.35,16.48 -36.61,10.31 -3.72,-1.86 -8.24,-0.37 -10.11,3.35 -1.87,3.71 -0.37,8.24 3.35,10.1 19.13,9.62 44.85,2.38 56.16,-15.82 2.19,-3.53 1.11,-8.17 -2.42,-10.36 -1.24,-0.77 -2.61,-1.14 -3.97,-1.14"
         style="fill:#3a3a3c;fill-opacity:1;fill-rule:nonzero;stroke:none"
         id="path146"
         inkscape:connector-curvature="0" /><path
         d="m 1864.7,2357.23 -0.97,1.05 -1.08,1.27 -1.27,1.98 c -0.91,1.54 -1.82,3.43 -2.58,5.79 -0.44,1.18 -0.64,2.45 -0.98,3.84 -0.22,1.36 -0.44,2.84 -0.51,4.39 -0.21,3.11 0.07,6.53 0.87,10.1 0.8,3.57 2.14,7.3 4.22,10.88 1.04,1.79 2.22,3.56 3.59,5.25 l 2.17,2.47 0.57,0.6 0.29,0.3 0.27,0.24 0.03,0.02 0.05,0.06 0.11,0.1 0.9,0.88 0.91,0.86 1.29,1.07 2.62,2.01 2.61,1.79 2.8,1.62 c 3.86,1.99 8.01,3.7 12.53,4.47 2.18,0.52 4.55,0.55 6.76,0.71 1.14,-0.02 2.28,-0.11 3.4,-0.18 1.11,-0.07 2.21,-0.16 3.3,-0.42 2.16,-0.46 4.27,-0.87 6.18,-1.73 0.97,-0.38 1.91,-0.76 2.82,-1.17 0.91,-0.41 1.73,-0.96 2.55,-1.44 l 2.36,-1.5 2.07,-1.68 1.87,-1.69 1.65,-1.73 c 0.96,-1.22 1.88,-2.35 2.68,-3.47 l 0.58,-0.83 0.49,-0.85 0.88,-1.65 c 1.11,-2.14 1.95,-4 2.38,-5.69 0.98,-3.29 1.2,-5.25 1.2,-5.25 0,0 -2.04,0.56 -5.01,1.67 -0.78,0.24 -1.51,0.64 -2.43,0.88 -0.92,0.25 -1.83,0.58 -2.82,0.88 -1.89,0.73 -4.09,1.16 -6.24,1.73 l -1.65,0.3 -1.66,0.25 -1.63,0.23 -1.64,0.06 -1.59,0.08 -1.57,-0.1 c -1.03,0.03 -2.05,-0.25 -3.04,-0.35 l -1.48,-0.31 -1.46,-0.32 -1.48,-0.49 -0.74,-0.19 -0.75,-0.32 c -2,-0.64 -4.08,-1.72 -6.21,-2.81 l -1.62,-0.87 -1.62,-0.97 -1.48,-0.91 -0.73,-0.43 -1.02,-0.73 -1.02,-0.71 -0.13,-0.09 -0.06,-0.05 -0.04,-0.02 0.22,0.18 -0.17,-0.12 -0.33,-0.24 -1.35,-0.97 c -0.91,-0.65 -1.76,-1.39 -2.64,-2.12 -1.73,-1.49 -3.33,-3.18 -4.83,-4.94 -1.5,-1.76 -2.9,-3.6 -4.11,-5.47 -0.69,-0.91 -1.12,-1.86 -1.73,-2.77 -0.51,-0.92 -1.02,-1.83 -1.47,-2.71 -0.91,-1.75 -1.63,-3.45 -2.24,-4.85 l -0.8,-1.95 -0.53,-1.59 -0.51,-1.33"
         style="fill:#3a3a3c;fill-opacity:1;fill-rule:nonzero;stroke:none"
         id="path148"
         inkscape:connector-curvature="0" /><path
         d="m 1685.94,1506.74 c 0,0 -14.62,-177.21 90.33,-190.11 104.95,-12.91 67.96,195.28 67.96,195.28 l -40.43,-47.32 -30.11,61.94 -35.27,-70.54 -52.48,50.75"
         style="fill:#f4f4f5;fill-opacity:1;fill-rule:nonzero;stroke:none"
         id="path150"
         inkscape:connector-curvature="0" /><path
         d="m 1692.18,1491.19 c -0.61,-41.93 5.02,-157.95 84.92,-167.77 2.84,-0.35 5.61,-0.53 8.25,-0.53 14.73,0 26.33,5.3 35.46,16.19 30.55,36.46 23.25,122.41 18.83,156.92 L 1809,1460.15 c -1.5,-1.76 -3.78,-2.63 -6.07,-2.35 -2.29,0.3 -4.28,1.73 -5.29,3.8 l -24.04,49.46 -29.06,-58.13 c -0.98,-1.95 -2.82,-3.32 -4.97,-3.69 -2.15,-0.37 -4.34,0.32 -5.91,1.83 z m 93.17,-181.98 c -3.19,0 -6.53,0.21 -9.92,0.62 -46.1,5.67 -77.36,42.09 -90.39,105.31 -9.55,46.35 -6.07,90.32 -5.92,92.17 0.22,2.63 1.93,4.91 4.41,5.84 2.47,0.93 5.27,0.35 7.17,-1.49 l 45.77,-44.27 31.1,62.2 c 1.16,2.33 3.57,3.78 6.16,3.78 2.6,-0.01 4.97,-1.5 6.11,-3.85 l 25.54,-52.54 33.65,39.37 c 1.72,2.01 4.44,2.85 6.99,2.16 2.56,-0.7 4.48,-2.8 4.95,-5.41 0.95,-5.36 22.87,-132.04 -19.68,-182.81 -11.72,-13.99 -27.17,-21.08 -45.94,-21.08"
         style="fill:#3a3a3c;fill-opacity:1;fill-rule:nonzero;stroke:none"
         id="path152"
         inkscape:connector-curvature="0" /></g></g></svg>