<?xml version="1.0" encoding="UTF-8" standalone="no"?>
<!-- Created with Inkscape (http://www.inkscape.org/) -->

<svg
   xmlns:dc="http://purl.org/dc/elements/1.1/"
   xmlns:cc="http://creativecommons.org/ns#"
   xmlns:rdf="http://www.w3.org/1999/02/22-rdf-syntax-ns#"
   xmlns:svg="http://www.w3.org/2000/svg"
   xmlns="http://www.w3.org/2000/svg"
   xmlns:sodipodi="http://sodipodi.sourceforge.net/DTD/sodipodi-0.dtd"
   xmlns:inkscape="http://www.inkscape.org/namespaces/inkscape"
   version="1.1"
   id="svg2"
   xml:space="preserve"
   width="666.66669"
   height="198.57333"
   viewBox="0 0 666.66669 198.57333"
   sodipodi:docname="OSEM_RGB-01.svg"
   inkscape:version="0.92.1 r"><metadata
     id="metadata8"><rdf:RDF><cc:Work
         rdf:about=""><dc:format>image/svg+xml</dc:format><dc:type
           rdf:resource="http://purl.org/dc/dcmitype/StillImage" /><dc:title></dc:title></cc:Work></rdf:RDF></metadata><defs
     id="defs6" /><sodipodi:namedview
     pagecolor="#ffffff"
     bordercolor="#666666"
     borderopacity="1"
     objecttolerance="10"
     gridtolerance="10"
     guidetolerance="10"
     inkscape:pageopacity="0"
     inkscape:pageshadow="2"
     inkscape:window-width="711"
     inkscape:window-height="480"
     id="namedview4"
     showgrid="false"
     inkscape:zoom="0.57749998"
     inkscape:cx="333.33334"
     inkscape:cy="99.286667"
     inkscape:window-x="0"
     inkscape:window-y="0"
     inkscape:window-maximized="0"
     inkscape:current-layer="g10" /><g
     id="g10"
     inkscape:groupmode="layer"
     inkscape:label="ink_ext_XXXXXX"
     transform="matrix(1.3333333,0,0,-1.3333333,0,198.57333)"><g
       id="g12"
       transform="scale(0.1)"><path
         d="M 4925.06,293.109 H 4789.9 c -56.21,0 -75.33,23.911 -80.12,81.321 l -28.72,377.91 c -4.78,56.211 -1.17,131.543 -1.17,131.543 h -2.41 c 0,0 -25.11,-83.727 -46.64,-131.543 L 4489.73,439 h -126.76 l -141.14,313.34 c -21.5,47.816 -46.61,132.75 -46.61,132.75 h -2.41 c 0,0 3.58,-76.539 -1.2,-132.75 l -27.49,-377.91 c -4.78,-57.41 -25.11,-81.321 -81.32,-81.321 h -135.15 v 132.75 h 37.08 c 16.72,0 25.11,9.563 26.32,26.313 l 55,690.018 h 162.64 L 4383.3,737.996 c 20.33,-49.055 41.86,-113.621 41.86,-113.621 h 2.38 c 0,0 21.53,64.566 41.86,113.621 l 174.61,404.194 h 162.64 l 55.01,-690.018 c 1.2,-16.75 9.56,-26.313 26.31,-26.313 h 37.09 z m -1044.1,81.321 c 0,-57.41 -25.11,-81.321 -81.32,-81.321 h -385.06 c -57.41,0 -81.32,23.911 -81.32,81.321 v 635.01 h -77.74 v 132.75 h 513.03 c 56.21,0 81.32,-25.12 81.32,-81.32 V 931.734 h -142.31 v 51.426 c 0,16.719 -9.57,26.28 -26.32,26.28 H 3489.91 V 787.016 h 275.06 V 654.27 H 3489.91 V 452.172 c 0,-16.75 9.57,-26.313 26.32,-26.313 h 196.11 c 16.75,0 26.31,9.563 26.31,26.313 v 51.391 h 142.31 z M 3149.94,1254.4 V 164.449 H 5000 V 1254.4 H 3149.94"
         style="fill:#505256;fill-opacity:1;fill-rule:nonzero;stroke:none"
         id="path14"
         inkscape:connector-curvature="0" /><path
         d="m 1957.83,424.648 c -153.08,0 -276.26,129.176 -276.26,298.969 0,162.641 123.18,287.023 276.26,287.023 153.08,0 276.26,-124.382 276.26,-287.023 0,-169.793 -123.18,-298.969 -276.26,-298.969 z m 0,731.922 c -249.95,0 -438.9,-190.164 -438.9,-432.953 0,-249.945 188.95,-444.847 438.9,-444.847 249.94,0 438.9,194.902 438.9,444.847 0,242.789 -188.96,432.953 -438.9,432.953"
         style="fill:#505256;fill-opacity:1;fill-rule:nonzero;stroke:none"
         id="path16"
         inkscape:connector-curvature="0" /><path
         d="m 2645.54,923.34 c 0,53.836 52.64,90.88 124.39,90.88 56.21,0 112.42,-26.279 112.42,-65.771 v -38.25 h 141.11 v 78.91 c 0,120.811 -153.08,167.461 -252.36,167.461 -163.81,0 -283.41,-101.69 -283.41,-239.215 0,-264.292 399.44,-252.32 399.44,-397.039 0,-65.765 -57.41,-100.445 -121.98,-100.445 -118.4,0 -205.71,100.445 -205.71,100.445 l -88.51,-110.007 c 0,0 104.06,-131.539 291.81,-131.539 178.19,0 282.25,114.789 282.25,249.941 0,278.633 -399.45,249.945 -399.45,394.629"
         style="fill:#505256;fill-opacity:1;fill-rule:nonzero;stroke:none"
         id="path18"
         inkscape:connector-curvature="0" /><path
         d="m 875.227,1489.28 -1.164,-0.03 c -10.493,-0.64 -17.844,-7.13 -24.333,-12.86 -2.351,-2.07 -6.195,-5.47 -8.132,-6.34 -6.66,0.48 -13.926,2.77 -21.606,5.18 -4.769,1.5 -9.699,3.05 -14.918,4.32 -7.097,1.73 -14.035,2.61 -20.621,2.61 -14.562,0 -27.23,-4.39 -36.637,-12.71 -15.199,-13.43 -18.253,-33.25 -19.23,-47 -0.27,-3.79 0.59,-7.56 2.469,-10.86 l 19.207,-33.64 c 3.242,-5.68 9.16,-9.31 15.695,-9.64 1.981,-0.09 3.996,-0.14 5.988,-0.14 27.301,0 54.243,9.08 75.86,25.58 9.73,7.43 21.226,19.54 30.754,32.4 18.109,24.45 17.863,36.19 17.781,40.05 -0.168,8.09 -3.863,15.24 -10.141,19.62 -3.222,2.26 -7.054,3.46 -10.972,3.46 z m 0,-19.16 c 9.82,-6.86 -19.422,-46.17 -39.047,-61.14 -18.285,-13.96 -41.242,-21.66 -64.235,-21.66 -1.683,0 -3.363,0.05 -5.047,0.13 l -19.203,33.64 c 0.883,12.4 3.493,25.77 12.809,34 6.519,5.77 15.113,7.91 23.945,7.91 5.41,0 10.906,-0.8 16.082,-2.06 13.633,-3.33 26.762,-9.33 40.774,-10.07 l 0.785,-0.02 c 13.633,0 24.203,18.73 33.137,19.27"
         style="fill:#3a3a3c;fill-opacity:1;fill-rule:nonzero;stroke:none"
         id="path20"
         inkscape:connector-curvature="0" /><path
         d="m 321.758,1215.08 c -1.922,2.5 -7.363,3.76 -14.567,3.35 -1.929,-0.11 -3.921,-0.28 -6.035,-0.47 -8.011,-0.72 -17.086,-1.53 -26.422,1.35 -23.304,7.22 -32.519,31.65 -39.246,49.49 -4.832,12.81 -11.109,27.36 -21.047,38.15 -3.984,4.32 -7.253,4.41 -19.519,2.91 -2.863,-0.35 -6.106,-0.75 -9.516,-1.01 -5.867,-0.46 -11.316,3.11 -13.261,8.68 -1.942,5.56 0.101,11.74 4.976,15.04 18.02,12.22 34.387,14.95 48.645,8.13 2.621,-1.25 5.211,-2.56 7.711,-3.83 8.988,-4.55 17.476,-8.84 25.961,-9.89 7.382,-0.91 15.484,0.55 24.062,2.1 5.828,1.06 11.859,2.15 18.172,2.6 19.851,1.44 44.144,-6.73 50.609,-28.07 2.094,-6.91 1.754,-13.4 1.453,-19.13 -0.097,-1.94 -0.195,-3.77 -0.183,-5.45 0.027,-3.8 1.027,-6.08 1.476,-6.54 l -0.246,0.16 -11.336,-23.4 c -9.851,4.77 -15.793,15.84 -15.894,29.59 -0.02,2.45 0.101,4.77 0.219,7 0.207,3.95 0.402,7.68 -0.372,10.22 -2.117,6.99 -13.785,10.42 -23.847,9.69 -4.93,-0.36 -10.028,-1.28 -15.422,-2.25 -10.117,-1.83 -20.574,-3.72 -31.883,-2.33 -2.5,0.31 -4.926,0.77 -7.285,1.34 4.441,-8.26 7.898,-16.7 10.855,-24.54 5.368,-14.23 11.454,-30.36 22.61,-33.82 4.429,-1.37 10.246,-0.85 16.402,-0.29 2.238,0.19 4.547,0.4 6.918,0.53 20.82,1.16 31.414,-6.69 36.633,-13.48 l -20.621,-15.83"
         style="fill:#3a3a3c;fill-opacity:1;fill-rule:nonzero;stroke:none"
         id="path22"
         inkscape:connector-curvature="0" /><path
         d="m 1165.84,60.4492 c -14.14,0 -28.32,0.7813 -42.17,2.3203 -69.77,7.7422 -171.236,38.6795 -258.412,142.0825 -10.996,13.046 -9.328,32.597 3.711,43.597 5.574,4.692 12.648,7.281 19.929,7.281 9.145,0 17.77,-4.011 23.661,-10.992 74.019,-87.797 159.371,-113.976 217.941,-120.476 11.81,-1.313 23.8,-1.981 35.63,-1.981 78.55,0 128.77,27.918 142.3,36.469 28.67,18.141 45.84,42.129 47.11,65.82 1.01,18.821 -8.13,36.442 -26.42,50.969 -18.33,14.563 -36.95,21.641 -56.91,21.641 -20.08,0 -42.09,-7.481 -65.42,-22.25 -15.04,-9.508 -24.38,-21.961 -24.99,-33.301 -0.45,-8.41 3.83,-16.25 12.72,-23.309 13.35,-10.609 15.59,-30.109 4.98,-43.461 -5.91,-7.441 -14.74,-11.699 -24.24,-11.699 -6.95,0 -13.78,2.379 -19.23,6.711 -24.76,19.668 -37.55,46.328 -36.01,75.07 1.7,31.778 21.27,61.77 53.69,82.278 33.38,21.121 66.61,31.832 98.76,31.832 33.84,0 65.84,-11.789 95.13,-35.063 34.16,-27.129 51.82,-63.617 49.72,-102.738 -2.35,-43.949 -29.99,-85.789 -75.81,-114.781 -26.54,-16.7893 -59.68,-29.7971 -95.85,-37.6292 -25.74,-5.5703 -52.59,-8.3906 -79.82,-8.3906"
         style="fill:#957e72;fill-opacity:1;fill-rule:nonzero;stroke:none"
         id="path24"
         inkscape:connector-curvature="0" /><path
         d="m 1272.47,369.309 v 0 c -34.12,0 -69.2,-11.239 -104.25,-33.418 -35.26,-22.313 -56.57,-55.262 -58.45,-90.403 -1.73,-32.148 12.44,-61.859 39.88,-83.66 7.26,-5.758 16.35,-8.93 25.61,-8.93 12.65,0 24.41,5.672 32.27,15.571 6.85,8.621 9.93,19.39 8.68,30.32 -1.26,10.93 -6.69,20.723 -15.31,27.57 -6.14,4.871 -9.11,9.821 -8.85,14.719 0.42,7.91 8.17,17.551 20.23,25.184 21.66,13.707 41.83,20.66 59.93,20.66 17.55,0 34.08,-6.352 50.53,-19.41 15.8,-12.563 23.39,-26.821 22.55,-42.391 -1.09,-20.32 -16.52,-41.351 -42.35,-57.691 -12.93,-8.192 -61.02,-34.879 -136.81,-34.879 -11.46,0 -23.06,0.64 -34.5,1.91 -56.71,6.301 -139.388,31.687 -211.224,116.891 -7.847,9.308 -19.332,14.636 -31.508,14.636 -9.699,0 -19.125,-3.437 -26.546,-9.699 -17.368,-14.641 -19.586,-40.68 -4.946,-58.051 C 946.77,92.2383 1050.91,60.5195 1122.54,52.5703 c 14.22,-1.582 28.79,-2.3789 43.3,-2.3789 27.95,0 55.54,2.8984 81.99,8.6172 37.33,8.082 71.62,21.5625 99.16,38.9922 48.68,30.7892 78.05,75.5902 80.58,122.8982 2.29,42.531 -16.75,82.071 -53.59,111.332 -31.14,24.739 -65.3,37.278 -101.51,37.278 m 0,-20.52 c 31.31,0 61.2,-10.949 88.75,-32.84 31.49,-25 47.77,-58.437 45.86,-94.148 -2.18,-40.59 -28.08,-79.461 -71.06,-106.66 -25.53,-16.1527 -57.53,-28.6918 -92.53,-36.2699 -25.05,-5.4219 -51.35,-8.1602 -77.65,-8.1602 -13.74,0 -27.48,0.75 -41.03,2.2579 -67.92,7.5429 -166.712,37.6792 -251.708,138.5002 -7.356,8.73 -6.247,21.769 2.484,29.133 3.879,3.269 8.609,4.867 13.312,4.867 5.883,0 11.727,-2.5 15.817,-7.348 76.199,-90.383 164.225,-117.351 224.655,-124.062 12.57,-1.399 24.86,-2.039 36.76,-2.039 63.82,0 116.82,18.468 147.78,38.058 31.52,19.942 50.43,46.891 51.88,73.942 1.2,22.281 -9.28,42.871 -30.29,59.558 -20.03,15.91 -41.02,23.871 -63.29,23.871 -22.26,0 -45.79,-7.949 -70.91,-23.84 -18.11,-11.461 -28.95,-26.558 -29.75,-41.429 -0.63,-11.75 5.1,-22.782 16.58,-31.899 8.94,-7.101 10.43,-20.101 3.33,-29.043 -4.08,-5.136 -10.11,-7.816 -16.2,-7.816 -4.5,0 -9.04,1.469 -12.84,4.488 -22.09,17.551 -33.51,41.16 -32.15,66.481 1.52,28.418 19.35,55.449 48.93,74.16 31.87,20.16 63.23,30.238 93.27,30.238"
         style="fill:#3a3a3c;fill-opacity:1;fill-rule:nonzero;stroke:none"
         id="path26"
         inkscape:connector-curvature="0" /><path
         d="m 1019.02,1100.56 c -1.09,0 -2.19,0.33 -3.15,1 -2.47,1.74 -3.07,5.15 -1.33,7.63 12.33,17.52 25.11,59.36 16.82,79.04 -1.18,2.79 0.13,6 2.92,7.17 2.79,1.17 5.99,-0.13 7.17,-2.92 10.14,-24.1 -4.09,-69.89 -17.95,-89.59 -1.07,-1.52 -2.76,-2.33 -4.48,-2.33"
         style="fill:#3a3a3c;fill-opacity:1;fill-rule:nonzero;stroke:none"
         id="path28"
         inkscape:connector-curvature="0" /><path
         d="m 1047.44,1094.49 c -1.52,0 -3.04,0.64 -4.12,1.88 -1.99,2.28 -1.75,5.74 0.52,7.72 13.91,12.14 49.49,39.77 79.57,34.3 2.97,-0.54 4.95,-3.39 4.4,-6.36 -0.54,-2.98 -3.38,-4.96 -6.36,-4.41 -20.73,3.77 -49.97,-13.94 -70.41,-31.78 -1.04,-0.9 -2.32,-1.35 -3.6,-1.35"
         style="fill:#3a3a3c;fill-opacity:1;fill-rule:nonzero;stroke:none"
         id="path30"
         inkscape:connector-curvature="0" /><path
         d="m 760.324,1373.91 -19.64,15.43 71.941,34 33.836,17.21 0.664,0.37 21.793,13.77 1.555,1.27 c 5.582,-20.66 8.535,-58.94 -32.813,-86.35 l -77.336,4.3"
         style="fill:#646668;fill-opacity:1;fill-rule:nonzero;stroke:none"
         id="path32"
         inkscape:connector-curvature="0" /><path
         d="m 872.488,1474.23 -7.957,-12.6 -21.793,-13.77 -33.836,-17.2 -83.734,-39.57 32.117,-25.24 82.586,-4.58 c 68.246,43.01 32.617,112.96 32.617,112.96 z m -7.769,-31.91 c 0.351,-2.77 0.586,-5.69 0.636,-8.71 0.372,-22.7 -9.722,-41.4 -30.019,-55.65 l -71.973,4 -7.164,5.63 59.719,28.22 0.426,0.21 33.84,17.21 1.324,0.75 13.211,8.34"
         style="fill:#3a3a3c;fill-opacity:1;fill-rule:nonzero;stroke:none"
         id="path34"
         inkscape:connector-curvature="0" /><path
         d="m 749.063,1426.56 c 0.882,12.4 3.492,25.78 12.808,34.01 10.516,9.29 26.395,9.17 40.027,5.84 13.633,-3.32 26.762,-9.32 40.778,-10.06 14.012,-0.75 24.816,18.69 33.918,19.24 9.824,-6.86 -19.422,-46.16 -39.047,-61.14 -19.621,-14.97 -44.625,-22.74 -69.277,-21.52 l -19.207,33.63"
         style="fill:#d4c1ba;fill-opacity:1;fill-rule:nonzero;stroke:none"
         id="path36"
         inkscape:connector-curvature="0" /><path
         d="m 598.418,13 c -94.711,0 -168.922,25.668 -214.5,47.2109 -49.543,23.3985 -76.984,47.1481 -77.254,47.3911 l -33.406,29.187 19.383,-66.8085 C 189.691,134.219 121.66,303.77 120.93,305.621 L 108.094,338.07 92.9453,294.781 c -25.1055,38.758 -43.2812,81.688 -54.1328,127.938 -10.3008,43.91 -14.0859,90.926 -11.2461,139.754 4.8672,83.636 27.7969,144.312 28.0274,144.918 L 76.3945,761.688 13.3594,701.176 C 20.1445,840.914 121.02,1001.59 122.109,1003.31 l 28.832,45.46 -60.566,-35.62 c 37.68,139.14 227.75,265.95 229.793,267.29 l 5.84,3.86 v 7 c 0,35.79 32.875,71.2 60.457,94.61 11.18,9.48 22.433,17.81 32.301,24.61 -1.219,-10.37 0.695,-16.54 1.398,-18.36 l 6.297,-16.38 13.832,10.79 c 57.727,45.03 99.707,63.8 126.254,71.52 l -0.203,-0.4 -13.477,-26.95 28.852,8.69 c 50.738,15.28 89.875,24.52 115.035,29.77 l -32.32,-42.66 30.203,3.47 c 5.062,0.58 10.402,0.88 15.875,0.88 37.328,0 75.89,-13.41 100.371,-23.91 l -44.059,-17.95 42.621,-8.4 c 45.328,-8.94 67.203,-36.38 77.223,-55.67 l -1.012,-0.05 -31.32,-2.08 19.023,-16.65 c -1.582,0.42 -3.261,0.8 -5.035,1.12 -5.969,1.09 -11.234,1.63 -15.652,1.63 -8.977,0 -15.324,-2.31 -18.871,-6.87 l -1.516,-1.95 -39.586,-134.56 -86.957,-63.89 19.817,-151.933 c 0.265,-11.707 7.535,-96.832 156.527,-212.579 6.398,-4.972 12.691,-9.41 18.777,-13.699 25.516,-18 47.555,-33.543 66.508,-80.5 15.348,-38.015 3.332,-91.304 3.207,-91.84 l -1.84,-7.968 6.387,-5.106 c 21.273,-17.015 49.255,-37.515 61.755,-38.527 30.59,-2.481 49.76,-14.477 60.85,-24.86 l -25.1,-2.789 6.62,-15.98 c 32.43,-78.309 37.46,-140.789 14.98,-185.688 -21.94,-43.82 -62.92,-54.722 -63.34,-54.82 l -3.52,-0.902 -2.55,-2.598 C 1024.37,211.41 979.078,165.512 908.715,118.398 844.285,75.2617 744.988,22.2109 637.82,14.4297 624.68,13.4805 611.422,13 598.418,13"
         style="fill:#d4c1ba;fill-opacity:1;fill-rule:nonzero;stroke:none"
         id="path38"
         inkscape:connector-curvature="0" /><path
         d="m 727.367,1488.09 c 0,0 -54.195,-7.54 -149.398,-36.21 0,0 6.883,13.76 25.234,24.08 0,0 -1.976,0.37 -5.941,0.37 -17.188,0 -71.762,-6.81 -164.965,-79.51 0,0 -5.734,14.91 11.473,44.73 0,0 -130.762,-71.11 -130.762,-150.25 0,0 -222.5236,-146.82 -240.8752,-303.968 l 39.0002,22.938 c 0,0 -119.29316,-188.106 -110.687687,-339.512 L 43.457,712.047 c 0,0 -94.6289,-246.035 53.336,-445.617 l 12.047,34.41 c 0,0 80.863,-204.7384 204.742,-256.3595 L 298.098,97.8203 C 298.098,97.8203 409.465,0 598.414,0 611.496,0 624.945,0.46875 638.762,1.46875 852.109,16.9492 1034.11,202.77 1034.11,202.77 c 0,0 148.34,37.851 57.15,258.082 l 30.97,3.437 c 0,0 -20.64,43.016 -84.3,48.176 -11.16,0.906 -54.684,35.723 -54.684,35.723 0,0 13.238,57.375 -3.82,99.628 -25.082,62.137 -56.43,74.012 -89.363,99.598 C 736.258,866.898 738.555,950.629 738.555,950.629 l -18.926,145.101 84.305,61.93 40.129,136.42 c 0,0 1.445,1.85 8.609,1.85 3.187,0 7.504,-0.36 13.324,-1.42 18.93,-3.44 21.293,-13.54 21.293,-13.54 0,0 8.406,22.94 -0.769,30.97 0,0 1.402,0.1 3.492,0.1 5.215,0 14.695,-0.59 17.152,-4.69 0,0 -13.766,69.97 -95.199,86.03 l 30.969,12.62 c 0,0 -67.266,37.88 -132.422,37.89 -5.824,0 -11.617,-0.3 -17.356,-0.96 l 34.211,45.16 m -62.484,-39.43 -29.168,-38.5 60.402,6.93 c 4.578,0.53 9.418,0.8 14.395,0.79 22.16,0 44.984,-5.11 64.679,-11.4 l -53.5,-21.8 85.243,-16.81 c 23.668,-4.67 42.621,-15.22 56.441,-31.41 l -41.223,-2.75 15.828,-13.85 c -6.023,-1.93 -10.851,-5.21 -14.433,-9.81 l -3.035,-3.9 -1.395,-4.74 -37.652,-127.98 -77.231,-56.75 -12.375,-9.09 1.985,-15.23 18.73,-143.594 c 0.262,-8.348 2.793,-31.942 20.989,-66.934 26.496,-50.949 73.781,-103.082 140.546,-154.949 6.637,-5.156 13.055,-9.684 19.258,-14.059 24.824,-17.508 44.426,-31.336 61.949,-74.742 11.375,-28.172 5.719,-70.258 2.594,-84.051 l -3.676,-15.933 12.77,-10.215 c 0.465,-0.371 11.555,-9.231 24.23,-18.336 25.326,-18.192 35.846,-22.285 44.586,-22.996 7.42,-0.602 14.06,-1.832 19.97,-3.481 l -1.79,-0.199 13.24,-31.973 c 17.07,-41.238 26.34,-78.257 27.53,-110.046 0.92,-24.653 -3.03,-46.18 -11.75,-64 -18.41,-37.653 -52.62,-48.102 -55.43,-48.911 l -6.78,-1.589 -5.28,-5.391 C 1015.1,220.52 971.105,175.891 901.961,129.52 861.469,102.371 820.617,80.1406 780.547,63.4609 731.086,42.8594 682.746,30.7305 636.879,27.3984 624.051,26.4688 611.109,26 598.414,26 c -40.527,0 -80.582,4.7695 -119.059,14.1914 -30.847,7.5469 -60.777,18.0977 -88.953,31.3281 -48.207,22.6524 -74.933,45.6525 -75.148,45.8325 l -67.234,59.687 21.261,-73.219 c -27.824,24.481 -55.523,58.578 -81.972,101.16 -34.211,55.079 -54.094,104.93 -54.286,105.411 L 107.367,375.352 89.8438,325.281 C 72.7656,356.289 59.9531,389.73 51.582,425.211 41.5391,467.781 37.8086,513.43 40.4961,560.887 45.1289,642.691 67.5117,702.156 67.7266,702.715 L 109.602,811.59 29.875,735.055 c 6.7695,45.097 22.3516,96.254 46.1953,151.101 27.6177,63.52 56.7347,109.742 57.0197,110.196 l 57.66,90.918 -75.883,-44.63 c 19.258,43.01 53.754,89.23 102.09,136.36 55.535,54.14 109.836,90.24 110.371,90.59 l 11.68,7.71 v 14 c 0,23.97 19.726,53.95 55.547,84.42 4.597,3.91 9.211,7.62 13.73,11.1 l 12.34,-32.08 27.664,21.58 c 33.035,25.77 63.844,45.2 91.789,57.92 l -12.316,-24.64 57.707,17.38 c 31.066,9.36 57.722,16.43 79.414,21.68"
         style="fill:#3a3a3c;fill-opacity:1;fill-rule:nonzero;stroke:none"
         id="path40"
         inkscape:connector-curvature="0" /><path
         d="m 629.793,0.890625 c 2.973,0.167965 5.961,0.359375 8.969,0.578125 0.418,0.03125 0.832,0.0625 1.25,0.08984 C 639.594,1.53125 639.18,1.5 638.762,1.46875 635.754,1.25 632.766,1.05859 629.793,0.890625 m 10.219,0.667965 c 0.195,0.01954 0.375,0.03125 0.57,0.04297 -0.187,-0.01172 -0.379,-0.02343 -0.57,-0.04297 m 0.629,0.05079 c 0.168,0.01171 0.324,0.01953 0.492,0.03906 -0.164,-0.01953 -0.328,-0.02735 -0.492,-0.03906 m 0.636,0.05078 c 0.145,0.01172 0.282,0.01953 0.422,0.03125 -0.14,-0.01172 -0.281,-0.01953 -0.422,-0.03125 m 0.645,0.05078 c 0.117,0.00781 0.234,0.01953 0.351,0.02734 -0.117,-0.00781 -0.234,-0.01953 -0.351,-0.02734 m 0.641,0.05078 c 0.105,0.00781 0.195,0.01953 0.296,0.02734 -0.097,-0.00781 -0.195,-0.01953 -0.296,-0.02734 m 0.652,0.05859 c 0.078,0 0.148,0.00782 0.226,0.01953 -0.074,-0.01171 -0.152,-0.01953 -0.226,-0.01953 m 0.652,0.05078 c 0.051,0.00782 0.121,0.00782 0.172,0.01954 -0.059,-0.01172 -0.113,-0.01172 -0.172,-0.01954 m 0.664,0.0586 c 0.028,0 0.059,0 0.086,0.01172 -0.031,-0.01172 -0.058,-0.01172 -0.086,-0.01172"
         style="fill:#dddad7;fill-opacity:1;fill-rule:nonzero;stroke:none"
         id="path42"
         inkscape:connector-curvature="0" /><path
         d="m 598.414,26 c -40.527,0 -80.582,4.7695 -119.059,14.1914 -30.847,7.5469 -60.777,18.0977 -88.953,31.3281 -48.207,22.6524 -74.933,45.6525 -75.148,45.8325 l -67.234,59.687 21.261,-73.219 c -27.824,24.481 -55.523,58.578 -81.972,101.16 -34.211,55.079 -54.094,104.93 -54.286,105.411 L 107.367,375.352 89.8438,325.281 C 72.7656,356.289 59.9531,389.73 51.582,425.211 41.5391,467.781 37.8086,513.43 40.4961,560.887 45.1289,642.691 67.5117,702.156 67.7266,702.715 L 109.602,811.59 29.875,735.055 c 6.7695,45.097 22.3516,96.254 46.1953,151.101 27.6177,63.52 56.7347,109.742 57.0197,110.196 l 47.137,74.328 c -9.129,-26.79 -13.125,-54.92 -10.227,-83.621 5.07,-50.184 30.758,-98.45 24.609,-148.512 C 185.902,767.613 116.402,716.43 104.809,645.91 94.2461,581.664 134.605,520.176 180.004,473.5 225.402,426.828 279.094,385.34 306.91,326.469 328.465,280.852 332.492,228.441 354.426,182.988 396.395,96.0508 495.113,51.5195 589.891,33.1406 602.277,30.7383 614.727,28.6602 627.223,26.7891 617.582,26.2617 607.93,26 598.414,26 M 114.867,1042.64 c 15.617,34.88 41.254,71.86 76.164,109.74 7.735,-4.84 16.574,-8.55 26.512,-11.1 -13.055,-18 -24.078,-37.19 -32.305,-57.25 l -70.371,-41.39"
         style="fill:#b7a59e;fill-opacity:1;fill-rule:nonzero;stroke:none"
         id="path44"
         inkscape:connector-curvature="0" /><path
         d="M 598.414,0 C 417.949,0 308.254,89.2305 298.77,97.2383 c -0.45,0.3828 -0.672,0.582 -0.672,0.582 v 0 0 L 313.582,44.4805 C 189.703,96.1016 108.84,300.84 108.84,300.84 L 96.793,266.43 C 31.8438,354.039 13.6367,450.602 13.6523,531.371 13.6719,634.605 43.457,712.047 43.457,712.047 v 0 0 L 0.445313,670.758 C 0.140625,676.078 -0.00390625,681.445 0,686.852 0.0820313,835.156 111.133,1010.27 111.133,1010.27 v 0 0 L 72.1328,987.332 c 7.707,65.978 51.4102,130.148 99.5192,182.378 5.395,-6.85 11.86,-12.63 19.379,-17.33 -34.91,-37.88 -60.547,-74.86 -76.164,-109.74 l 70.371,41.39 c -1.808,-4.41 -3.484,-8.87 -5.011,-13.35 L 133.09,996.352 C 132.805,995.898 103.688,949.676 76.0703,886.156 52.2266,831.309 36.6445,780.152 29.875,735.055 L 109.602,811.59 67.7266,702.715 C 67.5117,702.156 45.1289,642.691 40.4961,560.887 37.8086,513.43 41.5391,467.781 51.582,425.211 59.9531,389.73 72.7656,356.289 89.8438,325.281 l 17.5232,50.071 25.656,-64.961 c 0.192,-0.481 20.075,-50.332 54.286,-105.411 26.449,-42.582 54.148,-76.679 81.972,-101.16 l -21.261,73.219 67.234,-59.687 c 0.215,-0.18 26.941,-23.1801 75.148,-45.8325 C 418.578,58.2891 448.508,47.7383 479.355,40.1914 517.832,30.7695 557.887,26 598.414,26 c 9.516,0 19.168,0.2617 28.809,0.7891 C 657.82,22.2109 688.68,18.8906 719.426,15.2188 695.129,8.80078 670.109,4.16016 644.617,1.94141 644.59,1.92969 644.559,1.92969 644.531,1.92969 644.367,1.91016 644.203,1.89844 644.039,1.89063 643.988,1.87891 643.918,1.87891 643.867,1.87109 643.727,1.85938 643.582,1.85156 643.441,1.83984 643.363,1.82813 643.293,1.82031 643.215,1.82031 643.098,1.80859 642.98,1.80078 642.859,1.78906 642.758,1.78125 642.668,1.76953 642.563,1.76172 642.469,1.75 642.367,1.75 642.273,1.73828 c -0.117,-0.00781 -0.234,-0.01953 -0.351,-0.02734 -0.074,-0.01172 -0.149,-0.01172 -0.223,-0.01953 -0.14,-0.01172 -0.277,-0.01953 -0.422,-0.03125 -0.047,0 -0.097,-0.01172 -0.144,-0.01172 -0.168,-0.01953 -0.324,-0.02735 -0.492,-0.03906 -0.02,0 -0.039,0 -0.059,-0.00782 -0.195,-0.01172 -0.375,-0.02343 -0.57,-0.04297 v 0 C 639.594,1.53125 639.18,1.5 638.762,1.46875 635.754,1.25 632.766,1.05859 629.793,0.890625 619.109,0.28125 608.648,0 598.414,0"
         style="fill:#3d3939;fill-opacity:1;fill-rule:nonzero;stroke:none"
         id="path46"
         inkscape:connector-curvature="0" /><path
         d="m 603.191,1475.97 c -0.054,0.01 -0.293,0.05 -0.707,0.1 0.414,-0.05 0.653,-0.09 0.707,-0.1 m -0.847,0.11 c -0.004,0 -0.008,0.01 -0.008,0.01 0,0 0.004,-0.01 0.008,-0.01 m -0.024,0.01 c -0.007,0 -0.015,0 -0.023,0 0.008,0 0.016,0 0.023,0 m -0.023,0 c -0.055,0 -0.113,0.01 -0.172,0.02 0.059,-0.01 0.117,-0.02 0.172,-0.02"
         style="fill:#dddad7;fill-opacity:1;fill-rule:nonzero;stroke:none"
         id="path48"
         inkscape:connector-curvature="0" /><path
         d="m 310.609,1231.03 -11.984,17.9 c 17.289,13.08 28.461,20.5 28.703,20.66 l 11.68,7.71 v 14 c 0,23.97 19.726,53.95 55.547,84.42 4.597,3.91 9.211,7.62 13.73,11.1 l 12.34,-32.08 27.664,21.58 c 33.035,25.77 63.844,45.2 91.789,57.92 l -12.316,-24.64 57.707,17.38 c 13.09,3.95 25.394,7.48 36.875,10.65 -39.262,-27.43 -95.965,-46.25 -131.727,-68.6 -70.957,-44.35 -116.719,-88.53 -180.008,-138"
         style="fill:#b7a59e;fill-opacity:1;fill-rule:nonzero;stroke:none"
         id="path50"
         inkscape:connector-curvature="0" /><path
         d="m 298.625,1248.93 -14.5,21.66 c 17.641,13.29 28.883,20.71 28.883,20.71 0,79.14 130.762,150.25 130.762,150.25 -10.321,-17.88 -12.387,-30.4 -12.391,-37.56 0,-4.78 0.918,-7.17 0.918,-7.17 93.203,72.7 147.777,79.51 164.965,79.51 2.273,0 3.894,-0.12 4.863,-0.22 0.059,-0.01 0.117,-0.02 0.172,-0.02 v 0 c 0.008,0 0.016,0 0.023,0 0.004,0 0.008,0 0.016,0 0,0 0.004,-0.01 0.008,-0.01 0.047,0 0.097,-0.01 0.14,-0.01 0.414,-0.05 0.653,-0.09 0.707,-0.1 0.008,-0.01 0.012,-0.01 0.012,-0.01 -18.351,-10.32 -25.234,-24.08 -25.234,-24.08 v 0 0 c 27.992,8.43 53.672,13.27 76.023,15.94 -7.769,-11.28 -18.773,-21.2 -31.648,-30.19 -11.481,-3.17 -23.785,-6.7 -36.875,-10.65 l -57.707,-17.38 12.316,24.64 c -27.945,-12.72 -58.754,-32.15 -91.789,-57.92 l -27.664,-21.58 -12.34,32.08 c -4.519,-3.48 -9.133,-7.19 -13.73,-11.1 -35.821,-30.47 -55.547,-60.45 -55.547,-84.42 v -14 l -11.68,-7.71 c -0.242,-0.16 -11.414,-7.58 -28.703,-20.66"
         style="fill:#3d3939;fill-opacity:1;fill-rule:nonzero;stroke:none"
         id="path52"
         inkscape:connector-curvature="0" /><path
         d="m 178.965,1319.57 c 0,0 -72.695,-175.13 77.433,-173.63 23.024,0.23 49.04,21.02 47.54,79.07 l -40.536,60.55 -47.539,25.02 -23.519,9.01 -13.379,-0.02"
         style="fill:#646668;fill-opacity:1;fill-rule:nonzero;stroke:none"
         id="path54"
         inkscape:connector-curvature="0" /><path
         d="m 185.109,1310.68 c -7.066,-19.6 -28.339,-87.11 -2.195,-126.22 13.145,-19.66 37.223,-29.64 71.57,-29.64 h 0.016 l 1.809,0.02 c 5.839,0.05 14.461,1.84 22.375,10.05 7.757,8.04 16.793,24.49 16.41,57.34 l -37.828,56.51 -45.078,23.72 -21.485,8.23 -5.594,-0.01 M 254.5,1137.04 h -0.016 c -40.675,0 -69.738,12.64 -86.382,37.57 -35.93,53.82 1.054,144.53 2.648,148.37 1.375,3.31 4.609,5.47 8.199,5.48 l 13.379,0.02 h 0.016 c 1.086,0 2.164,-0.2 3.179,-0.59 l 23.52,-9 0.961,-0.44 47.543,-25.02 c 1.305,-0.69 2.422,-1.69 3.246,-2.92 l 40.535,-60.55 c 0.938,-1.41 1.457,-3.04 1.5,-4.72 1.055,-40.72 -11.023,-62.01 -21.34,-72.7 -9.511,-9.86 -21.941,-15.36 -35.004,-15.49 l -1.984,-0.01"
         style="fill:#3a3a3c;fill-opacity:1;fill-rule:nonzero;stroke:none"
         id="path56"
         inkscape:connector-curvature="0" /><path
         d="m 423.559,446.102 c -47.399,15.238 -54.172,72.793 -54.172,72.793 -28.778,-21.161 -39.782,-55.016 -39.782,-55.016 -36.394,67.711 -11.003,132.887 -11.003,132.887 l 110.035,-11.567 c 1,-0.222 2.039,-0.332 3.109,-0.332 26.211,0 74.34,63.555 132.887,64.098 0.176,0 0.351,0 0.527,0 29.524,0 41.856,-23.016 45.18,-28.219 12.976,-20.312 31.035,-29.34 45.144,-37.242 5.485,-3.07 18.141,-4.012 31.559,-4.012 21.086,0 44.055,2.321 44.055,2.321 -5.078,-18.622 -44.016,-31.036 -44.016,-31.036 l 32.731,-16.929 c -14.672,-22.571 -67.715,-31.602 -67.715,-31.602 2.257,-6.769 16.925,-31.598 16.925,-31.598 -58.402,3.383 -91.414,70.254 -91.414,70.254 -4.32,0.61 -8.296,0.895 -11.976,0.895 -57.59,0 -39.656,-70.309 -39.656,-70.309 -9.293,-1.957 -17.633,-2.789 -25.094,-2.789 -40.793,0 -55.317,24.801 -55.317,24.801 -14.39,-8.461 -22.007,-47.398 -22.007,-47.398"
         style="fill:#bdaea8;fill-opacity:1;fill-rule:nonzero;stroke:none"
         id="path58"
         inkscape:connector-curvature="0" /><path
         d="m 282.555,1178.35 c -4.391,0 -9.305,0.7 -14.149,3.24 -29.793,15.61 -37.058,35.43 -48.929,66.91 -7.77,20.59 -10.266,43.12 -24.731,60.64 l 17.442,-6.68 45.078,-23.72 37.828,-56.51 c 0.23,-20.02 -3.031,-33.95 -7.371,-43.6 -1.606,-0.16 -3.34,-0.28 -5.168,-0.28"
         style="fill:#454547;fill-opacity:1;fill-rule:nonzero;stroke:none"
         id="path60"
         inkscape:connector-curvature="0" /><path
         d="m 287.723,1178.63 c 4.34,9.65 7.601,23.58 7.371,43.6 l -37.828,56.51 -45.078,23.72 -17.442,6.68 c -3.898,4.72 -8.668,9.08 -14.648,12.94 0.726,1.92 1.164,2.96 1.164,2.96 l 13.375,0.02 23.519,-9.01 47.539,-25.02 37.379,-59.06 c 0.778,-30.02 1.082,-38.46 -7.043,-52.55 -0.191,0.02 -0.398,0.03 -0.617,0.03 -1.355,0 -3.199,-0.28 -5.391,-0.55 -0.73,-0.1 -1.5,-0.19 -2.3,-0.27"
         style="fill:#2c2b2b;fill-opacity:1;fill-rule:nonzero;stroke:none"
         id="path62"
         inkscape:connector-curvature="0" /><path
         d="m 315.301,623.441 c 0,0 -25.809,-66.242 11.183,-135.062 0,0 11.184,34.41 40.434,55.918 0,0 6.883,-58.496 55.059,-73.988 0,0 7.742,39.578 22.367,48.179 0,0 20.644,-35.269 81.722,-22.367 0,0 -20.644,80.867 52.477,70.543 0,0 33.551,-67.961 92.91,-71.402 0,0 -14.91,25.234 -17.207,32.117 0,0 53.91,9.176 68.82,32.117 l -33.261,17.203 c 0,0 39.574,12.617 44.734,31.543 0,0 -62.512,-6.308 -76.851,1.723 -14.336,8.027 -32.688,17.203 -45.879,37.851 -3.399,5.317 -16.063,28.957 -46.457,28.676 -61.938,-0.574 -112.407,-70.543 -138.215,-64.808"
         style="fill:#d4c1ba;fill-opacity:1;fill-rule:nonzero;stroke:none"
         id="path64"
         inkscape:connector-curvature="0" /><path
         d="m 427.73,460.559 -8.058,2.589 c -37.965,12.204 -52.406,47.77 -57.578,67.239 -20.176,-19.438 -28.36,-44.059 -28.449,-44.336 l -5.446,-16.75 -8.344,15.519 c -38.195,71.059 -12.671,138.516 -11.566,141.356 l 14.031,-5.457 c -0.226,-0.582 -20.566,-54.809 3.883,-114.18 6.535,12.68 18.094,30.469 36.258,43.82 l 10.422,7.664 1.512,-12.847 c 0.058,-0.492 6.152,-47.383 42.183,-64.637 3.449,13.535 11.059,36.856 23.949,44.438 l 6.5,3.824 3.809,-6.512 c 0.695,-1.133 17.516,-27.699 66.394,-20.141 -2.089,13.457 -3.929,40.95 11.586,58.266 11.016,12.293 28.102,16.899 50.782,13.703 l 3.933,-0.554 1.762,-3.567 c 0.285,-0.574 26.594,-52.594 71.762,-64.801 -4.18,7.473 -8.625,15.828 -9.95,19.801 l -2.777,8.328 8.656,1.473 c 12.192,2.086 42.969,9.754 58.008,22.469 l -40.773,21.089 17.301,5.516 c 7.812,2.5 21.66,8.438 30.855,15.481 -20.828,-1.399 -52.992,-2.325 -64.363,4.043 -0.996,0.558 -2.016,1.125 -3.047,1.695 -14.348,7.961 -32.207,17.867 -45.5,38.672 l -0.762,1.222 c -4.082,6.621 -14.902,24.192 -39.281,23.981 -33.141,-0.309 -63.82,-22.703 -88.469,-40.699 -20.75,-15.149 -37.14,-27.106 -51.449,-23.93 l 3.266,14.695 c 7.679,-1.718 23.753,10.039 39.308,21.395 26.391,19.262 59.231,43.238 97.203,43.59 21.789,0.144 39.375,-10.274 52.235,-31.133 l 0.632,-1.016 c 11.243,-17.594 26.582,-26.105 40.122,-33.613 1.046,-0.582 2.082,-1.156 3.097,-1.723 8.453,-4.734 47.434,-3.316 72.414,-0.797 l 10.903,1.098 -2.883,-10.57 c -3.817,-13.981 -20.735,-24.344 -33.871,-30.461 l 25.976,-13.438 -4.527,-6.968 c -12.684,-19.512 -47.043,-29.555 -64.274,-33.489 3.657,-6.976 9.094,-16.5 12.829,-22.816 l 7.183,-12.16 -14.101,0.82 c -55.465,3.215 -89.047,57.066 -97.278,71.914 -15.449,1.535 -26.777,-1.574 -33.687,-9.269 -15.375,-17.122 -6.778,-52.071 -6.688,-52.422 l 1.914,-7.59 -7.656,-1.621 c -48.355,-10.223 -73.672,7.804 -84.031,18.656 -6.289,-8.793 -11.836,-26.379 -14.231,-38.547 l -1.629,-8.312"
         style="fill:#3a3a3c;fill-opacity:1;fill-rule:nonzero;stroke:none"
         id="path66"
         inkscape:connector-curvature="0" /><path
         d="m 924.031,521.211 -2.226,0.035 c -24.848,0.758 -48.543,14.098 -70.434,39.645 -2.703,3.16 -2.336,7.91 0.82,10.613 3.157,2.703 7.911,2.34 10.614,-0.82 19.015,-22.196 39.023,-33.766 59.461,-34.395 l 1.754,-0.023 c 26.914,0 45.585,18.941 45.773,19.14 2.895,2.985 7.66,3.059 10.645,0.168 2.984,-2.89 3.062,-7.656 0.167,-10.644 -0.957,-0.989 -23.371,-23.719 -56.574,-23.719"
         style="fill:#3a3a3c;fill-opacity:1;fill-rule:nonzero;stroke:none"
         id="path68"
         inkscape:connector-curvature="0" /><path
         d="m 850.961,570.965 c -23.211,-20.426 -21.219,-48.75 -21.219,-48.75 -9.75,9.176 -9.75,45.883 -9.75,45.883 -24.664,-36.707 -45.883,-34.41 -45.883,-34.41 8.032,9.175 11.469,33.835 11.469,33.835 -25.23,-13.191 -34.406,7.457 -34.406,7.457 15.484,-4.015 25.23,17.493 25.23,17.493 -4.3,65.379 56.782,62.797 56.782,62.797 0,0 40.144,2.296 39.57,-48.172 0,0 -7.453,-23.516 -21.793,-36.133"
         style="fill:#f4f4f5;fill-opacity:1;fill-rule:nonzero;stroke:none"
         id="path70"
         inkscape:connector-curvature="0" /><path
         d="m 785.578,572.313 c 0.973,0 1.938,-0.293 2.762,-0.872 1.465,-1.035 2.23,-2.8 1.984,-4.578 -0.273,-1.972 -2.269,-15.433 -6.808,-26.343 7.64,3.113 19.488,10.882 32.5,30.25 1.175,1.75 3.355,2.523 5.371,1.91 2.015,-0.614 3.394,-2.477 3.394,-4.582 0.004,-7.934 0.782,-18.379 2.434,-27.051 2.687,10.207 8.43,22.82 20.582,33.516 11.871,10.445 18.879,29.566 20.176,33.332 0.043,14.714 -3.582,25.863 -10.785,33.144 -8.899,9.004 -20.899,9.457 -23.215,9.457 l -0.535,-0.008 -0.458,-0.004 -0.73,0.012 c -4.109,0 -25.301,-0.742 -39.004,-15.379 -9.203,-9.828 -13.262,-24.07 -12.062,-42.332 l -0.414,-2.293 c -0.336,-0.734 -7.336,-15.867 -19.731,-19.847 2.215,-1.532 5.16,-2.735 8.938,-2.735 v 0 c 3.984,0 8.488,1.297 13.382,3.86 l 2.219,0.543 m 44.164,-54.887 c -1.195,0 -2.375,0.449 -3.285,1.301 -7.086,6.671 -9.723,23.289 -10.695,35.644 -19.371,-23.469 -35.836,-25.504 -40.891,-25.504 l -1.273,0.059 c -1.758,0.222 -3.293,1.402 -3.918,3.058 -0.629,1.653 -0.34,3.524 0.828,4.856 4.051,4.633 7.039,14.933 8.785,22.93 -3.219,-0.957 -6.332,-1.438 -9.313,-1.442 h -0.007 c -16.461,0 -22.914,14.106 -23.18,14.707 -0.746,1.68 -0.465,3.637 0.723,5.043 1.187,1.399 3.078,2.004 4.855,1.535 l 2.637,-0.343 c 7.672,0 14.105,9.429 16.543,14.168 -1.106,20.41 3.84,36.628 14.699,48.226 16.41,17.524 41.199,18.41 46,18.41 l 0.906,-0.011 0.817,0.015 c 4.191,0 18.742,-0.89 30.027,-12.301 9.188,-9.297 13.746,-23 13.543,-40.738 l -0.223,-1.391 c -0.32,-1.011 -8.031,-24.933 -23.195,-38.277 -19.73,-17.367 -19.73,-41.043 -19.621,-44.414 l 0.055,-0.742 c 0,-2.645 -2.141,-4.785 -4.786,-4.789 h -0.031"
         style="fill:#3a3a3c;fill-opacity:1;fill-rule:nonzero;stroke:none"
         id="path72"
         inkscape:connector-curvature="0" /><path
         d="m 433.613,315.961 c 0,0 28.168,82.34 81.254,113.758 l -3.25,-40.09 c 0,0 53.086,44.422 138.672,62.84 l -11.918,-36.84 c 0,0 73.672,-1.078 91.008,-36.828 l -22.754,-3.25 40.086,-50.922 -72.965,-116.117 c 0,0 -64.625,-25.813 -72.211,-74.563 L 433.613,315.961"
         style="fill:#d4c1ba;fill-opacity:1;fill-rule:nonzero;stroke:none"
         id="path74"
         inkscape:connector-curvature="0" /><path
         d="m 611.004,132.48 -18.934,2.942 c 7.438,47.808 61.621,74.699 75.16,80.719 l 67.778,107.871 -46.188,58.668 22.535,3.218 c -19.492,15.59 -57.519,19.903 -73.128,20.153 l -12.95,0.211 10.637,32.886 C 563.18,419.77 518.238,382.68 517.762,382.281 l -17.543,-14.679 3.41,42.058 c -39.184,-34.422 -60.715,-96.109 -60.953,-96.808 l -18.129,6.207 c 1.199,3.5 29.949,86.062 85.441,118.902 l 15.922,9.418 -3.066,-37.789 c 22.644,15 66.359,39.531 125.429,52.238 l 16.247,3.5 -13.231,-40.898 c 23.352,-2.168 71.656,-10.41 86.707,-41.461 l 5.727,-11.797 -19.289,-2.762 33.98,-43.16 -78.215,-124.48 -2.898,-1.161 c -0.586,-0.238 -59.656,-24.429 -66.297,-67.129"
         style="fill:#3a3a3c;fill-opacity:1;fill-rule:nonzero;stroke:none"
         id="path76"
         inkscape:connector-curvature="0" /><path
         d="m 1015.4,333.352 -0.86,0.046 c -4.13,0.473 -7.1,4.204 -6.63,8.332 9.22,80.848 -70.633,159.813 -71.441,160.598 -2.977,2.906 -3.035,7.668 -0.133,10.645 2.898,2.976 7.664,3.043 10.637,0.136 3.515,-3.421 85.947,-84.839 75.897,-173.078 -0.44,-3.84 -3.69,-6.679 -7.47,-6.679"
         style="fill:#3a3a3c;fill-opacity:1;fill-rule:nonzero;stroke:none"
         id="path78"
         inkscape:connector-curvature="0" /><path
         d="m 657.688,609.965 c -14.336,8.027 -32.688,17.203 -45.879,37.851 -0.602,0.942 -1.512,2.473 -2.739,4.329 l -29.668,8.289 14.625,-48.176 -33.55,-22.367 18.066,-23.227 c 0,0 33.551,-67.961 92.91,-71.402 0,0 -14.91,25.234 -17.207,32.117 0,0 53.91,9.176 68.82,32.117 l -33.261,17.203 c 0,0 39.574,12.617 44.734,31.543 0,0 -62.512,-6.308 -76.851,1.723"
         style="fill:#f4f4f5;fill-opacity:1;fill-rule:nonzero;stroke:none"
         id="path80"
         inkscape:connector-curvature="0" /><path
         d="m 566.43,588.926 15.355,-19.742 0.438,-0.7 c 0.312,-0.629 30.172,-59.793 81.586,-68.25 -4.696,8.172 -11.813,20.911 -13.457,25.844 -0.379,1.141 -0.243,2.383 0.375,3.41 0.617,1.028 1.648,1.739 2.832,1.938 0.488,0.082 46.375,8.105 63.25,26.683 l -28.891,14.946 c -1.477,0.761 -2.344,2.336 -2.203,3.988 0.137,1.656 1.262,3.062 2.84,3.57 8.91,2.844 30.574,11.774 39.004,22.895 -8.692,-0.707 -23.715,-1.727 -37.797,-1.727 -17.407,0 -28.551,1.504 -34.078,4.602 -1,0.558 -2.024,1.125 -3.059,1.699 -14.012,7.773 -31.453,17.449 -44.277,37.523 l -0.731,1.172 -1.144,1.828 -20.969,5.86 12.453,-41.016 c 0.527,-1.73 -0.144,-3.601 -1.652,-4.605 z m 105.023,-97.77 -0.238,0.008 c -59.352,3.441 -93.039,67.141 -96.16,73.301 l -17.817,22.906 c -0.703,0.899 -0.996,2.051 -0.812,3.176 0.183,1.129 0.824,2.125 1.773,2.758 l 31.016,20.679 -13.738,45.258 c -0.438,1.434 -0.055,2.988 0.992,4.063 1.047,1.07 2.597,1.484 4.039,1.082 l 29.668,-8.289 c 0.949,-0.266 1.769,-0.864 2.316,-1.688 0.848,-1.277 1.551,-2.414 2.106,-3.312 l 0.668,-1.071 c 11.707,-18.324 27.453,-27.058 41.343,-34.765 1.047,-0.578 2.075,-1.153 3.086,-1.715 2.368,-1.328 9.426,-3.555 30.067,-3.555 20.965,0 44.133,2.313 44.363,2.336 1.348,0.141 2.672,-0.398 3.547,-1.433 0.875,-1.032 1.183,-2.426 0.828,-3.731 C 734.363,592 712.699,581.199 699.984,576.055 l 24.969,-12.914 c 1.031,-0.532 1.785,-1.477 2.082,-2.598 0.297,-1.117 0.106,-2.313 -0.523,-3.285 -13.059,-20.09 -52.289,-29.953 -66.465,-32.934 3.719,-7.625 11.301,-20.804 14.723,-26.605 0.511,-0.688 0.816,-1.535 0.816,-2.457 0,-2.27 -1.84,-4.106 -4.106,-4.106 h -0.027"
         style="fill:#3a3a3c;fill-opacity:1;fill-rule:nonzero;stroke:none"
         id="path82"
         inkscape:connector-curvature="0" /><path
         d="m 777.801,859.547 c -39.696,55.766 -39.266,90.211 -39.246,91.066 -0.02,-0.855 -0.434,-35.308 39.25,-91.062 v 0 m -39.25,91.062 c 0,0.008 0,0.012 0,0.016 0,-0.004 0,-0.008 0,-0.016 m 0,0.016 v 0 0 0 m -18.926,145.101 v 0 l 84.305,61.93 31.41,106.78 c 1.609,-1.33 3.246,-2.71 4.918,-4.12 l -36.328,-102.66 -84.305,-61.93"
         style="fill:#d2d2d0;fill-opacity:1;fill-rule:nonzero;stroke:none"
         id="path84"
         inkscape:connector-curvature="0" /><path
         d="m 557.109,776.121 c -109.668,0 -183.882,115.438 -183.882,115.438 l -3.442,-34.411 c -48.176,49.895 -51.617,116.997 -51.617,116.997 l -13.762,-25.809 c -25.808,75.704 3.442,135.924 3.442,135.924 l -34.41,-22.37 c 71.847,175.13 173.218,224.59 264.867,224.59 119.043,0 221.664,-83.51 221.664,-83.51 23.09,53.48 38.344,70.99 51.527,72.53 l -30.031,-102.07 -77.231,-56.75 -12.375,-9.09 1.985,-15.23 18.73,-143.594 c 0.262,-8.348 2.793,-31.942 20.989,-66.934 6.136,-11.805 13.39,-23.668 21.746,-35.582 -65.286,-35.922 -121.317,-43.797 -157.899,-43.793 -28.543,0 -45.25,4.793 -45.25,4.793 l 12.043,-30.969 c -2.383,-0.109 -4.742,-0.16 -7.094,-0.16"
         style="fill:#ab9d98;fill-opacity:1;fill-rule:nonzero;stroke:none"
         id="path86"
         inkscape:connector-curvature="0" /><path
         d="m 755.309,846.25 c -8.356,11.914 -15.61,23.777 -21.746,35.582 -18.196,34.992 -20.727,58.586 -20.989,66.934 l -18.73,143.594 -1.985,15.23 12.375,9.09 77.231,56.75 30.031,102.07 c 0.656,0.08 1.309,0.12 1.957,0.12 7.524,0 14.445,-5.02 21.891,-11.18 l -31.41,-106.78 -84.305,-61.93 18.926,-145.101 v 0 0 c 0,-0.004 0,-0.008 0,-0.016 v 0 c -0.02,-0.855 -0.45,-35.3 39.246,-91.066 -7.602,-4.809 -15.11,-9.234 -22.492,-13.297"
         style="fill:#333233;fill-opacity:1;fill-rule:nonzero;stroke:none"
         id="path88"
         inkscape:connector-curvature="0" /><path
         d="m 758.82,1275.46 c 0,0 -272.988,217.93 -479.648,-190.41 l 34.41,22.37 c 0,0 -29.25,-60.22 -3.441,-135.924 l 13.761,25.809 c 0,0 3.442,-67.102 51.618,-116.996 l 3.441,34.41 c 0,0 77.426,-120.438 190.98,-115.274 l -12.043,30.969 c 0,0 161.731,-46.457 338.946,149.688 0,0 140.706,21.788 192.326,-2.297 0,0 26.57,-24.66 70.54,29.825 34.1,42.27 -49.52,70.54 -49.52,70.54 0,0 -6.34,9.27 -9.46,11.19 -45.32,27.78 -134.035,34.36 -160.632,73.41 -33.645,49.37 -106.719,110.39 -96.395,133.34 0,0 -26.383,82.58 -84.883,-20.65"
         style="fill:#f4f4f5;fill-opacity:1;fill-rule:nonzero;stroke:none"
         id="path90"
         inkscape:connector-curvature="0" /><path
         d="m 378.961,923.617 c 2.98,0 5.82,-1.504 7.484,-4.086 0.176,-0.277 18.508,-28.476 49.606,-56.207 27.172,-24.23 69.828,-52.945 120.902,-55.027 l -7.348,18.894 c -1.222,3.149 -0.558,6.723 1.723,9.219 2.277,2.496 5.777,3.488 9.024,2.551 0.14,-0.035 16.082,-4.453 42.816,-4.453 56.074,0 167.934,19.691 287.074,151.555 1.367,1.515 3.219,2.515 5.238,2.828 2.411,0.375 59.684,9.144 115.07,9.144 37.36,0 65.07,-4.094 82.38,-12.168 0.93,-0.433 1.51,-0.765 2.22,-1.476 0.6,-0.469 4.39,-3.258 11.03,-3.258 v 0 c 9.45,0 25.21,5.566 46.6,32.077 5.51,6.83 7.31,13.12 5.53,19.26 -5.27,18.14 -39.42,33.37 -50.97,37.27 -1.83,0.62 -3.4,1.82 -4.49,3.4 -2.48,3.62 -5.74,7.71 -6.96,8.74 -17.21,10.5 -42.25,18.19 -66.46,25.64 -38.836,11.93 -79,24.28 -96.684,50.24 -12.137,17.81 -29.703,37.35 -46.687,56.25 -31.024,34.51 -55.946,62.24 -51.754,81.82 -2.559,6.3 -10.317,22.65 -21.91,22.65 -7.082,0 -22.457,-6.16 -45.832,-47.41 -1.286,-2.26 -3.497,-3.85 -6.055,-4.34 -2.555,-0.5 -5.199,0.15 -7.235,1.78 -0.699,0.55 -71.687,56.15 -166.062,56.15 -109.773,0 -205.238,-71.77 -284.082,-213.43 l 5.605,3.65 c 3.348,2.17 7.739,1.85 10.735,-0.79 2.996,-2.65 3.859,-6.96 2.113,-10.56 -0.238,-0.5 -22.117,-47.13 -8.84,-108.253 l 3.313,6.213 c 1.883,3.53 5.883,5.37 9.785,4.5 3.902,-0.87 6.742,-4.24 6.949,-8.228 0.027,-0.563 3.168,-51.516 35.965,-95.719 l 1.355,13.562 c 0.375,3.766 3.094,6.879 6.774,7.762 z m 183.883,-133.23 c -47.067,0 -95.129,20.742 -138.996,59.984 -16.485,14.742 -29.43,29.402 -38.332,40.492 l -1.145,-11.437 c -0.344,-3.449 -2.66,-6.383 -5.933,-7.52 -3.27,-1.133 -6.911,-0.269 -9.317,2.223 -30.879,31.984 -44.199,70.262 -49.906,95.484 l -1.227,-2.3 c -1.668,-3.129 -5.043,-4.969 -8.566,-4.68 -3.531,0.285 -6.559,2.64 -7.703,5.992 -16.735,49.095 -11.453,91.715 -4.879,117.305 l -12.82,-8.34 c -3.375,-2.19 -7.797,-1.84 -10.79,0.84 -2.996,2.69 -3.812,7.05 -1.996,10.64 46.399,91.68 100.09,159.5 159.582,201.56 48.618,34.39 101.239,51.82 156.395,51.82 82.644,0 146.805,-38.72 168.922,-54.01 19.621,32.17 38.074,47.83 56.262,47.83 27.496,0 39.293,-35.93 39.781,-37.46 0.668,-2.09 0.539,-4.35 -0.363,-6.36 -0.227,-0.51 -1.895,-5.49 10.324,-22.59 9.148,-12.8 22.75,-27.93 37.156,-43.96 17.375,-19.33 35.344,-39.33 48.152,-58.13 14.176,-20.8 51.305,-32.21 87.215,-43.25 25.36,-7.79 51.57,-15.85 70.71,-27.58 3.31,-2.03 7.28,-6.9 10.47,-11.34 11.82,-4.37 51.63,-20.9 59.55,-48.17 2.4,-8.22 2.82,-21.04 -8.76,-35.39 -20.72,-25.677 -41.06,-38.696 -60.45,-38.696 v 0 c -11.32,0 -18.77,4.597 -21.72,6.832 -14.87,6.59 -40.38,10.07 -73.91,10.07 -46.847,0 -96.562,-6.664 -109.261,-8.484 C 847.961,913.285 790.699,870.57 731.051,844.781 677.406,821.59 631.898,816.719 603.168,816.719 c -12.766,0 -23.289,0.926 -31.176,1.992 l 6.238,-16.043 c 1.04,-2.672 0.727,-5.68 -0.835,-8.078 -1.563,-2.402 -4.188,-3.902 -7.051,-4.031 -2.489,-0.114 -5.012,-0.172 -7.5,-0.172"
         style="fill:#3a3a3c;fill-opacity:1;fill-rule:nonzero;stroke:none"
         id="path92"
         inkscape:connector-curvature="0" /><path
         d="m 647.395,890.852 c -37.961,0 -79.047,9.496 -111.391,35.703 -45.695,37.027 -69.07,80.405 -75.797,140.665 -0.59,5.26 3.199,10 8.457,10.58 5.25,0.59 9.996,-3.19 10.582,-8.45 6.121,-54.86 27.348,-94.307 68.82,-127.909 43.204,-35.007 104.922,-36.211 148.274,-25.664 31.711,7.715 61.383,21.36 90.082,34.551 36.594,16.824 74.437,34.223 117.121,39.754 5.246,0.68 10.051,-3.023 10.73,-8.269 0.68,-5.247 -3.019,-10.051 -8.265,-10.731 -39.797,-5.156 -74.664,-21.187 -111.586,-38.16 -29.52,-13.574 -60.047,-27.609 -93.555,-35.762 -16.015,-3.894 -34.347,-6.308 -53.472,-6.308"
         style="fill:#3a3a3c;fill-opacity:1;fill-rule:nonzero;stroke:none"
         id="path94"
         inkscape:connector-curvature="0" /><path
         d="m 439.75,1044.11 -0.906,0.04 c -5.649,0.5 -9.824,5.48 -9.328,11.12 1.886,21.52 18.636,39.5 38.129,40.93 19.664,1.43 38.453,-14.06 42.781,-35.31 1.133,-5.55 -2.453,-10.98 -8.008,-12.1 -5.559,-1.14 -10.973,2.45 -12.105,8 -2.231,10.95 -11.922,19.63 -21.161,18.94 -9.406,-0.69 -18.191,-10.88 -19.187,-22.25 -0.469,-5.34 -4.953,-9.37 -10.215,-9.37"
         style="fill:#3a3a3c;fill-opacity:1;fill-rule:nonzero;stroke:none"
         id="path96"
         inkscape:connector-curvature="0" /><path
         d="m 903.344,864.863 c -2.856,0 -5.262,2.211 -5.457,5.106 -4.867,71.765 25.894,128.976 57.312,146.371 2.645,1.46 5.977,0.51 7.442,-2.14 1.461,-2.65 0.504,-5.97 -2.141,-7.44 -28.461,-15.756 -56.25,-68.795 -51.691,-136.053 0.203,-3.016 -2.075,-5.629 -5.09,-5.832 l -0.375,-0.012"
         style="fill:#3a3a3c;fill-opacity:1;fill-rule:nonzero;stroke:none"
         id="path98"
         inkscape:connector-curvature="0" /><path
         d="m 1014.61,874.039 c -1.66,0 -3.31,0.758 -4.38,2.191 -24.449,32.594 -34.058,103.93 -18.699,138.78 1.219,2.77 4.449,4.02 7.215,2.8 2.764,-1.22 4.024,-4.45 2.804,-7.21 -13.835,-31.389 -4.706,-98.276 17.44,-127.803 1.81,-2.418 1.32,-5.848 -1.1,-7.66 -0.98,-0.742 -2.13,-1.098 -3.28,-1.098"
         style="fill:#3a3a3c;fill-opacity:1;fill-rule:nonzero;stroke:none"
         id="path100"
         inkscape:connector-curvature="0" /><path
         d="m 989.672,196.961 c -19.078,12.848 -41.277,41.437 -35.856,104.461 4.469,51.93 9.75,65.258 13.997,65.258 4.476,0 7.796,-14.801 7.796,-14.801 L 1007.73,267 1028.9,228.352 c -0.64,-0.211 -1.08,-0.34 -1.31,-0.411 l -6.78,-1.589 -5.28,-5.391 c -0.2,-0.199 -9.39,-9.531 -25.858,-24"
         style="fill:#bdaea8;fill-opacity:1;fill-rule:nonzero;stroke:none"
         id="path102"
         inkscape:connector-curvature="0" /><path
         d="m 1014.61,186.711 c 0,0 -11.72,1.348 -24.938,10.25 16.468,14.469 25.658,23.801 25.858,24 l 5.28,5.391 6.78,1.589 c 0.23,0.071 0.67,0.2 1.31,0.411 l 5.21,-9.524 -9.18,-24.09 -10.32,-8.027"
         style="fill:#363536;fill-opacity:1;fill-rule:nonzero;stroke:none"
         id="path104"
         inkscape:connector-curvature="0" /><path
         d="m 1014.32,319.77 c 0.97,4.558 1.68,9.121 2.16,13.66 3.3,0.48 6,3.129 6.39,6.601 6.67,58.52 -27.35,114.047 -52.042,145.809 61.192,-53.961 70.162,-164.352 70.162,-164.352 l -26.67,-1.718"
         style="fill:#bdaea8;fill-opacity:1;fill-rule:nonzero;stroke:none"
         id="path106"
         inkscape:connector-curvature="0" /><path
         d="m 1016.48,333.43 c 9.37,88.531 -69.257,168.715 -69.257,168.715 8.621,-4.493 16.468,-10.02 23.605,-16.305 24.692,-31.762 58.712,-87.289 52.042,-145.809 -0.39,-3.472 -3.09,-6.121 -6.39,-6.601"
         style="fill:#363536;fill-opacity:1;fill-rule:nonzero;stroke:none"
         id="path108"
         inkscape:connector-curvature="0" /><path
         d="m 973.117,375.27 c 0,0 -14.621,-177.219 90.333,-190.122 104.95,-12.91 67.96,195.282 67.96,195.282 l -40.43,-47.321 -30.11,61.942 -35.27,-70.539 -52.483,50.758"
         style="fill:#f4f4f5;fill-opacity:1;fill-rule:nonzero;stroke:none"
         id="path110"
         inkscape:connector-curvature="0" /><path
         d="m 979.359,359.711 c -0.605,-41.93 5.02,-157.949 84.921,-167.77 2.83,-0.351 5.61,-0.519 8.25,-0.519 14.73,0 26.32,5.289 35.45,16.18 30.54,36.429 23.25,122.398 18.83,156.918 l -30.63,-35.848 c -1.5,-1.75 -3.79,-2.633 -6.07,-2.344 -2.29,0.293 -4.28,1.723 -5.29,3.793 l -24.04,49.457 -29.06,-58.129 c -0.98,-1.949 -2.82,-3.32 -4.97,-3.679 -2.15,-0.372 -4.34,0.308 -5.91,1.82 z M 1072.53,177.73 c -3.2,0 -6.53,0.211 -9.92,0.629 -46.1,5.672 -77.356,42.082 -90.383,105.313 -9.555,46.34 -6.079,90.308 -5.926,92.156 0.215,2.641 1.933,4.91 4.41,5.844 2.473,0.93 5.266,0.348 7.164,-1.481 l 45.775,-44.269 31.1,62.187 c 1.16,2.332 3.51,3.832 6.15,3.789 2.61,-0.019 4.98,-1.507 6.12,-3.859 l 25.54,-52.539 33.65,39.371 c 1.72,2.02 4.44,2.848 6.99,2.16 2.56,-0.691 4.48,-2.801 4.95,-5.402 0.95,-5.367 22.87,-132.039 -19.68,-182.82 -11.72,-13.989 -27.17,-21.079 -45.94,-21.079"
         style="fill:#3a3a3c;fill-opacity:1;fill-rule:nonzero;stroke:none"
         id="path112"
         inkscape:connector-curvature="0" /><path
         d="m 694.988,578.313 c -7.711,3.941 -15.425,7.882 -23.136,11.824 -4.704,2.402 -8.86,-4.68 -4.145,-7.09 7.715,-3.942 15.426,-7.883 23.137,-11.824 4.707,-2.403 8.859,4.679 4.144,7.09"
         style="fill:#3a3a3c;fill-opacity:1;fill-rule:nonzero;stroke:none"
         id="path114"
         inkscape:connector-curvature="0" /><path
         d="m 657.629,529.18 c -3.902,8.925 -7.805,17.847 -11.707,26.769 -2.117,4.84 -9.188,0.656 -7.09,-4.144 3.902,-8.922 7.805,-17.844 11.707,-26.77 2.117,-4.84 9.188,-0.656 7.09,4.145"
         style="fill:#3a3a3c;fill-opacity:1;fill-rule:nonzero;stroke:none"
         id="path116"
         inkscape:connector-curvature="0" /><path
         d="m 824.477,568.41 c 0.113,8.094 2.234,15.758 6.285,22.77 3.093,5.355 -5.184,10.179 -8.274,4.832 -4.879,-8.449 -7.457,-17.848 -7.593,-27.602 -0.086,-6.18 9.496,-6.172 9.582,0"
         style="fill:#3a3a3c;fill-opacity:1;fill-rule:nonzero;stroke:none"
         id="path118"
         inkscape:connector-curvature="0" /><path
         d="m 788.973,563.371 c 6.539,10.199 10.078,21.887 10.488,33.981 0.207,6.179 -9.371,6.16 -9.582,0 -0.352,-10.457 -3.535,-20.348 -9.176,-29.149 -3.344,-5.215 4.949,-10.015 8.27,-4.832"
         style="fill:#3a3a3c;fill-opacity:1;fill-rule:nonzero;stroke:none"
         id="path120"
         inkscape:connector-curvature="0" /><path
         d="m 732.805,106.73 c -6.793,0 -13.922,2.219 -21.297,7.43 -49.895,35.27 -53.621,55.352 -53.621,55.352 0,0 -23.731,-6.043 -39.106,-16.231 17.852,29.668 58.035,46.141 58.52,46.328 l 2.898,1.161 4.348,6.921 115.406,-27.132 c 0,0 -27.996,-73.829 -67.148,-73.829 m -128.121,24.848 c -0.629,0 -1.352,0.75 -1.868,2.172 l 3.071,-0.48 c -0.207,-1.149 -0.668,-1.692 -1.203,-1.692"
         style="fill:#bdaea8;fill-opacity:1;fill-rule:nonzero;stroke:none"
         id="path122"
         inkscape:connector-curvature="0" /><path
         d="m 605.887,133.27 -3.071,0.48 c -3.019,8.309 1.047,39.43 72.954,76 l 8.777,-2.059 -4.348,-6.921 -2.898,-1.161 c -0.485,-0.187 -40.668,-16.66 -58.52,-46.328 -7.593,-5.031 -13.152,-11.07 -12.801,-17.902 0.047,-0.848 0.008,-1.551 -0.093,-2.109"
         style="fill:#363536;fill-opacity:1;fill-rule:nonzero;stroke:none"
         id="path124"
         inkscape:connector-curvature="0" /><path
         d="m 837.109,651.547 c -1.879,0 -3.406,1.516 -3.421,3.394 -0.012,1.891 1.507,3.434 3.398,3.45 22.336,0.164 44.234,12.625 55.789,31.742 0.977,1.613 3.078,2.133 4.695,1.156 1.618,-0.976 2.137,-3.082 1.16,-4.695 -12.757,-21.11 -36.933,-34.864 -61.597,-35.047 h -0.024"
         style="fill:#3a3a3c;fill-opacity:1;fill-rule:nonzero;stroke:none"
         id="path126"
         inkscape:connector-curvature="0" /><path
         d="m 878.066,670.035 c 3.508,8.336 4.329,17.774 2.313,26.586"
         style="fill:#e6e6e4;fill-opacity:1;fill-rule:nonzero;stroke:none"
         id="path128"
         inkscape:connector-curvature="0" /><path
         d="m 878.063,665.93 -1.59,0.324 c -2.09,0.879 -3.071,3.285 -2.192,5.375 3.176,7.547 3.922,16.098 2.098,24.078 -0.508,2.211 0.875,4.414 3.086,4.918 2.211,0.5 4.414,-0.875 4.918,-3.086 2.203,-9.644 1.305,-19.976 -2.535,-29.094 -0.66,-1.57 -2.18,-2.515 -3.785,-2.515"
         style="fill:#3a3a3c;fill-opacity:1;fill-rule:nonzero;stroke:none"
         id="path130"
         inkscape:connector-curvature="0" /><path
         d="m 932.52,514.465 c -44.856,0.004 -75.407,36.433 -83.704,47.578 0.375,0.43 0.762,0.859 1.157,1.285 0.3,-0.867 0.765,-1.695 1.398,-2.437 21.891,-25.547 45.586,-38.887 70.434,-39.645 l 2.226,-0.035 c 15.508,0 28.664,4.961 38.379,10.348 l 4.594,-3.676 c 0.187,-0.153 2.113,-1.688 5.18,-4.07 -10.2,-4.786 -19.926,-7.524 -29.133,-8.684 -0.438,0.078 -0.883,0.117 -1.324,0.117 -0.954,0 -1.903,-0.18 -2.797,-0.535 -2.168,-0.168 -4.305,-0.246 -6.41,-0.246"
         style="fill:#bdaea8;fill-opacity:1;fill-rule:nonzero;stroke:none"
         id="path132"
         inkscape:connector-curvature="0" /><path
         d="m 972.184,523.813 c -3.067,2.382 -4.993,3.917 -5.18,4.07 l -4.594,3.676 c 11.082,6.144 17.688,12.843 18.195,13.371 0.418,0.429 0.774,0.898 1.067,1.39 0.66,0.438 1.008,0.68 1.008,0.68 l 11.425,-10.094 c -7.519,-5.457 -14.832,-9.769 -21.921,-13.093"
         style="fill:#363536;fill-opacity:1;fill-rule:nonzero;stroke:none"
         id="path134"
         inkscape:connector-curvature="0" /><path
         d="m 924.031,521.211 -2.226,0.035 c -24.848,0.758 -48.543,14.098 -70.434,39.645 -0.633,0.742 -1.098,1.57 -1.398,2.437 0.855,0.918 1.754,1.828 2.703,2.723 6.679,-8.528 26.422,-30.047 60.562,-37.746 3.992,-0.903 8.047,-1.293 12.106,-1.293 25.656,0 51.031,15.812 56.328,19.308 -0.293,-0.492 -0.649,-0.961 -1.067,-1.39 -0.507,-0.528 -7.113,-7.227 -18.195,-13.371 -9.715,-5.387 -22.871,-10.348 -38.379,-10.348"
         style="fill:#363536;fill-opacity:1;fill-rule:nonzero;stroke:none"
         id="path136"
         inkscape:connector-curvature="0" /><path
         d="m 848.816,562.043 c -1.496,2.012 -2.269,3.199 -2.269,3.199 l 3.547,4.356 c 0,0 0.855,-1.34 2.582,-3.547 -0.949,-0.895 -1.848,-1.805 -2.703,-2.723 -0.395,-0.426 -0.782,-0.855 -1.157,-1.285"
         style="fill:#363536;fill-opacity:1;fill-rule:nonzero;stroke:none"
         id="path138"
         inkscape:connector-curvature="0" /><path
         d="m 938.93,514.711 c 0.894,0.355 1.843,0.535 2.797,0.535 0.441,0 0.886,-0.039 1.324,-0.117 -1.383,-0.176 -2.758,-0.313 -4.121,-0.418"
         style="fill:#363536;fill-opacity:1;fill-rule:nonzero;stroke:none"
         id="path140"
         inkscape:connector-curvature="0" /><path
         d="m 462.605,633.18 c -10.593,3.703 -18.488,15.824 -16.917,27.109 0.515,3.691 -0.836,7.332 -4.778,8.418 -3.238,0.891 -7.902,-1.078 -8.418,-4.781 -2.648,-19.051 8.156,-37.539 26.477,-43.942 3.523,-1.23 7.476,1.368 8.418,4.782 1.039,3.777 -1.262,7.187 -4.782,8.414"
         style="fill:#3a3a3c;fill-opacity:1;fill-rule:nonzero;stroke:none"
         id="path142"
         inkscape:connector-curvature="0" /><path
         d="m 331.668,1213.42 c -5.699,7.42 -16.258,8.94 -25.602,8.42 -9.339,-0.52 -18.949,-2.45 -27.886,0.31 -17.157,5.31 -24.59,24.85 -30.93,41.65 -5.742,15.23 -12.617,30.4 -23.645,42.37 -11.023,11.97 -26.863,20.44 -43.089,19.2 10.242,6.95 26.988,-0.12 39.238,-5.98 12.25,-5.86 24.211,-13.23 37.687,-14.89 14.938,-1.85 29.758,3.55 44.77,4.64 15.012,1.09 32.863,-4.48 37.23,-18.89 2.032,-6.7 0.661,-13.89 0.711,-20.89 0.047,-7.01 2.258,-14.93 8.563,-17.98"
         style="fill:#d4c1ba;fill-opacity:1;fill-rule:nonzero;stroke:none"
         id="path144"
         inkscape:connector-curvature="0" /><path
         d="m 1167.77,1005.59 c 35.61,44.13 -45,74.42 -53.83,77.57 -17.3,-10.8 -71.5,-60.48 -31.62,-103.918 2.85,-5.457 36.93,-33.789 85.45,26.348"
         style="fill:#e52f60;fill-opacity:1;fill-rule:nonzero;stroke:none"
         id="path146"
         inkscape:connector-curvature="0" /><path
         d="m 1114.54,1077.84 c -13.19,-9 -37.86,-32.77 -41.35,-58.42 -1.82,-13.38 2.44,-25.815 12.65,-36.94 l 0.43,-0.46 0.29,-0.559 c 1.16,-1.922 9.35,-8.859 22.03,-8.859 17.28,0 36.45,12.449 55.46,35.998 7.13,8.83 9.44,17.21 7.07,25.62 -6.53,23.17 -45.86,39.54 -56.58,43.62 z m -5.95,-114.817 v 0 c -15.69,0 -26.97,8.36 -30.14,13.356 -11.99,13.23 -16.95,28.141 -14.75,44.331 4.45,32.77 36.74,59.67 47.7,66.52 l 1.97,1.22 2.18,-0.78 c 9.37,-3.34 56.52,-21.5 64.79,-50.85 3.23,-11.45 0.25,-22.97 -8.84,-34.24 -21.18,-26.248 -42.35,-39.557 -62.91,-39.557"
         style="fill:#e52f60;fill-opacity:1;fill-rule:nonzero;stroke:none"
         id="path148"
         inkscape:connector-curvature="0" /><path
         d="m 569.105,1144.05 c 0,0 -0.097,0.8 -0.21,2.27 -0.051,0.73 -0.153,1.62 -0.09,2.71 0.039,1.08 0.043,2.41 0.234,3.79 0.164,1.4 0.352,2.98 0.746,4.64 l 0.621,2.63 c 0.278,0.89 0.563,1.82 0.86,2.78 1.308,3.79 3.199,8.01 5.929,12.26 2.719,4.26 6.254,8.54 10.602,12.51 1.101,0.97 2.234,1.95 3.414,2.91 1.203,0.91 2.418,1.87 3.707,2.75 1.305,0.84 2.602,1.77 4,2.55 l 2.102,1.2 0.531,0.3 0.265,0.15 0.625,0.26 0.059,0.03 0.117,0.05 0.934,0.45 c 1.25,0.59 2.512,1.19 3.781,1.8 l 1.988,0.88 2.512,0.87 c 1.703,0.55 3.414,1.11 5.137,1.66 l 2.492,0.62 2.461,0.54 c 1.648,0.34 3.312,0.76 4.98,0.95 1.672,0.22 3.352,0.41 5.039,0.59 l 2.532,0.25 2.527,0.07 5.066,0.07 c 1.684,-0.01 3.348,-0.19 5.024,-0.29 1.664,-0.14 3.348,-0.19 4.984,-0.47 1.645,-0.24 3.281,-0.49 4.906,-0.78 l 2.434,-0.42 2.383,-0.57 c 1.582,-0.4 3.152,-0.79 4.719,-1.18 l 0.586,-0.16 0.425,-0.11 0.129,-0.05 0.254,-0.08 1.024,-0.34 2.031,-0.67 c 1.574,-0.56 3.32,-1.23 4.918,-1.86 1.566,-0.7 3.09,-1.39 4.609,-2.17 6.047,-3.13 11.875,-7.55 16.043,-13.19 l 1.485,-2.13 0.972,-1.43 0.399,-0.84 0.847,-1.79 1.098,-2.5 0.434,-1.17 0.347,-1.11 0.598,-2.17 c 0.32,-1.44 0.609,-2.84 0.738,-4.2 0.676,-5.44 0.098,-10.08 -0.637,-13.98 -0.785,-3.9 -1.804,-7.09 -2.777,-9.67 -0.961,-2.58 -1.855,-4.54 -2.492,-5.87 -0.641,-1.33 -1.02,-2.03 -1.02,-2.03 0,0 -0.25,0.76 -0.644,2.18 -0.399,1.41 -0.953,3.48 -1.61,6.04 -0.683,2.56 -1.48,5.62 -2.554,8.88 -1.051,3.25 -2.418,6.73 -4.258,9.76 -0.863,1.52 -2,2.98 -3.031,4.09 l -0.684,0.62 -1.199,1.24 -0.652,0.67 0.234,-0.34 -0.035,0.02 -0.067,0.05 -0.129,0.08 -0.253,0.17 -0.993,0.71 c -2.691,1.81 -6.05,3.24 -10.132,4.41 -1.02,0.29 -2.133,0.51 -3.176,0.82 -1.043,0.21 -2.098,0.42 -3.156,0.64 l -2.102,0.4 -1.055,0.2 -0.265,0.05 -0.133,0.03 0.226,-0.06 h -0.058 l -0.473,0.06 c -1.242,0.18 -2.496,0.35 -3.754,0.53 l -1.879,0.3 -1.89,0.17 c -1.262,0.11 -2.524,0.24 -3.785,0.39 -1.262,0.17 -2.524,0.11 -3.786,0.21 -1.257,0.05 -2.527,0.18 -3.781,0.19 l -3.754,-0.01 -1.875,0.02 -1.851,-0.12 c -1.231,-0.09 -2.461,-0.15 -3.696,-0.19 -1.238,-0.03 -2.414,-0.3 -3.625,-0.4 -1.175,-0.14 -2.48,-0.23 -3.547,-0.41 -1.042,-0.19 -2.085,-0.37 -3.136,-0.54 l -1.59,-0.21 -1.984,-0.53 c -1.356,-0.36 -2.704,-0.72 -4.043,-1.08 l -1,-0.26 -0.125,-0.04 -0.063,-0.01 0.508,0.2 -0.203,-0.06 -0.403,-0.12 -1.613,-0.5 c -1.078,-0.32 -2.105,-0.74 -3.172,-1.09 -1.043,-0.41 -2.074,-0.81 -3.093,-1.21 -1.012,-0.45 -2.012,-0.89 -2.997,-1.33 -3.925,-1.84 -7.582,-3.93 -10.847,-6.15 -3.274,-2.22 -6.192,-4.54 -8.707,-6.81 -2.532,-2.26 -4.586,-4.49 -6.301,-6.42 -1.645,-1.92 -2.988,-3.51 -3.848,-4.74 -0.879,-1.18 -1.383,-1.81 -1.383,-1.81"
         style="fill:#3a3a3c;fill-opacity:1;fill-rule:nonzero;stroke:none"
         id="path150"
         inkscape:connector-curvature="0" /><path
         d="m 593.168,1119 c -2.516,0 -4.977,1.27 -6.402,3.56 -7.243,11.65 -24.356,16.48 -36.618,10.31 -3.71,-1.86 -8.238,-0.37 -10.105,3.35 -1.867,3.71 -0.367,8.24 3.348,10.1 19.136,9.62 44.855,2.38 56.16,-15.82 2.195,-3.53 1.113,-8.17 -2.418,-10.36 -1.238,-0.77 -2.61,-1.14 -3.965,-1.14"
         style="fill:#3a3a3c;fill-opacity:1;fill-rule:nonzero;stroke:none"
         id="path152"
         inkscape:connector-curvature="0" /><path
         d="m 838.043,1169.07 -0.969,1.05 -1.082,1.27 -1.273,1.98 c -0.906,1.54 -1.821,3.43 -2.578,5.79 -0.438,1.18 -0.637,2.45 -0.981,3.84 -0.215,1.36 -0.441,2.84 -0.504,4.39 -0.215,3.11 0.067,6.53 0.864,10.1 0.804,3.57 2.148,7.3 4.222,10.88 1.043,1.79 2.223,3.56 3.586,5.25 l 2.172,2.47 0.57,0.6 0.293,0.3 0.27,0.24 0.027,0.02 0.055,0.06 0.113,0.1 0.895,0.88 0.91,0.86 1.285,1.06 2.621,2.02 2.613,1.79 2.797,1.62 c 3.86,1.99 8.016,3.7 12.535,4.47 2.176,0.52 4.551,0.55 6.762,0.71 1.141,-0.02 2.277,-0.11 3.395,-0.18 1.117,-0.07 2.214,-0.16 3.3,-0.42 2.161,-0.46 4.27,-0.87 6.18,-1.73 0.969,-0.38 1.914,-0.76 2.824,-1.17 0.907,-0.41 1.723,-0.96 2.547,-1.44 l 2.363,-1.5 2.067,-1.68 1.871,-1.69 1.648,-1.73 c 0.965,-1.22 1.883,-2.35 2.676,-3.47 l 0.586,-0.83 0.485,-0.85 0.886,-1.65 c 1.11,-2.14 1.949,-4 2.375,-5.69 0.981,-3.29 1.199,-5.25 1.199,-5.25 0,0 -2.039,0.56 -5.007,1.67 -0.774,0.25 -1.508,0.64 -2.43,0.88 -0.918,0.25 -1.828,0.58 -2.816,0.88 -1.891,0.73 -4.094,1.16 -6.243,1.73 l -1.652,0.3 -1.652,0.25 -1.637,0.23 -1.637,0.06 -1.594,0.08 -1.57,-0.1 c -1.023,0.03 -2.047,-0.25 -3.031,-0.35 l -1.481,-0.31 -1.464,-0.32 -1.481,-0.49 -0.738,-0.19 -0.75,-0.31 c -1.996,-0.65 -4.078,-1.73 -6.215,-2.82 l -1.617,-0.87 -1.621,-0.97 -1.481,-0.91 -0.726,-0.43 -1.024,-0.73 -1.019,-0.71 -0.129,-0.09 -0.067,-0.05 -0.031,-0.02 0.215,0.18 -0.164,-0.12 -0.332,-0.24 -1.352,-0.97 c -0.91,-0.65 -1.757,-1.39 -2.636,-2.12 -1.735,-1.49 -3.328,-3.18 -4.832,-4.94 -1.5,-1.76 -2.907,-3.6 -4.11,-5.47 -0.687,-0.91 -1.121,-1.86 -1.734,-2.77 -0.504,-0.92 -1.02,-1.83 -1.461,-2.71 -0.91,-1.75 -1.641,-3.45 -2.246,-4.85 l -0.801,-1.95 -0.535,-1.59 -0.504,-1.33"
         style="fill:#3a3a3c;fill-opacity:1;fill-rule:nonzero;stroke:none"
         id="path154"
         inkscape:connector-curvature="0" /><path
         d="m 659.281,318.578 c 0,0 -14.625,-177.207 90.328,-190.109 104.954,-12.91 67.961,195.281 67.961,195.281 l -40.429,-47.32 -30.11,61.941 -35.273,-70.543 -52.477,50.75"
         style="fill:#f4f4f5;fill-opacity:1;fill-rule:nonzero;stroke:none"
         id="path156"
         inkscape:connector-curvature="0" /><path
         d="m 665.523,303.031 c -0.609,-41.929 5.016,-157.953 84.922,-167.769 2.832,-0.352 5.61,-0.532 8.25,-0.532 14.731,0 26.328,5.301 35.453,16.192 30.555,36.457 23.254,122.406 18.832,156.918 l -30.64,-35.852 c -1.496,-1.758 -3.777,-2.629 -6.07,-2.347 -2.29,0.3 -4.278,1.73 -5.286,3.8 l -24.039,49.457 -29.066,-58.128 c -0.977,-1.95 -2.82,-3.321 -4.969,-3.692 -2.144,-0.367 -4.344,0.32 -5.906,1.832 z m 93.172,-181.98 c -3.199,0 -6.535,0.211 -9.922,0.621 -46.101,5.668 -77.355,42.09 -90.386,105.308 -9.551,46.348 -6.078,90.321 -5.922,92.168 0.215,2.633 1.933,4.911 4.41,5.84 2.473,0.934 5.262,0.352 7.164,-1.488 l 45.77,-44.27 31.101,62.2 c 1.164,2.332 3.574,3.781 6.156,3.781 2.606,-0.012 4.981,-1.5 6.118,-3.852 l 25.543,-52.539 33.64,39.371 c 1.723,2.008 4.449,2.848 7,2.161 2.555,-0.704 4.477,-2.801 4.942,-5.411 0.953,-5.363 22.875,-132.043 -19.672,-182.812 -11.719,-13.988 -27.176,-21.078 -45.942,-21.078"
         style="fill:#3a3a3c;fill-opacity:1;fill-rule:nonzero;stroke:none"
         id="path158"
         inkscape:connector-curvature="0" /></g></g></svg>