<?xml version="1.0" encoding="UTF-8" standalone="no"?>
<!-- Created with Inkscape (http://www.inkscape.org/) -->

<svg
   xmlns:dc="http://purl.org/dc/elements/1.1/"
   xmlns:cc="http://creativecommons.org/ns#"
   xmlns:rdf="http://www.w3.org/1999/02/22-rdf-syntax-ns#"
   xmlns:svg="http://www.w3.org/2000/svg"
   xmlns="http://www.w3.org/2000/svg"
   xmlns:sodipodi="http://sodipodi.sourceforge.net/DTD/sodipodi-0.dtd"
   xmlns:inkscape="http://www.inkscape.org/namespaces/inkscape"
   version="1.1"
   id="svg2"
   xml:space="preserve"
   width="198.73334"
   height="198.57333"
   viewBox="0 0 198.73334 198.57333"
   sodipodi:docname="OSEM_CMYK_Artboard 7-08.svg"
   inkscape:version="0.92.1 r"><metadata
     id="metadata8"><rdf:RDF><cc:Work
         rdf:about=""><dc:format>image/svg+xml</dc:format><dc:type
           rdf:resource="http://purl.org/dc/dcmitype/StillImage" /><dc:title></dc:title></cc:Work></rdf:RDF></metadata><defs
     id="defs6" /><sodipodi:namedview
     pagecolor="#ffffff"
     bordercolor="#666666"
     borderopacity="1"
     objecttolerance="10"
     gridtolerance="10"
     guidetolerance="10"
     inkscape:pageopacity="0"
     inkscape:pageshadow="2"
     inkscape:window-width="711"
     inkscape:window-height="480"
     id="namedview4"
     showgrid="false"
     inkscape:zoom="1.1884778"
     inkscape:cx="99.366669"
     inkscape:cy="99.286667"
     inkscape:window-x="0"
     inkscape:window-y="0"
     inkscape:window-maximized="0"
     inkscape:current-layer="g10" /><g
     id="g10"
     inkscape:groupmode="layer"
     inkscape:label="ink_ext_XXXXXX"
     transform="matrix(1.3333333,0,0,-1.3333333,0,198.57333)"><g
       id="g12"
       transform="scale(0.1)"><path
         d="M 1490.51,745.254 C 1490.51,333.66 1156.85,0 745.258,0 333.66,0 0,333.66 0,745.254 c 0,411.596 333.66,745.256 745.258,745.256 411.592,0 745.252,-333.66 745.252,-745.256"
         style="fill:#b78a66;fill-opacity:1;fill-rule:nonzero;stroke:none"
         id="path14"
         inkscape:connector-curvature="0" /><path
         d="m 1216.01,279.43 c -10.61,-6.719 -50.04,-28.629 -111.71,-28.629 -9.28,0 -18.69,0.519 -27.96,1.551 -28.81,3.199 -65.88,12.468 -103.832,35.898 8.496,7.262 15.222,13.371 19.965,17.82 8.987,-6.07 19.207,-9.851 30.567,-11.25 2.66,-0.332 5.28,-0.492 7.79,-0.492 14.73,0 26.87,5.563 36.07,16.551 2.15,2.57 4.09,5.391 5.84,8.422 4.62,-11.68 12.54,-22.321 23.64,-31.141 4.28,-3.398 9.64,-5.269 15.1,-5.269 7.45,0 14.39,3.339 19.02,9.179 8.33,10.489 6.58,25.789 -3.91,34.121 -6.98,5.539 -10.33,11.7 -9.98,18.297 0.48,8.903 7.81,18.672 19.61,26.141 18.32,11.59 35.6,17.473 51.36,17.473 15.67,0 30.29,-5.563 44.68,-16.993 14.36,-11.41 21.53,-25.238 20.74,-40.019 -1,-18.59 -14.48,-37.418 -36.99,-51.66 z M 924.02,549.141 c -2.336,2.281 -2.383,6.019 -0.106,8.355 2.277,2.336 6.016,2.387 8.352,0.109 2.761,-2.687 67.472,-66.601 59.582,-135.875 l -0.625,-2.031 -10.778,10.422 c 2.137,60.93 -55.812,118.426 -56.425,119.02 z m -11.508,14.847 c -19.508,0.598 -38.11,11.071 -55.293,31.125 l -1.004,1.801 c -12.164,-13.168 -12.317,-29.137 -12.238,-31.582 l 0.043,-0.578 c 0,-2.078 -1.68,-3.758 -3.754,-3.762 h -0.028 c -0.937,0 -1.863,0.352 -2.578,1.024 -5.562,5.238 -7.633,18.277 -8.394,27.98 -15.207,-18.422 -28.133,-20.019 -32.098,-20.019 l -1.004,0.043 c -1.379,0.175 -2.582,1.101 -3.074,2.398 -0.492,1.301 -0.266,2.77 0.648,3.816 3.184,3.633 5.528,11.719 6.899,17.996 -2.528,-0.75 -4.973,-1.128 -7.313,-1.128 h -0.004 c -12.922,0 -17.988,11.074 -18.199,11.543 -0.586,1.32 -0.363,2.855 0.57,3.96 0.934,1.098 2.414,1.571 3.813,1.208 l 2.066,-0.274 c 6.024,0 11.075,7.402 12.989,11.125 -0.868,16.02 3.015,28.75 11.539,37.856 12.879,13.757 32.34,14.453 36.113,14.453 l 0.711,-0.008 0.637,0.012 c 1.367,0 4.164,-0.161 7.562,-0.942 8.551,0.973 16.797,4.164 23.891,9.067 l 0.191,0.941 c 2.492,5.926 3.078,12.637 1.645,18.902 -0.395,1.735 0.687,3.465 2.425,3.864 1.735,0.39 3.461,-0.692 3.86,-2.426 1.043,-4.555 1.094,-9.289 0.398,-13.91 2.336,2.5 4.496,5.164 6.266,8.093 0.769,1.274 2.418,1.676 3.687,0.911 1.27,-0.766 1.676,-2.418 0.911,-3.688 -7.477,-12.371 -19.957,-21.516 -33.856,-25.418 2.246,-1.297 4.492,-2.926 6.594,-5.051 7.211,-7.297 10.789,-18.054 10.633,-31.98 l -0.176,-1.094 c -0.223,-0.691 -4.887,-15.16 -14.024,-25.785 0.981,-0.328 1.907,-0.82 2.629,-1.66 14.926,-17.422 30.633,-26.508 46.676,-27 l 1.375,-0.02 c 21.129,0 35.785,14.871 35.938,15.028 2.269,2.339 6.007,2.402 8.351,0.129 2.348,-2.27 2.406,-6.008 0.133,-8.356 -0.75,-0.773 -18.348,-18.617 -44.41,-18.617 z M 813.25,271.801 c -7.328,-8.75 -16.641,-13 -28.469,-13 -2.121,0 -4.351,0.14 -6.625,0.418 -64.168,7.89 -68.683,101.051 -68.199,134.73 L 743.27,361.73 c 1.257,-1.218 3.019,-1.761 4.746,-1.468 1.722,0.297 27.328,49.636 27.328,49.636 l 19.304,-39.707 c 0.813,-1.671 2.407,-2.82 4.247,-3.05 1.839,-0.231 3.671,0.468 4.875,1.879 l 24.605,28.789 c 3.551,-27.707 9.414,-96.731 -15.125,-126.008 z m -144.723,-13 -14.863,2.308 c 5.074,32.629 37.774,52.77 53.238,60.602 1.364,-5.121 2.875,-10 4.575,-14.609 -13.879,-7.422 -39.176,-24.032 -42.95,-48.301 z m -86.968,184.578 2.675,33.012 c -30.757,-27.012 -47.66,-75.442 -47.847,-75.993 l -14.231,4.872 c 0.942,2.75 23.512,67.558 67.071,93.339 l 12.5,7.399 -2.407,-29.668 c 17.778,11.769 52.09,31.031 98.465,41.012 l 12.754,2.742 -10.387,-32.106 c 18.328,-1.707 56.25,-8.168 68.067,-32.539 l 4.492,-9.269 -15.141,-2.16 14.121,-17.942 -1.195,-1.289 -6.574,-13.16 -34.309,43.582 17.692,2.527 c -15.301,12.242 -45.157,15.633 -57.41,15.821 l -10.161,0.171 8.348,25.817 c -57.102,-15.219 -92.375,-44.328 -92.75,-44.649 z m -108.43,127.789 c -15.84,-15.262 -22.262,-34.582 -22.332,-34.805 l -4.277,-13.156 -6.547,12.188 c -29.985,55.785 -9.95,108.738 -9.082,110.964 l 11.015,-4.281 c -0.179,-0.457 -16.144,-43.027 3.051,-89.629 5.129,9.949 14.203,23.914 28.457,34.399 l 8.184,6.015 1.187,-10.086 c 0.047,-0.386 4.828,-37.199 33.117,-50.742 2.703,10.625 8.676,28.934 18.797,34.883 l 5.106,3.004 2.988,-5.109 c 0.547,-0.895 13.75,-21.75 52.121,-15.813 -1.641,10.563 -3.086,32.145 9.094,45.738 6.933,7.739 16.984,11.528 29.859,11.457 l -7.547,9.703 -0.636,2.497 1.39,2.164 24.348,16.23 -10.785,35.531 c -0.344,1.125 -0.043,2.348 0.777,3.188 0.824,0.844 2.039,1.168 3.172,0.851 l 6.898,-1.925 c -4.671,3.164 -10.73,5.586 -18.742,5.515 -26.012,-0.238 -50.097,-17.82 -69.445,-31.945 -16.289,-11.891 -29.156,-21.277 -40.391,-18.785 l 2.563,11.535 c 3.328,-0.742 8.687,1.781 14.844,5.644 -8.809,6.86 -13.52,18.075 -11.918,29.598 0.402,2.906 4.066,4.453 6.605,3.754 3.098,-0.852 4.156,-3.711 3.754,-6.609 -1.121,-8.059 3.926,-16.602 11.101,-20.278 2.149,1.539 4.313,3.106 6.473,4.684 20.715,15.125 46.496,33.945 76.309,34.223 17.101,0.113 30.91,-8.067 41.004,-24.442 l 0.496,-0.797 c 8.824,-13.812 20.867,-20.492 31.492,-26.386 l 2.434,-1.356 c 6.636,-3.715 37.238,-2.601 56.847,-0.625 l 8.555,0.863 -2.262,-8.297 c -2.992,-10.976 -16.273,-19.113 -26.59,-23.914 l 20.395,-10.55 -3.555,-5.469 C 751.496,575.48 724.523,567.598 711,564.508 c 2.867,-5.477 7.137,-12.949 10.066,-17.91 l 5.641,-9.543 -11.07,0.64 c -43.543,2.524 -69.903,44.797 -76.364,56.453 -12.128,1.207 -21.019,-1.234 -26.445,-7.277 -12.07,-13.437 -5.32,-40.875 -5.25,-41.148 l 1.504,-5.957 -6.012,-1.278 c -37.957,-8.023 -57.832,6.129 -65.965,14.649 -4.937,-6.907 -9.292,-20.707 -11.171,-30.266 l -1.282,-6.519 -6.324,2.031 c -29.801,9.582 -41.14,37.5 -45.199,52.785 z M 1073.44,440.961 c 3.47,-27.102 9.19,-94.59 -14.78,-123.191 -7.16,-8.551 -16.27,-12.7 -27.83,-12.7 -2.07,0 -4.25,0.141 -6.47,0.41 -62.731,7.711 -67.145,98.79 -66.669,131.711 l 32.563,-31.5 c 1.23,-1.191 2.953,-1.722 4.637,-1.429 1.687,0.289 3.136,1.359 3.898,2.886 l 22.821,45.633 18.87,-38.82 c 0.79,-1.633 2.35,-2.75 4.15,-2.981 1.79,-0.23 3.59,0.461 4.76,1.84 z m 189.03,-31.82 c -23,18.269 -48.12,27.531 -74.68,27.531 -25.24,0 -51.32,-8.41 -77.53,-24.992 -8.95,-5.66 -16.56,-12.282 -22.84,-19.508 0.15,31.988 -4.69,60.019 -5.08,62.219 -0.36,2.039 -1.87,3.699 -3.88,4.238 -2,0.543 -4.14,-0.109 -5.49,-1.688 l -7.06,-8.261 c -3.33,19.742 -9.74,42.207 -20.37,67.898 l 24.31,2.703 c 0,0 -16.21,33.766 -66.18,37.817 -8.76,0.711 -42.928,28.043 -42.928,28.043 0,0 10.391,45.039 -3,78.207 -19.687,48.781 -44.297,58.105 -70.152,78.187 -46.195,35.891 -74.414,67.649 -91.695,93.207 -10.93,-6.32 -21.973,-11.949 -33.129,-16.773 -42.114,-18.207 -77.836,-22.028 -100.391,-22.028 -10.02,0 -18.281,0.727 -24.473,1.563 l 4.899,-12.594 c 0.812,-2.097 0.57,-4.457 -0.656,-6.34 -1.227,-1.886 -3.29,-3.062 -5.536,-3.168 -1.953,-0.086 -3.933,-0.132 -5.89,-0.132 -36.946,0 -74.676,16.285 -109.114,47.089 -12.937,11.575 -23.101,23.082 -30.089,31.786 l -0.899,-8.981 c -0.269,-2.707 -2.09,-5.008 -4.656,-5.902 -2.57,-0.891 -5.426,-0.207 -7.316,1.746 -24.243,25.109 -34.696,55.156 -39.176,74.957 l -0.961,-1.809 c -1.313,-2.453 -3.957,-3.898 -6.727,-3.672 -2.773,0.223 -5.148,2.075 -6.047,4.707 -13.136,38.536 -8.992,71.993 -3.832,92.079 l -10.062,-6.54 c -2.649,-1.718 -6.121,-1.449 -8.473,0.66 -2.347,2.11 -2.988,5.53 -1.566,8.35 36.426,71.97 78.574,125.21 125.273,158.23 38.168,26.99 79.477,40.67 122.774,40.67 64.879,0 115.246,-30.39 132.605,-42.39 15.402,25.25 29.891,37.55 44.168,37.55 21.582,0 30.844,-28.21 31.227,-29.41 l 0.289,-2.26 h 0.101 c 2.504,0 5.891,-0.29 10.461,-1.12 14.86,-2.7 16.715,-10.62 16.715,-10.62 0,0 6.598,18 -0.605,24.31 0,0 1.101,0.07 2.742,0.07 4.094,0 11.539,-0.46 13.465,-3.67 0,0 -6.489,32.64 -38.766,53.37 14.188,13.97 18.563,29.78 18.816,43.48 11.528,16.69 11.512,25.02 11.454,27.85 -0.133,6.34 -3.036,11.96 -7.961,15.4 -2.532,1.77 -5.539,2.71 -8.614,2.71 l -0.914,-0.03 c -8.238,-0.5 -14.008,-5.59 -19.101,-10.09 -1.848,-1.63 -4.864,-4.29 -6.383,-4.98 -5.231,0.38 -10.934,2.17 -16.961,4.07 -3.746,1.17 -7.617,2.39 -11.711,3.39 -5.574,1.36 -11.02,2.05 -16.187,2.05 -11.434,0 -21.379,-3.45 -28.762,-9.98 -6.797,-6 -10.446,-13.64 -12.516,-21.1 -5.558,0.65 -11.168,1.03 -16.769,1.03 -4.571,0 -9.118,-0.23 -13.625,-0.75 l 26.859,35.45 c 0,0 -42.547,-5.91 -117.281,-28.42 0,0 5.402,10.81 19.808,18.91 0,0 -1.55,0.28 -4.664,0.28 -13.492,0 -56.332,-5.34 -129.5,-62.41 0,0 -4.5,11.71 9.004,35.12 0,0 -71.465,-38.92 -95.09,-87.93 -5.433,1.49 -11.136,2.06 -16.453,1.68 -4.957,-0.36 -9.691,-1.22 -14.269,-2.05 -6.735,-1.22 -13.094,-2.36 -18.887,-1.65 -6.66,0.82 -13.324,4.2 -20.379,7.77 -1.965,0.99 -3.996,2.02 -6.055,3 -11.191,5.36 -24.043,3.21 -38.183,-6.38 -2.141,-1.45 -3.492,-3.62 -4.086,-6 l -0.918,-1.53 c -1.25,-3.01 -30.285,-74.22 -2.078,-116.47 0.886,-1.33 1.933,-2.51 2.91,-3.75 -37.813,-41.03 -72.191,-91.413 -78.246,-143.265 l 30.613,18.012 c 0,0 -93.644,-147.672 -86.891,-266.528 l 33.766,32.414 c 0,0 -74.285,-193.14 41.871,-349.812 l 9.453,27.008 c 0,0 63.481,-160.731 160.727,-201.25 l -12.156,41.871 c 0,0 87.425,-76.789 235.754,-76.789 10.269,0 20.828,0.371 31.671,1.16 96.387,6.988 184.555,58.258 242.094,100.527 50.129,-35.019 100.39,-48.168 138.57,-52.41 10.87,-1.207 22,-1.816 33.1,-1.816 21.37,0 42.45,2.218 62.66,6.59 28.39,6.136 54.41,16.359 75.24,29.539 35.97,22.757 57.67,55.597 59.52,90.097 1.65,30.711 -12.22,59.352 -39.03,80.653"
         style="fill:#ffffff;fill-opacity:1;fill-rule:nonzero;stroke:none"
         id="path16"
         inkscape:connector-curvature="0" /><path
         d="m 704.676,551.391 c -3.278,5.867 -6.77,12.425 -7.809,15.547 l -2.179,6.535 c 0,0 -2.247,9.781 -4.317,14.507 -1.648,3.77 3.906,7.055 5.567,3.254 2.375,-5.433 4.75,-10.867 7.128,-16.296 10.372,1.949 32.7,7.816 43.954,17.332 0,0 -32.247,19.351 -33.981,20.234 -3.699,1.894 -0.441,7.453 3.254,5.566 3.551,-1.812 7.102,-3.629 10.652,-5.441 l 1.645,0.523 c 6.137,1.965 17.008,6.621 24.226,12.153 -16.351,-1.098 -41.601,-1.825 -50.531,3.175 l -2.387,1.333 c -11.265,6.246 -25.285,14.023 -35.718,30.355 l -0.602,0.961 c -0.633,1.027 -1.547,2.441 -2.633,3.965 l -12.433,3.476 9.773,-32.199 c 0.414,-1.359 -0.113,-2.828 -1.297,-3.617 l -23.453,-15.637 c 0,0 35.684,-56.144 71.141,-65.726"
         style="fill:#ffffff;fill-opacity:1;fill-rule:nonzero;stroke:none"
         id="path18"
         inkscape:connector-curvature="0" /><path
         d="m 861.785,658.031 c -6.984,7.067 -16.406,7.422 -18.226,7.422 l -0.418,-0.004 -0.36,-0.004 -0.57,0.008 c -3.227,0 -19.863,-0.582 -30.621,-12.07 -7.227,-7.719 -10.414,-18.899 -9.469,-33.235 l -0.328,-1.796 c -0.262,-0.579 -5.754,-12.457 -15.488,-15.582 1.738,-1.2 4.05,-2.149 7.015,-2.149 h 0.004 c 2.93,0 6.242,0.981 9.809,2.746 3.504,6.266 5.566,13.125 5.812,20.367 0.164,4.836 7.688,4.852 7.52,0 -0.297,-8.871 -2.828,-17.425 -7.336,-25.046 -0.512,-3.274 -2.094,-12.157 -5.18,-19.567 5.836,2.375 14.805,8.285 24.692,22.594 0.214,7.406 2.191,14.539 5.906,20.969 2.422,4.199 8.922,0.414 6.492,-3.793 -3.113,-5.391 -4.754,-11.278 -4.902,-17.485 l 0.207,-0.636 c 0.004,-6.227 0.617,-14.426 1.91,-21.239 2.113,8.016 6.621,17.918 16.156,26.313 9.32,8.203 14.82,23.211 15.84,26.168 0.035,11.551 -2.812,20.301 -8.465,26.019"
         style="fill:#ffffff;fill-opacity:1;fill-rule:nonzero;stroke:none"
         id="path20"
         inkscape:connector-curvature="0" /><path
         d="m 740.602,1059.88 c -0.618,-3.07 -1.418,-5.58 -2.18,-7.6 -0.754,-2.02 -1.457,-3.56 -1.957,-4.61 -0.504,-1.04 -0.801,-1.59 -0.801,-1.59 0,0 -0.195,0.6 -0.504,1.71 -0.312,1.11 -0.75,2.73 -1.265,4.74 -0.536,2.01 -1.165,4.41 -2.004,6.97 -0.828,2.55 -1.899,5.29 -3.344,7.66 -0.68,1.2 -1.57,2.34 -2.379,3.21 l -0.539,0.49 -0.941,0.98 -0.512,0.52 0.183,-0.26 -0.023,0.01 -0.055,0.03 -0.097,0.07 -0.204,0.14 -0.777,0.55 c -2.113,1.42 -4.75,2.55 -7.957,3.46 l -2.492,0.65 -2.477,0.5 -1.648,0.31 -0.832,0.16 -0.207,0.04 -0.102,0.02 0.176,-0.05 -0.047,0.01 -0.367,0.04 c -0.98,0.14 -1.965,0.28 -2.949,0.42 l -1.477,0.23 -1.484,0.14 c -0.992,0.08 -1.981,0.19 -2.969,0.3 -0.992,0.14 -1.984,0.09 -2.973,0.17 -0.988,0.04 -1.984,0.15 -2.968,0.15 l -2.946,-0.01 -1.472,0.01 -1.453,-0.09 c -0.965,-0.07 -1.934,-0.11 -2.903,-0.15 -0.972,-0.02 -1.894,-0.23 -2.847,-0.31 -0.922,-0.11 -1.946,-0.18 -2.782,-0.32 l -2.464,-0.42 -1.247,-0.17 -1.558,-0.41 c -1.063,-0.29 -2.121,-0.57 -3.172,-0.85 l -0.785,-0.21 -0.102,-0.03 -0.047,-0.01 0.399,0.16 -0.16,-0.05 -0.317,-0.1 -1.265,-0.38 -2.489,-0.86 -2.429,-0.95 -2.352,-1.04 c -3.082,-1.45 -5.949,-3.09 -8.516,-4.83 -2.57,-1.75 -4.859,-3.57 -6.835,-5.35 -1.985,-1.77 -3.598,-3.53 -4.946,-5.04 l -0.996,-1.18 c 8.445,-2.11 16.164,-7.15 20.789,-14.59 1.727,-2.77 0.875,-6.42 -1.898,-8.14 -0.969,-0.6 -2.047,-0.89 -3.114,-0.89 -1.972,0 -3.902,0.99 -5.023,2.79 -5.687,9.15 -19.121,12.93 -28.746,8.1 -2.914,-1.47 -6.469,-0.29 -7.934,2.62 -1.465,2.92 -0.289,6.47 2.629,7.93 6.18,3.11 13.215,3.87 19.992,2.82 l 0.141,2.29 c 0.129,1.09 0.277,2.33 0.59,3.64 l 0.484,2.06 0.676,2.18 c 1.027,2.97 2.512,6.29 4.652,9.63 2.137,3.34 4.914,6.7 8.325,9.82 0.867,0.76 1.754,1.53 2.679,2.28 0.946,0.72 1.899,1.47 2.91,2.16 1.028,0.67 2.043,1.39 3.141,2.01 l 1.649,0.94 0.417,0.23 0.208,0.12 0.492,0.2 0.047,0.02 0.089,0.05 0.735,0.35 c 0.98,0.47 1.972,0.93 2.969,1.41 l 1.562,0.69 1.969,0.69 c 1.336,0.43 2.683,0.86 4.035,1.3 l 1.953,0.48 1.934,0.43 c 1.293,0.27 2.597,0.59 3.91,0.75 1.312,0.16 2.629,0.32 3.953,0.45 l 1.988,0.2 1.985,0.06 3.976,0.06 c 1.324,-0.02 2.629,-0.16 3.945,-0.23 1.305,-0.11 2.629,-0.16 3.915,-0.37 1.289,-0.19 2.574,-0.39 3.851,-0.61 l 1.906,-0.33 1.875,-0.45 c 1.239,-0.31 2.473,-0.62 3.703,-0.93 l 0.458,-0.13 0.335,-0.08 0.102,-0.03 0.199,-0.07 0.801,-0.27 1.598,-0.52 c 1.238,-0.44 2.605,-0.97 3.863,-1.46 1.227,-0.56 2.422,-1.09 3.613,-1.71 4.75,-2.45 9.324,-5.93 12.598,-10.35 l 1.164,-1.67 0.762,-1.13 0.316,-0.66 0.664,-1.4 0.863,-1.96 0.34,-0.93 0.27,-0.86 0.469,-1.71 c 0.253,-1.13 0.48,-2.23 0.582,-3.29 0.527,-4.27 0.074,-7.92 -0.5,-10.97 z m 147.843,42.19 -1.297,0.25 -1.296,0.19 -1.286,0.18 -1.285,0.05 -1.25,0.06 -1.234,-0.08 -2.379,-0.27 -1.16,-0.24 -1.153,-0.25 -1.16,-0.39 -0.582,-0.15 -0.586,-0.24 c -1.566,-0.51 -3.203,-1.36 -4.879,-2.21 l -1.269,-0.69 -1.274,-0.76 -1.164,-0.72 -0.566,-0.34 -0.805,-0.57 -0.8,-0.55 -0.102,-0.07 -0.051,-0.04 -0.023,-0.02 0.168,0.15 -0.129,-0.1 -0.266,-0.19 -1.054,-0.76 -2.075,-1.66 c -1.359,-1.17 -2.609,-2.51 -3.793,-3.88 -1.175,-1.38 -2.277,-2.83 -3.222,-4.29 l -1.364,-2.18 -1.148,-2.13 c -0.715,-1.37 -1.285,-2.71 -1.762,-3.81 l -0.629,-1.53 -0.418,-1.24 -0.398,-1.05 -0.762,0.82 -0.847,1.01 -1,1.54 c -0.711,1.22 -1.426,2.7 -2.024,4.55 -0.344,0.93 -0.5,1.93 -0.769,3.01 -0.168,1.08 -0.344,2.24 -0.395,3.45 -0.172,2.45 0.051,5.13 0.676,7.93 0.633,2.8 1.687,5.73 3.316,8.54 0.821,1.41 1.746,2.79 2.817,4.12 l 1.703,1.94 0.449,0.48 0.227,0.23 0.21,0.18 0.024,0.03 0.043,0.04 0.09,0.08 0.703,0.69 0.711,0.68 1.012,0.83 2.054,1.59 2.055,1.4 2.195,1.27 c 3.028,1.56 6.289,2.9 9.84,3.51 1.191,0.28 2.441,0.38 3.688,0.45 -18.543,21.07 -31.692,38.33 -28.95,51.14 -2.007,4.95 -8.097,17.78 -17.199,17.78 -5.562,0 -17.629,-4.83 -35.98,-37.22 -1.008,-1.77 -2.743,-3.02 -4.75,-3.41 -2.004,-0.38 -4.082,0.12 -5.68,1.4 -0.551,0.44 -56.277,44.08 -130.363,44.08 -86.172,0 -161.114,-56.34 -223.008,-167.54 l 4.398,2.86 c 2.633,1.71 6.078,1.45 8.43,-0.62 2.352,-2.08 3.027,-5.47 1.66,-8.29 -0.191,-0.39 -17.363,-36.996 -6.941,-84.981 l 2.601,4.879 c 1.477,2.77 4.617,4.215 7.684,3.532 3.058,-0.684 5.293,-3.325 5.453,-6.457 0.023,-0.442 2.488,-40.442 28.234,-75.141 l 1.063,10.644 c 0.297,2.957 2.43,5.403 5.316,6.094 l 1.633,0.195 c 2.34,0 4.567,-1.179 5.871,-3.207 0.141,-0.218 14.531,-22.351 38.946,-44.125 21.332,-19.019 54.816,-41.558 94.91,-43.195 l -5.77,14.832 c -0.961,2.473 -0.437,5.278 1.352,7.238 1.789,1.961 4.535,2.743 7.086,2.004 0.105,-0.031 12.625,-3.496 33.609,-3.496 41.277,0 121.07,13.594 207.973,100.653 -19.649,-5.918 -38.391,-14.457 -57.836,-23.399 -23.172,-10.652 -47.137,-21.672 -73.442,-28.07 -12.57,-3.059 -26.965,-4.953 -41.976,-4.953 -29.797,0 -62.051,7.453 -87.442,28.027 -35.875,29.066 -54.222,63.121 -59.504,110.426 -0.187,1.68 0.305,3.226 1.106,4.582 -4.816,-3.024 -8.582,-8.934 -9.145,-15.371 -0.367,-4.192 -3.886,-7.352 -8.019,-7.352 l -0.711,0.031 c -4.434,0.387 -7.711,4.297 -7.324,8.731 1.484,16.889 14.629,30.999 29.933,32.129 15.438,1.12 30.188,-11.04 33.586,-27.723 0.887,-4.359 -1.929,-8.613 -6.289,-9.504 -4.363,-0.886 -8.613,1.926 -9.504,6.289 -1.234,6.063 -5.402,11.18 -10.289,13.512 0.809,-1.051 1.446,-2.242 1.606,-3.656 4.804,-43.063 21.465,-74.031 54.023,-100.41 33.914,-27.481 82.363,-28.426 116.395,-20.145 24.894,6.055 48.187,16.766 70.714,27.121 26.711,12.281 54.305,24.852 84.977,30.059 2.02,0.344 4.023,0.726 6.07,1.004 l 0.899,0.144 0.125,-0.008 c 4.781,0.657 11.957,1.575 20.719,2.516 -3.407,-4.492 -6.629,-9.543 -9.555,-15.168 -10.953,-21.027 -17.914,-49.449 -15.731,-81.629 0.153,-2.269 2.039,-4.008 4.282,-4.008 l 0.297,0.012 c 2.367,0.16 4.156,2.207 3.996,4.578 -2.266,33.422 5.656,62.34 17.433,82.223 3.496,5.902 7.324,11 11.336,15.183 9.832,0.891 20.801,1.684 32.152,2.137 -0.828,-4.402 -1.355,-9.109 -1.597,-14.043 -1.383,-28.035 6.359,-62.594 20.293,-81.168 0.844,-1.125 2.133,-1.718 3.437,-1.718 l 2.575,0.859 c 1.902,1.426 2.285,4.117 0.863,6.016 -12.848,17.125 -20.086,50.238 -18.625,76.316 0.281,4.98 0.867,9.707 1.804,14.016 3.395,0.078 6.797,0.132 10.2,0.132 17.648,0 32.5,-1.187 44.53,-3.496 -2.84,6.715 -3.83,13.824 -2.81,21.297 2.58,18.996 17.07,35.461 27.94,44.942 -1.12,1.44 -2.14,2.63 -2.67,3.08 -7.7,4.69 -17.41,8.66 -27.84,12.3 12.88,8.2 26.86,13.94 37.83,11.94 2.34,-0.42 4.57,1.13 4.99,3.46 0.43,2.34 -1.12,4.58 -3.45,5 -17.02,3.09 -36.24,-7.31 -49.76,-16.92 -4.62,1.48 -9.3,2.91 -13.94,4.34 -1.973,0.61 -3.949,1.23 -5.926,1.84 6.832,17.26 11.006,39.61 5.281,53.2 -0.921,2.19 -3.437,3.22 -5.628,2.29 -2.188,-0.92 -3.215,-3.44 -2.293,-5.62 4.738,-11.25 0.703,-31.68 -5.571,-47.28 -25.668,8.21 -50.031,17.78 -61.765,35.01 -8.219,12.06 -19.61,25.12 -31.137,38 l -1.516,0.41"
         style="fill:#ffffff;fill-opacity:1;fill-rule:nonzero;stroke:none"
         id="path22"
         inkscape:connector-curvature="0" /><path
         d="m 1033.7,954.414 c -1.64,-12.004 2.18,-23.152 11.34,-33.129 l 0.38,-0.418 0.26,-0.496 c 1.05,-1.723 8.39,-7.945 19.76,-7.945 15.5,0 32.7,11.164 49.74,32.281 6.4,7.926 8.47,15.441 6.35,22.981 -5.86,20.785 -41.13,35.472 -50.75,39.122 -11.83,-8.068 -33.96,-29.388 -37.08,-52.396"
         style="fill:#ffffff;fill-opacity:1;fill-rule:nonzero;stroke:none"
         id="path24"
         inkscape:connector-curvature="0" /></g></g></svg>