<?xml version="1.0" encoding="UTF-8" standalone="no"?>
<!-- Created with Inkscape (http://www.inkscape.org/) -->

<svg
   xmlns:dc="http://purl.org/dc/elements/1.1/"
   xmlns:cc="http://creativecommons.org/ns#"
   xmlns:rdf="http://www.w3.org/1999/02/22-rdf-syntax-ns#"
   xmlns:svg="http://www.w3.org/2000/svg"
   xmlns="http://www.w3.org/2000/svg"
   xmlns:sodipodi="http://sodipodi.sourceforge.net/DTD/sodipodi-0.dtd"
   xmlns:inkscape="http://www.inkscape.org/namespaces/inkscape"
   version="1.1"
   id="svg2"
   xml:space="preserve"
   width="190.37334"
   height="198.57333"
   viewBox="0 0 190.37334 198.57333"
   sodipodi:docname="OSEM_CMYK_Artboard 5-06.svg"
   inkscape:version="0.92.1 r"><metadata
     id="metadata8"><rdf:RDF><cc:Work
         rdf:about=""><dc:format>image/svg+xml</dc:format><dc:type
           rdf:resource="http://purl.org/dc/dcmitype/StillImage" /><dc:title></dc:title></cc:Work></rdf:RDF></metadata><defs
     id="defs6" /><sodipodi:namedview
     pagecolor="#ffffff"
     bordercolor="#666666"
     borderopacity="1"
     objecttolerance="10"
     gridtolerance="10"
     guidetolerance="10"
     inkscape:pageopacity="0"
     inkscape:pageshadow="2"
     inkscape:window-width="711"
     inkscape:window-height="480"
     id="namedview4"
     showgrid="false"
     inkscape:zoom="1.1884778"
     inkscape:cx="95.186668"
     inkscape:cy="99.286667"
     inkscape:window-x="0"
     inkscape:window-y="0"
     inkscape:window-maximized="0"
     inkscape:current-layer="g10" /><g
     id="g10"
     inkscape:groupmode="layer"
     inkscape:label="ink_ext_XXXXXX"
     transform="matrix(1.3333333,0,0,-1.3333333,0,198.57333)"><g
       id="g12"
       transform="scale(0.1)"><path
         d="m 1313.56,158.789 c -13.52,-8.559 -63.75,-36.469 -142.3,-36.469 -11.83,0 -23.82,0.66 -35.63,1.969 -36.7,4.082 -83.91,15.891 -132.26,45.731 10.82,9.25 19.39,17.039 25.43,22.699 11.45,-7.719 24.46,-12.547 38.94,-14.328 3.39,-0.411 6.73,-0.621 9.92,-0.621 18.77,0 34.23,7.089 45.95,21.082 2.74,3.269 5.21,6.867 7.44,10.718 5.89,-14.871 15.98,-28.429 30.12,-39.66 5.45,-4.332 12.28,-6.719 19.22,-6.719 9.5,0 18.34,4.27 24.24,11.7 10.61,13.359 8.38,32.859 -4.98,43.468 -8.89,7.051 -13.17,14.903 -12.72,23.301 0.61,11.34 9.95,23.789 24.99,33.309 23.34,14.761 45.35,22.25 65.42,22.25 19.97,0 38.58,-7.078 56.91,-21.641 18.3,-14.527 27.43,-32.156 26.43,-50.976 -1.28,-23.68 -18.45,-47.672 -47.12,-65.813 z M 941.602,502.363 c -2.973,2.903 -3.036,7.668 -0.133,10.645 2.898,2.972 7.66,3.039 10.636,0.137 3.516,-3.422 85.955,-84.844 75.895,-173.086 -0.1,-0.93 -0.39,-1.797 -0.79,-2.59 l -13.73,13.281 c 2.72,77.609 -71.101,150.855 -71.878,151.613 z m -14.664,18.914 c -24.848,0.762 -48.543,14.102 -70.43,39.649 l -1.281,2.297 C 839.73,546.445 839.535,526.102 839.633,522.992 l 0.058,-0.742 c 0,-2.645 -2.14,-4.785 -4.785,-4.789 h -0.031 c -1.195,0 -2.375,0.445 -3.285,1.301 -7.086,6.672 -9.723,23.285 -10.695,35.644 -19.372,-23.468 -35.836,-25.504 -40.891,-25.504 l -1.274,0.055 c -1.757,0.227 -3.292,1.406 -3.917,3.059 -0.629,1.656 -0.34,3.527 0.828,4.859 4.05,4.633 7.043,14.934 8.785,22.93 -3.219,-0.957 -6.332,-1.442 -9.313,-1.442 h -0.004 c -16.464,0 -22.918,14.106 -23.183,14.707 -0.746,1.68 -0.465,3.637 0.722,5.039 1.192,1.403 3.079,2.004 4.856,1.539 l 2.637,-0.343 c 7.672,0 14.105,9.429 16.543,14.168 -1.106,20.406 3.839,36.629 14.703,48.226 16.406,17.524 41.195,18.41 45.996,18.41 l 0.906,-0.011 0.816,0.011 c 1.739,0 5.305,-0.203 9.633,-1.195 10.895,1.238 21.399,5.305 30.434,11.551 l 0.242,1.199 c 3.176,7.543 3.922,16.098 2.098,24.078 -0.508,2.211 0.875,4.414 3.086,4.918 2.211,0.5 4.414,-0.875 4.918,-3.086 1.328,-5.804 1.394,-11.836 0.507,-17.722 2.973,3.183 5.723,6.578 7.985,10.312 0.976,1.617 3.078,2.137 4.695,1.16 1.617,-0.976 2.137,-3.082 1.16,-4.699 -9.527,-15.758 -25.422,-27.406 -43.129,-32.379 2.864,-1.648 5.723,-3.73 8.399,-6.433 9.187,-9.297 13.746,-23 13.543,-40.739 l -0.223,-1.39 c -0.281,-0.887 -6.223,-19.317 -17.863,-32.852 1.246,-0.418 2.43,-1.043 3.348,-2.113 19.015,-22.196 39.023,-33.77 59.46,-34.395 l 1.754,-0.023 c 26.914,0 45.586,18.941 45.774,19.14 2.894,2.985 7.66,3.059 10.644,0.168 2.985,-2.89 3.063,-7.66 0.168,-10.644 -0.957,-0.988 -23.371,-23.719 -56.574,-23.719 z M 800.496,149.059 c -9.336,-11.137 -21.199,-16.547 -36.266,-16.547 -2.703,0 -5.542,0.179 -8.441,0.527 -81.738,10.051 -87.492,128.731 -86.875,171.633 l 42.434,-41.043 c 1.601,-1.551 3.847,-2.25 6.047,-1.867 2.195,0.379 4.082,1.777 5.082,3.769 l 29.73,59.457 24.594,-50.59 c 1.031,-2.117 3.066,-3.578 5.406,-3.878 2.344,-0.301 4.68,0.601 6.211,2.39 l 31.344,36.68 c 4.519,-35.301 11.992,-123.219 -19.266,-160.531 z m -184.359,-16.547 -18.934,2.949 c 6.465,41.559 48.117,67.211 67.817,77.18 1.738,-6.512 3.668,-12.743 5.828,-18.602 -17.68,-9.449 -49.903,-30.617 -54.711,-61.527 z m -110.785,235.129 3.41,42.05 c -39.184,-34.41 -60.715,-96.101 -60.953,-96.8 l -18.129,6.199 c 1.199,3.5 29.953,86.058 85.441,118.898 l 15.922,9.434 -3.066,-37.793 c 22.644,14.992 66.359,39.519 125.429,52.242 l 16.246,3.488 -13.23,-40.89 c 23.351,-2.18 71.656,-10.418 86.707,-41.457 l 5.726,-11.813 -19.289,-2.75 17.989,-22.847 -1.52,-1.653 -8.379,-16.75 -43.703,55.512 22.535,3.219 c -19.492,15.601 -57.519,19.91 -73.129,20.16 l -12.949,0.199 10.637,32.902 C 568.309,419.801 523.375,382.719 522.895,382.32 Z M 367.227,530.422 c -20.176,-19.438 -28.36,-44.051 -28.45,-44.332 l -5.445,-16.762 -8.344,15.524 c -38.195,71.062 -12.672,138.519 -11.566,141.355 l 14.031,-5.453 c -0.226,-0.586 -20.566,-54.813 3.887,-114.18 6.535,12.68 18.09,30.465 36.254,43.821 l 10.422,7.664 1.511,-12.848 c 0.059,-0.492 6.153,-47.387 42.188,-64.641 3.445,13.539 11.055,36.86 23.945,44.442 l 6.5,3.824 3.809,-6.512 c 0.695,-1.136 17.515,-27.703 66.394,-20.14 -2.09,13.457 -3.929,40.945 11.586,58.265 8.832,9.86 21.637,14.684 38.035,14.594 l -9.613,12.363 c -0.703,0.899 -0.996,2.051 -0.812,3.176 0.183,1.125 0.824,2.125 1.773,2.758 l 31.016,20.68 -13.739,45.253 c -0.437,1.438 -0.054,2.993 0.993,4.067 1.046,1.07 2.597,1.484 4.039,1.082 l 8.789,-2.453 c -5.953,4.035 -13.672,7.117 -23.875,7.027 -33.141,-0.305 -63.821,-22.699 -88.469,-40.695 -20.746,-15.149 -37.141,-27.106 -51.449,-23.93 l 3.265,14.695 c 4.235,-0.949 11.063,2.266 18.911,7.188 -11.223,8.738 -17.227,23.023 -15.188,37.707 0.516,3.703 5.18,5.672 8.418,4.781 3.941,-1.086 5.293,-4.726 4.777,-8.418 -1.425,-10.265 5.004,-21.148 14.145,-25.832 2.734,1.957 5.492,3.957 8.246,5.965 26.391,19.266 59.23,43.242 97.207,43.594 21.785,0.144 39.375,-10.274 52.23,-31.133 l 0.633,-1.016 c 11.242,-17.593 26.582,-26.105 40.121,-33.613 1.047,-0.582 2.082,-1.156 3.098,-1.723 8.453,-4.734 47.434,-3.316 72.418,-0.8 l 10.895,1.101 -2.879,-10.57 c -3.813,-13.981 -20.735,-24.344 -33.871,-30.465 l 25.98,-13.437 -4.531,-6.965 c -12.684,-19.516 -47.043,-29.555 -64.274,-33.492 3.657,-6.973 9.094,-16.497 12.828,-22.813 l 7.184,-12.156 -14.102,0.812 c -55.464,3.215 -89.046,57.071 -97.277,71.918 -15.449,1.535 -26.777,-1.574 -33.687,-9.269 -15.375,-17.121 -6.778,-52.071 -6.688,-52.422 l 1.914,-7.59 -7.652,-1.629 c -48.36,-10.219 -73.672,7.813 -84.035,18.664 -6.289,-8.797 -11.836,-26.383 -14.231,-38.555 l -1.629,-8.308 -8.058,2.59 c -37.965,12.199 -52.407,47.773 -57.578,67.242 z M 1131.95,364.551 c 4.41,-34.512 11.7,-120.492 -18.84,-156.922 -9.12,-10.891 -20.72,-16.18 -35.45,-16.18 -2.64,0 -5.41,0.18 -8.24,0.531 -79.912,9.821 -85.533,125.829 -84.928,167.77 l 41.478,-40.121 c 1.57,-1.52 3.77,-2.199 5.91,-1.828 2.15,0.371 3.99,1.738 4.97,3.687 l 29.06,58.121 24.04,-49.449 c 1.01,-2.082 3,-3.5 5.29,-3.801 2.29,-0.281 4.57,0.59 6.07,2.34 z m 240.78,-40.52 c -29.28,23.258 -61.29,35.059 -95.13,35.059 -32.14,0 -65.37,-10.711 -98.76,-31.84 -11.39,-7.199 -21.09,-15.629 -29.09,-24.852 0.2,40.75 -5.97,76.473 -6.47,79.262 -0.47,2.61 -2.39,4.711 -4.94,5.41 -2.55,0.692 -5.28,-0.148 -7,-2.16 l -8.99,-10.519 c -4.24,25.148 -12.4,53.769 -25.95,86.5 l 30.97,3.437 c 0,0 -20.65,43.012 -84.31,48.172 -11.16,0.906 -54.681,35.723 -54.681,35.723 0,0 13.241,57.375 -3.816,99.629 -25.086,62.136 -56.434,74.011 -89.368,99.597 -58.851,45.719 -94.797,86.172 -116.812,118.735 -13.918,-8.051 -27.985,-15.227 -42.199,-21.371 -53.645,-23.192 -99.153,-28.059 -127.883,-28.059 -12.766,0 -23.289,0.926 -31.176,1.992 l 6.238,-16.047 c 1.039,-2.668 0.727,-5.676 -0.836,-8.074 -1.562,-2.402 -4.187,-3.902 -7.05,-4.031 -2.489,-0.117 -5.012,-0.172 -7.5,-0.172 -47.067,0 -95.129,20.742 -138.997,59.984 -16.484,14.742 -29.429,29.403 -38.332,40.492 l -1.144,-11.441 c -0.344,-3.445 -2.66,-6.379 -5.934,-7.519 -3.269,-1.133 -6.91,-0.266 -9.316,2.226 -30.879,31.984 -44.199,70.258 -49.906,95.484 l -1.227,-2.3 c -1.668,-3.129 -5.043,-4.969 -8.566,-4.684 -3.532,0.285 -6.559,2.645 -7.703,5.996 -16.735,49.09 -11.454,91.71 -4.879,117.3 l -12.821,-8.33 c -3.375,-2.19 -7.797,-1.85 -10.793,0.84 -2.992,2.68 -3.808,7.05 -1.992,10.63 46.399,91.68 100.09,159.5 159.582,201.57 48.617,34.38 101.239,51.81 156.395,51.81 82.644,0 146.804,-38.71 168.922,-54.01 19.621,32.17 38.074,47.84 56.261,47.84 27.496,0 39.293,-35.93 39.782,-37.46 0.3,-0.94 0.382,-1.92 0.367,-2.89 l 0.129,0.01 c 3.187,0 7.504,-0.37 13.328,-1.43 18.926,-3.44 21.289,-13.53 21.289,-13.53 0,0 8.406,22.94 -0.77,30.97 0,0 1.407,0.09 3.489,0.09 5.218,0 14.699,-0.59 17.16,-4.68 0,0 -8.27,41.58 -49.387,67.99 18.07,17.79 23.649,37.93 23.969,55.39 14.687,21.25 14.668,31.87 14.594,35.47 -0.172,8.08 -3.868,15.24 -10.141,19.62 -3.227,2.25 -7.059,3.45 -10.977,3.45 l -1.164,-0.03 c -10.492,-0.64 -17.843,-7.13 -24.332,-12.85 -2.351,-2.08 -6.195,-5.47 -8.133,-6.35 -6.66,0.49 -13.925,2.77 -21.609,5.19 -4.766,1.49 -9.695,3.04 -14.914,4.32 -7.098,1.73 -14.035,2.61 -20.621,2.61 -14.563,0 -27.231,-4.4 -36.637,-12.72 -8.664,-7.65 -13.304,-17.37 -15.941,-26.87 -7.086,0.82 -14.231,1.31 -21.363,1.31 -5.825,0 -11.618,-0.3 -17.356,-0.96 l 34.211,45.16 c 0,0 -54.195,-7.53 -149.398,-36.21 0,0 6.882,13.77 25.234,24.09 0,0 -1.977,0.36 -5.941,0.36 -17.184,0 -71.762,-6.81 -164.965,-79.5 0,0 -5.735,14.91 11.472,44.73 0,0 -91.043,-49.58 -121.136,-112 -6.922,1.89 -14.188,2.62 -20.957,2.13 -6.317,-0.46 -12.344,-1.55 -18.176,-2.6 -8.578,-1.56 -16.68,-3.02 -24.063,-2.11 -8.484,1.05 -16.972,5.35 -25.961,9.89 -2.5,1.27 -5.089,2.58 -7.711,3.83 -14.257,6.83 -30.625,4.09 -48.644,-8.12 -2.727,-1.85 -4.445,-4.62 -5.199,-7.66 l -1.172,-1.94 c -1.594,-3.83 -38.578,-94.55 -2.649,-148.37 1.133,-1.69 2.465,-3.19 3.711,-4.77 -48.172,-52.26 -91.9645,-116.45 -99.6794,-182.503 l 39.0004,22.943 c 0,0 -119.29334,-188.115 -110.68787,-339.521 l 43.01167,41.293 c 0,0 -94.6289,-246.031 53.3362,-445.621 l 12.043,34.418 c 0,0 80.867,-204.7501 204.746,-256.3595 L 303.23,97.8516 c 0,0 111.368,-97.82035 300.317,-97.82035 13.082,0 26.531,0.46875 40.348,1.46875 122.781,8.9102 235.093,74.2109 308.398,128.07 63.857,-44.6208 127.887,-61.3708 176.517,-66.7692 13.84,-1.5391 28.03,-2.3203 42.16,-2.3203 27.23,0 54.08,2.8281 79.82,8.3984 36.17,7.8203 69.31,20.832 95.85,37.6211 45.83,29 73.46,70.828 75.82,114.789 2.1,39.121 -15.56,75.602 -49.73,102.742"
         style="fill:#3c3a3d;fill-opacity:1;fill-rule:nonzero;stroke:none"
         id="path14"
         inkscape:connector-curvature="0" /><path
         d="m 662.188,505.23 c -4.18,7.473 -8.625,15.829 -9.95,19.801 l -2.773,8.328 c 0,0 -2.863,12.457 -5.5,18.481 -2.098,4.801 4.973,8.984 7.09,4.144 3.027,-6.921 6.054,-13.839 9.078,-20.761 13.211,2.488 41.66,9.961 55.992,22.078 0,0 -41.078,24.652 -43.285,25.781 -4.715,2.41 -0.559,9.492 4.144,7.09 4.524,-2.313 9.047,-4.621 13.571,-6.934 l 2.097,0.668 c 7.813,2.5 21.661,8.434 30.856,15.477 -20.828,-1.395 -52.992,-2.32 -64.363,4.047 -0.997,0.558 -2.012,1.121 -3.047,1.695 -14.348,7.961 -32.207,17.867 -45.5,38.672 l -0.762,1.223 c -0.809,1.308 -1.973,3.109 -3.359,5.054 l -15.84,4.426 12.453,-41.016 c 0.527,-1.73 -0.145,-3.605 -1.652,-4.605 l -29.875,-19.922 c 0,0 45.457,-71.519 90.625,-83.727"
         style="fill:#3c3a3d;fill-opacity:1;fill-rule:nonzero;stroke:none"
         id="path16"
         inkscape:connector-curvature="0" /><path
         d="m 862.32,641.074 c -8.898,9 -20.898,9.457 -23.215,9.457 l -0.535,-0.008 -0.457,-0.003 -0.73,0.007 c -4.11,0 -25.301,-0.738 -39.004,-15.375 -9.203,-9.828 -13.262,-24.07 -12.063,-42.332 l -0.414,-2.293 c -0.336,-0.738 -7.336,-15.867 -19.73,-19.847 2.215,-1.532 5.16,-2.735 8.937,-2.735 v 0 c 3.735,0 7.957,1.243 12.496,3.493 4.465,7.984 7.094,16.718 7.407,25.949 0.211,6.16 9.789,6.179 9.582,0 -0.383,-11.305 -3.61,-22.199 -9.352,-31.91 -0.648,-4.164 -2.668,-15.485 -6.594,-24.926 7.43,3.027 18.86,10.558 31.45,28.785 0.277,9.434 2.793,18.523 7.523,26.711 3.09,5.348 11.367,0.523 8.274,-4.832 -3.965,-6.863 -6.055,-14.363 -6.247,-22.274 l 0.266,-0.808 c 0.004,-7.934 0.781,-18.379 2.434,-27.055 2.687,10.211 8.429,22.824 20.582,33.516 11.871,10.449 18.879,29.566 20.175,33.336 0.043,14.715 -3.582,25.859 -10.785,33.144"
         style="fill:#3c3a3d;fill-opacity:1;fill-rule:nonzero;stroke:none"
         id="path18"
         inkscape:connector-curvature="0" /><path
         d="m 707.949,1152.97 c -0.781,-3.9 -1.804,-7.1 -2.777,-9.68 -0.957,-2.57 -1.856,-4.53 -2.492,-5.86 -0.641,-1.34 -1.02,-2.04 -1.02,-2.04 0,0 -0.25,0.77 -0.644,2.18 -0.399,1.41 -0.953,3.48 -1.61,6.05 -0.683,2.56 -1.48,5.61 -2.554,8.88 -1.051,3.25 -2.418,6.73 -4.258,9.76 -0.864,1.51 -2,2.97 -3.031,4.08 l -0.684,0.62 -1.199,1.24 -0.653,0.68 0.235,-0.34 -0.035,0.02 -0.067,0.04 -0.129,0.09 -0.254,0.17 -0.992,0.7 c -2.691,1.81 -6.051,3.25 -10.133,4.41 -1.019,0.3 -2.132,0.51 -3.175,0.82 -1.043,0.21 -2.098,0.43 -3.157,0.65 l -2.101,0.4 -1.055,0.2 -0.266,0.05 -0.132,0.02 0.226,-0.06 -0.058,0.01 -0.469,0.05 c -1.246,0.18 -2.5,0.36 -3.758,0.53 l -1.879,0.3 -1.89,0.18 c -1.262,0.1 -2.524,0.24 -3.786,0.38 -1.261,0.17 -2.523,0.11 -3.785,0.22 -1.258,0.05 -2.527,0.18 -3.781,0.18 l -3.754,-0.01 -1.875,0.02 -1.852,-0.11 c -1.23,-0.09 -2.46,-0.15 -3.695,-0.19 -1.238,-0.04 -2.414,-0.31 -3.629,-0.4 -1.172,-0.15 -2.476,-0.23 -3.543,-0.42 -1.043,-0.19 -2.086,-0.37 -3.136,-0.53 l -1.59,-0.21 -1.985,-0.53 c -1.355,-0.36 -2.703,-0.73 -4.043,-1.08 l -1,-0.27 -0.125,-0.03 -0.062,-0.02 0.508,0.21 -0.203,-0.06 -0.403,-0.13 -1.613,-0.5 c -1.074,-0.32 -2.106,-0.74 -3.172,-1.08 -1.043,-0.41 -2.074,-0.81 -3.094,-1.21 -1.011,-0.45 -2.011,-0.89 -2.996,-1.33 -3.926,-1.84 -7.582,-3.93 -10.851,-6.16 -3.27,-2.22 -6.188,-4.54 -8.703,-6.81 -2.532,-2.25 -4.586,-4.49 -6.301,-6.41 l -1.27,-1.51 c 10.758,-2.69 20.59,-9.11 26.489,-18.59 2.191,-3.53 1.109,-8.17 -2.422,-10.37 -1.239,-0.76 -2.61,-1.13 -3.965,-1.13 -2.516,0 -4.977,1.26 -6.403,3.55 -7.242,11.66 -24.355,16.48 -36.617,10.32 -3.711,-1.87 -8.238,-0.37 -10.105,3.34 -1.867,3.72 -0.367,8.24 3.347,10.11 7.872,3.95 16.832,4.92 25.469,3.58 0.028,0.91 0.031,1.85 0.18,2.92 0.164,1.39 0.351,2.97 0.746,4.64 l 0.621,2.62 c 0.277,0.9 0.563,1.83 0.859,2.78 1.309,3.79 3.2,8.01 5.93,12.26 2.719,4.26 6.258,8.54 10.602,12.52 1.101,0.97 2.234,1.95 3.414,2.91 1.203,0.91 2.418,1.86 3.707,2.74 1.304,0.85 2.601,1.78 4,2.56 l 2.101,1.2 0.532,0.3 0.265,0.15 0.625,0.25 0.059,0.03 0.113,0.06 0.938,0.44 c 1.25,0.6 2.511,1.2 3.781,1.8 l 1.988,0.88 2.512,0.88 c 1.703,0.55 3.414,1.1 5.137,1.66 l 2.492,0.61 2.461,0.55 c 1.648,0.33 3.312,0.75 4.98,0.95 1.672,0.21 3.352,0.41 5.039,0.58 l 2.531,0.25 2.528,0.07 5.066,0.08 c 1.684,-0.02 3.348,-0.2 5.024,-0.29 1.664,-0.14 3.347,-0.2 4.984,-0.47 1.645,-0.25 3.281,-0.5 4.906,-0.78 l 2.434,-0.43 2.383,-0.57 c 1.582,-0.39 3.156,-0.79 4.718,-1.18 l 0.586,-0.16 0.426,-0.11 0.129,-0.04 0.258,-0.08 1.019,-0.34 2.032,-0.67 c 1.578,-0.56 3.32,-1.23 4.918,-1.87 1.57,-0.7 3.089,-1.39 4.609,-2.17 6.047,-3.13 11.875,-7.55 16.043,-13.18 l 1.484,-2.14 0.973,-1.42 0.398,-0.85 0.848,-1.79 1.098,-2.5 0.433,-1.17 0.348,-1.1 0.598,-2.18 c 0.324,-1.44 0.609,-2.83 0.738,-4.19 0.676,-5.44 0.098,-10.09 -0.637,-13.98 z m 188.336,53.76 -1.652,0.3 -1.653,0.25 -1.636,0.23 -1.637,0.06 -1.594,0.09 -1.57,-0.11 c -1.023,0.04 -2.047,-0.24 -3.031,-0.34 l -1.485,-0.31 -1.461,-0.32 -1.476,-0.49 -0.742,-0.2 -0.75,-0.31 c -1.996,-0.64 -4.078,-1.72 -6.215,-2.81 l -1.617,-0.88 -1.621,-0.97 -1.481,-0.9 -0.726,-0.44 -1.02,-0.72 -1.023,-0.72 -0.129,-0.09 -0.067,-0.05 -0.031,-0.02 0.215,0.18 -0.164,-0.12 -0.336,-0.24 -1.348,-0.96 c -0.91,-0.65 -1.758,-1.39 -2.637,-2.12 -1.734,-1.49 -3.328,-3.19 -4.835,-4.95 -1.497,-1.75 -2.903,-3.6 -4.102,-5.46 -0.691,-0.92 -1.121,-1.86 -1.738,-2.77 -0.504,-0.92 -1.02,-1.83 -1.461,-2.72 -0.91,-1.75 -1.641,-3.45 -2.246,-4.85 l -0.801,-1.95 -0.535,-1.58 -0.504,-1.34 -0.969,1.05 -1.082,1.28 -1.273,1.97 c -0.907,1.54 -1.821,3.44 -2.579,5.8 -0.437,1.18 -0.636,2.44 -0.98,3.83 -0.215,1.37 -0.441,2.85 -0.504,4.4 -0.215,3.11 0.066,6.52 0.863,10.1 0.809,3.56 2.149,7.29 4.223,10.88 1.043,1.78 2.223,3.55 3.59,5.24 l 2.168,2.47 0.57,0.61 0.293,0.3 0.27,0.23 0.027,0.03 0.055,0.05 0.113,0.11 0.894,0.87 0.911,0.86 1.285,1.07 2.621,2.02 2.613,1.79 2.801,1.61 c 3.855,1.99 8.012,3.7 12.531,4.47 1.516,0.37 3.113,0.49 4.696,0.58 -23.622,26.84 -40.368,48.83 -36.875,65.15 -2.559,6.3 -10.317,22.65 -21.911,22.65 -7.082,0 -22.457,-6.16 -45.832,-47.41 -1.285,-2.27 -3.496,-3.86 -6.054,-4.35 -2.555,-0.49 -5.2,0.15 -7.235,1.78 -0.699,0.56 -71.687,56.15 -166.062,56.15 -109.774,0 -205.239,-71.77 -284.082,-213.42 l 5.605,3.64 c 3.348,2.18 7.738,1.86 10.735,-0.79 2.996,-2.64 3.859,-6.96 2.113,-10.55 -0.238,-0.5 -22.113,-47.14 -8.84,-108.257 l 3.313,6.217 c 1.882,3.52 5.882,5.36 9.785,4.49 3.902,-0.87 6.742,-4.23 6.949,-8.223 0.027,-0.563 3.168,-51.516 35.965,-95.719 l 1.355,13.563 c 0.375,3.761 3.094,6.879 6.774,7.761 l 2.078,0.246 c 2.98,0 5.82,-1.5 7.484,-4.082 0.176,-0.281 18.508,-28.476 49.606,-56.211 27.171,-24.23 69.828,-52.945 120.902,-55.023 l -7.348,18.895 c -1.222,3.148 -0.558,6.722 1.723,9.218 2.277,2.496 5.777,3.489 9.023,2.551 0.141,-0.039 16.082,-4.453 42.817,-4.453 52.582,0 154.226,17.316 264.926,128.219 -25.028,-7.539 -48.903,-18.418 -73.672,-29.809 -29.52,-13.57 -60.047,-27.605 -93.555,-35.758 -16.016,-3.898 -34.352,-6.308 -53.473,-6.308 -37.961,0 -79.047,9.496 -111.39,35.703 -45.696,37.027 -69.071,80.41 -75.797,140.67 -0.238,2.14 0.39,4.11 1.406,5.83 -6.133,-3.85 -10.93,-11.38 -11.648,-19.57 -0.469,-5.35 -4.953,-9.37 -10.215,-9.37 l -0.906,0.04 c -5.649,0.49 -9.825,5.47 -9.329,11.12 1.887,21.51 18.637,39.49 38.129,40.92 19.664,1.43 38.453,-14.06 42.782,-35.3 1.132,-5.56 -2.454,-10.98 -8.008,-12.11 -5.559,-1.14 -10.973,2.45 -12.106,8 -1.574,7.73 -6.882,14.25 -13.109,17.22 1.031,-1.34 1.844,-2.86 2.043,-4.66 6.125,-54.85 27.348,-94.302 68.82,-127.907 43.203,-35.008 104.922,-36.207 148.274,-25.66 31.711,7.714 61.382,21.355 90.082,34.55 34.023,15.641 69.175,31.653 108.246,38.289 2.57,0.438 5.125,0.922 7.734,1.278 l 1.141,0.187 0.164,-0.012 c 6.09,0.836 15.226,2.004 26.39,3.204 -4.335,-5.723 -8.441,-12.161 -12.171,-19.325 C 909.105,947.199 900.238,910.996 903.02,870 c 0.195,-2.891 2.601,-5.102 5.457,-5.102 l 0.375,0.012 c 3.015,0.203 5.293,2.817 5.089,5.832 -2.886,42.574 7.207,79.414 22.211,104.742 4.453,7.52 9.332,14.012 14.442,19.34 12.523,1.141 26.496,2.145 40.957,2.723 -1.055,-5.606 -1.727,-11.606 -2.035,-17.887 -1.766,-35.711 8.101,-79.738 25.844,-103.394 1.08,-1.438 2.72,-2.192 4.39,-2.192 1.14,0 2.29,0.356 3.28,1.094 2.41,1.816 2.9,5.246 1.09,7.664 -16.36,21.816 -25.581,63.996 -23.72,97.215 0.35,6.348 1.1,12.367 2.3,17.851 4.32,0.102 8.66,0.172 12.99,0.172 22.48,0 41.4,-1.511 56.73,-4.453 -3.63,8.553 -4.88,17.613 -3.59,27.133 3.29,24.2 21.75,45.17 35.6,57.25 -1.44,1.83 -2.73,3.35 -3.4,3.91 -9.81,5.99 -22.19,11.04 -35.47,15.67 16.41,10.45 34.21,17.77 48.19,15.22 2.98,-0.54 5.82,1.43 6.36,4.41 0.54,2.97 -1.43,5.83 -4.4,6.36 -21.68,3.95 -46.16,-9.3 -63.38,-21.55 -5.89,1.88 -11.85,3.71 -17.76,5.53 -2.52,0.77 -5.03,1.56 -7.55,2.34 8.7,21.99 14.02,50.46 6.73,67.77 -1.18,2.79 -4.39,4.1 -7.17,2.93 -2.79,-1.18 -4.1,-4.39 -2.92,-7.17 6.03,-14.33 0.89,-40.35 -7.1,-60.23 -32.697,10.47 -63.732,22.66 -78.681,44.6 -10.469,15.36 -24.981,32 -39.668,48.41 l -1.926,0.53"
         style="fill:#3c3a3d;fill-opacity:1;fill-rule:nonzero;stroke:none"
         id="path20"
         inkscape:connector-curvature="0" /><path
         d="m 1081.31,1018.63 c -2.08,-15.29 2.79,-29.493 14.46,-42.208 l 0.48,-0.527 0.34,-0.637 c 1.32,-2.195 10.67,-10.121 25.16,-10.121 19.74,0 41.65,14.222 63.37,41.133 8.14,10.09 10.79,19.66 8.08,29.27 -7.46,26.48 -52.39,45.17 -64.64,49.83 -15.08,-10.28 -43.27,-37.43 -47.25,-66.74"
         style="fill:#3c3a3d;fill-opacity:1;fill-rule:nonzero;stroke:none"
         id="path22"
         inkscape:connector-curvature="0" /></g></g></svg>