<?xml version="1.0" encoding="UTF-8" standalone="no"?>
<!-- Generator: Adobe Illustrator 17.0.0, SVG Export Plug-In . SVG Version: 6.00 Build 0)  -->

<svg
   xmlns:dc="http://purl.org/dc/elements/1.1/"
   xmlns:cc="http://creativecommons.org/ns#"
   xmlns:rdf="http://www.w3.org/1999/02/22-rdf-syntax-ns#"
   xmlns:svg="http://www.w3.org/2000/svg"
   xmlns="http://www.w3.org/2000/svg"
   xmlns:sodipodi="http://sodipodi.sourceforge.net/DTD/sodipodi-0.dtd"
   xmlns:inkscape="http://www.inkscape.org/namespaces/inkscape"
   version="1.1"
   id="Layer_1"
   x="0px"
   y="0px"
   width="358.716px"
   height="92.783px"
   viewBox="0 0 358.716 92.783"
   enable-background="new 0 0 358.716 92.783"
   xml:space="preserve"
   sodipodi:docname="Logo.svg"
   inkscape:export-filename="/home/anxhelo/Downloads/standard horizontal.png"
   inkscape:export-xdpi="95.919998"
   inkscape:export-ydpi="95.919998"
   inkscape:version="0.92.1 r"><metadata
     id="metadata5913"><rdf:RDF><cc:Work
         rdf:about=""><dc:format>image/svg+xml</dc:format><dc:type
           rdf:resource="http://purl.org/dc/dcmitype/StillImage" /><dc:title></dc:title></cc:Work></rdf:RDF></metadata><defs
     id="defs5911" /><sodipodi:namedview
     pagecolor="#ffffff"
     bordercolor="#666666"
     borderopacity="1"
     objecttolerance="10"
     gridtolerance="10"
     guidetolerance="10"
     inkscape:pageopacity="0"
     inkscape:pageshadow="2"
     inkscape:window-width="1366"
     inkscape:window-height="716"
     id="namedview5909"
     showgrid="false"
     inkscape:zoom="1.2024419"
     inkscape:cx="305.87358"
     inkscape:cy="89.958753"
     inkscape:window-x="0"
     inkscape:window-y="24"
     inkscape:window-maximized="1"
     inkscape:current-layer="g5906" /><g
     id="g5906"><g
       id="g5863"><path
         d="M86.482,34.926h-6.445v-1.294l2.1-0.476V18.874l-2.1-0.5V17.08h6.445v1.294l-2.1,0.5v14.283l2.1,0.476    V34.926z"
         id="path5825"
         fill="#6D6E71"
         style="fill:#ffffff" /><path
         d="M97.512,34.926v-8.569c0-1.091-0.242-1.902-0.727-2.436c-0.484-0.532-1.243-0.8-2.276-0.8    c-1.375,0-2.374,0.381-2.997,1.142c-0.622,0.762-0.934,2-0.934,3.718v6.945h-2.197V21.523h1.77l0.33,1.831h0.122    c0.415-0.659,0.997-1.17,1.746-1.532c0.749-0.361,1.575-0.543,2.478-0.543c1.644,0,2.864,0.398,3.662,1.196    c0.797,0.798,1.196,2.039,1.196,3.723v8.729H97.512z"
         id="path5827"
         fill="#6D6E71"
         style="fill:#ffffff" /><path
         d="M104.758,28.03l0.745-0.953l0.854-1.025l4.285-4.528h2.563l-5.42,5.726l5.798,7.678h-2.649l-4.651-6.25    l-1.526,1.33v4.92h-2.173V15.932h2.173v9.924l-0.098,2.174H104.758z"
         id="path5829"
         fill="#6D6E71"
         style="fill:#ffffff" /><path
         d="M123.418,31.227c0,1.254-0.468,2.225-1.404,2.912c-0.936,0.688-2.25,1.031-3.943,1.031    c-1.766,0-3.17-0.281-4.211-0.842v-2.002c1.473,0.716,2.893,1.074,4.26,1.074c1.106,0,1.912-0.18,2.417-0.537    c0.504-0.358,0.757-0.839,0.757-1.441c0-0.528-0.242-0.977-0.726-1.342c-0.484-0.367-1.345-0.786-2.582-1.258    c-1.262-0.488-2.148-0.905-2.661-1.251s-0.889-0.734-1.129-1.166c-0.24-0.432-0.36-0.956-0.36-1.575    c0-1.098,0.447-1.965,1.343-2.6c0.895-0.635,2.124-0.952,3.687-0.952c1.521,0,2.946,0.301,4.272,0.903l-0.745,1.746    c-1.359-0.57-2.584-0.855-3.674-0.855c-0.912,0-1.604,0.146-2.075,0.434c-0.472,0.289-0.708,0.686-0.708,1.19    c0,0.488,0.203,0.894,0.61,1.215c0.407,0.321,1.355,0.767,2.844,1.337c1.115,0.414,1.939,0.801,2.472,1.159    c0.533,0.358,0.925,0.761,1.178,1.208C123.291,30.064,123.418,30.601,123.418,31.227z"
         id="path5831"
         fill="#6D6E71"
         style="fill:#ffffff" /><path
         d="M130.786,35.17c-1.929,0-3.43-0.592-4.504-1.776c-1.074-1.184-1.611-2.883-1.611-5.097    c0-2.246,0.543-3.977,1.629-5.193c1.087-1.217,2.635-1.825,4.645-1.825c0.651,0,1.296,0.067,1.935,0.201    c0.639,0.135,1.166,0.308,1.581,0.519l-0.671,1.832c-1.131-0.424-2.096-0.635-2.893-0.635c-1.351,0-2.348,0.425-2.991,1.275    c-0.643,0.851-0.964,2.117-0.964,3.803c0,1.619,0.321,2.858,0.964,3.717c0.643,0.858,1.595,1.287,2.856,1.287    c1.18,0,2.339-0.26,3.479-0.781v1.953C133.313,34.93,132.161,35.17,130.786,35.17z"
         id="path5833"
         fill="#6D6E71"
         style="fill:#ffffff" /><path
         d="M144.441,34.926l-0.427-1.904h-0.098c-0.667,0.838-1.333,1.406-1.996,1.703    c-0.664,0.297-1.5,0.445-2.509,0.445c-1.318,0-2.352-0.346-3.101-1.037c-0.749-0.692-1.123-1.669-1.123-2.93    c0-2.719,2.144-4.143,6.433-4.273l2.271-0.085v-0.794c0-1.017-0.22-1.768-0.659-2.252c-0.439-0.483-1.144-0.727-2.112-0.727    c-0.708,0-1.377,0.106-2.008,0.318c-0.631,0.211-1.223,0.447-1.776,0.707l-0.671-1.647c0.675-0.358,1.412-0.639,2.209-0.843    c0.797-0.203,1.587-0.305,2.368-0.305c1.619,0,2.824,0.358,3.613,1.074c0.789,0.716,1.184,1.855,1.184,3.418v9.131H144.441z     M139.912,33.401c1.229,0,2.195-0.332,2.899-0.995c0.704-0.663,1.056-1.605,1.056-2.826v-1.208l-1.978,0.085    c-1.538,0.057-2.659,0.301-3.363,0.732c-0.704,0.432-1.056,1.11-1.056,2.038c0,0.7,0.213,1.237,0.641,1.611    C138.538,33.213,139.138,33.401,139.912,33.401z"
         id="path5835"
         fill="#6D6E71"
         style="fill:#ffffff" /><path
         d="M155.288,35.17c-1.799,0-3.182-0.646-4.15-1.941h-0.146l0.049,0.501c0.065,0.635,0.098,1.2,0.098,1.696    v5.506h-2.197V21.523h1.807l0.293,1.831h0.098c0.521-0.732,1.123-1.262,1.807-1.587s1.473-0.488,2.368-0.488    c1.741,0,3.095,0.604,4.059,1.813c0.965,1.209,1.447,2.911,1.447,5.108c0,2.189-0.484,3.898-1.453,5.127    C158.396,34.556,157.037,35.17,155.288,35.17z M154.922,23.122c-1.327,0-2.285,0.375-2.875,1.123    c-0.59,0.749-0.893,1.925-0.909,3.528V28.2c0,1.815,0.301,3.128,0.903,3.938c0.602,0.81,1.579,1.215,2.93,1.215    c1.123,0,2-0.456,2.631-1.367c0.63-0.912,0.946-2.182,0.946-3.809c0-1.637-0.315-2.888-0.946-3.754    C156.97,23.555,156.077,23.122,154.922,23.122z"
         id="path5837"
         fill="#6D6E71"
         style="fill:#ffffff" /><path
         d="M168.772,35.17c-2.01,0-3.587-0.608-4.73-1.825c-1.144-1.216-1.715-2.891-1.715-5.022    c0-2.148,0.533-3.859,1.599-5.134c1.066-1.273,2.506-1.91,4.321-1.91c1.685,0,3.027,0.543,4.028,1.63    c1.001,1.086,1.501,2.557,1.501,4.412v1.331h-9.18c0.041,1.521,0.427,2.678,1.16,3.467s1.77,1.185,3.113,1.185    c0.716,0,1.396-0.063,2.039-0.189c0.643-0.126,1.396-0.373,2.258-0.738v1.928c-0.741,0.318-1.437,0.542-2.087,0.672    C170.427,35.105,169.658,35.17,168.772,35.17z M168.222,23.073c-1.05,0-1.88,0.338-2.49,1.014s-0.973,1.615-1.086,2.82h6.824    c-0.017-1.254-0.305-2.206-0.867-2.857C170.041,23.399,169.248,23.073,168.222,23.073z"
         id="path5839"
         fill="#6D6E71"
         style="fill:#ffffff" /><path
         d="M110.76,55.536c0,5.082-1.26,8.986-3.779,11.717c-2.52,2.729-6.131,4.094-10.834,4.094    s-8.314-1.365-10.834-4.094c-2.52-2.73-3.779-6.649-3.779-11.758c0-5.109,1.263-9.011,3.79-11.706    c2.527-2.694,6.148-4.042,10.866-4.042c4.717,0,8.325,1.358,10.824,4.074C109.511,46.536,110.76,50.441,110.76,55.536z     M88.358,55.536c0,3.43,0.651,6.013,1.953,7.748s3.247,2.604,5.837,2.604c5.193,0,7.79-3.45,7.79-10.352    c0-6.914-2.583-10.371-7.748-10.371c-2.59,0-4.542,0.871-5.858,2.613C89.015,49.521,88.358,52.107,88.358,55.536z"
         id="path5841"
         fill="#D55500"
         style="fill:#ffffff" /><path
         d="M127.36,71.346c-2.758,0-4.92-1.001-6.488-3.002h-0.336c0.224,1.959,0.336,3.093,0.336,3.4v9.511h-6.404    V47.453h5.207l0.903,3.044h0.294c1.498-2.323,3.716-3.484,6.656-3.484c2.771,0,4.941,1.07,6.509,3.212    c1.567,2.142,2.352,5.116,2.352,8.923c0,2.506-0.367,4.683-1.103,6.53c-0.734,1.848-1.781,3.255-3.139,4.22    C130.789,70.864,129.194,71.346,127.36,71.346z M125.47,52.135c-1.582,0-2.737,0.486-3.464,1.459    c-0.728,0.973-1.106,2.579-1.134,4.818v0.693c0,2.52,0.375,4.324,1.124,5.416c0.749,1.092,1.935,1.639,3.559,1.639    c2.869,0,4.304-2.366,4.304-7.098c0-2.309-0.354-4.041-1.06-5.196C128.091,52.712,126.982,52.135,125.47,52.135z"
         id="path5843"
         fill="#D55500"
         style="fill:#ffffff" /><path
         d="M150.154,71.346c-3.779,0-6.733-1.043-8.86-3.129c-2.128-2.085-3.191-5.039-3.191-8.859    c0-3.934,0.983-6.975,2.95-9.123c1.966-2.148,4.685-3.223,8.157-3.223c3.317,0,5.9,0.944,7.748,2.834s2.771,4.5,2.771,7.832v3.107    H144.59c0.07,1.819,0.609,3.24,1.617,4.262s2.421,1.533,4.241,1.533c1.414,0,2.75-0.147,4.01-0.441s2.575-0.763,3.947-1.406v4.955    c-1.12,0.56-2.317,0.976-3.59,1.249C153.541,71.21,151.987,71.346,150.154,71.346z M149.251,51.568    c-1.358,0-2.422,0.431-3.191,1.291c-0.77,0.861-1.211,2.082-1.323,3.664h8.986c-0.028-1.582-0.441-2.803-1.239-3.664    C151.686,51.999,150.608,51.568,149.251,51.568z"
         id="path5845"
         fill="#D55500"
         style="fill:#ffffff" /><path
         d="M184.452,70.926h-6.404V57.215c0-1.693-0.301-2.963-0.903-3.811c-0.602-0.847-1.561-1.27-2.876-1.27    c-1.792,0-3.086,0.598-3.884,1.795c-0.798,1.196-1.197,3.181-1.197,5.952v11.044h-6.404V47.453h4.892l0.861,3.003h0.357    c0.714-1.135,1.697-1.991,2.95-2.572c1.253-0.581,2.677-0.871,4.273-0.871c2.729,0,4.801,0.738,6.215,2.215    c1.414,1.477,2.121,3.607,2.121,6.393V70.926z"
         id="path5847"
         fill="#D55500"
         style="fill:#ffffff" /><path
         d="M216.538,62.402c0,2.771-0.997,4.955-2.991,6.551c-1.995,1.596-4.771,2.394-8.325,2.394    c-3.275,0-6.173-0.616-8.692-1.848v-6.047c2.071,0.924,3.825,1.574,5.26,1.953c1.435,0.377,2.747,0.566,3.937,0.566    c1.428,0,2.522-0.273,3.286-0.818c0.763-0.547,1.144-1.358,1.144-2.436c0-0.603-0.168-1.138-0.504-1.606s-0.829-0.921-1.479-1.354    c-0.651-0.434-1.978-1.127-3.979-2.078c-1.876-0.883-3.283-1.729-4.22-2.541c-0.938-0.812-1.687-1.757-2.247-2.834    c-0.56-1.078-0.84-2.338-0.84-3.779c0-2.716,0.92-4.851,2.761-6.404c1.84-1.554,4.384-2.33,7.632-2.33    c1.596,0,3.118,0.188,4.566,0.566c1.449,0.378,2.964,0.91,4.546,1.596l-2.1,5.061c-1.638-0.672-2.992-1.142-4.063-1.407    c-1.071-0.266-2.125-0.399-3.16-0.399c-1.232,0-2.177,0.287-2.834,0.861c-0.658,0.574-0.987,1.322-0.987,2.246    c0,0.574,0.133,1.075,0.399,1.502c0.266,0.427,0.689,0.84,1.27,1.238c0.581,0.399,1.956,1.116,4.126,2.152    c2.869,1.372,4.836,2.747,5.899,4.126S216.538,60.4,216.538,62.402z"
         id="path5849"
         fill="#D55500"
         style="fill:#ffffff" /><path
         d="M216.089,47.453h7.013l4.431,13.206c0.378,1.148,0.637,2.506,0.776,4.074h0.126    c0.154-1.442,0.455-2.8,0.903-4.074l4.346-13.206h6.866l-9.932,26.475c-0.91,2.45-2.208,4.283-3.895,5.502    c-1.687,1.217-3.657,1.826-5.91,1.826c-1.106,0-2.191-0.119-3.255-0.357v-5.08c0.77,0.182,1.609,0.272,2.52,0.272    c1.134,0,2.124-0.347,2.971-1.039c0.848-0.693,1.509-1.739,1.984-3.139l0.378-1.154L216.089,47.453z"
         id="path5851"
         fill="#D55500"
         style="fill:#ffffff" /><path
         d="M262.777,70.926h-6.404V57.215c0-1.693-0.283-2.963-0.851-3.811c-0.566-0.847-1.459-1.27-2.677-1.27    c-1.638,0-2.827,0.602-3.569,1.805c-0.742,1.204-1.112,3.185-1.112,5.942v11.044h-6.404V47.453h4.893l0.86,3.003h0.357    c0.63-1.078,1.539-1.922,2.729-2.53c1.189-0.609,2.554-0.913,4.094-0.913c3.514,0,5.893,1.147,7.139,3.443h0.567    c0.63-1.092,1.557-1.939,2.781-2.541c1.226-0.602,2.607-0.902,4.147-0.902c2.659,0,4.671,0.682,6.036,2.047    c1.364,1.364,2.047,3.552,2.047,6.561v15.307h-6.425V57.215c0-1.693-0.283-2.963-0.851-3.811c-0.566-0.847-1.459-1.27-2.677-1.27    c-1.567,0-2.74,0.56-3.517,1.68c-0.777,1.119-1.165,2.896-1.165,5.332V70.926z"
         id="path5853"
         fill="#D55500"
         style="fill:#ffffff" /><path
         d="M294.892,47.012c2.771,0,4.94,1.081,6.509,3.243c1.567,2.163,2.352,5.127,2.352,8.892    c0,3.878-0.809,6.88-2.425,9.008c-1.617,2.128-3.818,3.191-6.604,3.191c-2.758,0-4.921-1.001-6.488-3.002h-0.44l-1.071,2.582    h-4.892v-32.67h6.403v7.601c0,0.966-0.084,2.513-0.252,4.64h0.252C289.734,48.173,291.952,47.012,294.892,47.012z M292.834,52.135    c-1.582,0-2.737,0.486-3.465,1.459s-1.105,2.579-1.134,4.818v0.693c0,2.52,0.375,4.324,1.124,5.416    c0.748,1.092,1.935,1.639,3.559,1.639c1.315,0,2.362-0.605,3.139-1.816c0.777-1.211,1.165-2.971,1.165-5.281    c0-2.309-0.392-4.041-1.176-5.196C295.262,52.712,294.192,52.135,292.834,52.135z"
         id="path5855"
         fill="#D55500"
         style="fill:#ffffff" /><path
         d="M328.225,59.147c0,3.822-1.008,6.811-3.023,8.966s-4.822,3.233-8.419,3.233    c-2.254,0-4.241-0.493-5.963-1.48c-1.722-0.986-3.045-2.404-3.969-4.252s-1.386-4.003-1.386-6.467    c0-3.835,1.001-6.816,3.003-8.943c2.001-2.128,4.814-3.191,8.44-3.191c2.253,0,4.241,0.489,5.963,1.469    c1.722,0.98,3.044,2.387,3.968,4.221S328.225,56.684,328.225,59.147z M311.995,59.147c0,2.324,0.381,4.081,1.144,5.271    c0.764,1.189,2.006,1.784,3.728,1.784c1.707,0,2.936-0.591,3.685-1.773s1.123-2.943,1.123-5.281c0-2.323-0.378-4.065-1.134-5.228    s-1.994-1.743-3.716-1.743c-1.708,0-2.939,0.578-3.695,1.732C312.373,55.064,311.995,56.81,311.995,59.147z"
         id="path5857"
         fill="#D55500"
         style="fill:#ffffff" /><path
         d="M337.77,70.926h-6.403v-32.67h6.403V70.926z"
         id="path5859"
         fill="#D55500"
         style="fill:#ffffff" /><path
         d="M358.716,63.956c0,2.407-0.837,4.241-2.509,5.501c-1.673,1.26-4.176,1.89-7.507,1.89    c-1.708,0-3.163-0.115-4.367-0.347c-1.204-0.23-2.33-0.57-3.38-1.019V64.69c1.189,0.561,2.53,1.029,4.021,1.407    c1.491,0.378,2.803,0.567,3.937,0.567c2.323,0,3.485-0.672,3.485-2.016c0-0.504-0.154-0.914-0.462-1.229    c-0.308-0.315-0.84-0.672-1.596-1.071c-0.756-0.398-1.764-0.864-3.023-1.396c-1.806-0.756-3.132-1.456-3.979-2.1    c-0.847-0.645-1.463-1.383-1.848-2.216c-0.385-0.832-0.577-1.858-0.577-3.075c0-2.086,0.809-3.699,2.425-4.84    c1.617-1.141,3.908-1.711,6.876-1.711c2.827,0,5.578,0.615,8.252,1.848l-1.932,4.619c-1.176-0.504-2.275-0.917-3.297-1.239    s-2.064-0.483-3.128-0.483c-1.89,0-2.835,0.512-2.835,1.533c0,0.574,0.305,1.07,0.914,1.49c0.608,0.42,1.941,1.043,3.999,1.869    c1.834,0.742,3.178,1.435,4.031,2.078c0.854,0.645,1.483,1.387,1.89,2.227S358.716,62.793,358.716,63.956z"
         id="path5861"
         fill="#D55500"
         style="fill:#ffffff" /></g><g
       id="g28_2_"><g
         id="g5877"><g
           id="g5867"><path
             d="M55.855,76.795c0,1.331,10.329,2.091,9.759-0.317C64.789,72.423,56.995,72.74,55.855,76.795z"
             id="path5865"
             style="fill:#ffffff" /></g><g
           id="g5871"><path
             d="M54.587,79.583c-2.915,2.661,0.507,5.45,3.358,3.612C58.706,82.688,57.882,80.217,54.587,79.583z"
             id="path5869"
             style="fill:#ffffff" /></g><g
           id="g5875"><path
             d="M10.922,82.936c2.345,2.028,5.893-0.444,7.034-3.295C15.674,76.663,7.247,79.831,10.922,82.936z"
             id="path5873"
             style="fill:#ffffff" /></g></g></g><g
       id="g5900"><g
         id="g5882"><rect
           x="0"
           y="28.126"
           width="8.036"
           height="32.144"
           id="rect5880"
           style="fill:#ffffff" /></g><g
         id="g5886"><rect
           x="48.216"
           y="28.126"
           width="8.036"
           height="32.144"
           id="rect5884"
           style="fill:#ffffff" /></g><g
         id="g5890"><rect
           x="32.144"
           y="28.126"
           width="8.036"
           height="32.144"
           id="rect5888"
           style="fill:#ffffff" /></g><g
         id="g5894"><rect
           x="16.072"
           y="28.126"
           width="8.036"
           height="32.144"
           id="rect5892"
           style="fill:#ffffff" /></g><g
         id="g5898"><polygon
           points="56.252,16.072 28.126,0 0,16.072 0,24.108 56.252,24.108    "
           id="polygon5896"
           style="fill:#ffffff" /></g></g><g
       id="g5904"><path
         d="M0,64.436v7.551c0,4.575,9.468,4.387,15.03,2.725c3.532-1.056,7.266,0.031,7.685,3.333c0.386,3.042-5.937,4.9-3.859,7.036    c2.241,2.369,7.62,0.128,8.581,5.507c0.704,3.97,9.861,1.985,13.96-1.409C43.958,87,36.978,87,39.283,84.631    c5.763-5.827,16.988-8.476,16.988-12.645v-7.551H0z"
         id="path5902"
         style="fill:#ffffff" /></g></g></svg>