<?xml version="1.0" encoding="UTF-8" standalone="no"?>
<!-- Created with Inkscape (http://www.inkscape.org/) -->

<svg
   xmlns:dc="http://purl.org/dc/elements/1.1/"
   xmlns:cc="http://creativecommons.org/ns#"
   xmlns:rdf="http://www.w3.org/1999/02/22-rdf-syntax-ns#"
   xmlns:svg="http://www.w3.org/2000/svg"
   xmlns="http://www.w3.org/2000/svg"
   xmlns:sodipodi="http://sodipodi.sourceforge.net/DTD/sodipodi-0.dtd"
   xmlns:inkscape="http://www.inkscape.org/namespaces/inkscape"
   width="99.914871mm"
   height="23.992256mm"
   viewBox="0 0 99.914872 23.992256"
   version="1.1"
   id="svg8"
   sodipodi:docname="horizontal white.svg"
   inkscape:export-filename="/home/anxhelo/Documents/ura works folder/WorldBrain/horizontal black.png"
   inkscape:export-xdpi="141.06"
   inkscape:export-ydpi="141.06"
   inkscape:version="0.92.1 r">
  <defs
     id="defs2" />
  <sodipodi:namedview
     id="base"
     pagecolor="#ffffff"
     bordercolor="#666666"
     borderopacity="1.0"
     inkscape:pageopacity="0.0"
     inkscape:pageshadow="2"
     inkscape:zoom="1.979899"
     inkscape:cx="187.39801"
     inkscape:cy="81.755377"
     inkscape:document-units="mm"
     inkscape:current-layer="layer1"
     showgrid="false"
     inkscape:window-width="1366"
     inkscape:window-height="740"
     inkscape:window-x="0"
     inkscape:window-y="0"
     inkscape:window-maximized="1"
     fit-margin-top="0"
     fit-margin-left="0"
     fit-margin-right="0"
     fit-margin-bottom="0" />
  <metadata
     id="metadata5">
    <rdf:RDF>
      <cc:Work
         rdf:about="">
        <dc:format>image/svg+xml</dc:format>
        <dc:type
           rdf:resource="http://purl.org/dc/dcmitype/StillImage" />
        <dc:title></dc:title>
      </cc:Work>
    </rdf:RDF>
  </metadata>
  <g
     inkscape:label="Layer 1"
     inkscape:groupmode="layer"
     id="layer1"
     transform="translate(-59.30782,-154.18477)">
    <g
       id="g12716"
       transform="matrix(2.3502902,0,0,2.3502902,-126.92686,69.671813)">
      <g
         transform="translate(2.0729891)"
         id="g12692">
        <g
           transform="matrix(0.12805161,0,0,-0.12805161,81.852522,45.244731)"
           id="g12652" />
        <g
           id="g12690"
           style="fill:#ffffff">
          <path
             d="m 78.818672,38.381768 c -0.03022,0 -0.06082,-0.0072 -0.08925,-0.02215 -0.09399,-0.04943 -0.129972,-0.16557 -0.08054,-0.259432 0.02625,-0.04981 0.649861,-1.219563 1.474641,-1.166806 0.106027,0.0065 0.186444,0.0977 0.179913,0.203601 -0.0065,0.1059 -0.09924,0.18606 -0.203602,0.179785 -0.480193,-0.03278 -0.964869,0.684564 -1.111104,0.962308 -0.03431,0.06531 -0.101033,0.102697 -0.170052,0.102697"
             style="fill:#ffffff;fill-opacity:1;fill-rule:nonzero;stroke:none;stroke-width:0.12805161"
             id="path12654"
             inkscape:connector-curvature="0" />
          <path
             d="m 77.499267,40.606664 c -0.08221,0 -0.158272,-0.05327 -0.183626,-0.135991 -0.03099,-0.101416 0.02613,-0.208596 0.127283,-0.239712 0.04635,-0.01447 1.07653,-0.349197 0.822732,-1.337243 -0.02638,-0.102826 0.0356,-0.207572 0.138296,-0.233822 0.102954,-0.02664 0.207571,0.03547 0.23395,0.138167 0.276591,1.077683 -0.586989,1.648664 -1.08242,1.80015 -0.01869,0.0057 -0.03752,0.0085 -0.05621,0.0085"
             style="fill:#ffffff;fill-opacity:1;fill-rule:nonzero;stroke:none;stroke-width:0.12805161"
             id="path12656"
             inkscape:connector-curvature="0" />
          <path
             d="m 79.562102,39.273827 c -0.01203,0 -0.02407,-0.0011 -0.03624,-0.0035 -0.104363,-0.01998 -0.172615,-0.120496 -0.152767,-0.22473 0.266475,-1.394098 1.421757,-1.408183 1.438148,-1.408183 h 1.24e-4 c 0.106027,3.84e-4 0.191694,0.08682 0.191182,0.192845 -5.09e-4,0.105771 -0.08631,0.191181 -0.191822,0.191309 -0.03713,3.85e-4 -0.854872,0.02164 -1.060139,1.096122 -0.01767,0.09207 -0.09822,0.156095 -0.188492,0.156095"
             style="fill:#ffffff;fill-opacity:1;fill-rule:nonzero;stroke:none;stroke-width:0.12805161"
             id="path12658"
             inkscape:connector-curvature="0" />
          <path
             d="m 77.843405,41.867114 c -0.03585,0 -0.07197,-0.01 -0.104233,-0.03086 -0.08912,-0.05775 -0.114478,-0.176711 -0.05685,-0.265707 0.125874,-0.193998 1.257723,-1.895803 2.271123,-1.897596 h 2.59e-4 c 0.106027,0 0.191949,0.0858 0.192078,0.191693 2.59e-4,0.106027 -0.08554,0.192206 -0.191693,0.192461 -0.684308,0.0013 -1.639189,1.243765 -1.94933,1.722422 -0.03675,0.05673 -0.09847,0.08759 -0.161345,0.08759"
             style="fill:#ffffff;fill-opacity:1;fill-rule:nonzero;stroke:none;stroke-width:0.12805161"
             id="path12660"
             inkscape:connector-curvature="0" />
          <path
             d="m 78.964741,42.788804 c -0.03701,0 -0.07427,-0.01063 -0.107179,-0.03278 -0.08797,-0.05929 -0.111277,-0.178631 -0.05199,-0.266603 0.157248,-0.233566 0.257641,-0.379673 0.330501,-0.469181 -0.142009,-0.835408 0.368277,-1.131336 0.690071,-1.233777 0.101161,-0.03253 0.20898,0.02356 0.241249,0.124723 0.03214,0.101032 -0.02369,0.209108 -0.124722,0.241249 -0.377241,0.120111 -0.51067,0.389404 -0.419882,0.847317 0.01152,0.05813 0.02894,0.145722 -0.04623,0.220632 -0.0073,0.0072 -0.01498,0.0137 -0.02331,0.01972 -0.05097,0.06044 -0.20501,0.279793 -0.329093,0.463931 -0.03713,0.05506 -0.09783,0.08477 -0.159424,0.08477"
             style="fill:#ffffff;fill-opacity:1;fill-rule:nonzero;stroke:none;stroke-width:0.12805161"
             id="path12662"
             inkscape:connector-curvature="0" />
          <path
             d="m 80.064435,42.627485 c -0.07965,0 -0.154046,-0.04994 -0.181577,-0.129332 -0.09553,-0.276463 -0.512847,-0.223962 -0.517201,-0.223194 -0.105002,0.01306 -0.201809,-0.0598 -0.215895,-0.164931 -0.01409,-0.105129 0.05967,-0.201808 0.164931,-0.215894 0.271341,-0.0365 0.773815,0.02318 0.931319,0.4784 0.03457,0.100265 -0.01857,0.209621 -0.118832,0.244323 -0.02075,0.0072 -0.042,0.01063 -0.06274,0.01063"
             style="fill:#ffffff;fill-opacity:1;fill-rule:nonzero;stroke:none;stroke-width:0.12805161"
             id="path12664"
             inkscape:connector-curvature="0" />
          <path
             d="m 79.457432,43.66177 c -0.14329,0 -0.293494,-0.01524 -0.443315,-0.04649 -0.292342,-0.06095 -0.826573,-0.235487 -1.118787,-0.719009 -0.05493,-0.09079 -0.02587,-0.208853 0.06492,-0.263787 0.09079,-0.05468 0.208725,-0.02587 0.263659,0.06505 0.158528,0.26225 0.475199,0.459705 0.868701,0.541787 0.407973,0.0849 0.742573,0.01869 0.88074,-0.07914 0.08631,-0.06121 0.206547,-0.04072 0.267756,0.04584 0.06133,0.08669 0.04072,0.206547 -0.04584,0.267756 -0.173638,0.122801 -0.44101,0.187979 -0.737834,0.187979"
             style="fill:#ffffff;fill-opacity:1;fill-rule:nonzero;stroke:none;stroke-width:0.12805161"
             id="path12666"
             inkscape:connector-curvature="0" />
          <path
             d="m 80.041796,35.958519 c -0.239712,0 -0.482115,0.06851 -0.665228,0.18798 -0.102954,0.0671 -0.231645,0.128308 -0.367892,0.193102 -0.339977,0.161729 -0.725285,0.344971 -0.947967,0.730918 -0.147387,0.255719 -0.138295,0.48698 -0.131509,0.655881 0.002,0.05327 0.004,0.101033 0.0014,0.145979 -0.03316,0.03393 -0.101417,0.08605 -0.144954,0.119216 -0.07875,0.05993 -0.160065,0.121905 -0.226268,0.197199 -0.533975,0.606965 -0.396576,1.160403 -0.314494,1.491033 0.0178,0.07145 0.03457,0.138936 0.0397,0.18734 0.01,0.09335 -2.56e-4,0.292213 -0.0084,0.452022 -0.0077,0.152125 -0.01511,0.295671 -0.01,0.400289 0.0079,0.161345 0.07811,0.328581 0.169028,0.53039 0.02126,0.047 0.0452,0.100264 0.05365,0.124466 0.07004,0.201041 0.116783,0.616568 0.132021,0.753071 0.129204,1.149776 0.938746,1.562486 1.52996,1.863919 0.102954,0.0525 0.200145,0.102058 0.289013,0.152382 0.163906,0.09309 0.412582,0.153277 0.633599,0.153277 0.439089,0 0.749742,-0.236126 0.810695,-0.616055 0.06159,-0.384156 0.06787,-0.811592 0.06543,-1.216107 v -0.0016 c -0.0091,-1.526782 -0.003,-5.466034 0.0025,-5.65555 0.0065,-0.230109 -0.06838,-0.432431 -0.21692,-0.585196 -0.165395,-0.170222 -0.411638,-0.263956 -0.693352,-0.263956 m 0.01639,6.407574 c 0,0 -0.0041,-0.0068 -0.0095,-0.01575 0.0021,0.0036 0.0044,0.0072 0.0069,0.01139 0.0018,0.003 0.0026,0.0044 0.0026,0.0044 m 0.221897,-5.193773 v 0 c -2.58e-4,0 -3.99e-4,1.25e-4 -5.08e-4,1.25e-4 h -1.24e-4 c 2.59e-4,0 3.99e-4,-1.25e-4 6.31e-4,-1.25e-4 v 0 l 1.25e-4,-1.25e-4 -1.25e-4,1.25e-4 m -0.238299,-0.829686 c 0.275439,0 0.535383,0.130357 0.526163,0.453815 -0.0061,0.212437 -0.01139,4.191257 -0.0026,5.668972 0,-8.83e-4 0,-0.0021 0,-0.0031 -1.25e-4,-0.0347 -3.99e-4,-0.06185 -5.08e-4,-0.0849 0,-0.0032 0,-0.0064 0,-0.0096 0,0.0032 0,0.0064 0,0.0096 2.59e-4,0.03239 3.99e-4,0.06518 5.08e-4,0.0849 0,0.0013 0,0.002 0,0.0033 0,6.31e-4 0,7.58e-4 0,0.0014 0.0022,0.367892 -0.0025,0.789566 -0.0607,1.152976 -0.0356,0.222682 -0.229341,0.292727 -0.431278,0.292727 -0.173894,0 -0.353934,-0.05199 -0.443955,-0.10321 -0.619256,-0.351378 -1.501275,-0.606969 -1.626766,-1.725116 -0.03163,-0.281458 -0.07734,-0.624764 -0.151101,-0.83656 -0.04405,-0.126516 -0.194382,-0.398498 -0.201681,-0.547293 -0.0097,-0.197584 0.03982,-0.656905 0.01665,-0.874208 -0.03688,-0.34702 -0.329733,-0.80314 0.181193,-1.383982 0.12128,-0.137784 0.435262,-0.288117 0.460233,-0.480834 0.03291,-0.254823 -0.05558,-0.454455 0.08554,-0.699162 0.240224,-0.416552 0.806341,-0.542042 1.192929,-0.794304 0.121521,-0.07926 0.291189,-0.125491 0.455351,-0.125491"
             style="fill:#ffffff;fill-opacity:1;fill-rule:nonzero;stroke:none;stroke-width:0.12805161"
             id="path12668"
             inkscape:connector-curvature="0" />
          <path
             d="m 81.604961,35.958519 c -0.281714,0 -0.527958,0.09373 -0.693272,0.263915 -0.14854,0.152765 -0.22345,0.355087 -0.21692,0.585068 0.0055,0.189772 0.01152,4.129151 0.0025,5.655654 v 0.004 c -0.0025,0.40221 0.0039,0.829647 0.06544,1.213801 0.06095,0.379929 0.371606,0.616057 0.810695,0.616057 0.221017,0 0.469693,-0.06019 0.633599,-0.153278 0.08887,-0.05032 0.186059,-0.09988 0.289013,-0.152382 0.591214,-0.301433 1.400756,-0.714144 1.52996,-1.863919 0.01524,-0.136503 0.06198,-0.551902 0.132021,-0.752943 0.0085,-0.02433 0.03239,-0.0776 0.05366,-0.124594 0.09092,-0.20181 0.161089,-0.369045 0.169028,-0.530518 0.0051,-0.10449 -0.0023,-0.248036 -0.01,-0.400161 -0.0082,-0.159819 -0.01847,-0.358683 -0.0085,-0.452033 0.0051,-0.0484 0.0219,-0.115886 0.0397,-0.187339 0.08208,-0.33063 0.21948,-0.884068 -0.314495,-1.491033 -0.0662,-0.07529 -0.147516,-0.137271 -0.226267,-0.197199 -0.04354,-0.03316 -0.111789,-0.08528 -0.144955,-0.119217 -0.0026,-0.04495 -6.31e-4,-0.09271 0.0014,-0.145978 0.0068,-0.1689 0.01588,-0.400162 -0.131509,-0.655881 -0.222663,-0.385945 -0.60797,-0.569187 -0.947948,-0.730916 -0.136246,-0.06479 -0.26481,-0.126003 -0.367764,-0.193102 -0.183241,-0.119472 -0.425643,-0.18798 -0.665355,-0.18798 m -0.01639,6.407574 c 0,0 7.58e-4,-0.0014 0.0026,-0.0044 0.0026,-0.0042 0.0047,-0.0078 0.0069,-0.01139 -0.0054,0.009 -0.0095,0.01575 -0.0095,0.01575 m -0.22194,-5.193773 v 0 c 2.6e-4,0 3.99e-4,1.25e-4 6.32e-4,1.25e-4 h -1.26e-4 c -1.25e-4,0 -2.59e-4,-1.25e-4 -5.08e-4,-1.25e-4 v 0 l -1.25e-4,-1.25e-4 1.25e-4,1.25e-4 m 0.238295,-0.829646 c 0.164162,0 0.333958,0.04635 0.455351,0.12549 0.386588,0.252262 0.952704,0.377753 1.192929,0.794305 0.141112,0.244707 0.05263,0.444339 0.08554,0.699162 0.02497,0.192717 0.338953,0.34305 0.460218,0.480833 0.510926,0.580842 0.218072,1.036962 0.181193,1.383982 -0.02318,0.217304 0.02638,0.676625 0.01665,0.874209 -0.0073,0.148796 -0.157631,0.420777 -0.201682,0.547292 -0.07376,0.211797 -0.119471,0.555103 -0.1511,0.836561 -0.125491,1.118147 -1.00751,1.373738 -1.626767,1.725111 -0.09002,0.05122 -0.270061,0.10321 -0.443956,0.10321 -0.201809,0 -0.395679,-0.07004 -0.431277,-0.292726 -0.05827,-0.36341 -0.06287,-0.785085 -0.0607,-1.152977 0,-6.31e-4 0,-7.57e-4 0,-0.0014 0,-0.0013 0,-0.002 0,-0.0033 0,-0.01319 1.25e-4,-0.03201 2.59e-4,-0.05263 1.25e-4,-0.01549 2.6e-4,-0.02933 2.6e-4,-0.04187 0,0.01409 -1.25e-4,0.0283 -2.6e-4,0.04187 0,0.01549 -1.24e-4,0.03278 -2.59e-4,0.05263 0,8.84e-4 0,0.0021 0,0.0031 0.0088,-1.477715 0.0036,-5.456535 -0.0026,-5.668972 -0.0092,-0.323587 0.250726,-0.453815 0.526165,-0.453815"
             style="fill:#ffffff;fill-opacity:1;fill-rule:nonzero;stroke:none;stroke-width:0.12805161"
             id="path12670"
             inkscape:connector-curvature="0" />
          <path
             d="m 82.828173,38.381653 c -0.06889,0 -0.135607,-0.03726 -0.170053,-0.102441 -0.146875,-0.277744 -0.630654,-0.995346 -1.111232,-0.962437 -0.102953,0.0064 -0.197071,-0.07389 -0.203601,-0.179784 -0.0065,-0.105899 0.07389,-0.197072 0.179912,-0.203602 0.824908,-0.05327 1.44852,1.116994 1.47477,1.166806 0.04943,0.09386 0.01345,0.209749 -0.08042,0.259305 -0.02843,0.01498 -0.05916,0.02215 -0.08938,0.02215"
             style="fill:#ffffff;fill-opacity:1;fill-rule:nonzero;stroke:none;stroke-width:0.12805161"
             id="path12672"
             inkscape:connector-curvature="0" />
          <path
             d="m 84.147322,40.606664 c -0.0187,0 -0.03752,-0.0027 -0.05609,-0.0084 -0.495431,-0.151485 -1.359011,-0.722467 -1.08242,-1.80015 0.02638,-0.102697 0.130741,-0.164802 0.233951,-0.138167 0.102697,0.02625 0.164674,0.130997 0.138295,0.233822 -0.254054,0.989199 0.77881,1.323541 0.82286,1.337243 0.101033,0.0315 0.157888,0.138936 0.126771,0.240096 -0.02561,0.08247 -0.101289,0.135607 -0.183369,0.135607"
             style="fill:#ffffff;fill-opacity:1;fill-rule:nonzero;stroke:none;stroke-width:0.12805161"
             id="path12674"
             inkscape:connector-curvature="0" />
          <path
             d="m 82.084744,39.273827 c -0.09028,0 -0.170821,-0.06403 -0.188493,-0.156095 -0.206419,-1.080756 -1.014681,-1.096122 -1.058474,-1.096122 -0.001,-1.25e-4 -0.0011,0 -0.0015,0 -0.105642,0 -0.191565,-0.08554 -0.192077,-0.191309 -5.09e-4,-0.106027 0.08515,-0.192462 0.19118,-0.192846 h 1.25e-4 c 0.01626,0 1.171801,0.01396 1.438276,1.408184 0.01985,0.104233 -0.04841,0.204754 -0.152765,0.22473 -0.01217,0.0023 -0.02421,0.0035 -0.03624,0.0035"
             style="fill:#ffffff;fill-opacity:1;fill-rule:nonzero;stroke:none;stroke-width:0.12805161"
             id="path12676"
             inkscape:connector-curvature="0" />
          <path
             d="m 83.803311,41.867114 c -0.06287,0 -0.124594,-0.03086 -0.161345,-0.08759 -0.310525,-0.478657 -1.265918,-1.721141 -1.949201,-1.722422 -0.106155,-2.59e-4 -0.19195,-0.08643 -0.191693,-0.192461 1.25e-4,-0.105899 0.08605,-0.191694 0.192077,-0.191694 h 2.59e-4 c 1.013273,0.0018 2.145121,1.703598 2.270996,1.897597 0.05762,0.08899 0.03227,0.207956 -0.05673,0.265579 -0.03239,0.021 -0.06851,0.03099 -0.104362,0.03099"
             style="fill:#ffffff;fill-opacity:1;fill-rule:nonzero;stroke:none;stroke-width:0.12805161"
             id="path12678"
             inkscape:connector-curvature="0" />
          <path
             d="m 82.277077,42.27428 c 0.01998,0.0032 0.04239,0.0035 0.06684,-0.0014 -0.02228,0.0045 -0.04508,0.0047 -0.06684,0.0014 m 0.405027,0.514511 c -0.06159,0 -0.122289,-0.0297 -0.159424,-0.08477 -0.124082,-0.18401 -0.278,-0.403234 -0.329093,-0.463931 -0.0083,-0.0059 -0.01614,-0.01254 -0.02344,-0.01972 -0.07517,-0.07491 -0.05775,-0.162498 -0.04623,-0.220633 0.09079,-0.457913 -0.04264,-0.727205 -0.419881,-0.847317 -0.101033,-0.03214 -0.156864,-0.140088 -0.124722,-0.241249 0.03214,-0.101161 0.140088,-0.157248 0.241377,-0.124723 0.321665,0.102441 0.831823,0.398369 0.689942,1.233649 0.07299,0.08951 0.173254,0.235615 0.330629,0.469309 0.05929,0.08797 0.03598,0.207316 -0.05199,0.266604 -0.0329,0.02215 -0.07017,0.03278 -0.107179,0.03278"
             style="fill:#ffffff;fill-opacity:1;fill-rule:nonzero;stroke:none;stroke-width:0.12805161"
             id="path12680"
             inkscape:connector-curvature="0" />
          <path
             d="m 81.582295,42.627485 c -0.02075,0 -0.042,-0.0035 -0.06274,-0.01063 -0.100264,-0.0347 -0.153406,-0.144059 -0.118832,-0.244323 0.157504,-0.455224 0.659338,-0.514768 0.931319,-0.478401 0.105259,0.01409 0.179016,0.110765 0.164931,0.215895 -0.01408,0.105002 -0.110637,0.179272 -0.215127,0.164931 -0.0072,-7.58e-4 -0.424107,-0.04879 -0.517968,0.223194 -0.02753,0.07939 -0.10193,0.129332 -0.181578,0.129332"
             style="fill:#ffffff;fill-opacity:1;fill-rule:nonzero;stroke:none;stroke-width:0.12805161"
             id="path12682"
             inkscape:connector-curvature="0" />
          <path
             d="m 82.189285,43.66177 c -0.296824,0 -0.564196,-0.06518 -0.737833,-0.18798 -0.08656,-0.06121 -0.107179,-0.181065 -0.04584,-0.267755 0.06108,-0.08656 0.18145,-0.107052 0.267756,-0.04584 0.138168,0.09783 0.472767,0.164035 0.880739,0.07914 0.393503,-0.08208 0.710174,-0.279538 0.868702,-0.541787 0.05493,-0.09092 0.17287,-0.1196 0.263658,-0.06505 0.09079,0.05493 0.119857,0.172998 0.06492,0.263786 -0.292214,0.483523 -0.826445,0.658057 -1.118787,0.71901 -0.14982,0.03124 -0.300025,0.04649 -0.443315,0.04649"
             style="fill:#ffffff;fill-opacity:1;fill-rule:nonzero;stroke:none;stroke-width:0.12805161"
             id="path12684"
             inkscape:connector-curvature="0" />
          <path
             d="m 0,0 h -16.275 c -1.105,0 -2,0.896 -2,2 0,1.104 0.895,2 2,2 H 0 C 1.104,4 2,3.104 2,2 2,0.896 1.104,0 0,0"
             style="fill:#ffffff;fill-opacity:1;fill-rule:nonzero;stroke:none"
             id="path12686"
             inkscape:connector-curvature="0"
             transform="matrix(0.12805161,0,0,-0.12805161,81.852523,45.244736)" />
          <path
             d="m 81.563343,46.166729 h -1.505759 c -0.141369,0 -0.256103,-0.114735 -0.256103,-0.256104 0,-0.141368 0.114734,-0.256103 0.256103,-0.256103 h 1.505759 c 0.141369,0 0.256103,0.114735 0.256103,0.256103 0,0.141369 -0.114734,0.256104 -0.256103,0.256104"
             style="fill:#ffffff;fill-opacity:1;fill-rule:nonzero;stroke:none;stroke-width:0.12805161"
             id="path12688"
             inkscape:connector-curvature="0" />
        </g>
      </g>
      <path
         d="m 95.390227,42.257518 c -0.444851,0 -0.755377,-0.310653 -0.755377,-0.755504 0,-0.433967 0.32474,-0.761267 0.755377,-0.761267 0.427435,0 0.749745,0.3273 0.749745,0.761267 0,0.437808 -0.315264,0.755504 -0.749745,0.755504 m 0.0057,-2.258702 c -0.994576,0 -1.716403,0.632191 -1.716403,1.503198 0,0.881763 0.70582,1.497435 1.716403,1.497435 0.98459,0 1.699118,-0.629758 1.699118,-1.497435 0,-0.856921 -0.730406,-1.503198 -1.699118,-1.503198"
         style="opacity:0.6;fill:#ffffff;fill-opacity:1;fill-rule:nonzero;stroke:none;stroke-width:0.12805161"
         id="path12694"
         inkscape:connector-curvature="0" />
      <path
         d="m 99.562165,39.998803 c -0.54038,0 -0.84745,0.478017 -0.850392,0.482883 l -0.01881,0.02984 H 98.58204 v -0.426287 h -0.891877 v 2.827891 h 0.891877 v -1.491801 c 0,-0.140088 0.113451,-0.663179 0.668939,-0.663179 0.244839,0 0.417452,0.07862 0.505297,0.130997 l 0.367764,-0.745516 c -0.089,-0.04904 -0.296954,-0.144827 -0.561894,-0.144827"
         style="opacity:0.6;fill:#ffffff;fill-opacity:1;fill-rule:nonzero;stroke:none;stroke-width:0.12805161"
         id="path12696"
         inkscape:connector-curvature="0" />
      <path
         d="m 101.4515,38.085724 h -0.89188 v 4.82729 h 0.89188 z"
         style="opacity:0.6;fill:#ffffff;fill-opacity:1;fill-rule:nonzero;stroke:none;stroke-width:0.12805161"
         id="path12698"
         inkscape:connector-curvature="0" />
      <path
         d="m 104.51829,41.502027 c 0,0.437808 -0.31527,0.755504 -0.74962,0.755504 -0.44498,0 -0.75563,-0.310653 -0.75563,-0.755504 0,-0.433967 0.32487,-0.761267 0.75563,-0.761267 0.42731,0 0.74962,0.3273 0.74962,0.761267 m -1.05502,-1.503198 c -0.80122,0 -1.40537,0.646149 -1.40537,1.503198 0,0.853719 0.60415,1.497435 1.40537,1.497435 0.35521,0 0.69084,-0.145595 0.92056,-0.399521 l 0.0189,-0.021 h 0.10397 v 0.334214 h 0.88037 v -4.827413 h -0.89189 v 2.217854 0.151997 l -0.10871,-0.106286 c -0.23484,-0.229341 -0.55408,-0.350478 -0.92324,-0.350478"
         style="opacity:0.6;fill:#ffffff;fill-opacity:1;fill-rule:nonzero;stroke:none;stroke-width:0.12805161"
         id="path12700"
         inkscape:connector-curvature="0" />
      <path
         d="m 107.90215,40.740786 c 0.43077,0 0.75551,0.3273 0.75551,0.761267 0,0.444851 -0.31065,0.755504 -0.75551,0.755504 -0.43435,0 -0.74961,-0.317824 -0.74961,-0.755504 0,-0.433967 0.32217,-0.761267 0.74961,-0.761267 m -0.61797,-0.391454 -0.10872,0.106283 V 40.30349 38.085764 h -0.89188 v 4.827289 h 0.88036 v -0.334215 h 0.10397 l 0.0191,0.02113 c 0.22972,0.253926 0.56522,0.399521 0.92056,0.399521 0.8011,0 1.40524,-0.643716 1.40524,-1.497435 0,-0.85705 -0.60414,-1.503198 -1.40524,-1.503198 -0.36917,0 -0.6884,0.121136 -0.92338,0.350477"
         style="fill:#ffffff;fill-opacity:1;fill-rule:nonzero;stroke:none;stroke-width:0.12805161"
         id="path12702"
         inkscape:connector-curvature="0" />
      <path
         d="m 112.07659,39.998803 c -0.54038,0 -0.84745,0.478017 -0.8504,0.482883 l -0.0188,0.02984 h -0.0468 -0.064 v -0.426287 h -0.89188 v 2.827891 h 0.89188 v -1.491801 c 0,-0.140088 0.11345,-0.663179 0.66894,-0.663179 0.24483,0 0.41745,0.07862 0.50529,0.130997 l 0.36777,-0.745516 c -0.089,-0.04904 -0.29696,-0.144827 -0.5619,-0.144827"
         style="fill:#ffffff;fill-opacity:1;fill-rule:nonzero;stroke:none;stroke-width:0.12805161"
         id="path12704"
         inkscape:connector-curvature="0" />
      <path
         d="m 115.27512,41.502027 c 0,0.437808 -0.31526,0.755504 -0.74961,0.755504 -0.44498,0 -0.75564,-0.310653 -0.75564,-0.755504 0,-0.433967 0.32487,-0.761267 0.75564,-0.761267 0.42731,0 0.74961,0.3273 0.74961,0.761267 m -1.05501,-1.503198 c -0.80123,0 -1.40537,0.646149 -1.40537,1.503198 0,0.853719 0.60414,1.497435 1.40537,1.497435 0.35521,0 0.69083,-0.145595 0.92055,-0.399521 l 0.0189,-0.021 h 0.10399 v 0.334214 h 0.88035 v -2.827887 h -0.89188 v 0.218328 0.151997 l -0.10871,-0.106282 c -0.23485,-0.229341 -0.55408,-0.350478 -0.92325,-0.350478"
         style="fill:#ffffff;fill-opacity:1;fill-rule:nonzero;stroke:none;stroke-width:0.12805161"
         id="path12706"
         inkscape:connector-curvature="0" />
      <path
         d="m 117.424,38.258595 c -0.29824,0 -0.54102,0.242657 -0.54102,0.541017 0,0.298361 0.24278,0.541019 0.54102,0.541019 0.29823,0 0.54101,-0.242658 0.54101,-0.541019 0,-0.29836 -0.24278,-0.541017 -0.54101,-0.541017"
         style="fill:#ffffff;fill-opacity:1;fill-rule:nonzero;stroke:none;stroke-width:0.12805161"
         id="path12708"
         inkscape:connector-curvature="0" />
      <path
         d="m 117.85556,40.08525 h -0.89188 v 2.827892 h 0.89188 z"
         style="fill:#ffffff;fill-opacity:1;fill-rule:nonzero;stroke:none;stroke-width:0.12805161"
         id="path12710"
         inkscape:connector-curvature="0" />
      <path
         d="m 120.51823,39.998803 c -0.34958,0 -0.62886,0.206036 -0.80173,0.378777 l -0.0187,0.01869 h -0.10205 v -0.311034 h -0.89188 v 2.827891 h 0.89188 v -1.607048 c 0,-0.329092 0.32512,-0.640257 0.66907,-0.640257 0.37186,0 0.59403,0.325635 0.59403,0.640257 v 1.607048 h 0.89188 v -1.883639 c 0,-0.81364 -0.77472,-1.030688 -1.2325,-1.030688"
         style="fill:#ffffff;fill-opacity:1;fill-rule:nonzero;stroke:none;stroke-width:0.12805161"
         id="path12712"
         inkscape:connector-curvature="0" />
      <path
         d="m 89.797291,42.933925 -1.584638,-2.955943 h 1.047462 l 0.720291,1.596036 0.708637,-1.596036 h 0.447028 l 0.708638,1.596036 0.72029,-1.596036 h 1.047334 l -1.58451,2.955943 h -0.435376 l -0.679954,-1.526886 -0.679825,1.526886 z"
         style="opacity:0.6;fill:#ffffff;fill-opacity:1;fill-rule:nonzero;stroke:none;stroke-width:0.12805161"
         id="path12714"
         inkscape:connector-curvature="0" />
    </g>
  </g>
</svg>
