<?xml version="1.0" encoding="UTF-8" standalone="no"?>
<!-- Created with Inkscape (http://www.inkscape.org/) -->

<svg
   xmlns:dc="http://purl.org/dc/elements/1.1/"
   xmlns:cc="http://creativecommons.org/ns#"
   xmlns:rdf="http://www.w3.org/1999/02/22-rdf-syntax-ns#"
   xmlns:svg="http://www.w3.org/2000/svg"
   xmlns="http://www.w3.org/2000/svg"
   xmlns:sodipodi="http://sodipodi.sourceforge.net/DTD/sodipodi-0.dtd"
   xmlns:inkscape="http://www.inkscape.org/namespaces/inkscape"
   width="99.778053mm"
   height="23.959404mm"
   viewBox="0 0 99.778054 23.959404"
   version="1.1"
   id="svg8"
   sodipodi:docname="horizontal black.svg"
   inkscape:export-filename="/home/anxhelo/Documents/ura works folder/WorldBrain/horizontal color.png"
   inkscape:export-xdpi="141.06"
   inkscape:export-ydpi="141.06"
   inkscape:version="0.92.1 r">
  <defs
     id="defs2" />
  <sodipodi:namedview
     id="base"
     pagecolor="#ffffff"
     bordercolor="#666666"
     borderopacity="1.0"
     inkscape:pageopacity="0.0"
     inkscape:pageshadow="2"
     inkscape:zoom="1.4"
     inkscape:cx="166.73957"
     inkscape:cy="56.806877"
     inkscape:document-units="mm"
     inkscape:current-layer="layer1"
     showgrid="false"
     inkscape:window-width="1366"
     inkscape:window-height="740"
     inkscape:window-x="0"
     inkscape:window-y="0"
     inkscape:window-maximized="1"
     fit-margin-top="0"
     fit-margin-left="0"
     fit-margin-right="0"
     fit-margin-bottom="0" />
  <metadata
     id="metadata5">
    <rdf:RDF>
      <cc:Work
         rdf:about="">
        <dc:format>image/svg+xml</dc:format>
        <dc:type
           rdf:resource="http://purl.org/dc/dcmitype/StillImage" />
        <dc:title></dc:title>
      </cc:Work>
    </rdf:RDF>
  </metadata>
  <g
     inkscape:label="Layer 1"
     inkscape:groupmode="layer"
     id="layer1"
     transform="translate(-59.427278,-159.53151)">
    <g
       id="g4792">
      <g
         style="fill:#000000"
         id="g10750"
         transform="matrix(2.347072,0,0,2.347072,-121.68694,75.134281)">
        <path
           d="m 78.818672,38.381768 c -0.03022,0 -0.06082,-0.0072 -0.08925,-0.02215 -0.09399,-0.04943 -0.129972,-0.16557 -0.08054,-0.259432 0.02625,-0.04981 0.649861,-1.219563 1.474641,-1.166806 0.106027,0.0065 0.186444,0.0977 0.179913,0.203601 -0.0065,0.1059 -0.09924,0.18606 -0.203602,0.179785 -0.480193,-0.03278 -0.964869,0.684564 -1.111104,0.962308 -0.03431,0.06531 -0.101033,0.102697 -0.170052,0.102697"
           style="fill:#000000;fill-opacity:1;fill-rule:nonzero;stroke:none;stroke-width:0.12805161"
           id="path10712"
           inkscape:connector-curvature="0" />
        <path
           d="m 77.499267,40.606664 c -0.08221,0 -0.158272,-0.05327 -0.183626,-0.135991 -0.03099,-0.101416 0.02613,-0.208596 0.127283,-0.239712 0.04635,-0.01447 1.07653,-0.349197 0.822732,-1.337243 -0.02638,-0.102826 0.0356,-0.207572 0.138296,-0.233822 0.102954,-0.02664 0.207571,0.03547 0.23395,0.138167 0.276591,1.077683 -0.586989,1.648664 -1.08242,1.80015 -0.01869,0.0057 -0.03752,0.0085 -0.05621,0.0085"
           style="fill:#000000;fill-opacity:1;fill-rule:nonzero;stroke:none;stroke-width:0.12805161"
           id="path10714"
           inkscape:connector-curvature="0" />
        <path
           d="m 79.562102,39.273827 c -0.01203,0 -0.02407,-0.0011 -0.03624,-0.0035 -0.104363,-0.01998 -0.172615,-0.120496 -0.152767,-0.22473 0.266475,-1.394098 1.421757,-1.408183 1.438148,-1.408183 h 1.24e-4 c 0.106027,3.84e-4 0.191694,0.08682 0.191182,0.192845 -5.09e-4,0.105771 -0.08631,0.191181 -0.191822,0.191309 -0.03713,3.85e-4 -0.854872,0.02164 -1.060139,1.096122 -0.01767,0.09207 -0.09822,0.156095 -0.188492,0.156095"
           style="fill:#000000;fill-opacity:1;fill-rule:nonzero;stroke:none;stroke-width:0.12805161"
           id="path10716"
           inkscape:connector-curvature="0" />
        <path
           d="m 77.843405,41.867114 c -0.03585,0 -0.07197,-0.01 -0.104233,-0.03086 -0.08912,-0.05775 -0.114478,-0.176711 -0.05685,-0.265707 0.125874,-0.193998 1.257723,-1.895803 2.271123,-1.897596 h 2.59e-4 c 0.106027,0 0.191949,0.0858 0.192078,0.191693 2.59e-4,0.106027 -0.08554,0.192206 -0.191693,0.192461 -0.684308,0.0013 -1.639189,1.243765 -1.94933,1.722422 -0.03675,0.05673 -0.09847,0.08759 -0.161345,0.08759"
           style="fill:#000000;fill-opacity:1;fill-rule:nonzero;stroke:none;stroke-width:0.12805161"
           id="path10718"
           inkscape:connector-curvature="0" />
        <path
           d="m 78.964741,42.788804 c -0.03701,0 -0.07427,-0.01063 -0.107179,-0.03278 -0.08797,-0.05929 -0.111277,-0.178631 -0.05199,-0.266603 0.157248,-0.233566 0.257641,-0.379673 0.330501,-0.469181 -0.142009,-0.835408 0.368277,-1.131336 0.690071,-1.233777 0.101161,-0.03253 0.20898,0.02356 0.241249,0.124723 0.03214,0.101032 -0.02369,0.209108 -0.124722,0.241249 -0.377241,0.120111 -0.51067,0.389404 -0.419882,0.847317 0.01152,0.05813 0.02894,0.145722 -0.04623,0.220632 -0.0073,0.0072 -0.01498,0.0137 -0.02331,0.01972 -0.05097,0.06044 -0.20501,0.279793 -0.329093,0.463931 -0.03713,0.05506 -0.09783,0.08477 -0.159424,0.08477"
           style="fill:#000000;fill-opacity:1;fill-rule:nonzero;stroke:none;stroke-width:0.12805161"
           id="path10720"
           inkscape:connector-curvature="0" />
        <path
           d="m 80.064435,42.627485 c -0.07965,0 -0.154046,-0.04994 -0.181577,-0.129332 -0.09553,-0.276463 -0.512847,-0.223962 -0.517201,-0.223194 -0.105002,0.01306 -0.201809,-0.0598 -0.215895,-0.164931 -0.01409,-0.105129 0.05967,-0.201808 0.164931,-0.215894 0.271341,-0.0365 0.773815,0.02318 0.931319,0.4784 0.03457,0.100265 -0.01857,0.209621 -0.118832,0.244323 -0.02075,0.0072 -0.042,0.01063 -0.06274,0.01063"
           style="fill:#000000;fill-opacity:1;fill-rule:nonzero;stroke:none;stroke-width:0.12805161"
           id="path10722"
           inkscape:connector-curvature="0" />
        <path
           d="m 79.457432,43.66177 c -0.14329,0 -0.293494,-0.01524 -0.443315,-0.04649 -0.292342,-0.06095 -0.826573,-0.235487 -1.118787,-0.719009 -0.05493,-0.09079 -0.02587,-0.208853 0.06492,-0.263787 0.09079,-0.05468 0.208725,-0.02587 0.263659,0.06505 0.158528,0.26225 0.475199,0.459705 0.868701,0.541787 0.407973,0.0849 0.742573,0.01869 0.88074,-0.07914 0.08631,-0.06121 0.206547,-0.04072 0.267756,0.04584 0.06133,0.08669 0.04072,0.206547 -0.04584,0.267756 -0.173638,0.122801 -0.44101,0.187979 -0.737834,0.187979"
           style="fill:#000000;fill-opacity:1;fill-rule:nonzero;stroke:none;stroke-width:0.12805161"
           id="path10724"
           inkscape:connector-curvature="0" />
        <path
           d="m 80.041796,35.958519 c -0.239712,0 -0.482115,0.06851 -0.665228,0.18798 -0.102954,0.0671 -0.231645,0.128308 -0.367892,0.193102 -0.339977,0.161729 -0.725285,0.344971 -0.947967,0.730918 -0.147387,0.255719 -0.138295,0.48698 -0.131509,0.655881 0.002,0.05327 0.004,0.101033 0.0014,0.145979 -0.03316,0.03393 -0.101417,0.08605 -0.144954,0.119216 -0.07875,0.05993 -0.160065,0.121905 -0.226268,0.197199 -0.533975,0.606965 -0.396576,1.160403 -0.314494,1.491033 0.0178,0.07145 0.03457,0.138936 0.0397,0.18734 0.01,0.09335 -2.56e-4,0.292213 -0.0084,0.452022 -0.0077,0.152125 -0.01511,0.295671 -0.01,0.400289 0.0079,0.161345 0.07811,0.328581 0.169028,0.53039 0.02126,0.047 0.0452,0.100264 0.05365,0.124466 0.07004,0.201041 0.116783,0.616568 0.132021,0.753071 0.129204,1.149776 0.938746,1.562486 1.52996,1.863919 0.102954,0.0525 0.200145,0.102058 0.289013,0.152382 0.163906,0.09309 0.412582,0.153277 0.633599,0.153277 0.439089,0 0.749742,-0.236126 0.810695,-0.616055 0.06159,-0.384156 0.06787,-0.811592 0.06543,-1.216107 v -0.0016 c -0.0091,-1.526782 -0.003,-5.466034 0.0025,-5.65555 0.0065,-0.230109 -0.06838,-0.432431 -0.21692,-0.585196 -0.165395,-0.170222 -0.411638,-0.263956 -0.693352,-0.263956 m 0.01639,6.407574 c 0,0 -0.0041,-0.0068 -0.0095,-0.01575 0.0021,0.0036 0.0044,0.0072 0.0069,0.01139 0.0018,0.003 0.0026,0.0044 0.0026,0.0044 m 0.221897,-5.193773 v 0 c -2.58e-4,0 -3.99e-4,1.25e-4 -5.08e-4,1.25e-4 h -1.24e-4 c 2.59e-4,0 3.99e-4,-1.25e-4 6.31e-4,-1.25e-4 v 0 l 1.25e-4,-1.25e-4 -1.25e-4,1.25e-4 m -0.238299,-0.829686 c 0.275439,0 0.535383,0.130357 0.526163,0.453815 -0.0061,0.212437 -0.01139,4.191257 -0.0026,5.668972 0,-8.83e-4 0,-0.0021 0,-0.0031 -1.25e-4,-0.0347 -3.99e-4,-0.06185 -5.08e-4,-0.0849 0,-0.0032 0,-0.0064 0,-0.0096 0,0.0032 0,0.0064 0,0.0096 2.59e-4,0.03239 3.99e-4,0.06518 5.08e-4,0.0849 0,0.0013 0,0.002 0,0.0033 0,6.31e-4 0,7.58e-4 0,0.0014 0.0022,0.367892 -0.0025,0.789566 -0.0607,1.152976 -0.0356,0.222682 -0.229341,0.292727 -0.431278,0.292727 -0.173894,0 -0.353934,-0.05199 -0.443955,-0.10321 -0.619256,-0.351378 -1.501275,-0.606969 -1.626766,-1.725116 -0.03163,-0.281458 -0.07734,-0.624764 -0.151101,-0.83656 -0.04405,-0.126516 -0.194382,-0.398498 -0.201681,-0.547293 -0.0097,-0.197584 0.03982,-0.656905 0.01665,-0.874208 -0.03688,-0.34702 -0.329733,-0.80314 0.181193,-1.383982 0.12128,-0.137784 0.435262,-0.288117 0.460233,-0.480834 0.03291,-0.254823 -0.05558,-0.454455 0.08554,-0.699162 0.240224,-0.416552 0.806341,-0.542042 1.192929,-0.794304 0.121521,-0.07926 0.291189,-0.125491 0.455351,-0.125491"
           style="fill:#000000;fill-opacity:1;fill-rule:nonzero;stroke:none;stroke-width:0.12805161"
           id="path10726"
           inkscape:connector-curvature="0" />
        <path
           d="m 81.604961,35.958519 c -0.281714,0 -0.527958,0.09373 -0.693272,0.263915 -0.14854,0.152765 -0.22345,0.355087 -0.21692,0.585068 0.0055,0.189772 0.01152,4.129151 0.0025,5.655654 v 0.004 c -0.0025,0.40221 0.0039,0.829647 0.06544,1.213801 0.06095,0.379929 0.371606,0.616057 0.810695,0.616057 0.221017,0 0.469693,-0.06019 0.633599,-0.153278 0.08887,-0.05032 0.186059,-0.09988 0.289013,-0.152382 0.591214,-0.301433 1.400756,-0.714144 1.52996,-1.863919 0.01524,-0.136503 0.06198,-0.551902 0.132021,-0.752943 0.0085,-0.02433 0.03239,-0.0776 0.05366,-0.124594 0.09092,-0.20181 0.161089,-0.369045 0.169028,-0.530518 0.0051,-0.10449 -0.0023,-0.248036 -0.01,-0.400161 -0.0082,-0.159819 -0.01847,-0.358683 -0.0085,-0.452033 0.0051,-0.0484 0.0219,-0.115886 0.0397,-0.187339 0.08208,-0.33063 0.21948,-0.884068 -0.314495,-1.491033 -0.0662,-0.07529 -0.147516,-0.137271 -0.226267,-0.197199 -0.04354,-0.03316 -0.111789,-0.08528 -0.144955,-0.119217 -0.0026,-0.04495 -6.31e-4,-0.09271 0.0014,-0.145978 0.0068,-0.1689 0.01588,-0.400162 -0.131509,-0.655881 -0.222663,-0.385945 -0.60797,-0.569187 -0.947948,-0.730916 -0.136246,-0.06479 -0.26481,-0.126003 -0.367764,-0.193102 -0.183241,-0.119472 -0.425643,-0.18798 -0.665355,-0.18798 m -0.01639,6.407574 c 0,0 7.58e-4,-0.0014 0.0026,-0.0044 0.0026,-0.0042 0.0047,-0.0078 0.0069,-0.01139 -0.0054,0.009 -0.0095,0.01575 -0.0095,0.01575 m -0.22194,-5.193773 v 0 c 2.6e-4,0 3.99e-4,1.25e-4 6.32e-4,1.25e-4 h -1.26e-4 c -1.25e-4,0 -2.59e-4,-1.25e-4 -5.08e-4,-1.25e-4 v 0 l -1.25e-4,-1.25e-4 1.25e-4,1.25e-4 m 0.238295,-0.829646 c 0.164162,0 0.333958,0.04635 0.455351,0.12549 0.386588,0.252262 0.952704,0.377753 1.192929,0.794305 0.141112,0.244707 0.05263,0.444339 0.08554,0.699162 0.02497,0.192717 0.338953,0.34305 0.460218,0.480833 0.510926,0.580842 0.218072,1.036962 0.181193,1.383982 -0.02318,0.217304 0.02638,0.676625 0.01665,0.874209 -0.0073,0.148796 -0.157631,0.420777 -0.201682,0.547292 -0.07376,0.211797 -0.119471,0.555103 -0.1511,0.836561 -0.125491,1.118147 -1.00751,1.373738 -1.626767,1.725111 -0.09002,0.05122 -0.270061,0.10321 -0.443956,0.10321 -0.201809,0 -0.395679,-0.07004 -0.431277,-0.292726 -0.05827,-0.36341 -0.06287,-0.785085 -0.0607,-1.152977 0,-6.31e-4 0,-7.57e-4 0,-0.0014 0,-0.0013 0,-0.002 0,-0.0033 0,-0.01319 1.25e-4,-0.03201 2.59e-4,-0.05263 1.25e-4,-0.01549 2.6e-4,-0.02933 2.6e-4,-0.04187 0,0.01409 -1.25e-4,0.0283 -2.6e-4,0.04187 0,0.01549 -1.24e-4,0.03278 -2.59e-4,0.05263 0,8.84e-4 0,0.0021 0,0.0031 0.0088,-1.477715 0.0036,-5.456535 -0.0026,-5.668972 -0.0092,-0.323587 0.250726,-0.453815 0.526165,-0.453815"
           style="fill:#000000;fill-opacity:1;fill-rule:nonzero;stroke:none;stroke-width:0.12805161"
           id="path10728"
           inkscape:connector-curvature="0" />
        <path
           d="m 82.828173,38.381653 c -0.06889,0 -0.135607,-0.03726 -0.170053,-0.102441 -0.146875,-0.277744 -0.630654,-0.995346 -1.111232,-0.962437 -0.102953,0.0064 -0.197071,-0.07389 -0.203601,-0.179784 -0.0065,-0.105899 0.07389,-0.197072 0.179912,-0.203602 0.824908,-0.05327 1.44852,1.116994 1.47477,1.166806 0.04943,0.09386 0.01345,0.209749 -0.08042,0.259305 -0.02843,0.01498 -0.05916,0.02215 -0.08938,0.02215"
           style="fill:#000000;fill-opacity:1;fill-rule:nonzero;stroke:none;stroke-width:0.12805161"
           id="path10730"
           inkscape:connector-curvature="0" />
        <path
           d="m 84.147322,40.606664 c -0.0187,0 -0.03752,-0.0027 -0.05609,-0.0084 -0.495431,-0.151485 -1.359011,-0.722467 -1.08242,-1.80015 0.02638,-0.102697 0.130741,-0.164802 0.233951,-0.138167 0.102697,0.02625 0.164674,0.130997 0.138295,0.233822 -0.254054,0.989199 0.77881,1.323541 0.82286,1.337243 0.101033,0.0315 0.157888,0.138936 0.126771,0.240096 -0.02561,0.08247 -0.101289,0.135607 -0.183369,0.135607"
           style="fill:#000000;fill-opacity:1;fill-rule:nonzero;stroke:none;stroke-width:0.12805161"
           id="path10732"
           inkscape:connector-curvature="0" />
        <path
           d="m 82.084744,39.273827 c -0.09028,0 -0.170821,-0.06403 -0.188493,-0.156095 -0.206419,-1.080756 -1.014681,-1.096122 -1.058474,-1.096122 -0.001,-1.25e-4 -0.0011,0 -0.0015,0 -0.105642,0 -0.191565,-0.08554 -0.192077,-0.191309 -5.09e-4,-0.106027 0.08515,-0.192462 0.19118,-0.192846 h 1.25e-4 c 0.01626,0 1.171801,0.01396 1.438276,1.408184 0.01985,0.104233 -0.04841,0.204754 -0.152765,0.22473 -0.01217,0.0023 -0.02421,0.0035 -0.03624,0.0035"
           style="fill:#000000;fill-opacity:1;fill-rule:nonzero;stroke:none;stroke-width:0.12805161"
           id="path10734"
           inkscape:connector-curvature="0" />
        <path
           d="m 83.803311,41.867114 c -0.06287,0 -0.124594,-0.03086 -0.161345,-0.08759 -0.310525,-0.478657 -1.265918,-1.721141 -1.949201,-1.722422 -0.106155,-2.59e-4 -0.19195,-0.08643 -0.191693,-0.192461 1.25e-4,-0.105899 0.08605,-0.191694 0.192077,-0.191694 h 2.59e-4 c 1.013273,0.0018 2.145121,1.703598 2.270996,1.897597 0.05762,0.08899 0.03227,0.207956 -0.05673,0.265579 -0.03239,0.021 -0.06851,0.03099 -0.104362,0.03099"
           style="fill:#000000;fill-opacity:1;fill-rule:nonzero;stroke:none;stroke-width:0.12805161"
           id="path10736"
           inkscape:connector-curvature="0" />
        <path
           d="m 82.277077,42.27428 c 0.01998,0.0032 0.04239,0.0035 0.06684,-0.0014 -0.02228,0.0045 -0.04508,0.0047 -0.06684,0.0014 m 0.405027,0.514511 c -0.06159,0 -0.122289,-0.0297 -0.159424,-0.08477 -0.124082,-0.18401 -0.278,-0.403234 -0.329093,-0.463931 -0.0083,-0.0059 -0.01614,-0.01254 -0.02344,-0.01972 -0.07517,-0.07491 -0.05775,-0.162498 -0.04623,-0.220633 0.09079,-0.457913 -0.04264,-0.727205 -0.419881,-0.847317 -0.101033,-0.03214 -0.156864,-0.140088 -0.124722,-0.241249 0.03214,-0.101161 0.140088,-0.157248 0.241377,-0.124723 0.321665,0.102441 0.831823,0.398369 0.689942,1.233649 0.07299,0.08951 0.173254,0.235615 0.330629,0.469309 0.05929,0.08797 0.03598,0.207316 -0.05199,0.266604 -0.0329,0.02215 -0.07017,0.03278 -0.107179,0.03278"
           style="fill:#000000;fill-opacity:1;fill-rule:nonzero;stroke:none;stroke-width:0.12805161"
           id="path10738"
           inkscape:connector-curvature="0" />
        <path
           d="m 81.582295,42.627485 c -0.02075,0 -0.042,-0.0035 -0.06274,-0.01063 -0.100264,-0.0347 -0.153406,-0.144059 -0.118832,-0.244323 0.157504,-0.455224 0.659338,-0.514768 0.931319,-0.478401 0.105259,0.01409 0.179016,0.110765 0.164931,0.215895 -0.01408,0.105002 -0.110637,0.179272 -0.215127,0.164931 -0.0072,-7.58e-4 -0.424107,-0.04879 -0.517968,0.223194 -0.02753,0.07939 -0.10193,0.129332 -0.181578,0.129332"
           style="fill:#000000;fill-opacity:1;fill-rule:nonzero;stroke:none;stroke-width:0.12805161"
           id="path10740"
           inkscape:connector-curvature="0" />
        <path
           d="m 82.189285,43.66177 c -0.296824,0 -0.564196,-0.06518 -0.737833,-0.18798 -0.08656,-0.06121 -0.107179,-0.181065 -0.04584,-0.267755 0.06108,-0.08656 0.18145,-0.107052 0.267756,-0.04584 0.138168,0.09783 0.472767,0.164035 0.880739,0.07914 0.393503,-0.08208 0.710174,-0.279538 0.868702,-0.541787 0.05493,-0.09092 0.17287,-0.1196 0.263658,-0.06505 0.09079,0.05493 0.119857,0.172998 0.06492,0.263786 -0.292214,0.483523 -0.826445,0.658057 -1.118787,0.71901 -0.14982,0.03124 -0.300025,0.04649 -0.443315,0.04649"
           style="fill:#000000;fill-opacity:1;fill-rule:nonzero;stroke:none;stroke-width:0.12805161"
           id="path10742"
           inkscape:connector-curvature="0" />
        <g
           style="fill:#000000"
           id="g10746"
           transform="matrix(0.12805161,0,0,-0.12805161,81.852522,45.244731)">
          <path
             d="m 0,0 h -16.275 c -1.105,0 -2,0.896 -2,2 0,1.104 0.895,2 2,2 H 0 C 1.104,4 2,3.104 2,2 2,0.896 1.104,0 0,0"
             style="fill:#000000;fill-opacity:1;fill-rule:nonzero;stroke:none"
             id="path10744"
             inkscape:connector-curvature="0" />
        </g>
        <path
           d="m 81.563343,46.166729 h -1.505759 c -0.141369,0 -0.256103,-0.114735 -0.256103,-0.256104 0,-0.141368 0.114734,-0.256103 0.256103,-0.256103 h 1.505759 c 0.141369,0 0.256103,0.114735 0.256103,0.256103 0,0.141369 -0.114734,0.256104 -0.256103,0.256104"
           style="fill:#000000;fill-opacity:1;fill-rule:nonzero;stroke:none;stroke-width:0.12805161"
           id="path10748"
           inkscape:connector-curvature="0" />
      </g>
      <path
         inkscape:connector-curvature="0"
         id="path10752"
         style="opacity:0.6;fill:#000000;fill-opacity:1;fill-rule:nonzero;stroke:none;stroke-width:0.30054635"
         d="m 97.335346,174.31574 c -1.044111,0 -1.772942,-0.72914 -1.772942,-1.77322 0,-1.01858 0.762207,-1.78676 1.772942,-1.78676 1.003218,0 1.759701,0.76818 1.759701,1.78676 0,1.02755 -0.739955,1.77322 -1.759701,1.77322 m 0.01379,-5.30134 c -2.334361,0 -4.028528,1.4838 -4.028528,3.52812 0,2.06955 1.656607,3.51457 4.028528,3.51457 2.310892,0 3.987934,-1.47809 3.987934,-3.51457 0,-2.01127 -1.714303,-3.52812 -3.987934,-3.52812" />
      <path
         inkscape:connector-curvature="0"
         id="path10754"
         style="opacity:0.6;fill:#000000;fill-opacity:1;fill-rule:nonzero;stroke:none;stroke-width:0.30054635"
         d="m 107.12718,169.01436 c -1.26832,0 -1.98902,1.12194 -1.99593,1.13336 l -0.0442,0.0701 h -0.26034 v -1.00056 h -2.0933 v 6.63726 h 2.0933 v -3.50136 c 0,-0.3288 0.26628,-1.55653 1.57004,-1.55653 0.57467,0 0.9798,0.18459 1.18596,0.30747 l 0.86319,-1.74979 c -0.20895,-0.11511 -0.69697,-0.33993 -1.31882,-0.33993" />
      <path
         inkscape:connector-curvature="0"
         id="path10756"
         style="opacity:0.6;fill:#000000;fill-opacity:1;fill-rule:nonzero;stroke:none;stroke-width:0.30054635"
         d="m 111.56159,164.52421 h -2.0933 v 11.33 h 2.0933 z" />
      <path
         inkscape:connector-curvature="0"
         id="path10758"
         style="opacity:0.6;fill:#000000;fill-opacity:1;fill-rule:nonzero;stroke:none;stroke-width:0.30054635"
         d="m 118.75957,172.54254 c 0,1.02756 -0.73997,1.77321 -1.75941,1.77321 -1.04439,0 -1.77352,-0.72912 -1.77352,-1.77321 0,-1.01856 0.7625,-1.78676 1.77352,-1.78676 1.00293,0 1.75941,0.7682 1.75941,1.78676 m -2.47621,-3.52812 c -1.88051,0 -3.2985,1.51655 -3.2985,3.52812 0,2.00375 1.41799,3.51458 3.2985,3.51458 0.8337,0 1.62144,-0.34173 2.16061,-0.93769 l 0.0444,-0.0492 h 0.24402 v 0.78444 h 2.0663 v -11.33029 h -2.09333 v 5.20548 0.35674 l -0.25515,-0.24947 c -0.55119,-0.53827 -1.30046,-0.82259 -2.16691,-0.82259" />
      <path
         inkscape:connector-curvature="0"
         id="path10760"
         style="fill:#000000;fill-opacity:1;fill-rule:nonzero;stroke:none;stroke-width:0.30054635"
         d="m 126.70172,170.75585 c 1.01105,0 1.77325,0.76818 1.77325,1.78676 0,1.04408 -0.72911,1.77321 -1.77325,1.77321 -1.01944,0 -1.75938,-0.74595 -1.75938,-1.77321 0,-1.01858 0.75617,-1.78676 1.75938,-1.78676 m -1.45042,-0.91876 -0.25517,0.24944 v -0.35705 -5.20516 h -2.0933 v 11.32998 h 2.06627 v -0.78441 h 0.24402 l 0.0448,0.0497 c 0.53916,0.59599 1.32662,0.93771 2.16063,0.93771 1.88024,0 3.29817,-1.51085 3.29817,-3.51457 0,-2.01157 -1.41793,-3.52812 -3.29817,-3.52812 -0.86647,0 -1.61574,0.28429 -2.16725,0.82259" />
      <path
         inkscape:connector-curvature="0"
         id="path10762"
         style="fill:#000000;fill-opacity:1;fill-rule:nonzero;stroke:none;stroke-width:0.30054635"
         d="m 136.49945,169.01436 c -1.26832,0 -1.98904,1.12194 -1.99596,1.13336 l -0.0442,0.0701 h -0.10982 -0.1501 v -1.00056 h -2.09331 v 6.63726 h 2.09331 v -3.50136 c 0,-0.3288 0.26626,-1.55653 1.57006,-1.55653 0.57462,0 0.97977,0.18459 1.18594,0.30747 l 0.86318,-1.74979 c -0.20895,-0.11511 -0.69699,-0.33993 -1.31883,-0.33993" />
      <path
         inkscape:connector-curvature="0"
         id="path10764"
         style="fill:#000000;fill-opacity:1;fill-rule:nonzero;stroke:none;stroke-width:0.30054635"
         d="m 144.00662,172.54254 c 0,1.02756 -0.73993,1.77321 -1.75938,1.77321 -1.04441,0 -1.77353,-0.72912 -1.77353,-1.77321 0,-1.01856 0.76248,-1.78676 1.77353,-1.78676 1.00292,0 1.75938,0.7682 1.75938,1.78676 m -2.47619,-3.52812 c -1.88054,0 -3.2985,1.51655 -3.2985,3.52812 0,2.00375 1.41796,3.51458 3.2985,3.51458 0.83371,0 1.62145,-0.34173 2.16061,-0.93769 l 0.0444,-0.0492 h 0.24406 v 0.78444 h 2.06624 v -6.63726 h -2.09327 v 0.51245 0.35674 l -0.25518,-0.24945 c -0.55119,-0.53829 -1.30045,-0.82261 -2.16692,-0.82261" />
      <path
         inkscape:connector-curvature="0"
         id="path10766"
         style="fill:#000000;fill-opacity:1;fill-rule:nonzero;stroke:none;stroke-width:0.30054635"
         d="m 149.05021,164.92996 c -0.70001,0 -1.26982,0.56955 -1.26982,1.2698 0,0.70029 0.56981,1.26982 1.26982,1.26982 0.69995,0 1.26978,-0.56953 1.26978,-1.26982 0,-0.70025 -0.56983,-1.2698 -1.26978,-1.2698" />
      <path
         inkscape:connector-curvature="0"
         id="path10768"
         style="fill:#000000;fill-opacity:1;fill-rule:nonzero;stroke:none;stroke-width:0.30054635"
         d="m 150.0631,169.21726 h -2.09331 v 6.63727 h 2.09331 z" />
      <path
         inkscape:connector-curvature="0"
         id="path10770"
         style="fill:#000000;fill-opacity:1;fill-rule:nonzero;stroke:none;stroke-width:0.30054635"
         d="m 156.3126,169.01436 c -0.8205,0 -1.47598,0.48358 -1.88173,0.88901 l -0.0439,0.0439 h -0.23952 v -0.73 h -2.09333 v 6.63726 h 2.09333 v -3.77186 c 0,-0.77238 0.76307,-1.50271 1.57035,-1.50271 0.87278,0 1.39423,0.76427 1.39423,1.50271 v 3.77186 h 2.0933 v -4.42104 c 0,-1.90967 -1.81832,-2.41909 -2.89275,-2.41909" />
      <path
         inkscape:connector-curvature="0"
         id="path10772"
         style="opacity:0.6;fill:#000000;fill-opacity:1;fill-rule:nonzero;stroke:none;stroke-width:0.30054635"
         d="m 84.208318,175.90331 -3.719269,-6.93782 h 2.458465 l 1.690581,3.74601 1.663226,-3.74601 h 1.049216 l 1.663226,3.74601 1.690558,-3.74601 h 2.458166 l -3.718947,6.93782 h -1.02186 l -1.595901,-3.58372 -1.595601,3.58372 z" />
    </g>
  </g>
</svg>
