<?xml version="1.0" encoding="UTF-8" standalone="no"?>
<!-- Created with Inkscape (http://www.inkscape.org/) -->

<svg
   xmlns:dc="http://purl.org/dc/elements/1.1/"
   xmlns:cc="http://creativecommons.org/ns#"
   xmlns:rdf="http://www.w3.org/1999/02/22-rdf-syntax-ns#"
   xmlns:svg="http://www.w3.org/2000/svg"
   xmlns="http://www.w3.org/2000/svg"
   xmlns:sodipodi="http://sodipodi.sourceforge.net/DTD/sodipodi-0.dtd"
   xmlns:inkscape="http://www.inkscape.org/namespaces/inkscape"
   width="295.71408"
   height="179.33958"
   viewBox="0 0 78.241018 47.450266"
   version="1.1"
   id="svg8"
   sodipodi:docname="vertical black.svg"
   inkscape:export-filename="/home/anxhelo/Documents/ura works folder/WorldBrain/vertical color.png"
   inkscape:export-xdpi="141.06"
   inkscape:export-ydpi="141.06"
   inkscape:version="0.92.1 r">
  <defs
     id="defs2" />
  <sodipodi:namedview
     id="base"
     pagecolor="#ffffff"
     bordercolor="#666666"
     borderopacity="1.0"
     inkscape:pageopacity="0.0"
     inkscape:pageshadow="2"
     inkscape:zoom="1.4"
     inkscape:cx="137.67559"
     inkscape:cy="44.743057"
     inkscape:document-units="mm"
     inkscape:current-layer="layer1"
     showgrid="false"
     inkscape:window-width="1366"
     inkscape:window-height="740"
     inkscape:window-x="0"
     inkscape:window-y="0"
     inkscape:window-maximized="1"
     fit-margin-top="0"
     fit-margin-left="0"
     fit-margin-right="0"
     fit-margin-bottom="0"
     units="px" />
  <metadata
     id="metadata5">
    <rdf:RDF>
      <cc:Work
         rdf:about="">
        <dc:format>image/svg+xml</dc:format>
        <dc:type
           rdf:resource="http://purl.org/dc/dcmitype/StillImage" />
        <dc:title></dc:title>
      </cc:Work>
    </rdf:RDF>
  </metadata>
  <g
     inkscape:label="Layer 1"
     inkscape:groupmode="layer"
     id="layer1"
     transform="translate(-68.088714,-124.35483)">
    <g
       transform="matrix(0.29873165,0,0,-0.29873165,-184.9755,298.70182)"
       id="g13803">
      <g
         style="fill:#000000"
         transform="translate(957.7159,559.0028)"
         id="g13693">
        <path
           inkscape:connector-curvature="0"
           id="path13691"
           style="fill:#000000;fill-opacity:1;fill-rule:nonzero;stroke:none"
           d="m 0,0 c -0.307,0 -0.617,0.072 -0.907,0.226 -0.954,0.501 -1.32,1.681 -0.818,2.635 0.266,0.507 6.603,12.391 14.983,11.855 1.076,-0.066 1.895,-0.993 1.827,-2.068 C 15.019,11.572 14.078,10.757 13.017,10.821 8.138,11.154 3.213,3.865 1.728,1.043 1.379,0.379 0.701,0 0,0" />
      </g>
      <g
         style="fill:#000000"
         transform="translate(944.3102,536.397)"
         id="g13697">
        <path
           inkscape:connector-curvature="0"
           id="path13695"
           style="fill:#000000;fill-opacity:1;fill-rule:nonzero;stroke:none"
           d="m 0,0 c -0.835,0 -1.609,0.541 -1.865,1.382 -0.315,1.029 0.264,2.119 1.292,2.435 0.471,0.148 10.938,3.548 8.36,13.588 -0.268,1.044 0.361,2.108 1.406,2.375 1.045,0.271 2.107,-0.361 2.375,-1.405 C 14.379,7.427 5.604,1.624 0.572,0.086 0.381,0.028 0.189,0 0,0" />
      </g>
      <g
         style="fill:#000000"
         transform="translate(965.2694,549.9392)"
         id="g13701">
        <path
           inkscape:connector-curvature="0"
           id="path13699"
           style="fill:#000000;fill-opacity:1;fill-rule:nonzero;stroke:none"
           d="M 0,0 C -0.122,0 -0.245,0.011 -0.368,0.036 -1.428,0.238 -2.122,1.26 -1.92,2.319 0.788,16.484 12.525,16.627 12.692,16.627 h 10e-4 c 1.077,-0.005 1.948,-0.883 1.943,-1.96 C 14.63,13.593 13.759,12.725 12.687,12.723 12.309,12.72 4.001,12.503 1.915,1.586 1.736,0.651 0.917,0 0,0" />
      </g>
      <g
         style="fill:#000000"
         transform="translate(947.8068,523.5903)"
         id="g13705">
        <path
           inkscape:connector-curvature="0"
           id="path13703"
           style="fill:#000000;fill-opacity:1;fill-rule:nonzero;stroke:none"
           d="M 0,0 C -0.365,0 -0.732,0.101 -1.06,0.314 -1.964,0.9 -2.222,2.109 -1.636,3.013 -0.358,4.984 11.143,22.275 21.438,22.294 h 0.004 c 1.076,0 1.949,-0.872 1.952,-1.948 0.002,-1.078 -0.871,-1.953 -1.948,-1.955 C 14.492,18.378 4.79,5.754 1.639,0.89 1.266,0.314 0.639,0 0,0" />
      </g>
      <g
         style="fill:#000000"
         transform="translate(959.1999,514.2256)"
         id="g13709">
        <path
           inkscape:connector-curvature="0"
           id="path13707"
           style="fill:#000000;fill-opacity:1;fill-rule:nonzero;stroke:none"
           d="M 0,0 C -0.376,0 -0.755,0.108 -1.089,0.333 -1.983,0.935 -2.22,2.148 -1.617,3.042 -0.019,5.414 1,6.9 1.741,7.81 0.299,16.297 5.482,19.304 8.752,20.345 9.78,20.675 10.876,20.105 11.204,19.078 11.53,18.05 10.962,16.953 9.936,16.626 6.104,15.406 4.748,12.67 5.671,8.017 5.787,7.427 5.964,6.536 5.2,5.776 5.127,5.702 5.048,5.636 4.964,5.575 4.446,4.96 2.88,2.732 1.62,0.861 1.243,0.302 0.626,0 0,0" />
      </g>
      <g
         style="fill:#000000"
         transform="translate(970.3732,515.8647)"
         id="g13713">
        <path
           inkscape:connector-curvature="0"
           id="path13711"
           style="fill:#000000;fill-opacity:1;fill-rule:nonzero;stroke:none"
           d="M 0,0 C -0.809,0 -1.565,0.507 -1.845,1.314 -2.816,4.123 -7.055,3.589 -7.1,3.582 -8.167,3.449 -9.151,4.189 -9.293,5.257 -9.436,6.326 -8.687,7.308 -7.618,7.451 -4.861,7.822 0.245,7.216 1.845,2.59 2.197,1.571 1.657,0.46 0.638,0.108 0.427,0.035 0.211,0 0,0" />
      </g>
      <g
         style="fill:#000000"
         transform="translate(964.2059,505.3559)"
         id="g13717">
        <path
           inkscape:connector-curvature="0"
           id="path13715"
           style="fill:#000000;fill-opacity:1;fill-rule:nonzero;stroke:none"
           d="m 0,0 c -1.456,0 -2.982,0.154 -4.504,0.472 -2.971,0.619 -8.399,2.393 -11.368,7.306 -0.558,0.922 -0.263,2.122 0.66,2.679 0.922,0.557 2.121,0.263 2.679,-0.66 1.611,-2.664 4.828,-4.67 8.827,-5.504 C 0.438,3.429 3.838,4.103 5.242,5.096 6.119,5.718 7.34,5.51 7.963,4.63 8.585,3.75 8.377,2.532 7.496,1.91 5.733,0.663 3.016,0 0,0" />
      </g>
      <g
         style="fill:#000000"
         transform="translate(970.1432,583.6241)"
         id="g13721">
        <path
           inkscape:connector-curvature="0"
           id="path13719"
           style="fill:#000000;fill-opacity:1;fill-rule:nonzero;stroke:none"
           d="m 0,0 c -2.435,0 -4.899,-0.696 -6.759,-1.909 -1.047,-0.683 -2.354,-1.305 -3.737,-1.963 -3.455,-1.643 -7.371,-3.505 -9.632,-7.427 -1.498,-2.598 -1.405,-4.948 -1.337,-6.664 0.021,-0.541 0.041,-1.026 0.014,-1.483 -0.336,-0.345 -1.03,-0.873 -1.473,-1.211 -0.799,-0.609 -1.625,-1.238 -2.298,-2.004 -5.425,-6.166 -4.029,-11.789 -3.195,-15.149 0.18,-0.726 0.35,-1.411 0.403,-1.903 0.101,-0.949 -0.003,-2.97 -0.086,-4.593 -0.079,-1.545 -0.153,-3.005 -0.101,-4.067 0.08,-1.64 0.793,-3.339 1.717,-5.39 0.215,-0.477 0.459,-1.018 0.545,-1.264 0.712,-2.043 1.186,-6.264 1.342,-7.652 1.312,-11.681 9.538,-15.875 15.544,-18.937 1.046,-0.533 2.034,-1.037 2.936,-1.549 1.666,-0.946 4.193,-1.557 6.438,-1.557 4.462,0 7.618,2.399 8.237,6.259 0.626,3.904 0.69,8.246 0.666,12.356 v 0.018 C 9.13,-50.577 9.192,-10.553 9.248,-8.627 9.315,-6.289 8.553,-4.234 7.044,-2.682 5.364,-0.952 2.862,0 0,0 m 0.167,-65.103 c 0,0 -0.042,0.069 -0.097,0.16 0.023,-0.037 0.044,-0.073 0.07,-0.116 0.019,-0.031 0.027,-0.044 0.027,-0.044 m 2.254,52.771 v 0 c -0.002,-10e-4 -0.003,-0.002 -0.006,-0.002 v -0.001 c 0.002,0.001 0.004,0.002 0.006,0.003 v 0 H 2.422 2.421 M 0,-3.903 c 2.799,0 5.44,-1.324 5.346,-4.611 -0.062,-2.159 -0.116,-42.585 -0.026,-57.599 0,0.009 0,0.022 0,0.032 -0.002,0.352 -0.004,0.628 -0.005,0.861 0,0.033 0,0.065 -0.001,0.098 0.001,-0.032 0.001,-0.064 0.001,-0.098 0.002,-0.329 0.004,-0.661 0.005,-0.861 0,-0.014 0,-0.022 0,-0.035 0,-0.006 10e-4,-0.008 10e-4,-0.013 0.021,-3.739 -0.025,-8.024 -0.617,-11.716 -0.363,-2.262 -2.331,-2.973 -4.383,-2.973 -1.767,0 -3.595,0.528 -4.511,1.047 -6.291,3.571 -15.253,6.167 -16.528,17.528 -0.322,2.86 -0.785,6.349 -1.535,8.5 -0.448,1.286 -1.976,4.049 -2.05,5.561 -0.098,2.007 0.405,6.674 0.17,8.882 -0.375,3.526 -3.35,8.16 1.841,14.062 1.232,1.4 4.422,2.927 4.675,4.885 0.335,2.59 -0.564,4.618 0.87,7.105 2.441,4.232 8.192,5.507 12.12,8.069 1.235,0.806 2.959,1.276 4.627,1.276" />
      </g>
      <g
         style="fill:#000000"
         transform="translate(986.0257,583.6241)"
         id="g13725">
        <path
           inkscape:connector-curvature="0"
           id="path13723"
           style="fill:#000000;fill-opacity:1;fill-rule:nonzero;stroke:none"
           d="m 0,0 c -2.862,0 -5.364,-0.952 -7.044,-2.681 -1.509,-1.552 -2.271,-3.608 -2.204,-5.944 0.056,-1.93 0.117,-41.955 0.024,-57.464 v -0.04 c -0.024,-4.088 0.04,-8.43 0.666,-12.333 0.619,-3.861 3.775,-6.26 8.237,-6.26 2.245,0 4.772,0.611 6.437,1.557 0.903,0.512 1.891,1.016 2.937,1.549 6.006,3.062 14.232,7.256 15.544,18.937 0.156,1.387 0.63,5.609 1.342,7.651 0.086,0.247 0.33,0.788 0.545,1.265 0.924,2.051 1.637,3.75 1.717,5.391 0.052,1.061 -0.022,2.521 -0.101,4.066 -0.083,1.623 -0.187,3.644 -0.086,4.593 0.053,0.492 0.223,1.177 0.403,1.903 0.834,3.36 2.23,8.983 -3.195,15.15 -0.673,0.765 -1.499,1.394 -2.298,2.003 -0.443,0.338 -1.137,0.866 -1.473,1.211 -0.027,0.457 -0.007,0.942 0.014,1.483 0.068,1.716 0.161,4.066 -1.337,6.664 -2.261,3.922 -6.177,5.784 -9.632,7.427 C 9.113,-3.214 7.806,-2.592 6.76,-1.91 4.899,-0.696 2.435,0 0,0 m -0.167,-65.103 c 0,0 0.008,0.013 0.027,0.044 0.026,0.043 0.047,0.079 0.07,0.116 -0.055,-0.091 -0.097,-0.16 -0.097,-0.16 m -2.254,52.771 v 0 c 0.002,-10e-4 0.004,-0.002 0.006,-0.003 v 0.001 c -0.003,0 -0.004,10e-4 -0.006,0.002 v 0 h -0.001 0.001 M 0,-3.903 c 1.668,0 3.393,-0.471 4.627,-1.276 3.928,-2.562 9.679,-3.837 12.12,-8.069 1.434,-2.487 0.535,-4.515 0.87,-7.105 0.253,-1.958 3.443,-3.485 4.675,-4.885 5.191,-5.902 2.216,-10.536 1.841,-14.062 -0.235,-2.208 0.268,-6.875 0.17,-8.882 -0.074,-1.512 -1.602,-4.275 -2.05,-5.561 -0.75,-2.151 -1.213,-5.64 -1.535,-8.5 C 19.443,-73.604 10.481,-76.2 4.19,-79.771 c -0.916,-0.519 -2.744,-1.047 -4.511,-1.047 -2.051,0 -4.02,0.711 -4.383,2.973 -0.592,3.692 -0.638,7.977 -0.617,11.716 0,0.005 10e-4,0.007 10e-4,0.013 0,0.013 0,0.021 0,0.035 0.001,0.133 0.002,0.324 0.003,0.534 0.001,0.158 0.002,0.297 0.002,0.425 0,-0.142 -10e-4,-0.288 -0.002,-0.425 -10e-4,-0.158 -0.002,-0.333 -0.003,-0.534 0,-0.01 0,-0.023 0,-0.032 0.09,15.014 0.036,55.44 -0.026,57.599 -0.094,3.287 2.547,4.611 5.346,4.611" />
      </g>
      <g
         style="fill:#000000"
         transform="translate(998.4539,559.0041)"
         id="g13729">
        <path
           inkscape:connector-curvature="0"
           id="path13727"
           style="fill:#000000;fill-opacity:1;fill-rule:nonzero;stroke:none"
           d="m 0,0 c -0.7,0 -1.377,0.378 -1.728,1.041 -1.492,2.821 -6.407,10.113 -11.29,9.778 -1.046,-0.064 -2.003,0.751 -2.069,1.827 -0.067,1.076 0.751,2.002 1.827,2.069 C -4.878,15.256 1.459,3.366 1.725,2.86 2.227,1.906 1.861,0.728 0.908,0.226 0.619,0.072 0.307,0 0,0" />
      </g>
      <g
         style="fill:#000000"
         transform="translate(1011.8571,536.397)"
         id="g13733">
        <path
           inkscape:connector-curvature="0"
           id="path13731"
           style="fill:#000000;fill-opacity:1;fill-rule:nonzero;stroke:none"
           d="m 0,0 c -0.189,0 -0.381,0.028 -0.57,0.086 -5.033,1.538 -13.808,7.341 -10.997,18.289 0.268,1.044 1.328,1.676 2.376,1.405 1.044,-0.267 1.673,-1.331 1.405,-2.375 C -10.367,7.353 0.127,3.956 0.576,3.817 1.602,3.497 2.179,2.405 1.863,1.377 1.603,0.539 0.833,0 0,0" />
      </g>
      <g
         style="fill:#000000"
         transform="translate(990.9005,549.9392)"
         id="g13737">
        <path
           inkscape:connector-curvature="0"
           id="path13735"
           style="fill:#000000;fill-opacity:1;fill-rule:nonzero;stroke:none"
           d="m 0,0 c -0.917,0 -1.736,0.651 -1.915,1.586 -2.097,10.981 -10.309,11.137 -10.755,11.137 -0.01,10e-4 -0.012,0 -0.015,0 -1.074,0 -1.947,0.869 -1.952,1.944 -0.005,1.077 0.865,1.955 1.943,1.96 h 0.001 c 0.165,0 11.905,-0.143 14.613,-14.308 C 2.122,1.26 1.428,0.238 0.368,0.036 0.245,0.011 0.122,0 0,0" />
      </g>
      <g
         style="fill:#000000"
         transform="translate(1008.3618,523.5903)"
         id="g13741">
        <path
           inkscape:connector-curvature="0"
           id="path13739"
           style="fill:#000000;fill-opacity:1;fill-rule:nonzero;stroke:none"
           d="m 0,0 c -0.639,0 -1.265,0.314 -1.639,0.89 -3.155,4.863 -12.863,17.488 -19.806,17.501 -1.077,0.002 -1.95,0.877 -1.947,1.955 0.002,1.076 0.875,1.948 1.951,1.948 h 0.004 C -11.143,22.275 0.358,4.984 1.636,3.013 2.222,2.109 1.964,0.901 1.061,0.314 0.732,0.102 0.365,0 0,0" />
      </g>
      <g
         style="fill:#000000"
         transform="translate(992.8546,519.4534)"
         id="g13745">
        <path
           inkscape:connector-curvature="0"
           id="path13743"
           style="fill:#000000;fill-opacity:1;fill-rule:nonzero;stroke:none"
           d="M 0,0 C 0.203,-0.032 0.431,-0.035 0.68,0.014 0.452,-0.031 0.221,-0.034 0,0 m 4.115,-5.228 c -0.626,0 -1.242,0.302 -1.62,0.862 -1.26,1.869 -2.824,4.097 -3.344,4.713 -0.084,0.06 -0.164,0.128 -0.237,0.201 -0.764,0.761 -0.587,1.651 -0.47,2.241 0.922,4.653 -0.434,7.389 -4.266,8.609 -1.026,0.327 -1.594,1.425 -1.268,2.452 0.327,1.027 1.423,1.597 2.452,1.267 3.27,-1.04 8.452,-4.047 7.011,-12.534 0.741,-0.91 1.76,-2.395 3.36,-4.769 C 6.335,-3.08 6.099,-4.293 5.204,-4.895 4.87,-5.12 4.491,-5.228 4.115,-5.228" />
      </g>
      <g
         style="fill:#000000"
         transform="translate(985.7953,515.8647)"
         id="g13749">
        <path
           inkscape:connector-curvature="0"
           id="path13747"
           style="fill:#000000;fill-opacity:1;fill-rule:nonzero;stroke:none"
           d="m 0,0 c -0.211,0 -0.427,0.035 -0.638,0.108 -1.019,0.352 -1.559,1.463 -1.207,2.482 1.6,4.626 6.7,5.231 9.463,4.861 C 8.687,7.308 9.436,6.326 9.293,5.257 9.151,4.191 8.17,3.436 7.108,3.582 7.035,3.59 2.799,4.077 1.845,1.314 1.565,0.507 0.809,0 0,0" />
      </g>
      <g
         style="fill:#000000"
         transform="translate(991.9626,505.3559)"
         id="g13753">
        <path
           inkscape:connector-curvature="0"
           id="path13751"
           style="fill:#000000;fill-opacity:1;fill-rule:nonzero;stroke:none"
           d="m 0,0 c -3.016,0 -5.733,0.663 -7.496,1.91 -0.881,0.622 -1.089,1.84 -0.467,2.72 0.622,0.88 1.844,1.088 2.721,0.466 1.404,-0.993 4.804,-1.667 8.948,-0.803 3.999,0.834 7.216,2.84 8.827,5.504 0.558,0.924 1.757,1.215 2.679,0.66 C 16.135,9.9 16.43,8.7 15.872,7.778 12.903,2.865 7.475,1.091 4.504,0.472 2.982,0.154 1.456,0 0,0" />
      </g>
      <g
         style="fill:#000000"
         transform="translate(988.541,489.2725)"
         id="g13757">
        <path
           inkscape:connector-curvature="0"
           id="path13755"
           style="fill:#000000;fill-opacity:1;fill-rule:nonzero;stroke:none"
           d="m 0,0 h -21.175 c -1.437,0 -2.602,1.165 -2.602,2.602 0,1.437 1.165,2.602 2.602,2.602 H 0 C 1.437,5.204 2.602,4.039 2.602,2.602 2.602,1.165 1.437,0 0,0" />
      </g>
      <g
         style="fill:#000000"
         transform="translate(985.6028,479.9045)"
         id="g13761">
        <path
           inkscape:connector-curvature="0"
           id="path13759"
           style="fill:#000000;fill-opacity:1;fill-rule:nonzero;stroke:none"
           d="m 0,0 h -15.299 c -1.437,0 -2.602,1.165 -2.602,2.602 0,1.437 1.165,2.602 2.602,2.602 H 0 C 1.437,5.204 2.602,4.039 2.602,2.602 2.602,1.165 1.437,0 0,0" />
      </g>
      <g
         style="opacity:0.6;fill:#000000"
         transform="translate(903.1812,430.5793)"
         id="g13765">
        <path
           inkscape:connector-curvature="0"
           id="path13763"
           style="fill:#000000;fill-opacity:1;fill-rule:nonzero;stroke:none"
           d="m 0,0 c -3.474,0 -5.899,2.426 -5.899,5.9 0,3.389 2.536,5.945 5.899,5.945 3.338,0 5.855,-2.556 5.855,-5.945 C 5.855,2.481 3.393,0 0,0 m 0.045,17.639 c -7.767,0 -13.404,-4.937 -13.404,-11.739 0,-6.886 5.512,-11.694 13.404,-11.694 7.689,0 13.269,4.918 13.269,11.694 0,6.692 -5.704,11.739 -13.269,11.739" />
      </g>
      <g
         style="opacity:0.6;fill:#000000"
         transform="translate(935.7612,448.2184)"
         id="g13769">
        <path
           inkscape:connector-curvature="0"
           id="path13767"
           style="fill:#000000;fill-opacity:1;fill-rule:nonzero;stroke:none"
           d="m 0,0 c -4.22,0 -6.618,-3.733 -6.641,-3.771 l -0.147,-0.233 h -0.866 v 3.329 h -6.965 v -22.084 h 6.965 v 11.65 c 0,1.094 0.886,5.179 5.224,5.179 1.912,0 3.26,-0.614 3.946,-1.023 l 2.872,5.822 C 3.693,-0.748 2.069,0 0,0" />
      </g>
      <path
         inkscape:connector-curvature="0"
         id="path13771"
         style="opacity:0.6;fill:#000000;fill-opacity:1;fill-rule:nonzero;stroke:none"
         d="m 950.516,463.158 h -6.965 V 425.46 h 6.965 z" />
      <g
         style="opacity:0.6;fill:#000000"
         transform="translate(974.4653,436.4792)"
         id="g13775">
        <path
           inkscape:connector-curvature="0"
           id="path13773"
           style="fill:#000000;fill-opacity:1;fill-rule:nonzero;stroke:none"
           d="m 0,0 c 0,-3.419 -2.462,-5.9 -5.854,-5.9 -3.475,0 -5.901,2.426 -5.901,5.9 0,3.389 2.537,5.945 5.901,5.945 C -2.517,5.945 0,3.389 0,0 m -8.239,11.739 c -6.257,0 -10.975,-5.046 -10.975,-11.739 0,-6.667 4.718,-11.694 10.975,-11.694 2.774,0 5.395,1.137 7.189,3.12 l 0.148,0.164 h 0.812 v -2.61 H 6.785 V 26.679 H -0.18 V 9.359 8.172 l -0.849,0.83 c -1.834,1.791 -4.327,2.737 -7.21,2.737" />
      </g>
      <g
         style="fill:#000000"
         transform="translate(1000.8911,442.424)"
         id="g13779">
        <path
           inkscape:connector-curvature="0"
           id="path13777"
           style="fill:#000000;fill-opacity:1;fill-rule:nonzero;stroke:none"
           d="m 0,0 c 3.364,0 5.9,-2.556 5.9,-5.945 0,-3.474 -2.426,-5.9 -5.9,-5.9 -3.392,0 -5.854,2.482 -5.854,5.9 C -5.854,-2.556 -3.338,0 0,0 m -4.826,3.057 -0.849,-0.83 v 1.188 17.319 h -6.965 v -37.698 h 6.875 v 2.61 h 0.812 l 0.149,-0.165 c 1.794,-1.983 4.414,-3.12 7.189,-3.12 6.256,0 10.974,5.027 10.974,11.694 0,6.693 -4.718,11.739 -10.974,11.739 -2.883,0 -5.376,-0.946 -7.211,-2.737" />
      </g>
      <g
         style="fill:#000000"
         transform="translate(1033.4907,448.2184)"
         id="g13783">
        <path
           inkscape:connector-curvature="0"
           id="path13781"
           style="fill:#000000;fill-opacity:1;fill-rule:nonzero;stroke:none"
           d="m 0,0 c -4.22,0 -6.618,-3.733 -6.641,-3.771 l -0.147,-0.233 h -0.366 -0.5 v 3.329 h -6.965 v -22.084 h 6.965 v 11.65 c 0,1.094 0.886,5.179 5.224,5.179 1.912,0 3.26,-0.614 3.946,-1.023 l 2.872,5.822 C 3.693,-0.748 2.069,0 0,0" />
      </g>
      <g
         style="fill:#000000"
         transform="translate(1058.4692,436.4792)"
         id="g13787">
        <path
           inkscape:connector-curvature="0"
           id="path13785"
           style="fill:#000000;fill-opacity:1;fill-rule:nonzero;stroke:none"
           d="m 0,0 c 0,-3.419 -2.462,-5.9 -5.854,-5.9 -3.474,0 -5.901,2.426 -5.901,5.9 0,3.389 2.537,5.945 5.901,5.945 C -2.517,5.945 0,3.389 0,0 m -8.239,11.739 c -6.257,0 -10.975,-5.046 -10.975,-11.739 0,-6.667 4.718,-11.694 10.975,-11.694 2.775,0 5.395,1.137 7.189,3.12 l 0.148,0.164 h 0.812 v -2.61 H 6.785 V 11.064 H -0.18 V 9.359 8.172 l -0.849,0.83 c -1.834,1.791 -4.327,2.737 -7.21,2.737" />
      </g>
      <g
         style="fill:#000000"
         transform="translate(1075.2505,461.8083)"
         id="g13791">
        <path
           inkscape:connector-curvature="0"
           id="path13789"
           style="fill:#000000;fill-opacity:1;fill-rule:nonzero;stroke:none"
           d="m 0,0 c -2.329,0 -4.225,-1.895 -4.225,-4.225 0,-2.33 1.896,-4.225 4.225,-4.225 2.329,0 4.225,1.895 4.225,4.225 C 4.225,-1.895 2.329,0 0,0" />
      </g>
      <path
         inkscape:connector-curvature="0"
         id="path13793"
         style="fill:#000000;fill-opacity:1;fill-rule:nonzero;stroke:none"
         d="m 1078.621,447.544 h -6.965 V 425.46 h 6.965 z" />
      <g
         style="fill:#000000"
         transform="translate(1099.4146,448.2184)"
         id="g13797">
        <path
           inkscape:connector-curvature="0"
           id="path13795"
           style="fill:#000000;fill-opacity:1;fill-rule:nonzero;stroke:none"
           d="m 0,0 c -2.73,0 -4.911,-1.609 -6.261,-2.958 l -0.146,-0.146 h -0.797 v 2.429 h -6.965 v -22.084 h 6.965 v 12.55 c 0,2.57 2.539,5 5.225,5 2.904,0 4.639,-2.543 4.639,-5 v -12.55 h 6.965 v 14.71 C 9.625,-1.695 3.575,0 0,0" />
      </g>
      <g
         style="opacity:0.6;fill:#000000"
         transform="translate(859.5039,425.2971)"
         id="g13801">
        <path
           inkscape:connector-curvature="0"
           id="path13799"
           style="fill:#000000;fill-opacity:1;fill-rule:nonzero;stroke:none"
           d="m 0,0 -12.375,23.084 h 8.18 L 1.43,10.62 6.964,23.084 h 3.491 l 5.534,-12.464 5.625,12.464 h 8.179 L 17.419,0 h -3.4 L 8.709,11.924 3.4,0 Z" />
      </g>
    </g>
  </g>
</svg>
