<svg xmlns="http://www.w3.org/2000/svg" width="144" height="144" fill="none" xmlns:v="https://vecta.io/nano"><g filter="url(#B)"><rect x="15" y="5" width="114" height="114" rx="8" fill="#fff"/></g><g filter="url(#C)"><mask id="A" mask-type="alpha" maskUnits="userSpaceOnUse" x="15" y="4" width="114" height="115"><rect x="15" y="4.673" width="113.867" height="113.867" rx="8" fill="#fff"/></mask><g mask="url(#A)"><path d="M86.303 122.98a.5.5 0 0 0 .472-.666l-4.94-14.037c-.075-.213-.113-.437-.113-.664v-84.94c1.583-1.107 2.612-2.926 2.612-5.02 0-3.36-2.73-6.09-6.094-6.09s-6.094 2.728-6.094 6.09a6.14 6.14 0 0 0 2.612 5.021v85.01a2 2 0 0 0 .073.536l3.86 13.883a1.2 1.2 0 0 0 1.156.879h6.456z" fill="#005b94"/><path d="M107.83 122.98a.4.4 0 0 0 .302-.662l-12.318-14.22a.5.5 0 0 1-.122-.327V52.22c1.583-1.107 2.612-2.926 2.612-5.02-.04-3.36-2.77-6.09-6.134-6.09s-6.094 2.728-6.094 6.09a6.14 6.14 0 0 0 2.612 5.021v55.434a1 1 0 0 0 .17.557l9.318 13.885a2 2 0 0 0 1.661.886h7.994z" fill="#009edb"/><path d="M123.333 122.98a3 3 0 0 1-1.818-.613l-18.528-14.105a1 1 0 0 1-.394-.796V34.55C101 33.484 99.98 31.626 99.98 29.57c0-3.36 2.73-6.09 6.095-6.09s6.094 2.728 6.094 6.09c0 2.056-1.03 3.875-2.612 4.982v73.15a.5.5 0 0 0 .215.411l20.63 14.323a.3.3 0 0 1-.171.546h-6.9z" fill="#2a854e"/><path d="M34.68 122.98a.4.4 0 0 1-.302-.662l12.318-14.22a.5.5 0 0 0 .122-.328V35.413c-1.583-1.107-2.612-2.926-2.612-5.02.04-3.36 2.77-6.09 6.134-6.09s6.094 2.728 6.094 6.09a6.14 6.14 0 0 1-2.612 5.021v72.24a1 1 0 0 1-.17.558l-9.318 13.885a2 2 0 0 1-1.661.886H34.68z" fill="#f37021"/><path d="M56.205 122.98a.5.5 0 0 1-.472-.666l4.94-14.037c.075-.213.113-.437.113-.664V71.812c-1.583-1.107-2.612-2.926-2.612-5.02 0-3.36 2.73-6.09 6.094-6.09s6.094 2.728 6.094 6.09a6.14 6.14 0 0 1-2.612 5.021v35.87a2 2 0 0 1-.073.536l-3.86 13.883a1.2 1.2 0 0 1-1.156.879h-6.456z" fill="#b82837"/><path d="M19.176 122.98a3 3 0 0 0 1.817-.613l18.528-14.105a1 1 0 0 0 .394-.795v-51.42c1.583-1.068 2.612-2.926 2.612-4.982 0-3.36-2.73-6.09-6.095-6.09s-6.094 2.728-6.094 6.09c0 2.056 1.03 3.875 2.612 4.982V107.7a.5.5 0 0 1-.215.41l-20.63 14.323a.3.3 0 0 0 .171.546h6.9z" fill="#f3c937"/></g></g><defs><filter id="B" x="0" y="0" width="144" height="144" filterUnits="userSpaceOnUse" color-interpolation-filters="sRGB"><feFlood flood-opacity="0" result="A"/><feColorMatrix in="SourceAlpha" values="0 0 0 0 0 0 0 0 0 0 0 0 0 0 0 0 0 0 127 0"/><feOffset dy="4"/><feGaussianBlur stdDeviation="3"/><feColorMatrix values="0 0 0 0 0 0 0 0 0 0 0 0 0 0 0 0 0 0 0.05 0"/><feBlend in2="A" result="B"/><feColorMatrix in="SourceAlpha" values="0 0 0 0 0 0 0 0 0 0 0 0 0 0 0 0 0 0 127 0"/><feOffset dy="10"/><feGaussianBlur stdDeviation="7.5"/><feColorMatrix values="0 0 0 0 0 0 0 0 0 0 0 0 0 0 0 0 0 0 0.1 0"/><feBlend in2="B"/><feBlend in="SourceGraphic"/></filter><filter id="C" x="0" y="6.564" width="143.867" height="136.975" filterUnits="userSpaceOnUse" color-interpolation-filters="sRGB"><feFlood flood-opacity="0" result="A"/><feColorMatrix in="SourceAlpha" values="0 0 0 0 0 0 0 0 0 0 0 0 0 0 0 0 0 0 127 0"/><feOffset dy="4"/><feGaussianBlur stdDeviation="3"/><feColorMatrix values="0 0 0 0 0 0 0 0 0 0 0 0 0 0 0 0 0 0 0.05 0"/><feBlend in2="A" result="B"/><feColorMatrix in="SourceAlpha" values="0 0 0 0 0 0 0 0 0 0 0 0 0 0 0 0 0 0 127 0"/><feOffset dy="10"/><feGaussianBlur stdDeviation="7.5"/><feColorMatrix values="0 0 0 0 0 0 0 0 0 0 0 0 0 0 0 0 0 0 0.1 0"/><feBlend in2="B"/><feBlend in="SourceGraphic"/></filter></defs></svg>