<svg xmlns="http://www.w3.org/2000/svg" width="365" height="79" fill="#234e52" xmlns:v="https://vecta.io/nano"><path d="M354.76 58.126h-3.182c-.57 0-.853-.285-.853-.854V46.27l-9.312-19.287c-.13-.26-.13-.492 0-.647s.3-.26.543-.26h3.983c.414 0 .75.285.983.854l6.13 13.695h.3L359.4 26.93c.207-.57.544-.854.983-.854h3.984c.258 0 .465.078.57.26.103.155.103.388-.026.647L355.6 46.27v11c.026.57-.258.854-.827.854zm-23.434 0h-3.13c-.595 0-.905-.285-.905-.854V30.814c0-.337-.156-.492-.492-.492h-6.26c-.595 0-.906-.285-.906-.854V26.93c0-.57.3-.854.906-.854h18.468c.594 0 .905.285.905.854v2.537c0 .57-.3.854-.905.854h-6.286c-.362 0-.543.155-.543.492V57.27c0 .57-.284.854-.853.854zm-16.27-31.195v30.34c0 .57-.284.854-.853.854h-3.13c-.57 0-.854-.285-.854-.854V26.93c0-.57.285-.854.854-.854h3.13c.57 0 .853.285.853.854zM296.07 58.126h-5.768c-2.457 0-4.345-.673-5.7-2.045s-2.018-3.262-2.018-5.67V33.817c0-2.46.673-4.35 2.018-5.695s3.233-2.02 5.7-2.02h5.768c2.43 0 4.32.673 5.665 2.02 1.37 1.346 2.043 3.236 2.043 5.695V36.2c0 .595-.3.906-.905.906h-3.13c-.57 0-.854-.3-.854-.906V34c0-2.46-1.2-3.676-3.595-3.676h-4.32c-2.38 0-3.596 1.217-3.596 3.676v16.18c0 2.46 1.2 3.676 3.596 3.676h4.32c2.38 0 3.595-1.217 3.595-3.676v-2.2c0-.595.285-.906.854-.906h3.13c.595 0 .905.3.905.906v2.382c0 2.434-.672 4.323-2.043 5.67-1.345 1.424-3.234 2.097-5.665 2.097zm-35.228 0h-3.13c-.57 0-.854-.285-.854-.854V33.558c0-.57.285-.854.854-.854h3.13c.57 0 .853.285.853.854v1.786h.207c.802-1.76 2.483-2.64 5.018-2.64h2.2c2.43 0 4.293.673 5.586 1.993s1.94 3.236 1.94 5.72V57.27c0 .57-.3.854-.905.854h-3.13c-.57 0-.853-.285-.853-.854V40.625c0-2.46-1.216-3.676-3.62-3.676h-2.354c-2.716 0-4.087 1.398-4.087 4.246v16.103c0 .544-.284.828-.853.828zm-23.693-13.85h8.898c.336 0 .5-.155.5-.492V40.6c0-1.268-.284-2.175-.853-2.77-.57-.57-1.475-.88-2.742-.88H240.2c-1.267 0-2.173.285-2.742.88-.57.57-.853 1.502-.853 2.77v3.184c.026.3.207.492.543.492zm13.14 13.85h-10.76c-2.458 0-4.346-.673-5.7-2.045s-2.017-3.262-2.017-5.67v-9.967c0-2.46.672-4.35 2.017-5.695s3.233-2.02 5.7-2.02h4.086c2.458 0 4.372.673 5.717 2.02 1.37 1.346 2.043 3.236 2.043 5.695v6.317c0 .596-.285.906-.905.906h-13.347c-.362 0-.543.155-.543.492v2.15c0 2.434 1.216 3.65 3.647 3.65H250.3c.594 0 .905.3.905.906v2.485c-.026.518-.3.777-.905.777zm-29.073-9.708v-10.95c0-.337-.18-.492-.543-.492h-5.923c-2.354 0-3.544 1.217-3.544 3.676v8.284c0 2.46 1.164 3.676 3.544 3.676h2.38c2.716-.026 4.087-1.424 4.087-4.194zm-5.225 8.465h-2.25c-2.38 0-4.216-.673-5.5-2.02s-1.914-3.236-1.914-5.695v-8.724c0-2.46.672-4.35 2.043-5.695s3.26-2.02 5.664-2.02h11.148c.595 0 .906.285.906.854v24.672c0 2.434-.7 4.297-2.07 5.644s-3.284 2.02-5.7 2.02h-9.363c-.57 0-.854-.26-.854-.803v-2.6c0-.57.285-.854.854-.854h8.613c2.43 0 3.62-1.217 3.62-3.676V54.2h-.207c-.802 1.786-2.483 2.692-4.992 2.692zm-21.96 1.243h-3.13c-.57 0-.854-.285-.854-.854V33.558c0-.57.285-.854.854-.854h3.13c.57 0 .853.285.853.854v1.9h.207c.336-.828.983-1.5 1.914-1.993a6.76 6.76 0 0 1 3.156-.751H202c.57 0 .854.285.854.854v2.6c0 .62-.285.906-.854.803h-2.974c-2.742 0-4.14 1.502-4.14 4.53v15.78c0 .57-.284.854-.853.854zm-23.693-13.85h8.923c.337 0 .492-.155.492-.492V40.6c0-1.268-.285-2.175-.854-2.77-.57-.57-1.474-.88-2.74-.88h-2.742c-1.268 0-2.173.285-2.742.88-.57.57-.853 1.502-.853 2.77v3.184c.025.3.18.492.517.492zm13.14 13.85h-10.76c-2.457 0-4.345-.673-5.7-2.045s-2.017-3.262-2.017-5.67v-9.967c0-2.46.672-4.35 2.017-5.695s3.233-2.02 5.7-2.02h4.087c2.457 0 4.37.673 5.716 2.02 1.37 1.346 2.044 3.236 2.044 5.695v6.317c0 .596-.285.906-.88.906H170.34c-.362 0-.543.155-.543.492v2.15c0 2.434 1.215 3.65 3.647 3.65h10.06c.595 0 .906.3.906.906v2.485c-.026.518-.337.777-.932.777zm-53.153 0h-3.13c-.57 0-.854-.285-.854-.854V33.558c0-.57.285-.854.854-.854h3.13c.57 0 .854.285.854.854v1.786h.207c.957-1.76 2.716-2.64 5.276-2.64h1.63c2.897 0 4.94 1.087 6.182 3.288.543-1.06 1.345-1.9 2.43-2.434 1.086-.57 2.276-.854 3.543-.854h1.604c2.43 0 4.268.673 5.56 2.02 1.268 1.346 1.914 3.236 1.914 5.695v16.85c0 .57-.284.854-.853.854h-3.182c-.57 0-.853-.285-.853-.854V40.625c0-2.46-1.2-3.676-3.596-3.676h-1.448c-2.742 0-4.14 1.45-4.14 4.323v16c0 .57-.3.854-.905.854h-3.13c-.57 0-.853-.285-.853-.854V40.625c0-2.46-1.2-3.676-3.595-3.676h-1.733c-2.716 0-4.087 1.398-4.087 4.246v16.103c0 .544-.285.828-.828.828zm-23.718-13.85h8.923c.337 0 .492-.155.492-.492V40.6c0-1.268-.285-2.175-.854-2.77-.57-.57-1.474-.88-2.742-.88h-2.74c-1.268 0-2.173.285-2.742.88-.57.57-.854 1.502-.854 2.77v3.184c.026.3.207.492.518.492zm13.165 13.85h-10.76c-2.457 0-4.345-.673-5.7-2.045s-2.018-3.262-2.018-5.67v-9.967c0-2.46.673-4.35 2.018-5.695s3.233-2.02 5.7-2.02h4.087c2.457 0 4.37.673 5.716 2.02 1.37 1.346 2.044 3.236 2.044 5.695v6.317c0 .596-.3.906-.906.906H106.6c-.362 0-.543.155-.543.492v2.15c0 2.434 1.215 3.65 3.62 3.65h10.06c.595 0 .906.3.906.906v2.485c0 .518-.285.777-.88.777zM52.8 78.763a.5.5 0 0 0 .472-.666l-3.4-9.633a2 2 0 0 1-.114-.664V7.854a4.3 4.3 0 0 0 1.847-3.55A4.31 4.31 0 0 0 47.308 0 4.31 4.31 0 0 0 43 4.304a4.34 4.34 0 0 0 1.846 3.55V67.87a2 2 0 0 0 .073.536l2.637 9.48a1.2 1.2 0 0 0 1.156.878h4.1zm15.17 0a.4.4 0 0 0 .302-.662l-8.504-9.818a.5.5 0 0 1-.122-.327V28.74a4.3 4.3 0 0 0 1.846-3.55c-.028-2.376-1.958-4.304-4.336-4.304a4.31 4.31 0 0 0-4.308 4.304 4.34 4.34 0 0 0 1.846 3.55v39.098a1 1 0 0 0 .17.557l6.363 9.482a2 2 0 0 0 1.661.885h5.082zm11.512 0a3 3 0 0 1-1.817-.613L64.92 68.446a1 1 0 0 1-.394-.796v-51.4a4.25 4.25 0 0 1-1.846-3.522 4.31 4.31 0 0 1 4.308-4.304 4.31 4.31 0 0 1 4.308 4.304 4.29 4.29 0 0 1-1.846 3.522v51.635a.5.5 0 0 0 .215.411l14.3 9.92a.3.3 0 0 1-.171.546h-4.3zm-62.712 0a.4.4 0 0 1-.302-.662l8.504-9.818a.5.5 0 0 0 .122-.327V16.86a4.3 4.3 0 0 1-1.846-3.55c.028-2.376 1.958-4.304 4.336-4.304a4.31 4.31 0 0 1 4.308 4.304 4.34 4.34 0 0 1-1.846 3.55v50.98a1 1 0 0 1-.17.557l-6.363 9.482a2 2 0 0 1-1.661.885H16.77zm15.168 0a.5.5 0 0 1-.472-.666l3.4-9.633a2 2 0 0 0 .114-.664V42.6a4.3 4.3 0 0 1-1.846-3.55 4.31 4.31 0 0 1 4.308-4.304 4.31 4.31 0 0 1 4.308 4.304 4.34 4.34 0 0 1-1.846 3.55v25.28a2 2 0 0 1-.073.536l-2.637 9.48a1.2 1.2 0 0 1-1.156.878h-4.1zm-26.68 0a3 3 0 0 0 1.817-.613l12.746-9.704a1 1 0 0 0 .394-.796V31.446a4.25 4.25 0 0 0 1.846-3.522 4.31 4.31 0 0 0-4.308-4.304 4.31 4.31 0 0 0-4.308 4.304 4.29 4.29 0 0 0 1.846 3.522v36.438a.5.5 0 0 1-.215.411l-14.3 9.92a.3.3 0 0 0 .171.546h4.3z"/></svg>