<svg xmlns="http://www.w3.org/2000/svg" width="104" height="97" fill="none" xmlns:v="https://vecta.io/nano"><path d="M64.963 96.763a.5.5 0 0 0 .472-.666l-4.24-12.047a2 2 0 0 1-.113-.664V9.737a5.28 5.28 0 0 0 2.266-4.356A5.29 5.29 0 0 0 58.06.098a5.29 5.29 0 0 0-5.288 5.283 5.33 5.33 0 0 0 2.266 4.356v73.718a2 2 0 0 0 .073.536l3.308 11.894a1.2 1.2 0 0 0 1.156.878h5.387z" fill="#005b94"/><path d="M83.617 96.763a.4.4 0 0 0 .302-.662L73.324 83.87a.5.5 0 0 1-.122-.327V35.37a5.28 5.28 0 0 0 2.266-4.356c-.034-2.916-2.403-5.282-5.322-5.282a5.29 5.29 0 0 0-5.287 5.282 5.33 5.33 0 0 0 2.266 4.356v48.054a1 1 0 0 0 .17.557l7.983 11.896a2 2 0 0 0 1.661.885h6.68z" fill="#009edb"/><path d="M97.317 96.763a3 3 0 0 1-1.817-.613L79.584 84.034a1 1 0 0 1-.394-.796V20.042c-1.373-.926-2.266-2.538-2.266-4.322a5.29 5.29 0 0 1 5.287-5.283 5.29 5.29 0 0 1 5.288 5.283c0 1.784-.893 3.362-2.266 4.322v63.43a.5.5 0 0 0 .215.411l17.766 12.334a.3.3 0 0 1-.171.546h-5.725z" fill="#2a854e"/><path d="M20.383 96.763a.4.4 0 0 1-.302-.662L30.676 83.87a.5.5 0 0 0 .122-.327V20.79a5.28 5.28 0 0 1-2.266-4.356c.034-2.916 2.404-5.282 5.322-5.282a5.29 5.29 0 0 1 5.288 5.282 5.33 5.33 0 0 1-2.266 4.356v62.635a1 1 0 0 1-.17.557l-7.983 11.896a2 2 0 0 1-1.661.886h-6.68z" fill="#f37021"/><path d="M39.037 96.763a.5.5 0 0 1-.472-.666l4.24-12.047a2 2 0 0 0 .113-.664V52.37a5.28 5.28 0 0 1-2.266-4.356 5.29 5.29 0 0 1 5.287-5.282 5.29 5.29 0 0 1 5.288 5.282 5.33 5.33 0 0 1-2.266 4.356v31.085a2 2 0 0 1-.073.536L45.58 95.885a1.2 1.2 0 0 1-1.156.879h-5.387z" fill="#b82837"/><path d="M6.683 96.763A3 3 0 0 0 8.5 96.15l15.916-12.117a1 1 0 0 0 .394-.796V38.692c1.373-.926 2.266-2.538 2.266-4.322a5.29 5.29 0 0 0-5.287-5.282 5.29 5.29 0 0 0-5.288 5.282c0 1.784.893 3.36 2.266 4.322v44.78a.5.5 0 0 1-.215.411L.787 96.217a.3.3 0 0 0 .171.546h5.725z" fill="#f3c937"/></svg>