<svg xmlns="http://www.w3.org/2000/svg" width="265" height="157" fill="#234e52" xmlns:v="https://vecta.io/nano"><path d="M253.805 148.672h-3.182c-.57 0-.853-.285-.853-.854v-11.003l-9.312-19.287c-.13-.258-.13-.5 0-.647a.69.69 0 0 1 .543-.259h3.984c.414 0 .75.285.983.855l6.13 13.695h.3l6.027-13.695c.207-.57.543-.855.982-.855h3.984c.258 0 .465.078.57.26.103.156.103.4-.026.647l-9.312 19.287v11.003c.026.57-.258.854-.827.854zm-23.434 0h-3.13c-.595 0-.905-.285-.905-.854V121.36c0-.337-.155-.492-.492-.492h-6.26c-.595 0-.905-.285-.905-.854v-2.537c0-.57.3-.855.905-.855h18.468c.595 0 .905.285.905.855v2.537c0 .57-.3.854-.905.854h-6.286c-.362 0-.543.155-.543.492v26.458c0 .57-.284.854-.853.854zm-16.27-31.195v30.34c0 .57-.284.854-.853.854h-3.13c-.57 0-.853-.285-.853-.854v-30.34c0-.57.284-.855.853-.855h3.13c.57 0 .853.285.853.855zm-18.985 31.195h-5.768c-2.457 0-4.345-.673-5.7-2.045s-2.017-3.262-2.017-5.67v-16.594c0-2.46.672-4.35 2.017-5.696s3.233-2.02 5.7-2.02h5.768c2.432 0 4.32.673 5.665 2.02 1.37 1.347 2.043 3.237 2.043 5.696v2.382c0 .595-.3.906-.905.906h-3.13c-.57 0-.853-.3-.853-.906v-2.2c0-2.46-1.2-3.676-3.596-3.676h-4.32c-2.38 0-3.595 1.217-3.595 3.676v16.18c0 2.46 1.2 3.676 3.595 3.676h4.32c2.38 0 3.596-1.216 3.596-3.676v-2.2c0-.596.284-.906.853-.906h3.13c.595 0 .905.3.905.906v2.38c0 2.434-.672 4.324-2.043 5.67-1.345 1.424-3.233 2.097-5.665 2.097zm-35.228 0h-3.13c-.57 0-.853-.285-.853-.854v-23.714c0-.57.284-.854.853-.854h3.13c.57 0 .853.284.853.854v1.786h.207c.802-1.76 2.483-2.64 5.018-2.64h2.2c2.43 0 4.293.673 5.587 1.993s1.94 3.236 1.94 5.72v16.854c0 .57-.3.854-.905.854h-3.13c-.57 0-.854-.285-.854-.854V131.17c0-2.46-1.216-3.677-3.62-3.677h-2.354c-2.716 0-4.087 1.398-4.087 4.246v16.103c0 .543-.284.828-.853.828zm-23.693-13.85h8.898c.336 0 .5-.156.5-.492v-3.184c0-1.27-.284-2.175-.853-2.77-.57-.57-1.475-.88-2.742-.88h-2.742c-1.267 0-2.172.285-2.74.88-.57.57-.854 1.5-.854 2.77v3.184c.026.3.207.492.543.492zm13.14 13.85h-10.76c-2.457 0-4.346-.673-5.7-2.045s-2.017-3.262-2.017-5.67V131c0-2.46.672-4.35 2.017-5.695s3.234-2.02 5.7-2.02h4.087c2.457 0 4.37.673 5.716 2.02 1.37 1.346 2.043 3.236 2.043 5.695v6.317c0 .595-.284.906-.905.906H136.17c-.362 0-.543.155-.543.492v2.15c0 2.433 1.216 3.65 3.647 3.65h10.062c.595 0 .905.3.905.906v2.485c-.026.518-.3.777-.905.777zm-29.073-9.708v-10.95c0-.336-.18-.492-.543-.492h-5.923c-2.354 0-3.544 1.217-3.544 3.676v8.285c0 2.46 1.164 3.676 3.544 3.676h2.38c2.716-.026 4.087-1.424 4.087-4.194zm-5.225 8.465h-2.25c-2.38 0-4.216-.673-5.5-2.02s-1.914-3.236-1.914-5.695V131c0-2.46.672-4.35 2.043-5.695s3.26-2.02 5.665-2.02h11.148c.594 0 .905.284.905.854v24.67c0 2.434-.7 4.298-2.07 5.644s-3.285 2.02-5.7 2.02H108c-.57 0-.854-.26-.854-.802v-2.6c0-.57.285-.854.854-.854h8.613c2.43 0 3.62-1.217 3.62-3.676v-3.806h-.207c-.8 1.786-2.483 2.692-4.992 2.692zm-21.96 1.243h-3.13c-.57 0-.853-.285-.853-.854v-23.714c0-.57.285-.854.853-.854h3.13c.57 0 .854.284.854.854v1.9h.207c.336-.83.983-1.502 1.914-1.994a6.78 6.78 0 0 1 3.156-.75h1.836c.57 0 .854.284.854.854v2.6c0 .62-.285.906-.854.802H98.07c-2.742 0-4.138 1.502-4.138 4.53v15.792c0 .57-.284.854-.854.854zm-23.693-13.85h8.924c.336 0 .492-.156.492-.492v-3.184c0-1.27-.285-2.175-.854-2.77-.57-.57-1.474-.88-2.742-.88h-2.742c-1.267 0-2.173.285-2.742.88-.57.57-.853 1.5-.853 2.77v3.184c.026.3.18.492.517.492zm13.14 13.85h-10.76c-2.457 0-4.345-.673-5.7-2.045s-2.017-3.262-2.017-5.67V131c0-2.46.672-4.35 2.017-5.695s3.233-2.02 5.7-2.02h4.087c2.457 0 4.37.673 5.716 2.02 1.37 1.346 2.043 3.236 2.043 5.695v6.317c0 .595-.285.906-.88.906H69.385c-.362 0-.543.155-.543.492v2.15c0 2.433 1.216 3.65 3.647 3.65h10.06c.595 0 .905.3.905.906v2.485c-.026.518-.336.777-.93.777zm-53.153 0h-3.13c-.57 0-.854-.285-.854-.854v-23.714c0-.57.284-.854.854-.854h3.13c.57 0 .854.284.854.854v1.786h.207c.957-1.76 2.716-2.64 5.277-2.64h1.63c2.897 0 4.94 1.087 6.182 3.288.543-1.062 1.345-1.9 2.43-2.434 1.086-.57 2.276-.854 3.544-.854H51.1c2.43 0 4.268.673 5.56 2.02 1.267 1.346 1.914 3.236 1.914 5.695v16.854c0 .57-.285.854-.854.854h-3.18c-.57 0-.854-.285-.854-.854v-16.646c0-2.46-1.2-3.677-3.595-3.677h-1.45c-2.742 0-4.138 1.45-4.138 4.324v16c0 .57-.3.854-.905.854h-3.13c-.57 0-.854-.285-.854-.854v-16.646c0-2.46-1.2-3.677-3.595-3.677h-1.733c-2.716 0-4.087 1.398-4.087 4.246v16.103c0 .543-.285.828-.828.828zm-23.72-13.85h8.924c.336 0 .5-.156.5-.492v-3.184c0-1.27-.284-2.175-.854-2.77-.57-.57-1.474-.88-2.742-.88H8.73c-1.267 0-2.173.285-2.742.88-.57.57-.854 1.5-.854 2.77v3.184c.026.3.207.492.517.492zm13.165 13.85H8.058c-2.457 0-4.345-.673-5.7-2.045S.35 143.365.35 140.957V131c0-2.46.672-4.35 2.017-5.695s3.233-2.02 5.7-2.02h4.087c2.457 0 4.37.673 5.716 2.02 1.37 1.346 2.043 3.236 2.043 5.695v6.317c0 .595-.3.906-.905.906H5.653c-.362 0-.543.155-.543.492v2.15c0 2.433 1.216 3.65 3.62 3.65h10.062c.595 0 .905.3.905.906v2.485c0 .518-.285.777-.88.777zm126.147-51.91a.5.5 0 0 0 .472-.666l-4.24-12.047a2 2 0 0 1-.114-.664V9.737a5.28 5.28 0 0 0 2.267-4.356A5.29 5.29 0 0 0 138.06.098a5.29 5.29 0 0 0-5.288 5.283c0 1.784.893 3.396 2.267 4.356v73.718a1.98 1.98 0 0 0 .073.536l3.308 11.894a1.2 1.2 0 0 0 1.156.878h5.387zm18.654 0a.4.4 0 0 0 .302-.662l-10.595-12.23a.5.5 0 0 1-.122-.327V35.37a5.28 5.28 0 0 0 2.266-4.356c-.035-2.916-2.404-5.282-5.322-5.282a5.29 5.29 0 0 0-5.288 5.282 5.33 5.33 0 0 0 2.266 4.356v48.054a1 1 0 0 0 .17.557l7.983 11.896a2 2 0 0 0 1.661.885h6.68zm13.7 0a3 3 0 0 1-1.817-.613l-15.916-12.117a1 1 0 0 1-.394-.796V20.042c-1.374-.926-2.267-2.538-2.267-4.322a5.29 5.29 0 0 1 5.288-5.283 5.29 5.29 0 0 1 5.288 5.283c0 1.784-.893 3.362-2.267 4.322v63.43a.5.5 0 0 0 .215.411l17.766 12.334a.3.3 0 0 1-.171.546h-5.725zm-76.933 0a.4.4 0 0 1-.303-.662l10.595-12.232a.5.5 0 0 0 .123-.327V20.8a5.28 5.28 0 0 1-2.267-4.356c.035-2.916 2.404-5.282 5.322-5.282a5.29 5.29 0 0 1 5.288 5.282 5.33 5.33 0 0 1-2.266 4.356v62.635a1 1 0 0 1-.17.557l-7.983 11.896a2 2 0 0 1-1.661.886h-6.678zm18.653 0a.5.5 0 0 1-.472-.666l4.24-12.047a2 2 0 0 0 .114-.664V52.37a5.28 5.28 0 0 1-2.267-4.356 5.29 5.29 0 0 1 5.288-5.282 5.29 5.29 0 0 1 5.288 5.282c0 1.784-.893 3.396-2.267 4.356v31.085a1.98 1.98 0 0 1-.073.536l-3.308 11.894a1.2 1.2 0 0 1-1.156.879h-5.387zm-32.354 0a3 3 0 0 0 1.817-.613l15.916-12.117a1 1 0 0 0 .394-.796V38.692c1.374-.926 2.267-2.538 2.267-4.322a5.29 5.29 0 0 0-5.288-5.282 5.29 5.29 0 0 0-5.288 5.282c0 1.784.893 3.36 2.266 4.322v44.78a.5.5 0 0 1-.215.411L80.787 96.217a.3.3 0 0 0 .171.546h5.725z"/></svg>