<svg width="224" height="81" viewBox="0 0 224 81" fill="none" xmlns="http://www.w3.org/2000/svg">
<path d="M0.3125 29.499V25.2606C0.3125 21.7046 2.20099 18.416 5.27234 16.6236L31.2584 1.45932C34.3728 -0.358185 38.2244 -0.358185 41.3387 1.45932L67.3249 16.6236C70.3962 18.416 72.2847 21.7046 72.2847 25.2606V30.0084L40.8038 12.0642C37.7343 10.3144 33.9693 10.3144 30.8997 12.0642L0.3125 29.499Z" fill="white"/>
<path d="M22.6926 34.6146C22.5766 33.4765 22.4954 32.3908 22.4388 31.4051C22.2829 28.6902 24.4916 26.518 27.2111 26.518H45.4139C48.1333 26.518 50.3421 28.6902 50.1862 31.4051C50.1215 32.5329 50.0245 33.7917 49.88 35.11L72.2847 47.8807V35.9328L40.8038 17.9886C37.7343 16.239 33.9693 16.239 30.8997 17.9886L0.3125 35.4236V47.3713L22.6926 34.6146Z" fill="white"/>
<path d="M23.5143 40.0708L0.3125 53.2959V55.7755C0.3125 58.4106 1.34955 60.899 3.13654 62.7403L27.2713 48.9835C26.5955 48.0702 26.0085 47.1706 25.5723 46.3266C24.6516 44.5449 23.9897 42.347 23.5143 40.0708Z" fill="white"/>
<path d="M30.6452 52.9848C31.4979 53.9019 32.3473 54.7654 33.1193 55.5251C34.9057 57.2834 37.7193 57.2834 39.5057 55.5251C40.1808 54.8606 40.9153 54.1168 41.6592 53.3272L64.2523 66.2054L53.4095 72.5328L40.6777 65.5175C37.6734 63.8622 34.0302 63.8622 31.0259 65.5175L18.7537 72.2795L7.90338 65.9477L30.6452 52.9848Z" fill="white"/>
<path d="M45.0774 49.3512C45.8695 48.3121 46.5581 47.2837 47.0527 46.3266C47.9102 44.6672 48.5432 42.6471 49.0101 40.5387L72.2847 53.8053V55.7755C72.2847 58.5678 71.1202 61.1953 69.1329 63.063L45.0774 49.3512Z" fill="white"/>
<path d="M23.8015 75.2253L31.2585 79.5769C34.3728 81.3943 38.2244 81.3943 41.3388 79.5769L48.3617 75.4785L40.6777 71.2446C37.6734 69.5892 34.0302 69.5892 31.0259 71.2446L23.8015 75.2253Z" fill="white"/>
<path d="M95.2485 36.0182L98.0525 27.9344H109.984L112.773 36.0182H117.665L106.673 5.47279H101.349L90.3564 36.0182H95.2485ZM99.3948 24.0566L103.899 11.0211H104.138L108.642 24.0566H99.3948Z" fill="white"/>
<path d="M141.313 15.1226H146.041C145.012 9.17165 139.926 5.05518 133.333 5.05518C125.429 5.05518 119.657 11.0062 119.657 20.7604C119.657 30.4252 125.264 36.4359 133.542 36.4359C140.955 36.4359 146.25 31.5736 146.25 23.8627V20.3876H134.243V24.1908H141.79C141.686 29.1127 138.434 32.2299 133.542 32.2299C128.158 32.2299 124.235 28.1582 124.235 20.7306C124.235 13.3329 128.188 9.26114 133.363 9.26114C137.42 9.26114 140.164 11.4984 141.313 15.1226Z" fill="white"/>
<path d="M91.9672 76.0182H98.4253V67.3378L101.602 63.46L109.969 76.0182H117.695L106.226 59.1496L117.561 45.4728H109.82L98.828 58.9408H98.4253V45.4728H91.9672V76.0182Z" fill="white"/>
<path d="M120.924 76.0182H127.382V65.1901H132.095L137.882 76.0182H145.012L138.524 64.1461C141.999 62.6546 143.923 59.6269 143.923 55.4508C143.923 49.3805 139.911 45.4728 132.975 45.4728H120.924V76.0182ZM127.382 59.9998V50.7526H131.737C135.466 50.7526 137.271 52.4082 137.271 55.4508C137.271 58.4785 135.466 59.9998 131.767 59.9998H127.382Z" fill="white"/>
<path d="M154.945 45.4728H148.487V76.0182H154.945V45.4728Z" fill="white"/>
<path d="M159.095 50.7974H168.446V76.0182H174.83V50.7974H184.182V45.4728H159.095V50.7974Z" fill="white"/>
<path d="M194.771 45.4728H188.313V76.0182H194.771V45.4728Z" fill="white"/>
<path d="M216.655 54.2576H222.844C222.755 48.8137 218.28 45.0552 211.479 45.0552C204.783 45.0552 199.876 48.754 199.905 54.3023C199.891 58.8066 203.067 61.3869 208.228 62.6248L211.554 63.46C214.88 64.2654 216.729 65.2199 216.744 67.2782C216.729 69.5154 214.611 71.0367 211.33 71.0367C207.974 71.0367 205.558 69.4856 205.349 66.428H199.1C199.264 73.0353 203.992 76.4508 211.405 76.4508C218.862 76.4508 223.247 72.8861 223.262 67.2931C223.247 62.2072 219.414 59.5076 214.104 58.3144L211.36 57.6582C208.705 57.0467 206.483 56.0623 206.528 53.8698C206.528 51.9011 208.273 50.4543 211.435 50.4543C214.522 50.4543 216.416 51.8563 216.655 54.2576Z" fill="white"/>
</svg>
