<svg width="224" height="81" viewBox="0 0 224 81" fill="none" xmlns="http://www.w3.org/2000/svg">
<path d="M0.299805 29.499V25.2606C0.299805 21.7046 2.18829 18.416 5.25964 16.6236L31.2457 1.45932C34.3601 -0.358185 38.2117 -0.358185 41.326 1.45932L67.3122 16.6236C70.3835 18.416 72.272 21.7046 72.272 25.2606V30.0084L40.7911 12.0642C37.7216 10.3144 33.9566 10.3144 30.887 12.0642L0.299805 29.499Z" fill="#15B5E8"/>
<path d="M22.6799 34.6146C22.5639 33.4765 22.4827 32.3908 22.4261 31.4051C22.2702 28.6902 24.4789 26.518 27.1984 26.518H45.4012C48.1206 26.518 50.3294 28.6902 50.1735 31.4051C50.1088 32.5329 50.0118 33.7917 49.8673 35.11L72.272 47.8807V35.9328L40.7911 17.9886C37.7216 16.239 33.9566 16.239 30.887 17.9886L0.299805 35.4236V47.3713L22.6799 34.6146Z" fill="#15B5E8"/>
<path d="M23.5016 40.0708L0.299805 53.2959V55.7755C0.299805 58.4106 1.33685 60.899 3.12384 62.7403L27.2586 48.9835C26.5828 48.0702 25.9958 47.1706 25.5596 46.3266C24.6389 44.5449 23.977 42.347 23.5016 40.0708Z" fill="#15B5E8"/>
<path d="M30.6325 52.9848C31.4852 53.9019 32.3346 54.7654 33.1066 55.5251C34.893 57.2834 37.7066 57.2834 39.493 55.5251C40.1682 54.8606 40.9026 54.1168 41.6465 53.3272L64.2396 66.2054L53.3969 72.5328L40.665 65.5175C37.6607 63.8622 34.0175 63.8622 31.0132 65.5175L18.741 72.2795L7.89069 65.9477L30.6325 52.9848Z" fill="#15B5E8"/>
<path d="M45.0647 49.3512C45.8568 48.3121 46.5454 47.2837 47.04 46.3266C47.8975 44.6672 48.5305 42.6471 48.9974 40.5387L72.272 53.8053V55.7755C72.272 58.5678 71.1075 61.1953 69.1202 63.063L45.0647 49.3512Z" fill="#15B5E8"/>
<path d="M23.7888 75.2253L31.2458 79.5769C34.3601 81.3943 38.2117 81.3943 41.3261 79.5769L48.349 75.4785L40.665 71.2446C37.6607 69.5892 34.0175 69.5892 31.0132 71.2446L23.7888 75.2253Z" fill="#15B5E8"/>
<path d="M95.2358 36.0178L98.0398 27.934H109.972L112.761 36.0178H117.653L106.661 5.4723H101.336L90.3438 36.0178H95.2358ZM99.3821 24.0561L103.886 11.0206H104.125L108.629 24.0561H99.3821Z" fill="black"/>
<path d="M141.3 15.1222H146.028C144.999 9.17117 139.913 5.05469 133.321 5.05469C125.416 5.05469 119.644 11.0057 119.644 20.7599C119.644 30.4247 125.252 36.4354 133.529 36.4354C140.942 36.4354 146.237 31.5732 146.237 23.8622V20.3871H134.23V24.1903H141.777C141.673 29.1122 138.422 32.2294 133.529 32.2294C128.145 32.2294 124.223 28.1577 124.223 20.7301C124.223 13.3324 128.175 9.26065 133.35 9.26065C137.407 9.26065 140.152 11.4979 141.3 15.1222Z" fill="black"/>
<path d="M91.9545 76.0178H98.4126V67.3374L101.589 63.4595L109.957 76.0178H117.683L106.213 59.1491L117.548 45.4723H109.808L98.8153 58.9403H98.4126V45.4723H91.9545V76.0178Z" fill="black"/>
<path d="M120.912 76.0178H127.37V65.1896H132.083L137.87 76.0178H144.999L138.511 64.1456C141.986 62.6541 143.91 59.6264 143.91 55.4503C143.91 49.38 139.898 45.4723 132.963 45.4723H120.912V76.0178ZM127.37 59.9993V50.7521H131.725C135.453 50.7521 137.258 52.4077 137.258 55.4503C137.258 58.478 135.453 59.9993 131.755 59.9993H127.37Z" fill="black"/>
<path d="M154.932 45.4723H148.474V76.0178H154.932V45.4723Z" fill="black"/>
<path d="M159.082 50.7969H168.434V76.0178H174.817V50.7969H184.169V45.4723H159.082V50.7969Z" fill="black"/>
<path d="M194.758 45.4723H188.3V76.0178H194.758V45.4723Z" fill="black"/>
<path d="M216.642 54.2571H222.832C222.742 48.8132 218.268 45.0547 211.467 45.0547C204.77 45.0547 199.863 48.7536 199.893 54.3018C199.878 58.8061 203.055 61.3864 208.215 62.6243L211.541 63.4595C214.867 64.2649 216.717 65.2195 216.732 67.2777C216.717 69.5149 214.599 71.0362 211.317 71.0362C207.962 71.0362 205.545 69.4851 205.337 66.4276H199.087C199.251 73.0348 203.979 76.4503 211.392 76.4503C218.849 76.4503 223.234 72.8857 223.249 67.2926C223.234 62.2067 219.401 59.5071 214.092 58.3139L211.347 57.6577C208.692 57.0462 206.47 56.0618 206.515 53.8693C206.515 51.9006 208.26 50.4538 211.422 50.4538C214.509 50.4538 216.403 51.8558 216.642 54.2571Z" fill="black"/>
</svg>
