<svg width="224" height="81" viewBox="0 0 224 81" fill="none" xmlns="http://www.w3.org/2000/svg">
<path d="M0.663086 29.499V25.2606C0.663086 21.7046 2.55157 18.416 5.62292 16.6236L31.609 1.45932C34.7234 -0.358185 38.575 -0.358185 41.6893 1.45932L67.6755 16.6236C70.7468 18.416 72.6353 21.7046 72.6353 25.2606V30.0084L41.1544 12.0642C38.0849 10.3144 34.3199 10.3144 31.2503 12.0642L0.663086 29.499Z" fill="black"/>
<path d="M23.0432 34.6146C22.9272 33.4765 22.8459 32.3908 22.7894 31.4051C22.6335 28.6902 24.8422 26.518 27.5617 26.518H45.7645C48.4839 26.518 50.6927 28.6902 50.5368 31.4051C50.472 32.5329 50.3751 33.7917 50.2306 35.11L72.6353 47.8807V35.9328L41.1544 17.9886C38.0849 16.239 34.3199 16.239 31.2503 17.9886L0.663086 35.4236V47.3713L23.0432 34.6146Z" fill="black"/>
<path d="M23.8649 40.0708L0.663086 53.2959V55.7755C0.663086 58.4106 1.70013 60.899 3.48712 62.7403L27.6219 48.9835C26.946 48.0702 26.3591 47.1706 25.9229 46.3266C25.0021 44.5449 24.3403 42.347 23.8649 40.0708Z" fill="black"/>
<path d="M30.9958 52.9848C31.8484 53.9019 32.6979 54.7654 33.4698 55.5251C35.2563 57.2834 38.0699 57.2834 39.8563 55.5251C40.5314 54.8606 41.2659 54.1168 42.0098 53.3272L64.6029 66.2054L53.7601 72.5328L41.0283 65.5175C38.024 63.8622 34.3808 63.8622 31.3765 65.5175L19.1043 72.2795L8.25397 65.9477L30.9958 52.9848Z" fill="black"/>
<path d="M45.428 49.3512C46.2201 48.3121 46.9087 47.2837 47.4033 46.3266C48.2607 44.6672 48.8937 42.6471 49.3607 40.5387L72.6353 53.8053V55.7755C72.6353 58.5678 71.4708 61.1953 69.4835 63.063L45.428 49.3512Z" fill="black"/>
<path d="M24.1521 75.2253L31.6091 79.5769C34.7234 81.3943 38.575 81.3943 41.6894 79.5769L48.7123 75.4785L41.0283 71.2446C38.024 69.5892 34.3808 69.5892 31.3765 71.2446L24.1521 75.2253Z" fill="black"/>
<path d="M95.5991 36.0182L98.4031 27.9344H110.335L113.124 36.0182H118.016L107.024 5.47279H101.699L90.707 36.0182H95.5991ZM99.7454 24.0566L104.25 11.0211H104.488L108.993 24.0566H99.7454Z" fill="black"/>
<path d="M141.663 15.1226H146.391C145.362 9.17165 140.276 5.05518 133.684 5.05518C125.779 5.05518 120.007 11.0062 120.007 20.7604C120.007 30.4252 125.615 36.4359 133.893 36.4359C141.305 36.4359 146.6 31.5736 146.6 23.8627V20.3876H134.594V24.1908H142.141C142.036 29.1127 138.785 32.2299 133.893 32.2299C128.509 32.2299 124.586 28.1582 124.586 20.7306C124.586 13.3329 128.538 9.26114 133.714 9.26114C137.771 9.26114 140.515 11.4984 141.663 15.1226Z" fill="black"/>
<path d="M92.3178 76.0182H98.7759V67.3378L101.953 63.46L110.32 76.0182H118.046L106.576 59.1496L117.912 45.4728H110.171L99.1786 58.9408H98.7759V45.4728H92.3178V76.0182Z" fill="black"/>
<path d="M121.275 76.0182H127.733V65.1901H132.446L138.233 76.0182H145.362L138.874 64.1461C142.349 62.6546 144.273 59.6269 144.273 55.4508C144.273 49.3805 140.261 45.4728 133.326 45.4728H121.275V76.0182ZM127.733 59.9998V50.7526H132.088C135.817 50.7526 137.621 52.4082 137.621 55.4508C137.621 58.4785 135.817 59.9998 132.118 59.9998H127.733Z" fill="black"/>
<path d="M155.295 45.4728H148.837V76.0182H155.295V45.4728Z" fill="black"/>
<path d="M159.445 50.7974H168.797V76.0182H175.181V50.7974H184.532V45.4728H159.445V50.7974Z" fill="black"/>
<path d="M195.122 45.4728H188.664V76.0182H195.122V45.4728Z" fill="black"/>
<path d="M217.005 54.2576H223.195C223.105 48.8137 218.631 45.0552 211.83 45.0552C205.133 45.0552 200.226 48.754 200.256 54.3023C200.241 58.8066 203.418 61.3869 208.578 62.6248L211.904 63.46C215.23 64.2654 217.08 65.2199 217.095 67.2782C217.08 69.5154 214.962 71.0367 211.681 71.0367C208.325 71.0367 205.909 69.4856 205.7 66.428H199.451C199.615 73.0353 204.343 76.4508 211.755 76.4508C219.213 76.4508 223.598 72.8861 223.613 67.2931C223.598 62.2072 219.765 59.5076 214.455 58.3144L211.711 57.6582C209.056 57.0467 206.833 56.0623 206.878 53.8698C206.878 51.9011 208.623 50.4543 211.785 50.4543C214.873 50.4543 216.767 51.8563 217.005 54.2576Z" fill="black"/>
</svg>
