<svg width="339" height="133" viewBox="0 0 339 133" fill="none" xmlns="http://www.w3.org/2000/svg">
<path d="M0.3125 29.7104V25.472C0.3125 21.916 2.20099 18.6274 5.27234 16.8351L31.2584 1.67075C34.3728 -0.146759 38.2244 -0.146759 41.3387 1.67075L67.3249 16.8351C70.3962 18.6274 72.2847 21.916 72.2847 25.472V30.2198L40.8038 12.2756C37.7343 10.5258 33.9693 10.5258 30.8997 12.2756L0.3125 29.7104Z" fill="white"/>
<path d="M22.6926 34.826C22.5766 33.688 22.4954 32.6023 22.4388 31.6165C22.2829 28.9016 24.4916 26.7295 27.2111 26.7295H45.4139C48.1333 26.7295 50.3421 28.9016 50.1862 31.6165C50.1215 32.7444 50.0245 34.0031 49.88 35.3214L72.2847 48.0921V36.1443L40.8038 18.2C37.7343 16.4504 33.9693 16.4504 30.8997 18.2L0.3125 35.635V47.5827L22.6926 34.826Z" fill="white"/>
<path d="M23.5143 40.2822L0.3125 53.5073V55.9869C0.3125 58.622 1.34955 61.1104 3.13654 62.9518L27.2713 49.1949C26.5955 48.2816 26.0085 47.382 25.5723 46.5381C24.6516 44.7563 23.9897 42.5584 23.5143 40.2822Z" fill="white"/>
<path d="M30.6452 53.1963C31.4979 54.1134 32.3473 54.9768 33.1193 55.7365C34.9057 57.4948 37.7193 57.4948 39.5057 55.7365C40.1808 55.072 40.9153 54.3282 41.6592 53.5387L64.2523 66.4168L53.4095 72.7442L40.6777 65.729C37.6734 64.0736 34.0302 64.0736 31.0259 65.729L18.7537 72.4909L7.90338 66.1591L30.6452 53.1963Z" fill="white"/>
<path d="M45.0774 49.5626C45.8695 48.5235 46.5581 47.4951 47.0527 46.5381C47.9102 44.8786 48.5432 42.8585 49.0101 40.7501L72.2847 54.0167V55.9869C72.2847 58.7793 71.1202 61.4067 69.1329 63.2744L45.0774 49.5626Z" fill="white"/>
<path d="M23.8015 75.4367L31.2585 79.7883C34.3728 81.6057 38.2244 81.6057 41.3388 79.7883L48.3617 75.6899L40.6777 71.456C37.6734 69.8006 34.0302 69.8006 31.0259 71.456L23.8015 75.4367Z" fill="white"/>
<path d="M95.2485 37.7297L98.0525 29.6459H109.984L112.773 37.7297H117.665L106.673 7.18422H101.349L90.3564 37.7297H95.2485ZM99.3948 25.768L103.899 12.7325H104.138L108.642 25.768H99.3948Z" fill="white"/>
<path d="M141.313 16.8341H146.041C145.012 10.8831 139.926 6.7666 133.333 6.7666C125.429 6.7666 119.657 12.7176 119.657 22.4719C119.657 32.1366 125.264 38.1473 133.542 38.1473C140.955 38.1473 146.25 33.2851 146.25 25.5741V22.099H134.243V25.9023H141.79C141.686 30.8241 138.434 33.9413 133.542 33.9413C128.158 33.9413 124.235 29.8696 124.235 22.442C124.235 15.0443 128.188 10.9726 133.363 10.9726C137.42 10.9726 140.164 13.2098 141.313 16.8341Z" fill="white"/>
<path d="M91.9672 77.7297H98.4253V69.0493L101.602 65.1714L109.969 77.7297H117.695L106.226 60.8611L117.561 47.1842H109.82L98.828 60.6523H98.4253V47.1842H91.9672V77.7297Z" fill="white"/>
<path d="M120.924 77.7297H127.382V66.9015H132.095L137.882 77.7297H145.012L138.524 65.8575C141.999 64.366 143.923 61.3383 143.923 57.1622C143.923 51.0919 139.911 47.1842 132.975 47.1842H120.924V77.7297ZM127.382 61.7112V52.464H131.737C135.466 52.464 137.271 54.1196 137.271 57.1622C137.271 60.1899 135.466 61.7112 131.767 61.7112H127.382Z" fill="white"/>
<path d="M154.945 47.1842H148.487V77.7297H154.945V47.1842Z" fill="white"/>
<path d="M159.095 52.5088H168.446V77.7297H174.83V52.5088H184.182V47.1842H159.095V52.5088Z" fill="white"/>
<path d="M194.771 47.1842H188.313V77.7297H194.771V47.1842Z" fill="white"/>
<path d="M216.655 55.969H222.844C222.755 50.5251 218.28 46.7666 211.479 46.7666C204.783 46.7666 199.876 50.4655 199.905 56.0138C199.891 60.518 203.067 63.0983 208.228 64.3362L211.554 65.1714C214.88 65.9768 216.729 66.9314 216.744 68.9896C216.729 71.2268 214.611 72.7481 211.33 72.7481C207.974 72.7481 205.558 71.197 205.349 68.1395H199.1C199.264 74.7467 203.992 78.1622 211.405 78.1622C218.862 78.1622 223.247 74.5976 223.262 69.0045C223.247 63.9186 219.414 61.219 214.104 60.0258L211.36 59.3696C208.705 58.7581 206.483 57.7737 206.528 55.5812C206.528 53.6125 208.273 52.1657 211.435 52.1657C214.522 52.1657 216.416 53.5677 216.655 55.969Z" fill="white"/>
<path d="M91.9062 107.729L93.5156 103.198H99.9844L101.594 107.729H103.625L97.75 91.7295H95.75L89.875 107.729H91.9062ZM94.125 101.479L96.6875 94.2607H96.8125L99.375 101.479H94.125Z" fill="white"/>
<path d="M105.867 107.729H107.711V100.136C107.711 98.5107 108.992 97.3232 110.742 97.3232C111.234 97.3232 111.742 97.417 111.867 97.4482V95.5732C111.656 95.5576 111.172 95.542 110.898 95.542C109.461 95.542 108.211 96.3545 107.773 97.542H107.648V95.7295H105.867V107.729Z" fill="white"/>
<path d="M114.303 107.729H116.084V105.886H116.303C116.709 106.542 117.49 107.979 119.803 107.979C122.803 107.979 124.896 105.573 124.896 101.761C124.896 97.9795 122.803 95.5732 119.771 95.5732C117.428 95.5732 116.709 97.0107 116.303 97.6357H116.146V91.7295H114.303V107.729ZM116.115 101.729C116.115 99.042 117.303 97.2295 119.553 97.2295C121.896 97.2295 123.053 99.1982 123.053 101.729C123.053 104.292 121.865 106.323 119.553 106.323C117.334 106.323 116.115 104.448 116.115 101.729Z" fill="white"/>
<path d="M132.748 107.979C135.186 107.979 136.967 106.761 137.529 104.948L135.748 104.448C135.279 105.698 134.193 106.323 132.748 106.323C130.584 106.323 129.092 104.925 129.006 102.354H137.717V101.573C137.717 97.1045 135.061 95.5732 132.561 95.5732C129.311 95.5732 127.154 98.1357 127.154 101.823C127.154 105.511 129.279 107.979 132.748 107.979ZM129.006 100.761C129.131 98.8936 130.451 97.2295 132.561 97.2295C134.561 97.2295 135.842 98.7295 135.842 100.761H129.006Z" fill="white"/>
<path d="M140.521 107.729H142.365V95.7295H140.521V107.729ZM141.459 93.7295C142.178 93.7295 142.771 93.167 142.771 92.4795C142.771 91.792 142.178 91.2295 141.459 91.2295C140.74 91.2295 140.146 91.792 140.146 92.4795C140.146 93.167 140.74 93.7295 141.459 93.7295Z" fill="white"/>
<path d="M150.961 95.7295H148.398V92.8545H146.555V95.7295H144.742V97.292H146.555V104.792C146.555 106.886 148.242 107.886 149.805 107.886C150.492 107.886 150.93 107.761 151.18 107.667L150.805 106.011C150.648 106.042 150.398 106.104 149.992 106.104C149.18 106.104 148.398 105.854 148.398 104.292V97.292H150.961V95.7295Z" fill="white"/>
<path d="M162.02 98.417C161.441 96.7139 160.145 95.5732 157.77 95.5732C155.238 95.5732 153.363 97.0107 153.363 99.042C153.363 100.698 154.348 101.808 156.551 102.323L158.551 102.792C159.762 103.073 160.332 103.651 160.332 104.479C160.332 105.511 159.238 106.354 157.52 106.354C156.012 106.354 155.066 105.706 154.738 104.417L152.988 104.854C153.418 106.894 155.098 107.979 157.551 107.979C160.34 107.979 162.238 106.456 162.238 104.386C162.238 102.714 161.191 101.659 159.051 101.136L157.27 100.698C155.848 100.347 155.207 99.8701 155.207 98.9482C155.207 97.917 156.301 97.167 157.77 97.167C159.379 97.167 160.043 98.0576 160.363 98.8857L162.02 98.417Z" fill="white"/>
<path d="M169.857 112.479C172.732 112.479 175.045 111.167 175.045 108.073V95.7295H173.264V97.6357H173.076C172.67 97.0107 171.92 95.5732 169.576 95.5732C166.545 95.5732 164.451 97.9795 164.451 101.667C164.451 105.417 166.639 107.542 169.545 107.542C171.889 107.542 172.639 106.167 173.045 105.511H173.201V107.948C173.201 109.948 171.795 110.854 169.857 110.854C167.678 110.854 166.912 109.706 166.42 109.042L164.951 110.073C165.701 111.331 167.178 112.479 169.857 112.479ZM169.795 105.886C167.482 105.886 166.295 104.136 166.295 101.636C166.295 99.1982 167.451 97.2295 169.795 97.2295C172.045 97.2295 173.232 99.042 173.232 101.636C173.232 104.292 172.014 105.886 169.795 105.886Z" fill="white"/>
<path d="M178.42 107.729H180.264V100.136C180.264 98.5107 181.545 97.3232 183.295 97.3232C183.787 97.3232 184.295 97.417 184.42 97.4482V95.5732C184.209 95.5576 183.725 95.542 183.451 95.542C182.014 95.542 180.764 96.3545 180.326 97.542H180.201V95.7295H178.42V107.729Z" fill="white"/>
<path d="M194.168 102.823C194.168 105.073 192.449 106.104 191.074 106.104C189.543 106.104 188.449 104.979 188.449 103.229V95.7295H186.605V103.354C186.605 106.417 188.23 107.886 190.48 107.886C192.293 107.886 193.48 106.917 194.043 105.698H194.168V107.729H196.012V95.7295H194.168V102.823Z" fill="white"/>
<path d="M199.389 112.229H201.232V105.886H201.389C201.795 106.542 202.576 107.979 204.889 107.979C207.889 107.979 209.982 105.573 209.982 101.761C209.982 97.9795 207.889 95.5732 204.857 95.5732C202.514 95.5732 201.795 97.0107 201.389 97.6357H201.17V95.7295H199.389V112.229ZM201.201 101.729C201.201 99.042 202.389 97.2295 204.639 97.2295C206.982 97.2295 208.139 99.1982 208.139 101.729C208.139 104.292 206.951 106.323 204.639 106.323C202.42 106.323 201.201 104.448 201.201 101.729Z" fill="white"/>
<path d="M212.795 112.229H214.639V105.886H214.795C215.201 106.542 215.982 107.979 218.295 107.979C221.295 107.979 223.389 105.573 223.389 101.761C223.389 97.9795 221.295 95.5732 218.264 95.5732C215.92 95.5732 215.201 97.0107 214.795 97.6357H214.576V95.7295H212.795V112.229ZM214.607 101.729C214.607 99.042 215.795 97.2295 218.045 97.2295C220.389 97.2295 221.545 99.1982 221.545 101.729C221.545 104.292 220.357 106.323 218.045 106.323C215.826 106.323 214.607 104.448 214.607 101.729Z" fill="white"/>
<path d="M231.232 107.979C233.67 107.979 235.451 106.761 236.014 104.948L234.232 104.448C233.764 105.698 232.678 106.323 231.232 106.323C229.068 106.323 227.576 104.925 227.49 102.354H236.201V101.573C236.201 97.1045 233.545 95.5732 231.045 95.5732C227.795 95.5732 225.639 98.1357 225.639 101.823C225.639 105.511 227.764 107.979 231.232 107.979ZM227.49 100.761C227.615 98.8936 228.936 97.2295 231.045 97.2295C233.045 97.2295 234.326 98.7295 234.326 100.761H227.49Z" fill="white"/>
<path d="M91.25 131.729H93.1875V126.542L95.1875 124.292L100.75 131.729H103.094L96.375 122.948L103.094 115.729H100.562L93.375 123.667H93.1875V115.729H91.25V131.729Z" fill="white"/>
<path d="M105.352 131.729H107.195V124.136C107.195 122.511 108.477 121.323 110.227 121.323C110.719 121.323 111.227 121.417 111.352 121.448V119.573C111.141 119.558 110.656 119.542 110.383 119.542C108.945 119.542 107.695 120.354 107.258 121.542H107.133V119.729H105.352V131.729Z" fill="white"/>
<path d="M113.537 131.729H115.381V119.729H113.537V131.729ZM114.475 117.729C115.193 117.729 115.787 117.167 115.787 116.479C115.787 115.792 115.193 115.229 114.475 115.229C113.756 115.229 113.162 115.792 113.162 116.479C113.162 117.167 113.756 117.729 114.475 117.729Z" fill="white"/>
<path d="M123.977 119.729H121.414V116.854H119.57V119.729H117.758V121.292H119.57V128.792C119.57 130.886 121.258 131.886 122.82 131.886C123.508 131.886 123.945 131.761 124.195 131.667L123.82 130.011C123.664 130.042 123.414 130.104 123.008 130.104C122.195 130.104 121.414 129.854 121.414 128.292V121.292H123.977V119.729Z" fill="white"/>
<path d="M126.75 131.729H128.594V119.729H126.75V131.729ZM127.688 117.729C128.406 117.729 129 117.167 129 116.479C129 115.792 128.406 115.229 127.688 115.229C126.969 115.229 126.375 115.792 126.375 116.479C126.375 117.167 126.969 117.729 127.688 117.729Z" fill="white"/>
<path d="M140.471 122.417C139.893 120.714 138.596 119.573 136.221 119.573C133.689 119.573 131.814 121.011 131.814 123.042C131.814 124.698 132.799 125.808 135.002 126.323L137.002 126.792C138.213 127.073 138.783 127.651 138.783 128.479C138.783 129.511 137.689 130.354 135.971 130.354C134.463 130.354 133.518 129.706 133.189 128.417L131.439 128.854C131.869 130.894 133.549 131.979 136.002 131.979C138.791 131.979 140.689 130.456 140.689 128.386C140.689 126.714 139.643 125.659 137.502 125.136L135.721 124.698C134.299 124.347 133.658 123.87 133.658 122.948C133.658 121.917 134.752 121.167 136.221 121.167C137.83 121.167 138.494 122.058 138.814 122.886L140.471 122.417Z" fill="white"/>
<path d="M148.34 131.979C150.996 131.979 152.746 130.354 153.059 128.229H151.215C150.871 129.542 149.777 130.323 148.34 130.323C146.152 130.323 144.746 128.511 144.746 125.729C144.746 123.011 146.184 121.229 148.34 121.229C149.965 121.229 150.934 122.229 151.215 123.323H153.059C152.746 121.073 150.84 119.573 148.309 119.573C145.059 119.573 142.902 122.136 142.902 125.792C142.902 129.386 144.965 131.979 148.34 131.979Z" fill="white"/>
<path d="M157.598 124.511C157.598 122.417 158.934 121.229 160.754 121.229C162.488 121.229 163.535 122.323 163.535 124.229V131.729H165.379V124.104C165.379 121.019 163.738 119.573 161.285 119.573C159.395 119.573 158.316 120.362 157.754 121.604H157.598V115.729H155.754V131.729H157.598V124.511Z" fill="white"/>
<path d="M173.783 131.979C176.221 131.979 178.002 130.761 178.564 128.948L176.783 128.448C176.314 129.698 175.229 130.323 173.783 130.323C171.619 130.323 170.127 128.925 170.041 126.354H178.752V125.573C178.752 121.104 176.096 119.573 173.596 119.573C170.346 119.573 168.189 122.136 168.189 125.823C168.189 129.511 170.314 131.979 173.783 131.979ZM170.041 124.761C170.166 122.894 171.486 121.229 173.596 121.229C175.596 121.229 176.877 122.729 176.877 124.761H170.041Z" fill="white"/>
<path d="M189.932 115.729H187.994V131.729H189.932V115.729Z" fill="white"/>
<path d="M195.41 124.511C195.41 122.417 196.707 121.229 198.473 121.229C200.184 121.229 201.223 122.347 201.223 124.229V131.729H203.066V124.104C203.066 121.042 201.434 119.573 199.004 119.573C197.191 119.573 196.066 120.386 195.504 121.604H195.348V119.729H193.566V131.729H195.41V124.511Z" fill="white"/>
<path d="M211.779 119.729H209.092V118.511C209.092 117.323 209.592 116.698 210.811 116.698C211.342 116.698 211.654 116.823 211.842 116.886L212.373 115.292C212.092 115.167 211.529 114.979 210.623 114.979C208.904 114.979 207.248 116.011 207.248 118.073V119.729H205.311V121.292H207.248V131.729H209.092V121.292H211.779V119.729Z" fill="white"/>
<path d="M214.363 131.729H216.207V124.136C216.207 122.511 217.488 121.323 219.238 121.323C219.73 121.323 220.238 121.417 220.363 121.448V119.573C220.152 119.558 219.668 119.542 219.395 119.542C217.957 119.542 216.707 120.354 216.27 121.542H216.145V119.729H214.363V131.729Z" fill="white"/>
<path d="M226.08 132.011C228.174 132.011 229.268 130.886 229.643 130.104H229.736V131.729H231.58V123.823C231.58 120.011 228.674 119.573 227.143 119.573C225.33 119.573 223.268 120.198 222.33 122.386L224.08 123.011C224.486 122.136 225.447 121.198 227.205 121.198C228.9 121.198 229.736 122.097 229.736 123.636V123.698C229.736 124.589 228.83 124.511 226.643 124.792C224.416 125.081 221.986 125.573 221.986 128.323C221.986 130.667 223.799 132.011 226.08 132.011ZM226.361 130.354C224.893 130.354 223.83 129.698 223.83 128.417C223.83 127.011 225.111 126.573 226.549 126.386C227.33 126.292 229.424 126.073 229.736 125.698V127.386C229.736 128.886 228.549 130.354 226.361 130.354Z" fill="white"/>
<path d="M243.445 122.417C242.867 120.714 241.57 119.573 239.195 119.573C236.664 119.573 234.789 121.011 234.789 123.042C234.789 124.698 235.773 125.808 237.977 126.323L239.977 126.792C241.187 127.073 241.758 127.651 241.758 128.479C241.758 129.511 240.664 130.354 238.945 130.354C237.437 130.354 236.492 129.706 236.164 128.417L234.414 128.854C234.844 130.894 236.523 131.979 238.977 131.979C241.766 131.979 243.664 130.456 243.664 128.386C243.664 126.714 242.617 125.659 240.477 125.136L238.695 124.698C237.273 124.347 236.633 123.87 236.633 122.948C236.633 121.917 237.727 121.167 239.195 121.167C240.805 121.167 241.469 122.058 241.789 122.886L243.445 122.417Z" fill="white"/>
<path d="M251.658 119.729H249.096V116.854H247.252V119.729H245.439V121.292H247.252V128.792C247.252 130.886 248.939 131.886 250.502 131.886C251.189 131.886 251.627 131.761 251.877 131.667L251.502 130.011C251.346 130.042 251.096 130.104 250.689 130.104C249.877 130.104 249.096 129.854 249.096 128.292V121.292H251.658V119.729Z" fill="white"/>
<path d="M254.432 131.729H256.275V124.136C256.275 122.511 257.557 121.323 259.307 121.323C259.799 121.323 260.307 121.417 260.432 121.448V119.573C260.221 119.558 259.736 119.542 259.463 119.542C258.025 119.542 256.775 120.354 256.338 121.542H256.213V119.729H254.432V131.729Z" fill="white"/>
<path d="M270.18 126.823C270.18 129.073 268.461 130.104 267.086 130.104C265.555 130.104 264.461 128.979 264.461 127.229V119.729H262.617V127.354C262.617 130.417 264.242 131.886 266.492 131.886C268.305 131.886 269.492 130.917 270.055 129.698H270.18V131.729H272.023V119.729H270.18V126.823Z" fill="white"/>
<path d="M275.4 131.729H277.244V127.237L278.533 126.042L283.025 131.729H285.369L279.924 124.854L284.994 119.729H282.713L277.463 125.073H277.244V115.729H275.4V131.729Z" fill="white"/>
<path d="M292.586 119.729H290.023V116.854H288.18V119.729H286.367V121.292H288.18V128.792C288.18 130.886 289.867 131.886 291.43 131.886C292.117 131.886 292.555 131.761 292.805 131.667L292.43 130.011C292.273 130.042 292.023 130.104 291.617 130.104C290.805 130.104 290.023 129.854 290.023 128.292V121.292H292.586V119.729Z" fill="white"/>
<path d="M302.922 126.823C302.922 129.073 301.203 130.104 299.828 130.104C298.297 130.104 297.203 128.979 297.203 127.229V119.729H295.359V127.354C295.359 130.417 296.984 131.886 299.234 131.886C301.047 131.886 302.234 130.917 302.797 129.698H302.922V131.729H304.766V119.729H302.922V126.823Z" fill="white"/>
<path d="M308.143 131.729H309.986V124.136C309.986 122.511 311.268 121.323 313.018 121.323C313.51 121.323 314.018 121.417 314.143 121.448V119.573C313.932 119.558 313.447 119.542 313.174 119.542C311.736 119.542 310.486 120.354 310.049 121.542H309.924V119.729H308.143V131.729Z" fill="white"/>
<path d="M320.994 131.979C323.432 131.979 325.213 130.761 325.775 128.948L323.994 128.448C323.525 129.698 322.439 130.323 320.994 130.323C318.83 130.323 317.338 128.925 317.252 126.354H325.963V125.573C325.963 121.104 323.307 119.573 320.807 119.573C317.557 119.573 315.4 122.136 315.4 125.823C315.4 129.511 317.525 131.979 320.994 131.979ZM317.252 124.761C317.377 122.894 318.697 121.229 320.807 121.229C322.807 121.229 324.088 122.729 324.088 124.761H317.252Z" fill="white"/>
<path d="M330.611 124.511C330.611 122.417 331.908 121.229 333.674 121.229C335.385 121.229 336.424 122.347 336.424 124.229V131.729H338.268V124.104C338.268 121.042 336.635 119.573 334.205 119.573C332.393 119.573 331.268 120.386 330.705 121.604H330.549V119.729H328.768V131.729H330.611V124.511Z" fill="white"/>
</svg>
