<svg width="339" height="133" viewBox="0 0 339 133" fill="none" xmlns="http://www.w3.org/2000/svg">
<path d="M0.299805 29.7104V25.472C0.299805 21.916 2.18829 18.6274 5.25964 16.8351L31.2457 1.67075C34.3601 -0.146759 38.2117 -0.146759 41.326 1.67075L67.3122 16.8351C70.3835 18.6274 72.272 21.916 72.272 25.472V30.2198L40.7911 12.2756C37.7216 10.5258 33.9566 10.5258 30.887 12.2756L0.299805 29.7104Z" fill="#15B5E8"/>
<path d="M22.6799 34.826C22.5639 33.688 22.4827 32.6023 22.4261 31.6165C22.2702 28.9016 24.4789 26.7295 27.1984 26.7295H45.4012C48.1206 26.7295 50.3294 28.9016 50.1735 31.6165C50.1088 32.7444 50.0118 34.0031 49.8673 35.3214L72.272 48.0921V36.1443L40.7911 18.2C37.7216 16.4504 33.9566 16.4504 30.887 18.2L0.299805 35.635V47.5827L22.6799 34.826Z" fill="#15B5E8"/>
<path d="M23.5016 40.2822L0.299805 53.5073V55.9869C0.299805 58.622 1.33685 61.1104 3.12384 62.9518L27.2586 49.1949C26.5828 48.2816 25.9958 47.382 25.5596 46.5381C24.6389 44.7563 23.977 42.5584 23.5016 40.2822Z" fill="#15B5E8"/>
<path d="M30.6325 53.1963C31.4852 54.1134 32.3346 54.9768 33.1066 55.7365C34.893 57.4948 37.7066 57.4948 39.493 55.7365C40.1682 55.072 40.9026 54.3282 41.6465 53.5387L64.2396 66.4168L53.3969 72.7442L40.665 65.729C37.6607 64.0736 34.0175 64.0736 31.0132 65.729L18.741 72.4909L7.89069 66.1591L30.6325 53.1963Z" fill="#15B5E8"/>
<path d="M45.0647 49.5626C45.8568 48.5235 46.5454 47.4951 47.04 46.5381C47.8975 44.8786 48.5305 42.8585 48.9974 40.7501L72.272 54.0167V55.9869C72.272 58.7793 71.1075 61.4067 69.1202 63.2744L45.0647 49.5626Z" fill="#15B5E8"/>
<path d="M23.7888 75.4367L31.2458 79.7883C34.3601 81.6057 38.2117 81.6057 41.3261 79.7883L48.349 75.6899L40.665 71.456C37.6607 69.8006 34.0175 69.8006 31.0132 71.456L23.7888 75.4367Z" fill="#15B5E8"/>
<path d="M95.2358 37.7297L98.0398 29.6459H109.972L112.761 37.7297H117.653L106.661 7.18422H101.336L90.3438 37.7297H95.2358ZM99.3821 25.768L103.886 12.7325H104.125L108.629 25.768H99.3821Z" fill="black"/>
<path d="M141.3 16.8341H146.028C144.999 10.8831 139.913 6.7666 133.321 6.7666C125.416 6.7666 119.644 12.7176 119.644 22.4719C119.644 32.1366 125.252 38.1473 133.529 38.1473C140.942 38.1473 146.237 33.2851 146.237 25.5741V22.099H134.23V25.9023H141.777C141.673 30.8241 138.422 33.9413 133.529 33.9413C128.145 33.9413 124.223 29.8696 124.223 22.442C124.223 15.0443 128.175 10.9726 133.35 10.9726C137.407 10.9726 140.152 13.2098 141.3 16.8341Z" fill="black"/>
<path d="M91.9545 77.7297H98.4126V69.0493L101.589 65.1714L109.957 77.7297H117.683L106.213 60.8611L117.548 47.1842H109.808L98.8153 60.6523H98.4126V47.1842H91.9545V77.7297Z" fill="black"/>
<path d="M120.912 77.7297H127.37V66.9015H132.083L137.87 77.7297H144.999L138.511 65.8575C141.986 64.366 143.91 61.3383 143.91 57.1622C143.91 51.0919 139.898 47.1842 132.963 47.1842H120.912V77.7297ZM127.37 61.7112V52.464H131.725C135.453 52.464 137.258 54.1196 137.258 57.1622C137.258 60.1899 135.453 61.7112 131.755 61.7112H127.37Z" fill="black"/>
<path d="M154.932 47.1842H148.474V77.7297H154.932V47.1842Z" fill="black"/>
<path d="M159.082 52.5088H168.434V77.7297H174.817V52.5088H184.169V47.1842H159.082V52.5088Z" fill="black"/>
<path d="M194.758 47.1842H188.3V77.7297H194.758V47.1842Z" fill="black"/>
<path d="M216.642 55.969H222.832C222.742 50.5251 218.268 46.7666 211.467 46.7666C204.77 46.7666 199.863 50.4655 199.893 56.0138C199.878 60.518 203.055 63.0983 208.215 64.3362L211.541 65.1714C214.867 65.9768 216.717 66.9314 216.732 68.9896C216.717 71.2268 214.599 72.7481 211.317 72.7481C207.962 72.7481 205.545 71.197 205.337 68.1395H199.087C199.251 74.7467 203.979 78.1622 211.392 78.1622C218.849 78.1622 223.234 74.5976 223.249 69.0045C223.234 63.9186 219.401 61.219 214.092 60.0258L211.347 59.3696C208.692 58.7581 206.47 57.7737 206.515 55.5812C206.515 53.6125 208.26 52.1657 211.422 52.1657C214.509 52.1657 216.403 53.5677 216.642 55.969Z" fill="black"/>
<path d="M91.8936 107.729L93.5029 103.198H99.9717L101.581 107.729H103.612L97.7373 91.7295H95.7373L89.8623 107.729H91.8936ZM94.1123 101.479L96.6748 94.2607H96.7998L99.3623 101.479H94.1123Z" fill="black"/>
<path d="M105.854 107.729H107.698V100.136C107.698 98.5107 108.979 97.3232 110.729 97.3232C111.222 97.3232 111.729 97.417 111.854 97.4482V95.5732C111.644 95.5576 111.159 95.542 110.886 95.542C109.448 95.542 108.198 96.3545 107.761 97.542H107.636V95.7295H105.854V107.729Z" fill="black"/>
<path d="M114.29 107.729H116.071V105.886H116.29C116.696 106.542 117.478 107.979 119.79 107.979C122.79 107.979 124.884 105.573 124.884 101.761C124.884 97.9795 122.79 95.5732 119.759 95.5732C117.415 95.5732 116.696 97.0107 116.29 97.6357H116.134V91.7295H114.29V107.729ZM116.103 101.729C116.103 99.042 117.29 97.2295 119.54 97.2295C121.884 97.2295 123.04 99.1982 123.04 101.729C123.04 104.292 121.853 106.323 119.54 106.323C117.321 106.323 116.103 104.448 116.103 101.729Z" fill="black"/>
<path d="M132.735 107.979C135.173 107.979 136.954 106.761 137.517 104.948L135.735 104.448C135.267 105.698 134.181 106.323 132.735 106.323C130.571 106.323 129.079 104.925 128.993 102.354H137.704V101.573C137.704 97.1045 135.048 95.5732 132.548 95.5732C129.298 95.5732 127.142 98.1357 127.142 101.823C127.142 105.511 129.267 107.979 132.735 107.979ZM128.993 100.761C129.118 98.8936 130.438 97.2295 132.548 97.2295C134.548 97.2295 135.829 98.7295 135.829 100.761H128.993Z" fill="black"/>
<path d="M140.509 107.729H142.353V95.7295H140.509V107.729ZM141.446 93.7295C142.165 93.7295 142.759 93.167 142.759 92.4795C142.759 91.792 142.165 91.2295 141.446 91.2295C140.728 91.2295 140.134 91.792 140.134 92.4795C140.134 93.167 140.728 93.7295 141.446 93.7295Z" fill="black"/>
<path d="M150.948 95.7295H148.386V92.8545H146.542V95.7295H144.729V97.292H146.542V104.792C146.542 106.886 148.229 107.886 149.792 107.886C150.479 107.886 150.917 107.761 151.167 107.667L150.792 106.011C150.636 106.042 150.386 106.104 149.979 106.104C149.167 106.104 148.386 105.854 148.386 104.292V97.292H150.948V95.7295Z" fill="black"/>
<path d="M162.007 98.417C161.429 96.7139 160.132 95.5732 157.757 95.5732C155.226 95.5732 153.351 97.0107 153.351 99.042C153.351 100.698 154.335 101.808 156.538 102.323L158.538 102.792C159.749 103.073 160.319 103.651 160.319 104.479C160.319 105.511 159.226 106.354 157.507 106.354C155.999 106.354 155.054 105.706 154.726 104.417L152.976 104.854C153.405 106.894 155.085 107.979 157.538 107.979C160.327 107.979 162.226 106.456 162.226 104.386C162.226 102.714 161.179 101.659 159.038 101.136L157.257 100.698C155.835 100.347 155.194 99.8701 155.194 98.9482C155.194 97.917 156.288 97.167 157.757 97.167C159.366 97.167 160.03 98.0576 160.351 98.8857L162.007 98.417Z" fill="black"/>
<path d="M169.845 112.479C172.72 112.479 175.032 111.167 175.032 108.073V95.7295H173.251V97.6357H173.063C172.657 97.0107 171.907 95.5732 169.563 95.5732C166.532 95.5732 164.438 97.9795 164.438 101.667C164.438 105.417 166.626 107.542 169.532 107.542C171.876 107.542 172.626 106.167 173.032 105.511H173.188V107.948C173.188 109.948 171.782 110.854 169.845 110.854C167.665 110.854 166.899 109.706 166.407 109.042L164.938 110.073C165.688 111.331 167.165 112.479 169.845 112.479ZM169.782 105.886C167.47 105.886 166.282 104.136 166.282 101.636C166.282 99.1982 167.438 97.2295 169.782 97.2295C172.032 97.2295 173.22 99.042 173.22 101.636C173.22 104.292 172.001 105.886 169.782 105.886Z" fill="black"/>
<path d="M178.407 107.729H180.251V100.136C180.251 98.5107 181.532 97.3232 183.282 97.3232C183.774 97.3232 184.282 97.417 184.407 97.4482V95.5732C184.196 95.5576 183.712 95.542 183.438 95.542C182.001 95.542 180.751 96.3545 180.313 97.542H180.188V95.7295H178.407V107.729Z" fill="black"/>
<path d="M194.155 102.823C194.155 105.073 192.437 106.104 191.062 106.104C189.53 106.104 188.437 104.979 188.437 103.229V95.7295H186.593V103.354C186.593 106.417 188.218 107.886 190.468 107.886C192.28 107.886 193.468 106.917 194.03 105.698H194.155V107.729H195.999V95.7295H194.155V102.823Z" fill="black"/>
<path d="M199.376 112.229H201.22V105.886H201.376C201.782 106.542 202.563 107.979 204.876 107.979C207.876 107.979 209.97 105.573 209.97 101.761C209.97 97.9795 207.876 95.5732 204.845 95.5732C202.501 95.5732 201.782 97.0107 201.376 97.6357H201.157V95.7295H199.376V112.229ZM201.188 101.729C201.188 99.042 202.376 97.2295 204.626 97.2295C206.97 97.2295 208.126 99.1982 208.126 101.729C208.126 104.292 206.938 106.323 204.626 106.323C202.407 106.323 201.188 104.448 201.188 101.729Z" fill="black"/>
<path d="M212.782 112.229H214.626V105.886H214.782C215.188 106.542 215.97 107.979 218.282 107.979C221.282 107.979 223.376 105.573 223.376 101.761C223.376 97.9795 221.282 95.5732 218.251 95.5732C215.907 95.5732 215.188 97.0107 214.782 97.6357H214.563V95.7295H212.782V112.229ZM214.595 101.729C214.595 99.042 215.782 97.2295 218.032 97.2295C220.376 97.2295 221.532 99.1982 221.532 101.729C221.532 104.292 220.345 106.323 218.032 106.323C215.813 106.323 214.595 104.448 214.595 101.729Z" fill="black"/>
<path d="M231.22 107.979C233.657 107.979 235.438 106.761 236.001 104.948L234.22 104.448C233.751 105.698 232.665 106.323 231.22 106.323C229.056 106.323 227.563 104.925 227.478 102.354H236.188V101.573C236.188 97.1045 233.532 95.5732 231.032 95.5732C227.782 95.5732 225.626 98.1357 225.626 101.823C225.626 105.511 227.751 107.979 231.22 107.979ZM227.478 100.761C227.603 98.8936 228.923 97.2295 231.032 97.2295C233.032 97.2295 234.313 98.7295 234.313 100.761H227.478Z" fill="black"/>
<path d="M91.2373 131.729H93.1748V126.542L95.1748 124.292L100.737 131.729H103.081L96.3623 122.948L103.081 115.729H100.55L93.3623 123.667H93.1748V115.729H91.2373V131.729Z" fill="black"/>
<path d="M105.339 131.729H107.183V124.136C107.183 122.511 108.464 121.323 110.214 121.323C110.706 121.323 111.214 121.417 111.339 121.448V119.573C111.128 119.558 110.644 119.542 110.37 119.542C108.933 119.542 107.683 120.354 107.245 121.542H107.12V119.729H105.339V131.729Z" fill="black"/>
<path d="M113.524 131.729H115.368V119.729H113.524V131.729ZM114.462 117.729C115.181 117.729 115.774 117.167 115.774 116.479C115.774 115.792 115.181 115.229 114.462 115.229C113.743 115.229 113.149 115.792 113.149 116.479C113.149 117.167 113.743 117.729 114.462 117.729Z" fill="black"/>
<path d="M123.964 119.729H121.401V116.854H119.558V119.729H117.745V121.292H119.558V128.792C119.558 130.886 121.245 131.886 122.808 131.886C123.495 131.886 123.933 131.761 124.183 131.667L123.808 130.011C123.651 130.042 123.401 130.104 122.995 130.104C122.183 130.104 121.401 129.854 121.401 128.292V121.292H123.964V119.729Z" fill="black"/>
<path d="M126.737 131.729H128.581V119.729H126.737V131.729ZM127.675 117.729C128.394 117.729 128.987 117.167 128.987 116.479C128.987 115.792 128.394 115.229 127.675 115.229C126.956 115.229 126.362 115.792 126.362 116.479C126.362 117.167 126.956 117.729 127.675 117.729Z" fill="black"/>
<path d="M140.458 122.417C139.88 120.714 138.583 119.573 136.208 119.573C133.677 119.573 131.802 121.011 131.802 123.042C131.802 124.698 132.786 125.808 134.989 126.323L136.989 126.792C138.2 127.073 138.771 127.651 138.771 128.479C138.771 129.511 137.677 130.354 135.958 130.354C134.45 130.354 133.505 129.706 133.177 128.417L131.427 128.854C131.856 130.894 133.536 131.979 135.989 131.979C138.778 131.979 140.677 130.456 140.677 128.386C140.677 126.714 139.63 125.659 137.489 125.136L135.708 124.698C134.286 124.347 133.646 123.87 133.646 122.948C133.646 121.917 134.739 121.167 136.208 121.167C137.817 121.167 138.481 122.058 138.802 122.886L140.458 122.417Z" fill="black"/>
<path d="M148.327 131.979C150.983 131.979 152.733 130.354 153.046 128.229H151.202C150.858 129.542 149.765 130.323 148.327 130.323C146.14 130.323 144.733 128.511 144.733 125.729C144.733 123.011 146.171 121.229 148.327 121.229C149.952 121.229 150.921 122.229 151.202 123.323H153.046C152.733 121.073 150.827 119.573 148.296 119.573C145.046 119.573 142.89 122.136 142.89 125.792C142.89 129.386 144.952 131.979 148.327 131.979Z" fill="black"/>
<path d="M157.585 124.511C157.585 122.417 158.921 121.229 160.741 121.229C162.476 121.229 163.522 122.323 163.522 124.229V131.729H165.366V124.104C165.366 121.019 163.726 119.573 161.272 119.573C159.382 119.573 158.304 120.362 157.741 121.604H157.585V115.729H155.741V131.729H157.585V124.511Z" fill="black"/>
<path d="M173.771 131.979C176.208 131.979 177.989 130.761 178.552 128.948L176.771 128.448C176.302 129.698 175.216 130.323 173.771 130.323C171.606 130.323 170.114 128.925 170.028 126.354H178.739V125.573C178.739 121.104 176.083 119.573 173.583 119.573C170.333 119.573 168.177 122.136 168.177 125.823C168.177 129.511 170.302 131.979 173.771 131.979ZM170.028 124.761C170.153 122.894 171.474 121.229 173.583 121.229C175.583 121.229 176.864 122.729 176.864 124.761H170.028Z" fill="black"/>
<path d="M189.919 115.729H187.981V131.729H189.919V115.729Z" fill="black"/>
<path d="M195.397 124.511C195.397 122.417 196.694 121.229 198.46 121.229C200.171 121.229 201.21 122.347 201.21 124.229V131.729H203.054V124.104C203.054 121.042 201.421 119.573 198.991 119.573C197.179 119.573 196.054 120.386 195.491 121.604H195.335V119.729H193.554V131.729H195.397V124.511Z" fill="black"/>
<path d="M211.767 119.729H209.079V118.511C209.079 117.323 209.579 116.698 210.798 116.698C211.329 116.698 211.642 116.823 211.829 116.886L212.36 115.292C212.079 115.167 211.517 114.979 210.61 114.979C208.892 114.979 207.235 116.011 207.235 118.073V119.729H205.298V121.292H207.235V131.729H209.079V121.292H211.767V119.729Z" fill="black"/>
<path d="M214.351 131.729H216.194V124.136C216.194 122.511 217.476 121.323 219.226 121.323C219.718 121.323 220.226 121.417 220.351 121.448V119.573C220.14 119.558 219.655 119.542 219.382 119.542C217.944 119.542 216.694 120.354 216.257 121.542H216.132V119.729H214.351V131.729Z" fill="black"/>
<path d="M226.067 132.011C228.161 132.011 229.255 130.886 229.63 130.104H229.724V131.729H231.567V123.823C231.567 120.011 228.661 119.573 227.13 119.573C225.317 119.573 223.255 120.198 222.317 122.386L224.067 123.011C224.474 122.136 225.435 121.198 227.192 121.198C228.888 121.198 229.724 122.097 229.724 123.636V123.698C229.724 124.589 228.817 124.511 226.63 124.792C224.403 125.081 221.974 125.573 221.974 128.323C221.974 130.667 223.786 132.011 226.067 132.011ZM226.349 130.354C224.88 130.354 223.817 129.698 223.817 128.417C223.817 127.011 225.099 126.573 226.536 126.386C227.317 126.292 229.411 126.073 229.724 125.698V127.386C229.724 128.886 228.536 130.354 226.349 130.354Z" fill="black"/>
<path d="M243.433 122.417C242.854 120.714 241.558 119.573 239.183 119.573C236.651 119.573 234.776 121.011 234.776 123.042C234.776 124.698 235.761 125.808 237.964 126.323L239.964 126.792C241.175 127.073 241.745 127.651 241.745 128.479C241.745 129.511 240.651 130.354 238.933 130.354C237.425 130.354 236.479 129.706 236.151 128.417L234.401 128.854C234.831 130.894 236.511 131.979 238.964 131.979C241.753 131.979 243.651 130.456 243.651 128.386C243.651 126.714 242.604 125.659 240.464 125.136L238.683 124.698C237.261 124.347 236.62 123.87 236.62 122.948C236.62 121.917 237.714 121.167 239.183 121.167C240.792 121.167 241.456 122.058 241.776 122.886L243.433 122.417Z" fill="black"/>
<path d="M251.646 119.729H249.083V116.854H247.239V119.729H245.427V121.292H247.239V128.792C247.239 130.886 248.927 131.886 250.489 131.886C251.177 131.886 251.614 131.761 251.864 131.667L251.489 130.011C251.333 130.042 251.083 130.104 250.677 130.104C249.864 130.104 249.083 129.854 249.083 128.292V121.292H251.646V119.729Z" fill="black"/>
<path d="M254.419 131.729H256.263V124.136C256.263 122.511 257.544 121.323 259.294 121.323C259.786 121.323 260.294 121.417 260.419 121.448V119.573C260.208 119.558 259.724 119.542 259.45 119.542C258.013 119.542 256.763 120.354 256.325 121.542H256.2V119.729H254.419V131.729Z" fill="black"/>
<path d="M270.167 126.823C270.167 129.073 268.448 130.104 267.073 130.104C265.542 130.104 264.448 128.979 264.448 127.229V119.729H262.604V127.354C262.604 130.417 264.229 131.886 266.479 131.886C268.292 131.886 269.479 130.917 270.042 129.698H270.167V131.729H272.011V119.729H270.167V126.823Z" fill="black"/>
<path d="M275.388 131.729H277.231V127.237L278.521 126.042L283.013 131.729H285.356L279.911 124.854L284.981 119.729H282.7L277.45 125.073H277.231V115.729H275.388V131.729Z" fill="black"/>
<path d="M292.573 119.729H290.011V116.854H288.167V119.729H286.354V121.292H288.167V128.792C288.167 130.886 289.854 131.886 291.417 131.886C292.104 131.886 292.542 131.761 292.792 131.667L292.417 130.011C292.261 130.042 292.011 130.104 291.604 130.104C290.792 130.104 290.011 129.854 290.011 128.292V121.292H292.573V119.729Z" fill="black"/>
<path d="M302.909 126.823C302.909 129.073 301.19 130.104 299.815 130.104C298.284 130.104 297.19 128.979 297.19 127.229V119.729H295.347V127.354C295.347 130.417 296.972 131.886 299.222 131.886C301.034 131.886 302.222 130.917 302.784 129.698H302.909V131.729H304.753V119.729H302.909V126.823Z" fill="black"/>
<path d="M308.13 131.729H309.974V124.136C309.974 122.511 311.255 121.323 313.005 121.323C313.497 121.323 314.005 121.417 314.13 121.448V119.573C313.919 119.558 313.435 119.542 313.161 119.542C311.724 119.542 310.474 120.354 310.036 121.542H309.911V119.729H308.13V131.729Z" fill="black"/>
<path d="M320.981 131.979C323.419 131.979 325.2 130.761 325.763 128.948L323.981 128.448C323.513 129.698 322.427 130.323 320.981 130.323C318.817 130.323 317.325 128.925 317.239 126.354H325.95V125.573C325.95 121.104 323.294 119.573 320.794 119.573C317.544 119.573 315.388 122.136 315.388 125.823C315.388 129.511 317.513 131.979 320.981 131.979ZM317.239 124.761C317.364 122.894 318.685 121.229 320.794 121.229C322.794 121.229 324.075 122.729 324.075 124.761H317.239Z" fill="black"/>
<path d="M330.599 124.511C330.599 122.417 331.896 121.229 333.661 121.229C335.372 121.229 336.411 122.347 336.411 124.229V131.729H338.255V124.104C338.255 121.042 336.622 119.573 334.192 119.573C332.38 119.573 331.255 120.386 330.692 121.604H330.536V119.729H328.755V131.729H330.599V124.511Z" fill="black"/>
</svg>
