<svg width="493" height="82" viewBox="0 0 493 82" fill="none" xmlns="http://www.w3.org/2000/svg">
<path d="M0.299805 29.7104V25.472C0.299805 21.916 2.18823 18.6274 5.25964 16.8351L31.2457 1.67075C34.3601 -0.146759 38.2117 -0.146759 41.326 1.67075L67.3123 16.8351C70.3835 18.6274 72.2721 21.916 72.2721 25.472V30.2198L40.7911 12.2756C37.7216 10.5258 33.9565 10.5258 30.8871 12.2756L0.299805 29.7104Z" fill="#15B5E8"/>
<path d="M22.6799 34.826C22.5638 33.688 22.4827 32.6023 22.426 31.6165C22.2701 28.9016 24.479 26.7295 27.1984 26.7295H45.4012C48.1206 26.7295 50.3295 28.9016 50.1736 31.6165C50.1088 32.7444 50.0118 34.0031 49.8673 35.3214L72.2721 48.0921V36.1443L40.7911 18.2C37.7216 16.4504 33.9565 16.4504 30.8871 18.2L0.299805 35.635V47.5827L22.6799 34.826Z" fill="#15B5E8"/>
<path d="M23.5016 40.2822L0.299805 53.5073V55.9869C0.299805 58.622 1.33691 61.1104 3.12378 62.9518L27.2587 49.1949C26.5829 48.2816 25.9957 47.382 25.5596 46.5381C24.6388 44.7563 23.9771 42.5584 23.5016 40.2822Z" fill="#15B5E8"/>
<path d="M30.6324 53.1963C31.4851 54.1134 32.3346 54.9768 33.1066 55.7365C34.8931 57.4948 37.7065 57.4948 39.493 55.7365C40.1682 55.072 40.9026 54.3282 41.6466 53.5387L64.2396 66.4168L53.3969 72.7442L40.665 65.729C37.6606 64.0736 34.0176 64.0736 31.0132 65.729L18.7411 72.4909L7.89062 66.1591L30.6324 53.1963Z" fill="#15B5E8"/>
<path d="M45.0647 49.5626C45.8568 48.5235 46.5454 47.4951 47.04 46.5381C47.8975 44.8786 48.5305 42.8585 48.9974 40.7501L72.2721 54.0167V55.9869C72.2721 58.7793 71.1075 61.4067 69.1202 63.2744L45.0647 49.5626Z" fill="#15B5E8"/>
<path d="M23.7888 75.4367L31.2457 79.7883C34.3601 81.6057 38.2117 81.6057 41.326 79.7883L48.349 75.6899L40.665 71.456C37.6606 69.8006 34.0176 69.8006 31.0132 71.456L23.7888 75.4367Z" fill="#15B5E8"/>
<path d="M95.2358 40.7297L98.0398 32.6459H109.972L112.761 40.7297H117.653L106.661 10.1842H101.336L90.3438 40.7297H95.2358ZM99.3821 28.768L103.886 15.7325H104.125L108.629 28.768H99.3821Z" fill="black"/>
<path d="M141.3 19.8341H146.028C144.999 13.8831 139.913 9.7666 133.321 9.7666C125.416 9.7666 119.644 15.7176 119.644 25.4719C119.644 35.1366 125.252 41.1473 133.529 41.1473C140.942 41.1473 146.237 36.2851 146.237 28.5741V25.099H134.23V28.9023H141.777C141.673 33.8241 138.422 36.9413 133.529 36.9413C128.145 36.9413 124.223 32.8696 124.223 25.442C124.223 18.0443 128.175 13.9726 133.35 13.9726C137.407 13.9726 140.152 16.2098 141.3 19.8341Z" fill="black"/>
<path d="M161.107 40.7297H167.565V32.0493L170.742 28.1714L179.109 40.7297H186.835L175.365 23.8611L186.701 10.1842H178.96L167.968 23.6523H167.565V10.1842H161.107V40.7297Z" fill="black"/>
<path d="M190.064 40.7297H196.522V29.9015H201.235L207.022 40.7297H214.151L207.663 28.8575C211.138 27.366 213.062 24.3383 213.062 20.1622C213.062 14.0919 209.05 10.1842 202.115 10.1842H190.064V40.7297ZM196.522 24.7112V15.464H200.877C204.606 15.464 206.411 17.1196 206.411 20.1622C206.411 23.1899 204.606 24.7112 200.907 24.7112H196.522Z" fill="black"/>
<path d="M224.085 10.1842H217.626V40.7297H224.085V10.1842Z" fill="black"/>
<path d="M228.235 15.5088H237.586V40.7297H243.97V15.5088H253.321V10.1842H228.235V15.5088Z" fill="black"/>
<path d="M263.911 10.1842H257.453V40.7297H263.911V10.1842Z" fill="black"/>
<path d="M285.794 18.969H291.984C291.895 13.5251 287.42 9.7666 280.619 9.7666C273.922 9.7666 269.015 13.4655 269.045 19.0138C269.03 23.518 272.207 26.0983 277.368 27.3362L280.694 28.1714C284.02 28.9768 285.869 29.9314 285.884 31.9896C285.869 34.2268 283.751 35.7481 280.47 35.7481C277.114 35.7481 274.698 34.197 274.489 31.1395H268.24C268.404 37.7467 273.132 41.1622 280.544 41.1622C288.002 41.1622 292.387 37.5976 292.402 32.0045C292.387 26.9186 288.554 24.219 283.244 23.0258L280.5 22.3696C277.845 21.7581 275.623 20.7737 275.667 18.5812C275.667 16.6125 277.412 15.1657 280.574 15.1657C283.662 15.1657 285.556 16.5677 285.794 18.969Z" fill="black"/>
<path d="M91.8936 65.7295L93.5029 61.1982H99.9717L101.581 65.7295H103.612L97.7373 49.7295H95.7373L89.8623 65.7295H91.8936ZM94.1123 59.4795L96.6748 52.2607H96.7998L99.3623 59.4795H94.1123Z" fill="black"/>
<path d="M105.854 65.7295H107.698V58.1357C107.698 56.5107 108.979 55.3232 110.729 55.3232C111.222 55.3232 111.729 55.417 111.854 55.4482V53.5732C111.644 53.5576 111.159 53.542 110.886 53.542C109.448 53.542 108.198 54.3545 107.761 55.542H107.636V53.7295H105.854V65.7295Z" fill="black"/>
<path d="M114.29 65.7295H116.071V63.8857H116.29C116.696 64.542 117.478 65.9795 119.79 65.9795C122.79 65.9795 124.884 63.5732 124.884 59.7607C124.884 55.9795 122.79 53.5732 119.759 53.5732C117.415 53.5732 116.696 55.0107 116.29 55.6357H116.134V49.7295H114.29V65.7295ZM116.103 59.7295C116.103 57.042 117.29 55.2295 119.54 55.2295C121.884 55.2295 123.04 57.1982 123.04 59.7295C123.04 62.292 121.853 64.3232 119.54 64.3232C117.321 64.3232 116.103 62.4482 116.103 59.7295Z" fill="black"/>
<path d="M132.735 65.9795C135.173 65.9795 136.954 64.7607 137.517 62.9482L135.735 62.4482C135.267 63.6982 134.181 64.3232 132.735 64.3232C130.571 64.3232 129.079 62.9248 128.993 60.3545H137.704V59.5732C137.704 55.1045 135.048 53.5732 132.548 53.5732C129.298 53.5732 127.142 56.1357 127.142 59.8232C127.142 63.5107 129.267 65.9795 132.735 65.9795ZM128.993 58.7607C129.118 56.8936 130.438 55.2295 132.548 55.2295C134.548 55.2295 135.829 56.7295 135.829 58.7607H128.993Z" fill="black"/>
<path d="M140.509 65.7295H142.353V53.7295H140.509V65.7295ZM141.446 51.7295C142.165 51.7295 142.759 51.167 142.759 50.4795C142.759 49.792 142.165 49.2295 141.446 49.2295C140.728 49.2295 140.134 49.792 140.134 50.4795C140.134 51.167 140.728 51.7295 141.446 51.7295Z" fill="black"/>
<path d="M150.948 53.7295H148.386V50.8545H146.542V53.7295H144.729V55.292H146.542V62.792C146.542 64.8857 148.229 65.8857 149.792 65.8857C150.479 65.8857 150.917 65.7607 151.167 65.667L150.792 64.0107C150.636 64.042 150.386 64.1045 149.979 64.1045C149.167 64.1045 148.386 63.8545 148.386 62.292V55.292H150.948V53.7295Z" fill="black"/>
<path d="M162.007 56.417C161.429 54.7139 160.132 53.5732 157.757 53.5732C155.226 53.5732 153.351 55.0107 153.351 57.042C153.351 58.6982 154.335 59.8076 156.538 60.3232L158.538 60.792C159.749 61.0732 160.319 61.6514 160.319 62.4795C160.319 63.5107 159.226 64.3545 157.507 64.3545C155.999 64.3545 155.054 63.7061 154.726 62.417L152.976 62.8545C153.405 64.8936 155.085 65.9795 157.538 65.9795C160.327 65.9795 162.226 64.4561 162.226 62.3857C162.226 60.7139 161.179 59.6592 159.038 59.1357L157.257 58.6982C155.835 58.3467 155.194 57.8701 155.194 56.9482C155.194 55.917 156.288 55.167 157.757 55.167C159.366 55.167 160.03 56.0576 160.351 56.8857L162.007 56.417Z" fill="black"/>
<path d="M169.845 70.4795C172.72 70.4795 175.032 69.167 175.032 66.0732V53.7295H173.251V55.6357H173.063C172.657 55.0107 171.907 53.5732 169.563 53.5732C166.532 53.5732 164.438 55.9795 164.438 59.667C164.438 63.417 166.626 65.542 169.532 65.542C171.876 65.542 172.626 64.167 173.032 63.5107H173.188V65.9482C173.188 67.9482 171.782 68.8545 169.845 68.8545C167.665 68.8545 166.899 67.7061 166.407 67.042L164.938 68.0732C165.688 69.3311 167.165 70.4795 169.845 70.4795ZM169.782 63.8857C167.47 63.8857 166.282 62.1357 166.282 59.6357C166.282 57.1982 167.438 55.2295 169.782 55.2295C172.032 55.2295 173.22 57.042 173.22 59.6357C173.22 62.292 172.001 63.8857 169.782 63.8857Z" fill="black"/>
<path d="M178.407 65.7295H180.251V58.1357C180.251 56.5107 181.532 55.3232 183.282 55.3232C183.774 55.3232 184.282 55.417 184.407 55.4482V53.5732C184.196 53.5576 183.712 53.542 183.438 53.542C182.001 53.542 180.751 54.3545 180.313 55.542H180.188V53.7295H178.407V65.7295Z" fill="black"/>
<path d="M194.155 60.8232C194.155 63.0732 192.437 64.1045 191.062 64.1045C189.53 64.1045 188.437 62.9795 188.437 61.2295V53.7295H186.593V61.3545C186.593 64.417 188.218 65.8857 190.468 65.8857C192.28 65.8857 193.468 64.917 194.03 63.6982H194.155V65.7295H195.999V53.7295H194.155V60.8232Z" fill="black"/>
<path d="M199.376 70.2295H201.22V63.8857H201.376C201.782 64.542 202.563 65.9795 204.876 65.9795C207.876 65.9795 209.97 63.5732 209.97 59.7607C209.97 55.9795 207.876 53.5732 204.845 53.5732C202.501 53.5732 201.782 55.0107 201.376 55.6357H201.157V53.7295H199.376V70.2295ZM201.188 59.7295C201.188 57.042 202.376 55.2295 204.626 55.2295C206.97 55.2295 208.126 57.1982 208.126 59.7295C208.126 62.292 206.938 64.3232 204.626 64.3232C202.407 64.3232 201.188 62.4482 201.188 59.7295Z" fill="black"/>
<path d="M212.782 70.2295H214.626V63.8857H214.782C215.188 64.542 215.97 65.9795 218.282 65.9795C221.282 65.9795 223.376 63.5732 223.376 59.7607C223.376 55.9795 221.282 53.5732 218.251 53.5732C215.907 53.5732 215.188 55.0107 214.782 55.6357H214.563V53.7295H212.782V70.2295ZM214.595 59.7295C214.595 57.042 215.782 55.2295 218.032 55.2295C220.376 55.2295 221.532 57.1982 221.532 59.7295C221.532 62.292 220.345 64.3232 218.032 64.3232C215.813 64.3232 214.595 62.4482 214.595 59.7295Z" fill="black"/>
<path d="M231.22 65.9795C233.657 65.9795 235.438 64.7607 236.001 62.9482L234.22 62.4482C233.751 63.6982 232.665 64.3232 231.22 64.3232C229.056 64.3232 227.563 62.9248 227.478 60.3545H236.188V59.5732C236.188 55.1045 233.532 53.5732 231.032 53.5732C227.782 53.5732 225.626 56.1357 225.626 59.8232C225.626 63.5107 227.751 65.9795 231.22 65.9795ZM227.478 58.7607C227.603 56.8936 228.923 55.2295 231.032 55.2295C233.032 55.2295 234.313 56.7295 234.313 58.7607H227.478Z" fill="black"/>
<path d="M245.431 65.7295H247.368V60.542L249.368 58.292L254.931 65.7295H257.274L250.556 56.9482L257.274 49.7295H254.743L247.556 57.667H247.368V49.7295H245.431V65.7295Z" fill="black"/>
<path d="M259.532 65.7295H261.376V58.1357C261.376 56.5107 262.657 55.3232 264.407 55.3232C264.899 55.3232 265.407 55.417 265.532 55.4482V53.5732C265.321 53.5576 264.837 53.542 264.563 53.542C263.126 53.542 261.876 54.3545 261.438 55.542H261.313V53.7295H259.532V65.7295Z" fill="black"/>
<path d="M267.718 65.7295H269.562V53.7295H267.718V65.7295ZM268.655 51.7295C269.374 51.7295 269.968 51.167 269.968 50.4795C269.968 49.792 269.374 49.2295 268.655 49.2295C267.937 49.2295 267.343 49.792 267.343 50.4795C267.343 51.167 267.937 51.7295 268.655 51.7295Z" fill="black"/>
<path d="M278.157 53.7295H275.595V50.8545H273.751V53.7295H271.938V55.292H273.751V62.792C273.751 64.8857 275.438 65.8857 277.001 65.8857C277.688 65.8857 278.126 65.7607 278.376 65.667L278.001 64.0107C277.845 64.042 277.595 64.1045 277.188 64.1045C276.376 64.1045 275.595 63.8545 275.595 62.292V55.292H278.157V53.7295Z" fill="black"/>
<path d="M280.931 65.7295H282.774V53.7295H280.931V65.7295ZM281.868 51.7295C282.587 51.7295 283.181 51.167 283.181 50.4795C283.181 49.792 282.587 49.2295 281.868 49.2295C281.149 49.2295 280.556 49.792 280.556 50.4795C280.556 51.167 281.149 51.7295 281.868 51.7295Z" fill="black"/>
<path d="M294.651 56.417C294.073 54.7139 292.776 53.5732 290.401 53.5732C287.87 53.5732 285.995 55.0107 285.995 57.042C285.995 58.6982 286.979 59.8076 289.183 60.3232L291.183 60.792C292.394 61.0732 292.964 61.6514 292.964 62.4795C292.964 63.5107 291.87 64.3545 290.151 64.3545C288.644 64.3545 287.698 63.7061 287.37 62.417L285.62 62.8545C286.05 64.8936 287.729 65.9795 290.183 65.9795C292.972 65.9795 294.87 64.4561 294.87 62.3857C294.87 60.7139 293.823 59.6592 291.683 59.1357L289.901 58.6982C288.479 58.3467 287.839 57.8701 287.839 56.9482C287.839 55.917 288.933 55.167 290.401 55.167C292.011 55.167 292.675 56.0576 292.995 56.8857L294.651 56.417Z" fill="black"/>
<path d="M302.521 65.9795C305.177 65.9795 306.927 64.3545 307.239 62.2295H305.396C305.052 63.542 303.958 64.3232 302.521 64.3232C300.333 64.3232 298.927 62.5107 298.927 59.7295C298.927 57.0107 300.364 55.2295 302.521 55.2295C304.146 55.2295 305.114 56.2295 305.396 57.3232H307.239C306.927 55.0732 305.021 53.5732 302.489 53.5732C299.239 53.5732 297.083 56.1357 297.083 59.792C297.083 63.3857 299.146 65.9795 302.521 65.9795Z" fill="black"/>
<path d="M311.778 58.5107C311.778 56.417 313.114 55.2295 314.935 55.2295C316.669 55.2295 317.716 56.3232 317.716 58.2295V65.7295H319.56V58.1045C319.56 55.0186 317.919 53.5732 315.466 53.5732C313.575 53.5732 312.497 54.3623 311.935 55.6045H311.778V49.7295H309.935V65.7295H311.778V58.5107Z" fill="black"/>
<path d="M327.964 65.9795C330.401 65.9795 332.183 64.7607 332.745 62.9482L330.964 62.4482C330.495 63.6982 329.409 64.3232 327.964 64.3232C325.8 64.3232 324.308 62.9248 324.222 60.3545H332.933V59.5732C332.933 55.1045 330.276 53.5732 327.776 53.5732C324.526 53.5732 322.37 56.1357 322.37 59.8232C322.37 63.5107 324.495 65.9795 327.964 65.9795ZM324.222 58.7607C324.347 56.8936 325.667 55.2295 327.776 55.2295C329.776 55.2295 331.058 56.7295 331.058 58.7607H324.222Z" fill="black"/>
<path d="M344.112 49.7295H342.175V65.7295H344.112V49.7295Z" fill="black"/>
<path d="M349.591 58.5107C349.591 56.417 350.888 55.2295 352.653 55.2295C354.364 55.2295 355.403 56.3467 355.403 58.2295V65.7295H357.247V58.1045C357.247 55.042 355.614 53.5732 353.185 53.5732C351.372 53.5732 350.247 54.3857 349.685 55.6045H349.528V53.7295H347.747V65.7295H349.591V58.5107Z" fill="black"/>
<path d="M365.96 53.7295H363.272V52.5107C363.272 51.3232 363.772 50.6982 364.991 50.6982C365.522 50.6982 365.835 50.8232 366.022 50.8857L366.554 49.292C366.272 49.167 365.71 48.9795 364.804 48.9795C363.085 48.9795 361.429 50.0107 361.429 52.0732V53.7295H359.491V55.292H361.429V65.7295H363.272V55.292H365.96V53.7295Z" fill="black"/>
<path d="M368.544 65.7295H370.388V58.1357C370.388 56.5107 371.669 55.3232 373.419 55.3232C373.911 55.3232 374.419 55.417 374.544 55.4482V53.5732C374.333 53.5576 373.849 53.542 373.575 53.542C372.138 53.542 370.888 54.3545 370.45 55.542H370.325V53.7295H368.544V65.7295Z" fill="black"/>
<path d="M380.261 66.0107C382.354 66.0107 383.448 64.8857 383.823 64.1045H383.917V65.7295H385.761V57.8232C385.761 54.0107 382.854 53.5732 381.323 53.5732C379.511 53.5732 377.448 54.1982 376.511 56.3857L378.261 57.0107C378.667 56.1357 379.628 55.1982 381.386 55.1982C383.081 55.1982 383.917 56.0967 383.917 57.6357V57.6982C383.917 58.5889 383.011 58.5107 380.823 58.792C378.597 59.0811 376.167 59.5732 376.167 62.3232C376.167 64.667 377.979 66.0107 380.261 66.0107ZM380.542 64.3545C379.073 64.3545 378.011 63.6982 378.011 62.417C378.011 61.0107 379.292 60.5732 380.729 60.3857C381.511 60.292 383.604 60.0732 383.917 59.6982V61.3857C383.917 62.8857 382.729 64.3545 380.542 64.3545Z" fill="black"/>
<path d="M397.626 56.417C397.048 54.7139 395.751 53.5732 393.376 53.5732C390.845 53.5732 388.97 55.0107 388.97 57.042C388.97 58.6982 389.954 59.8076 392.157 60.3232L394.157 60.792C395.368 61.0732 395.938 61.6514 395.938 62.4795C395.938 63.5107 394.845 64.3545 393.126 64.3545C391.618 64.3545 390.673 63.7061 390.345 62.417L388.595 62.8545C389.024 64.8936 390.704 65.9795 393.157 65.9795C395.946 65.9795 397.845 64.4561 397.845 62.3857C397.845 60.7139 396.798 59.6592 394.657 59.1357L392.876 58.6982C391.454 58.3467 390.813 57.8701 390.813 56.9482C390.813 55.917 391.907 55.167 393.376 55.167C394.985 55.167 395.649 56.0576 395.97 56.8857L397.626 56.417Z" fill="black"/>
<path d="M405.839 53.7295H403.276V50.8545H401.433V53.7295H399.62V55.292H401.433V62.792C401.433 64.8857 403.12 65.8857 404.683 65.8857C405.37 65.8857 405.808 65.7607 406.058 65.667L405.683 64.0107C405.526 64.042 405.276 64.1045 404.87 64.1045C404.058 64.1045 403.276 63.8545 403.276 62.292V55.292H405.839V53.7295Z" fill="black"/>
<path d="M408.612 65.7295H410.456V58.1357C410.456 56.5107 411.737 55.3232 413.487 55.3232C413.979 55.3232 414.487 55.417 414.612 55.4482V53.5732C414.401 53.5576 413.917 53.542 413.644 53.542C412.206 53.542 410.956 54.3545 410.519 55.542H410.394V53.7295H408.612V65.7295Z" fill="black"/>
<path d="M424.36 60.8232C424.36 63.0732 422.642 64.1045 421.267 64.1045C419.735 64.1045 418.642 62.9795 418.642 61.2295V53.7295H416.798V61.3545C416.798 64.417 418.423 65.8857 420.673 65.8857C422.485 65.8857 423.673 64.917 424.235 63.6982H424.36V65.7295H426.204V53.7295H424.36V60.8232Z" fill="black"/>
<path d="M429.581 65.7295H431.425V61.2373L432.714 60.042L437.206 65.7295H439.55L434.104 58.8545L439.175 53.7295H436.894L431.644 59.0732H431.425V49.7295H429.581V65.7295Z" fill="black"/>
<path d="M446.767 53.7295H444.204V50.8545H442.36V53.7295H440.548V55.292H442.36V62.792C442.36 64.8857 444.048 65.8857 445.61 65.8857C446.298 65.8857 446.735 65.7607 446.985 65.667L446.61 64.0107C446.454 64.042 446.204 64.1045 445.798 64.1045C444.985 64.1045 444.204 63.8545 444.204 62.292V55.292H446.767V53.7295Z" fill="black"/>
<path d="M457.103 60.8232C457.103 63.0732 455.384 64.1045 454.009 64.1045C452.478 64.1045 451.384 62.9795 451.384 61.2295V53.7295H449.54V61.3545C449.54 64.417 451.165 65.8857 453.415 65.8857C455.228 65.8857 456.415 64.917 456.978 63.6982H457.103V65.7295H458.946V53.7295H457.103V60.8232Z" fill="black"/>
<path d="M462.323 65.7295H464.167V58.1357C464.167 56.5107 465.448 55.3232 467.198 55.3232C467.69 55.3232 468.198 55.417 468.323 55.4482V53.5732C468.112 53.5576 467.628 53.542 467.354 53.542C465.917 53.542 464.667 54.3545 464.229 55.542H464.104V53.7295H462.323V65.7295Z" fill="black"/>
<path d="M475.175 65.9795C477.612 65.9795 479.394 64.7607 479.956 62.9482L478.175 62.4482C477.706 63.6982 476.62 64.3232 475.175 64.3232C473.011 64.3232 471.519 62.9248 471.433 60.3545H480.144V59.5732C480.144 55.1045 477.487 53.5732 474.987 53.5732C471.737 53.5732 469.581 56.1357 469.581 59.8232C469.581 63.5107 471.706 65.9795 475.175 65.9795ZM471.433 58.7607C471.558 56.8936 472.878 55.2295 474.987 55.2295C476.987 55.2295 478.269 56.7295 478.269 58.7607H471.433Z" fill="black"/>
<path d="M484.792 58.5107C484.792 56.417 486.089 55.2295 487.854 55.2295C489.565 55.2295 490.604 56.3467 490.604 58.2295V65.7295H492.448V58.1045C492.448 55.042 490.815 53.5732 488.386 53.5732C486.573 53.5732 485.448 54.3857 484.886 55.6045H484.729V53.7295H482.948V65.7295H484.792V58.5107Z" fill="black"/>
</svg>
