<svg width="493" height="82" viewBox="0 0 493 82" fill="none" xmlns="http://www.w3.org/2000/svg">
<path d="M0.663086 29.7104V25.472C0.663086 21.916 2.55151 18.6274 5.62292 16.8351L31.609 1.67075C34.7234 -0.146759 38.575 -0.146759 41.6893 1.67075L67.6755 16.8351C70.7468 18.6274 72.6354 21.916 72.6354 25.472V30.2198L41.1544 12.2756C38.0848 10.5258 34.3198 10.5258 31.2504 12.2756L0.663086 29.7104Z" fill="black"/>
<path d="M23.0432 34.826C22.9271 33.688 22.8459 32.6023 22.7893 31.6165C22.6334 28.9016 24.8423 26.7295 27.5616 26.7295H45.7645C48.4839 26.7295 50.6927 28.9016 50.5369 31.6165C50.472 32.7444 50.3751 34.0031 50.2306 35.3214L72.6354 48.0921V36.1443L41.1544 18.2C38.0848 16.4504 34.3198 16.4504 31.2504 18.2L0.663086 35.635V47.5827L23.0432 34.826Z" fill="black"/>
<path d="M23.8649 40.2822L0.663086 53.5073V55.9869C0.663086 58.622 1.7002 61.1104 3.48706 62.9518L27.6219 49.1949C26.9462 48.2816 26.359 47.382 25.9229 46.5381C25.0021 44.7563 24.3403 42.5584 23.8649 40.2822Z" fill="black"/>
<path d="M30.9957 53.1963C31.8484 54.1134 32.6979 54.9768 33.4698 55.7365C35.2563 57.4948 38.0698 57.4948 39.8563 55.7365C40.5315 55.072 41.2659 54.3282 42.0099 53.5387L64.6029 66.4168L53.7601 72.7442L41.0283 65.729C38.0239 64.0736 34.3809 64.0736 31.3765 65.729L19.1044 72.4909L8.25391 66.1591L30.9957 53.1963Z" fill="black"/>
<path d="M45.428 49.5626C46.2201 48.5235 46.9087 47.4951 47.4033 46.5381C48.2607 44.8786 48.8938 42.8585 49.3607 40.7501L72.6354 54.0167V55.9869C72.6354 58.7793 71.4708 61.4067 69.4835 63.2744L45.428 49.5626Z" fill="black"/>
<path d="M24.1521 75.4367L31.609 79.7883C34.7234 81.6057 38.575 81.6057 41.6893 79.7883L48.7123 75.6899L41.0283 71.456C38.0239 69.8006 34.3809 69.8006 31.3765 71.456L24.1521 75.4367Z" fill="black"/>
<path d="M95.5991 40.7297L98.4031 32.6459H110.335L113.124 40.7297H118.016L107.024 10.1842H101.699L90.707 40.7297H95.5991ZM99.7454 28.768L104.25 15.7325H104.488L108.993 28.768H99.7454Z" fill="black"/>
<path d="M141.663 19.8341H146.391C145.362 13.8831 140.276 9.7666 133.684 9.7666C125.779 9.7666 120.007 15.7176 120.007 25.4719C120.007 35.1366 125.615 41.1473 133.893 41.1473C141.305 41.1473 146.6 36.2851 146.6 28.5741V25.099H134.594V28.9023H142.141C142.036 33.8241 138.785 36.9413 133.893 36.9413C128.509 36.9413 124.586 32.8696 124.586 25.442C124.586 18.0443 128.538 13.9726 133.714 13.9726C137.771 13.9726 140.515 16.2098 141.663 19.8341Z" fill="black"/>
<path d="M161.47 40.7297H167.928V32.0493L171.105 28.1714L179.472 40.7297H187.198L175.729 23.8611L187.064 10.1842H179.323L168.331 23.6523H167.928V10.1842H161.47V40.7297Z" fill="black"/>
<path d="M190.427 40.7297H196.885V29.9015H201.598L207.385 40.7297H214.515L208.027 28.8575C211.502 27.366 213.426 24.3383 213.426 20.1622C213.426 14.0919 209.414 10.1842 202.478 10.1842H190.427V40.7297ZM196.885 24.7112V15.464H201.24C204.969 15.464 206.774 17.1196 206.774 20.1622C206.774 23.1899 204.969 24.7112 201.27 24.7112H196.885Z" fill="black"/>
<path d="M224.448 10.1842H217.99V40.7297H224.448V10.1842Z" fill="black"/>
<path d="M228.598 15.5088H237.949V40.7297H244.333V15.5088H253.684V10.1842H228.598V15.5088Z" fill="black"/>
<path d="M264.274 10.1842H257.816V40.7297H264.274V10.1842Z" fill="black"/>
<path d="M286.158 18.969H292.347C292.258 13.5251 287.783 9.7666 280.982 9.7666C274.286 9.7666 269.379 13.4655 269.408 19.0138C269.393 23.518 272.57 26.0983 277.731 27.3362L281.057 28.1714C284.383 28.9768 286.232 29.9314 286.247 31.9896C286.232 34.2268 284.114 35.7481 280.833 35.7481C277.477 35.7481 275.061 34.197 274.852 31.1395H268.603C268.767 37.7467 273.495 41.1622 280.908 41.1622C288.365 41.1622 292.75 37.5976 292.765 32.0045C292.75 26.9186 288.917 24.219 283.607 23.0258L280.863 22.3696C278.208 21.7581 275.986 20.7737 276.031 18.5812C276.031 16.6125 277.776 15.1657 280.938 15.1657C284.025 15.1657 285.919 16.5677 286.158 18.969Z" fill="black"/>
<path d="M92.2568 65.7295L93.8662 61.1982H100.335L101.944 65.7295H103.976L98.1006 49.7295H96.1006L90.2256 65.7295H92.2568ZM94.4756 59.4795L97.0381 52.2607H97.1631L99.7256 59.4795H94.4756Z" fill="black"/>
<path d="M106.218 65.7295H108.062V58.1357C108.062 56.5107 109.343 55.3232 111.093 55.3232C111.585 55.3232 112.093 55.417 112.218 55.4482V53.5732C112.007 53.5576 111.522 53.542 111.249 53.542C109.812 53.542 108.562 54.3545 108.124 55.542H107.999V53.7295H106.218V65.7295Z" fill="black"/>
<path d="M114.653 65.7295H116.435V63.8857H116.653C117.06 64.542 117.841 65.9795 120.153 65.9795C123.153 65.9795 125.247 63.5732 125.247 59.7607C125.247 55.9795 123.153 53.5732 120.122 53.5732C117.778 53.5732 117.06 55.0107 116.653 55.6357H116.497V49.7295H114.653V65.7295ZM116.466 59.7295C116.466 57.042 117.653 55.2295 119.903 55.2295C122.247 55.2295 123.403 57.1982 123.403 59.7295C123.403 62.292 122.216 64.3232 119.903 64.3232C117.685 64.3232 116.466 62.4482 116.466 59.7295Z" fill="black"/>
<path d="M133.099 65.9795C135.536 65.9795 137.317 64.7607 137.88 62.9482L136.099 62.4482C135.63 63.6982 134.544 64.3232 133.099 64.3232C130.935 64.3232 129.442 62.9248 129.356 60.3545H138.067V59.5732C138.067 55.1045 135.411 53.5732 132.911 53.5732C129.661 53.5732 127.505 56.1357 127.505 59.8232C127.505 63.5107 129.63 65.9795 133.099 65.9795ZM129.356 58.7607C129.481 56.8936 130.802 55.2295 132.911 55.2295C134.911 55.2295 136.192 56.7295 136.192 58.7607H129.356Z" fill="black"/>
<path d="M140.872 65.7295H142.716V53.7295H140.872V65.7295ZM141.81 51.7295C142.528 51.7295 143.122 51.167 143.122 50.4795C143.122 49.792 142.528 49.2295 141.81 49.2295C141.091 49.2295 140.497 49.792 140.497 50.4795C140.497 51.167 141.091 51.7295 141.81 51.7295Z" fill="black"/>
<path d="M151.312 53.7295H148.749V50.8545H146.905V53.7295H145.093V55.292H146.905V62.792C146.905 64.8857 148.593 65.8857 150.155 65.8857C150.843 65.8857 151.28 65.7607 151.53 65.667L151.155 64.0107C150.999 64.042 150.749 64.1045 150.343 64.1045C149.53 64.1045 148.749 63.8545 148.749 62.292V55.292H151.312V53.7295Z" fill="black"/>
<path d="M162.37 56.417C161.792 54.7139 160.495 53.5732 158.12 53.5732C155.589 53.5732 153.714 55.0107 153.714 57.042C153.714 58.6982 154.698 59.8076 156.901 60.3232L158.901 60.792C160.112 61.0732 160.683 61.6514 160.683 62.4795C160.683 63.5107 159.589 64.3545 157.87 64.3545C156.362 64.3545 155.417 63.7061 155.089 62.417L153.339 62.8545C153.769 64.8936 155.448 65.9795 157.901 65.9795C160.69 65.9795 162.589 64.4561 162.589 62.3857C162.589 60.7139 161.542 59.6592 159.401 59.1357L157.62 58.6982C156.198 58.3467 155.558 57.8701 155.558 56.9482C155.558 55.917 156.651 55.167 158.12 55.167C159.729 55.167 160.394 56.0576 160.714 56.8857L162.37 56.417Z" fill="black"/>
<path d="M170.208 70.4795C173.083 70.4795 175.396 69.167 175.396 66.0732V53.7295H173.614V55.6357H173.427C173.021 55.0107 172.271 53.5732 169.927 53.5732C166.896 53.5732 164.802 55.9795 164.802 59.667C164.802 63.417 166.989 65.542 169.896 65.542C172.239 65.542 172.989 64.167 173.396 63.5107H173.552V65.9482C173.552 67.9482 172.146 68.8545 170.208 68.8545C168.028 68.8545 167.263 67.7061 166.771 67.042L165.302 68.0732C166.052 69.3311 167.528 70.4795 170.208 70.4795ZM170.146 63.8857C167.833 63.8857 166.646 62.1357 166.646 59.6357C166.646 57.1982 167.802 55.2295 170.146 55.2295C172.396 55.2295 173.583 57.042 173.583 59.6357C173.583 62.292 172.364 63.8857 170.146 63.8857Z" fill="black"/>
<path d="M178.771 65.7295H180.614V58.1357C180.614 56.5107 181.896 55.3232 183.646 55.3232C184.138 55.3232 184.646 55.417 184.771 55.4482V53.5732C184.56 53.5576 184.075 53.542 183.802 53.542C182.364 53.542 181.114 54.3545 180.677 55.542H180.552V53.7295H178.771V65.7295Z" fill="black"/>
<path d="M194.519 60.8232C194.519 63.0732 192.8 64.1045 191.425 64.1045C189.894 64.1045 188.8 62.9795 188.8 61.2295V53.7295H186.956V61.3545C186.956 64.417 188.581 65.8857 190.831 65.8857C192.644 65.8857 193.831 64.917 194.394 63.6982H194.519V65.7295H196.362V53.7295H194.519V60.8232Z" fill="black"/>
<path d="M199.739 70.2295H201.583V63.8857H201.739C202.146 64.542 202.927 65.9795 205.239 65.9795C208.239 65.9795 210.333 63.5732 210.333 59.7607C210.333 55.9795 208.239 53.5732 205.208 53.5732C202.864 53.5732 202.146 55.0107 201.739 55.6357H201.521V53.7295H199.739V70.2295ZM201.552 59.7295C201.552 57.042 202.739 55.2295 204.989 55.2295C207.333 55.2295 208.489 57.1982 208.489 59.7295C208.489 62.292 207.302 64.3232 204.989 64.3232C202.771 64.3232 201.552 62.4482 201.552 59.7295Z" fill="black"/>
<path d="M213.146 70.2295H214.989V63.8857H215.146C215.552 64.542 216.333 65.9795 218.646 65.9795C221.646 65.9795 223.739 63.5732 223.739 59.7607C223.739 55.9795 221.646 53.5732 218.614 53.5732C216.271 53.5732 215.552 55.0107 215.146 55.6357H214.927V53.7295H213.146V70.2295ZM214.958 59.7295C214.958 57.042 216.146 55.2295 218.396 55.2295C220.739 55.2295 221.896 57.1982 221.896 59.7295C221.896 62.292 220.708 64.3232 218.396 64.3232C216.177 64.3232 214.958 62.4482 214.958 59.7295Z" fill="black"/>
<path d="M231.583 65.9795C234.021 65.9795 235.802 64.7607 236.364 62.9482L234.583 62.4482C234.114 63.6982 233.028 64.3232 231.583 64.3232C229.419 64.3232 227.927 62.9248 227.841 60.3545H236.552V59.5732C236.552 55.1045 233.896 53.5732 231.396 53.5732C228.146 53.5732 225.989 56.1357 225.989 59.8232C225.989 63.5107 228.114 65.9795 231.583 65.9795ZM227.841 58.7607C227.966 56.8936 229.286 55.2295 231.396 55.2295C233.396 55.2295 234.677 56.7295 234.677 58.7607H227.841Z" fill="black"/>
<path d="M245.794 65.7295H247.731V60.542L249.731 58.292L255.294 65.7295H257.638L250.919 56.9482L257.638 49.7295H255.106L247.919 57.667H247.731V49.7295H245.794V65.7295Z" fill="black"/>
<path d="M259.896 65.7295H261.739V58.1357C261.739 56.5107 263.021 55.3232 264.771 55.3232C265.263 55.3232 265.771 55.417 265.896 55.4482V53.5732C265.685 53.5576 265.2 53.542 264.927 53.542C263.489 53.542 262.239 54.3545 261.802 55.542H261.677V53.7295H259.896V65.7295Z" fill="black"/>
<path d="M268.081 65.7295H269.925V53.7295H268.081V65.7295ZM269.019 51.7295C269.737 51.7295 270.331 51.167 270.331 50.4795C270.331 49.792 269.737 49.2295 269.019 49.2295C268.3 49.2295 267.706 49.792 267.706 50.4795C267.706 51.167 268.3 51.7295 269.019 51.7295Z" fill="black"/>
<path d="M278.521 53.7295H275.958V50.8545H274.114V53.7295H272.302V55.292H274.114V62.792C274.114 64.8857 275.802 65.8857 277.364 65.8857C278.052 65.8857 278.489 65.7607 278.739 65.667L278.364 64.0107C278.208 64.042 277.958 64.1045 277.552 64.1045C276.739 64.1045 275.958 63.8545 275.958 62.292V55.292H278.521V53.7295Z" fill="black"/>
<path d="M281.294 65.7295H283.138V53.7295H281.294V65.7295ZM282.231 51.7295C282.95 51.7295 283.544 51.167 283.544 50.4795C283.544 49.792 282.95 49.2295 282.231 49.2295C281.513 49.2295 280.919 49.792 280.919 50.4795C280.919 51.167 281.513 51.7295 282.231 51.7295Z" fill="black"/>
<path d="M295.015 56.417C294.437 54.7139 293.14 53.5732 290.765 53.5732C288.233 53.5732 286.358 55.0107 286.358 57.042C286.358 58.6982 287.343 59.8076 289.546 60.3232L291.546 60.792C292.757 61.0732 293.327 61.6514 293.327 62.4795C293.327 63.5107 292.233 64.3545 290.515 64.3545C289.007 64.3545 288.062 63.7061 287.733 62.417L285.983 62.8545C286.413 64.8936 288.093 65.9795 290.546 65.9795C293.335 65.9795 295.233 64.4561 295.233 62.3857C295.233 60.7139 294.187 59.6592 292.046 59.1357L290.265 58.6982C288.843 58.3467 288.202 57.8701 288.202 56.9482C288.202 55.917 289.296 55.167 290.765 55.167C292.374 55.167 293.038 56.0576 293.358 56.8857L295.015 56.417Z" fill="black"/>
<path d="M302.884 65.9795C305.54 65.9795 307.29 64.3545 307.603 62.2295H305.759C305.415 63.542 304.321 64.3232 302.884 64.3232C300.696 64.3232 299.29 62.5107 299.29 59.7295C299.29 57.0107 300.728 55.2295 302.884 55.2295C304.509 55.2295 305.478 56.2295 305.759 57.3232H307.603C307.29 55.0732 305.384 53.5732 302.853 53.5732C299.603 53.5732 297.446 56.1357 297.446 59.792C297.446 63.3857 299.509 65.9795 302.884 65.9795Z" fill="black"/>
<path d="M312.142 58.5107C312.142 56.417 313.478 55.2295 315.298 55.2295C317.032 55.2295 318.079 56.3232 318.079 58.2295V65.7295H319.923V58.1045C319.923 55.0186 318.282 53.5732 315.829 53.5732C313.938 53.5732 312.86 54.3623 312.298 55.6045H312.142V49.7295H310.298V65.7295H312.142V58.5107Z" fill="black"/>
<path d="M328.327 65.9795C330.765 65.9795 332.546 64.7607 333.108 62.9482L331.327 62.4482C330.858 63.6982 329.772 64.3232 328.327 64.3232C326.163 64.3232 324.671 62.9248 324.585 60.3545H333.296V59.5732C333.296 55.1045 330.64 53.5732 328.14 53.5732C324.89 53.5732 322.733 56.1357 322.733 59.8232C322.733 63.5107 324.858 65.9795 328.327 65.9795ZM324.585 58.7607C324.71 56.8936 326.03 55.2295 328.14 55.2295C330.14 55.2295 331.421 56.7295 331.421 58.7607H324.585Z" fill="black"/>
<path d="M344.476 49.7295H342.538V65.7295H344.476V49.7295Z" fill="black"/>
<path d="M349.954 58.5107C349.954 56.417 351.251 55.2295 353.017 55.2295C354.728 55.2295 355.767 56.3467 355.767 58.2295V65.7295H357.61V58.1045C357.61 55.042 355.978 53.5732 353.548 53.5732C351.735 53.5732 350.61 54.3857 350.048 55.6045H349.892V53.7295H348.11V65.7295H349.954V58.5107Z" fill="black"/>
<path d="M366.323 53.7295H363.636V52.5107C363.636 51.3232 364.136 50.6982 365.354 50.6982C365.886 50.6982 366.198 50.8232 366.386 50.8857L366.917 49.292C366.636 49.167 366.073 48.9795 365.167 48.9795C363.448 48.9795 361.792 50.0107 361.792 52.0732V53.7295H359.854V55.292H361.792V65.7295H363.636V55.292H366.323V53.7295Z" fill="black"/>
<path d="M368.907 65.7295H370.751V58.1357C370.751 56.5107 372.032 55.3232 373.782 55.3232C374.274 55.3232 374.782 55.417 374.907 55.4482V53.5732C374.696 53.5576 374.212 53.542 373.938 53.542C372.501 53.542 371.251 54.3545 370.813 55.542H370.688V53.7295H368.907V65.7295Z" fill="black"/>
<path d="M380.624 66.0107C382.718 66.0107 383.812 64.8857 384.187 64.1045H384.28V65.7295H386.124V57.8232C386.124 54.0107 383.218 53.5732 381.687 53.5732C379.874 53.5732 377.812 54.1982 376.874 56.3857L378.624 57.0107C379.03 56.1357 379.991 55.1982 381.749 55.1982C383.444 55.1982 384.28 56.0967 384.28 57.6357V57.6982C384.28 58.5889 383.374 58.5107 381.187 58.792C378.96 59.0811 376.53 59.5732 376.53 62.3232C376.53 64.667 378.343 66.0107 380.624 66.0107ZM380.905 64.3545C379.437 64.3545 378.374 63.6982 378.374 62.417C378.374 61.0107 379.655 60.5732 381.093 60.3857C381.874 60.292 383.968 60.0732 384.28 59.6982V61.3857C384.28 62.8857 383.093 64.3545 380.905 64.3545Z" fill="black"/>
<path d="M397.989 56.417C397.411 54.7139 396.114 53.5732 393.739 53.5732C391.208 53.5732 389.333 55.0107 389.333 57.042C389.333 58.6982 390.317 59.8076 392.521 60.3232L394.521 60.792C395.731 61.0732 396.302 61.6514 396.302 62.4795C396.302 63.5107 395.208 64.3545 393.489 64.3545C391.981 64.3545 391.036 63.7061 390.708 62.417L388.958 62.8545C389.388 64.8936 391.067 65.9795 393.521 65.9795C396.31 65.9795 398.208 64.4561 398.208 62.3857C398.208 60.7139 397.161 59.6592 395.021 59.1357L393.239 58.6982C391.817 58.3467 391.177 57.8701 391.177 56.9482C391.177 55.917 392.271 55.167 393.739 55.167C395.349 55.167 396.013 56.0576 396.333 56.8857L397.989 56.417Z" fill="black"/>
<path d="M406.202 53.7295H403.64V50.8545H401.796V53.7295H399.983V55.292H401.796V62.792C401.796 64.8857 403.483 65.8857 405.046 65.8857C405.733 65.8857 406.171 65.7607 406.421 65.667L406.046 64.0107C405.89 64.042 405.64 64.1045 405.233 64.1045C404.421 64.1045 403.64 63.8545 403.64 62.292V55.292H406.202V53.7295Z" fill="black"/>
<path d="M408.976 65.7295H410.819V58.1357C410.819 56.5107 412.101 55.3232 413.851 55.3232C414.343 55.3232 414.851 55.417 414.976 55.4482V53.5732C414.765 53.5576 414.28 53.542 414.007 53.542C412.569 53.542 411.319 54.3545 410.882 55.542H410.757V53.7295H408.976V65.7295Z" fill="black"/>
<path d="M424.724 60.8232C424.724 63.0732 423.005 64.1045 421.63 64.1045C420.099 64.1045 419.005 62.9795 419.005 61.2295V53.7295H417.161V61.3545C417.161 64.417 418.786 65.8857 421.036 65.8857C422.849 65.8857 424.036 64.917 424.599 63.6982H424.724V65.7295H426.567V53.7295H424.724V60.8232Z" fill="black"/>
<path d="M429.944 65.7295H431.788V61.2373L433.077 60.042L437.569 65.7295H439.913L434.468 58.8545L439.538 53.7295H437.257L432.007 59.0732H431.788V49.7295H429.944V65.7295Z" fill="black"/>
<path d="M447.13 53.7295H444.567V50.8545H442.724V53.7295H440.911V55.292H442.724V62.792C442.724 64.8857 444.411 65.8857 445.974 65.8857C446.661 65.8857 447.099 65.7607 447.349 65.667L446.974 64.0107C446.817 64.042 446.567 64.1045 446.161 64.1045C445.349 64.1045 444.567 63.8545 444.567 62.292V55.292H447.13V53.7295Z" fill="black"/>
<path d="M457.466 60.8232C457.466 63.0732 455.747 64.1045 454.372 64.1045C452.841 64.1045 451.747 62.9795 451.747 61.2295V53.7295H449.903V61.3545C449.903 64.417 451.528 65.8857 453.778 65.8857C455.591 65.8857 456.778 64.917 457.341 63.6982H457.466V65.7295H459.31V53.7295H457.466V60.8232Z" fill="black"/>
<path d="M462.687 65.7295H464.53V58.1357C464.53 56.5107 465.812 55.3232 467.562 55.3232C468.054 55.3232 468.562 55.417 468.687 55.4482V53.5732C468.476 53.5576 467.991 53.542 467.718 53.542C466.28 53.542 465.03 54.3545 464.593 55.542H464.468V53.7295H462.687V65.7295Z" fill="black"/>
<path d="M475.538 65.9795C477.976 65.9795 479.757 64.7607 480.319 62.9482L478.538 62.4482C478.069 63.6982 476.983 64.3232 475.538 64.3232C473.374 64.3232 471.882 62.9248 471.796 60.3545H480.507V59.5732C480.507 55.1045 477.851 53.5732 475.351 53.5732C472.101 53.5732 469.944 56.1357 469.944 59.8232C469.944 63.5107 472.069 65.9795 475.538 65.9795ZM471.796 58.7607C471.921 56.8936 473.241 55.2295 475.351 55.2295C477.351 55.2295 478.632 56.7295 478.632 58.7607H471.796Z" fill="black"/>
<path d="M485.155 58.5107C485.155 56.417 486.452 55.2295 488.218 55.2295C489.929 55.2295 490.968 56.3467 490.968 58.2295V65.7295H492.812V58.1045C492.812 55.042 491.179 53.5732 488.749 53.5732C486.937 53.5732 485.812 54.3857 485.249 55.6045H485.093V53.7295H483.312V65.7295H485.155V58.5107Z" fill="black"/>
</svg>
