<svg width="293" height="82" viewBox="0 0 293 82" fill="none" xmlns="http://www.w3.org/2000/svg">
<path d="M0.3125 29.7099V25.4715C0.3125 21.9155 2.20093 18.6269 5.27234 16.8346L31.2584 1.67026C34.3728 -0.147247 38.2244 -0.147247 41.3387 1.67026L67.325 16.8346C70.3962 18.6269 72.2848 21.9155 72.2848 25.4715V30.2193L40.8038 12.2751C37.7343 10.5254 33.9692 10.5254 30.8998 12.2751L0.3125 29.7099Z" fill="white"/>
<path d="M22.6926 34.8255C22.5765 33.6875 22.4954 32.6018 22.4387 31.6161C22.2828 28.9011 24.4917 26.729 27.2111 26.729H45.4139C48.1333 26.729 50.3422 28.9011 50.1863 31.6161C50.1215 32.7439 50.0245 34.0027 49.88 35.3209L72.2848 48.0916V36.1438L40.8038 18.1996C37.7343 16.4499 33.9692 16.4499 30.8998 18.1996L0.3125 35.6345V47.5822L22.6926 34.8255Z" fill="white"/>
<path d="M23.5143 40.2817L0.3125 53.5068V55.9864C0.3125 58.6216 1.34961 61.11 3.13647 62.9513L27.2714 49.1944C26.5956 48.2811 26.0084 47.3816 25.5723 46.5376C24.6515 44.7558 23.9897 42.558 23.5143 40.2817Z" fill="white"/>
<path d="M30.6451 53.1958C31.4978 54.1129 32.3473 54.9763 33.1193 55.7361C34.9058 57.4944 37.7192 57.4944 39.5057 55.7361C40.1809 55.0715 40.9153 54.3277 41.6593 53.5382L64.2523 66.4164L53.4095 72.7437L40.6777 65.7285C37.6733 64.0731 34.0303 64.0731 31.0259 65.7285L18.7538 72.4904L7.90332 66.1587L30.6451 53.1958Z" fill="white"/>
<path d="M45.0774 49.5621C45.8695 48.523 46.5581 47.4946 47.0527 46.5376C47.9102 44.8781 48.5432 42.858 49.0101 40.7496L72.2848 54.0162V55.9864C72.2848 58.7788 71.1202 61.4062 69.1329 63.2739L45.0774 49.5621Z" fill="white"/>
<path d="M23.8015 75.4362L31.2584 79.7878C34.3728 81.6052 38.2244 81.6052 41.3387 79.7878L48.3617 75.6894L40.6777 71.4555C37.6733 69.8001 34.0303 69.8001 31.0259 71.4555L23.8015 75.4362Z" fill="white"/>
<path d="M95.2485 56.2292L98.0525 48.1454H109.984L112.773 56.2292H117.665L106.673 25.6837H101.349L90.3564 56.2292H95.2485ZM99.3948 44.2675L103.899 31.232H104.138L108.642 44.2675H99.3948Z" fill="white"/>
<path d="M141.313 35.3336H146.041C145.012 29.3826 139.926 25.2661 133.333 25.2661C125.429 25.2661 119.657 31.2171 119.657 40.9714C119.657 50.6361 125.264 56.6468 133.542 56.6468C140.955 56.6468 146.25 51.7846 146.25 44.0736V40.5985H134.243V44.4018H141.79C141.686 49.3236 138.434 52.4408 133.542 52.4408C128.158 52.4408 124.235 48.3691 124.235 40.9415C124.235 33.5438 128.188 29.4721 133.363 29.4721C137.42 29.4721 140.164 31.7093 141.313 35.3336Z" fill="white"/>
<path d="M161.12 56.2292H167.578V47.5488L170.755 43.6709L179.122 56.2292H186.848L175.378 39.3606L186.713 25.6837H178.973L167.98 39.1518H167.578V25.6837H161.12V56.2292Z" fill="white"/>
<path d="M190.077 56.2292H196.535V45.4011H201.248L207.035 56.2292H214.164L207.676 44.357C211.151 42.8655 213.075 39.8378 213.075 35.6617C213.075 29.5914 209.063 25.6837 202.128 25.6837H190.077V56.2292ZM196.535 40.2107V30.9636H200.89C204.619 30.9636 206.423 32.6191 206.423 35.6617C206.423 38.6894 204.619 40.2107 200.92 40.2107H196.535Z" fill="white"/>
<path d="M224.097 25.6837H217.639V56.2292H224.097V25.6837Z" fill="white"/>
<path d="M228.247 31.0083H237.599V56.2292H243.982V31.0083H253.334V25.6837H228.247V31.0083Z" fill="white"/>
<path d="M263.923 25.6837H257.465V56.2292H263.923V25.6837Z" fill="white"/>
<path d="M285.807 34.4685H291.997C291.907 29.0246 287.433 25.2661 280.632 25.2661C273.935 25.2661 269.028 28.965 269.058 34.5133C269.043 39.0175 272.22 41.5978 277.38 42.8357L280.706 43.6709C284.032 44.4763 285.882 45.4309 285.897 47.4891C285.882 49.7263 283.764 51.2476 280.483 51.2476C277.127 51.2476 274.711 49.6965 274.502 46.639H268.252C268.416 53.2462 273.144 56.6617 280.557 56.6617C288.014 56.6617 292.399 53.0971 292.414 47.504C292.399 42.4181 288.566 39.7185 283.257 38.5253L280.512 37.8691C277.858 37.2576 275.635 36.2732 275.68 34.0807C275.68 32.112 277.425 30.6653 280.587 30.6653C283.674 30.6653 285.568 32.0672 285.807 34.4685Z" fill="white"/>
</svg>
