<svg width="339" height="133" viewBox="0 0 339 133" fill="none" xmlns="http://www.w3.org/2000/svg">
<path d="M0.663086 29.7104V25.472C0.663086 21.916 2.55157 18.6274 5.62292 16.8351L31.609 1.67075C34.7234 -0.146759 38.575 -0.146759 41.6893 1.67075L67.6755 16.8351C70.7468 18.6274 72.6353 21.916 72.6353 25.472V30.2198L41.1544 12.2756C38.0849 10.5258 34.3199 10.5258 31.2503 12.2756L0.663086 29.7104Z" fill="black"/>
<path d="M23.0432 34.826C22.9272 33.688 22.8459 32.6023 22.7894 31.6165C22.6335 28.9016 24.8422 26.7295 27.5617 26.7295H45.7645C48.4839 26.7295 50.6927 28.9016 50.5368 31.6165C50.472 32.7444 50.3751 34.0031 50.2306 35.3214L72.6353 48.0921V36.1443L41.1544 18.2C38.0849 16.4504 34.3199 16.4504 31.2503 18.2L0.663086 35.635V47.5827L23.0432 34.826Z" fill="black"/>
<path d="M23.8649 40.2822L0.663086 53.5073V55.9869C0.663086 58.622 1.70013 61.1104 3.48712 62.9518L27.6219 49.1949C26.946 48.2816 26.3591 47.382 25.9229 46.5381C25.0021 44.7563 24.3403 42.5584 23.8649 40.2822Z" fill="black"/>
<path d="M30.9958 53.1963C31.8484 54.1134 32.6979 54.9768 33.4698 55.7365C35.2563 57.4948 38.0699 57.4948 39.8563 55.7365C40.5314 55.072 41.2659 54.3282 42.0098 53.5387L64.6029 66.4168L53.7601 72.7442L41.0283 65.729C38.024 64.0736 34.3808 64.0736 31.3765 65.729L19.1043 72.4909L8.25397 66.1591L30.9958 53.1963Z" fill="black"/>
<path d="M45.428 49.5626C46.2201 48.5235 46.9087 47.4951 47.4033 46.5381C48.2607 44.8786 48.8937 42.8585 49.3607 40.7501L72.6353 54.0167V55.9869C72.6353 58.7793 71.4708 61.4067 69.4835 63.2744L45.428 49.5626Z" fill="black"/>
<path d="M24.1521 75.4367L31.6091 79.7883C34.7234 81.6057 38.575 81.6057 41.6894 79.7883L48.7123 75.6899L41.0283 71.456C38.024 69.8006 34.3808 69.8006 31.3765 71.456L24.1521 75.4367Z" fill="black"/>
<path d="M95.5991 37.7297L98.4031 29.6459H110.335L113.124 37.7297H118.016L107.024 7.18422H101.699L90.707 37.7297H95.5991ZM99.7454 25.768L104.25 12.7325H104.488L108.993 25.768H99.7454Z" fill="black"/>
<path d="M141.663 16.8341H146.391C145.362 10.8831 140.276 6.7666 133.684 6.7666C125.779 6.7666 120.007 12.7176 120.007 22.4719C120.007 32.1366 125.615 38.1473 133.893 38.1473C141.305 38.1473 146.6 33.2851 146.6 25.5741V22.099H134.594V25.9023H142.141C142.036 30.8241 138.785 33.9413 133.893 33.9413C128.509 33.9413 124.586 29.8696 124.586 22.442C124.586 15.0443 128.538 10.9726 133.714 10.9726C137.771 10.9726 140.515 13.2098 141.663 16.8341Z" fill="black"/>
<path d="M92.3178 77.7297H98.7759V69.0493L101.953 65.1714L110.32 77.7297H118.046L106.576 60.8611L117.912 47.1842H110.171L99.1786 60.6523H98.7759V47.1842H92.3178V77.7297Z" fill="black"/>
<path d="M121.275 77.7297H127.733V66.9015H132.446L138.233 77.7297H145.362L138.874 65.8575C142.349 64.366 144.273 61.3383 144.273 57.1622C144.273 51.0919 140.261 47.1842 133.326 47.1842H121.275V77.7297ZM127.733 61.7112V52.464H132.088C135.817 52.464 137.621 54.1196 137.621 57.1622C137.621 60.1899 135.817 61.7112 132.118 61.7112H127.733Z" fill="black"/>
<path d="M155.295 47.1842H148.837V77.7297H155.295V47.1842Z" fill="black"/>
<path d="M159.445 52.5088H168.797V77.7297H175.181V52.5088H184.532V47.1842H159.445V52.5088Z" fill="black"/>
<path d="M195.122 47.1842H188.664V77.7297H195.122V47.1842Z" fill="black"/>
<path d="M217.005 55.969H223.195C223.105 50.5251 218.631 46.7666 211.83 46.7666C205.133 46.7666 200.226 50.4655 200.256 56.0138C200.241 60.518 203.418 63.0983 208.578 64.3362L211.904 65.1714C215.23 65.9768 217.08 66.9314 217.095 68.9896C217.08 71.2268 214.962 72.7481 211.681 72.7481C208.325 72.7481 205.909 71.197 205.7 68.1395H199.451C199.615 74.7467 204.343 78.1622 211.755 78.1622C219.213 78.1622 223.598 74.5976 223.613 69.0045C223.598 63.9186 219.765 61.219 214.455 60.0258L211.711 59.3696C209.056 58.7581 206.833 57.7737 206.878 55.5812C206.878 53.6125 208.623 52.1657 211.785 52.1657C214.873 52.1657 216.767 53.5677 217.005 55.969Z" fill="black"/>
<path d="M92.2568 107.729L93.8662 103.198H100.335L101.944 107.729H103.976L98.1006 91.7295H96.1006L90.2256 107.729H92.2568ZM94.4756 101.479L97.0381 94.2607H97.1631L99.7256 101.479H94.4756Z" fill="black"/>
<path d="M106.218 107.729H108.062V100.136C108.062 98.5107 109.343 97.3232 111.093 97.3232C111.585 97.3232 112.093 97.417 112.218 97.4482V95.5732C112.007 95.5576 111.522 95.542 111.249 95.542C109.812 95.542 108.562 96.3545 108.124 97.542H107.999V95.7295H106.218V107.729Z" fill="black"/>
<path d="M114.653 107.729H116.435V105.886H116.653C117.06 106.542 117.841 107.979 120.153 107.979C123.153 107.979 125.247 105.573 125.247 101.761C125.247 97.9795 123.153 95.5732 120.122 95.5732C117.778 95.5732 117.06 97.0107 116.653 97.6357H116.497V91.7295H114.653V107.729ZM116.466 101.729C116.466 99.042 117.653 97.2295 119.903 97.2295C122.247 97.2295 123.403 99.1982 123.403 101.729C123.403 104.292 122.216 106.323 119.903 106.323C117.685 106.323 116.466 104.448 116.466 101.729Z" fill="black"/>
<path d="M133.099 107.979C135.536 107.979 137.317 106.761 137.88 104.948L136.099 104.448C135.63 105.698 134.544 106.323 133.099 106.323C130.935 106.323 129.442 104.925 129.356 102.354H138.067V101.573C138.067 97.1045 135.411 95.5732 132.911 95.5732C129.661 95.5732 127.505 98.1357 127.505 101.823C127.505 105.511 129.63 107.979 133.099 107.979ZM129.356 100.761C129.481 98.8936 130.802 97.2295 132.911 97.2295C134.911 97.2295 136.192 98.7295 136.192 100.761H129.356Z" fill="black"/>
<path d="M140.872 107.729H142.716V95.7295H140.872V107.729ZM141.81 93.7295C142.528 93.7295 143.122 93.167 143.122 92.4795C143.122 91.792 142.528 91.2295 141.81 91.2295C141.091 91.2295 140.497 91.792 140.497 92.4795C140.497 93.167 141.091 93.7295 141.81 93.7295Z" fill="black"/>
<path d="M151.312 95.7295H148.749V92.8545H146.905V95.7295H145.093V97.292H146.905V104.792C146.905 106.886 148.593 107.886 150.155 107.886C150.843 107.886 151.28 107.761 151.53 107.667L151.155 106.011C150.999 106.042 150.749 106.104 150.343 106.104C149.53 106.104 148.749 105.854 148.749 104.292V97.292H151.312V95.7295Z" fill="black"/>
<path d="M162.37 98.417C161.792 96.7139 160.495 95.5732 158.12 95.5732C155.589 95.5732 153.714 97.0107 153.714 99.042C153.714 100.698 154.698 101.808 156.901 102.323L158.901 102.792C160.112 103.073 160.683 103.651 160.683 104.479C160.683 105.511 159.589 106.354 157.87 106.354C156.362 106.354 155.417 105.706 155.089 104.417L153.339 104.854C153.769 106.894 155.448 107.979 157.901 107.979C160.69 107.979 162.589 106.456 162.589 104.386C162.589 102.714 161.542 101.659 159.401 101.136L157.62 100.698C156.198 100.347 155.558 99.8701 155.558 98.9482C155.558 97.917 156.651 97.167 158.12 97.167C159.729 97.167 160.394 98.0576 160.714 98.8857L162.37 98.417Z" fill="black"/>
<path d="M170.208 112.479C173.083 112.479 175.396 111.167 175.396 108.073V95.7295H173.614V97.6357H173.427C173.021 97.0107 172.271 95.5732 169.927 95.5732C166.896 95.5732 164.802 97.9795 164.802 101.667C164.802 105.417 166.989 107.542 169.896 107.542C172.239 107.542 172.989 106.167 173.396 105.511H173.552V107.948C173.552 109.948 172.146 110.854 170.208 110.854C168.028 110.854 167.263 109.706 166.771 109.042L165.302 110.073C166.052 111.331 167.528 112.479 170.208 112.479ZM170.146 105.886C167.833 105.886 166.646 104.136 166.646 101.636C166.646 99.1982 167.802 97.2295 170.146 97.2295C172.396 97.2295 173.583 99.042 173.583 101.636C173.583 104.292 172.364 105.886 170.146 105.886Z" fill="black"/>
<path d="M178.771 107.729H180.614V100.136C180.614 98.5107 181.896 97.3232 183.646 97.3232C184.138 97.3232 184.646 97.417 184.771 97.4482V95.5732C184.56 95.5576 184.075 95.542 183.802 95.542C182.364 95.542 181.114 96.3545 180.677 97.542H180.552V95.7295H178.771V107.729Z" fill="black"/>
<path d="M194.519 102.823C194.519 105.073 192.8 106.104 191.425 106.104C189.894 106.104 188.8 104.979 188.8 103.229V95.7295H186.956V103.354C186.956 106.417 188.581 107.886 190.831 107.886C192.644 107.886 193.831 106.917 194.394 105.698H194.519V107.729H196.362V95.7295H194.519V102.823Z" fill="black"/>
<path d="M199.739 112.229H201.583V105.886H201.739C202.146 106.542 202.927 107.979 205.239 107.979C208.239 107.979 210.333 105.573 210.333 101.761C210.333 97.9795 208.239 95.5732 205.208 95.5732C202.864 95.5732 202.146 97.0107 201.739 97.6357H201.521V95.7295H199.739V112.229ZM201.552 101.729C201.552 99.042 202.739 97.2295 204.989 97.2295C207.333 97.2295 208.489 99.1982 208.489 101.729C208.489 104.292 207.302 106.323 204.989 106.323C202.771 106.323 201.552 104.448 201.552 101.729Z" fill="black"/>
<path d="M213.146 112.229H214.989V105.886H215.146C215.552 106.542 216.333 107.979 218.646 107.979C221.646 107.979 223.739 105.573 223.739 101.761C223.739 97.9795 221.646 95.5732 218.614 95.5732C216.271 95.5732 215.552 97.0107 215.146 97.6357H214.927V95.7295H213.146V112.229ZM214.958 101.729C214.958 99.042 216.146 97.2295 218.396 97.2295C220.739 97.2295 221.896 99.1982 221.896 101.729C221.896 104.292 220.708 106.323 218.396 106.323C216.177 106.323 214.958 104.448 214.958 101.729Z" fill="black"/>
<path d="M231.583 107.979C234.021 107.979 235.802 106.761 236.364 104.948L234.583 104.448C234.114 105.698 233.028 106.323 231.583 106.323C229.419 106.323 227.927 104.925 227.841 102.354H236.552V101.573C236.552 97.1045 233.896 95.5732 231.396 95.5732C228.146 95.5732 225.989 98.1357 225.989 101.823C225.989 105.511 228.114 107.979 231.583 107.979ZM227.841 100.761C227.966 98.8936 229.286 97.2295 231.396 97.2295C233.396 97.2295 234.677 98.7295 234.677 100.761H227.841Z" fill="black"/>
<path d="M91.6006 131.729H93.5381V126.542L95.5381 124.292L101.101 131.729H103.444L96.7256 122.948L103.444 115.729H100.913L93.7256 123.667H93.5381V115.729H91.6006V131.729Z" fill="black"/>
<path d="M105.702 131.729H107.546V124.136C107.546 122.511 108.827 121.323 110.577 121.323C111.069 121.323 111.577 121.417 111.702 121.448V119.573C111.491 119.558 111.007 119.542 110.733 119.542C109.296 119.542 108.046 120.354 107.608 121.542H107.483V119.729H105.702V131.729Z" fill="black"/>
<path d="M113.888 131.729H115.731V119.729H113.888V131.729ZM114.825 117.729C115.544 117.729 116.138 117.167 116.138 116.479C116.138 115.792 115.544 115.229 114.825 115.229C114.106 115.229 113.513 115.792 113.513 116.479C113.513 117.167 114.106 117.729 114.825 117.729Z" fill="black"/>
<path d="M124.327 119.729H121.765V116.854H119.921V119.729H118.108V121.292H119.921V128.792C119.921 130.886 121.608 131.886 123.171 131.886C123.858 131.886 124.296 131.761 124.546 131.667L124.171 130.011C124.015 130.042 123.765 130.104 123.358 130.104C122.546 130.104 121.765 129.854 121.765 128.292V121.292H124.327V119.729Z" fill="black"/>
<path d="M127.101 131.729H128.944V119.729H127.101V131.729ZM128.038 117.729C128.757 117.729 129.351 117.167 129.351 116.479C129.351 115.792 128.757 115.229 128.038 115.229C127.319 115.229 126.726 115.792 126.726 116.479C126.726 117.167 127.319 117.729 128.038 117.729Z" fill="black"/>
<path d="M140.821 122.417C140.243 120.714 138.946 119.573 136.571 119.573C134.04 119.573 132.165 121.011 132.165 123.042C132.165 124.698 133.149 125.808 135.353 126.323L137.353 126.792C138.563 127.073 139.134 127.651 139.134 128.479C139.134 129.511 138.04 130.354 136.321 130.354C134.813 130.354 133.868 129.706 133.54 128.417L131.79 128.854C132.22 130.894 133.899 131.979 136.353 131.979C139.142 131.979 141.04 130.456 141.04 128.386C141.04 126.714 139.993 125.659 137.853 125.136L136.071 124.698C134.649 124.347 134.009 123.87 134.009 122.948C134.009 121.917 135.103 121.167 136.571 121.167C138.181 121.167 138.845 122.058 139.165 122.886L140.821 122.417Z" fill="black"/>
<path d="M148.69 131.979C151.347 131.979 153.097 130.354 153.409 128.229H151.565C151.222 129.542 150.128 130.323 148.69 130.323C146.503 130.323 145.097 128.511 145.097 125.729C145.097 123.011 146.534 121.229 148.69 121.229C150.315 121.229 151.284 122.229 151.565 123.323H153.409C153.097 121.073 151.19 119.573 148.659 119.573C145.409 119.573 143.253 122.136 143.253 125.792C143.253 129.386 145.315 131.979 148.69 131.979Z" fill="black"/>
<path d="M157.948 124.511C157.948 122.417 159.284 121.229 161.104 121.229C162.839 121.229 163.886 122.323 163.886 124.229V131.729H165.729V124.104C165.729 121.019 164.089 119.573 161.636 119.573C159.745 119.573 158.667 120.362 158.104 121.604H157.948V115.729H156.104V131.729H157.948V124.511Z" fill="black"/>
<path d="M174.134 131.979C176.571 131.979 178.353 130.761 178.915 128.948L177.134 128.448C176.665 129.698 175.579 130.323 174.134 130.323C171.97 130.323 170.478 128.925 170.392 126.354H179.103V125.573C179.103 121.104 176.446 119.573 173.946 119.573C170.696 119.573 168.54 122.136 168.54 125.823C168.54 129.511 170.665 131.979 174.134 131.979ZM170.392 124.761C170.517 122.894 171.837 121.229 173.946 121.229C175.946 121.229 177.228 122.729 177.228 124.761H170.392Z" fill="black"/>
<path d="M190.282 115.729H188.345V131.729H190.282V115.729Z" fill="black"/>
<path d="M195.761 124.511C195.761 122.417 197.058 121.229 198.823 121.229C200.534 121.229 201.573 122.347 201.573 124.229V131.729H203.417V124.104C203.417 121.042 201.784 119.573 199.354 119.573C197.542 119.573 196.417 120.386 195.854 121.604H195.698V119.729H193.917V131.729H195.761V124.511Z" fill="black"/>
<path d="M212.13 119.729H209.442V118.511C209.442 117.323 209.942 116.698 211.161 116.698C211.692 116.698 212.005 116.823 212.192 116.886L212.724 115.292C212.442 115.167 211.88 114.979 210.974 114.979C209.255 114.979 207.599 116.011 207.599 118.073V119.729H205.661V121.292H207.599V131.729H209.442V121.292H212.13V119.729Z" fill="black"/>
<path d="M214.714 131.729H216.558V124.136C216.558 122.511 217.839 121.323 219.589 121.323C220.081 121.323 220.589 121.417 220.714 121.448V119.573C220.503 119.558 220.019 119.542 219.745 119.542C218.308 119.542 217.058 120.354 216.62 121.542H216.495V119.729H214.714V131.729Z" fill="black"/>
<path d="M226.431 132.011C228.524 132.011 229.618 130.886 229.993 130.104H230.087V131.729H231.931V123.823C231.931 120.011 229.024 119.573 227.493 119.573C225.681 119.573 223.618 120.198 222.681 122.386L224.431 123.011C224.837 122.136 225.798 121.198 227.556 121.198C229.251 121.198 230.087 122.097 230.087 123.636V123.698C230.087 124.589 229.181 124.511 226.993 124.792C224.767 125.081 222.337 125.573 222.337 128.323C222.337 130.667 224.149 132.011 226.431 132.011ZM226.712 130.354C225.243 130.354 224.181 129.698 224.181 128.417C224.181 127.011 225.462 126.573 226.899 126.386C227.681 126.292 229.774 126.073 230.087 125.698V127.386C230.087 128.886 228.899 130.354 226.712 130.354Z" fill="black"/>
<path d="M243.796 122.417C243.218 120.714 241.921 119.573 239.546 119.573C237.015 119.573 235.14 121.011 235.14 123.042C235.14 124.698 236.124 125.808 238.327 126.323L240.327 126.792C241.538 127.073 242.108 127.651 242.108 128.479C242.108 129.511 241.015 130.354 239.296 130.354C237.788 130.354 236.843 129.706 236.515 128.417L234.765 128.854C235.194 130.894 236.874 131.979 239.327 131.979C242.116 131.979 244.015 130.456 244.015 128.386C244.015 126.714 242.968 125.659 240.827 125.136L239.046 124.698C237.624 124.347 236.983 123.87 236.983 122.948C236.983 121.917 238.077 121.167 239.546 121.167C241.155 121.167 241.819 122.058 242.14 122.886L243.796 122.417Z" fill="black"/>
<path d="M252.009 119.729H249.446V116.854H247.603V119.729H245.79V121.292H247.603V128.792C247.603 130.886 249.29 131.886 250.853 131.886C251.54 131.886 251.978 131.761 252.228 131.667L251.853 130.011C251.696 130.042 251.446 130.104 251.04 130.104C250.228 130.104 249.446 129.854 249.446 128.292V121.292H252.009V119.729Z" fill="black"/>
<path d="M254.782 131.729H256.626V124.136C256.626 122.511 257.907 121.323 259.657 121.323C260.149 121.323 260.657 121.417 260.782 121.448V119.573C260.571 119.558 260.087 119.542 259.813 119.542C258.376 119.542 257.126 120.354 256.688 121.542H256.563V119.729H254.782V131.729Z" fill="black"/>
<path d="M270.53 126.823C270.53 129.073 268.812 130.104 267.437 130.104C265.905 130.104 264.812 128.979 264.812 127.229V119.729H262.968V127.354C262.968 130.417 264.593 131.886 266.843 131.886C268.655 131.886 269.843 130.917 270.405 129.698H270.53V131.729H272.374V119.729H270.53V126.823Z" fill="black"/>
<path d="M275.751 131.729H277.595V127.237L278.884 126.042L283.376 131.729H285.72L280.274 124.854L285.345 119.729H283.063L277.813 125.073H277.595V115.729H275.751V131.729Z" fill="black"/>
<path d="M292.937 119.729H290.374V116.854H288.53V119.729H286.718V121.292H288.53V128.792C288.53 130.886 290.218 131.886 291.78 131.886C292.468 131.886 292.905 131.761 293.155 131.667L292.78 130.011C292.624 130.042 292.374 130.104 291.968 130.104C291.155 130.104 290.374 129.854 290.374 128.292V121.292H292.937V119.729Z" fill="black"/>
<path d="M303.272 126.823C303.272 129.073 301.554 130.104 300.179 130.104C298.647 130.104 297.554 128.979 297.554 127.229V119.729H295.71V127.354C295.71 130.417 297.335 131.886 299.585 131.886C301.397 131.886 302.585 130.917 303.147 129.698H303.272V131.729H305.116V119.729H303.272V126.823Z" fill="black"/>
<path d="M308.493 131.729H310.337V124.136C310.337 122.511 311.618 121.323 313.368 121.323C313.86 121.323 314.368 121.417 314.493 121.448V119.573C314.282 119.558 313.798 119.542 313.524 119.542C312.087 119.542 310.837 120.354 310.399 121.542H310.274V119.729H308.493V131.729Z" fill="black"/>
<path d="M321.345 131.979C323.782 131.979 325.563 130.761 326.126 128.948L324.345 128.448C323.876 129.698 322.79 130.323 321.345 130.323C319.181 130.323 317.688 128.925 317.603 126.354H326.313V125.573C326.313 121.104 323.657 119.573 321.157 119.573C317.907 119.573 315.751 122.136 315.751 125.823C315.751 129.511 317.876 131.979 321.345 131.979ZM317.603 124.761C317.728 122.894 319.048 121.229 321.157 121.229C323.157 121.229 324.438 122.729 324.438 124.761H317.603Z" fill="black"/>
<path d="M330.962 124.511C330.962 122.417 332.259 121.229 334.024 121.229C335.735 121.229 336.774 122.347 336.774 124.229V131.729H338.618V124.104C338.618 121.042 336.985 119.573 334.556 119.573C332.743 119.573 331.618 120.386 331.056 121.604H330.899V119.729H329.118V131.729H330.962V124.511Z" fill="black"/>
</svg>
