<svg width="293" height="82" viewBox="0 0 293 82" fill="none" xmlns="http://www.w3.org/2000/svg">
<path d="M0.299805 29.7099V25.4715C0.299805 21.9155 2.18823 18.6269 5.25964 16.8346L31.2457 1.67026C34.3601 -0.147247 38.2117 -0.147247 41.326 1.67026L67.3123 16.8346C70.3835 18.6269 72.2721 21.9155 72.2721 25.4715V30.2193L40.7911 12.2751C37.7216 10.5254 33.9565 10.5254 30.8871 12.2751L0.299805 29.7099Z" fill="#15B5E8"/>
<path d="M22.6799 34.8255C22.5638 33.6875 22.4827 32.6018 22.426 31.6161C22.2701 28.9011 24.479 26.729 27.1984 26.729H45.4012C48.1206 26.729 50.3295 28.9011 50.1736 31.6161C50.1088 32.7439 50.0118 34.0027 49.8673 35.3209L72.2721 48.0916V36.1438L40.7911 18.1996C37.7216 16.4499 33.9565 16.4499 30.8871 18.1996L0.299805 35.6345V47.5822L22.6799 34.8255Z" fill="#15B5E8"/>
<path d="M23.5016 40.2817L0.299805 53.5068V55.9864C0.299805 58.6216 1.33691 61.11 3.12378 62.9513L27.2587 49.1944C26.5829 48.2811 25.9957 47.3816 25.5596 46.5376C24.6388 44.7558 23.9771 42.558 23.5016 40.2817Z" fill="#15B5E8"/>
<path d="M30.6324 53.1958C31.4851 54.1129 32.3346 54.9763 33.1066 55.7361C34.8931 57.4944 37.7065 57.4944 39.493 55.7361C40.1682 55.0715 40.9026 54.3277 41.6466 53.5382L64.2396 66.4164L53.3969 72.7437L40.665 65.7285C37.6606 64.0731 34.0176 64.0731 31.0132 65.7285L18.7411 72.4904L7.89062 66.1587L30.6324 53.1958Z" fill="#15B5E8"/>
<path d="M45.0647 49.5621C45.8568 48.523 46.5454 47.4946 47.04 46.5376C47.8975 44.8781 48.5305 42.858 48.9974 40.7496L72.2721 54.0162V55.9864C72.2721 58.7788 71.1075 61.4062 69.1202 63.2739L45.0647 49.5621Z" fill="#15B5E8"/>
<path d="M23.7888 75.4362L31.2457 79.7878C34.3601 81.6052 38.2117 81.6052 41.326 79.7878L48.349 75.6894L40.665 71.4555C37.6606 69.8001 34.0176 69.8001 31.0132 71.4555L23.7888 75.4362Z" fill="#15B5E8"/>
<path d="M95.2358 56.2287L98.0398 48.1449H109.972L112.761 56.2287H117.653L106.661 25.6832H101.336L90.3438 56.2287H95.2358ZM99.3821 44.267L103.886 31.2315H104.125L108.629 44.267H99.3821Z" fill="black"/>
<path d="M141.3 35.3331H146.028C144.999 29.3821 139.913 25.2656 133.321 25.2656C125.416 25.2656 119.644 31.2166 119.644 40.9709C119.644 50.6357 125.252 56.6463 133.529 56.6463C140.942 56.6463 146.237 51.7841 146.237 44.0732V40.598H134.23V44.4013H141.777C141.673 49.3232 138.422 52.4403 133.529 52.4403C128.145 52.4403 124.223 48.3686 124.223 40.9411C124.223 33.5433 128.175 29.4716 133.35 29.4716C137.407 29.4716 140.152 31.7088 141.3 35.3331Z" fill="black"/>
<path d="M161.107 56.2287H167.565V47.5483L170.742 43.6705L179.109 56.2287H186.835L175.365 39.3601L186.701 25.6832H178.96L167.968 39.1513H167.565V25.6832H161.107V56.2287Z" fill="black"/>
<path d="M190.064 56.2287H196.522V45.4006H201.235L207.022 56.2287H214.151L207.663 44.3565C211.138 42.8651 213.062 39.8374 213.062 35.6612C213.062 29.5909 209.05 25.6832 202.115 25.6832H190.064V56.2287ZM196.522 40.2102V30.9631H200.877C204.606 30.9631 206.411 32.6186 206.411 35.6612C206.411 38.6889 204.606 40.2102 200.907 40.2102H196.522Z" fill="black"/>
<path d="M224.085 25.6832H217.626V56.2287H224.085V25.6832Z" fill="black"/>
<path d="M228.235 31.0078H237.586V56.2287H243.97V31.0078H253.321V25.6832H228.235V31.0078Z" fill="black"/>
<path d="M263.911 25.6832H257.453V56.2287H263.911V25.6832Z" fill="black"/>
<path d="M285.794 34.468H291.984C291.895 29.0241 287.42 25.2656 280.619 25.2656C273.922 25.2656 269.015 28.9645 269.045 34.5128C269.03 39.017 272.207 41.5973 277.368 42.8352L280.694 43.6705C284.02 44.4759 285.869 45.4304 285.884 47.4886C285.869 49.7259 283.751 51.2472 280.47 51.2472C277.114 51.2472 274.698 49.696 274.489 46.6385H268.24C268.404 53.2457 273.132 56.6612 280.544 56.6612C288.002 56.6612 292.387 53.0966 292.402 47.5036C292.387 42.4176 288.554 39.718 283.244 38.5249L280.5 37.8686C277.845 37.2571 275.623 36.2727 275.667 34.0803C275.667 32.1115 277.412 30.6648 280.574 30.6648C283.662 30.6648 285.556 32.0668 285.794 34.468Z" fill="black"/>
</svg>
