<svg width="493" height="82" viewBox="0 0 493 82" fill="none" xmlns="http://www.w3.org/2000/svg">
<path d="M0.3125 29.7104V25.472C0.3125 21.916 2.20093 18.6274 5.27234 16.8351L31.2584 1.67075C34.3728 -0.146759 38.2244 -0.146759 41.3387 1.67075L67.325 16.8351C70.3962 18.6274 72.2848 21.916 72.2848 25.472V30.2198L40.8038 12.2756C37.7343 10.5258 33.9692 10.5258 30.8998 12.2756L0.3125 29.7104Z" fill="white"/>
<path d="M22.6926 34.826C22.5765 33.688 22.4954 32.6023 22.4387 31.6165C22.2828 28.9016 24.4917 26.7295 27.2111 26.7295H45.4139C48.1333 26.7295 50.3422 28.9016 50.1863 31.6165C50.1215 32.7444 50.0245 34.0031 49.88 35.3214L72.2848 48.0921V36.1443L40.8038 18.2C37.7343 16.4504 33.9692 16.4504 30.8998 18.2L0.3125 35.635V47.5827L22.6926 34.826Z" fill="white"/>
<path d="M23.5143 40.2822L0.3125 53.5073V55.9869C0.3125 58.622 1.34961 61.1104 3.13647 62.9518L27.2714 49.1949C26.5956 48.2816 26.0084 47.382 25.5723 46.5381C24.6515 44.7563 23.9897 42.5584 23.5143 40.2822Z" fill="white"/>
<path d="M30.6451 53.1963C31.4978 54.1134 32.3473 54.9768 33.1193 55.7365C34.9058 57.4948 37.7192 57.4948 39.5057 55.7365C40.1809 55.072 40.9153 54.3282 41.6593 53.5387L64.2523 66.4168L53.4095 72.7442L40.6777 65.729C37.6733 64.0736 34.0303 64.0736 31.0259 65.729L18.7538 72.4909L7.90332 66.1591L30.6451 53.1963Z" fill="white"/>
<path d="M45.0774 49.5626C45.8695 48.5235 46.5581 47.4951 47.0527 46.5381C47.9102 44.8786 48.5432 42.8585 49.0101 40.7501L72.2848 54.0167V55.9869C72.2848 58.7793 71.1202 61.4067 69.1329 63.2744L45.0774 49.5626Z" fill="white"/>
<path d="M23.8015 75.4367L31.2584 79.7883C34.3728 81.6057 38.2244 81.6057 41.3387 79.7883L48.3617 75.6899L40.6777 71.456C37.6733 69.8006 34.0303 69.8006 31.0259 71.456L23.8015 75.4367Z" fill="white"/>
<path d="M95.2485 40.7297L98.0525 32.6459H109.984L112.773 40.7297H117.665L106.673 10.1842H101.349L90.3564 40.7297H95.2485ZM99.3948 28.768L103.899 15.7325H104.138L108.642 28.768H99.3948Z" fill="white"/>
<path d="M141.313 19.8341H146.041C145.012 13.8831 139.926 9.7666 133.333 9.7666C125.429 9.7666 119.657 15.7176 119.657 25.4719C119.657 35.1366 125.264 41.1473 133.542 41.1473C140.955 41.1473 146.25 36.2851 146.25 28.5741V25.099H134.243V28.9023H141.79C141.686 33.8241 138.434 36.9413 133.542 36.9413C128.158 36.9413 124.235 32.8696 124.235 25.442C124.235 18.0443 128.188 13.9726 133.363 13.9726C137.42 13.9726 140.164 16.2098 141.313 19.8341Z" fill="white"/>
<path d="M161.12 40.7297H167.578V32.0493L170.755 28.1714L179.122 40.7297H186.848L175.378 23.8611L186.713 10.1842H178.973L167.98 23.6523H167.578V10.1842H161.12V40.7297Z" fill="white"/>
<path d="M190.077 40.7297H196.535V29.9015H201.248L207.035 40.7297H214.164L207.676 28.8575C211.151 27.366 213.075 24.3383 213.075 20.1622C213.075 14.0919 209.063 10.1842 202.128 10.1842H190.077V40.7297ZM196.535 24.7112V15.464H200.89C204.619 15.464 206.423 17.1196 206.423 20.1622C206.423 23.1899 204.619 24.7112 200.92 24.7112H196.535Z" fill="white"/>
<path d="M224.097 10.1842H217.639V40.7297H224.097V10.1842Z" fill="white"/>
<path d="M228.247 15.5088H237.599V40.7297H243.982V15.5088H253.334V10.1842H228.247V15.5088Z" fill="white"/>
<path d="M263.923 10.1842H257.465V40.7297H263.923V10.1842Z" fill="white"/>
<path d="M285.807 18.969H291.997C291.907 13.5251 287.433 9.7666 280.632 9.7666C273.935 9.7666 269.028 13.4655 269.058 19.0138C269.043 23.518 272.22 26.0983 277.38 27.3362L280.706 28.1714C284.032 28.9768 285.882 29.9314 285.897 31.9896C285.882 34.2268 283.764 35.7481 280.483 35.7481C277.127 35.7481 274.711 34.197 274.502 31.1395H268.252C268.416 37.7467 273.144 41.1622 280.557 41.1622C288.014 41.1622 292.399 37.5976 292.414 32.0045C292.399 26.9186 288.566 24.219 283.257 23.0258L280.512 22.3696C277.858 21.7581 275.635 20.7737 275.68 18.5812C275.68 16.6125 277.425 15.1657 280.587 15.1657C283.674 15.1657 285.568 16.5677 285.807 18.969Z" fill="white"/>
<path d="M91.9062 65.7295L93.5156 61.1982H99.9844L101.594 65.7295H103.625L97.75 49.7295H95.75L89.875 65.7295H91.9062ZM94.125 59.4795L96.6875 52.2607H96.8125L99.375 59.4795H94.125Z" fill="white"/>
<path d="M105.867 65.7295H107.711V58.1357C107.711 56.5107 108.992 55.3232 110.742 55.3232C111.234 55.3232 111.742 55.417 111.867 55.4482V53.5732C111.656 53.5576 111.172 53.542 110.898 53.542C109.461 53.542 108.211 54.3545 107.773 55.542H107.648V53.7295H105.867V65.7295Z" fill="white"/>
<path d="M114.303 65.7295H116.084V63.8857H116.303C116.709 64.542 117.49 65.9795 119.803 65.9795C122.803 65.9795 124.896 63.5732 124.896 59.7607C124.896 55.9795 122.803 53.5732 119.771 53.5732C117.428 53.5732 116.709 55.0107 116.303 55.6357H116.146V49.7295H114.303V65.7295ZM116.115 59.7295C116.115 57.042 117.303 55.2295 119.553 55.2295C121.896 55.2295 123.053 57.1982 123.053 59.7295C123.053 62.292 121.865 64.3232 119.553 64.3232C117.334 64.3232 116.115 62.4482 116.115 59.7295Z" fill="white"/>
<path d="M132.748 65.9795C135.186 65.9795 136.967 64.7607 137.529 62.9482L135.748 62.4482C135.279 63.6982 134.193 64.3232 132.748 64.3232C130.584 64.3232 129.092 62.9248 129.006 60.3545H137.717V59.5732C137.717 55.1045 135.061 53.5732 132.561 53.5732C129.311 53.5732 127.154 56.1357 127.154 59.8232C127.154 63.5107 129.279 65.9795 132.748 65.9795ZM129.006 58.7607C129.131 56.8936 130.451 55.2295 132.561 55.2295C134.561 55.2295 135.842 56.7295 135.842 58.7607H129.006Z" fill="white"/>
<path d="M140.521 65.7295H142.365V53.7295H140.521V65.7295ZM141.459 51.7295C142.178 51.7295 142.771 51.167 142.771 50.4795C142.771 49.792 142.178 49.2295 141.459 49.2295C140.74 49.2295 140.146 49.792 140.146 50.4795C140.146 51.167 140.74 51.7295 141.459 51.7295Z" fill="white"/>
<path d="M150.961 53.7295H148.398V50.8545H146.555V53.7295H144.742V55.292H146.555V62.792C146.555 64.8857 148.242 65.8857 149.805 65.8857C150.492 65.8857 150.93 65.7607 151.18 65.667L150.805 64.0107C150.648 64.042 150.398 64.1045 149.992 64.1045C149.18 64.1045 148.398 63.8545 148.398 62.292V55.292H150.961V53.7295Z" fill="white"/>
<path d="M162.02 56.417C161.441 54.7139 160.145 53.5732 157.77 53.5732C155.238 53.5732 153.363 55.0107 153.363 57.042C153.363 58.6982 154.348 59.8076 156.551 60.3232L158.551 60.792C159.762 61.0732 160.332 61.6514 160.332 62.4795C160.332 63.5107 159.238 64.3545 157.52 64.3545C156.012 64.3545 155.066 63.7061 154.738 62.417L152.988 62.8545C153.418 64.8936 155.098 65.9795 157.551 65.9795C160.34 65.9795 162.238 64.4561 162.238 62.3857C162.238 60.7139 161.191 59.6592 159.051 59.1357L157.27 58.6982C155.848 58.3467 155.207 57.8701 155.207 56.9482C155.207 55.917 156.301 55.167 157.77 55.167C159.379 55.167 160.043 56.0576 160.363 56.8857L162.02 56.417Z" fill="white"/>
<path d="M169.857 70.4795C172.732 70.4795 175.045 69.167 175.045 66.0732V53.7295H173.264V55.6357H173.076C172.67 55.0107 171.92 53.5732 169.576 53.5732C166.545 53.5732 164.451 55.9795 164.451 59.667C164.451 63.417 166.639 65.542 169.545 65.542C171.889 65.542 172.639 64.167 173.045 63.5107H173.201V65.9482C173.201 67.9482 171.795 68.8545 169.857 68.8545C167.678 68.8545 166.912 67.7061 166.42 67.042L164.951 68.0732C165.701 69.3311 167.178 70.4795 169.857 70.4795ZM169.795 63.8857C167.482 63.8857 166.295 62.1357 166.295 59.6357C166.295 57.1982 167.451 55.2295 169.795 55.2295C172.045 55.2295 173.232 57.042 173.232 59.6357C173.232 62.292 172.014 63.8857 169.795 63.8857Z" fill="white"/>
<path d="M178.42 65.7295H180.264V58.1357C180.264 56.5107 181.545 55.3232 183.295 55.3232C183.787 55.3232 184.295 55.417 184.42 55.4482V53.5732C184.209 53.5576 183.725 53.542 183.451 53.542C182.014 53.542 180.764 54.3545 180.326 55.542H180.201V53.7295H178.42V65.7295Z" fill="white"/>
<path d="M194.168 60.8232C194.168 63.0732 192.449 64.1045 191.074 64.1045C189.543 64.1045 188.449 62.9795 188.449 61.2295V53.7295H186.605V61.3545C186.605 64.417 188.23 65.8857 190.48 65.8857C192.293 65.8857 193.48 64.917 194.043 63.6982H194.168V65.7295H196.012V53.7295H194.168V60.8232Z" fill="white"/>
<path d="M199.389 70.2295H201.232V63.8857H201.389C201.795 64.542 202.576 65.9795 204.889 65.9795C207.889 65.9795 209.982 63.5732 209.982 59.7607C209.982 55.9795 207.889 53.5732 204.857 53.5732C202.514 53.5732 201.795 55.0107 201.389 55.6357H201.17V53.7295H199.389V70.2295ZM201.201 59.7295C201.201 57.042 202.389 55.2295 204.639 55.2295C206.982 55.2295 208.139 57.1982 208.139 59.7295C208.139 62.292 206.951 64.3232 204.639 64.3232C202.42 64.3232 201.201 62.4482 201.201 59.7295Z" fill="white"/>
<path d="M212.795 70.2295H214.639V63.8857H214.795C215.201 64.542 215.982 65.9795 218.295 65.9795C221.295 65.9795 223.389 63.5732 223.389 59.7607C223.389 55.9795 221.295 53.5732 218.264 53.5732C215.92 53.5732 215.201 55.0107 214.795 55.6357H214.576V53.7295H212.795V70.2295ZM214.607 59.7295C214.607 57.042 215.795 55.2295 218.045 55.2295C220.389 55.2295 221.545 57.1982 221.545 59.7295C221.545 62.292 220.357 64.3232 218.045 64.3232C215.826 64.3232 214.607 62.4482 214.607 59.7295Z" fill="white"/>
<path d="M231.232 65.9795C233.67 65.9795 235.451 64.7607 236.014 62.9482L234.232 62.4482C233.764 63.6982 232.678 64.3232 231.232 64.3232C229.068 64.3232 227.576 62.9248 227.49 60.3545H236.201V59.5732C236.201 55.1045 233.545 53.5732 231.045 53.5732C227.795 53.5732 225.639 56.1357 225.639 59.8232C225.639 63.5107 227.764 65.9795 231.232 65.9795ZM227.49 58.7607C227.615 56.8936 228.936 55.2295 231.045 55.2295C233.045 55.2295 234.326 56.7295 234.326 58.7607H227.49Z" fill="white"/>
<path d="M245.443 65.7295H247.381V60.542L249.381 58.292L254.943 65.7295H257.287L250.568 56.9482L257.287 49.7295H254.756L247.568 57.667H247.381V49.7295H245.443V65.7295Z" fill="white"/>
<path d="M259.545 65.7295H261.389V58.1357C261.389 56.5107 262.67 55.3232 264.42 55.3232C264.912 55.3232 265.42 55.417 265.545 55.4482V53.5732C265.334 53.5576 264.85 53.542 264.576 53.542C263.139 53.542 261.889 54.3545 261.451 55.542H261.326V53.7295H259.545V65.7295Z" fill="white"/>
<path d="M267.73 65.7295H269.574V53.7295H267.73V65.7295ZM268.668 51.7295C269.387 51.7295 269.98 51.167 269.98 50.4795C269.98 49.792 269.387 49.2295 268.668 49.2295C267.949 49.2295 267.355 49.792 267.355 50.4795C267.355 51.167 267.949 51.7295 268.668 51.7295Z" fill="white"/>
<path d="M278.17 53.7295H275.607V50.8545H273.764V53.7295H271.951V55.292H273.764V62.792C273.764 64.8857 275.451 65.8857 277.014 65.8857C277.701 65.8857 278.139 65.7607 278.389 65.667L278.014 64.0107C277.857 64.042 277.607 64.1045 277.201 64.1045C276.389 64.1045 275.607 63.8545 275.607 62.292V55.292H278.17V53.7295Z" fill="white"/>
<path d="M280.943 65.7295H282.787V53.7295H280.943V65.7295ZM281.881 51.7295C282.6 51.7295 283.193 51.167 283.193 50.4795C283.193 49.792 282.6 49.2295 281.881 49.2295C281.162 49.2295 280.568 49.792 280.568 50.4795C280.568 51.167 281.162 51.7295 281.881 51.7295Z" fill="white"/>
<path d="M294.664 56.417C294.086 54.7139 292.789 53.5732 290.414 53.5732C287.883 53.5732 286.008 55.0107 286.008 57.042C286.008 58.6982 286.992 59.8076 289.195 60.3232L291.195 60.792C292.406 61.0732 292.977 61.6514 292.977 62.4795C292.977 63.5107 291.883 64.3545 290.164 64.3545C288.656 64.3545 287.711 63.7061 287.383 62.417L285.633 62.8545C286.062 64.8936 287.742 65.9795 290.195 65.9795C292.984 65.9795 294.883 64.4561 294.883 62.3857C294.883 60.7139 293.836 59.6592 291.695 59.1357L289.914 58.6982C288.492 58.3467 287.852 57.8701 287.852 56.9482C287.852 55.917 288.945 55.167 290.414 55.167C292.023 55.167 292.688 56.0576 293.008 56.8857L294.664 56.417Z" fill="white"/>
<path d="M302.533 65.9795C305.189 65.9795 306.939 64.3545 307.252 62.2295H305.408C305.064 63.542 303.971 64.3232 302.533 64.3232C300.346 64.3232 298.939 62.5107 298.939 59.7295C298.939 57.0107 300.377 55.2295 302.533 55.2295C304.158 55.2295 305.127 56.2295 305.408 57.3232H307.252C306.939 55.0732 305.033 53.5732 302.502 53.5732C299.252 53.5732 297.096 56.1357 297.096 59.792C297.096 63.3857 299.158 65.9795 302.533 65.9795Z" fill="white"/>
<path d="M311.791 58.5107C311.791 56.417 313.127 55.2295 314.947 55.2295C316.682 55.2295 317.729 56.3232 317.729 58.2295V65.7295H319.572V58.1045C319.572 55.0186 317.932 53.5732 315.479 53.5732C313.588 53.5732 312.51 54.3623 311.947 55.6045H311.791V49.7295H309.947V65.7295H311.791V58.5107Z" fill="white"/>
<path d="M327.977 65.9795C330.414 65.9795 332.195 64.7607 332.758 62.9482L330.977 62.4482C330.508 63.6982 329.422 64.3232 327.977 64.3232C325.812 64.3232 324.32 62.9248 324.234 60.3545H332.945V59.5732C332.945 55.1045 330.289 53.5732 327.789 53.5732C324.539 53.5732 322.383 56.1357 322.383 59.8232C322.383 63.5107 324.508 65.9795 327.977 65.9795ZM324.234 58.7607C324.359 56.8936 325.68 55.2295 327.789 55.2295C329.789 55.2295 331.07 56.7295 331.07 58.7607H324.234Z" fill="white"/>
<path d="M344.125 49.7295H342.188V65.7295H344.125V49.7295Z" fill="white"/>
<path d="M349.604 58.5107C349.604 56.417 350.9 55.2295 352.666 55.2295C354.377 55.2295 355.416 56.3467 355.416 58.2295V65.7295H357.26V58.1045C357.26 55.042 355.627 53.5732 353.197 53.5732C351.385 53.5732 350.26 54.3857 349.697 55.6045H349.541V53.7295H347.76V65.7295H349.604V58.5107Z" fill="white"/>
<path d="M365.973 53.7295H363.285V52.5107C363.285 51.3232 363.785 50.6982 365.004 50.6982C365.535 50.6982 365.848 50.8232 366.035 50.8857L366.566 49.292C366.285 49.167 365.723 48.9795 364.816 48.9795C363.098 48.9795 361.441 50.0107 361.441 52.0732V53.7295H359.504V55.292H361.441V65.7295H363.285V55.292H365.973V53.7295Z" fill="white"/>
<path d="M368.557 65.7295H370.4V58.1357C370.4 56.5107 371.682 55.3232 373.432 55.3232C373.924 55.3232 374.432 55.417 374.557 55.4482V53.5732C374.346 53.5576 373.861 53.542 373.588 53.542C372.15 53.542 370.9 54.3545 370.463 55.542H370.338V53.7295H368.557V65.7295Z" fill="white"/>
<path d="M380.273 66.0107C382.367 66.0107 383.461 64.8857 383.836 64.1045H383.93V65.7295H385.773V57.8232C385.773 54.0107 382.867 53.5732 381.336 53.5732C379.523 53.5732 377.461 54.1982 376.523 56.3857L378.273 57.0107C378.68 56.1357 379.641 55.1982 381.398 55.1982C383.094 55.1982 383.93 56.0967 383.93 57.6357V57.6982C383.93 58.5889 383.023 58.5107 380.836 58.792C378.609 59.0811 376.18 59.5732 376.18 62.3232C376.18 64.667 377.992 66.0107 380.273 66.0107ZM380.555 64.3545C379.086 64.3545 378.023 63.6982 378.023 62.417C378.023 61.0107 379.305 60.5732 380.742 60.3857C381.523 60.292 383.617 60.0732 383.93 59.6982V61.3857C383.93 62.8857 382.742 64.3545 380.555 64.3545Z" fill="white"/>
<path d="M397.639 56.417C397.061 54.7139 395.764 53.5732 393.389 53.5732C390.857 53.5732 388.982 55.0107 388.982 57.042C388.982 58.6982 389.967 59.8076 392.17 60.3232L394.17 60.792C395.381 61.0732 395.951 61.6514 395.951 62.4795C395.951 63.5107 394.857 64.3545 393.139 64.3545C391.631 64.3545 390.686 63.7061 390.357 62.417L388.607 62.8545C389.037 64.8936 390.717 65.9795 393.17 65.9795C395.959 65.9795 397.857 64.4561 397.857 62.3857C397.857 60.7139 396.811 59.6592 394.67 59.1357L392.889 58.6982C391.467 58.3467 390.826 57.8701 390.826 56.9482C390.826 55.917 391.92 55.167 393.389 55.167C394.998 55.167 395.662 56.0576 395.982 56.8857L397.639 56.417Z" fill="white"/>
<path d="M405.852 53.7295H403.289V50.8545H401.445V53.7295H399.633V55.292H401.445V62.792C401.445 64.8857 403.133 65.8857 404.695 65.8857C405.383 65.8857 405.82 65.7607 406.07 65.667L405.695 64.0107C405.539 64.042 405.289 64.1045 404.883 64.1045C404.07 64.1045 403.289 63.8545 403.289 62.292V55.292H405.852V53.7295Z" fill="white"/>
<path d="M408.625 65.7295H410.469V58.1357C410.469 56.5107 411.75 55.3232 413.5 55.3232C413.992 55.3232 414.5 55.417 414.625 55.4482V53.5732C414.414 53.5576 413.93 53.542 413.656 53.542C412.219 53.542 410.969 54.3545 410.531 55.542H410.406V53.7295H408.625V65.7295Z" fill="white"/>
<path d="M424.373 60.8232C424.373 63.0732 422.654 64.1045 421.279 64.1045C419.748 64.1045 418.654 62.9795 418.654 61.2295V53.7295H416.811V61.3545C416.811 64.417 418.436 65.8857 420.686 65.8857C422.498 65.8857 423.686 64.917 424.248 63.6982H424.373V65.7295H426.217V53.7295H424.373V60.8232Z" fill="white"/>
<path d="M429.594 65.7295H431.438V61.2373L432.727 60.042L437.219 65.7295H439.562L434.117 58.8545L439.188 53.7295H436.906L431.656 59.0732H431.438V49.7295H429.594V65.7295Z" fill="white"/>
<path d="M446.779 53.7295H444.217V50.8545H442.373V53.7295H440.561V55.292H442.373V62.792C442.373 64.8857 444.061 65.8857 445.623 65.8857C446.311 65.8857 446.748 65.7607 446.998 65.667L446.623 64.0107C446.467 64.042 446.217 64.1045 445.811 64.1045C444.998 64.1045 444.217 63.8545 444.217 62.292V55.292H446.779V53.7295Z" fill="white"/>
<path d="M457.115 60.8232C457.115 63.0732 455.396 64.1045 454.021 64.1045C452.49 64.1045 451.396 62.9795 451.396 61.2295V53.7295H449.553V61.3545C449.553 64.417 451.178 65.8857 453.428 65.8857C455.24 65.8857 456.428 64.917 456.99 63.6982H457.115V65.7295H458.959V53.7295H457.115V60.8232Z" fill="white"/>
<path d="M462.336 65.7295H464.18V58.1357C464.18 56.5107 465.461 55.3232 467.211 55.3232C467.703 55.3232 468.211 55.417 468.336 55.4482V53.5732C468.125 53.5576 467.641 53.542 467.367 53.542C465.93 53.542 464.68 54.3545 464.242 55.542H464.117V53.7295H462.336V65.7295Z" fill="white"/>
<path d="M475.188 65.9795C477.625 65.9795 479.406 64.7607 479.969 62.9482L478.188 62.4482C477.719 63.6982 476.633 64.3232 475.188 64.3232C473.023 64.3232 471.531 62.9248 471.445 60.3545H480.156V59.5732C480.156 55.1045 477.5 53.5732 475 53.5732C471.75 53.5732 469.594 56.1357 469.594 59.8232C469.594 63.5107 471.719 65.9795 475.188 65.9795ZM471.445 58.7607C471.57 56.8936 472.891 55.2295 475 55.2295C477 55.2295 478.281 56.7295 478.281 58.7607H471.445Z" fill="white"/>
<path d="M484.805 58.5107C484.805 56.417 486.102 55.2295 487.867 55.2295C489.578 55.2295 490.617 56.3467 490.617 58.2295V65.7295H492.461V58.1045C492.461 55.042 490.828 53.5732 488.398 53.5732C486.586 53.5732 485.461 54.3857 484.898 55.6045H484.742V53.7295H482.961V65.7295H484.805V58.5107Z" fill="white"/>
</svg>
