<svg width="293" height="82" viewBox="0 0 293 82" fill="none" xmlns="http://www.w3.org/2000/svg">
<path d="M0.663086 29.7099V25.4715C0.663086 21.9155 2.55151 18.6269 5.62292 16.8346L31.609 1.67026C34.7234 -0.147247 38.575 -0.147247 41.6893 1.67026L67.6755 16.8346C70.7468 18.6269 72.6354 21.9155 72.6354 25.4715V30.2193L41.1544 12.2751C38.0848 10.5254 34.3198 10.5254 31.2504 12.2751L0.663086 29.7099Z" fill="black"/>
<path d="M23.0432 34.8255C22.9271 33.6875 22.8459 32.6018 22.7893 31.6161C22.6334 28.9011 24.8423 26.729 27.5616 26.729H45.7645C48.4839 26.729 50.6927 28.9011 50.5369 31.6161C50.472 32.7439 50.3751 34.0027 50.2306 35.3209L72.6354 48.0916V36.1438L41.1544 18.1996C38.0848 16.4499 34.3198 16.4499 31.2504 18.1996L0.663086 35.6345V47.5822L23.0432 34.8255Z" fill="black"/>
<path d="M23.8649 40.2817L0.663086 53.5068V55.9864C0.663086 58.6216 1.7002 61.11 3.48706 62.9513L27.6219 49.1944C26.9462 48.2811 26.359 47.3816 25.9229 46.5376C25.0021 44.7558 24.3403 42.558 23.8649 40.2817Z" fill="black"/>
<path d="M30.9957 53.1958C31.8484 54.1129 32.6979 54.9763 33.4698 55.7361C35.2563 57.4944 38.0698 57.4944 39.8563 55.7361C40.5315 55.0715 41.2659 54.3277 42.0099 53.5382L64.6029 66.4164L53.7601 72.7437L41.0283 65.7285C38.0239 64.0731 34.3809 64.0731 31.3765 65.7285L19.1044 72.4904L8.25391 66.1587L30.9957 53.1958Z" fill="black"/>
<path d="M45.428 49.5621C46.2201 48.523 46.9087 47.4946 47.4033 46.5376C48.2607 44.8781 48.8938 42.858 49.3607 40.7496L72.6354 54.0162V55.9864C72.6354 58.7788 71.4708 61.4062 69.4835 63.2739L45.428 49.5621Z" fill="black"/>
<path d="M24.1521 75.4362L31.609 79.7878C34.7234 81.6052 38.575 81.6052 41.6893 79.7878L48.7123 75.6894L41.0283 71.4555C38.0239 69.8001 34.3809 69.8001 31.3765 71.4555L24.1521 75.4362Z" fill="black"/>
<path d="M95.5991 56.2292L98.4031 48.1454H110.335L113.124 56.2292H118.016L107.024 25.6837H101.699L90.707 56.2292H95.5991ZM99.7454 44.2675L104.25 31.232H104.488L108.993 44.2675H99.7454Z" fill="black"/>
<path d="M141.663 35.3336H146.391C145.362 29.3826 140.276 25.2661 133.684 25.2661C125.779 25.2661 120.007 31.2171 120.007 40.9714C120.007 50.6361 125.615 56.6468 133.893 56.6468C141.305 56.6468 146.6 51.7846 146.6 44.0736V40.5985H134.594V44.4018H142.141C142.036 49.3236 138.785 52.4408 133.893 52.4408C128.509 52.4408 124.586 48.3691 124.586 40.9415C124.586 33.5438 128.538 29.4721 133.714 29.4721C137.771 29.4721 140.515 31.7093 141.663 35.3336Z" fill="black"/>
<path d="M161.47 56.2292H167.928V47.5488L171.105 43.6709L179.472 56.2292H187.198L175.729 39.3606L187.064 25.6837H179.323L168.331 39.1518H167.928V25.6837H161.47V56.2292Z" fill="black"/>
<path d="M190.427 56.2292H196.885V45.4011H201.598L207.385 56.2292H214.515L208.027 44.357C211.502 42.8655 213.426 39.8378 213.426 35.6617C213.426 29.5914 209.414 25.6837 202.478 25.6837H190.427V56.2292ZM196.885 40.2107V30.9636H201.24C204.969 30.9636 206.774 32.6191 206.774 35.6617C206.774 38.6894 204.969 40.2107 201.27 40.2107H196.885Z" fill="black"/>
<path d="M224.448 25.6837H217.99V56.2292H224.448V25.6837Z" fill="black"/>
<path d="M228.598 31.0083H237.949V56.2292H244.333V31.0083H253.684V25.6837H228.598V31.0083Z" fill="black"/>
<path d="M264.274 25.6837H257.816V56.2292H264.274V25.6837Z" fill="black"/>
<path d="M286.158 34.4685H292.347C292.258 29.0246 287.783 25.2661 280.982 25.2661C274.286 25.2661 269.379 28.965 269.408 34.5133C269.393 39.0175 272.57 41.5978 277.731 42.8357L281.057 43.6709C284.383 44.4763 286.232 45.4309 286.247 47.4891C286.232 49.7263 284.114 51.2476 280.833 51.2476C277.477 51.2476 275.061 49.6965 274.852 46.639H268.603C268.767 53.2462 273.495 56.6617 280.908 56.6617C288.365 56.6617 292.75 53.0971 292.765 47.504C292.75 42.4181 288.917 39.7185 283.607 38.5253L280.863 37.8691C278.208 37.2576 275.986 36.2732 276.031 34.0807C276.031 32.112 277.776 30.6653 280.938 30.6653C284.025 30.6653 285.919 32.0672 286.158 34.4685Z" fill="black"/>
</svg>
