<svg width="122" height="136" viewBox="0 0 122 136" fill="none" xmlns="http://www.w3.org/2000/svg">
<path d="M0.910645 49.67V42.5904C0.910645 36.6506 4.06498 31.1576 9.1953 28.1637L52.6011 2.83403C57.8032 -0.201837 64.2366 -0.201837 69.4387 2.83403L112.845 28.1637C117.975 31.1576 121.129 36.6506 121.129 42.5904V50.5209L68.5452 20.5478C63.418 17.6251 57.1291 17.6251 52.002 20.5478L0.910645 49.67Z" fill="black"/>
<path d="M38.2932 58.2149C38.0993 56.3139 37.9637 54.5004 37.8691 52.8539C37.6087 48.319 41.2983 44.6908 45.8406 44.6908H76.2457C80.788 44.6908 84.4776 48.319 84.2172 52.8539C84.1089 54.7378 83.947 56.8404 83.7056 59.0423L121.129 80.3739V60.4168L68.5452 30.4437C63.418 27.5212 57.1291 27.5212 52.002 30.4437L0.910645 59.5661V79.523L38.2932 58.2149Z" fill="black"/>
<path d="M39.6657 67.3286L0.910645 89.4191V93.5609C0.910645 97.9625 2.64298 102.119 5.62766 105.195L45.9413 82.2159C44.8125 80.6903 43.8318 79.1878 43.1032 77.778C41.5652 74.8019 40.4599 71.1307 39.6657 67.3286Z" fill="black"/>
<path d="M51.5767 88.8995C53.0009 90.4314 54.4199 91.8736 55.7093 93.1427C58.6934 96.0797 63.3929 96.0797 66.377 93.1427C67.5047 92.0327 68.7314 90.7903 69.9742 89.4715L107.712 110.983L89.6012 121.551L68.3346 109.834C63.3162 107.068 57.231 107.068 52.2127 109.834L31.714 121.128L13.59 110.552L51.5767 88.8995Z" fill="black"/>
<path d="M75.6836 82.8301C77.0067 81.0945 78.1569 79.3766 78.9831 77.778C80.4153 75.0062 81.4727 71.6319 82.2526 68.1101L121.129 90.27V93.5609C121.129 98.2251 119.184 102.614 115.865 105.734L75.6836 82.8301Z" fill="black"/>
<path d="M40.1455 126.049L52.6011 133.318C57.8032 136.353 64.2366 136.353 69.4387 133.318L81.1695 126.472L68.3346 119.4C63.3162 116.635 57.231 116.635 52.2127 119.4L40.1455 126.049Z" fill="black"/>
</svg>
