<svg width="121" height="136" viewBox="0 0 121 136" fill="none" xmlns="http://www.w3.org/2000/svg">
<path d="M0.547363 49.67V42.5904C0.547363 36.6506 3.70169 31.1576 8.83202 28.1637L52.2378 2.83403C57.4399 -0.201837 63.8734 -0.201837 69.0755 2.83403L112.481 28.1637C117.612 31.1576 120.766 36.6506 120.766 42.5904V50.5209L68.182 20.5478C63.0547 17.6251 56.7658 17.6251 51.6388 20.5478L0.547363 49.67Z" fill="#15B5E8"/>
<path d="M37.93 58.2149C37.736 56.3139 37.6005 54.5004 37.5058 52.8539C37.2455 48.319 40.935 44.6908 45.4773 44.6908H75.8825C80.4247 44.6908 84.1143 48.319 83.8539 52.8539C83.7456 54.7378 83.5837 56.8404 83.3423 59.0423L120.766 80.3739V60.4168L68.182 30.4437C63.0547 27.5212 56.7658 27.5212 51.6388 30.4437L0.547363 59.5661V79.523L37.93 58.2149Z" fill="#15B5E8"/>
<path d="M39.3024 67.3286L0.547363 89.4191V93.5609C0.547363 97.9625 2.2797 102.119 5.26438 105.195L45.578 82.2159C44.4492 80.6903 43.4685 79.1878 42.74 77.778C41.2019 74.8019 40.0966 71.1307 39.3024 67.3286Z" fill="#15B5E8"/>
<path d="M51.2134 88.8995C52.6377 90.4314 54.0566 91.8736 55.3461 93.1427C58.3301 96.0797 63.0296 96.0797 66.0137 93.1427C67.1415 92.0327 68.3681 90.7903 69.6109 89.4715L107.349 110.983L89.2379 121.551L67.9713 109.834C62.953 107.068 56.8678 107.068 51.8494 109.834L31.3507 121.128L13.2267 110.552L51.2134 88.8995Z" fill="#15B5E8"/>
<path d="M75.3203 82.8301C76.6434 81.0945 77.7936 79.3766 78.6198 77.778C80.052 75.0062 81.1094 71.6319 81.8893 68.1101L120.766 90.27V93.5609C120.766 98.2251 118.821 102.614 115.501 105.734L75.3203 82.8301Z" fill="#15B5E8"/>
<path d="M39.7822 126.049L52.2378 133.318C57.4399 136.353 63.8734 136.353 69.0755 133.318L80.8062 126.472L67.9713 119.4C62.953 116.635 56.8678 116.635 51.8494 119.4L39.7822 126.049Z" fill="#15B5E8"/>
</svg>
