<svg width="121" height="136" viewBox="0 0 121 136" fill="none" xmlns="http://www.w3.org/2000/svg">
<path d="M0.560059 49.67V42.5904C0.560059 36.6506 3.71439 31.1576 8.84471 28.1637L52.2505 2.83403C57.4526 -0.201837 63.8861 -0.201837 69.0882 2.83403L112.494 28.1637C117.624 31.1576 120.779 36.6506 120.779 42.5904V50.5209L68.1947 20.5478C63.0674 17.6251 56.7785 17.6251 51.6515 20.5478L0.560059 49.67Z" fill="white"/>
<path d="M37.9427 58.2149C37.7487 56.3139 37.6131 54.5004 37.5185 52.8539C37.2582 48.319 40.9477 44.6908 45.49 44.6908H75.8951C80.4374 44.6908 84.127 48.319 83.8666 52.8539C83.7583 54.7378 83.5964 56.8404 83.355 59.0423L120.779 80.3739V60.4168L68.1947 30.4437C63.0674 27.5212 56.7785 27.5212 51.6515 30.4437L0.560059 59.5661V79.523L37.9427 58.2149Z" fill="white"/>
<path d="M39.3151 67.3286L0.560059 89.4191V93.5609C0.560059 97.9625 2.29239 102.119 5.27708 105.195L45.5907 82.2159C44.4619 80.6903 43.4812 79.1878 42.7526 77.778C41.2146 74.8019 40.1093 71.1307 39.3151 67.3286Z" fill="white"/>
<path d="M51.2261 88.8995C52.6504 90.4314 54.0693 91.8736 55.3588 93.1427C58.3428 96.0797 63.0423 96.0797 66.0264 93.1427C67.1542 92.0327 68.3808 90.7903 69.6236 89.4715L107.362 110.983L89.2506 121.551L67.984 109.834C62.9657 107.068 56.8805 107.068 51.8621 109.834L31.3634 121.128L13.2394 110.552L51.2261 88.8995Z" fill="white"/>
<path d="M75.333 82.8301C76.6561 81.0945 77.8063 79.3766 78.6325 77.778C80.0647 75.0062 81.1221 71.6319 81.902 68.1101L120.779 90.27V93.5609C120.779 98.2251 118.834 102.614 115.514 105.734L75.333 82.8301Z" fill="white"/>
<path d="M39.7949 126.049L52.2505 133.318C57.4526 136.353 63.8861 136.353 69.0882 133.318L80.8189 126.472L67.984 119.4C62.9657 116.635 56.8805 116.635 51.8621 119.4L39.7949 126.049Z" fill="white"/>
</svg>
