<svg width="203" height="235" viewBox="0 0 203 235" fill="none" xmlns="http://www.w3.org/2000/svg">
<path d="M41.9106 49.1129V42.0333C41.9106 36.0935 45.065 30.6004 50.1953 27.6066L93.6011 2.2769C98.8032 -0.758966 105.237 -0.758966 110.439 2.2769L153.845 27.6066C158.975 30.6004 162.129 36.0935 162.129 42.0333V49.9638L109.545 19.9907C104.418 17.068 98.1291 17.068 93.002 19.9907L41.9106 49.1129Z" fill="black"/>
<path d="M79.2932 57.6577C79.0993 55.7568 78.9637 53.9433 78.8691 52.2968C78.6087 47.7619 82.2983 44.1337 86.8406 44.1337H117.246C121.788 44.1337 125.478 47.7619 125.217 52.2968C125.109 54.1806 124.947 56.2832 124.706 58.4852L162.129 79.8168V59.8596L109.545 29.8866C104.418 26.9641 98.1291 26.9641 93.002 29.8866L41.9106 59.009V78.9659L79.2932 57.6577Z" fill="black"/>
<path d="M80.6657 66.7714L41.9106 88.862V93.0038C41.9106 97.4054 43.643 101.562 46.6277 104.637L86.9413 81.6588C85.8125 80.1332 84.8318 78.6307 84.1032 77.2209C82.5652 74.2448 81.4599 70.5736 80.6657 66.7714Z" fill="black"/>
<path d="M92.5767 88.3424C94.0009 89.8743 95.4199 91.3165 96.7093 92.5856C99.6934 95.5225 104.393 95.5225 107.377 92.5856C108.505 91.4755 109.731 90.2332 110.974 88.9144L148.712 110.425L130.601 120.994L109.335 109.276C104.316 106.511 98.231 106.511 93.2127 109.276L72.714 120.571L54.59 109.995L92.5767 88.3424Z" fill="black"/>
<path d="M116.684 82.2729C118.007 80.5373 119.157 78.8195 119.983 77.2209C121.415 74.4491 122.473 71.0748 123.253 67.553L162.129 89.7128V93.0038C162.129 97.668 160.184 102.057 156.865 105.176L116.684 82.2729Z" fill="black"/>
<path d="M81.1455 125.492L93.6011 132.76C98.8032 135.796 105.237 135.796 110.439 132.76L122.17 125.915L109.335 118.843C104.316 116.077 98.231 116.077 93.2127 118.843L81.1455 125.492Z" fill="black"/>
<path d="M5.5605 188.459L8.36448 180.375H20.2963L23.0854 188.459H27.9774L16.9852 157.914H11.6606L0.668457 188.459H5.5605ZM9.70681 176.498L14.2111 163.462H14.4497L18.954 176.498H9.70681Z" fill="black"/>
<path d="M51.6248 167.564H56.3528C55.3236 161.613 50.2377 157.496 43.6454 157.496C35.7405 157.496 29.9685 163.447 29.9685 173.201C29.9685 182.866 35.5765 188.877 43.8542 188.877C51.2668 188.877 56.5616 184.015 56.5616 176.304V172.828H44.5552V176.632H52.1021C51.9976 181.554 48.7462 184.671 43.8542 184.671C38.4699 184.671 34.5474 180.599 34.5474 173.172C34.5474 165.774 38.4998 161.702 43.6752 161.702C47.732 161.702 50.4763 163.939 51.6248 167.564Z" fill="black"/>
<path d="M71.4316 188.459H77.8897V179.779L81.0665 175.901L89.4337 188.459H97.1596L85.6901 171.591L97.0253 157.914H89.2846L78.2924 171.382H77.8897V157.914H71.4316V188.459Z" fill="black"/>
<path d="M100.389 188.459H106.847V177.631H111.56L117.347 188.459H124.476L117.988 176.587C121.463 175.096 123.387 172.068 123.387 167.892C123.387 161.821 119.375 157.914 112.44 157.914H100.389V188.459ZM106.847 172.441V163.194H111.202C114.931 163.194 116.735 164.849 116.735 167.892C116.735 170.919 114.931 172.441 111.232 172.441H106.847Z" fill="black"/>
<path d="M134.409 157.914H127.951V188.459H134.409V157.914Z" fill="black"/>
<path d="M138.559 163.238H147.911V188.459H154.294V163.238H163.646V157.914H138.559V163.238Z" fill="black"/>
<path d="M174.235 157.914H167.777V188.459H174.235V157.914Z" fill="black"/>
<path d="M196.119 166.699H202.309C202.219 161.255 197.745 157.496 190.944 157.496C184.247 157.496 179.34 161.195 179.37 166.743C179.355 171.248 182.532 173.828 187.692 175.066L191.018 175.901C194.344 176.706 196.194 177.661 196.209 179.719C196.194 181.956 194.076 183.478 190.795 183.478C187.439 183.478 185.023 181.926 184.814 178.869H178.564C178.728 185.476 183.456 188.892 190.869 188.892C198.326 188.892 202.711 185.327 202.726 179.734C202.711 174.648 198.878 171.949 193.569 170.755L190.824 170.099C188.17 169.488 185.947 168.503 185.992 166.311C185.992 164.342 187.737 162.895 190.899 162.895C193.986 162.895 195.88 164.297 196.119 166.699Z" fill="black"/>
<path d="M4.01716 214.459L5.33392 210.752H10.6265L11.9433 214.459H13.6052L8.79841 201.368H7.16204L2.35522 214.459H4.01716ZM5.8325 209.345L7.92909 203.439H8.03136L10.128 209.345H5.8325Z" fill="black"/>
<path d="M15.4397 214.459H16.9483V208.246C16.9483 206.916 17.9966 205.945 19.4284 205.945C19.8311 205.945 20.2466 206.021 20.3488 206.047V204.513C20.1762 204.5 19.7799 204.487 19.5562 204.487C18.3801 204.487 17.3574 205.152 16.9994 206.124H16.8971V204.641H15.4397V214.459Z" fill="black"/>
<path d="M22.3416 214.459H23.7989V212.95H23.9779C24.3103 213.487 24.9495 214.664 26.8416 214.664C29.2961 214.664 31.0092 212.695 31.0092 209.575C31.0092 206.482 29.2961 204.513 26.816 204.513C24.8984 204.513 24.3103 205.689 23.9779 206.2H23.8501V201.368H22.3416V214.459ZM23.8245 209.55C23.8245 207.351 24.7961 205.868 26.637 205.868C28.5546 205.868 29.5006 207.479 29.5006 209.55C29.5006 211.646 28.5291 213.308 26.637 213.308C24.8217 213.308 23.8245 211.774 23.8245 209.55Z" fill="black"/>
<path d="M37.4332 214.664C39.4275 214.664 40.8849 213.666 41.3451 212.183L39.8877 211.774C39.5042 212.797 38.6157 213.308 37.4332 213.308C35.6626 213.308 34.4417 212.164 34.3714 210.061H41.4985V209.422C41.4985 205.766 39.3252 204.513 37.2798 204.513C34.6207 204.513 32.8565 206.61 32.8565 209.627C32.8565 212.644 34.5951 214.664 37.4332 214.664ZM34.3714 208.757C34.4737 207.23 35.5539 205.868 37.2798 205.868C38.9161 205.868 39.9644 207.095 39.9644 208.757H34.3714Z" fill="black"/>
<path d="M43.7933 214.459H45.3018V204.641H43.7933V214.459ZM44.5603 203.004C45.1484 203.004 45.6342 202.544 45.6342 201.982C45.6342 201.419 45.1484 200.959 44.5603 200.959C43.9722 200.959 43.4864 201.419 43.4864 201.982C43.4864 202.544 43.9722 203.004 44.5603 203.004Z" fill="black"/>
<path d="M52.3346 204.641H50.238V202.289H48.7295V204.641H47.2466V205.919H48.7295V212.056C48.7295 213.769 50.1102 214.587 51.3886 214.587C51.9511 214.587 52.3091 214.485 52.5136 214.408L52.2068 213.053C52.0789 213.078 51.8744 213.129 51.542 213.129C50.8772 213.129 50.238 212.925 50.238 211.646V205.919H52.3346V204.641Z" fill="black"/>
<path d="M61.3826 206.84C60.9096 205.446 59.8485 204.513 57.9053 204.513C55.8343 204.513 54.3002 205.689 54.3002 207.351C54.3002 208.706 55.1056 209.614 56.9081 210.036L58.5445 210.419C59.5353 210.649 60.0019 211.122 60.0019 211.8C60.0019 212.644 59.107 213.334 57.7008 213.334C56.4671 213.334 55.6936 212.803 55.4252 211.749L53.9934 212.107C54.3449 213.775 55.7192 214.664 57.7263 214.664C60.0083 214.664 61.5615 213.417 61.5615 211.723C61.5615 210.355 60.705 209.492 58.9536 209.064L57.4962 208.706C56.3329 208.419 55.8087 208.029 55.8087 207.274C55.8087 206.431 56.7036 205.817 57.9053 205.817C59.2221 205.817 59.7654 206.546 60.0275 207.223L61.3826 206.84Z" fill="black"/>
<path d="M67.7954 218.345C70.1477 218.345 72.0397 217.271 72.0397 214.74V204.641H70.5823V206.2H70.4289C70.0965 205.689 69.4829 204.513 67.5653 204.513C65.0852 204.513 63.3721 206.482 63.3721 209.499C63.3721 212.567 65.1619 214.306 67.5397 214.306C69.4573 214.306 70.071 213.181 70.4033 212.644H70.5312V214.638C70.5312 216.274 69.3806 217.016 67.7954 217.016C66.012 217.016 65.3856 216.076 64.9829 215.533L63.7812 216.377C64.3948 217.406 65.6029 218.345 67.7954 218.345ZM67.7443 212.95C65.8522 212.95 64.8806 211.519 64.8806 209.473C64.8806 207.479 65.8266 205.868 67.7443 205.868C69.5852 205.868 70.5568 207.351 70.5568 209.473C70.5568 211.646 69.5596 212.95 67.7443 212.95Z" fill="black"/>
<path d="M74.8011 214.459H76.3096V208.246C76.3096 206.916 77.3579 205.945 78.7897 205.945C79.1924 205.945 79.6079 206.021 79.7102 206.047V204.513C79.5376 204.5 79.1413 204.487 78.9175 204.487C77.7414 204.487 76.7187 205.152 76.3607 206.124H76.2585V204.641H74.8011V214.459Z" fill="black"/>
<path d="M87.6858 210.445C87.6858 212.286 86.2796 213.129 85.1546 213.129C83.9017 213.129 83.0069 212.209 83.0069 210.777V204.641H81.4983V210.879C81.4983 213.385 82.8279 214.587 84.6688 214.587C86.1517 214.587 87.1233 213.794 87.5836 212.797H87.6858V214.459H89.1944V204.641H87.6858V210.445Z" fill="black"/>
<path d="M91.9573 218.141H93.4658V212.95H93.5937C93.9261 213.487 94.5653 214.664 96.4573 214.664C98.9119 214.664 100.625 212.695 100.625 209.575C100.625 206.482 98.9119 204.513 96.4318 204.513C94.5141 204.513 93.9261 205.689 93.5937 206.2H93.4147V204.641H91.9573V218.141ZM93.4403 209.55C93.4403 207.351 94.4119 205.868 96.2528 205.868C98.1704 205.868 99.1164 207.479 99.1164 209.55C99.1164 211.646 98.1448 213.308 96.2528 213.308C94.4374 213.308 93.4403 211.774 93.4403 209.55Z" fill="black"/>
<path d="M102.926 218.141H104.435V212.95H104.562C104.895 213.487 105.534 214.664 107.426 214.664C109.881 214.664 111.594 212.695 111.594 209.575C111.594 206.482 109.881 204.513 107.401 204.513C105.483 204.513 104.895 205.689 104.562 206.2H104.383V204.641H102.926V218.141ZM104.409 209.55C104.409 207.351 105.381 205.868 107.222 205.868C109.139 205.868 110.085 207.479 110.085 209.55C110.085 211.646 109.114 213.308 107.222 213.308C105.406 213.308 104.409 211.774 104.409 209.55Z" fill="black"/>
<path d="M118.011 214.664C120.006 214.664 121.463 213.666 121.923 212.183L120.466 211.774C120.082 212.797 119.194 213.308 118.011 213.308C116.241 213.308 115.02 212.164 114.95 210.061H122.077V209.422C122.077 205.766 119.903 204.513 117.858 204.513C115.199 204.513 113.435 206.61 113.435 209.627C113.435 212.644 115.173 214.664 118.011 214.664ZM114.95 208.757C115.052 207.23 116.132 205.868 117.858 205.868C119.494 205.868 120.543 207.095 120.543 208.757H114.95Z" fill="black"/>
<path d="M129.638 214.459H131.224V210.215L132.86 208.374L137.411 214.459H139.329L133.832 207.274L139.329 201.368H137.258L131.377 207.862H131.224V201.368H129.638V214.459Z" fill="black"/>
<path d="M141.176 214.459H142.685V208.246C142.685 206.916 143.733 205.945 145.165 205.945C145.567 205.945 145.983 206.021 146.085 206.047V204.513C145.913 204.5 145.516 204.487 145.293 204.487C144.116 204.487 143.094 205.152 142.736 206.124H142.633V204.641H141.176V214.459Z" fill="black"/>
<path d="M147.873 214.459H149.382V204.641H147.873V214.459ZM148.64 203.004C149.228 203.004 149.714 202.544 149.714 201.982C149.714 201.419 149.228 200.959 148.64 200.959C148.052 200.959 147.567 201.419 147.567 201.982C147.567 202.544 148.052 203.004 148.64 203.004Z" fill="black"/>
<path d="M156.415 204.641H154.318V202.289H152.81V204.641H151.327V205.919H152.81V212.056C152.81 213.769 154.19 214.587 155.469 214.587C156.031 214.587 156.389 214.485 156.594 214.408L156.287 213.053C156.159 213.078 155.954 213.129 155.622 213.129C154.957 213.129 154.318 212.925 154.318 211.646V205.919H156.415V204.641Z" fill="black"/>
<path d="M158.684 214.459H160.192V204.641H158.684V214.459ZM159.451 203.004C160.039 203.004 160.525 202.544 160.525 201.982C160.525 201.419 160.039 200.959 159.451 200.959C158.863 200.959 158.377 201.419 158.377 201.982C158.377 202.544 158.863 203.004 159.451 203.004Z" fill="black"/>
<path d="M169.91 206.84C169.437 205.446 168.376 204.513 166.433 204.513C164.362 204.513 162.828 205.689 162.828 207.351C162.828 208.706 163.633 209.614 165.435 210.036L167.072 210.419C168.063 210.649 168.529 211.122 168.529 211.8C168.529 212.644 167.634 213.334 166.228 213.334C164.994 213.334 164.221 212.803 163.953 211.749L162.521 212.107C162.872 213.775 164.247 214.664 166.254 214.664C168.536 214.664 170.089 213.417 170.089 211.723C170.089 210.355 169.232 209.492 167.481 209.064L166.024 208.706C164.86 208.419 164.336 208.029 164.336 207.274C164.336 206.431 165.231 205.817 166.433 205.817C167.749 205.817 168.293 206.546 168.555 207.223L169.91 206.84Z" fill="black"/>
<path d="M176.348 214.664C178.522 214.664 179.953 213.334 180.209 211.595H178.701C178.419 212.669 177.524 213.308 176.348 213.308C174.559 213.308 173.408 211.825 173.408 209.55C173.408 207.325 174.584 205.868 176.348 205.868C177.678 205.868 178.47 206.686 178.701 207.581H180.209C179.953 205.74 178.394 204.513 176.323 204.513C173.664 204.513 171.899 206.61 171.899 209.601C171.899 212.541 173.587 214.664 176.348 214.664Z" fill="black"/>
<path d="M183.923 208.553C183.923 206.84 185.016 205.868 186.505 205.868C187.924 205.868 188.781 206.763 188.781 208.323V214.459H190.289V208.22C190.289 205.695 188.947 204.513 186.94 204.513C185.393 204.513 184.511 205.159 184.051 206.175H183.923V201.368H182.414V214.459H183.923V208.553Z" fill="black"/>
<path d="M197.166 214.664C199.16 214.664 200.617 213.666 201.078 212.183L199.62 211.774C199.237 212.797 198.348 213.308 197.166 213.308C195.395 213.308 194.174 212.164 194.104 210.061H201.231V209.422C201.231 205.766 199.058 204.513 197.012 204.513C194.353 204.513 192.589 206.61 192.589 209.627C192.589 212.644 194.328 214.664 197.166 214.664ZM194.104 208.757C194.206 207.23 195.286 205.868 197.012 205.868C198.649 205.868 199.697 207.095 199.697 208.757H194.104Z" fill="black"/>
<path d="M42.2344 221.368H40.6492V234.459H42.2344V221.368Z" fill="black"/>
<path d="M46.7168 228.553C46.7168 226.84 47.7779 225.868 49.2225 225.868C50.6224 225.868 51.4725 226.782 51.4725 228.323V234.459H52.981V228.22C52.981 225.715 51.6451 224.513 49.6572 224.513C48.1742 224.513 47.2537 225.178 46.7935 226.175H46.6657V224.641H45.2083V234.459H46.7168V228.553Z" fill="black"/>
<path d="M60.1098 224.641H57.9109V223.644C57.9109 222.672 58.32 222.161 59.3171 222.161C59.7518 222.161 60.0075 222.263 60.1609 222.314L60.5955 221.01C60.3654 220.908 59.9052 220.754 59.1637 220.754C57.7575 220.754 56.4024 221.598 56.4024 223.286V224.641H54.8171V225.919H56.4024V234.459H57.9109V225.919H60.1098V224.641Z" fill="black"/>
<path d="M62.2239 234.459H63.7324V228.246C63.7324 226.916 64.7807 225.945 66.2126 225.945C66.6153 225.945 67.0307 226.021 67.133 226.047V224.513C66.9604 224.5 66.5641 224.487 66.3404 224.487C65.1643 224.487 64.1415 225.152 63.7836 226.124H63.6813V224.641H62.2239V234.459Z" fill="black"/>
<path d="M71.8104 234.689C73.5235 234.689 74.4183 233.769 74.7252 233.129H74.8019V234.459H76.3104V227.99C76.3104 224.871 73.9326 224.513 72.6797 224.513C71.1968 224.513 69.5093 225.024 68.7422 226.814L70.174 227.325C70.5064 226.61 71.2926 225.843 72.7308 225.843C74.1179 225.843 74.8019 226.578 74.8019 227.837V227.888C74.8019 228.617 74.0604 228.553 72.2706 228.783C70.4489 229.019 68.461 229.422 68.461 231.672C68.461 233.59 69.9439 234.689 71.8104 234.689ZM72.0405 233.334C70.8388 233.334 69.9695 232.797 69.9695 231.749C69.9695 230.598 71.0178 230.24 72.1939 230.087C72.8331 230.01 74.5462 229.831 74.8019 229.524V230.905C74.8019 232.132 73.8303 233.334 72.0405 233.334Z" fill="black"/>
<path d="M86.0183 226.84C85.5453 225.446 84.4842 224.513 82.541 224.513C80.47 224.513 78.9359 225.689 78.9359 227.351C78.9359 228.706 79.7413 229.614 81.5439 230.036L83.1802 230.419C84.171 230.649 84.6376 231.122 84.6376 231.8C84.6376 232.644 83.7427 233.334 82.3365 233.334C81.1028 233.334 80.3294 232.803 80.0609 231.749L78.6291 232.107C78.9807 233.775 80.355 234.664 82.3621 234.664C84.644 234.664 86.1973 233.417 86.1973 231.723C86.1973 230.355 85.3408 229.492 83.5893 229.064L82.132 228.706C80.9686 228.419 80.4445 228.029 80.4445 227.274C80.4445 226.431 81.3393 225.817 82.541 225.817C83.8578 225.817 84.4011 226.546 84.6632 227.223L86.0183 226.84Z" fill="black"/>
<path d="M92.7379 224.641H90.6414V222.289H89.1328V224.641H87.6499V225.919H89.1328V232.056C89.1328 233.769 90.5135 234.587 91.7919 234.587C92.3544 234.587 92.7124 234.485 92.9169 234.408L92.6101 233.053C92.4823 233.078 92.2777 233.129 91.9453 233.129C91.2806 233.129 90.6414 232.925 90.6414 231.646V225.919H92.7379V224.641Z" fill="black"/>
<path d="M95.0071 234.459H96.5156V228.246C96.5156 226.916 97.5639 225.945 98.9958 225.945C99.3985 225.945 99.8139 226.021 99.9162 226.047V224.513C99.7436 224.5 99.3473 224.487 99.1236 224.487C97.9475 224.487 96.9247 225.152 96.5668 226.124H96.4645V224.641H95.0071V234.459Z" fill="black"/>
<path d="M107.892 230.445C107.892 232.286 106.486 233.129 105.361 233.129C104.108 233.129 103.213 232.209 103.213 230.777V224.641H101.704V230.879C101.704 233.385 103.034 234.587 104.875 234.587C106.358 234.587 107.329 233.794 107.79 232.797H107.892V234.459H109.4V224.641H107.892V230.445Z" fill="black"/>
<path d="M112.163 234.459H113.672V230.784L114.727 229.806L118.402 234.459H120.32L115.864 228.834L120.013 224.641H118.146L113.851 229.013H113.672V221.368H112.163V234.459Z" fill="black"/>
<path d="M126.224 224.641H124.128V222.289H122.619V224.641H121.136V225.919H122.619V232.056C122.619 233.769 124 234.587 125.278 234.587C125.841 234.587 126.199 234.485 126.403 234.408L126.096 233.053C125.969 233.078 125.764 233.129 125.432 233.129C124.767 233.129 124.128 232.925 124.128 231.646V225.919H126.224V224.641Z" fill="black"/>
<path d="M134.681 230.445C134.681 232.286 133.275 233.129 132.15 233.129C130.897 233.129 130.002 232.209 130.002 230.777V224.641H128.493V230.879C128.493 233.385 129.823 234.587 131.664 234.587C133.147 234.587 134.118 233.794 134.579 232.797H134.681V234.459H136.189V224.641H134.681V230.445Z" fill="black"/>
<path d="M138.952 234.459H140.461V228.246C140.461 226.916 141.509 225.945 142.941 225.945C143.344 225.945 143.759 226.021 143.862 226.047V224.513C143.689 224.5 143.293 224.487 143.069 224.487C141.893 224.487 140.87 225.152 140.512 226.124H140.41V224.641H138.952V234.459Z" fill="black"/>
<path d="M149.467 234.664C151.462 234.664 152.919 233.666 153.379 232.183L151.922 231.774C151.538 232.797 150.65 233.308 149.467 233.308C147.697 233.308 146.476 232.164 146.406 230.061H153.533V229.422C153.533 225.766 151.359 224.513 149.314 224.513C146.655 224.513 144.891 226.61 144.891 229.627C144.891 232.644 146.629 234.664 149.467 234.664ZM146.406 228.757C146.508 227.23 147.588 225.868 149.314 225.868C150.95 225.868 151.999 227.095 151.999 228.757H146.406Z" fill="black"/>
<path d="M157.336 228.553C157.336 226.84 158.397 225.868 159.842 225.868C161.242 225.868 162.092 226.782 162.092 228.323V234.459H163.6V228.22C163.6 225.715 162.264 224.513 160.276 224.513C158.793 224.513 157.873 225.178 157.413 226.175H157.285V224.641H155.827V234.459H157.336V228.553Z" fill="black"/>
</svg>
