<svg width="203" height="235" viewBox="0 0 203 235" fill="none" xmlns="http://www.w3.org/2000/svg">
<path d="M41.5474 49.1129V42.0333C41.5474 36.0935 44.7017 30.6004 49.832 27.6066L93.2378 2.2769C98.4399 -0.758966 104.873 -0.758966 110.075 2.2769L153.481 27.6066C158.612 30.6004 161.766 36.0935 161.766 42.0333V49.9638L109.182 19.9907C104.055 17.068 97.7658 17.068 92.6388 19.9907L41.5474 49.1129Z" fill="#15B5E8"/>
<path d="M78.93 57.6577C78.736 55.7568 78.6005 53.9433 78.5058 52.2968C78.2455 47.7619 81.935 44.1337 86.4773 44.1337H116.882C121.425 44.1337 125.114 47.7619 124.854 52.2968C124.746 54.1806 124.584 56.2832 124.342 58.4852L161.766 79.8168V59.8596L109.182 29.8866C104.055 26.9641 97.7658 26.9641 92.6388 29.8866L41.5474 59.009V78.9659L78.93 57.6577Z" fill="#15B5E8"/>
<path d="M80.3024 66.7714L41.5474 88.862V93.0038C41.5474 97.4054 43.2797 101.562 46.2644 104.637L86.578 81.6588C85.4492 80.1332 84.4685 78.6307 83.74 77.2209C82.2019 74.2448 81.0966 70.5736 80.3024 66.7714Z" fill="#15B5E8"/>
<path d="M92.2134 88.3424C93.6377 89.8743 95.0566 91.3165 96.3461 92.5856C99.3301 95.5225 104.03 95.5225 107.014 92.5856C108.141 91.4755 109.368 90.2332 110.611 88.9144L148.349 110.425L130.238 120.994L108.971 109.276C103.953 106.511 97.8678 106.511 92.8494 109.276L72.3507 120.571L54.2267 109.995L92.2134 88.3424Z" fill="#15B5E8"/>
<path d="M116.32 82.2729C117.643 80.5373 118.794 78.8195 119.62 77.2209C121.052 74.4491 122.109 71.0748 122.889 67.553L161.766 89.7128V93.0038C161.766 97.668 159.821 102.057 156.501 105.176L116.32 82.2729Z" fill="#15B5E8"/>
<path d="M80.7822 125.492L93.2378 132.76C98.4399 135.796 104.873 135.796 110.075 132.76L121.806 125.915L108.971 118.843C103.953 116.077 97.8678 116.077 92.8494 118.843L80.7822 125.492Z" fill="#15B5E8"/>
<path d="M5.19722 188.459L8.0012 180.375H19.933L22.7221 188.459H27.6141L16.6219 157.914H11.2974L0.305176 188.459H5.19722ZM9.34353 176.498L13.8478 163.462H14.0864L18.5907 176.498H9.34353Z" fill="black"/>
<path d="M51.2615 167.564H55.9895C54.9604 161.613 49.8744 157.496 43.2821 157.496C35.3773 157.496 29.6052 163.447 29.6052 173.201C29.6052 182.866 35.2132 188.877 43.4909 188.877C50.9035 188.877 56.1983 184.015 56.1983 176.304V172.828H44.1919V176.632H51.7388C51.6344 181.554 48.3829 184.671 43.4909 184.671C38.1067 184.671 34.1841 180.599 34.1841 173.172C34.1841 165.774 38.1365 161.702 43.3119 161.702C47.3687 161.702 50.1131 163.939 51.2615 167.564Z" fill="black"/>
<path d="M71.0683 188.459H77.5264V179.779L80.7033 175.901L89.0704 188.459H96.7963L85.3268 171.591L96.6621 157.914H88.9213L77.9291 171.382H77.5264V157.914H71.0683V188.459Z" fill="black"/>
<path d="M100.025 188.459H106.483V177.631H111.197L116.983 188.459H124.113L117.625 176.587C121.1 175.096 123.024 172.068 123.024 167.892C123.024 161.821 119.012 157.914 112.076 157.914H100.025V188.459ZM106.483 172.441V163.194H110.839C114.567 163.194 116.372 164.849 116.372 167.892C116.372 170.919 114.567 172.441 110.868 172.441H106.483Z" fill="black"/>
<path d="M134.046 157.914H127.588V188.459H134.046V157.914Z" fill="black"/>
<path d="M138.196 163.238H147.548V188.459H153.931V163.238H163.283V157.914H138.196V163.238Z" fill="black"/>
<path d="M173.872 157.914H167.414V188.459H173.872V157.914Z" fill="black"/>
<path d="M195.756 166.699H201.945C201.856 161.255 197.382 157.496 190.58 157.496C183.884 157.496 178.977 161.195 179.007 166.743C178.992 171.248 182.168 173.828 187.329 175.066L190.655 175.901C193.981 176.706 195.83 177.661 195.845 179.719C195.83 181.956 193.712 183.478 190.431 183.478C187.075 183.478 184.659 181.926 184.45 178.869H178.201C178.365 185.476 183.093 188.892 190.506 188.892C197.963 188.892 202.348 185.327 202.363 179.734C202.348 174.648 198.515 171.949 193.205 170.755L190.461 170.099C187.806 169.488 185.584 168.503 185.629 166.311C185.629 164.342 187.374 162.895 190.536 162.895C193.623 162.895 195.517 164.297 195.756 166.699Z" fill="black"/>
<path d="M3.65388 214.459L4.97064 210.752H10.2633L11.58 214.459H13.2419L8.43513 201.368H6.79876L1.99194 214.459H3.65388ZM5.46922 209.345L7.56581 203.439H7.66808L9.76467 209.345H5.46922Z" fill="black"/>
<path d="M15.0765 214.459H16.585V208.246C16.585 206.916 17.6333 205.945 19.0651 205.945C19.4678 205.945 19.8833 206.021 19.9856 206.047V204.513C19.813 204.5 19.4167 204.487 19.1929 204.487C18.0168 204.487 16.9941 205.152 16.6361 206.124H16.5338V204.641H15.0765V214.459Z" fill="black"/>
<path d="M21.9783 214.459H23.4357V212.95H23.6146C23.947 213.487 24.5862 214.664 26.4783 214.664C28.9328 214.664 30.6459 212.695 30.6459 209.575C30.6459 206.482 28.9328 204.513 26.4527 204.513C24.5351 204.513 23.947 205.689 23.6146 206.2H23.4868V201.368H21.9783V214.459ZM23.4612 209.55C23.4612 207.351 24.4328 205.868 26.2737 205.868C28.1913 205.868 29.1374 207.479 29.1374 209.55C29.1374 211.646 28.1658 213.308 26.2737 213.308C24.4584 213.308 23.4612 211.774 23.4612 209.55Z" fill="black"/>
<path d="M37.0699 214.664C39.0642 214.664 40.5216 213.666 40.9818 212.183L39.5244 211.774C39.1409 212.797 38.2524 213.308 37.0699 213.308C35.2993 213.308 34.0784 212.164 34.0081 210.061H41.1352V209.422C41.1352 205.766 38.9619 204.513 36.9165 204.513C34.2574 204.513 32.4932 206.61 32.4932 209.627C32.4932 212.644 34.2318 214.664 37.0699 214.664ZM34.0081 208.757C34.1104 207.23 35.1906 205.868 36.9165 205.868C38.5528 205.868 39.6011 207.095 39.6011 208.757H34.0081Z" fill="black"/>
<path d="M43.43 214.459H44.9385V204.641H43.43V214.459ZM44.197 203.004C44.7851 203.004 45.2709 202.544 45.2709 201.982C45.2709 201.419 44.7851 200.959 44.197 200.959C43.609 200.959 43.1232 201.419 43.1232 201.982C43.1232 202.544 43.609 203.004 44.197 203.004Z" fill="black"/>
<path d="M51.9713 204.641H49.8748V202.289H48.3662V204.641H46.8833V205.919H48.3662V212.056C48.3662 213.769 49.7469 214.587 51.0253 214.587C51.5878 214.587 51.9458 214.485 52.1503 214.408L51.8435 213.053C51.7157 213.078 51.5111 213.129 51.1787 213.129C50.514 213.129 49.8748 212.925 49.8748 211.646V205.919H51.9713V204.641Z" fill="black"/>
<path d="M61.0193 206.84C60.5463 205.446 59.4852 204.513 57.542 204.513C55.471 204.513 53.9369 205.689 53.9369 207.351C53.9369 208.706 54.7423 209.614 56.5449 210.036L58.1812 210.419C59.172 210.649 59.6386 211.122 59.6386 211.8C59.6386 212.644 58.7437 213.334 57.3375 213.334C56.1038 213.334 55.3304 212.803 55.0619 211.749L53.6301 212.107C53.9816 213.775 55.3559 214.664 57.363 214.664C59.645 214.664 61.1983 213.417 61.1983 211.723C61.1983 210.355 60.3417 209.492 58.5903 209.064L57.1329 208.706C55.9696 208.419 55.4454 208.029 55.4454 207.274C55.4454 206.431 56.3403 205.817 57.542 205.817C58.8588 205.817 59.4021 206.546 59.6642 207.223L61.0193 206.84Z" fill="black"/>
<path d="M67.4321 218.345C69.7844 218.345 71.6764 217.271 71.6764 214.74V204.641H70.219V206.2H70.0656C69.7332 205.689 69.1196 204.513 67.202 204.513C64.7219 204.513 63.0088 206.482 63.0088 209.499C63.0088 212.567 64.7986 214.306 67.1764 214.306C69.094 214.306 69.7077 213.181 70.0401 212.644H70.1679V214.638C70.1679 216.274 69.0173 217.016 67.4321 217.016C65.6487 217.016 65.0223 216.076 64.6196 215.533L63.4179 216.377C64.0315 217.406 65.2396 218.345 67.4321 218.345ZM67.381 212.95C65.4889 212.95 64.5173 211.519 64.5173 209.473C64.5173 207.479 65.4634 205.868 67.381 205.868C69.2219 205.868 70.1935 207.351 70.1935 209.473C70.1935 211.646 69.1963 212.95 67.381 212.95Z" fill="black"/>
<path d="M74.4378 214.459H75.9463V208.246C75.9463 206.916 76.9946 205.945 78.4264 205.945C78.8291 205.945 79.2446 206.021 79.3469 206.047V204.513C79.1743 204.5 78.778 204.487 78.5543 204.487C77.3781 204.487 76.3554 205.152 75.9974 206.124H75.8952V204.641H74.4378V214.459Z" fill="black"/>
<path d="M87.3226 210.445C87.3226 212.286 85.9163 213.129 84.7913 213.129C83.5385 213.129 82.6436 212.209 82.6436 210.777V204.641H81.1351V210.879C81.1351 213.385 82.4646 214.587 84.3055 214.587C85.7885 214.587 86.7601 213.794 87.2203 212.797H87.3226V214.459H88.8311V204.641H87.3226V210.445Z" fill="black"/>
<path d="M91.594 218.141H93.1026V212.95H93.2304C93.5628 213.487 94.202 214.664 96.094 214.664C98.5486 214.664 100.262 212.695 100.262 209.575C100.262 206.482 98.5486 204.513 96.0685 204.513C94.1509 204.513 93.5628 205.689 93.2304 206.2H93.0514V204.641H91.594V218.141ZM93.077 209.55C93.077 207.351 94.0486 205.868 95.8895 205.868C97.8071 205.868 98.7531 207.479 98.7531 209.55C98.7531 211.646 97.7815 213.308 95.8895 213.308C94.0742 213.308 93.077 211.774 93.077 209.55Z" fill="black"/>
<path d="M102.563 218.141H104.071V212.95H104.199C104.532 213.487 105.171 214.664 107.063 214.664C109.517 214.664 111.23 212.695 111.23 209.575C111.23 206.482 109.517 204.513 107.037 204.513C105.12 204.513 104.532 205.689 104.199 206.2H104.02V204.641H102.563V218.141ZM104.046 209.55C104.046 207.351 105.017 205.868 106.858 205.868C108.776 205.868 109.722 207.479 109.722 209.55C109.722 211.646 108.75 213.308 106.858 213.308C105.043 213.308 104.046 211.774 104.046 209.55Z" fill="black"/>
<path d="M117.648 214.664C119.642 214.664 121.1 213.666 121.56 212.183L120.103 211.774C119.719 212.797 118.831 213.308 117.648 213.308C115.877 213.308 114.657 212.164 114.586 210.061H121.713V209.422C121.713 205.766 119.54 204.513 117.495 204.513C114.836 204.513 113.071 206.61 113.071 209.627C113.071 212.644 114.81 214.664 117.648 214.664ZM114.586 208.757C114.689 207.23 115.769 205.868 117.495 205.868C119.131 205.868 120.179 207.095 120.179 208.757H114.586Z" fill="black"/>
<path d="M129.275 214.459H130.86V210.215L132.497 208.374L137.048 214.459H138.965L133.468 207.274L138.965 201.368H136.894L131.014 207.862H130.86V201.368H129.275V214.459Z" fill="black"/>
<path d="M140.813 214.459H142.321V208.246C142.321 206.916 143.37 205.945 144.801 205.945C145.204 205.945 145.62 206.021 145.722 206.047V204.513C145.549 204.5 145.153 204.487 144.929 204.487C143.753 204.487 142.73 205.152 142.372 206.124H142.27V204.641H140.813V214.459Z" fill="black"/>
<path d="M147.51 214.459H149.019V204.641H147.51V214.459ZM148.277 203.004C148.865 203.004 149.351 202.544 149.351 201.982C149.351 201.419 148.865 200.959 148.277 200.959C147.689 200.959 147.203 201.419 147.203 201.982C147.203 202.544 147.689 203.004 148.277 203.004Z" fill="black"/>
<path d="M156.051 204.641H153.955V202.289H152.446V204.641H150.963V205.919H152.446V212.056C152.446 213.769 153.827 214.587 155.105 214.587C155.668 214.587 156.026 214.485 156.23 214.408L155.924 213.053C155.796 213.078 155.591 213.129 155.259 213.129C154.594 213.129 153.955 212.925 153.955 211.646V205.919H156.051V204.641Z" fill="black"/>
<path d="M158.321 214.459H159.829V204.641H158.321V214.459ZM159.088 203.004C159.676 203.004 160.162 202.544 160.162 201.982C160.162 201.419 159.676 200.959 159.088 200.959C158.5 200.959 158.014 201.419 158.014 201.982C158.014 202.544 158.5 203.004 159.088 203.004Z" fill="black"/>
<path d="M169.547 206.84C169.074 205.446 168.013 204.513 166.069 204.513C163.998 204.513 162.464 205.689 162.464 207.351C162.464 208.706 163.27 209.614 165.072 210.036L166.709 210.419C167.699 210.649 168.166 211.122 168.166 211.8C168.166 212.644 167.271 213.334 165.865 213.334C164.631 213.334 163.858 212.803 163.589 211.749L162.157 212.107C162.509 213.775 163.883 214.664 165.89 214.664C168.172 214.664 169.726 213.417 169.726 211.723C169.726 210.355 168.869 209.492 167.118 209.064L165.66 208.706C164.497 208.419 163.973 208.029 163.973 207.274C163.973 206.431 164.868 205.817 166.069 205.817C167.386 205.817 167.929 206.546 168.192 207.223L169.547 206.84Z" fill="black"/>
<path d="M175.985 214.664C178.158 214.664 179.59 213.334 179.846 211.595H178.337C178.056 212.669 177.161 213.308 175.985 213.308C174.195 213.308 173.045 211.825 173.045 209.55C173.045 207.325 174.221 205.868 175.985 205.868C177.315 205.868 178.107 206.686 178.337 207.581H179.846C179.59 205.74 178.03 204.513 175.959 204.513C173.3 204.513 171.536 206.61 171.536 209.601C171.536 212.541 173.224 214.664 175.985 214.664Z" fill="black"/>
<path d="M183.56 208.553C183.56 206.84 184.653 205.868 186.142 205.868C187.561 205.868 188.418 206.763 188.418 208.323V214.459H189.926V208.22C189.926 205.695 188.584 204.513 186.577 204.513C185.03 204.513 184.148 205.159 183.687 206.175H183.56V201.368H182.051V214.459H183.56V208.553Z" fill="black"/>
<path d="M196.802 214.664C198.797 214.664 200.254 213.666 200.714 212.183L199.257 211.774C198.873 212.797 197.985 213.308 196.802 213.308C195.032 213.308 193.811 212.164 193.741 210.061H200.868V209.422C200.868 205.766 198.694 204.513 196.649 204.513C193.99 204.513 192.226 206.61 192.226 209.627C192.226 212.644 193.964 214.664 196.802 214.664ZM193.741 208.757C193.843 207.23 194.923 205.868 196.649 205.868C198.285 205.868 199.334 207.095 199.334 208.757H193.741Z" fill="black"/>
<path d="M41.8711 221.368H40.2859V234.459H41.8711V221.368Z" fill="black"/>
<path d="M46.3535 228.553C46.3535 226.84 47.4146 225.868 48.8592 225.868C50.2591 225.868 51.1092 226.782 51.1092 228.323V234.459H52.6177V228.22C52.6177 225.715 51.2818 224.513 49.2939 224.513C47.8109 224.513 46.8905 225.178 46.4302 226.175H46.3024V224.641H44.845V234.459H46.3535V228.553Z" fill="black"/>
<path d="M59.7465 224.641H57.5476V223.644C57.5476 222.672 57.9567 222.161 58.9539 222.161C59.3885 222.161 59.6442 222.263 59.7976 222.314L60.2323 221.01C60.0022 220.908 59.5419 220.754 58.8004 220.754C57.3942 220.754 56.0391 221.598 56.0391 223.286V224.641H54.4539V225.919H56.0391V234.459H57.5476V225.919H59.7465V224.641Z" fill="black"/>
<path d="M61.8606 234.459H63.3692V228.246C63.3692 226.916 64.4175 225.945 65.8493 225.945C66.252 225.945 66.6675 226.021 66.7697 226.047V224.513C66.5971 224.5 66.2008 224.487 65.9771 224.487C64.801 224.487 63.7783 225.152 63.4203 226.124H63.318V224.641H61.8606V234.459Z" fill="black"/>
<path d="M71.4471 234.689C73.1602 234.689 74.0551 233.769 74.3619 233.129H74.4386V234.459H75.9471V227.99C75.9471 224.871 73.5693 224.513 72.3164 224.513C70.8335 224.513 69.146 225.024 68.3789 226.814L69.8107 227.325C70.1431 226.61 70.9294 225.843 72.3676 225.843C73.7546 225.843 74.4386 226.578 74.4386 227.837V227.888C74.4386 228.617 73.6971 228.553 71.9073 228.783C70.0856 229.019 68.0977 229.422 68.0977 231.672C68.0977 233.59 69.5806 234.689 71.4471 234.689ZM71.6772 233.334C70.4755 233.334 69.6062 232.797 69.6062 231.749C69.6062 230.598 70.6545 230.24 71.8306 230.087C72.4698 230.01 74.1829 229.831 74.4386 229.524V230.905C74.4386 232.132 73.467 233.334 71.6772 233.334Z" fill="black"/>
<path d="M85.655 226.84C85.182 225.446 84.1209 224.513 82.1778 224.513C80.1067 224.513 78.5726 225.689 78.5726 227.351C78.5726 228.706 79.378 229.614 81.1806 230.036L82.817 230.419C83.8077 230.649 84.2743 231.122 84.2743 231.8C84.2743 232.644 83.3795 233.334 81.9732 233.334C80.7395 233.334 79.9661 232.803 79.6976 231.749L78.2658 232.107C78.6174 233.775 79.9917 234.664 81.9988 234.664C84.2807 234.664 85.834 233.417 85.834 231.723C85.834 230.355 84.9775 229.492 83.2261 229.064L81.7687 228.706C80.6053 228.419 80.0812 228.029 80.0812 227.274C80.0812 226.431 80.9761 225.817 82.1778 225.817C83.4945 225.817 84.0378 226.546 84.2999 227.223L85.655 226.84Z" fill="black"/>
<path d="M92.3747 224.641H90.2781V222.289H88.7696V224.641H87.2866V225.919H88.7696V232.056C88.7696 233.769 90.1502 234.587 91.4286 234.587C91.9911 234.587 92.3491 234.485 92.5536 234.408L92.2468 233.053C92.119 233.078 91.9144 233.129 91.5821 233.129C90.9173 233.129 90.2781 232.925 90.2781 231.646V225.919H92.3747V224.641Z" fill="black"/>
<path d="M94.6438 234.459H96.1524V228.246C96.1524 226.916 97.2007 225.945 98.6325 225.945C99.0352 225.945 99.4507 226.021 99.5529 226.047V224.513C99.3803 224.5 98.984 224.487 98.7603 224.487C97.5842 224.487 96.5615 225.152 96.2035 226.124H96.1012V224.641H94.6438V234.459Z" fill="black"/>
<path d="M107.529 230.445C107.529 232.286 106.122 233.129 104.997 233.129C103.745 233.129 102.85 232.209 102.85 230.777V224.641H101.341V230.879C101.341 233.385 102.671 234.587 104.512 234.587C105.995 234.587 106.966 233.794 107.426 232.797H107.529V234.459H109.037V224.641H107.529V230.445Z" fill="black"/>
<path d="M111.8 234.459H113.309V230.784L114.363 229.806L118.039 234.459H119.956L115.501 228.834L119.65 224.641H117.783L113.488 229.013H113.309V221.368H111.8V234.459Z" fill="black"/>
<path d="M125.861 224.641H123.764V222.289H122.256V224.641H120.773V225.919H122.256V232.056C122.256 233.769 123.637 234.587 124.915 234.587C125.477 234.587 125.835 234.485 126.04 234.408L125.733 233.053C125.605 233.078 125.401 233.129 125.068 233.129C124.404 233.129 123.764 232.925 123.764 231.646V225.919H125.861V224.641Z" fill="black"/>
<path d="M134.318 230.445C134.318 232.286 132.911 233.129 131.786 233.129C130.534 233.129 129.639 232.209 129.639 230.777V224.641H128.13V230.879C128.13 233.385 129.46 234.587 131.301 234.587C132.784 234.587 133.755 233.794 134.215 232.797H134.318V234.459H135.826V224.641H134.318V230.445Z" fill="black"/>
<path d="M138.589 234.459H140.098V228.246C140.098 226.916 141.146 225.945 142.578 225.945C142.98 225.945 143.396 226.021 143.498 226.047V224.513C143.326 224.5 142.929 224.487 142.706 224.487C141.529 224.487 140.507 225.152 140.149 226.124H140.047V224.641H138.589V234.459Z" fill="black"/>
<path d="M149.104 234.664C151.098 234.664 152.556 233.666 153.016 232.183L151.559 231.774C151.175 232.797 150.287 233.308 149.104 233.308C147.333 233.308 146.113 232.164 146.042 230.061H153.169V229.422C153.169 225.766 150.996 224.513 148.951 224.513C146.292 224.513 144.527 226.61 144.527 229.627C144.527 232.644 146.266 234.664 149.104 234.664ZM146.042 228.757C146.145 227.23 147.225 225.868 148.951 225.868C150.587 225.868 151.635 227.095 151.635 228.757H146.042Z" fill="black"/>
<path d="M156.973 228.553C156.973 226.84 158.034 225.868 159.478 225.868C160.878 225.868 161.728 226.782 161.728 228.323V234.459H163.237V228.22C163.237 225.715 161.901 224.513 159.913 224.513C158.43 224.513 157.51 225.178 157.049 226.175H156.922V224.641H155.464V234.459H156.973V228.553Z" fill="black"/>
</svg>
