<svg width="203" height="189" viewBox="0 0 203 189" fill="none" xmlns="http://www.w3.org/2000/svg">
<path d="M41.9106 49.1124V42.0328C41.9106 36.093 45.065 30.5999 50.1953 27.6061L93.6011 2.27641C98.8032 -0.759455 105.237 -0.759455 110.439 2.27641L153.845 27.6061C158.975 30.5999 162.129 36.093 162.129 42.0328V49.9633L109.545 19.9902C104.418 17.0675 98.1291 17.0675 93.002 19.9902L41.9106 49.1124Z" fill="black"/>
<path d="M79.2932 57.6572C79.0993 55.7563 78.9637 53.9428 78.8691 52.2963C78.6087 47.7614 82.2983 44.1332 86.8406 44.1332H117.246C121.788 44.1332 125.478 47.7614 125.217 52.2963C125.109 54.1801 124.947 56.2828 124.706 58.4847L162.129 79.8163V59.8592L109.545 29.8861C104.418 26.9636 98.1291 26.9636 93.002 29.8861L41.9106 59.0085V78.9654L79.2932 57.6572Z" fill="black"/>
<path d="M80.6657 66.771L41.9106 88.8615V93.0033C41.9106 97.4049 43.643 101.561 46.6277 104.637L86.9413 81.6583C85.8125 80.1327 84.8318 78.6302 84.1032 77.2204C82.5652 74.2443 81.4599 70.5731 80.6657 66.771Z" fill="black"/>
<path d="M92.5767 88.3419C94.0009 89.8738 95.4199 91.316 96.7093 92.5851C99.6934 95.5221 104.393 95.5221 107.377 92.5851C108.505 91.4751 109.731 90.2327 110.974 88.9139L148.712 110.425L130.601 120.994L109.335 109.276C104.316 106.511 98.231 106.511 93.2127 109.276L72.714 120.571L54.59 109.994L92.5767 88.3419Z" fill="black"/>
<path d="M116.684 82.2724C118.007 80.5368 119.157 78.819 119.983 77.2204C121.415 74.4486 122.473 71.0743 123.253 67.5525L162.129 89.7123V93.0033C162.129 97.6675 160.184 102.056 156.865 105.176L116.684 82.2724Z" fill="black"/>
<path d="M81.1455 125.491L93.6011 132.76C98.8032 135.796 105.237 135.796 110.439 132.76L122.17 125.914L109.335 118.842C104.316 116.077 98.231 116.077 93.2127 118.842L81.1455 125.491Z" fill="black"/>
<path d="M5.5605 188.459L8.36448 180.375H20.2963L23.0854 188.459H27.9774L16.9852 157.913H11.6606L0.668457 188.459H5.5605ZM9.70681 176.497L14.2111 163.462H14.4497L18.954 176.497H9.70681Z" fill="black"/>
<path d="M51.6248 167.563H56.3528C55.3236 161.612 50.2377 157.496 43.6454 157.496C35.7405 157.496 29.9685 163.447 29.9685 173.201C29.9685 182.866 35.5765 188.876 43.8542 188.876C51.2668 188.876 56.5616 184.014 56.5616 176.303V172.828H44.5552V176.631H52.1021C51.9976 181.553 48.7462 184.67 43.8542 184.67C38.4699 184.67 34.5474 180.599 34.5474 173.171C34.5474 165.773 38.4998 161.702 43.6752 161.702C47.732 161.702 50.4763 163.939 51.6248 167.563Z" fill="black"/>
<path d="M71.4316 188.459H77.8897V179.778L81.0665 175.9L89.4337 188.459H97.1596L85.6901 171.59L97.0253 157.913H89.2846L78.2924 171.381H77.8897V157.913H71.4316V188.459Z" fill="black"/>
<path d="M100.389 188.459H106.847V177.631H111.56L117.347 188.459H124.476L117.988 176.587C121.463 175.095 123.387 172.067 123.387 167.891C123.387 161.821 119.375 157.913 112.44 157.913H100.389V188.459ZM106.847 172.44V163.193H111.202C114.931 163.193 116.735 164.849 116.735 167.891C116.735 170.919 114.931 172.44 111.232 172.44H106.847Z" fill="black"/>
<path d="M134.409 157.913H127.951V188.459H134.409V157.913Z" fill="black"/>
<path d="M138.559 163.238H147.911V188.459H154.294V163.238H163.646V157.913H138.559V163.238Z" fill="black"/>
<path d="M174.235 157.913H167.777V188.459H174.235V157.913Z" fill="black"/>
<path d="M196.119 166.698H202.309C202.219 161.254 197.745 157.496 190.944 157.496C184.247 157.496 179.34 161.194 179.37 166.743C179.355 171.247 182.532 173.827 187.692 175.065L191.018 175.9C194.344 176.706 196.194 177.66 196.209 179.719C196.194 181.956 194.076 183.477 190.795 183.477C187.439 183.477 185.023 181.926 184.814 178.868H178.564C178.728 185.476 183.456 188.891 190.869 188.891C198.326 188.891 202.711 185.327 202.726 179.734C202.711 174.648 198.878 171.948 193.569 170.755L190.824 170.099C188.17 169.487 185.947 168.503 185.992 166.31C185.992 164.341 187.737 162.895 190.899 162.895C193.986 162.895 195.88 164.297 196.119 166.698Z" fill="black"/>
</svg>
