<svg width="203" height="189" viewBox="0 0 203 189" fill="none" xmlns="http://www.w3.org/2000/svg">
<path d="M41.5601 49.1124V42.0328C41.5601 36.093 44.7144 30.5999 49.8447 27.6061L93.2505 2.27641C98.4526 -0.759455 104.886 -0.759455 110.088 2.27641L153.494 27.6061C158.624 30.5999 161.779 36.093 161.779 42.0328V49.9633L109.195 19.9902C104.067 17.0675 97.7785 17.0675 92.6515 19.9902L41.5601 49.1124Z" fill="white"/>
<path d="M78.9427 57.6572C78.7487 55.7563 78.6131 53.9428 78.5185 52.2963C78.2582 47.7614 81.9477 44.1332 86.49 44.1332H116.895C121.437 44.1332 125.127 47.7614 124.867 52.2963C124.758 54.1801 124.596 56.2828 124.355 58.4847L161.779 79.8163V59.8592L109.195 29.8861C104.067 26.9636 97.7785 26.9636 92.6515 29.8861L41.5601 59.0085V78.9654L78.9427 57.6572Z" fill="white"/>
<path d="M80.3151 66.771L41.5601 88.8615V93.0033C41.5601 97.4049 43.2924 101.561 46.2771 104.637L86.5907 81.6583C85.4619 80.1327 84.4812 78.6302 83.7526 77.2204C82.2146 74.2443 81.1093 70.5731 80.3151 66.771Z" fill="white"/>
<path d="M92.2261 88.3419C93.6504 89.8738 95.0693 91.316 96.3588 92.5851C99.3428 95.5221 104.042 95.5221 107.026 92.5851C108.154 91.4751 109.381 90.2327 110.624 88.9139L148.362 110.425L130.251 120.994L108.984 109.276C103.966 106.511 97.8805 106.511 92.8621 109.276L72.3634 120.571L54.2394 109.994L92.2261 88.3419Z" fill="white"/>
<path d="M116.333 82.2724C117.656 80.5368 118.806 78.819 119.633 77.2204C121.065 74.4486 122.122 71.0743 122.902 67.5525L161.779 89.7123V93.0033C161.779 97.6675 159.834 102.056 156.514 105.176L116.333 82.2724Z" fill="white"/>
<path d="M80.7949 125.491L93.2505 132.76C98.4526 135.796 104.886 135.796 110.088 132.76L121.819 125.914L108.984 118.842C103.966 116.077 97.8805 116.077 92.8621 118.842L80.7949 125.491Z" fill="white"/>
<path d="M5.20992 188.459L8.01389 180.375H19.9457L22.7348 188.459H27.6268L16.6346 157.913H11.3101L0.317871 188.459H5.20992ZM9.35622 176.497L13.8605 163.462H14.0991L18.6034 176.497H9.35622Z" fill="white"/>
<path d="M51.2742 167.563H56.0022C54.9731 161.612 49.8871 157.496 43.2948 157.496C35.39 157.496 29.6179 163.447 29.6179 173.201C29.6179 182.866 35.2259 188.876 43.5036 188.876C50.9162 188.876 56.211 184.014 56.211 176.303V172.828H44.2046V176.631H51.7515C51.6471 181.553 48.3956 184.67 43.5036 184.67C38.1194 184.67 34.1968 180.599 34.1968 173.171C34.1968 165.773 38.1492 161.702 43.3246 161.702C47.3814 161.702 50.1258 163.939 51.2742 167.563Z" fill="white"/>
<path d="M71.081 188.459H77.5391V179.778L80.716 175.9L89.0831 188.459H96.809L85.3395 171.59L96.6748 157.913H88.934L77.9418 171.381H77.5391V157.913H71.081V188.459Z" fill="white"/>
<path d="M100.038 188.459H106.496V177.631H111.209L116.996 188.459H124.125L117.637 176.587C121.113 175.095 123.037 172.067 123.037 167.891C123.037 161.821 119.025 157.913 112.089 157.913H100.038V188.459ZM106.496 172.44V163.193H110.851C114.58 163.193 116.385 164.849 116.385 167.891C116.385 170.919 114.58 172.44 110.881 172.44H106.496Z" fill="white"/>
<path d="M134.059 157.913H127.601V188.459H134.059V157.913Z" fill="white"/>
<path d="M138.209 163.238H147.56V188.459H153.944V163.238H163.295V157.913H138.209V163.238Z" fill="white"/>
<path d="M173.885 157.913H167.427V188.459H173.885V157.913Z" fill="white"/>
<path d="M195.769 166.698H201.958C201.869 161.254 197.394 157.496 190.593 157.496C183.896 157.496 178.989 161.194 179.019 166.743C179.004 171.247 182.181 173.827 187.342 175.065L190.668 175.9C193.994 176.706 195.843 177.66 195.858 179.719C195.843 181.956 193.725 183.477 190.444 183.477C187.088 183.477 184.672 181.926 184.463 178.868H178.214C178.378 185.476 183.106 188.891 190.519 188.891C197.976 188.891 202.361 185.327 202.376 179.734C202.361 174.648 198.528 171.948 193.218 170.755L190.474 170.099C187.819 169.487 185.597 168.503 185.641 166.31C185.641 164.341 187.386 162.895 190.548 162.895C193.636 162.895 195.53 164.297 195.769 166.698Z" fill="white"/>
</svg>
