<svg width="203" height="189" viewBox="0 0 203 189" fill="none" xmlns="http://www.w3.org/2000/svg">
<path d="M41.5474 49.1124V42.0328C41.5474 36.093 44.7017 30.5999 49.832 27.6061L93.2378 2.27641C98.4399 -0.759455 104.873 -0.759455 110.075 2.27641L153.481 27.6061C158.612 30.5999 161.766 36.093 161.766 42.0328V49.9633L109.182 19.9902C104.055 17.0675 97.7658 17.0675 92.6388 19.9902L41.5474 49.1124Z" fill="#15B5E8"/>
<path d="M78.93 57.6572C78.736 55.7563 78.6005 53.9428 78.5058 52.2963C78.2455 47.7614 81.935 44.1332 86.4773 44.1332H116.882C121.425 44.1332 125.114 47.7614 124.854 52.2963C124.746 54.1801 124.584 56.2828 124.342 58.4847L161.766 79.8163V59.8592L109.182 29.8861C104.055 26.9636 97.7658 26.9636 92.6388 29.8861L41.5474 59.0085V78.9654L78.93 57.6572Z" fill="#15B5E8"/>
<path d="M80.3024 66.771L41.5474 88.8615V93.0033C41.5474 97.4049 43.2797 101.561 46.2644 104.637L86.578 81.6583C85.4492 80.1327 84.4685 78.6302 83.74 77.2204C82.2019 74.2443 81.0966 70.5731 80.3024 66.771Z" fill="#15B5E8"/>
<path d="M92.2134 88.3419C93.6377 89.8738 95.0566 91.316 96.3461 92.5851C99.3301 95.5221 104.03 95.5221 107.014 92.5851C108.141 91.4751 109.368 90.2327 110.611 88.9139L148.349 110.425L130.238 120.994L108.971 109.276C103.953 106.511 97.8678 106.511 92.8494 109.276L72.3507 120.571L54.2267 109.994L92.2134 88.3419Z" fill="#15B5E8"/>
<path d="M116.32 82.2724C117.643 80.5368 118.794 78.819 119.62 77.2204C121.052 74.4486 122.109 71.0743 122.889 67.5525L161.766 89.7123V93.0033C161.766 97.6675 159.821 102.056 156.501 105.176L116.32 82.2724Z" fill="#15B5E8"/>
<path d="M80.7822 125.491L93.2378 132.76C98.4399 135.796 104.873 135.796 110.075 132.76L121.806 125.914L108.971 118.842C103.953 116.077 97.8678 116.077 92.8494 118.842L80.7822 125.491Z" fill="#15B5E8"/>
<path d="M5.19722 188.458L8.0012 180.374H19.933L22.7221 188.458H27.6141L16.6219 157.913H11.2974L0.305176 188.458H5.19722ZM9.34353 176.497L13.8478 163.461H14.0864L18.5907 176.497H9.34353Z" fill="black"/>
<path d="M51.2615 167.563H55.9895C54.9604 161.612 49.8744 157.495 43.2821 157.495C35.3773 157.495 29.6052 163.446 29.6052 173.2C29.6052 182.865 35.2132 188.876 43.4909 188.876C50.9035 188.876 56.1983 184.014 56.1983 176.303V172.828H44.1919V176.631H51.7388C51.6344 181.553 48.3829 184.67 43.4909 184.67C38.1067 184.67 34.1841 180.598 34.1841 173.171C34.1841 165.773 38.1365 161.701 43.3119 161.701C47.3687 161.701 50.1131 163.938 51.2615 167.563Z" fill="black"/>
<path d="M71.0683 188.458H77.5264V179.778L80.7033 175.9L89.0704 188.458H96.7963L85.3268 171.59L96.6621 157.913H88.9213L77.9291 171.381H77.5264V157.913H71.0683V188.458Z" fill="black"/>
<path d="M100.025 188.458H106.483V177.63H111.197L116.983 188.458H124.113L117.625 176.586C121.1 175.095 123.024 172.067 123.024 167.891C123.024 161.82 119.012 157.913 112.076 157.913H100.025V188.458ZM106.483 172.44V163.193H110.839C114.567 163.193 116.372 164.848 116.372 167.891C116.372 170.918 114.567 172.44 110.868 172.44H106.483Z" fill="black"/>
<path d="M134.046 157.913H127.588V188.458H134.046V157.913Z" fill="black"/>
<path d="M138.196 163.237H147.548V188.458H153.931V163.237H163.283V157.913H138.196V163.237Z" fill="black"/>
<path d="M173.872 157.913H167.414V188.458H173.872V157.913Z" fill="black"/>
<path d="M195.756 166.698H201.945C201.856 161.254 197.382 157.495 190.58 157.495C183.884 157.495 178.977 161.194 179.007 166.742C178.992 171.247 182.168 173.827 187.329 175.065L190.655 175.9C193.981 176.705 195.83 177.66 195.845 179.718C195.83 181.955 193.712 183.477 190.431 183.477C187.075 183.477 184.659 181.926 184.45 178.868H178.201C178.365 185.475 183.093 188.891 190.506 188.891C197.963 188.891 202.348 185.326 202.363 179.733C202.348 174.647 198.515 171.948 193.205 170.754L190.461 170.098C187.806 169.487 185.584 168.502 185.629 166.31C185.629 164.341 187.374 162.894 190.536 162.894C193.623 162.894 195.517 164.296 195.756 166.698Z" fill="black"/>
</svg>

