<svg width="203" height="235" viewBox="0 0 203 235" fill="none" xmlns="http://www.w3.org/2000/svg">
<path d="M41.5601 49.1129V42.0333C41.5601 36.0935 44.7144 30.6004 49.8447 27.6066L93.2505 2.2769C98.4526 -0.758966 104.886 -0.758966 110.088 2.2769L153.494 27.6066C158.624 30.6004 161.779 36.0935 161.779 42.0333V49.9638L109.195 19.9907C104.067 17.068 97.7785 17.068 92.6515 19.9907L41.5601 49.1129Z" fill="white"/>
<path d="M78.9427 57.6577C78.7487 55.7568 78.6131 53.9433 78.5185 52.2968C78.2582 47.7619 81.9477 44.1337 86.49 44.1337H116.895C121.437 44.1337 125.127 47.7619 124.867 52.2968C124.758 54.1806 124.596 56.2832 124.355 58.4852L161.779 79.8168V59.8596L109.195 29.8866C104.067 26.9641 97.7785 26.9641 92.6515 29.8866L41.5601 59.009V78.9659L78.9427 57.6577Z" fill="white"/>
<path d="M80.3151 66.7714L41.5601 88.862V93.0038C41.5601 97.4054 43.2924 101.562 46.2771 104.637L86.5907 81.6588C85.4619 80.1332 84.4812 78.6307 83.7526 77.2209C82.2146 74.2448 81.1093 70.5736 80.3151 66.7714Z" fill="white"/>
<path d="M92.2261 88.3424C93.6504 89.8743 95.0693 91.3165 96.3588 92.5856C99.3428 95.5225 104.042 95.5225 107.026 92.5856C108.154 91.4755 109.381 90.2332 110.624 88.9144L148.362 110.425L130.251 120.994L108.984 109.276C103.966 106.511 97.8805 106.511 92.8621 109.276L72.3634 120.571L54.2394 109.995L92.2261 88.3424Z" fill="white"/>
<path d="M116.333 82.2729C117.656 80.5373 118.806 78.8195 119.633 77.2209C121.065 74.4491 122.122 71.0748 122.902 67.553L161.779 89.7128V93.0038C161.779 97.668 159.834 102.057 156.514 105.176L116.333 82.2729Z" fill="white"/>
<path d="M80.7949 125.492L93.2505 132.76C98.4526 135.796 104.886 135.796 110.088 132.76L121.819 125.915L108.984 118.843C103.966 116.077 97.8805 116.077 92.8621 118.843L80.7949 125.492Z" fill="white"/>
<path d="M5.20992 188.459L8.01389 180.375H19.9457L22.7348 188.459H27.6268L16.6346 157.914H11.3101L0.317871 188.459H5.20992ZM9.35622 176.498L13.8605 163.462H14.0991L18.6034 176.498H9.35622Z" fill="white"/>
<path d="M51.2742 167.564H56.0022C54.9731 161.613 49.8871 157.496 43.2948 157.496C35.39 157.496 29.6179 163.447 29.6179 173.201C29.6179 182.866 35.2259 188.877 43.5036 188.877C50.9162 188.877 56.211 184.015 56.211 176.304V172.828H44.2046V176.632H51.7515C51.6471 181.554 48.3956 184.671 43.5036 184.671C38.1194 184.671 34.1968 180.599 34.1968 173.172C34.1968 165.774 38.1492 161.702 43.3246 161.702C47.3814 161.702 50.1258 163.939 51.2742 167.564Z" fill="white"/>
<path d="M71.081 188.459H77.5391V179.779L80.716 175.901L89.0831 188.459H96.809L85.3395 171.591L96.6748 157.914H88.934L77.9418 171.382H77.5391V157.914H71.081V188.459Z" fill="white"/>
<path d="M100.038 188.459H106.496V177.631H111.209L116.996 188.459H124.125L117.637 176.587C121.113 175.096 123.037 172.068 123.037 167.892C123.037 161.821 119.025 157.914 112.089 157.914H100.038V188.459ZM106.496 172.441V163.194H110.851C114.58 163.194 116.385 164.849 116.385 167.892C116.385 170.919 114.58 172.441 110.881 172.441H106.496Z" fill="white"/>
<path d="M134.059 157.914H127.601V188.459H134.059V157.914Z" fill="white"/>
<path d="M138.209 163.238H147.56V188.459H153.944V163.238H163.295V157.914H138.209V163.238Z" fill="white"/>
<path d="M173.885 157.914H167.427V188.459H173.885V157.914Z" fill="white"/>
<path d="M195.769 166.699H201.958C201.869 161.255 197.394 157.496 190.593 157.496C183.896 157.496 178.989 161.195 179.019 166.743C179.004 171.248 182.181 173.828 187.342 175.066L190.668 175.901C193.994 176.706 195.843 177.661 195.858 179.719C195.843 181.956 193.725 183.478 190.444 183.478C187.088 183.478 184.672 181.926 184.463 178.869H178.214C178.378 185.476 183.106 188.892 190.519 188.892C197.976 188.892 202.361 185.327 202.376 179.734C202.361 174.648 198.528 171.949 193.218 170.755L190.474 170.099C187.819 169.488 185.597 168.503 185.641 166.311C185.641 164.342 187.386 162.895 190.548 162.895C193.636 162.895 195.53 164.297 195.769 166.699Z" fill="white"/>
<path d="M3.66681 214.459L4.98358 210.752H10.2762L11.593 214.459H13.2549L8.44806 201.368H6.8117L2.00488 214.459H3.66681ZM5.48216 209.345L7.57875 203.439H7.68102L9.77761 209.345H5.48216Z" fill="white"/>
<path d="M15.0894 214.459H16.5979V208.246C16.5979 206.916 17.6462 205.945 19.078 205.945C19.4807 205.945 19.8962 206.021 19.9985 206.047V204.513C19.8259 204.5 19.4296 204.487 19.2059 204.487C18.0297 204.487 17.007 205.152 16.6491 206.124H16.5468V204.641H15.0894V214.459Z" fill="white"/>
<path d="M21.9912 214.459H23.4486V212.95H23.6276C23.96 213.487 24.5992 214.664 26.4912 214.664C28.9458 214.664 30.6588 212.695 30.6588 209.575C30.6588 206.482 28.9458 204.513 26.4656 204.513C24.548 204.513 23.96 205.689 23.6276 206.2H23.4997V201.368H21.9912V214.459ZM23.4742 209.55C23.4742 207.351 24.4458 205.868 26.2867 205.868C28.2043 205.868 29.1503 207.479 29.1503 209.55C29.1503 211.646 28.1787 213.308 26.2867 213.308C24.4713 213.308 23.4742 211.774 23.4742 209.55Z" fill="white"/>
<path d="M37.0828 214.664C39.0772 214.664 40.5345 213.666 40.9948 212.183L39.5374 211.774C39.1539 212.797 38.2654 213.308 37.0828 213.308C35.3122 213.308 34.0914 212.164 34.021 210.061H41.1482V209.422C41.1482 205.766 38.9749 204.513 36.9294 204.513C34.2703 204.513 32.5061 206.61 32.5061 209.627C32.5061 212.644 34.2448 214.664 37.0828 214.664ZM34.021 208.757C34.1233 207.23 35.2036 205.868 36.9294 205.868C38.5658 205.868 39.6141 207.095 39.6141 208.757H34.021Z" fill="white"/>
<path d="M43.4429 214.459H44.9514V204.641H43.4429V214.459ZM44.21 203.004C44.798 203.004 45.2838 202.544 45.2838 201.982C45.2838 201.419 44.798 200.959 44.21 200.959C43.6219 200.959 43.1361 201.419 43.1361 201.982C43.1361 202.544 43.6219 203.004 44.21 203.004Z" fill="white"/>
<path d="M51.9843 204.641H49.8877V202.289H48.3792V204.641H46.8962V205.919H48.3792V212.056C48.3792 213.769 49.7599 214.587 51.0383 214.587C51.6008 214.587 51.9587 214.485 52.1633 214.408L51.8564 213.053C51.7286 213.078 51.5241 213.129 51.1917 213.129C50.5269 213.129 49.8877 212.925 49.8877 211.646V205.919H51.9843V204.641Z" fill="white"/>
<path d="M61.0322 206.84C60.5592 205.446 59.4981 204.513 57.555 204.513C55.4839 204.513 53.9498 205.689 53.9498 207.351C53.9498 208.706 54.7552 209.614 56.5578 210.036L58.1942 210.419C59.1849 210.649 59.6515 211.122 59.6515 211.8C59.6515 212.644 58.7567 213.334 57.3504 213.334C56.1167 213.334 55.3433 212.803 55.0748 211.749L53.643 212.107C53.9946 213.775 55.3689 214.664 57.376 214.664C59.6579 214.664 61.2112 213.417 61.2112 211.723C61.2112 210.355 60.3547 209.492 58.6032 209.064L57.1459 208.706C55.9825 208.419 55.4584 208.029 55.4584 207.274C55.4584 206.431 56.3532 205.817 57.555 205.817C58.8717 205.817 59.415 206.546 59.6771 207.223L61.0322 206.84Z" fill="white"/>
<path d="M67.445 218.345C69.7973 218.345 71.6894 217.271 71.6894 214.74V204.641H70.232V206.2H70.0786C69.7462 205.689 69.1325 204.513 67.2149 204.513C64.7348 204.513 63.0218 206.482 63.0218 209.499C63.0218 212.567 64.8115 214.306 67.1894 214.306C69.107 214.306 69.7206 213.181 70.053 212.644H70.1808V214.638C70.1808 216.274 69.0303 217.016 67.445 217.016C65.6617 217.016 65.0352 216.076 64.6325 215.533L63.4308 216.377C64.0445 217.406 65.2526 218.345 67.445 218.345ZM67.3939 212.95C65.5019 212.95 64.5303 211.519 64.5303 209.473C64.5303 207.479 65.4763 205.868 67.3939 205.868C69.2348 205.868 70.2064 207.351 70.2064 209.473C70.2064 211.646 69.2093 212.95 67.3939 212.95Z" fill="white"/>
<path d="M74.4507 214.459H75.9593V208.246C75.9593 206.916 77.0075 205.945 78.4394 205.945C78.8421 205.945 79.2575 206.021 79.3598 206.047V204.513C79.1872 204.5 78.7909 204.487 78.5672 204.487C77.3911 204.487 76.3683 205.152 76.0104 206.124H75.9081V204.641H74.4507V214.459Z" fill="white"/>
<path d="M87.3355 210.445C87.3355 212.286 85.9292 213.129 84.8042 213.129C83.5514 213.129 82.6565 212.209 82.6565 210.777V204.641H81.148V210.879C81.148 213.385 82.4775 214.587 84.3185 214.587C85.8014 214.587 86.773 213.794 87.2332 212.797H87.3355V214.459H88.844V204.641H87.3355V210.445Z" fill="white"/>
<path d="M91.607 218.141H93.1155V212.95H93.2433C93.5757 213.487 94.2149 214.664 96.107 214.664C98.5615 214.664 100.275 212.695 100.275 209.575C100.275 206.482 98.5615 204.513 96.0814 204.513C94.1638 204.513 93.5757 205.689 93.2433 206.2H93.0644V204.641H91.607V218.141ZM93.0899 209.55C93.0899 207.351 94.0615 205.868 95.9024 205.868C97.82 205.868 98.7661 207.479 98.7661 209.55C98.7661 211.646 97.7945 213.308 95.9024 213.308C94.0871 213.308 93.0899 211.774 93.0899 209.55Z" fill="white"/>
<path d="M102.576 218.141H104.084V212.95H104.212C104.544 213.487 105.184 214.664 107.076 214.664C109.53 214.664 111.243 212.695 111.243 209.575C111.243 206.482 109.53 204.513 107.05 204.513C105.133 204.513 104.544 205.689 104.212 206.2H104.033V204.641H102.576V218.141ZM104.059 209.55C104.059 207.351 105.03 205.868 106.871 205.868C108.789 205.868 109.735 207.479 109.735 209.55C109.735 211.646 108.763 213.308 106.871 213.308C105.056 213.308 104.059 211.774 104.059 209.55Z" fill="white"/>
<path d="M117.661 214.664C119.655 214.664 121.113 213.666 121.573 212.183L120.116 211.774C119.732 212.797 118.843 213.308 117.661 213.308C115.89 213.308 114.669 212.164 114.599 210.061H121.726V209.422C121.726 205.766 119.553 204.513 117.508 204.513C114.848 204.513 113.084 206.61 113.084 209.627C113.084 212.644 114.823 214.664 117.661 214.664ZM114.599 208.757C114.701 207.23 115.782 205.868 117.508 205.868C119.144 205.868 120.192 207.095 120.192 208.757H114.599Z" fill="white"/>
<path d="M129.288 214.459H130.873V210.215L132.51 208.374L137.061 214.459H138.978L133.481 207.274L138.978 201.368H136.907L131.027 207.862H130.873V201.368H129.288V214.459Z" fill="white"/>
<path d="M140.826 214.459H142.334V208.246C142.334 206.916 143.383 205.945 144.814 205.945C145.217 205.945 145.633 206.021 145.735 206.047V204.513C145.562 204.5 145.166 204.487 144.942 204.487C143.766 204.487 142.743 205.152 142.385 206.124H142.283V204.641H140.826V214.459Z" fill="white"/>
<path d="M147.523 214.459H149.032V204.641H147.523V214.459ZM148.29 203.004C148.878 203.004 149.364 202.544 149.364 201.982C149.364 201.419 148.878 200.959 148.29 200.959C147.702 200.959 147.216 201.419 147.216 201.982C147.216 202.544 147.702 203.004 148.29 203.004Z" fill="white"/>
<path d="M156.064 204.641H153.968V202.289H152.459V204.641H150.976V205.919H152.459V212.056C152.459 213.769 153.84 214.587 155.118 214.587C155.681 214.587 156.039 214.485 156.243 214.408L155.937 213.053C155.809 213.078 155.604 213.129 155.272 213.129C154.607 213.129 153.968 212.925 153.968 211.646V205.919H156.064V204.641Z" fill="white"/>
<path d="M158.334 214.459H159.842V204.641H158.334V214.459ZM159.101 203.004C159.689 203.004 160.174 202.544 160.174 201.982C160.174 201.419 159.689 200.959 159.101 200.959C158.513 200.959 158.027 201.419 158.027 201.982C158.027 202.544 158.513 203.004 159.101 203.004Z" fill="white"/>
<path d="M169.56 206.84C169.087 205.446 168.025 204.513 166.082 204.513C164.011 204.513 162.477 205.689 162.477 207.351C162.477 208.706 163.283 209.614 165.085 210.036L166.721 210.419C167.712 210.649 168.179 211.122 168.179 211.8C168.179 212.644 167.284 213.334 165.878 213.334C164.644 213.334 163.871 212.803 163.602 211.749L162.17 212.107C162.522 213.775 163.896 214.664 165.903 214.664C168.185 214.664 169.739 213.417 169.739 211.723C169.739 210.355 168.882 209.492 167.131 209.064L165.673 208.706C164.51 208.419 163.986 208.029 163.986 207.274C163.986 206.431 164.881 205.817 166.082 205.817C167.399 205.817 167.942 206.546 168.204 207.223L169.56 206.84Z" fill="white"/>
<path d="M175.998 214.664C178.171 214.664 179.603 213.334 179.859 211.595H178.35C178.069 212.669 177.174 213.308 175.998 213.308C174.208 213.308 173.058 211.825 173.058 209.55C173.058 207.325 174.234 205.868 175.998 205.868C177.328 205.868 178.12 206.686 178.35 207.581H179.859C179.603 205.74 178.043 204.513 175.972 204.513C173.313 204.513 171.549 206.61 171.549 209.601C171.549 212.541 173.237 214.664 175.998 214.664Z" fill="white"/>
<path d="M183.573 208.553C183.573 206.84 184.666 205.868 186.155 205.868C187.574 205.868 188.43 206.763 188.43 208.323V214.459H189.939V208.22C189.939 205.695 188.597 204.513 186.59 204.513C185.043 204.513 184.161 205.159 183.7 206.175H183.573V201.368H182.064V214.459H183.573V208.553Z" fill="white"/>
<path d="M196.815 214.664C198.81 214.664 200.267 213.666 200.727 212.183L199.27 211.774C198.886 212.797 197.998 213.308 196.815 213.308C195.045 213.308 193.824 212.164 193.753 210.061H200.881V209.422C200.881 205.766 198.707 204.513 196.662 204.513C194.003 204.513 192.239 206.61 192.239 209.627C192.239 212.644 193.977 214.664 196.815 214.664ZM193.753 208.757C193.856 207.23 194.936 205.868 196.662 205.868C198.298 205.868 199.346 207.095 199.346 208.757H193.753Z" fill="white"/>
<path d="M41.8841 221.368H40.2988V234.459H41.8841V221.368Z" fill="white"/>
<path d="M46.3665 228.553C46.3665 226.84 47.4276 225.868 48.8722 225.868C50.272 225.868 51.1222 226.782 51.1222 228.323V234.459H52.6307V228.22C52.6307 225.715 51.2947 224.513 49.3068 224.513C47.8239 224.513 46.9034 225.178 46.4432 226.175H46.3153V224.641H44.858V234.459H46.3665V228.553Z" fill="white"/>
<path d="M59.7594 224.641H57.5605V223.644C57.5605 222.672 57.9696 222.161 58.9668 222.161C59.4015 222.161 59.6571 222.263 59.8105 222.314L60.2452 221.01C60.0151 220.908 59.5549 220.754 58.8134 220.754C57.4071 220.754 56.052 221.598 56.052 223.286V224.641H54.4668V225.919H56.052V234.459H57.5605V225.919H59.7594V224.641Z" fill="white"/>
<path d="M61.8736 234.459H63.3821V228.246C63.3821 226.916 64.4304 225.945 65.8622 225.945C66.2649 225.945 66.6804 226.021 66.7827 226.047V224.513C66.6101 224.5 66.2138 224.487 65.9901 224.487C64.8139 224.487 63.7912 225.152 63.4332 226.124H63.331V224.641H61.8736V234.459Z" fill="white"/>
<path d="M71.4601 234.689C73.1731 234.689 74.068 233.769 74.3748 233.129H74.4515V234.459H75.9601V227.99C75.9601 224.871 73.5822 224.513 72.3294 224.513C70.8464 224.513 69.1589 225.024 68.3919 226.814L69.8237 227.325C70.1561 226.61 70.9423 225.843 72.3805 225.843C73.7676 225.843 74.4515 226.578 74.4515 227.837V227.888C74.4515 228.617 73.7101 228.553 71.9203 228.783C70.0985 229.019 68.1106 229.422 68.1106 231.672C68.1106 233.59 69.5936 234.689 71.4601 234.689ZM71.6902 233.334C70.4885 233.334 69.6191 232.797 69.6191 231.749C69.6191 230.598 70.6674 230.24 71.8436 230.087C72.4828 230.01 74.1958 229.831 74.4515 229.524V230.905C74.4515 232.132 73.4799 233.334 71.6902 233.334Z" fill="white"/>
<path d="M85.668 226.84C85.195 225.446 84.1339 224.513 82.1907 224.513C80.1197 224.513 78.5856 225.689 78.5856 227.351C78.5856 228.706 79.391 229.614 81.1935 230.036L82.8299 230.419C83.8207 230.649 84.2873 231.122 84.2873 231.8C84.2873 232.644 83.3924 233.334 81.9862 233.334C80.7525 233.334 79.979 232.803 79.7106 231.749L78.2788 232.107C78.6303 233.775 80.0046 234.664 82.0117 234.664C84.2937 234.664 85.8469 233.417 85.8469 231.723C85.8469 230.355 84.9904 229.492 83.239 229.064L81.7816 228.706C80.6183 228.419 80.0941 228.029 80.0941 227.274C80.0941 226.431 80.989 225.817 82.1907 225.817C83.5075 225.817 84.0508 226.546 84.3129 227.223L85.668 226.84Z" fill="white"/>
<path d="M92.3876 224.641H90.291V222.289H88.7825V224.641H87.2995V225.919H88.7825V232.056C88.7825 233.769 90.1632 234.587 91.4416 234.587C92.0041 234.587 92.362 234.485 92.5666 234.408L92.2598 233.053C92.1319 233.078 91.9274 233.129 91.595 233.129C90.9302 233.129 90.291 232.925 90.291 231.646V225.919H92.3876V224.641Z" fill="white"/>
<path d="M94.6568 234.459H96.1653V228.246C96.1653 226.916 97.2136 225.945 98.6454 225.945C99.0481 225.945 99.4636 226.021 99.5659 226.047V224.513C99.3933 224.5 98.997 224.487 98.7733 224.487C97.5971 224.487 96.5744 225.152 96.2164 226.124H96.1142V224.641H94.6568V234.459Z" fill="white"/>
<path d="M107.542 230.445C107.542 232.286 106.135 233.129 105.01 233.129C103.757 233.129 102.863 232.209 102.863 230.777V224.641H101.354V230.879C101.354 233.385 102.684 234.587 104.525 234.587C106.007 234.587 106.979 233.794 107.439 232.797H107.542V234.459H109.05V224.641H107.542V230.445Z" fill="white"/>
<path d="M111.813 234.459H113.322V230.784L114.376 229.806L118.052 234.459H119.969L115.514 228.834L119.662 224.641H117.796L113.501 229.013H113.322V221.368H111.813V234.459Z" fill="white"/>
<path d="M125.874 224.641H123.777V222.289H122.269V224.641H120.786V225.919H122.269V232.056C122.269 233.769 123.65 234.587 124.928 234.587C125.49 234.587 125.848 234.485 126.053 234.408L125.746 233.053C125.618 233.078 125.414 233.129 125.081 233.129C124.417 233.129 123.777 232.925 123.777 231.646V225.919H125.874V224.641Z" fill="white"/>
<path d="M134.331 230.445C134.331 232.286 132.924 233.129 131.799 233.129C130.547 233.129 129.652 232.209 129.652 230.777V224.641H128.143V230.879C128.143 233.385 129.473 234.587 131.314 234.587C132.797 234.587 133.768 233.794 134.228 232.797H134.331V234.459H135.839V224.641H134.331V230.445Z" fill="white"/>
<path d="M138.602 234.459H140.111V228.246C140.111 226.916 141.159 225.945 142.591 225.945C142.993 225.945 143.409 226.021 143.511 226.047V224.513C143.339 224.5 142.942 224.487 142.719 224.487C141.542 224.487 140.52 225.152 140.162 226.124H140.059V224.641H138.602V234.459Z" fill="white"/>
<path d="M149.117 234.664C151.111 234.664 152.569 233.666 153.029 232.183L151.572 231.774C151.188 232.797 150.3 233.308 149.117 233.308C147.346 233.308 146.126 232.164 146.055 230.061H153.182V229.422C153.182 225.766 151.009 224.513 148.964 224.513C146.305 224.513 144.54 226.61 144.54 229.627C144.54 232.644 146.279 234.664 149.117 234.664ZM146.055 228.757C146.157 227.23 147.238 225.868 148.964 225.868C150.6 225.868 151.648 227.095 151.648 228.757H146.055Z" fill="white"/>
<path d="M156.986 228.553C156.986 226.84 158.047 225.868 159.491 225.868C160.891 225.868 161.741 226.782 161.741 228.323V234.459H163.25V228.22C163.25 225.715 161.914 224.513 159.926 224.513C158.443 224.513 157.523 225.178 157.062 226.175H156.934V224.641H155.477V234.459H156.986V228.553Z" fill="white"/>
</svg>
