<svg xmlns="http://www.w3.org/2000/svg" xmlns:xlink="http://www.w3.org/1999/xlink" width="2000" height="1441" fill="none" xmlns:v="https://vecta.io/nano"><g fill="#000"><path d="M34.215 97L58.6 56.643 82.984 97 58.6 137.38 34.215 97zm0 113.288L58.6 169.93l24.384 40.368L58.6 250.666l-24.384-40.368zm0 113.287L58.6 283.217l24.384 40.368L58.6 363.953l-24.384-40.368zm0 113.287L58.6 396.504l24.384 40.368L58.6 477.24l-24.384-40.368zm0 113.288L58.6 509.8l24.384 40.368-24.384 40.37-24.385-40.367zm0 113.286L58.6 623.078l24.384 40.368L58.6 703.814l-24.384-40.368zm0 113.287L58.6 736.365l24.384 40.368L58.6 817.1l-24.384-40.368zm0 113.287L58.6 849.652l24.384 40.368L58.6 930.388 34.215 890.02zm0 113.28L58.6 962.94l24.384 40.37-24.384 40.37-24.384-40.37z"/><use xlink:href="#B"/><path d="M34.215 1229.88L58.6 1189.5l24.384 40.37-24.384 40.37-24.384-40.37zm0 113.3L58.6 1302.8l24.384 40.37-24.384 40.37-24.384-40.37z"/><use xlink:href="#C"/><use xlink:href="#C" y="113.288"/><use xlink:href="#C" y="226.575"/><use xlink:href="#C" y="339.862"/><use xlink:href="#C" y="453.15"/><use xlink:href="#C" y="566.436"/><path d="M102.646 776.733l24.384-40.368 24.384 40.368L127.03 817.1l-24.384-40.368z"/><use xlink:href="#C" y="793.01"/><use xlink:href="#D"/><use xlink:href="#B" x="68.431"/><use xlink:href="#D" y="226.58"/><use xlink:href="#D" y="339.87"/><use xlink:href="#E"/><use xlink:href="#E" y="113.288"/><use xlink:href="#E" y="226.575"/><use xlink:href="#E" y="339.862"/><use xlink:href="#E" y="453.15"/><use xlink:href="#E" y="566.436"/><path d="M171.076 776.733l24.384-40.368 24.385 40.368L195.46 817.1l-24.384-40.368z"/><use xlink:href="#E" y="793.01"/><use xlink:href="#F"/><path d="M171.076 1116.6l24.384-40.36 24.385 40.36-24.385 40.37-24.384-40.37z"/><use xlink:href="#F" y="226.58"/><use xlink:href="#F" y="339.87"/><use xlink:href="#C" x="136.861"/><use xlink:href="#C" x="136.861" y="113.288"/><use xlink:href="#C" x="136.861" y="226.575"/><use xlink:href="#C" x="136.861" y="339.862"/><use xlink:href="#C" x="136.861" y="453.15"/><use xlink:href="#C" x="136.861" y="566.436"/><path d="M239.507 776.733l24.384-40.368 24.384 40.368L263.89 817.1l-24.384-40.368z"/><use xlink:href="#C" x="136.861" y="793.01"/><use xlink:href="#D" x="136.861"/><use xlink:href="#B" x="205.292"/><use xlink:href="#D" x="136.861" y="226.58"/><use xlink:href="#D" x="136.861" y="339.87"/><use xlink:href="#C" x="205.291"/><use xlink:href="#C" x="205.291" y="113.288"/><use xlink:href="#C" x="205.291" y="226.575"/><use xlink:href="#C" x="205.291" y="339.862"/><use xlink:href="#C" x="205.291" y="453.15"/><use xlink:href="#C" x="205.291" y="566.436"/><path d="M307.937 776.733l24.384-40.368 24.384 40.368L332.32 817.1l-24.384-40.368z"/><use xlink:href="#C" x="205.291" y="793.01"/><use xlink:href="#D" x="205.291"/><use xlink:href="#B" x="273.722"/><use xlink:href="#D" x="205.291" y="226.58"/><use xlink:href="#D" x="205.291" y="339.87"/><use xlink:href="#C" x="273.722"/><use xlink:href="#C" x="273.722" y="113.288"/><use xlink:href="#C" x="273.722" y="226.575"/><use xlink:href="#C" x="273.722" y="339.862"/><use xlink:href="#C" x="273.722" y="453.15"/><use xlink:href="#C" x="273.722" y="566.436"/><use xlink:href="#C" x="273.722" y="679.723"/><use xlink:href="#C" x="273.722" y="793.01"/><use xlink:href="#D" x="273.722"/><use xlink:href="#B" x="342.153"/><use xlink:href="#D" x="273.722" y="226.58"/><use xlink:href="#D" x="273.722" y="339.87"/><use xlink:href="#C" x="342.152"/><use xlink:href="#C" x="342.152" y="113.288"/><use xlink:href="#C" x="342.152" y="226.575"/><use xlink:href="#C" x="342.152" y="339.862"/><use xlink:href="#C" x="342.152" y="453.15"/><use xlink:href="#C" x="342.152" y="566.436"/><use xlink:href="#C" x="342.152" y="679.723"/><use xlink:href="#C" x="342.152" y="793.01"/><use xlink:href="#D" x="342.152"/><use xlink:href="#B" x="410.583"/><use xlink:href="#D" x="342.152" y="226.58"/><use xlink:href="#D" x="342.152" y="339.87"/><path d="M513.23 97.01l24.384-40.368 24.384 40.368-24.384 40.368L513.23 97.01z"/><use xlink:href="#C" x="410.584" y="113.288"/><use xlink:href="#C" x="410.584" y="226.575"/><use xlink:href="#C" x="410.584" y="339.862"/><use xlink:href="#C" x="410.584" y="453.15"/><use xlink:href="#C" x="410.584" y="566.436"/><use xlink:href="#C" x="410.584" y="679.723"/><use xlink:href="#C" x="410.584" y="793.01"/><use xlink:href="#D" x="410.584"/><use xlink:href="#B" x="479.015"/><use xlink:href="#D" x="410.584" y="226.58"/><use xlink:href="#D" x="410.584" y="339.87"/><path d="M581.66 97.01l24.384-40.368 24.384 40.368-24.384 40.368L581.66 97.01z"/><use xlink:href="#C" x="479.014" y="113.288"/><use xlink:href="#C" x="479.014" y="226.575"/><use xlink:href="#C" x="479.014" y="339.862"/><use xlink:href="#C" x="479.014" y="453.15"/><use xlink:href="#C" x="479.014" y="566.436"/><use xlink:href="#C" x="479.014" y="679.723"/><use xlink:href="#C" x="479.014" y="793.01"/><use xlink:href="#D" x="479.014"/><use xlink:href="#B" x="547.445"/><use xlink:href="#D" x="479.014" y="226.58"/><use xlink:href="#D" x="479.014" y="339.87"/><path d="M650.09 97.01l24.384-40.368 24.385 40.368-24.385 40.368L650.09 97.01z"/><use xlink:href="#E" x="479.014" y="113.288"/><use xlink:href="#E" x="479.014" y="226.575"/><use xlink:href="#E" x="479.014" y="339.862"/><use xlink:href="#E" x="479.014" y="453.15"/><use xlink:href="#E" x="479.014" y="566.436"/><use xlink:href="#E" x="479.014" y="679.723"/><use xlink:href="#E" x="479.014" y="793.01"/><use xlink:href="#F" x="479.014"/><path d="M650.09 1116.6l24.384-40.36 24.385 40.36-24.385 40.37-24.384-40.37z"/><use xlink:href="#F" x="479.014" y="226.58"/><use xlink:href="#F" x="479.014" y="339.87"/><path d="M718.52 97.01l24.384-40.368 24.384 40.368-24.384 40.368L718.52 97.01z"/><use xlink:href="#C" x="615.874" y="113.288"/><use xlink:href="#C" x="615.874" y="226.575"/><use xlink:href="#C" x="615.874" y="339.862"/><use xlink:href="#C" x="615.874" y="453.15"/><use xlink:href="#C" x="615.874" y="566.436"/><use xlink:href="#C" x="615.874" y="679.723"/><use xlink:href="#C" x="615.874" y="793.01"/><use xlink:href="#D" x="615.874"/><use xlink:href="#B" x="684.305"/><use xlink:href="#D" x="615.874" y="226.58"/><use xlink:href="#D" x="615.874" y="339.87"/><path d="M786.95 97.01l24.385-40.368L835.72 97.01l-24.384 40.368L786.95 97.01z"/><use xlink:href="#G"/><use xlink:href="#G" y="113.287"/><use xlink:href="#G" y="226.574"/><use xlink:href="#G" y="339.862"/><use xlink:href="#G" y="453.148"/><use xlink:href="#G" y="566.435"/><use xlink:href="#G" y="679.722"/><use xlink:href="#H"/><path d="M786.95 1116.6l24.385-40.36 24.384 40.36-24.384 40.37-24.385-40.37z"/><use xlink:href="#H" y="226.58"/><use xlink:href="#H" y="339.87"/><path d="M855.38 97.01l24.384-40.368L904.15 97.01l-24.384 40.368L855.38 97.01z"/><use xlink:href="#C" x="752.734" y="113.288"/><use xlink:href="#C" x="752.734" y="226.575"/><use xlink:href="#C" x="752.734" y="339.862"/><use xlink:href="#C" x="752.734" y="453.15"/><use xlink:href="#C" x="752.734" y="566.436"/><use xlink:href="#C" x="752.734" y="679.723"/><use xlink:href="#C" x="752.734" y="793.01"/><use xlink:href="#D" x="752.734"/><use xlink:href="#B" x="821.165"/><use xlink:href="#D" x="752.734" y="226.58"/><use xlink:href="#D" x="752.734" y="339.87"/><path d="M923.812 97.01l24.384-40.368L972.58 97.01l-24.384 40.368-24.384-40.368z"/><use xlink:href="#C" x="821.166" y="113.288"/><use xlink:href="#C" x="821.166" y="226.575"/><use xlink:href="#C" x="821.166" y="339.862"/><use xlink:href="#C" x="821.166" y="453.15"/><use xlink:href="#C" x="821.166" y="566.436"/><use xlink:href="#C" x="821.166" y="679.723"/><use xlink:href="#C" x="821.166" y="793.01"/><use xlink:href="#D" x="821.166"/><use xlink:href="#B" x="889.597"/><use xlink:href="#D" x="821.166" y="226.58"/><use xlink:href="#D" x="821.166" y="339.87"/><path d="M992.242 97.01l24.388-40.368L1041 97.01l-24.38 40.368-24.388-40.368z"/><use xlink:href="#I"/><use xlink:href="#I" y="113.287"/><use xlink:href="#I" y="226.574"/><path d="M992.242 550.16l24.388-40.368L1041 550.16l-24.38 40.368-24.388-40.368z"/><use xlink:href="#I" y="453.148"/><use xlink:href="#I" y="566.435"/><path d="M992.242 890.02l24.388-40.368L1041 890.02l-24.38 40.368-24.388-40.368z"/><use xlink:href="#J"/><path d="M992.242 1116.6l24.388-40.36 24.38 40.36-24.38 40.37-24.388-40.37z"/><use xlink:href="#J" y="226.58"/><use xlink:href="#J" y="339.87"/><use xlink:href="#K"/><use xlink:href="#K" y="113.288"/><use xlink:href="#K" y="226.575"/><use xlink:href="#K" y="339.862"/><use xlink:href="#K" y="453.15"/><use xlink:href="#K" y="566.436"/><use xlink:href="#K" y="679.723"/><use xlink:href="#K" y="793.01"/><use xlink:href="#L"/><use xlink:href="#M"/><use xlink:href="#L" y="226.58"/><use xlink:href="#L" y="339.87"/><use xlink:href="#K" x="68.43"/><use xlink:href="#K" x="68.43" y="113.288"/><use xlink:href="#K" x="68.43" y="226.575"/><use xlink:href="#K" x="68.43" y="339.862"/><use xlink:href="#K" x="68.43" y="453.15"/><use xlink:href="#K" x="68.43" y="566.436"/><use xlink:href="#K" x="68.43" y="679.723"/><use xlink:href="#K" x="68.43" y="793.01"/><use xlink:href="#L" x="68.43"/><use xlink:href="#M" x="68.43"/><use xlink:href="#L" x="68.43" y="226.58"/><use xlink:href="#L" x="68.43" y="339.87"/><use xlink:href="#K" x="136.86"/><use xlink:href="#K" x="136.86" y="113.288"/><use xlink:href="#K" x="136.86" y="226.575"/><use xlink:href="#K" x="136.86" y="339.862"/><use xlink:href="#K" x="136.86" y="453.15"/><use xlink:href="#K" x="136.86" y="566.436"/><use xlink:href="#K" x="136.86" y="679.723"/><use xlink:href="#K" x="136.86" y="793.01"/><use xlink:href="#L" x="136.86"/><use xlink:href="#M" x="136.86"/><use xlink:href="#L" x="136.86" y="226.58"/><use xlink:href="#L" x="136.86" y="339.87"/><use xlink:href="#K" x="205.29"/><use xlink:href="#K" x="205.29" y="113.288"/><use xlink:href="#K" x="205.29" y="226.575"/><use xlink:href="#K" x="205.29" y="339.862"/><use xlink:href="#K" x="205.29" y="453.15"/><use xlink:href="#K" x="205.29" y="566.436"/><use xlink:href="#K" x="205.29" y="679.723"/><use xlink:href="#K" x="205.29" y="793.01"/><use xlink:href="#L" x="205.29"/><use xlink:href="#M" x="205.29"/><use xlink:href="#L" x="205.29" y="226.58"/><use xlink:href="#L" x="205.29" y="339.87"/><use xlink:href="#K" x="273.73"/><use xlink:href="#K" x="273.73" y="113.288"/><use xlink:href="#K" x="273.73" y="226.575"/><use xlink:href="#K" x="273.73" y="339.862"/><use xlink:href="#K" x="273.73" y="453.15"/><use xlink:href="#K" x="273.73" y="566.436"/><use xlink:href="#K" x="273.73" y="679.723"/><use xlink:href="#K" x="273.73" y="793.01"/><use xlink:href="#L" x="273.73"/><use xlink:href="#M" x="273.73"/><use xlink:href="#L" x="273.73" y="226.58"/><use xlink:href="#L" x="273.73" y="339.87"/><use xlink:href="#N"/><use xlink:href="#N" y="113.288"/><use xlink:href="#N" y="226.575"/><use xlink:href="#N" y="339.862"/><use xlink:href="#N" y="453.15"/><use xlink:href="#N" y="566.436"/><use xlink:href="#N" y="679.723"/><use xlink:href="#N" y="793.01"/><use xlink:href="#O"/><use xlink:href="#P"/><use xlink:href="#O" y="226.58"/><use xlink:href="#O" y="339.87"/><use xlink:href="#N" x="68.43"/><use xlink:href="#N" x="68.43" y="113.288"/><use xlink:href="#N" x="68.43" y="226.575"/><use xlink:href="#N" x="68.43" y="339.862"/><use xlink:href="#N" x="68.43" y="453.15"/><use xlink:href="#N" x="68.43" y="566.436"/><use xlink:href="#N" x="68.43" y="679.723"/><use xlink:href="#N" x="68.43" y="793.01"/><use xlink:href="#O" x="68.43"/><use xlink:href="#P" x="68.43"/><use xlink:href="#O" x="68.43" y="226.58"/><use xlink:href="#O" x="68.43" y="339.87"/><use xlink:href="#N" x="136.87"/><use xlink:href="#N" x="136.87" y="113.288"/><use xlink:href="#N" x="136.87" y="226.575"/><use xlink:href="#N" x="136.87" y="339.862"/><use xlink:href="#N" x="136.87" y="453.15"/><use xlink:href="#N" x="136.87" y="566.436"/><use xlink:href="#N" x="136.87" y="679.723"/><use xlink:href="#N" x="136.87" y="793.01"/><use xlink:href="#O" x="136.87"/><use xlink:href="#P" x="136.87"/><use xlink:href="#O" x="136.87" y="226.58"/><use xlink:href="#O" x="136.87" y="339.87"/><use xlink:href="#Q"/><use xlink:href="#Q" y="113.288"/><use xlink:href="#Q" y="226.575"/><use xlink:href="#Q" y="339.862"/><use xlink:href="#Q" y="453.15"/><use xlink:href="#Q" y="566.436"/><use xlink:href="#Q" y="679.723"/><use xlink:href="#Q" y="793.01"/><use xlink:href="#R"/><use xlink:href="#S"/><use xlink:href="#R" y="226.58"/><use xlink:href="#R" y="339.87"/><use xlink:href="#Q" x="68.43"/><use xlink:href="#Q" x="68.43" y="113.288"/><use xlink:href="#Q" x="68.43" y="226.575"/><use xlink:href="#Q" x="68.43" y="339.862"/><use xlink:href="#Q" x="68.43" y="453.15"/><use xlink:href="#Q" x="68.43" y="566.436"/><use xlink:href="#Q" x="68.43" y="679.723"/><use xlink:href="#Q" x="68.43" y="793.01"/><use xlink:href="#R" x="68.43"/><use xlink:href="#S" x="68.43"/><use xlink:href="#R" x="68.43" y="226.58"/><use xlink:href="#R" x="68.43" y="339.87"/><use xlink:href="#Q" x="136.86"/><use xlink:href="#Q" x="136.86" y="113.288"/><use xlink:href="#Q" x="136.86" y="226.575"/><use xlink:href="#Q" x="136.86" y="339.862"/><use xlink:href="#Q" x="136.86" y="453.15"/><use xlink:href="#Q" x="136.86" y="566.436"/><use xlink:href="#Q" x="136.86" y="679.723"/><use xlink:href="#Q" x="136.86" y="793.01"/><use xlink:href="#R" x="136.86"/><use xlink:href="#S" x="136.86"/><use xlink:href="#R" x="136.86" y="226.58"/><use xlink:href="#R" x="136.86" y="339.87"/><use xlink:href="#Q" x="205.28"/><use xlink:href="#Q" x="205.28" y="113.288"/><use xlink:href="#Q" x="205.28" y="226.575"/><use xlink:href="#Q" x="205.28" y="339.862"/><use xlink:href="#Q" x="205.28" y="453.15"/><use xlink:href="#Q" x="205.28" y="566.436"/><use xlink:href="#Q" x="205.28" y="679.723"/><use xlink:href="#Q" x="205.28" y="793.01"/><use xlink:href="#R" x="205.28"/><use xlink:href="#S" x="205.28"/><use xlink:href="#R" x="205.28" y="226.58"/><use xlink:href="#R" x="205.28" y="339.87"/><use xlink:href="#Q" x="273.72"/><use xlink:href="#Q" x="273.72" y="113.288"/><use xlink:href="#Q" x="273.72" y="226.575"/><use xlink:href="#Q" x="273.72" y="339.862"/><use xlink:href="#Q" x="273.72" y="453.15"/><use xlink:href="#Q" x="273.72" y="566.436"/><use xlink:href="#Q" x="273.72" y="679.723"/><use xlink:href="#Q" x="273.72" y="793.01"/><use xlink:href="#R" x="273.72"/><use xlink:href="#S" x="273.72"/><use xlink:href="#R" x="273.72" y="226.58"/><use xlink:href="#R" x="273.72" y="339.87"/><use xlink:href="#Q" x="342.15"/><use xlink:href="#Q" x="342.15" y="113.288"/><use xlink:href="#Q" x="342.15" y="226.575"/><use xlink:href="#Q" x="342.15" y="339.862"/><use xlink:href="#Q" x="342.15" y="453.15"/><use xlink:href="#Q" x="342.15" y="566.436"/><use xlink:href="#Q" x="342.15" y="679.723"/><use xlink:href="#Q" x="342.15" y="793.01"/><use xlink:href="#R" x="342.15"/><use xlink:href="#S" x="342.15"/><use xlink:href="#R" x="342.15" y="226.58"/><use xlink:href="#R" x="342.15" y="339.87"/><path d="M48.768 40.368L24.384 0 0 40.368l24.384 40.368 24.384-40.368zm0 113.287l-24.384-40.368L0 153.655l24.384 40.368 24.384-40.368zm0 113.287l-24.384-40.368L0 266.942 24.384 307.3l24.384-40.368zm0 113.288l-24.384-40.37L0 380.23l24.384 40.368 24.384-40.368zm0 113.286l-24.384-40.368L0 493.516l24.384 40.368 24.384-40.368zm0 113.287l-24.384-40.368L0 606.803l24.384 40.368 24.384-40.368zm0 113.297l-24.384-40.368L0 720.1l24.384 40.368L48.768 720.1zm0 113.277L24.384 793 0 833.377l24.384 40.368 24.384-40.368zm0 113.287l-24.384-40.368L0 946.664l24.384 40.368 24.384-40.368zm0 113.286l-24.384-40.37L0 1059.95l24.384 40.37 24.384-40.37zm0 113.3l-24.384-40.37L0 1173.24l24.384 40.37 24.384-40.37zm0 113.28l-24.384-40.36L0 1286.52l24.384 40.37 24.384-40.37zm0 113.28l-24.384-40.37L0 1399.8l24.384 40.37 24.384-40.37zM117.2 40.368L92.815 0 68.43 40.368l24.384 40.368L117.2 40.368z"/><use xlink:href="#T"/><path d="M117.2 266.942l-24.384-40.368-24.384 40.368L92.815 307.3l24.384-40.368zm0 113.288l-24.385-40.37-24.385 40.37 24.384 40.368L117.2 380.23z"/><use xlink:href="#T" y="339.861"/><use xlink:href="#T" y="453.148"/><path d="M117.2 720.1l-24.384-40.368L68.43 720.1l24.384 40.368L117.2 720.1zm0 113.277L92.815 793 68.43 833.377l24.384 40.368 24.384-40.368z"/><use xlink:href="#T" y="793.009"/><use xlink:href="#U"/><use xlink:href="#U" y="113.29"/><use xlink:href="#V"/><use xlink:href="#U" y="339.85"/><path d="M185.63 40.368L161.245 0 136.86 40.368l24.384 40.368 24.384-40.368z"/><use xlink:href="#T" x="68.43"/><use xlink:href="#T" x="68.43" y="113.287"/><use xlink:href="#T" x="68.43" y="226.575"/><use xlink:href="#T" x="68.43" y="339.861"/><use xlink:href="#T" x="68.43" y="453.148"/><path d="M185.63 720.1l-24.384-40.368L136.86 720.1l24.384 40.368L185.63 720.1z"/><use xlink:href="#T" x="68.43" y="679.722"/><use xlink:href="#T" x="68.43" y="793.009"/><use xlink:href="#U" x="68.43"/><use xlink:href="#U" x="68.43" y="113.29"/><use xlink:href="#V" x="68.43"/><use xlink:href="#U" x="68.43" y="339.85"/><path d="M254.06 40.368L229.676 0 205.29 40.368l24.385 40.368 24.384-40.368z"/><use xlink:href="#W"/><use xlink:href="#W" y="113.287"/><use xlink:href="#W" y="226.575"/><use xlink:href="#W" y="339.861"/><use xlink:href="#W" y="453.148"/><path d="M254.06 720.1l-24.384-40.368L205.29 720.1l24.385 40.368L254.06 720.1z"/><use xlink:href="#W" y="679.722"/><use xlink:href="#W" y="793.009"/><use xlink:href="#X"/><use xlink:href="#X" y="113.29"/><use xlink:href="#Y"/><use xlink:href="#X" y="339.85"/><path d="M322.5 40.368L298.106 0l-24.384 40.368 24.384 40.368L322.5 40.368z"/><use xlink:href="#T" x="205.3"/><use xlink:href="#T" x="205.3" y="113.287"/><path d="M322.5 380.23l-24.384-40.368-24.384 40.368 24.384 40.368L322.5 380.23z"/><use xlink:href="#T" x="205.3" y="339.861"/><use xlink:href="#T" x="205.3" y="453.148"/><path d="M322.5 720.1l-24.384-40.368-24.384 40.368 24.384 40.368L322.5 720.1z"/><use xlink:href="#T" x="205.3" y="679.722"/><use xlink:href="#T" x="205.3" y="793.009"/><use xlink:href="#U" x="205.3"/><use xlink:href="#U" x="205.3" y="113.29"/><use xlink:href="#V" x="205.3"/><use xlink:href="#U" x="205.3" y="339.85"/><path d="M390.92 40.368L366.536 0l-24.384 40.368 24.384 40.368 24.385-40.368z"/><use xlink:href="#Z"/><use xlink:href="#Z" y="113.287"/><use xlink:href="#Z" y="226.575"/><use xlink:href="#Z" y="339.861"/><use xlink:href="#Z" y="453.148"/><path d="M390.92 720.1l-24.385-40.368-24.384 40.368 24.384 40.368L390.92 720.1z"/><use xlink:href="#Z" y="679.722"/><use xlink:href="#Z" y="793.009"/><use xlink:href="#a"/><use xlink:href="#a" y="113.29"/><use xlink:href="#b"/><use xlink:href="#a" y="339.85"/><path d="M459.35 40.368L434.967 0l-24.384 40.368 24.384 40.368 24.384-40.368z"/><use xlink:href="#T" x="342.15"/><use xlink:href="#T" x="342.15" y="113.287"/><use xlink:href="#T" x="342.15" y="226.575"/><use xlink:href="#T" x="342.15" y="339.861"/><use xlink:href="#T" x="342.15" y="453.148"/><path d="M459.35 720.1l-24.384-40.368-24.384 40.368 24.384 40.368L459.35 720.1z"/><use xlink:href="#T" x="342.15" y="679.722"/><use xlink:href="#T" x="342.15" y="793.009"/><use xlink:href="#U" x="342.15"/><use xlink:href="#U" x="342.15" y="113.29"/><use xlink:href="#V" x="342.15"/><use xlink:href="#U" x="342.15" y="339.85"/><path d="M527.782 40.368L503.397 0l-24.384 40.368 24.384 40.368 24.385-40.368z"/><use xlink:href="#Z" x="136.862"/><use xlink:href="#Z" x="136.862" y="113.287"/><use xlink:href="#Z" x="136.862" y="226.575"/><use xlink:href="#Z" x="136.862" y="339.861"/><use xlink:href="#Z" x="136.862" y="453.148"/><use xlink:href="#Z" x="136.862" y="566.445"/><use xlink:href="#Z" x="136.862" y="679.722"/><use xlink:href="#Z" x="136.862" y="793.009"/><use xlink:href="#a" x="136.862"/><use xlink:href="#a" x="136.862" y="113.29"/><use xlink:href="#b" x="136.862"/><use xlink:href="#a" x="136.862" y="339.85"/><path d="M596.212 40.368L571.828 0l-24.384 40.368 24.384 40.368 24.384-40.368z"/><use xlink:href="#T" x="479.012"/><use xlink:href="#T" x="479.012" y="113.287"/><use xlink:href="#T" x="479.012" y="226.575"/><use xlink:href="#T" x="479.012" y="339.861"/><use xlink:href="#T" x="479.012" y="453.148"/><use xlink:href="#T" x="479.012" y="566.445"/><use xlink:href="#T" x="479.012" y="679.722"/><use xlink:href="#T" x="479.012" y="793.009"/><use xlink:href="#U" x="479.012"/><use xlink:href="#U" x="479.012" y="113.29"/><use xlink:href="#V" x="479.012"/><use xlink:href="#U" x="479.012" y="339.85"/><path d="M664.643 40.368L640.258 0l-24.384 40.368 24.384 40.368 24.385-40.368z"/><use xlink:href="#Z" x="273.723"/><use xlink:href="#Z" x="273.723" y="113.287"/><use xlink:href="#Z" x="273.723" y="226.575"/><use xlink:href="#Z" x="273.723" y="339.861"/><use xlink:href="#Z" x="273.723" y="453.148"/><use xlink:href="#Z" x="273.723" y="566.445"/><use xlink:href="#Z" x="273.723" y="679.722"/><use xlink:href="#Z" x="273.723" y="793.009"/><use xlink:href="#a" x="273.723"/><use xlink:href="#a" x="273.723" y="113.29"/><use xlink:href="#b" x="273.723"/><use xlink:href="#a" x="273.723" y="339.85"/><path d="M733.073 40.368L708.69 0l-24.384 40.368 24.384 40.368 24.384-40.368z"/><use xlink:href="#T" x="615.873"/><path d="M733.073 266.942l-24.384-40.368-24.384 40.368L708.7 307.3l24.384-40.368zm0 113.288L708.7 339.86l-24.384 40.368 24.384 40.368 24.384-40.368z"/><use xlink:href="#T" x="615.873" y="339.861"/><use xlink:href="#T" x="615.873" y="453.148"/><use xlink:href="#T" x="615.873" y="566.445"/><path d="M733.073 833.377L708.69 793.01l-24.384 40.368 24.384 40.368 24.384-40.368z"/><use xlink:href="#T" x="615.873" y="793.009"/><use xlink:href="#U" x="615.873"/><use xlink:href="#U" x="615.873" y="113.29"/><use xlink:href="#V" x="615.873"/><use xlink:href="#U" x="615.873" y="339.85"/><path d="M801.504 40.368L777.12 0l-24.385 40.368 24.385 40.368 24.384-40.368z"/><use xlink:href="#W" x="547.444"/><path d="M801.504 266.942l-24.384-40.368-24.385 40.368L777.12 307.3l24.384-40.368zm0 113.288l-24.384-40.37-24.385 40.368 24.385 40.368 24.384-40.368z"/><use xlink:href="#W" x="547.444" y="339.861"/><use xlink:href="#W" x="547.444" y="453.148"/><use xlink:href="#W" x="547.444" y="566.445"/><path d="M801.504 833.377L777.12 793.01l-24.385 40.368 24.385 40.368 24.384-40.368z"/><use xlink:href="#W" x="547.444" y="793.009"/><use xlink:href="#X" x="547.444"/><use xlink:href="#X" x="547.444" y="113.29"/><use xlink:href="#Y" x="547.444"/><use xlink:href="#X" x="547.444" y="339.85"/><path d="M869.934 40.368L845.55 0l-24.384 40.368 24.384 40.368 24.384-40.368z"/><use xlink:href="#T" x="752.734"/><path d="M869.934 266.942l-24.384-40.368-24.384 40.368L845.55 307.3l24.384-40.368zm0 113.288l-24.384-40.37-24.384 40.368 24.384 40.368 24.384-40.368z"/><use xlink:href="#T" x="752.734" y="339.861"/><use xlink:href="#T" x="752.734" y="453.148"/><use xlink:href="#T" x="752.734" y="566.445"/><path d="M869.934 833.377L845.55 793.01l-24.384 40.368 24.384 40.368 24.384-40.368z"/><use xlink:href="#T" x="752.734" y="793.009"/><use xlink:href="#U" x="752.734"/><use xlink:href="#U" x="752.734" y="113.29"/><use xlink:href="#V" x="752.734"/><use xlink:href="#U" x="752.734" y="339.85"/><path d="M938.365 40.368L913.98 0l-24.385 40.368 24.385 40.368 24.384-40.368z"/><use xlink:href="#W" x="684.305"/><path d="M938.365 266.942l-24.384-40.368-24.385 40.368L913.98 307.3l24.384-40.368zm0 113.288l-24.385-40.37-24.385 40.368 24.385 40.368 24.384-40.368z"/><use xlink:href="#W" x="684.305" y="339.861"/><use xlink:href="#W" x="684.305" y="453.148"/><use xlink:href="#W" x="684.305" y="566.445"/><path d="M938.365 833.377L913.98 793.01l-24.385 40.368 24.385 40.368 24.384-40.368z"/><use xlink:href="#W" x="684.305" y="793.009"/><use xlink:href="#X" x="684.305"/><use xlink:href="#X" x="684.305" y="113.29"/><use xlink:href="#Y" x="684.305"/><use xlink:href="#X" x="684.305" y="339.85"/><path d="M1006.8 40.368L982.41 0l-24.384 40.368 24.384 40.368 24.39-40.368z"/><use xlink:href="#c"/><path d="M1006.8 266.942l-24.39-40.368-24.384 40.368L982.41 307.3l24.39-40.368z"/><use xlink:href="#c" y="226.575"/><use xlink:href="#c" y="339.861"/><use xlink:href="#c" y="453.148"/><use xlink:href="#c" y="566.445"/><use xlink:href="#c" y="679.722"/><use xlink:href="#c" y="793.009"/><use xlink:href="#d"/><use xlink:href="#d" y="113.29"/><path d="M1006.8 1286.52l-24.39-40.36-24.384 40.36 24.384 40.37 24.39-40.37z"/><use xlink:href="#d" y="339.85"/><path d="M1075.23 40.368L1050.84 0l-24.38 40.368 24.38 40.368 24.4-40.368z"/><use xlink:href="#e"/><use xlink:href="#e" y="113.287"/><use xlink:href="#e" y="226.575"/><use xlink:href="#e" y="339.861"/><use xlink:href="#e" y="453.148"/><use xlink:href="#e" y="566.445"/><use xlink:href="#e" y="679.722"/><use xlink:href="#e" y="793.009"/><use xlink:href="#f"/><use xlink:href="#f" y="113.29"/><use xlink:href="#g"/><use xlink:href="#f" y="339.85"/><path d="M1143.66 40.368L1119.27 0l-24.38 40.368 24.38 40.368 24.4-40.368z"/><use xlink:href="#e" x="68.43"/><use xlink:href="#e" x="68.43" y="113.287"/><use xlink:href="#e" x="68.43" y="226.575"/><use xlink:href="#e" x="68.43" y="339.861"/><use xlink:href="#e" x="68.43" y="453.148"/><use xlink:href="#e" x="68.43" y="566.445"/><use xlink:href="#e" x="68.43" y="679.722"/><use xlink:href="#e" x="68.43" y="793.009"/><use xlink:href="#f" x="68.43"/><use xlink:href="#f" x="68.43" y="113.29"/><use xlink:href="#g" x="68.43"/><use xlink:href="#f" x="68.43" y="339.85"/><path d="M1212.1 40.368L1187.7 0l-24.38 40.368 24.38 40.368 24.4-40.368z"/><use xlink:href="#e" x="136.87"/><use xlink:href="#e" x="136.87" y="113.287"/><use xlink:href="#e" x="136.87" y="226.575"/><use xlink:href="#e" x="136.87" y="339.861"/><use xlink:href="#e" x="136.87" y="453.148"/><use xlink:href="#e" x="136.87" y="566.445"/><use xlink:href="#e" x="136.87" y="679.722"/><use xlink:href="#e" x="136.87" y="793.009"/><use xlink:href="#f" x="136.87"/><use xlink:href="#f" x="136.87" y="113.29"/><use xlink:href="#g" x="136.87"/><use xlink:href="#f" x="136.87" y="339.85"/><path d="M1280.52 40.368L1256.13 0l-24.38 40.368 24.38 40.368 24.4-40.368z"/><use xlink:href="#e" x="205.29"/><use xlink:href="#e" x="205.29" y="113.287"/><use xlink:href="#e" x="205.29" y="226.575"/><use xlink:href="#e" x="205.29" y="339.861"/><use xlink:href="#e" x="205.29" y="453.148"/><use xlink:href="#e" x="205.29" y="566.445"/><use xlink:href="#e" x="205.29" y="679.722"/><use xlink:href="#e" x="205.29" y="793.009"/><use xlink:href="#f" x="205.29"/><use xlink:href="#f" x="205.29" y="113.29"/><use xlink:href="#g" x="205.29"/><use xlink:href="#f" x="205.29" y="339.85"/><path d="M1348.95 40.368L1324.56 0l-24.38 40.368 24.38 40.368 24.4-40.368z"/><use xlink:href="#e" x="273.72"/><use xlink:href="#e" x="273.72" y="113.287"/><use xlink:href="#e" x="273.72" y="226.575"/><use xlink:href="#e" x="273.72" y="339.861"/><use xlink:href="#e" x="273.72" y="453.148"/><use xlink:href="#e" x="273.72" y="566.445"/><use xlink:href="#e" x="273.72" y="679.722"/><use xlink:href="#e" x="273.72" y="793.009"/><use xlink:href="#f" x="273.72"/><use xlink:href="#f" x="273.72" y="113.29"/><use xlink:href="#g" x="273.72"/><use xlink:href="#f" x="273.72" y="339.85"/><path d="M1417.38 40.368L1393 0l-24.38 40.368L1393 80.736l24.4-40.368z"/><use xlink:href="#e" x="342.15"/><path d="M1417.38 266.942l-24.4-40.368-24.38 40.368L1393 307.3l24.4-40.368zm0 113.288L1393 339.86l-24.38 40.368 24.38 40.368 24.4-40.368z"/><use xlink:href="#e" x="342.15" y="339.861"/><path d="M1417.38 606.803l-24.4-40.368-24.38 40.368L1393 647.17l24.4-40.368z"/><use xlink:href="#e" x="342.15" y="566.445"/><path d="M1417.38 833.377L1393 793.01l-24.38 40.368 24.38 40.368 24.4-40.368z"/><use xlink:href="#e" x="342.15" y="793.009"/><use xlink:href="#f" x="342.15"/><use xlink:href="#f" x="342.15" y="113.29"/><use xlink:href="#g" x="342.15"/><use xlink:href="#f" x="342.15" y="339.85"/><path d="M1485.8 40.368L1461.43 0l-24.4 40.368 24.4 40.368 24.38-40.368z"/><use xlink:href="#h"/><use xlink:href="#h" y="113.287"/><use xlink:href="#h" y="226.575"/><use xlink:href="#h" y="339.861"/><use xlink:href="#h" y="453.148"/><use xlink:href="#h" y="566.445"/><use xlink:href="#h" y="679.722"/><use xlink:href="#h" y="793.009"/><use xlink:href="#i"/><use xlink:href="#i" y="113.29"/><use xlink:href="#j"/><use xlink:href="#i" y="339.85"/><path d="M1554.24 40.368L1529.86 0l-24.4 40.368 24.4 40.368 24.38-40.368z"/><use xlink:href="#h" x="68.44"/><use xlink:href="#h" x="68.44" y="113.287"/><use xlink:href="#h" x="68.44" y="226.575"/><use xlink:href="#h" x="68.44" y="339.861"/><use xlink:href="#h" x="68.44" y="453.148"/><use xlink:href="#h" x="68.44" y="566.445"/><use xlink:href="#h" x="68.44" y="679.722"/><use xlink:href="#h" x="68.44" y="793.009"/><use xlink:href="#i" x="68.44"/><use xlink:href="#i" x="68.44" y="113.29"/><use xlink:href="#j" x="68.44"/><use xlink:href="#i" x="68.44" y="339.85"/><path d="M1622.67 40.368L1598.3 0l-24.4 40.368 24.4 40.368 24.38-40.368z"/><use xlink:href="#h" x="136.87"/><use xlink:href="#h" x="136.87" y="113.287"/><use xlink:href="#h" x="136.87" y="226.575"/><use xlink:href="#h" x="136.87" y="339.861"/><use xlink:href="#h" x="136.87" y="453.148"/><use xlink:href="#h" x="136.87" y="566.445"/><use xlink:href="#h" x="136.87" y="679.722"/><use xlink:href="#h" x="136.87" y="793.009"/><use xlink:href="#i" x="136.87"/><use xlink:href="#i" x="136.87" y="113.29"/><use xlink:href="#j" x="136.87"/><use xlink:href="#i" x="136.87" y="339.85"/><path d="M1691.1 40.368L1666.72 0l-24.4 40.368 24.4 40.368 24.38-40.368z"/><use xlink:href="#h" x="205.3"/><use xlink:href="#h" x="205.3" y="113.287"/><use xlink:href="#h" x="205.3" y="226.575"/><use xlink:href="#h" x="205.3" y="339.861"/><use xlink:href="#h" x="205.3" y="453.148"/><use xlink:href="#h" x="205.3" y="566.445"/><use xlink:href="#h" x="205.3" y="679.722"/><use xlink:href="#h" x="205.3" y="793.009"/><use xlink:href="#i" x="205.3"/><use xlink:href="#i" x="205.3" y="113.29"/><use xlink:href="#j" x="205.3"/><use xlink:href="#i" x="205.3" y="339.85"/><path d="M1759.53 40.368L1735.15 0l-24.4 40.368 24.4 40.368 24.38-40.368z"/><use xlink:href="#h" x="273.73"/><use xlink:href="#h" x="273.73" y="113.287"/><use xlink:href="#h" x="273.73" y="226.575"/><use xlink:href="#h" x="273.73" y="339.861"/><use xlink:href="#h" x="273.73" y="453.148"/><use xlink:href="#h" x="273.73" y="566.445"/><use xlink:href="#h" x="273.73" y="679.722"/><use xlink:href="#h" x="273.73" y="793.009"/><use xlink:href="#i" x="273.73"/><use xlink:href="#i" x="273.73" y="113.29"/><use xlink:href="#j" x="273.73"/><use xlink:href="#i" x="273.73" y="339.85"/><path d="M1827.96 40.368L1803.58 0l-24.4 40.368 24.4 40.368 24.38-40.368z"/><use xlink:href="#h" x="342.16"/><use xlink:href="#h" x="342.16" y="113.287"/><use xlink:href="#h" x="342.16" y="226.575"/><use xlink:href="#h" x="342.16" y="339.861"/><use xlink:href="#h" x="342.16" y="453.148"/><use xlink:href="#h" x="342.16" y="566.445"/><use xlink:href="#h" x="342.16" y="679.722"/><use xlink:href="#h" x="342.16" y="793.009"/><use xlink:href="#i" x="342.16"/><use xlink:href="#i" x="342.16" y="113.29"/><use xlink:href="#j" x="342.16"/><use xlink:href="#i" x="342.16" y="339.85"/><path d="M1896.4 40.368L1872 0l-24.4 40.368 24.4 40.368 24.38-40.368zm0 113.287l-24.4-40.368-24.4 40.368 24.4 40.368 24.38-40.368zm0 113.287l-24.4-40.368-24.4 40.368L1872 307.3l24.38-40.368zm0 113.288l-24.4-40.37-24.4 40.368 24.4 40.368 24.38-40.368zm0 113.286l-24.4-40.368-24.4 40.368 24.4 40.368 24.38-40.368zm0 113.287l-24.4-40.368-24.4 40.368 24.4 40.368 24.38-40.368zm0 113.297l-24.4-40.378-24.4 40.368 24.4 40.368 24.38-40.368zm0 113.277L1872 793l-24.4 40.368 24.4 40.368 24.38-40.368zm0 113.287l-24.4-40.368-24.4 40.368 24.4 40.368 24.38-40.368z"/><use xlink:href="#i" x="410.6"/><use xlink:href="#i" x="410.6" y="113.29"/><use xlink:href="#j" x="410.6"/><use xlink:href="#i" x="410.6" y="339.85"/><path d="M1964.82 40.368L1940.44 0l-24.4 40.368 24.4 40.368 24.38-40.368z"/><use xlink:href="#h" x="479.02"/><use xlink:href="#h" x="479.02" y="113.287"/><use xlink:href="#h" x="479.02" y="226.575"/><use xlink:href="#h" x="479.02" y="339.861"/><use xlink:href="#h" x="479.02" y="453.148"/><use xlink:href="#h" x="479.02" y="566.445"/><use xlink:href="#h" x="479.02" y="679.722"/><use xlink:href="#h" x="479.02" y="793.009"/><use xlink:href="#i" x="479.02"/><use xlink:href="#i" x="479.02" y="113.29"/><use xlink:href="#j" x="479.02"/><use xlink:href="#i" x="479.02" y="339.85"/></g><defs ><path id="B" d="M34.215 1116.6l24.384-40.36 24.384 40.36-24.384 40.37-24.384-40.37z"/><path id="C" d="M102.646 97.01l24.384-40.368 24.384 40.368-24.384 40.368-24.384-40.368z"/><path id="D" d="M102.646 1003.3l24.384-40.37 24.384 40.37-24.384 40.37-24.384-40.37z"/><path id="E" d="M171.076 97.01l24.384-40.368 24.385 40.368-24.385 40.368-24.384-40.368z"/><path id="F" d="M171.076 1003.3l24.384-40.37 24.385 40.37-24.385 40.37-24.384-40.37z"/><path id="G" d="M786.95 210.298l24.385-40.368 24.384 40.368-24.384 40.368-24.385-40.368z"/><path id="H" d="M786.95 1003.3l24.385-40.37 24.384 40.37-24.384 40.37-24.385-40.37z"/><path id="I" d="M992.242 210.298l24.388-40.368 24.38 40.368-24.38 40.368-24.388-40.368z"/><path id="J" d="M992.242 1003.3l24.388-40.37 24.38 40.37-24.38 40.37-24.388-40.37z"/><path id="K" d="M1060.67 97.01l24.4-40.368 24.38 40.368-24.38 40.368-24.4-40.368z"/><path id="L" d="M1060.67 1003.3l24.4-40.37 24.38 40.37-24.38 40.37-24.4-40.37z"/><path id="M" d="M1060.67 1116.6l24.4-40.36 24.38 40.36-24.38 40.37-24.4-40.37z"/><path id="N" d="M1402.83 97.01l24.38-40.368 24.38 40.368-24.38 40.368-24.38-40.368z"/><path id="O" d="M1402.83 1003.3l24.38-40.37 24.38 40.37-24.38 40.37-24.38-40.37z"/><path id="P" d="M1402.83 1116.6l24.38-40.36 24.38 40.36-24.38 40.37-24.38-40.37z"/><path id="Q" d="M1608.12 97.01l24.38-40.368 24.4 40.368-24.4 40.368-24.38-40.368z"/><path id="R" d="M1608.12 1003.3l24.38-40.37 24.4 40.37-24.4 40.37-24.38-40.37z"/><path id="S" d="M1608.12 1116.6l24.38-40.36 24.4 40.36-24.4 40.37-24.38-40.37z"/><path id="T" d="M117.2 153.655l-24.384-40.368-24.384 40.368 24.384 40.368 24.384-40.368z"/><path id="U" d="M117.2 1059.95l-24.384-40.37-24.384 40.37 24.384 40.37 24.384-40.37z"/><path id="V" d="M117.2 1286.52l-24.384-40.36-24.384 40.36 24.384 40.37 24.384-40.37z"/><path id="W" d="M254.06 153.655l-24.384-40.368-24.385 40.368 24.385 40.368 24.384-40.368z"/><path id="X" d="M254.06 1059.95l-24.384-40.37-24.385 40.37 24.385 40.37 24.384-40.37z"/><path id="Y" d="M254.06 1286.52l-24.384-40.36-24.385 40.36 24.385 40.37 24.384-40.37z"/><path id="Z" d="M390.92 153.655l-24.385-40.368-24.384 40.368 24.384 40.368 24.385-40.368z"/><path id="a" d="M390.92 1059.95l-24.385-40.37-24.384 40.37 24.384 40.37 24.385-40.37z"/><path id="b" d="M390.92 1286.52l-24.385-40.36-24.384 40.36 24.384 40.37 24.385-40.37z"/><path id="c" d="M1006.8 153.655l-24.39-40.368-24.384 40.368 24.384 40.368 24.39-40.368z"/><path id="d" d="M1006.8 1059.95l-24.39-40.37-24.384 40.37 24.384 40.37 24.39-40.37z"/><path id="e" d="M1075.23 153.655l-24.4-40.368-24.38 40.368 24.38 40.368 24.4-40.368z"/><path id="f" d="M1075.23 1059.95l-24.4-40.37-24.38 40.37 24.38 40.37 24.4-40.37z"/><path id="g" d="M1075.23 1286.52l-24.4-40.36-24.38 40.36 24.38 40.37 24.4-40.37z"/><path id="h" d="M1485.8 153.655l-24.38-40.368-24.4 40.368 24.4 40.368 24.38-40.368z"/><path id="i" d="M1485.8 1059.95l-24.38-40.37-24.4 40.37 24.4 40.37 24.38-40.37z"/><path id="j" d="M1485.8 1286.52l-24.38-40.36-24.4 40.36 24.4 40.37 24.38-40.37z"/></defs></svg>