<?xml version="1.0" encoding="UTF-8" standalone="no"?>
<!-- Created with Inkscape (http://www.inkscape.org/) -->

<svg
   xmlns:dc="http://purl.org/dc/elements/1.1/"
   xmlns:cc="http://creativecommons.org/ns#"
   xmlns:rdf="http://www.w3.org/1999/02/22-rdf-syntax-ns#"
   xmlns:svg="http://www.w3.org/2000/svg"
   xmlns="http://www.w3.org/2000/svg"
   xmlns:sodipodi="http://sodipodi.sourceforge.net/DTD/sodipodi-0.dtd"
   xmlns:inkscape="http://www.inkscape.org/namespaces/inkscape"
   width="973.48041"
   height="283.79144"
   viewBox="0 0 257.56671 75.086482"
   version="1.1"
   id="svg8"
   inkscape:version="0.92.3 (2405546, 2018-03-11)"
   sodipodi:docname="horizontal_city_white.svg"
   inkscape:export-filename="/home/anxhelo/works/Sustain/PNG/horizontal_city_white.png"
   inkscape:export-xdpi="96"
   inkscape:export-ydpi="96">
  <defs
     id="defs2" />
  <sodipodi:namedview
     id="base"
     pagecolor="#ffffff"
     bordercolor="#666666"
     borderopacity="1.0"
     inkscape:pageopacity="0"
     inkscape:pageshadow="2"
     inkscape:zoom="0.52467208"
     inkscape:cx="572.33025"
     inkscape:cy="170.93863"
     inkscape:document-units="px"
     inkscape:current-layer="g948"
     inkscape:document-rotation="0"
     showgrid="false"
     borderlayer="true"
     inkscape:showpageshadow="true"
     units="px"
     inkscape:pagecheckerboard="false"
     showguides="false"
     inkscape:window-width="1366"
     inkscape:window-height="715"
     inkscape:window-x="0"
     inkscape:window-y="0"
     inkscape:window-maximized="1"
     objecttolerance="10"
     guidetolerance="10"
     inkscape:snap-tangential="true"
     inkscape:snap-perpendicular="true"
     fit-margin-top="0"
     fit-margin-left="0"
     fit-margin-right="0"
     fit-margin-bottom="0">
    <inkscape:grid
       type="xygrid"
       id="grid10"
       dotted="false"
       originx="121.09211"
       originy="-207.20451" />
  </sodipodi:namedview>
  <metadata
     id="metadata5">
    <rdf:RDF>
      <cc:Work
         rdf:about="">
        <dc:format>image/svg+xml</dc:format>
        <dc:type
           rdf:resource="http://purl.org/dc/dcmitype/StillImage" />
        <dc:title></dc:title>
        <cc:license
           rdf:resource="" />
      </cc:Work>
    </rdf:RDF>
  </metadata>
  <g
     inkscape:label="Layer 1"
     inkscape:groupmode="layer"
     id="layer1"
     transform="translate(121.09208,-14.708942)">
    <g
       id="g1038"
       transform="matrix(0.26458334,0,0,0.26458334,-74.87789,104.28012)">
      <g
         id="g1263"
         transform="matrix(1.1739688,0,0,1.1739688,146.63956,-481.31905)">
        <g
           id="g948"
           transform="matrix(0.72859978,0,0,0.72859978,-273.69328,121.62361)">
          <path
             id="path914"
             d="m 242.1,101.4 c -3.2,-0.4 -6.4,-0.6 -9.7,-0.6 -3.7,0 -7.4,0.3 -11,0.8 -26.3,3.5 -48.6,19.4 -60.9,41.7 -2.1,3.8 -3.9,7.9 -5.4,12 -12.9,-17.7 -32.7,-30.1 -55.5,-33.1 -3.6,-0.5 -7.3,-0.8 -11,-0.8 -3.3,0 -6.5,0.2 -9.7,0.6 -0.4,3.2 -0.6,6.4 -0.6,9.7 0,3.7 0.3,7.4 0.8,11 4.9,36.6 33.9,65.5 70.4,70.4 0.2,0 0.5,0.1 0.7,0.1 v 72.6 h 20.6 v -93.1 c 0.2,0 0.5,-0.1 0.7,-0.1 36.6,-4.9 65.5,-33.9 70.4,-70.4 0.5,-3.6 0.8,-7.3 0.8,-11 0,-3.4 -0.2,-6.6 -0.6,-9.8 z"
             class="st2"
             inkscape:connector-curvature="0"
             style="fill:#ffffff;fill-opacity:1" />
          <g
             id="g924"
             style="fill:#ffffff;fill-opacity:1">
            <path
               id="path916"
               d="m 95.4,55.9 c 2.7,2.7 6.9,3.3 10.4,1.5 16.2,-8.6 34.8,-13.5 54.4,-13.5 16.9,0 33,3.7 47.6,10.2 3.3,1.5 7.2,0.8 9.8,-1.8 l 19.7,-19.7 c 4.2,-4.2 3.1,-11.2 -2.1,-14 C 212.8,6.8 187.3,0 160.2,0 130.1,0 101.9,8.4 77.8,22.9 c -4.9,3 -5.7,9.7 -1.7,13.8 z"
               class="st1"
               inkscape:connector-curvature="0"
               style="fill:#ffffff;fill-opacity:1" />
            <path
               id="path918"
               d="m 283.8,76.2 -19.3,19.3 c -2.7,2.7 -3.3,6.9 -1.5,10.4 8.6,16.2 13.5,34.8 13.5,54.4 0,19.6 -4.9,38.2 -13.5,54.4 -1.8,3.4 -1.2,7.6 1.5,10.4 l 19.3,19.3 c 4,4 10.8,3.2 13.8,-1.7 14.5,-24.1 22.9,-52.2 22.9,-82.3 0,-30.1 -8.4,-58.3 -22.9,-82.3 -3,-5.1 -9.8,-6 -13.8,-1.9 z"
               class="st1"
               inkscape:connector-curvature="0"
               style="fill:#ffffff;fill-opacity:1" />
            <path
               id="path920"
               d="m 217.6,268.1 c -2.6,-2.6 -6.5,-3.3 -9.8,-1.8 -14.5,6.5 -30.6,10.2 -47.6,10.2 -19.6,0 -38.2,-4.9 -54.4,-13.5 -3.4,-1.8 -7.6,-1.2 -10.4,1.5 l -19.3,19.3 c -4,4 -3.2,10.8 1.7,13.8 24.1,14.5 52.2,22.9 82.4,22.9 27.1,0 52.6,-6.8 75,-18.7 5.2,-2.8 6.3,-9.8 2.1,-14 z"
               class="st2"
               inkscape:connector-curvature="0"
               style="fill:#ffffff;fill-opacity:1" />
            <path
               id="path922"
               d="m 52.3,217.6 c 2.6,-2.6 3.3,-6.5 1.8,-9.8 -6.5,-14.5 -10.2,-30.6 -10.2,-47.6 0,-17 3.7,-33 10.2,-47.6 1.5,-3.3 0.8,-7.2 -1.8,-9.8 L 32.7,83.2 C 28.5,79 21.5,80.1 18.7,85.3 6.8,107.6 0,133.1 0,160.2 c 0,27.1 6.8,52.6 18.7,75 2.8,5.2 9.8,6.3 14,2.1 z"
               class="st1"
               inkscape:connector-curvature="0"
               style="fill:#ffffff;fill-opacity:1" />
          </g>
          <g
             id="g942"
             style="fill:#ffffff;fill-opacity:1">
            <path
               id="path926"
               d="M 483.7,107.9 C 475,99.9 462.6,95 446.9,93.5 c -12.7,-1.3 -21.5,-3.9 -26.1,-7.8 -4.4,-3.7 -6.6,-8.1 -6.6,-13.6 0,-5.7 2.3,-10 7.1,-13 5.3,-3.3 12.4,-5 21.1,-5 7.1,0 12.9,1.3 17.4,3.9 4.5,2.6 8.3,6.5 11.3,11.4 1.2,2.2 2.9,3.9 5.1,5.2 2.1,1.2 4.5,1.9 7,1.9 2.5,0 4.8,-0.6 6.9,-1.9 3.4,-2.4 5.2,-5.7 5.2,-9.6 0,-2.8 -0.9,-5.7 -2.8,-8.6 -5.4,-8.5 -12.1,-15.2 -19.8,-19.8 v 0 c -7.9,-4.7 -17.6,-7 -28.9,-7 -10.2,0 -19.6,1.6 -27.9,4.8 -8.5,3.3 -15.3,8.1 -20.2,14.4 -5,6.4 -7.6,14.1 -7.6,22.8 0,12.3 4.9,22.8 14.5,31 9.4,8 22.3,12.8 38.3,14.4 10.4,1 18.1,3.8 23,8.3 4.8,4.4 7.1,9.5 7.1,15.7 0,6.3 -2.7,11.1 -8.2,14.8 -5.9,3.9 -13.2,5.9 -21.8,5.9 -7.4,0 -14.2,-1.6 -20.3,-4.7 -5.9,-3 -9.8,-6.6 -11.7,-10.6 -1.1,-2.6 -2.9,-4.7 -5.3,-6.3 -2.4,-1.6 -4.9,-2.3 -7.6,-2.3 -1.1,0 -2,0.1 -2.7,0.3 -3,0.7 -5.4,2 -7.3,3.9 -2,2.1 -3,4.6 -3,7.4 0,1.5 0.4,3.1 1.2,5.1 4,9.5 11.4,17.3 22,23.2 10.4,5.7 22,8.7 34.7,8.7 9.6,0 18.8,-1.7 27.2,-5 8.6,-3.4 15.6,-8.6 20.8,-15.5 5.3,-7 8,-15.5 8,-25.2 0.2,-13.8 -4.3,-24.6 -13.3,-32.8 z"
               class="st1"
               inkscape:connector-curvature="0"
               style="fill:#ffffff;fill-opacity:1" />
            <path
               id="path928"
               d="m 620.8,69 c -2.5,-2.5 -5.8,-3.8 -9.8,-3.8 -3.8,0 -7.1,1.3 -9.7,3.8 -2.6,2.5 -3.9,5.8 -3.9,9.8 v 57.7 c 0,4.3 -1.1,8.1 -3.4,11.5 -2.3,3.5 -5.6,6.3 -9.8,8.3 -4.2,2.1 -9,3.1 -14.2,3.1 -9.1,0 -16.1,-2.5 -21.4,-7.6 -5.3,-5 -7.9,-12.7 -7.9,-22.8 V 78.8 c 0,-3.9 -1.3,-7.1 -3.9,-9.7 -2.6,-2.6 -5.8,-3.9 -9.7,-3.9 -3.9,0 -7.1,1.3 -9.7,3.9 -2.6,2.6 -3.9,5.8 -3.9,9.7 v 50.3 c 0,11.5 2.3,21.6 6.7,29.8 4.5,8.3 10.8,14.8 18.9,19.2 7.9,4.3 17,6.5 26.9,6.5 7.2,0 14,-1.3 20.4,-3.8 4.3,-1.7 8.2,-3.9 11.8,-6.6 0.6,2.1 1.7,3.9 3.3,5.5 2.6,2.6 5.8,3.9 9.7,3.9 4,0 7.3,-1.3 9.8,-3.9 2.5,-2.6 3.8,-5.8 3.8,-9.7 V 78.8 c -0.3,-4 -1.5,-7.3 -4,-9.8 z"
               class="st1"
               inkscape:connector-curvature="0"
               style="fill:#ffffff;fill-opacity:1" />
            <path
               id="path930"
               d="m 730.2,124.6 c -6.7,-5.7 -17.5,-10 -33,-13.2 -7,-1.5 -12.4,-2.9 -16,-4.4 -4.1,-1.7 -5.7,-3.1 -6.4,-4.1 -1,-1.3 -1.4,-2.9 -1.4,-5 0,-1.6 0.5,-4 4.3,-6.1 3.5,-1.9 8.2,-2.8 14,-2.8 5.1,0 9.4,0.6 12.9,1.8 3.4,1.1 6.6,3.2 9.7,6 3.4,3.1 7.4,4.7 11.7,4.7 3,0 5.5,-0.8 7.7,-2.4 3.1,-2.5 4.6,-5.5 4.6,-8.8 0,-2.9 -1.1,-5.8 -3.4,-8.5 -4.4,-5.4 -10.4,-9.7 -17.9,-12.8 -7.4,-3 -15.8,-4.5 -25,-4.5 -7.6,0 -14.8,1.2 -21.5,3.7 -6.9,2.5 -12.6,6.3 -16.9,11.3 -4.4,5.2 -6.7,11.6 -6.7,19 0,18.2 14.1,30.1 41.8,35.4 9.6,1.8 16.5,4 20.3,6.6 3.3,2.2 4.9,4.8 4.9,7.9 0,3.2 -1.6,5.7 -4.9,7.7 -3.8,2.3 -9.3,3.4 -16.5,3.4 -5.4,0 -10.6,-1 -15.4,-2.9 -4.7,-1.9 -8.2,-4.2 -10.6,-6.8 -5.5,-5.5 -12,-6.3 -19.1,-1.1 -3.5,2.6 -5.4,6.3 -5.4,10.5 0,3.3 1.2,6.2 3.6,8.6 4.9,4.9 11.8,9 20.4,12 8.5,3 17.6,4.5 27.2,4.5 9.7,0 18.1,-1.6 25.1,-4.7 7.1,-3.2 12.6,-7.6 16.4,-13.2 3.7,-5.6 5.6,-12 5.6,-18.8 0.3,-9.3 -3.2,-17 -10.1,-23 z"
               class="st1"
               inkscape:connector-curvature="0"
               style="fill:#ffffff;fill-opacity:1" />
            <path
               id="path932"
               d="m 820.9,160.7 c -2.3,-2.6 -5.3,-3.9 -8.6,-3.9 h -7 c -3.4,0 -6.2,-1.4 -8.6,-4.4 -2.5,-3.1 -3.8,-7 -3.8,-11.7 V 93.4 h 14.2 c 3.7,0 6.7,-1.1 9.1,-3.3 2.4,-2.2 3.7,-5.1 3.7,-8.5 0,-3.6 -1.2,-6.6 -3.7,-8.9 -2.4,-2.2 -5.4,-3.3 -9.1,-3.3 H 793 V 43.2 c 0,-3.8 -1.3,-7.1 -3.8,-9.6 -2.5,-2.5 -5.7,-3.8 -9.6,-3.8 -3.9,0 -7.1,1.3 -9.6,3.8 -2.5,2.5 -3.8,5.7 -3.8,9.6 V 69.5 H 760 c -3.7,0 -6.7,1.1 -9.1,3.3 -2.4,2.3 -3.7,5.2 -3.7,8.9 0,3.3 1.3,6.2 3.7,8.5 2.4,2.2 5.4,3.3 9.1,3.3 h 6.2 v 47.3 c 0,8 1.7,15.3 5.1,21.7 3.4,6.5 8.1,11.7 14.1,15.4 6,3.8 12.7,5.7 20,5.7 h 3.7 c 4.3,0 7.9,-1.2 10.7,-3.6 2.9,-2.5 4.5,-5.9 4.5,-9.8 0,-3.8 -1.2,-7 -3.4,-9.5 z"
               class="st1"
               inkscape:connector-curvature="0"
               style="fill:#ffffff;fill-opacity:1" />
            <path
               id="path934"
               d="m 998,34.7 c -3.3,-3.3 -7.2,-4.9 -11.7,-4.9 -4.5,0 -8.5,1.7 -11.7,4.9 -3.3,3.3 -4.9,7.2 -4.9,11.7 0,4.5 1.7,8.5 4.9,11.7 3.3,3.3 7.2,4.9 11.7,4.9 4.5,0 8.5,-1.7 11.7,-4.9 3.3,-3.3 4.9,-7.2 4.9,-11.7 0,-4.4 -1.6,-8.4 -4.9,-11.7 z"
               class="st1"
               inkscape:connector-curvature="0"
               style="fill:#ffffff;fill-opacity:1" />
            <path
               id="path936"
               d="m 986.3,75 c -3.8,0 -7.1,1.3 -9.7,3.8 -2.6,2.5 -3.9,5.8 -3.9,9.8 V 170 c 0,3.9 1.3,7.1 3.9,9.7 2.6,2.6 5.8,3.9 9.7,3.9 4,0 7.3,-1.3 9.8,-3.9 2.5,-2.6 3.7,-5.8 3.7,-9.7 V 88.6 c 0,-4 -1.3,-7.3 -3.8,-9.8 -2.4,-2.5 -5.7,-3.8 -9.7,-3.8 z"
               class="st1"
               inkscape:connector-curvature="0"
               style="fill:#ffffff;fill-opacity:1" />
            <path
               id="path938"
               d="m 1131.5,90.1 c -4.5,-8.4 -10.8,-14.8 -18.9,-19.2 -7.9,-4.3 -17,-6.5 -26.9,-6.5 -7.2,0 -14,1.3 -20.4,3.8 -4.3,1.7 -8.2,3.9 -11.7,6.6 -0.6,-2.1 -1.7,-4 -3.2,-5.6 -2.5,-2.5 -5.8,-3.8 -9.8,-3.8 -3.8,0 -7.1,1.3 -9.7,3.8 -2.6,2.5 -3.9,5.8 -3.9,9.8 v 91.2 c 0,3.9 1.3,7.1 3.9,9.7 2.6,2.6 5.8,3.9 9.7,3.9 4,0 7.3,-1.3 9.8,-3.9 2.5,-2.6 3.8,-5.8 3.8,-9.7 v -57.7 c 0,-4.3 1.1,-8.1 3.4,-11.5 2.3,-3.5 5.6,-6.3 9.8,-8.3 4.2,-2.1 9,-3.2 14.2,-3.2 9.1,0 16.1,2.5 21.4,7.6 5.3,5 7.9,12.7 7.9,22.8 v 50.3 c 0,3.9 1.3,7.1 3.9,9.7 2.6,2.6 5.8,3.9 9.7,3.9 3.9,0 7.1,-1.3 9.7,-3.9 2.6,-2.6 3.9,-5.8 3.9,-9.7 v -50.3 c 0.1,-11.5 -2.2,-21.6 -6.6,-29.8 z"
               class="st1"
               inkscape:connector-curvature="0"
               style="fill:#ffffff;fill-opacity:1" />
            <path
               id="path940"
               d="m 937.7,65.4 c -3.8,0 -7.1,1.3 -9.7,3.8 -1.5,1.4 -2.6,3.2 -3.2,5.1 -0.9,-0.6 -1.9,-1.2 -2.8,-1.8 v 0 c -9,-5.2 -19.1,-7.9 -30.1,-7.9 -11,0 -21.2,2.7 -30.3,7.9 -9.1,5.2 -16.4,12.5 -21.5,21.6 -5.2,9.1 -7.8,19.4 -7.8,30.5 0,11.1 2.4,21.3 7.2,30.4 4.8,9.1 11.5,16.4 20,21.6 8.4,5.2 18,7.8 28.3,7.8 8.3,0 16.2,-1.8 23.5,-5.2 4.7,-2.3 9,-5.2 12.9,-8.6 0.1,3.7 1.4,6.8 3.9,9.3 2.6,2.6 5.8,3.9 9.7,3.9 3.9,0 7.1,-1.3 9.7,-3.9 2.6,-2.6 3.9,-5.8 3.9,-9.7 V 134.9 124.6 79 c 0,-4 -1.3,-7.3 -3.8,-9.8 -2.6,-2.5 -5.9,-3.8 -9.9,-3.8 z m -17.1,77.2 c -2.8,5.3 -6.8,9.5 -11.8,12.5 v 0 c -5,3 -10.7,4.6 -16.9,4.6 -6.2,0 -11.9,-1.5 -16.9,-4.6 -5,-3 -9,-7.2 -12,-12.5 -2.9,-5.3 -4.4,-11.3 -4.4,-18 0,-6.7 1.5,-12.7 4.4,-18.1 2.9,-5.3 6.9,-9.6 11.9,-12.6 5,-3 10.7,-4.6 16.9,-4.6 6.2,0 11.9,1.5 16.9,4.6 5,3 9,7.3 11.8,12.6 2.9,5.4 4.3,11.5 4.3,18.1 0.2,6.7 -1.3,12.7 -4.2,18 z"
               class="st1"
               inkscape:connector-curvature="0"
               style="fill:#ffffff;fill-opacity:1" />
          </g>
          <g
             aria-label="City Name"
             transform="translate(380.2512,302.8983)"
             style="font-size:118.39920044px;font-family:Comfortaa-Bold;letter-spacing:2;fill:#ffffff;fill-opacity:1"
             id="text946">
            <text
               xml:space="preserve"
               style="font-style:normal;font-variant:normal;font-weight:bold;font-stretch:normal;font-size:118.9727478px;line-height:1.25;font-family:Comfortaa;-inkscape-font-specification:'Comfortaa Bold';text-align:start;text-anchor:start;opacity:1;fill:#ffffff;fill-opacity:1;fill-rule:nonzero;stroke:none;stroke-width:15.65430641;stroke-linecap:square;stroke-linejoin:miter;stroke-miterlimit:4;stroke-dasharray:none;stroke-opacity:1;paint-order:markers stroke fill"
               x="-1.5369684"
               y="0.33091271"
               id="text843"><tspan
                 sodipodi:role="line"
                 id="tspan841"
                 x="-1.5369684"
                 y="0.33091271"
                 style="fill:#ffffff;fill-opacity:1;stroke-width:15.65430641">City Name</tspan></text>
          </g>
        </g>
      </g>
    </g>
  </g>
</svg>
