<?xml version="1.0" encoding="UTF-8" standalone="no"?>
<!-- Created with Inkscape (http://www.inkscape.org/) -->

<svg
   xmlns:dc="http://purl.org/dc/elements/1.1/"
   xmlns:cc="http://creativecommons.org/ns#"
   xmlns:rdf="http://www.w3.org/1999/02/22-rdf-syntax-ns#"
   xmlns:svg="http://www.w3.org/2000/svg"
   xmlns="http://www.w3.org/2000/svg"
   xmlns:sodipodi="http://sodipodi.sourceforge.net/DTD/sodipodi-0.dtd"
   xmlns:inkscape="http://www.inkscape.org/namespaces/inkscape"
   width="636.93811"
   height="636.93811"
   viewBox="0 0 168.52322 168.5232"
   version="1.1"
   id="svg8"
   inkscape:version="0.92.3 (2405546, 2018-03-11)"
   sodipodi:docname="icon_white.svg"
   inkscape:export-filename="/home/anxhelo/works/Sustain/PNG/icon_white.png"
   inkscape:export-xdpi="96"
   inkscape:export-ydpi="96">
  <defs
     id="defs2" />
  <sodipodi:namedview
     id="base"
     pagecolor="#ffffff"
     bordercolor="#666666"
     borderopacity="1.0"
     inkscape:pageopacity="0"
     inkscape:pageshadow="2"
     inkscape:zoom="0.37099919"
     inkscape:cx="-58.541772"
     inkscape:cy="287.0844"
     inkscape:document-units="px"
     inkscape:current-layer="g1173"
     inkscape:document-rotation="0"
     showgrid="false"
     borderlayer="true"
     inkscape:showpageshadow="true"
     units="px"
     inkscape:pagecheckerboard="false"
     showguides="false"
     inkscape:window-width="1366"
     inkscape:window-height="715"
     inkscape:window-x="0"
     inkscape:window-y="0"
     inkscape:window-maximized="1"
     objecttolerance="10"
     guidetolerance="10"
     inkscape:snap-tangential="true"
     inkscape:snap-perpendicular="true"
     fit-margin-top="0"
     fit-margin-left="0"
     fit-margin-right="0"
     fit-margin-bottom="0"
     inkscape:snap-page="false">
    <inkscape:grid
       type="xygrid"
       id="grid10"
       dotted="false"
       originx="76.276542"
       originy="-143.2442" />
  </sodipodi:namedview>
  <metadata
     id="metadata5">
    <rdf:RDF>
      <cc:Work
         rdf:about="">
        <dc:format>image/svg+xml</dc:format>
        <dc:type
           rdf:resource="http://purl.org/dc/dcmitype/StillImage" />
        <dc:title></dc:title>
        <cc:license
           rdf:resource="" />
      </cc:Work>
    </rdf:RDF>
  </metadata>
  <g
     inkscape:label="Layer 1"
     inkscape:groupmode="layer"
     id="layer1"
     transform="translate(76.276512,14.767459)">
    <g
       id="g1038"
       transform="matrix(0.26458334,0,0,0.26458334,-74.87789,104.28012)">
      <g
         id="g1263"
         transform="matrix(1.1739688,0,0,1.1739688,146.63956,-481.31905)">
        <g
           id="g948"
           transform="matrix(0.72859978,0,0,0.72859978,-273.69328,121.62361)">
          <g
             id="g1173"
             transform="matrix(1.3166549,0,0,1.3166549,111.59106,-256.26185)">
            <path
               id="path1081"
               d="m 492.42973,274.58185 c -5.6472,-0.7059 -11.2943,-0.9883 -17.0827,-0.9883 -6.6354,0 -13.1296,0.4236 -19.4826,1.2707 -46.30656,6.2118 -85.69538,34.3064 -107.57805,73.554 -3.81182,6.7765 -6.91776,13.8355 -9.60015,21.318 -22.72974,-31.3416 -57.74203,-53.0832 -97.97792,-58.4479 -6.35303,-0.8471 -12.84724,-1.2707 -19.48262,-1.2707 -5.78833,0 -11.43548,0.4236 -17.08262,0.9883 -0.70589,5.6471 -0.98824,11.2943 -0.98824,17.0826 0,6.6353 0.42354,13.1295 1.2706,19.4827 8.6119,64.5185 59.71853,115.6252 124.37831,124.3783 0.42353,0 0.84706,0.1415 1.2706,0.1415 v 128.0489 h 36.28289 v -164.473 c 0.42353,0 0.84707,-0.1415 1.2706,-0.1415 64.5186,-8.612 115.6252,-59.7186 124.3783,-124.3783 0.8471,-6.3532 1.2706,-12.8473 1.2706,-19.4827 0.2824,-5.6471 -0.1412,-11.4355 -0.847,-17.0826 z"
               class="st0"
               inkscape:connector-curvature="0"
               style="fill:#ffffff;stroke-width:1.41178548;fill-opacity:1" />
            <g
               transform="matrix(1.4117855,0,0,1.4117855,-184.38031,95.708645)"
               id="g1091"
               style="fill:#ffffff;fill-opacity:1">
              <path
                 id="path1083"
                 d="m 296.4,69.9 c 3.4,3.4 8.7,4.2 13,1.9 20.3,-10.8 43.5,-16.9 68,-16.9 21.2,0 41.3,4.6 59.5,12.8 4.2,1.9 9,1 12.3,-2.2 l 24.6,-24.6 c 5.2,-5.2 3.9,-14 -2.6,-17.5 C 443.1,8.5 411.2,0 377.4,0 339.8,0 304.6,10.5 274.5,28.6 c -6.1,3.7 -7.2,12.1 -2.1,17.2 z"
                 class="st1"
                 inkscape:connector-curvature="0"
                 style="fill:#ffffff;fill-opacity:1" />
              <path
                 id="path1085"
                 d="m 531.9,95.2 -24.1,24.1 c -3.4,3.4 -4.2,8.7 -1.9,13 10.8,20.3 16.9,43.5 16.9,68 0,24.5 -6.1,47.7 -16.9,68 -2.3,4.3 -1.5,9.5 1.9,13 l 24.1,24.1 c 5.1,5.1 13.5,4 17.2,-2.1 18.1,-30.1 28.6,-65.3 28.6,-102.9 0,-37.6 -10.5,-72.8 -28.6,-102.9 -3.7,-6.3 -12.2,-7.4 -17.2,-2.3 z"
                 class="st1"
                 inkscape:connector-curvature="0"
                 style="fill:#ffffff;fill-opacity:1" />
              <path
                 id="path1087"
                 d="m 449.1,335.1 c -3.2,-3.2 -8.1,-4.1 -12.3,-2.2 -18.2,8.2 -38.3,12.8 -59.5,12.8 -24.6,0 -47.7,-6.1 -68,-16.9 -4.3,-2.3 -9.5,-1.5 -13,1.9 l -24.1,24.1 c -5.1,5.1 -4,13.5 2.1,17.2 30.1,18.1 65.3,28.6 102.9,28.6 33.8,0 65.7,-8.5 93.7,-23.4 6.5,-3.5 7.8,-12.3 2.6,-17.5 z"
                 class="st0"
                 inkscape:connector-curvature="0"
                 style="fill:#ffffff;fill-opacity:1" />
              <path
                 id="path1089"
                 d="m 242.6,272 c 3.2,-3.2 4.1,-8.1 2.2,-12.3 -8.2,-18.2 -12.8,-38.3 -12.8,-59.5 0,-21.2 4.6,-41.3 12.8,-59.5 1.9,-4.2 1,-9 -2.2,-12.3 L 218,103.9 c -5.2,-5.2 -14,-3.9 -17.5,2.6 -14.9,28 -23.4,59.9 -23.4,93.7 0,33.8 8.5,65.7 23.4,93.7 3.5,6.5 12.3,7.8 17.5,2.6 z"
                 class="st1"
                 inkscape:connector-curvature="0"
                 style="fill:#ffffff;fill-opacity:1" />
            </g>
          </g>
        </g>
      </g>
    </g>
  </g>
</svg>
