<?xml version="1.0" encoding="UTF-8" standalone="no"?>
<!-- Created with Inkscape (http://www.inkscape.org/) -->

<svg
   xmlns:dc="http://purl.org/dc/elements/1.1/"
   xmlns:cc="http://creativecommons.org/ns#"
   xmlns:rdf="http://www.w3.org/1999/02/22-rdf-syntax-ns#"
   xmlns:svg="http://www.w3.org/2000/svg"
   xmlns="http://www.w3.org/2000/svg"
   xmlns:sodipodi="http://sodipodi.sourceforge.net/DTD/sodipodi-0.dtd"
   xmlns:inkscape="http://www.inkscape.org/namespaces/inkscape"
   width="850.17603"
   height="848.70282"
   viewBox="0 0 224.94242 224.55261"
   version="1.1"
   id="svg8"
   inkscape:version="0.92.3 (2405546, 2018-03-11)"
   sodipodi:docname="vertical_city_color.svg"
   inkscape:export-filename="/home/anxhelo/works/Sustain/PNG/vertical_city_color.png"
   inkscape:export-xdpi="96"
   inkscape:export-ydpi="96">
  <defs
     id="defs2" />
  <sodipodi:namedview
     id="base"
     pagecolor="#ffffff"
     bordercolor="#666666"
     borderopacity="1.0"
     inkscape:pageopacity="0"
     inkscape:pageshadow="2"
     inkscape:zoom="0.18549959"
     inkscape:cx="-663.46806"
     inkscape:cy="-98.403755"
     inkscape:document-units="px"
     inkscape:current-layer="g1173"
     inkscape:document-rotation="0"
     showgrid="false"
     borderlayer="true"
     inkscape:showpageshadow="true"
     units="px"
     inkscape:pagecheckerboard="false"
     showguides="false"
     inkscape:window-width="1366"
     inkscape:window-height="715"
     inkscape:window-x="0"
     inkscape:window-y="0"
     inkscape:window-maximized="1"
     objecttolerance="10"
     guidetolerance="10"
     inkscape:snap-tangential="true"
     inkscape:snap-perpendicular="true"
     fit-margin-top="0"
     fit-margin-left="0"
     fit-margin-right="0"
     fit-margin-bottom="0">
    <inkscape:grid
       type="xygrid"
       id="grid10"
       dotted="false"
       originx="95.897282"
       originy="-115.73358" />
  </sodipodi:namedview>
  <metadata
     id="metadata5">
    <rdf:RDF>
      <cc:Work
         rdf:about="">
        <dc:format>image/svg+xml</dc:format>
        <dc:type
           rdf:resource="http://purl.org/dc/dcmitype/StillImage" />
        <dc:title></dc:title>
        <cc:license
           rdf:resource="" />
      </cc:Work>
    </rdf:RDF>
  </metadata>
  <g
     inkscape:label="Layer 1"
     inkscape:groupmode="layer"
     id="layer1"
     transform="translate(95.897253,43.286257)">
    <g
       id="g1038"
       transform="matrix(0.26458334,0,0,0.26458334,-74.87789,104.28012)">
      <g
         id="g1263"
         transform="matrix(1.1739688,0,0,1.1739688,146.63956,-481.31905)">
        <g
           id="g948"
           transform="matrix(0.72859978,0,0,0.72859978,-273.69328,121.62361)">
          <g
             id="g1173"
             transform="matrix(1.3166549,0,0,1.3166549,111.59106,-256.26185)">
            <path
               id="path1139"
               d="m 479.4,126.7 c -4,-0.5 -8,-0.7 -12.1,-0.7 -4.7,0 -9.3,0.3 -13.8,0.9 -32.8,4.4 -60.7,24.3 -76.2,52.1 -2.7,4.8 -4.9,9.8 -6.8,15.1 -16.1,-22.2 -40.9,-37.6 -69.4,-41.4 -4.5,-0.6 -9.1,-0.9 -13.8,-0.9 -4.1,0 -8.1,0.3 -12.1,0.7 -0.5,4 -0.7,8 -0.7,12.1 0,4.7 0.3,9.3 0.9,13.8 6.1,45.7 42.3,81.9 88.1,88.1 0.3,0 0.6,0.1 0.9,0.1 v 90.7 h 25.7 V 240.8 c 0.3,0 0.6,-0.1 0.9,-0.1 45.7,-6.1 81.9,-42.3 88.1,-88.1 0.6,-4.5 0.9,-9.1 0.9,-13.8 0.2,-4 -0.1,-8.1 -0.6,-12.1 z"
               class="st2"
               inkscape:connector-curvature="0"
               style="fill:#c44f7d" />
            <g
               id="g1149">
              <path
                 id="path1141"
                 d="m 296.4,69.9 c 3.4,3.4 8.7,4.2 13,1.9 20.3,-10.8 43.5,-16.9 68,-16.9 21.2,0 41.3,4.6 59.5,12.8 4.2,1.9 9,1 12.3,-2.2 l 24.6,-24.6 c 5.2,-5.2 3.9,-14 -2.6,-17.5 C 443.1,8.5 411.2,0 377.4,0 339.8,0 304.6,10.5 274.5,28.6 c -6.1,3.7 -7.2,12.1 -2.1,17.2 z"
                 class="st1"
                 inkscape:connector-curvature="0"
                 style="fill:#264959" />
              <path
                 id="path1143"
                 d="m 531.9,95.2 -24.1,24.1 c -3.4,3.4 -4.2,8.7 -1.9,13 10.8,20.3 16.9,43.5 16.9,68 0,24.5 -6.1,47.7 -16.9,68 -2.3,4.3 -1.5,9.5 1.9,13 l 24.1,24.1 c 5.1,5.1 13.5,4 17.2,-2.1 18.1,-30.1 28.6,-65.3 28.6,-102.9 0,-37.6 -10.5,-72.8 -28.6,-102.9 -3.7,-6.3 -12.2,-7.4 -17.2,-2.3 z"
                 class="st1"
                 inkscape:connector-curvature="0"
                 style="fill:#264959" />
              <path
                 id="path1145"
                 d="m 449.1,335.1 c -3.2,-3.2 -8.1,-4.1 -12.3,-2.2 -18.2,8.2 -38.3,12.8 -59.5,12.8 -24.6,0 -47.7,-6.1 -68,-16.9 -4.3,-2.3 -9.5,-1.5 -13,1.9 l -24.1,24.1 c -5.1,5.1 -4,13.5 2.1,17.2 30.1,18.1 65.3,28.6 102.9,28.6 33.8,0 65.7,-8.5 93.7,-23.4 6.5,-3.5 7.8,-12.3 2.6,-17.5 z"
                 class="st2"
                 inkscape:connector-curvature="0"
                 style="fill:#c44f7d" />
              <path
                 id="path1147"
                 d="m 242.6,272 c 3.2,-3.2 4.1,-8.1 2.2,-12.3 -8.2,-18.2 -12.8,-38.3 -12.8,-59.5 0,-21.2 4.6,-41.3 12.8,-59.5 1.9,-4.2 1,-9 -2.2,-12.3 L 218,103.9 c -5.2,-5.2 -14,-3.9 -17.5,2.6 -14.9,28 -23.4,59.9 -23.4,93.7 0,33.8 8.5,65.7 23.4,93.7 3.5,6.5 12.3,7.8 17.5,2.6 z"
                 class="st1"
                 inkscape:connector-curvature="0"
                 style="fill:#264959" />
            </g>
            <g
               id="g1167">
              <path
                 id="path1151"
                 d="m 100.4,530.8 c -8.7,-8 -21.1,-12.9 -36.8,-14.4 -12.7,-1.3 -21.5,-3.9 -26.1,-7.8 -4.4,-3.7 -6.6,-8.1 -6.6,-13.6 0,-5.7 2.3,-10 7.1,-13 5.3,-3.3 12.4,-5 21.1,-5 7.1,0 12.9,1.3 17.4,3.9 4.5,2.6 8.3,6.5 11.3,11.4 1.2,2.2 2.9,3.9 5.1,5.2 2.1,1.2 4.5,1.9 7,1.9 2.5,0 4.8,-0.6 6.9,-1.9 3.4,-2.4 5.2,-5.7 5.2,-9.6 0,-2.8 -0.9,-5.7 -2.8,-8.6 -5.4,-8.5 -12.1,-15.2 -19.8,-19.8 v 0 c -7.9,-4.7 -17.6,-7 -28.9,-7 -10.2,0 -19.6,1.6 -27.9,4.8 -8.5,3.3 -15.3,8.1 -20.2,14.4 -5,6.4 -7.6,14.1 -7.6,22.8 0,12.3 4.9,22.8 14.5,31 9.4,8 22.3,12.8 38.3,14.4 10.4,1 18.1,3.8 23,8.3 4.8,4.4 7.1,9.5 7.1,15.7 0,6.3 -2.7,11.1 -8.2,14.8 -5.9,3.9 -13.2,5.9 -21.8,5.9 -7.4,0 -14.2,-1.6 -20.3,-4.7 -5.9,-3 -9.8,-6.6 -11.7,-10.6 -1.1,-2.6 -2.9,-4.7 -5.3,-6.3 -2.4,-1.6 -4.9,-2.3 -7.6,-2.3 -1.1,0 -2,0.1 -2.7,0.3 -3,0.7 -5.4,2 -7.3,3.9 -2,2.1 -3,4.6 -3,7.4 0,1.5 0.4,3.1 1.2,5.1 4,9.5 11.4,17.3 22,23.2 10.4,5.7 22,8.7 34.7,8.7 9.6,0 18.8,-1.7 27.2,-5 8.6,-3.4 15.6,-8.6 20.8,-15.5 5.3,-7 8,-15.5 8,-25.2 0.1,-13.8 -4.4,-24.7 -13.3,-32.8 z"
                 class="st1"
                 inkscape:connector-curvature="0"
                 style="fill:#264959" />
              <path
                 id="path1153"
                 d="m 237.4,491.9 c -2.5,-2.5 -5.8,-3.8 -9.8,-3.8 -3.8,0 -7.1,1.3 -9.7,3.8 -2.6,2.5 -3.9,5.8 -3.9,9.8 v 57.7 c 0,4.3 -1.1,8.1 -3.4,11.5 -2.3,3.5 -5.6,6.3 -9.8,8.3 -4.2,2.1 -9,3.1 -14.2,3.1 -9.1,0 -16.1,-2.5 -21.4,-7.6 -5.2,-5 -7.9,-12.7 -7.9,-22.8 v -50.3 c 0,-3.9 -1.3,-7.1 -3.9,-9.7 -2.6,-2.6 -5.8,-3.9 -9.7,-3.9 -3.9,0 -7.1,1.3 -9.7,3.9 -2.6,2.6 -3.9,5.8 -3.9,9.7 V 552 c 0,11.5 2.3,21.6 6.7,29.8 4.5,8.3 10.8,14.8 18.9,19.2 7.9,4.3 17,6.5 26.9,6.5 7.2,0 14,-1.3 20.4,-3.8 4.3,-1.7 8.2,-3.9 11.8,-6.6 0.6,2.1 1.7,3.9 3.3,5.5 2.6,2.6 5.8,3.9 9.7,3.9 4,0 7.3,-1.3 9.8,-3.9 2.5,-2.6 3.8,-5.8 3.8,-9.7 v -91.2 c -0.2,-4 -1.5,-7.3 -4,-9.8 z"
                 class="st1"
                 inkscape:connector-curvature="0"
                 style="fill:#264959" />
              <path
                 id="path1155"
                 d="m 346.8,547.5 c -6.7,-5.7 -17.5,-10 -33,-13.2 -7,-1.5 -12.4,-2.9 -16,-4.4 -4.1,-1.7 -5.7,-3.1 -6.4,-4.1 -1,-1.3 -1.4,-2.9 -1.4,-5 0,-1.6 0.5,-4 4.3,-6.1 3.5,-1.9 8.2,-2.8 14,-2.8 5.1,0 9.4,0.6 12.9,1.8 3.4,1.1 6.6,3.2 9.7,6 3.4,3.1 7.4,4.7 11.7,4.7 3,0 5.5,-0.8 7.7,-2.4 3.1,-2.5 4.6,-5.5 4.6,-8.8 0,-2.9 -1.1,-5.8 -3.4,-8.5 -4.4,-5.4 -10.4,-9.7 -17.9,-12.8 -7.4,-3 -15.8,-4.5 -25,-4.5 -7.6,0 -14.8,1.2 -21.5,3.7 -6.9,2.5 -12.6,6.3 -16.9,11.3 -4.4,5.2 -6.7,11.6 -6.7,19 0,18.2 14.1,30.1 41.8,35.4 9.6,1.8 16.5,4 20.3,6.6 3.3,2.2 4.9,4.8 4.9,7.9 0,3.2 -1.6,5.7 -4.9,7.7 -3.8,2.3 -9.3,3.4 -16.5,3.4 -5.4,0 -10.6,-1 -15.4,-2.9 -4.7,-1.9 -8.2,-4.2 -10.6,-6.8 -5.5,-5.5 -12,-6.3 -19.1,-1.1 -3.5,2.6 -5.4,6.3 -5.4,10.5 0,3.3 1.2,6.2 3.6,8.6 4.9,4.9 11.8,9 20.4,12 8.5,3 17.6,4.5 27.2,4.5 9.7,0 18.1,-1.6 25.1,-4.7 7.1,-3.2 12.6,-7.6 16.4,-13.2 3.7,-5.6 5.6,-12 5.6,-18.8 0.3,-9.3 -3.2,-17.1 -10.1,-23 z"
                 class="st1"
                 inkscape:connector-curvature="0"
                 style="fill:#264959" />
              <path
                 id="path1157"
                 d="m 437.6,583.6 c -2.3,-2.6 -5.3,-3.9 -8.6,-3.9 h -7 c -3.4,0 -6.2,-1.4 -8.6,-4.4 -2.5,-3.1 -3.8,-7 -3.8,-11.7 v -47.3 h 14.2 c 3.7,0 6.7,-1.1 9.1,-3.3 2.4,-2.2 3.7,-5.1 3.7,-8.5 0,-3.6 -1.2,-6.6 -3.7,-8.9 -2.4,-2.2 -5.4,-3.3 -9.1,-3.3 H 409.6 V 466 c 0,-3.8 -1.3,-7.1 -3.8,-9.6 -2.5,-2.5 -5.7,-3.8 -9.6,-3.8 -3.9,0 -7.1,1.3 -9.6,3.8 -2.5,2.5 -3.8,5.7 -3.8,9.6 v 26.3 h -6.2 c -3.7,0 -6.7,1.1 -9.1,3.3 -2.4,2.3 -3.7,5.2 -3.7,8.9 0,3.3 1.3,6.2 3.7,8.5 2.4,2.2 5.4,3.3 9.1,3.3 h 6.2 v 47.3 c 0,8 1.7,15.3 5.1,21.7 3.4,6.5 8.1,11.7 14.1,15.4 6,3.8 12.7,5.7 20,5.7 h 3.7 c 4.3,0 7.9,-1.2 10.7,-3.6 2.9,-2.5 4.5,-5.9 4.5,-9.8 0,-3.7 -1.1,-6.9 -3.3,-9.4 z"
                 class="st1"
                 inkscape:connector-curvature="0"
                 style="fill:#264959" />
              <path
                 id="path1159"
                 d="m 614.7,457.6 c -3.3,-3.3 -7.2,-4.9 -11.7,-4.9 -4.5,0 -8.5,1.7 -11.7,4.9 -3.3,3.3 -4.9,7.2 -4.9,11.7 0,4.5 1.7,8.5 4.9,11.7 3.3,3.3 7.2,4.9 11.7,4.9 4.5,0 8.5,-1.7 11.7,-4.9 3.3,-3.3 4.9,-7.2 4.9,-11.7 0,-4.5 -1.7,-8.4 -4.9,-11.7 z"
                 class="st1"
                 inkscape:connector-curvature="0"
                 style="fill:#264959" />
              <path
                 id="path1161"
                 d="m 602.9,497.9 c -3.8,0 -7.1,1.3 -9.7,3.8 -2.6,2.5 -3.9,5.8 -3.9,9.8 v 81.4 c 0,3.9 1.3,7.1 3.9,9.7 2.6,2.6 5.8,3.9 9.7,3.9 4,0 7.3,-1.3 9.8,-3.9 2.5,-2.6 3.7,-5.8 3.7,-9.7 v -81.4 c 0,-4 -1.3,-7.3 -3.8,-9.8 -2.4,-2.5 -5.7,-3.8 -9.7,-3.8 z"
                 class="st1"
                 inkscape:connector-curvature="0"
                 style="fill:#264959" />
              <path
                 id="path1163"
                 d="m 748.1,513 c -4.5,-8.4 -10.8,-14.8 -18.9,-19.2 -7.9,-4.3 -17,-6.5 -26.9,-6.5 -7.2,0 -14,1.3 -20.4,3.8 -4.3,1.7 -8.2,3.9 -11.7,6.6 -0.6,-2.1 -1.7,-4 -3.2,-5.6 -2.5,-2.5 -5.8,-3.8 -9.8,-3.8 -3.8,0 -7.1,1.3 -9.7,3.8 -2.6,2.5 -3.9,5.8 -3.9,9.8 v 91.2 c 0,3.9 1.3,7.1 3.9,9.7 2.6,2.6 5.8,3.9 9.7,3.9 4,0 7.3,-1.3 9.8,-3.9 2.5,-2.6 3.8,-5.8 3.8,-9.7 v -57.7 c 0,-4.3 1.1,-8.1 3.4,-11.5 2.3,-3.5 5.6,-6.3 9.8,-8.3 4.2,-2.1 9,-3.2 14.2,-3.2 9.1,0 16.1,2.5 21.4,7.6 5.3,5 7.9,12.7 7.9,22.8 v 50.3 c 0,3.9 1.3,7.1 3.9,9.7 2.6,2.6 5.8,3.9 9.7,3.9 3.9,0 7.1,-1.3 9.7,-3.9 2.6,-2.6 3.9,-5.8 3.9,-9.7 v -50.3 c 0.1,-11.5 -2.1,-21.6 -6.6,-29.8 z"
                 class="st1"
                 inkscape:connector-curvature="0"
                 style="fill:#264959" />
              <path
                 id="path1165"
                 d="m 554.4,488.3 c -3.8,0 -7.1,1.3 -9.7,3.8 -1.5,1.4 -2.6,3.2 -3.2,5.1 -0.9,-0.6 -1.9,-1.2 -2.8,-1.8 v 0 c -9,-5.2 -19.1,-7.9 -30.1,-7.9 -11,0 -21.2,2.7 -30.3,7.9 -9.1,5.2 -16.4,12.5 -21.5,21.6 -5.2,9.1 -7.8,19.4 -7.8,30.5 0,11.1 2.4,21.3 7.2,30.4 4.8,9.1 11.5,16.4 20,21.6 8.4,5.2 18,7.8 28.3,7.8 8.3,0 16.2,-1.8 23.5,-5.2 4.7,-2.3 9,-5.2 12.9,-8.6 0.1,3.7 1.4,6.8 3.9,9.3 2.6,2.6 5.8,3.9 9.7,3.9 3.9,0 7.1,-1.3 9.7,-3.9 2.6,-2.6 3.9,-5.8 3.9,-9.7 v -35.3 -10.3 -45.6 c 0,-4 -1.3,-7.3 -3.8,-9.8 -2.6,-2.6 -5.9,-3.8 -9.9,-3.8 z m -17.1,77.2 c -2.8,5.3 -6.8,9.5 -11.8,12.5 v 0 c -5,3 -10.7,4.6 -16.9,4.6 -6.2,0 -11.9,-1.5 -16.9,-4.6 -5,-3 -9,-7.2 -12,-12.5 -2.9,-5.3 -4.4,-11.3 -4.4,-18 0,-6.7 1.5,-12.7 4.4,-18.1 2.9,-5.3 6.9,-9.6 11.9,-12.6 5,-3 10.7,-4.6 16.9,-4.6 6.2,0 11.9,1.5 16.9,4.6 5,3 9,7.3 11.8,12.6 2.9,5.4 4.3,11.5 4.3,18.1 0.1,6.6 -1.3,12.7 -4.2,18 z"
                 class="st1"
                 inkscape:connector-curvature="0"
                 style="fill:#264959" />
            </g>
            <text
               xml:space="preserve"
               style="font-style:normal;font-variant:normal;font-weight:bold;font-stretch:normal;font-size:121.80651855px;line-height:1.25;font-family:Comfortaa;-inkscape-font-specification:'Comfortaa Bold';text-align:start;text-anchor:start;opacity:1;fill:#c44f7d;fill-opacity:1;fill-rule:nonzero;stroke:none;stroke-width:16.027174;stroke-linecap:square;stroke-linejoin:miter;stroke-miterlimit:4;stroke-dasharray:none;stroke-opacity:1;paint-order:markers stroke fill"
               x="40.72031"
               y="724.36157"
               id="text843"><tspan
                 sodipodi:role="line"
                 id="tspan841"
                 x="40.72031"
                 y="724.36157"
                 style="fill:#c44f7d;fill-opacity:1;stroke-width:16.027174">City Name</tspan></text>
          </g>
        </g>
      </g>
    </g>
  </g>
</svg>
