<?xml version="1.0" encoding="UTF-8" standalone="no"?>
<!-- Created with Inkscape (http://www.inkscape.org/) -->

<svg
   xmlns:dc="http://purl.org/dc/elements/1.1/"
   xmlns:cc="http://creativecommons.org/ns#"
   xmlns:rdf="http://www.w3.org/1999/02/22-rdf-syntax-ns#"
   xmlns:svg="http://www.w3.org/2000/svg"
   xmlns="http://www.w3.org/2000/svg"
   xmlns:sodipodi="http://sodipodi.sourceforge.net/DTD/sodipodi-0.dtd"
   xmlns:inkscape="http://www.inkscape.org/namespaces/inkscape"
   width="850.17603"
   height="849.37805"
   viewBox="0 0 224.94242 224.73127"
   version="1.1"
   id="svg8"
   inkscape:version="0.92.3 (2405546, 2018-03-11)"
   sodipodi:docname="vertical_city_black.svg"
   inkscape:export-filename="/home/anxhelo/works/Sustain/PNG/vertical_city_black.png"
   inkscape:export-xdpi="96"
   inkscape:export-ydpi="96">
  <defs
     id="defs2" />
  <sodipodi:namedview
     id="base"
     pagecolor="#ffffff"
     bordercolor="#666666"
     borderopacity="1.0"
     inkscape:pageopacity="0"
     inkscape:pageshadow="2"
     inkscape:zoom="0.37099919"
     inkscape:cx="244.03487"
     inkscape:cy="411.0795"
     inkscape:document-units="px"
     inkscape:current-layer="g1173"
     inkscape:document-rotation="0"
     showgrid="false"
     borderlayer="true"
     inkscape:showpageshadow="true"
     units="px"
     inkscape:pagecheckerboard="false"
     showguides="false"
     inkscape:window-width="1366"
     inkscape:window-height="715"
     inkscape:window-x="0"
     inkscape:window-y="0"
     inkscape:window-maximized="1"
     objecttolerance="10"
     guidetolerance="10"
     inkscape:snap-tangential="true"
     inkscape:snap-perpendicular="true"
     fit-margin-top="0"
     fit-margin-left="0"
     fit-margin-right="0"
     fit-margin-bottom="0">
    <inkscape:grid
       type="xygrid"
       id="grid10"
       dotted="false"
       originx="95.897278"
       originy="-115.55493" />
  </sodipodi:namedview>
  <metadata
     id="metadata5">
    <rdf:RDF>
      <cc:Work
         rdf:about="">
        <dc:format>image/svg+xml</dc:format>
        <dc:type
           rdf:resource="http://purl.org/dc/dcmitype/StillImage" />
        <dc:title></dc:title>
        <cc:license
           rdf:resource="" />
      </cc:Work>
    </rdf:RDF>
  </metadata>
  <g
     inkscape:label="Layer 1"
     inkscape:groupmode="layer"
     id="layer1"
     transform="translate(95.897253,43.286257)">
    <g
       id="g1038"
       transform="matrix(0.26458334,0,0,0.26458334,-74.87789,104.28012)">
      <g
         id="g1263"
         transform="matrix(1.1739688,0,0,1.1739688,146.63956,-481.31905)">
        <g
           id="g948"
           transform="matrix(0.72859978,0,0,0.72859978,-273.69328,121.62361)">
          <g
             id="g1173"
             transform="matrix(1.3166549,0,0,1.3166549,111.59106,-256.26185)">
            <path
               id="path1139"
               d="m 479.4,126.7 c -4,-0.5 -8,-0.7 -12.1,-0.7 -4.7,0 -9.3,0.3 -13.8,0.9 -32.8,4.4 -60.7,24.3 -76.2,52.1 -2.7,4.8 -4.9,9.8 -6.8,15.1 -16.1,-22.2 -40.9,-37.6 -69.4,-41.4 -4.5,-0.6 -9.1,-0.9 -13.8,-0.9 -4.1,0 -8.1,0.3 -12.1,0.7 -0.5,4 -0.7,8 -0.7,12.1 0,4.7 0.3,9.3 0.9,13.8 6.1,45.7 42.3,81.9 88.1,88.1 0.3,0 0.6,0.1 0.9,0.1 v 90.7 h 25.7 V 240.8 c 0.3,0 0.6,-0.1 0.9,-0.1 45.7,-6.1 81.9,-42.3 88.1,-88.1 0.6,-4.5 0.9,-9.1 0.9,-13.8 0.2,-4 -0.1,-8.1 -0.6,-12.1 z"
               class="st2"
               inkscape:connector-curvature="0"
               style="fill:#000000;fill-opacity:1" />
            <g
               id="g1149"
               style="fill:#000000;fill-opacity:1">
              <path
                 id="path1141"
                 d="m 296.4,69.9 c 3.4,3.4 8.7,4.2 13,1.9 20.3,-10.8 43.5,-16.9 68,-16.9 21.2,0 41.3,4.6 59.5,12.8 4.2,1.9 9,1 12.3,-2.2 l 24.6,-24.6 c 5.2,-5.2 3.9,-14 -2.6,-17.5 C 443.1,8.5 411.2,0 377.4,0 339.8,0 304.6,10.5 274.5,28.6 c -6.1,3.7 -7.2,12.1 -2.1,17.2 z"
                 class="st1"
                 inkscape:connector-curvature="0"
                 style="fill:#000000;fill-opacity:1" />
              <path
                 id="path1143"
                 d="m 531.9,95.2 -24.1,24.1 c -3.4,3.4 -4.2,8.7 -1.9,13 10.8,20.3 16.9,43.5 16.9,68 0,24.5 -6.1,47.7 -16.9,68 -2.3,4.3 -1.5,9.5 1.9,13 l 24.1,24.1 c 5.1,5.1 13.5,4 17.2,-2.1 18.1,-30.1 28.6,-65.3 28.6,-102.9 0,-37.6 -10.5,-72.8 -28.6,-102.9 -3.7,-6.3 -12.2,-7.4 -17.2,-2.3 z"
                 class="st1"
                 inkscape:connector-curvature="0"
                 style="fill:#000000;fill-opacity:1" />
              <path
                 id="path1145"
                 d="m 449.1,335.1 c -3.2,-3.2 -8.1,-4.1 -12.3,-2.2 -18.2,8.2 -38.3,12.8 -59.5,12.8 -24.6,0 -47.7,-6.1 -68,-16.9 -4.3,-2.3 -9.5,-1.5 -13,1.9 l -24.1,24.1 c -5.1,5.1 -4,13.5 2.1,17.2 30.1,18.1 65.3,28.6 102.9,28.6 33.8,0 65.7,-8.5 93.7,-23.4 6.5,-3.5 7.8,-12.3 2.6,-17.5 z"
                 class="st2"
                 inkscape:connector-curvature="0"
                 style="fill:#000000;fill-opacity:1" />
              <path
                 id="path1147"
                 d="m 242.6,272 c 3.2,-3.2 4.1,-8.1 2.2,-12.3 -8.2,-18.2 -12.8,-38.3 -12.8,-59.5 0,-21.2 4.6,-41.3 12.8,-59.5 1.9,-4.2 1,-9 -2.2,-12.3 L 218,103.9 c -5.2,-5.2 -14,-3.9 -17.5,2.6 -14.9,28 -23.4,59.9 -23.4,93.7 0,33.8 8.5,65.7 23.4,93.7 3.5,6.5 12.3,7.8 17.5,2.6 z"
                 class="st1"
                 inkscape:connector-curvature="0"
                 style="fill:#000000;fill-opacity:1" />
            </g>
            <g
               id="g1167"
               style="fill:#000000;fill-opacity:1">
              <path
                 id="path1151"
                 d="m 100.4,530.8 c -8.7,-8 -21.1,-12.9 -36.8,-14.4 -12.7,-1.3 -21.5,-3.9 -26.1,-7.8 -4.4,-3.7 -6.6,-8.1 -6.6,-13.6 0,-5.7 2.3,-10 7.1,-13 5.3,-3.3 12.4,-5 21.1,-5 7.1,0 12.9,1.3 17.4,3.9 4.5,2.6 8.3,6.5 11.3,11.4 1.2,2.2 2.9,3.9 5.1,5.2 2.1,1.2 4.5,1.9 7,1.9 2.5,0 4.8,-0.6 6.9,-1.9 3.4,-2.4 5.2,-5.7 5.2,-9.6 0,-2.8 -0.9,-5.7 -2.8,-8.6 -5.4,-8.5 -12.1,-15.2 -19.8,-19.8 v 0 c -7.9,-4.7 -17.6,-7 -28.9,-7 -10.2,0 -19.6,1.6 -27.9,4.8 -8.5,3.3 -15.3,8.1 -20.2,14.4 -5,6.4 -7.6,14.1 -7.6,22.8 0,12.3 4.9,22.8 14.5,31 9.4,8 22.3,12.8 38.3,14.4 10.4,1 18.1,3.8 23,8.3 4.8,4.4 7.1,9.5 7.1,15.7 0,6.3 -2.7,11.1 -8.2,14.8 -5.9,3.9 -13.2,5.9 -21.8,5.9 -7.4,0 -14.2,-1.6 -20.3,-4.7 -5.9,-3 -9.8,-6.6 -11.7,-10.6 -1.1,-2.6 -2.9,-4.7 -5.3,-6.3 -2.4,-1.6 -4.9,-2.3 -7.6,-2.3 -1.1,0 -2,0.1 -2.7,0.3 -3,0.7 -5.4,2 -7.3,3.9 -2,2.1 -3,4.6 -3,7.4 0,1.5 0.4,3.1 1.2,5.1 4,9.5 11.4,17.3 22,23.2 10.4,5.7 22,8.7 34.7,8.7 9.6,0 18.8,-1.7 27.2,-5 8.6,-3.4 15.6,-8.6 20.8,-15.5 5.3,-7 8,-15.5 8,-25.2 0.1,-13.8 -4.4,-24.7 -13.3,-32.8 z"
                 class="st1"
                 inkscape:connector-curvature="0"
                 style="fill:#000000;fill-opacity:1" />
              <path
                 id="path1153"
                 d="m 237.4,491.9 c -2.5,-2.5 -5.8,-3.8 -9.8,-3.8 -3.8,0 -7.1,1.3 -9.7,3.8 -2.6,2.5 -3.9,5.8 -3.9,9.8 v 57.7 c 0,4.3 -1.1,8.1 -3.4,11.5 -2.3,3.5 -5.6,6.3 -9.8,8.3 -4.2,2.1 -9,3.1 -14.2,3.1 -9.1,0 -16.1,-2.5 -21.4,-7.6 -5.2,-5 -7.9,-12.7 -7.9,-22.8 v -50.3 c 0,-3.9 -1.3,-7.1 -3.9,-9.7 -2.6,-2.6 -5.8,-3.9 -9.7,-3.9 -3.9,0 -7.1,1.3 -9.7,3.9 -2.6,2.6 -3.9,5.8 -3.9,9.7 V 552 c 0,11.5 2.3,21.6 6.7,29.8 4.5,8.3 10.8,14.8 18.9,19.2 7.9,4.3 17,6.5 26.9,6.5 7.2,0 14,-1.3 20.4,-3.8 4.3,-1.7 8.2,-3.9 11.8,-6.6 0.6,2.1 1.7,3.9 3.3,5.5 2.6,2.6 5.8,3.9 9.7,3.9 4,0 7.3,-1.3 9.8,-3.9 2.5,-2.6 3.8,-5.8 3.8,-9.7 v -91.2 c -0.2,-4 -1.5,-7.3 -4,-9.8 z"
                 class="st1"
                 inkscape:connector-curvature="0"
                 style="fill:#000000;fill-opacity:1" />
              <path
                 id="path1155"
                 d="m 346.8,547.5 c -6.7,-5.7 -17.5,-10 -33,-13.2 -7,-1.5 -12.4,-2.9 -16,-4.4 -4.1,-1.7 -5.7,-3.1 -6.4,-4.1 -1,-1.3 -1.4,-2.9 -1.4,-5 0,-1.6 0.5,-4 4.3,-6.1 3.5,-1.9 8.2,-2.8 14,-2.8 5.1,0 9.4,0.6 12.9,1.8 3.4,1.1 6.6,3.2 9.7,6 3.4,3.1 7.4,4.7 11.7,4.7 3,0 5.5,-0.8 7.7,-2.4 3.1,-2.5 4.6,-5.5 4.6,-8.8 0,-2.9 -1.1,-5.8 -3.4,-8.5 -4.4,-5.4 -10.4,-9.7 -17.9,-12.8 -7.4,-3 -15.8,-4.5 -25,-4.5 -7.6,0 -14.8,1.2 -21.5,3.7 -6.9,2.5 -12.6,6.3 -16.9,11.3 -4.4,5.2 -6.7,11.6 -6.7,19 0,18.2 14.1,30.1 41.8,35.4 9.6,1.8 16.5,4 20.3,6.6 3.3,2.2 4.9,4.8 4.9,7.9 0,3.2 -1.6,5.7 -4.9,7.7 -3.8,2.3 -9.3,3.4 -16.5,3.4 -5.4,0 -10.6,-1 -15.4,-2.9 -4.7,-1.9 -8.2,-4.2 -10.6,-6.8 -5.5,-5.5 -12,-6.3 -19.1,-1.1 -3.5,2.6 -5.4,6.3 -5.4,10.5 0,3.3 1.2,6.2 3.6,8.6 4.9,4.9 11.8,9 20.4,12 8.5,3 17.6,4.5 27.2,4.5 9.7,0 18.1,-1.6 25.1,-4.7 7.1,-3.2 12.6,-7.6 16.4,-13.2 3.7,-5.6 5.6,-12 5.6,-18.8 0.3,-9.3 -3.2,-17.1 -10.1,-23 z"
                 class="st1"
                 inkscape:connector-curvature="0"
                 style="fill:#000000;fill-opacity:1" />
              <path
                 id="path1157"
                 d="m 437.6,583.6 c -2.3,-2.6 -5.3,-3.9 -8.6,-3.9 h -7 c -3.4,0 -6.2,-1.4 -8.6,-4.4 -2.5,-3.1 -3.8,-7 -3.8,-11.7 v -47.3 h 14.2 c 3.7,0 6.7,-1.1 9.1,-3.3 2.4,-2.2 3.7,-5.1 3.7,-8.5 0,-3.6 -1.2,-6.6 -3.7,-8.9 -2.4,-2.2 -5.4,-3.3 -9.1,-3.3 H 409.6 V 466 c 0,-3.8 -1.3,-7.1 -3.8,-9.6 -2.5,-2.5 -5.7,-3.8 -9.6,-3.8 -3.9,0 -7.1,1.3 -9.6,3.8 -2.5,2.5 -3.8,5.7 -3.8,9.6 v 26.3 h -6.2 c -3.7,0 -6.7,1.1 -9.1,3.3 -2.4,2.3 -3.7,5.2 -3.7,8.9 0,3.3 1.3,6.2 3.7,8.5 2.4,2.2 5.4,3.3 9.1,3.3 h 6.2 v 47.3 c 0,8 1.7,15.3 5.1,21.7 3.4,6.5 8.1,11.7 14.1,15.4 6,3.8 12.7,5.7 20,5.7 h 3.7 c 4.3,0 7.9,-1.2 10.7,-3.6 2.9,-2.5 4.5,-5.9 4.5,-9.8 0,-3.7 -1.1,-6.9 -3.3,-9.4 z"
                 class="st1"
                 inkscape:connector-curvature="0"
                 style="fill:#000000;fill-opacity:1" />
              <path
                 id="path1159"
                 d="m 614.7,457.6 c -3.3,-3.3 -7.2,-4.9 -11.7,-4.9 -4.5,0 -8.5,1.7 -11.7,4.9 -3.3,3.3 -4.9,7.2 -4.9,11.7 0,4.5 1.7,8.5 4.9,11.7 3.3,3.3 7.2,4.9 11.7,4.9 4.5,0 8.5,-1.7 11.7,-4.9 3.3,-3.3 4.9,-7.2 4.9,-11.7 0,-4.5 -1.7,-8.4 -4.9,-11.7 z"
                 class="st1"
                 inkscape:connector-curvature="0"
                 style="fill:#000000;fill-opacity:1" />
              <path
                 id="path1161"
                 d="m 602.9,497.9 c -3.8,0 -7.1,1.3 -9.7,3.8 -2.6,2.5 -3.9,5.8 -3.9,9.8 v 81.4 c 0,3.9 1.3,7.1 3.9,9.7 2.6,2.6 5.8,3.9 9.7,3.9 4,0 7.3,-1.3 9.8,-3.9 2.5,-2.6 3.7,-5.8 3.7,-9.7 v -81.4 c 0,-4 -1.3,-7.3 -3.8,-9.8 -2.4,-2.5 -5.7,-3.8 -9.7,-3.8 z"
                 class="st1"
                 inkscape:connector-curvature="0"
                 style="fill:#000000;fill-opacity:1" />
              <path
                 id="path1163"
                 d="m 748.1,513 c -4.5,-8.4 -10.8,-14.8 -18.9,-19.2 -7.9,-4.3 -17,-6.5 -26.9,-6.5 -7.2,0 -14,1.3 -20.4,3.8 -4.3,1.7 -8.2,3.9 -11.7,6.6 -0.6,-2.1 -1.7,-4 -3.2,-5.6 -2.5,-2.5 -5.8,-3.8 -9.8,-3.8 -3.8,0 -7.1,1.3 -9.7,3.8 -2.6,2.5 -3.9,5.8 -3.9,9.8 v 91.2 c 0,3.9 1.3,7.1 3.9,9.7 2.6,2.6 5.8,3.9 9.7,3.9 4,0 7.3,-1.3 9.8,-3.9 2.5,-2.6 3.8,-5.8 3.8,-9.7 v -57.7 c 0,-4.3 1.1,-8.1 3.4,-11.5 2.3,-3.5 5.6,-6.3 9.8,-8.3 4.2,-2.1 9,-3.2 14.2,-3.2 9.1,0 16.1,2.5 21.4,7.6 5.3,5 7.9,12.7 7.9,22.8 v 50.3 c 0,3.9 1.3,7.1 3.9,9.7 2.6,2.6 5.8,3.9 9.7,3.9 3.9,0 7.1,-1.3 9.7,-3.9 2.6,-2.6 3.9,-5.8 3.9,-9.7 v -50.3 c 0.1,-11.5 -2.1,-21.6 -6.6,-29.8 z"
                 class="st1"
                 inkscape:connector-curvature="0"
                 style="fill:#000000;fill-opacity:1" />
              <path
                 id="path1165"
                 d="m 554.4,488.3 c -3.8,0 -7.1,1.3 -9.7,3.8 -1.5,1.4 -2.6,3.2 -3.2,5.1 -0.9,-0.6 -1.9,-1.2 -2.8,-1.8 v 0 c -9,-5.2 -19.1,-7.9 -30.1,-7.9 -11,0 -21.2,2.7 -30.3,7.9 -9.1,5.2 -16.4,12.5 -21.5,21.6 -5.2,9.1 -7.8,19.4 -7.8,30.5 0,11.1 2.4,21.3 7.2,30.4 4.8,9.1 11.5,16.4 20,21.6 8.4,5.2 18,7.8 28.3,7.8 8.3,0 16.2,-1.8 23.5,-5.2 4.7,-2.3 9,-5.2 12.9,-8.6 0.1,3.7 1.4,6.8 3.9,9.3 2.6,2.6 5.8,3.9 9.7,3.9 3.9,0 7.1,-1.3 9.7,-3.9 2.6,-2.6 3.9,-5.8 3.9,-9.7 v -35.3 -10.3 -45.6 c 0,-4 -1.3,-7.3 -3.8,-9.8 -2.6,-2.6 -5.9,-3.8 -9.9,-3.8 z m -17.1,77.2 c -2.8,5.3 -6.8,9.5 -11.8,12.5 v 0 c -5,3 -10.7,4.6 -16.9,4.6 -6.2,0 -11.9,-1.5 -16.9,-4.6 -5,-3 -9,-7.2 -12,-12.5 -2.9,-5.3 -4.4,-11.3 -4.4,-18 0,-6.7 1.5,-12.7 4.4,-18.1 2.9,-5.3 6.9,-9.6 11.9,-12.6 5,-3 10.7,-4.6 16.9,-4.6 6.2,0 11.9,1.5 16.9,4.6 5,3 9,7.3 11.8,12.6 2.9,5.4 4.3,11.5 4.3,18.1 0.1,6.6 -1.3,12.7 -4.2,18 z"
                 class="st1"
                 inkscape:connector-curvature="0"
                 style="fill:#000000;fill-opacity:1" />
            </g>
            <g
               aria-label="City Name"
               transform="translate(42.8331,725.7789)"
               style="font-size:118.39920044px;font-family:Comfortaa-Bold;letter-spacing:2;fill:#000000;fill-opacity:1"
               id="text1171">
              <path
                 d="m 53.27964,1.183992 q -12.668714,0 -23.206243,-6.2751576 Q 19.654267,-11.366323 13.615908,-22.25905 7.5775488,-33.151776 7.5775488,-46.294087 q 0,-13.023912 6.0383592,-23.79824 6.038359,-10.892726 16.457489,-17.167884 10.537529,-6.393557 23.206243,-6.393557 8.998339,0 15.510295,2.367984 6.630356,2.367984 13.37911,7.814348 1.420791,1.065592 1.894387,2.249584 0.473597,1.065593 0.473597,2.604783 0,2.367984 -1.775988,3.907174 -1.657589,1.539189 -3.907174,1.539189 -2.249584,0 -4.143972,-1.539189 -4.854367,-4.143972 -9.471936,-5.91996 -4.617568,-1.894388 -11.958319,-1.894388 -9.235137,0 -17.049485,4.854368 -7.695948,4.854367 -12.313517,13.26071 -4.499169,8.287944 -4.499169,18.115078 0,9.945532 4.499169,18.233476 4.617569,8.287945 12.313517,13.142312 7.814348,4.854367 17.049485,4.854367 11.366323,0 21.785453,-7.814347 2.012786,-1.420791 3.907174,-1.420791 2.249585,0 3.670375,1.657589 1.53919,1.53919 1.53919,4.143972 0,2.486383 -1.894388,4.3807706 Q 69.500331,1.183992 53.27964,1.183992 Z"
                 style="font-style:normal;font-variant:normal;font-weight:bold;font-stretch:normal;font-family:Comfortaa;-inkscape-font-specification:'Comfortaa Bold';fill:#000000;fill-opacity:1"
                 id="path3375"
                 inkscape:connector-curvature="0" />
              <path
                 d="m 111.91516,0 q -2.60478,0 -4.38077,-1.6575888 -1.65759,-1.775988 -1.65759,-4.3807704 V -58.726003 q 0,-2.723182 1.65759,-4.380771 1.77599,-1.657589 4.38077,-1.657589 2.72318,0 4.38077,1.657589 1.65759,1.657589 1.65759,4.380771 v 52.6876438 q 0,2.6047824 -1.65759,4.3807704 Q 114.63834,0 111.91516,0 Z m 0,-75.301891 q -3.19678,0 -5.56476,-2.249585 -2.24959,-2.367984 -2.24959,-5.564763 0,-3.196778 2.24959,-5.446363 2.36798,-2.367984 5.56476,-2.367984 3.19678,0 5.44636,2.367984 2.36799,2.249585 2.36799,5.446363 0,3.196779 -2.36799,5.564763 -2.24958,2.249585 -5.44636,2.249585 z"
                 style="font-style:normal;font-variant:normal;font-weight:bold;font-stretch:normal;font-family:Comfortaa;-inkscape-font-specification:'Comfortaa Bold';fill:#000000;fill-opacity:1"
                 id="path3377"
                 inkscape:connector-curvature="0" />
              <path
                 d="m 170.12333,-11.83992 q 2.13118,0 3.55197,1.657589 1.53919,1.6575886 1.53919,4.262371 0,2.6047824 -2.01278,4.2623712 Q 171.30732,0 168.22894,0 h -2.13118 q -5.80157,0 -10.65593,-2.95998 -4.73597,-3.0783792 -7.45915,-8.287944 -2.72318,-5.209565 -2.72318,-11.721521 v -29.244602 h -5.44637 q -2.48638,0 -4.02557,-1.420791 -1.53919,-1.42079 -1.53919,-3.551976 0,-2.367984 1.53919,-3.788774 1.53919,-1.420791 4.02557,-1.420791 h 5.44637 v -17.049484 q 0,-2.604783 1.65758,-4.262372 1.65759,-1.657589 4.26238,-1.657589 2.60478,0 4.26237,1.657589 1.65759,1.657589 1.65759,4.262372 v 17.049484 h 10.06393 q 2.48638,0 4.02557,1.420791 1.53919,1.42079 1.53919,3.788774 0,2.131186 -1.53919,3.551976 -1.53919,1.420791 -4.02557,1.420791 h -10.06393 v 29.244602 q 0,4.735968 2.60478,7.932747 2.60478,3.196778 6.39356,3.196778 z"
                 style="font-style:normal;font-variant:normal;font-weight:bold;font-stretch:normal;font-family:Comfortaa;-inkscape-font-specification:'Comfortaa Bold';fill:#000000;fill-opacity:1"
                 id="path3379"
                 inkscape:connector-curvature="0" />
              <path
                 d="m 241.43311,-64.172367 q 3.67037,1.420791 3.67037,4.617569 0,1.183992 -0.71039,2.841581 l -36.23016,81.45865 q -1.42079,3.670375 -4.61756,3.670375 -1.184,0 -2.84159,-0.710395 -3.55197,-1.53919 -3.55197,-4.617569 0,-1.42079 0.71039,-2.841581 L 209.70212,-6.3935568 183.0623,-56.950015 q -0.59199,-1.065593 -0.59199,-2.486384 0,-1.539189 0.94719,-2.84158 0.9472,-1.302392 2.48638,-2.012787 1.0656,-0.473597 2.36799,-0.473597 3.31518,0 4.97277,3.315178 l 21.66705,43.097309 19.06227,-42.97891 q 1.53919,-3.433577 4.61757,-3.433577 1.53919,0 2.84158,0.591996 z"
                 style="font-style:normal;font-variant:normal;font-weight:bold;font-stretch:normal;font-family:Comfortaa;-inkscape-font-specification:'Comfortaa Bold';fill:#000000;fill-opacity:1"
                 id="path3381"
                 inkscape:connector-curvature="0" />
              <path
                 d="m 301.67644,0 q -2.60479,0 -4.38077,-1.6575888 -1.65759,-1.775988 -1.65759,-4.4991696 V -86.313017 q 0,-2.723182 1.65759,-4.380771 1.77598,-1.775988 4.38077,-1.775988 1.30239,0 2.60478,0.710396 1.30239,0.591996 2.13118,1.539189 l 51.62206,68.671537 v -64.764363 q 0,-2.723182 1.77598,-4.380771 1.77599,-1.775988 4.38077,-1.775988 2.60479,0 4.26238,1.775988 1.77598,1.657589 1.77598,4.380771 v 80.1562586 q 0,2.7231816 -1.77598,4.4991696 Q 366.796,0 364.19121,0 q -1.30239,0 -2.72318,-0.4735968 -1.30239,-0.591996 -2.01278,-1.6575888 L 307.83319,-70.802722 v 64.6459636 q 0,2.6047824 -1.77598,4.3807704 Q 304.39962,0 301.67644,0 Z"
                 style="font-style:normal;font-variant:normal;font-weight:bold;font-stretch:normal;font-family:Comfortaa;-inkscape-font-specification:'Comfortaa Bold';fill:#000000;fill-opacity:1"
                 id="path3383"
                 inkscape:connector-curvature="0" />
              <path
                 d="m 424.09767,-65.237959 q 9.11673,0 16.45748,4.38077 7.45915,4.262371 11.72152,11.83992 4.38078,7.45915 4.38078,16.694287 V -5.91996 q 0,2.6047824 -1.77599,4.3807704 -1.65759,1.6575888 -4.26237,1.6575888 -2.60479,0 -4.38077,-1.6575888 -1.65759,-1.775988 -1.65759,-4.3807704 v -4.38077 q -4.14398,5.0911652 -10.06394,7.932746 -5.91996,2.8415808 -12.78711,2.8415808 -8.52474,0 -15.51029,-4.2623712 -6.86716,-4.2623712 -10.89273,-11.7215206 -3.90717,-7.577549 -3.90717,-16.812687 0,-9.235137 4.26237,-16.694287 4.26237,-7.577549 11.72152,-11.83992 7.57755,-4.38077 16.69429,-4.38077 z m 0,55.055628 q 5.91996,0 10.65592,-2.841581 4.85437,-2.95998 7.57755,-7.932746 2.72318,-5.091166 2.72318,-11.366324 0,-6.275157 -2.72318,-11.366323 -2.72318,-5.091166 -7.57755,-7.932746 -4.73596,-2.95998 -10.65592,-2.95998 -5.91996,0 -10.77433,2.95998 -4.73597,2.84158 -7.57755,7.932746 -2.72318,5.091166 -2.72318,11.366323 0,6.275158 2.72318,11.366324 2.84158,4.972766 7.57755,7.932746 4.85437,2.841581 10.77433,2.841581 z"
                 style="font-style:normal;font-variant:normal;font-weight:bold;font-stretch:normal;font-family:Comfortaa;-inkscape-font-specification:'Comfortaa Bold';fill:#000000;fill-opacity:1"
                 id="path3385"
                 inkscape:connector-curvature="0" />
              <path
                 d="m 544.82617,-65.356359 q 10.30073,0 16.57588,6.748755 6.39356,6.748754 6.39356,18.825473 V -5.91996 q 0,2.6047824 -1.65759,4.3807704 -1.65759,1.6575888 -4.38077,1.6575888 -2.60478,0 -4.38077,-1.6575888 -1.65759,-1.775988 -1.65759,-4.3807704 v -33.862171 q 0,-7.222352 -3.67037,-10.892727 -3.55198,-3.788774 -9.59034,-3.788774 -6.15676,0 -10.18233,4.262371 -3.90717,4.262371 -3.90717,10.892726 V -5.91996 q 0,2.6047824 -1.65759,4.3807704 -1.65759,1.6575888 -4.38077,1.6575888 -2.60478,0 -4.38077,-1.6575888 -1.65759,-1.775988 -1.65759,-4.3807704 v -33.862171 q 0,-7.222352 -3.67038,-10.892727 -3.55197,-3.788774 -9.59033,-3.788774 -6.27516,0 -10.30073,4.262371 -3.90718,4.262371 -3.90718,10.892726 V -5.91996 q 0,2.6047824 -1.65758,4.3807704 -1.65759,1.6575888 -4.38077,1.6575888 -2.60479,0 -4.38077,-1.6575888 -1.65759,-1.775988 -1.65759,-4.3807704 v -52.687644 q 0,-2.723182 1.65759,-4.380771 1.77598,-1.657588 4.38077,-1.657588 2.60478,0 4.26237,1.657588 1.65759,1.53919 1.77598,4.143972 3.07838,-3.078379 7.34076,-4.735968 4.26237,-1.775988 9.23513,-1.775988 6.03836,0 10.77433,2.486384 4.85437,2.367984 7.93275,6.867153 3.55197,-4.38077 8.87994,-6.867153 5.32796,-2.486384 11.83992,-2.486384 z"
                 style="font-style:normal;font-variant:normal;font-weight:bold;font-stretch:normal;font-family:Comfortaa;-inkscape-font-specification:'Comfortaa Bold';fill:#000000;fill-opacity:1"
                 id="path3387"
                 inkscape:connector-curvature="0" />
              <path
                 d="m 647.8799,-33.388575 q 0,2.249585 -1.53919,3.788775 -1.53919,1.42079 -3.90717,1.42079 h -44.9917 q 1.30239,8.287944 7.45915,13.37911 6.27516,5.0911656 15.2735,5.0911656 3.55197,0 7.34075,-1.3023916 3.90717,-1.302391 6.39356,-3.196778 1.65758,-1.302391 3.90717,-1.302391 2.24958,0 3.55198,1.183992 2.13118,1.775988 2.13118,4.025573 0,2.1311852 -1.89439,3.5519756 -4.02557,3.1967784 -10.06393,5.2095648 -5.91996,2.0127864 -11.36632,2.0127864 -9.70874,0 -17.40468,-4.143972 -7.69595,-4.2623712 -12.07672,-11.7215208 -4.26237,-7.45915 -4.26237,-16.931086 0,-9.471936 4.02557,-16.931085 4.14397,-7.577549 11.36632,-11.721521 7.34075,-4.262371 16.57589,-4.262371 9.11674,0 15.74709,4.025572 6.63036,4.025573 10.18234,11.247924 3.55197,7.222352 3.55197,16.575888 z m -29.4814,-21.667053 q -8.64314,0 -14.0895,4.735968 -5.32797,4.735968 -6.74876,12.668714 h 39.42693 q -1.06559,-7.932746 -5.91996,-12.668714 -4.85436,-4.735968 -12.66871,-4.735968 z"
                 style="font-style:normal;font-variant:normal;font-weight:bold;font-stretch:normal;font-family:Comfortaa;-inkscape-font-specification:'Comfortaa Bold';fill:#000000;fill-opacity:1"
                 id="path3389"
                 inkscape:connector-curvature="0" />
            </g>
          </g>
        </g>
      </g>
    </g>
  </g>
</svg>
