<?xml version="1.0" encoding="UTF-8" standalone="no"?>
<!-- Created with Inkscape (http://www.inkscape.org/) -->

<svg
   xmlns:dc="http://purl.org/dc/elements/1.1/"
   xmlns:cc="http://creativecommons.org/ns#"
   xmlns:rdf="http://www.w3.org/1999/02/22-rdf-syntax-ns#"
   xmlns:svg="http://www.w3.org/2000/svg"
   xmlns="http://www.w3.org/2000/svg"
   xmlns:sodipodi="http://sodipodi.sourceforge.net/DTD/sodipodi-0.dtd"
   xmlns:inkscape="http://www.inkscape.org/namespaces/inkscape"
   width="900.31665"
   height="853.35791"
   viewBox="0 0 238.2088 225.78427"
   version="1.1"
   id="svg8"
   inkscape:version="0.92.3 (2405546, 2018-03-11)"
   sodipodi:docname="vertical_summit_color.svg"
   inkscape:export-filename="/home/anxhelo/works/Sustain/PNG/vertical_summit_color.png"
   inkscape:export-xdpi="96"
   inkscape:export-ydpi="96">
  <defs
     id="defs2" />
  <sodipodi:namedview
     id="base"
     pagecolor="#ffffff"
     bordercolor="#666666"
     borderopacity="1.0"
     inkscape:pageopacity="0"
     inkscape:pageshadow="2"
     inkscape:zoom="0.26233604"
     inkscape:cx="751.4455"
     inkscape:cy="278.83861"
     inkscape:document-units="px"
     inkscape:current-layer="g1038"
     inkscape:document-rotation="0"
     showgrid="false"
     borderlayer="true"
     inkscape:showpageshadow="true"
     units="px"
     inkscape:pagecheckerboard="false"
     showguides="false"
     inkscape:window-width="1366"
     inkscape:window-height="715"
     inkscape:window-x="0"
     inkscape:window-y="0"
     inkscape:window-maximized="1"
     objecttolerance="10"
     guidetolerance="10"
     inkscape:snap-tangential="true"
     inkscape:snap-perpendicular="true"
     fit-margin-top="0"
     fit-margin-left="0"
     fit-margin-right="0"
     fit-margin-bottom="0">
    <inkscape:grid
       type="xygrid"
       id="grid10"
       dotted="false"
       originx="36.141627"
       originy="-94.284577" />
  </sodipodi:namedview>
  <metadata
     id="metadata5">
    <rdf:RDF>
      <cc:Work
         rdf:about="">
        <dc:format>image/svg+xml</dc:format>
        <dc:type
           rdf:resource="http://purl.org/dc/dcmitype/StillImage" />
        <dc:title></dc:title>
        <cc:license
           rdf:resource="" />
      </cc:Work>
    </rdf:RDF>
  </metadata>
  <g
     inkscape:label="Layer 1"
     inkscape:groupmode="layer"
     id="layer1"
     transform="translate(36.141628,23.068882)">
    <g
       id="g1038"
       transform="matrix(0.26458334,0,0,0.26458334,-74.87789,104.28012)">
      <g
         id="g1263"
         transform="matrix(1.1739688,0,0,1.1739688,146.63956,-481.31905)">
        <g
           id="g1211">
          <path
             id="path1203"
             d="m 302.3,69.9 c 3.4,3.4 8.7,4.2 13,1.9 20.3,-10.8 43.5,-16.9 68,-16.9 21.2,0 41.3,4.6 59.5,12.8 4.2,1.9 9,1 12.3,-2.2 l 24.6,-24.6 c 5.2,-5.2 3.9,-14 -2.6,-17.5 C 449,8.5 417.2,0 383.3,0 345.7,0 310.5,10.5 280.4,28.6 c -6.1,3.7 -7.2,12.1 -2.1,17.2 z"
             class="st1"
             inkscape:connector-curvature="0"
             style="fill:#264959" />
          <path
             id="path1205"
             d="m 537.8,95.2 -24.1,24.1 c -3.4,3.4 -4.2,8.7 -1.9,13 10.8,20.3 16.9,43.5 16.9,68 0,24.5 -6.1,47.7 -16.9,68 -2.3,4.3 -1.5,9.5 1.9,13 l 24.1,24.1 c 5.1,5.1 13.5,4 17.2,-2.1 18.1,-30.1 28.6,-65.3 28.6,-102.9 0,-37.6 -10.5,-73 -28.6,-103.1 -3.7,-6.1 -12.2,-7.2 -17.2,-2.1 z"
             class="st1"
             inkscape:connector-curvature="0"
             style="fill:#264959" />
          <path
             id="path1207"
             d="m 455,335.1 c -3.2,-3.2 -8.1,-4.1 -12.3,-2.2 -18.2,8.2 -38.3,12.8 -59.5,12.8 -24.6,0 -47.7,-6.1 -68,-16.9 -4.3,-2.3 -9.5,-1.5 -13,1.9 l -24.1,24.1 c -5.1,5.1 -4,13.5 2.1,17.2 30.1,18.1 65.3,28.6 102.9,28.6 33.8,0 65.7,-8.5 93.7,-23.4 6.5,-3.5 7.8,-12.3 2.6,-17.5 z"
             class="st0"
             inkscape:connector-curvature="0"
             style="fill:#32b39f" />
          <path
             id="path1209"
             d="m 248.5,272 c 3.2,-3.2 4.1,-8.1 2.2,-12.3 -8.2,-18.2 -12.8,-38.3 -12.8,-59.5 0,-21.2 4.6,-41.3 12.8,-59.5 1.9,-4.2 1,-9 -2.2,-12.3 l -24.6,-24.6 c -5.2,-5.2 -14,-3.9 -17.5,2.6 -14.9,28 -23.4,59.9 -23.4,93.7 0,33.8 8.5,65.7 23.4,93.7 3.5,6.5 12.3,7.8 17.5,2.6 z"
             class="st1"
             inkscape:connector-curvature="0"
             style="fill:#264959" />
        </g>
        <g
           id="g1229">
          <path
             id="path1213"
             d="M 106.3,530.8 C 97.6,522.8 85.2,517.9 69.5,516.4 56.8,515.1 48,512.5 43.4,508.6 39,504.9 36.8,500.5 36.8,495 c 0,-5.7 2.3,-10 7.1,-13 5.3,-3.3 12.4,-5 21.1,-5 7.1,0 12.9,1.3 17.4,3.9 4.5,2.6 8.3,6.5 11.3,11.4 1.2,2.2 2.9,3.9 5.1,5.2 2.1,1.2 4.5,1.9 7,1.9 2.5,0 4.8,-0.6 6.9,-1.9 3.4,-2.4 5.2,-5.7 5.2,-9.6 0,-2.8 -0.9,-5.7 -2.8,-8.6 -5.4,-8.5 -12.1,-15.2 -19.8,-19.8 v 0 c -7.9,-4.7 -17.6,-7 -28.9,-7 -10.2,0 -19.6,1.6 -27.9,4.8 -8.5,3.3 -15.3,8.1 -20.2,14.4 -5,6.4 -7.6,14.1 -7.6,22.8 0,12.3 4.9,22.8 14.5,31 9.4,8 22.3,12.8 38.3,14.4 10.4,1 18.1,3.8 23,8.3 4.8,4.4 7.1,9.5 7.1,15.7 0,6.3 -2.7,11.1 -8.2,14.8 -5.9,3.9 -13.2,5.9 -21.8,5.9 -7.4,0 -14.2,-1.6 -20.3,-4.7 -5.9,-3 -9.8,-6.6 -11.7,-10.6 -1.1,-2.6 -2.9,-4.7 -5.3,-6.3 -2.4,-1.6 -4.9,-2.3 -7.6,-2.3 -1.1,0 -2,0.1 -2.7,0.3 -3,0.7 -5.4,2 -7.3,3.9 -2,2.1 -3,4.6 -3,7.4 0,1.5 0.4,3.1 1.2,5.1 4,9.5 11.4,17.3 22,23.2 10.4,5.7 22,8.7 34.7,8.7 9.6,0 18.8,-1.7 27.2,-5 8.6,-3.4 15.6,-8.6 20.8,-15.5 5.3,-7 8,-15.5 8,-25.2 0.1,-13.8 -4.4,-24.7 -13.3,-32.8 z"
             class="st1"
             inkscape:connector-curvature="0"
             style="fill:#264959" />
          <path
             id="path1215"
             d="m 243.3,491.9 c -2.5,-2.5 -5.8,-3.8 -9.8,-3.8 -3.8,0 -7.1,1.3 -9.7,3.8 -2.6,2.5 -3.9,5.8 -3.9,9.8 v 57.7 c 0,4.3 -1.1,8.1 -3.4,11.5 -2.3,3.5 -5.6,6.3 -9.8,8.3 -4.2,2.1 -9,3.1 -14.2,3.1 -9.1,0 -16.1,-2.5 -21.4,-7.6 -5.2,-5 -7.9,-12.7 -7.9,-22.8 v -50.3 c 0,-3.9 -1.3,-7.1 -3.9,-9.7 -2.6,-2.6 -5.8,-3.9 -9.7,-3.9 -3.9,0 -7.1,1.3 -9.7,3.9 -2.6,2.6 -3.9,5.8 -3.9,9.7 V 552 c 0,11.5 2.3,21.6 6.7,29.8 4.5,8.3 10.8,14.8 18.9,19.2 7.9,4.3 17,6.5 26.9,6.5 7.2,0 14,-1.3 20.4,-3.8 4.3,-1.7 8.2,-3.9 11.8,-6.6 0.6,2.1 1.7,3.9 3.3,5.5 2.6,2.6 5.8,3.9 9.7,3.9 4,0 7.3,-1.3 9.8,-3.9 2.5,-2.6 3.8,-5.8 3.8,-9.7 v -91.2 c -0.2,-4 -1.5,-7.3 -4,-9.8 z"
             class="st1"
             inkscape:connector-curvature="0"
             style="fill:#264959" />
          <path
             id="path1217"
             d="m 352.7,547.5 c -6.7,-5.7 -17.5,-10 -33,-13.2 -7,-1.5 -12.4,-2.9 -16,-4.4 -4.1,-1.7 -5.7,-3.1 -6.4,-4.1 -1,-1.3 -1.4,-2.9 -1.4,-5 0,-1.6 0.5,-4 4.3,-6.1 3.5,-1.9 8.2,-2.8 14,-2.8 5.1,0 9.4,0.6 12.9,1.8 3.4,1.1 6.6,3.2 9.7,6 3.4,3.1 7.4,4.7 11.7,4.7 3,0 5.5,-0.8 7.7,-2.4 3.1,-2.5 4.6,-5.5 4.6,-8.8 0,-2.9 -1.1,-5.8 -3.4,-8.5 -4.4,-5.4 -10.4,-9.7 -17.9,-12.8 -7.4,-3 -15.8,-4.5 -25,-4.5 -7.6,0 -14.8,1.2 -21.5,3.7 -6.9,2.5 -12.6,6.3 -16.9,11.3 -4.4,5.2 -6.7,11.6 -6.7,19 0,18.2 14.1,30.1 41.8,35.4 9.6,1.8 16.5,4 20.3,6.6 3.3,2.2 4.9,4.8 4.9,7.9 0,3.2 -1.6,5.7 -4.9,7.7 -3.8,2.3 -9.3,3.4 -16.5,3.4 -5.4,0 -10.6,-1 -15.4,-2.9 -4.7,-1.9 -8.2,-4.2 -10.6,-6.8 -5.5,-5.5 -12,-6.3 -19.1,-1.1 -3.5,2.6 -5.4,6.3 -5.4,10.5 0,3.3 1.2,6.2 3.6,8.6 4.9,4.9 11.8,9 20.4,12 8.5,3 17.6,4.5 27.2,4.5 9.7,0 18.1,-1.6 25.1,-4.7 7.1,-3.2 12.6,-7.6 16.4,-13.2 3.7,-5.6 5.6,-12 5.6,-18.8 0.3,-9.3 -3.2,-17.1 -10.1,-23 z"
             class="st1"
             inkscape:connector-curvature="0"
             style="fill:#264959" />
          <path
             id="path1219"
             d="m 443.5,583.6 c -2.3,-2.6 -5.3,-3.9 -8.6,-3.9 h -7 c -3.4,0 -6.2,-1.4 -8.6,-4.4 -2.5,-3.1 -3.8,-7 -3.8,-11.7 v -47.3 h 14.2 c 3.7,0 6.7,-1.1 9.1,-3.3 2.4,-2.2 3.7,-5.1 3.7,-8.5 0,-3.6 -1.2,-6.6 -3.7,-8.9 -2.4,-2.2 -5.4,-3.3 -9.1,-3.3 H 415.5 V 466 c 0,-3.8 -1.3,-7.1 -3.8,-9.6 -2.5,-2.5 -5.7,-3.8 -9.6,-3.8 -3.9,0 -7.1,1.3 -9.6,3.8 -2.5,2.5 -3.8,5.7 -3.8,9.6 v 26.3 h -6.2 c -3.7,0 -6.7,1.1 -9.1,3.3 -2.4,2.3 -3.7,5.2 -3.7,8.9 0,3.3 1.3,6.2 3.7,8.5 2.4,2.2 5.4,3.3 9.1,3.3 h 6.2 v 47.3 c 0,8 1.7,15.3 5.1,21.7 3.4,6.5 8.1,11.7 14.1,15.4 6,3.8 12.7,5.7 20,5.7 h 3.7 c 4.3,0 7.9,-1.2 10.7,-3.6 2.9,-2.5 4.5,-5.9 4.5,-9.8 0,-3.7 -1.1,-6.9 -3.3,-9.4 z"
             class="st1"
             inkscape:connector-curvature="0"
             style="fill:#264959" />
          <path
             id="path1221"
             d="m 620.6,457.6 c -3.3,-3.3 -7.2,-4.9 -11.7,-4.9 -4.5,0 -8.5,1.7 -11.7,4.9 -3.3,3.3 -4.9,7.2 -4.9,11.7 0,4.5 1.7,8.5 4.9,11.7 3.3,3.3 7.2,4.9 11.7,4.9 4.5,0 8.5,-1.7 11.7,-4.9 3.3,-3.3 4.9,-7.2 4.9,-11.7 0,-4.5 -1.7,-8.4 -4.9,-11.7 z"
             class="st1"
             inkscape:connector-curvature="0"
             style="fill:#264959" />
          <path
             id="path1223"
             d="m 608.8,497.9 c -3.8,0 -7.1,1.3 -9.7,3.8 -2.6,2.5 -3.9,5.8 -3.9,9.8 v 81.4 c 0,3.9 1.3,7.1 3.9,9.7 2.6,2.6 5.8,3.9 9.7,3.9 4,0 7.3,-1.3 9.8,-3.9 2.5,-2.6 3.7,-5.8 3.7,-9.7 v -81.4 c 0,-4 -1.3,-7.3 -3.8,-9.8 -2.4,-2.5 -5.7,-3.8 -9.7,-3.8 z"
             class="st1"
             inkscape:connector-curvature="0"
             style="fill:#264959" />
          <path
             id="path1225"
             d="m 754,513 c -4.5,-8.4 -10.8,-14.8 -18.9,-19.2 -7.9,-4.3 -17,-6.5 -26.9,-6.5 -7.2,0 -14,1.3 -20.4,3.8 -4.3,1.7 -8.2,3.9 -11.7,6.6 -0.6,-2.1 -1.7,-4 -3.2,-5.6 -2.5,-2.5 -5.8,-3.8 -9.8,-3.8 -3.8,0 -7.1,1.3 -9.7,3.8 -2.6,2.5 -3.9,5.8 -3.9,9.8 v 91.2 c 0,3.9 1.3,7.1 3.9,9.7 2.6,2.6 5.8,3.9 9.7,3.9 4,0 7.3,-1.3 9.8,-3.9 2.5,-2.6 3.8,-5.8 3.8,-9.7 v -57.7 c 0,-4.3 1.1,-8.1 3.4,-11.5 2.3,-3.5 5.6,-6.3 9.8,-8.3 4.2,-2.1 9,-3.2 14.2,-3.2 9.1,0 16.1,2.5 21.4,7.6 5.3,5 7.9,12.7 7.9,22.8 v 50.3 c 0,3.9 1.3,7.1 3.9,9.7 2.6,2.6 5.8,3.9 9.7,3.9 3.9,0 7.1,-1.3 9.7,-3.9 2.6,-2.6 3.9,-5.8 3.9,-9.7 v -50.3 c 0.1,-11.5 -2.1,-21.6 -6.6,-29.8 z"
             class="st1"
             inkscape:connector-curvature="0"
             style="fill:#264959" />
          <path
             id="path1227"
             d="m 560.3,488.3 c -3.8,0 -7.1,1.3 -9.7,3.8 -1.5,1.4 -2.6,3.2 -3.2,5.1 -0.9,-0.6 -1.9,-1.2 -2.8,-1.8 v 0 c -9,-5.2 -19.1,-7.9 -30.1,-7.9 -11,0 -21.2,2.7 -30.3,7.9 -9.1,5.2 -16.4,12.5 -21.5,21.6 -5.2,9.1 -7.8,19.4 -7.8,30.5 0,11.1 2.4,21.3 7.2,30.4 4.8,9.1 11.5,16.4 20,21.6 8.4,5.2 18,7.8 28.3,7.8 8.3,0 16.2,-1.8 23.5,-5.2 4.7,-2.3 9,-5.2 12.9,-8.6 0.1,3.7 1.4,6.8 3.9,9.3 2.6,2.6 5.8,3.9 9.7,3.9 3.9,0 7.1,-1.3 9.7,-3.9 2.6,-2.6 3.9,-5.8 3.9,-9.7 v -35.3 -10.3 -45.6 c 0,-4 -1.3,-7.3 -3.8,-9.8 -2.6,-2.6 -5.9,-3.8 -9.9,-3.8 z m -17.1,77.2 c -2.8,5.3 -6.8,9.5 -11.8,12.5 v 0 c -5,3 -10.7,4.6 -16.9,4.6 -6.2,0 -11.9,-1.5 -16.9,-4.6 -5,-3 -9,-7.2 -12,-12.5 -2.9,-5.3 -4.4,-11.3 -4.4,-18 0,-6.7 1.5,-12.7 4.4,-18.1 2.9,-5.3 6.9,-9.6 11.9,-12.6 5,-3 10.7,-4.6 16.9,-4.6 6.2,0 11.9,1.5 16.9,4.6 5,3 9,7.3 11.8,12.6 2.9,5.4 4.3,11.5 4.3,18.1 0.1,6.6 -1.3,12.7 -4.2,18 z"
             class="st1"
             inkscape:connector-curvature="0"
             style="fill:#264959" />
        </g>
        <g
           id="g1251">
          <path
             id="path1231"
             d="m 53.3,636.4 c 4.7,2.8 8.6,6.7 11.8,11.8 0.9,1.5 1.4,2.9 1.4,4.3 0,1.7 -0.8,3.2 -2.4,4.3 -0.9,0.6 -1.9,0.8 -3.1,0.8 -1.2,0 -2.3,-0.3 -3.3,-0.9 -1,-0.6 -1.8,-1.4 -2.4,-2.4 -2.1,-3.6 -4.8,-6.3 -8,-8.1 -3.2,-1.9 -7.2,-2.8 -12.1,-2.8 -6,0 -10.9,1.2 -14.6,3.5 -3.7,2.3 -5.6,5.7 -5.6,10.1 0,4.1 1.7,7.5 5,10.3 3.3,2.8 9.2,4.6 17.8,5.4 9.5,0.9 16.8,3.8 22,8.6 5.2,4.8 7.8,11.1 7.8,18.9 0,5.7 -1.5,10.6 -4.6,14.6 -3.1,4.1 -7.2,7.1 -12.3,9.1 -5.1,2 -10.6,3 -16.4,3 -7.7,0 -14.6,-1.7 -20.9,-5.2 -6.3,-3.5 -10.6,-8 -13,-13.6 -0.4,-0.9 -0.6,-1.7 -0.6,-2.4 0,-1.2 0.4,-2.2 1.3,-3.1 0.9,-0.9 2.1,-1.5 3.6,-1.8 0.2,-0.1 0.6,-0.1 1.2,-0.1 1.3,0 2.5,0.4 3.6,1.1 1.1,0.8 2,1.8 2.5,3 1.4,3.1 4.2,5.7 8.4,7.8 4.2,2.1 8.8,3.2 13.9,3.2 5.9,0 10.9,-1.4 15,-4.1 4.1,-2.7 6.2,-6.5 6.2,-11.2 0,-4.5 -1.7,-8.3 -5.2,-11.5 -3.5,-3.2 -8.8,-5.1 -15.9,-5.9 -9.8,-0.9 -17.5,-3.8 -23.1,-8.6 -5.6,-4.8 -8.4,-10.8 -8.4,-17.9 0,-5.1 1.4,-9.4 4.3,-13.1 2.9,-3.7 6.8,-6.5 11.8,-8.4 5,-1.9 10.6,-2.9 16.9,-2.9 7,0 12.7,1.4 17.4,4.2 z"
             class="st0"
             inkscape:connector-curvature="0"
             style="fill:#32b39f" />
          <path
             id="path1233"
             d="m 146.1,662.6 c 1.1,1.1 1.7,2.6 1.7,4.4 v 52.8 c 0,1.7 -0.6,3.2 -1.7,4.3 -1.1,1.1 -2.6,1.7 -4.4,1.7 -1.7,0 -3.2,-0.6 -4.3,-1.7 -1.1,-1.1 -1.7,-2.6 -1.7,-4.3 v -1.3 c -2.5,2.5 -5.5,4.5 -9,5.9 -3.5,1.4 -7.2,2.1 -11.1,2.1 -5.4,0 -10.3,-1.2 -14.7,-3.6 -4.3,-2.4 -7.7,-5.8 -10.2,-10.4 C 88.3,708 87,702.5 87,696.1 V 667 c 0,-1.7 0.6,-3.2 1.7,-4.3 1.1,-1.1 2.6,-1.7 4.3,-1.7 1.7,0 3.2,0.6 4.3,1.7 1.1,1.1 1.7,2.6 1.7,4.3 v 29.1 c 0,6.4 1.7,11.2 5.2,14.5 3.4,3.3 8,4.9 13.7,4.9 3.3,0 6.3,-0.7 9.1,-2 2.7,-1.3 4.9,-3.2 6.4,-5.4 1.5,-2.3 2.3,-4.9 2.3,-7.7 V 667 c 0,-1.8 0.6,-3.3 1.7,-4.4 1.1,-1.1 2.6,-1.7 4.3,-1.7 1.8,0 3.3,0.5 4.4,1.7 z"
             class="st0"
             inkscape:connector-curvature="0"
             style="fill:#32b39f" />
          <path
             id="path1235"
             d="m 256.7,667.2 c 4.2,4.5 6.3,10.8 6.3,18.8 v 33.9 c 0,1.7 -0.6,3.2 -1.7,4.3 -1.1,1.1 -2.6,1.7 -4.4,1.7 -1.7,0 -3.2,-0.6 -4.3,-1.7 -1.1,-1.1 -1.7,-2.6 -1.7,-4.3 V 686 c 0,-4.8 -1.2,-8.5 -3.6,-11 -2.4,-2.5 -5.6,-3.7 -9.6,-3.7 -4.1,0 -7.5,1.4 -10.1,4.3 -2.6,2.8 -4,6.5 -4,10.9 v 33.4 c 0,1.7 -0.6,3.2 -1.7,4.3 -1.1,1.1 -2.6,1.7 -4.4,1.7 -1.7,0 -3.2,-0.6 -4.3,-1.7 -1.1,-1.1 -1.7,-2.6 -1.7,-4.3 V 686 c 0,-4.8 -1.2,-8.5 -3.6,-11 -2.4,-2.5 -5.6,-3.7 -9.6,-3.7 -4.2,0 -7.6,1.4 -10.2,4.3 -2.6,2.8 -4,6.5 -4,10.9 v 33.4 c 0,1.7 -0.6,3.2 -1.7,4.3 -1.1,1.1 -2.6,1.7 -4.4,1.7 -1.7,0 -3.2,-0.6 -4.3,-1.7 -1.1,-1.1 -1.7,-2.6 -1.7,-4.3 v -52.7 c 0,-1.8 0.6,-3.3 1.7,-4.4 1.1,-1.1 2.6,-1.7 4.3,-1.7 1.7,0 3.2,0.5 4.3,1.6 1.1,1.1 1.7,2.5 1.8,4.2 2.1,-2.1 4.5,-3.7 7.3,-4.8 2.8,-1.1 5.9,-1.7 9.2,-1.7 4,0 7.6,0.8 10.8,2.4 3.2,1.6 5.8,3.9 7.9,6.9 2.4,-2.9 5.3,-5.2 8.9,-6.9 3.6,-1.7 7.5,-2.5 11.8,-2.5 7,0.1 12.5,2.4 16.7,6.9 z"
             class="st0"
             inkscape:connector-curvature="0"
             style="fill:#32b39f" />
          <path
             id="path1237"
             d="m 370.8,667.2 c 4.2,4.5 6.3,10.8 6.3,18.8 v 33.9 c 0,1.7 -0.6,3.2 -1.7,4.3 -1.1,1.1 -2.6,1.7 -4.4,1.7 -1.7,0 -3.2,-0.6 -4.3,-1.7 -1.1,-1.1 -1.7,-2.6 -1.7,-4.3 V 686 c 0,-4.8 -1.2,-8.5 -3.6,-11 -2.4,-2.5 -5.6,-3.7 -9.6,-3.7 -4.1,0 -7.5,1.4 -10.1,4.3 -2.6,2.8 -4,6.5 -4,10.9 v 33.4 c 0,1.7 -0.6,3.2 -1.7,4.3 -1.1,1.1 -2.6,1.7 -4.4,1.7 -1.7,0 -3.2,-0.6 -4.3,-1.7 -1.1,-1.1 -1.7,-2.6 -1.7,-4.3 V 686 c 0,-4.8 -1.2,-8.5 -3.6,-11 -2.4,-2.5 -5.6,-3.7 -9.6,-3.7 -4.2,0 -7.6,1.4 -10.2,4.3 -2.6,2.8 -4,6.5 -4,10.9 v 33.4 c 0,1.7 -0.6,3.2 -1.7,4.3 -1.1,1.1 -2.6,1.7 -4.4,1.7 -1.7,0 -3.2,-0.6 -4.3,-1.7 -1.1,-1.1 -1.7,-2.6 -1.7,-4.3 v -52.7 c 0,-1.8 0.6,-3.3 1.7,-4.4 1.1,-1.1 2.6,-1.7 4.3,-1.7 1.7,0 3.2,0.5 4.3,1.6 1.1,1.1 1.7,2.5 1.8,4.2 2.1,-2.1 4.5,-3.7 7.3,-4.8 2.8,-1.1 5.9,-1.7 9.2,-1.7 4,0 7.6,0.8 10.8,2.4 3.2,1.6 5.8,3.9 7.9,6.9 2.4,-2.9 5.3,-5.2 8.9,-6.9 3.6,-1.7 7.5,-2.5 11.8,-2.5 6.9,0.1 12.4,2.4 16.7,6.9 z"
             class="st0"
             inkscape:connector-curvature="0"
             style="fill:#32b39f" />
          <path
             id="path1239"
             d="m 412.8,637.2 c 1.5,1.5 2.3,3.4 2.3,5.5 0,2.1 -0.8,4 -2.3,5.5 -1.5,1.5 -3.4,2.3 -5.5,2.3 -2.1,0 -4,-0.8 -5.5,-2.3 -1.5,-1.5 -2.3,-3.4 -2.3,-5.5 0,-2.1 0.8,-4 2.3,-5.5 1.5,-1.5 3.4,-2.3 5.5,-2.3 2.1,-0.1 4,0.7 5.5,2.3 z m -9.8,25.5 c 1.1,-1.1 2.6,-1.7 4.3,-1.7 1.8,0 3.3,0.6 4.4,1.7 1.1,1.1 1.7,2.6 1.7,4.4 v 52.7 c 0,1.7 -0.6,3.2 -1.7,4.3 -1.1,1.1 -2.6,1.7 -4.4,1.7 -1.7,0 -3.2,-0.6 -4.3,-1.7 -1.1,-1.1 -1.7,-2.6 -1.7,-4.3 v -52.7 c -0.1,-1.9 0.5,-3.3 1.7,-4.4 z"
             class="st0"
             inkscape:connector-curvature="0"
             style="fill:#32b39f" />
          <path
             id="path1241"
             d="m 470,715.6 c 1,1.1 1.5,2.5 1.5,4.3 0,1.7 -0.7,3.2 -2,4.3 -1.3,1.1 -3,1.7 -5,1.7 h -2.1 c -3.9,0 -7.4,-1 -10.6,-3 -3.2,-2 -5.7,-4.8 -7.5,-8.2 -1.8,-3.5 -2.7,-7.4 -2.7,-11.7 v -29.2 h -5.4 c -1.7,0 -3,-0.5 -4,-1.4 -1,-0.9 -1.5,-2.1 -1.5,-3.6 0,-1.6 0.5,-2.8 1.5,-3.8 1,-0.9 2.4,-1.4 4,-1.4 h 5.4 v -17.1 c 0,-1.7 0.6,-3.2 1.7,-4.3 1.1,-1.1 2.5,-1.7 4.3,-1.7 1.7,0 3.2,0.6 4.3,1.7 1.1,1.1 1.7,2.5 1.7,4.3 v 17.1 h 10.1 c 1.7,0 3,0.5 4,1.4 1,0.9 1.5,2.2 1.5,3.8 0,1.4 -0.5,2.6 -1.5,3.6 -1,0.9 -2.4,1.4 -4,1.4 H 453.6 V 703 c 0,3.2 0.9,5.8 2.6,7.9 1.7,2.1 3.9,3.2 6.4,3.2 h 4 c 1.2,-0.2 2.4,0.4 3.4,1.5 z"
             class="st0"
             inkscape:connector-curvature="0"
             style="fill:#32b39f" />
          <path
             id="path1243"
             d="m 578.1,715.5 c 1.2,1.2 1.8,2.6 1.8,4.3 0,1.7 -0.6,3.1 -1.8,4.3 -1.2,1.2 -2.6,1.8 -4.4,1.8 h -43.8 c -1.7,0 -3.2,-0.6 -4.3,-1.8 -1.1,-1.2 -1.7,-2.6 -1.7,-4.3 0,-1.7 0.6,-3.2 1.7,-4.3 l 33.6,-39.3 c 5,-5.7 7.5,-10.6 7.5,-14.8 0,-5.1 -1.3,-9.2 -4,-12.3 -2.6,-3.1 -6.3,-4.6 -10.8,-4.6 -2.9,0 -5.6,0.8 -8.1,2.3 -2.4,1.5 -4.4,3.6 -5.7,6.2 -1.4,2.6 -2.1,5.4 -2.1,8.4 0,1.6 -0.6,3 -1.7,4.1 -1.1,1.2 -2.6,1.8 -4.3,1.8 -1.7,0 -3.1,-0.6 -4.3,-1.8 -1.2,-1.2 -1.8,-2.6 -1.8,-4.1 0,-5.3 1.2,-10.1 3.7,-14.3 2.4,-4.3 5.8,-7.6 10,-10.1 4.2,-2.4 9,-3.7 14.3,-3.7 5.3,0 9.9,1.1 13.9,3.4 4,2.3 7.1,5.5 9.2,9.8 2.2,4.2 3.3,9.2 3.3,14.9 0,3.5 -1,7.1 -3,10.8 -2,3.8 -4.5,7.3 -7.5,10.7 l -27.1,30.8 h 33.2 c 1.6,0 3.1,0.6 4.2,1.8 z"
             class="st0"
             inkscape:connector-curvature="0"
             style="fill:#32b39f" />
          <path
             id="path1245"
             d="m 638.3,638.8 c 4.3,3.7 7.5,9 9.7,16 2.2,6.9 3.3,15.2 3.3,24.7 0,9.6 -1.1,17.8 -3.3,24.7 -2.2,6.9 -5.4,12.3 -9.7,16 -4.3,3.7 -9.4,5.6 -15.3,5.6 -9,0 -16,-4.1 -20.9,-12.2 -4.9,-8.1 -7.4,-19.5 -7.4,-34.1 0,-14.6 2.5,-26 7.4,-34.1 4.9,-8.1 11.9,-12.2 20.9,-12.2 5.9,0 11,1.8 15.3,5.6 z m -27.3,16 c -2.7,6.3 -4.1,14.5 -4.1,24.7 0,10.3 1.4,18.5 4.1,24.7 2.8,6.2 6.7,9.3 12,9.3 5.3,0 9.3,-3.1 12,-9.4 2.7,-6.2 4.1,-14.4 4.1,-24.6 0,-10.1 -1.4,-18.3 -4.1,-24.6 -2.8,-6.3 -6.7,-9.5 -12,-9.5 -5.3,0 -9.3,3.1 -12,9.4 z"
             class="st0"
             inkscape:connector-curvature="0"
             style="fill:#32b39f" />
          <path
             id="path1247"
             d="m 665.6,652 c -1.7,0 -3.2,-0.6 -4.3,-1.7 -1.1,-1.1 -1.7,-2.5 -1.7,-4.3 0,-1.3 0.3,-2.5 0.9,-3.5 0.6,-1 1.6,-1.7 3,-2.2 l 18.5,-6.6 c 0.9,-0.3 1.7,-0.5 2.3,-0.5 1.7,0 3.2,0.6 4.3,1.7 1.1,1.1 1.7,2.6 1.7,4.4 v 80.3 c 0,1.7 -0.6,3.1 -1.8,4.3 -1.2,1.2 -2.6,1.8 -4.4,1.8 -1.6,0 -3,-0.6 -4.1,-1.8 -1.1,-1.2 -1.8,-2.6 -1.8,-4.3 v -72.2 l -8.6,3.7 c -1.5,0.6 -2.8,0.9 -4,0.9 z"
             class="st0"
             inkscape:connector-curvature="0"
             style="fill:#32b39f" />
          <path
             id="path1249"
             d="m 763.3,683.5 c 2.3,4 3.4,8.5 3.4,13.4 0,5.4 -1.2,10.2 -3.6,14.6 -2.4,4.4 -5.6,7.8 -9.8,10.4 -4.1,2.5 -8.8,3.8 -13.9,3.8 -5.1,0 -9.8,-1.2 -14,-3.7 -4.2,-2.5 -7.5,-5.9 -9.8,-10.2 -2.4,-4.3 -3.6,-9.1 -3.6,-14.5 0,-5 1.1,-9.5 3.4,-13.6 2.3,-4.1 5.3,-7.3 9.3,-9.8 -2.8,-2.1 -4.9,-4.6 -6.5,-7.7 -1.5,-3.1 -2.3,-6.4 -2.3,-10.1 0,-4.4 1,-8.4 3.1,-12 2.1,-3.6 4.9,-6.4 8.5,-8.5 3.6,-2.1 7.6,-3.1 12.1,-3.1 4.3,0 8.3,1 11.8,3 3.5,2 6.3,4.8 8.3,8.3 2,3.6 3,7.5 3,12 0,3.7 -0.8,7.1 -2.3,10.2 -1.5,3.1 -3.7,5.6 -6.5,7.7 4,2.5 7.1,5.8 9.4,9.8 z m -12.9,1.8 c -2.9,-3.1 -6.6,-4.7 -11,-4.7 -4.5,0 -8.2,1.6 -11.1,4.8 -2.9,3.2 -4.4,7.2 -4.4,12 0,3.2 0.7,6.1 2,8.7 1.3,2.6 3.2,4.7 5.6,6.3 2.4,1.5 5,2.3 7.9,2.3 2.9,0 5.5,-0.8 7.9,-2.4 2.3,-1.6 4.2,-3.7 5.5,-6.5 1.3,-2.7 2,-5.7 2,-8.9 0,-4.5 -1.5,-8.4 -4.4,-11.6 z M 731,665 c 2.3,2.4 5,3.7 8.3,3.7 3.3,0 6.1,-1.3 8.3,-3.8 2.2,-2.6 3.3,-5.7 3.3,-9.3 0,-3.5 -1.1,-6.3 -3.3,-8.6 -2.2,-2.2 -5,-3.4 -8.3,-3.4 -3.4,0 -6.2,1.2 -8.4,3.5 -2.2,2.3 -3.3,5.3 -3.3,8.9 0.1,3.6 1.2,6.6 3.4,9 z"
             class="st0"
             inkscape:connector-curvature="0"
             style="fill:#32b39f" />
        </g>
        <g
           id="g1257">
          <path
             id="path1253"
             d="m 477.6,229.9 7.4,11.7 c 1.6,2.5 5.3,2.1 6.3,-0.7 1.4,-3.9 2.7,-8 3.7,-12.1 0.5,-2.2 -1.2,-4.3 -3.4,-4.3 h -11 c -2.8,0.1 -4.5,3.1 -3,5.4 z"
             class="st0"
             inkscape:connector-curvature="0"
             style="fill:#32b39f" />
          <path
             id="path1255"
             d="m 282.3,243.9 10.1,-13.8 c 1.7,-2.3 0,-5.6 -2.8,-5.6 h -14.5 c -2.3,0 -3.9,2.2 -3.4,4.4 1.2,4.9 2.7,9.6 4.5,14.2 1,2.6 4.4,3.1 6.1,0.8 z"
             class="st0"
             inkscape:connector-curvature="0"
             style="fill:#32b39f" />
        </g>
        <g
           id="g1261">
          <path
             id="path1259"
             d="m 336.1,170.6 c 1.1,-1.6 3.5,-1.6 4.6,0 l 20.7,28.2 c 1.2,1.6 3.6,1.5 4.7,-0.2 l 43.4,-68.7 c 1.1,-1.8 3.7,-1.8 4.8,0 L 480,233.8 h 13.5 c 4.1,-13.8 5.7,-28.7 4.2,-44.2 C 492.3,134.3 447,90.2 391.6,86.3 324.3,81.5 268.2,134.7 268.2,201.1 c 0,11.4 1.7,22.3 4.8,32.7 h 16.6 z"
             class="st0"
             inkscape:connector-curvature="0"
             style="fill:#32b39f" />
        </g>
      </g>
    </g>
  </g>
</svg>
