<?xml version="1.0" encoding="UTF-8" standalone="no"?>
<!-- Created with Inkscape (http://www.inkscape.org/) -->

<svg
   xmlns:dc="http://purl.org/dc/elements/1.1/"
   xmlns:cc="http://creativecommons.org/ns#"
   xmlns:rdf="http://www.w3.org/1999/02/22-rdf-syntax-ns#"
   xmlns:svg="http://www.w3.org/2000/svg"
   xmlns="http://www.w3.org/2000/svg"
   xmlns:sodipodi="http://sodipodi.sourceforge.net/DTD/sodipodi-0.dtd"
   xmlns:inkscape="http://www.inkscape.org/namespaces/inkscape"
   width="867.30469"
   height="159.27711"
   viewBox="0 0 229.47437 42.142068"
   version="1.1"
   id="svg8"
   inkscape:version="0.92+devel unknown"
   sodipodi:docname="horizontal_white.svg">
  <defs
     id="defs2" />
  <sodipodi:namedview
     id="base"
     pagecolor="#ffffff"
     bordercolor="#666666"
     borderopacity="1.0"
     inkscape:pageopacity="0.0"
     inkscape:pageshadow="2"
     inkscape:zoom="0.49497475"
     inkscape:cx="412.33871"
     inkscape:cy="-82.357695"
     inkscape:document-units="mm"
     inkscape:current-layer="g3040"
     inkscape:document-rotation="0"
     showgrid="true"
     borderlayer="true"
     inkscape:showpageshadow="false"
     units="px"
     inkscape:pagecheckerboard="false"
     showguides="true"
     inkscape:window-width="1366"
     inkscape:window-height="715"
     inkscape:window-x="0"
     inkscape:window-y="25"
     inkscape:window-maximized="1"
     fit-margin-top="0"
     fit-margin-left="0"
     fit-margin-right="0"
     fit-margin-bottom="0">
    <inkscape:grid
       type="xygrid"
       id="grid10"
       originx="-78.302763"
       originy="-103.72187" />
  </sodipodi:namedview>
  <metadata
     id="metadata5">
    <rdf:RDF>
      <cc:Work
         rdf:about="">
        <dc:format>image/svg+xml</dc:format>
        <dc:type
           rdf:resource="http://purl.org/dc/dcmitype/StillImage" />
        <dc:title></dc:title>
      </cc:Work>
    </rdf:RDF>
  </metadata>
  <g
     inkscape:label="Layer 1"
     inkscape:groupmode="layer"
     id="layer1"
     transform="translate(-78.302759,-151.13607)">
    <path
       id="path3020"
       d="m 116.85608,176.66738 -7.99774,-13.84228 c 0.46137,-1.02536 0.71775,-2.15322 0.71775,-3.33239 0,-4.6141 -3.74258,-8.35664 -8.35665,-8.35664 -4.614111,0 -8.356641,3.74254 -8.356641,8.35664 0,1.17917 0.256464,2.30703 0.717756,3.33239 l -7.997788,13.84228 c -4.101434,0.51268 -7.280008,4.05017 -7.280008,8.25412 0,4.61411 3.742537,8.35664 8.356645,8.35664 2.717196,0 5.126743,-1.28171 6.664813,-3.28115 h 15.944233 c 1.53806,1.99944 3.94762,3.28115 6.6648,3.28115 4.61411,0 8.35666,-3.74253 8.35666,-8.35664 -0.15376,-4.20395 -3.3324,-7.74144 -7.43383,-8.25412 z m -15.68793,-20.50709 c 1.84565,0 3.28115,1.48677 3.28115,3.28116 0,1.84563 -1.48675,3.28113 -3.28115,3.28113 -1.845625,0 -3.281127,-1.48677 -3.281127,-3.28113 0,-1.79439 1.486758,-3.28116 3.281127,-3.28116 z m -14.611298,32.0936 c -1.845625,0 -3.281127,-1.48677 -3.281127,-3.28113 0,-1.84562 1.486767,-3.28112 3.281127,-3.28112 1.845664,0 3.281126,1.48676 3.281126,3.28112 0.05129,1.79436 -1.435462,3.28113 -3.281126,3.28113 z m 20.917238,-3.28113 H 94.964753 c 0,-3.07604 -1.691839,-5.79324 -4.15269,-7.22874 l 6.357213,-10.9713 c 1.230429,0.66649 2.614659,1.07663 4.101424,1.07663 1.48676,0 2.87097,-0.41014 4.1014,-1.07663 l 6.35721,10.9713 c -2.61464,1.4355 -4.25522,4.1014 -4.25522,7.22874 z m 8.30535,3.28113 c -1.84562,0 -3.28113,-1.48677 -3.28113,-3.28113 0,-1.84562 1.48677,-3.28112 3.28113,-3.28112 1.84566,0 3.28116,1.48676 3.28116,3.28112 0.0514,1.79436 -1.4355,3.28113 -3.28116,3.28113 z"
       style="fill:#bf0008;stroke-width:0.51267725;fill-opacity:1"
       inkscape:connector-curvature="0" />
    <g
       id="g3040"
       transform="matrix(0.51267726,0,0,0.51267726,-98.775937,411.11474)">
      <path
         id="path3022"
         d="m 466.5,-481.3 v 36.1 h -6.1 v -36.1 h -13 v -5.3 h 32.2 v 5.3 z"
         inkscape:connector-curvature="0"
         style="fill:#ffffff" />
      <path
         id="path3024"
         d="m 516.1,-445.3 h -6 v -19.5 H 492 v 19.5 h -6 v -41.4 h 6 v 16.7 h 18.1 v -16.7 h 6 z"
         inkscape:connector-curvature="0"
         style="fill:#ffffff" />
      <path
         id="path3026"
         d="m 552,-445.6 c -5.5,0.5 -11.8,0.5 -17.8,0.5 -5.2,0 -8.3,-2.9 -8.3,-7.4 v -26.8 c 0.1,-4.6 3.2,-7.4 8.3,-7.4 5.9,0 12.3,0 17.8,0.5 l -0.3,4.7 h -16.4 c -2.4,0 -3.3,1 -3.3,3.8 v 8.3 h 17.5 v 4.9 H 532 v 10.6 c 0,2.8 0.9,3.8 3.3,3.8 h 16.4 z"
         inkscape:connector-curvature="0"
         style="fill:#ffffff" />
      <path
         id="path3028"
         d="m 590.4,-478 v 32.7 H 579.1 V -478 h -11.9 v -8.7 h 35.1 v 8.7 z"
         inkscape:connector-curvature="0"
         style="fill:#bf0008;fill-opacity:1" />
      <path
         id="path3030"
         d="m 606.9,-445.3 v -41.4 H 618 v 41.4 z"
         inkscape:connector-curvature="0"
         style="fill:#bf0008;fill-opacity:1" />
      <path
         id="path3032"
         d="m 661.9,-449.2 c 0,2.6 -1.3,4 -3.9,4 h -5.3 c -2.3,0 -3.2,-1.1 -4.4,-3.3 l -9.8,-17.8 c -1,-1.9 -2,-4.5 -2.7,-6.8 h -0.5 c 0.3,2.3 0.5,4.8 0.5,7.1 v 20.8 h -10.5 v -37.4 c 0,-2.6 1.4,-4 4,-4 h 5.3 c 2.3,0 3.2,1.1 4.4,3.3 l 9.5,17.1 c 1.1,1.9 2.2,4.4 3.1,6.9 h 0.5 c -0.2,-2.5 -0.4,-4.8 -0.4,-7.3 l -0.1,-20 H 662 v 37.4 z"
         inkscape:connector-curvature="0"
         style="fill:#bf0008;fill-opacity:1" />
      <path
         id="path3034"
         d="m 716.8,-445.3 h -11.3 v -17.9 h -12.4 v 17.9 H 682 v -41.4 h 11.2 v 15.3 h 12.4 v -15.3 h 11.3 v 41.4 z"
         inkscape:connector-curvature="0"
         style="fill:#bf0008;fill-opacity:1" />
      <path
         id="path3036"
         d="m 734.1,-455.1 -2.5,9.8 h -11.5 l 11.3,-38.5 c 0.4,-1.8 2,-2.9 3.8,-2.9 h 10.4 c 1.8,0 3.4,1.1 3.8,2.9 l 11.3,38.5 h -11.5 l -2.5,-9.8 z m 8,-18.8 c -0.3,-1.4 -0.7,-2.9 -0.8,-4.3 h -1.6 c -0.2,1.4 -0.5,2.9 -0.8,4.3 l -2.7,10.6 h 8.6 z"
         inkscape:connector-curvature="0"
         style="fill:#bf0008;fill-opacity:1" />
      <path
         id="path3038"
         d="m 781,-478 v 32.7 H 769.7 V -478 h -11.9 v -8.7 H 793 v 8.7 z"
         inkscape:connector-curvature="0"
         style="fill:#bf0008;fill-opacity:1" />
    </g>
  </g>
</svg>
