<?xml version="1.0" encoding="UTF-8" standalone="no"?>
<!-- Created with Inkscape (http://www.inkscape.org/) -->

<svg
   xmlns:dc="http://purl.org/dc/elements/1.1/"
   xmlns:cc="http://creativecommons.org/ns#"
   xmlns:rdf="http://www.w3.org/1999/02/22-rdf-syntax-ns#"
   xmlns:svg="http://www.w3.org/2000/svg"
   xmlns="http://www.w3.org/2000/svg"
   xmlns:sodipodi="http://sodipodi.sourceforge.net/DTD/sodipodi-0.dtd"
   xmlns:inkscape="http://www.inkscape.org/namespaces/inkscape"
   width="253.54495"
   height="253.54495"
   viewBox="0 0 67.08377 67.083766"
   version="1.1"
   id="svg8"
   inkscape:version="0.92+devel unknown"
   sodipodi:docname="icon_circle_white.svg"
   inkscape:export-filename="/home/anxhelo/Desktop/TinHat/icon_circle_black.png"
   inkscape:export-xdpi="96"
   inkscape:export-ydpi="96">
  <defs
     id="defs2" />
  <sodipodi:namedview
     id="base"
     pagecolor="#ffffff"
     bordercolor="#666666"
     borderopacity="1.0"
     inkscape:pageopacity="0.0"
     inkscape:pageshadow="2"
     inkscape:zoom="1.4142136"
     inkscape:cx="147.75345"
     inkscape:cy="129.30011"
     inkscape:document-units="mm"
     inkscape:current-layer="g3040"
     inkscape:document-rotation="0"
     showgrid="true"
     borderlayer="true"
     inkscape:showpageshadow="false"
     units="px"
     inkscape:pagecheckerboard="false"
     showguides="true"
     inkscape:window-width="1366"
     inkscape:window-height="715"
     inkscape:window-x="0"
     inkscape:window-y="25"
     inkscape:window-maximized="1"
     fit-margin-top="0"
     fit-margin-left="0"
     fit-margin-right="0"
     fit-margin-bottom="0">
    <inkscape:grid
       type="xygrid"
       id="grid10"
       originx="-164.83459"
       originy="-86.890307" />
  </sodipodi:namedview>
  <metadata
     id="metadata5">
    <rdf:RDF>
      <cc:Work
         rdf:about="">
        <dc:format>image/svg+xml</dc:format>
        <dc:type
           rdf:resource="http://purl.org/dc/dcmitype/StillImage" />
        <dc:title></dc:title>
      </cc:Work>
    </rdf:RDF>
  </metadata>
  <g
     inkscape:label="Layer 1"
     inkscape:groupmode="layer"
     id="layer1"
     transform="translate(-164.83458,-143.02593)">
    <g
       id="g3040"
       transform="matrix(0.51267726,0,0,0.51267726,-98.775937,411.11474)">
      <circle
         id="circle3046"
         r="65.421577"
         cy="-457.49686"
         cx="579.61334"
         style="fill:#bf0007;stroke-width:1.26540744;fill-opacity:1" />
      <path
         style="stroke-width:1.26540744;fill:#ffffff"
         id="path3048"
         d="m 610.86882,-453.44769 -15.94412,-27.71242 c 0.88581,-2.02466 1.3919,-4.30244 1.3919,-6.70663 0,-9.23746 -7.46586,-16.70342 -16.70332,-16.70342 -9.23746,0 -16.70337,7.46596 -16.70337,16.70342 0,2.40419 0.50627,4.55545 1.39194,6.70663 l -15.94419,27.71242 c -8.22514,1.01231 -14.55213,8.09866 -14.55213,16.57681 0,9.23744 7.46587,16.70332 16.70341,16.70332 5.44119,0 10.24974,-2.53069 13.28672,-6.58004 h 31.88824 c 3.03699,4.04935 7.84561,6.58004 13.2869,6.58004 9.23736,0 16.70333,-7.46588 16.70333,-16.70332 -0.12666,-8.60476 -6.58013,-15.5645 -14.80531,-16.57681 z m -31.25554,-40.99918 c 3.66965,0 6.58011,2.91034 6.58011,6.58013 0,3.66969 -2.91046,6.58003 -6.58011,6.58003 -3.6697,0 -6.58017,-2.91034 -6.58017,-6.58003 0,-3.66979 2.91047,-6.58013 6.58017,-6.58013 z m -29.23094,64.02958 c -3.66964,0 -6.58014,-2.91042 -6.58014,-6.58013 0,-3.6697 2.9105,-6.5801 6.58014,-6.5801 3.66968,0 6.58015,2.9104 6.58015,6.5801 0,3.66971 -2.91047,6.58013 -6.58015,6.58013 z m 41.75848,-6.58013 h -25.05504 c 0,-6.20045 -3.41664,-11.51522 -8.35169,-14.4256 l 12.65405,-21.89159 c 2.40429,1.39196 5.18814,2.15119 8.22514,2.15119 3.03695,0 5.82089,-0.75898 8.2251,-2.15119 l 12.65418,21.89159 c -4.93518,2.91038 -8.35174,8.35165 -8.35174,14.4256 z m 16.70338,6.58013 c -3.66971,0 -6.58014,-2.91042 -6.58014,-6.58013 0,-3.6697 2.91043,-6.5801 6.58014,-6.5801 3.66969,0 6.5801,2.9104 6.5801,6.5801 0,3.66971 -2.91041,6.58013 -6.5801,6.58013 z"
         inkscape:connector-curvature="0" />
    </g>
  </g>
</svg>
