<?xml version="1.0" encoding="UTF-8" standalone="no"?>
<!-- Created with Inkscape (http://www.inkscape.org/) -->

<svg
   xmlns:dc="http://purl.org/dc/elements/1.1/"
   xmlns:cc="http://creativecommons.org/ns#"
   xmlns:rdf="http://www.w3.org/1999/02/22-rdf-syntax-ns#"
   xmlns:svg="http://www.w3.org/2000/svg"
   xmlns="http://www.w3.org/2000/svg"
   xmlns:sodipodi="http://sodipodi.sourceforge.net/DTD/sodipodi-0.dtd"
   xmlns:inkscape="http://www.inkscape.org/namespaces/inkscape"
   width="253.54495"
   height="253.54495"
   viewBox="0 0 67.08377 67.083766"
   version="1.1"
   id="svg8"
   inkscape:version="0.92+devel unknown"
   sodipodi:docname="icon_square_white.svg"
   inkscape:export-filename="/home/anxhelo/Desktop/TinHat/icon_square_black.png"
   inkscape:export-xdpi="96"
   inkscape:export-ydpi="96">
  <defs
     id="defs2" />
  <sodipodi:namedview
     id="base"
     pagecolor="#ffffff"
     bordercolor="#666666"
     borderopacity="1.0"
     inkscape:pageopacity="0.0"
     inkscape:pageshadow="2"
     inkscape:zoom="0.49497475"
     inkscape:cx="-21.282013"
     inkscape:cy="200.90278"
     inkscape:document-units="mm"
     inkscape:current-layer="g3040"
     inkscape:document-rotation="0"
     showgrid="true"
     borderlayer="true"
     inkscape:showpageshadow="false"
     units="px"
     inkscape:pagecheckerboard="false"
     showguides="true"
     inkscape:window-width="1366"
     inkscape:window-height="715"
     inkscape:window-x="0"
     inkscape:window-y="25"
     inkscape:window-maximized="1"
     fit-margin-top="0"
     fit-margin-left="0"
     fit-margin-right="0"
     fit-margin-bottom="0">
    <inkscape:grid
       type="xygrid"
       id="grid10"
       originx="-164.83459"
       originy="-86.890307" />
  </sodipodi:namedview>
  <metadata
     id="metadata5">
    <rdf:RDF>
      <cc:Work
         rdf:about="">
        <dc:format>image/svg+xml</dc:format>
        <dc:type
           rdf:resource="http://purl.org/dc/dcmitype/StillImage" />
        <dc:title></dc:title>
      </cc:Work>
    </rdf:RDF>
  </metadata>
  <g
     inkscape:label="Layer 1"
     inkscape:groupmode="layer"
     id="layer1"
     transform="translate(-164.83458,-143.02593)">
    <g
       id="g3040"
       transform="matrix(0.51267726,0,0,0.51267726,-98.775937,411.11474)">
      <rect
         id="rect3042"
         height="130.8499"
         width="130.8499"
         y="-522.91925"
         x="514.18414"
         style="fill:#bf0007;stroke-width:1.53579676;fill-opacity:1" />
      <path
         style="stroke-width:1.53579676;fill:#ffffff"
         id="path3044"
         d="m 615.85385,-449.66183 -18.5832,-32.09809 c 1.07511,-2.30369 1.53579,-4.91445 1.53579,-7.67892 0,-10.59706 -8.60048,-19.35105 -19.35105,-19.35105 -10.75056,0 -19.19743,8.75399 -19.19743,19.35105 0,2.76447 0.61433,5.37523 1.53579,7.67892 l -18.42959,32.09809 c -9.52189,1.22867 -16.89369,9.36843 -16.89369,19.19759 0,10.59695 8.60038,19.35099 19.35099,19.35099 6.29679,0 11.82563,-3.07164 15.35795,-7.67902 h 36.85913 c 3.53232,4.60738 9.06121,7.67902 15.358,7.67902 10.59701,0 19.351,-8.60048 19.351,-19.35099 0,-9.82916 -7.3718,-17.96892 -16.89369,-19.19759 z M 579.609,-496.96436 c 4.14661,0 7.67898,3.37881 7.67898,7.67897 0,4.14666 -3.37876,7.67903 -7.67898,7.67903 -4.1467,0 -7.67902,-3.37871 -7.67902,-7.67903 0,-4.30016 3.37881,-7.67897 7.67902,-7.67897 z m -33.78754,74.17904 c -4.14665,0 -7.67897,-3.37876 -7.67897,-7.67892 0,-4.14671 3.37871,-7.67903 7.67897,-7.67903 4.14666,0 7.67898,3.37866 7.67898,7.67903 0,4.1466 -3.53232,7.67892 -7.67898,7.67892 z m 48.22404,-7.67892 h -29.02655 c 0,-7.06469 -3.83954,-13.36153 -9.67555,-16.74024 l 14.59005,-25.34072 c 2.76443,1.5359 5.98963,2.45735 9.52194,2.45735 3.53232,0 6.60396,-0.92115 9.52199,-2.45735 l 14.59006,25.34072 c -5.5289,3.37871 -9.52194,9.67555 -9.52194,16.74024 z m 19.35104,7.67892 c -4.14665,0 -7.67897,-3.37876 -7.67897,-7.67892 0,-4.14671 3.37871,-7.67903 7.67897,-7.67903 4.14666,0 7.67898,3.37866 7.67898,7.67903 0,4.1466 -3.53232,7.67892 -7.67898,7.67892 z"
         inkscape:connector-curvature="0" />
    </g>
  </g>
</svg>
