<?xml version="1.0" encoding="UTF-8" standalone="no"?>
<!-- Created with Inkscape (http://www.inkscape.org/) -->

<svg
   xmlns:dc="http://purl.org/dc/elements/1.1/"
   xmlns:cc="http://creativecommons.org/ns#"
   xmlns:rdf="http://www.w3.org/1999/02/22-rdf-syntax-ns#"
   xmlns:svg="http://www.w3.org/2000/svg"
   xmlns="http://www.w3.org/2000/svg"
   xmlns:sodipodi="http://sodipodi.sourceforge.net/DTD/sodipodi-0.dtd"
   xmlns:inkscape="http://www.inkscape.org/namespaces/inkscape"
   width="396.74146"
   height="417.30957"
   viewBox="0 0 104.97118 110.41315"
   version="1.1"
   id="svg4605"
   inkscape:version="0.92.1 r"
   sodipodi:docname="vertical color.svg">
  <defs
     id="defs4599" />
  <sodipodi:namedview
     id="base"
     pagecolor="#ffffff"
     bordercolor="#666666"
     borderopacity="1.0"
     inkscape:pageopacity="0.0"
     inkscape:pageshadow="2"
     inkscape:zoom="0.35"
     inkscape:cx="-291.12706"
     inkscape:cy="257.22617"
     inkscape:document-units="mm"
     inkscape:current-layer="layer1"
     showgrid="false"
     units="px"
     fit-margin-top="0"
     fit-margin-left="0"
     fit-margin-right="0"
     fit-margin-bottom="0"
     inkscape:window-width="1366"
     inkscape:window-height="744"
     inkscape:window-x="0"
     inkscape:window-y="0"
     inkscape:window-maximized="1" />
  <metadata
     id="metadata4602">
    <rdf:RDF>
      <cc:Work
         rdf:about="">
        <dc:format>image/svg+xml</dc:format>
        <dc:type
           rdf:resource="http://purl.org/dc/dcmitype/StillImage" />
        <dc:title></dc:title>
      </cc:Work>
    </rdf:RDF>
  </metadata>
  <g
     inkscape:label="Layer 1"
     inkscape:groupmode="layer"
     id="layer1"
     transform="translate(-56.616652,-106.47794)">
    <g
       id="g5250"
       transform="matrix(1.8711432,0,0,1.8711432,-49.321214,-92.757541)">
      <g
         transform="matrix(0.35277777,0,0,-0.35277777,101.20385,123.01511)"
         id="g20">
        <path
           inkscape:connector-curvature="0"
           id="path22"
           style="fill:#2d87c8;fill-opacity:1;fill-rule:nonzero;stroke:none"
           d="m 0,0 c 0,-25.89 -20.988,-46.877 -46.877,-46.877 -25.89,0 -46.878,20.987 -46.878,46.877 0,25.89 20.988,46.877 46.878,46.877 C -20.988,46.877 0,25.89 0,0" />
      </g>
      <g
         transform="matrix(0.35277777,0,0,-0.35277777,73.863148,125.17414)"
         id="g24">
        <path
           inkscape:connector-curvature="0"
           id="path26"
           style="fill:#ffffff;fill-opacity:1;fill-rule:nonzero;stroke:none"
           d="m 0,0 c 0,9.202 7.409,16.669 16.587,16.771 0.596,6.861 6.346,12.245 13.361,12.245 h 1.74 c 7.383,0 13.369,-5.962 13.416,-13.334 3.895,-1.481 7.09,-4.372 8.974,-8.047 l 0.669,0.376 c 0.274,0.143 0.539,0.299 0.779,0.485 0.487,0.364 1.034,0.678 1.469,1.104 0.232,0.203 0.463,0.404 0.692,0.603 l 0.174,0.151 0.044,0.038 0.011,0.009 c -0.041,-0.06 0.106,0.147 -0.089,-0.131 l 0.022,0.024 0.087,0.099 0.344,0.394 c 0.444,0.516 0.966,1.073 1.192,1.454 0.29,0.427 0.636,0.809 0.869,1.328 0.561,0.961 0.931,1.965 1.232,2.92 0.12,0.491 0.236,0.961 0.345,1.408 0.056,0.461 0.109,0.899 0.159,1.311 0.128,0.836 0.096,1.575 0.21,2.221 0.029,0.63 0.058,1.149 0.105,1.517 0.04,0.367 0.082,0.576 0.082,0.576 0,0 0.14,-0.144 0.362,-0.441 0.217,-0.298 0.549,-0.744 0.867,-1.363 0.141,-0.313 0.279,-0.669 0.419,-1.065 0.153,-0.393 0.292,-0.829 0.357,-1.307 0.074,-0.482 0.154,-0.995 0.237,-1.537 0.021,-0.552 0.042,-1.133 0.065,-1.739 C 64.752,14.855 64.647,13.507 64.297,12.111 64.184,11.411 63.88,10.663 63.603,9.894 63.311,9.049 63.016,8.517 62.719,7.874 L 62.494,7.402 62.438,7.283 62.424,7.254 62.305,7.081 62.265,7.019 62.105,6.767 C 61.887,6.43 61.668,6.09 61.447,5.748 61.026,5.039 60.468,4.426 59.945,3.757 59.687,3.418 59.398,3.107 59.093,2.807 L 58.185,1.888 c 0.332,0.142 0.665,0.285 0.984,0.456 l 0.797,0.448 c 0.274,0.143 0.539,0.299 0.779,0.485 0.488,0.363 1.034,0.678 1.469,1.104 0.232,0.202 0.463,0.404 0.692,0.603 l 0.175,0.151 0.043,0.038 0.011,0.009 C 63.094,5.122 63.241,5.329 63.047,5.05 l 0.021,0.025 0.087,0.099 0.344,0.394 c 0.445,0.516 0.966,1.073 1.192,1.453 0.29,0.428 0.637,0.81 0.87,1.329 0.56,0.961 0.931,1.965 1.231,2.92 0.121,0.49 0.236,0.96 0.346,1.407 0.056,0.462 0.109,0.9 0.158,1.312 0.129,0.836 0.096,1.574 0.211,2.22 0.029,0.631 0.057,1.15 0.104,1.518 0.04,0.367 0.082,0.576 0.082,0.576 0,0 0.14,-0.144 0.362,-0.441 0.217,-0.298 0.549,-0.744 0.867,-1.363 0.141,-0.314 0.279,-0.67 0.419,-1.065 0.153,-0.394 0.292,-0.829 0.357,-1.307 0.075,-0.482 0.154,-0.996 0.238,-1.537 C 69.956,12.038 69.978,11.457 70,10.851 69.971,9.636 69.866,8.288 69.516,6.892 69.404,6.192 69.099,5.444 68.822,4.675 68.53,3.829 68.235,3.298 67.938,2.655 L 67.714,2.183 67.657,2.064 67.643,2.035 67.524,1.862 67.484,1.799 67.324,1.548 C 67.106,1.21 66.887,0.871 66.666,0.529 66.245,-0.18 65.687,-0.794 65.164,-1.462 c -0.258,-0.339 -0.547,-0.65 -0.852,-0.95 l -0.91,-0.921 c -0.622,-0.604 -1.319,-1.133 -2.003,-1.693 -0.724,-0.492 -1.456,-1 -2.219,-1.45 -0.785,-0.4 -1.552,-0.873 -2.373,-1.196 -0.818,-0.33 -1.629,-0.705 -2.474,-0.93 -0.324,-0.096 -0.644,-0.192 -0.964,-0.288 -2.966,-4.735 -8.226,-7.886 -14.225,-7.886 H 16.776 C 7.167,-15.954 -0.919,-7.067 0,0" />
      </g>
      <g
         transform="matrix(0.35277777,0,0,-0.35277777,66.234081,144.72265)"
         id="g28">
        <path
           inkscape:connector-curvature="0"
           id="path30"
           style="fill:#404041;fill-opacity:1;fill-rule:nonzero;stroke:none"
           d="m 0,0 v -15.178 h 2.518 v -4.1 h -9.387 v 4.1 h 2.049 v 8.92 h -0.143 l -6.15,-11.114 h -2.015 l -6.617,11.545 h -0.144 v -9.351 h 2.23 v -4.1 h -9.243 v 4.1 h 2.517 V 0 h -2.877 v 4.1 h 6.905 l 8.308,-14.495 h 0.144 L -4.1,4.1 H 2.877 V 0 Z" />
      </g>
      <g
         transform="matrix(0.35277777,0,0,-0.35277777,71.488318,149.1129)"
         id="g32">
        <path
           inkscape:connector-curvature="0"
           id="path34"
           style="fill:#404041;fill-opacity:1;fill-rule:nonzero;stroke:none"
           d="m 0,0 c -0.755,0.108 -1.583,0.216 -2.338,0.216 -1.654,0 -3.093,-0.468 -3.093,-2.23 0,-1.043 0.504,-1.87 1.907,-1.87 1.618,0 3.308,1.115 3.524,3.669 z m -1.798,9.711 c 3.489,0 6.437,-1.798 6.437,-5.503 V -2.841 C 4.639,-3.776 5,-4.1 5.755,-4.1 c 0.215,0 0.431,0.036 0.683,0.108 L 6.474,-6.438 C 5.611,-6.905 4.568,-7.193 3.561,-7.193 1.403,-7.193 0.216,-5.934 0,-3.992 v 0.036 c -0.935,-1.654 -2.589,-3.237 -5.215,-3.237 -2.338,0 -4.999,1.259 -4.999,4.64 0,3.992 3.848,4.927 7.553,4.927 0.899,0 1.834,-0.036 2.661,-0.144 v 0.539 c 0,1.655 -0.036,3.633 -2.661,3.633 -0.971,0 -1.727,-0.072 -2.482,-0.467 L -5.755,3.633 -9.459,4.028 -8.74,8.237 c 2.842,1.15 4.28,1.474 6.942,1.474" />
      </g>
      <g
         transform="matrix(0.35277777,0,0,-0.35277777,76.767426,151.6504)"
         id="g36">
        <path
           inkscape:connector-curvature="0"
           id="path38"
           style="fill:#404041;fill-opacity:1;fill-rule:nonzero;stroke:none"
           d="m 0,0 c -2.338,0 -4.784,0.468 -6.941,1.583 l 0.647,4.531 3.597,-0.395 V 3.704 c 0.863,-0.287 1.942,-0.323 2.445,-0.323 1.762,0 3.273,0.575 3.273,1.726 0,2.769 -9.783,0.324 -9.783,6.762 0,3.992 3.813,5.035 7.122,5.035 2.158,0 4.064,-0.432 6.078,-1.475 L 6.833,11.293 3.237,10.898 2.949,13.163 c -0.863,0.288 -1.798,0.396 -2.553,0.396 -1.187,0 -2.158,-0.467 -2.158,-1.547 0,-2.805 9.459,-0.431 9.459,-6.689 C 7.697,1.726 4.531,0 0,0" />
      </g>
      <g
         transform="matrix(0.35277777,0,0,-0.35277777,82.807652,151.6504)"
         id="g40">
        <path
           inkscape:connector-curvature="0"
           id="path42"
           style="fill:#404041;fill-opacity:1;fill-rule:nonzero;stroke:none"
           d="m 0,0 c -3.596,0 -6.042,1.87 -6.042,5.215 v 8.056 h -2.302 v 3.309 h 2.302 v 4.928 h 4.639 V 16.58 H 4.424 V 13.271 H -1.403 V 6.006 c 0,-1.546 0.792,-2.122 1.943,-2.122 0.575,0 1.834,0.144 2.122,2.554 L 6.043,5.395 C 5.575,1.654 3.381,0 0,0" />
      </g>
      <g
         transform="matrix(0.35277777,0,0,-0.35277777,88.137242,146.93051)"
         id="g44">
        <path
           inkscape:connector-curvature="0"
           id="path46"
           style="fill:#404041;fill-opacity:1;fill-rule:nonzero;stroke:none"
           d="m 0,0 c -2.373,0 -3.848,-1.798 -3.848,-4.855 0,-2.77 1.295,-4.964 3.812,-4.964 2.41,0 3.993,1.943 3.993,5.036 C 3.957,-1.475 2.194,0 0,0 m -0.179,-13.379 c -5,0 -8.453,3.057 -8.453,8.272 0,4.747 2.877,8.668 8.704,8.668 5.863,0 8.668,-3.921 8.668,-8.488 0,-5.143 -3.74,-8.452 -8.919,-8.452" />
      </g>
      <g
         transform="matrix(0.35277777,0,0,-0.35277777,96.131646,148.49102)"
         id="g48">
        <path
           inkscape:connector-curvature="0"
           id="path50"
           style="fill:#404041;fill-opacity:1;fill-rule:nonzero;stroke:none"
           d="m 0,0 c 0,2.697 -1.583,4.28 -3.705,4.28 -2.05,0 -3.884,-1.475 -3.884,-4.784 0,-3.093 1.654,-4.783 3.632,-4.783 2.447,0 3.957,2.481 3.957,4.891 z m 0,-8.596 v 3.021 c -0.935,-1.87 -2.59,-3.381 -5.539,-3.381 -4.244,0 -6.869,3.129 -6.869,8.165 0,4.819 2.374,8.739 7.229,8.739 2.661,0 4.28,-1.15 5.179,-2.805 v 7.481 h -3.237 v 3.525 H 4.639 V -5.108 h 2.159 v -3.488 z" />
      </g>
      <g
         transform="matrix(0.35277777,0,0,-0.35277777,102.00691,146.93051)"
         id="g52">
        <path
           inkscape:connector-curvature="0"
           id="path54"
           style="fill:#404041;fill-opacity:1;fill-rule:nonzero;stroke:none"
           d="m 0,0 c -2.373,0 -3.848,-1.798 -3.848,-4.855 0,-2.77 1.295,-4.964 3.812,-4.964 2.41,0 3.993,1.943 3.993,5.036 C 3.957,-1.475 2.194,0 0,0 m -0.179,-13.379 c -5,0 -8.453,3.057 -8.453,8.272 0,4.747 2.877,8.668 8.704,8.668 5.863,0 8.668,-3.921 8.668,-8.488 0,-5.143 -3.74,-8.452 -8.919,-8.452" />
      </g>
      <g
         transform="matrix(0.35277777,0,0,-0.35277777,109.5572,151.52354)"
         id="g56">
        <path
           inkscape:connector-curvature="0"
           id="path58"
           style="fill:#404041;fill-opacity:1;fill-rule:nonzero;stroke:none"
           d="m 0,0 v 3.488 h 2.158 v 5.647 c 0,2.806 -0.936,3.885 -2.77,3.885 -2.194,0 -3.453,-1.511 -3.488,-3.705 V 3.488 h 2.158 V 0 h -8.956 v 3.488 h 2.158 v 9.208 h -2.338 v 3.525 H -4.1 v -2.482 c 1.007,1.763 2.841,2.806 5.215,2.806 3.057,0 5.683,-1.763 5.683,-5.611 V 3.488 H 8.956 V 0 Z" />
      </g>
      <path
         inkscape:connector-curvature="0"
         id="path60"
         style="fill:#2d87c8;fill-opacity:1;fill-rule:nonzero;stroke:none;stroke-width:0.35277775"
         d="M 100.98258,165.48634 H 68.350643 v -11.05358 h 32.631937 z" />
      <path
         inkscape:connector-curvature="0"
         id="path62"
         style="fill:#ffffff;fill-opacity:1;fill-rule:nonzero;stroke:none;stroke-width:0.35277775"
         d="m 69.648159,162.23726 h 1.367014 v 1.48731 h -1.367014 z" />
      <g
         transform="matrix(0.35277777,0,0,-0.35277777,74.529368,163.84427)"
         id="g64">
        <path
           inkscape:connector-curvature="0"
           id="path66"
           style="fill:#ffffff;fill-opacity:1;fill-rule:nonzero;stroke:none"
           d="m 0,0 c -4.25,0 -7.105,2.754 -7.105,7.684 0,4.588 2.72,8.158 7.343,8.158 1.904,0 3.672,-0.407 5.27,-1.529 L 6.12,10.369 3.706,10.097 3.162,12.646 c -0.884,0.51 -1.836,0.749 -2.958,0.749 -2.855,0 -4.182,-2.278 -4.182,-5.541 0,-3.401 1.462,-5.407 4.284,-5.407 2.176,0 3.366,1.258 3.774,3.672 L 6.596,5.609 C 6.222,2.924 4.386,0 0,0" />
      </g>
      <g
         transform="matrix(0.35277777,0,0,-0.35277777,77.4322,163.72439)"
         id="g68">
        <path
           inkscape:connector-curvature="0"
           id="path70"
           style="fill:#ffffff;fill-opacity:1;fill-rule:nonzero;stroke:none"
           d="M 0,0 V 2.312 H 2.447 V 21.044 H -0.102 V 23.39 H 5.439 V 2.312 H 7.887 V 0 Z" />
      </g>
      <g
         transform="matrix(0.35277777,0,0,-0.35277777,83.536913,159.09486)"
         id="g72">
        <path
           inkscape:connector-curvature="0"
           id="path74"
           style="fill:#ffffff;fill-opacity:1;fill-rule:nonzero;stroke:none"
           d="m 0,0 c -2.924,0 -4.556,-2.278 -4.556,-5.508 0,-3.094 1.53,-5.541 4.522,-5.541 2.957,0 4.623,2.346 4.623,5.61 C 4.589,-2.108 2.821,0 0,0 m -0.136,-13.463 c -4.624,0 -7.513,3.128 -7.513,7.785 0,4.453 2.617,8.091 7.717,8.091 5.099,0 7.649,-3.638 7.649,-7.955 0,-4.657 -3.128,-7.921 -7.853,-7.921" />
      </g>
      <g
         transform="matrix(0.35277777,0,0,-0.35277777,91.32078,163.72439)"
         id="g76">
        <path
           inkscape:connector-curvature="0"
           id="path78"
           style="fill:#ffffff;fill-opacity:1;fill-rule:nonzero;stroke:none"
           d="m 0,0 v 2.72 c -0.951,-1.87 -2.787,-3.06 -5.133,-3.06 -2.958,0 -5.304,1.734 -5.304,5.644 v 7.547 h -2.447 v 2.345 h 5.439 V 6.289 c 0,-3.094 1.292,-4.215 3.332,-4.215 2.448,0 4.08,2.142 4.113,4.318 v 6.459 h -2.957 v 2.345 H 2.992 V 2.312 h 2.55 V 0 Z" />
      </g>
      <g
         transform="matrix(0.35277777,0,0,-0.35277777,98.037315,160.60623)"
         id="g80">
        <path
           inkscape:connector-curvature="0"
           id="path82"
           style="fill:#ffffff;fill-opacity:1;fill-rule:nonzero;stroke:none"
           d="m 0,0 c -0.067,2.516 -1.937,4.216 -4.249,4.216 -2.924,0 -4.487,-2.447 -4.487,-5.644 0,-3.433 1.835,-5.303 4.249,-5.303 2.584,0 4.42,2.618 4.487,4.895 z m 0,-8.839 v 2.992 c -0.951,-1.802 -2.583,-3.332 -5.371,-3.332 -3.943,0 -6.493,2.856 -6.493,7.581 0,4.182 2.006,8.261 6.833,8.261 2.311,0 4.08,-1.019 5.031,-2.719 v 8.261 h -3.501 v 2.346 H 2.958 V -6.527 h 2.448 v -2.312 z" />
      </g>
    </g>
  </g>
</svg>
