<svg width="444" height="394" viewBox="0 0 444 394" fill="none" xmlns="http://www.w3.org/2000/svg">
<path d="M415.479 72.7011C379.387 63.9893 340.806 69.5898 308.448 90.1248C299.113 95.7253 290.402 102.57 282.934 110.66C274.222 119.372 266.755 129.328 260.532 139.285C253.687 117.505 243.109 96.3476 228.796 77.6793C223.818 70.8343 218.218 64.6116 211.995 58.3888C160.968 7.3623 90.6514 -10.0614 25.9348 5.49547C25.9348 5.49547 24.068 10.4737 24.068 11.7182V12.3405C19.712 28.5196 17.8452 45.9433 17.8452 63.9893C17.8452 179.11 111.186 272.451 226.307 272.451C291.646 272.451 349.518 242.582 388.099 195.289C416.101 159.82 425.435 114.394 415.479 72.7011Z" fill="#48AD9C"/>
<path fill-rule="evenodd" clip-rule="evenodd" d="M35.6831 357.665V278.125H0V393.348H444V278.125H408.317V357.665H35.6831Z" fill="#1F2937"/>
</svg>
