<svg width="1333" height="166" viewBox="0 0 1333 166" fill="none" xmlns="http://www.w3.org/2000/svg">
<path d="M190.027 1.92896V15.3527H203.071V130.658H220.04V15.3527V1.92896H203.071H190.027Z" fill="black"/>
<path d="M259.613 7.88403H243.53V36.5045H227.32V49.1684H243.53V98.5577C243.2 105.44 244.593 112.295 247.582 118.503C250.273 123.207 254.531 126.815 259.613 128.698C265.493 130.836 271.719 131.867 277.975 131.737H292.412V116.54H275.633C271.305 116.808 267.048 115.351 263.792 112.488C262.352 110.886 261.241 109.015 260.524 106.983C259.807 104.952 259.497 102.799 259.613 100.647V49.1684H292.032V36.5045H259.613V7.88403Z" fill="black"/>
<path d="M70.7913 108.245C68.3093 111.48 65.0984 114.083 61.42 115.843C57.1183 117.832 52.4175 118.807 47.6796 118.692C41.6214 118.869 35.6478 117.238 30.52 114.007C26.0613 110.81 22.594 106.421 20.5155 101.343C18.2152 95.6748 17.0741 89.6033 17.1596 83.4868C17.0376 77.3262 18.1798 71.206 20.5155 65.504C22.5571 60.4049 26.0319 56.0064 30.52 52.8401C35.5219 49.6549 41.3737 48.0649 47.2997 48.2811C54.013 47.9385 60.6173 50.0799 65.8524 54.2965C70.3143 57.9652 73.2122 63.195 73.9573 68.9233H90.1671C89.9323 62.1132 87.7334 55.5163 83.8351 49.9274C80.0112 44.4066 74.7583 40.0291 68.6384 37.2635C62.0051 34.2351 54.7808 32.721 47.4897 32.8311C40.3792 32.6943 33.3277 34.1436 26.8475 37.0735C21.0497 39.8636 15.9289 43.8825 11.8408 48.851C7.9792 53.4377 4.99561 58.6966 3.03934 64.3643C1.08509 70.03 0.0587641 75.9741 0 81.9671L0 85.1331C0.0183212 91.0105 0.980362 96.8469 2.84938 102.419C4.85802 108.179 7.83452 113.554 11.6508 118.313C15.6567 123.08 20.6464 126.925 26.2776 129.583C32.9454 132.556 40.1916 134.005 47.4897 133.826C54.8851 133.96 62.2175 132.446 68.955 129.393C75.1509 126.584 80.5163 122.221 84.5316 116.73C88.4597 111.156 90.6617 104.55 90.8636 97.7337H74.9704C74.5243 101.544 73.083 105.169 70.7913 108.245V108.245Z" fill="black"/>
<path d="M596.788 21.3072C598.303 21.4285 599.826 21.2259 601.256 20.7127C602.686 20.1996 603.991 19.3878 605.083 18.3312C606.953 16.2503 607.951 13.5295 607.869 10.7329C607.951 7.93625 606.953 5.21542 605.083 3.13452C604.002 2.05528 602.702 1.21999 601.271 0.684828C599.841 0.149662 598.312 -0.0729833 596.788 0.0318624C595.245 -0.0847425 593.694 0.119484 592.234 0.631675C590.774 1.14387 589.435 1.95292 588.303 3.00788C586.501 5.12082 585.552 7.83056 585.644 10.6062C585.552 13.3819 586.501 16.0916 588.303 18.2046C589.425 19.2822 590.758 20.1146 592.219 20.6487C593.68 21.1829 595.236 21.4071 596.788 21.3072Z" fill="black"/>
<path d="M163.808 92.5405C164.015 95.9947 163.528 99.4553 162.375 102.718C161.222 105.981 159.427 108.979 157.096 111.536C154.814 113.755 152.105 115.488 149.134 116.631C146.163 117.774 142.991 118.302 139.81 118.185C136.816 118.32 133.826 117.826 131.035 116.735C128.243 115.645 125.71 113.982 123.6 111.853C119.367 107.05 117.204 100.768 117.585 94.3768V36.3127H100.678V90.9575C99.8995 102.236 103.079 113.432 109.67 122.617C112.831 126.288 116.793 129.185 121.25 131.084C125.707 132.983 130.54 133.834 135.378 133.572H136.074C142.616 133.848 149.088 132.125 154.627 128.633C159.728 125.003 163.595 119.899 165.708 114.006C166.349 112.376 166.877 110.705 167.291 109.004V130.786H180.714V36.3127H163.808V92.5405Z" fill="black"/>
<path d="M314.001 21.3066C315.516 21.4363 317.041 21.2375 318.473 20.7239C319.904 20.2103 321.208 19.394 322.295 18.3306C324.206 16.2702 325.229 13.5409 325.145 10.7323C325.229 7.92362 324.206 5.19437 322.295 3.13393C321.219 2.04784 319.92 1.20803 318.488 0.672393C317.056 0.136751 315.525 -0.081984 314.001 0.0312667C312.467 -0.0841676 310.926 0.120814 309.477 0.633172C308.027 1.14553 306.699 1.95405 305.579 3.00729C303.777 5.12023 302.828 7.82996 302.92 10.6056C302.828 13.3813 303.777 16.091 305.579 18.204C306.689 19.2799 308.011 20.1117 309.462 20.6461C310.912 21.1804 312.458 21.4054 314.001 21.3066Z" fill="black"/>
<path d="M294.752 36.5044V49.9281H309.252V130.661H326.158V49.9281V36.5044H309.252H294.752Z" fill="black"/>
<path d="M710.831 48.6605C706.365 43.8813 700.952 40.0858 694.937 37.5162C681.274 31.8595 665.923 31.8595 652.26 37.5162C646.264 40.0869 640.872 43.8829 636.43 48.6605C632.215 53.1956 628.963 58.5374 626.869 64.3637C624.637 69.9635 623.498 75.9386 623.513 81.9666V85.1326C623.495 91.164 624.567 97.149 626.679 102.799C628.92 108.582 632.203 113.905 636.367 118.502C640.868 123.196 646.246 126.96 652.197 129.583C666.101 135.239 681.666 135.239 695.571 129.583C701.38 127.057 706.618 123.381 710.971 118.779C715.324 114.176 718.7 108.74 720.898 102.799C723.1 97.1682 724.238 91.1781 724.254 85.1326V81.9666C724.237 75.9416 723.099 69.9724 720.898 64.3637C718.654 58.4947 715.227 53.1496 710.831 48.6605V48.6605ZM702.852 101.342C700.306 106.562 696.332 110.954 691.392 114.006C685.951 117.208 679.718 118.81 673.409 118.629C667.042 118.782 660.756 117.183 655.236 114.006C650.354 110.883 646.397 106.51 643.775 101.342C641.132 95.7663 639.811 89.6561 639.913 83.4863C639.797 77.2533 641.188 71.0845 643.965 65.5035C646.588 60.276 650.625 55.8886 655.616 52.8396C661.08 49.8467 667.21 48.278 673.44 48.278C679.671 48.278 685.801 49.8467 691.265 52.8396C696.237 55.8925 700.252 60.2804 702.852 65.5035C705.63 71.0845 707.02 77.2533 706.905 83.4863C707.005 89.6771 705.615 95.8012 702.852 101.342V101.342Z" fill="black"/>
<path d="M811.124 44.798C807.994 41.0102 804.006 38.0233 799.491 36.0852C794.976 34.147 790.064 33.3135 785.163 33.6538H784.466C777.581 33.3939 770.773 35.1785 764.9 38.7827C759.549 42.2832 755.465 47.4109 753.249 53.4095C752.618 55.0207 752.089 56.6703 751.666 58.3484V36.5032H738.243V130.659H755.212V74.3683C755.055 71.0141 755.58 67.6629 756.756 64.5175C757.931 61.3721 759.732 58.498 762.051 56.0689C764.418 53.7512 767.235 51.9431 770.328 50.7561C773.42 49.569 776.724 49.0283 780.034 49.1671C783.179 48.992 786.325 49.5015 789.255 50.6602C792.185 51.819 794.828 53.5995 797.003 55.879C801.333 60.6431 803.609 66.9232 803.335 73.3552V130.343H820.305V76.5211C820.84 65.222 817.611 54.0647 811.124 44.798V44.798Z" fill="black"/>
<path d="M577.537 36.5044V49.9281H591.974V130.661H608.944V49.9281V36.5044H591.974H577.537Z" fill="black"/>
<path d="M542.521 7.88403H526.248V36.5045H510.038V49.1684H526.248V98.5577C525.95 105.437 527.341 112.285 530.3 118.503C532.952 123.166 537.136 126.768 542.141 128.698C548.019 130.845 554.247 131.876 560.504 131.737H574.941V116.54H558.351C556.217 116.678 554.077 116.391 552.056 115.696C550.034 115 548.17 113.91 546.573 112.488C543.711 109.232 542.254 104.975 542.521 100.647V49.1684H574.941V36.5045H542.521V7.88403Z" fill="black"/>
<path d="M383.783 117.237H379.983L353.073 36.5044H335.47L367.573 130.661H371.752H379.92H384.479H392.204H395.94L423.801 36.5044H407.211L383.783 117.237Z" fill="black"/>
<path d="M486.233 38.9738C478.622 36.3517 470.595 35.1498 462.551 35.4279H453.75C450.71 35.4279 447.418 35.4279 444.758 35.4279C442.099 35.4279 439.249 35.4279 436.653 35.9978V51.3211C439.249 51.3211 442.289 50.8779 445.835 50.7513H456.916H468.186C470.841 50.5491 473.509 50.882 476.033 51.7304C478.556 52.5788 480.883 53.9254 482.877 55.6902C484.668 57.6576 486.041 59.9687 486.912 62.4832C487.783 64.9976 488.133 67.6629 487.942 70.317V72.5965H464.134C457.047 72.428 449.995 73.6321 443.365 76.1424C438.012 78.0363 433.385 81.5564 430.131 86.2102C427.007 91.2099 425.462 97.0355 425.699 102.927C425.549 108.719 426.948 114.446 429.751 119.516C432.589 124.115 436.703 127.789 441.592 130.091C447.391 132.565 453.651 133.774 459.955 133.637C465.73 133.805 471.462 132.589 476.671 130.091C481.297 127.702 485.093 123.972 487.562 119.39C488.919 117.038 489.983 114.529 490.728 111.918V130.914H504.152V71.0768C504.483 63.8068 502.958 56.5723 499.72 50.0547C496.736 44.8308 491.936 40.8868 486.233 38.9738V38.9738ZM483.89 110.208C481.694 113.515 478.564 116.094 474.898 117.617C471.24 119.016 467.354 119.725 463.437 119.706C457.801 120.073 452.223 118.386 447.734 114.957C445.934 113.391 444.51 111.439 443.567 109.246C442.624 107.054 442.187 104.678 442.289 102.293C442.223 99.9138 442.676 97.5484 443.616 95.3615C444.557 93.1746 445.962 91.2186 447.734 89.6295C452.171 86.0846 457.771 84.3234 463.437 84.6905H487.942V95.5815C488.052 100.749 486.643 105.834 483.89 110.208V110.208Z" fill="black"/>
<path d="M933.966 84.4359C926.74 79.497 918.321 76.5885 909.588 76.0144L899.14 74.938C894.826 74.7605 890.652 73.3546 887.109 70.8855C885.947 69.8096 885.033 68.493 884.431 67.0276C883.83 65.5621 883.555 63.9831 883.627 62.4007C883.607 60.4133 884.055 58.4492 884.935 56.6672C885.815 54.8852 887.102 53.3353 888.692 52.1429C893.109 49.169 898.386 47.7438 903.699 48.0905C908.955 47.7227 914.179 49.1516 918.516 52.1429C920.088 53.2101 921.388 54.6309 922.312 56.2914C923.235 57.9518 923.757 59.8057 923.835 61.7042H939.665C939.816 57.6334 938.965 53.5877 937.188 49.9223C935.41 46.257 932.76 43.084 929.47 40.6821C921.83 35.6944 912.814 33.2356 903.699 33.6536C897.295 33.5394 890.937 34.7465 885.02 37.1995C879.939 39.2097 875.543 42.6385 872.356 47.0773C869.222 51.559 867.622 56.9347 867.797 62.4007C867.576 66.0163 868.232 69.6319 869.709 72.9393C871.187 76.2468 873.442 79.1482 876.282 81.3966C882.672 86.051 890.241 88.8155 898.127 89.3748L908.385 90.3879C913.439 90.5975 918.351 92.1256 922.632 94.8203C924.074 95.8189 925.237 97.1685 926.013 98.7417C926.788 100.315 927.15 102.06 927.064 103.812C927.035 106.008 926.472 108.164 925.424 110.094C924.376 112.025 922.874 113.671 921.049 114.893C915.908 118.179 909.85 119.732 903.762 119.325C897.555 119.637 891.435 117.754 886.476 114.006C883.388 111.378 881.437 107.656 881.031 103.622H865.138C865.083 107.787 865.992 111.909 867.793 115.666C869.595 119.422 872.24 122.711 875.522 125.277C883.945 131.072 894.065 133.88 904.269 133.255C911.226 133.378 918.136 132.107 924.595 129.519C930.013 127.244 934.748 123.6 938.335 118.945C941.73 114.42 943.533 108.899 943.464 103.242C943.549 99.5679 942.726 95.9298 941.07 92.6496C939.413 89.3694 936.973 86.5482 933.966 84.4359V84.4359Z" fill="black"/>
<path d="M856.339 109.13H835.887V130.659H856.339V109.13Z" fill="black"/>
<path d="M1332.25 79.1792C1332.3 71.5066 1330.59 63.9247 1327.25 57.0174C1324.07 50.0572 1318.94 44.1643 1312.49 40.0477C1304.92 35.3091 1296.09 32.9696 1287.17 33.3359C1280.05 33.1991 1273 34.6483 1266.52 37.5783C1260.98 40.1414 1256.1 43.9561 1252.28 48.7225C1248.49 53.3083 1245.61 58.5731 1243.79 64.2358C1242.02 70.0003 1241.12 75.9981 1241.13 82.0286V85.1946C1241.13 91.1834 1242.02 97.1387 1243.79 102.861C1245.65 108.564 1248.52 113.884 1252.28 118.564C1256.25 123.323 1261.25 127.112 1266.9 129.645C1273.61 132.63 1280.9 134.079 1288.24 133.887C1295.07 134.006 1301.85 132.758 1308.19 130.215C1313.94 127.89 1319.01 124.143 1322.92 119.326C1326.83 114.509 1329.45 108.778 1330.54 102.671H1314.71C1313.46 107.391 1310.45 111.449 1306.29 114.005C1300.97 117.515 1294.67 119.244 1288.31 118.944C1282.16 119.18 1276.08 117.593 1270.83 114.385C1266.27 111.243 1262.73 106.843 1260.63 101.721C1258.81 96.9192 1257.78 91.8493 1257.6 86.7143H1332.25V79.1792ZM1270.51 52.7117C1275.48 49.498 1281.31 47.8847 1287.23 48.0893C1292.86 47.8923 1298.44 49.2974 1303.31 52.1418C1307.56 54.9413 1310.87 58.9573 1312.81 63.6659C1314.2 66.9827 1315.12 70.4784 1315.53 74.0504H1258.54C1258.99 71.0305 1259.8 68.0754 1260.95 65.2489C1262.87 60.2381 1266.19 55.8855 1270.51 52.7117V52.7117Z" fill="black"/>
<path d="M1217.13 108.244C1214.68 111.487 1211.49 114.093 1207.82 115.843C1203.5 117.832 1198.78 118.807 1194.02 118.692C1187.99 118.879 1182.04 117.27 1176.92 114.07C1172.46 110.859 1168.98 106.476 1166.86 101.406C1164.61 95.7249 1163.49 89.6593 1163.56 83.5496C1163.45 77.3959 1164.57 71.2821 1166.86 65.5668C1168.95 60.4778 1172.44 56.0863 1176.92 52.9029C1181.93 49.7177 1187.78 48.1278 1193.7 48.3439C1200.4 47.9991 1206.98 50.1416 1212.19 54.3593C1216.67 58.0112 1219.58 63.2496 1220.3 68.9861H1236.57C1236.34 62.176 1234.14 55.5791 1230.24 49.9902C1226.4 44.4822 1221.15 40.1081 1215.04 37.3263C1208.41 34.3039 1201.18 32.7902 1193.89 32.8939C1186.78 32.7508 1179.73 34.2003 1173.25 37.1364C1167.56 39.8205 1162.51 43.6842 1158.43 48.4706C1154.55 53.0411 1151.56 58.3045 1149.63 63.9839C1147.74 69.6602 1146.78 75.6041 1146.78 81.5867V84.7527C1146.8 90.6301 1147.76 96.4665 1149.63 102.039C1151.62 107.81 1154.59 113.189 1158.43 117.932C1162.41 122.728 1167.41 126.578 1173.06 129.203C1179.71 132.174 1186.93 133.624 1194.21 133.445C1201.63 133.585 1208.98 132.07 1215.74 129.013C1221.92 126.201 1227.26 121.839 1231.25 116.349C1235.21 110.789 1237.41 104.175 1237.58 97.3533H1221.37C1220.97 101.3 1219.5 105.064 1217.13 108.244V108.244Z" fill="black"/>
<path d="M1039.07 47.7749C1032.57 40.6517 1023.92 35.8455 1014.43 34.0856C1004.95 32.3258 995.146 33.7084 986.518 38.0236C980.34 41.2203 975.25 46.1786 971.892 52.2706C970.627 54.5932 969.588 57.0316 968.789 59.5523V36.504H955.365V165.929H972.272V116.413C975.746 121.983 980.7 126.478 986.582 129.394C992.497 132.29 998.992 133.806 1005.58 133.826C1011.89 133.92 1018.14 132.601 1023.88 129.964C1029.4 127.472 1034.36 123.873 1038.44 119.389C1042.57 114.87 1045.79 109.605 1047.94 103.876C1050.21 97.8034 1051.35 91.3643 1051.29 84.8801V81.7142C1051.32 75.352 1050.25 69.033 1048.13 63.0349C1046.13 57.4091 1043.05 52.2262 1039.07 47.7749V47.7749ZM1030.59 102.103C1028.2 107.331 1024.32 111.731 1019.42 114.742C1014.53 117.753 1008.85 119.238 1003.11 119.009C997.717 119.052 992.395 117.792 987.595 115.337C982.602 112.815 978.435 108.918 975.585 104.104C972.735 99.2912 971.322 93.7631 971.512 88.1728V80.0679C971.354 74.0703 972.82 68.1416 975.754 62.9082C978.549 58.2647 982.584 54.493 987.405 52.0173C992.226 49.4097 997.627 48.0595 1003.11 48.0915C1008.97 47.9823 1014.74 49.5889 1019.7 52.7138C1024.44 55.6993 1028.22 59.9856 1030.59 65.0611C1033.31 70.8392 1034.65 77.1671 1034.51 83.5504C1034.62 89.9514 1033.28 96.2936 1030.59 102.103V102.103Z" fill="black"/>
<path d="M1116.96 38.9738C1109.35 36.3517 1101.32 35.1498 1093.27 35.4279H1084.47C1081.43 35.4279 1078.14 35.4279 1075.48 35.4279C1072.82 35.4279 1069.97 35.4279 1067.38 35.9978V51.3211C1069.97 51.3211 1073.01 50.8779 1076.56 50.7513H1087.64H1098.97C1101.62 50.5541 1104.27 50.8896 1106.79 51.738C1109.3 52.5863 1111.62 53.9303 1113.6 55.6902C1115.4 57.6492 1116.78 59.9591 1117.66 62.4758C1118.53 64.9924 1118.87 67.6617 1118.67 70.317V72.5965H1094.86C1087.77 72.428 1080.72 73.6321 1074.09 76.1424C1068.74 78.0363 1064.11 81.5564 1060.85 86.2102C1057.76 91.2223 1056.22 97.039 1056.42 102.927C1056.27 108.719 1057.67 114.446 1060.47 119.516C1063.31 124.115 1067.43 127.789 1072.32 130.091C1078.11 132.565 1084.37 133.774 1090.68 133.637C1096.45 133.805 1102.18 132.589 1107.39 130.091C1111.99 127.873 1115.81 124.32 1118.35 119.896C1119.71 117.545 1120.77 115.035 1121.51 112.425V131.42H1134.94V71.0768C1135.3 63.8043 1133.77 56.5619 1130.51 50.0547C1127.51 44.8188 1122.68 40.8732 1116.96 38.9738V38.9738ZM1114.42 110.208C1112.23 113.515 1109.1 116.094 1105.43 117.617C1101.77 119.016 1097.89 119.725 1093.97 119.706C1088.35 120.081 1082.79 118.392 1078.33 114.957C1076.51 113.403 1075.07 111.455 1074.12 109.261C1073.16 107.066 1072.72 104.684 1072.82 102.293C1072.76 99.9077 1073.21 97.5366 1074.17 95.3481C1075.12 93.1596 1076.54 91.2072 1078.33 89.6295C1082.74 86.0721 1088.32 84.3083 1093.97 84.6905H1118.48V95.5815C1118.59 100.749 1117.18 105.834 1114.42 110.208V110.208Z" fill="black"/>
</svg>
