<svg width="1598" height="192" viewBox="0 0 1598 192" fill="none" xmlns="http://www.w3.org/2000/svg">
<path d="M455.775 27.0991V40.5229H468.819V155.828H485.789V40.5229V27.0991H468.819H455.775Z" fill="#328378"/>
<path d="M525.361 33.0542H509.278V61.6747H493.068V74.3386H509.278V123.728C508.949 130.61 510.342 137.466 513.331 143.674C516.022 148.377 520.28 151.985 525.361 153.868C531.242 156.007 537.468 157.037 543.724 156.907H558.161V141.711H541.381C537.054 141.978 532.796 140.521 529.54 137.658C528.1 136.056 526.99 134.185 526.273 132.154C525.556 130.122 525.246 127.969 525.361 125.817V74.3386H557.781V61.6747H525.361V33.0542Z" fill="#328378"/>
<path d="M336.54 133.415C334.058 136.65 330.847 139.253 327.169 141.013C322.867 143.002 318.166 143.977 313.429 143.862C307.37 144.039 301.397 142.408 296.269 139.177C291.81 135.98 288.343 131.59 286.265 126.513C283.964 120.845 282.823 114.773 282.909 108.657C282.787 102.496 283.929 96.3759 286.265 90.6739C288.306 85.5749 291.781 81.1763 296.269 78.01C301.271 74.8248 307.123 73.2349 313.049 73.451C319.762 73.1085 326.366 75.2498 331.601 79.4664C336.063 83.1351 338.961 88.3649 339.706 94.0932H355.916C355.681 87.2831 353.482 80.6862 349.584 75.0973C345.76 69.5765 340.507 65.1991 334.387 62.4334C327.754 59.405 320.53 57.8909 313.239 58.001C306.128 57.8643 299.077 59.3135 292.597 62.2435C286.799 65.0335 281.678 69.0524 277.59 74.0209C273.728 78.6076 270.745 83.8665 268.788 89.5342C266.834 95.1999 265.808 101.144 265.749 107.137V110.303C265.767 116.18 266.729 122.017 268.598 127.589C270.607 133.349 273.584 138.724 277.4 143.482C281.406 148.25 286.395 152.095 292.027 154.753C298.694 157.726 305.941 159.175 313.239 158.996C320.634 159.13 327.967 157.616 334.704 154.563C340.9 151.754 346.265 147.391 350.281 141.899C354.209 136.326 356.411 129.72 356.613 122.904H340.719C340.273 126.713 338.832 130.339 336.54 133.415V133.415Z" fill="#328378"/>
<path d="M862.537 46.4772C864.052 46.5985 865.575 46.3958 867.005 45.8827C868.435 45.3695 869.74 44.5577 870.832 43.5011C872.702 41.4202 873.7 38.6994 873.618 35.9028C873.7 33.1062 872.702 30.3853 870.832 28.3044C869.751 27.2252 868.451 26.3899 867.02 25.8548C865.59 25.3196 864.061 25.0969 862.537 25.2018C860.994 25.0852 859.443 25.2894 857.983 25.8016C856.523 26.3138 855.184 27.1228 854.052 28.1778C852.25 30.2907 851.301 33.0005 851.393 35.7762C851.301 38.5518 852.25 41.2616 854.052 43.3745C855.174 44.4521 856.507 45.2845 857.968 45.8186C859.429 46.3528 860.985 46.5771 862.537 46.4772Z" fill="#328378"/>
<path d="M429.558 117.71C429.765 121.164 429.277 124.625 428.125 127.888C426.972 131.15 425.177 134.149 422.846 136.706C420.563 138.925 417.855 140.658 414.883 141.801C411.912 142.943 408.741 143.472 405.56 143.355C402.565 143.489 399.576 142.996 396.784 141.905C393.992 140.814 391.46 139.151 389.35 137.023C385.116 132.22 382.954 125.938 383.334 119.546V61.4824H366.428V116.127C365.649 127.405 368.829 138.602 375.419 147.787C378.581 151.458 382.542 154.355 386.999 156.254C391.456 158.153 396.29 159.004 401.127 158.741H401.824C408.366 159.018 414.837 157.295 420.376 153.802C425.477 150.173 429.344 145.068 431.457 139.176C432.098 137.546 432.627 135.875 433.04 134.173V155.955H446.464V61.4824H429.558V117.71Z" fill="#328378"/>
<path d="M579.75 46.4766C581.265 46.6062 582.791 46.4074 584.222 45.8938C585.654 45.3802 586.958 44.5639 588.045 43.5005C589.955 41.4401 590.979 38.7109 590.894 35.9022C590.979 33.0935 589.955 30.3643 588.045 28.3038C586.969 27.2178 585.67 26.378 584.238 25.8423C582.806 25.3067 581.275 25.0879 579.75 25.2012C578.217 25.0858 576.676 25.2907 575.226 25.8031C573.776 26.3155 572.449 27.124 571.329 28.1772C569.526 30.2901 568.578 32.9999 568.669 35.7756C568.578 38.5512 569.526 41.261 571.329 43.3739C572.438 44.4498 573.761 45.2817 575.211 45.816C576.661 46.3503 578.208 46.5754 579.75 46.4766Z" fill="#328378"/>
<path d="M560.501 61.6743V75.0981H575.001V155.831H591.907V75.0981V61.6743H575.001H560.501Z" fill="#328378"/>
<path d="M976.58 73.8307C972.114 69.0515 966.701 65.256 960.686 62.6864C947.023 57.0297 931.673 57.0297 918.009 62.6864C912.013 65.2571 906.621 69.0531 902.179 73.8307C897.964 78.3657 894.712 83.7076 892.618 89.5339C890.386 95.1336 889.247 101.109 889.262 107.137V110.303C889.244 116.334 890.316 122.319 892.428 127.969C894.669 133.752 897.952 139.075 902.116 143.672C906.617 148.366 911.995 152.131 917.946 154.753C931.851 160.409 947.415 160.409 961.32 154.753C967.129 152.227 972.367 148.552 976.72 143.949C981.073 139.346 984.449 133.91 986.647 127.969C988.849 122.338 989.987 116.348 990.003 110.303V107.137C989.986 101.112 988.848 95.1426 986.647 89.5339C984.403 83.6648 980.976 78.3198 976.58 73.8307V73.8307ZM968.601 126.513C966.055 131.733 962.081 136.124 957.141 139.176C951.7 142.378 945.467 143.98 939.158 143.799C932.791 143.952 926.505 142.353 920.985 139.176C916.104 136.053 912.146 131.681 909.524 126.513C906.881 120.936 905.56 114.826 905.662 108.656C905.546 102.423 906.937 96.2547 909.714 90.6737C912.337 85.4461 916.374 81.0588 921.365 78.0098C926.829 75.0169 932.959 73.4481 939.189 73.4481C945.42 73.4481 951.55 75.0169 957.014 78.0098C961.986 81.0627 966.001 85.4506 968.601 90.6737C971.379 96.2547 972.769 102.423 972.654 108.656C972.754 114.847 971.364 120.971 968.601 126.513V126.513Z" fill="#328378"/>
<path d="M1076.87 69.968C1073.74 66.1801 1069.75 63.1933 1065.24 61.2551C1060.72 59.317 1055.81 58.4834 1050.91 58.8237H1050.21C1043.33 58.5638 1036.52 60.3485 1030.65 63.9526C1025.3 67.4531 1021.21 72.5809 1019 78.5794C1018.37 80.1906 1017.84 81.8402 1017.41 83.5183V61.6731H1003.99V155.829H1020.96V99.5382C1020.8 96.184 1021.33 92.8328 1022.5 89.6875C1023.68 86.5421 1025.48 83.6679 1027.8 81.2388C1030.17 78.9212 1032.98 77.113 1036.08 75.926C1039.17 74.739 1042.47 74.1982 1045.78 74.337C1048.93 74.162 1052.07 74.6714 1055 75.8301C1057.93 76.9889 1060.58 78.7694 1062.75 81.0489C1067.08 85.813 1069.36 92.0931 1069.08 98.5251V155.513H1086.05V101.691C1086.59 90.3919 1083.36 79.2346 1076.87 69.968V69.968Z" fill="#328378"/>
<path d="M843.286 61.6743V75.0981H857.723V155.831H874.693V75.0981V61.6743H857.723H843.286Z" fill="#328378"/>
<path d="M808.27 33.0542H791.997V61.6747H775.787V74.3386H791.997V123.728C791.699 130.608 793.09 137.456 796.049 143.673C798.701 148.336 802.885 151.938 807.89 153.868C813.769 156.015 819.996 157.046 826.253 156.907H840.69V141.711H824.1C821.966 141.849 819.826 141.561 817.805 140.866C815.783 140.17 813.92 139.08 812.322 137.658C809.46 134.402 808.003 130.145 808.27 125.817V74.3386H840.69V61.6747H808.27V33.0542Z" fill="#328378"/>
<path d="M649.532 142.407H645.732L618.822 61.6743H601.219L633.322 155.831H637.501H645.669H650.228H657.953H661.689L689.55 61.6743H672.96L649.532 142.407Z" fill="#328378"/>
<path d="M751.982 64.1437C744.372 61.5216 736.345 60.3197 728.301 60.5978H719.499C716.46 60.5978 713.167 60.5978 710.508 60.5978C707.848 60.5978 704.999 60.5978 702.403 61.1677V76.4911C704.999 76.4911 708.038 76.0478 711.584 75.9212H722.665H733.936C736.59 75.719 739.259 76.052 741.782 76.9003C744.305 77.7487 746.633 79.0953 748.626 80.8601C750.418 82.8275 751.791 85.1386 752.662 87.6531C753.532 90.1676 753.883 92.8328 753.692 95.4869V97.7664H729.883C722.797 97.598 715.744 98.8021 709.115 101.312C703.761 103.206 699.134 106.726 695.881 111.38C692.756 116.38 691.211 122.205 691.449 128.097C691.299 133.889 692.698 139.616 695.501 144.686C698.339 149.285 702.453 152.959 707.342 155.261C713.141 157.735 719.401 158.944 725.704 158.806C731.48 158.975 737.211 157.759 742.421 155.261C747.046 152.872 750.842 149.142 753.312 144.56C754.669 142.208 755.732 139.699 756.478 137.088V156.084H769.901V96.2468C770.232 88.9768 768.707 81.7422 765.469 75.2247C762.486 70.0008 757.685 66.0567 751.982 64.1437V64.1437ZM749.639 135.378C747.443 138.685 744.313 141.264 740.648 142.787C736.99 144.186 733.104 144.895 729.187 144.876C723.551 145.243 717.972 143.556 713.484 140.127C711.683 138.561 710.259 136.609 709.317 134.416C708.374 132.224 707.937 129.848 708.038 127.463C707.972 125.084 708.425 122.718 709.366 120.531C710.306 118.345 711.711 116.389 713.484 114.799C717.92 111.255 723.52 109.493 729.187 109.86H753.692V120.751C753.801 125.919 752.392 131.004 749.639 135.378V135.378Z" fill="#328378"/>
<path d="M1199.72 109.606C1192.49 104.667 1184.07 101.758 1175.34 101.184L1164.89 100.108C1160.58 99.9305 1156.4 98.5245 1152.86 96.0554C1151.7 94.9795 1150.78 93.6629 1150.18 92.1975C1149.58 90.7321 1149.3 89.1531 1149.38 87.5706C1149.36 85.5832 1149.8 83.6191 1150.68 81.8371C1151.56 80.0551 1152.85 78.5052 1154.44 77.3128C1158.86 74.3389 1164.14 72.9137 1169.45 73.2604C1174.7 72.8926 1179.93 74.3215 1184.27 77.3128C1185.84 78.38 1187.14 79.8009 1188.06 81.4613C1188.98 83.1218 1189.51 84.9756 1189.58 86.8741H1205.41C1205.57 82.8033 1204.71 78.7576 1202.94 75.0923C1201.16 71.4269 1198.51 68.254 1195.22 65.852C1187.58 60.8643 1178.56 58.4055 1169.45 58.8235C1163.04 58.7093 1156.69 59.9164 1150.77 62.3694C1145.69 64.3796 1141.29 67.8085 1138.11 72.2473C1134.97 76.7289 1133.37 82.1046 1133.55 87.5706C1133.33 91.1863 1133.98 94.8018 1135.46 98.1092C1136.94 101.417 1139.19 104.318 1142.03 106.566C1148.42 111.221 1155.99 113.985 1163.88 114.545L1174.13 115.558C1179.19 115.767 1184.1 117.295 1188.38 119.99C1189.82 120.989 1190.99 122.338 1191.76 123.912C1192.54 125.485 1192.9 127.23 1192.81 128.982C1192.78 131.178 1192.22 133.334 1191.17 135.264C1190.13 137.195 1188.62 138.841 1186.8 140.063C1181.66 143.349 1175.6 144.902 1169.51 144.495C1163.3 144.807 1157.18 142.924 1152.23 139.176C1149.14 136.548 1147.19 132.826 1146.78 128.792H1130.89C1130.83 132.957 1131.74 137.079 1133.54 140.836C1135.34 144.592 1137.99 147.881 1141.27 150.447C1149.69 156.242 1159.81 159.05 1170.02 158.425C1176.98 158.548 1183.89 157.277 1190.34 154.689C1195.76 152.414 1200.5 148.77 1204.08 144.115C1207.48 139.59 1209.28 134.069 1209.21 128.412C1209.3 124.738 1208.48 121.1 1206.82 117.82C1205.16 114.539 1202.72 111.718 1199.72 109.606V109.606Z" fill="#1F2937"/>
<path d="M1122.09 134.3H1101.64V155.829H1122.09V134.3Z" fill="#1F2937"/>
<path d="M1598 104.349C1598.05 96.6762 1596.34 89.0944 1593 82.1871C1589.82 75.2269 1584.69 69.334 1578.24 65.2174C1570.67 60.4788 1561.84 58.1393 1552.91 58.5055C1545.8 58.3688 1538.75 59.818 1532.27 62.748C1526.73 65.3111 1521.85 69.1258 1518.03 73.8922C1514.24 78.478 1511.36 83.7428 1509.54 89.4055C1507.77 95.17 1506.87 101.168 1506.88 107.198V110.364C1506.88 116.353 1507.77 122.308 1509.54 128.03C1511.4 133.734 1514.27 139.054 1518.03 143.734C1521.99 148.492 1527 152.282 1532.65 154.815C1539.36 157.799 1546.65 159.249 1553.99 159.057C1560.82 159.176 1567.6 157.927 1573.94 155.385C1579.69 153.06 1584.76 149.313 1588.67 144.496C1592.57 139.678 1595.2 133.948 1596.29 127.84H1580.46C1579.21 132.56 1576.2 136.619 1572.04 139.175C1566.72 142.685 1560.42 144.414 1554.05 144.114C1547.91 144.349 1541.83 142.763 1536.58 139.555C1532.02 136.413 1528.48 132.012 1526.38 126.891C1524.55 122.089 1523.53 117.019 1523.34 111.884H1598V104.349ZM1536.26 77.8813C1541.23 74.6677 1547.06 73.0544 1552.98 73.259C1558.61 73.0619 1564.19 74.4671 1569.06 77.3115C1573.31 80.111 1576.62 84.127 1578.56 88.8356C1579.95 92.1524 1580.86 95.6481 1581.28 99.22H1524.29C1524.74 96.2002 1525.55 93.2451 1526.7 90.4186C1528.62 85.4078 1531.94 81.0552 1536.26 77.8813V77.8813Z" fill="#1F2937"/>
<path d="M1482.88 133.414C1480.43 136.657 1477.24 139.263 1473.57 141.013C1469.25 143.002 1464.53 143.977 1459.77 143.862C1453.74 144.049 1447.79 142.44 1442.67 139.24C1438.21 136.029 1434.73 131.646 1432.6 126.576C1430.35 120.895 1429.24 114.829 1429.31 108.72C1429.2 102.566 1430.32 96.452 1432.6 90.7368C1434.69 85.6477 1438.19 81.2562 1442.67 78.0729C1447.67 74.8876 1453.53 73.2977 1459.45 73.5138C1466.15 73.1691 1472.73 75.3115 1477.94 79.5292C1482.42 83.1811 1485.33 88.4195 1486.05 94.156H1502.32C1502.08 87.346 1499.89 80.749 1495.99 75.1601C1492.15 69.6522 1486.9 65.278 1480.79 62.4962C1474.16 59.4739 1466.93 57.9601 1459.64 58.0639C1452.53 57.9207 1445.48 59.3702 1439 62.3063C1433.31 64.9905 1428.26 68.8541 1424.18 73.6405C1420.3 78.211 1417.31 83.4745 1415.38 89.1538C1413.49 94.8301 1412.53 100.774 1412.53 106.757V109.923C1412.55 115.8 1413.51 121.636 1415.38 127.209C1417.36 132.98 1420.34 138.359 1424.18 143.102C1428.16 147.898 1433.16 151.748 1438.81 154.373C1445.46 157.344 1452.68 158.794 1459.96 158.615C1467.37 158.754 1474.73 157.24 1481.49 154.183C1487.66 151.371 1493.01 147.008 1497 141.519C1500.96 135.959 1503.16 129.344 1503.33 122.523H1487.12C1486.72 126.47 1485.25 130.233 1482.88 133.414V133.414Z" fill="#1F2937"/>
<path d="M1304.82 72.9448C1298.32 65.8217 1289.67 61.0154 1280.18 59.2556C1270.7 57.4957 1260.9 58.8783 1252.27 63.1936C1246.09 66.3902 1241 71.3485 1237.64 77.4405C1236.38 79.7631 1235.34 82.2015 1234.54 84.7222V61.6739H1221.11V191.099H1238.02V141.583C1241.49 147.153 1246.45 151.648 1252.33 154.564C1258.25 157.46 1264.74 158.976 1271.33 158.996C1277.64 159.09 1283.89 157.77 1289.63 155.134C1295.15 152.642 1300.11 149.043 1304.19 144.559C1308.31 140.04 1311.54 134.774 1313.69 129.046C1315.96 122.973 1317.1 116.534 1317.04 110.05V106.884C1317.07 100.522 1316 94.203 1313.88 88.2048C1311.88 82.5791 1308.8 77.3961 1304.82 72.9448V72.9448ZM1296.34 127.273C1293.95 132.501 1290.07 136.901 1285.17 139.912C1280.28 142.923 1274.6 144.408 1268.86 144.179C1263.47 144.221 1258.14 142.962 1253.34 140.507C1248.35 137.985 1244.18 134.088 1241.33 129.274C1238.48 124.461 1237.07 118.933 1237.26 113.343V105.238C1237.1 99.2402 1238.57 93.3115 1241.5 88.0782C1244.3 83.4346 1248.33 79.6629 1253.15 77.1872C1257.98 74.5796 1263.38 73.2294 1268.86 73.2614C1274.72 73.1522 1280.49 74.7588 1285.45 77.8837C1290.19 80.8692 1293.97 85.1555 1296.34 90.231C1299.05 96.0091 1300.4 102.337 1300.26 108.72C1300.37 115.121 1299.03 121.464 1296.34 127.273V127.273Z" fill="#1F2937"/>
<path d="M1382.7 64.1437C1375.09 61.5216 1367.07 60.3197 1359.02 60.5978H1350.22C1347.18 60.5978 1343.89 60.5978 1341.23 60.5978C1338.57 60.5978 1335.72 60.5978 1333.12 61.1677V76.4911C1335.72 76.4911 1338.76 76.0478 1342.31 75.9212H1353.39H1364.72C1367.37 75.724 1370.02 76.0595 1372.54 76.9079C1375.05 77.7562 1377.36 79.1002 1379.35 80.8601C1381.15 82.8191 1382.53 85.129 1383.41 87.6457C1384.28 90.1623 1384.62 92.8316 1384.41 95.4869V97.7664H1360.61C1353.52 97.598 1346.47 98.8021 1339.84 101.312C1334.48 103.206 1329.86 106.726 1326.6 111.38C1323.51 116.392 1321.96 122.209 1322.17 128.097C1322.02 133.889 1323.42 139.616 1326.22 144.686C1329.06 149.285 1333.17 152.959 1338.06 155.261C1343.86 157.735 1350.12 158.944 1356.43 158.806C1362.2 158.975 1367.93 157.759 1373.14 155.261C1377.74 153.043 1381.56 149.49 1384.1 145.066C1385.45 142.715 1386.52 140.205 1387.26 137.594V156.59H1400.69V96.2468C1401.05 88.9742 1399.52 81.7318 1396.25 75.2247C1393.26 69.9887 1388.43 66.0432 1382.7 64.1437V64.1437ZM1380.17 135.378C1377.98 138.685 1374.85 141.264 1371.18 142.787C1367.52 144.186 1363.64 144.895 1359.72 144.876C1354.1 145.251 1348.54 143.562 1344.08 140.127C1342.26 138.573 1340.82 136.625 1339.86 134.431C1338.91 132.236 1338.47 129.854 1338.57 127.463C1338.5 125.078 1338.96 122.707 1339.91 120.518C1340.87 118.329 1342.29 116.377 1344.08 114.799C1348.48 111.242 1354.07 109.478 1359.72 109.86H1384.22V120.751C1384.33 125.919 1382.92 131.004 1380.17 135.378V135.378Z" fill="#1F2937"/>
<path d="M175.652 30.736C160.394 27.0529 144.083 29.4206 130.403 38.1023C126.456 40.47 122.773 43.3639 119.616 46.7839C115.933 50.4671 112.776 54.6764 110.145 58.8857C107.251 49.6778 102.779 40.7331 96.7283 32.8407C94.6236 29.9468 92.2559 27.316 89.6251 24.6852C68.0525 3.11258 38.3244 -4.25368 10.964 2.32333C10.964 2.32333 10.1748 4.42798 10.1748 4.95414V5.21722C8.33319 12.0573 7.54395 19.4236 7.54395 27.0529C7.54395 75.7228 47.006 115.185 95.676 115.185C123.299 115.185 147.766 102.557 164.077 82.5629C175.916 67.5673 179.862 48.3624 175.652 30.736Z" fill="#48AD9C"/>
<path fill-rule="evenodd" clip-rule="evenodd" d="M15.0858 151.211V117.583H0V166.297H187.711V117.583H172.625V151.211H15.0858Z" fill="#1F2937"/>
</svg>
