<?xml version="1.0" encoding="UTF-8" standalone="no"?>
<!-- Created with Inkscape (http://www.inkscape.org/) -->

<svg
   xmlns:dc="http://purl.org/dc/elements/1.1/"
   xmlns:cc="http://creativecommons.org/ns#"
   xmlns:rdf="http://www.w3.org/1999/02/22-rdf-syntax-ns#"
   xmlns:svg="http://www.w3.org/2000/svg"
   xmlns="http://www.w3.org/2000/svg"
   xmlns:sodipodi="http://sodipodi.sourceforge.net/DTD/sodipodi-0.dtd"
   xmlns:inkscape="http://www.inkscape.org/namespaces/inkscape"
   width="753.20099"
   height="598.82123"
   viewBox="0 0 199.28443 158.43811"
   version="1.1"
   id="svg8"
   inkscape:version="0.92.2 (5c3e80d, 2017-08-06)"
   sodipodi:docname="vertical_white.svg"
   inkscape:export-filename="/home/anxhelo/Files/Design/Kleides/vertical_white.png"
   inkscape:export-xdpi="96"
   inkscape:export-ydpi="96">
  <defs
     id="defs2">
    <clipPath
       clipPathUnits="userSpaceOnUse"
       id="clipPath18">
      <path
         d="M 0,600 H 800 V 0 H 0 Z"
         id="path16"
         inkscape:connector-curvature="0" />
    </clipPath>
    <clipPath
       clipPathUnits="userSpaceOnUse"
       id="clipPath26">
      <path
         d="m 121.02,515.525 h 82.442 V 432.948 H 121.02 Z"
         id="path24"
         inkscape:connector-curvature="0" />
    </clipPath>
    <clipPath
       clipPathUnits="userSpaceOnUse"
       id="clipPath78">
      <path
         d="m 130.347,291.447 h 98.699 v -98.86 h -98.699 z"
         id="path76"
         inkscape:connector-curvature="0" />
    </clipPath>
  </defs>
  <sodipodi:namedview
     id="base"
     pagecolor="#ffffff"
     bordercolor="#666666"
     borderopacity="1.0"
     inkscape:pageopacity="0"
     inkscape:pageshadow="2"
     inkscape:zoom="0.52467208"
     inkscape:cx="344.77356"
     inkscape:cy="388.43298"
     inkscape:document-units="px"
     inkscape:current-layer="layer1"
     inkscape:document-rotation="0"
     showgrid="false"
     borderlayer="true"
     inkscape:showpageshadow="true"
     units="px"
     inkscape:pagecheckerboard="false"
     showguides="true"
     inkscape:window-width="1366"
     inkscape:window-height="713"
     inkscape:window-x="0"
     inkscape:window-y="0"
     inkscape:window-maximized="1"
     objecttolerance="10"
     guidetolerance="10"
     inkscape:snap-tangential="true"
     inkscape:snap-perpendicular="true"
     fit-margin-top="0"
     fit-margin-left="0"
     fit-margin-right="0"
     fit-margin-bottom="0">
    <inkscape:grid
       type="xygrid"
       id="grid10"
       dotted="false"
       originx="-130.75509"
       originy="-36.92808" />
  </sodipodi:namedview>
  <metadata
     id="metadata5">
    <rdf:RDF>
      <cc:Work
         rdf:about="">
        <dc:format>image/svg+xml</dc:format>
        <dc:type
           rdf:resource="http://purl.org/dc/dcmitype/StillImage" />
        <dc:title></dc:title>
        <cc:license
           rdf:resource="" />
      </cc:Work>
    </rdf:RDF>
  </metadata>
  <g
     inkscape:label="Layer 1"
     inkscape:groupmode="layer"
     id="layer1"
     transform="translate(-130.75508,-101.63381)">
    <g
       id="g1739"
       transform="matrix(2.4825652,0,0,2.4825652,-304.02155,-196.99964)"
       style="fill:#ffffff">
      <g
         id="g72"
         transform="matrix(0.35277777,0,0,-0.35277777,151.87588,223.10831)"
         style="fill:#ffffff">
        <g
           id="g74"
           style="fill:#ffffff" />
        <g
           id="g86"
           style="fill:#ffffff">
          <g
             id="g84"
             clip-path="url(#clipPath78)"
             style="fill:#ffffff">
            <g
               id="g82"
               transform="translate(184.7593,202)"
               style="fill:#ffffff">
              <path
                 inkscape:connector-curvature="0"
                 id="path80"
                 style="fill:#ffffff;fill-opacity:1;fill-rule:nonzero;stroke:none"
                 d="M 0,0 H 34.877 V 25.874 H 17.98 v -7.89 c 2.665,-0.13 5.401,-0.265 8.413,-0.415 V 8.641 H 8.461 V 35.419 H 44.265 V -9.413 h -98.678 v 44.881 h 35.726 V 8.536 h -17.784 v 9.003 c 2.603,0.134 5.331,0.274 8.34,0.429 v 7.895 h -16.86 V 0.173 h 34.865 V 79.865 H -45.004 V 54.159 h 16.898 v 7.89 c -2.666,0.131 -5.402,0.266 -8.414,0.415 v 8.929 h 17.933 V 44.614 H -54.392 V 89.447 H 44.286 V 44.565 H 8.56 V 71.497 H 26.345 V 62.494 C 23.738,62.36 21.017,62.22 18.004,62.065 V 54.17 h 16.86 V 79.861 H 0 Z" />
            </g>
          </g>
        </g>
      </g>
      <g
         transform="matrix(0.35277777,0,0,-0.35277777,175.13201,164.43008)"
         id="g88"
         style="fill:#ffffff">
        <path
           inkscape:connector-curvature="0"
           id="path90"
           style="fill:#ffffff;fill-opacity:1;fill-rule:nonzero;stroke:none"
           d="m 0,0 h 12.832 v -6.047 h -0.07 v -27.211 h 6.328 l 8.648,8.93 h -2.179 v 6.047 h 13.816 v -6.047 H 34.77 L 23.695,-35.754 35.789,-48.656 h 4.395 v -6.047 h -7.7 l -14.906,16.277 h -4.816 v -10.23 h 3.023 v -6.047 H 0.211 v 6.047 H 6.187 V -6.047 H 0 Z" />
      </g>
      <g
         transform="matrix(0.35277777,0,0,-0.35277777,190.6289,164.43008)"
         id="g92"
         style="fill:#ffffff">
        <path
           inkscape:connector-curvature="0"
           id="path94"
           style="fill:#ffffff;fill-opacity:1;fill-rule:nonzero;stroke:none"
           d="m 0,0 h 11.813 v -48.656 h 5.484 v -6.047 H 0 v 6.047 H 5.273 V -6.047 H 0 Z" />
      </g>
      <g
         transform="matrix(0.35277777,0,0,-0.35277777,203.4679,172.4792)"
         id="g96"
         style="fill:#ffffff">
        <path
           inkscape:connector-curvature="0"
           id="path98"
           style="fill:#ffffff;fill-opacity:1;fill-rule:nonzero;stroke:none"
           d="m 0,0 c -1.523,0 -2.854,-0.217 -3.99,-0.65 -1.137,-0.434 -2.104,-1.055 -2.901,-1.864 -0.796,-0.808 -1.435,-1.798 -1.916,-2.97 -0.48,-1.172 -0.838,-2.485 -1.072,-3.938 H 9 C 8.906,-8.063 8.689,-6.809 8.35,-5.66 8.01,-4.512 7.488,-3.516 6.785,-2.672 6.082,-1.828 5.18,-1.172 4.078,-0.703 2.977,-0.234 1.617,0 0,0 m -10.23,-14.52 c 0,-1.031 0.076,-1.974 0.228,-2.83 0.152,-0.855 0.369,-1.67 0.65,-2.443 0.868,-2.344 2.256,-4.107 4.166,-5.291 1.911,-1.184 4.073,-1.775 6.487,-1.775 1.898,0 3.744,0.263 5.537,0.791 1.793,0.527 3.674,1.353 5.642,2.478 l 2.637,-4.465 c -2.39,-1.64 -4.793,-2.859 -7.207,-3.656 -2.414,-0.797 -4.922,-1.195 -7.523,-1.195 -2.461,0 -4.741,0.41 -6.838,1.23 -2.098,0.821 -3.903,2.039 -5.414,3.656 -1.512,1.618 -2.696,3.633 -3.552,6.047 -0.855,2.414 -1.283,5.227 -1.283,8.438 0,2.601 0.364,5.056 1.09,7.365 0.727,2.309 1.811,4.324 3.253,6.047 1.441,1.723 3.228,3.088 5.361,4.096 2.133,1.007 4.617,1.511 7.453,1.511 2.742,0 5.033,-0.416 6.873,-1.248 1.84,-0.832 3.34,-1.933 4.5,-3.304 1.16,-1.371 2.039,-2.936 2.637,-4.694 0.597,-1.758 1.013,-3.55 1.248,-5.379 0.117,-0.89 0.193,-1.793 0.228,-2.707 0.036,-0.914 0.053,-1.804 0.053,-2.672 z" />
      </g>
      <g
         transform="matrix(0.35277777,0,0,-0.35277777,212.26325,166.32764)"
         id="g100"
         style="fill:#ffffff">
        <path
           inkscape:connector-curvature="0"
           id="path102"
           style="fill:#ffffff;fill-opacity:1;fill-rule:nonzero;stroke:none"
           d="m 0,0 c 0,0.609 0.123,1.189 0.369,1.74 0.246,0.551 0.574,1.031 0.985,1.442 0.41,0.41 0.896,0.738 1.459,0.984 0.562,0.246 1.16,0.369 1.792,0.369 0.61,0 1.19,-0.123 1.741,-0.369 C 6.896,3.92 7.377,3.592 7.787,3.182 8.197,2.771 8.525,2.291 8.771,1.74 9.018,1.189 9.141,0.609 9.141,0 9.141,-0.633 9.018,-1.23 8.771,-1.793 8.525,-2.355 8.197,-2.854 7.787,-3.287 7.377,-3.721 6.896,-4.061 6.346,-4.307 5.795,-4.553 5.215,-4.676 4.605,-4.676 c -0.632,0 -1.23,0.123 -1.792,0.369 C 2.25,-4.061 1.764,-3.721 1.354,-3.287 0.943,-2.854 0.615,-2.355 0.369,-1.793 0.123,-1.23 0,-0.633 0,0 M -4.043,-12.902 H 7.84 v -30.375 h 5.484 v -6.047 H -3.973 v 6.047 H 1.23 v 24.328 h -5.273 z" />
      </g>
      <g
         transform="matrix(0.35277777,0,0,-0.35277777,224.09749,182.0042)"
         id="g104"
         style="fill:#ffffff">
        <path
           inkscape:connector-curvature="0"
           id="path106"
           style="fill:#ffffff;fill-opacity:1;fill-rule:nonzero;stroke:none"
           d="m 0,0 c 1.945,0 3.574,0.287 4.887,0.861 1.312,0.575 2.519,1.436 3.621,2.584 v 20.391 c -1.172,0.984 -2.52,1.699 -4.043,2.144 -1.524,0.446 -3.082,0.668 -4.676,0.668 -1.547,0 -3,-0.287 -4.359,-0.861 -1.36,-0.574 -2.549,-1.412 -3.569,-2.514 -1.019,-1.101 -1.822,-2.449 -2.408,-4.043 -0.586,-1.593 -0.879,-3.421 -0.879,-5.484 0,-2.25 0.281,-4.23 0.844,-5.941 0.562,-1.711 1.348,-3.147 2.355,-4.307 1.008,-1.16 2.215,-2.033 3.622,-2.619 C -3.199,0.293 -1.664,0 0,0 M 3.551,49.816 H 15.047 V 1.16 h 5.344 V -4.887 H 8.508 v 2.989 C 7.336,-3.094 5.977,-4.025 4.43,-4.693 2.883,-5.361 1.125,-5.695 -0.844,-5.695 c -2.461,0 -4.752,0.427 -6.873,1.283 -2.121,0.855 -3.961,2.109 -5.519,3.762 -1.559,1.652 -2.778,3.679 -3.657,6.082 -0.878,2.402 -1.318,5.15 -1.318,8.244 0,2.812 0.422,5.373 1.266,7.681 0.843,2.309 2.039,4.278 3.586,5.907 1.546,1.629 3.41,2.894 5.589,3.797 2.18,0.902 4.606,1.353 7.278,1.353 1.758,0 3.363,-0.193 4.816,-0.58 1.453,-0.387 2.848,-1.061 4.184,-2.022 V 43.77 H 3.551 Z" />
      </g>
      <g
         transform="matrix(0.35277777,0,0,-0.35277777,237.9781,172.4792)"
         id="g108"
         style="fill:#ffffff">
        <path
           inkscape:connector-curvature="0"
           id="path110"
           style="fill:#ffffff;fill-opacity:1;fill-rule:nonzero;stroke:none"
           d="m 0,0 c -1.523,0 -2.854,-0.217 -3.99,-0.65 -1.137,-0.434 -2.104,-1.055 -2.901,-1.864 -0.796,-0.808 -1.435,-1.798 -1.916,-2.97 -0.48,-1.172 -0.838,-2.485 -1.072,-3.938 H 9 C 8.906,-8.063 8.689,-6.809 8.35,-5.66 8.01,-4.512 7.488,-3.516 6.785,-2.672 6.082,-1.828 5.18,-1.172 4.078,-0.703 2.977,-0.234 1.617,0 0,0 m -10.23,-14.52 c 0,-1.031 0.076,-1.974 0.228,-2.83 0.152,-0.855 0.369,-1.67 0.65,-2.443 0.868,-2.344 2.256,-4.107 4.166,-5.291 1.911,-1.184 4.073,-1.775 6.487,-1.775 1.898,0 3.744,0.263 5.537,0.791 1.793,0.527 3.674,1.353 5.642,2.478 l 2.637,-4.465 c -2.39,-1.64 -4.793,-2.859 -7.207,-3.656 -2.414,-0.797 -4.922,-1.195 -7.523,-1.195 -2.461,0 -4.741,0.41 -6.838,1.23 -2.098,0.821 -3.903,2.039 -5.414,3.656 -1.512,1.618 -2.696,3.633 -3.551,6.047 -0.855,2.414 -1.283,5.227 -1.283,8.438 0,2.601 0.363,5.056 1.09,7.365 0.726,2.309 1.81,4.324 3.252,6.047 1.441,1.723 3.228,3.088 5.361,4.096 2.133,1.007 4.617,1.511 7.453,1.511 2.742,0 5.033,-0.416 6.873,-1.248 1.84,-0.832 3.34,-1.933 4.5,-3.304 1.16,-1.371 2.039,-2.936 2.637,-4.694 0.597,-1.758 1.013,-3.55 1.248,-5.379 0.117,-0.89 0.193,-1.793 0.228,-2.707 0.036,-0.914 0.053,-1.804 0.053,-2.672 z" />
      </g>
      <g
         transform="matrix(0.35277777,0,0,-0.35277777,252.62113,173.44038)"
         id="g112"
         style="fill:#ffffff">
        <path
           inkscape:connector-curvature="0"
           id="path114"
           style="fill:#ffffff;fill-opacity:1;fill-rule:nonzero;stroke:none"
           d="m 0,0 c -0.457,0.691 -1.049,1.254 -1.775,1.687 -0.727,0.434 -1.536,0.751 -2.426,0.95 -0.891,0.199 -1.758,0.299 -2.602,0.299 -0.937,0 -1.799,-0.106 -2.584,-0.317 -0.785,-0.211 -1.459,-0.515 -2.021,-0.914 -0.563,-0.398 -1.002,-0.885 -1.319,-1.459 -0.316,-0.574 -0.474,-1.213 -0.474,-1.916 0,-1.219 0.369,-2.185 1.107,-2.9 0.739,-0.715 1.975,-1.377 3.709,-1.987 l 6.996,-2.461 c 3,-1.007 5.192,-2.378 6.575,-4.113 1.382,-1.734 2.074,-3.808 2.074,-6.223 0,-1.617 -0.323,-3.099 -0.967,-4.447 -0.645,-1.347 -1.559,-2.496 -2.742,-3.445 -1.184,-0.949 -2.608,-1.688 -4.272,-2.215 -1.664,-0.527 -3.515,-0.791 -5.554,-0.791 -2.836,0 -5.145,0.457 -6.926,1.371 -1.781,0.914 -3.153,2.121 -4.113,3.621 h -3.657 v 6.047 h 7.278 c 0,-1.008 0.216,-1.869 0.65,-2.584 0.434,-0.715 1.008,-1.295 1.723,-1.74 0.715,-0.445 1.523,-0.774 2.425,-0.984 0.903,-0.211 1.823,-0.317 2.76,-0.317 0.914,0 1.793,0.111 2.637,0.334 0.844,0.223 1.588,0.551 2.232,0.984 0.645,0.434 1.155,0.956 1.53,1.565 0.375,0.609 0.562,1.301 0.562,2.074 0,1.172 -0.381,2.168 -1.142,2.988 -0.762,0.821 -2.057,1.559 -3.885,2.215 l -6.961,2.602 c -2.836,1.008 -4.94,2.291 -6.311,3.849 -1.371,1.559 -2.056,3.51 -2.056,5.854 0,1.547 0.287,2.977 0.861,4.289 0.574,1.313 1.406,2.443 2.496,3.393 1.09,0.949 2.42,1.693 3.99,2.232 1.571,0.539 3.364,0.809 5.379,0.809 2.602,0 4.782,-0.364 6.539,-1.09 C 1.494,6.533 3.076,5.291 4.482,3.533 H 7.893 V -2.514 H 0.686 C 0.686,-1.529 0.457,-0.691 0,0" />
      </g>
    </g>
  </g>
</svg>
