<?xml version="1.0" encoding="UTF-8"?>
<svg enable-background="new 0 0 984.63 662.69" version="1.1" viewBox="0 0 984.63 662.69" xml:space="preserve" xmlns="http://www.w3.org/2000/svg">
<style type="text/css">
	.st0{fill:#E23717;}
	.st1{fill:#030101;}
	.st2{fill:#030201;}
	.st3{fill:#8F201B;}
	.st4{fill:#8E201B;}
	.st5{fill:#F9F9F9;}
	.st6{fill:#FBF6F5;}
</style>
	<path class="st0" d="m526.34 200.09c1.34-0.02 2.59 0.35 3.81 0.84 1.27 1.16 2.03 2.61 2.58 4.22 0.64 1.86 1.39 3.69 2.09 5.54 0.1 0.55 0.16 1.12 0.6 1.53 0.5 2.32 1.39 4.5 2.33 6.67 0.94 3.53 4.09 4.7 7 2.53 3.28-2.46 6.52-4.98 9.77-7.47 2.59-1.72 4.94-4.15 8.54-2.76 1.74 1.25 2.81 2.89 3.06 5.06 0.12 1.04 0.39 2.06 0.59 3.09 0.03 3.13 0.86 6.13 1.41 9.17 0.09 3.16 0.19 6.32 4.13 7.31 0.45 0.56 0.95 0.29 1.43 0.06 2.58-1.26 5.15-2.53 7.73-3.79 2.22-0.89 4.42-1.82 6.44-3.13 0.77-0.31 1.54-0.61 2.31-0.92 1.38-0.09 2.73-0.02 4.03 0.51 0.97 0.95 1.97 1.88 2.48 3.19 0.08 0.24 0.16 0.48 0.25 0.73-0.02 1.73-0.05 3.47-0.07 5.2-0.38 3.06-0.35 6.13-0.29 9.2-0.66 3.49-0.93 6.84 3.23 8.5 3.16-0.42 6.21-1.31 9.27-2.19 3.03-0.73 6.07-1.46 9.1-2.18 3.28 0.18 5.08 2.05 5.85 5.11l0.03 0.66c-0.03 0.21-0.07 0.41-0.1 0.62-0.56 2.61-1.12 5.23-1.68 7.84-0.97 3.16-1.68 6.39-2.22 9.65-1.05 2.34 1.29 3.1 2.12 4.56 0.03 0.37 0.24 0.48 0.58 0.37 1.54 0.21 3.07 0.12 4.59-0.13 3.08 0.23 6.14-0.14 9.21-0.32 1.07-0.03 2.14-0.06 3.21-0.08 0.14-0.01 0.29-0.01 0.43-0.02 2.11 0 3.81 0.84 5.11 2.51 0.27 0.62 0.55 1.25 0.82 1.87 0.02 0.61 0.05 1.21 0.07 1.82-0.19 0.69-0.38 1.39-0.57 2.08-1.01 1.64-1.76 3.38-2.28 5.23-1.57 2.98-2.89 6.06-4.03 9.22-1.37 2.4-0.31 6.24 1.92 6.72 1.47 0.32 2.99 0.42 4.49 0.62 3 0.76 6.06 1.21 9.13 1.61 1.39 0.25 2.77 0.5 4.16 0.75 3.63 2.37 4.28 4.42 2.73 8.65-2.34 2.92-4.4 6.03-6.37 9.2-0.26 0.04-0.4 0.18-0.35 0.46-0.12 0.08-0.18 0.2-0.16 0.34-3.4 3.82-3.4 3.82 0.05 5.16 1.98 1.25 3.96 2.51 5.93 3.76l3.24 2.67c1.75 1.98 3.5 3.96 5.25 5.94 1.3 2.47 2.61 4.94 3.91 7.42-0.02 0.65 0.2 1.24 0.55 1.78 0.59 3.18 1.21 6.36 1.06 9.62-0.35 2.91-0.7 5.83-1.05 8.74-0.19 0.73-0.37 1.47-0.56 2.2-0.87 2.33-1.73 4.65-2.6 6.98-1.63 3.04-3.26 6.08-4.89 9.12-0.77 0.93-1.33 1.98-1.75 3.11-1.38 1.94-2.58 3.99-3.57 6.15-1.96 2.99-3.86 6.02-5.49 9.2-2.09 2.92-3.98 5.96-5.72 9.1-4.21 6.02-8.43 12.05-12.64 18.07-1.95 2.01-3.56 4.33-5.73 6.13-1.04 0.86-1.99 1.92-3.52 1.84-1.81-2.29-1.08-5.06-1.43-7.62 0.2-3.05 0.4-6.11 0.6-9.16 0.52-2.4 0.82-4.83 0.89-7.29 0.06-0.31 0.11-0.62 0.17-0.92 0.05-0.33 0.11-0.66 0.16-0.99 0.84-3 0.85-6.14 1.43-9.18 0.58-3.21 1.16-6.42 1.73-9.63 0.48-2.43 0.95-4.86 1.43-7.3 1.84-8.86 3.68-17.72 5.51-26.59 0.41-2-1.23-3.64-3.37-3.27-1.04 0.18-2.1 0.47-3.05 0.93-6.24 3.05-12.6 5.8-19.04 8.37-0.81 0.32-1.36 0.75-1.58 1.74-0.81 3.71-1.76 7.39-2.66 11.08 0.01 0.11 0.01 0.22 0.02 0.33-1.2 1.81-1.74 3.9-2.52 5.89-1.77 3.08-3.54 6.17-5.31 9.25-0.18 0.27-0.36 0.53-0.54 0.8-2.5 2.76-5.01 5.51-7.51 8.27-0.55 0.48-1.09 0.95-1.64 1.43-3.24 2.23-6.36 4.66-9.97 6.31-0.65 0.3-0.91 0.7-0.76 1.43 0.61 3.08 0.32 6.19 0.21 9.3-0.7 3.13-1.68 6.17-2.8 9.17-1.14 1.88-2.2 3.82-3.44 5.63-5.05 7.38-12.03 12.39-20.01 16.14-3.05 0.99-6.1 1.98-9.15 2.98-3.05 0.34-6.11 0.68-9.16 1.02-3.04-0.26-6.08-0.52-9.12-0.77-0.55-0.4-1.38-0.17-2.03-1.14 1.32-1.24 2.78-2.45 4.05-3.83 5.64-6.08 11.03-12.37 15.42-19.44 0.9-0.72 1.33-1.73 2.12-3.11-3.78 0.51-7.1 0.96-10.42 1.4-2.31 0.15-4.64 0.15-6.9 0.72-0.61 0.03-1.23 0.06-1.85 0.1-3.23 0.04-6.45 0.26-9.66 0.67-3.05 0.11-6.09 0.22-9.14 0.33-1.29 0-2.59 0.08-3.88-0.02-1.07-0.08-2.32 0.56-3.15-0.67-0.23-3.05-0.05-6.1 0.25-9.14 0.8-3.15 1.93-6.19 3.13-9.2 1.23-1.97 2.45-3.93 3.68-5.9 0.92-1.09 1.83-2.18 2.75-3.28 2.12-1.9 4.24-3.8 6.36-5.71 1.74-1.15 3.47-2.29 5.21-3.44 1.26-0.64 2.52-1.28 3.78-1.91 10.08-4.35 20.49-5.36 31.22-3.08 3.12 1.21 6.52 1.97 9.15 4.09 2.3 1.85 4.2 1.56 6.3-0.01 3.83-1.84 7.44-3.94 9.61-7.83 3.72-2.86 5.05-7.09 6.95-11.56-5.36 1.47-10.15 2.97-15.03 4.09-11.27 2.58-22.61 4.76-34.1 6.21-9.75 1.23-19.53 2.21-29.32 2.49-16.85 0.47-33.71 0.23-50.51-1.63-8.92-0.99-17.84-1.93-26.68-3.43-11.32-1.93-22.59-4.16-33.71-7.04-0.45-0.12-0.93-0.33-1.31-0.01-0.59 0.49-0.01 0.97 0.16 1.42 1.44 3.91 3.76 7.3 6.42 10.47 3.12 3.26 6.6 6 10.9 7.56 3.07 1.19 6.14 3.57 9.19-0.03l7.2-3.9c3.48-0.8 6.88-2.05 10.45-2.34 10.02-0.81 19.61 0.81 28.62 5.43 0.64 0.32 1.29 0.63 1.93 0.95 2.29 1.6 4.59 3.21 6.88 4.81 1.53 1.46 3.06 2.92 4.59 4.37 1.52 2.01 3.04 4.01 4.56 6.02l-0.02-0.04c0.16 0.24 0.32 0.49 0.48 0.73 0.15 0.97 0.65 1.77 1.26 2.52 1.2 2.98 2.23 6.01 2.97 9.13 0.11 2.59 0.22 5.19 0.32 7.78-0.29 0.54-0.44 1.19-1.18 1.33-1.24-0.39-2.52-0.2-3.78-0.22-6.13-0.31-12.26-0.62-18.38-0.93-3.04-0.32-6.08-0.71-9.15-0.68-4.11-0.48-8.22-0.97-12.82-1.51 1.36 2.15 2.19 3.95 3.55 5.41 1.29 2.41 2.86 4.65 4.61 6.75 0.15 0.18 0.29 0.36 0.44 0.54l-0.03-0.02c1.15 2.02 2.56 3.84 4.2 5.49 0.55 1.07 1.31 1.96 2.24 2.73 0.19 0.24 0.38 0.47 0.58 0.71 0.02 0.15 0.11 0.24 0.26 0.26 1.72 2.03 3.45 4.05 5.24 6.16-2.87 1.02-5.62 1.1-8.29 1.62-0.3 0.01-0.61 0.02-0.91 0.04-0.3 0.01-0.6 0.02-0.9 0.02-1.23 0-2.46-0.01-3.69-0.01-0.15-0.01-0.3-0.02-0.45-0.02-0.89-0.06-1.77-0.11-2.66-0.17-3.25-0.7-6.51-1.4-9.76-2.1l-8.49-3.48c-0.7-0.59-1.47-1.06-2.37-1.27-0.34-0.21-0.68-0.43-1.02-0.64-0.14-0.08-0.28-0.17-0.42-0.25-2.01-1.53-4.02-3.07-6.04-4.6-1.45-1.52-2.91-3.04-4.36-4.56-1.6-2.35-3.19-4.69-4.79-7.04-0.43-0.93-0.86-1.86-1.29-2.79-1.03-2.78-1.72-5.66-2.39-8.55 0.02-2.28-0.03-4.56 0.08-6.83 0.04-0.93-0.26-1.37-1.09-1.69-4.92-1.89-9.37-4.64-13.68-7.64-0.89-0.75-1.79-1.5-2.68-2.25-2.16-2.32-4.32-4.64-6.49-6.96-0.61-1.62-2.26-2.46-3.01-3.98-0.27-1.81-1.85-2.92-2.46-4.55-1.92-3.91-3.98-7.85-4.62-12.14-0.85-5.67-3.37-8.75-9.27-10.09-6.2-1.41-12.08-4.22-18.1-6.42-0.73-0.27-1.46-0.6-2.14 0.05-0.6 0.57-0.42 1.23-0.17 1.91 2.09 5.57 4.17 11.15 6.25 16.72 0.68 2.45 1.45 4.88 2.49 7.2 0.87 3.09 1.8 6.16 3.02 9.13 0.94 3.06 1.88 6.12 2.81 9.18 0.89 3.06 1.78 6.12 2.66 9.18 0.77 3.06 1.53 6.13 2.3 9.19 0.46 2.29 0.92 4.59 1.37 6.88l0.27 2.28c-0.07 2 0.31 4.01-0.31 5.98-1.04 1.04-2.11 0.57-3.06-0.06-1.92-1.29-3.79-2.66-5.67-4.01-0.89-0.83-1.78-1.66-2.66-2.48-1.97-1.98-3.94-3.95-5.91-5.93-0.7-1.02-1.54-1.89-2.51-2.65-2.43-2.71-4.87-5.41-7.3-8.12-0.15-0.5-0.48-0.84-0.93-1.07-5.7-6.92-11.41-13.85-17.11-20.77-0.09-0.12-0.18-0.23-0.28-0.35-0.08-0.55-0.41-0.91-0.87-1.17-1.23-1.61-2.45-3.22-3.68-4.83-0.15-0.18-0.29-0.36-0.44-0.54l0.03 0.02c-1.4-2.14-2.8-4.28-4.2-6.42-0.3-0.98-0.72-1.9-1.38-2.69-1.08-3.06-2.16-6.12-3.23-9.17-0.4-3.04-0.74-6.09-0.78-9.16 0.39-3.13 0.99-6.22 1.96-9.23 0.82-1.71 1.64-3.42 2.46-5.13l0.16-0.09-0.02-0.18c0.11-0.19 0.23-0.37 0.34-0.56 0.11-0.14 0.21-0.28 0.32-0.42 0.15-0.08 0.21-0.2 0.19-0.37 3.28-4.41 7.21-8.18 11.54-11.54 0.17 0.02 0.3-0.05 0.38-0.2 0.13-0.1 0.26-0.21 0.38-0.31 0.57-0.16 1.06-0.44 1.43-0.92 0.21-0.13 0.41-0.26 0.62-0.39 0.26-0.15 0.52-0.3 0.78-0.44 0.44-0.18 0.88-0.36 1.33-0.54h0.02c1.61-0.33 1.71-0.45 1.22-1.48-0.01-0.17-0.11-0.28-0.28-0.33-0.14-0.2-0.28-0.4-0.43-0.6 0.02-0.17-0.04-0.28-0.2-0.34-0.1-0.14-0.21-0.28-0.31-0.42-0.2-0.32-0.41-0.64-0.61-0.95-0.1-0.14-0.21-0.27-0.31-0.41l-0.02-0.02c-0.13-0.18-0.26-0.36-0.4-0.53l0.03 0.04c-0.15-0.23-0.3-0.46-0.45-0.69-0.16-0.23-0.31-0.45-0.47-0.68-1.51-2.59-3.19-5.05-5.09-7.36-0.14-0.56-0.45-1.01-0.9-1.36-0.14-0.18-0.28-0.37-0.43-0.55h0.01c-1.73-5.23-0.11-7.94 5.34-8.97 1.72-0.32 3.43-0.68 5.14-1.02 2.95-0.2 5.83-0.82 8.72-1.42 3.51-0.29 5.09-3.61 3.28-6.87-0.76-2.15-1.51-4.3-2.77-6.23-0.11-1.12-0.68-2.05-1.23-2.98-0.91-2.29-1.81-4.58-2.72-6.86 0.02-0.07 0.08-0.16 0.06-0.21-0.05-0.13-0.15-0.24-0.22-0.36 0.06-0.55 0.12-1.1 0.18-1.64 0.52-1.9 1.79-3.18 3.44-4.15 0.3-0.06 0.6-0.11 0.9-0.17 2.76 0.04 5.52 0.08 8.28 0.11 3.35 0.39 6.71 0.47 10.08 0.38 2.43-0.79 3.85-3.22 3.16-5.4-0.06-0.45-0.1-0.91-0.19-1.35-1.15-5.69-2.76-11.28-3.58-17.03 0.06-0.43 0.13-0.86 0.19-1.29 1.45-2.49 3.35-4.14 6.49-3.47 0.89 0.19 1.78 0.36 2.67 0.54 3.05 0.76 6.1 1.51 9.15 2.27 1.46 0.39 2.91 0.82 4.38 1.16 1.78 0.41 4.76-1.83 4.78-3.67 0.02-1.58-0.17-3.16-0.27-4.74 0.2-0.47 0.16-0.94-0.04-1.4 0.04-0.05 0.12-0.12 0.11-0.16-0.04-0.12-0.1-0.23-0.16-0.34-0.04-2.26-0.09-4.53-0.13-6.79-0.02-1.6-0.06-3.19-0.05-4.79 0.01-1.62 0.45-3.42 1.66-4.21 1.9-1.24 4.13-1.61 6.47-0.41 3.52 1.8 7.16 3.34 10.75 4.99 1.35 0.69 2.68 1.44 4.06 2.06 1.41 0.64 4.88-1.09 5.12-2.61 0.73-4.59 1.36-9.2 2.03-13.8 0.21-0.96 0.46-1.92 0.63-2.89 0.77-4.48 2.58-5.92 7.03-5.55l8.73 6.12c0.91 0.93 1.93 1.73 3.1 2.32 1.09 0.89 2.21 1.75 3.28 2.66 0.94 0.81 1.86 0.78 2.82 0.07 1.77-0.11 3.13-0.7 3.2-2.78 1.15-2.62 2.15-5.3 2.88-8.07 0.89-2.34 1.78-4.68 2.66-7.03 1.71-4.53 6.03-5.49 9.34-1.95 3.69 3.95 7.23 8.04 10.85 12.06 1.83 2.04 5.25 1.69 6.64-0.66 0.58-0.98 1.11-1.99 1.66-2.98 2.07-3.17 4.04-6.39 5.77-9.76 0.97-1.23 1.64-2.7 2.89-3.7 4.17-1.24 5.95-0.49 8.12 3.22 1.92 3.28 3.94 6.49 5.92 9.74 0.96 1.78 1.57 3.8 3.36 5.02 0.13 0.01 0.27 0.03 0.4 0.04 0.33 0.03 0.66 0.05 0.99 0.08 1.58 0.64 2.85 0.37 3.92-1.08 1.07-1.44 2.31-2.75 3.47-4.12 0.64-0.41 1.13-0.96 1.46-1.64 2.29-2.5 4.59-5 6.88-7.5 0.72-0.34 1.46-0.65 2.2-0.95zm-4.65 124.32c-3.1 1.42-3.99 4.52-5.28 7.22-6.03 12.63-4.19 24.35 5.14 33.75 3.89 3.92 8.6 5.33 14.02 4.69 5.37-0.64 10.08-2.92 14.61-5.71 3.94-2.42 6.29-5.95 7.41-10.35 1.94-7.64-0.02-14.84-2.48-21.99-1.32-3.84-3.3-7.11-6.65-9.62-6.1-4.56-14.4-5.6-20.02-2.24-2.92 0.34-4.64 2.61-6.75 4.25zm-71.66-4.14c-3.31-0.05-5.48 1.73-7.19 4.35-1.11 1.69-1.63 3.59-2.22 5.47-2.17 3.23-3.25 6.9-4.06 10.64-2.21 10.18 0.13 18.91 8.92 25.11 4.62 3.26 9.54 6.12 15.64 5.45 11.3-1.23 18.47-7.65 20.82-18.77 0.86-4.08 0.88-8.22 0.26-12.32-2.55-16.7-14.23-24.72-31.12-20.76-0.49 0.12-0.83 0.4-1.05 0.83z"/>
	<path class="st1" d="m450 320.27c0.22-0.43 0.56-0.71 1.03-0.82 16.88-3.97 28.57 4.06 31.12 20.76 0.63 4.1 0.6 8.24-0.26 12.32-2.35 11.12-9.52 17.54-20.82 18.77-6.09 0.66-11.02-2.19-15.64-5.45-8.78-6.2-11.13-14.93-8.92-25.11 0.81-3.73 1.89-7.4 4.06-10.63-0.49 4.27-0.23 8.41 2.16 12.16 3.87 6.08 11.05 6.04 14.63-0.23 3.2-5.6 3.14-11.4-0.01-17.03-1.56-2.83-3.94-4.66-7.35-4.74z"/>
	<path class="st2" d="m528.42 320.16c5.62-3.37 13.92-2.33 20.02 2.24 3.35 2.51 5.33 5.78 6.65 9.62 2.47 7.15 4.42 14.35 2.48 21.99-1.12 4.4-3.46 7.93-7.41 10.35-4.54 2.79-9.24 5.07-14.61 5.71-5.42 0.64-10.13-0.77-14.02-4.69-9.33-9.4-11.17-21.12-5.14-33.75 1.29-2.7 2.17-5.8 5.28-7.22 0.39 0.94-0.37 1.58-0.64 2.34-2.01 5.79-1.75 11.32 2.24 16.19 3.22 3.93 8.06 3.95 11.58 0.33 4.02-4.14 4.94-11.91 2.04-17.56-1.77-3.44-4.37-5.65-8.47-5.55z"/>
	<path class="st3" d="m471.58 402.02c-9.01-4.62-18.6-6.25-28.62-5.43-3.57 0.29-6.97 1.54-10.45 2.34-2.4-0.26-4.8-0.52-7.21-0.78-3.04-0.5-6.07-1.08-9.16-1.2-3.61-0.78-7.22-1.56-10.93-1.66-2.66-3.17-4.97-6.55-6.42-10.47-0.17-0.45-0.75-0.93-0.16-1.42 0.38-0.32 0.87-0.1 1.31 0.01 11.13 2.88 22.39 5.11 33.71 7.04 8.84 1.5 17.76 2.44 26.68 3.43 16.81 1.86 33.66 2.1 50.51 1.63 9.8-0.27 19.57-1.25 29.32-2.49 11.49-1.45 22.83-3.64 34.1-6.21 4.88-1.12 9.68-2.62 15.03-4.09-1.9 4.47-3.23 8.7-6.95 11.56-3.48-0.14-6.77 0.92-10.14 1.52-4.97 0.74-9.95 1.49-14.92 2.23-10.73-2.27-21.14-1.27-31.22 3.08-9.11 0.33-18.22 0.67-27.32 1-7.51-0.03-15.02-0.15-22.53-0.04-1.53 0.02-3.08-0.78-4.63-0.05z"/>
	<path class="st4" d="m608.07 387.5c0.9-3.69 1.85-7.37 2.66-11.08 0.22-1 0.77-1.42 1.58-1.74 6.44-2.57 12.81-5.32 19.04-8.37 0.94-0.46 2.01-0.76 3.05-0.93 2.15-0.36 3.79 1.27 3.37 3.27-1.83 8.86-3.67 17.72-5.51 26.59-1.18 0.21-1.44 1.39-2.13 2.1-4.68 4.89-9.29 9.85-13.93 14.79-0.3 0.26-0.6 0.52-0.89 0.78-0.18 0.18-0.36 0.37-0.54 0.55l0.05-0.06c-0.24 0.21-0.49 0.42-0.73 0.63-1.72 1.36-3.44 2.73-5.16 4.09-2.84 1.15-3.35 0.76-3.08-2.38 0.1-1.19 0.24-2.38 0.36-3.57 0.68-2.81 1.35-5.63 2.03-8.44 0.38-1.32 0.76-2.65 1.14-3.97 0.62-1.99 1.23-3.97 1.85-5.96 0.9-2.51 1.8-5.02 2.82-7.84-2.25 0.57-4.12 1.06-5.98 1.54z"/>
	<path class="st4" d="m355.13 386.62c-2.08-5.57-4.16-11.15-6.25-16.72-0.25-0.68-0.43-1.34 0.17-1.91 0.68-0.65 1.41-0.31 2.14-0.05 6.02 2.21 11.9 5.01 18.1 6.42 5.89 1.34 8.42 4.42 9.27 10.09 0.64 4.29 2.7 8.23 4.61 12.13 0.67 1.12-0.44 2.63 0.78 3.63 0.03 0.14 0.06 0.29 0.09 0.43-0.07 0.54-0.02 1.05 0.38 1.46 0.13 2.66 1.11 5.15 1.57 7.74 0.06 0.24 0.13 0.47 0.19 0.71 0.06 0.52 0.12 1.04 0.19 1.57 0.02 1.52 0.1 3.04 0.06 4.56-0.04 1.62-0.88 2.09-2.22 1.17-1.63-1.12-3.16-2.37-4.74-3.56-0.62-0.87-1.35-1.62-2.24-2.22-2.32-2.47-4.64-4.93-6.96-7.4-0.31-0.73-0.86-1.25-1.48-1.71-2.55-3-5.1-5.99-7.65-8.99 0.02-0.12-0.04-0.19-0.16-0.21-1.82-2.47-3.73-4.89-5.85-7.14z"/>
	<path class="st5" d="m450 320.27c3.4 0.09 5.79 1.92 7.36 4.72 3.16 5.63 3.21 11.43 0.01 17.03-3.58 6.27-10.76 6.31-14.63 0.23-2.39-3.75-2.65-7.89-2.16-12.16 0.59-1.89 1.12-3.79 2.22-5.48 1.72-2.61 3.9-4.4 7.2-4.34z"/>
	<path class="st5" d="m528.42 320.16c4.1-0.1 6.7 2.11 8.47 5.54 2.91 5.65 1.99 13.43-2.04 17.56-3.52 3.62-8.36 3.6-11.58-0.33-3.99-4.87-4.26-10.4-2.24-16.19 0.26-0.76 1.02-1.4 0.64-2.34 2.11-1.63 3.82-3.9 6.75-4.24z"/>
	<path class="st6" d="m314.66 351.06c0.11-0.14 0.21-0.28 0.32-0.42-0.11 0.15-0.22 0.29-0.32 0.42z"/>
	<path class="st6" d="m314.18 351.9c0.03-0.1 0.07-0.19 0.14-0.27l0.02 0.18-0.16 0.09z"/>
</svg>
