<?xml version="1.0" encoding="UTF-8" standalone="no"?>
<!-- Created with Inkscape (http://www.inkscape.org/) -->

<svg
   xmlns:dc="http://purl.org/dc/elements/1.1/"
   xmlns:cc="http://creativecommons.org/ns#"
   xmlns:rdf="http://www.w3.org/1999/02/22-rdf-syntax-ns#"
   xmlns:svg="http://www.w3.org/2000/svg"
   xmlns="http://www.w3.org/2000/svg"
   xmlns:sodipodi="http://sodipodi.sourceforge.net/DTD/sodipodi-0.dtd"
   xmlns:inkscape="http://www.inkscape.org/namespaces/inkscape"
   width="36in"
   height="2in"
   viewBox="0 0 360.00001 50.799995"
   version="1.1"
   id="svg8"
   inkscape:version="0.92.3 (2405546, 2018-03-11)"
   sodipodi:docname="Lanyard.svg"
   inkscape:export-filename="/home/anxhelo/Desktop/RUST LATAM Assets/PNG/Lanyard/Lanyard.png"
   inkscape:export-xdpi="96"
   inkscape:export-ydpi="96">
  <defs
     id="defs2" />
  <sodipodi:namedview
     id="base"
     pagecolor="#ffffff"
     bordercolor="#666666"
     borderopacity="1.0"
     inkscape:pageopacity="0"
     inkscape:pageshadow="2"
     inkscape:zoom="0.13116802"
     inkscape:cx="2292.8063"
     inkscape:cy="-580.37872"
     inkscape:document-units="px"
     inkscape:current-layer="g6582"
     inkscape:document-rotation="0"
     showgrid="false"
     borderlayer="true"
     inkscape:showpageshadow="true"
     units="in"
     inkscape:pagecheckerboard="false"
     showguides="false"
     inkscape:window-width="1366"
     inkscape:window-height="715"
     inkscape:window-x="0"
     inkscape:window-y="0"
     inkscape:window-maximized="1"
     objecttolerance="10"
     guidetolerance="10"
     inkscape:snap-tangential="true"
     inkscape:snap-perpendicular="true"
     inkscape:snap-page="true">
    <inkscape:grid
       type="xygrid"
       id="grid10"
       dotted="false" />
  </sodipodi:namedview>
  <metadata
     id="metadata5">
    <rdf:RDF>
      <cc:Work
         rdf:about="">
        <dc:format>image/svg+xml</dc:format>
        <dc:type
           rdf:resource="http://purl.org/dc/dcmitype/StillImage" />
        <dc:title></dc:title>
        <cc:license
           rdf:resource="" />
      </cc:Work>
    </rdf:RDF>
  </metadata>
  <g
     inkscape:label="Layer 1"
     inkscape:groupmode="layer"
     id="layer1"
     transform="translate(0,-246.20001)">
    <g
       id="g6582"
       transform="translate(0,1.1811122)">
      <rect
         style="opacity:1;fill:#000000;fill-opacity:1;fill-rule:nonzero;stroke:none;stroke-width:1.32291651;stroke-linecap:square;stroke-linejoin:miter;stroke-miterlimit:4;stroke-dasharray:none;stroke-opacity:1;paint-order:markers stroke fill"
         id="rect6621"
         width="914.3999"
         height="50.799995"
         x="-277.19995"
         y="245.01891" />
      <g
         transform="matrix(0.45020168,0,0,0.45020168,295.16488,41.085289)"
         style="fill:#ffffff;fill-opacity:1"
         id="g1646">
        <path
           style="fill:#ffffff;fill-opacity:1"
           inkscape:connector-curvature="0"
           id="path1644"
           d="m -1112.3,508.9 c -0.1,-0.2 -0.3,-0.3 -0.5,-0.5 l -4.2,-2.6 c 0,-0.4 -0.1,-0.8 -0.1,-1.1 l 3.6,-3.3 c 0.6,-0.5 0.6,-1.4 0.1,-2 -0.1,-0.2 -0.3,-0.3 -0.5,-0.4 l -4.6,-1.7 c -0.1,-0.4 -0.2,-0.7 -0.3,-1.1 l 2.9,-4 c 0.5,-0.6 0.3,-1.5 -0.3,-2 -0.2,-0.1 -0.4,-0.2 -0.6,-0.2 l -4.9,-0.8 c -0.2,-0.3 -0.3,-0.7 -0.5,-1 l 2,-4.5 c 0.3,-0.7 0,-1.5 -0.7,-1.9 -0.2,-0.1 -0.4,-0.1 -0.6,-0.1 l -4.9,0.2 c -0.2,-0.3 -0.5,-0.6 -0.7,-0.8 l 1.1,-4.8 c 0.2,-0.8 -0.3,-1.5 -1,-1.7 -0.2,-0.1 -0.4,-0.1 -0.6,0 l -4.8,1.1 c -0.3,-0.2 -0.6,-0.5 -0.8,-0.7 l 0.2,-4.9 c 0,-0.8 -0.6,-1.4 -1.4,-1.5 -0.2,0 -0.4,0 -0.6,0.1 l -4.5,2 c -0.3,-0.2 -0.7,-0.4 -1,-0.5 l -0.8,-4.9 c -0.1,-0.8 -0.8,-1.3 -1.6,-1.2 -0.2,0 -0.4,0.1 -0.6,0.2 l -4,2.9 c -0.4,-0.1 -0.7,-0.2 -1.1,-0.3 l -1.7,-4.6 c -0.3,-0.7 -1.1,-1.1 -1.8,-0.8 -0.2,0.1 -0.4,0.2 -0.5,0.4 l -3.3,3.6 c -0.4,0 -0.7,-0.1 -1.1,-0.1 l -2.6,-4.2 c -0.3,-0.4 -0.7,-0.7 -1.2,-0.7 -0.5,0 -1,0.2 -1.2,0.7 l -2.6,4.2 c -0.4,0 -0.8,0.1 -1.1,0.1 l -3.3,-3.6 c -0.5,-0.6 -1.4,-0.6 -2,-0.1 -0.2,0.1 -0.3,0.3 -0.4,0.5 l -1.7,4.6 c -0.4,0.1 -0.7,0.2 -1.1,0.3 l -4,-2.9 c -0.6,-0.5 -1.5,-0.3 -2,0.3 -0.1,0.2 -0.2,0.4 -0.2,0.6 l -0.8,4.9 c -0.3,0.2 -0.7,0.3 -1,0.5 l -4.5,-2 c -0.7,-0.3 -1.5,0 -1.9,0.7 -0.1,0.2 -0.1,0.4 -0.1,0.6 l 0.2,4.9 c -0.3,0.2 -0.6,0.5 -0.8,0.7 l -4.8,-1.1 c -0.8,-0.2 -1.5,0.3 -1.7,1 -0.1,0.2 -0.1,0.4 0,0.6 l 1.1,4.8 c -0.2,0.3 -0.5,0.6 -0.7,0.8 l -4.9,-0.2 c -0.8,0 -1.4,0.6 -1.5,1.4 0,0.2 0,0.4 0.1,0.6 l 2,4.5 c -0.2,0.3 -0.4,0.7 -0.5,1 l -4.9,0.8 c -0.8,0.1 -1.3,0.8 -1.2,1.6 0,0.2 0.1,0.4 0.2,0.6 l 2.9,4 c -0.1,0.4 -0.2,0.7 -0.3,1.1 l -4.6,1.7 c -0.7,0.3 -1.1,1.1 -0.8,1.8 0.1,0.2 0.2,0.4 0.4,0.5 l 3.6,3.3 c 0,0.4 -0.1,0.7 -0.1,1.1 l -4.2,2.6 c -0.7,0.4 -0.9,1.3 -0.5,1.9 0.1,0.2 0.3,0.3 0.5,0.5 l 4.2,2.6 c 0,0.4 0.1,0.8 0.1,1.1 l -3.6,3.3 c -0.6,0.5 -0.6,1.4 -0.1,2 0.1,0.2 0.3,0.3 0.5,0.4 l 4.6,1.7 c 0.1,0.4 0.2,0.7 0.3,1.1 l -2.9,4 c -0.5,0.6 -0.3,1.5 0.3,2 0.2,0.1 0.4,0.2 0.6,0.2 l 4.9,0.8 c 0.2,0.3 0.3,0.7 0.5,1 l -2,4.5 c -0.3,0.7 0,1.5 0.7,1.9 0.2,0.1 0.4,0.1 0.6,0.1 l 4.9,-0.2 c 0.2,0.3 0.5,0.6 0.7,0.8 l -1.1,4.8 c -0.2,0.8 0.3,1.5 1,1.7 0.2,0.1 0.4,0.1 0.6,0 l 4.8,-1.1 c 0.3,0.2 0.6,0.5 0.8,0.7 l -0.2,4.9 c 0,0.8 0.6,1.4 1.4,1.5 0.2,0 0.4,0 0.6,-0.1 l 4.5,-2 c 0.3,0.2 0.7,0.4 1,0.5 l 0.8,4.9 c 0.1,0.8 0.8,1.3 1.6,1.2 0.2,0 0.4,-0.1 0.6,-0.2 l 4,-2.9 c 0.4,0.1 0.7,0.2 1.1,0.3 l 1.7,4.6 c 0.3,0.7 1.1,1.1 1.8,0.8 0.2,-0.1 0.4,-0.2 0.5,-0.4 l 3.3,-3.6 c 0.4,0 0.7,0.1 1.1,0.1 l 2.6,4.2 c 0.4,0.7 1.3,0.9 1.9,0.5 0.2,-0.1 0.3,-0.3 0.5,-0.5 l 2.6,-4.2 c 0.4,0 0.7,-0.1 1.1,-0.1 l 3.3,3.6 c 0.5,0.6 1.4,0.6 2,0.1 0.2,-0.1 0.3,-0.3 0.4,-0.5 l 1.7,-4.6 c 0.4,-0.1 0.7,-0.2 1.1,-0.3 l 4,2.9 c 0.6,0.5 1.5,0.3 2,-0.3 0.1,-0.2 0.2,-0.4 0.2,-0.6 l 0.8,-4.9 c 0.3,-0.2 0.7,-0.3 1,-0.5 l 4.5,2 c 0.7,0.3 1.5,0 1.9,-0.7 0.1,-0.2 0.1,-0.4 0.1,-0.6 l -0.2,-4.9 c 0.3,-0.2 0.6,-0.5 0.8,-0.7 l 4.8,1.1 c 0.8,0.2 1.5,-0.3 1.7,-1 0.1,-0.2 0.1,-0.4 0,-0.6 l -1.1,-4.8 c 0.2,-0.3 0.5,-0.6 0.7,-0.8 l 4.9,0.2 c 0.8,0 1.4,-0.6 1.5,-1.4 0,-0.2 0,-0.4 -0.1,-0.6 l -2,-4.5 c 0.2,-0.3 0.4,-0.7 0.5,-1 l 4.9,-0.8 c 0.8,-0.1 1.3,-0.8 1.2,-1.6 0,-0.2 -0.1,-0.4 -0.2,-0.6 l -2.9,-4 c 0.1,-0.4 0.2,-0.7 0.3,-1.1 l 4.6,-1.7 c 0.7,-0.3 1.1,-1.1 0.8,-1.8 -0.1,-0.2 -0.2,-0.4 -0.4,-0.5 l -3.6,-3.3 c 0,-0.4 0.1,-0.7 0.1,-1.1 l 4.2,-2.6 c 0.7,-0.4 0.9,-1.2 0.5,-1.9 z m -13,3.1 h -3.7 c -0.4,0 -0.5,0.2 -0.5,0.6 v 1.7 c 0,4 -2.2,4.8 -4.2,5.1 -1.9,0.2 -3.9,-0.8 -4.2,-1.9 -1.1,-6.2 -2.9,-7.5 -5.8,-9.8 3.6,-2.3 7.4,-5.7 7.4,-10.2 0,-4.9 -3.3,-8 -5.6,-9.5 -3.2,-2.1 -6.7,-2.5 -7.7,-2.5 h -38 c 5.3,-5.9 12.3,-9.9 20.1,-11.3 l 4.5,4.7 c 1,1.1 2.7,1.1 3.7,0.1 l 5,-4.8 c 10.4,1.9 19.3,8.3 24.5,17.5 l -3.4,7.8 c -0.6,1.3 0,2.9 1.3,3.5 l 6.6,2.9 c 0.1,1.9 0.2,4 0,6.1 z m -16.3,21.1 c -1.4,-0.3 -2.8,0.6 -3.2,2 l -1.5,6.8 c -9.5,4.3 -20.4,4.3 -29.9,-0.1 l -1.5,-6.8 c -0.3,-1.4 -1.7,-2.4 -3.1,-2 l -6,1.3 c -1.1,-1.2 -2.2,-2.4 -3.1,-3.7 h 29.3 c 0.3,0 0.6,-0.1 0.6,-0.4 v -10.4 c 0,-0.3 -0.2,-0.4 -0.6,-0.4 h -8.6 v -6.6 h 9.3 c 0.8,0 4.5,0.2 5.7,4.9 0.4,1.4 1.2,6.1 1.7,7.7 0.6,1.7 2.8,5.1 5.2,5.1 h 15.1 c -1,1.4 -2.1,2.6 -3.3,3.8 z m 4.9,6.6 c 0,1.6 -1.3,2.9 -2.9,2.9 -1.6,0 -2.9,-1.3 -2.9,-2.9 0,-1.6 1.3,-2.9 2.9,-2.9 0,0 0.1,0 0.1,0 1.5,0 2.8,1.3 2.8,2.9 z m -43.2,-0.1 c 0,1.6 -1.3,2.9 -2.9,2.9 -1.6,0 -2.9,-1.3 -2.9,-2.9 0,-1.6 1.3,-2.9 2.9,-2.9 0,0 0.1,0 0.1,0 1.6,0 2.8,1.3 2.8,2.9 z m -15.6,-20.5 c -1.3,-4.4 -1.7,-9.1 -1.2,-13.7 l 6.3,-2.8 c 1.3,-0.6 1.9,-2.2 1.3,-3.5 l -1.3,-2.9 h 5.1 v 22.9 z m -0.4,-23.4 c 0,0 0,0 0,0 1.7,0 2.9,1.3 2.9,2.9 0,1.6 -1.3,2.9 -2.9,2.9 -1.6,0 -2.9,-1.3 -2.9,-2.9 0,-1.6 1.3,-2.9 2.9,-2.9 z m 26.7,7.5 v -6.8 h 12.1 c 0.6,0 4.4,0.7 4.4,3.6 0,2.4 -2.9,3.2 -5.3,3.2 z m 5.1,-31 c 0,-1.6 1.3,-2.9 2.9,-2.9 0,0 0.1,0 0.1,0 1.6,0 2.8,1.3 2.8,2.9 0,1.6 -1.3,2.9 -2.9,2.9 -1.6,0 -2.9,-1.3 -2.9,-2.9 z m 37.6,29.4 c -1.6,0 -2.9,-1.3 -2.9,-2.9 0,-1.6 1.3,-2.9 2.9,-2.9 0,0 0.1,0 0.1,0 1.6,0 2.8,1.3 2.8,2.9 0,1.6 -1.3,2.9 -2.9,2.9 z m -66.3,39.7 c 0,0 0.1,0 0.1,0 z"
           class="st8" />
      </g>
      <g
         id="g6593"
         transform="translate(6.0513982,3.9415303)"
         style="fill:#ffffff;fill-opacity:1">
        <path
           class="st8"
           d="m -199.52744,276.3243 h 3.69738 c 0.22643,0 0.37728,-0.0756 0.52821,-0.22645 0.15084,-0.15084 0.22643,-0.30184 0.22643,-0.52818 v -6.03654 h 2.56554 l 3.09372,6.03654 c 0.0756,0.22644 0.22646,0.37727 0.45274,0.52818 0.15085,0.15085 0.45276,0.22645 0.75457,0.22645 h 3.8483 c 0.15085,0 0.30181,-0.0756 0.45272,-0.15084 0.15085,-0.15085 0.15085,-0.30181 0.15085,-0.45274 0,-0.0756 0,-0.22644 -0.0756,-0.30183 l -3.47101,-6.71563 c 2.26371,-1.0564 3.32011,-2.86737 3.32011,-5.58378 0,-2.1128 -0.67912,-3.77282 -2.11281,-4.82924 -1.35821,-1.05641 -3.32006,-1.58461 -5.81015,-1.58461 h -7.62113 c -0.22644,0 -0.37726,0.0756 -0.52819,0.22646 -0.15085,0.15084 -0.22644,0.30181 -0.22644,0.52819 v 18.10959 c 0,0.22644 0.0756,0.37729 0.22644,0.52822 0.15084,0.15084 0.37728,0.22643 0.52819,0.22643 z m 4.45194,-15.3177 h 3.16917 c 1.81097,0 2.71644,0.6791 2.71644,2.11279 0,1.35822 -0.90547,2.1128 -2.71644,2.1128 h -3.16917 z"
           id="path1648"
           inkscape:connector-curvature="0"
           style="fill:#ffffff;fill-opacity:1;stroke-width:0.75456637" />
        <path
           class="st8"
           d="m -176.13589,275.64521 c 1.28279,0.60362 2.7919,0.90548 4.52738,0.90548 1.73553,0 3.1692,-0.30186 4.45195,-0.90548 1.28279,-0.60366 2.2637,-1.50914 3.01828,-2.71644 0.67911,-1.20732 1.05638,-2.64101 1.05638,-4.30105 v -11.16756 c 0,-0.22645 -0.0753,-0.37729 -0.22644,-0.52821 -0.15085,-0.15084 -0.30181,-0.22645 -0.5282,-0.22645 h -3.69737 c -0.22644,0 -0.3773,0.0756 -0.52821,0.22645 -0.15085,0.15085 -0.22644,0.30183 -0.22644,0.52821 v 11.09211 c 0,1.13186 -0.30181,2.03733 -0.83002,2.64097 -0.60365,0.60367 -1.43367,0.90547 -2.49008,0.90547 -1.05637,0 -1.88639,-0.3018 -2.49006,-0.90547 -0.60365,-0.60364 -0.83002,-1.50911 -0.83002,-2.64097 v -11.09211 c 0,-0.22645 -0.0756,-0.37729 -0.22645,-0.52821 -0.15085,-0.15084 -0.30181,-0.22645 -0.52818,-0.22645 h -3.69736 c -0.22644,0 -0.37731,0.0756 -0.52821,0.22645 -0.15085,0.15085 -0.22644,0.30183 -0.22644,0.52821 v 11.16756 c 0,1.66004 0.37729,3.09373 1.05641,4.30105 0.60367,1.2073 1.66004,2.11278 2.94278,2.71644 z"
           id="path1650"
           inkscape:connector-curvature="0"
           style="fill:#ffffff;fill-opacity:1;stroke-width:0.75456637" />
        <path
           class="st8"
           d="m -155.76259,275.72065 c 1.28274,0.52818 2.7919,0.83004 4.37649,0.83004 1.66004,0 3.1692,-0.22644 4.45194,-0.75458 1.28276,-0.52821 2.33916,-1.2073 3.09371,-2.11278 0.75456,-0.90547 1.13184,-2.03734 1.13184,-3.24466 0,-1.73549 -0.52816,-3.01825 -1.50911,-3.92373 -0.98093,-0.90547 -2.56555,-1.58458 -4.67832,-2.03733 -1.66004,-0.30181 -2.7919,-0.60364 -3.471,-0.75457 -0.67912,-0.15084 -1.13186,-0.37726 -1.50914,-0.60365 -0.30181,-0.22643 -0.45274,-0.52821 -0.45274,-0.90547 0,-0.52822 0.22644,-0.90548 0.75455,-1.13183 0.52821,-0.22647 1.20733,-0.30186 1.96188,-0.30186 0.60369,0 1.05641,0.0756 1.50916,0.22643 0.45272,0.15085 0.75457,0.37729 0.98093,0.60367 0.22646,0.22644 0.30181,0.37727 0.37729,0.37727 0.15084,0.15084 0.37728,0.30184 0.52821,0.3773 0.15084,0.0756 0.37726,0.0756 0.60362,0.0756 h 3.69737 c 0.15085,0 0.30183,-0.0756 0.3773,-0.15085 0.15085,-0.15085 0.15085,-0.30181 0.15085,-0.45274 0,-0.83002 -0.45276,-1.66004 -1.13186,-2.49006 -0.75457,-0.83003 -1.73552,-1.58458 -2.9428,-2.11279 -1.28278,-0.60364 -2.64099,-0.83002 -4.15014,-0.83002 -1.58456,0 -2.94279,0.30181 -4.15011,0.83002 -1.20729,0.52821 -2.11278,1.28276 -2.7919,2.18823 -0.67911,0.90548 -0.98092,1.96188 -0.98092,3.01829 0,1.58457 0.45276,2.86732 1.35821,3.84827 0.90548,0.98094 2.26371,1.66006 4.22558,2.03736 l 1.28274,0.22643 c 1.28281,0.30185 2.26371,0.5282 2.86736,0.67911 0.60368,0.15085 1.0564,0.30183 1.35823,0.52821 0.30182,0.22644 0.52819,0.45274 0.52819,0.83002 0,0.98095 -1.13186,1.50911 -3.47097,1.50911 -0.67914,0 -1.28281,-0.0756 -1.73553,-0.30181 -0.5282,-0.22645 -0.83002,-0.45273 -1.13185,-0.75456 -0.22643,-0.30184 -0.37728,-0.45274 -0.45274,-0.52819 -0.3018,-0.22644 -0.67914,-0.37729 -1.0564,-0.37729 h -3.69738 c -0.15085,0 -0.30181,0.0756 -0.37728,0.15085 -0.15085,0.15085 -0.15085,0.30184 -0.15085,0.45274 0,0.98095 0.45274,1.88642 1.2073,2.7919 0.67909,0.90548 1.66004,1.66007 3.01826,2.18824 z"
           id="path1652"
           inkscape:connector-curvature="0"
           style="fill:#ffffff;fill-opacity:1;stroke-width:0.75456637" />
        <path
           class="st8"
           d="m -141.27492,261.15754 h 4.90467 v 14.41222 c 0,0.22643 0.0756,0.37726 0.22645,0.52819 0.15084,0.15085 0.30182,0.22644 0.52821,0.22644 h 3.69738 c 0.22643,0 0.37726,-0.0756 0.52816,-0.22644 0.15084,-0.15084 0.22643,-0.30184 0.22643,-0.52819 v -14.41222 h 4.90468 c 0.22644,0 0.37729,-0.0756 0.52822,-0.22643 0.15084,-0.15085 0.22643,-0.30185 0.22643,-0.52821 v -2.9428 c 0,-0.22644 -0.0756,-0.37728 -0.22643,-0.52821 -0.15085,-0.15085 -0.30181,-0.22644 -0.52822,-0.22644 h -15.09132 c -0.22645,0 -0.3773,0.0756 -0.52819,0.22644 -0.15085,0.15084 -0.22644,0.30182 -0.22644,0.52821 v 2.9428 c 0,0.22643 0.0756,0.37726 0.22644,0.52821 0.22645,0.15084 0.45275,0.22643 0.60365,0.22643 z"
           id="path1654"
           inkscape:connector-curvature="0"
           style="fill:#ffffff;fill-opacity:1;stroke-width:0.75456637" />
        <path
           class="st8"
           d="m -116.14785,276.3243 h 12.97854 c 0.22644,0 0.37727,-0.0756 0.5282,-0.22645 0.15084,-0.15084 0.22643,-0.30184 0.22643,-0.52818 v -2.94283 c 0,-0.22643 -0.0756,-0.37728 -0.22643,-0.52821 -0.15085,-0.15084 -0.30184,-0.22644 -0.5282,-0.22644 h -8.5266 v -14.41221 c 0,-0.22644 -0.0756,-0.37726 -0.22643,-0.52819 -0.15085,-0.15085 -0.30183,-0.22644 -0.52822,-0.22644 h -3.69734 c -0.22645,0 -0.3773,0.0756 -0.5282,0.22644 -0.15084,0.15084 -0.22643,0.3018 -0.22643,0.52819 v 18.10959 c 0,0.22644 0.0756,0.37728 0.22643,0.52821 0.0756,0.15085 0.30181,0.22644 0.5282,0.22644 z"
           id="path1656"
           inkscape:connector-curvature="0"
           style="fill:#ffffff;fill-opacity:1;stroke-width:0.75456637" />
        <path
           class="st8"
           d="m -99.622858,276.3243 h 3.546465 c 0.301842,0 0.528211,-0.0756 0.75458,-0.22645 0.150846,-0.15084 0.301809,-0.30184 0.377282,-0.52818 l 0.754547,-2.33918 h 7.47023 l 0.754563,2.33918 c 0.07559,0.15085 0.150846,0.37727 0.377282,0.52818 0.150846,0.15085 0.452721,0.22645 0.754547,0.22645 h 3.546482 c 0.150846,0 0.301825,-0.0756 0.452755,-0.15084 0.150845,-0.15085 0.150845,-0.30181 0.150845,-0.45274 0,-0.0756 0,-0.22644 -0.07559,-0.45275 l -6.111965,-17.65684 c -0.07559,-0.22644 -0.226436,-0.45276 -0.452738,-0.67911 -0.226453,-0.15084 -0.452738,-0.30181 -0.83002,-0.30181 h -4.527398 c -0.301842,0 -0.603668,0.0753 -0.83002,0.30181 -0.226436,0.15085 -0.377298,0.37728 -0.452738,0.67911 l -6.112001,17.65684 c -0.0756,0.15084 -0.0756,0.30184 -0.0756,0.45275 0,0.15085 0.0756,0.30184 0.15085,0.45274 0.07559,0.0756 0.226451,0.15084 0.37728,0.15084 z m 9.130269,-14.11038 2.263691,6.71563 h -4.527398 z"
           id="path1658"
           inkscape:connector-curvature="0"
           style="fill:#ffffff;fill-opacity:1;stroke-width:0.75456637" />
        <path
           class="st8"
           d="m -81.890531,261.15754 h 4.90468 v 14.41222 c 0,0.22643 0.07559,0.37726 0.226436,0.52819 0.150846,0.15085 0.301809,0.22644 0.528178,0.22644 h 3.697361 c 0.226436,0 0.377299,-0.0756 0.528211,-0.22644 0.150846,-0.15084 0.226437,-0.30184 0.226437,-0.52819 v -14.41222 h 4.904713 c 0.226436,0 0.377265,-0.0756 0.528178,-0.22643 0.150845,-0.15085 0.226436,-0.30185 0.226436,-0.52821 v -2.9428 c 0,-0.22644 -0.07559,-0.37728 -0.226436,-0.52821 -0.150846,-0.15085 -0.301826,-0.22644 -0.528178,-0.22644 H -81.96587 c -0.226436,0 -0.377265,0.0756 -0.528178,0.22644 -0.150845,0.15084 -0.226453,0.30182 -0.226453,0.52821 v 2.9428 c 0,0.22643 0.07559,0.37726 0.226453,0.52821 0.226436,0.15084 0.377265,0.22643 0.603651,0.22643 z"
           id="path1660"
           inkscape:connector-curvature="0"
           style="fill:#ffffff;fill-opacity:1;stroke-width:0.75456637" />
        <path
           class="st8"
           d="m -67.931072,275.64521 c 0,0.15085 0.07559,0.30181 0.150846,0.45274 0.150846,0.15085 0.301809,0.15085 0.452738,0.15085 h 3.546466 c 0.301808,0 0.528177,-0.0756 0.754546,-0.22646 0.226453,-0.15084 0.301826,-0.30184 0.377282,-0.52817 l 0.754581,-2.33918 h 7.470196 l 0.754546,2.33918 c 0.07559,0.15084 0.150846,0.37726 0.377316,0.52817 0.150845,0.15085 0.452738,0.22646 0.754563,0.22646 h 3.546449 c 0.150846,0 0.301825,-0.0756 0.452738,-0.15085 0.150846,-0.15084 0.150846,-0.30184 0.150846,-0.45274 0,-0.0756 0,-0.22643 -0.07559,-0.45275 l -6.111998,-17.65684 c -0.07559,-0.22643 -0.226436,-0.45275 -0.452738,-0.67914 -0.226453,-0.15085 -0.452738,-0.30181 -0.83002,-0.30181 h -4.527398 c -0.301826,0 -0.603634,0.0756 -0.83002,0.30181 -0.226436,0.15085 -0.377282,0.3773 -0.452738,0.67914 l -6.111965,17.65684 c -0.150846,0.22645 -0.150846,0.3773 -0.150846,0.45275 z m 9.733904,-13.43129 2.26369,6.71563 h -4.527398 z"
           id="path1662"
           inkscape:connector-curvature="0"
           style="fill:#ffffff;fill-opacity:1;stroke-width:0.75456637" />
        <path
           class="st8"
           d="m -45.369537,276.3243 h 3.697378 c 0.226453,0 0.377282,-0.0756 0.528211,-0.22645 0.150846,-0.15084 0.226436,-0.30184 0.226436,-0.52818 v -9.2812 l 2.640973,4.60288 c 0.150845,0.22643 0.301858,0.37726 0.452754,0.52819 0.150846,0.15085 0.377299,0.22645 0.603651,0.22645 h 1.81097 c 0.226436,0 0.452738,-0.0752 0.60365,-0.22645 0.150846,-0.15085 0.301826,-0.30182 0.452739,-0.52819 l 2.640985,-4.60288 v 9.2812 c 0,0.22644 0.07557,0.37727 0.226443,0.52818 0.150863,0.15085 0.301844,0.22645 0.5282,0.22645 h 3.69738 c 0.226442,0 0.377278,-0.0756 0.528202,-0.22645 0.150863,-0.15084 0.226442,-0.30184 0.226442,-0.52818 v -18.10961 c 0,-0.22643 -0.07557,-0.37726 -0.226442,-0.52821 -0.150862,-0.15084 -0.301818,-0.22643 -0.528202,-0.22643 h -3.244639 c -0.528203,0 -0.905481,0.22643 -1.207298,0.75459 l -4.527397,7.77204 -4.527398,-7.77204 c -0.301825,-0.52819 -0.679124,-0.75459 -1.207301,-0.75459 h -3.24464 c -0.226436,0 -0.377282,0.0756 -0.528195,0.22643 -0.150846,0.15085 -0.226453,0.30185 -0.226453,0.52821 v 18.10961 c 0,0.22644 0.07559,0.37727 0.226453,0.52818 0,0.15085 0.150846,0.22645 0.377282,0.22645 z"
           id="path1664"
           inkscape:connector-curvature="0"
           style="fill:#ffffff;fill-opacity:1;stroke-width:0.75456637" />
      </g>
      <path
         inkscape:connector-curvature="0"
         id="rect1712"
         d="m -6.937505,259.8116 c -0.815528,0 -1.471586,0.6575 -1.471586,1.47298 v 18.26864 c 0,0.81549 0.656058,1.47297 1.471586,1.47297 H 160.73686 c 0.81549,0 1.47301,-0.65748 1.47301,-1.47297 v -18.26864 c 0,-0.81548 -0.65752,-1.47298 -1.47301,-1.47298 z m 25.685396,5.41583 c 3.128964,0 5.435971,2.1923 5.435971,5.19148 0,2.99916 -2.307007,5.19001 -5.435971,5.19001 -3.128931,0 -5.436003,-2.20527 -5.436003,-5.19001 0,-2.98472 2.307072,-5.19148 5.436003,-5.19148 z m 86.623519,0 c 3.12893,0 5.43599,2.1923 5.43599,5.19148 0,2.99916 -2.30706,5.19001 -5.43599,5.19001 -3.12892,0 -5.435989,-2.20527 -5.435989,-5.19001 0,-2.98472 2.307069,-5.19148 5.435989,-5.19148 z m 17.41272,0 c 2.19169,0 3.60482,1.1106 3.60482,2.89853 0,0.98051 -0.2728,1.87411 -1.67151,3.18625 l -2.69713,2.56766 h 4.75849 v 1.58519 h -7.43981 v -1.25434 l 4.00759,-3.80619 c 0.98048,-0.93724 1.15368,-1.52922 1.15368,-2.09157 0,-0.92279 -0.63432,-1.4557 -1.87437,-1.4557 -0.98047,0 -1.8025,0.33198 -2.36482,1.05295 l -1.31189,-1.00981 c 0.77861,-1.05261 2.17675,-1.67297 3.83495,-1.67297 z m 10.51958,0 c 2.40798,0 4.22479,1.87512 4.22479,5.19148 0,3.3164 -1.81681,5.19001 -4.22479,5.19001 -2.39358,0 -4.21041,-1.87361 -4.21041,-5.19001 0,-3.31636 1.81683,-5.19148 4.21041,-5.19148 z m 16.89344,0 c 2.75405,0 4.36864,1.77456 4.36864,5.01888 0,3.46055 -2.01839,5.36261 -4.94548,5.36261 -1.00931,0 -1.97478,-0.2163 -2.65253,-0.64876 l 0.6919,-1.41258 c 0.54792,0.3605 1.21095,0.49052 1.91749,0.49052 1.90329,0 3.09993,-1.18273 3.09993,-3.47536 v -0.0147 c -0.60561,0.70653 -1.57104,1.05295 -2.69573,1.05295 -1.98981,0 -3.47535,-1.21101 -3.47535,-3.09989 0,-2.00426 1.62921,-3.27399 3.69113,-3.27399 z M -0.76642897,265.3727 h 1.543452 l 4.00758977,6.69034 3.9370977,-6.69034 h 1.5420125 l 0.01669,10.09231 H 8.5067651 l -0.016687,-6.69034 -3.3156565,5.53671 H 4.3386407 L 1.021512,268.861 v 6.60401 h -1.78795797 z m 27.96388997,0 h 1.543484 l 5.565488,6.83417 v -6.83417 h 1.859939 v 10.09231 h -1.542061 l -5.565422,-6.83417 v 6.83417 h -1.861428 z m 11.417217,0 h 8.566064 v 1.58519 h -3.34584 v 8.50712 h -1.87432 v -8.50712 h -3.345904 z m 10.99997,0 h 7.367875 v 1.57081 h -5.493474 v 2.62375 h 4.873472 v 1.5435 h -4.873472 v 2.78346 h 5.694873 v 1.57079 h -7.569274 z m 9.118501,0 h 2.032612 l 3.360268,7.78499 3.387638,-7.78499 h 1.87571 l -4.39884,10.09231 h -1.845592 z m 12.733386,0 h 1.875808 v 10.09231 h -1.875808 z m 5.618721,0 h 4.411779 c 3.273106,0 5.507919,2.01814 5.507919,5.04616 0,3.028 -2.234813,5.04615 -5.507919,5.04615 h -4.411779 z m 12.940494,0 h 7.367875 v 1.57081 h -5.493539 v 2.62375 h 4.873554 v 1.5435 h -4.873554 v 2.78346 h 5.694922 v 1.57079 H 90.02575 Z m 49.46914,0 h 4.00761 v 10.09231 h -1.87435 v -8.52145 h -2.13326 z m 10.80296,1.32625 c -1.16796,0 -1.97503,0.66354 -1.97503,1.71609 0,1.05261 0.79257,1.71469 2.01817,1.71469 1.21121,0 2.04838,-0.73414 2.04838,-1.72903 0,-0.95167 -0.75055,-1.70175 -2.09152,-1.70175 z m -16.99414,0.15836 c -1.36982,0 -2.3217,1.12485 -2.3217,3.56169 0,2.43681 0.95188,3.56163 2.3217,3.56163 1.38421,0 2.33608,-1.12482 2.33608,-3.56163 0,-2.43684 -0.95187,-3.56169 -2.33608,-3.56169 z m -114.555819,0.0147 c -2.033021,0 -3.547288,1.48533 -3.547288,3.54728 0,2.06191 1.514267,3.54728 3.547288,3.54728 2.033103,0 3.547288,-1.48537 3.547288,-3.54728 0,-2.06195 -1.514185,-3.54728 -3.547288,-3.54728 z m 86.623519,0 c -2.03309,0 -3.54727,1.48533 -3.54727,3.54728 0,2.06191 1.51418,3.54728 3.54727,3.54728 2.03307,0 3.54582,-1.48537 3.54582,-3.54728 0,-2.06195 -1.51275,-3.54728 -3.54582,-3.54728 z m -26.411835,0.0862 v 6.92193 h 2.451181 c 2.24934,0 3.705483,-1.3702 3.705483,-3.46096 0,-2.09077 -1.456143,-3.46097 -3.705483,-3.46097 z"
         style="opacity:1;fill:#ffffff;fill-opacity:1;fill-rule:nonzero;stroke:none;stroke-width:5.53504324;stroke-linecap:square;stroke-linejoin:miter;stroke-miterlimit:4;stroke-dasharray:none;stroke-opacity:1;paint-order:markers stroke fill" />
      <g
         id="g6597"
         style="fill:#ffffff;fill-opacity:1"
         transform="matrix(0.45020168,0,0,0.45020168,747.31093,41.085289)">
        <path
           class="st8"
           d="m -1112.3,508.9 c -0.1,-0.2 -0.3,-0.3 -0.5,-0.5 l -4.2,-2.6 c 0,-0.4 -0.1,-0.8 -0.1,-1.1 l 3.6,-3.3 c 0.6,-0.5 0.6,-1.4 0.1,-2 -0.1,-0.2 -0.3,-0.3 -0.5,-0.4 l -4.6,-1.7 c -0.1,-0.4 -0.2,-0.7 -0.3,-1.1 l 2.9,-4 c 0.5,-0.6 0.3,-1.5 -0.3,-2 -0.2,-0.1 -0.4,-0.2 -0.6,-0.2 l -4.9,-0.8 c -0.2,-0.3 -0.3,-0.7 -0.5,-1 l 2,-4.5 c 0.3,-0.7 0,-1.5 -0.7,-1.9 -0.2,-0.1 -0.4,-0.1 -0.6,-0.1 l -4.9,0.2 c -0.2,-0.3 -0.5,-0.6 -0.7,-0.8 l 1.1,-4.8 c 0.2,-0.8 -0.3,-1.5 -1,-1.7 -0.2,-0.1 -0.4,-0.1 -0.6,0 l -4.8,1.1 c -0.3,-0.2 -0.6,-0.5 -0.8,-0.7 l 0.2,-4.9 c 0,-0.8 -0.6,-1.4 -1.4,-1.5 -0.2,0 -0.4,0 -0.6,0.1 l -4.5,2 c -0.3,-0.2 -0.7,-0.4 -1,-0.5 l -0.8,-4.9 c -0.1,-0.8 -0.8,-1.3 -1.6,-1.2 -0.2,0 -0.4,0.1 -0.6,0.2 l -4,2.9 c -0.4,-0.1 -0.7,-0.2 -1.1,-0.3 l -1.7,-4.6 c -0.3,-0.7 -1.1,-1.1 -1.8,-0.8 -0.2,0.1 -0.4,0.2 -0.5,0.4 l -3.3,3.6 c -0.4,0 -0.7,-0.1 -1.1,-0.1 l -2.6,-4.2 c -0.3,-0.4 -0.7,-0.7 -1.2,-0.7 -0.5,0 -1,0.2 -1.2,0.7 l -2.6,4.2 c -0.4,0 -0.8,0.1 -1.1,0.1 l -3.3,-3.6 c -0.5,-0.6 -1.4,-0.6 -2,-0.1 -0.2,0.1 -0.3,0.3 -0.4,0.5 l -1.7,4.6 c -0.4,0.1 -0.7,0.2 -1.1,0.3 l -4,-2.9 c -0.6,-0.5 -1.5,-0.3 -2,0.3 -0.1,0.2 -0.2,0.4 -0.2,0.6 l -0.8,4.9 c -0.3,0.2 -0.7,0.3 -1,0.5 l -4.5,-2 c -0.7,-0.3 -1.5,0 -1.9,0.7 -0.1,0.2 -0.1,0.4 -0.1,0.6 l 0.2,4.9 c -0.3,0.2 -0.6,0.5 -0.8,0.7 l -4.8,-1.1 c -0.8,-0.2 -1.5,0.3 -1.7,1 -0.1,0.2 -0.1,0.4 0,0.6 l 1.1,4.8 c -0.2,0.3 -0.5,0.6 -0.7,0.8 l -4.9,-0.2 c -0.8,0 -1.4,0.6 -1.5,1.4 0,0.2 0,0.4 0.1,0.6 l 2,4.5 c -0.2,0.3 -0.4,0.7 -0.5,1 l -4.9,0.8 c -0.8,0.1 -1.3,0.8 -1.2,1.6 0,0.2 0.1,0.4 0.2,0.6 l 2.9,4 c -0.1,0.4 -0.2,0.7 -0.3,1.1 l -4.6,1.7 c -0.7,0.3 -1.1,1.1 -0.8,1.8 0.1,0.2 0.2,0.4 0.4,0.5 l 3.6,3.3 c 0,0.4 -0.1,0.7 -0.1,1.1 l -4.2,2.6 c -0.7,0.4 -0.9,1.3 -0.5,1.9 0.1,0.2 0.3,0.3 0.5,0.5 l 4.2,2.6 c 0,0.4 0.1,0.8 0.1,1.1 l -3.6,3.3 c -0.6,0.5 -0.6,1.4 -0.1,2 0.1,0.2 0.3,0.3 0.5,0.4 l 4.6,1.7 c 0.1,0.4 0.2,0.7 0.3,1.1 l -2.9,4 c -0.5,0.6 -0.3,1.5 0.3,2 0.2,0.1 0.4,0.2 0.6,0.2 l 4.9,0.8 c 0.2,0.3 0.3,0.7 0.5,1 l -2,4.5 c -0.3,0.7 0,1.5 0.7,1.9 0.2,0.1 0.4,0.1 0.6,0.1 l 4.9,-0.2 c 0.2,0.3 0.5,0.6 0.7,0.8 l -1.1,4.8 c -0.2,0.8 0.3,1.5 1,1.7 0.2,0.1 0.4,0.1 0.6,0 l 4.8,-1.1 c 0.3,0.2 0.6,0.5 0.8,0.7 l -0.2,4.9 c 0,0.8 0.6,1.4 1.4,1.5 0.2,0 0.4,0 0.6,-0.1 l 4.5,-2 c 0.3,0.2 0.7,0.4 1,0.5 l 0.8,4.9 c 0.1,0.8 0.8,1.3 1.6,1.2 0.2,0 0.4,-0.1 0.6,-0.2 l 4,-2.9 c 0.4,0.1 0.7,0.2 1.1,0.3 l 1.7,4.6 c 0.3,0.7 1.1,1.1 1.8,0.8 0.2,-0.1 0.4,-0.2 0.5,-0.4 l 3.3,-3.6 c 0.4,0 0.7,0.1 1.1,0.1 l 2.6,4.2 c 0.4,0.7 1.3,0.9 1.9,0.5 0.2,-0.1 0.3,-0.3 0.5,-0.5 l 2.6,-4.2 c 0.4,0 0.7,-0.1 1.1,-0.1 l 3.3,3.6 c 0.5,0.6 1.4,0.6 2,0.1 0.2,-0.1 0.3,-0.3 0.4,-0.5 l 1.7,-4.6 c 0.4,-0.1 0.7,-0.2 1.1,-0.3 l 4,2.9 c 0.6,0.5 1.5,0.3 2,-0.3 0.1,-0.2 0.2,-0.4 0.2,-0.6 l 0.8,-4.9 c 0.3,-0.2 0.7,-0.3 1,-0.5 l 4.5,2 c 0.7,0.3 1.5,0 1.9,-0.7 0.1,-0.2 0.1,-0.4 0.1,-0.6 l -0.2,-4.9 c 0.3,-0.2 0.6,-0.5 0.8,-0.7 l 4.8,1.1 c 0.8,0.2 1.5,-0.3 1.7,-1 0.1,-0.2 0.1,-0.4 0,-0.6 l -1.1,-4.8 c 0.2,-0.3 0.5,-0.6 0.7,-0.8 l 4.9,0.2 c 0.8,0 1.4,-0.6 1.5,-1.4 0,-0.2 0,-0.4 -0.1,-0.6 l -2,-4.5 c 0.2,-0.3 0.4,-0.7 0.5,-1 l 4.9,-0.8 c 0.8,-0.1 1.3,-0.8 1.2,-1.6 0,-0.2 -0.1,-0.4 -0.2,-0.6 l -2.9,-4 c 0.1,-0.4 0.2,-0.7 0.3,-1.1 l 4.6,-1.7 c 0.7,-0.3 1.1,-1.1 0.8,-1.8 -0.1,-0.2 -0.2,-0.4 -0.4,-0.5 l -3.6,-3.3 c 0,-0.4 0.1,-0.7 0.1,-1.1 l 4.2,-2.6 c 0.7,-0.4 0.9,-1.2 0.5,-1.9 z m -13,3.1 h -3.7 c -0.4,0 -0.5,0.2 -0.5,0.6 v 1.7 c 0,4 -2.2,4.8 -4.2,5.1 -1.9,0.2 -3.9,-0.8 -4.2,-1.9 -1.1,-6.2 -2.9,-7.5 -5.8,-9.8 3.6,-2.3 7.4,-5.7 7.4,-10.2 0,-4.9 -3.3,-8 -5.6,-9.5 -3.2,-2.1 -6.7,-2.5 -7.7,-2.5 h -38 c 5.3,-5.9 12.3,-9.9 20.1,-11.3 l 4.5,4.7 c 1,1.1 2.7,1.1 3.7,0.1 l 5,-4.8 c 10.4,1.9 19.3,8.3 24.5,17.5 l -3.4,7.8 c -0.6,1.3 0,2.9 1.3,3.5 l 6.6,2.9 c 0.1,1.9 0.2,4 0,6.1 z m -16.3,21.1 c -1.4,-0.3 -2.8,0.6 -3.2,2 l -1.5,6.8 c -9.5,4.3 -20.4,4.3 -29.9,-0.1 l -1.5,-6.8 c -0.3,-1.4 -1.7,-2.4 -3.1,-2 l -6,1.3 c -1.1,-1.2 -2.2,-2.4 -3.1,-3.7 h 29.3 c 0.3,0 0.6,-0.1 0.6,-0.4 v -10.4 c 0,-0.3 -0.2,-0.4 -0.6,-0.4 h -8.6 v -6.6 h 9.3 c 0.8,0 4.5,0.2 5.7,4.9 0.4,1.4 1.2,6.1 1.7,7.7 0.6,1.7 2.8,5.1 5.2,5.1 h 15.1 c -1,1.4 -2.1,2.6 -3.3,3.8 z m 4.9,6.6 c 0,1.6 -1.3,2.9 -2.9,2.9 -1.6,0 -2.9,-1.3 -2.9,-2.9 0,-1.6 1.3,-2.9 2.9,-2.9 0,0 0.1,0 0.1,0 1.5,0 2.8,1.3 2.8,2.9 z m -43.2,-0.1 c 0,1.6 -1.3,2.9 -2.9,2.9 -1.6,0 -2.9,-1.3 -2.9,-2.9 0,-1.6 1.3,-2.9 2.9,-2.9 0,0 0.1,0 0.1,0 1.6,0 2.8,1.3 2.8,2.9 z m -15.6,-20.5 c -1.3,-4.4 -1.7,-9.1 -1.2,-13.7 l 6.3,-2.8 c 1.3,-0.6 1.9,-2.2 1.3,-3.5 l -1.3,-2.9 h 5.1 v 22.9 z m -0.4,-23.4 c 0,0 0,0 0,0 1.7,0 2.9,1.3 2.9,2.9 0,1.6 -1.3,2.9 -2.9,2.9 -1.6,0 -2.9,-1.3 -2.9,-2.9 0,-1.6 1.3,-2.9 2.9,-2.9 z m 26.7,7.5 v -6.8 h 12.1 c 0.6,0 4.4,0.7 4.4,3.6 0,2.4 -2.9,3.2 -5.3,3.2 z m 5.1,-31 c 0,-1.6 1.3,-2.9 2.9,-2.9 0,0 0.1,0 0.1,0 1.6,0 2.8,1.3 2.8,2.9 0,1.6 -1.3,2.9 -2.9,2.9 -1.6,0 -2.9,-1.3 -2.9,-2.9 z m 37.6,29.4 c -1.6,0 -2.9,-1.3 -2.9,-2.9 0,-1.6 1.3,-2.9 2.9,-2.9 0,0 0.1,0 0.1,0 1.6,0 2.8,1.3 2.8,2.9 0,1.6 -1.3,2.9 -2.9,2.9 z m -66.3,39.7 c 0,0 0.1,0 0.1,0 z"
           id="path6595"
           inkscape:connector-curvature="0"
           style="fill:#ffffff;fill-opacity:1" />
      </g>
      <g
         transform="translate(458.19745,3.9415303)"
         id="g6617"
         style="fill:#ffffff;fill-opacity:1">
        <path
           style="fill:#ffffff;fill-opacity:1;stroke-width:0.75456637"
           inkscape:connector-curvature="0"
           id="path6599"
           d="m -199.52744,276.3243 h 3.69738 c 0.22643,0 0.37728,-0.0756 0.52821,-0.22645 0.15084,-0.15084 0.22643,-0.30184 0.22643,-0.52818 v -6.03654 h 2.56554 l 3.09372,6.03654 c 0.0756,0.22644 0.22646,0.37727 0.45274,0.52818 0.15085,0.15085 0.45276,0.22645 0.75457,0.22645 h 3.8483 c 0.15085,0 0.30181,-0.0756 0.45272,-0.15084 0.15085,-0.15085 0.15085,-0.30181 0.15085,-0.45274 0,-0.0756 0,-0.22644 -0.0756,-0.30183 l -3.47101,-6.71563 c 2.26371,-1.0564 3.32011,-2.86737 3.32011,-5.58378 0,-2.1128 -0.67912,-3.77282 -2.11281,-4.82924 -1.35821,-1.05641 -3.32006,-1.58461 -5.81015,-1.58461 h -7.62113 c -0.22644,0 -0.37726,0.0756 -0.52819,0.22646 -0.15085,0.15084 -0.22644,0.30181 -0.22644,0.52819 v 18.10959 c 0,0.22644 0.0756,0.37729 0.22644,0.52822 0.15084,0.15084 0.37728,0.22643 0.52819,0.22643 z m 4.45194,-15.3177 h 3.16917 c 1.81097,0 2.71644,0.6791 2.71644,2.11279 0,1.35822 -0.90547,2.1128 -2.71644,2.1128 h -3.16917 z"
           class="st8" />
        <path
           style="fill:#ffffff;fill-opacity:1;stroke-width:0.75456637"
           inkscape:connector-curvature="0"
           id="path6601"
           d="m -176.13589,275.64521 c 1.28279,0.60362 2.7919,0.90548 4.52738,0.90548 1.73553,0 3.1692,-0.30186 4.45195,-0.90548 1.28279,-0.60366 2.2637,-1.50914 3.01828,-2.71644 0.67911,-1.20732 1.05638,-2.64101 1.05638,-4.30105 v -11.16756 c 0,-0.22645 -0.0753,-0.37729 -0.22644,-0.52821 -0.15085,-0.15084 -0.30181,-0.22645 -0.5282,-0.22645 h -3.69737 c -0.22644,0 -0.3773,0.0756 -0.52821,0.22645 -0.15085,0.15085 -0.22644,0.30183 -0.22644,0.52821 v 11.09211 c 0,1.13186 -0.30181,2.03733 -0.83002,2.64097 -0.60365,0.60367 -1.43367,0.90547 -2.49008,0.90547 -1.05637,0 -1.88639,-0.3018 -2.49006,-0.90547 -0.60365,-0.60364 -0.83002,-1.50911 -0.83002,-2.64097 v -11.09211 c 0,-0.22645 -0.0756,-0.37729 -0.22645,-0.52821 -0.15085,-0.15084 -0.30181,-0.22645 -0.52818,-0.22645 h -3.69736 c -0.22644,0 -0.37731,0.0756 -0.52821,0.22645 -0.15085,0.15085 -0.22644,0.30183 -0.22644,0.52821 v 11.16756 c 0,1.66004 0.37729,3.09373 1.05641,4.30105 0.60367,1.2073 1.66004,2.11278 2.94278,2.71644 z"
           class="st8" />
        <path
           style="fill:#ffffff;fill-opacity:1;stroke-width:0.75456637"
           inkscape:connector-curvature="0"
           id="path6603"
           d="m -155.76259,275.72065 c 1.28274,0.52818 2.7919,0.83004 4.37649,0.83004 1.66004,0 3.1692,-0.22644 4.45194,-0.75458 1.28276,-0.52821 2.33916,-1.2073 3.09371,-2.11278 0.75456,-0.90547 1.13184,-2.03734 1.13184,-3.24466 0,-1.73549 -0.52816,-3.01825 -1.50911,-3.92373 -0.98093,-0.90547 -2.56555,-1.58458 -4.67832,-2.03733 -1.66004,-0.30181 -2.7919,-0.60364 -3.471,-0.75457 -0.67912,-0.15084 -1.13186,-0.37726 -1.50914,-0.60365 -0.30181,-0.22643 -0.45274,-0.52821 -0.45274,-0.90547 0,-0.52822 0.22644,-0.90548 0.75455,-1.13183 0.52821,-0.22647 1.20733,-0.30186 1.96188,-0.30186 0.60369,0 1.05641,0.0756 1.50916,0.22643 0.45272,0.15085 0.75457,0.37729 0.98093,0.60367 0.22646,0.22644 0.30181,0.37727 0.37729,0.37727 0.15084,0.15084 0.37728,0.30184 0.52821,0.3773 0.15084,0.0756 0.37726,0.0756 0.60362,0.0756 h 3.69737 c 0.15085,0 0.30183,-0.0756 0.3773,-0.15085 0.15085,-0.15085 0.15085,-0.30181 0.15085,-0.45274 0,-0.83002 -0.45276,-1.66004 -1.13186,-2.49006 -0.75457,-0.83003 -1.73552,-1.58458 -2.9428,-2.11279 -1.28278,-0.60364 -2.64099,-0.83002 -4.15014,-0.83002 -1.58456,0 -2.94279,0.30181 -4.15011,0.83002 -1.20729,0.52821 -2.11278,1.28276 -2.7919,2.18823 -0.67911,0.90548 -0.98092,1.96188 -0.98092,3.01829 0,1.58457 0.45276,2.86732 1.35821,3.84827 0.90548,0.98094 2.26371,1.66006 4.22558,2.03736 l 1.28274,0.22643 c 1.28281,0.30185 2.26371,0.5282 2.86736,0.67911 0.60368,0.15085 1.0564,0.30183 1.35823,0.52821 0.30182,0.22644 0.52819,0.45274 0.52819,0.83002 0,0.98095 -1.13186,1.50911 -3.47097,1.50911 -0.67914,0 -1.28281,-0.0756 -1.73553,-0.30181 -0.5282,-0.22645 -0.83002,-0.45273 -1.13185,-0.75456 -0.22643,-0.30184 -0.37728,-0.45274 -0.45274,-0.52819 -0.3018,-0.22644 -0.67914,-0.37729 -1.0564,-0.37729 h -3.69738 c -0.15085,0 -0.30181,0.0756 -0.37728,0.15085 -0.15085,0.15085 -0.15085,0.30184 -0.15085,0.45274 0,0.98095 0.45274,1.88642 1.2073,2.7919 0.67909,0.90548 1.66004,1.66007 3.01826,2.18824 z"
           class="st8" />
        <path
           style="fill:#ffffff;fill-opacity:1;stroke-width:0.75456637"
           inkscape:connector-curvature="0"
           id="path6605"
           d="m -141.27492,261.15754 h 4.90467 v 14.41222 c 0,0.22643 0.0756,0.37726 0.22645,0.52819 0.15084,0.15085 0.30182,0.22644 0.52821,0.22644 h 3.69738 c 0.22643,0 0.37726,-0.0756 0.52816,-0.22644 0.15084,-0.15084 0.22643,-0.30184 0.22643,-0.52819 v -14.41222 h 4.90468 c 0.22644,0 0.37729,-0.0756 0.52822,-0.22643 0.15084,-0.15085 0.22643,-0.30185 0.22643,-0.52821 v -2.9428 c 0,-0.22644 -0.0756,-0.37728 -0.22643,-0.52821 -0.15085,-0.15085 -0.30181,-0.22644 -0.52822,-0.22644 h -15.09132 c -0.22645,0 -0.3773,0.0756 -0.52819,0.22644 -0.15085,0.15084 -0.22644,0.30182 -0.22644,0.52821 v 2.9428 c 0,0.22643 0.0756,0.37726 0.22644,0.52821 0.22645,0.15084 0.45275,0.22643 0.60365,0.22643 z"
           class="st8" />
        <path
           style="fill:#ffffff;fill-opacity:1;stroke-width:0.75456637"
           inkscape:connector-curvature="0"
           id="path6607"
           d="m -116.14785,276.3243 h 12.97854 c 0.22644,0 0.37727,-0.0756 0.5282,-0.22645 0.15084,-0.15084 0.22643,-0.30184 0.22643,-0.52818 v -2.94283 c 0,-0.22643 -0.0756,-0.37728 -0.22643,-0.52821 -0.15085,-0.15084 -0.30184,-0.22644 -0.5282,-0.22644 h -8.5266 v -14.41221 c 0,-0.22644 -0.0756,-0.37726 -0.22643,-0.52819 -0.15085,-0.15085 -0.30183,-0.22644 -0.52822,-0.22644 h -3.69734 c -0.22645,0 -0.3773,0.0756 -0.5282,0.22644 -0.15084,0.15084 -0.22643,0.3018 -0.22643,0.52819 v 18.10959 c 0,0.22644 0.0756,0.37728 0.22643,0.52821 0.0756,0.15085 0.30181,0.22644 0.5282,0.22644 z"
           class="st8" />
        <path
           style="fill:#ffffff;fill-opacity:1;stroke-width:0.75456637"
           inkscape:connector-curvature="0"
           id="path6609"
           d="m -99.622858,276.3243 h 3.546465 c 0.301842,0 0.528211,-0.0756 0.75458,-0.22645 0.150846,-0.15084 0.301809,-0.30184 0.377282,-0.52818 l 0.754547,-2.33918 h 7.47023 l 0.754563,2.33918 c 0.07559,0.15085 0.150846,0.37727 0.377282,0.52818 0.150846,0.15085 0.452721,0.22645 0.754547,0.22645 h 3.546482 c 0.150846,0 0.301825,-0.0756 0.452755,-0.15084 0.150845,-0.15085 0.150845,-0.30181 0.150845,-0.45274 0,-0.0756 0,-0.22644 -0.07559,-0.45275 l -6.111965,-17.65684 c -0.07559,-0.22644 -0.226436,-0.45276 -0.452738,-0.67911 -0.226453,-0.15084 -0.452738,-0.30181 -0.83002,-0.30181 h -4.527398 c -0.301842,0 -0.603668,0.0753 -0.83002,0.30181 -0.226436,0.15085 -0.377298,0.37728 -0.452738,0.67911 l -6.112001,17.65684 c -0.0756,0.15084 -0.0756,0.30184 -0.0756,0.45275 0,0.15085 0.0756,0.30184 0.15085,0.45274 0.07559,0.0756 0.226451,0.15084 0.37728,0.15084 z m 9.130269,-14.11038 2.263691,6.71563 h -4.527398 z"
           class="st8" />
        <path
           style="fill:#ffffff;fill-opacity:1;stroke-width:0.75456637"
           inkscape:connector-curvature="0"
           id="path6611"
           d="m -81.890531,261.15754 h 4.90468 v 14.41222 c 0,0.22643 0.07559,0.37726 0.226436,0.52819 0.150846,0.15085 0.301809,0.22644 0.528178,0.22644 h 3.697361 c 0.226436,0 0.377299,-0.0756 0.528211,-0.22644 0.150846,-0.15084 0.226437,-0.30184 0.226437,-0.52819 v -14.41222 h 4.904713 c 0.226436,0 0.377265,-0.0756 0.528178,-0.22643 0.150845,-0.15085 0.226436,-0.30185 0.226436,-0.52821 v -2.9428 c 0,-0.22644 -0.07559,-0.37728 -0.226436,-0.52821 -0.150846,-0.15085 -0.301826,-0.22644 -0.528178,-0.22644 H -81.96587 c -0.226436,0 -0.377265,0.0756 -0.528178,0.22644 -0.150845,0.15084 -0.226453,0.30182 -0.226453,0.52821 v 2.9428 c 0,0.22643 0.07559,0.37726 0.226453,0.52821 0.226436,0.15084 0.377265,0.22643 0.603651,0.22643 z"
           class="st8" />
        <path
           style="fill:#ffffff;fill-opacity:1;stroke-width:0.75456637"
           inkscape:connector-curvature="0"
           id="path6613"
           d="m -67.931072,275.64521 c 0,0.15085 0.07559,0.30181 0.150846,0.45274 0.150846,0.15085 0.301809,0.15085 0.452738,0.15085 h 3.546466 c 0.301808,0 0.528177,-0.0756 0.754546,-0.22646 0.226453,-0.15084 0.301826,-0.30184 0.377282,-0.52817 l 0.754581,-2.33918 h 7.470196 l 0.754546,2.33918 c 0.07559,0.15084 0.150846,0.37726 0.377316,0.52817 0.150845,0.15085 0.452738,0.22646 0.754563,0.22646 h 3.546449 c 0.150846,0 0.301825,-0.0756 0.452738,-0.15085 0.150846,-0.15084 0.150846,-0.30184 0.150846,-0.45274 0,-0.0756 0,-0.22643 -0.07559,-0.45275 l -6.111998,-17.65684 c -0.07559,-0.22643 -0.226436,-0.45275 -0.452738,-0.67914 -0.226453,-0.15085 -0.452738,-0.30181 -0.83002,-0.30181 h -4.527398 c -0.301826,0 -0.603634,0.0756 -0.83002,0.30181 -0.226436,0.15085 -0.377282,0.3773 -0.452738,0.67914 l -6.111965,17.65684 c -0.150846,0.22645 -0.150846,0.3773 -0.150846,0.45275 z m 9.733904,-13.43129 2.26369,6.71563 h -4.527398 z"
           class="st8" />
        <path
           style="fill:#ffffff;fill-opacity:1;stroke-width:0.75456637"
           inkscape:connector-curvature="0"
           id="path6615"
           d="m -45.369537,276.3243 h 3.697378 c 0.226453,0 0.377282,-0.0756 0.528211,-0.22645 0.150846,-0.15084 0.226436,-0.30184 0.226436,-0.52818 v -9.2812 l 2.640973,4.60288 c 0.150845,0.22643 0.301858,0.37726 0.452754,0.52819 0.150846,0.15085 0.377299,0.22645 0.603651,0.22645 h 1.81097 c 0.226436,0 0.452738,-0.0752 0.60365,-0.22645 0.150846,-0.15085 0.301826,-0.30182 0.452739,-0.52819 l 2.640985,-4.60288 v 9.2812 c 0,0.22644 0.07557,0.37727 0.226443,0.52818 0.150863,0.15085 0.301844,0.22645 0.5282,0.22645 h 3.69738 c 0.226442,0 0.377278,-0.0756 0.528202,-0.22645 0.150863,-0.15084 0.226442,-0.30184 0.226442,-0.52818 v -18.10961 c 0,-0.22643 -0.07557,-0.37726 -0.226442,-0.52821 -0.150862,-0.15084 -0.301818,-0.22643 -0.528202,-0.22643 h -3.244639 c -0.528203,0 -0.905481,0.22643 -1.207298,0.75459 l -4.527397,7.77204 -4.527398,-7.77204 c -0.301825,-0.52819 -0.679124,-0.75459 -1.207301,-0.75459 h -3.24464 c -0.226436,0 -0.377282,0.0756 -0.528195,0.22643 -0.150846,0.15085 -0.226453,0.30185 -0.226453,0.52821 v 18.10961 c 0,0.22644 0.07559,0.37727 0.226453,0.52818 0,0.15085 0.150846,0.22645 0.377282,0.22645 z"
           class="st8" />
      </g>
      <path
         style="opacity:1;fill:#ffffff;fill-opacity:1;fill-rule:nonzero;stroke:none;stroke-width:5.53504324;stroke-linecap:square;stroke-linejoin:miter;stroke-miterlimit:4;stroke-dasharray:none;stroke-opacity:1;paint-order:markers stroke fill"
         d="m 445.20854,259.8116 c -0.81552,0 -1.47158,0.6575 -1.47158,1.47298 v 18.26864 c 0,0.81549 0.65606,1.47297 1.47158,1.47297 h 167.67437 c 0.81549,0 1.47301,-0.65748 1.47301,-1.47297 v -18.26864 c 0,-0.81548 -0.65752,-1.47298 -1.47301,-1.47298 z m 25.6854,5.41583 c 3.12896,0 5.43597,2.1923 5.43597,5.19148 0,2.99916 -2.30701,5.19001 -5.43597,5.19001 -3.12893,0 -5.436,-2.20527 -5.436,-5.19001 0,-2.98472 2.30707,-5.19148 5.436,-5.19148 z m 86.62352,0 c 3.12893,0 5.43599,2.1923 5.43599,5.19148 0,2.99916 -2.30706,5.19001 -5.43599,5.19001 -3.12892,0 -5.43599,-2.20527 -5.43599,-5.19001 0,-2.98472 2.30707,-5.19148 5.43599,-5.19148 z m 17.41272,0 c 2.19169,0 3.60482,1.1106 3.60482,2.89853 0,0.98051 -0.2728,1.87411 -1.67151,3.18625 l -2.69713,2.56766 h 4.75849 v 1.58519 h -7.43981 v -1.25434 l 4.00759,-3.80619 c 0.98048,-0.93724 1.15368,-1.52922 1.15368,-2.09157 0,-0.92279 -0.63432,-1.4557 -1.87437,-1.4557 -0.98047,0 -1.8025,0.33198 -2.36482,1.05295 l -1.31189,-1.00981 c 0.77861,-1.05261 2.17675,-1.67297 3.83495,-1.67297 z m 10.51958,0 c 2.40798,0 4.22479,1.87512 4.22479,5.19148 0,3.3164 -1.81681,5.19001 -4.22479,5.19001 -2.39358,0 -4.21041,-1.87361 -4.21041,-5.19001 0,-3.31636 1.81683,-5.19148 4.21041,-5.19148 z m 16.89344,0 c 2.75405,0 4.36864,1.77456 4.36864,5.01888 0,3.46055 -2.01839,5.36261 -4.94548,5.36261 -1.00931,0 -1.97478,-0.2163 -2.65253,-0.64876 l 0.6919,-1.41258 c 0.54792,0.3605 1.21095,0.49052 1.91749,0.49052 1.90329,0 3.09993,-1.18273 3.09993,-3.47536 v -0.0147 c -0.60561,0.70653 -1.57104,1.05295 -2.69573,1.05295 -1.98981,0 -3.47535,-1.21101 -3.47535,-3.09989 0,-2.00426 1.62921,-3.27399 3.69113,-3.27399 z m -150.96358,0.14527 h 1.54345 l 4.00759,6.69034 3.9371,-6.69034 h 1.54201 l 0.0167,10.09231 h -1.77365 l -0.0167,-6.69034 -3.31566,5.53671 h -0.83578 l -3.31713,-5.45038 v 6.60401 h -1.78796 z m 27.96389,0 h 1.54348 l 5.56549,6.83417 v -6.83417 h 1.85994 v 10.09231 h -1.54206 l -5.56542,-6.83417 v 6.83417 h -1.86143 z m 11.41722,0 h 8.56606 v 1.58519 h -3.34584 v 8.50712 h -1.87432 v -8.50712 h -3.3459 z m 10.99997,0 h 7.36787 v 1.57081 h -5.49347 v 2.62375 h 4.87347 v 1.5435 h -4.87347 v 2.78346 h 5.69487 v 1.57079 h -7.56927 z m 9.1185,0 h 2.03261 l 3.36027,7.78499 3.38764,-7.78499 h 1.87571 l -4.39884,10.09231 h -1.8456 z m 12.73338,0 h 1.87581 v 10.09231 h -1.87581 z m 5.61873,0 h 4.41177 c 3.27311,0 5.50792,2.01814 5.50792,5.04616 0,3.028 -2.23481,5.04615 -5.50792,5.04615 h -4.41177 z m 12.94049,0 h 7.36787 v 1.57081 h -5.49353 v 2.62375 h 4.87355 v 1.5435 h -4.87355 v 2.78346 h 5.69492 v 1.57079 h -7.56926 z m 49.46914,0 h 4.00761 v 10.09231 h -1.87435 v -8.52145 h -2.13326 z m 10.80296,1.32625 c -1.16796,0 -1.97503,0.66354 -1.97503,1.71609 0,1.05261 0.79257,1.71469 2.01817,1.71469 1.21121,0 2.04838,-0.73414 2.04838,-1.72903 0,-0.95167 -0.75055,-1.70175 -2.09152,-1.70175 z m -16.99414,0.15836 c -1.36982,0 -2.3217,1.12485 -2.3217,3.56169 0,2.43681 0.95188,3.56163 2.3217,3.56163 1.38421,0 2.33608,-1.12482 2.33608,-3.56163 0,-2.43684 -0.95187,-3.56169 -2.33608,-3.56169 z m -114.55582,0.0147 c -2.03302,0 -3.54729,1.48533 -3.54729,3.54728 0,2.06191 1.51427,3.54728 3.54729,3.54728 2.0331,0 3.54729,-1.48537 3.54729,-3.54728 0,-2.06195 -1.51419,-3.54728 -3.54729,-3.54728 z m 86.62352,0 c -2.03309,0 -3.54727,1.48533 -3.54727,3.54728 0,2.06191 1.51418,3.54728 3.54727,3.54728 2.03307,0 3.54582,-1.48537 3.54582,-3.54728 0,-2.06195 -1.51275,-3.54728 -3.54582,-3.54728 z m -26.41184,0.0862 v 6.92193 h 2.45119 c 2.24934,0 3.70548,-1.3702 3.70548,-3.46096 0,-2.09077 -1.45614,-3.46097 -3.70548,-3.46097 z"
         id="path6619"
         inkscape:connector-curvature="0" />
    </g>
  </g>
</svg>
