<?xml version="1.0" encoding="UTF-8" standalone="no"?>
<!-- Created with Inkscape (http://www.inkscape.org/) -->

<svg
   xmlns:dc="http://purl.org/dc/elements/1.1/"
   xmlns:cc="http://creativecommons.org/ns#"
   xmlns:rdf="http://www.w3.org/1999/02/22-rdf-syntax-ns#"
   xmlns:svg="http://www.w3.org/2000/svg"
   xmlns="http://www.w3.org/2000/svg"
   xmlns:sodipodi="http://sodipodi.sourceforge.net/DTD/sodipodi-0.dtd"
   xmlns:inkscape="http://www.inkscape.org/namespaces/inkscape"
   width="117.02944mm"
   height="21.202196mm"
   viewBox="0 0 117.02944 21.202197"
   version="1.1"
   id="svg971"
   inkscape:version="0.92.1 r"
   sodipodi:docname="albaniench_White.svg">
  <defs
     id="defs965" />
  <sodipodi:namedview
     id="base"
     pagecolor="#ffffff"
     bordercolor="#666666"
     borderopacity="1.0"
     inkscape:pageopacity="0.0"
     inkscape:pageshadow="2"
     inkscape:zoom="0.35"
     inkscape:cx="415.18358"
     inkscape:cy="513.98885"
     inkscape:document-units="mm"
     inkscape:current-layer="layer1"
     showgrid="false"
     fit-margin-top="0"
     fit-margin-left="0"
     fit-margin-right="0"
     fit-margin-bottom="0"
     inkscape:window-width="1366"
     inkscape:window-height="744"
     inkscape:window-x="0"
     inkscape:window-y="0"
     inkscape:window-maximized="1" />
  <metadata
     id="metadata968">
    <rdf:RDF>
      <cc:Work
         rdf:about="">
        <dc:format>image/svg+xml</dc:format>
        <dc:type
           rdf:resource="http://purl.org/dc/dcmitype/StillImage" />
        <dc:title></dc:title>
      </cc:Work>
    </rdf:RDF>
  </metadata>
  <g
     inkscape:label="Layer 1"
     inkscape:groupmode="layer"
     id="layer1"
     transform="translate(130.26137,-263.62402)">
    <g
       id="g64"
       transform="matrix(0.26458333,0,0,0.26458333,-130.26137,263.62402)">
      <g
         id="g24">
        <path
           style="fill:#ffffff"
           inkscape:connector-curvature="0"
           d="m 114.2,25.474 c 1.903,0 3.667,0.35 5.292,1.05 1.624,0.701 3.037,1.652 4.242,2.856 1.204,1.205 2.155,2.619 2.856,4.242 0.7,1.625 1.05,3.389 1.05,5.292 v 26.04 l -0.84,0.84 h -1.68 l -3.36,-3.36 c -1.457,1.121 -2.969,1.961 -4.536,2.52 -1.568,0.56 -3.416,0.84 -5.544,0.84 h -4.2 c -1.68,0 -3.234,-0.294 -4.662,-0.882 -1.428,-0.588 -2.675,-1.414 -3.738,-2.478 -1.064,-1.063 -1.89,-2.31 -2.478,-3.738 -0.588,-1.428 -0.882,-2.982 -0.882,-4.662 0,-1.624 0.28,-3.136 0.84,-4.536 0.559,-1.399 1.344,-2.617 2.352,-3.654 1.008,-1.035 2.197,-1.875 3.57,-2.52 1.372,-0.643 2.869,-0.993 4.494,-1.05 h 13.104 v -3.36 c 0,-1.68 -0.561,-3.079 -1.68,-4.2 -1.121,-1.12 -2.52,-1.68 -4.2,-1.68 h -5.04 c -1.064,0 -1.96,0.126 -2.688,0.378 -0.728,0.252 -1.358,0.56 -1.89,0.924 -0.533,0.365 -0.966,0.743 -1.302,1.134 -0.336,0.393 -0.617,0.701 -0.84,0.924 h -0.84 l -3.36,-4.2 v -1.68 l 1.68,-1.68 c 0.84,-0.84 2.169,-1.609 3.99,-2.31 1.819,-0.7 3.57,-1.05 5.25,-1.05 z m -6.803,24.359 c -1.176,0 -2.157,0.393 -2.94,1.176 -0.785,0.785 -1.176,1.821 -1.176,3.108 0,1.176 0.378,2.156 1.134,2.94 0.756,0.785 1.75,1.176 2.982,1.176 h 4.284 c 2.52,0 4.549,-0.769 6.09,-2.31 1.54,-1.54 2.31,-3.57 2.31,-6.09 z"
           id="path2" />
        <path
           style="fill:#ffffff"
           inkscape:connector-curvature="0"
           d="m 142.508,64.744 c -1.625,-0.7 -3.039,-1.651 -4.242,-2.856 -1.205,-1.204 -2.156,-2.617 -2.856,-4.242 -0.701,-1.624 -1.05,-3.388 -1.05,-5.292 v -37.8 l 5.04,-2.52 h 1.68 l 0.84,0.84 v 39.48 c 0,1.68 0.56,3.081 1.68,4.2 1.12,1.121 2.52,1.68 4.2,1.68 h 4.2 l 0.84,0.84 v 5.88 l -0.84,0.84 h -4.2 c -1.905,-10e-4 -3.669,-0.35 -5.292,-1.05 z"
           id="path4" />
        <path
           style="fill:#ffffff"
           inkscape:connector-curvature="0"
           d="m 172.159,65.793 c -2.129,0 -3.99,-0.322 -5.586,-0.966 -1.596,-0.643 -3.066,-1.525 -4.41,-2.646 l -3.444,3.612 h -1.68 l -0.84,-0.84 v -52.08 l 0.84,-0.84 h 5.88 l 0.84,0.84 v 12.6 l -1.596,2.52 0.756,0.84 0.84,-0.84 c 1.288,-0.84 2.59,-1.47 3.906,-1.89 1.315,-0.42 2.814,-0.63 4.494,-0.63 h 1.68 c 1.903,0 3.667,0.35 5.292,1.05 1.624,0.701 3.037,1.652 4.242,2.856 1.204,1.205 2.155,2.619 2.856,4.242 0.7,1.625 1.05,3.389 1.05,5.292 v 13.44 c 0,1.904 -0.35,3.668 -1.05,5.292 -0.701,1.625 -1.652,3.039 -2.856,4.242 -1.205,1.205 -2.619,2.156 -4.242,2.856 -1.625,0.701 -3.389,1.05 -5.292,1.05 z m 0,-32.759 c -1.064,0 -2.1,0.21 -3.108,0.63 -1.008,0.42 -1.904,1.008 -2.688,1.764 -0.785,0.756 -1.415,1.653 -1.89,2.688 -0.477,1.037 -0.714,2.142 -0.714,3.318 v 8.4 c 0,1.289 0.238,2.436 0.714,3.444 0.475,1.008 1.105,1.89 1.89,2.646 0.784,0.756 1.68,1.331 2.688,1.722 1.008,0.393 2.044,0.588 3.108,0.588 h 1.596 c 1.68,0 3.094,-0.559 4.242,-1.68 1.147,-1.119 1.722,-2.52 1.722,-4.2 v -13.44 c 0,-1.68 -0.575,-3.079 -1.722,-4.2 -1.148,-1.12 -2.562,-1.68 -4.242,-1.68 z"
           id="path6" />
        <path
           style="fill:#ffffff"
           inkscape:connector-curvature="0"
           d="m 209.119,25.474 c 1.903,0 3.667,0.35 5.292,1.05 1.624,0.701 3.037,1.652 4.242,2.856 1.204,1.205 2.155,2.619 2.856,4.242 0.7,1.625 1.05,3.389 1.05,5.292 v 26.04 l -0.84,0.84 h -1.68 l -3.36,-3.36 c -1.457,1.121 -2.969,1.961 -4.536,2.52 -1.568,0.56 -3.416,0.84 -5.544,0.84 h -4.2 c -1.68,0 -3.234,-0.294 -4.662,-0.882 -1.428,-0.588 -2.675,-1.414 -3.738,-2.478 -1.064,-1.063 -1.89,-2.31 -2.478,-3.738 -0.588,-1.428 -0.882,-2.982 -0.882,-4.662 0,-1.624 0.28,-3.136 0.84,-4.536 0.559,-1.399 1.344,-2.617 2.352,-3.654 1.008,-1.035 2.197,-1.875 3.57,-2.52 1.372,-0.643 2.869,-0.993 4.494,-1.05 h 13.104 v -3.36 c 0,-1.68 -0.561,-3.079 -1.68,-4.2 -1.121,-1.12 -2.52,-1.68 -4.2,-1.68 h -5.04 c -1.064,0 -1.96,0.126 -2.688,0.378 -0.728,0.252 -1.358,0.56 -1.89,0.924 -0.533,0.365 -0.966,0.743 -1.302,1.134 -0.336,0.393 -0.617,0.701 -0.84,0.924 h -0.84 l -3.36,-4.2 v -1.68 l 1.68,-1.68 c 0.84,-0.84 2.169,-1.609 3.99,-2.31 1.819,-0.7 3.57,-1.05 5.25,-1.05 z m -6.804,24.359 c -1.176,0 -2.157,0.393 -2.94,1.176 -0.785,0.785 -1.176,1.821 -1.176,3.108 0,1.176 0.378,2.156 1.134,2.94 0.756,0.785 1.75,1.176 2.982,1.176 h 4.284 c 2.52,0 4.549,-0.769 6.09,-2.31 1.54,-1.54 2.31,-3.57 2.31,-6.09 z"
           id="path8" />
        <path
           style="fill:#ffffff"
           inkscape:connector-curvature="0"
           d="m 247.758,25.474 c 1.903,0 3.667,0.35 5.292,1.05 1.624,0.701 3.037,1.652 4.242,2.856 1.204,1.205 2.155,2.619 2.856,4.242 0.7,1.625 1.05,3.389 1.05,5.292 v 26.04 l -0.84,0.84 h -5.88 l -0.84,-0.84 v -26.04 c 0,-1.68 -0.575,-3.079 -1.722,-4.2 -1.148,-1.12 -2.562,-1.68 -4.242,-1.68 h -2.436 c -1.064,0 -2.1,0.197 -3.108,0.588 -1.008,0.392 -1.904,0.966 -2.688,1.722 -0.785,0.756 -1.415,1.653 -1.89,2.688 -0.477,1.037 -0.714,2.171 -0.714,3.402 v 23.52 l -0.84,0.84 h -5.88 l -0.84,-0.84 v -38.64 l 0.84,-0.84 h 1.68 l 3.444,3.612 c 1.344,-1.12 2.814,-2.001 4.41,-2.646 1.596,-0.643 3.457,-0.966 5.586,-0.966 z"
           id="path10" />
        <path
           style="fill:#ffffff"
           inkscape:connector-curvature="0"
           d="m 268.758,12.874 0.84,-0.84 h 5.88 l 0.84,0.84 v 6.72 l -0.84,0.84 h -5.88 l -0.84,-0.84 z m 0,13.439 0.84,-0.84 h 5.88 l 0.84,0.84 v 38.64 l -0.84,0.84 h -5.88 l -0.84,-0.84 z"
           id="path12" />
        <path
           style="fill:#ffffff"
           inkscape:connector-curvature="0"
           d="m 296.477,65.793 c -1.905,0 -3.668,-0.349 -5.292,-1.05 -1.625,-0.7 -3.039,-1.651 -4.242,-2.856 -1.205,-1.204 -2.156,-2.617 -2.856,-4.242 -0.701,-1.624 -1.05,-3.388 -1.05,-5.292 v -13.44 c 0,-1.903 0.349,-3.667 1.05,-5.292 0.7,-1.624 1.651,-3.037 2.856,-4.242 1.204,-1.204 2.617,-2.155 4.242,-2.856 1.624,-0.7 3.387,-1.05 5.292,-1.05 h 5.04 c 1.903,0 3.667,0.35 5.292,1.05 1.624,0.701 3.037,1.652 4.242,2.856 1.204,1.205 2.155,2.619 2.856,4.242 0.7,1.625 1.05,3.389 1.05,5.292 v 10.08 h -24.36 v 3.36 c 0,1.68 0.56,3.081 1.68,4.2 1.12,1.121 2.52,1.68 4.2,1.68 h 6.72 c 1.68,0 3.108,-0.307 4.284,-0.924 1.176,-0.616 1.987,-1.147 2.436,-1.596 h 0.84 l 3.36,3.36 v 1.68 l -1.68,1.68 c -0.84,0.84 -2.171,1.61 -3.99,2.31 -1.82,0.701 -3.57,1.05 -5.25,1.05 z m 0,-32.759 c -1.68,0 -3.081,0.56 -4.2,1.68 -1.121,1.121 -1.68,2.52 -1.68,4.2 v 2.52 h 16.8 v -2.52 c 0,-1.68 -0.575,-3.079 -1.722,-4.2 -1.148,-1.12 -2.562,-1.68 -4.242,-1.68 z"
           id="path14" />
        <path
           style="fill:#ffffff"
           inkscape:connector-curvature="0"
           d="m 340.157,25.474 c 1.903,0 3.667,0.35 5.292,1.05 1.624,0.701 3.037,1.652 4.242,2.856 1.203,1.205 2.155,2.619 2.855,4.242 0.7,1.625 1.051,3.389 1.051,5.292 v 26.04 l -0.841,0.84 h -5.88 l -0.839,-0.84 v -26.04 c 0,-1.68 -0.575,-3.079 -1.722,-4.2 -1.148,-1.12 -2.562,-1.68 -4.242,-1.68 h -2.436 c -1.064,0 -2.1,0.197 -3.108,0.588 -1.008,0.392 -1.904,0.966 -2.688,1.722 -0.785,0.756 -1.415,1.653 -1.89,2.688 -0.477,1.037 -0.714,2.171 -0.714,3.402 v 23.52 l -0.84,0.84 h -5.88 l -0.84,-0.84 v -38.64 l 0.84,-0.84 h 1.68 l 3.444,3.612 c 1.344,-1.12 2.814,-2.001 4.41,-2.646 1.596,-0.643 3.457,-0.966 5.586,-0.966 z"
           id="path16" />
        <path
           style="fill:#ffffff"
           inkscape:connector-curvature="0"
           d="m 361.156,56.553 0.84,-0.84 h 8.4 l 0.84,0.84 v 8.4 l -0.84,0.84 h -8.4 l -0.84,-0.84 z"
           id="path18" />
        <path
           style="fill:#ffffff"
           inkscape:connector-curvature="0"
           d="m 392.757,33.034 c -1.289,0 -2.493,0.252 -3.612,0.756 -1.121,0.504 -2.1,1.176 -2.939,2.016 -0.841,0.84 -1.499,1.82 -1.975,2.94 -0.477,1.121 -0.714,2.297 -0.714,3.528 v 6.72 c 0,1.289 0.237,2.492 0.714,3.612 0.476,1.121 1.134,2.1 1.975,2.94 0.84,0.84 1.818,1.499 2.939,1.974 1.119,0.477 2.323,0.714 3.612,0.714 h 1.68 c 1.063,0 1.96,-0.126 2.688,-0.378 0.727,-0.252 1.356,-0.559 1.89,-0.924 0.531,-0.364 0.966,-0.742 1.302,-1.134 0.336,-0.391 0.616,-0.7 0.84,-0.924 h 0.841 l 3.359,4.2 v 1.68 l -1.68,1.68 c -0.84,0.84 -2.171,1.61 -3.99,2.31 -1.82,0.701 -3.57,1.05 -5.25,1.05 h -1.68 c -2.297,0 -4.467,-0.448 -6.51,-1.344 -2.045,-0.895 -3.822,-2.1 -5.335,-3.612 -1.512,-1.512 -2.717,-3.289 -3.611,-5.334 -0.896,-2.043 -1.344,-4.213 -1.344,-6.51 v -6.72 c 0,-2.295 0.447,-4.465 1.344,-6.51 0.895,-2.044 2.1,-3.822 3.611,-5.334 1.513,-1.512 3.29,-2.716 5.335,-3.612 2.043,-0.895 4.213,-1.344 6.51,-1.344 h 1.68 c 1.68,0 3.43,0.35 5.25,1.05 1.819,0.701 3.15,1.47 3.99,2.31 l 1.68,1.68 v 1.68 l -3.359,4.2 h -0.841 c -0.224,-0.223 -0.504,-0.532 -0.84,-0.924 -0.336,-0.391 -0.771,-0.769 -1.302,-1.134 -0.533,-0.364 -1.163,-0.672 -1.89,-0.924 -0.729,-0.252 -1.625,-0.378 -2.688,-0.378 z"
           id="path20" />
        <path
           style="fill:#ffffff"
           inkscape:connector-curvature="0"
           d="m 428.876,25.474 c 1.903,0 3.667,0.35 5.292,1.05 1.624,0.701 3.037,1.652 4.242,2.856 1.203,1.205 2.155,2.619 2.855,4.242 0.7,1.625 1.051,3.389 1.051,5.292 v 26.04 l -0.841,0.84 h -5.88 l -0.84,-0.84 v -26.04 c 0,-1.68 -0.575,-3.079 -1.722,-4.2 -1.148,-1.12 -2.563,-1.68 -4.242,-1.68 h -2.436 c -1.064,0 -2.101,0.21 -3.108,0.63 -1.007,0.42 -1.904,1.008 -2.688,1.764 -0.784,0.756 -1.414,1.653 -1.89,2.688 -0.477,1.037 -0.714,2.142 -0.714,3.318 v 23.52 l -0.84,0.84 h -5.88 l -0.84,-0.84 v -52.08 l 0.84,-0.84 h 5.88 l 0.84,0.84 v 12.6 l -1.596,2.52 0.756,0.84 0.84,-0.84 c 1.287,-0.84 2.59,-1.47 3.906,-1.89 1.314,-0.42 2.813,-0.63 4.494,-0.63 z"
           id="path22" />
      </g>
      <g
         id="g30">
        <g
           id="g28">
          <path
             style="fill:#ffffff"
             inkscape:connector-curvature="0"
             d="m 17.874,57.608 c 1.28,0.265 2.037,0.421 3.26,0.673 -0.164,-1.541 -0.083,-2.928 -0.488,-4.155 -0.965,-2.924 -0.028,-5.523 0.963,-8.172 0.298,-0.796 0.493,-1.641 0.634,-2.481 0.183,-1.09 0.321,-2.194 0.374,-3.297 0.05,-1.051 0.294,-2.266 -0.124,-3.13 -0.932,-1.923 -0.597,-3.656 0.109,-5.462 0.877,-2.247 1.753,-4.495 2.616,-6.748 0.565,-1.473 -0.045,-2.597 -1.599,-3.015 -0.877,-0.236 -1.748,-0.491 -2.798,-0.787 0.414,-0.975 0.746,-1.801 1.112,-2.611 0.951,-2.109 1.19,-4.199 1.081,-6.596 C 22.9,9.312 23.665,6.598 25.983,4.707 27.638,3.357 29.019,1.672 30.656,0 c 0.23,0.237 0.645,0.614 1.001,1.041 1.247,1.494 2.787,2.402 4.774,2.342 1.677,-0.051 2.664,0.723 3.187,2.29 0.572,1.715 1.937,2.501 3.46,3.427 1.62,0.985 2.698,2.875 3.984,4.394 1.372,1.619 1.392,3.274 0.959,5.424 -0.929,4.619 -1.713,9.37 -1.656,14.057 0.061,5.018 2.059,9.671 6.191,12.869 3.238,2.506 3.563,5.683 3.492,9.391 -0.048,2.504 -1.216,3.852 -2.855,5.369 -1.601,1.481 -2.994,3.261 -4.172,5.105 -1.214,1.9 -2.424,3.68 -4.335,4.982 -0.722,0.492 -1.311,1.451 -1.563,2.314 -0.874,2.99 -2.584,5.254 -5.279,6.791 -1.998,1.139 -5.851,-0.78 -5.904,-3.048 -0.084,-3.599 -1.592,-6.093 -5.104,-7.192 -5.742,-1.797 -6.769,-7.035 -8.962,-11.948 z"
             id="path26" />
        </g>
      </g>
      <g
         id="g54">
        <path
           style="fill:#ffffff"
           inkscape:connector-curvature="0"
           d="m 114.2,25.474 c 1.903,0 3.667,0.35 5.292,1.05 1.624,0.701 3.037,1.652 4.242,2.856 1.204,1.205 2.155,2.619 2.856,4.242 0.7,1.625 1.05,3.389 1.05,5.292 v 26.04 l -0.84,0.84 h -1.68 l -3.36,-3.36 c -1.457,1.121 -2.969,1.961 -4.536,2.52 -1.568,0.56 -3.416,0.84 -5.544,0.84 h -4.2 c -1.68,0 -3.234,-0.294 -4.662,-0.882 -1.428,-0.588 -2.675,-1.414 -3.738,-2.478 -1.064,-1.063 -1.89,-2.31 -2.478,-3.738 -0.588,-1.428 -0.882,-2.982 -0.882,-4.662 0,-1.624 0.28,-3.136 0.84,-4.536 0.559,-1.399 1.344,-2.617 2.352,-3.654 1.008,-1.035 2.197,-1.875 3.57,-2.52 1.372,-0.643 2.869,-0.993 4.494,-1.05 h 13.104 v -3.36 c 0,-1.68 -0.561,-3.079 -1.68,-4.2 -1.121,-1.12 -2.52,-1.68 -4.2,-1.68 h -5.04 c -1.064,0 -1.96,0.126 -2.688,0.378 -0.728,0.252 -1.358,0.56 -1.89,0.924 -0.533,0.365 -0.966,0.743 -1.302,1.134 -0.336,0.393 -0.617,0.701 -0.84,0.924 h -0.84 l -3.36,-4.2 v -1.68 l 1.68,-1.68 c 0.84,-0.84 2.169,-1.609 3.99,-2.31 1.819,-0.7 3.57,-1.05 5.25,-1.05 z m -6.803,24.359 c -1.176,0 -2.157,0.393 -2.94,1.176 -0.785,0.785 -1.176,1.821 -1.176,3.108 0,1.176 0.378,2.156 1.134,2.94 0.756,0.785 1.75,1.176 2.982,1.176 h 4.284 c 2.52,0 4.549,-0.769 6.09,-2.31 1.54,-1.54 2.31,-3.57 2.31,-6.09 z"
           id="path32" />
        <path
           style="fill:#ffffff"
           inkscape:connector-curvature="0"
           d="m 142.508,64.744 c -1.625,-0.7 -3.039,-1.651 -4.242,-2.856 -1.205,-1.204 -2.156,-2.617 -2.856,-4.242 -0.701,-1.624 -1.05,-3.388 -1.05,-5.292 v -37.8 l 5.04,-2.52 h 1.68 l 0.84,0.84 v 39.48 c 0,1.68 0.56,3.081 1.68,4.2 1.12,1.121 2.52,1.68 4.2,1.68 h 4.2 l 0.84,0.84 v 5.88 l -0.84,0.84 h -4.2 c -1.905,-10e-4 -3.669,-0.35 -5.292,-1.05 z"
           id="path34" />
        <path
           style="fill:#ffffff"
           inkscape:connector-curvature="0"
           d="m 172.159,65.793 c -2.129,0 -3.99,-0.322 -5.586,-0.966 -1.596,-0.643 -3.066,-1.525 -4.41,-2.646 l -3.444,3.612 h -1.68 l -0.84,-0.84 v -52.08 l 0.84,-0.84 h 5.88 l 0.84,0.84 v 12.6 l -1.596,2.52 0.756,0.84 0.84,-0.84 c 1.288,-0.84 2.59,-1.47 3.906,-1.89 1.315,-0.42 2.814,-0.63 4.494,-0.63 h 1.68 c 1.903,0 3.667,0.35 5.292,1.05 1.624,0.701 3.037,1.652 4.242,2.856 1.204,1.205 2.155,2.619 2.856,4.242 0.7,1.625 1.05,3.389 1.05,5.292 v 13.44 c 0,1.904 -0.35,3.668 -1.05,5.292 -0.701,1.625 -1.652,3.039 -2.856,4.242 -1.205,1.205 -2.619,2.156 -4.242,2.856 -1.625,0.701 -3.389,1.05 -5.292,1.05 z m 0,-32.759 c -1.064,0 -2.1,0.21 -3.108,0.63 -1.008,0.42 -1.904,1.008 -2.688,1.764 -0.785,0.756 -1.415,1.653 -1.89,2.688 -0.477,1.037 -0.714,2.142 -0.714,3.318 v 8.4 c 0,1.289 0.238,2.436 0.714,3.444 0.475,1.008 1.105,1.89 1.89,2.646 0.784,0.756 1.68,1.331 2.688,1.722 1.008,0.393 2.044,0.588 3.108,0.588 h 1.596 c 1.68,0 3.094,-0.559 4.242,-1.68 1.147,-1.119 1.722,-2.52 1.722,-4.2 v -13.44 c 0,-1.68 -0.575,-3.079 -1.722,-4.2 -1.148,-1.12 -2.562,-1.68 -4.242,-1.68 z"
           id="path36" />
        <path
           style="fill:#ffffff"
           inkscape:connector-curvature="0"
           d="m 209.119,25.474 c 1.903,0 3.667,0.35 5.292,1.05 1.624,0.701 3.037,1.652 4.242,2.856 1.204,1.205 2.155,2.619 2.856,4.242 0.7,1.625 1.05,3.389 1.05,5.292 v 26.04 l -0.84,0.84 h -1.68 l -3.36,-3.36 c -1.457,1.121 -2.969,1.961 -4.536,2.52 -1.568,0.56 -3.416,0.84 -5.544,0.84 h -4.2 c -1.68,0 -3.234,-0.294 -4.662,-0.882 -1.428,-0.588 -2.675,-1.414 -3.738,-2.478 -1.064,-1.063 -1.89,-2.31 -2.478,-3.738 -0.588,-1.428 -0.882,-2.982 -0.882,-4.662 0,-1.624 0.28,-3.136 0.84,-4.536 0.559,-1.399 1.344,-2.617 2.352,-3.654 1.008,-1.035 2.197,-1.875 3.57,-2.52 1.372,-0.643 2.869,-0.993 4.494,-1.05 h 13.104 v -3.36 c 0,-1.68 -0.561,-3.079 -1.68,-4.2 -1.121,-1.12 -2.52,-1.68 -4.2,-1.68 h -5.04 c -1.064,0 -1.96,0.126 -2.688,0.378 -0.728,0.252 -1.358,0.56 -1.89,0.924 -0.533,0.365 -0.966,0.743 -1.302,1.134 -0.336,0.393 -0.617,0.701 -0.84,0.924 h -0.84 l -3.36,-4.2 v -1.68 l 1.68,-1.68 c 0.84,-0.84 2.169,-1.609 3.99,-2.31 1.819,-0.7 3.57,-1.05 5.25,-1.05 z m -6.804,24.359 c -1.176,0 -2.157,0.393 -2.94,1.176 -0.785,0.785 -1.176,1.821 -1.176,3.108 0,1.176 0.378,2.156 1.134,2.94 0.756,0.785 1.75,1.176 2.982,1.176 h 4.284 c 2.52,0 4.549,-0.769 6.09,-2.31 1.54,-1.54 2.31,-3.57 2.31,-6.09 z"
           id="path38" />
        <path
           style="fill:#ffffff"
           inkscape:connector-curvature="0"
           d="m 247.758,25.474 c 1.903,0 3.667,0.35 5.292,1.05 1.624,0.701 3.037,1.652 4.242,2.856 1.204,1.205 2.155,2.619 2.856,4.242 0.7,1.625 1.05,3.389 1.05,5.292 v 26.04 l -0.84,0.84 h -5.88 l -0.84,-0.84 v -26.04 c 0,-1.68 -0.575,-3.079 -1.722,-4.2 -1.148,-1.12 -2.562,-1.68 -4.242,-1.68 h -2.436 c -1.064,0 -2.1,0.197 -3.108,0.588 -1.008,0.392 -1.904,0.966 -2.688,1.722 -0.785,0.756 -1.415,1.653 -1.89,2.688 -0.477,1.037 -0.714,2.171 -0.714,3.402 v 23.52 l -0.84,0.84 h -5.88 l -0.84,-0.84 v -38.64 l 0.84,-0.84 h 1.68 l 3.444,3.612 c 1.344,-1.12 2.814,-2.001 4.41,-2.646 1.596,-0.643 3.457,-0.966 5.586,-0.966 z"
           id="path40" />
        <path
           style="fill:#ffffff"
           inkscape:connector-curvature="0"
           d="m 268.758,12.874 0.84,-0.84 h 5.88 l 0.84,0.84 v 6.72 l -0.84,0.84 h -5.88 l -0.84,-0.84 z m 0,13.439 0.84,-0.84 h 5.88 l 0.84,0.84 v 38.64 l -0.84,0.84 h -5.88 l -0.84,-0.84 z"
           id="path42" />
        <path
           style="fill:#ffffff"
           inkscape:connector-curvature="0"
           d="m 296.477,65.793 c -1.905,0 -3.668,-0.349 -5.292,-1.05 -1.625,-0.7 -3.039,-1.651 -4.242,-2.856 -1.205,-1.204 -2.156,-2.617 -2.856,-4.242 -0.701,-1.624 -1.05,-3.388 -1.05,-5.292 v -13.44 c 0,-1.903 0.349,-3.667 1.05,-5.292 0.7,-1.624 1.651,-3.037 2.856,-4.242 1.204,-1.204 2.617,-2.155 4.242,-2.856 1.624,-0.7 3.387,-1.05 5.292,-1.05 h 5.04 c 1.903,0 3.667,0.35 5.292,1.05 1.624,0.701 3.037,1.652 4.242,2.856 1.204,1.205 2.155,2.619 2.856,4.242 0.7,1.625 1.05,3.389 1.05,5.292 v 10.08 h -24.36 v 3.36 c 0,1.68 0.56,3.081 1.68,4.2 1.12,1.121 2.52,1.68 4.2,1.68 h 6.72 c 1.68,0 3.108,-0.307 4.284,-0.924 1.176,-0.616 1.987,-1.147 2.436,-1.596 h 0.84 l 3.36,3.36 v 1.68 l -1.68,1.68 c -0.84,0.84 -2.171,1.61 -3.99,2.31 -1.82,0.701 -3.57,1.05 -5.25,1.05 z m 0,-32.759 c -1.68,0 -3.081,0.56 -4.2,1.68 -1.121,1.121 -1.68,2.52 -1.68,4.2 v 2.52 h 16.8 v -2.52 c 0,-1.68 -0.575,-3.079 -1.722,-4.2 -1.148,-1.12 -2.562,-1.68 -4.242,-1.68 z"
           id="path44" />
        <path
           style="fill:#ffffff"
           inkscape:connector-curvature="0"
           d="m 340.157,25.474 c 1.903,0 3.667,0.35 5.292,1.05 1.624,0.701 3.037,1.652 4.242,2.856 1.203,1.205 2.155,2.619 2.855,4.242 0.7,1.625 1.051,3.389 1.051,5.292 v 26.04 l -0.841,0.84 h -5.88 l -0.839,-0.84 v -26.04 c 0,-1.68 -0.575,-3.079 -1.722,-4.2 -1.148,-1.12 -2.562,-1.68 -4.242,-1.68 h -2.436 c -1.064,0 -2.1,0.197 -3.108,0.588 -1.008,0.392 -1.904,0.966 -2.688,1.722 -0.785,0.756 -1.415,1.653 -1.89,2.688 -0.477,1.037 -0.714,2.171 -0.714,3.402 v 23.52 l -0.84,0.84 h -5.88 l -0.84,-0.84 v -38.64 l 0.84,-0.84 h 1.68 l 3.444,3.612 c 1.344,-1.12 2.814,-2.001 4.41,-2.646 1.596,-0.643 3.457,-0.966 5.586,-0.966 z"
           id="path46" />
        <path
           style="fill:#ffffff"
           inkscape:connector-curvature="0"
           d="m 361.156,56.553 0.84,-0.84 h 8.4 l 0.84,0.84 v 8.4 l -0.84,0.84 h -8.4 l -0.84,-0.84 z"
           id="path48" />
        <path
           style="fill:#ffffff"
           inkscape:connector-curvature="0"
           d="m 392.757,33.034 c -1.289,0 -2.493,0.252 -3.612,0.756 -1.121,0.504 -2.1,1.176 -2.939,2.016 -0.841,0.84 -1.499,1.82 -1.975,2.94 -0.477,1.121 -0.714,2.297 -0.714,3.528 v 6.72 c 0,1.289 0.237,2.492 0.714,3.612 0.476,1.121 1.134,2.1 1.975,2.94 0.84,0.84 1.818,1.499 2.939,1.974 1.119,0.477 2.323,0.714 3.612,0.714 h 1.68 c 1.063,0 1.96,-0.126 2.688,-0.378 0.727,-0.252 1.356,-0.559 1.89,-0.924 0.531,-0.364 0.966,-0.742 1.302,-1.134 0.336,-0.391 0.616,-0.7 0.84,-0.924 h 0.841 l 3.359,4.2 v 1.68 l -1.68,1.68 c -0.84,0.84 -2.171,1.61 -3.99,2.31 -1.82,0.701 -3.57,1.05 -5.25,1.05 h -1.68 c -2.297,0 -4.467,-0.448 -6.51,-1.344 -2.045,-0.895 -3.822,-2.1 -5.335,-3.612 -1.512,-1.512 -2.717,-3.289 -3.611,-5.334 -0.896,-2.043 -1.344,-4.213 -1.344,-6.51 v -6.72 c 0,-2.295 0.447,-4.465 1.344,-6.51 0.895,-2.044 2.1,-3.822 3.611,-5.334 1.513,-1.512 3.29,-2.716 5.335,-3.612 2.043,-0.895 4.213,-1.344 6.51,-1.344 h 1.68 c 1.68,0 3.43,0.35 5.25,1.05 1.819,0.701 3.15,1.47 3.99,2.31 l 1.68,1.68 v 1.68 l -3.359,4.2 h -0.841 c -0.224,-0.223 -0.504,-0.532 -0.84,-0.924 -0.336,-0.391 -0.771,-0.769 -1.302,-1.134 -0.533,-0.364 -1.163,-0.672 -1.89,-0.924 -0.729,-0.252 -1.625,-0.378 -2.688,-0.378 z"
           id="path50" />
        <path
           style="fill:#ffffff"
           inkscape:connector-curvature="0"
           d="m 428.876,25.474 c 1.903,0 3.667,0.35 5.292,1.05 1.624,0.701 3.037,1.652 4.242,2.856 1.203,1.205 2.155,2.619 2.855,4.242 0.7,1.625 1.051,3.389 1.051,5.292 v 26.04 l -0.841,0.84 h -5.88 l -0.84,-0.84 v -26.04 c 0,-1.68 -0.575,-3.079 -1.722,-4.2 -1.148,-1.12 -2.563,-1.68 -4.242,-1.68 h -2.436 c -1.064,0 -2.101,0.21 -3.108,0.63 -1.007,0.42 -1.904,1.008 -2.688,1.764 -0.784,0.756 -1.414,1.653 -1.89,2.688 -0.477,1.037 -0.714,2.142 -0.714,3.318 v 23.52 l -0.84,0.84 h -5.88 l -0.84,-0.84 v -52.08 l 0.84,-0.84 h 5.88 l 0.84,0.84 v 12.6 l -1.596,2.52 0.756,0.84 0.84,-0.84 c 1.287,-0.84 2.59,-1.47 3.906,-1.89 1.314,-0.42 2.813,-0.63 4.494,-0.63 z"
           id="path52" />
      </g>
      <g
         id="g62">
        <path
           style="fill:#ffffff"
           inkscape:connector-curvature="0"
           d="M 15.567,52.339 C 15.549,52.022 15.552,51.713 15.556,51.405 H 11.045 Z"
           id="path56" />
        <path
           style="fill:#ffffff"
           inkscape:connector-curvature="0"
           d="m 11.046,51.405 h 4.511 c 0.044,-2.76 0.936,-5.169 1.656,-7.094 0.159,-0.425 0.29,-0.953 0.401,-1.614 0.172,-1.025 0.275,-1.923 0.314,-2.745 0.014,-0.289 0.038,-0.588 0.064,-0.89 0.012,-0.145 0.029,-0.335 0.039,-0.492 -1.482,-3.513 -0.61,-6.623 0.198,-8.693 0.138,-0.353 0.274,-0.705 0.412,-1.058 H 0 v 22.585 h 9.965 l -0.11,-0.246 z"
           id="path58" />
        <path
           style="fill:#ffffff"
           inkscape:connector-curvature="0"
           d="M 73.93,28.681 H 51.248 c -0.129,1.42 -0.206,2.842 -0.189,4.237 0.033,2.686 0.817,6.464 4.37,9.214 3.579,2.77 4.769,6.208 5.152,9.135 h 13.35 V 28.681 Z"
           id="path60" />
      </g>
    </g>
  </g>
</svg>
