<?xml version="1.0" encoding="UTF-8" standalone="no"?>
<!-- Created with Inkscape (http://www.inkscape.org/) -->

<svg
   xmlns:dc="http://purl.org/dc/elements/1.1/"
   xmlns:cc="http://creativecommons.org/ns#"
   xmlns:rdf="http://www.w3.org/1999/02/22-rdf-syntax-ns#"
   xmlns:svg="http://www.w3.org/2000/svg"
   xmlns="http://www.w3.org/2000/svg"
   xmlns:sodipodi="http://sodipodi.sourceforge.net/DTD/sodipodi-0.dtd"
   xmlns:inkscape="http://www.inkscape.org/namespaces/inkscape"
   width="69.833458"
   height="40.194851"
   viewBox="0 0 18.47677 10.634887"
   version="1.1"
   id="svg8"
   inkscape:version="0.92.3 (2405546, 2018-03-11)"
   sodipodi:docname="black.svg">
  <defs
     id="defs2" />
  <sodipodi:namedview
     id="base"
     pagecolor="#ffffff"
     bordercolor="#666666"
     borderopacity="1.0"
     inkscape:pageopacity="0"
     inkscape:pageshadow="2"
     inkscape:zoom="5.935987"
     inkscape:cx="28.631834"
     inkscape:cy="14.013409"
     inkscape:document-units="px"
     inkscape:current-layer="layer1"
     inkscape:document-rotation="0"
     showgrid="false"
     borderlayer="true"
     inkscape:showpageshadow="true"
     units="px"
     inkscape:pagecheckerboard="false"
     showguides="true"
     inkscape:window-width="1366"
     inkscape:window-height="715"
     inkscape:window-x="0"
     inkscape:window-y="0"
     inkscape:window-maximized="1"
     objecttolerance="10"
     guidetolerance="10"
     inkscape:snap-tangential="true"
     inkscape:snap-perpendicular="true"
     fit-margin-top="0"
     fit-margin-left="0"
     fit-margin-right="0"
     fit-margin-bottom="0">
    <inkscape:grid
       type="xygrid"
       id="grid10"
       dotted="false"
       originx="-171.70232"
       originy="-123.80556" />
  </sodipodi:namedview>
  <metadata
     id="metadata5">
    <rdf:RDF>
      <cc:Work
         rdf:about="">
        <dc:format>image/svg+xml</dc:format>
        <dc:type
           rdf:resource="http://purl.org/dc/dcmitype/StillImage" />
        <dc:title></dc:title>
        <cc:license
           rdf:resource="" />
      </cc:Work>
    </rdf:RDF>
  </metadata>
  <g
     inkscape:label="Layer 1"
     inkscape:groupmode="layer"
     id="layer1"
     transform="translate(-171.7023,-162.55955)">
    <path
       inkscape:connector-curvature="0"
       d="m 188.88996,173.08701 h -15.89858 c -0.64455,0 -1.28908,-0.53715 -1.28908,-1.28907 v -7.94931 c 0,-0.64455 0.53711,-1.28908 1.28908,-1.28908 h 15.89858 c 0.64455,0 1.28908,0.53711 1.28908,1.28908 v 7.94931 c 0,0.75192 -0.53711,1.28907 -1.28908,1.28907 z"
       id="path30"
       style="stroke-width:1.07422984" />
    <g
       transform="matrix(1.0742299,0,0,1.0742299,158.91898,140.21558)"
       id="g36">
      <g
         id="g34">
        <path
           class="st3"
           d="m 27.9,21.1 c 0.5,0 1,0.4 1,1 v 7.4 c 0,0.5 -0.4,1 -1,1 H 13.1 c -0.5,0 -1,-0.4 -1,-1 v -7.4 c 0,-0.5 0.4,-1 1,-1 h 14.8 m 0,-0.2 H 13.1 c -0.6,0 -1.2,0.5 -1.2,1.2 v 7.4 c 0,0.6 0.5,1.2 1.2,1.2 h 14.8 c 0.6,0 1.2,-0.5 1.2,-1.2 v -7.4 c 0,-0.7 -0.5,-1.2 -1.2,-1.2 z"
           id="path32"
           inkscape:connector-curvature="0"
           style="fill:#a6a6a6" />
      </g>
    </g>
    <g
       id="g881_19_"
       transform="matrix(1.0742299,0,0,1.0742299,158.84888,139.67551)">
      <g
         id="g894_19_">
        <text
           transform="translate(13.3546,23.9809)"
           class="st0 st1 st2"
           id="text38"
           style="font-size:2.09789991px;font-family:OpenSans-Semibold;fill:#ffffff">
          <tspan
             style="font-style:normal;font-variant:normal;font-weight:600;font-stretch:normal;font-family:'Open Sans';-inkscape-font-specification:'Open Sans Semi-Bold'"
             id="tspan979">POWERED BY</tspan>
        </text>
        <g
           id="g862_19_"
           transform="matrix(0.16925259,0,0,0.16925259,164.359,336.76934)">
          <path
             id="path833_23_"
             inkscape:connector-curvature="0"
             class="st0"
             d="m -857.6,-1827 c 1.5,0 2.4,1.5 2.4,3.2 0,1.7 -0.9,3.3 -2.4,3.3 -3.5,0 -3.5,-6.5 0,-6.5 z m -2.5,-1.1 h -1.6 v 12 h 1.6 v -4 c 0.7,0.7 1.4,1.1 2.5,1.1 2.6,0 4,-2.4 4,-4.7 0,-2.3 -1.4,-4.6 -4,-4.6 -1,0 -1.8,0.4 -2.5,1.2 z"
             style="fill:#ffffff" />
          <path
             id="path835_23_"
             inkscape:connector-curvature="0"
             class="st0"
             d="m -850.3,-1831.9 h -1.6 v 12.4 h 1.6 v -5.3 c 0,-1.5 1,-2.4 2.5,-2.4 1.3,0 1.8,1.1 1.8,2.4 v 5.3 h 1.6 v -5.3 c 0,-2 -0.8,-3.8 -3.3,-3.8 -1,0 -1.9,0.3 -2.5,1.4 -0.1,0.1 -0.1,-4.7 -0.1,-4.7 z"
             style="fill:#ffffff" />
          <path
             id="path837_23_"
             inkscape:connector-curvature="0"
             class="st0"
             d="m -838.5,-1827 c 1.5,0 2.4,1.5 2.4,3.2 0,1.7 -0.9,3.3 -2.4,3.3 -3.5,0 -3.5,-6.5 0,-6.5 z m -2.5,-1.1 h -1.6 v 12 h 1.6 v -4 c 0.7,0.7 1.4,1.1 2.5,1.1 2.6,0 4,-2.4 4,-4.7 0,-2.3 -1.4,-4.6 -4,-4.6 -1,0 -1.8,0.4 -2.5,1.2 z"
             style="fill:#ffffff" />
          <path
             id="path839_23_"
             inkscape:connector-curvature="0"
             class="st0"
             d="m -824.6,-1819.5 v -1.5 h -6.3 v -11 h -1.6 v 12.4 z"
             style="fill:#ffffff" />
          <path
             id="path841_23_"
             inkscape:connector-curvature="0"
             class="st0"
             d="m -821.6,-1819.5 v -8.8 h -1.6 v 8.8 z m 0.1,-10.7 v -1.7 h -1.7 v 1.7 z"
             style="fill:#ffffff" />
          <path
             id="path843_23_"
             inkscape:connector-curvature="0"
             class="st0"
             d="m -816.4,-1819.2 c 1.7,0 3.6,-0.8 3.6,-2.8 0,-1.8 -1.6,-2.3 -2.9,-2.7 -0.3,-0.1 -0.7,-0.2 -1,-0.2 -0.3,0 -0.6,-0.2 -0.8,-0.3 -0.5,-0.2 -0.7,-0.4 -0.7,-0.8 0,-0.8 0.8,-1.1 1.7,-1.1 0.9,0 1.9,0.4 1.9,1.9 h 1.6 c 0,-2.5 -1.8,-3.2 -3.5,-3.2 -1.6,0 -3.3,0.5 -3.3,2.5 0,2.2 2.3,2.3 3.9,2.7 0.3,0.1 0.6,0.2 0.8,0.3 0.4,0.2 0.7,0.5 0.7,0.9 0,0.9 -1,1.4 -2,1.4 -1,0 -1.8,-0.6 -1.9,-1.9 h -1.6 c 0,2.2 1.7,3.3 3.5,3.3 z"
             style="fill:#ffffff" />
          <path
             id="path845_23_"
             inkscape:connector-curvature="0"
             class="st0"
             d="m -808,-1819.2 c 0.4,0 0.8,-0.1 1.3,-0.2 v -1.3 c -0.5,0 -0.6,0.1 -0.8,0.1 -0.2,0 -0.3,0 -0.5,0 -0.8,0 -0.8,-0.8 -0.8,-1.4 v -4.9 h 2.1 v -1.3 h -2.1 v -2.3 h -1.6 v 2.3 h -1.7 v 1.3 h 1.7 v 4.9 c 0.1,1.7 0.3,2.8 2.4,2.8 z"
             style="fill:#ffffff" />
          <path
             id="path831_23_"
             inkscape:connector-curvature="0"
             class="st0"
             d="m -879.8,-1837.4 c -4.3,0 -8.4,2.1 -10.9,5.5 l 8.8,8.7 3.2,-3.2 -1.8,-1.8 v 0 c -0.4,-0.6 -0.6,-1.2 -0.6,-1.9 0,-1.9 1.5,-3.3 3.4,-3.3 1.9,0 3.4,1.5 3.4,3.3 0,0.8 -0.3,1.5 -0.8,2.1 v 0 l -1.6,1.6 8.7,8.6 c 1.1,-2 1.7,-4.2 1.7,-6.5 -0.1,-7.2 -6.1,-13.1 -13.5,-13.1 z m 2,5.3 c -1.2,0 -2.1,0.9 -2.1,2.1 0,0.4 0.1,0.8 0.3,1.1 l 1.8,1.7 1.6,-1.6 c 0.3,-0.4 0.5,-0.8 0.5,-1.3 0,-1.1 -0.9,-2 -2.1,-2 z m -13.7,1.4 c -1.2,2 -1.8,4.2 -1.8,6.5 0,7.3 6,13.2 13.4,13.2 v 0 c 4.4,0 8.5,-2.1 11,-5.6 l -9,-8.7 -3.2,3.2 1.7,1.7 c 0.5,0.6 0.7,1.3 0.7,2 0,1.9 -1.5,3.3 -3.4,3.3 -1.9,0 -3.4,-1.5 -3.4,-3.3 0,-0.6 0.2,-1.2 0.5,-1.7 v -0.1 l 2,-1.9 z m 9.6,9.4 -1.9,1.8 c -0.2,0.3 -0.3,0.6 -0.3,1 0,1.1 1,2.1 2.1,2.1 1.2,0 2.1,-0.9 2.1,-2.1 0,-0.4 -0.1,-0.8 -0.4,-1.2 z"
             style="fill:#ffffff" />
        </g>
      </g>
    </g>
  </g>
</svg>
