<?xml version="1.0" encoding="UTF-8" standalone="no"?>
<!-- Created with Inkscape (http://www.inkscape.org/) -->

<svg
   xmlns:dc="http://purl.org/dc/elements/1.1/"
   xmlns:cc="http://creativecommons.org/ns#"
   xmlns:rdf="http://www.w3.org/1999/02/22-rdf-syntax-ns#"
   xmlns:svg="http://www.w3.org/2000/svg"
   xmlns="http://www.w3.org/2000/svg"
   xmlns:sodipodi="http://sodipodi.sourceforge.net/DTD/sodipodi-0.dtd"
   xmlns:inkscape="http://www.inkscape.org/namespaces/inkscape"
   width="224.3053mm"
   height="65.137596mm"
   viewBox="0 0 224.3053 65.137596"
   version="1.1"
   id="svg4768"
   inkscape:version="0.92.1 r"
   sodipodi:docname="horizontal-flat-color.svg">
  <defs
     id="defs4762">
    <clipPath
       clipPathUnits="userSpaceOnUse"
       id="clipPath20">
      <path
         d="M 923.98,0 C 682.281,0 462.238,92.8906 297.566,244.941 h 2.957 C 464.656,94.082 683.559,2 923.992,2 1164.38,2 1383.24,94.082 1547.34,244.941 h 2.96 C 1385.66,92.8906 1165.66,0 923.98,0 M 93.7773,518.289 C 33.7266,640.922 0,778.832 0,924.582 0,1070.38 33.707,1208.26 93.7773,1330.91 v -4.57 C 34.9883,1204.9 2.00781,1068.59 2.00781,924.605 2.00781,780.629 34.9883,644.32 93.7773,522.879 v -4.59 M 1847.58,944.938 h -2.01 c -0.94,43.808 -4.95,86.932 -11.8,129.032 v 11.98 c 8.08,-45.92 12.77,-93.016 13.81,-141.012 m -196.45,550.002 h -2.52 c -168.79,214.52 -430.63,352.27 -724.618,352.27 -294.047,0 -555.937,-137.75 -724.758,-352.27 h -2.543 c 169.153,215.69 432.047,354.27 727.289,354.27 295.17,0 558.02,-138.58 727.15,-354.27"
         id="path18"
         inkscape:connector-curvature="0" />
    </clipPath>
    <radialGradient
       fx="0"
       fy="0"
       cx="0"
       cy="0"
       r="1"
       gradientUnits="userSpaceOnUse"
       gradientTransform="matrix(1694.43,0,0,-1596.28,923.9,1732.52)"
       spreadMethod="pad"
       id="radialGradient34">
      <stop
         style="stop-opacity:1;stop-color:#6dcaf3"
         offset="0"
         id="stop22" />
      <stop
         style="stop-opacity:1;stop-color:#63c0ee"
         offset="0.0769"
         id="stop24" />
      <stop
         style="stop-opacity:1;stop-color:#47abe0"
         offset="0.1822"
         id="stop26" />
      <stop
         style="stop-opacity:1;stop-color:#346dbf"
         offset="0.616847"
         id="stop28" />
      <stop
         style="stop-opacity:1;stop-color:#3056a6"
         offset="0.952231"
         id="stop30" />
      <stop
         style="stop-opacity:1;stop-color:#3056a6"
         offset="1"
         id="stop32" />
    </radialGradient>
    <clipPath
       clipPathUnits="userSpaceOnUse"
       id="clipPath44">
      <path
         d="M 923.992,2 C 683.559,2 464.656,94.082 300.523,244.941 H 1547.34 C 1383.24,94.082 1164.38,2 923.992,2 M 93.7773,522.879 C 34.9883,644.32 2.00781,780.629 2.00781,924.605 c 0,143.985 32.98049,280.295 91.76949,401.735 V 522.879 M 1845.57,944.938 h -11.8 v 129.032 c 6.85,-42.1 10.86,-85.224 11.8,-129.032 M 1648.61,1494.94 H 199.234 c 168.821,214.52 430.711,352.27 724.758,352.27 293.988,0 555.828,-137.75 724.618,-352.27"
         id="path42"
         inkscape:connector-curvature="0" />
    </clipPath>
    <clipPath
       clipPathUnits="userSpaceOnUse"
       id="clipPath56">
      <path
         d="M 2083.77,244.941 H 1550.3 c 23.95,22.118 46.72,45.481 68.22,70 h 215.25 V 428.91 c 75.5,15.891 137.28,33.059 121.68,34.961 -41.63,5.059 -80.26,12.801 -121.68,25.66 v 273.68 c 9.22,52.391 14.03,106.336 14.03,161.371 0,6.793 -0.07,13.598 -0.22,20.356 h 236.19 V 244.941 m -1786.204,0 h -83.793 v 70 h 15.555 c 21.508,-24.519 44.285,-47.882 68.238,-70"
         id="path54"
         inkscape:connector-curvature="0" />
    </clipPath>
    <clipPath
       clipPathUnits="userSpaceOnUse"
       id="clipPath68">
      <path
         d="m 1550.3,244.941 h -2.96 c 24.03,22.09 46.93,45.489 68.51,70 h 2.67 c -21.5,-24.519 -44.27,-47.882 -68.22,-70 m -1249.777,0 h -2.957 c -23.953,22.118 -46.73,45.481 -68.238,70 h 2.668 c 21.582,-24.511 44.488,-47.91 68.527,-70 m 1533.247,518.27 v 12.039 c 7.91,48.609 12.02,98.516 12.02,149.355 0,6.813 -0.07,13.559 -0.22,20.333 h 2.01 c 0.15,-6.758 0.22,-13.563 0.22,-20.356 0,-55.035 -4.81,-108.98 -14.03,-161.371"
         id="path66"
         inkscape:connector-curvature="0" />
    </clipPath>
    <clipPath
       clipPathUnits="userSpaceOnUse"
       id="clipPath80">
      <path
         d="M 1547.34,244.941 H 300.523 c -24.039,22.09 -46.945,45.489 -68.527,70 H 1615.85 c -21.58,-24.511 -44.48,-47.91 -68.51,-70 m 286.43,530.309 v 169.688 h 11.8 c 0.15,-6.774 0.22,-13.52 0.22,-20.333 0,-50.839 -4.11,-100.746 -12.02,-149.355"
         id="path78"
         inkscape:connector-curvature="0" />
    </clipPath>
    <clipPath
       clipPathUnits="userSpaceOnUse"
       id="clipPath94">
      <path
         d="M 213.773,314.941 H 93.7773 V 518.289 C 126.398,451.672 166.785,389.57 213.773,333.141 v -18.2 M 1833.77,1085.95 c -26.81,152.47 -90.95,292.05 -182.64,408.99 h 182.64 V 1085.95 M 93.7773,1330.91 v 164.03 H 196.691 C 156.953,1444.27 122.371,1389.3 93.7773,1330.91"
         id="path92"
         inkscape:connector-curvature="0" />
    </clipPath>
    <clipPath
       clipPathUnits="userSpaceOnUse"
       id="clipPath106">
      <path
         d="M 213.773,333.141 C 166.785,389.57 126.398,451.672 93.7773,518.289 v 4.59 C 126.281,455.738 166.688,393.141 213.773,336.281 v -3.14 M 1833.77,1073.97 c -25.56,157.21 -90.82,301.07 -185.16,420.97 h 2.52 c 91.69,-116.94 155.83,-256.52 182.64,-408.99 v -11.98 M 93.7773,1326.34 v 4.57 c 28.5937,58.39 63.1757,113.36 102.9137,164.03 h 2.543 C 158.32,1442.95 122.891,1386.48 93.7773,1326.34"
         id="path104"
         inkscape:connector-curvature="0" />
    </clipPath>
    <clipPath
       clipPathUnits="userSpaceOnUse"
       id="clipPath118">
      <path
         d="m 213.773,336.281 c -47.085,56.86 -87.492,119.457 -119.9957,186.598 v 803.461 c 29.1137,60.14 64.5427,116.61 105.4567,168.6 H 1648.61 c 94.34,-119.9 159.6,-263.76 185.16,-420.97 V 944.938 H 213.773 V 336.281"
         id="path116"
         inkscape:connector-curvature="0" />
    </clipPath>
    <clipPath
       clipPathUnits="userSpaceOnUse"
       id="clipPath130">
      <path
         d="m 1833.77,314.941 h -215.25 c 26.02,29.668 50.17,61.008 72.27,93.86 37.14,2.648 70.3,6.008 89.96,9.629 17.89,3.3 35.81,6.851 53.02,10.48 V 314.941 m -1604.442,0 h -15.555 v 18.2 c 5.106,-6.129 10.297,-12.211 15.555,-18.2 m 1604.442,174.59 c -25.02,7.77 -51.06,17.399 -79.39,29.449 37.21,76.149 64.25,158.102 79.39,244.231 v -273.68"
         id="path128"
         inkscape:connector-curvature="0" />
    </clipPath>
    <clipPath
       clipPathUnits="userSpaceOnUse"
       id="clipPath142">
      <path
         d="m 1618.52,314.941 h -2.67 c 26.06,29.59 50.26,60.899 72.4,93.68 0.85,0.059 1.7,0.117 2.54,0.18 -22.1,-32.852 -46.25,-64.192 -72.27,-93.86 m -1386.524,0 h -2.668 c -5.258,5.989 -10.449,12.071 -15.555,18.2 v 3.14 c 5.981,-7.222 12.032,-14.312 18.223,-21.34 M 1754.38,518.98 c -0.61,0.258 -1.24,0.532 -1.85,0.79 38.82,79.429 66.57,165.25 81.24,255.48 v -12.039 c -15.14,-86.129 -42.18,-168.082 -79.39,-244.231"
         id="path140"
         inkscape:connector-curvature="0" />
    </clipPath>
    <clipPath
       clipPathUnits="userSpaceOnUse"
       id="clipPath154">
      <path
         d="M 1615.85,314.941 H 231.996 c -6.191,7.028 -12.242,14.118 -18.223,21.34 V 944.938 H 1833.77 V 775.25 c -14.67,-90.23 -42.42,-176.051 -81.24,-255.48 -74.2,31.71 -164.18,79.921 -292.54,154.199 -215.51,124.722 -277.29,155.941 -385.59,194.859 -75.779,27.227 -149.252,41.129 -219.248,41.766 -1.672,0.015 -3.355,0.023 -5.027,0.023 -88.105,0 -170.617,-21.125 -245.191,-63.258 C 495.781,785.691 373.379,653.59 284.66,501.73 c -12.015,-20.57 -15.375,-27.98 -11.664,-27.98 0.969,0 2.418,0.5 4.324,1.41 6.239,2.969 47.825,23 92.407,44.52 163.468,78.902 293.105,116.55 412.964,116.55 60.157,0 117.829,-9.468 176.122,-27.968 25.203,-8 100.487,-41.731 167.317,-74.961 169.48,-84.301 253.24,-113.27 371.09,-128.34 10.28,-1.32 27.31,-1.91 48.19,-1.91 40.18,0 94.64,2.179 142.84,5.57 -22.14,-32.781 -46.34,-64.09 -72.4,-93.68"
         id="path152"
         inkscape:connector-curvature="0" />
    </clipPath>
    <clipPath
       clipPathUnits="userSpaceOnUse"
       id="clipPath166">
      <path
         d="m 1545.41,403.051 c -20.88,0 -37.91,0.59 -48.19,1.91 -117.85,15.07 -201.61,44.039 -371.09,128.34 -66.83,33.23 -142.114,66.961 -167.317,74.961 -58.293,18.5 -115.965,27.968 -176.122,27.968 -119.859,0 -249.496,-37.648 -412.964,-116.55 -44.582,-21.52 -86.168,-41.551 -92.407,-44.52 -1.906,-0.91 -3.355,-1.41 -4.324,-1.41 -3.711,0 -0.351,7.41 11.664,27.98 88.719,151.86 211.121,283.961 320.274,345.629 74.574,42.133 157.086,63.258 245.191,63.258 1.672,0 3.355,-0.008 5.027,-0.023 69.996,-0.637 143.469,-14.539 219.248,-41.766 108.3,-38.918 170.08,-70.137 385.59,-194.859 128.36,-74.278 218.34,-122.489 292.54,-154.199 0.61,-0.258 1.24,-0.532 1.85,-0.79 28.33,-12.05 54.37,-21.679 79.39,-29.449 V 428.91 c -17.21,-3.629 -35.13,-7.18 -53.02,-10.48 -19.66,-3.621 -52.82,-6.981 -89.96,-9.629 -0.84,-0.063 -1.69,-0.121 -2.54,-0.18 -48.2,-3.391 -102.66,-5.57 -142.84,-5.57"
         id="path164"
         inkscape:connector-curvature="0" />
    </clipPath>
  </defs>
  <sodipodi:namedview
     id="base"
     pagecolor="#ffffff"
     bordercolor="#666666"
     borderopacity="1.0"
     inkscape:pageopacity="0.0"
     inkscape:pageshadow="2"
     inkscape:zoom="0.35"
     inkscape:cx="217.51529"
     inkscape:cy="426.37534"
     inkscape:document-units="mm"
     inkscape:current-layer="layer1"
     showgrid="false"
     fit-margin-top="0"
     fit-margin-left="0"
     fit-margin-right="0"
     fit-margin-bottom="0"
     inkscape:window-width="1366"
     inkscape:window-height="744"
     inkscape:window-x="0"
     inkscape:window-y="0"
     inkscape:window-maximized="1" />
  <metadata
     id="metadata4765">
    <rdf:RDF>
      <cc:Work
         rdf:about="">
        <dc:format>image/svg+xml</dc:format>
        <dc:type
           rdf:resource="http://purl.org/dc/dcmitype/StillImage" />
        <dc:title></dc:title>
      </cc:Work>
    </rdf:RDF>
  </metadata>
  <g
     inkscape:label="Layer 1"
     inkscape:groupmode="layer"
     id="layer1"
     transform="translate(77.961635,-196.50754)">
    <g
       id="g12"
       transform="matrix(0.03527778,0,0,-0.03527778,-77.961635,261.65396)">
      <path
         d="M 270.105,471.801 C 119.82,708.762 109.41,1104.52 273.918,1379.64 383,1438 497.133,1461.48 612.426,1461.48 c 412.644,0 839.184,-301.14 1093.494,-381.94 -61.21,5.85 -121.97,8.94 -182.3,8.94 -439.13,0 -855.194,-163.785 -1253.515,-616.679 z M 922.59,1846.67 C 413.043,1846.67 0,1433.29 0,923.457 0,413.648 413.043,0.25 922.59,0.25 c 318.33,0 598.98,161.398 764.75,406.879 -73.29,-5.141 -161.06,-7.508 -191.15,-3.66 -117.92,15.082 -201.74,44.07 -371.33,128.422 -66.87,33.257 -142.208,67.007 -167.426,75.019 -145.911,46.289 -288.129,36.059 -474.332,-37.769 155.359,147.328 316.851,255.66 488.906,327.093 33.162,-6.871 66.872,-16.3 101.082,-28.593 108.37,-38.942 170.19,-70.192 385.85,-194.981 128.44,-74.328 218.44,-122.531 292.69,-154.269 59.77,122.3 93.36,259.757 93.36,405.066 0,509.833 -412.95,923.213 -922.4,923.213"
         style="fill:#2d59a6;fill-opacity:1;fill-rule:nonzero;stroke:none"
         id="path14"
         inkscape:connector-curvature="0" />
      <path
         d="m 2584.56,1264.05 c -116.12,0 -185.79,-83.61 -185.79,-301.909 0,-218.289 72,-300.743 185.79,-300.743 117.28,0 185.78,83.614 185.78,301.915 0,218.287 -69.66,300.737 -185.78,300.737 z m 176.5,-649.089 1.16,-4.641 c 101.02,0 169.52,-29.031 231.06,-72 l -95.22,-124.238 c -82.43,82.449 -169.51,133.527 -316.98,133.527 -212.49,0 -343.7,143.993 -343.7,414.532 0,265.899 134.69,419.179 347.18,419.179 212.49,0 347.18,-147.46 347.18,-418.007 0,-163.731 -56.89,-286.813 -170.68,-348.352"
         style="fill:#2d59a6;fill-opacity:1;fill-rule:nonzero;stroke:none"
         id="path16"
         inkscape:connector-curvature="0" />
      <path
         d="M 3192.98,1175.8 V 749.648 c 0,-47.597 9.29,-90.558 67.35,-90.558 56.89,0 95.21,31.34 127.72,76.629 V 1175.8 h 148.63 V 561.551 H 3407.8 l -8.13,76.64 c -45.28,-61.55 -113.79,-94.062 -185.79,-94.062 -118.43,0 -169.53,71.992 -169.53,186.953 V 1175.8 h 148.63"
         style="fill:#2d59a6;fill-opacity:1;fill-rule:nonzero;stroke:none"
         id="path18-3"
         inkscape:connector-curvature="0" />
      <path
         d="m 4081.26,869.254 c 0,155.596 -41.8,212.486 -118.43,212.486 -51.1,0 -94.06,-37.16 -123.09,-82.435 V 721.781 c 27.87,-42.961 66.19,-63.859 112.64,-63.859 81.28,0 128.88,62.707 128.88,211.332 z M 3691.12,308.41 v 867.39 h 130.05 l 8.12,-75.48 c 48.77,63.86 113.79,92.89 177.66,92.89 162.56,0 229.9,-126.56 229.9,-322.8 0,-188.101 -87.08,-326.281 -242.67,-326.281 -62.7,0 -116.12,22.062 -154.44,67.351 V 324.672 L 3691.12,308.41"
         style="fill:#2d59a6;fill-opacity:1;fill-rule:nonzero;stroke:none"
         id="path20"
         inkscape:connector-curvature="0" />
      <path
         d="m 4465.58,686.949 h 375.05 L 4824.37,561.551 H 4287.93 V 678.82 l 376.21,563.16 h -337.89 v 121.93 h 510.9 V 1245.46 L 4465.58,686.949"
         style="fill:#2d59a6;fill-opacity:1;fill-rule:nonzero;stroke:none"
         id="path22"
         inkscape:connector-curvature="0" />
      <path
         d="M 4938.16,561.551 V 1175.8 h 148.63 V 561.551 Z m 74.32,743.129 c -55.74,0 -94.06,39.48 -94.06,90.58 0,49.93 38.32,89.4 94.06,89.4 54.56,0 94.05,-39.47 94.05,-89.4 0,-51.1 -39.49,-90.58 -94.05,-90.58"
         style="fill:#2d59a6;fill-opacity:1;fill-rule:nonzero;stroke:none"
         id="path24"
         inkscape:connector-curvature="0" />
      <path
         d="m 5478.1,565.031 c -29.03,-11.609 -66.19,-20.902 -103.34,-20.902 -88.25,0 -146.31,51.101 -146.31,164.891 v 712.94 l 148.63,16.26 V 711.332 c 0,-34.832 11.62,-47.602 33.68,-47.602 12.76,0 25.54,2.329 34.83,5.809 l 32.51,-104.508"
         style="fill:#2d59a6;fill-opacity:1;fill-rule:nonzero;stroke:none"
         id="path26"
         inkscape:connector-curvature="0" />
      <path
         d="m 5789.29,565.031 c -29.03,-11.609 -66.19,-20.902 -103.34,-20.902 -88.25,0 -146.31,51.101 -146.31,164.891 v 712.94 l 148.62,16.26 V 711.332 c 0,-34.832 11.62,-47.602 33.68,-47.602 12.77,0 25.55,2.329 34.84,5.809 l 32.51,-104.508"
         style="fill:#2d59a6;fill-opacity:1;fill-rule:nonzero;stroke:none"
         id="path28"
         inkscape:connector-curvature="0" />
      <path
         d="m 6171.31,727.59 v 123.09 h -52.26 c -114.94,0 -155.59,-38.321 -155.59,-105.668 0,-60.383 27.87,-92.891 89.4,-92.891 48.78,0 89.42,27.859 118.45,75.469 z m 143.98,-6.961 c 0,-46.449 12.77,-63.867 42.97,-75.469 l -32.53,-98.699 c -65.02,5.801 -109.13,29.019 -132.36,82.43 -44.12,-58.051 -112.64,-84.762 -186.95,-84.762 -125.4,0 -202.04,77.801 -202.04,192.762 0,130.035 103.34,203.191 291.46,203.191 h 75.47 v 34.84 c 0,77.788 -36,104.498 -121.93,104.498 -39.48,0 -97.53,-9.28 -160.23,-31.36 l -36,102.19 c 77.8,29.04 155.6,42.96 218.3,42.96 173.01,0 243.84,-74.3 243.84,-209.011 v -263.57"
         style="fill:#2d59a6;fill-opacity:1;fill-rule:nonzero;stroke:none"
         id="path30"
         inkscape:connector-curvature="0" />
    </g>
  </g>
</svg>
