<?xml version="1.0" encoding="UTF-8" standalone="no"?>
<!-- Created with Inkscape (http://www.inkscape.org/) -->

<svg
   xmlns:dc="http://purl.org/dc/elements/1.1/"
   xmlns:cc="http://creativecommons.org/ns#"
   xmlns:rdf="http://www.w3.org/1999/02/22-rdf-syntax-ns#"
   xmlns:svg="http://www.w3.org/2000/svg"
   xmlns="http://www.w3.org/2000/svg"
   xmlns:sodipodi="http://sodipodi.sourceforge.net/DTD/sodipodi-0.dtd"
   xmlns:inkscape="http://www.inkscape.org/namespaces/inkscape"
   version="1.1"
   id="svg2"
   xml:space="preserve"
   width="427.97333"
   height="428.30667"
   viewBox="0 0 427.97333 428.30667"
   sodipodi:docname="qupzilla-02.svg"
   inkscape:version="0.92.1 r"><metadata
     id="metadata8"><rdf:RDF><cc:Work
         rdf:about=""><dc:format>image/svg+xml</dc:format><dc:type
           rdf:resource="http://purl.org/dc/dcmitype/StillImage" /><dc:title></dc:title></cc:Work></rdf:RDF></metadata><defs
     id="defs6" /><sodipodi:namedview
     pagecolor="#ffffff"
     bordercolor="#666666"
     borderopacity="1"
     objecttolerance="10"
     gridtolerance="10"
     guidetolerance="10"
     inkscape:pageopacity="0"
     inkscape:pageshadow="2"
     inkscape:window-width="711"
     inkscape:window-height="480"
     id="namedview4"
     showgrid="false"
     inkscape:zoom="0.55100706"
     inkscape:cx="213.98666"
     inkscape:cy="214.15334"
     inkscape:window-x="0"
     inkscape:window-y="0"
     inkscape:window-maximized="0"
     inkscape:current-layer="g10" /><g
     id="g10"
     inkscape:groupmode="layer"
     inkscape:label="ink_ext_XXXXXX"
     transform="matrix(1.3333333,0,0,-1.3333333,0,428.30667)"><g
       id="g12"
       transform="scale(0.1)"><path
         d="m 469.91,820.379 c -261.457,412.241 -279.57,1100.741 6.629,1579.371 189.77,101.54 388.328,142.39 588.911,142.39 717.88,0 1459.93,-523.9 1902.38,-664.47 -106.5,10.19 -212.2,15.56 -317.16,15.56 -763.96,0 -1487.8,-284.94 -2180.76,-1072.851 z M 1605.04,3212.26 C 718.578,3212.26 0,2493.1 0,1606.13 0,719.219 718.578,0 1605.04,0 c 553.8,0 1042.05,280.809 1330.46,707.871 -127.51,-8.949 -280.2,-13.062 -332.54,-6.371 -205.16,26.242 -350.98,76.66 -646.03,223.422 -116.33,57.859 -247.39,116.578 -291.27,130.498 -253.84,80.54 -501.26,62.75 -825.203,-65.701 270.283,256.321 551.233,444.781 850.563,569.051 57.7,-11.95 116.34,-28.36 175.86,-49.74 188.54,-67.74 296.08,-122.11 671.26,-339.22 223.45,-129.31 380.03,-213.169 509.2,-268.38 103.98,212.78 162.43,451.9 162.43,704.7 0,886.97 -718.43,1606.13 -1604.73,1606.13"
         style="fill:#2d59a6;fill-opacity:1;fill-rule:nonzero;stroke:none"
         id="path14"
         inkscape:connector-curvature="0" /></g></g></svg>