<?xml version="1.0" encoding="UTF-8" standalone="no"?>
<!-- Created with Inkscape (http://www.inkscape.org/) -->

<svg
   xmlns:dc="http://purl.org/dc/elements/1.1/"
   xmlns:cc="http://creativecommons.org/ns#"
   xmlns:rdf="http://www.w3.org/1999/02/22-rdf-syntax-ns#"
   xmlns:svg="http://www.w3.org/2000/svg"
   xmlns="http://www.w3.org/2000/svg"
   xmlns:sodipodi="http://sodipodi.sourceforge.net/DTD/sodipodi-0.dtd"
   xmlns:inkscape="http://www.inkscape.org/namespaces/inkscape"
   version="1.1"
   id="svg2"
   xml:space="preserve"
   width="851.33331"
   height="246.86667"
   viewBox="0 0 851.33331 246.86667"
   sodipodi:docname="qupzilla-04.svg"
   inkscape:version="0.92.1 r"><metadata
     id="metadata8"><rdf:RDF><cc:Work
         rdf:about=""><dc:format>image/svg+xml</dc:format><dc:type
           rdf:resource="http://purl.org/dc/dcmitype/StillImage" /><dc:title></dc:title></cc:Work></rdf:RDF></metadata><defs
     id="defs6" /><sodipodi:namedview
     pagecolor="#ffffff"
     bordercolor="#666666"
     borderopacity="1"
     objecttolerance="10"
     gridtolerance="10"
     guidetolerance="10"
     inkscape:pageopacity="0"
     inkscape:pageshadow="2"
     inkscape:window-width="711"
     inkscape:window-height="480"
     id="namedview4"
     showgrid="false"
     inkscape:zoom="0.4522318"
     inkscape:cx="425.66666"
     inkscape:cy="123.43333"
     inkscape:window-x="0"
     inkscape:window-y="0"
     inkscape:window-maximized="0"
     inkscape:current-layer="g10" /><g
     id="g10"
     inkscape:groupmode="layer"
     inkscape:label="ink_ext_XXXXXX"
     transform="matrix(1.3333333,0,0,-1.3333333,0,246.86667)"><g
       id="g12"
       transform="scale(0.1)"><path
         d="M 270.105,471.801 C 119.82,708.762 109.41,1104.52 273.918,1379.64 383,1438 497.133,1461.48 612.426,1461.48 c 412.644,0 839.184,-301.14 1093.494,-381.94 -61.21,5.85 -121.97,8.94 -182.3,8.94 -439.13,0 -855.194,-163.785 -1253.515,-616.679 z M 922.59,1846.67 C 413.043,1846.67 0,1433.29 0,923.457 0,413.648 413.043,0.25 922.59,0.25 c 318.33,0 598.98,161.398 764.75,406.879 -73.29,-5.141 -161.06,-7.508 -191.15,-3.66 -117.92,15.082 -201.74,44.07 -371.33,128.422 -66.87,33.257 -142.208,67.007 -167.426,75.019 -145.911,46.289 -288.129,36.059 -474.332,-37.769 155.359,147.328 316.851,255.66 488.906,327.093 33.162,-6.871 66.872,-16.3 101.082,-28.593 108.37,-38.942 170.19,-70.192 385.85,-194.981 128.44,-74.328 218.44,-122.531 292.69,-154.269 59.77,122.3 93.36,259.757 93.36,405.066 0,509.833 -412.95,923.213 -922.4,923.213"
         style="fill:#2d59a6;fill-opacity:1;fill-rule:nonzero;stroke:none"
         id="path14"
         inkscape:connector-curvature="0" /><path
         d="m 2584.56,1264.05 c -116.12,0 -185.79,-83.61 -185.79,-301.909 0,-218.289 72,-300.743 185.79,-300.743 117.28,0 185.78,83.614 185.78,301.915 0,218.287 -69.66,300.737 -185.78,300.737 z m 176.5,-649.089 1.16,-4.641 c 101.02,0 169.52,-29.031 231.06,-72 l -95.22,-124.238 c -82.43,82.449 -169.51,133.527 -316.98,133.527 -212.49,0 -343.7,143.993 -343.7,414.532 0,265.899 134.69,419.179 347.18,419.179 212.49,0 347.18,-147.46 347.18,-418.007 0,-163.731 -56.89,-286.813 -170.68,-348.352"
         style="fill:#2d59a6;fill-opacity:1;fill-rule:nonzero;stroke:none"
         id="path16"
         inkscape:connector-curvature="0" /><path
         d="M 3192.98,1175.8 V 749.648 c 0,-47.597 9.29,-90.558 67.35,-90.558 56.89,0 95.21,31.34 127.72,76.629 V 1175.8 h 148.63 V 561.551 H 3407.8 l -8.13,76.64 c -45.28,-61.55 -113.79,-94.062 -185.79,-94.062 -118.43,0 -169.53,71.992 -169.53,186.953 V 1175.8 h 148.63"
         style="fill:#2d59a6;fill-opacity:1;fill-rule:nonzero;stroke:none"
         id="path18"
         inkscape:connector-curvature="0" /><path
         d="m 4081.26,869.254 c 0,155.596 -41.8,212.486 -118.43,212.486 -51.1,0 -94.06,-37.16 -123.09,-82.435 V 721.781 c 27.87,-42.961 66.19,-63.859 112.64,-63.859 81.28,0 128.88,62.707 128.88,211.332 z M 3691.12,308.41 v 867.39 h 130.05 l 8.12,-75.48 c 48.77,63.86 113.79,92.89 177.66,92.89 162.56,0 229.9,-126.56 229.9,-322.8 0,-188.101 -87.08,-326.281 -242.67,-326.281 -62.7,0 -116.12,22.062 -154.44,67.351 V 324.672 L 3691.12,308.41"
         style="fill:#2d59a6;fill-opacity:1;fill-rule:nonzero;stroke:none"
         id="path20"
         inkscape:connector-curvature="0" /><path
         d="m 4465.58,686.949 h 375.05 L 4824.37,561.551 H 4287.93 V 678.82 l 376.21,563.16 h -337.89 v 121.93 h 510.9 V 1245.46 L 4465.58,686.949"
         style="fill:#2d59a6;fill-opacity:1;fill-rule:nonzero;stroke:none"
         id="path22"
         inkscape:connector-curvature="0" /><path
         d="M 4938.16,561.551 V 1175.8 h 148.63 V 561.551 Z m 74.32,743.129 c -55.74,0 -94.06,39.48 -94.06,90.58 0,49.93 38.32,89.4 94.06,89.4 54.56,0 94.05,-39.47 94.05,-89.4 0,-51.1 -39.49,-90.58 -94.05,-90.58"
         style="fill:#2d59a6;fill-opacity:1;fill-rule:nonzero;stroke:none"
         id="path24"
         inkscape:connector-curvature="0" /><path
         d="m 5478.1,565.031 c -29.03,-11.609 -66.19,-20.902 -103.34,-20.902 -88.25,0 -146.31,51.101 -146.31,164.891 v 712.94 l 148.63,16.26 V 711.332 c 0,-34.832 11.62,-47.602 33.68,-47.602 12.76,0 25.54,2.329 34.83,5.809 l 32.51,-104.508"
         style="fill:#2d59a6;fill-opacity:1;fill-rule:nonzero;stroke:none"
         id="path26"
         inkscape:connector-curvature="0" /><path
         d="m 5789.29,565.031 c -29.03,-11.609 -66.19,-20.902 -103.34,-20.902 -88.25,0 -146.31,51.101 -146.31,164.891 v 712.94 l 148.62,16.26 V 711.332 c 0,-34.832 11.62,-47.602 33.68,-47.602 12.77,0 25.55,2.329 34.84,5.809 l 32.51,-104.508"
         style="fill:#2d59a6;fill-opacity:1;fill-rule:nonzero;stroke:none"
         id="path28"
         inkscape:connector-curvature="0" /><path
         d="m 6171.31,727.59 v 123.09 h -52.26 c -114.94,0 -155.59,-38.321 -155.59,-105.668 0,-60.383 27.87,-92.891 89.4,-92.891 48.78,0 89.42,27.859 118.45,75.469 z m 143.98,-6.961 c 0,-46.449 12.77,-63.867 42.97,-75.469 l -32.53,-98.699 c -65.02,5.801 -109.13,29.019 -132.36,82.43 -44.12,-58.051 -112.64,-84.762 -186.95,-84.762 -125.4,0 -202.04,77.801 -202.04,192.762 0,130.035 103.34,203.191 291.46,203.191 h 75.47 v 34.84 c 0,77.788 -36,104.498 -121.93,104.498 -39.48,0 -97.53,-9.28 -160.23,-31.36 l -36,102.19 c 77.8,29.04 155.6,42.96 218.3,42.96 173.01,0 243.84,-74.3 243.84,-209.011 v -263.57"
         style="fill:#2d59a6;fill-opacity:1;fill-rule:nonzero;stroke:none"
         id="path30"
         inkscape:connector-curvature="0" /></g></g></svg>