<?xml version="1.0" encoding="UTF-8" standalone="no"?>
<!-- Created with Inkscape (http://www.inkscape.org/) -->

<svg
   xmlns:dc="http://purl.org/dc/elements/1.1/"
   xmlns:cc="http://creativecommons.org/ns#"
   xmlns:rdf="http://www.w3.org/1999/02/22-rdf-syntax-ns#"
   xmlns:svg="http://www.w3.org/2000/svg"
   xmlns="http://www.w3.org/2000/svg"
   xmlns:sodipodi="http://sodipodi.sourceforge.net/DTD/sodipodi-0.dtd"
   xmlns:inkscape="http://www.inkscape.org/namespaces/inkscape"
   version="1.1"
   id="svg2"
   xml:space="preserve"
   width="522.21332"
   height="404.25333"
   viewBox="0 0 522.21332 404.25333"
   sodipodi:docname="qupzilla-07.svg"
   inkscape:version="0.92.1 r"><metadata
     id="metadata8"><rdf:RDF><cc:Work
         rdf:about=""><dc:format>image/svg+xml</dc:format><dc:type
           rdf:resource="http://purl.org/dc/dcmitype/StillImage" /><dc:title></dc:title></cc:Work></rdf:RDF></metadata><defs
     id="defs6" /><sodipodi:namedview
     pagecolor="#ffffff"
     bordercolor="#666666"
     borderopacity="1"
     objecttolerance="10"
     gridtolerance="10"
     guidetolerance="10"
     inkscape:pageopacity="0"
     inkscape:pageshadow="2"
     inkscape:window-width="711"
     inkscape:window-height="480"
     id="namedview4"
     showgrid="false"
     inkscape:zoom="0.58379235"
     inkscape:cx="261.10666"
     inkscape:cy="202.12666"
     inkscape:window-x="0"
     inkscape:window-y="0"
     inkscape:window-maximized="0"
     inkscape:current-layer="g10" /><g
     id="g10"
     inkscape:groupmode="layer"
     inkscape:label="ink_ext_XXXXXX"
     transform="matrix(1.3333333,0,0,-1.3333333,0,404.25333)"><g
       id="g12"
       transform="scale(0.1)"><path
         d="m 1345.91,1731.83 c -141.07,222.43 -150.84,593.92 3.58,852.17 102.4,54.79 209.53,76.83 317.76,76.83 387.34,0 787.73,-282.68 1026.46,-358.53 -57.46,5.5 -114.5,8.4 -171.13,8.4 -412.21,0 -802.77,-153.74 -1176.67,-578.87 z m 612.48,1290.58 c -478.3,0 -866.02,-388.04 -866.02,-866.62 0,-478.55 387.72,-866.61 866.02,-866.61 298.81,0 562.26,151.51 717.87,381.94 -68.8,-4.83 -151.19,-7.05 -179.43,-3.44 -110.69,14.16 -189.37,41.37 -348.57,120.55 -62.77,31.22 -133.49,62.91 -157.16,70.42 -136.96,43.45 -270.46,33.85 -445.25,-35.45 145.84,138.3 297.43,239.99 458.93,307.04 31.13,-6.45 62.78,-15.3 94.89,-26.84 101.73,-36.55 159.76,-65.88 362.19,-183.03 120.57,-69.77 205.05,-115.02 274.75,-144.81 56.1,114.81 87.64,243.83 87.64,380.23 0,478.58 -387.64,866.62 -865.86,866.62"
         style="fill:#2d59a6;fill-opacity:1;fill-rule:nonzero;stroke:none"
         id="path14"
         inkscape:connector-curvature="0" /><path
         d="m 333.121,909.012 c -110.144,0 -176.238,-79.313 -176.238,-286.391 0,-207.062 68.301,-285.269 176.238,-285.269 111.246,0 176.231,79.296 176.231,286.378 0,207.071 -66.082,285.282 -176.231,285.282 z m 167.426,-615.723 1.098,-4.398 c 95.832,0 160.812,-27.539 219.187,-68.301 L 630.512,102.73 C 552.309,180.949 469.707,229.41 329.816,229.41 128.254,229.41 3.78906,365.988 3.78906,622.621 c 0,252.238 127.76594,397.639 329.33194,397.639 201.567,0 329.336,-139.889 329.336,-396.53 0,-155.308 -53.969,-272.07 -161.91,-330.441"
         style="fill:#2d59a6;fill-opacity:1;fill-rule:nonzero;stroke:none"
         id="path16"
         inkscape:connector-curvature="0" /><path
         d="M 910.266,825.301 V 421.059 c 0,-45.161 8.816,-85.911 63.882,-85.911 53.972,0 90.322,29.731 121.162,72.692 v 417.461 h 140.99 v -582.68 h -122.26 l -7.71,72.699 c -42.96,-58.379 -107.939,-89.218 -176.236,-89.218 -112.344,0 -160.817,68.289 -160.817,177.339 v 421.86 h 140.989"
         style="fill:#2d59a6;fill-opacity:1;fill-rule:nonzero;stroke:none"
         id="path18"
         inkscape:connector-curvature="0" /><path
         d="m 1752.88,534.512 c 0,147.597 -39.65,201.57 -112.34,201.57 -48.47,0 -89.22,-35.262 -116.76,-78.203 V 394.621 c 26.44,-40.75 62.79,-60.582 106.84,-60.582 77.11,0 122.26,59.481 122.26,200.473 z M 1382.79,2.5 v 822.801 h 123.37 l 7.71,-71.602 c 46.26,60.582 107.94,88.11 168.52,88.11 154.2,0 218.09,-120.047 218.09,-306.2 0,-178.437 -82.61,-309.507 -230.2,-309.507 -59.48,0 -110.15,20.918 -146.5,63.878 V 17.9219 L 1382.79,2.5"
         style="fill:#2d59a6;fill-opacity:1;fill-rule:nonzero;stroke:none"
         id="path20"
         inkscape:connector-curvature="0" /><path
         d="m 2117.45,361.582 h 355.77 l -15.43,-118.961 h -508.86 v 111.25 l 356.86,534.199 h -320.51 v 115.66 h 484.63 V 891.379 L 2117.45,361.582"
         style="fill:#2d59a6;fill-opacity:1;fill-rule:nonzero;stroke:none"
         id="path22"
         inkscape:connector-curvature="0" /><path
         d="m 2565.73,242.621 v 582.68 h 140.99 v -582.68 z m 70.5,704.938 c -52.87,0 -89.22,37.441 -89.22,85.911 0,47.37 36.35,84.81 89.22,84.81 51.76,0 89.22,-37.44 89.22,-84.81 0,-48.47 -37.46,-85.911 -89.22,-85.911"
         style="fill:#2d59a6;fill-opacity:1;fill-rule:nonzero;stroke:none"
         id="path24"
         inkscape:connector-curvature="0" /><path
         d="m 3077.92,245.93 c -27.54,-11.008 -62.79,-19.828 -98.03,-19.828 -83.71,0 -138.79,48.468 -138.79,156.41 V 1058.8 l 140.99,15.43 V 384.711 c 0,-33.051 11.02,-45.16 31.94,-45.16 12.11,0 24.23,2.211 33.05,5.508 l 30.84,-99.129"
         style="fill:#2d59a6;fill-opacity:1;fill-rule:nonzero;stroke:none"
         id="path26"
         inkscape:connector-curvature="0" /><path
         d="m 3373.11,245.93 c -27.54,-11.008 -62.79,-19.828 -98.03,-19.828 -83.71,0 -138.79,48.468 -138.79,156.41 V 1058.8 l 140.99,15.43 V 384.711 c 0,-33.051 11.02,-45.16 31.94,-45.16 12.11,0 24.23,2.211 33.05,5.508 l 30.84,-99.129"
         style="fill:#2d59a6;fill-opacity:1;fill-rule:nonzero;stroke:none"
         id="path28"
         inkscape:connector-curvature="0" /><path
         d="m 3735.49,400.129 v 116.762 h -49.57 c -109.04,0 -147.59,-36.352 -147.59,-100.243 0,-57.269 26.43,-88.109 84.8,-88.109 46.27,0 84.83,26.43 112.36,71.59 z m 136.58,-6.609 c 0,-44.051 12.11,-60.579 40.76,-71.59 l -30.85,-93.621 c -61.68,5.5 -103.53,27.531 -125.57,78.203 -41.85,-55.071 -106.84,-80.41 -177.33,-80.41 -118.95,0 -191.66,73.8 -191.66,182.847 0,123.352 98.03,192.75 276.48,192.75 h 71.59 v 33.043 c 0,73.797 -34.14,99.129 -115.66,99.129 -37.45,0 -92.52,-8.812 -152,-29.742 l -34.14,96.93 c 73.8,27.543 147.59,40.75 207.08,40.75 164.12,0 231.3,-70.477 231.3,-198.258 V 393.52"
         style="fill:#2d59a6;fill-opacity:1;fill-rule:nonzero;stroke:none"
         id="path30"
         inkscape:connector-curvature="0" /></g></g></svg>