<?xml version="1.0" encoding="UTF-8" standalone="no"?>
<!-- Created with Inkscape (http://www.inkscape.org/) -->

<svg
   xmlns:dc="http://purl.org/dc/elements/1.1/"
   xmlns:cc="http://creativecommons.org/ns#"
   xmlns:rdf="http://www.w3.org/1999/02/22-rdf-syntax-ns#"
   xmlns:svg="http://www.w3.org/2000/svg"
   xmlns="http://www.w3.org/2000/svg"
   xmlns:sodipodi="http://sodipodi.sourceforge.net/DTD/sodipodi-0.dtd"
   xmlns:inkscape="http://www.inkscape.org/namespaces/inkscape"
   width="137.90228mm"
   height="106.53572mm"
   viewBox="0 0 137.90228 106.53572"
   version="1.1"
   id="svg4768"
   inkscape:version="0.92.1 r"
   sodipodi:docname="vertical-flat-color.svg">
  <defs
     id="defs4762">
    <clipPath
       clipPathUnits="userSpaceOnUse"
       id="clipPath20">
      <path
         d="M 923.98,0 C 682.281,0 462.238,92.8906 297.566,244.941 h 2.957 C 464.656,94.082 683.559,2 923.992,2 1164.38,2 1383.24,94.082 1547.34,244.941 h 2.96 C 1385.66,92.8906 1165.66,0 923.98,0 M 93.7773,518.289 C 33.7266,640.922 0,778.832 0,924.582 0,1070.38 33.707,1208.26 93.7773,1330.91 v -4.57 C 34.9883,1204.9 2.00781,1068.59 2.00781,924.605 2.00781,780.629 34.9883,644.32 93.7773,522.879 v -4.59 M 1847.58,944.938 h -2.01 c -0.94,43.808 -4.95,86.932 -11.8,129.032 v 11.98 c 8.08,-45.92 12.77,-93.016 13.81,-141.012 m -196.45,550.002 h -2.52 c -168.79,214.52 -430.63,352.27 -724.618,352.27 -294.047,0 -555.937,-137.75 -724.758,-352.27 h -2.543 c 169.153,215.69 432.047,354.27 727.289,354.27 295.17,0 558.02,-138.58 727.15,-354.27"
         id="path18"
         inkscape:connector-curvature="0" />
    </clipPath>
    <radialGradient
       fx="0"
       fy="0"
       cx="0"
       cy="0"
       r="1"
       gradientUnits="userSpaceOnUse"
       gradientTransform="matrix(1694.43,0,0,-1596.28,923.9,1732.52)"
       spreadMethod="pad"
       id="radialGradient34">
      <stop
         style="stop-opacity:1;stop-color:#6dcaf3"
         offset="0"
         id="stop22" />
      <stop
         style="stop-opacity:1;stop-color:#63c0ee"
         offset="0.0769"
         id="stop24" />
      <stop
         style="stop-opacity:1;stop-color:#47abe0"
         offset="0.1822"
         id="stop26" />
      <stop
         style="stop-opacity:1;stop-color:#346dbf"
         offset="0.616847"
         id="stop28" />
      <stop
         style="stop-opacity:1;stop-color:#3056a6"
         offset="0.952231"
         id="stop30" />
      <stop
         style="stop-opacity:1;stop-color:#3056a6"
         offset="1"
         id="stop32" />
    </radialGradient>
    <clipPath
       clipPathUnits="userSpaceOnUse"
       id="clipPath44">
      <path
         d="M 923.992,2 C 683.559,2 464.656,94.082 300.523,244.941 H 1547.34 C 1383.24,94.082 1164.38,2 923.992,2 M 93.7773,522.879 C 34.9883,644.32 2.00781,780.629 2.00781,924.605 c 0,143.985 32.98049,280.295 91.76949,401.735 V 522.879 M 1845.57,944.938 h -11.8 v 129.032 c 6.85,-42.1 10.86,-85.224 11.8,-129.032 M 1648.61,1494.94 H 199.234 c 168.821,214.52 430.711,352.27 724.758,352.27 293.988,0 555.828,-137.75 724.618,-352.27"
         id="path42"
         inkscape:connector-curvature="0" />
    </clipPath>
    <clipPath
       clipPathUnits="userSpaceOnUse"
       id="clipPath56">
      <path
         d="M 2083.77,244.941 H 1550.3 c 23.95,22.118 46.72,45.481 68.22,70 h 215.25 V 428.91 c 75.5,15.891 137.28,33.059 121.68,34.961 -41.63,5.059 -80.26,12.801 -121.68,25.66 v 273.68 c 9.22,52.391 14.03,106.336 14.03,161.371 0,6.793 -0.07,13.598 -0.22,20.356 h 236.19 V 244.941 m -1786.204,0 h -83.793 v 70 h 15.555 c 21.508,-24.519 44.285,-47.882 68.238,-70"
         id="path54"
         inkscape:connector-curvature="0" />
    </clipPath>
    <clipPath
       clipPathUnits="userSpaceOnUse"
       id="clipPath68">
      <path
         d="m 1550.3,244.941 h -2.96 c 24.03,22.09 46.93,45.489 68.51,70 h 2.67 c -21.5,-24.519 -44.27,-47.882 -68.22,-70 m -1249.777,0 h -2.957 c -23.953,22.118 -46.73,45.481 -68.238,70 h 2.668 c 21.582,-24.511 44.488,-47.91 68.527,-70 m 1533.247,518.27 v 12.039 c 7.91,48.609 12.02,98.516 12.02,149.355 0,6.813 -0.07,13.559 -0.22,20.333 h 2.01 c 0.15,-6.758 0.22,-13.563 0.22,-20.356 0,-55.035 -4.81,-108.98 -14.03,-161.371"
         id="path66"
         inkscape:connector-curvature="0" />
    </clipPath>
    <clipPath
       clipPathUnits="userSpaceOnUse"
       id="clipPath80">
      <path
         d="M 1547.34,244.941 H 300.523 c -24.039,22.09 -46.945,45.489 -68.527,70 H 1615.85 c -21.58,-24.511 -44.48,-47.91 -68.51,-70 m 286.43,530.309 v 169.688 h 11.8 c 0.15,-6.774 0.22,-13.52 0.22,-20.333 0,-50.839 -4.11,-100.746 -12.02,-149.355"
         id="path78"
         inkscape:connector-curvature="0" />
    </clipPath>
    <clipPath
       clipPathUnits="userSpaceOnUse"
       id="clipPath94">
      <path
         d="M 213.773,314.941 H 93.7773 V 518.289 C 126.398,451.672 166.785,389.57 213.773,333.141 v -18.2 M 1833.77,1085.95 c -26.81,152.47 -90.95,292.05 -182.64,408.99 h 182.64 V 1085.95 M 93.7773,1330.91 v 164.03 H 196.691 C 156.953,1444.27 122.371,1389.3 93.7773,1330.91"
         id="path92"
         inkscape:connector-curvature="0" />
    </clipPath>
    <clipPath
       clipPathUnits="userSpaceOnUse"
       id="clipPath106">
      <path
         d="M 213.773,333.141 C 166.785,389.57 126.398,451.672 93.7773,518.289 v 4.59 C 126.281,455.738 166.688,393.141 213.773,336.281 v -3.14 M 1833.77,1073.97 c -25.56,157.21 -90.82,301.07 -185.16,420.97 h 2.52 c 91.69,-116.94 155.83,-256.52 182.64,-408.99 v -11.98 M 93.7773,1326.34 v 4.57 c 28.5937,58.39 63.1757,113.36 102.9137,164.03 h 2.543 C 158.32,1442.95 122.891,1386.48 93.7773,1326.34"
         id="path104"
         inkscape:connector-curvature="0" />
    </clipPath>
    <clipPath
       clipPathUnits="userSpaceOnUse"
       id="clipPath118">
      <path
         d="m 213.773,336.281 c -47.085,56.86 -87.492,119.457 -119.9957,186.598 v 803.461 c 29.1137,60.14 64.5427,116.61 105.4567,168.6 H 1648.61 c 94.34,-119.9 159.6,-263.76 185.16,-420.97 V 944.938 H 213.773 V 336.281"
         id="path116"
         inkscape:connector-curvature="0" />
    </clipPath>
    <clipPath
       clipPathUnits="userSpaceOnUse"
       id="clipPath130">
      <path
         d="m 1833.77,314.941 h -215.25 c 26.02,29.668 50.17,61.008 72.27,93.86 37.14,2.648 70.3,6.008 89.96,9.629 17.89,3.3 35.81,6.851 53.02,10.48 V 314.941 m -1604.442,0 h -15.555 v 18.2 c 5.106,-6.129 10.297,-12.211 15.555,-18.2 m 1604.442,174.59 c -25.02,7.77 -51.06,17.399 -79.39,29.449 37.21,76.149 64.25,158.102 79.39,244.231 v -273.68"
         id="path128"
         inkscape:connector-curvature="0" />
    </clipPath>
    <clipPath
       clipPathUnits="userSpaceOnUse"
       id="clipPath142">
      <path
         d="m 1618.52,314.941 h -2.67 c 26.06,29.59 50.26,60.899 72.4,93.68 0.85,0.059 1.7,0.117 2.54,0.18 -22.1,-32.852 -46.25,-64.192 -72.27,-93.86 m -1386.524,0 h -2.668 c -5.258,5.989 -10.449,12.071 -15.555,18.2 v 3.14 c 5.981,-7.222 12.032,-14.312 18.223,-21.34 M 1754.38,518.98 c -0.61,0.258 -1.24,0.532 -1.85,0.79 38.82,79.429 66.57,165.25 81.24,255.48 v -12.039 c -15.14,-86.129 -42.18,-168.082 -79.39,-244.231"
         id="path140"
         inkscape:connector-curvature="0" />
    </clipPath>
    <clipPath
       clipPathUnits="userSpaceOnUse"
       id="clipPath154">
      <path
         d="M 1615.85,314.941 H 231.996 c -6.191,7.028 -12.242,14.118 -18.223,21.34 V 944.938 H 1833.77 V 775.25 c -14.67,-90.23 -42.42,-176.051 -81.24,-255.48 -74.2,31.71 -164.18,79.921 -292.54,154.199 -215.51,124.722 -277.29,155.941 -385.59,194.859 -75.779,27.227 -149.252,41.129 -219.248,41.766 -1.672,0.015 -3.355,0.023 -5.027,0.023 -88.105,0 -170.617,-21.125 -245.191,-63.258 C 495.781,785.691 373.379,653.59 284.66,501.73 c -12.015,-20.57 -15.375,-27.98 -11.664,-27.98 0.969,0 2.418,0.5 4.324,1.41 6.239,2.969 47.825,23 92.407,44.52 163.468,78.902 293.105,116.55 412.964,116.55 60.157,0 117.829,-9.468 176.122,-27.968 25.203,-8 100.487,-41.731 167.317,-74.961 169.48,-84.301 253.24,-113.27 371.09,-128.34 10.28,-1.32 27.31,-1.91 48.19,-1.91 40.18,0 94.64,2.179 142.84,5.57 -22.14,-32.781 -46.34,-64.09 -72.4,-93.68"
         id="path152"
         inkscape:connector-curvature="0" />
    </clipPath>
    <clipPath
       clipPathUnits="userSpaceOnUse"
       id="clipPath166">
      <path
         d="m 1545.41,403.051 c -20.88,0 -37.91,0.59 -48.19,1.91 -117.85,15.07 -201.61,44.039 -371.09,128.34 -66.83,33.23 -142.114,66.961 -167.317,74.961 -58.293,18.5 -115.965,27.968 -176.122,27.968 -119.859,0 -249.496,-37.648 -412.964,-116.55 -44.582,-21.52 -86.168,-41.551 -92.407,-44.52 -1.906,-0.91 -3.355,-1.41 -4.324,-1.41 -3.711,0 -0.351,7.41 11.664,27.98 88.719,151.86 211.121,283.961 320.274,345.629 74.574,42.133 157.086,63.258 245.191,63.258 1.672,0 3.355,-0.008 5.027,-0.023 69.996,-0.637 143.469,-14.539 219.248,-41.766 108.3,-38.918 170.08,-70.137 385.59,-194.859 128.36,-74.278 218.34,-122.489 292.54,-154.199 0.61,-0.258 1.24,-0.532 1.85,-0.79 28.33,-12.05 54.37,-21.679 79.39,-29.449 V 428.91 c -17.21,-3.629 -35.13,-7.18 -53.02,-10.48 -19.66,-3.621 -52.82,-6.981 -89.96,-9.629 -0.84,-0.063 -1.69,-0.121 -2.54,-0.18 -48.2,-3.391 -102.66,-5.57 -142.84,-5.57"
         id="path164"
         inkscape:connector-curvature="0" />
    </clipPath>
    <clipPath
       clipPathUnits="userSpaceOnUse"
       id="clipPath20-6">
      <path
         d="m 1951.36,1285.87 c -224.92,0 -430.01,85.22 -584.73,225.13 h 2.82 c 154.2,-138.8 358.19,-223.24 581.92,-223.24 223.69,0 427.64,84.44 581.81,223.24 h 2.82 c -154.69,-139.91 -359.74,-225.13 -584.64,-225.13 m -785.1,491.87 c -55.95,115.17 -87.33,244.48 -87.33,381.13 0,136.66 31.39,265.99 87.33,381.17 v -4.35 c -54.74,-114.03 -85.43,-241.85 -85.43,-376.8 0,-134.94 30.69,-262.76 85.43,-376.78 v -4.37 M 2823.36,2181 h -1.89 c -0.64,25.68 -2.39,51.09 -5.21,76.18 v 15.71 c 3.93,-30.18 6.33,-60.83 7.1,-91.89 m -188.26,520 h -2.39 c -159.45,200.49 -405.39,329.02 -681.34,329.02 -275.99,0 -521.99,-128.53 -681.48,-329.02 h -2.41 c 159.81,201.59 406.76,330.91 683.88,330.91 277.06,0 523.96,-129.32 683.74,-330.91"
         id="path18-7"
         inkscape:connector-curvature="0" />
    </clipPath>
    <radialGradient
       fx="0"
       fy="0"
       cx="0"
       cy="0"
       r="1"
       gradientUnits="userSpaceOnUse"
       gradientTransform="matrix(1599.89,0,0,-1507.21,1951.28,2921.73)"
       spreadMethod="pad"
       id="radialGradient34-5">
      <stop
         style="stop-opacity:1;stop-color:#6dcaf3"
         offset="0"
         id="stop22-3" />
      <stop
         style="stop-opacity:1;stop-color:#63c0ee"
         offset="0.0769"
         id="stop24-5" />
      <stop
         style="stop-opacity:1;stop-color:#47abe0"
         offset="0.1822"
         id="stop26-6" />
      <stop
         style="stop-opacity:1;stop-color:#346dbf"
         offset="0.616847"
         id="stop28-2" />
      <stop
         style="stop-opacity:1;stop-color:#3056a6"
         offset="0.952231"
         id="stop30-9" />
      <stop
         style="stop-opacity:1;stop-color:#3056a6"
         offset="1"
         id="stop32-1" />
    </radialGradient>
    <clipPath
       clipPathUnits="userSpaceOnUse"
       id="clipPath44-2">
      <path
         d="m 1951.37,1287.76 c -223.73,0 -427.72,84.44 -581.92,223.24 h 1163.73 c -154.17,-138.8 -358.12,-223.24 -581.81,-223.24 m -785.11,494.35 c -54.74,114.02 -85.43,241.84 -85.43,376.78 0,134.95 30.69,262.77 85.43,376.8 V 1782.11 M 2821.47,2181 h -5.21 v 76.18 c 2.82,-25.09 4.57,-50.5 5.21,-76.18 m -188.76,520 H 1269.89 c 159.49,200.49 405.49,329.02 681.48,329.02 275.95,0 521.89,-128.53 681.34,-329.02"
         id="path42-7"
         inkscape:connector-curvature="0" />
    </clipPath>
    <clipPath
       clipPathUnits="userSpaceOnUse"
       id="clipPath56-0">
      <path
         d="M 3056.26,1511 H 2536 c 24.35,22.02 47.44,45.38 69.17,69.99 h 211.09 v 111.1 c 68.58,14.65 123.34,30.03 109.01,31.77 -37.32,4.54 -72.11,11.36 -109.01,22.44 v 298.55 c 4.86,37.31 7.37,75.38 7.37,114.02 0,7.38 -0.09,14.78 -0.27,22.13 h 232.9 v -670 m -1689.63,0 h -90.37 v 69.99 h 21.19 c 21.74,-24.61 44.83,-47.97 69.18,-69.99"
         id="path54-9"
         inkscape:connector-curvature="0" />
    </clipPath>
    <clipPath
       clipPathUnits="userSpaceOnUse"
       id="clipPath68-3">
      <path
         d="m 2536,1511 h -2.82 c 24.42,21.99 47.66,45.4 69.46,69.99 h 2.53 c -21.73,-24.61 -44.82,-47.97 -69.17,-69.99 m -1166.55,0 h -2.82 c -24.35,22.02 -47.44,45.38 -69.18,69.99 h 2.52 c 21.81,-24.59 45.05,-48 69.48,-69.99 m 1446.81,533.85 v 15.76 c 3.62,32.27 5.48,65.05 5.48,98.28 0,7.4 -0.09,14.75 -0.27,22.11 h 1.89 c 0.18,-7.35 0.27,-14.75 0.27,-22.13 0,-38.64 -2.51,-76.71 -7.37,-114.02"
         id="path66-6"
         inkscape:connector-curvature="0" />
    </clipPath>
    <clipPath
       clipPathUnits="userSpaceOnUse"
       id="clipPath80-0">
      <path
         d="M 2533.18,1511 H 1369.45 c -24.43,21.99 -47.67,45.4 -69.48,69.99 h 1302.67 c -21.8,-24.59 -45.04,-48 -69.46,-69.99 m 283.08,549.61 V 2181 h 5.21 c 0.18,-7.36 0.27,-14.71 0.27,-22.11 0,-33.23 -1.86,-66.01 -5.48,-98.28"
         id="path78-6"
         inkscape:connector-curvature="0" />
    </clipPath>
    <clipPath
       clipPathUnits="userSpaceOnUse"
       id="clipPath94-2">
      <path
         d="m 1276.26,1580.99 h -110 v 196.75 c 29.96,-61.67 67,-119.33 110,-171.84 v -24.91 m 1540,691.9 c -20.91,160.49 -85.39,307.27 -181.16,428.11 h 181.16 v -428.11 m -1650,267.15 V 2701 h 101.22 c -39.29,-49.57 -73.31,-103.5 -101.22,-160.96"
         id="path92-6"
         inkscape:connector-curvature="0" />
    </clipPath>
    <clipPath
       clipPathUnits="userSpaceOnUse"
       id="clipPath106-1">
      <path
         d="m 1276.26,1605.9 c -43,52.51 -80.04,110.17 -110,171.84 v 4.37 c 29.86,-62.2 66.88,-120.28 110,-173.22 v -2.99 m 1540,651.28 c -18.71,166.68 -84.41,319.17 -183.55,443.82 h 2.39 c 95.77,-120.84 160.25,-267.62 181.16,-428.11 v -15.71 m -1650,278.51 v 4.35 c 27.91,57.46 61.93,111.39 101.22,160.96 h 2.41 c -40.41,-50.8 -75.24,-106.19 -103.63,-165.31"
         id="path104-8"
         inkscape:connector-curvature="0" />
    </clipPath>
    <clipPath
       clipPathUnits="userSpaceOnUse"
       id="clipPath118-7">
      <path
         d="m 1276.26,1608.89 c -43.12,52.94 -80.14,111.02 -110,173.22 v 753.58 c 28.39,59.12 63.22,114.51 103.63,165.31 h 1362.82 c 99.14,-124.65 164.84,-277.14 183.55,-443.82 V 2181 h -1540 v -572.11"
         id="path116-9"
         inkscape:connector-curvature="0" />
    </clipPath>
    <clipPath
       clipPathUnits="userSpaceOnUse"
       id="clipPath130-2">
      <path
         d="m 2816.26,1580.99 h -211.09 c 25.33,28.69 48.79,59.02 70.22,90.87 35.06,2.51 66.38,5.68 84.93,9.1 18.94,3.49 37.92,7.28 55.94,11.13 v -111.1 m -1518.81,0 h -21.19 v 24.91 c 6.92,-8.45 13.96,-16.73 21.19,-24.91 m 1518.81,165.31 c -25.43,7.63 -51.86,17.28 -80.83,29.6 40.61,83.11 68.4,173.59 80.83,268.95 V 1746.3"
         id="path128-0"
         inkscape:connector-curvature="0" />
    </clipPath>
    <clipPath
       clipPathUnits="userSpaceOnUse"
       id="clipPath142-2">
      <path
         d="m 2605.17,1580.99 h -2.53 c 25.37,28.62 48.87,58.91 70.34,90.7 0.81,0.06 1.6,0.11 2.41,0.17 -21.43,-31.85 -44.89,-62.18 -70.22,-90.87 m -1305.2,0 h -2.52 c -7.23,8.18 -14.27,16.46 -21.19,24.91 v 2.99 c 7.72,-9.48 15.6,-18.75 23.71,-27.9 m 1435.46,194.91 c -0.58,0.24 -1.17,0.49 -1.75,0.74 42.73,87.43 71.26,183.12 82.58,283.97 v -15.76 c -12.43,-95.36 -40.22,-185.84 -80.83,-268.95"
         id="path140-3"
         inkscape:connector-curvature="0" />
    </clipPath>
    <clipPath
       clipPathUnits="userSpaceOnUse"
       id="clipPath154-7">
      <path
         d="M 2602.64,1580.99 H 1299.97 c -8.11,9.15 -15.99,18.42 -23.71,27.9 V 2181 h 1540 v -120.39 c -11.32,-100.85 -39.85,-196.54 -82.58,-283.97 -70.06,29.95 -155.02,75.46 -276.21,145.6 -203.49,117.76 -261.83,147.24 -364.08,183.99 -71.55,25.7 -140.93,38.83 -207.02,39.43 v 0 c -1.58,0.02 -3.17,0.02 -4.75,0.02 -83.19,0 -161.09,-19.94 -231.5,-59.72 -103.07,-58.23 -218.64,-182.96 -302.41,-326.35 -11.35,-19.42 -14.52,-26.42 -11.01,-26.42 0.91,0 2.28,0.48 4.08,1.33 5.89,2.81 45.16,21.72 87.25,42.04 154.35,74.5 276.75,110.05 389.93,110.05 56.8,0 111.25,-8.95 166.29,-26.41 23.8,-7.55 94.88,-39.4 157.98,-70.79 160.03,-79.59 239.12,-106.94 350.39,-121.17 9.71,-1.24 25.79,-1.8 45.51,-1.8 37.93,0 89.35,2.06 134.85,5.25 -21.47,-31.79 -44.97,-62.08 -70.34,-90.7"
         id="path152-5"
         inkscape:connector-curvature="0" />
    </clipPath>
    <clipPath
       clipPathUnits="userSpaceOnUse"
       id="clipPath166-9">
      <path
         d="m 2538.13,1666.44 c -19.72,0 -35.8,0.56 -45.51,1.8 -111.27,14.23 -190.36,41.58 -350.39,121.17 -63.1,31.39 -134.18,63.24 -157.98,70.79 -55.04,17.46 -109.49,26.41 -166.29,26.41 -113.18,0 -235.58,-35.55 -389.93,-110.05 -42.09,-20.32 -81.36,-39.23 -87.25,-42.04 -1.8,-0.85 -3.17,-1.33 -4.08,-1.33 -3.51,0 -0.34,7 11.01,26.42 83.77,143.39 199.34,268.12 302.41,326.35 70.41,39.78 148.31,59.72 231.5,59.72 1.58,0 3.17,0 4.75,-0.02 v 0 c 66.09,-0.6 135.47,-13.73 207.02,-39.43 102.25,-36.75 160.59,-66.23 364.08,-183.99 121.19,-70.14 206.15,-115.65 276.21,-145.6 0.58,-0.25 1.17,-0.5 1.75,-0.74 28.97,-12.32 55.4,-21.97 80.83,-29.6 v -54.21 c -18.02,-3.85 -37,-7.64 -55.94,-11.13 -18.55,-3.42 -49.87,-6.59 -84.93,-9.1 -0.81,-0.06 -1.6,-0.11 -2.41,-0.17 -45.5,-3.19 -96.92,-5.25 -134.85,-5.25"
         id="path164-2"
         inkscape:connector-curvature="0" />
    </clipPath>
  </defs>
  <sodipodi:namedview
     id="base"
     pagecolor="#ffffff"
     bordercolor="#666666"
     borderopacity="1.0"
     inkscape:pageopacity="0.0"
     inkscape:pageshadow="2"
     inkscape:zoom="0.35"
     inkscape:cx="-292.70813"
     inkscape:cy="395.48023"
     inkscape:document-units="mm"
     inkscape:current-layer="layer1"
     showgrid="false"
     fit-margin-top="0"
     fit-margin-left="0"
     fit-margin-right="0"
     fit-margin-bottom="0"
     inkscape:window-width="1366"
     inkscape:window-height="744"
     inkscape:window-x="0"
     inkscape:window-y="0"
     inkscape:window-maximized="1" />
  <metadata
     id="metadata4765">
    <rdf:RDF>
      <cc:Work
         rdf:about="">
        <dc:format>image/svg+xml</dc:format>
        <dc:type
           rdf:resource="http://purl.org/dc/dcmitype/StillImage" />
        <dc:title></dc:title>
      </cc:Work>
    </rdf:RDF>
  </metadata>
  <g
     inkscape:label="Layer 1"
     inkscape:groupmode="layer"
     id="layer1"
     transform="translate(-57.03498,-267.88747)">
    <g
       id="g12"
       transform="matrix(0.03527778,0,0,-0.03527778,56.90131,374.51139)">
      <path
         d="m 1345.91,1731.83 c -141.07,222.43 -150.84,593.92 3.58,852.17 102.4,54.79 209.53,76.83 317.76,76.83 387.34,0 787.73,-282.68 1026.46,-358.53 -57.46,5.5 -114.5,8.4 -171.13,8.4 -412.21,0 -802.77,-153.74 -1176.67,-578.87 z m 612.48,1290.58 c -478.3,0 -866.02,-388.04 -866.02,-866.62 0,-478.55 387.72,-866.61 866.02,-866.61 298.81,0 562.26,151.51 717.87,381.94 -68.8,-4.83 -151.19,-7.05 -179.43,-3.44 -110.69,14.16 -189.37,41.37 -348.57,120.55 -62.77,31.22 -133.49,62.91 -157.16,70.42 -136.96,43.45 -270.46,33.85 -445.25,-35.45 145.84,138.3 297.43,239.99 458.93,307.04 31.13,-6.45 62.78,-15.3 94.89,-26.84 101.73,-36.55 159.76,-65.88 362.19,-183.03 120.57,-69.77 205.05,-115.02 274.75,-144.81 56.1,114.81 87.64,243.83 87.64,380.23 0,478.58 -387.64,866.62 -865.86,866.62"
         style="fill:#2d59a6;fill-opacity:1;fill-rule:nonzero;stroke:none"
         id="path14"
         inkscape:connector-curvature="0" />
      <path
         d="m 333.121,909.012 c -110.144,0 -176.238,-79.313 -176.238,-286.391 0,-207.062 68.301,-285.269 176.238,-285.269 111.246,0 176.231,79.296 176.231,286.378 0,207.071 -66.082,285.282 -176.231,285.282 z m 167.426,-615.723 1.098,-4.398 c 95.832,0 160.812,-27.539 219.187,-68.301 L 630.512,102.73 C 552.309,180.949 469.707,229.41 329.816,229.41 128.254,229.41 3.78906,365.988 3.78906,622.621 c 0,252.238 127.76594,397.639 329.33194,397.639 201.567,0 329.336,-139.889 329.336,-396.53 0,-155.308 -53.969,-272.07 -161.91,-330.441"
         style="fill:#2d59a6;fill-opacity:1;fill-rule:nonzero;stroke:none"
         id="path16"
         inkscape:connector-curvature="0" />
      <path
         d="M 910.266,825.301 V 421.059 c 0,-45.161 8.816,-85.911 63.882,-85.911 53.972,0 90.322,29.731 121.162,72.692 v 417.461 h 140.99 v -582.68 h -122.26 l -7.71,72.699 c -42.96,-58.379 -107.939,-89.218 -176.236,-89.218 -112.344,0 -160.817,68.289 -160.817,177.339 v 421.86 h 140.989"
         style="fill:#2d59a6;fill-opacity:1;fill-rule:nonzero;stroke:none"
         id="path18-2"
         inkscape:connector-curvature="0" />
      <path
         d="m 1752.88,534.512 c 0,147.597 -39.65,201.57 -112.34,201.57 -48.47,0 -89.22,-35.262 -116.76,-78.203 V 394.621 c 26.44,-40.75 62.79,-60.582 106.84,-60.582 77.11,0 122.26,59.481 122.26,200.473 z M 1382.79,2.5 v 822.801 h 123.37 l 7.71,-71.602 c 46.26,60.582 107.94,88.11 168.52,88.11 154.2,0 218.09,-120.047 218.09,-306.2 0,-178.437 -82.61,-309.507 -230.2,-309.507 -59.48,0 -110.15,20.918 -146.5,63.878 V 17.9219 L 1382.79,2.5"
         style="fill:#2d59a6;fill-opacity:1;fill-rule:nonzero;stroke:none"
         id="path20"
         inkscape:connector-curvature="0" />
      <path
         d="m 2117.45,361.582 h 355.77 l -15.43,-118.961 h -508.86 v 111.25 l 356.86,534.199 h -320.51 v 115.66 h 484.63 V 891.379 L 2117.45,361.582"
         style="fill:#2d59a6;fill-opacity:1;fill-rule:nonzero;stroke:none"
         id="path22"
         inkscape:connector-curvature="0" />
      <path
         d="m 2565.73,242.621 v 582.68 h 140.99 v -582.68 z m 70.5,704.938 c -52.87,0 -89.22,37.441 -89.22,85.911 0,47.37 36.35,84.81 89.22,84.81 51.76,0 89.22,-37.44 89.22,-84.81 0,-48.47 -37.46,-85.911 -89.22,-85.911"
         style="fill:#2d59a6;fill-opacity:1;fill-rule:nonzero;stroke:none"
         id="path24"
         inkscape:connector-curvature="0" />
      <path
         d="m 3077.92,245.93 c -27.54,-11.008 -62.79,-19.828 -98.03,-19.828 -83.71,0 -138.79,48.468 -138.79,156.41 V 1058.8 l 140.99,15.43 V 384.711 c 0,-33.051 11.02,-45.16 31.94,-45.16 12.11,0 24.23,2.211 33.05,5.508 l 30.84,-99.129"
         style="fill:#2d59a6;fill-opacity:1;fill-rule:nonzero;stroke:none"
         id="path26"
         inkscape:connector-curvature="0" />
      <path
         d="m 3373.11,245.93 c -27.54,-11.008 -62.79,-19.828 -98.03,-19.828 -83.71,0 -138.79,48.468 -138.79,156.41 V 1058.8 l 140.99,15.43 V 384.711 c 0,-33.051 11.02,-45.16 31.94,-45.16 12.11,0 24.23,2.211 33.05,5.508 l 30.84,-99.129"
         style="fill:#2d59a6;fill-opacity:1;fill-rule:nonzero;stroke:none"
         id="path28"
         inkscape:connector-curvature="0" />
      <path
         d="m 3735.49,400.129 v 116.762 h -49.57 c -109.04,0 -147.59,-36.352 -147.59,-100.243 0,-57.269 26.43,-88.109 84.8,-88.109 46.27,0 84.83,26.43 112.36,71.59 z m 136.58,-6.609 c 0,-44.051 12.11,-60.579 40.76,-71.59 l -30.85,-93.621 c -61.68,5.5 -103.53,27.531 -125.57,78.203 -41.85,-55.071 -106.84,-80.41 -177.33,-80.41 -118.95,0 -191.66,73.8 -191.66,182.847 0,123.352 98.03,192.75 276.48,192.75 h 71.59 v 33.043 c 0,73.797 -34.14,99.129 -115.66,99.129 -37.45,0 -92.52,-8.812 -152,-29.742 l -34.14,96.93 c 73.8,27.543 147.59,40.75 207.08,40.75 164.12,0 231.3,-70.477 231.3,-198.258 V 393.52"
         style="fill:#2d59a6;fill-opacity:1;fill-rule:nonzero;stroke:none"
         id="path30"
         inkscape:connector-curvature="0" />
    </g>
  </g>
</svg>
