<?xml version="1.0" encoding="UTF-8" standalone="no"?>
<!-- Created with Inkscape (http://www.inkscape.org/) -->

<svg
   xmlns:dc="http://purl.org/dc/elements/1.1/"
   xmlns:cc="http://creativecommons.org/ns#"
   xmlns:rdf="http://www.w3.org/1999/02/22-rdf-syntax-ns#"
   xmlns:svg="http://www.w3.org/2000/svg"
   xmlns="http://www.w3.org/2000/svg"
   xmlns:sodipodi="http://sodipodi.sourceforge.net/DTD/sodipodi-0.dtd"
   xmlns:inkscape="http://www.inkscape.org/namespaces/inkscape"
   width="407.42535"
   height="409.5733"
   viewBox="0 0 107.79796 108.36626"
   version="1.1"
   id="svg8"
   inkscape:version="0.92.3 (2405546, 2018-03-11)"
   sodipodi:docname="icon_color.svg"
   inkscape:export-filename="/home/anxhelo/works/OpenHumans/PNG/icon_color.png"
   inkscape:export-xdpi="96"
   inkscape:export-ydpi="96">
  <defs
     id="defs2" />
  <sodipodi:namedview
     id="base"
     pagecolor="#ffffff"
     bordercolor="#666666"
     borderopacity="1.0"
     inkscape:pageopacity="0"
     inkscape:pageshadow="2"
     inkscape:zoom="0.52467208"
     inkscape:cx="265.77182"
     inkscape:cy="249.85238"
     inkscape:document-units="px"
     inkscape:current-layer="layer1"
     inkscape:document-rotation="0"
     showgrid="false"
     borderlayer="true"
     inkscape:showpageshadow="true"
     units="px"
     inkscape:pagecheckerboard="false"
     showguides="true"
     inkscape:window-width="1366"
     inkscape:window-height="715"
     inkscape:window-x="0"
     inkscape:window-y="0"
     inkscape:window-maximized="1"
     objecttolerance="10"
     guidetolerance="10"
     inkscape:snap-tangential="true"
     inkscape:snap-perpendicular="true"
     fit-margin-top="0"
     fit-margin-left="0"
     fit-margin-right="0"
     fit-margin-bottom="0">
    <inkscape:grid
       type="xygrid"
       id="grid10"
       dotted="false"
       originx="-109.59707"
       originy="-75.600625" />
  </sodipodi:namedview>
  <metadata
     id="metadata5">
    <rdf:RDF>
      <cc:Work
         rdf:about="">
        <dc:format>image/svg+xml</dc:format>
        <dc:type
           rdf:resource="http://purl.org/dc/dcmitype/StillImage" />
        <dc:title></dc:title>
        <cc:license
           rdf:resource="" />
      </cc:Work>
    </rdf:RDF>
  </metadata>
  <g
     inkscape:label="Layer 1"
     inkscape:groupmode="layer"
     id="layer1"
     transform="translate(-109.59706,-113.0331)">
    <g
       transform="matrix(0.49921784,0,0,0.49921784,-48.598886,113.0331)"
       id="g1050">
      <path
         id="path1038"
         d="m 436.5748,124.8276 c 10.3742,-4.5186 17.6296,-14.8575 17.6296,-26.8954 0,-16.1973 -13.1305,-29.3279 -29.3279,-29.3279 -16.1974,0 -29.3279,13.1306 -29.3279,29.3279 0,12.038 7.2556,22.3768 17.6296,26.8954 -15.7216,3.1822 -29.1555,12.656 -37.5783,25.6743 11.9556,13.8133 29.5951,22.5784 49.2545,22.5784 19.673,0 37.3235,-8.7773 49.2794,-22.6073 -8.4238,-13.0033 -21.8491,-22.4656 -37.559,-25.6454 z"
         class="st0"
         inkscape:connector-curvature="0"
         style="fill:#ff9061" />
      <path
         id="path1040"
         d="M 360.3328,66.7649 336.9222,43.3543 c -10.3252,14.0225 -17.3813,30.5906 -20.0346,48.575 h 33.0977 c 1.9394,-9.0849 5.4914,-17.5795 10.3475,-25.1644 z"
         class="st0"
         inkscape:connector-curvature="0"
         style="fill:#ff9061" />
      <path
         id="path1042"
         d="m 499.7236,91.9294 h 33.0977 C 530.1663,73.9342 523.1036,57.3569 512.7682,43.3291 L 489.3593,66.738 c 4.8649,7.5916 8.4226,16.0957 10.3643,25.1914 z"
         class="st0"
         inkscape:connector-curvature="0"
         style="fill:#ff9061" />
      <path
         id="path1044"
         d="M 489.7687,20.2445 C 475.7451,9.8353 459.1503,2.7059 441.1259,0 v 30.893 l 26.1591,11.8352 z"
         class="st0"
         inkscape:connector-curvature="0"
         style="fill:#ff9061" />
      <path
         id="path1046"
         d="M 408.5393,30.726 V 0.0062 c -18.0184,2.7124 -34.6068,9.8459 -48.6244,20.2567 l 21.9605,21.9605 z"
         class="st0"
         inkscape:connector-curvature="0"
         style="fill:#ff9061" />
      <path
         id="path1048"
         d="m 370.0867,161.3614 c -9.778,-10.0202 -16.8366,-22.7025 -19.9731,-36.8455 h -33.1435 c 8.0139,52.3383 53.3406,92.5562 107.8844,92.5562 54.5438,0 99.8705,-40.2179 107.8844,-92.5562 h -33.1435 c -3.1331,14.1278 -10.1799,26.7981 -19.9416,36.8132 -13.9142,14.2754 -33.3377,23.1564 -54.7993,23.1564 -21.4455,1e-4 -40.8559,-8.8675 -54.7678,-23.1241 z"
         class="st2"
         inkscape:connector-curvature="0"
         style="fill:#4bc0c7" />
    </g>
  </g>
</svg>
