<?xml version="1.0" encoding="UTF-8" standalone="no"?>
<svg
   xmlns:dc="http://purl.org/dc/elements/1.1/"
   xmlns:cc="http://creativecommons.org/ns#"
   xmlns:rdf="http://www.w3.org/1999/02/22-rdf-syntax-ns#"
   xmlns:svg="http://www.w3.org/2000/svg"
   xmlns="http://www.w3.org/2000/svg"
   xmlns:sodipodi="http://sodipodi.sourceforge.net/DTD/sodipodi-0.dtd"
   xmlns:inkscape="http://www.inkscape.org/namespaces/inkscape"
   inkscape:version="1.0 (4035a4fb49, 2020-05-01)"
   inkscape:export-ydpi="96"
   inkscape:export-xdpi="96"
   inkscape:export-filename="C:\Users\Anxhelo\Documents\GitHub\works\libre.sh\PNG\horizontal-black.png"
   sodipodi:docname="horizontal-black.svg"
   id="svg886"
   version="1.1"
   viewBox="0 0 134.9393 38.662575"
   height="38.662575mm"
   width="134.9393mm">
  <defs
     id="defs880" />
  <sodipodi:namedview
     inkscape:window-maximized="1"
     inkscape:window-y="-8"
     inkscape:window-x="-8"
     inkscape:window-height="1027"
     inkscape:window-width="1920"
     fit-margin-bottom="0"
     fit-margin-right="0"
     fit-margin-left="0"
     fit-margin-top="0"
     showgrid="false"
     inkscape:document-rotation="0"
     inkscape:current-layer="layer1"
     inkscape:document-units="mm"
     inkscape:cy="234.7949"
     inkscape:cx="284.92613"
     inkscape:zoom="0.98994949"
     inkscape:pageshadow="2"
     inkscape:pageopacity="0.0"
     borderopacity="1.0"
     bordercolor="#666666"
     pagecolor="#ffffff"
     id="base" />
  <metadata
     id="metadata883">
    <rdf:RDF>
      <cc:Work
         rdf:about="">
        <dc:format>image/svg+xml</dc:format>
        <dc:type
           rdf:resource="http://purl.org/dc/dcmitype/StillImage" />
        <dc:title></dc:title>
      </cc:Work>
    </rdf:RDF>
  </metadata>
  <g
     transform="translate(-39.875588,-135.3332)"
     id="layer1"
     inkscape:groupmode="layer"
     inkscape:label="Layer 1">
    <g
       transform="matrix(1.5063189,0,0,1.5063189,-90.789496,-53.71859)"
       id="g1489">
      <g
         id="layer1-0"
         transform="matrix(0.26458333,0,0,0.26458333,86.744166,125.50815)">
        <g
           id="g3052">
          <path
             transform="matrix(0.66387006,0,0,0.66387006,0.00177467,-0.0088031)"
             d="M 75.287109,0 A 9.971831,9.971831 0 0 0 74.800781,0.01367188 9.971831,9.971831 0 0 0 70.960938,0.9765625 l -52.375,25.0507815 a 9.9417046,9.9417046 0 0 0 -5.423829,6.732422 L 0.25390625,88.960938 A 9.8663887,9.8663887 0 0 0 1.609375,96.583984 7.5315944,7.5315944 0 0 0 2.1816406,97.367188 L 38.423828,142.45117 a 10.092337,10.092337 0 0 0 7.832031,3.67578 h 58.128911 a 10.047147,10.047147 0 0 0 7.83398,-3.73633 l 36.24219,-45.023432 a 9.896515,9.896515 0 0 0 1.92773,-8.40625 L 137.44922,32.746094 a 9.896515,9.896515 0 0 0 -5.42383,-6.734375 L 79.652344,0.9921875 A 9.971831,9.971831 0 0 0 75.287109,0 Z m -0.226562,26.373047 a 17.503425,17.503425 0 0 1 4.455078,34.496094 v 33.24414 a 17.563679,17.563679 0 0 1 11.328125,8.917969 33.605975,33.605975 0 0 0 17.60742,-24.765625 h -8.599608 a 0.5422748,0.5422748 0 0 1 -0.4375,-0.873047 l 13.226558,-17.74414 a 0.5724012,0.5724012 0 0 1 0.88868,0 l 13.22461,17.74414 a 0.5422748,0.5422748 0 0 1 -0.45118,0.949219 h -9.31054 a 42.176929,42.176929 0 0 1 -24.205081,33.138673 17.473299,17.473299 0 0 1 -34.93164,0 42.04136,42.04136 0 0 1 -24.207031,-33.214845 h -9.324219 a 0.5422748,0.5422748 0 0 1 -0.4375,-0.873047 l 13.210937,-17.74414 a 0.5724012,0.5724012 0 0 1 0.888672,0 L 51.212891,77.46875 a 0.5422748,0.5422748 0 0 1 -0.453125,0.873047 h -8.585938 a 33.621038,33.621038 0 0 0 17.625,24.689453 A 17.563679,17.563679 0 0 1 71.125,94.113281 v -33.24414 a 17.503425,17.503425 0 0 1 3.935547,-34.496094 z m 0.308594,9.837891 a 7.6972894,7.6972894 0 0 0 -7.738282,7.697265 7.6972894,7.6972894 0 0 0 7.681641,7.697266 7.6973176,7.6973176 0 0 0 0.05664,-15.394531 z m 0.02539,67.150392 a 7.6973743,7.6973743 0 1 0 -0.08203,15.39453 7.6972894,7.6972894 0 0 0 7.697266,-7.69727 7.6972894,7.6972894 0 0 0 -7.615236,-7.69726 z"
             style="fill:#000000;stroke-width:1.50632"
             id="path3055" />
        </g>
      </g>
      <path
         id="path9"
         style="fill:#000000;stroke-width:0.264583"
         d="m 120.632,143.55538 c -0.49212,-0.48154 -0.73818,-1.15888 -0.73818,-2.03994 v -9.12812 h 1.98437 v 8.99583 c 0,0.84931 0.39688,1.27 1.19063,1.27 a 1.5875,1.5875 0 0 0 0.71437,-0.15875 l 0.0952,1.5875 a 3.3919583,3.3919583 0 0 1 -1.19062,0.20638 c -0.87842,-0.0106 -1.56369,-0.2593 -2.05582,-0.7329 z" />
      <path
         id="path11"
         style="fill:#000000;stroke-width:0.264583"
         d="m 125.32307,133.951 a 1.1694583,1.1694583 0 0 1 0,-1.69862 1.2752917,1.2752917 0 0 1 0.90487,-0.34131 1.3229167,1.3229167 0 0 1 0.90488,0.32543 1.0583333,1.0583333 0 0 1 0.35718,0.81757 1.1959167,1.1959167 0 0 1 -0.35718,0.88106 1.2356042,1.2356042 0 0 1 -0.91282,0.35719 1.2620625,1.2620625 0 0 1 -0.89693,-0.34132 z m -0.0952,1.73832 h 1.9976 v 8.46666 h -1.98437 z" />
      <path
         id="path13"
         style="fill:#000000;stroke-width:0.264583"
         d="m 136.72925,136.13382 a 3.8920208,3.8920208 0 0 1 1.53194,1.524 4.5455417,4.5455417 0 0 1 0.55563,2.27012 4.5746458,4.5746458 0 0 1 -0.55563,2.27806 3.8787917,3.8787917 0 0 1 -1.53194,1.53194 4.4979167,4.4979167 0 0 1 -2.21456,0.52917 4.1010417,4.1010417 0 0 1 -1.5875,-0.30163 3.0453542,3.0453542 0 0 1 -1.21444,-0.90487 v 1.09537 h -1.88912 v -11.76866 h 1.98437 v 4.33387 a 3.3311042,3.3311042 0 0 1 1.19857,-0.84137 3.9264167,3.9264167 0 0 1 1.51606,-0.28575 4.4979167,4.4979167 0 0 1 2.20662,0.53975 z m -0.635,5.715 a 2.6458333,2.6458333 0 0 0 0.70644,-1.92088 2.6458333,2.6458333 0 0 0 -0.70644,-1.92087 2.4077083,2.4077083 0 0 0 -1.80181,-0.73025 2.5796875,2.5796875 0 0 0 -1.28587,0.32543 2.38125,2.38125 0 0 0 -0.90488,0.92869 3.0929792,3.0929792 0 0 0 0,2.794 2.3521458,2.3521458 0 0 0 0.90488,0.92869 2.5532292,2.5532292 0 0 0 1.28587,0.32544 2.3997708,2.3997708 0 0 0 1.80181,-0.73025 z" />
      <path
         id="path15"
         style="fill:#000000;stroke-width:0.264583"
         d="m 145.61132,135.59407 v 1.88912 a 2.5426458,2.5426458 0 0 0 -0.46038,-0.0476 2.397125,2.397125 0 0 0 -1.80975,0.67469 c -0.43656,0.44979 -0.65087,1.10067 -0.65087,1.94469 v 4.11162 h -1.97115 v -8.46666 h 1.88913 v 1.23825 q 0.84402,-1.34409 3.00302,-1.34409 z" />
      <path
         id="path17"
         style="fill:#000000;stroke-width:0.264583"
         d="m 153.54882,141.67419 1.05833,1.22238 a 3.4395833,3.4395833 0 0 1 -1.42875,1.03187 5.2625625,5.2625625 0 0 1 -1.9685,0.34925 5.207,5.207 0 0 1 -2.46062,-0.55562 3.984625,3.984625 0 0 1 -1.65365,-1.54517 4.3576875,4.3576875 0 0 1 -0.57944,-2.24631 4.4423542,4.4423542 0 0 1 0.55298,-2.23309 4.048125,4.048125 0 0 1 1.55575,-1.54781 4.5455417,4.5455417 0 0 1 2.24631,-0.55562 4.5958125,4.5958125 0 0 1 2.16694,0.52916 3.8999583,3.8999583 0 0 1 1.54781,1.47638 4.3153542,4.3153542 0 0 1 0.5715,2.24631 l -6.49287,1.27 a 2.2039792,2.2039792 0 0 0 0.96837,1.11125 3.175,3.175 0 0 0 1.60338,0.381 3.1220833,3.1220833 0 0 0 2.31246,-0.93398 z m -4.43707,-3.77825 a 2.6722917,2.6722917 0 0 0 -0.67468,1.92088 v 0.0159 l 4.79425,-0.92075 a 2.2648333,2.2648333 0 0 0 -0.83344,-1.25413 2.4341667,2.4341667 0 0 0 -1.51606,-0.47625 2.3230417,2.3230417 0 0 0 -1.77007,0.71438 z" />
      <path
         id="path19"
         style="fill:#000000;stroke-width:0.264583"
         d="m 156.78467,143.90463 a 1.2647083,1.2647083 0 0 1 -0.37835,-0.93398 1.2911667,1.2911667 0 0 1 0.37041,-0.9525 1.3678958,1.3678958 0 0 1 1.85209,0 1.2911667,1.2911667 0 0 1 0.37306,0.9525 1.3229167,1.3229167 0 0 1 -2.22515,0.94456 z" />
      <path
         id="path21"
         style="fill:#000000;stroke-width:0.264583"
         d="m 161.51542,143.92844 a 3.8602708,3.8602708 0 0 1 -1.41287,-0.762 l 0.36512,-0.635 a 4.1857083,4.1857083 0 0 0 1.32292,0.71438 4.9291875,4.9291875 0 0 0 1.67481,0.28575 c 0.83344,0 1.44992,-0.13494 1.85208,-0.41275 a 1.3229167,1.3229167 0 0 0 0.59532,-1.143 1.0583333,1.0583333 0 0 0 -0.32544,-0.8255 2.0399375,2.0399375 0 0 0 -0.79375,-0.4445 c -0.3175,-0.0952 -0.75671,-0.19315 -1.32292,-0.30163 a 10.829396,10.829396 0 0 1 -1.5875,-0.381 2.4791458,2.4791458 0 0 1 -1.05569,-0.66675 1.7912292,1.7912292 0 0 1 -0.42862,-1.27 1.9870208,1.9870208 0 0 1 0.81756,-1.62719 q 0.82286,-0.63235 2.33098,-0.63235 a 5.7970208,5.7970208 0 0 1 1.57163,0.22225 3.9899167,3.9899167 0 0 1 1.2647,0.5715 l -0.36512,0.635 a 3.794125,3.794125 0 0 0 -1.15888,-0.55562 4.7228125,4.7228125 0 0 0 -1.32291,-0.1905 q -1.15888,0 -1.74625,0.42862 a 1.3229167,1.3229167 0 0 0 -0.58738,1.12713 1.1218333,1.1218333 0 0 0 0.33338,0.86518 2.1166667,2.1166667 0 0 0 0.82021,0.46038 12.398375,12.398375 0 0 0 1.35731,0.32544 12.120562,12.120562 0 0 1 1.56104,0.37306 2.4024167,2.4024167 0 0 1 1.00806,0.64294 1.7277292,1.7277292 0 0 1 0.41275,1.22237 1.9393958,1.9393958 0 0 1 -0.8546,1.651 q -0.86254,0.61913 -2.413,0.61913 a 6.00075,6.00075 0 0 1 -1.91294,-0.29634 z" />
      <path
         id="path23"
         style="fill:#000000;stroke-width:0.264583"
         d="m 175.42192,136.72119 q 0.90488,0.90488 0.90488,2.6035 v 4.84188 h -0.79375 v -4.77838 c 0,-0.92869 -0.23548,-1.64041 -0.70644,-2.11666 a 2.6220208,2.6220208 0 0 0 -1.97644,-0.73025 3.048,3.048 0 0 0 -2.30187,0.87312 3.2464375,3.2464375 0 0 0 -0.84138,2.3495 v 4.40267 h -0.79375 v -11.77925 h 0.79375 v 5.22287 a 3.0559375,3.0559375 0 0 1 1.27,-1.32291 4.016375,4.016375 0 0 1 1.98438,-0.46832 q 1.55575,0.008 2.46062,0.90223 z" />
    </g>
  </g>
</svg>
