<?xml version="1.0" encoding="UTF-8" standalone="no"?>
<svg
   xmlns:dc="http://purl.org/dc/elements/1.1/"
   xmlns:cc="http://creativecommons.org/ns#"
   xmlns:rdf="http://www.w3.org/1999/02/22-rdf-syntax-ns#"
   xmlns:svg="http://www.w3.org/2000/svg"
   xmlns="http://www.w3.org/2000/svg"
   xmlns:sodipodi="http://sodipodi.sourceforge.net/DTD/sodipodi-0.dtd"
   xmlns:inkscape="http://www.inkscape.org/namespaces/inkscape"
   inkscape:version="1.0 (4035a4fb49, 2020-05-01)"
   inkscape:export-ydpi="96"
   inkscape:export-xdpi="96"
   inkscape:export-filename="C:\Users\Anxhelo\Documents\GitHub\works\libre.sh\PNG\icon-color.png"
   sodipodi:docname="icon-color.svg"
   id="svg886"
   version="1.1"
   viewBox="0 0 103.36887 100.27291"
   height="100.27291mm"
   width="103.36887mm">
  <defs
     id="defs880" />
  <sodipodi:namedview
     inkscape:window-maximized="1"
     inkscape:window-y="-8"
     inkscape:window-x="-8"
     inkscape:window-height="1027"
     inkscape:window-width="1920"
     fit-margin-bottom="0"
     fit-margin-right="0"
     fit-margin-left="0"
     fit-margin-top="0"
     showgrid="false"
     inkscape:document-rotation="0"
     inkscape:current-layer="g1516"
     inkscape:document-units="mm"
     inkscape:cy="221.73011"
     inkscape:cx="-81.896917"
     inkscape:zoom="0.35"
     inkscape:pageshadow="2"
     inkscape:pageopacity="0.0"
     borderopacity="1.0"
     bordercolor="#666666"
     pagecolor="#ffffff"
     id="base" />
  <metadata
     id="metadata883">
    <rdf:RDF>
      <cc:Work
         rdf:about="">
        <dc:format>image/svg+xml</dc:format>
        <dc:type
           rdf:resource="http://purl.org/dc/dcmitype/StillImage" />
        <dc:title></dc:title>
      </cc:Work>
    </rdf:RDF>
  </metadata>
  <g
     transform="translate(-55.660811,-91.137934)"
     id="layer1"
     inkscape:groupmode="layer"
     inkscape:label="Layer 1">
    <g
       transform="matrix(1.5063189,0,0,1.5063189,-90.789496,-53.71859)"
       id="g1489">
      <g
         transform="translate(0,15.77373)"
         id="g1516">
        <g
           transform="matrix(0.68620346,0,0,0.68620346,97.222634,80.398237)"
           id="layer1-0">
          <g
             id="g3052">
            <path
               id="path3055"
               style="fill:#05b5c8;stroke-width:1.50632"
               d="M 75.287109,0 A 9.971831,9.971831 0 0 0 74.800781,0.01367188 9.971831,9.971831 0 0 0 70.960938,0.9765625 l -52.375,25.0507815 a 9.9417046,9.9417046 0 0 0 -5.423829,6.732422 L 0.25390625,88.960938 A 9.8663887,9.8663887 0 0 0 1.609375,96.583984 7.5315944,7.5315944 0 0 0 2.1816406,97.367188 L 38.423828,142.45117 a 10.092337,10.092337 0 0 0 7.832031,3.67578 h 58.128911 a 10.047147,10.047147 0 0 0 7.83398,-3.73633 l 36.24219,-45.023432 a 9.896515,9.896515 0 0 0 1.92773,-8.40625 L 137.44922,32.746094 a 9.896515,9.896515 0 0 0 -5.42383,-6.734375 L 79.652344,0.9921875 A 9.971831,9.971831 0 0 0 75.287109,0 Z m -0.226562,26.373047 a 17.503425,17.503425 0 0 1 4.455078,34.496094 v 33.24414 a 17.563679,17.563679 0 0 1 11.328125,8.917969 33.605975,33.605975 0 0 0 17.60742,-24.765625 h -8.599608 a 0.5422748,0.5422748 0 0 1 -0.4375,-0.873047 l 13.226558,-17.74414 a 0.5724012,0.5724012 0 0 1 0.88868,0 l 13.22461,17.74414 a 0.5422748,0.5422748 0 0 1 -0.45118,0.949219 h -9.31054 a 42.176929,42.176929 0 0 1 -24.205081,33.138673 17.473299,17.473299 0 0 1 -34.93164,0 42.04136,42.04136 0 0 1 -24.207031,-33.214845 h -9.324219 a 0.5422748,0.5422748 0 0 1 -0.4375,-0.873047 l 13.210937,-17.74414 a 0.5724012,0.5724012 0 0 1 0.888672,0 L 51.212891,77.46875 a 0.5422748,0.5422748 0 0 1 -0.453125,0.873047 h -8.585938 a 33.621038,33.621038 0 0 0 17.625,24.689453 A 17.563679,17.563679 0 0 1 71.125,94.113281 v -33.24414 a 17.503425,17.503425 0 0 1 3.935547,-34.496094 z m 0.308594,9.837891 a 7.6972894,7.6972894 0 0 0 -7.738282,7.697265 7.6972894,7.6972894 0 0 0 7.681641,7.697266 7.6973176,7.6973176 0 0 0 0.05664,-15.394531 z m 0.02539,67.150392 a 7.6973743,7.6973743 0 1 0 -0.08203,15.39453 7.6972894,7.6972894 0 0 0 7.697266,-7.69727 7.6972894,7.6972894 0 0 0 -7.615236,-7.69726 z"
               transform="matrix(0.66387006,0,0,0.66387006,0.00177467,-0.0088031)" />
          </g>
        </g>
      </g>
    </g>
  </g>
</svg>
