<?xml version="1.0" encoding="UTF-8" standalone="no"?>
<svg
   xmlns:dc="http://purl.org/dc/elements/1.1/"
   xmlns:cc="http://creativecommons.org/ns#"
   xmlns:rdf="http://www.w3.org/1999/02/22-rdf-syntax-ns#"
   xmlns:svg="http://www.w3.org/2000/svg"
   xmlns="http://www.w3.org/2000/svg"
   xmlns:sodipodi="http://sodipodi.sourceforge.net/DTD/sodipodi-0.dtd"
   xmlns:inkscape="http://www.inkscape.org/namespaces/inkscape"
   xml:space="preserve"
   enable-background="new 0 0 170.5 119.3"
   viewBox="0 0 157 156.99999"
   height="157"
   width="157"
   y="0px"
   x="0px"
   id="Layer_1"
   version="1.0"
   sodipodi:docname="icon white.svg"
   inkscape:export-filename="/home/anxhelo/Desktop/Wikispeech/icon standard.png"
   inkscape:export-xdpi="95.919998"
   inkscape:export-ydpi="95.919998"
   inkscape:version="0.92.1 r"><sodipodi:namedview
     pagecolor="#ffffff"
     bordercolor="#666666"
     borderopacity="1"
     objecttolerance="10"
     gridtolerance="10"
     guidetolerance="10"
     inkscape:pageopacity="0"
     inkscape:pageshadow="2"
     inkscape:window-width="1366"
     inkscape:window-height="716"
     id="namedview4581"
     showgrid="false"
     inkscape:zoom="1.4270588"
     inkscape:cx="-5.803373"
     inkscape:cy="125.72307"
     inkscape:window-x="0"
     inkscape:window-y="24"
     inkscape:window-maximized="1"
     inkscape:current-layer="Layer_1" /><metadata
     id="metadata3486"><rdf:RDF><cc:Work
         rdf:about=""><dc:format>image/svg+xml</dc:format><dc:type
           rdf:resource="http://purl.org/dc/dcmitype/StillImage" /><dc:title></dc:title></cc:Work></rdf:RDF></metadata><defs
     id="defs3484" /><g
     transform="matrix(1.6733717,0,0,1.6733717,-73.461018,0.70708322)"
     id="g3432"
     style="fill:#ffffff"><g
       id="g3434"
       style="fill:#ffffff"><g
         id="g3436"
         style="fill:#ffffff"><path
           style="fill:#ffffff"
           id="path3438"
           d="M 96.1,63.8 V 29.5 h -14 -20.4 v 34.4 h 20.1 l 14.3,14.6 z"
           inkscape:connector-curvature="0" /></g></g><g
       id="g3440"
       style="fill:#ffffff"><polygon
         style="fill:#ffffff"
         id="polygon3442"
         points="96.1,27.2 96.1,14.9 84.3,27.2 " /></g><g
       id="g3444"
       style="fill:#ffffff"><path
         style="fill:#ffffff"
         id="path3446"
         d="m 137.2,46.7 c 0,-12.5 -4.9,-24.2 -13.7,-33 l -5.2,5.2 c 7.1,7.1 11.5,17 11.5,27.8 0,10.8 -4.4,20.7 -11.5,27.8 l 5.2,5.2 c 8.9,-8.9 13.7,-20.6 13.7,-33 z"
         inkscape:connector-curvature="0" /></g><g
       id="g3448"
       style="fill:#ffffff"><path
         style="fill:#ffffff"
         id="path3450"
         d="m 114.6,22.6 -5.2,5.2 c 4.8,4.8 7.8,11.5 7.8,18.9 0,7.4 -3,14.1 -7.8,18.9 l 5.2,5.2 c 6.2,-6.2 10,-14.7 10,-24.1 0,-9.4 -3.8,-17.9 -10,-24.1 z"
         inkscape:connector-curvature="0" /></g><g
       id="g3452"
       style="fill:#ffffff"><path
         style="fill:#ffffff"
         id="path3454"
         d="m 106,31.2 -5.2,5.2 c 2.6,2.6 4.3,6.3 4.3,10.3 0,4 -1.6,7.6 -4.3,10.3 l 5.2,5.2 c 4,-4 6.4,-9.4 6.4,-15.4 0,-6.2 -2.4,-11.6 -6.4,-15.6 z"
         inkscape:connector-curvature="0" /></g><g
       id="g3456"
       style="fill:#ffffff"><path
         style="fill:#ffffff"
         id="path3458"
         d="m 57.6,13.7 c -8.8,8.8 -13.7,20.5 -13.7,33 0,12.5 4.9,24.2 13.7,33 8.8,8.8 20.5,13.7 33,13.7 11.2,0 21.7,-3.9 30.1,-11 l -5.2,-5.2 C 108.7,82.7 100,86 90.6,86 68.9,86 51.3,68.3 51.3,46.7 51.3,25.1 68.9,7.3 90.6,7.3 c 9.4,0 18.1,3.3 24.9,8.9 L 120.7,11 C 112.3,3.9 101.7,0 90.6,0 78.1,0 66.4,4.9 57.6,13.7 Z"
         inkscape:connector-curvature="0" /></g></g></svg>